<svg xmlns="http://www.w3.org/2000/svg" width="76.17" height="76.17" viewBox="0 0 76.17 76.17"><defs><style>.cls-1{fill:#d5dae0;}.cls-1,.cls-3,.cls-4{stroke:#627386;stroke-linecap:round;stroke-linejoin:round;stroke-width:2px;}.cls-2,.cls-4{fill:#b8bfca;}.cls-3{fill:none;}</style></defs><title>ball_02</title><g id="Layer_2" data-name="Layer 2"><g id="Layer_1-2" data-name="Layer 1"><circle class="cls-1" cx="38.09" cy="38.09" r="37.08"/><path class="cls-2" d="M31.15,1.67A26,26,0,0,1,41.87,5c13.36,7.72,17.37,25.8,9,40.4S24.73,65.6,11.36,57.88a25.73,25.73,0,0,1-8.28-7.6A37.08,37.08,0,1,0,31.15,1.67Z"/><circle class="cls-3" cx="38.09" cy="38.09" r="37.08"/><ellipse class="cls-4" cx="12.25" cy="23.17" rx="4.96" ry="2.86" transform="matrix(0.5, -0.87, 0.87, 0.5, -13.94, 22.19)"/><ellipse class="cls-4" cx="15.91" cy="36.83" rx="4.96" ry="2.86" transform="translate(-23.94 32.19) rotate(-60)"/><ellipse class="cls-4" cx="25.91" cy="19.51" rx="4.96" ry="2.86" transform="translate(-3.94 32.19) rotate(-60)"/></g></g></svg>