<svg xmlns="http://www.w3.org/2000/svg" width="138.84" height="182.53" viewBox="0 0 138.84 182.53"><defs><style>.cls-1{fill:none;}.cls-1,.cls-2,.cls-3{stroke:#627386;stroke-linecap:round;stroke-linejoin:round;stroke-width:2px;}.cls-2,.cls-4{fill:#d5dae0;}.cls-3{fill:#f2f4f6;}</style></defs><title>goal_02</title><g id="Layer_2" data-name="Layer 2"><g id="Layer_1-2" data-name="Layer 1"><path class="cls-1" d="M5.23,83.58q3.52-.6,7.1-1.38c18.68-4.14,37.88-11.9,57.09-23s38.41-25.5,57.09-42.94q3.57-3.33,7.1-6.81"/><path class="cls-2" d="M43.48,72.26l7.62,19L61.21,63.79Q52.33,68.44,43.48,72.26Z"/><path class="cls-3" d="M26.4,78.47l6.22,20.47L44,72Q35.14,75.64,26.4,78.47Z"/><path class="cls-2" d="M11.72,82.31l-2.14.45,4.79,21.86L26.86,78.24C21.79,79.82,16.74,81.19,11.72,82.31Z"/><path class="cls-3" d="M69.58,59.22q-4.44,2.58-8.87,4.94l9,17.33L78.5,53.81Q74,56.61,69.58,59.22Z"/><path class="cls-2" d="M127.36,15.67q-7.48,7-15.06,13.49l12.63,11.77,4.62-27.35Z"/><path class="cls-2" d="M78,54.24,88.26,69.81l7.46-27.74Q86.87,48.57,78,54.24Z"/><path class="cls-3" d="M95.23,42.55l11.48,13.71,6.06-27.63Q104,36,95.23,42.55Z"/><line class="cls-1" x1="5.23" y1="81.47" x2="5.23" y2="181.53"/><line class="cls-1" x1="133.61" y1="7.35" x2="133.61" y2="121.63"/><circle class="cls-3" cx="5.23" cy="79.35" r="4.23"/><path class="cls-4" d="M4.9,75.14a1.73,1.73,0,0,1,.53.21c1.28.73,1.51,2.71.53,4.42s-2.82,2.49-4.1,1.76a2.17,2.17,0,0,1-.44-.36A4.13,4.13,0,0,0,3.12,83a4.23,4.23,0,0,0,4.23-7.32A4.15,4.15,0,0,0,4.9,75.14Z"/><circle class="cls-1" cx="5.23" cy="79.35" r="4.23"/><circle class="cls-3" cx="133.61" cy="5.23" r="4.23"/><path class="cls-4" d="M133.28,1a1.83,1.83,0,0,1,.53.21c1.28.73,1.51,2.71.53,4.42s-2.82,2.49-4.1,1.76a1.92,1.92,0,0,1-.44-.36,4.1,4.1,0,0,0,1.69,1.84,4.23,4.23,0,1,0,4.23-7.32A4.12,4.12,0,0,0,133.28,1Z"/><circle class="cls-1" cx="133.61" cy="5.23" r="4.23"/></g></g></svg>