<svg xmlns="http://www.w3.org/2000/svg" width="132.07" height="206.85" viewBox="0 0 132.07 206.85"><defs><style>.cls-1,.cls-5{fill:#f2f4f6;}.cls-2,.cls-6{fill:none;}.cls-2{stroke:#d5dae0;}.cls-2,.cls-3,.cls-4,.cls-5,.cls-6{stroke-linecap:round;stroke-linejoin:round;stroke-width:2px;}.cls-3{fill:#d5dae0;}.cls-3,.cls-4,.cls-5{stroke:#627386;}.cls-4{fill:#fff;}.cls-6{stroke:#fff;}</style></defs><title>hoop_01</title><g id="Layer_2" data-name="Layer 2"><g id="Layer_1-2" data-name="Layer 1"><path class="cls-1" d="M63.69,134.19s10.92,32.45,10.92,59.58c0,6.67,9.37,12.08,20.93,12.08s20.92-5.41,20.92-12.08c0-27.13,10.93-59.58,10.93-59.58"/><path class="cls-2" d="M63.69,134.19s10.92,32.45,10.92,59.58c0,6.67,9.37,12.08,20.93,12.08s20.92-5.41,20.92-12.08c0-27.13,10.93-59.58,10.93-59.58"/><polygon class="cls-3" points="98.27 95.04 1 151.2 1 57.16 98.27 1 98.27 95.04"/><polygon class="cls-3" points="111.87 102.73 14.6 158.89 14.6 64.85 111.87 8.69 111.87 102.73"/><polygon class="cls-4" points="111.59 8.69 98.27 1 1 57.16 14.32 64.85 111.59 8.69"/><polygon class="cls-5" points="14.32 158.89 1 151.2 1 57.16 14.32 64.85 14.32 158.89"/><polygon class="cls-6" points="83 97.54 42.91 120.69 42.91 81.93 83 58.77 83 97.54"/><path class="cls-5" d="M75.72,110.34l3.55,2a6.59,6.59,0,0,1,2.41,9h0a6.59,6.59,0,0,1-9,2.42l-9.87-5.7"/><path class="cls-3" d="M95.54,158.44c-19.93,0-35.54-9.61-35.54-21.88s15.61-21.89,35.54-21.89,35.53,9.61,35.53,21.89S115.46,158.44,95.54,158.44Zm0-37.31c-15.76,0-29.08,7.07-29.08,15.43S79.78,152,95.54,152s29.07-7.07,29.07-15.42S111.3,121.13,95.54,121.13Z"/><path class="cls-6" d="M62.07,136.56c0,11.08,14.66,19.76,33.38,19.76s33.38-8.68,33.38-19.76"/></g></g></svg>