<svg xmlns="http://www.w3.org/2000/svg" width="42.28" height="127.54" viewBox="0 0 42.28 127.54"><defs><style>.cls-1{fill:#f2f4f6;}.cls-1,.cls-3,.cls-4{stroke:#627386;stroke-linecap:round;stroke-linejoin:round;stroke-width:2px;}.cls-2,.cls-4{fill:#d5dae0;}.cls-3{fill:none;}.cls-5{fill:#b8bfca;}</style></defs><title>pin_01</title><g id="Layer_2" data-name="Layer 2"><g id="Layer_1-2" data-name="Layer 1"><path class="cls-1" d="M32,122.13a3.75,3.75,0,0,0,.24-.44c6.32-11.79,11.18-36.94,8.17-52.81h0a19.23,19.23,0,0,0-2.5-7.21h0a21.41,21.41,0,0,0-1.31-2c-15.17-23.44-3.28-42.27-6-51.38h0a9.67,9.67,0,0,0-18.77,0h0c-2.74,9.11,9.14,27.94-6,51.38a19.62,19.62,0,0,0-1.32,2h0a19.58,19.58,0,0,0-2.5,7.21h0c-3,15.87,1.86,41,8.18,52.81a3.75,3.75,0,0,0,.24.44v0h0c1.59,2.55,5.82,4.38,10.8,4.38s9.2-1.83,10.79-4.38h0Z"/><path class="cls-2" d="M31.93,122.16h0v0a3.75,3.75,0,0,0,.24-.44c6.32-11.79,11.18-36.94,8.17-52.81a19.23,19.23,0,0,0-2.5-7.21h0a21.41,21.41,0,0,0-1.31-2c-15.17-23.44-3.28-42.27-6-51.38h0l0-.12c-1.41-5.39-9.35-4.35-9.35,1.22v117.1C26.11,126.54,30.34,124.71,31.93,122.16Z"/><path class="cls-3" d="M32,122.13a3.75,3.75,0,0,0,.24-.44c6.32-11.79,11.18-36.94,8.17-52.81h0a19.23,19.23,0,0,0-2.5-7.21h0a21.41,21.41,0,0,0-1.31-2c-15.17-23.44-3.28-42.27-6-51.38h0a9.67,9.67,0,0,0-18.77,0h0c-2.74,9.11,9.14,27.94-6,51.38a19.62,19.62,0,0,0-1.32,2h0a19.58,19.58,0,0,0-2.5,7.21h0c-3,15.87,1.86,41,8.18,52.81a3.75,3.75,0,0,0,.24.44v0h0c1.59,2.55,5.82,4.38,10.8,4.38s9.2-1.83,10.79-4.38h0Z"/><path class="cls-4" d="M28.67,32.86c-1.41,1.57-4.25,2.64-7.53,2.64S15,34.43,13.61,32.86c0,1.46,0,3-.14,4.51,1.36,1.66,4.28,2.81,7.67,2.81s6.3-1.15,7.66-2.81C28.69,35.83,28.65,34.32,28.67,32.86Z"/><path class="cls-5" d="M28.8,37.37c0-.37-.05-.74-.07-1.11v-.07c0-.37,0-.74,0-1.1h0c0-.36,0-.72,0-1.08v-.06c0-.36,0-.72,0-1.08h0c-1.41,1.57-4.25,2.64-7.53,2.64v4.68C24.52,40.18,27.44,39,28.8,37.37Z"/><path class="cls-3" d="M28.67,32.86c-1.41,1.57-4.25,2.64-7.53,2.64S15,34.43,13.61,32.86c0,1.46,0,3-.14,4.51,1.36,1.66,4.28,2.81,7.67,2.81s6.3-1.15,7.66-2.81C28.69,35.83,28.65,34.32,28.67,32.86Z"/><path class="cls-4" d="M29.47,42.43c-.75,2.26-4.2,4-8.33,4s-7.58-1.71-8.33-4a45.17,45.17,0,0,1-1.06,4.4c1,2.44,4.84,4.24,9.39,4.24s8.35-1.8,9.39-4.24A45.17,45.17,0,0,1,29.47,42.43Z"/><path class="cls-5" d="M30.53,46.83a45.17,45.17,0,0,1-1.06-4.4c-.75,2.26-4.2,4-8.33,4v4.67C25.68,51.07,29.49,49.27,30.53,46.83Z"/><path class="cls-3" d="M29.47,42.43c-.75,2.26-4.2,4-8.33,4s-7.58-1.71-8.33-4a45.17,45.17,0,0,1-1.06,4.4c1,2.44,4.84,4.24,9.39,4.24s8.35-1.8,9.39-4.24A45.17,45.17,0,0,1,29.47,42.43Z"/></g></g></svg>