<svg xmlns="http://www.w3.org/2000/svg" width="145.99" height="112.35" viewBox="0 0 145.99 112.35"><defs><style>.cls-1,.cls-4{fill:#fff;}.cls-1,.cls-2,.cls-3{stroke:#627386;}.cls-1,.cls-2,.cls-3,.cls-4,.cls-5,.cls-6{stroke-linecap:round;stroke-linejoin:round;stroke-width:2px;}.cls-2{fill:#d5dae0;}.cls-3{fill:#f2f4f6;}.cls-4,.cls-5,.cls-6{stroke:#1b6dc6;}.cls-5{fill:#bde4fd;}.cls-6{fill:#e9f6fe;}</style></defs><title>podium_01</title><g id="Layer_2" data-name="Layer 2"><g id="Layer_1-2" data-name="Layer 1"><polygon class="cls-1" points="109 16.21 73 37 109 57.78 144.99 37 109 16.21"/><polygon class="cls-2" points="144.99 49 109 69.78 109 57.78 144.99 37 144.99 49"/><polygon class="cls-3" points="73 49 109 69.78 109 57.78 73 37 73 49"/><polygon class="cls-4" points="73 1 37 21.78 37 69.78 73 49 109 69.78 109 21.78 73 1"/><polygon class="cls-5" points="109 69.78 73 90.56 73 42.57 109 21.78 109 69.78"/><polygon class="cls-6" points="37 69.78 73 90.56 73 42.57 37 21.78 37 69.78"/><polygon class="cls-1" points="37 45.78 1 66.57 37 87.35 73 66.57 37 45.78"/><polygon class="cls-2" points="73 90.56 37 111.35 37 87.35 73 66.57 73 90.56"/><polygon class="cls-3" points="1 90.56 37 111.35 37 87.35 1 66.57 1 90.56"/></g></g></svg>