<svg xmlns="http://www.w3.org/2000/svg" width="111.24" height="138.72" viewBox="0 0 111.24 138.72"><defs><style>.cls-1,.cls-2{fill:#bde4fd;}.cls-2{stroke:#1b6dc6;}.cls-2,.cls-3,.cls-4,.cls-5,.cls-6,.cls-7{stroke-linecap:round;stroke-width:2px;}.cls-2,.cls-3,.cls-4,.cls-5,.cls-6{stroke-linejoin:round;}.cls-3{fill:#f2f4f6;}.cls-3,.cls-4,.cls-5,.cls-6{stroke:#627386;}.cls-4,.cls-7{fill:none;}.cls-5{fill:#fff;}.cls-6{fill:#d5dae0;}.cls-7{stroke:#d5dae0;stroke-miterlimit:10;}</style></defs><title>crossroad_01</title><g id="Layer_2" data-name="Layer 2"><g id="Layer_1-2" data-name="Layer 1"><polygon class="cls-1" points="99.32 21.96 58.55 45.5 58.55 35.02 58.55 24.54 99.32 1 110.24 5.17 99.32 21.96"/><polygon class="cls-2" points="99.32 21.96 58.55 45.5 58.55 35.02 58.55 24.54 99.32 1 110.24 5.17 99.32 21.96"/><polygon class="cls-3" points="11.93 31.96 52.7 55.5 52.7 45.02 52.7 34.54 11.93 11 1 15.17 11.93 31.96"/><polygon class="cls-3" points="11.93 31.96 52.7 55.5 52.7 45.02 52.7 34.54 11.93 11 1 15.17 11.93 31.96"/><path class="cls-3" d="M51.48,15.19V135.33c0,1.32,1.85,2.39,4.14,2.39s4.14-1.07,4.14-2.39V15.19Z"/><path class="cls-4" d="M51.48,15.19V135.33c0,1.32,1.85,2.39,4.14,2.39s4.14-1.07,4.14-2.39V15.19Z"/><ellipse class="cls-5" cx="55.62" cy="15.19" rx="4.14" ry="2.39"/><polygon class="cls-6" points="11.93 75.45 52.7 51.92 52.7 62.4 52.7 72.88 11.93 96.42 1 92.24 11.93 75.45"/><polygon class="cls-4" points="11.93 75.45 52.7 51.92 52.7 62.4 52.7 72.88 11.93 96.42 1 92.24 11.93 75.45"/><polygon class="cls-7" points="5.18 90.89 13.88 77.51 49.94 56.69 49.94 71.29 11.68 93.37 5.18 90.89"/><polygon class="cls-3" points="99.32 61.45 58.55 37.92 58.55 48.4 58.55 58.88 99.32 82.42 110.24 78.24 99.32 61.45"/><polygon class="cls-3" points="99.32 61.45 58.55 37.92 58.55 48.4 58.55 58.88 99.32 82.42 110.24 78.24 99.32 61.45"/></g></g></svg>