<svg xmlns="http://www.w3.org/2000/svg" width="80.31" height="78.36" viewBox="0 0 80.31 78.36"><defs><style>.cls-1{fill:#bde4fd;}.cls-1,.cls-3,.cls-7{stroke:#1b6dc6;}.cls-1,.cls-3,.cls-5,.cls-7{stroke-linecap:round;stroke-linejoin:round;stroke-width:2px;}.cls-2{fill:#e9f6fe;}.cls-3,.cls-5{fill:none;}.cls-4{fill:#fff;}.cls-5{stroke:#91d2fb;}.cls-6,.cls-7{fill:#91d2fb;}</style></defs><title>product_01</title><g id="Layer_2" data-name="Layer 2"><g id="Layer_1-2" data-name="Layer 1"><path class="cls-1" d="M79.31,14.83,12,3.69,1,6.39v30H1a3.88,3.88,0,0,0,.31,1.5L15.93,73.22a5.77,5.77,0,0,0,2.55,2.7,12,12,0,0,0,5.9,1.44,13.1,13.1,0,0,0,1.88-.13,108.57,108.57,0,0,0,18-3.93A79,79,0,0,0,60,66.5a51.54,51.54,0,0,0,12-9.36,33.88,33.88,0,0,0,7-10.91,3.9,3.9,0,0,0,.26-1.41h0Z"/><path class="cls-2" d="M21,5.18,12,3.69,1,6.39v30H1a3.88,3.88,0,0,0,.31,1.5L15.93,73.22a5.77,5.77,0,0,0,2.55,2.7,10.13,10.13,0,0,0,2.5,1Z"/><path class="cls-3" d="M79.31,14.83,12,3.69,1,6.39v30H1a3.88,3.88,0,0,0,.31,1.5L15.93,73.22a5.77,5.77,0,0,0,2.55,2.7,12,12,0,0,0,5.9,1.44,13.1,13.1,0,0,0,1.88-.13,108.57,108.57,0,0,0,18-3.93A79,79,0,0,0,60,66.5a51.54,51.54,0,0,0,12-9.36,33.88,33.88,0,0,0,7-10.91,3.9,3.9,0,0,0,.26-1.41h0Z"/><path class="cls-4" d="M76.56,10.78a10.81,10.81,0,0,0-3.82-1.24L11.16,1.12A12.15,12.15,0,0,0,3.74,2.37C1.39,3.73.46,5.84,1.31,7.89L15.93,43.22a5.79,5.79,0,0,0,2.55,2.71,12.06,12.06,0,0,0,5.9,1.43,14.71,14.71,0,0,0,1.88-.12,108.56,108.56,0,0,0,18-3.94A79,79,0,0,0,60,36.51a51.81,51.81,0,0,0,12-9.36,34.1,34.1,0,0,0,7-10.91C79.83,14.21,78.88,12.12,76.56,10.78ZM23,41.67c-.12-.07-.17-.12-.18-.12h0L16,24.89a45.5,45.5,0,0,0,15.21-5.14,22.31,22.31,0,0,0,9.18-9.16l31,4.24a1.83,1.83,0,0,1,.61.17c-2.67,6.6-8.36,12.56-16.49,17.25S36.63,40.37,24.87,42A3.14,3.14,0,0,1,23,41.67ZM9.76,6.41,33,9.59a17.69,17.69,0,0,1-6.41,5.91,37.52,37.52,0,0,1-12.8,4.22L8.38,6.57A2.57,2.57,0,0,1,9.76,6.41Z"/><path class="cls-5" d="M4.9,16.57l11,26.65a5.79,5.79,0,0,0,2.55,2.71,12.06,12.06,0,0,0,5.9,1.43,14.71,14.71,0,0,0,1.88-.12,108.56,108.56,0,0,0,18-3.94A79,79,0,0,0,60,36.51a51.81,51.81,0,0,0,12-9.36m0,0A37.18,37.18,0,0,0,74.71,24M23,41.67c-.12-.07-.17-.12-.18-.12h0L16,24.89a45.5,45.5,0,0,0,15.21-5.14,22.31,22.31,0,0,0,9.18-9.16l31,4.24a1.83,1.83,0,0,1,.61.17c-2.67,6.6-8.36,12.56-16.49,17.25S36.63,40.37,24.87,42A3.14,3.14,0,0,1,23,41.67ZM9.76,6.41,33,9.59a17.69,17.69,0,0,1-6.41,5.91,37.52,37.52,0,0,1-12.8,4.22L8.38,6.57A2.57,2.57,0,0,1,9.76,6.41Z"/><path class="cls-1" d="M23,41.67c-.12-.07-.17-.12-.18-.12h0L16,24.89a45.5,45.5,0,0,0,15.21-5.14,22.31,22.31,0,0,0,9.18-9.16l31,4.24a1.83,1.83,0,0,1,.61.17c-2.67,6.6-8.36,12.56-16.49,17.25S36.63,40.37,24.87,42A3.14,3.14,0,0,1,23,41.67Z"/><path class="cls-6" d="M31.17,19.75A45.5,45.5,0,0,1,16,24.89l6.89,16.66h0s.06.05.18.12a3.14,3.14,0,0,0,1.84.28,100,100,0,0,0,15.48-3.32v-28A22.31,22.31,0,0,1,31.17,19.75Z"/><path class="cls-3" d="M23,41.67c-.12-.07-.17-.12-.18-.12h0L16,24.89a45.5,45.5,0,0,0,15.21-5.14,22.31,22.31,0,0,0,9.18-9.16l31,4.24a1.83,1.83,0,0,1,.61.17c-2.67,6.6-8.36,12.56-16.49,17.25S36.63,40.37,24.87,42A3.14,3.14,0,0,1,23,41.67Z"/><path class="cls-7" d="M9.76,6.41,33,9.59a17.69,17.69,0,0,1-6.41,5.91,37.52,37.52,0,0,1-12.8,4.22L8.38,6.57A2.57,2.57,0,0,1,9.76,6.41Z"/><path class="cls-3" d="M79.3,14.82a4.81,4.81,0,0,0-2.74-4,10.81,10.81,0,0,0-3.82-1.24L11.16,1.12A12.15,12.15,0,0,0,3.74,2.37,4.79,4.79,0,0,0,1,6.39H1v30H1a3.88,3.88,0,0,0,.31,1.5L15.93,73.22a5.77,5.77,0,0,0,2.55,2.7,12,12,0,0,0,5.9,1.44,13.1,13.1,0,0,0,1.88-.13,108.57,108.57,0,0,0,18-3.93A79,79,0,0,0,60,66.5a51.54,51.54,0,0,0,12-9.36,34.05,34.05,0,0,0,7-10.91,3.9,3.9,0,0,0,.26-1.41h0v-30Z"/></g></g></svg>