<svg xmlns="http://www.w3.org/2000/svg" width="84.32" height="100.42" viewBox="0 0 84.32 100.42"><defs><style>.cls-1{fill:#fff;}.cls-2{fill:#d5dae0;}.cls-3{fill:#f2f4f6;}.cls-10,.cls-4,.cls-5,.cls-9{fill:none;stroke-linecap:round;stroke-linejoin:round;stroke-width:2px;}.cls-4{stroke:#b8bfca;}.cls-5{stroke:#627386;}.cls-6{fill:#faabab;}.cls-7{fill:#feeeee;}.cls-8{fill:#fccccc;}.cls-9{stroke:#faabab;}.cls-10{stroke:#c44556;}</style></defs><title>roadblcok_05</title><g id="Layer_2" data-name="Layer 2"><g id="Layer_1-2" data-name="Layer 1"><polygon class="cls-1" points="53.3 81.52 66.68 73.8 83.32 83.4 69.94 91.13 53.3 81.52"/><polygon class="cls-2" points="83.32 83.4 83.32 91.7 69.94 99.42 69.94 91.13 83.32 83.4"/><polygon class="cls-3" points="53.3 81.52 53.3 89.82 69.94 99.42 69.94 91.13 53.3 81.52"/><polygon class="cls-4" points="53.3 81.52 66.68 73.8 83.32 83.4 69.94 91.13 53.3 81.52"/><polygon class="cls-4" points="83.32 83.4 83.32 91.7 69.94 99.42 69.94 91.13 83.32 83.4"/><polygon class="cls-4" points="53.3 81.52 53.3 89.82 69.94 99.42 69.94 91.13 53.3 81.52"/><polygon class="cls-5" points="66.68 73.8 53.3 81.52 53.3 89.82 69.94 99.42 83.32 91.7 83.32 83.4 66.68 73.8"/><polygon class="cls-2" points="69.94 58.42 74.21 55.96 74.21 83.4 69.94 85.87 69.94 58.42"/><polygon class="cls-3" points="69.94 58.42 62.41 54.08 62.41 81.52 69.94 85.87 69.94 58.42"/><polygon class="cls-4" points="69.94 58.42 74.21 55.96 74.21 83.4 69.94 85.87 69.94 58.42"/><polygon class="cls-4" points="69.94 58.42 62.41 54.08 62.41 81.52 69.94 85.87 69.94 58.42"/><polygon class="cls-5" points="69.94 58.42 62.41 54.08 62.41 81.52 69.94 85.87 74.21 83.4 74.21 55.96 69.94 58.42"/><polygon class="cls-1" points="1 51.32 14.38 43.6 31.02 53.2 17.64 60.93 1 51.32"/><polygon class="cls-2" points="31.02 53.2 31.02 61.5 17.64 69.23 17.64 60.93 31.02 53.2"/><polygon class="cls-3" points="1 51.32 1 59.62 17.64 69.23 17.64 60.93 1 51.32"/><polygon class="cls-4" points="1 51.32 14.38 43.6 31.02 53.2 17.64 60.93 1 51.32"/><polygon class="cls-4" points="31.02 53.2 31.02 61.5 17.64 69.23 17.64 60.93 31.02 53.2"/><polygon class="cls-4" points="1 51.32 1 59.62 17.64 69.23 17.64 60.93 1 51.32"/><polygon class="cls-5" points="14.38 43.6 1 51.32 1 59.62 17.64 69.23 31.02 61.5 31.02 53.2 14.38 43.6"/><polygon class="cls-2" points="17.64 28.23 21.91 25.76 21.91 53.2 17.64 55.67 17.64 28.23"/><polygon class="cls-3" points="17.64 28.23 10.11 23.88 10.11 51.32 17.64 55.67 17.64 28.23"/><polygon class="cls-4" points="17.64 28.23 21.91 25.76 21.91 53.2 17.64 55.67 17.64 28.23"/><polygon class="cls-4" points="17.64 28.23 10.11 23.88 10.11 51.32 17.64 55.67 17.64 28.23"/><polygon class="cls-5" points="17.64 28.23 10.11 23.88 10.11 51.32 17.64 55.67 21.91 53.2 21.91 25.76 17.64 28.23"/><polygon class="cls-1" points="74.3 46.93 82.76 42.05 11.66 1 3.21 5.88 74.3 46.93"/><polygon class="cls-6" points="3.21 5.88 3.21 21.68 15.06 12.72 3.21 5.88"/><polygon class="cls-6" points="38.76 26.4 26.91 19.56 15.06 28.52 26.91 35.36 38.76 26.4"/><polygon class="cls-6" points="62.45 40.09 50.61 33.24 38.76 42.2 50.61 49.04 62.45 40.09"/><polygon class="cls-6" points="74.3 62.73 74.3 46.93 62.45 55.88 74.3 62.73"/><polygon class="cls-7" points="26.91 19.56 15.06 12.72 3.21 21.68 15.06 28.52 26.91 19.56"/><polygon class="cls-7" points="50.61 33.24 38.76 26.4 26.91 35.36 38.76 42.2 50.61 33.24"/><polygon class="cls-7" points="74.3 46.93 62.45 40.09 50.61 49.04 62.45 55.88 74.3 46.93"/><polygon class="cls-8" points="74.3 46.93 82.76 42.05 82.76 57.84 74.3 62.73 74.3 46.93"/><polygon class="cls-9" points="74.3 46.93 82.76 42.05 11.66 1 3.21 5.88 74.3 46.93"/><polygon class="cls-9" points="11.66 1 3.21 5.88 3.21 5.88 3.21 21.68 15.06 28.52 26.91 35.36 38.76 42.2 50.61 49.04 62.45 55.88 74.3 62.73 82.76 57.84 82.76 42.05 11.66 1"/><polygon class="cls-10" points="3.21 5.88 3.21 21.68 15.06 12.72 3.21 5.88"/><polygon class="cls-10" points="38.76 26.4 26.91 19.56 15.06 28.52 26.91 35.36 38.76 26.4"/><polygon class="cls-10" points="62.45 40.09 50.61 33.24 38.76 42.2 50.61 49.04 62.45 40.09"/><polygon class="cls-10" points="74.3 62.73 74.3 46.93 62.45 55.88 74.3 62.73"/><polygon class="cls-10" points="30.71 12 11.66 1 3.21 5.88 3.21 21.68 15.06 28.52 15.06 28.52 15.06 28.52 15.06 28.52 19.8 31.26 26.91 35.36 38.76 42.2 44.68 45.62 50.61 49.04 62.45 55.88 67.05 58.54 74.3 62.73 74.3 62.73 74.3 62.73 82.76 57.84 82.76 42.05 30.71 12"/><line class="cls-10" x1="74.3" y1="46.93" x2="74.3" y2="62.72"/><line class="cls-10" x1="73.32" y1="45.95" x2="3.2" y2="5.86"/></g></g></svg>