<svg xmlns="http://www.w3.org/2000/svg" width="103.48" height="152.37" viewBox="0 0 103.48 152.37"><defs><style>.cls-1,.cls-7{fill:#bde4fd;}.cls-2,.cls-4,.cls-6{fill:#e9f6fe;}.cls-3{fill:none;}.cls-3,.cls-4,.cls-5,.cls-7,.cls-8{stroke:#1b6dc6;}.cls-3,.cls-4,.cls-5,.cls-6,.cls-7,.cls-8{stroke-linecap:round;stroke-linejoin:round;stroke-width:2px;}.cls-5{fill:#d3edfd;}.cls-6,.cls-9{stroke:#91d2fb;}.cls-8{fill:#fff;}.cls-9{fill:#91d2fb;stroke-miterlimit:10;}</style></defs><title>sign_03</title><g id="Layer_2" data-name="Layer 2"><g id="Layer_1-2" data-name="Layer 1"><path class="cls-1" d="M83.58,73.37v38c0,1.07-1.5,1.93-3.35,1.93s-3.35-.86-3.35-1.93v-38Z"/><path class="cls-2" d="M80.23,73.37H76.88v38c0,1.07,1.5,1.93,3.35,1.93Z"/><path class="cls-1" d="M83.58,85V98.12c0,1.07-1.5,1.94-3.35,1.94s-3.35-.87-3.35-1.94V85Z"/><path class="cls-3" d="M83.58,73.94v37.39c0,1.07-1.5,1.93-3.35,1.93s-3.35-.86-3.35-1.93V73.94"/><path class="cls-1" d="M17.57,111.48v38c0,1.07-1.5,1.93-3.35,1.93s-3.35-.86-3.35-1.93v-38Z"/><path class="cls-2" d="M14.22,111.48H10.87v38c0,1.07,1.5,1.93,3.35,1.93Z"/><path class="cls-1" d="M17.57,123.06v13.17c0,1.07-1.5,1.94-3.35,1.94s-3.35-.87-3.35-1.94V123.06Z"/><path class="cls-3" d="M17.57,112.05v37.39c0,1.07-1.5,1.93-3.35,1.93s-3.35-.86-3.35-1.93V112.05"/><polygon class="cls-4" points="86.82 72.21 102.48 81.25 16.66 130.8 1 121.75 86.82 72.21"/><path class="cls-5" d="M85.54,1.25h0a2.39,2.39,0,0,0-2.42.19L4.7,46.71c-2,1.18-3.7,4.35-3.7,7.08v68l15.66,9.05v-5.45L8.27,120.5h0L19,105.93,86.82,66.76V13.59l6-8.15Z"/><line class="cls-6" x1="8.27" y1="120.5" x2="1" y2="116.3"/><path class="cls-2" d="M4.7,46.71,83.11,1.44a2.39,2.39,0,0,1,2.42-.19h0l7.27,4.19-4.46,5.22V57.12c0,2.73-1.66,5.9-3.71,7.08L54.89,81.38,1.64,50.63A8,8,0,0,1,4.7,46.71Z"/><path class="cls-3" d="M85.54,1.25h0a2.39,2.39,0,0,0-2.42.19L4.7,46.71c-2,1.18-3.7,4.35-3.7,7.08v68l15.66,9.05v-5.45L8.27,120.5h0L19,105.93,86.82,66.76V13.59l6-8.15Z"/><polyline class="cls-4" points="94.09 70.95 102.48 75.8 16.66 125.35 8.27 120.5"/><polygon class="cls-7" points="102.48 81.25 102.48 75.8 16.66 125.35 16.66 130.8 102.48 81.25"/><path class="cls-7" d="M94.09,71V8.44c0-2.73-1.66-4-3.71-2.8L12,50.91c-2,1.18-3.7,4.35-3.7,7.08V120.5"/><path class="cls-8" d="M13.7,107.46V59.82a4.21,4.21,0,0,1,2.1-3.65L86.55,15.33a1.4,1.4,0,0,1,2.1,1.21V64.18a4.21,4.21,0,0,1-2.1,3.65L15.8,108.67A1.4,1.4,0,0,1,13.7,107.46Z"/><path class="cls-9" d="M62.08,56.93a27.16,27.16,0,0,0-.78-6.71A17.83,17.83,0,0,0,59.11,45a1.2,1.2,0,0,0-1.76-.28,3.48,3.48,0,0,0-1.08,1l-15.06,21a5,5,0,0,0-.94,2.76c0,.91.35,1.54.93,1.68l15.13,3.71a1.39,1.39,0,0,0,1-.2A4.23,4.23,0,0,0,59,72.56a51.71,51.71,0,0,0,2.27-7.89A39.91,39.91,0,0,0,62.08,56.93ZM41.86,67.83,48,59.19a9.5,9.5,0,0,1,1.3,5.15,19.65,19.65,0,0,1-1.28,6.6l-6.2-1.52C41.41,69.32,41.41,68.45,41.86,67.83Zm19-10.18A42.51,42.51,0,0,1,58,72.28a1.55,1.55,0,0,1-.6.78.51.51,0,0,1-.37.07l-7.87-1.92a22.44,22.44,0,0,0,1.47-7.59,11,11,0,0,0-1.48-5.92l7.81-10.91a1.64,1.64,0,0,1,.43-.41.48.48,0,0,1,.7.12A20.63,20.63,0,0,1,60.83,57.65Z"/><line class="cls-6" x1="8.27" y1="120.5" x2="94.09" y2="70.95"/><polyline class="cls-3" points="94.09 70.95 102.48 75.8 16.66 125.35 8.27 120.5"/><path class="cls-3" d="M94.09,71V8.44c0-2.73-1.66-4-3.71-2.8L12,50.91c-2,1.18-3.7,4.35-3.7,7.08V120.5"/></g></g></svg>