<svg xmlns="http://www.w3.org/2000/svg" width="89.65" height="114.89" viewBox="0 0 89.65 114.89"><defs><style>.cls-1{fill:#f2f4f6;}.cls-1,.cls-3,.cls-4,.cls-5{stroke:#627386;stroke-linecap:round;stroke-linejoin:round;stroke-width:2px;}.cls-2,.cls-4{fill:#d5dae0;}.cls-3{fill:none;}.cls-5{fill:#fff;}</style></defs><title>sign_02</title><g id="Layer_2" data-name="Layer 2"><g id="Layer_1-2" data-name="Layer 1"><path class="cls-1" d="M67.1,76v35.9c0,1.08-1.52,2-3.39,2s-3.38-.88-3.38-2V76Z"/><path class="cls-2" d="M67.1,90.08v14.76c0,1.08-1.52,2-3.39,2s-3.38-.87-3.38-2V90.08Z"/><path class="cls-3" d="M67.1,76v35.9c0,1.08-1.52,2-3.39,2s-3.38-.88-3.38-2V76Z"/><path class="cls-1" d="M29.32,54.22v35.9c0,1.08-1.51,2-3.38,2s-3.39-.88-3.39-2V54.22Z"/><path class="cls-2" d="M29.32,68.27V83c0,1.08-1.51,2-3.38,2s-3.39-.88-3.39-2V68.27Z"/><path class="cls-3" d="M29.32,54.22v35.9c0,1.08-1.51,2-3.38,2s-3.39-.88-3.39-2V54.22Z"/><polygon class="cls-1" points="81.8 103.5 7.86 60.81 7.86 4.96 81.8 47.65 81.8 103.5"/><polygon class="cls-4" points="88.65 99.54 81.8 103.5 81.8 47.65 88.65 43.69 88.65 99.54"/><polygon class="cls-5" points="14.71 1 7.86 4.96 81.8 47.65 88.65 43.69 14.71 1"/><polygon class="cls-5" points="7.86 60.81 1 64.77 74.94 107.46 81.8 103.5 7.86 60.81"/><polygon class="cls-5" points="81.8 47.69 74.94 43.73 81.8 39.78 88.65 43.73 81.8 47.69"/><polygon class="cls-5" points="47.83 28.06 40.97 24.1 47.83 20.14 54.68 24.1 47.83 28.06"/><polygon class="cls-5" points="14.71 8.92 7.86 4.96 14.71 1 21.57 4.96 14.71 8.92"/><polyline class="cls-3" points="14.71 8.92 44.83 26.32 74.94 43.73"/></g></g></svg>