<svg xmlns="http://www.w3.org/2000/svg" width="100.95" height="148.62" viewBox="0 0 100.95 148.62"><defs><style>.cls-1,.cls-5{fill:#bde4fd;}.cls-2,.cls-4,.cls-6{fill:#e9f6fe;}.cls-3{fill:none;}.cls-3,.cls-4,.cls-5,.cls-7,.cls-8{stroke:#1b6dc6;}.cls-3,.cls-4,.cls-5,.cls-6,.cls-7,.cls-8{stroke-linecap:round;stroke-linejoin:round;stroke-width:2px;}.cls-6,.cls-9{stroke:#91d2fb;}.cls-7{fill:#d3edfd;}.cls-8{fill:#fff;}.cls-9{fill:#91d2fb;stroke-miterlimit:10;}</style></defs><title>sign_04</title><g id="Layer_2" data-name="Layer 2"><g id="Layer_1-2" data-name="Layer 1"><path class="cls-1" d="M26,71.57v37c0,1-1.46,1.88-3.26,1.88s-3.26-.84-3.26-1.88v-37Z"/><path class="cls-2" d="M22.7,71.57H19.44v37c0,1,1.46,1.88,3.26,1.88Z"/><path class="cls-1" d="M26,82.86V95.7c0,1-1.46,1.89-3.26,1.89s-3.26-.85-3.26-1.89V82.86Z"/><path class="cls-3" d="M26,72.12v36.46c0,1-1.46,1.88-3.26,1.88s-3.26-.84-3.26-1.88V72.12"/><path class="cls-1" d="M90.32,108.72v37c0,1-1.46,1.88-3.26,1.88s-3.27-.84-3.27-1.88v-37Z"/><path class="cls-2" d="M87.06,108.72H83.79v37c0,1,1.46,1.88,3.27,1.88Z"/><path class="cls-1" d="M90.32,120v12.85c0,1-1.46,1.88-3.26,1.88s-3.27-.84-3.27-1.88V120Z"/><path class="cls-3" d="M90.32,109.28v36.46c0,1-1.46,1.88-3.26,1.88s-3.27-.84-3.27-1.88V109.28"/><polygon class="cls-4" points="16.27 70.43 1 79.25 84.68 127.56 99.95 118.74 16.27 70.43"/><path class="cls-5" d="M17.52,1.24h0a2.32,2.32,0,0,1,2.36.19L96.34,45.57c2,1.15,3.61,4.24,3.61,6.9v66.27l-15.27,8.82v-5.32l8.18-4.72h0L82.42,103.31,16.27,65.12V13.28L10.44,5.33Z"/><line class="cls-6" x1="92.86" y1="117.52" x2="99.95" y2="113.43"/><path class="cls-2" d="M96.34,45.57,19.89,1.43a2.32,2.32,0,0,0-2.36-.19h0L10.44,5.33l4.34,5.09v45.3c0,2.66,1.62,5.75,3.61,6.9l29,16.75,51.92-30A7.74,7.74,0,0,0,96.34,45.57Z"/><path class="cls-3" d="M17.52,1.24h0a2.32,2.32,0,0,1,2.36.19L96.34,45.57c2,1.15,3.61,4.24,3.61,6.9v66.27l-15.27,8.82v-5.32l8.18-4.72h0L82.42,103.31,16.27,65.12V13.28L10.44,5.33Z"/><polyline class="cls-4" points="9.19 69.21 1 73.93 84.68 122.25 92.86 117.52"/><polygon class="cls-7" points="1 79.25 1 73.93 84.68 122.25 84.68 127.56 1 79.25"/><path class="cls-7" d="M9.19,69.21v-61c0-2.66,1.61-3.88,3.61-2.73L89.25,49.66c2,1.15,3.61,4.24,3.61,6.9v61"/><path class="cls-8" d="M87.57,104.8V58.35a4.09,4.09,0,0,0-2-3.55L16.54,15a1.37,1.37,0,0,0-2.06,1.18V62.61a4.11,4.11,0,0,0,2.06,3.55l69,39.83A1.37,1.37,0,0,0,87.57,104.8Z"/><path class="cls-9" d="M60.87,59.39a49.11,49.11,0,0,0-2.21-7.69,4.1,4.1,0,0,0-1.61-2.11,1.31,1.31,0,0,0-1-.2L41.3,53c-.57.13-.91.75-.9,1.64a4.84,4.84,0,0,0,.9,2.68L56,77.84a3.35,3.35,0,0,0,1.06,1,1.16,1.16,0,0,0,1.71-.28,17.49,17.49,0,0,0,2.14-5.09,26.8,26.8,0,0,0,.76-6.54A38.85,38.85,0,0,0,60.87,59.39ZM41.94,54.76l6-1.48a18.91,18.91,0,0,1,1.25,6.44,9.25,9.25,0,0,1-1.26,5l-6-8.42C41.51,55.71,41.51,54.86,41.94,54.76ZM57.73,77.12a.48.48,0,0,1-.68.11,1.35,1.35,0,0,1-.42-.41L49,66.19a10.75,10.75,0,0,0,1.44-5.77A21.75,21.75,0,0,0,49,53l7.67-1.88a.48.48,0,0,1,.36.07,1.55,1.55,0,0,1,.59.77,41.5,41.5,0,0,1,2.8,14.26A20.14,20.14,0,0,1,57.73,77.12Z"/><line class="cls-6" x1="92.86" y1="117.52" x2="9.19" y2="69.21"/><polyline class="cls-3" points="9.19 69.21 1 73.93 84.68 122.25 92.86 117.52"/><path class="cls-3" d="M9.19,69.21v-61c0-2.66,1.61-3.88,3.61-2.73L89.25,49.66c2,1.15,3.61,4.24,3.61,6.9v61"/></g></g></svg>