<svg xmlns="http://www.w3.org/2000/svg" width="26" height="95.07" viewBox="0 0 26 95.07"><defs><style>.cls-1{fill:#d5dae0;}.cls-1,.cls-3,.cls-4,.cls-5{stroke:#627386;stroke-linecap:round;stroke-linejoin:round;stroke-width:2px;}.cls-2{fill:#f2f4f6;}.cls-3{fill:none;}.cls-4{fill:#b8bfca;}.cls-5{fill:#fff;}</style></defs><title>trafficlight_01</title><g id="Layer_2" data-name="Layer 2"><g id="Layer_1-2" data-name="Layer 1"><path class="cls-1" d="M10.16,35.53v56.9c0,.91,1.27,1.64,2.84,1.64s2.84-.73,2.84-1.64V35.53Z"/><path class="cls-2" d="M10.16,35.53v56.9c0,.91,1.27,1.64,2.84,1.64V35.53Z"/><path class="cls-3" d="M10.16,35.53v56.9c0,.91,1.27,1.64,2.84,1.64s2.84-.73,2.84-1.64V35.53Z"/><path class="cls-1" d="M23.58,6.27l-8.65-5h0a2.65,2.65,0,0,0-2.7.21L5.12,5.6C2.84,6.91,1,10.44,1,13.47V51.9c0,1.66.55,2.82,1.43,3.33h0l8.65,5,.71-8.71,1.58-.91c2.27-1.31,4.12-4.83,4.12-7.87V21.17Z"/><path class="cls-2" d="M18,20l5.6-13.76-8.65-5h0a2.65,2.65,0,0,0-2.7.21L5.12,5.6A8.69,8.69,0,0,0,1.81,9.74Z"/><path class="cls-3" d="M23.58,6.27l-8.65-5h0a2.65,2.65,0,0,0-2.7.21L5.12,5.6C2.84,6.91,1,10.44,1,13.47V51.9c0,1.66.55,2.82,1.43,3.33h0l8.65,5,.71-8.71,1.58-.91c2.27-1.31,4.12-4.83,4.12-7.87V21.17Z"/><path class="cls-4" d="M20.88,55.9,13.77,60c-2.28,1.31-4.12-.08-4.12-3.12V18.46c0-3,1.84-6.56,4.12-7.87l7.11-4.11C23.16,5.17,25,6.57,25,9.6V48C25,51.06,23.16,54.59,20.88,55.9Z"/><ellipse class="cls-1" cx="17.32" cy="18.41" rx="6.07" ry="3.43" transform="translate(-6.4 27.14) rotate(-66.95)"/><ellipse class="cls-1" cx="17.32" cy="33.25" rx="6.07" ry="3.43" transform="translate(-20.05 36.17) rotate(-66.95)"/><ellipse class="cls-5" cx="17.32" cy="48.08" rx="6.07" ry="3.43" transform="translate(-33.7 45.2) rotate(-66.95)"/></g></g></svg>