<svg xmlns="http://www.w3.org/2000/svg" viewBox="0 0 300 300"><defs><style>.cls-1,.cls-10,.cls-14,.cls-15,.cls-2,.cls-3,.cls-6{fill:none;}.cls-2{stroke:#91d2fb;stroke-dasharray:0 6;}.cls-10,.cls-11,.cls-12,.cls-13,.cls-14,.cls-15,.cls-2,.cls-3,.cls-4,.cls-5,.cls-6,.cls-7,.cls-8,.cls-9{stroke-linecap:round;stroke-linejoin:round;stroke-width:2px;}.cls-3{stroke:#bde4fd;}.cls-4,.cls-9{fill:#d5dae0;}.cls-4,.cls-5,.cls-6,.cls-7{stroke:#b8bfca;}.cls-11,.cls-5{fill:#fff;}.cls-7,.cls-8{fill:#f2f4f6;}.cls-10,.cls-8,.cls-9{stroke:#627386;}.cls-11,.cls-12,.cls-13,.cls-14,.cls-15{stroke:#1b6dc6;}.cls-12{fill:#bde4fd;}.cls-13{fill:#e9f6fe;}.cls-15{stroke-dasharray:0 5.5;}</style></defs><title>container_registry_profiles</title><g id="Layer_2" data-name="Layer 2"><g id="Layer_1-2" data-name="Layer 1"><rect class="cls-1" width="300" height="300"/><line class="cls-2" x1="105.58" y1="192.34" x2="133.31" y2="176.33"/><polygon class="cls-3" points="111.77 195.92 105.58 192.34 99.39 188.77 93.19 192.34 87 195.92 93.19 199.49 99.39 203.07 105.58 199.49 111.77 195.92"/><polygon class="cls-4" points="213 144.82 188.71 158.85 176.57 165.86 164.43 172.87 152.28 179.88 152.28 170.62 152.28 161.36 152.28 152.1 152.28 142.85 164.43 135.84 176.57 128.82 200.85 114.8 213 107.79 213 117.05 213 126.31 213 135.57 213 144.82"/><polygon class="cls-5" points="124.5 126.81 152.28 142.85 213 107.79 185.22 91.75 124.5 126.81"/><line class="cls-6" x1="164.43" y1="141.39" x2="164.43" y2="167.31"/><polygon class="cls-7" points="124.5 163.84 152.28 179.88 152.28 142.85 124.5 126.81 124.5 163.84"/><polygon class="cls-8" points="128.89 161.28 128.89 134.44 147.89 145.41 147.89 172.25 128.89 161.28"/><polygon class="cls-9" points="147.89 145.41 128.89 134.44 128.89 161.28 147.89 150.31 147.89 145.41"/><line class="cls-6" x1="183.85" y1="119.01" x2="165.8" y2="108.58"/><line class="cls-6" x1="153.65" y1="115.59" x2="171.71" y2="126.02"/><line class="cls-6" x1="159.56" y1="133.03" x2="141.51" y2="122.6"/><polygon class="cls-7" points="120.05 129.38 106.16 121.36 106.16 158.4 120.05 166.42 120.05 129.38"/><polygon class="cls-4" points="124.5 163.84 120.05 166.42 120.05 129.38 124.5 126.81 124.5 163.84"/><polygon class="cls-5" points="110.62 118.79 106.16 121.36 120.05 129.38 124.5 126.81 110.62 118.79"/><polygon class="cls-6" points="124.5 163.84 120.05 166.42 120.05 129.38 124.5 126.81 124.5 163.84"/><polygon class="cls-10" points="110.62 118.79 106.16 121.36 106.16 158.4 120.05 166.42 124.5 163.84 124.5 126.81 110.62 118.79"/><line class="cls-6" x1="114.81" y1="133.2" x2="111.39" y2="131.23"/><line class="cls-6" x1="176.57" y1="134.38" x2="176.57" y2="160.3"/><line class="cls-10" x1="188.71" y1="127.37" x2="188.71" y2="153.29"/><line class="cls-6" x1="188.71" y1="127.37" x2="188.71" y2="153.29"/><line class="cls-6" x1="177.94" y1="101.57" x2="195.99" y2="112"/><line class="cls-6" x1="183.85" y1="119.01" x2="165.8" y2="108.58"/><line class="cls-6" x1="200.86" y1="120.36" x2="200.86" y2="146.28"/><polygon class="cls-10" points="213 107.79 185.22 91.75 124.5 126.81 124.5 163.84 152.28 179.88 164.43 172.87 176.57 165.86 188.71 158.85 213 144.82 213 135.57 213 126.31 213 117.05 213 107.79 213 107.79"/><polygon class="cls-7" points="161.71 153.44 147.82 145.42 147.82 182.45 161.71 190.47 161.71 153.44"/><polygon class="cls-5" points="152.28 142.85 147.82 145.42 161.71 153.44 166.17 150.86 152.28 142.85"/><polygon class="cls-4" points="166.17 187.9 161.71 190.47 161.71 153.44 166.17 150.86 166.17 187.9"/><polygon class="cls-6" points="166.17 187.9 161.71 190.47 161.71 153.44 166.17 150.86 166.17 187.9"/><line class="cls-6" x1="156.48" y1="157.25" x2="153.06" y2="155.28"/><polygon class="cls-10" points="152.28 142.85 147.82 145.42 147.82 182.45 161.71 190.47 166.17 187.9 166.17 150.86 152.28 142.85"/><polygon class="cls-11" points="99.39 148.25 87 155.4 87 171.92 99.39 164.77 111.77 171.92 111.77 155.4 99.39 148.25"/><polygon class="cls-12" points="111.77 171.92 99.39 179.07 99.39 162.55 111.77 155.4 111.77 171.92"/><polygon class="cls-13" points="87 171.92 99.39 179.07 99.39 162.55 87 155.4 87 171.92"/><line class="cls-14" x1="111.77" y1="138.9" x2="111.77" y2="138.9"/><line class="cls-15" x1="111.77" y1="144.4" x2="111.77" y2="152.65"/><line class="cls-14" x1="111.77" y1="155.4" x2="111.77" y2="155.4"/><line class="cls-14" x1="87" y1="138.9" x2="87" y2="138.9"/><line class="cls-15" x1="87" y1="144.4" x2="87" y2="152.65"/><line class="cls-14" x1="87" y1="155.4" x2="87" y2="155.4"/></g></g></svg>