<svg xmlns="http://www.w3.org/2000/svg" xmlns:xlink="http://www.w3.org/1999/xlink" viewBox="0 0 300 300"><defs><style>.cls-1,.cls-10,.cls-13,.cls-14,.cls-15,.cls-18,.cls-2,.cls-3,.cls-4,.cls-5,.cls-7,.cls-9{fill:none;}.cls-2,.cls-3,.cls-5,.cls-7{stroke:#b8bfca;}.cls-10,.cls-13,.cls-14,.cls-15,.cls-18,.cls-2,.cls-3,.cls-4,.cls-5,.cls-7,.cls-9{stroke-linecap:round;stroke-linejoin:round;stroke-width:2px;}.cls-3{stroke-dasharray:0 6.23;}.cls-4{stroke:#d5dae0;}.cls-5{stroke-dasharray:0 5.84;}.cls-6{clip-path:url(#clip-path);}.cls-7{stroke-dasharray:0 6.43;}.cls-8{fill:#fff;}.cls-10,.cls-9{stroke:#1b6dc6;}.cls-10{stroke-dasharray:0 6.2;}.cls-11{fill:#d5dae0;}.cls-12{fill:#f2f4f6;}.cls-13{stroke:#627386;}.cls-14{stroke:#fff;}.cls-15{stroke:#bde4fd;}.cls-16{fill:#bde4fd;}.cls-17{fill:#d3edfd;}.cls-18{stroke:#91d2fb;}.cls-19{fill:#1b6dc6;}</style><clipPath id="clip-path"><rect class="cls-1" width="300" height="300"/></clipPath></defs><title>edges</title><g id="Layer_2" data-name="Layer 2"><g id="Layer_1-2" data-name="Layer 1"><line class="cls-2" x1="93.47" y1="150.2" x2="93.47" y2="150.2"/><line class="cls-3" x1="98.87" y1="153.32" x2="123.16" y2="167.35"/><line class="cls-2" x1="125.86" y1="168.91" x2="125.86" y2="168.91"/><polyline class="cls-4" points="90.31 152.03 88.58 147.38 96.64 148.38 93.47 150.21 90.31 152.03"/><rect class="cls-1" width="300" height="300"/><line class="cls-2" x1="206.53" y1="150.2" x2="206.53" y2="150.2"/><line class="cls-3" x1="201.13" y1="153.32" x2="176.84" y2="167.35"/><line class="cls-2" x1="174.14" y1="168.91" x2="174.14" y2="168.91"/><polyline class="cls-4" points="209.7 152.03 211.42 147.38 203.35 148.38 206.53 150.21 209.7 152.03"/><line class="cls-2" x1="206.53" y1="216.05" x2="206.53" y2="216.05"/><rect class="cls-1" width="300" height="300"/><line class="cls-5" x1="201.47" y1="213.13" x2="173.66" y2="197.08"/><line class="cls-2" x1="171.13" y1="195.62" x2="171.13" y2="195.62"/><g class="cls-6"><polyline class="cls-4" points="209.7 214.22 211.42 218.88 203.35 217.88 206.53 216.05 209.7 214.22"/><line class="cls-2" x1="93.47" y1="216.05" x2="93.47" y2="216.05"/></g><line class="cls-7" x1="99.05" y1="212.83" x2="124.12" y2="198.36"/><line class="cls-2" x1="126.91" y1="196.75" x2="126.91" y2="196.75"/><g class="cls-6"><polyline class="cls-4" points="90.31 214.22 88.58 218.88 96.64 217.88 93.47 216.05 90.31 214.22"/></g><path class="cls-8" d="M185,165.84v0Z"/><line class="cls-9" x1="185" y1="165.84" x2="185" y2="165.84"/><line class="cls-10" x1="185" y1="159.64" x2="185" y2="131.73"/><line class="cls-9" x1="185" y1="128.62" x2="185" y2="128.62"/><path class="cls-8" d="M115,167.71v0Z"/><line class="cls-9" x1="115" y1="167.71" x2="115" y2="167.71"/><line class="cls-10" x1="115" y1="161.51" x2="115" y2="133.6"/><line class="cls-9" x1="115" y1="130.5" x2="115" y2="130.5"/><g class="cls-6"><path class="cls-8" d="M182.71,168.63l-29.9-17.26a1.45,1.45,0,0,0-1.49-.11h0l-35.53,20.51,32.91,30.44,35.53-20.51h0a2,2,0,0,0,.81-1.85V173a5.55,5.55,0,0,0-2.31-4.41"/><path class="cls-9" d="M182.71,168.63l-29.9-17.26a1.45,1.45,0,0,0-1.49-.11h0l-35.53,20.51,32.91,30.44,35.53-20.51h0a2,2,0,0,0,.81-1.85V173A5.55,5.55,0,0,0,182.71,168.63Z"/><path class="cls-11" d="M184.21,181.68a2,2,0,0,0,.81-1.85V173a5.86,5.86,0,0,0-1.59-3.83l-42.1,24.31,2.31,4,5.05,4.67,35.53-20.51Z"/><path class="cls-9" d="M182.71,168.63l-29.9-17.26a1.45,1.45,0,0,0-1.49-.11h0l-35.53,20.51,32.91,30.44,35.53-20.51h0a2,2,0,0,0,.81-1.85V173A5.55,5.55,0,0,0,182.71,168.63Z"/><path class="cls-12" d="M117.29,184.82l29.9,17.26c1.27.73,2.3-.05,2.3-1.74v-6.79a5.54,5.54,0,0,0-2.3-4.41l-29.9-17.26c-1.27-.73-2.31.05-2.31,1.74v6.79a5.55,5.55,0,0,0,2.31,4.41"/><path class="cls-2" d="M149.49,196.45v-2.9a5.54,5.54,0,0,0-2.3-4.41l-27-15.57"/><path class="cls-13" d="M182.71,168.63l-29.9-17.26a1.45,1.45,0,0,0-1.49-.11h0l-35.53,20.51h0a2,2,0,0,0-.81,1.85v6.79a5.55,5.55,0,0,0,2.31,4.41l29.9,17.26a1.45,1.45,0,0,0,1.49.11h0l35.53-20.51h0a2,2,0,0,0,.81-1.85V173A5.55,5.55,0,0,0,182.71,168.63Z"/><line class="cls-14" x1="154.65" y1="193.09" x2="155.46" y2="192.61"/><line class="cls-14" x1="172.46" y1="182.8" x2="179.14" y2="178.95"/><line class="cls-2" x1="130.99" y1="186.26" x2="133.49" y2="187.7"/><path class="cls-15" d="M158.3,170.58c0,2.47-3.47,4.47-7.75,4.47s-7.75-2-7.75-4.47,3.47-4.48,7.75-4.48S158.3,168.1,158.3,170.58Z"/><path class="cls-8" d="M182.71,155.7l-29.9-17.26a1.43,1.43,0,0,0-1.49-.11v0l-35.53,20.51,32.91,30.44,35.53-20.51h0a2,2,0,0,0,.81-1.85V160.1a5.51,5.51,0,0,0-2.31-4.4"/><path class="cls-9" d="M182.71,155.7l-29.9-17.26a1.43,1.43,0,0,0-1.49-.11v0l-35.53,20.51,32.91,30.44,35.53-20.51h0a2,2,0,0,0,.81-1.85V160.1A5.51,5.51,0,0,0,182.71,155.7Z"/><path class="cls-11" d="M184.21,168.74a2,2,0,0,0,.81-1.85V160.1a5.81,5.81,0,0,0-1.59-3.82l-42.1,24.3,2.31,4,5.05,4.67,35.53-20.51Z"/><path class="cls-9" d="M182.71,155.7l-29.9-17.26a1.43,1.43,0,0,0-1.49-.11v0l-35.53,20.51,32.91,30.44,35.53-20.51h0a2,2,0,0,0,.81-1.85V160.1A5.51,5.51,0,0,0,182.71,155.7Z"/><path class="cls-12" d="M117.29,171.88l29.9,17.26c1.27.74,2.3,0,2.3-1.74v-6.79a5.5,5.5,0,0,0-2.3-4.4L117.29,159c-1.27-.74-2.31,0-2.31,1.74v6.79a5.54,5.54,0,0,0,2.31,4.4"/><path class="cls-2" d="M149.49,183.51v-2.9a5.5,5.5,0,0,0-2.3-4.4l-27-15.58"/><path class="cls-13" d="M182.71,155.7l-29.9-17.26a1.43,1.43,0,0,0-1.49-.11v0l-35.53,20.51v0a2,2,0,0,0-.81,1.85v6.79a5.54,5.54,0,0,0,2.31,4.4l29.9,17.26a1.45,1.45,0,0,0,1.49.11h0l35.53-20.51h0a2,2,0,0,0,.81-1.85V160.1A5.51,5.51,0,0,0,182.71,155.7Z"/><line class="cls-14" x1="154.65" y1="180.15" x2="155.46" y2="179.68"/><line class="cls-14" x1="172.46" y1="169.87" x2="179.14" y2="166.01"/><line class="cls-2" x1="130.99" y1="173.32" x2="133.49" y2="174.77"/><path class="cls-15" d="M158.3,157.64c0,2.47-3.47,4.48-7.75,4.48s-7.75-2-7.75-4.48,3.47-4.48,7.75-4.48S158.3,155.17,158.3,157.64Z"/><path class="cls-9" d="M164.83,81.31a2,2,0,0,1,2.61.93l6.8,14.36L181,110.78c.27.57-.31,1.4-1.29,1.87s-2,.38-2.26-.19L170.7,98.29l-6.81-14.37A2,2,0,0,1,164.83,81.31Z"/><path class="cls-8" d="M164.83,81.31a2,2,0,0,1,2.61.93l6.8,14.36L181,110.78c.27.57-.31,1.4-1.29,1.87s-2,.38-2.26-.19L170.7,98.29l-6.81-14.37a2,2,0,0,1,.94-2.61"/><path class="cls-9" d="M164.83,81.31a2,2,0,0,1,2.61.93l6.8,14.36L181,110.78c.27.57-.31,1.4-1.29,1.87s-2,.38-2.26-.19L170.7,98.29l-6.81-14.37A2,2,0,0,1,164.83,81.31Z"/><path class="cls-16" d="M179.69,112.65h0c1-.47,1.56-1.3,1.29-1.87L174.24,96.6l-6.59-13.92a1,1,0,1,0-1.77.84Z"/><path class="cls-9" d="M164.83,81.31a2,2,0,0,1,2.61.93l6.8,14.36L181,110.78c.27.57-.31,1.4-1.29,1.87s-2,.38-2.26-.19L170.7,98.29l-6.81-14.37A2,2,0,0,1,164.83,81.31Z"/><path class="cls-9" d="M174.24,96.6c.27.57-.3,1.4-1.28,1.87s-2,.38-2.26-.18"/><path class="cls-8" d="M182.71,111.55l-29.9-17.26a1.45,1.45,0,0,0-1.49-.11h0l-35.53,20.51,32.91,30.44,35.53-20.51h0a2,2,0,0,0,.81-1.86V116a5.54,5.54,0,0,0-2.31-4.4"/><path class="cls-9" d="M182.71,111.55l-29.9-17.26a1.45,1.45,0,0,0-1.49-.11h0l-35.53,20.51,32.91,30.44,35.53-20.51h0a2,2,0,0,0,.81-1.86V116A5.54,5.54,0,0,0,182.71,111.55Z"/><path class="cls-16" d="M184.21,124.6a2,2,0,0,0,.81-1.86V116a5.84,5.84,0,0,0-1.59-3.82l-42.1,24.31,2.31,4,5.05,4.68,35.53-20.51Z"/><path class="cls-9" d="M182.71,111.55l-29.9-17.26a1.45,1.45,0,0,0-1.49-.11h0l-35.53,20.51,32.91,30.44,35.53-20.51h0a2,2,0,0,0,.81-1.86V116A5.54,5.54,0,0,0,182.71,111.55Z"/><path class="cls-17" d="M117.29,127.73,147.19,145c1.27.73,2.3-.05,2.3-1.75v-6.79a5.53,5.53,0,0,0-2.3-4.4l-29.9-17.26c-1.27-.73-2.31,0-2.31,1.74v6.79a5.51,5.51,0,0,0,2.31,4.4"/><path class="cls-18" d="M149.49,139.37v-2.91a5.53,5.53,0,0,0-2.3-4.4l-27-15.58"/><path class="cls-9" d="M182.71,111.55l-29.9-17.26a1.45,1.45,0,0,0-1.49-.11h0l-35.53,20.51h0a2,2,0,0,0-.81,1.85v6.79a5.51,5.51,0,0,0,2.31,4.4L147.19,145a1.45,1.45,0,0,0,1.49.11h0l35.53-20.51h0a2,2,0,0,0,.81-1.86V116A5.54,5.54,0,0,0,182.71,111.55Z"/><line class="cls-14" x1="154.65" y1="136" x2="155.46" y2="135.53"/><line class="cls-14" x1="172.46" y1="125.72" x2="179.14" y2="121.86"/><line class="cls-19" x1="130.99" y1="129.18" x2="133.49" y2="130.62"/><line class="cls-18" x1="130.99" y1="129.18" x2="133.49" y2="130.62"/><path class="cls-15" d="M158.3,113.49c0,2.48-3.47,4.48-7.75,4.48s-7.75-2-7.75-4.48,3.47-4.47,7.75-4.47S158.3,111,158.3,113.49Z"/></g></g></g></svg>