<svg xmlns="http://www.w3.org/2000/svg" viewBox="0 0 300 300"><defs><style>.cls-1,.cls-10,.cls-11,.cls-12,.cls-19,.cls-2,.cls-3,.cls-4,.cls-7,.cls-9{fill:none;}.cls-2,.cls-3{stroke:#91d2fb;}.cls-10,.cls-11,.cls-12,.cls-13,.cls-15,.cls-16,.cls-18,.cls-19,.cls-2,.cls-3,.cls-4,.cls-5,.cls-7,.cls-9{stroke-linecap:round;stroke-linejoin:round;stroke-width:2px;}.cls-3{stroke-dasharray:0 6.28;}.cls-4{stroke:#bde4fd;}.cls-15,.cls-5{fill:#fff;}.cls-16,.cls-18,.cls-5,.cls-7{stroke:#1b6dc6;}.cls-6{fill:#f2f4f6;}.cls-13,.cls-8{fill:#d5dae0;}.cls-12,.cls-9{stroke:#b8bfca;}.cls-10,.cls-13,.cls-15{stroke:#627386;}.cls-11{stroke:#fff;}.cls-12{stroke-dasharray:0 5.63;}.cls-14{fill:#b8bfca;}.cls-16{fill:#d3edfd;}.cls-17{fill:#91d2fb;}.cls-18{fill:#e9f6fe;}.cls-19{stroke:#d5dae0;}</style></defs><title>edge_deployment</title><g id="Layer_2" data-name="Layer 2"><g id="Layer_1-2" data-name="Layer 1"><rect class="cls-1" x="87" y="87" width="126" height="126"/><rect class="cls-1" x="87" y="87" width="126" height="126"/><rect class="cls-1" width="300" height="300"/><line class="cls-2" x1="143.75" y1="140.85" x2="143.75" y2="140.85"/><line class="cls-3" x1="149.19" y1="137.71" x2="168.23" y2="126.72"/><line class="cls-2" x1="170.95" y1="125.15" x2="170.95" y2="125.15"/><polyline class="cls-4" points="174.12 126.98 175.85 122.32 167.78 123.32 170.95 125.15 174.12 126.98"/><path class="cls-5" d="M154.7,138.86,124.81,121.6a1.45,1.45,0,0,0-1.49-.11h0L87.8,142l32.9,30.43,35.5-20.5h0A2,2,0,0,0,157,150v-6.78A5.5,5.5,0,0,0,154.7,138.86Z"/><path class="cls-6" d="M156.19,151.9A2,2,0,0,0,157,150v-6.78a5.81,5.81,0,0,0-1.59-3.82l-42.08,24.29,2.31,4,5.06,4.68,35.5-20.5Z"/><path class="cls-7" d="M154.7,138.86,124.81,121.6a1.45,1.45,0,0,0-1.49-.11h0L87.8,142l32.9,30.43,35.5-20.5h0A2,2,0,0,0,157,150v-6.78A5.5,5.5,0,0,0,154.7,138.86Z"/><path class="cls-8" d="M89.3,155l29.89,17.26c1.27.73,2.3,0,2.3-1.75v-6.78a5.5,5.5,0,0,0-2.3-4.4L89.3,142.1c-1.27-.73-2.3.05-2.3,1.74v6.79A5.5,5.5,0,0,0,89.3,155Z"/><path class="cls-9" d="M121.49,166.66v-2.9a5.5,5.5,0,0,0-2.3-4.4l-27-15.58"/><path class="cls-10" d="M154.7,138.86,124.81,121.6a1.45,1.45,0,0,0-1.49-.11h0L87.8,142h0a2,2,0,0,0-.81,1.85v6.79a5.5,5.5,0,0,0,2.3,4.4l29.89,17.26a1.45,1.45,0,0,0,1.49.11h0l35.5-20.5h0A2,2,0,0,0,157,150v-6.78A5.5,5.5,0,0,0,154.7,138.86Z"/><line class="cls-9" x1="126.65" y1="163.3" x2="127.46" y2="162.83"/><line class="cls-9" x1="144.45" y1="153.02" x2="151.13" y2="149.16"/><line class="cls-11" x1="103" y1="156.47" x2="105.5" y2="157.92"/><ellipse class="cls-4" cx="122.55" cy="140.8" rx="7.75" ry="4.47"/><line class="cls-9" x1="143.75" y1="165.97" x2="143.75" y2="165.97"/><line class="cls-12" x1="148.63" y1="168.78" x2="165.7" y2="178.64"/><line class="cls-9" x1="168.14" y1="180.04" x2="168.14" y2="180.04"/><line class="cls-10" x1="176.44" y1="201.78" x2="169.39" y2="197.71"/><path class="cls-13" d="M171.44,197.34v8.72h0a2.55,2.55,0,0,0,1.22,2,8.66,8.66,0,0,0,8.42.29,3.51,3.51,0,0,0,1.46-1.46c.26-.56,1.45-.77,2.17-.35l6.84,3.95,20.94-12.1a.85.85,0,0,0,.51-.7V189h-7.92l-13-7.51a1,1,0,0,0-.18-.3c-.39-.36-7.57-.52-7.57-.52v8.72h0c0,.33.37.64,1,.74a7.26,7.26,0,0,1,2.53.84,3.19,3.19,0,0,1,1.57,1.77l-20-3.74v8.72"/><path class="cls-14" d="M213,197.71V189h-7.92l-13-7.51a1,1,0,0,0-.18-.3.82.82,0,0,0-.35-.11v29.44l20.94-12.1A.84.84,0,0,0,213,197.71Z"/><path class="cls-6" d="M196.18,183.85l-4.1-2.37a1,1,0,0,0-.18-.3c-.39-.36-7.57-.52-7.57-.52v8.72h0c0,.33.37.64,1,.74.93.14,1.8-3.32,2.53-2.9s1.38,4.86,1.57,5.51L177.9,189v3h18.28Z"/><path class="cls-10" d="M205.08,189l-13-7.51a1,1,0,0,0-.18-.3c-.39-.36-7.57-.52-7.57-.52v8.72h0c0,.33.37.64,1,.74a7.26,7.26,0,0,1,2.53.84,3.19,3.19,0,0,1,1.57,1.77l-20-3.74v8.72l5.83-.37h-3.78v8.72h0a2.55,2.55,0,0,0,1.22,2,8.66,8.66,0,0,0,8.42.29,3.51,3.51,0,0,0,1.46-1.46c.26-.56,1.45-.77,2.17-.35l6.84,3.95,20.94-12.1a.85.85,0,0,0,.51-.7V189Z"/><path class="cls-15" d="M180.42,187.13a3.79,3.79,0,0,1-2-1.77c-.25-.55-1.47-.72-2.17-.32l-6.83,4,6.83,3.94c.7.41.41,1.11-.55,1.25a6.93,6.93,0,0,0-3.07,1.18,2.28,2.28,0,0,0,.06,4,8.63,8.63,0,0,0,8.42.28,3.44,3.44,0,0,0,1.46-1.45c.26-.57,1.45-.77,2.17-.36l6.84,3.95,20.94-12.09a.74.74,0,0,0,0-1.41l-20.94-12.09-6.84,3.95c-.72.42-.36,1.11.61,1.26a7.26,7.26,0,0,1,2.53.84c2.35,1.36,2.19,3.62-.5,4.86A9.09,9.09,0,0,1,180.42,187.13Z"/><path class="cls-16" d="M204.37,98.14,192.06,91a2.69,2.69,0,0,0-2.44,0l-12.31,7.11-8.64,3.74h0v8.72l6.85,4a1.8,1.8,0,0,0,.93.22,1.38,1.38,0,0,0,1.24-.58,3.41,3.41,0,0,1,1.45-1.45,4.3,4.3,0,0,1,.48-.24l.11,0,.39-.16.12,0,.42-.14.1,0,.47-.11h.06a4.51,4.51,0,0,1,.53-.09h0l.58-.06h0a12,12,0,0,1,1.2,0v2.13h0v5a.65.65,0,0,0,.38.54l6.84,4h0l6.83-4a1.91,1.91,0,0,1,.93-.22,1.35,1.35,0,0,1,1.24.54,3.79,3.79,0,0,0,2,1.77,9.13,9.13,0,0,0,6.94,0c1.42-.66,2.13-1.61,2.13-2.56h0v-7.17L213,110.6v-8.72h0Z"/><path class="cls-17" d="M198.41,119.24V102.08h-7.57V123.4l6.83-4A1.82,1.82,0,0,1,198.41,119.24Z"/><path class="cls-17" d="M176.61,101.88v12.87a1.3,1.3,0,0,0,1.08-.56,3.41,3.41,0,0,1,1.45-1.45,8.94,8.94,0,0,1,6.48-.62l4-2V94.77l-12.31,7.11Z"/><path class="cls-17" d="M211,110.23H209V121.4a3,3,0,0,0,1.93-2.45h0Z"/><polygon class="cls-17" points="209 112.91 213 110.6 213 101.88 209 101.88 209 112.91"/><path class="cls-7" d="M204.37,98.14,192.06,91a2.69,2.69,0,0,0-2.44,0l-12.31,7.11-8.64,3.74h0v8.72l6.85,4a1.8,1.8,0,0,0,.93.22,1.38,1.38,0,0,0,1.24-.58,3.41,3.41,0,0,1,1.45-1.45,4.3,4.3,0,0,1,.48-.24l.11,0,.39-.16.12,0,.42-.14.1,0,.47-.11h.06a4.51,4.51,0,0,1,.53-.09h0l.58-.06h0a12,12,0,0,1,1.2,0v2.13h0v5a.65.65,0,0,0,.38.54l6.84,4h0l6.83-4a1.91,1.91,0,0,1,.93-.22,1.35,1.35,0,0,1,1.24.54,3.79,3.79,0,0,0,2,1.77,9.13,9.13,0,0,0,6.94,0c1.42-.66,2.13-1.61,2.13-2.56h0v-7.17L213,110.6v-8.72h0Z"/><path class="cls-18" d="M187.62,108.3a6.88,6.88,0,0,1-3.07,1.18c-1,.14-1.25.84-.55,1.25l6.84,3.94,6.83-3.94c.7-.41,1.92-.24,2.17.32a3.79,3.79,0,0,0,2,1.77,9.16,9.16,0,0,0,6.94,0c2.68-1.24,2.84-3.51.48-4.87a7.14,7.14,0,0,0-2.52-.84c-1-.15-1.33-.84-.61-1.25l6.84-4L192.06,89.79a2.69,2.69,0,0,0-2.44,0l-21,12.09,6.85,4c.71.41,1.91.21,2.17-.36a3.41,3.41,0,0,1,1.45-1.45,8.68,8.68,0,0,1,8.43.28C189.16,105.46,189.19,107.13,187.62,108.3Z"/><path class="cls-19" d="M174.05,181.46a1.73,1.73,0,0,1-1,1.41,5.36,5.36,0,0,1-4.89,0,1.73,1.73,0,0,1-1-1.41,1.75,1.75,0,0,1,1-1.42,5.44,5.44,0,0,1,4.89,0A1.75,1.75,0,0,1,174.05,181.46Z"/></g></g></svg>