<svg xmlns="http://www.w3.org/2000/svg" viewBox="0 0 300 300"><defs><style>.cls-1,.cls-10,.cls-11,.cls-2,.cls-9{fill:none;}.cls-2,.cls-3,.cls-4,.cls-5{stroke:#b8bfca;}.cls-10,.cls-11,.cls-2,.cls-3,.cls-4,.cls-5,.cls-9{stroke-linecap:round;stroke-linejoin:round;stroke-width:2px;}.cls-3,.cls-6{fill:#fff;}.cls-4{fill:#d5dae0;}.cls-5{fill:#f2f4f6;}.cls-7{fill:#d3edfd;}.cls-8{fill:#bde4fd;}.cls-9{stroke:#91d2fb;}.cls-10{stroke:#1b6dc6;}.cls-11{stroke:#627386;}</style></defs><title>metric_dashboard_2</title><g id="Layer_2" data-name="Layer 2"><g id="Layer_4" data-name="Layer 4"><rect class="cls-1" width="300" height="300"/><polygon class="cls-2" points="170.34 148.43 183.26 140.97 205.78 153.98 192.87 161.44 170.34 148.43"/><polygon class="cls-3" points="178.98 122.09 143.54 142.55 121.02 129.55 156.46 109.08 178.98 122.09"/><polygon class="cls-4" points="178.98 122.09 178.98 130.17 143.54 150.63 143.54 142.55 178.98 122.09"/><polygon class="cls-5" points="121.02 129.55 121.02 137.63 143.54 150.63 143.54 142.55 121.02 129.55"/><line class="cls-2" x1="130.68" y1="129.18" x2="144.19" y2="136.98"/><polyline class="cls-2" points="169.32 122.47 163.04 126.09 156.76 129.72 150.47 133.35 144.19 136.98"/><line class="cls-2" x1="150.47" y1="133.35" x2="143.06" y2="129.07"/><line class="cls-2" x1="156.76" y1="129.72" x2="144.76" y2="122.79"/><line class="cls-2" x1="163.04" y1="126.09" x2="151.04" y2="119.17"/><line class="cls-2" x1="169.32" y1="122.46" x2="159.88" y2="117.01"/><polygon class="cls-6" points="213 141.73 190.47 154.74 167.95 141.73 190.47 128.72 213 141.73"/><polygon class="cls-7" points="167.95 141.73 167.95 149.81 190.47 162.82 190.47 154.74 167.95 141.73"/><polygon class="cls-8" points="213 141.73 213 149.81 190.47 162.82 190.47 154.74 213 141.73"/><polygon class="cls-9" points="213 141.73 190.47 154.74 167.95 141.73 190.47 128.72 213 141.73"/><polygon class="cls-9" points="213 141.73 213 149.81 190.47 162.82 190.47 154.74 213 141.73"/><polygon class="cls-9" points="167.95 141.73 167.95 149.81 190.47 162.82 190.47 154.74 167.95 141.73"/><ellipse class="cls-9" cx="190.47" cy="141.73" rx="10.79" ry="6.23"/><line class="cls-9" x1="182.85" y1="137.33" x2="190.47" y2="141.73"/><line class="cls-9" x1="190.47" y1="141.73" x2="198.1" y2="137.33"/><line class="cls-9" x1="190.47" y1="141.73" x2="190.47" y2="147.95"/><polygon class="cls-10" points="190.47 128.72 167.95 141.73 167.95 149.81 190.47 162.82 213 149.81 213 141.73 190.47 128.72"/><polygon class="cls-3" points="178.98 161.37 143.54 181.83 121.02 168.83 156.46 148.37 178.98 161.37"/><polygon class="cls-4" points="178.98 161.37 178.98 169.45 143.54 189.91 143.54 181.83 178.98 161.37"/><polygon class="cls-5" points="121.02 168.83 121.02 176.91 143.54 189.91 143.54 181.83 121.02 168.83"/><line class="cls-2" x1="130.68" y1="168.45" x2="144.19" y2="176.26"/><polyline class="cls-2" points="169.32 161.75 163.04 165.37 156.76 169 150.47 172.63 144.19 176.26"/><polyline class="cls-2" points="143.06 175.6 143.71 168.72 151.12 165.75 156.28 161.47 155.86 153.97"/><polygon class="cls-3" points="132.05 149.19 109.53 162.19 87 149.19 109.53 136.18 132.05 149.19"/><polygon class="cls-4" points="132.05 149.19 132.05 157.27 109.53 170.28 109.53 162.19 132.05 149.19"/><polygon class="cls-5" points="87 149.19 87 157.27 109.53 170.28 109.53 162.19 87 149.19"/><path class="cls-2" d="M102.74,154.07c-4.22-2.43-4.22-6.37,0-8.8a16.8,16.8,0,0,1,15.25,0"/><line class="cls-2" x1="102.74" y1="154.07" x2="117.99" y2="145.27"/><line class="cls-2" x1="110.48" y1="155.69" x2="121.4" y2="149.38"/><line class="cls-2" x1="110.37" y1="149.53" x2="110.37" y2="141.41"/><polygon class="cls-11" points="156.46 109.08 121.02 129.55 121.02 137.63 143.54 150.63 178.98 130.17 178.98 122.09 156.46 109.08"/><polygon class="cls-11" points="121.02 168.83 121.02 176.91 143.54 189.91 178.98 169.45 178.98 161.37 156.46 148.37 121.02 168.83"/><polygon class="cls-11" points="132.05 149.19 109.53 136.18 87 149.19 87 157.27 109.53 170.28 132.05 157.27 132.05 149.19"/></g></g></svg>