<svg xmlns="http://www.w3.org/2000/svg" viewBox="0 0 300 300"><defs><style>.cls-1,.cls-13,.cls-16,.cls-18,.cls-5,.cls-6,.cls-7{fill:none;}.cls-2{fill:#d5dae0;}.cls-14,.cls-3{fill:#f2f4f6;}.cls-4,.cls-9{fill:#fff;}.cls-14,.cls-16,.cls-4,.cls-5{stroke:#627386;}.cls-10,.cls-11,.cls-13,.cls-14,.cls-18,.cls-4,.cls-5,.cls-6,.cls-7,.cls-9{stroke-linecap:round;stroke-linejoin:round;}.cls-10,.cls-11,.cls-13,.cls-14,.cls-16,.cls-18,.cls-4,.cls-5,.cls-6,.cls-7,.cls-9{stroke-width:2px;}.cls-10,.cls-11,.cls-18,.cls-6,.cls-7,.cls-9{stroke:#1b6dc6;}.cls-7{stroke-dasharray:0 5.77;}.cls-8{isolation:isolate;}.cls-10{fill:#d3edfd;}.cls-11{fill:#91d2fb;}.cls-12{fill:#155499;}.cls-13{stroke:#b8bfca;}.cls-15{fill:#b8bfca;}.cls-16{stroke-miterlimit:10;}.cls-17{fill:#627386;}.cls-18{stroke-dasharray:0 5.66;}</style></defs><title>report_schedule</title><g id="Layer_2" data-name="Layer 2"><g id="Layer_4" data-name="Layer 4"><rect class="cls-1" width="300" height="300"/><path class="cls-2" d="M135.18,211.4a4,4,0,0,0,2-.48l75-43.57a1.4,1.4,0,0,0,.82-1.15l0-6.93a1.41,1.41,0,0,1-.82,1.15l-75,43.58a4.11,4.11,0,0,1-1.95.48"/><path class="cls-3" d="M135.24,204.48a4,4,0,0,1-2-.48L87.85,177.82a1.4,1.4,0,0,1-.83-1.16l0,6.92a1.44,1.44,0,0,0,.83,1.17l45.35,26.18a4.08,4.08,0,0,0,2,.47"/><path class="cls-4" d="M212.17,158.11a1.22,1.22,0,0,1,0,2.31l-75,43.58a4.39,4.39,0,0,1-4,0L87.85,177.82a1.22,1.22,0,0,1,0-2.31l75-43.58a4.39,4.39,0,0,1,4,0Z"/><path class="cls-5" d="M212.18,160.42l-75,43.58a4.39,4.39,0,0,1-4,0L87.85,177.82a1.4,1.4,0,0,1-.83-1.16l0,6.92a1.44,1.44,0,0,0,.83,1.17l45.35,26.18a4.39,4.39,0,0,0,4,0l75-43.57a1.4,1.4,0,0,0,.82-1.15l0-6.93A1.41,1.41,0,0,1,212.18,160.42Z"/><line class="cls-5" x1="95.63" y1="183.14" x2="95.63" y2="188.98"/><line class="cls-6" x1="194.57" y1="147.95" x2="194.57" y2="147.95"/><line class="cls-7" x1="194.57" y1="142.18" x2="194.57" y2="110.42"/><line class="cls-6" x1="194.57" y1="107.53" x2="194.57" y2="107.53"/><g class="cls-8"><polygon class="cls-9" points="170.3 92.99 186.93 102.65 194.53 98.26 177.91 88.6 170.3 92.99"/><polygon class="cls-10" points="170.3 92.99 170.35 109.38 186.98 110.22 186.93 102.65 170.3 92.99"/><polygon class="cls-11" points="186.93 102.65 186.98 110.22 194.58 105.83 194.53 98.26 186.93 102.65"/></g><g class="cls-8"><polygon class="cls-10" points="168.75 101.01 179.24 107.11 186.84 102.72 176.35 96.62 168.75 101.01"/><polygon class="cls-12" points="168.75 101.01 168.79 117.4 179.29 114.68 179.24 107.11 168.75 101.01"/><polygon class="cls-11" points="179.24 107.11 179.29 114.68 186.89 110.29 186.84 102.72 179.24 107.11"/></g><g class="cls-8"><polygon class="cls-9" points="148.36 97.93 171.66 111.47 179.26 107.08 155.96 93.54 148.36 97.93"/><polygon class="cls-10" points="148.36 97.93 148.4 105.5 171.71 119.04 171.66 111.47 148.36 97.93"/><polygon class="cls-11" points="171.66 111.47 171.71 119.04 179.31 114.65 179.26 107.08 171.66 111.47"/></g><polyline class="cls-10" points="171.71 120.74 148.4 107.2 148.36 97.93 171.66 111.47"/><polyline class="cls-11" points="171.66 111.47 194.53 98.26 194.58 107.53 171.71 120.74"/><polygon class="cls-6" points="148.36 97.93 171.66 111.47 194.53 98.26 194.58 107.53 171.71 120.74 148.4 107.2 148.36 97.93"/><polyline class="cls-13" points="115.34 193.69 141.75 178.45 168.16 163.2 194.57 147.95"/><polyline class="cls-13" points="121.98 167.03 141.75 178.45 161.52 189.86"/><polyline class="cls-13" points="148.39 151.78 168.16 163.2 187.84 174.56"/><path class="cls-14" d="M174.62,136.44l-7.8-4.51a4.39,4.39,0,0,0-4,0l-75,43.58a1.22,1.22,0,0,0,0,2.31l7.39,4.27.67.09,78.71-45.74Z"/><path class="cls-5" d="M212.17,158.11a1.22,1.22,0,0,1,0,2.31l-75,43.58a4.39,4.39,0,0,1-4,0L87.85,177.82a1.22,1.22,0,0,1,0-2.31l75-43.58a4.39,4.39,0,0,1,4,0Z"/><ellipse class="cls-15" cx="99.11" cy="174.18" rx="2.97" ry="1.71"/><path class="cls-16" d="M99.11,174.18c0-3.32-2-7.18-4.51-8.62s-4.52.09-4.52,3.41a10.9,10.9,0,0,0,.92,4.17"/><ellipse class="cls-17" cx="99.11" cy="174.18" rx="1" ry="0.58"/><ellipse class="cls-15" cx="162.63" cy="137.69" rx="2.97" ry="1.71"/><path class="cls-16" d="M162.63,137.69c0-3.32-2-7.18-4.51-8.62s-4.51.09-4.51,3.41a10.72,10.72,0,0,0,.92,4.17"/><ellipse class="cls-17" cx="162.63" cy="137.69" rx="1" ry="0.58"/><ellipse class="cls-15" cx="130.08" cy="156.46" rx="2.97" ry="1.71"/><path class="cls-16" d="M130.08,156.46c0-3.32-2-7.18-4.51-8.62s-4.51.09-4.51,3.41a10.8,10.8,0,0,0,.92,4.18"/><ellipse class="cls-17" cx="130.08" cy="156.46" rx="1" ry="0.58"/><line class="cls-6" x1="148.39" y1="151.78" x2="148.39" y2="151.78"/><line class="cls-18" x1="148.39" y1="146.12" x2="148.39" y2="109.33"/><line class="cls-6" x1="148.39" y1="106.5" x2="148.39" y2="106.5"/></g></g></svg>