<svg xmlns="http://www.w3.org/2000/svg" viewBox="0 0 126 126"><defs><style>.cls-1{fill:#d5dae0;}.cls-2{fill:#f2f4f6;}.cls-12,.cls-3,.cls-4,.cls-6,.cls-8,.cls-9{fill:none;}.cls-3,.cls-5,.cls-7{stroke:#b8bfca;}.cls-12,.cls-13,.cls-14,.cls-15,.cls-16,.cls-3,.cls-5,.cls-6,.cls-7,.cls-8,.cls-9{stroke-linecap:round;stroke-linejoin:round;}.cls-12,.cls-13,.cls-14,.cls-15,.cls-16,.cls-3,.cls-5,.cls-6,.cls-8,.cls-9{stroke-width:2px;}.cls-13,.cls-16,.cls-5{fill:#fff;}.cls-6{stroke:#627386;}.cls-7{fill:#b8bfca;}.cls-16,.cls-8,.cls-9{stroke:#1b6dc6;}.cls-9{stroke-dasharray:0 6.44;}.cls-10,.cls-14{fill:#bde4fd;}.cls-11{fill:#d3edfd;}.cls-12,.cls-13,.cls-14,.cls-15{stroke:#91d2fb;}.cls-15{fill:#e9f6fe;}</style></defs><title>alert_surpression</title><g id="Layer_2" data-name="Layer 2"><g id="Illustrations"><g id="alert_surpression"><path class="cls-1" d="M39.86,101.37v10.27c0,3.42,2.26,6.84,6.78,9.45,9,5.21,23.68,5.21,32.72,0,4.52-2.61,6.78-6,6.78-9.45h0V101.37Z"/><path class="cls-2" d="M39.86,101.37v10.27c0,3.42,2.26,6.84,6.78,9.45A33.43,33.43,0,0,0,63,125V101.37Z"/><path class="cls-3" d="M39.86,101.37v10.27c0,3.42,2.26,6.84,6.78,9.45,9,5.21,23.68,5.21,32.72,0,4.52-2.61,6.78-6,6.78-9.45h0V101.37Z"/><ellipse class="cls-4" cx="63" cy="115.76" rx="20.46" ry="8.87"/><ellipse class="cls-5" cx="63" cy="101.37" rx="23.14" ry="13.36"/><path class="cls-6" d="M79.36,91.92c-9-5.21-23.68-5.21-32.72,0-4.52,2.61-6.78,6-6.78,9.45h0v10.27c0,3.42,2.26,6.84,6.78,9.45,9,5.21,23.68,5.21,32.72,0,4.52-2.61,6.78-6,6.78-9.45h0V101.37h0C86.14,98,83.88,94.53,79.36,91.92Z"/><path class="cls-7" d="M69.11,104.12c-.84.49-.78,1.15.06,1.63a2.93,2.93,0,0,0,2.8,0c.82-.47.76-1.15-.06-1.63A3,3,0,0,0,69.11,104.12Z"/><path class="cls-7" d="M53.79,95.57c-.47.26-.46.69,0,1l9.76,5.35a1.8,1.8,0,0,0,1.6,0c.44-.26.46-.66,0-.93L56,95.26a1.78,1.78,0,0,0-1.65,0Z"/><line class="cls-8" x1="89.65" y1="20.32" x2="89.65" y2="20.32"/><line class="cls-9" x1="89.65" y1="13.88" x2="89.65" y2="4.22"/><line class="cls-8" x1="89.65" y1="1" x2="89.65" y2="1"/><line class="cls-8" x1="36.35" y1="20.32" x2="36.35" y2="20.32"/><line class="cls-9" x1="36.35" y1="13.88" x2="36.35" y2="4.22"/><line class="cls-8" x1="36.35" y1="1" x2="36.35" y2="1"/><path class="cls-10" d="M36.35,30V61.89c0,3.94,2.61,7.88,7.81,10.88,10.4,6,27.28,6,37.68,0,5.2-3,7.81-6.94,7.81-10.88h0V30Z"/><path class="cls-11" d="M36.35,30V61.89c0,3.94,2.61,7.88,7.81,10.88s12,4.51,18.84,4.51V30Z"/><path class="cls-8" d="M36.35,30V61.89c0,3.94,2.61,7.88,7.81,10.88,10.4,6,27.28,6,37.68,0,5.2-3,7.81-6.94,7.81-10.88h0V30Z"/><ellipse class="cls-4" cx="63" cy="56.62" rx="29.7" ry="20.89"/><path class="cls-12" d="M86.08,59.56a20.51,20.51,0,0,0-4.24-3.19c-10.4-6-27.28-6-37.68,0a21.15,21.15,0,0,0-4.27,3.21"/><ellipse class="cls-13" cx="63" cy="30.03" rx="26.65" ry="15.38"/><path class="cls-8" d="M81.84,19.16c-10.4-6-27.28-6-37.68,0C39,22.16,36.35,26.1,36.35,30V61.89c0,3.94,2.61,7.88,7.81,10.88,10.4,6,27.28,6,37.68,0,5.2-3,7.81-6.94,7.81-10.88h0V30C89.65,26.1,87,22.16,81.84,19.16Z"/><polygon class="cls-14" points="76.2 22.57 76.2 31.17 69.6 34.98 69.6 26.38 76.2 22.57"/><polygon class="cls-15" points="63 22.57 63 31.17 69.6 34.98 69.6 26.38 63 22.57"/><polygon class="cls-14" points="63 22.57 63 31.17 56.4 34.98 56.4 26.38 63 22.57"/><polygon class="cls-15" points="49.8 22.57 49.8 31.17 56.4 34.98 56.4 26.38 49.8 22.57"/><polygon class="cls-14" points="76.2 14.95 76.2 22.57 69.6 18.76 69.6 18.76 76.2 14.95"/><polygon class="cls-15" points="49.8 14.95 49.8 22.57 56.4 18.76 56.4 18.76 49.8 14.95"/><polygon class="cls-8" points="69.6 11.14 63 14.95 56.4 11.14 49.8 14.95 49.8 22.57 49.8 31.17 56.4 34.98 63 31.17 69.6 34.98 76.2 31.17 76.2 22.57 76.2 14.95 69.6 11.14"/><polygon class="cls-16" points="76.2 14.95 69.6 11.14 63 14.95 56.4 11.14 49.8 14.95 56.4 18.76 49.8 22.57 56.4 26.38 63 22.57 69.6 26.38 76.2 22.57 69.6 18.76 76.2 14.95"/><rect class="cls-4" width="126" height="126"/></g></g></g></svg>