<svg xmlns="http://www.w3.org/2000/svg" viewBox="0 0 126 126"><defs><style>.cls-1,.cls-10,.cls-11,.cls-12,.cls-5,.cls-8{fill:none;}.cls-2{fill:#f2f4f6;}.cls-3{fill:#e9f6fe;}.cls-3,.cls-5,.cls-6{stroke:#91d2fb;}.cls-10,.cls-11,.cls-12,.cls-3,.cls-5,.cls-6,.cls-7,.cls-8,.cls-9{stroke-linecap:round;stroke-linejoin:round;stroke-width:2px;}.cls-4{fill:#bde4fd;}.cls-6,.cls-9{fill:#fff;}.cls-7{fill:#d5dae0;}.cls-7,.cls-8,.cls-9{stroke:#b8bfca;}.cls-10{stroke:#627386;}.cls-11,.cls-12{stroke:#1b6dc6;}.cls-12{stroke-dasharray:0 6.27;}</style></defs><title>applications</title><g id="Layer_2" data-name="Layer 2"><g id="Illustrations"><g id="applications"><rect class="cls-1" width="126" height="126"/><path class="cls-2" d="M98.62,70.42l-5.44-3.14a1.24,1.24,0,0,0-.24-.41c-.52-.47-10.07-.69-10.07-.69v11.6h0c0,.43.48.85,1.31,1,1.23.19,2.39-4.41,3.36-3.85,1.15.66,1.84,6.46,2.09,7.32l-15.32-5v3.95h24.3Z"/><path class="cls-3" d="M81,23.78,64.62,14.33a3.56,3.56,0,0,0-3.24,0L45,23.78l-11.49,5h0v11.6l9.1,5.26a2.6,2.6,0,0,0,1.24.29,1.84,1.84,0,0,0,1.65-.77,4.65,4.65,0,0,1,1.94-1.93,6.19,6.19,0,0,1,.63-.32l.15-.07c.17-.07.34-.15.52-.21l.16-.05a5.22,5.22,0,0,1,.56-.18l.12,0q.31-.09.63-.15l.08,0,.7-.12h0c.25,0,.5-.06.76-.08h0a12.21,12.21,0,0,1,1.6,0v2.83h0v6.63a.86.86,0,0,0,.51.71L63,57.37h0l9.09-5.25a2.51,2.51,0,0,1,1.23-.29,1.81,1.81,0,0,1,1.65.72,5.11,5.11,0,0,0,2.7,2.36,11.45,11.45,0,0,0,4.63.88,11.32,11.32,0,0,0,4.6-.93c1.9-.87,2.84-2.14,2.84-3.4h0V41.93l2.72-1.58V28.75h0Z"/><path class="cls-4" d="M73.08,51.85V29H63V57.37l9.09-5.25A2.28,2.28,0,0,1,73.08,51.85Z"/><path class="cls-4" d="M44.08,28.75V45.88a1.7,1.7,0,0,0,1.43-.75,4.65,4.65,0,0,1,1.94-1.93,11.87,11.87,0,0,1,8.61-.83l5.32-2.59V19.3L45,28.75Z"/><polygon class="cls-4" points="87.16 43.42 92.47 40.35 92.47 28.75 87.16 28.75 87.16 43.42"/><rect class="cls-4" x="80.67" y="29.03" width="7.85" height="8.08"/><path class="cls-5" d="M81,23.78,64.62,14.33a3.56,3.56,0,0,0-3.24,0L45,23.78l-11.49,5h0v11.6l9.1,5.26a2.6,2.6,0,0,0,1.24.29,1.84,1.84,0,0,0,1.65-.77,4.65,4.65,0,0,1,1.94-1.93,6.19,6.19,0,0,1,.63-.32l.15-.07c.17-.07.34-.15.52-.21l.16-.05a5.22,5.22,0,0,1,.56-.18l.12,0q.31-.09.63-.15l.08,0,.7-.12h0c.25,0,.5-.06.76-.08h0a12.21,12.21,0,0,1,1.6,0v2.83h0v6.63a.86.86,0,0,0,.51.71L63,57.37h0l9.09-5.25a2.51,2.51,0,0,1,1.23-.29,1.81,1.81,0,0,1,1.65.72,5.11,5.11,0,0,0,2.7,2.36,11.45,11.45,0,0,0,4.63.88,11.32,11.32,0,0,0,4.6-.93c1.9-.87,2.84-2.14,2.84-3.4h0V41.93l2.72-1.58V28.75h0Z"/><path class="cls-6" d="M58.73,37.3a9.17,9.17,0,0,1-4.09,1.56c-1.27.19-1.66,1.13-.73,1.66L63,45.77l9.09-5.25C73,40,74.64,40.21,75,41a5.11,5.11,0,0,0,2.7,2.36,12.14,12.14,0,0,0,9.23-.05c3.57-1.64,3.78-4.66.65-6.47a9.94,9.94,0,0,0-3.36-1.12c-1.3-.2-1.77-1.11-.82-1.66l9.1-5.26L64.62,12.67a3.56,3.56,0,0,0-3.24,0L33.52,28.75,42.62,34c1,.55,2.55.27,2.89-.48a4.54,4.54,0,0,1,1.94-1.93c3.14-1.81,8.36-1.69,11.2.37C60.78,33.51,60.81,35.74,58.73,37.3Z"/><path class="cls-7" d="M110.47,77.26l-17.29-10a1.24,1.24,0,0,0-.24-.41c-.52-.47-10.07-.69-10.07-.69v11.6h0a.71.71,0,0,0,.06.24h9.53v27.86l27.86-16.09a1.11,1.11,0,0,0,.67-.93V77.26Z"/><path class="cls-7" d="M57.61,82.23l-3.7,1.38c-.93-.54-.53-1.47.74-1.66a9.13,9.13,0,0,0,4.08-1.56,3.35,3.35,0,0,0,1.54-2.64h0V66.15L48,66.87l-1.18,3.25a4.32,4.32,0,0,0-1.32,1.53c-.34.75-1.93,1-2.89.47l-9.09-5.25L12,79.29l-7-2v11.6a1.14,1.14,0,0,0,.67.94l27.86,16.08,9.1-5.26a.82.82,0,0,0,.49-.69h0V93.3l-4.94-1.43a6.65,6.65,0,0,1,.92-.5,12.12,12.12,0,0,1,9.22-.05A5.11,5.11,0,0,1,51,93.68c.33.74,1.95,1,2.88.43L63,88.86V82.23Z"/><path class="cls-2" d="M40.35,85.94V70.81l-6.82-3.94L12,79.29l-7-2v11.6a1.14,1.14,0,0,0,.67.94l27.86,16.08,6.82-3.94V87.52l-2.16-.62a6.65,6.65,0,0,1,.92-.5A8.62,8.62,0,0,1,40.35,85.94Z"/><path class="cls-8" d="M57.61,82.23l-3.7,1.38c-.93-.54-.53-1.47.74-1.66a9.13,9.13,0,0,0,4.08-1.56,3.35,3.35,0,0,0,1.54-2.64h0V66.15L48,66.87l-1.18,3.25a4.32,4.32,0,0,0-1.32,1.53c-.34.75-1.93,1-2.89.47l-9.09-5.25L12,79.29l-7-2v11.6a1.14,1.14,0,0,0,.67.94l27.86,16.08,9.1-5.26a.82.82,0,0,0,.49-.69h0V88.33L38.19,86.9a6.65,6.65,0,0,1,.92-.5,12.12,12.12,0,0,1,9.22-.05c1.4.63,2.3,6.44,2.7,7.33.33.74,1.95,1,2.88.43L63,88.86V77.26Z"/><path class="cls-7" d="M65.84,94.28a3.69,3.69,0,0,1,1.43-1.92,9.17,9.17,0,0,1,4.09-1.56c.79-.12,1.24-.53,1.24-1h0V83.22l-36.35,0V89.8h0a3.71,3.71,0,0,0,2.19,3.06A9.73,9.73,0,0,0,41.81,94a2.3,2.3,0,0,1,.84.3H33.53v11.6L61.38,122a3.62,3.62,0,0,0,3.24,0l27.86-16.08V94.28Z"/><path class="cls-2" d="M63,83.21l-26.75,0V89.8h0a3.71,3.71,0,0,0,2.19,3.06A9.73,9.73,0,0,0,41.81,94a2.3,2.3,0,0,1,.84.3H33.53v11.6L61.38,122a3.29,3.29,0,0,0,1.62.38Z"/><path class="cls-8" d="M65.84,94.28a3.69,3.69,0,0,1,1.43-1.92,9.17,9.17,0,0,1,4.09-1.56c.79-.12,1.24-.53,1.24-1h0V83.22l-36.35,0V89.8h0a3.71,3.71,0,0,0,2.19,3.06A9.73,9.73,0,0,0,41.81,94a2.3,2.3,0,0,1,.84.3H33.53v11.6L61.38,122a3.62,3.62,0,0,0,3.24,0l27.86-16.08V94.28Z"/><path class="cls-9" d="M48.33,79.72A5.11,5.11,0,0,1,51,82.08c.33.74,1.95,1,2.88.43L63,77.26,53.91,72c-.93-.54-.54-1.47.74-1.66a9.13,9.13,0,0,0,4.08-1.56c2.08-1.56,2.05-3.79-.08-5.33-2.84-2.06-8.06-2.18-11.2-.37A4.54,4.54,0,0,0,45.51,65c-.34.75-1.93,1-2.88.47l-9.1-5.25L5.67,76.32a1,1,0,0,0,0,1.87L33.53,94.28,42.63,89c.95-.55.48-1.47-.82-1.67a9.93,9.93,0,0,1-3.36-1.11c-3.13-1.82-2.91-4.83.66-6.47A12.12,12.12,0,0,1,48.33,79.72Z"/><path class="cls-9" d="M67.27,85.73a9.17,9.17,0,0,1,4.09-1.56C72.63,84,73,83,72.09,82.51L63,77.26l-9.09,5.25c-.93.53-2.55.31-2.88-.43a5.11,5.11,0,0,0-2.7-2.36,12.14,12.14,0,0,0-9.23,0c-3.57,1.64-3.78,4.66-.65,6.47a9.93,9.93,0,0,0,3.36,1.11c1.3.2,1.77,1.12.82,1.67l-9.1,5.26,27.85,16.08a3.62,3.62,0,0,0,3.24,0L92.48,94.28,83.38,89c-1-.55-2.55-.28-2.89.48a4.65,4.65,0,0,1-1.94,1.93c-3.14,1.81-8.36,1.69-11.2-.38C65.22,89.52,65.19,87.29,67.27,85.73Z"/><path class="cls-9" d="M77.67,74.79A5.07,5.07,0,0,1,75,72.43c-.33-.73-2-1-2.88-.42L63,77.26l9.09,5.25c.93.53.53,1.47-.74,1.66a9.13,9.13,0,0,0-4.08,1.56c-2.08,1.56-2,3.79.08,5.32,2.84,2.06,8.06,2.19,11.2.38a4.62,4.62,0,0,0,1.94-1.94c.34-.75,1.93-1,2.88-.47l9.1,5.25,27.86-16.08a1,1,0,0,0,0-1.87L92.47,60.24l-9.1,5.25c-1,.55-.48,1.47.82,1.67a9.73,9.73,0,0,1,3.36,1.12c3.13,1.81,2.91,4.82-.66,6.47A12.16,12.16,0,0,1,77.67,74.79Z"/><path class="cls-10" d="M121,77.26a1.14,1.14,0,0,0-.67-.94L92.47,60.24l-9.1,5.25a.84.84,0,0,0-.49.69h0v9.47a11.71,11.71,0,0,1-5.2-.86A5.07,5.07,0,0,1,75,72.43c-.33-.73-2-1-2.88-.42L63,77.26l9.09,5.25c.93.53.53,1.47-.74,1.66a9.13,9.13,0,0,0-4.08,1.56c-2.08,1.56-2,3.79.08,5.32,2.84,2.06,8.06,2.19,11.2.38a4.62,4.62,0,0,0,1.94-1.94c.34-.75,1.93-1,2.88-.47l9.1,5.25h0v11.61l27.86-16.09a1.11,1.11,0,0,0,.67-.93V77.26Z"/><path class="cls-10" d="M92.48,94.28,83.38,89c-1-.55-2.55-.28-2.89.48a4.65,4.65,0,0,1-1.94,1.93c-3.14,1.81-8.36,1.69-11.2-.38-2.13-1.53-2.16-3.76-.08-5.32a9.17,9.17,0,0,1,4.09-1.56C72.63,84,73,83,72.09,82.51L63,77.26l-9.09,5.25c-.93.53-2.55.31-2.88-.43a5.11,5.11,0,0,0-2.7-2.36,12.14,12.14,0,0,0-9.23,0c-3.57,1.64-3.78,4.66-.65,6.47a9.93,9.93,0,0,0,3.36,1.11c1.3.2,1.77,1.12.82,1.67l-9.1,5.26h0v11.6L61.38,122a3.62,3.62,0,0,0,3.24,0l27.86-16.08V94.28Z"/><path class="cls-10" d="M60.27,75.68V66.15h0a3.39,3.39,0,0,0-1.61-2.69c-2.84-2.06-8.06-2.18-11.2-.37A4.54,4.54,0,0,0,45.51,65c-.34.75-1.93,1-2.88.47l-9.1-5.25L5.67,76.32a1.14,1.14,0,0,0-.67.94H5v11.6a1.14,1.14,0,0,0,.67.94l27.86,16.08V94.28h0L42.63,89c.95-.55.48-1.47-.82-1.67a9.93,9.93,0,0,1-3.36-1.11c-3.13-1.82-2.92-4.83.66-6.47a12.12,12.12,0,0,1,9.22,0A5.11,5.11,0,0,1,51,82.08c.33.74,1.95,1,2.88.43L63,77.26Z"/><path class="cls-11" d="M92.47,28.75,64.62,12.67a3.56,3.56,0,0,0-3.24,0L33.52,28.75h0v11.6l9.1,5.26a2.6,2.6,0,0,0,1.24.29,1.33,1.33,0,0,0,.21,0h.07l.37-.07.12,0a2.08,2.08,0,0,0,.3-.12l.18-.1a1,1,0,0,0,.17-.12.8.8,0,0,0,.23-.29h0a4.65,4.65,0,0,1,1.94-1.93h0a7.77,7.77,0,0,1,.82-.4l.25-.11.71-.25.21-.06a9.28,9.28,0,0,1,.91-.22l.34,0c.21,0,.43-.07.65-.09l.37,0H52c.42,0,.85,0,1.28,0h.17v9.45a.86.86,0,0,0,.51.71L63,57.37h0l9.09-5.25a1.69,1.69,0,0,1,.52-.19l.3-.06a2.85,2.85,0,0,1,.41,0,1.81,1.81,0,0,1,1.65.72,5.11,5.11,0,0,0,2.7,2.36,11.45,11.45,0,0,0,4.63.88,11.32,11.32,0,0,0,4.6-.93,5.71,5.71,0,0,0,2.19-1.64l0,0a4.4,4.4,0,0,0,.26-.39l0-.09a2.72,2.72,0,0,0,.16-.35c0-.06,0-.12.05-.18a1.25,1.25,0,0,0,.07-.26,1.72,1.72,0,0,0,0-.39s0-.05,0-.07h0V41.93l2.72-1.58V28.75Z"/><line class="cls-11" x1="92.47" y1="28.75" x2="92.47" y2="28.75"/><line class="cls-12" x1="92.47" y1="22.48" x2="92.47" y2="6.79"/><line class="cls-11" x1="92.47" y1="3.65" x2="92.47" y2="3.65"/><line class="cls-11" x1="33.52" y1="28.75" x2="33.52" y2="28.75"/><line class="cls-12" x1="33.52" y1="22.48" x2="33.52" y2="6.79"/><line class="cls-11" x1="33.52" y1="3.66" x2="33.52" y2="3.66"/></g></g></g></svg>