<svg xmlns="http://www.w3.org/2000/svg" viewBox="0 0 126 126"><defs><style>.cls-1,.cls-10,.cls-11,.cls-13,.cls-14,.cls-15,.cls-4,.cls-6{fill:none;}.cls-2{fill:#bde4fd;}.cls-3{fill:#d3edfd;}.cls-4,.cls-5{stroke:#91d2fb;}.cls-10,.cls-11,.cls-13,.cls-14,.cls-15,.cls-4,.cls-6{stroke-linecap:round;stroke-linejoin:round;}.cls-10,.cls-11,.cls-13,.cls-14,.cls-15,.cls-4,.cls-5,.cls-6{stroke-width:2px;}.cls-5,.cls-9{fill:#fff;}.cls-5{stroke-miterlimit:10;}.cls-13,.cls-14,.cls-6{stroke:#1b6dc6;}.cls-7{fill:#91d2fb;}.cls-8{fill:#f2f4f6;}.cls-10{stroke:#627386;}.cls-11{stroke:#d5dae0;}.cls-12{fill:#b8bfca;}.cls-13{stroke-dasharray:0 5.79;}.cls-14{stroke-dasharray:0 5.64;}.cls-15{stroke:#b8bfca;}</style></defs><title>azure_cloud_profile</title><g id="Layer_2" data-name="Layer 2"><g id="Illustrations"><g id="azure_cloud_profile"><rect class="cls-1" width="126" height="126"/><path class="cls-2" d="M78.52,23.24V16.55H67.65L56.28,10a2.71,2.71,0,0,0-2.45,0L42.47,16.55H31.59v6.69a.87.87,0,0,0,.51.71L53.83,36.5a2.71,2.71,0,0,0,2.45,0L78,24A.87.87,0,0,0,78.52,23.24Z"/><path class="cls-3" d="M55.05,9.7a2.45,2.45,0,0,0-1.22.29L42.47,16.55H31.59v6.69a.87.87,0,0,0,.51.71L53.83,36.5a2.56,2.56,0,0,0,1.22.29Z"/><path class="cls-4" d="M78.52,23.24V16.55H67.65L56.28,10a2.71,2.71,0,0,0-2.45,0L42.47,16.55H31.59v6.69a.87.87,0,0,0,.51.71L53.83,36.5a2.71,2.71,0,0,0,2.45,0L78,24A.87.87,0,0,0,78.52,23.24Z"/><path class="cls-5" d="M78,17.25,56.28,29.8a2.71,2.71,0,0,1-2.45,0L32.1,17.25a.74.74,0,0,1,0-1.41L53.83,3.29a2.71,2.71,0,0,1,2.45,0L78,15.84A.74.74,0,0,1,78,17.25Z"/><path class="cls-6" d="M78,15.84,56.28,3.29a2.71,2.71,0,0,0-2.45,0L32.1,15.84a.87.87,0,0,0-.51.71v6.69a.87.87,0,0,0,.51.71L53.83,36.5a2,2,0,0,0,.57.21,2.73,2.73,0,0,0,1.88-.21L78,24a.87.87,0,0,0,.51-.71V16.55A.87.87,0,0,0,78,15.84Z"/><path class="cls-7" d="M63.87,15.44l-13.13-3a.21.21,0,0,0-.25.1.24.24,0,0,0,0,.27l2.9,3.95a.25.25,0,0,0,.18.1l5.36.31L55.19,21a.26.26,0,0,0,0,.32.25.25,0,0,0,.19.09.22.22,0,0,0,.13,0L64,15.87a.25.25,0,0,0,.11-.24A.23.23,0,0,0,63.87,15.44Z"/><path class="cls-7" d="M50.06,13.29a.23.23,0,0,0-.25-.11.23.23,0,0,0-.18.2L49.05,17a.32.32,0,0,0,0,.14l2.35,5.14a.26.26,0,0,0,.16.13h.06a.22.22,0,0,0,.15-.06l2.51-2a.24.24,0,0,0,.05-.31Z"/><path class="cls-8" d="M122.77,52.73l-16.35,1,.33,1.78c-7.19-1.18-15.2-.19-20.89,3L73.22,65.67c-13.18-6.54-32.53-6.76-45.9-.56l-13.15,1L14,81h0c0,4.74,2.7,9.51,8.24,13.41l-1.92,1.08-17-.16-.14,15h0c0,3.19,2,6.4,6.24,8.87,8.38,5,22,5.08,30.52.29l76.23-43c4.24-2.4,6.38-5.57,6.41-8.76h0Z"/><path class="cls-9" d="M86,43.56,73.37,50.7c-14.07-7-35.17-6.76-48.53.78s-14.19,19.72-2.42,28L9.78,86.61C1.3,91.4,1.22,99.29,9.61,104.24s22.05,5.07,30.53.29l76.23-43.05c8.47-4.79,8.55-12.68.16-17.63h0C108.15,38.91,94.48,38.78,86,43.56Z"/><path class="cls-10" d="M116.53,43.85h0c-8.38-4.94-22-5.07-30.52-.29L73.37,50.7c-14.07-7-35.17-6.76-48.53.78-7.06,4-10.62,9.27-10.67,14.59h0L14,81h0a12.08,12.08,0,0,0,.35,3l-4.6,2.6C5.54,89,3.4,92.17,3.37,95.36l-.14,15c0,3.19,2,6.4,6.24,8.87,8.38,5,22,5.08,30.52.29l76.23-43c4.24-2.4,6.38-5.57,6.41-8.76l.14-15C122.8,49.54,120.73,46.33,116.53,43.85Z"/><path class="cls-11" d="M17.45,75a24,24,0,0,0,5,4.58M9.61,104.24c8.38,4.94,22.05,5.07,30.53.29l76.23-43.05"/><path class="cls-12" d="M63.22,66.86l-13.13-3a.22.22,0,0,0-.25.1.23.23,0,0,0,0,.27l2.9,3.95a.25.25,0,0,0,.18.1l5.35.31-3.74,3.75a.24.24,0,0,0,.17.41.22.22,0,0,0,.13,0l8.46-5.45a.23.23,0,0,0,.1-.24A.21.21,0,0,0,63.22,66.86Z"/><path class="cls-12" d="M49.41,64.71a.23.23,0,0,0-.25-.11.23.23,0,0,0-.18.2l-.58,3.57a.32.32,0,0,0,0,.14l2.35,5.14a.26.26,0,0,0,.16.13H51a.24.24,0,0,0,.15-.06l2.5-2a.23.23,0,0,0,.06-.31Z"/><line class="cls-6" x1="30.95" y1="62.95" x2="30.95" y2="62.95"/><line class="cls-13" x1="31.01" y1="57.16" x2="31.3" y2="31.08"/><line class="cls-6" x1="31.33" y1="28.19" x2="31.33" y2="28.19"/><line class="cls-6" x1="78.11" y1="62.45" x2="78.11" y2="62.45"/><line class="cls-14" x1="78.17" y1="56.81" x2="78.46" y2="31.45"/><line class="cls-6" x1="78.49" y1="28.64" x2="78.49" y2="28.64"/><path class="cls-15" d="M77.36,68.68,55.63,81.22a2.71,2.71,0,0,1-2.45,0L31.45,68.68c-.68-.4-.68-1,0-1.42L53.18,54.71a2.71,2.71,0,0,1,2.45,0L77.36,67.26C78,67.65,78,68.28,77.36,68.68Z"/></g></g></g></svg>