<svg xmlns="http://www.w3.org/2000/svg" viewBox="0 0 126 126"><defs><style>.cls-1{fill:#d5dae0;}.cls-2{fill:#f2f4f6;}.cls-3{fill:#fff;}.cls-10,.cls-11,.cls-12,.cls-4,.cls-5,.cls-6,.cls-8{fill:none;}.cls-4{stroke:#d5dae0;}.cls-10,.cls-11,.cls-4,.cls-5,.cls-6,.cls-7,.cls-8,.cls-9{stroke-linecap:round;stroke-linejoin:round;stroke-width:2px;}.cls-5{stroke:#b8bfca;}.cls-6{stroke:#627386;}.cls-7{fill:#bde4fd;}.cls-7,.cls-8,.cls-9{stroke:#91d2fb;}.cls-9{fill:#e9f6fe;}.cls-10,.cls-11{stroke:#1b6dc6;}.cls-11{stroke-dasharray:0 5.27;}</style></defs><title>categories</title><g id="Layer_2" data-name="Layer 2"><g id="Illustrations"><g id="categories"><path class="cls-1" d="M63,84.45a50.53,50.53,0,0,0-20.79-4.19c-13.11,0-24.46,4.35-30,10.68H8.66v8.69c0,10.7,15,19.37,33.55,19.37A50.7,50.7,0,0,0,63,114.83Z"/><ellipse class="cls-2" cx="42.21" cy="90.94" rx="33.55" ry="19.37"/><path class="cls-2" d="M113.76,90.94c-5.51-6.33-16.86-10.68-30-10.68A50.53,50.53,0,0,0,63,84.45v30.38A50.7,50.7,0,0,0,83.79,119c18.53,0,33.55-8.67,33.55-19.37V90.94Z"/><ellipse class="cls-3" cx="83.79" cy="90.94" rx="33.55" ry="19.37"/><path class="cls-2" d="M63,75.74c-12.88,5.86-16.7,16.44-8.26,24.88A28.21,28.21,0,0,0,63,106.14c12.88-5.86,16.7-16.45,8.26-24.89A28,28,0,0,0,63,75.74Z"/><path class="cls-4" d="M63,75.74c-12.88,5.86-16.7,16.44-8.26,24.88A28.21,28.21,0,0,0,63,106.14c12.88-5.86,16.7-16.45,8.26-24.89A28,28,0,0,0,63,75.74Z"/><line class="cls-5" x1="63" y1="106.14" x2="63" y2="114.83"/><ellipse class="cls-5" cx="42.21" cy="90.94" rx="33.55" ry="19.37"/><ellipse class="cls-5" cx="83.79" cy="90.94" rx="33.55" ry="19.37"/><path class="cls-6" d="M83.79,71.57A50.7,50.7,0,0,0,63,75.74a50.73,50.73,0,0,0-20.79-4.17c-18.53,0-33.55,8.67-33.55,19.37h0v8.69c0,10.7,15,19.37,33.55,19.37A50.7,50.7,0,0,0,63,114.83h0A50.73,50.73,0,0,0,83.79,119c18.53,0,33.55-8.67,33.55-19.37V90.94C117.34,80.24,102.32,71.57,83.79,71.57Z"/><path class="cls-7" d="M93,38C87.46,31.7,76.11,27.36,63,27.36S38.54,31.7,33,38H29.45v8.7c0,10.69,15,19.37,33.55,19.37s33.55-8.68,33.55-19.37V38Z"/><path class="cls-8" d="M93,38C87.46,31.7,76.11,27.36,63,27.36S38.54,31.7,33,38H29.45v8.7c0,10.69,15,19.37,33.55,19.37s33.55-8.68,33.55-19.37V38Z"/><ellipse class="cls-9" cx="63" cy="38.03" rx="33.55" ry="19.37"/><ellipse class="cls-8" cx="63" cy="38.03" rx="33.55" ry="19.37"/><path class="cls-10" d="M96.55,38c0-10.69-15-19.37-33.55-19.37S29.45,27.34,29.45,38v8.7c0,10.69,15,19.37,33.55,19.37s33.55-8.68,33.55-19.37V38Z"/><line class="cls-10" x1="96.55" y1="28.06" x2="96.55" y2="28.06"/><line class="cls-11" x1="96.55" y1="22.8" x2="96.55" y2="9.63"/><line class="cls-10" x1="96.55" y1="7" x2="96.55" y2="7"/><line class="cls-10" x1="29.45" y1="28.06" x2="29.45" y2="28.06"/><line class="cls-11" x1="29.45" y1="22.8" x2="29.45" y2="9.63"/><line class="cls-10" x1="29.45" y1="7" x2="29.45" y2="7"/><rect class="cls-12" width="126" height="126"/></g></g></g></svg>