<svg xmlns="http://www.w3.org/2000/svg" viewBox="0 0 126 126"><defs><style>.cls-1,.cls-12,.cls-2,.cls-3,.cls-6,.cls-8{fill:none;}.cls-2,.cls-3{stroke:#1b6dc6;}.cls-10,.cls-11,.cls-12,.cls-13,.cls-2,.cls-3,.cls-4,.cls-5,.cls-6,.cls-7,.cls-8{stroke-linecap:round;stroke-linejoin:round;stroke-width:2px;}.cls-3{stroke-dasharray:0 6.33;}.cls-4{fill:#f2f4f6;}.cls-4,.cls-5,.cls-6,.cls-7{stroke:#b8bfca;}.cls-5,.cls-9{fill:#d5dae0;}.cls-13,.cls-7{fill:#fff;}.cls-8{stroke:#627386;}.cls-10,.cls-14{fill:#bde4fd;}.cls-10,.cls-11,.cls-12,.cls-13{stroke:#91d2fb;}.cls-11{fill:#e9f6fe;}</style></defs><title>clusters</title><g id="Layer_2" data-name="Layer 2"><g id="Illustrations"><g id="clusters"><rect class="cls-1" width="126" height="126"/><rect class="cls-1" width="126" height="126"/><rect class="cls-1" width="126" height="126"/><line class="cls-2" x1="25.7" y1="40.97" x2="25.7" y2="40.97"/><line class="cls-3" x1="25.7" y1="47.3" x2="25.7" y2="69.43"/><line class="cls-2" x1="25.7" y1="72.6" x2="25.7" y2="72.6"/><line class="cls-2" x1="100.3" y1="40.97" x2="100.3" y2="40.97"/><line class="cls-3" x1="100.3" y1="47.3" x2="100.3" y2="69.43"/><line class="cls-2" x1="100.3" y1="72.6" x2="100.3" y2="72.6"/><polygon class="cls-4" points="25.7 97.46 63 119 63 106.57 25.7 85.03 25.7 97.46"/><polygon class="cls-5" points="100.3 97.46 63 119 63 106.57 100.3 85.03 100.3 97.46"/><polygon class="cls-6" points="34.75 102.69 53.95 113.77 53.95 108.03 34.75 96.94 34.75 102.69"/><line class="cls-7" x1="30.59" y1="94.54" x2="30.48" y2="94.48"/><polygon class="cls-7" points="100.3 85.03 63 63.49 25.7 85.03 63 106.57 100.3 85.03"/><polygon class="cls-8" points="63 63.49 25.7 85.03 25.7 97.46 34.75 102.69 34.75 102.69 53.95 113.77 53.95 113.77 63 119 100.3 97.46 100.3 85.03 63 63.49"/><polygon class="cls-4" points="25.7 85.03 63 106.57 63 94.13 25.7 72.59 25.7 85.03"/><polygon class="cls-5" points="100.3 85.03 63 106.57 63 94.13 100.3 72.59 100.3 85.03"/><polygon class="cls-6" points="34.75 90.26 53.95 101.34 53.95 95.59 34.75 84.51 34.75 90.26"/><line class="cls-7" x1="30.59" y1="82.11" x2="30.48" y2="82.05"/><polygon class="cls-7" points="100.3 72.59 63 51.06 25.7 72.59 63 94.13 100.3 72.59"/><polygon class="cls-8" points="63 51.06 25.7 72.59 25.7 85.03 34.75 90.26 34.75 90.26 53.95 101.34 53.95 101.34 63 106.57 100.3 85.03 100.3 72.59 63 51.06"/><path class="cls-9" d="M50.86,73.55a.51.51,0,0,1-.25-.06L47,71.38c-.11-.07-.16-.17-.11-.25a.47.47,0,0,1,.42-.16l12.26.61c.28,0,.5-.12.48-.28l-1-7.09a.22.22,0,0,1,.17-.23.69.69,0,0,1,.53,0l3.5,2a.22.22,0,0,1,.12.14l1.15,7.7V74c0,.12-.15.22-.36.22H64Z"/><path class="cls-9" d="M66.41,74.06c0,.12.19.22.41.23l10.63.57a.67.67,0,0,0,.39-.1c.12-.1.09-.23,0-.31l-3.51-2a.57.57,0,0,0-.25-.07l-7.4-.44c-.27,0-.5.12-.47.28Z"/><path class="cls-9" d="M64.28,75.26c.22,0,.39.11.41.24l1.08,6.18c0,.09,0,.17-.17.22a.65.65,0,0,1-.53,0l-3.51-2a.25.25,0,0,1-.12-.15l-.67-4.28c0-.16.2-.29.47-.28Z"/><polygon class="cls-10" points="100.3 40.97 63 62.51 63 50.07 100.3 28.54 100.3 40.97"/><polygon class="cls-11" points="25.7 40.97 63 62.51 63 50.07 25.7 28.54 25.7 40.97"/><polygon class="cls-12" points="34.75 46.2 53.95 57.28 53.95 51.54 34.75 40.45 34.75 46.2"/><polygon class="cls-13" points="100.3 28.54 63 7 25.7 28.54 63 50.07 100.3 28.54"/><line class="cls-12" x1="30.59" y1="38.05" x2="30.48" y2="37.99"/><path class="cls-14" d="M50.86,29.15a.66.66,0,0,1-.25-.07L47,27c-.11-.06-.16-.16-.11-.25a.5.5,0,0,1,.42-.16l12.26.61c.28,0,.5-.12.48-.28L59,19.8c0-.09,0-.17.17-.22a.65.65,0,0,1,.53,0l3.5,2a.22.22,0,0,1,.12.15l1.15,7.69v.07c0,.12-.15.22-.36.22H64Z"/><path class="cls-14" d="M66.41,29.65c0,.12.19.22.41.23l10.63.57a.6.6,0,0,0,.39-.1c.12-.1.09-.22,0-.3l-3.51-2A.57.57,0,0,0,74,28l-7.4-.43c-.27,0-.5.11-.47.27Z"/><path class="cls-14" d="M64.28,30.86c.22,0,.39.11.41.23l1.08,6.18a.23.23,0,0,1-.17.23.69.69,0,0,1-.53,0l-3.51-2a.26.26,0,0,1-.12-.14L60.77,31c0-.16.2-.29.47-.27Z"/><polygon class="cls-2" points="63 7 25.7 28.54 25.7 40.97 44.35 51.74 53.95 57.28 53.95 57.28 63 62.51 100.3 40.97 100.3 28.54 63 7"/></g></g></g></svg>