<svg xmlns="http://www.w3.org/2000/svg" viewBox="0 0 126 126"><defs><style>.cls-1,.cls-7,.cls-8,.cls-9{fill:none;}.cls-2{fill:#f2f4f6;}.cls-2,.cls-4,.cls-6{stroke:#b8bfca;}.cls-2,.cls-4,.cls-5,.cls-6,.cls-7,.cls-8,.cls-9{stroke-linecap:round;stroke-linejoin:round;}.cls-12,.cls-2,.cls-4,.cls-5,.cls-6,.cls-7,.cls-8,.cls-9{stroke-width:2px;}.cls-3,.cls-4{fill:#d5dae0;}.cls-12,.cls-5,.cls-6{fill:#fff;}.cls-5,.cls-7{stroke:#627386;}.cls-8,.cls-9{stroke:#1b6dc6;}.cls-9{stroke-dasharray:0 5.39;}.cls-10{fill:#d3edfd;}.cls-11{fill:#bde4fd;}.cls-12{stroke:#91d2fb;stroke-miterlimit:10;}.cls-13{fill:#91d2fb;}</style></defs><title>cost_center</title><g id="Layer_2" data-name="Layer 2"><g id="Illustrations"><g id="cost_center"><rect class="cls-1" width="126" height="126"/><polygon class="cls-2" points="63 101.37 93.39 83.82 63 66.27 63 101.37"/><polygon class="cls-3" points="63 66.27 73.59 95.25 63 101.37 63 66.27"/><polygon class="cls-4" points="63 101.37 32.61 83.82 63 66.27 63 101.37"/><polygon class="cls-4" points="44.15 93.54 51.64 96.46 39.06 103.72 38.73 93.54 44.15 93.54"/><polygon class="cls-2" points="63 89.9 32.61 107.45 63 125 93.39 107.45 63 89.9"/><polygon class="cls-4" points="93.39 107.45 63 125 63 101.37 93.39 83.82 93.39 107.45"/><path class="cls-2" d="M32.61,83.82v23.63L63,125V101.37Z"/><polygon class="cls-5" points="93.39 83.82 107.67 85.13 77.28 102.68 63 101.37 93.39 83.82"/><polygon class="cls-6" points="63 66.27 48.72 51.09 18.32 68.64 32.61 83.82 63 66.27"/><path class="cls-4" d="M52.87,105.78c0,1.08-.66,1.58-1.47,1.11l-7.19-4.15a3.53,3.53,0,0,1-1.47-2.81V98.82c0-1.08.66-1.58,1.47-1.11l7.19,4.15a3.53,3.53,0,0,1,1.47,2.81Z"/><path class="cls-6" d="M83.26,88.23c0,1.08-.66,1.58-1.47,1.11L74.6,85.19a3.53,3.53,0,0,1-1.47-2.81V81.27c0-1.08.66-1.58,1.47-1.11l7.19,4.15a3.53,3.53,0,0,1,1.47,2.81Z"/><polygon class="cls-7" points="107.67 85.13 93.39 83.82 63 66.27 48.72 51.09 18.32 68.64 32.61 83.82 32.61 83.82 32.61 107.45 32.61 107.45 32.61 107.45 32.61 107.45 45.45 114.87 63 125 63 125 63 125 63 125 93.39 107.45 93.39 93.38 107.67 85.13"/><line class="cls-7" x1="93.39" y1="83.82" x2="63" y2="101.37"/><line class="cls-7" x1="63" y1="101.37" x2="32.61" y2="83.82"/><line class="cls-7" x1="32.61" y1="83.82" x2="63" y2="66.27"/><line class="cls-7" x1="63" y1="101.37" x2="63" y2="125"/><line class="cls-8" x1="82" y1="22.57" x2="82" y2="22.57"/><line class="cls-9" x1="82" y1="17.18" x2="82" y2="3.7"/><line class="cls-8" x1="82" y1="1" x2="82" y2="1"/><line class="cls-8" x1="44" y1="22.57" x2="44" y2="22.57"/><line class="cls-9" x1="44" y1="17.18" x2="44" y2="3.7"/><line class="cls-8" x1="44" y1="1" x2="44" y2="1"/><path class="cls-10" d="M76.69,30.33l-.26-.15C69,25.89,57,25.89,49.56,30.18l-.25.15H44v7.41c0,2.81,1.85,5.62,5.56,7.76C57,49.78,69,49.78,76.43,45.5c3.71-2.14,5.57-5,5.57-7.76V30.33Z"/><path class="cls-11" d="M76.43,45.5c3.71-2.14,5.57-5,5.57-7.76V30.33H76.69l-.26-.15A27.37,27.37,0,0,0,63,27V48.71A27.47,27.47,0,0,0,76.43,45.5Z"/><path class="cls-1" d="M76.69,30.33l-.26-.15C69,25.89,57,25.89,49.56,30.18l-.25.15H44v7.41c0,2.81,1.85,5.62,5.56,7.76C57,49.78,69,49.78,76.43,45.5c3.71-2.14,5.57-5,5.57-7.76V30.33Z"/><ellipse class="cls-12" cx="63" cy="30.33" rx="19" ry="10.97"/><path class="cls-13" d="M69,32.83l1.64.94-1.46.85-1.59-.92a14.1,14.1,0,0,1-2.44,1,10.83,10.83,0,0,1-2.37.46l-1-1.5a11.36,11.36,0,0,0,2-.36,9.9,9.9,0,0,0,1.88-.68l-2.45-1.42a21.07,21.07,0,0,1-2.3.7,7.37,7.37,0,0,1-2.1.18,4.76,4.76,0,0,1-2.06-.64,2,2,0,0,1-1.21-1.72A3,3,0,0,1,57,27.6l-1.63-.94,1.46-.84,1.59.92a12,12,0,0,1,3.86-1.2L63.35,27a11.16,11.16,0,0,0-3,.86l2.49,1.44a19.39,19.39,0,0,1,2.26-.7,7.64,7.64,0,0,1,2.09-.17,4.61,4.61,0,0,1,2,.62,1.93,1.93,0,0,1,1.18,1.7C70.42,31.42,69.94,32.1,69,32.83Zm-9.15-2.66a5.32,5.32,0,0,0,1.22-.24L59,28.73a.92.92,0,0,0-.4.71A.68.68,0,0,0,59,30a1.64,1.64,0,0,0,.87.19m5.19.37,2,1.17a1,1,0,0,0,.4-.68.6.6,0,0,0-.36-.51,1.55,1.55,0,0,0-.88-.19,5.57,5.57,0,0,0-1.18.21"/><path class="cls-8" d="M76.44,22.58C69,18.29,57,18.29,49.56,22.58c-3.71,2.14-5.56,5-5.56,7.75v7.41c0,2.81,1.85,5.62,5.56,7.76A27.51,27.51,0,0,0,63,48.71a31.92,31.92,0,0,0,7.15-.8c.72-.17,1.41-.37,2.1-.59a21.87,21.87,0,0,0,3.43-1.43c.25-.13.51-.25.76-.39.46-.27.89-.55,1.3-.83a13.1,13.1,0,0,0,2.09-1.83,8.72,8.72,0,0,0,.78-1,8,8,0,0,0,1-2,6.65,6.65,0,0,0,.35-2.1V30.33C82,27.53,80.15,24.72,76.44,22.58Z"/></g></g></g></svg>