<svg xmlns="http://www.w3.org/2000/svg" xmlns:xlink="http://www.w3.org/1999/xlink" viewBox="0 0 126 126"><defs><style>.cls-1,.cls-12,.cls-13,.cls-6,.cls-7,.cls-8{fill:none;}.cls-2{fill:#f2f4f6;}.cls-2,.cls-8{stroke:#627386;}.cls-10,.cls-11,.cls-12,.cls-13,.cls-2,.cls-6,.cls-7,.cls-8{stroke-linecap:round;stroke-linejoin:round;stroke-width:2px;}.cls-3{fill:#d5dae0;}.cls-11,.cls-4{fill:#fff;}.cls-5{clip-path:url(#clip-path);}.cls-6{stroke:#f2f4f6;}.cls-7{stroke:#b8bfca;}.cls-9{fill:#e9f6fe;}.cls-10{fill:#bde4fd;}.cls-10,.cls-11{stroke:#91d2fb;}.cls-12,.cls-13{stroke:#1b6dc6;}.cls-13{stroke-dasharray:0 6.49;}</style><clipPath id="clip-path"><path class="cls-1" d="M117.44,82.92,65.62,53a5.82,5.82,0,0,0-5.24,0L8.56,82.92c-1.45.84-1.45,2.19,0,3l51.82,29.92a5.76,5.76,0,0,0,5.24,0l51.82-29.92C118.89,85.11,118.89,83.76,117.44,82.92Zm-46.1,6.33L59.89,95.86l-4.2-9-4.19-9,15.65,2.43L82.8,82.64Z"/></clipPath></defs><title>integration</title><g id="Layer_2" data-name="Layer 2"><g id="Illustrations"><g id="integration"><rect class="cls-1" width="126" height="126"/><path class="cls-2" d="M118.52,84.43l-3.44,1.64L65.62,57.5a5.82,5.82,0,0,0-5.24,0L10.91,86.07,7.48,84.43v8.51h0a1.82,1.82,0,0,0,1.08,1.51l51.82,29.92a5.76,5.76,0,0,0,5.24,0l51.82-29.92a1.82,1.82,0,0,0,1.08-1.51h0Zm-51.37.29L82.8,87.14,71.34,93.75l-11.45,6.62-4.2-9-4.19-9Z"/><path class="cls-3" d="M63.64,125a5,5,0,0,0,2-.6l51.82-29.92a1.82,1.82,0,0,0,1.08-1.51V84.43l-3.44,1.64-8.34-4.82L63.64,104Z"/><polygon class="cls-3" points="51.5 85.3 67.15 87.72 82.8 90.14 76.83 93.59 87.9 93.59 87.9 76.22 46.25 76.22 46.25 93.59 55.35 93.59 51.5 85.3"/><path class="cls-4" d="M117.44,82.92,65.62,53a5.82,5.82,0,0,0-5.24,0L8.56,82.92c-1.45.84-1.45,2.19,0,3l51.82,29.92a5.76,5.76,0,0,0,5.24,0l51.82-29.92C118.89,85.11,118.89,83.76,117.44,82.92Zm-46.1,6.33L59.89,95.86l-4.2-9-4.19-9,15.65,2.43L82.8,82.64Z"/><g class="cls-5"><path class="cls-6" d="M44.4,62c-8.66,8.82-20.91,17.87-37,22"/><path class="cls-6" d="M60.54,40A92.21,92.21,0,0,1,44.4,62"/><path class="cls-6" d="M14,89.17C40.9,83.37,58.34,64,66.17,53.32"/><path class="cls-6" d="M10.28,89.87c1.25-.2,2.49-.44,3.71-.7"/><path class="cls-6" d="M17.68,94.88c29.68-4.19,49.74-24.94,58.41-35.83"/><path class="cls-6" d="M31.16,99C58.34,93.41,77.55,74.47,85.9,64.72"/><path class="cls-6" d="M24.77,100q3.27-.39,6.39-1"/><path class="cls-6" d="M39.94,104.06C67.31,98.36,87.3,79.5,95.59,70.42"/><path class="cls-6" d="M31.56,105.35a80.45,80.45,0,0,0,8.38-1.29"/><path class="cls-6" d="M105.32,75.93c2.17-2.26,3.31-3.64,3.31-3.64"/><path class="cls-6" d="M48.82,109.19c27.87-6,48.73-25.19,56.5-33.26"/><path class="cls-6" d="M38,110.78a83.83,83.83,0,0,0,10.8-1.59"/><path class="cls-6" d="M57.81,114.38c28.66-6.49,50.46-26.28,57.12-32.91"/><path class="cls-6" d="M44.14,116.33a84.46,84.46,0,0,0,13.67-2"/></g><path class="cls-7" d="M117.44,82.92,65.62,53a5.82,5.82,0,0,0-5.24,0L8.56,82.92c-1.45.84-1.45,2.19,0,3l51.82,29.92a5.76,5.76,0,0,0,5.24,0l51.82-29.92C118.89,85.11,118.89,83.76,117.44,82.92Z"/><path class="cls-8" d="M117.44,82.92,65.62,53a5.82,5.82,0,0,0-5.24,0L8.56,82.92a1.85,1.85,0,0,0-1.08,1.51v8.51a1.82,1.82,0,0,0,1.08,1.51l51.82,29.92a5.76,5.76,0,0,0,5.24,0l51.82-29.92a1.82,1.82,0,0,0,1.08-1.51V84.43A1.85,1.85,0,0,0,117.44,82.92Zm-46.1,6.33L59.89,95.86l-4.2-9-.43-1,11.89,1.84,5.39.84Z"/><polygon class="cls-8" points="71.34 89.25 59.89 95.86 55.69 86.83 51.5 77.8 67.15 80.22 82.8 82.64 71.34 89.25"/><polyline class="cls-9" points="51.5 20.47 51.5 29.01 59.89 47.08 59.89 38.54 51.5 20.47"/><polyline class="cls-10" points="82.8 25.31 82.8 33.85 59.89 47.08 59.89 38.54 82.8 25.31"/><polygon class="cls-11" points="71.34 31.92 59.89 38.54 55.69 29.5 51.5 20.47 67.15 22.89 82.8 25.31 71.34 31.92"/><polygon class="cls-12" points="67.15 22.89 51.5 20.47 51.5 20.47 51.5 29.01 59.89 47.08 82.8 33.85 82.8 25.31 67.15 22.89"/><line class="cls-12" x1="51.5" y1="20.47" x2="51.5" y2="20.47"/><line class="cls-13" x1="51.5" y1="13.98" x2="51.5" y2="4.24"/><line class="cls-12" x1="51.5" y1="1" x2="51.5" y2="1"/><line class="cls-12" x1="82.8" y1="25.31" x2="82.8" y2="25.31"/><line class="cls-13" x1="82.8" y1="18.82" x2="82.8" y2="9.09"/><line class="cls-12" x1="82.8" y1="5.84" x2="82.8" y2="5.84"/></g></g></g></svg>