<svg xmlns="http://www.w3.org/2000/svg" viewBox="0 0 126 126"><defs><style>.cls-1,.cls-3,.cls-7{fill:#fff;}.cls-1,.cls-2{stroke:#d5dae0;}.cls-1,.cls-11,.cls-12,.cls-13,.cls-2,.cls-3,.cls-4,.cls-5,.cls-6,.cls-7,.cls-8,.cls-9{stroke-linecap:round;stroke-linejoin:round;stroke-width:2px;}.cls-12,.cls-13,.cls-14,.cls-2,.cls-5,.cls-6,.cls-8{fill:none;}.cls-3,.cls-4,.cls-5{stroke:#b8bfca;}.cls-4{fill:#f2f4f6;}.cls-6{stroke:#627386;}.cls-11,.cls-7,.cls-8,.cls-9{stroke:#91d2fb;}.cls-9{fill:#bde4fd;}.cls-10,.cls-11{fill:#91d2fb;}.cls-12,.cls-13{stroke:#1b6dc6;}.cls-13{stroke-dasharray:0 6.03;}</style></defs><title>licenses</title><g id="Layer_2" data-name="Layer 2"><g id="Illustrations"><g id="licenses"><polygon class="cls-1" points="116.17 92.58 72.13 118 9.83 82.03 53.87 56.61 116.17 92.58"/><line class="cls-2" x1="15.99" y1="76.14" x2="15.99" y2="85.59"/><polygon class="cls-3" points="72.13 118 72.13 108.55 9.83 72.58 9.83 82.03 72.13 118"/><polygon class="cls-4" points="72.13 118 72.13 108.55 116.17 83.13 116.17 92.58 72.13 118"/><polygon class="cls-5" points="72.13 118 72.13 108.55 116.17 83.13 116.17 92.58 72.13 118"/><polygon class="cls-5" points="72.13 118 72.13 108.55 9.83 72.58 9.83 82.03 72.13 118"/><polygon class="cls-1" points="116.17 83.13 72.13 108.55 9.83 72.58 53.87 47.16 116.17 83.13"/><line class="cls-2" x1="60.23" y1="58.18" x2="28.92" y2="76.25"/><line class="cls-2" x1="60.85" y1="63" x2="37.28" y2="76.61"/><line class="cls-2" x1="73.1" y1="65.6" x2="41.79" y2="83.68"/><line class="cls-2" x1="77.59" y1="68.2" x2="46.28" y2="86.27"/><line class="cls-2" x1="67.13" y1="83.58" x2="54.37" y2="90.95"/><polygon class="cls-4" points="60.03 50.71 15.99 76.14 9.83 72.58 53.87 47.16 60.03 50.71"/><polygon class="cls-2" points="84.39 93.54 71.63 100.91 58.86 93.54 71.63 86.17 84.39 93.54"/><line class="cls-2" x1="86.44" y1="89.3" x2="100.28" y2="81.3"/><polygon class="cls-5" points="116.17 83.13 72.13 108.55 9.83 72.58 53.87 47.16 116.17 83.13"/><line class="cls-2" x1="81.73" y1="85.85" x2="95.58" y2="77.85"/><line class="cls-2" x1="81.73" y1="85.85" x2="95.58" y2="77.85"/><line class="cls-2" x1="77.03" y1="82.4" x2="90.88" y2="74.4"/><polygon class="cls-6" points="53.87 47.16 9.83 72.58 9.83 82.03 72.13 118 116.17 92.58 116.17 83.13 53.87 47.16"/><polygon class="cls-7" points="111.04 42.24 84.41 33.36 78.88 38.89 105.51 47.77 103.01 43.43 111.04 42.24"/><polygon class="cls-7" points="88.7 50.99 96.86 52.76 89.17 45.07 81.48 37.38 76.69 38.98 71.91 40.58 79.59 48.27 87.28 55.96 88.7 50.99"/><polygon class="cls-8" points="111.04 42.24 84.41 33.36 78.88 38.89 105.51 47.77 103.01 43.43 111.04 42.24"/><polygon class="cls-8" points="88.7 50.99 96.86 52.76 89.17 45.07 81.48 37.38 76.69 38.98 71.91 40.58 79.59 48.27 87.28 55.96 88.7 50.99"/><path class="cls-9" d="M85.75,23.85a10.78,10.78,0,0,0-7.87-.73c-.89-1.56-3.45-2.7-6.46-2.7s-5.57,1.14-6.45,2.7a10.81,10.81,0,0,0-7.88.73c-2.13,1.23-2.55,3.07-1.25,4.55-2.72.51-4.68,2-4.68,3.72s2,3.22,4.68,3.73c-1.3,1.47-.88,3.32,1.25,4.55a10.76,10.76,0,0,0,7.88.72c.88,1.57,3.44,2.7,6.45,2.7s5.57-1.13,6.46-2.7a10.73,10.73,0,0,0,7.87-.72c2.13-1.23,2.55-3.08,1.26-4.55,2.71-.51,4.68-2,4.68-3.73s-2-3.21-4.68-3.72C88.3,26.92,87.88,25.08,85.75,23.85ZM74.49,36.4a11.43,11.43,0,0,0-6.14,0,4.37,4.37,0,0,0-1.65-1.55,8.5,8.5,0,0,0-2.69-1,2.75,2.75,0,0,0,.73-1.78A2.7,2.7,0,0,0,64,30.35a8.75,8.75,0,0,0,2.69-1,4.38,4.38,0,0,0,1.65-1.56,11.17,11.17,0,0,0,6.14,0,4.38,4.38,0,0,0,1.65,1.56,8.81,8.81,0,0,0,2.7,1,2.66,2.66,0,0,0-.74,1.77,2.71,2.71,0,0,0,.74,1.78,8.56,8.56,0,0,0-2.7,1A4.37,4.37,0,0,0,74.49,36.4Z"/><path class="cls-10" d="M55.43,34.18A6.25,6.25,0,0,1,51.64,32a.26.26,0,0,0-.48.14h0c0,1.53,1.5,2.84,3.7,3.49a.27.27,0,0,0,.33-.18,2.66,2.66,0,0,1,.39-.84A.26.26,0,0,0,55.43,34.18Z"/><path class="cls-11" d="M87.26,34.59a2.69,2.69,0,0,1,.4.84.25.25,0,0,0,.32.18c2.2-.65,3.71-2,3.71-3.49h0A.27.27,0,0,0,91.2,32a6.25,6.25,0,0,1-3.79,2.2A.26.26,0,0,0,87.26,34.59Z"/><path class="cls-8" d="M85.75,23.85a10.78,10.78,0,0,0-7.87-.73c-.89-1.56-3.45-2.7-6.46-2.7s-5.57,1.14-6.45,2.7a10.81,10.81,0,0,0-7.88.73c-2.13,1.23-2.55,3.07-1.25,4.55-2.72.51-4.68,2-4.68,3.72s2,3.22,4.68,3.73c-1.3,1.47-.88,3.32,1.25,4.55a10.76,10.76,0,0,0,7.88.72c.88,1.57,3.44,2.7,6.45,2.7s5.57-1.13,6.46-2.7a10.73,10.73,0,0,0,7.87-.72c2.13-1.23,2.55-3.08,1.26-4.55,2.71-.51,4.68-2,4.68-3.73s-2-3.21-4.68-3.72C88.3,26.92,87.88,25.08,85.75,23.85ZM74.49,36.4a11.43,11.43,0,0,0-6.14,0,4.37,4.37,0,0,0-1.65-1.55,8.5,8.5,0,0,0-2.69-1,2.75,2.75,0,0,0,.73-1.78A2.7,2.7,0,0,0,64,30.35a8.75,8.75,0,0,0,2.69-1,4.38,4.38,0,0,0,1.65-1.56,11.17,11.17,0,0,0,6.14,0,4.38,4.38,0,0,0,1.65,1.56,8.81,8.81,0,0,0,2.7,1,2.66,2.66,0,0,0-.74,1.77,2.71,2.71,0,0,0,.74,1.78,8.56,8.56,0,0,0-2.7,1A4.37,4.37,0,0,0,74.49,36.4Z"/><ellipse class="cls-7" cx="71.42" cy="31.77" rx="11.52" ry="6.65"/><path class="cls-12" d="M103,43.43l8-1.19L89.43,35l.13-.07a3.79,3.79,0,0,0,.34-.2l.33-.22.27-.22.29-.26.21-.23.23-.31.14-.22c.06-.13.11-.25.16-.38s0-.13.07-.19a2.5,2.5,0,0,0,.09-.61h0c0-1.73-2-3.2-4.67-3.71,1.29-1.48.87-3.32-1.26-4.55a10.78,10.78,0,0,0-7.87-.73c-.89-1.56-3.45-2.7-6.46-2.7s-5.57,1.14-6.45,2.7a10.81,10.81,0,0,0-7.88.73c-2.13,1.23-2.55,3.07-1.25,4.55-2.72.51-4.68,2-4.68,3.72s2,3.22,4.68,3.73c-1.3,1.47-.88,3.32,1.25,4.55a10.76,10.76,0,0,0,7.88.72c.88,1.57,3.44,2.7,6.45,2.7a10.71,10.71,0,0,0,3.25-.48l4.92,4.93L87.28,56l1.42-5,8.16,1.77-7.69-7.69L85.05,41l20.46,6.82Z"/><path class="cls-12" d="M85.75,23.85a10.78,10.78,0,0,0-7.87-.73c-.89-1.56-3.45-2.7-6.46-2.7s-5.57,1.14-6.45,2.7a10.81,10.81,0,0,0-7.88.73c-2.13,1.23-2.55,3.07-1.25,4.55-2.72.51-4.68,2-4.68,3.72s2,3.22,4.68,3.73c-1.3,1.47-.88,3.32,1.25,4.55a10.76,10.76,0,0,0,7.88.72c.88,1.57,3.44,2.7,6.45,2.7s5.57-1.13,6.46-2.7a10.73,10.73,0,0,0,7.87-.72c2.13-1.23,2.55-3.08,1.26-4.55,2.71-.51,4.68-2,4.68-3.73s-2-3.21-4.68-3.72C88.3,26.92,87.88,25.08,85.75,23.85Z"/><line class="cls-12" x1="51.16" y1="32.12" x2="51.16" y2="32.12"/><line class="cls-13" x1="51.16" y1="26.09" x2="51.16" y2="11.02"/><line class="cls-12" x1="51.16" y1="8" x2="51.16" y2="8"/><line class="cls-12" x1="111.04" y1="42.24" x2="111.04" y2="42.24"/><line class="cls-13" x1="111.04" y1="36.21" x2="111.04" y2="21.13"/><line class="cls-12" x1="111.04" y1="18.11" x2="111.04" y2="18.11"/><rect class="cls-14" width="126" height="126"/></g></g></g></svg>