<svg xmlns="http://www.w3.org/2000/svg" viewBox="0 0 126 126"><defs><style>.cls-1{fill:#f2f4f6;}.cls-2,.cls-6{fill:#d5dae0;}.cls-10,.cls-3,.cls-4,.cls-8{fill:none;}.cls-3,.cls-5,.cls-6,.cls-7{stroke:#627386;}.cls-3,.cls-4,.cls-5,.cls-6,.cls-7,.cls-8,.cls-9{stroke-linecap:round;stroke-linejoin:round;stroke-width:2px;}.cls-4{stroke:#b8bfca;}.cls-5{fill:#fff;}.cls-7{fill:#b8bfca;}.cls-8,.cls-9{stroke:#1b6dc6;}.cls-8{stroke-dasharray:0 6;}.cls-9{fill:#bde4fd;}</style></defs><title>no_comparison_created</title><g id="Layer_2" data-name="Layer 2"><g id="Illustrations"><g id="no_comparison_created"><path class="cls-1" d="M45.41,45c1.71-1,3.1-.19,3.11,1.77l.14,55.34a6.79,6.79,0,0,1-3.08,5.35L16,124.58c-1.71,1-3.1.19-3.1-1.78l-.15-55.34a6.81,6.81,0,0,1,3.09-5.34Z"/><path class="cls-2" d="M7.88,61a6.37,6.37,0,0,0-1,3.13l.15,55.34a2.18,2.18,0,0,0,.9,2l5.81,3.37a2.15,2.15,0,0,1-.9-2l-.15-55.34a6.3,6.3,0,0,1,.9-3"/><path class="cls-3" d="M48.52,46.8a2.19,2.19,0,0,0-.91-2h0L41.8,41.44a2.19,2.19,0,0,0-2.2.22L10,58.74a6.84,6.84,0,0,0-3.09,5.35l.15,55.34a2.18,2.18,0,0,0,.9,2l5.81,3.37h0a2.17,2.17,0,0,0,2.21-.2l29.6-17.09a6.79,6.79,0,0,0,3.08-5.35Z"/><path class="cls-4" d="M12.88,120.14l-.15-52.68a6.81,6.81,0,0,1,3.09-5.34L43.21,46.3"/><polygon class="cls-5" points="28.57 75.07 28.66 104.83 22.54 108.36 22.45 78.6 28.57 75.07"/><polygon class="cls-6" points="34.74 89.94 34.78 101.3 28.66 104.83 28.63 93.47 34.74 89.94"/><polygon class="cls-7" points="40.85 78.03 40.91 97.76 34.79 101.29 34.73 81.55 40.85 78.03"/><path class="cls-1" d="M115.83,4.8c1.71-1,3.1-.19,3.1,1.77l.15,55.34A6.83,6.83,0,0,1,116,67.26L86.4,84.34c-1.71,1-3.1.2-3.11-1.77l-.14-55.34a6.83,6.83,0,0,1,3.08-5.35Z"/><path class="cls-2" d="M78.29,20.72a6.36,6.36,0,0,0-1,3.14l.14,55.34a2.17,2.17,0,0,0,.91,2l5.81,3.38a2.19,2.19,0,0,1-.91-2l-.14-55.34a6.3,6.3,0,0,1,.9-3"/><path class="cls-3" d="M118.93,6.57a2.16,2.16,0,0,0-.91-2h0l-5.81-3.37a2.19,2.19,0,0,0-2.2.21L80.42,18.51a6.81,6.81,0,0,0-3.08,5.35l.14,55.34a2.17,2.17,0,0,0,.91,2l5.81,3.38h0a2.18,2.18,0,0,0,2.21-.21L116,67.26a6.83,6.83,0,0,0,3.09-5.35Z"/><path class="cls-4" d="M83.29,79.91l-.14-52.68a6.83,6.83,0,0,1,3.08-5.35L113.62,6.07"/><polygon class="cls-5" points="98.03 57.21 98.06 65.93 91.92 69.47 91.89 60.76 98.03 57.21"/><polygon class="cls-6" points="104.15 46.08 104.19 62.39 98.05 65.93 98.01 49.62 104.15 46.08"/><polygon class="cls-7" points="110.27 34.42 110.34 58.85 104.2 62.39 104.13 37.96 110.27 34.42"/><line class="cls-8" x1="65.88" y1="14.09" x2="65.88" y2="116.87"/><polygon class="cls-9" points="48.53 54.06 59.13 56.77 48.58 71.66 48.56 65.07 40.61 69.65 40.59 63.51 48.55 58.93 48.53 54.06"/><polygon class="cls-9" points="83.18 34.07 83.2 41.06 91.15 36.48 91.17 42.22 83.22 46.81 83.23 51.68 72.63 48.97 83.18 34.07"/><rect class="cls-10" width="126" height="126"/></g></g></g></svg>