<svg xmlns="http://www.w3.org/2000/svg" viewBox="0 0 80.31 126"><defs><style>.cls-1{fill:#d5dae0;}.cls-1,.cls-16,.cls-4,.cls-5{stroke:#b8bfca;}.cls-1,.cls-10,.cls-13,.cls-14,.cls-15,.cls-16,.cls-2,.cls-3,.cls-4,.cls-5,.cls-6,.cls-7{stroke-linecap:round;stroke-linejoin:round;stroke-width:2px;}.cls-2{fill:#f2f4f6;}.cls-15,.cls-2{stroke:#627386;}.cls-13,.cls-14,.cls-15,.cls-16,.cls-3,.cls-5,.cls-6{fill:none;}.cls-3{stroke:#d5dae0;}.cls-4{fill:#fff;}.cls-10,.cls-14,.cls-6,.cls-7{stroke:#1b6dc6;}.cls-6{stroke-dasharray:0 6;}.cls-11,.cls-7{fill:#91d2fb;}.cls-8{fill:#bde4fd;}.cls-9{fill:#d3edfd;}.cls-10,.cls-12{fill:#e9f6fe;}.cls-13{stroke:#91d2fb;}.cls-16{stroke-dasharray:0 6.16;}</style></defs><title>no_target</title><g id="Layer_2" data-name="Layer 2"><g id="Illustrations"><g id="no_target"><polygon class="cls-1" points="79.31 102.39 40.15 125 40.15 111.95 79.31 89.34 79.31 102.39"/><polygon class="cls-2" points="1 102.39 40.15 125 40.15 111.95 1 89.34 1 102.39"/><polygon class="cls-3" points="10.5 107.88 30.65 119.51 30.65 113.48 10.5 101.85 10.5 107.88"/><line class="cls-3" x1="8.15" y1="99.33" x2="8.03" y2="99.26"/><polygon class="cls-4" points="79.31 89.34 40.15 66.74 1 89.34 40.15 111.95 79.31 89.34"/><polygon class="cls-5" points="1 102.39 40.15 125 40.15 111.95 1 89.34 1 102.39"/><line class="cls-6" x1="20.3" y1="1" x2="20.3" y2="35.32"/><line class="cls-6" x1="59.88" y1="1" x2="59.88" y2="35.32"/><polygon class="cls-7" points="36.54 9.58 40.14 11.33 43.47 7.97 43.47 1.37 40.14 5.11 36.54 3.36 36.54 9.58"/><path class="cls-8" d="M40.15,51.29A28,28,0,0,0,54,48c3.78-2.2,5.68-5.07,5.69-7.95v6c0,2.88-1.91,5.76-5.69,8a28.13,28.13,0,0,1-13.81,3.32"/><path class="cls-9" d="M40.21,57.31A28.32,28.32,0,0,1,26.36,54c-3.86-2.23-5.78-5.15-5.78-8.07l0-6c0,2.91,1.91,5.84,5.77,8.06a28.18,28.18,0,0,0,13.78,3.32"/><ellipse class="cls-10" cx="40.16" cy="39.96" rx="11.33" ry="19.56" transform="translate(0.08 80) rotate(-89.84)"/><ellipse class="cls-11" cx="40.16" cy="39.7" rx="8.42" ry="14.98" transform="translate(0.35 79.75) rotate(-89.85)"/><ellipse class="cls-12" cx="40.16" cy="39.7" rx="5.61" ry="9.98" transform="translate(0.35 79.75) rotate(-89.85)"/><ellipse class="cls-11" cx="40.16" cy="39.7" rx="2.81" ry="5" transform="translate(0.35 79.75) rotate(-89.85)"/><ellipse class="cls-12" cx="40.16" cy="39.96" rx="0.55" ry="0.95" transform="translate(0.08 80) rotate(-89.84)"/><line class="cls-10" x1="40.15" y1="39.86" x2="40.15" y2="5.11"/><path class="cls-13" d="M59.72,40c0,2.9-1.88,5.8-5.69,8-7.61,4.43-20,4.43-27.66,0-3.83-2.21-5.76-5.11-5.77-8"/><path class="cls-14" d="M20.6,40c0-2.9,1.87-5.8,5.68-8,7.61-4.42,20-4.42,27.66,0,3.83,2.21,5.76,5.11,5.78,8"/><path class="cls-14" d="M59.72,40v6c0,2.88-1.91,5.76-5.69,8-7.61,4.42-20,4.42-27.66,0-4.13-2.51-5.92-5.3-5.77-8.07v-6"/><polygon class="cls-15" points="40.15 66.74 1 89.34 1 102.39 40.15 125 79.31 102.39 79.31 89.34 40.15 66.74"/><ellipse class="cls-16" cx="40" cy="89.34" rx="19.56" ry="11.29"/></g></g></g></svg>