<svg xmlns="http://www.w3.org/2000/svg" viewBox="0 0 126 126"><defs><style>.cls-1,.cls-10,.cls-11,.cls-13,.cls-14,.cls-15,.cls-4,.cls-6{fill:none;}.cls-2{fill:#bde4fd;}.cls-3{fill:#d3edfd;}.cls-4,.cls-5{stroke:#91d2fb;}.cls-10,.cls-11,.cls-13,.cls-14,.cls-15,.cls-4,.cls-6{stroke-linecap:round;stroke-linejoin:round;}.cls-10,.cls-11,.cls-13,.cls-14,.cls-15,.cls-4,.cls-5,.cls-6{stroke-width:2px;}.cls-5,.cls-9{fill:#fff;}.cls-5{stroke-miterlimit:10;}.cls-13,.cls-14,.cls-6{stroke:#1b6dc6;}.cls-7{fill:#91d2fb;}.cls-8{fill:#f2f4f6;}.cls-10{stroke:#627386;}.cls-11{stroke:#d5dae0;}.cls-12{fill:#b8bfca;}.cls-13{stroke-dasharray:0 5.79;}.cls-14{stroke-dasharray:0 5.64;}.cls-15{stroke:#b8bfca;}</style></defs><title>nutanix_cloud_profile</title><g id="Layer_2" data-name="Layer 2"><g id="Illustrations"><g id="nutanix_cloud_profile"><rect class="cls-1" width="126" height="126"/><path class="cls-2" d="M78.52,23.24V16.55H67.65L56.28,10a2.71,2.71,0,0,0-2.45,0L42.47,16.55H31.59v6.69a.87.87,0,0,0,.51.71L53.83,36.5a2.71,2.71,0,0,0,2.45,0L78,24A.87.87,0,0,0,78.52,23.24Z"/><path class="cls-3" d="M55.05,9.7a2.45,2.45,0,0,0-1.22.29L42.47,16.55H31.59v6.69a.87.87,0,0,0,.51.71L53.83,36.5a2.56,2.56,0,0,0,1.22.29Z"/><path class="cls-4" d="M78.52,23.24V16.55H67.65L56.28,10a2.71,2.71,0,0,0-2.45,0L42.47,16.55H31.59v6.69a.87.87,0,0,0,.51.71L53.83,36.5a2.71,2.71,0,0,0,2.45,0L78,24A.87.87,0,0,0,78.52,23.24Z"/><path class="cls-5" d="M78,17.25,56.28,29.8a2.71,2.71,0,0,1-2.45,0L32.1,17.25a.74.74,0,0,1,0-1.41L53.83,3.29a2.71,2.71,0,0,1,2.45,0L78,15.84A.74.74,0,0,1,78,17.25Z"/><path class="cls-6" d="M78,15.84,56.28,3.29a2.71,2.71,0,0,0-2.45,0L32.1,15.84a.87.87,0,0,0-.51.71v6.69a.87.87,0,0,0,.51.71L53.83,36.5a2,2,0,0,0,.57.21,2.73,2.73,0,0,0,1.88-.21L78,24a.87.87,0,0,0,.51-.71V16.55A.87.87,0,0,0,78,15.84Z"/><path class="cls-7" d="M63.26,15.37h0a.62.62,0,0,0-.32-.07l-5.56.22a.55.55,0,0,0-.29.08.35.35,0,0,0-.19.28L56.78,17a.36.36,0,0,0,.18.3.56.56,0,0,0,.29.07h0L61,17.22a.65.65,0,0,0,.29-.07l2-1.18a.33.33,0,0,0,0-.6Z"/><path class="cls-7" d="M55.84,15.86a.65.65,0,0,0-.31-.07l-7.17.29a.5.5,0,0,0-.27.07l-2,1.17a.37.37,0,0,0-.18.31.35.35,0,0,0,.19.3.64.64,0,0,0,.31.07L53,17.74l-.42,3.74a.34.34,0,0,0,.18.32.65.65,0,0,0,.29.07.64.64,0,0,0,.28-.07l2-1.18a.35.35,0,0,0,.19-.27L56,16.19a.32.32,0,0,0-.18-.33Z"/><path class="cls-7" d="M56,11.1l-2,1.17a.34.34,0,0,0-.18.28l-.24,2.12a.33.33,0,0,0,.18.35.51.51,0,0,0,.28.07L55.89,15a.56.56,0,0,0,.29-.07.35.35,0,0,0,.19-.28l.36-3.19a.33.33,0,0,0-.18-.38A.56.56,0,0,0,56,11.1Z"/><path class="cls-8" d="M122.77,52.73l-16.35,1,.33,1.78c-7.19-1.18-15.2-.19-20.89,3L73.22,65.67c-13.18-6.54-32.53-6.76-45.9-.56l-13.15,1L14,81h0c0,4.74,2.7,9.51,8.24,13.41l-1.92,1.08-17-.16-.14,15h0c0,3.19,2,6.4,6.23,8.87,8.39,5,22.06,5.08,30.53.29l76.23-43c4.24-2.4,6.38-5.57,6.41-8.76h0Z"/><path class="cls-9" d="M86,43.56,73.37,50.7c-14.07-7-35.17-6.76-48.53.78s-14.19,19.72-2.42,28L9.78,86.61C1.3,91.4,1.22,99.29,9.61,104.24s22.05,5.07,30.53.29l76.23-43.05c8.47-4.79,8.55-12.68.16-17.63h0C108.15,38.91,94.48,38.78,86,43.56Z"/><path class="cls-10" d="M116.53,43.85h0c-8.38-4.94-22-5.07-30.52-.29L73.37,50.7c-14.07-7-35.17-6.76-48.53.78-7.06,4-10.62,9.27-10.67,14.59h0L14,81h0a12.08,12.08,0,0,0,.35,3l-4.6,2.6C5.54,89,3.4,92.17,3.37,95.36l-.14,15c0,3.19,2,6.4,6.23,8.87,8.39,5,22.06,5.08,30.53.29l76.23-43c4.24-2.4,6.38-5.57,6.41-8.76l.14-15C122.8,49.54,120.73,46.33,116.53,43.85Z"/><path class="cls-11" d="M17.45,75a24,24,0,0,0,5,4.58M9.61,104.24c8.38,4.94,22.05,5.07,30.53.29l76.23-43.05"/><path class="cls-12" d="M63.26,65.85h0a.54.54,0,0,0-.32-.07L57.38,66a.54.54,0,0,0-.29.07.35.35,0,0,0-.19.28l-.12,1.13a.33.33,0,0,0,.18.29.58.58,0,0,0,.29.08h0L61,67.7a.65.65,0,0,0,.29-.07l2-1.18a.33.33,0,0,0,0-.6Z"/><path class="cls-12" d="M55.84,66.33a.65.65,0,0,0-.31-.07l-7.17.29a.6.6,0,0,0-.27.07l-2,1.18a.36.36,0,0,0-.18.3.35.35,0,0,0,.19.3.55.55,0,0,0,.31.07L53,68.21,52.59,72a.33.33,0,0,0,.18.31.54.54,0,0,0,.29.07.53.53,0,0,0,.28-.07l2-1.17a.35.35,0,0,0,.19-.27L56,66.67a.34.34,0,0,0-.18-.34Z"/><path class="cls-12" d="M56,61.57l-2,1.18a.33.33,0,0,0-.18.27l-.24,2.13a.34.34,0,0,0,.18.35.61.61,0,0,0,.28.07l1.89-.07a.58.58,0,0,0,.29-.08.35.35,0,0,0,.19-.27l.36-3.2a.34.34,0,0,0-.18-.38A.61.61,0,0,0,56,61.57Z"/><line class="cls-6" x1="30.95" y1="62.95" x2="30.95" y2="62.95"/><line class="cls-13" x1="31.01" y1="57.16" x2="31.3" y2="31.08"/><line class="cls-6" x1="31.33" y1="28.19" x2="31.33" y2="28.19"/><line class="cls-6" x1="78.11" y1="62.45" x2="78.11" y2="62.45"/><line class="cls-14" x1="78.17" y1="56.81" x2="78.46" y2="31.45"/><line class="cls-6" x1="78.49" y1="28.64" x2="78.49" y2="28.64"/><path class="cls-15" d="M77.36,68.68,55.63,81.22a2.71,2.71,0,0,1-2.45,0L31.45,68.68c-.68-.4-.68-1,0-1.42L53.18,54.71a2.71,2.71,0,0,1,2.45,0L77.36,67.26C78,67.65,78,68.28,77.36,68.68Z"/></g></g></g></svg>