<svg xmlns="http://www.w3.org/2000/svg" viewBox="0 0 126 126"><defs><style>.cls-1,.cls-15,.cls-2,.cls-3,.cls-7,.cls-9{fill:none;}.cls-2,.cls-3{stroke:#1b6dc6;}.cls-11,.cls-12,.cls-13,.cls-15,.cls-2,.cls-3,.cls-4,.cls-5,.cls-6,.cls-7,.cls-9{stroke-linecap:round;stroke-linejoin:round;stroke-width:2px;}.cls-3{stroke-dasharray:0 5.71;}.cls-4,.cls-8{fill:#d5dae0;}.cls-4,.cls-5,.cls-6,.cls-7{stroke:#b8bfca;}.cls-5{fill:#f2f4f6;}.cls-13,.cls-6{fill:#fff;}.cls-9{stroke:#627386;}.cls-10{fill:#b8bfca;}.cls-11{fill:#bde4fd;}.cls-11,.cls-12,.cls-13,.cls-15{stroke:#91d2fb;}.cls-12{fill:#e9f6fe;}.cls-14{fill:#91d2fb;}</style></defs><title>user_vms</title><g id="Layer_2" data-name="Layer 2"><g id="Illustrations"><g id="user_vms"><rect class="cls-1" width="126" height="126"/><line class="cls-2" x1="14.96" y1="43.6" x2="14.96" y2="43.6"/><line class="cls-3" x1="14.96" y1="37.88" x2="14.96" y2="23.6"/><line class="cls-2" x1="14.96" y1="20.74" x2="14.96" y2="20.74"/><polygon class="cls-4" points="83.42 105.26 49.12 125 49.13 113.57 83.44 93.83 83.42 105.26"/><polygon class="cls-5" points="14.87 105.16 49.12 125 49.13 113.57 14.88 93.73 14.87 105.16"/><polygon class="cls-6" points="83.44 93.83 49.19 73.99 14.88 93.73 49.13 113.57 83.44 93.83"/><polygon class="cls-7" points="83.44 93.83 66.31 83.91 49.16 93.78 66.29 103.7 83.44 93.83"/><polygon class="cls-7" points="83.44 93.83 49.19 73.99 14.88 93.73 49.13 113.57 83.44 93.83"/><line class="cls-7" x1="66.29" y1="103.7" x2="66.29" y2="115.16"/><ellipse class="cls-7" cx="66.27" cy="93.83" rx="4.95" ry="2.86"/><ellipse class="cls-8" cx="49.18" cy="79.06" rx="1.65" ry="0.95"/><ellipse class="cls-8" cx="23.66" cy="93.75" rx="1.65" ry="0.95"/><ellipse class="cls-8" cx="49.14" cy="108.5" rx="1.65" ry="0.95"/><polygon class="cls-9" points="66.31 83.91 66.31 83.91 49.19 73.99 14.88 93.73 14.87 105.16 49.12 125 83.42 105.26 83.44 93.83 66.31 83.91"/><polygon class="cls-4" points="83.42 93.83 49.12 113.57 49.13 102.15 83.44 82.41 83.42 93.83"/><polygon class="cls-5" points="14.87 93.73 49.12 113.57 49.13 102.15 14.88 82.31 14.87 93.73"/><polygon class="cls-6" points="83.44 82.41 49.19 62.56 14.88 82.31 49.13 102.15 83.44 82.41"/><polygon class="cls-7" points="83.44 82.41 66.31 72.48 49.16 82.36 66.29 92.28 83.44 82.41"/><polygon class="cls-7" points="83.44 82.41 49.19 62.56 14.88 82.31 49.13 102.15 83.44 82.41"/><line class="cls-7" x1="66.29" y1="92.28" x2="66.29" y2="103.73"/><ellipse class="cls-7" cx="66.27" cy="82.4" rx="4.95" ry="2.86"/><ellipse class="cls-10" cx="49.18" cy="67.64" rx="1.65" ry="0.95"/><ellipse class="cls-10" cx="23.66" cy="82.32" rx="1.65" ry="0.95"/><ellipse class="cls-10" cx="49.14" cy="97.08" rx="1.65" ry="0.95"/><polygon class="cls-9" points="66.31 72.48 66.31 72.48 49.19 62.56 14.88 82.31 14.87 93.73 49.12 113.57 83.42 93.83 83.44 82.41 66.31 72.48"/><polygon class="cls-11" points="66.37 45.2 49.22 55.07 49.23 43.64 66.39 33.77 66.37 45.2"/><polygon class="cls-12" points="14.94 55.02 49.19 74.86 49.21 63.44 14.96 43.59 14.94 55.02"/><polygon class="cls-13" points="66.39 33.77 49.26 23.85 14.96 43.59 49.21 63.44 66.36 53.56 49.23 43.64 66.39 33.77"/><ellipse class="cls-14" cx="49.21" cy="54.56" rx="1.65" ry="0.95"/><polygon class="cls-11" points="66.34 64.99 49.19 74.86 49.21 63.44 66.36 53.56 66.34 64.99"/><ellipse class="cls-14" cx="49.25" cy="28.93" rx="1.65" ry="0.95"/><ellipse class="cls-14" cx="23.74" cy="43.61" rx="1.65" ry="0.95"/><line class="cls-2" x1="49.26" y1="23.85" x2="49.26" y2="23.85"/><line class="cls-3" x1="49.26" y1="18.14" x2="49.26" y2="3.86"/><line class="cls-2" x1="49.26" y1="1" x2="49.26" y2="1"/><polygon class="cls-11" points="111.12 55.12 93.96 64.99 93.98 53.56 111.13 43.69 111.12 55.12"/><polygon class="cls-13" points="111.13 43.69 94.01 33.77 76.86 43.64 93.98 53.56 111.13 43.69"/><polygon class="cls-12" points="76.84 55.12 94 64.99 93.98 53.56 76.83 43.69 76.84 55.12"/><ellipse class="cls-15" cx="93.96" cy="43.69" rx="4.95" ry="2.86"/><polygon class="cls-2" points="111.13 43.69 94.01 33.77 76.85 43.64 76.83 43.69 76.84 55.12 93.96 64.97 93.96 64.99 93.98 64.98 94 64.99 94 64.97 111.12 55.12 111.13 43.69"/><path class="cls-2" d="M66.39,33.77,49.26,23.85,15,43.6l0,11.42L49.19,74.86h0L66.34,65l0-11.43-7.24-4.19,7.25-4.17ZM49.23,43.64Z"/></g></g></g></svg>