<svg xmlns="http://www.w3.org/2000/svg" viewBox="0 0 126 126"><defs><style>.cls-1{isolation:isolate;}.cls-2{fill:#f2f4f6;}.cls-2,.cls-5{stroke:#627386;}.cls-12,.cls-2,.cls-4,.cls-5,.cls-6,.cls-7,.cls-8,.cls-9{stroke-linecap:round;stroke-linejoin:round;stroke-width:2px;}.cls-3{fill:#d5dae0;}.cls-12,.cls-13,.cls-4,.cls-5,.cls-7,.cls-8,.cls-9{fill:none;}.cls-4,.cls-6,.cls-7{stroke:#b8bfca;}.cls-10,.cls-6{fill:#fff;}.cls-7{mix-blend-mode:darken;}.cls-8,.cls-9{stroke:#1b6dc6;}.cls-9{stroke-dasharray:0 6.2;}.cls-11{fill:#e9f6fe;}.cls-12{stroke:#91d2fb;}</style></defs><title>users</title><g class="cls-1"><g id="Layer_2" data-name="Layer 2"><g id="Illustrations"><g id="users"><path class="cls-2" d="M116.53,61.67,78.83,39.91a2.84,2.84,0,0,0-2.6,0L14.07,75.79,1,76.83v9.73a.91.91,0,0,0,.54.75l45.63,26.35a2.9,2.9,0,0,0,2.6,0l74.69-43.13a.91.91,0,0,0,.54-.75V60.05Z"/><path class="cls-3" d="M78.83,39.91a2.84,2.84,0,0,0-2.6,0l-27.76,16v58a2.74,2.74,0,0,0,1.3-.31l74.69-43.13a.91.91,0,0,0,.54-.75V60.05l-8.47,1.62Z"/><line class="cls-4" x1="87.66" y1="82.05" x2="87.66" y2="91.61"/><line class="cls-4" x1="9.28" y1="82.05" x2="9.28" y2="91.78"/><path class="cls-5" d="M116.53,61.67,78.83,39.91a2.84,2.84,0,0,0-2.6,0L14.07,75.79,1,76.83v9.73a.91.91,0,0,0,.54.75l45.63,26.35a2.9,2.9,0,0,0,2.6,0l74.69-43.13a.91.91,0,0,0,.54-.75V60.05Z"/><path class="cls-6" d="M124.46,60.8,49.77,103.92a2.84,2.84,0,0,1-2.6,0L1.54,77.58a.79.79,0,0,1,0-1.5L76.23,33a2.84,2.84,0,0,1,2.6,0L124.46,59.3A.79.79,0,0,1,124.46,60.8Z"/><path class="cls-7" d="M76.23,33,1.54,76.08a.79.79,0,0,0,0,1.5l7.74,4.47L86.57,37.42,78.83,33A2.84,2.84,0,0,0,76.23,33Z"/><path class="cls-4" d="M82.23,77.41a.79.79,0,0,0,0,1.5l5.43,3.14,36.8-21.25a.79.79,0,0,0,0-1.5L119,56.16Z"/><polygon class="cls-7" points="106.69 56.78 76.05 74.47 55.96 62.87 86.6 45.19 106.69 56.78"/><line class="cls-8" x1="23.54" y1="82.11" x2="23.54" y2="82.11"/><line class="cls-9" x1="23.54" y1="75.9" x2="23.54" y2="29.38"/><line class="cls-8" x1="23.54" y1="26.27" x2="23.54" y2="26.27"/><line class="cls-8" x1="73.43" y1="82.11" x2="73.43" y2="82.11"/><line class="cls-9" x1="73.43" y1="75.9" x2="73.43" y2="29.38"/><line class="cls-8" x1="73.43" y1="26.27" x2="73.43" y2="26.27"/><path class="cls-10" d="M72.89,27.19,49.77,40.54a2.9,2.9,0,0,1-2.6,0L24.05,27.19a.79.79,0,0,1,0-1.5L47.17,12.34a2.9,2.9,0,0,1,2.6,0L72.89,25.69A.79.79,0,0,1,72.89,27.19Z"/><path class="cls-11" d="M48.18,39.89c0,.32,0,.63.06,1a2.85,2.85,0,0,0,1.53-.3L72.89,27.19a.83.83,0,0,0,.51-.88l-1.63,0C58.74,26.28,48.18,32.37,48.18,39.89Z"/><ellipse class="cls-11" cx="45.76" cy="24.88" rx="8.55" ry="4.94"/><path class="cls-12" d="M48.18,39.89c0,.32,0,.63.06,1a2.85,2.85,0,0,0,1.53-.3L72.89,27.19a.83.83,0,0,0,.51-.88l-1.63,0C58.74,26.28,48.18,32.37,48.18,39.89Z"/><ellipse class="cls-12" cx="45.76" cy="24.88" rx="8.55" ry="4.94"/><path class="cls-8" d="M72.89,27.19,49.77,40.54a2.9,2.9,0,0,1-2.6,0L24.05,27.19a.79.79,0,0,1,0-1.5L47.17,12.34a2.9,2.9,0,0,1,2.6,0L72.89,25.69A.79.79,0,0,1,72.89,27.19Z"/><path class="cls-4" d="M72.89,82.8,49.77,96.15a2.9,2.9,0,0,1-2.6,0L24.05,82.8a.79.79,0,0,1,0-1.5L47.17,68a2.9,2.9,0,0,1,2.6,0L72.89,81.3A.79.79,0,0,1,72.89,82.8Z"/><path class="cls-4" d="M48.18,95.5c0,.32,0,.63.06,1a2.85,2.85,0,0,0,1.53-.3L72.89,82.8a.84.84,0,0,0,.51-.88c-.54,0-1.08,0-1.63,0C58.74,81.88,48.18,88,48.18,95.5Z"/><ellipse class="cls-4" cx="45.76" cy="80.48" rx="8.55" ry="4.94"/><path class="cls-5" d="M124.46,59.3,78.83,33a2.84,2.84,0,0,0-2.6,0L1.54,76.08a.91.91,0,0,0-.54.75H1v9.73a.91.91,0,0,0,.54.75l45.63,26.35a2.74,2.74,0,0,0,1.3.31h0a2.74,2.74,0,0,0,1.3-.31l74.69-43.13a.91.91,0,0,0,.54-.75V60.05A.92.92,0,0,0,124.46,59.3Z"/><rect class="cls-13" width="126" height="126"/></g></g></g></g></svg>