<svg xmlns="http://www.w3.org/2000/svg" width="111.74" height="132.89" viewBox="0 0 111.74 132.89"><defs><style>.cls-1{fill:#1b6dc6;}.cls-2{fill:#f2f4f6;}.cls-3{fill:#627386;}.cls-4{fill:#fff;}.cls-5{fill:#d5dae0;}.cls-6{fill:#b8bfca;}</style></defs><title>builiding_e1</title><g id="Layer_2" data-name="Layer 2"><g id="Layer_1-2" data-name="Layer 1"><path class="cls-1" d="M55.87,69.53a1,1,0,0,1-.5-.13L10.51,43.5a1,1,0,0,1-.37-1.37,1,1,0,0,1,1.37-.36l44.86,25.9A1,1,0,0,1,56.74,69,1,1,0,0,1,55.87,69.53Z"/><polygon class="cls-2" points="1 32.68 55.87 64.36 110.74 32.68 55.87 1 1 32.68"/><path class="cls-3" d="M55.87,65.36a1.09,1.09,0,0,1-.5-.13L.5,33.55a1,1,0,0,1,0-1.74L55.37.13a1,1,0,0,1,1,0l54.87,31.68a1,1,0,0,1,0,1.74L56.37,65.23A1.09,1.09,0,0,1,55.87,65.36ZM3,32.68,55.87,63.2l52.87-30.52L55.87,2.15Z"/><polygon class="cls-4" points="102.98 37.16 65.1 59.03 17.99 31.83 55.87 9.96 102.98 37.16"/><path class="cls-3" d="M65.1,60a1,1,0,0,1-.5-.14L17.49,32.69a1,1,0,0,1-.5-.86,1,1,0,0,1,.5-.87L55.37,9.09a1,1,0,0,1,1,0l47.11,27.2a1,1,0,0,1,.5.87,1,1,0,0,1-.5.86L65.6,59.89A1,1,0,0,1,65.1,60ZM20,31.83l45.11,26L101,37.16l-45.11-26Z"/><polygon class="cls-5" points="55.87 1 55.87 9.96 8.76 37.16 1 32.68 55.87 1"/><path class="cls-3" d="M8.76,38.16a1,1,0,0,1-.5-.14L.5,33.55a1,1,0,0,1,0-1.74L55.37.13a1,1,0,0,1,1,0,1,1,0,0,1,.5.87v9a1,1,0,0,1-.5.86L9.26,38A1,1,0,0,1,8.76,38.16ZM3,32.68,8.76,36,54.87,9.38V2.73Z"/><polygon class="cls-2" points="1 14.76 55.87 46.44 65.1 41.11 10.23 9.43 1 14.76"/><path class="cls-3" d="M55.87,47.44a1,1,0,0,1-.5-.13L.5,15.63a1,1,0,0,1-.5-.87,1,1,0,0,1,.5-.86L9.73,8.57a1,1,0,0,1,1,0L65.6,40.24a1,1,0,0,1,0,1.74l-9.23,5.33A1,1,0,0,1,55.87,47.44ZM3,14.76,55.87,45.29l7.23-4.18L10.23,10.59Z"/><polygon class="cls-5" points="1 14.76 1 32.68 55.87 64.36 55.87 46.44 1 14.76"/><path class="cls-3" d="M55.87,65.36a1.09,1.09,0,0,1-.5-.13L.5,33.55a1,1,0,0,1-.5-.87V14.76a1,1,0,0,1,.5-.86,1,1,0,0,1,1,0L56.37,45.58a1,1,0,0,1,.5.86V64.36a1,1,0,0,1-.5.87A1.09,1.09,0,0,1,55.87,65.36ZM2,32.1,54.87,62.63V47L2,16.49Z"/><polygon class="cls-6" points="65.1 41.11 65.1 59.03 55.87 64.36 55.87 46.44 65.1 41.11"/><path class="cls-3" d="M55.87,65.36a1.09,1.09,0,0,1-.5-.13,1,1,0,0,1-.5-.87V46.44a1,1,0,0,1,.5-.86l9.23-5.34a1,1,0,0,1,1,0,1,1,0,0,1,.5.87V59a1,1,0,0,1-.5.86l-9.23,5.34A1.09,1.09,0,0,1,55.87,65.36Zm1-18.34V62.63l7.23-4.18V42.84Z"/><path class="cls-2" d="M1,32.68v67.53l9.85,5.69h0L45.24,86A36.6,36.6,0,0,1,46,93.39V126.2h0l9.85,5.69V64.36Z"/><path class="cls-3" d="M55.87,132.89a1,1,0,0,1-.5-.13l-9.85-5.69a1,1,0,0,1-.5-.87V93.39a35.26,35.26,0,0,0-.5-5.77L11.35,106.77a1,1,0,0,1-1,0L.5,101.08a1,1,0,0,1-.5-.87V32.68a1,1,0,0,1,.5-.87,1,1,0,0,1,1,0L56.37,63.49a1,1,0,0,1,.5.87v67.53a1,1,0,0,1-.5.87A1,1,0,0,1,55.87,132.89ZM47,125.63l7.85,4.53V64.94L2,34.41V99.63l8.85,5.12L44.74,85.18a1,1,0,0,1,.91-.05,1,1,0,0,1,.57.71,38,38,0,0,1,.8,7.55Z"/><path class="cls-6" d="M28.44,59.8c-9.72-5.61-17.59.34-17.59,13.29V105.9L45.24,86C43,75.19,36.34,64.36,28.44,59.8Z"/><path class="cls-3" d="M10.85,106.9a1.13,1.13,0,0,1-.5-.13,1,1,0,0,1-.5-.87V73.09c0-10,4.56-16.4,11.61-16.4a15,15,0,0,1,7.48,2.24c8,4.62,15,15.44,17.28,26.91a1,1,0,0,1-.48,1.07L11.35,106.77A1.09,1.09,0,0,1,10.85,106.9ZM21.46,58.69c-5.84,0-9.61,5.65-9.61,14.4v31.08L44.11,85.54C41.78,75,35.19,64.85,27.94,60.66A13.14,13.14,0,0,0,21.46,58.69Z"/><polygon class="cls-5" points="55.87 64.36 55.87 131.89 110.74 100.21 110.74 32.68 55.87 64.36"/><path class="cls-3" d="M55.87,132.89a1,1,0,0,1-.5-.13,1,1,0,0,1-.5-.87V64.36a1,1,0,0,1,.5-.87l54.87-31.68a1,1,0,0,1,1,0,1,1,0,0,1,.5.87v67.53a1,1,0,0,1-.5.87L56.37,132.76A1,1,0,0,1,55.87,132.89Zm1-67.95v65.22l52.87-30.53V34.41Z"/><polygon class="cls-6" points="72.67 75.33 72.67 101.52 93.94 89.24 93.94 63.05 72.67 75.33"/><path class="cls-3" d="M72.67,102.52a1,1,0,0,1-.5-.13,1,1,0,0,1-.5-.87V75.33a1,1,0,0,1,.5-.86L93.44,62.18a1,1,0,0,1,1,0,1,1,0,0,1,.5.87V89.24a1,1,0,0,1-.5.86L73.17,102.39A1,1,0,0,1,72.67,102.52Zm1-26.61V99.79L92.94,88.66V64.78Z"/><path class="cls-6" d="M55.87,65.36a1,1,0,0,1-.5-1.87l54.87-31.68a1,1,0,0,1,1,1.74L56.37,65.23A1,1,0,0,1,55.87,65.36Z"/><path class="cls-3" d="M55.87,132.89a1,1,0,0,1-.5-.13,1,1,0,0,1-.5-.87V64.36a1,1,0,0,1,.5-.87l54.87-31.68a1,1,0,0,1,1,0,1,1,0,0,1,.5.87v67.53a1,1,0,0,1-.5.87L56.37,132.76A1,1,0,0,1,55.87,132.89Zm1-67.95v65.22l52.87-30.53V34.41Z"/><path class="cls-4" d="M81.44,90.29a1,1,0,0,1-.46-.11,1,1,0,0,1-.43-1.35L84.64,81l-3.8-2.88a1,1,0,0,1-.2-1.4,1,1,0,0,1,1.4-.19l4.48,3.38a1,1,0,0,1,.28,1.26l-4.47,8.56A1,1,0,0,1,81.44,90.29Z"/><path class="cls-4" d="M37.39,45.73a1,1,0,0,1-.5-.13L19,35.25a1,1,0,0,1-.37-1.36A1,1,0,0,1,20,33.52L37.89,43.87a1,1,0,0,1,.37,1.36A1,1,0,0,1,37.39,45.73Z"/><polygon class="cls-2" points="55.87 1 55.87 9.96 102.98 37.16 110.74 32.68 55.87 1"/><path class="cls-3" d="M103,38.16a1,1,0,0,1-.5-.14L55.37,10.82a1,1,0,0,1-.5-.86V1a1,1,0,0,1,.5-.87,1,1,0,0,1,1,0l54.87,31.68a1,1,0,0,1,0,1.74L103.48,38A1,1,0,0,1,103,38.16ZM56.87,9.38,103,36l5.76-3.32L56.87,2.73Z"/></g></g></svg>