<svg xmlns="http://www.w3.org/2000/svg" width="111.74" height="184.31" viewBox="0 0 111.74 184.31"><defs><style>.cls-1{fill:#fff;}.cls-2{fill:#627386;}.cls-3{fill:#f2f4f6;}.cls-4{fill:#d5dae0;}</style></defs><title>building_b1</title><g id="Layer_2" data-name="Layer 2"><g id="Front"><polygon class="cls-1" points="1 114.34 55.87 146.02 110.74 114.34 55.87 82.67 1 114.34"/><path class="cls-2" d="M55.87,147a1,1,0,0,1-.5-.13L.5,115.21a1,1,0,0,1,0-1.73L55.37,81.8a1,1,0,0,1,1,0l54.87,31.68a1,1,0,0,1,0,1.73L56.37,146.89A1,1,0,0,1,55.87,147ZM3,114.35l52.87,30.52,52.87-30.52L55.87,83.82Z"/><polygon class="cls-3" points="55.87 146.02 55.87 183.31 1 151.63 1 114.34 55.87 146.02"/><path class="cls-2" d="M55.87,184.31a1,1,0,0,1-.5-.13L.5,152.5a1,1,0,0,1-.5-.87V114.35a1,1,0,0,1,.5-.87,1,1,0,0,1,1,0l54.87,31.68a1,1,0,0,1,.5.86v37.29a1,1,0,0,1-.5.87A1,1,0,0,1,55.87,184.31ZM2,151.06l52.87,30.52v-35L2,116.08Z"/><polygon class="cls-4" points="99.77 120.68 99.77 32.84 66.84 51.85 66.84 139.69 55.87 146.02 55.87 183.31 110.74 151.63 110.74 114.34 99.77 120.68"/><path class="cls-2" d="M55.87,184.31a1,1,0,0,1-.5-.13,1,1,0,0,1-.5-.87V146a1,1,0,0,1,.5-.86l10.47-6V51.85a1,1,0,0,1,.5-.86L99.27,32a1,1,0,0,1,1,0,1,1,0,0,1,.5.87V119l9.47-5.47a1,1,0,0,1,1,0,1,1,0,0,1,.5.87v37.28a1,1,0,0,1-.5.87L56.37,184.18A1,1,0,0,1,55.87,184.31Zm1-37.71v35l52.87-30.52v-35l-9.47,5.47a1,1,0,0,1-1,0,1,1,0,0,1-.5-.87V34.58L67.84,52.43v87.26a1,1,0,0,1-.5.87Z"/><polygon class="cls-1" points="11.69 20.01 66.84 51.85 99.77 32.84 44.61 1 11.69 20.01"/><path class="cls-2" d="M66.84,52.85a1,1,0,0,1-.5-.13L11.18,20.87a1,1,0,0,1,0-1.73L44.11.13a1,1,0,0,1,1,0L100.27,32a1,1,0,0,1,0,1.73l-32.93,19A1,1,0,0,1,66.84,52.85ZM13.68,20,66.84,50.7,97.77,32.85,44.61,2.15Z"/><path class="cls-4" d="M39.23,37a1,1,0,0,1-.5-1.87l33-19a1,1,0,0,1,1.36.36,1,1,0,0,1-.36,1.37l-33,19A.9.9,0,0,1,39.23,37Z"/><path class="cls-2" d="M66.84,52.85a1,1,0,0,1-.5-.13L11.18,20.87a1,1,0,0,1,0-1.73L44.11.13a1,1,0,0,1,1,0L100.27,32a1,1,0,0,1,0,1.73l-32.93,19A1,1,0,0,1,66.84,52.85ZM13.68,20,66.84,50.7,97.77,32.85,44.61,2.15Z"/><polygon class="cls-3" points="66.84 51.85 66.84 139.69 11.69 107.84 11.69 20.01 66.84 51.85"/><path class="cls-2" d="M66.84,140.69a1.13,1.13,0,0,1-.5-.13L11.18,108.71a1,1,0,0,1-.5-.87V20a1,1,0,0,1,.5-.87,1,1,0,0,1,1,0L67.34,51a1,1,0,0,1,.5.86v87.84a1,1,0,0,1-.5.87A1.06,1.06,0,0,1,66.84,140.69ZM12.68,107.27,65.84,138V52.43L12.68,21.74Z"/><path class="cls-2" d="M74.31,136.38a1,1,0,0,1-.86-.5,1,1,0,0,1,.36-1.37l18-10.38a1,1,0,0,1,1,1.73l-18,10.38A1,1,0,0,1,74.31,136.38Z"/><path class="cls-2" d="M63.52,160.86a1,1,0,0,1-.86-.5A1,1,0,0,1,63,159l39.57-22.84a1,1,0,0,1,1,1.73L64,160.73A1,1,0,0,1,63.52,160.86Z"/><path class="cls-2" d="M74.31,114.42a1,1,0,0,1-.86-.5,1,1,0,0,1,.36-1.37l18-10.38a1,1,0,0,1,1,1.73l-18,10.38A.9.9,0,0,1,74.31,114.42Z"/><path class="cls-2" d="M74.31,92.46a1,1,0,0,1-.86-.5,1,1,0,0,1,.36-1.37l18-10.38a1,1,0,0,1,1.36.37,1,1,0,0,1-.36,1.36l-18,10.39A1,1,0,0,1,74.31,92.46Z"/><path class="cls-2" d="M74.31,70.5a1,1,0,0,1-.5-1.86l18-10.39a1,1,0,0,1,1,1.74l-18,10.38A1,1,0,0,1,74.31,70.5Z"/><path class="cls-2" d="M57.21,116a1,1,0,0,1-.49-.13l-36-20.77a1,1,0,1,1,1-1.73l36,20.77a1,1,0,0,1-.51,1.86Z"/><path class="cls-2" d="M57.21,94.06a1,1,0,0,1-.49-.14l-36-20.76a1,1,0,1,1,1-1.74l36,20.77a1,1,0,0,1,.36,1.37A1,1,0,0,1,57.21,94.06Z"/><path class="cls-2" d="M57.21,72.1a1,1,0,0,1-.49-.14l-36-20.76a1,1,0,0,1-.37-1.37,1,1,0,0,1,1.37-.36l36,20.76a1,1,0,0,1,.36,1.37A1,1,0,0,1,57.21,72.1Z"/></g></g></svg>