<svg xmlns="http://www.w3.org/2000/svg" width="114.86" height="142.4" viewBox="0 0 114.86 142.4"><defs><style>.cls-1{fill:#fff;}.cls-2{fill:#627386;}.cls-3{fill:#d5dae0;}.cls-4{fill:#f2f4f6;}</style></defs><title>building_a1</title><g id="Layer_2" data-name="Layer 2"><g id="Front"><polygon class="cls-1" points="113.86 33.58 57.43 1 1 33.58 57.43 66.16 113.86 33.58"/><path class="cls-2" d="M57.43,67.16a1,1,0,0,1-.5-.14L.5,34.44a1,1,0,0,1-.5-.86,1,1,0,0,1,.5-.87L56.93.13a1,1,0,0,1,1,0l56.43,32.58a1,1,0,0,1,.5.87,1,1,0,0,1-.5.86L57.93,67A1,1,0,0,1,57.43,67.16ZM3,33.58,57.43,65l54.43-31.42L57.43,2.15Z"/><polygon class="cls-3" points="113.86 108.82 57.43 141.4 57.43 66.16 113.86 33.58 113.86 108.82"/><path class="cls-2" d="M57.43,142.4a1.09,1.09,0,0,1-.5-.13,1,1,0,0,1-.5-.87V66.16a1,1,0,0,1,.5-.87l56.43-32.58a1,1,0,0,1,1,0,1,1,0,0,1,.5.87v75.24a1,1,0,0,1-.5.87L57.93,142.27A1.09,1.09,0,0,1,57.43,142.4Zm1-75.66v72.93l54.43-31.43V35.31Z"/><polygon class="cls-4" points="1 108.82 57.43 141.4 57.43 66.16 1 33.58 1 108.82"/><path class="cls-2" d="M57.43,142.4a1.09,1.09,0,0,1-.5-.13L.5,109.69a1,1,0,0,1-.5-.87V33.58a1,1,0,0,1,.5-.87,1,1,0,0,1,1,0L57.93,65.29a1,1,0,0,1,.5.87V141.4a1,1,0,0,1-.5.87A1.09,1.09,0,0,1,57.43,142.4ZM2,108.24l54.43,31.43V66.74L2,35.31Z"/><polygon class="cls-4" points="84.54 33.58 71.21 25.88 71.21 25.88 57.88 18.19 44.55 25.88 44.55 25.88 31.22 33.58 44.55 41.27 44.55 41.27 57.88 48.97 71.21 41.27 71.21 41.27 84.54 33.58"/><path class="cls-2" d="M57.88,50a1,1,0,0,1-.5-.13L30.72,34.44a1,1,0,0,1-.5-.86,1,1,0,0,1,.5-.87L57.38,17.32a1,1,0,0,1,1,0L85,32.71a1,1,0,0,1,.5.87,1,1,0,0,1-.5.86L58.38,49.84A1,1,0,0,1,57.88,50ZM33.22,33.58,57.88,47.82,82.54,33.58,57.88,19.34Z"/><path class="cls-2" d="M113.86,34.58H84.54a1,1,0,0,1,0-2h29.32a1,1,0,0,1,0,2Z"/><path class="cls-2" d="M31.22,34.58H1.9a1,1,0,1,1,0-2H31.22a1,1,0,0,1,0,2Z"/><path class="cls-2" d="M57.88,19.19a1,1,0,0,1-1-1V1.26a1,1,0,1,1,2,0V18.19A1,1,0,0,1,57.88,19.19Z"/><path class="cls-2" d="M57.88,67.16a1,1,0,0,1-1-1V49a1,1,0,0,1,2,0V66.16A1,1,0,0,1,57.88,67.16Z"/><path class="cls-2" d="M67.66,111.47a1,1,0,0,1-.5-1.87l36-20.77a1,1,0,1,1,1,1.74l-36,20.76A1,1,0,0,1,67.66,111.47Z"/><path class="cls-2" d="M67.66,86.44a1,1,0,0,1-.5-1.87l36-20.76a1,1,0,0,1,1.37.36,1,1,0,0,1-.37,1.37l-36,20.76A.93.93,0,0,1,67.66,86.44Z"/><path class="cls-2" d="M47.2,111.47a1,1,0,0,1-.5-.14l-36-20.76a1,1,0,0,1,1-1.74l36,20.77a1,1,0,0,1-.5,1.87Z"/><path class="cls-2" d="M47.2,86.44a.93.93,0,0,1-.5-.14l-36-20.76a1,1,0,0,1-.36-1.37,1,1,0,0,1,1.36-.36l36,20.76a1,1,0,0,1-.5,1.87Z"/></g></g></svg>