<svg xmlns="http://www.w3.org/2000/svg" width="111.74" height="150.81" viewBox="0 0 111.74 150.81"><defs><style>.cls-1{fill:#1b6dc6;}.cls-2{fill:#f2f4f6;}.cls-3{fill:#627386;}.cls-4{fill:#fff;}.cls-5{fill:#d5dae0;}.cls-6{fill:#b8bfca;}</style></defs><title>building_e2</title><g id="Layer_2" data-name="Layer 2"><g id="Front"><path class="cls-1" d="M55.87,87.45a.93.93,0,0,1-.5-.14L10.51,61.42a1,1,0,0,1,1-1.74l44.86,25.9a1,1,0,0,1-.5,1.87Z"/><polygon class="cls-2" points="1 50.6 55.87 82.28 110.74 50.6 55.87 18.92 1 50.6"/><path class="cls-3" d="M55.87,83.27a1,1,0,0,1-.5-.13L.5,51.46a1,1,0,0,1,0-1.73L55.37,18.05a1,1,0,0,1,1,0l54.87,31.68a1,1,0,0,1,0,1.73L56.37,83.14A1,1,0,0,1,55.87,83.27ZM3,50.6,55.87,81.12,108.74,50.6,55.87,20.07Z"/><polygon class="cls-4" points="102.98 55.08 55.87 82.28 8.76 55.08 55.87 27.88 102.98 55.08"/><path class="cls-3" d="M55.87,83.27a1,1,0,0,1-.5-.13L8.26,55.94a1,1,0,0,1,0-1.73L55.37,27a1,1,0,0,1,1,0l47.11,27.2a1,1,0,0,1,0,1.73L56.37,83.14A1,1,0,0,1,55.87,83.27ZM10.76,55.07,55.87,81.12,101,55.07,55.87,29Z"/><polygon class="cls-5" points="46.64 24.25 46.64 33.21 8.76 55.08 1 50.6 46.64 24.25"/><path class="cls-3" d="M8.76,56.07a1,1,0,0,1-.5-.13L.5,51.46a1,1,0,0,1,0-1.73L46.14,23.38a1,1,0,0,1,1,0,1,1,0,0,1,.5.87v9a1,1,0,0,1-.5.86L9.26,55.94A1,1,0,0,1,8.76,56.07ZM3,50.6l5.76,3.32L45.64,32.63V26Z"/><polygon class="cls-2" points="1 50.6 1 118.13 10.85 123.82 10.85 123.82 46.02 144.12 46.02 144.12 55.87 149.81 55.87 82.28 1 50.6"/><path class="cls-3" d="M55.87,150.81a1,1,0,0,1-.5-.14L.5,119a1,1,0,0,1-.5-.86V50.6a1,1,0,0,1,.5-.87,1,1,0,0,1,1,0L56.37,81.41a1,1,0,0,1,.5.86v67.54a1,1,0,0,1-.5.86A1,1,0,0,1,55.87,150.81ZM2,117.55l52.87,30.53V82.85L2,52.33Z"/><polygon class="cls-5" points="55.87 82.28 55.87 149.81 110.74 118.13 110.74 50.6 55.87 82.28"/><path class="cls-3" d="M55.87,150.81a1,1,0,0,1-.5-.14,1,1,0,0,1-.5-.86V82.27a1,1,0,0,1,.5-.86l54.87-31.68a1,1,0,0,1,1,0,1,1,0,0,1,.5.87v67.53a1,1,0,0,1-.5.86L56.37,150.67A1,1,0,0,1,55.87,150.81Zm1-68v65.23l52.87-30.53V52.33Z"/><polygon class="cls-6" points="72.67 93.25 72.67 119.44 93.94 107.15 93.94 80.97 72.67 93.25"/><path class="cls-3" d="M72.67,120.44a1,1,0,0,1-.5-.14,1,1,0,0,1-.5-.86V93.25a1,1,0,0,1,.5-.87L93.44,80.1a1,1,0,0,1,1,0,1,1,0,0,1,.5.87v26.18a1,1,0,0,1-.5.87L73.17,120.3A1,1,0,0,1,72.67,120.44Zm1-26.61V117.7l19.27-11.12V82.7Z"/><path class="cls-6" d="M55.87,83.27a1,1,0,0,1-.5-1.86l54.87-31.68a1,1,0,1,1,1,1.73L56.37,83.14A1,1,0,0,1,55.87,83.27Z"/><path class="cls-3" d="M55.87,150.81a1,1,0,0,1-.5-.14,1,1,0,0,1-.5-.86V82.27a1,1,0,0,1,.5-.86l54.87-31.68a1,1,0,0,1,1,0,1,1,0,0,1,.5.87v67.53a1,1,0,0,1-.5.86L56.37,150.67A1,1,0,0,1,55.87,150.81Zm1-68v65.23l52.87-30.53V52.33Z"/><path class="cls-4" d="M81.44,108.21a.93.93,0,0,1-.46-.12,1,1,0,0,1-.43-1.35l4.09-7.8-3.8-2.88a1,1,0,0,1,1.2-1.6l4.48,3.39a1,1,0,0,1,.28,1.26l-4.47,8.56A1,1,0,0,1,81.44,108.21Z"/><polygon class="cls-2" points="46.64 6.33 101.51 38.01 110.74 32.68 55.87 1 46.64 6.33"/><path class="cls-3" d="M101.51,39a1,1,0,0,1-.5-.13L46.14,7.2a1,1,0,0,1,0-1.74L55.37.13a1,1,0,0,1,1,0l54.87,31.68a1,1,0,0,1,0,1.74L102,38.88A1,1,0,0,1,101.51,39ZM48.64,6.33l52.87,30.53,7.23-4.18L55.87,2.15Z"/><polygon class="cls-5" points="101.51 55.93 101.51 38.01 46.64 6.33 46.64 33.21 93.75 60.41 101.51 55.93"/><path class="cls-3" d="M93.75,61.41a1,1,0,0,1-.5-.14L46.14,34.07a1,1,0,0,1-.5-.86V6.33a1,1,0,0,1,.5-.87,1,1,0,0,1,1,0L102,37.14a1,1,0,0,1,.5.87V55.93a1,1,0,0,1-.5.86l-7.76,4.48A1,1,0,0,1,93.75,61.41ZM47.64,32.63,93.75,59.25l6.76-3.9V38.59L47.64,8.06Z"/><polygon class="cls-6" points="110.74 32.68 110.74 50.6 101.51 55.93 101.51 38.01 110.74 32.68"/><path class="cls-3" d="M101.51,56.93a1,1,0,0,1-.5-.14,1,1,0,0,1-.5-.86V38a1,1,0,0,1,.5-.87l9.23-5.33a1,1,0,0,1,1,0,1,1,0,0,1,.5.87V50.6a1,1,0,0,1-.5.86L102,56.79A1,1,0,0,1,101.51,56.93Zm1-18.34v15.6L109.74,50V34.41Z"/><path class="cls-4" d="M37.39,63.65a1,1,0,0,1-.5-.13L19,53.17a1,1,0,0,1-.37-1.36A1,1,0,0,1,20,51.44L37.89,61.78a1,1,0,0,1-.5,1.87Z"/></g></g></svg>