<svg xmlns="http://www.w3.org/2000/svg" width="111.74" height="176.49" viewBox="0 0 111.74 176.49"><defs><style>.cls-1{fill:#fff;}.cls-2{fill:#627386;}.cls-3{fill:#f2f4f6;}.cls-4{fill:#d5dae0;}.cls-5{fill:#b8bfca;}</style></defs><title>building_d3</title><g id="Layer_2" data-name="Layer 2"><g id="Layer_1-2" data-name="Layer 1"><polygon class="cls-1" points="1 45.38 55.87 77.06 110.74 45.38 55.87 13.7 1 45.38"/><path class="cls-2" d="M55.87,78.06a1,1,0,0,1-.5-.14L.5,46.24a1,1,0,0,1-.5-.86,1,1,0,0,1,.5-.87L55.37,12.83a1,1,0,0,1,1,0l54.87,31.68a1,1,0,0,1,.5.87,1,1,0,0,1-.5.86L56.37,77.92A1,1,0,0,1,55.87,78.06ZM3,45.38,55.87,75.9l52.87-30.52L55.87,14.85Z"/><polygon class="cls-3" points="55.87 77.06 55.87 175.49 1 143.81 1 45.38 55.87 77.06"/><path class="cls-2" d="M55.87,176.49a1.09,1.09,0,0,1-.5-.13L.5,144.68a1,1,0,0,1-.5-.87V45.38a1,1,0,0,1,.5-.87,1,1,0,0,1,1,0L56.37,76.19a1,1,0,0,1,.5.87v98.43a1,1,0,0,1-.5.87A1.09,1.09,0,0,1,55.87,176.49ZM2,143.23l52.87,30.53V77.63L2,47.11Z"/><polygon class="cls-4" points="55.87 77.06 55.87 175.49 110.74 143.81 110.74 45.38 55.87 77.06"/><path class="cls-2" d="M55.87,176.49a1.09,1.09,0,0,1-.5-.13,1,1,0,0,1-.5-.87V77.06a1,1,0,0,1,.5-.87l54.87-31.68a1,1,0,0,1,1,0,1,1,0,0,1,.5.87v98.43a1,1,0,0,1-.5.87L56.37,176.36A1.09,1.09,0,0,1,55.87,176.49Zm1-98.86v96.13l52.87-30.53V47.11Z"/><path class="cls-4" d="M55.87,68.36a1,1,0,0,1-.5-.13l-38.07-22a1,1,0,0,1-.5-.86,1,1,0,0,1,.5-.87l38.07-22a1,1,0,0,1,1,0l38.07,22a1,1,0,0,1,.5.87,1,1,0,0,1-.5.86l-38.07,22A1,1,0,0,1,55.87,68.36Zm-36.07-23L55.87,66.2,91.94,45.38,55.87,24.55Z"/><polygon class="cls-3" points="17.8 22.98 55.87 44.96 93.94 22.98 55.87 1 17.8 22.98"/><path class="cls-2" d="M55.87,46a1,1,0,0,1-.5-.13l-38.07-22a1,1,0,0,1-.5-.87,1,1,0,0,1,.5-.86L55.37.13a1,1,0,0,1,1,0l38.07,22a1,1,0,0,1,.5.86,1,1,0,0,1-.5.87l-38.07,22A1,1,0,0,1,55.87,46ZM19.8,23,55.87,43.81,91.94,23,55.87,2.16Z"/><polygon class="cls-3" points="39.38 22.98 55.87 32.5 72.36 22.98 55.87 13.46 39.38 22.98"/><path class="cls-2" d="M55.87,33.5a1,1,0,0,1-.5-.13L38.88,23.85a1,1,0,0,1-.5-.87,1,1,0,0,1,.5-.86l16.49-9.53a1,1,0,0,1,1,0l16.49,9.53a1,1,0,0,1,.5.86,1,1,0,0,1-.5.87L56.37,33.37A1,1,0,0,1,55.87,33.5ZM41.38,23l14.49,8.37L70.36,23,55.87,14.62Z"/><polygon class="cls-4" points="17.8 22.98 17.8 45.38 55.87 67.36 55.87 44.96 17.8 22.98"/><path class="cls-2" d="M55.87,68.36a1,1,0,0,1-.5-.13l-38.07-22a1,1,0,0,1-.5-.86V23a1,1,0,0,1,.5-.86,1,1,0,0,1,1,0l38.07,22a1,1,0,0,1,.5.86v22.4a1,1,0,0,1-.5.87A1,1,0,0,1,55.87,68.36ZM18.8,44.8,54.87,65.63V45.54L18.8,24.71Z"/><polygon class="cls-5" points="93.94 22.98 93.94 45.38 55.87 67.36 55.87 44.96 93.94 22.98"/><path class="cls-2" d="M55.87,68.36a1,1,0,0,1-.5-.13,1,1,0,0,1-.5-.87V45a1,1,0,0,1,.5-.86l38.07-22a1,1,0,0,1,1,0,1,1,0,0,1,.5.86v22.4a1,1,0,0,1-.5.86l-38.07,22A1,1,0,0,1,55.87,68.36Zm1-22.82V65.63L92.94,44.8V24.71Z"/><path class="cls-2" d="M55.87,57.16a1,1,0,0,1-.5-.13l-38.07-22a1,1,0,1,1,1-1.74l38.07,22a1,1,0,0,1,.37,1.36A1,1,0,0,1,55.87,57.16Z"/><path class="cls-2" d="M55.87,57.16a1,1,0,0,1-.87-.5,1,1,0,0,1,.37-1.36l38.07-22a1,1,0,0,1,1,1.74L56.37,57A1,1,0,0,1,55.87,57.16Z"/><path class="cls-2" d="M83.31,160.65a1,1,0,0,1-1-1V61.22a1,1,0,0,1,2,0v98.43A1,1,0,0,1,83.31,160.65Z"/><path class="cls-2" d="M28.44,160.65a1,1,0,0,1-1-1V61.22a1,1,0,0,1,2,0v98.43A1,1,0,0,1,28.44,160.65Z"/></g></g></svg>