<svg xmlns="http://www.w3.org/2000/svg" width="111.8" height="151.76" viewBox="0 0 111.8 151.76"><defs><style>.cls-1{fill:#f2f4f6;}.cls-2{fill:#627386;}.cls-3{fill:#fff;}.cls-4{fill:#d5dae0;}.cls-5{fill:#b8bfca;}</style></defs><title>bulding_c1</title><g id="Layer_2" data-name="Layer 2"><g id="Layer_1-2" data-name="Layer 1"><path class="cls-1" d="M55.92,1,30.24,15.83l-15.55,9C7.13,29.17,1,40.88,1,51l.05,19v49.12l54.87,31.68L110.79,32.68Z"/><path class="cls-2" d="M55.92,151.76a1,1,0,0,1-.5-.13L.55,120a1,1,0,0,1-.5-.87V70L0,51c0-10.38,6.36-22.5,14.18-27L55.42.13a1,1,0,0,1,1,0l54.87,31.68a1,1,0,0,1,.41,1.29L56.83,151.18a1,1,0,0,1-.6.54A1.06,1.06,0,0,1,55.92,151.76ZM2.05,118.51l53.43,30.84,54-116.26L55.92,2.15,15.18,25.68C7.92,29.87,2,41.21,2,51l0,19Z"/><path class="cls-3" d="M86.65,83l24.14-50.33L55.92,1,30.24,15.83l-15.55,9C10.88,27,7.44,31.07,5,35.85Z"/><path class="cls-2" d="M55.92,151.76a1,1,0,0,1-.5-.13L.55,120a1,1,0,0,1-.5-.87V70L0,51c0-10.38,6.36-22.5,14.18-27L55.42.13a1,1,0,0,1,1,0l54.87,31.68a1,1,0,0,1,.41,1.29L56.83,151.18a1,1,0,0,1-.6.54A1.06,1.06,0,0,1,55.92,151.76ZM2.05,118.51l53.43,30.84,54-116.26L55.92,2.15,15.18,25.68C7.92,29.87,2,41.21,2,51l0,19Z"/><path class="cls-4" d="M69.56,56.49C62,60.85,55.87,72.56,55.87,82.64l.05,19v49.12l54.87-31.68V32.68L85.11,47.51Z"/><path class="cls-2" d="M55.92,151.76a1,1,0,0,1-.5-.13,1,1,0,0,1-.5-.87V101.64l-.05-19c0-10.38,6.36-22.5,14.19-27l41.23-23.81a1,1,0,0,1,1,0,1,1,0,0,1,.5.87v86.4a1,1,0,0,1-.5.87L56.42,151.63A1,1,0,0,1,55.92,151.76ZM109.79,34.41,70.06,57.35c-7.27,4.2-13.19,15.54-13.19,25.29l.05,19V149l52.87-30.52Z"/><line class="cls-4" x1="68.23" y1="118.1" x2="97.85" y2="101"/><path class="cls-2" d="M68.23,119.1a1,1,0,0,1-.5-1.87l29.62-17.09a1,1,0,0,1,1.36.36,1,1,0,0,1-.36,1.37L68.73,119A1,1,0,0,1,68.23,119.1Z"/><ellipse class="cls-5" cx="72.75" cy="78.16" rx="14.64" ry="8.28" transform="translate(-27.65 114.49) rotate(-66.95)"/><path class="cls-2" d="M69,93c-4.1,0-6.75-3.67-6.75-9.35,0-7.33,4.5-15.89,10-19.08a8.59,8.59,0,0,1,4.28-1.28c4.1,0,6.75,3.67,6.75,9.35,0,7.33-4.5,15.89-10,19.08A8.59,8.59,0,0,1,69,93ZM76.53,65.3a6.63,6.63,0,0,0-3.28,1c-5,2.88-9,10.66-9,17.35C64.21,88.13,66.08,91,69,91a6.67,6.67,0,0,0,3.29-1c5-2.88,9-10.66,9-17.35C81.28,68.19,79.42,65.3,76.53,65.3Z"/><path class="cls-2" d="M43.24,119a1,1,0,0,1-.5-.14l-29.61-17.1a1,1,0,0,1-.37-1.36,1,1,0,0,1,1.37-.37l29.61,17.1a1,1,0,0,1-.5,1.87Z"/><path class="cls-2" d="M43.24,94.88a1,1,0,0,1-.5-.13L13.13,77.65a1,1,0,0,1-.37-1.36,1,1,0,0,1,1.37-.37L43.74,93a1,1,0,0,1-.5,1.86Z"/><polygon class="cls-1" points="92.22 32.6 66.63 47.37 30.52 26.52 56.1 11.75 92.22 32.6"/><path class="cls-2" d="M66.63,48.37a1,1,0,0,1-.5-.13L30,27.39a1,1,0,0,1-.5-.87,1,1,0,0,1,.5-.86L55.6,10.88a1,1,0,0,1,1,0L92.72,31.73a1,1,0,0,1,0,1.74L67.13,48.24A1,1,0,0,1,66.63,48.37ZM32.52,26.52l34.11,19.7L90.22,32.6,56.1,12.9Z"/><polygon class="cls-3" points="38.53 31.15 66.63 47.37 84.2 37.23 56.1 21 38.53 31.15"/><path class="cls-2" d="M66.63,48.37a1,1,0,0,1-.5-.13L38,32a1,1,0,0,1,0-1.74L55.6,20.14a1,1,0,0,1,1,0L84.7,36.36a1,1,0,0,1,0,1.73L67.13,48.24A1,1,0,0,1,66.63,48.37ZM40.53,31.15l26.1,15.07,15.57-9L56.1,22.16Z"/><polygon class="cls-4" points="56.1 11.75 56.1 21 38.53 31.15 30.52 26.52 56.1 11.75"/><path class="cls-2" d="M38.53,32.15A1.13,1.13,0,0,1,38,32l-8-4.63a1,1,0,0,1-.5-.87,1,1,0,0,1,.5-.86L55.6,10.88a1,1,0,0,1,1,0,1,1,0,0,1,.5.87V21a1,1,0,0,1-.5.87L39,32A1.09,1.09,0,0,1,38.53,32.15Zm-6-5.63,6,3.48L55.1,20.43V13.48Z"/></g></g></svg>