<svg xmlns="http://www.w3.org/2000/svg" width="130.55" height="131.45" viewBox="0 0 130.55 131.45"><defs><style>.cls-1{fill:#fff;}.cls-2{fill:#627386;}.cls-3{fill:#f2f4f6;}.cls-4{fill:#d5dae0;}.cls-5{fill:#b8bfca;}</style></defs><title>bulding_a2</title><g id="Layer_2" data-name="Layer 2"><g id="Front"><polygon class="cls-1" points="10.41 45.3 65.28 76.98 120.15 45.3 65.28 13.62 10.41 45.3"/><path class="cls-2" d="M65.28,78a1,1,0,0,1-.5-.13L9.91,46.17a1,1,0,0,1-.5-.87,1,1,0,0,1,.5-.86L64.78,12.76a1,1,0,0,1,1,0l54.87,31.68a1,1,0,0,1,.5.86,1,1,0,0,1-.5.87L65.78,77.85A1,1,0,0,1,65.28,78ZM12.41,45.3,65.28,75.83,118.15,45.3,65.28,14.78Z"/><polygon class="cls-3" points="65.28 76.98 65.28 130.46 10.41 98.78 10.41 45.3 65.28 76.98"/><path class="cls-2" d="M65.28,131.45a1,1,0,0,1-.5-.13L9.91,99.64a1,1,0,0,1-.5-.86V45.3a1,1,0,0,1,.5-.86,1,1,0,0,1,1,0L65.78,76.12a1,1,0,0,1,.5.86v53.47a1,1,0,0,1-1,1ZM11.41,98.2l52.87,30.52V77.56L11.41,47Z"/><polygon class="cls-4" points="65.28 76.98 65.28 130.46 120.15 98.78 120.15 45.3 65.28 76.98"/><path class="cls-2" d="M65.28,131.45a1,1,0,0,1-.5-.13,1,1,0,0,1-.5-.87V77a1,1,0,0,1,.5-.86l54.87-31.68a1,1,0,0,1,1,0,1,1,0,0,1,.5.86V98.78a1,1,0,0,1-.5.86L65.78,131.32A1,1,0,0,1,65.28,131.45Zm1-53.89v51.16L119.15,98.2V47Z"/><path class="cls-2" d="M92.71,115.61a1,1,0,0,1-1-1V61.14a1,1,0,0,1,2,0v53.47A1,1,0,0,1,92.71,115.61Z"/><path class="cls-2" d="M37.84,115.61a1,1,0,0,1-1-1V61.14a1,1,0,0,1,2,0v53.47A1,1,0,0,1,37.84,115.61Z"/><polygon class="cls-1" points="1 45.3 65.28 82.41 129.55 45.3 65.28 8.19 1 45.3"/><path class="cls-2" d="M65.28,83.41a1,1,0,0,1-.5-.13L.5,46.17A1,1,0,0,1,0,45.3a1,1,0,0,1,.5-.86L64.78,7.33a1,1,0,0,1,1,0l64.27,37.11a1,1,0,0,1,.5.86,1,1,0,0,1-.5.87L65.78,83.28A1,1,0,0,1,65.28,83.41ZM3,45.3l62.28,36,62.27-36L65.28,9.35Z"/><polygon class="cls-3" points="1 38.11 65.28 75.22 129.55 38.11 65.28 1 1 38.11"/><path class="cls-2" d="M65.28,76.22a1.06,1.06,0,0,1-.5-.13L.5,39a1,1,0,0,1,0-1.74L64.78.13a1,1,0,0,1,1,0l64.27,37.11a1,1,0,0,1,0,1.74L65.78,76.09A1.13,1.13,0,0,1,65.28,76.22ZM3,38.11l62.28,36,62.27-35.95-62.27-36Z"/><polygon class="cls-5" points="129.55 38.11 129.55 45.3 65.28 82.41 65.28 75.22 129.55 38.11"/><path class="cls-2" d="M65.28,83.41a1,1,0,0,1-.5-.13,1,1,0,0,1-.5-.87V75.22a1,1,0,0,1,.5-.87l64.27-37.11a1,1,0,0,1,1,0,1,1,0,0,1,.5.87V45.3a1,1,0,0,1-.5.87L65.78,83.28A1,1,0,0,1,65.28,83.41Zm1-7.61v4.88l62.27-36V39.84Z"/><polygon class="cls-4" points="1 38.11 1 45.3 65.28 82.41 65.28 75.22 1 38.11"/><path class="cls-2" d="M65.28,83.41a1,1,0,0,1-.5-.13L.5,46.17A1,1,0,0,1,0,45.3V38.11a1,1,0,0,1,.5-.87,1,1,0,0,1,1,0L65.78,74.35a1,1,0,0,1,.5.87v7.19a1,1,0,0,1-1,1ZM2,44.73l62.28,36V75.8L2,39.84Z"/><path class="cls-2" d="M65.28,43.35a1,1,0,0,1-1-1V33.87a1,1,0,0,1,2,0v8.48A1,1,0,0,1,65.28,43.35Z"/><path class="cls-2" d="M72.61,39.11H57.94a1,1,0,0,1,0-2H72.61a1,1,0,0,1,0,2Z"/></g></g></svg>