<svg xmlns="http://www.w3.org/2000/svg" width="74.77" height="99.2" viewBox="0 0 74.77 99.2"><defs><style>.cls-1,.cls-4{fill:none;}.cls-1,.cls-2{stroke:#627386;}.cls-1,.cls-2,.cls-4{stroke-linecap:round;stroke-linejoin:round;stroke-width:2px;}.cls-2{fill:#d5dae0;}.cls-3{fill:#f2f4f6;}.cls-4{stroke:#b8bfca;}.cls-5{fill:#fff;}</style></defs><title>carpet_02</title><g id="Layer_2" data-name="Layer 2"><g id="Layer_1-2" data-name="Layer 1"><path class="cls-1" d="M61.66,19.73c-14.58,22.39-38.22,36-52.8,30.49"/><path class="cls-2" d="M4.46,47.57V95.71c0,1.38,1.94,2.49,4.33,2.49s4.32-1.11,4.32-2.49V47.57Z"/><circle class="cls-3" cx="8.79" cy="41.81" r="7.79"/><path class="cls-4" d="M12.68,35.07a7.89,7.89,0,0,1,2.85,2.85,7.61,7.61,0,0,1,.78,1.88,7.8,7.8,0,0,1,.26,2,7.93,7.93,0,0,1-.26,2,7.7,7.7,0,0,1-.78,1.87,7.83,7.83,0,0,1-1.24,1.62,7.72,7.72,0,0,1-1.61,1.23,7.61,7.61,0,0,1-1.88.78,7.65,7.65,0,0,1-4,0,7.61,7.61,0,0,1-1.88-.78,7.72,7.72,0,0,1-1.61-1.23A7.83,7.83,0,0,1,2,45.7a7.7,7.7,0,0,1-.78-1.87,7.93,7.93,0,0,1-.26-2,7.8,7.8,0,0,1,.26-2A7.61,7.61,0,0,1,2,37.92a7.89,7.89,0,0,1,2.85-2.85"/><path class="cls-1" d="M4.46,48.3V95.71c0,1.38,1.94,2.49,4.33,2.49s4.32-1.11,4.32-2.49V48.3"/><path class="cls-1" d="M4.89,48.55a7.72,7.72,0,0,1-1.61-1.23A7.83,7.83,0,0,1,2,45.7a7.7,7.7,0,0,1-.78-1.87,7.93,7.93,0,0,1-.26-2,7.8,7.8,0,0,1,.26-2A7.61,7.61,0,0,1,2,37.92a7.89,7.89,0,0,1,2.85-2.85,7.61,7.61,0,0,1,1.88-.78,7.94,7.94,0,0,1,4,0,7.61,7.61,0,0,1,1.88.78,7.89,7.89,0,0,1,2.85,2.85,7.61,7.61,0,0,1,.78,1.88,7.8,7.8,0,0,1,.26,2,7.93,7.93,0,0,1-.26,2,7.7,7.7,0,0,1-.78,1.87,7.83,7.83,0,0,1-1.24,1.62,7.72,7.72,0,0,1-1.61,1.23"/><circle class="cls-5" cx="5.58" cy="39.62" r="1.73"/><path class="cls-2" d="M61.66,14.55V62.68c0,1.38,1.94,2.5,4.33,2.5s4.32-1.12,4.32-2.5V14.55Z"/><circle class="cls-3" cx="65.99" cy="8.79" r="7.79"/><path class="cls-4" d="M69.88,2a7.89,7.89,0,0,1,2.85,2.85,7.61,7.61,0,0,1,.78,1.88,7.94,7.94,0,0,1,0,4,7.61,7.61,0,0,1-.78,1.88,7.89,7.89,0,0,1-2.85,2.85,7.61,7.61,0,0,1-1.88.78,7.94,7.94,0,0,1-4,0,7.94,7.94,0,0,1-1.88-.78,7.77,7.77,0,0,1-1.61-1.24,8.12,8.12,0,0,1-1.24-1.61,7.59,7.59,0,0,1-.77-1.88,7.65,7.65,0,0,1,0-4,7.59,7.59,0,0,1,.77-1.88,8.12,8.12,0,0,1,1.24-1.61A7.77,7.77,0,0,1,62.09,2"/><path class="cls-1" d="M61.66,15.28v47.4c0,1.38,1.94,2.5,4.33,2.5s4.32-1.12,4.32-2.5V15.28"/><path class="cls-1" d="M62.09,15.53a7.77,7.77,0,0,1-1.61-1.24,8.12,8.12,0,0,1-1.24-1.61,7.59,7.59,0,0,1-.77-1.88,7.65,7.65,0,0,1,0-4,7.59,7.59,0,0,1,.77-1.88,8.12,8.12,0,0,1,1.24-1.61A7.77,7.77,0,0,1,62.09,2,7.7,7.7,0,0,1,66,1a7.86,7.86,0,0,1,2,.26A7.61,7.61,0,0,1,69.88,2a7.89,7.89,0,0,1,2.85,2.85,7.61,7.61,0,0,1,.78,1.88,7.94,7.94,0,0,1,0,4,7.61,7.61,0,0,1-.78,1.88,7.89,7.89,0,0,1-2.85,2.85"/><circle class="cls-5" cx="62.78" cy="6.6" r="1.73"/></g></g></svg>