<svg xmlns="http://www.w3.org/2000/svg" width="135.69" height="135.27" viewBox="0 0 135.69 135.27"><defs><style>.cls-1,.cls-3{fill:#d5dae0;}.cls-1,.cls-2,.cls-7,.cls-8{stroke:#627386;}.cls-1,.cls-2,.cls-4,.cls-6,.cls-7,.cls-8{stroke-linecap:round;stroke-linejoin:round;stroke-width:2px;}.cls-2{fill:#fff;}.cls-4,.cls-6,.cls-7{fill:none;}.cls-4{stroke:#b8bfca;}.cls-5,.cls-8{fill:#f2f4f6;}.cls-6{stroke:#d5dae0;}</style></defs><title>stair_02</title><g id="Layer_2" data-name="Layer 2"><g id="Layer_1-2" data-name="Layer 1"><polygon class="cls-1" points="72.38 134.27 134.69 98.3 134.69 84.28 72.38 120.25 72.38 134.27"/><polygon class="cls-2" points="72.38 120.25 54.54 109.94 116.84 73.97 134.69 84.28 72.38 120.25"/><polygon class="cls-3" points="124.74 104.04 82.32 128.53 82.32 114.51 124.74 90.02 124.74 104.04"/><polygon class="cls-4" points="119.01 93.32 119.01 107.34 88.05 125.22 88.05 111.2 119.01 93.32"/><polygon class="cls-5" points="106.9 79.71 64.48 104.2 82.32 114.51 124.74 90.02 106.9 79.71"/><polygon class="cls-6" points="119.01 93.33 101.17 83.02 70.21 100.9 88.05 111.2 119.01 93.33"/><line class="cls-4" x1="82.32" y1="114.51" x2="124.74" y2="90.02"/><polygon class="cls-7" points="106.9 79.71 124.74 90.02 124.74 104.04 82.32 128.53 82.32 114.51 64.48 104.2 106.9 79.71"/><polygon class="cls-8" points="18.84 47.27 18.84 61.3 18.84 61.3 18.84 61.3 18.84 61.3 36.69 71.6 36.69 85.62 36.69 85.62 36.69 85.62 36.69 85.62 54.54 95.92 54.54 109.94 54.54 109.94 54.54 109.94 54.54 109.94 72.38 120.25 72.38 134.27 54.54 123.97 1 93.06 1 50.99 1 36.97 18.84 47.27"/><polygon class="cls-1" points="54.54 109.94 116.84 73.97 116.84 59.95 54.54 95.92 54.54 109.94"/><polygon class="cls-2" points="54.54 95.92 36.69 85.62 99 49.65 116.84 59.95 54.54 95.92"/><polygon class="cls-3" points="106.9 79.71 64.48 104.2 64.48 90.18 106.9 65.69 106.9 79.71"/><polygon class="cls-4" points="101.17 69 101.17 83.02 70.21 100.9 70.21 86.88 101.17 69"/><polygon class="cls-5" points="89.05 55.39 46.63 79.88 64.48 90.18 106.9 65.69 89.05 55.39"/><polygon class="cls-6" points="101.17 69 83.32 58.7 52.36 76.57 70.21 86.88 101.17 69"/><line class="cls-4" x1="64.48" y1="90.18" x2="106.9" y2="65.69"/><polygon class="cls-7" points="89.05 55.39 106.9 65.69 106.9 79.71 64.48 104.2 64.48 90.18 46.63 79.88 89.05 55.39"/><polygon class="cls-1" points="36.69 85.62 99 49.65 99 35.63 36.69 71.6 36.69 85.62"/><polygon class="cls-2" points="36.69 71.6 18.84 61.3 81.15 25.32 99 35.63 36.69 71.6"/><polygon class="cls-3" points="89.05 55.39 46.63 79.88 46.63 65.86 89.05 41.37 89.05 55.39"/><polygon class="cls-4" points="83.32 44.67 83.32 58.7 52.36 76.57 52.36 62.55 83.32 44.67"/><polygon class="cls-5" points="71.21 31.07 28.79 55.56 46.63 65.86 89.05 41.37 71.21 31.07"/><polygon class="cls-6" points="83.32 44.68 65.48 34.37 34.52 52.25 52.36 62.55 83.32 44.68"/><line class="cls-4" x1="46.63" y1="65.86" x2="89.05" y2="41.37"/><polygon class="cls-7" points="71.21 31.07 89.05 41.37 89.05 55.39 46.63 79.88 46.63 65.86 28.79 55.56 71.21 31.07"/><polygon class="cls-1" points="18.84 61.3 81.15 25.32 81.15 11.3 18.84 47.27 18.84 61.3"/><polygon class="cls-2" points="18.84 47.27 1 36.97 63.3 1 81.15 11.3 18.84 47.27"/><polygon class="cls-3" points="71.21 31.07 28.79 55.56 28.79 41.53 71.21 17.04 71.21 31.07"/><polygon class="cls-4" points="65.48 20.35 65.48 34.37 34.52 52.25 34.52 38.23 65.48 20.35"/><polygon class="cls-5" points="53.36 6.74 10.94 31.23 28.79 41.53 71.21 17.04 53.36 6.74"/><polygon class="cls-6" points="65.48 20.35 47.63 10.05 16.67 27.92 34.52 38.23 65.48 20.35"/><line class="cls-4" x1="28.79" y1="41.53" x2="71.21" y2="17.04"/><polygon class="cls-7" points="53.36 6.74 71.21 17.04 71.21 31.07 28.79 55.56 28.79 41.53 10.94 31.23 53.36 6.74"/></g></g></svg>