<svg xmlns="http://www.w3.org/2000/svg" width="135.69" height="135.27" viewBox="0 0 135.69 135.27"><defs><style>.cls-1,.cls-5{fill:#f2f4f6;}.cls-1,.cls-2,.cls-7,.cls-8{stroke:#627386;}.cls-1,.cls-2,.cls-4,.cls-6,.cls-7,.cls-8{stroke-linecap:round;stroke-linejoin:round;stroke-width:2px;}.cls-2{fill:#fff;}.cls-3,.cls-8{fill:#d5dae0;}.cls-4,.cls-6,.cls-7{fill:none;}.cls-4{stroke:#b8bfca;}.cls-6{stroke:#d5dae0;}</style></defs><title>stair_01</title><g id="Layer_2" data-name="Layer 2"><g id="Layer_1-2" data-name="Layer 1"><polygon class="cls-1" points="63.3 134.27 1 98.3 1 84.28 63.3 120.25 63.3 134.27"/><polygon class="cls-2" points="63.3 120.25 81.15 109.94 18.84 73.97 1 84.28 63.3 120.25"/><polygon class="cls-3" points="10.94 104.04 53.36 128.53 53.36 114.51 10.94 90.02 10.94 104.04"/><polygon class="cls-4" points="16.67 93.32 16.67 107.34 47.63 125.22 47.63 111.2 16.67 93.32"/><polygon class="cls-5" points="28.79 79.71 71.21 104.2 53.36 114.51 10.94 90.02 28.79 79.71"/><polygon class="cls-6" points="16.67 93.33 34.52 83.02 65.48 100.9 47.63 111.2 16.67 93.33"/><line class="cls-4" x1="53.36" y1="114.51" x2="10.94" y2="90.02"/><polygon class="cls-7" points="28.79 79.71 10.94 90.02 10.94 104.04 53.36 128.53 53.36 114.51 71.21 104.2 28.79 79.71"/><polygon class="cls-1" points="81.15 109.94 18.84 73.97 18.84 59.95 81.15 95.92 81.15 109.94"/><polygon class="cls-2" points="81.15 95.92 99 85.62 36.69 49.65 18.84 59.95 81.15 95.92"/><polygon class="cls-3" points="28.79 79.71 71.21 104.2 71.21 90.18 28.79 65.69 28.79 79.71"/><polygon class="cls-4" points="34.52 69 34.52 83.02 65.48 100.9 65.48 86.88 34.52 69"/><polygon class="cls-5" points="46.63 55.39 89.05 79.88 71.21 90.18 28.79 65.69 46.63 55.39"/><polygon class="cls-6" points="34.52 69 52.36 58.7 83.33 76.57 65.48 86.88 34.52 69"/><line class="cls-4" x1="71.21" y1="90.18" x2="28.79" y2="65.69"/><polygon class="cls-7" points="46.63 55.39 28.79 65.69 28.79 79.71 71.21 104.2 71.21 90.18 89.05 79.88 46.63 55.39"/><polygon class="cls-8" points="116.84 47.27 116.84 61.3 116.84 61.3 116.84 61.3 116.84 61.3 99 71.6 99 85.62 99 85.62 99 85.62 99 85.62 81.15 95.92 81.15 109.94 81.15 109.94 81.15 109.94 81.15 109.94 63.3 120.25 63.3 134.27 81.15 123.97 134.69 93.06 134.69 50.99 134.69 36.97 116.84 47.27"/><polygon class="cls-1" points="99 85.62 36.69 49.65 36.69 35.63 99 71.6 99 85.62"/><polygon class="cls-2" points="99 71.6 116.84 61.3 54.54 25.32 36.69 35.63 99 71.6"/><polygon class="cls-3" points="46.63 55.39 89.05 79.88 89.05 65.86 46.63 41.37 46.63 55.39"/><polygon class="cls-4" points="52.36 44.67 52.36 58.7 83.32 76.57 83.32 62.55 52.36 44.67"/><polygon class="cls-5" points="64.48 31.07 106.9 55.56 89.05 65.86 46.63 41.37 64.48 31.07"/><polygon class="cls-6" points="52.36 44.68 70.21 34.37 101.17 52.25 83.32 62.55 52.36 44.68"/><line class="cls-4" x1="89.05" y1="65.86" x2="46.63" y2="41.37"/><polygon class="cls-7" points="64.48 31.07 46.63 41.37 46.63 55.39 89.05 79.88 89.05 65.86 106.9 55.56 64.48 31.07"/><polygon class="cls-1" points="116.84 61.3 54.54 25.32 54.54 11.3 116.84 47.27 116.84 61.3"/><polygon class="cls-2" points="116.84 47.27 134.69 36.97 72.38 1 54.54 11.3 116.84 47.27"/><polygon class="cls-3" points="64.48 31.07 106.9 55.56 106.9 41.53 64.48 17.04 64.48 31.07"/><polygon class="cls-4" points="70.21 20.35 70.21 34.37 101.17 52.25 101.17 38.23 70.21 20.35"/><polygon class="cls-5" points="82.32 6.74 124.74 31.23 106.9 41.53 64.48 17.04 82.32 6.74"/><polygon class="cls-6" points="70.21 20.35 88.05 10.05 119.02 27.92 101.17 38.23 70.21 20.35"/><line class="cls-4" x1="106.9" y1="41.53" x2="64.48" y2="17.04"/><polygon class="cls-7" points="82.32 6.74 64.48 17.04 64.48 31.07 106.9 55.56 106.9 41.53 124.74 31.23 82.32 6.74"/></g></g></svg>