<svg xmlns="http://www.w3.org/2000/svg" width="141.6" height="156.91" viewBox="0 0 141.6 156.91"><defs><style>.cls-1,.cls-2,.cls-7,.cls-8{fill:none;}.cls-1,.cls-3,.cls-4,.cls-6{stroke:#627386;}.cls-1,.cls-2,.cls-3,.cls-4,.cls-6,.cls-7,.cls-8{stroke-linecap:round;stroke-linejoin:round;stroke-width:2px;}.cls-2{stroke:#1b6dc6;}.cls-3{fill:#fff;}.cls-4{fill:#d5dae0;}.cls-5{fill:#b8bfca;}.cls-6{fill:#f2f4f6;}.cls-7,.cls-8{stroke:#b8bfca;}.cls-8{stroke-dasharray:0 5.93;}</style></defs><title>tunnel_01</title><g id="Layer_2" data-name="Layer 2"><g id="Layer_1-2" data-name="Layer 1"><line class="cls-1" x1="71.79" y1="137.94" x2="102.14" y2="155.91"/><line class="cls-1" x1="110.26" y1="115.74" x2="140.6" y2="133.7"/><line class="cls-2" x1="110.08" y1="46.54" x2="61.02" y2="74.87"/><polygon class="cls-3" points="121.03 35.65 61.02 70.3 1 35.65 61.02 1 121.03 35.65"/><path class="cls-4" d="M61,70.3v73.87l10.77-6.23V102.06a40.47,40.47,0,0,1,.85-8l37.62,21.72h0L121,109.52V35.65Z"/><path class="cls-4" d="M91,65.31c10.63-6.13,19.24.38,19.24,14.54v35.89L72.64,94C75.06,82.15,82.37,70.31,91,65.31Z"/><path class="cls-5" d="M91,65.31c-8.65,5-16,16.84-18.38,28.71l19.5,11.26h0l18-28.59C108.9,64.76,100.82,59.66,91,65.31Z"/><path class="cls-1" d="M91,65.31c10.63-6.13,19.24.38,19.24,14.54v35.89L72.64,94C75.06,82.15,82.37,70.31,91,65.31Z"/><polygon class="cls-6" points="61.02 70.3 61.02 144.17 1 109.52 1 35.65 61.02 70.3"/><line class="cls-7" x1="61.02" y1="70.3" x2="1" y2="35.65"/><polygon class="cls-1" points="61.02 70.3 61.02 144.17 1 109.52 1 35.65 61.02 70.3"/><line class="cls-7" x1="121.37" y1="144.81" x2="121.37" y2="144.81"/><line class="cls-8" x1="116.26" y1="141.8" x2="77.92" y2="119.3"/><line class="cls-7" x1="75.37" y1="117.8" x2="75.37" y2="117.8"/></g></g></svg>