<svg xmlns="http://www.w3.org/2000/svg" width="424" height="359" viewBox="0 0 424 359"><defs><style>.cls-1,.cls-11,.cls-12,.cls-14,.cls-15,.cls-20,.cls-22,.cls-23,.cls-4,.cls-5,.cls-6,.cls-7,.cls-8{fill:none;}.cls-10,.cls-2{fill:#bde4fd;}.cls-15,.cls-19,.cls-2,.cls-3,.cls-5,.cls-6,.cls-9{stroke:#1b6dc6;}.cls-11,.cls-12,.cls-14,.cls-15,.cls-16,.cls-17,.cls-18,.cls-19,.cls-2,.cls-20,.cls-21,.cls-22,.cls-3,.cls-5,.cls-6,.cls-7,.cls-8,.cls-9{stroke-linecap:round;stroke-linejoin:round;}.cls-11,.cls-12,.cls-14,.cls-15,.cls-16,.cls-17,.cls-18,.cls-19,.cls-2,.cls-20,.cls-21,.cls-22,.cls-23,.cls-3,.cls-4,.cls-5,.cls-6,.cls-7,.cls-8,.cls-9{stroke-width:2px;}.cls-21,.cls-3{fill:#e9f6fe;}.cls-12,.cls-21,.cls-4,.cls-8{stroke:#91d2fb;}.cls-23,.cls-4{stroke-miterlimit:10;}.cls-6{stroke-dasharray:0 5.79;}.cls-11,.cls-7{stroke:#bde4fd;}.cls-13,.cls-9{fill:#d3edfd;}.cls-11{stroke-dasharray:0 6.26;}.cls-12{stroke-dasharray:0 6.32;}.cls-14{stroke:#d3edfd;}.cls-15{stroke-dasharray:0 5.86;}.cls-16,.cls-19{fill:#fff;}.cls-16,.cls-17,.cls-18,.cls-22{stroke:#627386;}.cls-17,.cls-24{fill:#d5dae0;}.cls-18{fill:#f2f4f6;}.cls-20{stroke:#d5dae0;}.cls-23{stroke:#b8bfca;}.cls-25{fill:#91d2fb;}</style></defs><title>onboarding</title><g id="Layer_2" data-name="Layer 2"><g id="Illustration"><rect class="cls-1" width="424" height="359"/><path class="cls-2" d="M86.76,169.91l-.89-.89a4.74,4.74,0,0,0-3.25-1.08H67.24A4.74,4.74,0,0,0,64,169l-.89.89H55.8v9.28a1.49,1.49,0,0,0,.5,1.08L64,188a4.74,4.74,0,0,0,3.25,1.08H82.62A4.74,4.74,0,0,0,85.87,188l7.69-7.7a1.5,1.5,0,0,0,.51-1.08v-9.28Z"/><path class="cls-3" d="M64,178.69,56.3,171a1.41,1.41,0,0,1,0-2.16L64,161.14a4.74,4.74,0,0,1,3.25-1.09H82.62a4.74,4.74,0,0,1,3.25,1.09l7.69,7.69a1.41,1.41,0,0,1,0,2.16l-7.69,7.7a4.74,4.74,0,0,1-3.25,1.08H67.24A4.74,4.74,0,0,1,64,178.69Z"/><ellipse class="cls-4" cx="74.93" cy="169.91" rx="6.25" ry="3.61"/><polygon class="cls-1" points="293.12 176.54 251.56 152.47 210.01 128.41 168.39 152.36 126.77 176.31 168.32 200.38 209.87 224.45 251.49 200.5 293.12 176.54"/><line class="cls-5" x1="210.01" y1="112.8" x2="210.01" y2="112.8"/><line class="cls-6" x1="210.01" y1="118.59" x2="210.01" y2="127.27"/><line class="cls-5" x1="210.01" y1="130.17" x2="210.01" y2="130.17"/><line class="cls-7" x1="138.21" y1="176.32" x2="209.94" y2="134.91"/><line class="cls-8" x1="281.67" y1="176.32" x2="209.94" y2="134.91"/><polygon class="cls-2" points="229.47 106.72 209.94 118 209.94 217.74 281.67 176.32 229.47 106.72"/><line class="cls-8" x1="209.94" y1="134.91" x2="281.67" y2="176.32"/><polygon class="cls-9" points="190.42 106.72 209.94 118 209.94 217.74 138.21 176.32 190.42 106.72"/><polygon class="cls-10" points="209.79 122.62 209.79 199.58 250.07 176.32 209.79 122.62"/><polygon class="cls-8" points="209.79 122.62 209.79 199.58 250.07 176.32 209.79 122.62"/><line class="cls-7" x1="138.21" y1="176.32" x2="209.94" y2="134.91"/><line class="cls-7" x1="138.21" y1="176.32" x2="138.21" y2="176.32"/><line class="cls-11" x1="144.47" y1="176.32" x2="166.38" y2="176.32"/><line class="cls-7" x1="169.51" y1="176.32" x2="169.51" y2="176.32"/><line class="cls-8" x1="250.07" y1="176.32" x2="250.07" y2="176.32"/><line class="cls-12" x1="256.39" y1="176.32" x2="278.51" y2="176.32"/><line class="cls-8" x1="281.67" y1="176.32" x2="281.67" y2="176.32"/><polygon class="cls-5" points="190.42 106.72 209.94 118 209.94 217.74 138.21 176.32 190.42 106.72"/><polygon class="cls-3" points="190.42 106.72 209.94 95.45 229.47 106.72 209.94 118 190.42 106.72"/><polygon class="cls-13" points="209.79 122.62 209.79 199.58 169.51 176.32 209.79 122.62"/><polygon class="cls-7" points="209.79 122.62 209.79 199.58 169.51 176.32 209.79 122.62"/><polygon class="cls-8" points="209.79 122.62 209.79 199.58 250.07 176.32 209.79 122.62"/><line class="cls-14" x1="209.94" y1="95.45" x2="209.94" y2="118"/><polygon class="cls-5" points="190.42 106.72 209.94 95.45 229.47 106.72 209.94 118 190.42 106.72"/><polygon class="cls-2" points="209.94 51.38 209.94 88.68 229.47 77.41 209.94 51.38"/><line class="cls-8" x1="209.94" y1="66.14" x2="229.47" y2="77.41"/><line class="cls-8" x1="190.42" y1="77.41" x2="209.94" y2="66.14"/><polygon class="cls-9" points="209.94 51.38 209.94 88.68 190.42 77.41 209.94 51.38"/><line class="cls-7" x1="209.94" y1="66.14" x2="190.42" y2="77.41"/><polygon class="cls-5" points="209.94 51.38 209.94 88.68 190.42 77.41 209.94 51.38"/><polygon class="cls-5" points="229.47 106.72 209.94 118 209.94 217.74 281.67 176.32 229.47 106.72"/><polygon class="cls-5" points="209.94 51.38 209.94 88.68 229.47 77.41 209.94 51.38"/><line class="cls-5" x1="229.47" y1="77.41" x2="229.47" y2="77.41"/><line class="cls-15" x1="229.47" y1="83.27" x2="229.47" y2="103.79"/><line class="cls-5" x1="229.47" y1="106.72" x2="229.47" y2="106.72"/><line class="cls-5" x1="190.42" y1="77.41" x2="190.42" y2="77.41"/><line class="cls-15" x1="190.42" y1="83.27" x2="190.42" y2="103.79"/><line class="cls-5" x1="190.42" y1="106.72" x2="190.42" y2="106.72"/><polygon class="cls-16" points="280.22 103.83 268.3 96.95 256.39 103.83 268.3 110.71 280.22 103.83"/><polygon class="cls-17" points="280.22 119.72 268.3 126.6 268.3 110.71 280.22 103.83 280.22 119.72"/><polygon class="cls-18" points="256.39 119.72 268.3 126.6 268.3 110.71 256.39 103.83 256.39 119.72"/><polygon class="cls-16" points="300.41 83.72 288.49 76.84 276.58 83.72 288.49 90.6 300.41 83.72"/><polygon class="cls-17" points="288.49 90.6 288.49 106.48 288.49 122.37 288.49 138.25 300.41 131.38 300.41 115.49 300.41 99.61 300.41 83.72 288.49 90.6"/><polygon class="cls-18" points="276.58 83.72 276.58 99.61 276.58 115.49 276.58 131.38 288.49 138.25 288.49 122.37 288.49 106.48 288.49 90.6 276.58 83.72"/><polygon class="cls-19" points="320.6 69.56 308.69 62.69 296.77 69.56 308.69 76.44 320.6 69.56"/><polygon class="cls-9" points="308.69 76.44 308.69 76.44 308.69 118.14 308.69 134.03 308.69 149.91 320.6 143.03 320.6 127.15 320.6 85.45 320.6 69.56 320.6 69.56 308.69 76.44"/><polygon class="cls-3" points="296.77 69.56 296.77 69.56 296.77 85.45 296.77 127.15 296.77 143.03 308.69 149.91 308.69 134.03 308.69 118.14 308.69 76.44 308.69 76.44 296.77 69.56"/><path class="cls-20" d="M209.88,244.87a3.77,3.77,0,0,1-1.87-.45,1.13,1.13,0,0,1,0-2.15,4.11,4.11,0,0,1,3.74,0,1.14,1.14,0,0,1,0,2.15A3.77,3.77,0,0,1,209.88,244.87Z"/><polygon class="cls-18" points="257.55 240.76 300.05 265.24 299.99 255.5 257.49 231.03 257.55 240.76"/><polygon class="cls-17" points="352.87 234.68 300.05 265.24 299.99 255.5 352.81 224.94 352.87 234.68"/><polygon class="cls-16" points="257.49 231.03 310.31 200.47 352.81 224.94 299.99 255.5 257.49 231.03"/><polygon class="cls-16" points="265.2 235.47 318.02 204.91 352.81 224.94 299.99 255.5 265.2 235.47"/><polygon class="cls-18" points="257.49 231.03 310.31 200.47 318.02 204.91 265.2 235.47 257.49 231.03"/><polygon class="cls-17" points="265.2 245.17 257.55 240.76 257.49 231.03 265.2 235.47 265.2 245.17"/><line class="cls-20" x1="318.02" y1="213.99" x2="336.9" y2="224.85"/><line class="cls-20" x1="280.81" y1="235.52" x2="299.68" y2="246.38"/><polygon class="cls-21" points="318.02 213.99 336.9 224.85 299.68 246.38 290.7 241.23 297.08 236.61 297.88 231.03 304.53 226.29 312.65 225.21 317.04 219.42 318.02 213.99"/><path class="cls-18" d="M144.86,108.94a32.45,32.45,0,0,0-9.58-4.92h0a52.44,52.44,0,0,0-22.61-2c-7.29.92-14,3.3-18.68,6.94H87.66v11h0c0,6.33,5.66,12.49,15.84,15.88a50.87,50.87,0,0,0,16.56,2.46c1,0,2-.06,3-.13s2-.16,3-.29,2-.28,2.94-.45c1.45-.27,2.87-.6,4.25-1,.91-.25,1.81-.54,2.68-.85q.66-.22,1.29-.48a30.13,30.13,0,0,0,7.83-4.4,20.73,20.73,0,0,0,1.77-1.58c.32-.32.63-.66.91-1,.09-.09.16-.19.24-.28q.31-.39.6-.78l.2-.27a13.6,13.6,0,0,0,1.23-2.13l.06-.13c.15-.33.28-.67.4-1,0,0,0-.07,0-.11a10.86,10.86,0,0,0,.56-3.44h0v0h0v-11Z"/><path class="cls-2" d="M103.54,104A32.17,32.17,0,0,0,94,108.92H87.66v11h0c0,6.33,5.66,12.49,15.84,15.88V104Z"/><path class="cls-16" d="M148.65,116l.2-.27a14.07,14.07,0,0,0,1.23-2.13l.06-.13c.15-.34.28-.67.4-1l0-.12a10.61,10.61,0,0,0,.56-3.45h0c0-6.33-5.69-12.48-15.86-15.88h0a52.28,52.28,0,0,0-22.61-2c-8.44,1.06-16.1,4.09-20.76,8.74-.32.33-.63.66-.91,1-.09.09-.16.19-.24.28-.21.26-.41.51-.6.77l-.2.27a14.15,14.15,0,0,0-1.23,2.14l-.06.13c-.15.33-.28.67-.4,1,0,0,0,.08,0,.12-2.48,7.45,3.28,15.32,15.3,19.33a50.86,50.86,0,0,0,16.56,2.45c1,0,2,0,3-.12s2-.17,3-.29,2-.28,2.94-.46c1.45-.27,2.87-.6,4.25-1,.91-.26,1.81-.54,2.68-.85l1.29-.48a30.15,30.15,0,0,0,7.83-4.41,20.64,20.64,0,0,0,1.77-1.57c.32-.33.63-.66.91-1l.24-.29C148.26,116.55,148.46,116.3,148.65,116Z"/><path class="cls-3" d="M103.53,124.8h0l15.88-15.87H87.69C87.7,115.25,93.36,121.41,103.53,124.8Z"/><path class="cls-20" d="M145.18,212.21a3.71,3.71,0,0,1,1.86.45,1.14,1.14,0,0,1,0,2.16,3.71,3.71,0,0,1-1.86.45,3.75,3.75,0,0,1-1.87-.45,1.14,1.14,0,0,1,0-2.16A3.75,3.75,0,0,1,145.18,212.21Z"/><path class="cls-17" d="M54.47,183.86l-.88-.89a4.74,4.74,0,0,0-3.25-1.08H35A4.74,4.74,0,0,0,31.7,183l-.88.89H23.51v9.28a1.55,1.55,0,0,0,.5,1.08l7.69,7.69A4.74,4.74,0,0,0,35,203H50.34a4.74,4.74,0,0,0,3.25-1.09l7.69-7.69a1.55,1.55,0,0,0,.5-1.08v-9.28Z"/><path class="cls-22" d="M54.47,183.86l-.88-.89a4.74,4.74,0,0,0-3.25-1.08H35A4.74,4.74,0,0,0,31.7,183l-.88.89H23.51v9.28a1.55,1.55,0,0,0,.5,1.08l7.69,7.69A4.74,4.74,0,0,0,35,203H50.34a4.74,4.74,0,0,0,3.25-1.09l7.69-7.69a1.55,1.55,0,0,0,.5-1.08v-9.28Z"/><path class="cls-16" d="M31.7,192.63,24,184.94a1.41,1.41,0,0,1,0-2.16l7.69-7.7A4.74,4.74,0,0,1,35,174H50.34a4.74,4.74,0,0,1,3.25,1.08l7.69,7.7a1.41,1.41,0,0,1,0,2.16l-7.69,7.69a4.74,4.74,0,0,1-3.25,1.09H35A4.74,4.74,0,0,1,31.7,192.63Z"/><ellipse class="cls-23" cx="42.65" cy="183.86" rx="6.25" ry="3.61"/><polygon class="cls-17" points="155.3 240.16 117.55 261.95 117.55 249.37 155.3 227.58 155.3 240.16"/><polygon class="cls-18" points="79.81 240.16 117.55 261.95 117.55 249.37 79.81 227.58 79.81 240.16"/><polygon class="cls-2" points="155.3 227.58 117.55 249.37 117.55 236.79 155.3 214.99 155.3 227.58"/><polygon class="cls-3" points="79.81 227.58 117.55 249.37 117.55 236.79 79.81 214.99 79.81 227.58"/><polygon class="cls-19" points="155.3 214.99 117.55 193.2 79.81 214.99 117.55 236.79 155.3 214.99"/><path class="cls-10" d="M105.27,215.61a.56.56,0,0,1-.26-.07l-3.68-2.13c-.12-.06-.17-.17-.12-.25a.49.49,0,0,1,.43-.16l12.4.61c.28,0,.51-.12.49-.28l-1-7.17a.23.23,0,0,1,.17-.23.63.63,0,0,1,.54,0l3.55,2a.2.2,0,0,1,.12.14l1.16,7.79V216c0,.12-.15.23-.36.22h-.14Z"/><path class="cls-10" d="M121,216.12c0,.13.19.23.41.24l10.76.57a.6.6,0,0,0,.39-.1c.12-.1.09-.23,0-.31L129,214.47a.66.66,0,0,0-.26-.07l-7.48-.44c-.28,0-.51.12-.48.28Z"/><path class="cls-10" d="M118.85,217.34c.22,0,.39.11.41.24l1.09,6.25c0,.09,0,.18-.17.23a.65.65,0,0,1-.53,0L116.1,222a.22.22,0,0,1-.12-.15l-.69-4.33c0-.16.21-.29.48-.28Z"/><path class="cls-18" d="M217.72,246.33l-.14-.09a17.05,17.05,0,0,0-15.4,0l-.15.09h-3v27.22c0,1.61,1.06,3.22,3.19,4.45a17.05,17.05,0,0,0,15.4,0c2.12-1.23,3.18-2.84,3.18-4.45V246.33Z"/><path class="cls-24" d="M217.58,278c2.12-1.23,3.18-2.84,3.18-4.45V246.33h-3l-.14-.09a15.85,15.85,0,0,0-7.7-1.84v35.44A15.74,15.74,0,0,0,217.58,278Z"/><path class="cls-22" d="M217.72,246.33l-.14-.09a17.05,17.05,0,0,0-15.4,0l-.15.09h-3v27.22c0,1.61,1.06,3.22,3.19,4.45a17.05,17.05,0,0,0,15.4,0c2.12-1.23,3.18-2.84,3.18-4.45V246.33Z"/><ellipse class="cls-16" cx="209.88" cy="246.33" rx="10.89" ry="6.29"/><ellipse class="cls-1" cx="209.88" cy="273.55" rx="10.89" ry="6.29"/><path class="cls-2" d="M233.12,267.93l-.15-.09a17,17,0,0,0-15.39,0l-.15.09h-3v14.51c0,1.61,1.06,3.22,3.19,4.45a17,17,0,0,0,15.39,0c2.13-1.23,3.19-2.84,3.19-4.45V267.93Z"/><path class="cls-2" d="M233,286.89c2.13-1.23,3.19-2.84,3.19-4.45V267.93h-3l-.15-.09a15.69,15.69,0,0,0-7.7-1.85v22.74A15.69,15.69,0,0,0,233,286.89Z"/><path class="cls-2" d="M233.12,267.93l-.15-.09a17,17,0,0,0-15.39,0l-.15.09h-3v14.51c0,1.61,1.06,3.22,3.19,4.45a17,17,0,0,0,15.39,0c2.13-1.23,3.19-2.84,3.19-4.45V267.93Z"/><path class="cls-25" d="M233,267.84a15.69,15.69,0,0,0-7.7-1.85v22.74a15.69,15.69,0,0,0,7.7-1.84c2.13-1.23,3.19-2.84,3.19-4.45V267.93h-3Z"/><path class="cls-5" d="M233.12,267.93l-.15-.09a17,17,0,0,0-15.39,0l-.15.09h-3v14.51c0,1.61,1.06,3.22,3.19,4.45a17,17,0,0,0,15.39,0c2.13-1.23,3.19-2.84,3.19-4.45V267.93Z"/><path class="cls-5" d="M233.12,267.93l-.15-.09a17,17,0,0,0-15.39,0l-.15.09h-3v14.51c0,1.61,1.06,3.22,3.19,4.45a17,17,0,0,0,15.39,0c2.13-1.23,3.19-2.84,3.19-4.45V267.93Z"/><ellipse class="cls-3" cx="225.27" cy="267.93" rx="10.89" ry="6.29"/><ellipse class="cls-5" cx="225.27" cy="267.93" rx="10.89" ry="6.29"/><path class="cls-18" d="M202.33,273.37l-.15-.09a17,17,0,0,0-15.4,0l-.15.09h-3v9.07c0,1.61,1.06,3.22,3.19,4.45a17.05,17.05,0,0,0,15.4,0c2.12-1.23,3.19-2.84,3.19-4.45v-9.07Z"/><path class="cls-24" d="M202.18,286.89c2.12-1.23,3.19-2.84,3.19-4.45v-9.07h-3l-.15-.09a15.74,15.74,0,0,0-7.7-1.84v17.29A15.74,15.74,0,0,0,202.18,286.89Z"/><path class="cls-22" d="M202.33,273.37l-.15-.09a17,17,0,0,0-15.4,0l-.15.09h-3v9.07c0,1.61,1.06,3.22,3.19,4.45a17.05,17.05,0,0,0,15.4,0c2.12-1.23,3.19-2.84,3.19-4.45v-9.07Z"/><ellipse class="cls-16" cx="194.48" cy="273.37" rx="10.89" ry="6.29"/><path class="cls-1" d="M202.18,279.81c4.25,2.46,4.25,4.62,0,7.08a17.05,17.05,0,0,1-15.4,0c-4.25-2.46-4.25-1,0-3.45S197.93,277.36,202.18,279.81Z"/><path class="cls-18" d="M369.75,168.58H342.23c-7.6,0-13.77,3.56-13.77,7.94s6.17,7.95,13.77,7.95h27.52c7.6,0,13.76-3.56,13.76-7.95S377.35,168.58,369.75,168.58Z"/><path class="cls-2" d="M356,167.35v9.17c0,4.39,6.16,7.95,13.76,7.95s13.76-3.56,13.76-7.95v-9.17Z"/><path class="cls-25" d="M383.51,176.52v-9.17H369.75v17.12C377.35,184.47,383.51,180.91,383.51,176.52Z"/><path class="cls-5" d="M356,167.35v9.17c0,4.39,6.16,7.95,13.76,7.95s13.76-3.56,13.76-7.95v-9.17Z"/><ellipse class="cls-3" cx="369.75" cy="167.35" rx="13.76" ry="7.95"/><ellipse class="cls-25" cx="369.75" cy="167.35" rx="3.51" ry="2.03"/><ellipse class="cls-5" cx="369.75" cy="167.35" rx="13.76" ry="7.95"/></g></g></svg>