<svg xmlns="http://www.w3.org/2000/svg" width="364.56" height="232.7" viewBox="0 0 364.56 232.7"><defs><style>.cls-1{fill:#f2f4f6;}.cls-12,.cls-2,.cls-9{fill:#fff;}.cls-14,.cls-3,.cls-4,.cls-5,.cls-6,.cls-7,.cls-8{fill:none;}.cls-3{stroke:#627386;}.cls-10,.cls-11,.cls-12,.cls-14,.cls-3,.cls-4,.cls-5,.cls-6,.cls-7,.cls-8,.cls-9{stroke-linecap:round;stroke-linejoin:round;stroke-width:2px;}.cls-4,.cls-9{stroke:#d5dae0;}.cls-5{stroke:#bde4fd;}.cls-6,.cls-7,.cls-8{stroke:#b8bfca;}.cls-7{stroke-dasharray:0 6.3;}.cls-8{stroke-dasharray:0 5.75;}.cls-10,.cls-13{fill:#bde4fd;}.cls-10,.cls-11,.cls-12,.cls-14{stroke:#1b6dc6;}.cls-11{fill:#e9f6fe;}</style></defs><title>xtract</title><g id="Layer_2" data-name="Layer 2"><g id="Layer_1-2" data-name="Layer 1"><path class="cls-1" d="M115.57,12.92,99.94,14l.33,1.7c-6.89-1.06-14.54,0-20,3.08l-12,6.94c-12.67-6.13-31.18-6.17-43.91-.11l-12.57,1V41h0c0,4.53,2.67,9.06,8,12.74L18,54.79H1.76V69.1h0c0,3.06,2,6.11,6,8.43,8.07,4.66,21.14,4.66,29.21,0l72.51-41.86c4-2.33,6-5.38,6-8.43h0Z"/><path class="cls-2" d="M80.32,4.49l-12,6.94c-13.52-6.54-33.7-6.14-46.41,1.2s-13.39,19-2.06,26.79l-12,6.94C-.26,51-.26,58.56,7.8,63.22s21.14,4.65,29.21,0l72.51-41.87c8.07-4.65,8.07-12.2,0-16.86h0C101.46-.16,88.39-.16,80.32,4.49Z"/><path class="cls-3" d="M109.52,4.49h0c-8.06-4.65-21.13-4.65-29.2,0l-12,6.94c-13.52-6.54-33.7-6.14-46.41,1.2-6.71,3.87-10.07,9-10.07,14h0V41h0a12,12,0,0,0,.36,2.84L7.8,46.36c-4,2.33-6,5.38-6,8.43V69.1c0,3.06,2,6.11,6,8.43,8.07,4.66,21.14,4.66,29.21,0l72.51-41.86c4-2.33,6-5.38,6-8.43V12.92C115.57,9.87,113.56,6.82,109.52,4.49Z"/><path class="cls-4" d="M15,35.18a22.38,22.38,0,0,0,4.79,4.34m-12,23.7c8.07,4.65,21.14,4.65,29.21,0l72.51-41.87"/><ellipse class="cls-5" cx="48.21" cy="27.82" rx="8.53" ry="4.93"/><path class="cls-1" d="M249.75,12.92,265.38,14l-.33,1.7c6.89-1.06,14.54,0,19.95,3.08l12,6.94c12.67-6.13,31.17-6.17,43.91-.11l12.57,1V41h0c0,4.53-2.67,9.06-8,12.74l1.83,1.06h16.24V69.1h0c0,3.06-2,6.11-6.05,8.43-8.06,4.66-21.14,4.66-29.2,0L255.79,35.67c-4-2.33-6-5.38-6-8.43h0Z"/><path class="cls-2" d="M255.79,4.49h0c-8.06,4.66-8.06,12.21,0,16.86l72.52,41.87c8.06,4.65,21.14,4.65,29.2,0s8.07-12.21,0-16.86l-12-6.94c11.33-7.81,10.64-19.46-2.07-26.79s-32.88-7.74-46.4-1.2L285,4.49C276.93-.16,263.86-.16,255.79,4.49Z"/><path class="cls-3" d="M255.79,4.49h0c8.07-4.65,21.14-4.65,29.21,0l12,6.94c13.52-6.54,33.69-6.14,46.4,1.2,6.72,3.87,10.08,9,10.08,14h0V41h0a12,12,0,0,1-.36,2.84l4.37,2.53c4,2.33,6.05,5.38,6.05,8.43V69.1c0,3.06-2,6.11-6.05,8.43-8.06,4.66-21.14,4.66-29.2,0L255.79,35.67c-4-2.33-6-5.38-6-8.43V12.92C249.75,9.87,251.76,6.82,255.79,4.49Z"/><path class="cls-4" d="M345.49,39.52a22.62,22.62,0,0,0,4.79-4.34M255.79,21.35l72.52,41.87c8.06,4.65,21.14,4.65,29.2,0"/><polygon class="cls-5" points="317.11 34.24 305.99 27.82 317.11 21.4 328.22 27.82 317.11 34.24"/><line class="cls-6" x1="227.6" y1="148.48" x2="227.6" y2="148.48"/><line class="cls-7" x1="233.05" y1="151.63" x2="273.96" y2="175.25"/><line class="cls-6" x1="276.68" y1="176.82" x2="276.68" y2="176.82"/><line class="cls-6" x1="86.68" y1="67.13" x2="86.68" y2="67.13"/><line class="cls-8" x1="91.66" y1="70" x2="138.95" y2="97.3"/><line class="cls-6" x1="141.44" y1="98.74" x2="141.44" y2="98.74"/><line class="cls-6" x1="135.77" y1="148.48" x2="135.77" y2="148.48"/><line class="cls-7" x1="130.31" y1="151.63" x2="89.41" y2="175.25"/><line class="cls-6" x1="86.68" y1="176.82" x2="86.68" y2="176.82"/><line class="cls-6" x1="276.68" y1="67.13" x2="276.68" y2="67.13"/><line class="cls-8" x1="271.7" y1="70" x2="224.41" y2="97.3"/><line class="cls-6" x1="221.93" y1="98.74" x2="221.93" y2="98.74"/><ellipse class="cls-4" cx="82.79" cy="179.07" rx="5.5" ry="3.18"/><ellipse class="cls-4" cx="280.57" cy="179.07" rx="5.5" ry="3.18"/><ellipse class="cls-4" cx="280.57" cy="64.88" rx="5.5" ry="3.18"/><ellipse class="cls-4" cx="82.79" cy="64.88" rx="5.5" ry="3.18"/><polygon class="cls-9" points="132.5 146.59 136.97 145.9 141.44 145.21 140.24 147.79 139.04 150.37 135.77 148.48 132.5 146.59"/><polygon class="cls-9" points="230.87 146.59 226.4 145.9 221.93 145.21 223.12 147.79 224.32 150.37 227.6 148.48 230.87 146.59"/><ellipse class="cls-4" cx="82.79" cy="179.07" rx="5.5" ry="3.18"/><ellipse class="cls-4" cx="280.57" cy="179.07" rx="5.5" ry="3.18"/><ellipse class="cls-4" cx="82.79" cy="179.07" rx="5.5" ry="3.18"/><polygon class="cls-10" points="242.68 122.74 181.68 157.95 181.68 137.62 242.68 102.4 242.68 122.74"/><polygon class="cls-11" points="120.68 122.74 181.68 157.95 181.68 137.62 120.68 102.4 120.68 122.74"/><polygon class="cls-12" points="242.68 102.4 181.68 67.18 120.68 102.4 181.68 137.62 242.68 102.4"/><polygon class="cls-10" points="242.68 102.4 181.68 137.62 181.68 117.29 242.68 82.07 242.68 102.4"/><polygon class="cls-11" points="120.68 102.4 181.68 137.62 181.68 117.29 120.68 82.07 120.68 102.4"/><polygon class="cls-12" points="242.68 82.07 181.68 46.85 120.68 82.07 181.68 117.29 242.68 82.07"/><path class="cls-13" d="M162.86,81a1,1,0,0,0-.41.11l-6,3.45c-.19.11-.27.27-.18.41a.82.82,0,0,0,.69.26l20-1c.44,0,.82.2.78.46l-1.64,11.6c0,.14.08.28.28.36a1.07,1.07,0,0,0,.86,0l5.74-3.31a.36.36,0,0,0,.19-.24l1.88-12.59,0-.12c0-.19-.25-.36-.59-.35h-.22Z"/><path class="cls-13" d="M188.29,80.15c0-.2.31-.36.66-.38l17.39-.93A1.05,1.05,0,0,1,207,79c.19.16.15.37-.08.5l-5.74,3.31a.86.86,0,0,1-.41.12l-12.1.71c-.45,0-.82-.19-.78-.45Z"/><path class="cls-13" d="M184.81,78.18c.35,0,.63-.18.66-.38l1.77-10.11c0-.15-.08-.29-.28-.37a1.06,1.06,0,0,0-.86,0l-5.74,3.32a.36.36,0,0,0-.2.24l-1.1,7c0,.26.33.47.77.45Z"/><ellipse class="cls-2" cx="189.32" cy="123.04" rx="2.01" ry="1.14" transform="translate(1.97 249.07) rotate(-66.95)"/><line class="cls-14" x1="219.81" y1="105.44" x2="204.56" y2="114.25"/><ellipse class="cls-2" cx="189.32" cy="143.38" rx="2.01" ry="1.14" transform="translate(-16.74 261.44) rotate(-66.95)"/><line class="cls-14" x1="219.81" y1="125.77" x2="204.56" y2="134.58"/><polygon class="cls-10" points="242.68 82.07 181.68 117.29 181.68 96.95 242.68 61.74 242.68 82.07"/><polygon class="cls-11" points="120.68 82.07 181.68 117.29 181.68 96.95 120.68 61.74 120.68 82.07"/><polygon class="cls-12" points="242.68 61.74 181.68 26.52 120.68 61.74 181.68 96.95 242.68 61.74"/><path class="cls-13" d="M162.86,60.64a.89.89,0,0,0-.41.11l-6,3.44c-.19.11-.27.28-.18.42a.79.79,0,0,0,.69.25l20-1c.44,0,.82.19.78.45l-1.64,11.6a.37.37,0,0,0,.28.37,1.07,1.07,0,0,0,.86,0l5.74-3.32a.34.34,0,0,0,.19-.24l1.88-12.59,0-.11c0-.19-.25-.36-.59-.35h-.22Z"/><path class="cls-13" d="M188.29,59.82c0-.21.31-.37.66-.38l17.39-.93a1,1,0,0,1,.64.16c.19.16.15.37-.08.5l-5.74,3.31a1,1,0,0,1-.41.11l-12.1.71c-.45,0-.82-.19-.78-.44Z"/><path class="cls-13" d="M184.81,57.84c.35,0,.63-.17.66-.38l1.77-10.11c0-.14-.08-.28-.28-.36a1,1,0,0,0-.86,0l-5.74,3.31a.41.41,0,0,0-.2.24l-1.1,7c0,.26.33.47.77.45Z"/><ellipse class="cls-2" cx="189.32" cy="102.71" rx="2.01" ry="1.14" transform="translate(20.68 236.7) rotate(-66.95)"/><line class="cls-14" x1="219.81" y1="85.11" x2="204.56" y2="93.91"/><path class="cls-1" d="M93.73,202.66,36.25,169.48c-5.66-3.27-13.79-4.24-20.93-2.91l.71-3H1v14.32H1c0,3.05,2,6.1,6.05,8.43l10.88,6.28-6.87-.91V206h0c0,5.08,3.36,10.16,10.08,14,12.71,7.34,32.88,7.73,46.4,1.19l12,6.94c8.07,4.66,21.14,4.66,29.21,0,4-2.32,6-5.37,6-8.43h0V205.46Z"/><path class="cls-2" d="M13.78,199.46a23.45,23.45,0,0,0,7.36,6.29c12.71,7.34,32.88,7.74,46.4,1.2l12,6.94c8.07,4.65,21.14,4.65,29.21,0s8.06-12.21,0-16.86L36.25,155.16c-8.06-4.65-21.14-4.65-29.2,0h0C-1,159.82-1,167.36,7.05,172l12,6.94c-8.45,5.83-10.21,13.78-5.29,20.5"/><polygon class="cls-5" points="41.42 190.02 43.97 184.53 53.49 183.05 60.46 187.07 57.91 192.57 48.39 194.04 41.42 190.02"/><path class="cls-3" d="M114.81,205.46c0-3.05-2-6.1-6-8.43L36.25,155.16c-8.06-4.65-21.14-4.65-29.2,0h0c-4,2.33-6,5.38-6,8.43H1v14.32c0,3.05,2,6.1,6.05,8.43l4.37,2.52a11.54,11.54,0,0,0-.36,2.85h0V206h0c0,5.08,3.36,10.16,10.08,14,12.71,7.34,32.88,7.73,46.4,1.19l12,6.94c8.07,4.66,21.14,4.66,29.21,0,4-2.32,6-5.37,6-8.43V205.46Z"/><path class="cls-4" d="M13.84,199.55a23.83,23.83,0,0,0,7.3,6.2c12.71,7.34,32.88,7.74,46.4,1.2l12,6.94c8.07,4.65,21.14,4.65,29.21,0"/><path class="cls-4" d="M7.05,172l12,6.94a20.71,20.71,0,0,0-6,6"/><path class="cls-1" d="M269.63,202.66l57.49-33.18c5.66-3.27,13.79-4.24,20.92-2.91l-.71-3h15v14.32h0c0,3.05-2,6.1-6,8.43l-10.89,6.28,6.87-.91V206h0c0,5.08-3.35,10.16-10.07,14-12.71,7.34-32.88,7.73-46.41,1.19l-12,6.94c-8.06,4.66-21.14,4.66-29.2,0-4-2.32-6-5.37-6-8.43h0V205.46Z"/><path class="cls-2" d="M349.59,199.46c4.92-6.72,3.15-14.67-5.3-20.5l12-6.94c8.06-4.65,8.06-12.2,0-16.86h0c-8.07-4.65-21.14-4.65-29.2,0L254.6,197c-8.06,4.65-8.06,12.2,0,16.86s21.14,4.65,29.2,0l12-6.94c13.53,6.54,33.7,6.14,46.41-1.2a23.56,23.56,0,0,0,7.36-6.29"/><path class="cls-3" d="M248.55,205.46c0-3.05,2-6.1,6-8.43l72.52-41.87c8.06-4.65,21.13-4.65,29.2,0h0c4,2.33,6,5.38,6,8.43h0v14.32c0,3.05-2,6.1-6,8.43L352,188.86a12,12,0,0,1,.35,2.85h0V206h0c0,5.08-3.35,10.16-10.07,14-12.71,7.34-32.88,7.73-46.41,1.19l-12,6.94c-8.06,4.66-21.14,4.66-29.2,0-4-2.32-6-5.37-6-8.43V205.46Z"/><path class="cls-4" d="M349.52,199.55a23.67,23.67,0,0,1-7.29,6.2c-12.71,7.34-32.88,7.74-46.41,1.2l-12,6.94c-8.06,4.65-21.14,4.65-29.2,0"/><path class="cls-4" d="M356.32,172l-12,6.94a20.87,20.87,0,0,1,6,6"/><polygon class="cls-5" points="315.44 182.34 320.48 193.2 301.67 190.29 315.44 182.34"/></g></g></svg>