<svg xmlns="http://www.w3.org/2000/svg" viewBox="0 0 300 300"><defs><style>.cls-1,.cls-11,.cls-4,.cls-7,.cls-8{fill:none;}.cls-2{fill:#d5dae0;}.cls-3{fill:#f2f4f6;}.cls-4,.cls-5,.cls-6{stroke:#627386;}.cls-11,.cls-12,.cls-13,.cls-14,.cls-4,.cls-5,.cls-6,.cls-7,.cls-8{stroke-linecap:round;stroke-linejoin:round;}.cls-11,.cls-12,.cls-13,.cls-14,.cls-4,.cls-5,.cls-7,.cls-8{stroke-width:2px;}.cls-12,.cls-5{fill:#fff;}.cls-6{fill:#627386;}.cls-12,.cls-13,.cls-14,.cls-7,.cls-8{stroke:#1b6dc6;}.cls-8{stroke-dasharray:0 6.39;}.cls-9{fill:#bde4fd;}.cls-10,.cls-14{fill:#d3edfd;}.cls-11{stroke:#91d2fb;}.cls-13{fill:#91d2fb;}</style></defs><title>alert_supression</title><g id="Layer_2" data-name="Layer 2"><g id="Layer_1-2" data-name="Layer 1"><rect class="cls-1" width="300" height="300"/><path class="cls-2" d="M128.05,190.58v9.75c0,3.24,2.14,6.48,6.43,9,8.57,5,22.47,5,31,0,4.29-2.48,6.43-5.72,6.43-9h0v-9.75Z"/><path class="cls-3" d="M128.05,190.58v9.75c0,3.24,2.14,6.48,6.43,9A31.78,31.78,0,0,0,150,213V190.58Z"/><path class="cls-4" d="M128.05,190.58v9.75c0,3.24,2.14,6.48,6.43,9,8.57,5,22.47,5,31,0,4.29-2.48,6.43-5.72,6.43-9h0v-9.75Z"/><ellipse class="cls-5" cx="150" cy="190.58" rx="21.95" ry="12.67"/><path class="cls-6" d="M155.79,193.19c-.79.46-.73,1.09.06,1.55a2.79,2.79,0,0,0,2.66,0c.78-.45.72-1.1,0-1.55A2.84,2.84,0,0,0,155.79,193.19Z"/><path class="cls-6" d="M141.26,185.08c-.44.25-.43.66,0,.91l9.27,5.07a1.67,1.67,0,0,0,1.51,0c.42-.24.43-.62,0-.87l-8.73-5.38a1.69,1.69,0,0,0-1.56,0Z"/><line class="cls-7" x1="124.72" y1="106.17" x2="124.72" y2="106.17"/><line class="cls-8" x1="124.72" y1="99.78" x2="124.72" y2="90.19"/><line class="cls-7" x1="124.72" y1="87" x2="124.72" y2="87"/><path class="cls-9" d="M124.72,114.79V147c0,3.73,2.47,7.47,7.41,10.32,9.87,5.7,25.87,5.7,35.74,0,4.94-2.85,7.41-6.59,7.41-10.32h0V114.79Z"/><path class="cls-10" d="M124.72,114.79V147c0,3.73,2.47,7.47,7.41,10.32s11.4,4.27,17.87,4.27V114.79Z"/><path class="cls-7" d="M124.72,114.79V147c0,3.73,2.47,7.47,7.41,10.32,9.87,5.7,25.87,5.7,35.74,0,4.94-2.85,7.41-6.59,7.41-10.32h0V114.79Z"/><path class="cls-11" d="M170,138.16a20.26,20.26,0,0,0-2.11-1.38c-4.93-2.85-11.4-4.27-17.87-4.27s-12.94,1.42-17.87,4.27a23.78,23.78,0,0,0-2.13,1.39"/><ellipse class="cls-12" cx="150" cy="114.79" rx="25.28" ry="14.59"/><polygon class="cls-12" points="162.52 100.48 156.26 96.86 150 100.48 143.74 96.86 137.48 100.48 143.74 104.09 137.48 107.71 143.74 111.33 150 107.71 156.26 111.33 162.52 107.71 156.26 104.09 162.52 100.48"/><polygon class="cls-13" points="162.52 107.71 162.52 115.87 156.26 119.48 156.26 111.33 162.52 107.71"/><polygon class="cls-14" points="150 107.71 150 115.87 156.26 119.48 156.26 111.33 150 107.71"/><polygon class="cls-13" points="150 107.71 150 115.87 143.74 119.48 143.74 111.33 150 107.71"/><polygon class="cls-14" points="137.48 107.71 137.48 115.87 143.74 119.48 143.74 111.33 137.48 107.71"/><polygon class="cls-13" points="162.52 100.48 162.52 107.71 156.26 104.09 156.26 104.09 162.52 100.48"/><polygon class="cls-14" points="137.48 100.48 137.48 107.71 143.74 104.09 143.74 104.09 137.48 100.48"/><line class="cls-7" x1="175.28" y1="106.17" x2="175.28" y2="106.17"/><line class="cls-8" x1="175.28" y1="99.78" x2="175.28" y2="90.19"/><line class="cls-7" x1="175.28" y1="87" x2="175.28" y2="87"/></g></g></svg>