<svg xmlns="http://www.w3.org/2000/svg" viewBox="0 0 296 300"><defs><style>.cls-1{fill:#f2f4f6;}.cls-2{fill:#fff;}.cls-3,.cls-4,.cls-5,.cls-6,.cls-8,.cls-9{fill:none;}.cls-3{stroke:#627386;}.cls-3,.cls-4,.cls-5,.cls-6,.cls-8{stroke-linecap:round;stroke-linejoin:round;stroke-width:2px;}.cls-4{stroke:#d5dae0;}.cls-5,.cls-6{stroke:#1b6dc6;}.cls-6{stroke-dasharray:0 6.04;}.cls-7{fill:#bde4fd;}.cls-8{stroke:#b8bfca;}</style></defs><title>cloud_profile</title><g id="Layer_2" data-name="Layer 2"><g id="Layer_1-2" data-name="Layer 1"><path class="cls-1" d="M212.08,147.21l-16.36,1,.33,1.79c-7.2-1.18-15.21-.2-20.9,3l-12.65,7.14c-13.19-6.54-32.55-6.76-45.93-.56l-13.16,1-.14,15h0c0,4.74,2.7,9.51,8.25,13.42L109.6,190l-17-.16-.15,15c0,3.19,2.05,6.4,6.25,8.88,8.39,5,22.06,5.08,30.54.29l76.28-43.08c4.24-2.39,6.38-5.56,6.41-8.75Z"/><path class="cls-2" d="M175.29,138l-12.64,7.14c-14.08-7-35.19-6.76-48.56.79s-14.2,19.72-2.42,28L99,181.11c-8.48,4.79-8.56,12.69-.17,17.64s22.06,5.08,30.55.29L205.67,156c8.49-4.79,8.56-12.69.17-17.64s-22.06-5.08-30.55-.29"/><path class="cls-3" d="M205.84,138.33h0c-8.39-5-22.06-5.08-30.55-.29l-12.64,7.14c-14.08-7-35.19-6.76-48.56.79-7.06,4-10.62,9.27-10.68,14.59h0l-.14,15h0a12.08,12.08,0,0,0,.35,3l-4.6,2.6c-4.24,2.4-6.38,5.57-6.41,8.76l-.15,15c0,3.19,2.05,6.4,6.25,8.88,8.39,5,22.06,5.08,30.54.29l76.28-43.08c4.24-2.39,6.38-5.56,6.41-8.76l.14-15C212.12,144,210,140.81,205.84,138.33Z"/><path class="cls-4" d="M106.7,169.49a23.53,23.53,0,0,0,5,4.59M98.85,198.75c8.39,4.95,22.06,5.08,30.55.29L205.67,156"/><line class="cls-5" x1="120.21" y1="162.2" x2="120.21" y2="162.2"/><line class="cls-6" x1="120.27" y1="156.16" x2="120.59" y2="122.93"/><line class="cls-5" x1="120.62" y1="119.91" x2="120.62" y2="119.91"/><line class="cls-5" x1="167.4" y1="162.65" x2="167.4" y2="162.65"/><line class="cls-6" x1="167.46" y1="156.61" x2="167.78" y2="123.38"/><line class="cls-5" x1="167.81" y1="120.36" x2="167.81" y2="120.36"/><path class="cls-2" d="M167.34,115.7l-22,12.42a2.75,2.75,0,0,1-2.47,0l-21.74-12.83a.75.75,0,0,1,0-1.42l22-12.42a2.75,2.75,0,0,1,2.47,0l21.74,12.83a.75.75,0,0,1,0,1.42"/><path class="cls-5" d="M167.34,115.7l-22,12.42a2.75,2.75,0,0,1-2.47,0l-21.74-12.83a.75.75,0,0,1,0-1.42l22-12.42a2.75,2.75,0,0,1,2.47,0l21.74,12.83A.75.75,0,0,1,167.34,115.7Z"/><path class="cls-7" d="M143.86,127.49a6.79,6.79,0,0,0,0,.9,2.68,2.68,0,0,0,1.45-.27l22-12.42a.79.79,0,0,0,.5-.83l-1.55-.05c-12.32-.11-22.37,5.56-22.43,12.67"/><path class="cls-5" d="M143.86,127.49a6.79,6.79,0,0,0,0,.9,2.68,2.68,0,0,0,1.45-.27l22-12.42a.79.79,0,0,0,.5-.83l-1.55-.05C154,114.71,143.92,120.38,143.86,127.49Z"/><path class="cls-7" d="M148.2,109.59c3.56,2.1,3.53,5.44-.07,7.47a14.29,14.29,0,0,1-12.94-.12c-3.55-2.1-3.52-5.44.07-7.47a14.29,14.29,0,0,1,12.94.12"/><path class="cls-5" d="M148.2,109.59c3.56,2.1,3.53,5.44-.07,7.47a14.29,14.29,0,0,1-12.94-.12c-3.55-2.1-3.52-5.44.07-7.47A14.29,14.29,0,0,1,148.2,109.59Z"/><path class="cls-8" d="M166.89,163.31l-22,12.41a2.7,2.7,0,0,1-2.46,0l-21.75-12.83a.76.76,0,0,1,0-1.43l22-12.41a2.72,2.72,0,0,1,2.47,0l21.74,12.83A.76.76,0,0,1,166.89,163.31Z"/><path class="cls-8" d="M143.4,175.1a8.69,8.69,0,0,0,0,.89,2.57,2.57,0,0,0,1.45-.27l22-12.41a.8.8,0,0,0,.49-.83c-.51,0-1,0-1.54,0C153.51,162.31,143.47,168,143.4,175.1Z"/><path class="cls-8" d="M147.75,157.2c3.55,2.09,3.52,5.44-.07,7.47a14.29,14.29,0,0,1-12.94-.13c-3.55-2.09-3.52-5.44.07-7.47A14.29,14.29,0,0,1,147.75,157.2Z"/><rect class="cls-9" width="296" height="300"/></g></g></svg>