<svg xmlns="http://www.w3.org/2000/svg" viewBox="0 0 300 300"><defs><style>.cls-1,.cls-10,.cls-4{fill:none;}.cls-2,.cls-9{fill:#d5dae0;}.cls-3{fill:#f2f4f6;}.cls-4,.cls-8,.cls-9{stroke:#627386;}.cls-10,.cls-4,.cls-5,.cls-6,.cls-8,.cls-9{stroke-linecap:round;stroke-linejoin:round;stroke-width:2px;}.cls-5,.cls-6{fill:#e9f6fe;}.cls-5{stroke:#1b6dc6;}.cls-6{stroke:#b8bfca;}.cls-7,.cls-8{fill:#fff;}.cls-10{stroke:#91d2fb;}</style></defs><title>data_visualization</title><g id="Layer_2" data-name="Layer 2"><g id="Layer_1-2" data-name="Layer 1"><rect class="cls-1" width="300" height="300"/><path class="cls-2" d="M176.91,140.6v39c0,1.1-1.54,2-3.44,2s-3.44-.89-3.44-2v-39Z"/><path class="cls-3" d="M173.47,140.6H170v39c0,1.1,1.54,2,3.44,2Z"/><path class="cls-2" d="M176.91,152.5V166c0,1.1-1.54,2-3.44,2s-3.44-.89-3.44-2V152.5Z"/><path class="cls-4" d="M176.91,141.18v38.43c0,1.1-1.54,2-3.44,2s-3.44-.89-3.44-2V141.18"/><path class="cls-2" d="M122.53,172v39c0,1.1-1.54,2-3.44,2s-3.45-.89-3.45-2V172Z"/><path class="cls-3" d="M119.09,172h-3.45v39c0,1.1,1.55,2,3.45,2Z"/><path class="cls-2" d="M122.53,183.9v13.54c0,1.09-1.54,2-3.44,2s-3.45-.89-3.45-2V183.9Z"/><path class="cls-4" d="M122.53,172.58V211c0,1.1-1.54,2-3.44,2s-3.45-.89-3.45-2V172.58"/><polygon class="cls-5" points="178.9 145.67 191.81 153.12 121.1 193.95 108.19 186.5 178.9 145.67"/><path class="cls-3" d="M177.85,87.2h0a1.94,1.94,0,0,0-2,.15l-64.61,37.3a7.35,7.35,0,0,0-3,5.84v57L121.1,195v-5.49l-6.92-4h0l8.82-12,55.9-32.27V97.37l4.93-6.71Z"/><line class="cls-6" x1="114.18" y1="185.46" x2="108.19" y2="182"/><path class="cls-7" d="M111.24,124.66l64.61-37.3a1.94,1.94,0,0,1,2-.15h0l6,3.46L180.16,95v38.28a7.31,7.31,0,0,1-3,5.83l-24.52,14.15L108.72,127.9A6.63,6.63,0,0,1,111.24,124.66Z"/><path class="cls-4" d="M177.85,87.2h0a1.94,1.94,0,0,0-2,.15l-64.61,37.3a7.35,7.35,0,0,0-3,5.84v57L121.1,195v-5.49l-6.92-4h0l8.82-12,55.9-32.27V97.37l4.93-6.71Z"/><polyline class="cls-8" points="184.89 144.64 191.81 148.63 121.1 189.46 114.18 185.46"/><polygon class="cls-9" points="191.81 154.12 191.81 148.63 121.1 189.46 121.1 194.95 191.81 154.12"/><path class="cls-9" d="M184.89,144.64V93.13c0-2.25-1.37-3.28-3-2.31l-64.61,37.3a7.33,7.33,0,0,0-3,5.83v51.51"/><path class="cls-8" d="M118.66,174.72V135.46a3.46,3.46,0,0,1,1.73-3L178.68,98.8a1.16,1.16,0,0,1,1.73,1v39.26a3.46,3.46,0,0,1-1.73,3l-58.29,33.66A1.16,1.16,0,0,1,118.66,174.72Z"/><polygon class="cls-10" points="169.5 130.07 163.49 133.54 163.49 125.53 169.5 122.06 169.5 130.07"/><ellipse class="cls-10" cx="132.4" cy="139.95" rx="4.34" ry="2.46" transform="translate(-48.22 206.98) rotate(-66.95)"/><ellipse class="cls-10" cx="132.4" cy="155.02" rx="4.34" ry="2.46" transform="translate(-62.09 216.15) rotate(-66.95)"/><ellipse class="cls-10" cx="149.36" cy="137.69" rx="4.34" ry="2.46" transform="translate(-35.82 221.21) rotate(-66.95)"/><path class="cls-10" d="M149.36,133.92h0c0-2.08-1.27-3-2.83-2.13l-11.31,6.53"/><path class="cls-10" d="M149.36,141.46h0a6.77,6.77,0,0,1-2.83,5.4l-11.31,6.53"/><line class="cls-10" x1="152.18" y1="136.06" x2="163.49" y2="129.53"/><line class="cls-6" x1="114.18" y1="185.46" x2="184.89" y2="144.64"/><polyline class="cls-4" points="184.89 144.64 191.81 148.63 121.1 189.46 114.18 185.46"/><path class="cls-4" d="M184.89,144.64V93.13c0-2.25-1.37-3.28-3-2.31l-64.61,37.3a7.33,7.33,0,0,0-3,5.83v51.51"/></g></g></svg>