<svg xmlns="http://www.w3.org/2000/svg" viewBox="0 0 300 300"><defs><style>.cls-1,.cls-3,.cls-6,.cls-7{fill:none;}.cls-2{fill:#d5dae0;}.cls-3{stroke:#627386;}.cls-3,.cls-6,.cls-7{stroke-linecap:round;stroke-linejoin:round;stroke-width:2px;}.cls-4{fill:#fff;}.cls-5{fill:#f2f4f6;}.cls-6,.cls-7{stroke:#1b6dc6;}.cls-6{stroke-dasharray:0 6;}.cls-8{fill:#bde4fd;}.cls-9{fill:#91d2fb;}</style></defs><title>functions</title><g id="Layer_2" data-name="Layer 2"><g id="Layer_1-2" data-name="Layer 1"><rect class="cls-1" width="300" height="300"/><path class="cls-2" d="M140.16,141.63l-29.32,16.92a2.21,2.21,0,0,1-1.77.1l-2.25-.87A4.76,4.76,0,0,0,103,158l-13.89,8c-1,.59-1.18,1.52-.37,2.21l1.51,1.3c.37.32.3.75-.17,1L87.64,172a1,1,0,0,0,0,1.79l34.55,21.65,55.62-32.12-34.54-21.64a3.41,3.41,0,0,0-3.11,0"/><path class="cls-3" d="M140.16,141.63l-29.32,16.92a2.21,2.21,0,0,1-1.77.1l-2.25-.87A4.76,4.76,0,0,0,103,158l-13.89,8c-1,.59-1.18,1.52-.37,2.21l1.51,1.3c.37.32.3.75-.17,1L87.64,172a1,1,0,0,0,0,1.79l34.55,21.65,55.62-32.12-34.54-21.64A3.41,3.41,0,0,0,140.16,141.63Z"/><path class="cls-2" d="M212.36,183.31a1,1,0,0,0,0-1.8l-34.55-18.24-55.62,32.12,34.54,18.24a3.47,3.47,0,0,0,3.11,0Z"/><path class="cls-3" d="M212.36,183.31a1,1,0,0,0,0-1.8l-34.55-18.24-55.62,32.12,34.54,18.24a3.47,3.47,0,0,0,3.11,0Z"/><polygon class="cls-4" points="126.53 185.39 159.94 201.82 206.53 174.92 173.12 158.49 126.53 185.39"/><polygon class="cls-3" points="126.53 185.39 159.94 201.82 206.53 174.92 173.12 158.49 126.53 185.39"/><polygon class="cls-5" points="159.94 208.49 159.94 201.82 206.53 174.92 206.53 181.59 159.94 208.49"/><polygon class="cls-3" points="159.94 208.49 159.94 201.82 206.53 174.92 206.53 181.59 159.94 208.49"/><polygon class="cls-5" points="159.94 208.49 159.94 201.82 126.53 185.39 126.53 192.05 159.94 208.49"/><polygon class="cls-3" points="159.94 208.49 159.94 201.82 126.53 185.39 126.53 192.05 159.94 208.49"/><polygon class="cls-5" points="201.83 177.64 168.42 161.2 173.12 158.49 206.53 174.92 201.83 177.64"/><polygon class="cls-3" points="201.83 177.64 168.42 161.2 173.12 158.49 206.53 174.92 201.83 177.64"/><line class="cls-6" x1="206.53" y1="130.92" x2="206.53" y2="87"/><line class="cls-6" x1="126.53" y1="138.53" x2="126.53" y2="94.61"/><polygon class="cls-4" points="126.53 138.53 159.94 157.82 206.53 130.92 173.12 111.63 126.53 138.53"/><polygon class="cls-7" points="126.53 138.53 159.94 157.82 206.53 130.92 173.12 111.63 126.53 138.53"/><polygon class="cls-8" points="201.83 133.64 168.42 114.35 173.12 111.63 206.53 130.92 201.83 133.64"/><polygon class="cls-7" points="201.83 133.64 168.42 114.35 173.12 111.63 206.53 130.92 201.83 133.64"/><path class="cls-9" d="M161.28,143.74a2.15,2.15,0,0,1,2.16.08l.43.25a3.47,3.47,0,0,0,3.22-.18l4.32-2.49a4.35,4.35,0,0,1,3.19-.6c-.44-.64.05-1.27,1-1.84l4.34-2.51c1.06-.61,1.08-1.39.28-1.85l-.42-.24c-.8-.46-.7-.92-.14-1.25a2.14,2.14,0,0,1,2.14.1l.42.24c1.88,1.09,2.21,2.93-.12,4.27l-4,2.32c-.57.33-1,.72-.8,1.11s.28.76-.26,1.07a2.5,2.5,0,0,1-1.86.15,3.07,3.07,0,0,0-1.92.47l-4,2.33a7.92,7.92,0,0,1-7.38.05l-.42-.24c-.8-.46-.71-.92-.17-1.24"/><path class="cls-9" d="M153.54,128.64a2.6,2.6,0,0,1,1.86-.15,3,3,0,0,0,1.92-.46l4-2.32a8,8,0,0,1,7.4-.06l.42.24c.8.46.71.92.17,1.23a2.13,2.13,0,0,1-2.16-.08l-.43-.24a3.4,3.4,0,0,0-3.19.16l-4.35,2.51a4.4,4.4,0,0,1-3.19.6c.45.63,0,1.27-1,1.84l-4.33,2.5c-1.05.61-1.1,1.39-.3,1.85l.42.25c.8.46.71.92.14,1.25a2.14,2.14,0,0,1-2.14-.1l-.42-.24c-1.88-1.09-2.23-2.92.1-4.26l4-2.33c.56-.33,1-.72.79-1.12s-.28-.76.26-1.07"/><path class="cls-2" d="M162.18,188.84a2.05,2.05,0,0,1,2.08.08l.4.23a3.32,3.32,0,0,0,3.09-.17l4.15-2.4A4.23,4.23,0,0,1,175,186c-.43-.61,0-1.22,1-1.77l4.17-2.41c1-.58,1-1.33.27-1.77l-.4-.23c-.77-.45-.68-.89-.14-1.2a2,2,0,0,1,2,.09l.41.23c1.8,1.05,2.12,2.82-.11,4.11l-3.86,2.22c-.54.32-.92.69-.77,1.07s.27.73-.25,1a2.44,2.44,0,0,1-1.78.14,3,3,0,0,0-1.85.44l-3.87,2.24a7.63,7.63,0,0,1-7.09.06l-.4-.24c-.77-.44-.68-.88-.16-1.18"/><path class="cls-2" d="M154.75,174.34a2.5,2.5,0,0,1,1.78-.15,2.84,2.84,0,0,0,1.85-.44l3.86-2.22a7.65,7.65,0,0,1,7.1-.07l.41.24c.76.44.67.88.15,1.18a2.06,2.06,0,0,1-2.07-.08l-.41-.23a3.25,3.25,0,0,0-3.06.15l-4.18,2.41a4.2,4.2,0,0,1-3.06.58c.43.61-.05,1.22-1,1.77L152,179.87c-1,.59-1.06,1.34-.3,1.79l.41.23c.76.44.68.89.13,1.2a2,2,0,0,1-2.05-.09l-.4-.24c-1.81-1-2.15-2.8.08-4.09l3.88-2.23c.55-.32.93-.7.77-1.07s-.27-.73.25-1"/></g></g></svg>