<svg xmlns="http://www.w3.org/2000/svg" viewBox="0 0 300 299.17"><defs><style>.cls-1,.cls-11,.cls-2,.cls-3,.cls-4,.cls-5,.cls-9{fill:none;}.cls-10,.cls-2,.cls-3,.cls-4{stroke:#1b6dc6;}.cls-10,.cls-11,.cls-12,.cls-13,.cls-2,.cls-3,.cls-4,.cls-5,.cls-9{stroke-linecap:round;stroke-linejoin:round;stroke-width:2px;}.cls-3{stroke-dasharray:0 5.83;}.cls-4{stroke-dasharray:0 5.83;}.cls-5{stroke:#b8bfca;}.cls-13,.cls-6{fill:#d5dae0;}.cls-7{fill:#f2f4f6;}.cls-10,.cls-8{fill:#fff;}.cls-12,.cls-13,.cls-9{stroke:#627386;}.cls-11{stroke:#91d2fb;}.cls-12{fill:#b8bfca;}</style></defs><title>system_logs</title><g id="Layer_2" data-name="Layer 2"><g id="Layer_1-2" data-name="Layer 1"><rect class="cls-1" width="300" height="299.17"/><line class="cls-2" x1="212.58" y1="119.59" x2="212.58" y2="119.59"/><line class="cls-3" x1="212.58" y1="125.42" x2="212.58" y2="151.67"/><line class="cls-2" x1="212.58" y1="154.59" x2="212.58" y2="154.59"/><line class="cls-2" x1="123.97" y1="144.35" x2="123.97" y2="144.35"/><line class="cls-4" x1="123.97" y1="138.52" x2="123.97" y2="112.27"/><line class="cls-2" x1="123.97" y1="109.35" x2="123.97" y2="109.35"/><line class="cls-5" x1="175.2" y1="173.93" x2="123.97" y2="144.35"/><path class="cls-6" d="M175.2,182.57v-8.64c-20.22,3.73-37.39,23.83-37.39,23.83v6.4Z"/><path class="cls-6" d="M175.2,173.93c20.22-19.62,37.38-19.34,37.38-19.34V161L175.2,182.57Z"/><polygon class="cls-7" points="137.81 204.16 86.58 174.58 86.58 168.19 137.81 197.76 137.81 204.16"/><path class="cls-8" d="M137.81,197.76s1.92-2.25,5.24-5.38c1.58-1.5,3.48-3.2,5.64-4.95,1.84-1.49,3.86-3,6-4.48a71,71,0,0,1,6.42-3.89A56.91,56.91,0,0,1,168,176a43.35,43.35,0,0,1,7.23-2L166.66,169l-8.54-4.93-8.54-4.93-8.53-4.93-8.54-4.93L124,144.35a43,43,0,0,0-7.22,2,56.35,56.35,0,0,0-6.84,3.11,71,71,0,0,0-6.42,3.89c-2.17,1.47-4.19,3-6,4.48-2.17,1.75-4.07,3.45-5.65,5-3.31,3.14-5.24,5.38-5.24,5.38l8.54,4.93,8.54,4.93L112.2,183l8.54,4.93,8.53,4.93Z"/><path class="cls-8" d="M175.2,173.93c1.8-1.75,3.58-3.34,5.32-4.79q2.92-2.41,5.7-4.32a70.62,70.62,0,0,1,6.07-3.78,65,65,0,0,1,6.45-3.1,50.15,50.15,0,0,1,6.79-2.26,29.81,29.81,0,0,1,7.05-1.09l-8.53-4.93-8.54-4.93L187,139.8l-8.54-4.93-8.53-4.93L161.36,125a29.42,29.42,0,0,0-7.06,1.08,50.61,50.61,0,0,0-6.79,2.26,63.83,63.83,0,0,0-6.44,3.1c-1.94,1.08-4,2.32-6.08,3.78-1.85,1.28-3.75,2.71-5.7,4.33-1.74,1.44-3.52,3-5.32,4.78l8.54,4.93,8.54,4.93,8.53,4.93,8.54,4.93,8.54,4.93Z"/><path class="cls-5" d="M175.2,182.57v-8.64c-20.22,3.73-37.39,23.83-37.39,23.83v6.4Z"/><path class="cls-5" d="M175.2,173.93c20.22-19.62,37.38-19.34,37.38-19.34V161L175.2,182.57Z"/><polygon class="cls-5" points="137.81 204.16 86.58 174.58 86.58 168.19 137.81 197.76 137.81 204.16"/><path class="cls-5" d="M137.81,197.76s1.92-2.25,5.24-5.38c1.58-1.5,3.48-3.2,5.64-4.95,1.84-1.49,3.86-3,6-4.48a71,71,0,0,1,6.42-3.89A56.91,56.91,0,0,1,168,176a43.35,43.35,0,0,1,7.23-2L166.66,169l-8.54-4.93-8.54-4.93-8.53-4.93-8.54-4.93L124,144.35a43,43,0,0,0-7.22,2,56.35,56.35,0,0,0-6.84,3.11,71,71,0,0,0-6.42,3.89c-2.17,1.47-4.19,3-6,4.48-2.17,1.75-4.07,3.45-5.65,5-3.31,3.14-5.24,5.38-5.24,5.38l8.54,4.93,8.54,4.93L112.2,183l8.54,4.93,8.53,4.93Z"/><path class="cls-5" d="M175.2,173.93c1.8-1.75,3.58-3.34,5.32-4.79q2.92-2.41,5.7-4.32a70.62,70.62,0,0,1,6.07-3.78,65,65,0,0,1,6.45-3.1,50.15,50.15,0,0,1,6.79-2.26,29.81,29.81,0,0,1,7.05-1.09l-8.53-4.93-8.54-4.93L187,139.8l-8.54-4.93-8.53-4.93L161.36,125a29.42,29.42,0,0,0-7.06,1.08,50.61,50.61,0,0,0-6.79,2.26,63.83,63.83,0,0,0-6.44,3.1c-1.94,1.08-4,2.32-6.08,3.78-1.85,1.28-3.75,2.71-5.7,4.33-1.74,1.44-3.52,3-5.32,4.78l8.54,4.93,8.54,4.93,8.53,4.93,8.54,4.93,8.54,4.93Z"/><path class="cls-5" d="M135.61,186.42c1.94-1.78,4.27-3.78,6.91-5.78a81.49,81.49,0,0,1,7.46-5,60.61,60.61,0,0,1,8.06-4"/><path class="cls-5" d="M127.07,181.49c1.94-1.78,4.27-3.78,6.91-5.78a81.68,81.68,0,0,1,7.47-5,59.89,59.89,0,0,1,8.05-4"/><path class="cls-5" d="M118.53,176.57c2-1.79,4.28-3.79,6.92-5.78a78.26,78.26,0,0,1,7.46-5,61.09,61.09,0,0,1,8.05-4"/><path class="cls-5" d="M110,171.64c2-1.79,4.28-3.78,6.92-5.78a79.55,79.55,0,0,1,7.46-5.05,61.09,61.09,0,0,1,8-4"/><path class="cls-5" d="M101.46,166.71c1.94-1.79,4.27-3.78,6.91-5.78a79.55,79.55,0,0,1,7.46-5.05,61.84,61.84,0,0,1,8.06-4"/><path class="cls-5" d="M173.09,163.31a80,80,0,0,1,7-5,66.06,66.06,0,0,1,7.52-4.14,55.41,55.41,0,0,1,8-3l-17.07-9.86a55,55,0,0,0-8,3,67.84,67.84,0,0,0-7.52,4.15,76.33,76.33,0,0,0-7,5Z"/><path class="cls-5" d="M147.48,148.52a76.33,76.33,0,0,1,7-5,67.84,67.84,0,0,1,7.52-4.15,56.16,56.16,0,0,1,8-3"/><path class="cls-5" d="M138.94,143.59a77.73,77.73,0,0,1,7-5,67.84,67.84,0,0,1,7.52-4.15,56.61,56.61,0,0,1,8-3"/><path class="cls-9" d="M212.55,154.59h0l-8.53-4.93-8.54-4.93L187,139.8l-8.54-4.93-8.53-4.93L161.36,125a29.42,29.42,0,0,0-7.06,1.08,50.61,50.61,0,0,0-6.79,2.26,63.83,63.83,0,0,0-6.44,3.1c-1.94,1.08-4,2.32-6.08,3.78-1.85,1.28-3.75,2.71-5.7,4.33-1.74,1.44-3.52,3-5.32,4.78a43,43,0,0,0-7.22,2,56.35,56.35,0,0,0-6.84,3.11,71,71,0,0,0-6.42,3.89c-2.17,1.47-4.19,3-6,4.48-2.17,1.75-4.07,3.45-5.65,5-3.31,3.14-5.24,5.38-5.24,5.38v6.4l51.23,29.58,37.39-21.59L212.58,161v-6.4Z"/><path class="cls-9" d="M204.05,149.66l-8.54-4.93L187,139.8l-8.54-4.93-8.53-4.93L161.36,125a29.42,29.42,0,0,0-7.06,1.08,50.61,50.61,0,0,0-6.79,2.26,63.83,63.83,0,0,0-6.44,3.1c-1.94,1.08-4,2.32-6.08,3.78-1.85,1.28-3.75,2.71-5.7,4.33-1.74,1.44-3.52,3-5.32,4.78a43,43,0,0,0-7.22,2,56.35,56.35,0,0,0-6.84,3.11,71,71,0,0,0-6.42,3.89c-2.17,1.47-4.19,3-6,4.48-2.17,1.75-4.07,3.45-5.65,5-3.31,3.14-5.24,5.38-5.24,5.38l8.54,4.93,8.54,4.93L112.2,183l8.54,4.93,8.53,4.93,8.54,4.93s1.92-2.25,5.24-5.38c1.58-1.5,3.48-3.2,5.64-4.95,1.84-1.49,3.86-3,6-4.48a71,71,0,0,1,6.42-3.89A56.91,56.91,0,0,1,168,176a43.35,43.35,0,0,1,7.23-2c1.8-1.75,3.58-3.34,5.32-4.79q2.92-2.41,5.7-4.32a70.62,70.62,0,0,1,6.07-3.78,65,65,0,0,1,6.45-3.1,50.15,50.15,0,0,1,6.79-2.26,29.81,29.81,0,0,1,7.05-1.09Z"/><path class="cls-10" d="M175.2,138.93c1.8-1.75,3.58-3.34,5.32-4.79q2.92-2.41,5.7-4.32a70.62,70.62,0,0,1,6.07-3.78,65,65,0,0,1,6.45-3.1,50.15,50.15,0,0,1,6.79-2.26,29.81,29.81,0,0,1,7.05-1.09l-8.53-4.93-8.54-4.93L187,104.8l-8.54-4.93-8.53-4.93L161.36,90a29.42,29.42,0,0,0-7.06,1.08,50.61,50.61,0,0,0-6.79,2.26,63.83,63.83,0,0,0-6.44,3.1c-1.94,1.08-4,2.32-6.08,3.78-1.85,1.28-3.75,2.71-5.7,4.33-1.74,1.44-3.52,3-5.32,4.78l8.54,4.93,8.54,4.93,8.53,4.93,8.54,4.93,8.54,4.93Z"/><path class="cls-11" d="M173.09,128.31a80,80,0,0,1,7-5,66.06,66.06,0,0,1,7.52-4.14,55.41,55.41,0,0,1,8-3"/><path class="cls-11" d="M164.55,123.38a80.08,80.08,0,0,1,7-5,67.66,67.66,0,0,1,7.52-4.14,54.55,54.55,0,0,1,8-3"/><path class="cls-11" d="M156,118.45a76.33,76.33,0,0,1,7-5,67.84,67.84,0,0,1,7.52-4.15,55,55,0,0,1,8-3"/><path class="cls-11" d="M138.94,108.59a77.73,77.73,0,0,1,7-5,67.84,67.84,0,0,1,7.52-4.15,56.61,56.61,0,0,1,8-3l8.54,4.93a56.16,56.16,0,0,0-8,3,67.84,67.84,0,0,0-7.52,4.15,76.33,76.33,0,0,0-7,5Z"/><polygon class="cls-12" points="137.81 204.16 212.59 160.99 212.59 165.99 137.81 209.16 137.81 204.16"/><polygon class="cls-13" points="86.58 179.58 137.81 209.16 137.81 204.16 86.58 174.58 86.58 179.58"/></g></g></svg>