<?xml version="1.0" encoding="UTF-8"?>
<svg width="10px" height="10px" viewBox="0 0 10 10" version="1.1" xmlns="http://www.w3.org/2000/svg" xmlns:xlink="http://www.w3.org/1999/xlink">
    <!-- Generator: Sketch 53.2 (72643) - https://sketchapp.com -->
    <title>grid</title>
    <desc>Created with Sketch.</desc>
    <defs>
        <path d="M2,1 L4,1 C4.55228475,1 5,1.44771525 5,2 L5,4 C5,4.55228475 4.55228475,5 4,5 L2,5 C1.44771525,5 1,4.55228475 1,4 L1,2 C1,1.44771525 1.44771525,1 2,1 Z M2,7 L4,7 C4.55228475,7 5,7.44771525 5,8 L5,10 C5,10.5522847 4.55228475,11 4,11 L2,11 C1.44771525,11 1,10.5522847 1,10 L1,8 C1,7.44771525 1.44771525,7 2,7 Z M8,1 L10,1 C10.5522847,1 11,1.44771525 11,2 L11,4 C11,4.55228475 10.5522847,5 10,5 L8,5 C7.44771525,5 7,4.55228475 7,4 L7,2 C7,1.44771525 7.44771525,1 8,1 Z M8,7 L10,7 C10.5522847,7 11,7.44771525 11,8 L11,10 C11,10.5522847 10.5522847,11 10,11 L8,11 C7.44771525,11 7,10.5522847 7,10 L7,8 C7,7.44771525 7.44771525,7 8,7 Z" id="path-1"></path>
    </defs>
    <g id="Symbols" stroke="none" stroke-width="1" fill="none" fill-rule="evenodd">
        <g id="Standard-/-Dashboard" transform="translate(-1.000000, -1.000000)">
            <mask id="mask-2" fill="white">
                <use xlink:href="#path-1"></use>
            </mask>
            <use id="grid" fill="#1B2025" xlink:href="#path-1"></use>
        </g>
    </g>
</svg>