<?xml version="1.0" encoding="UTF-8"?>
<svg width="12px" height="12px" viewBox="0 0 12 12" version="1.1" xmlns="http://www.w3.org/2000/svg" xmlns:xlink="http://www.w3.org/1999/xlink">
    <!-- Generator: Sketch 53.2 (72643) - https://sketchapp.com -->
    <title>calendar</title>
    <desc>Created with Sketch.</desc>
    <defs>
        <path d="M9.99804688,2.00109863 L11,2.00109863 C11.552,2.00109863 12,2.44909863 12,3.00109863 L12,11 C12,11.552 11.552,12 11,12 L1,12 C0.448,12 0,11.552 0,11 L0,3.00109863 C0,2.44909863 0.448,2.00109863 1,2.00109863 L2.00396729,2.00109863 L2.00396729,1.25024414 C2.00396729,0.836244141 2.33996729,0.500244141 2.75396729,0.500244141 C3.16796729,0.500244141 3.50396729,0.836244141 3.50396729,1.25024414 L3.50396729,2.00109863 L8.49804688,2.00109863 L8.49804688,1.25024414 C8.49804688,0.836244141 8.83404688,0.500244141 9.24804688,0.500244141 C9.66204687,0.500244141 9.99804688,0.836244141 9.99804688,1.25024414 L9.99804688,2.00109863 Z M1.75,5 C1.61192881,5 1.5,5.11192881 1.5,5.25 L1.5,10.25 C1.5,10.3880712 1.61192881,10.5 1.75,10.5 L10.25,10.5 C10.3880712,10.5 10.5,10.3880712 10.5,10.25 L10.5,5.25 C10.5,5.11192881 10.3880712,5 10.25,5 L1.75,5 Z" id="path-1"></path>
    </defs>
    <g id="Symbols" stroke="none" stroke-width="1" fill="none" fill-rule="evenodd">
        <g id="Standard-/-Calendar">
            <mask id="mask-2" fill="white">
                <use xlink:href="#path-1"></use>
            </mask>
            <use id="calendar" fill="#1B2025" xlink:href="#path-1"></use>
        </g>
    </g>
</svg>