<?xml version="1.0" encoding="UTF-8"?>
<svg width="12px" height="11px" viewBox="0 0 12 11" version="1.1" xmlns="http://www.w3.org/2000/svg" xmlns:xlink="http://www.w3.org/1999/xlink">
    <!-- Generator: Sketch 53.2 (72643) - https://sketchapp.com -->
    <title>camera</title>
    <desc>Created with Sketch.</desc>
    <defs>
        <path d="M6,9.499 C4.347,9.499 3.002,8.154 3.002,6.5 C3.002,4.847 4.347,3.502 6,3.502 C7.653,3.502 8.998,4.847 8.998,6.5 C8.998,8.154 7.653,9.499 6,9.499 M10.5,2 L9,2 L9,1 C9,0.448 8.553,0 8,0 L4,0 C3.447,0 3,0.448 3,1 L3,2 L1.5,2 C0.672,2 0,2.671 0,3.5 L0,9.5 C0,10.329 0.672,11 1.5,11 L10.5,11 C11.328,11 12,10.329 12,9.5 L12,3.5 C12,2.671 11.328,2 10.5,2 M5.999,4.75 C5.034,4.75 4.249,5.535 4.249,6.5 C4.249,7.465 5.034,8.25 5.999,8.25 C6.964,8.25 7.749,7.465 7.749,6.5 C7.749,5.535 6.964,4.75 5.999,4.75" id="path-1"></path>
    </defs>
    <g id="Symbols" stroke="none" stroke-width="1" fill="none" fill-rule="evenodd">
        <g id="Standard-/-Snapshot">
            <mask id="mask-2" fill="white">
                <use xlink:href="#path-1"></use>
            </mask>
            <use id="camera" fill="#1B2025" xlink:href="#path-1"></use>
        </g>
    </g>
</svg>