<?xml version="1.0" encoding="UTF-8"?>
<svg width="12px" height="12px" viewBox="0 0 12 12" version="1.1" xmlns="http://www.w3.org/2000/svg" xmlns:xlink="http://www.w3.org/1999/xlink">
    <!-- Generator: Sketch 53.2 (72643) - https://sketchapp.com -->
    <title>clock</title>
    <desc>Created with Sketch.</desc>
    <defs>
        <path d="M6,0 C9.314,0 12,2.687 12,6 C12,9.313 9.314,12 6,12 C2.687,12 0,9.313 0,6 C0,2.687 2.687,0 6,0 Z M6,10.5 C8.481,10.5 10.5,8.481 10.5,6 C10.5,3.519 8.481,1.5 6,1.5 C3.519,1.5 1.5,3.519 1.5,6 C1.5,8.481 3.519,10.5 6,10.5 Z M8.5,5.75 C8.914,5.75 9.25,6.086 9.25,6.5 C9.25,6.914 8.914,7.25 8.5,7.25 L6,7.25 C5.587,7.25 5.25,6.914 5.25,6.5 L5.25,3.5 C5.25,3.086 5.586,2.75 6,2.75 C6.414,2.75 6.75,3.086 6.75,3.5 L6.75,5.75 L8.5,5.75 Z" id="path-1"></path>
    </defs>
    <g id="Symbols" stroke="none" stroke-width="1" fill="none" fill-rule="evenodd">
        <g id="Standard-/-Time">
            <mask id="mask-2" fill="white">
                <use xlink:href="#path-1"></use>
            </mask>
            <use id="clock" fill="#1B2025" xlink:href="#path-1"></use>
        </g>
    </g>
</svg>