<?xml version="1.0" encoding="UTF-8"?>
<svg width="12px" height="10px" viewBox="0 0 12 10" version="1.1" xmlns="http://www.w3.org/2000/svg" xmlns:xlink="http://www.w3.org/1999/xlink">
    <!-- Generator: Sketch 53.2 (72643) - https://sketchapp.com -->
    <title>console</title>
    <desc>Created with Sketch.</desc>
    <defs>
        <path d="M8.4961,6.0137 L5.5041,6.0047 C5.2251,6.0037 5.0011,5.7777 5.0021,5.4987 C5.0021,5.2207 5.2281,4.9957 5.5071,4.9967 L8.4991,5.0057 C8.7771,5.0067 9.0021,5.2327 9.0021,5.5117 C9.0011,5.7897 8.7741,6.0147 8.4961,6.0137 M3.8551,4.8537 L2.8691,5.8347 C2.6721,6.0307 2.3521,6.0297 2.1561,5.8317 C1.9601,5.6347 1.9611,5.3157 2.1581,5.1197 L2.7921,4.4897 L2.1621,3.8567 C1.9661,3.6587 1.9671,3.3397 2.1641,3.1437 C2.3621,2.9477 2.6811,2.9487 2.8771,3.1457 L3.8581,4.1327 C3.9571,4.2327 4.0061,4.3637 4.0041,4.4937 C4.0051,4.6237 3.9561,4.7547 3.8551,4.8537 M11.0001,0.9997 L1.0001,0.9997 C0.4471,0.9997 0.0001,1.4477 0.0001,1.9997 L0.0001,9.9997 C0.0001,10.5527 0.4471,10.9997 1.0001,10.9997 L11.0001,10.9997 C11.5531,10.9997 12.0001,10.5527 12.0001,9.9997 L12.0001,1.9997 C12.0001,1.4477 11.5531,0.9997 11.0001,0.9997" id="path-1"></path>
    </defs>
    <g id="Symbols" stroke="none" stroke-width="1" fill="none" fill-rule="evenodd">
        <g id="Standard-/-Console" transform="translate(0.000000, -1.000000)">
            <mask id="mask-2" fill="white">
                <use xlink:href="#path-1"></use>
            </mask>
            <use id="console" fill="#1B2025" xlink:href="#path-1"></use>
        </g>
    </g>
</svg>