<?xml version="1.0" encoding="UTF-8"?>
<svg width="12px" height="12px" viewBox="0 0 12 12" version="1.1" xmlns="http://www.w3.org/2000/svg" xmlns:xlink="http://www.w3.org/1999/xlink">
    <!-- Generator: Sketch 53.2 (72643) - https://sketchapp.com -->
    <title>spu</title>
    <desc>Created with Sketch.</desc>
    <defs>
        <path d="M11.25,7.252 C11.664,7.252 12,7.588 12,8.002 C12,8.416 11.664,8.752 11.25,8.752 L10.476,8.752 C10.36,9.652 9.652,10.357 8.752,10.471 L8.752,11.25 C8.752,11.664 8.415,12 8.002,12 C7.588,12 7.252,11.664 7.252,11.25 L7.252,10.496 L4.748,10.496 L4.748,11.25 C4.748,11.664 4.412,12 3.998,12 C3.584,12 3.248,11.664 3.248,11.25 L3.248,10.471 C2.35,10.355 1.644,9.65 1.528,8.752 L0.75,8.752 C0.336,8.752 0,8.416 0,8.002 C0,7.588 0.336,7.252 0.75,7.252 L1.502,7.252 L1.502,4.748 L0.75,4.748 C0.336,4.748 0,4.412 0,3.998 C0,3.584 0.336,3.248 0.75,3.248 L1.527,3.248 C1.64,2.346 2.347,1.637 3.248,1.522 L3.248,0.75 C3.248,0.336 3.584,0 3.998,0 C4.412,0 4.748,0.336 4.748,0.75 L4.748,1.496 L7.252,1.496 L7.252,0.75 C7.252,0.336 7.588,0 8.002,0 C8.415,0 8.752,0.336 8.752,0.75 L8.752,1.521 C9.655,1.635 10.364,2.345 10.477,3.248 L11.25,3.248 C11.664,3.248 12,3.584 12,3.998 C12,4.412 11.664,4.748 11.25,4.748 L10.502,4.748 L10.502,7.252 L11.25,7.252 Z M4.748,9 L7.252,9 L7.996,9 C8.548,9 8.996,8.552 8.996,8 L8.996,7.252 L8.996,4.748 L8.996,4.004 C8.996,3.452 8.548,3.004 7.996,3.004 L7.252,3.004 L4.748,3.004 L4,3.004 C3.448,3.004 3,3.452 3,4.004 L3,4.748 L3,7.252 L3,8 C3,8.552 3.448,9 4,9 L4.748,9 Z M7.4941,7.9888 L4.5101,7.9888 C4.2331,7.9888 4.0101,7.7648 4.0101,7.4888 L4.0101,4.5038 C4.0101,4.2278 4.2331,4.0038 4.5101,4.0038 L7.4941,4.0038 C7.7701,4.0038 7.9941,4.2278 7.9941,4.5038 L7.9941,7.4888 C7.9941,7.7648 7.7701,7.9888 7.4941,7.9888 Z" id="path-1"></path>
    </defs>
    <g id="Symbols" stroke="none" stroke-width="1" fill="none" fill-rule="evenodd">
        <g id="Standard-/-CPU">
            <mask id="mask-2" fill="white">
                <use xlink:href="#path-1"></use>
            </mask>
            <use id="spu" fill="#1B2025" xlink:href="#path-1"></use>
        </g>
    </g>
</svg>