<?xml version="1.0" encoding="UTF-8"?>
<svg width="12px" height="12px" viewBox="0 0 12 12" version="1.1" xmlns="http://www.w3.org/2000/svg" xmlns:xlink="http://www.w3.org/1999/xlink">
    <!-- Generator: Sketch 53.2 (72643) - https://sketchapp.com -->
    <title>exit</title>
    <desc>Created with Sketch.</desc>
    <defs>
        <path d="M11.8545,5.646 C12.0495,5.841 12.0495,6.158 11.8545,6.354 L8.7115,9.496 C8.5165,9.691 8.2605,9.789 8.0045,9.789 C7.7485,9.789 7.4925,9.691 7.2975,9.496 C6.9065,9.105 6.9065,8.473 7.2975,8.082 L8.3795,7 L4.0005,7 C3.4485,7 3.0005,6.552 3.0005,6 C3.0005,5.447 3.4485,5 4.0005,5 L8.3795,5 L7.2985,3.918 C6.9075,3.528 6.9075,2.895 7.2985,2.504 C7.6885,2.114 8.3215,2.114 8.7125,2.504 L11.8545,5.646 Z M3,10 C3.552,10 4,10.448 4,11 C4,11.552 3.552,12 3,12 L1,12 C0.448,12 0,11.552 0,11 L0,1 C0,0.447 0.448,0 1,0 L1.001,0 L3,0 C3.552,0 4,0.448 4,1 C4,1.552 3.552,2 3,2 L2,2 L2,10 L3,10 Z" id="path-1"></path>
    </defs>
    <g id="Symbols" stroke="none" stroke-width="1" fill="none" fill-rule="evenodd">
        <g id="Standard-/-Export">
            <mask id="mask-2" fill="white">
                <use xlink:href="#path-1"></use>
            </mask>
            <use id="exit" fill="#1B2025" xlink:href="#path-1"></use>
        </g>
    </g>
</svg>