<?xml version="1.0" encoding="UTF-8"?>
<svg width="12px" height="10px" viewBox="0 0 12 10" version="1.1" xmlns="http://www.w3.org/2000/svg" xmlns:xlink="http://www.w3.org/1999/xlink">
    <!-- Generator: Sketch 53.2 (72643) - https://sketchapp.com -->
    <title>Mask</title>
    <desc>Created with Sketch.</desc>
    <defs>
        <path d="M5.00018311,5 L5.00010191,3.66976746 C5.00009071,3.48612411 5.06745786,3.30885887 5.18943303,3.17157471 C5.464552,2.86192584 5.93860001,2.83393382 6.24824888,3.1090528 L8.86928167,5.43780613 C8.89123964,5.4573155 8.91203255,5.47809795 8.93155296,5.5000461 C9.20682764,5.80955656 9.17907407,6.28361858 8.86956362,6.55889327 L6.24881523,8.88975378 C6.11151889,9.01186341 5.93417388,9.07932431 5.75043209,9.07933553 C5.33621853,9.07936081 5.0004116,8.74359487 5.00038631,8.32938131 L5.00030518,7 L4,7 C3.44771525,7 3,6.55228475 3,6 C3,5.44771525 3.44771525,5 4,5 L5.00018311,5 Z M1,1 C1.55228475,1 2,1.44771525 2,2 L2,10 C2,10.5522847 1.55228475,11 1,11 C0.44771525,11 6.76353751e-17,10.5522847 0,10 L0,2 C-6.76353751e-17,1.44771525 0.44771525,1 1,1 Z M11,1 C11.5522847,1 12,1.44771525 12,2 L12,10 C12,10.5522847 11.5522847,11 11,11 C10.4477153,11 10,10.5522847 10,10 L10,2 C10,1.44771525 10.4477153,1 11,1 Z" id="path-1"></path>
    </defs>
    <g id="Symbols" stroke="none" stroke-width="1" fill="none" fill-rule="evenodd">
        <g id="Standard-/-Migrate" transform="translate(0.000000, -1.000000)">
            <mask id="mask-2" fill="white">
                <use xlink:href="#path-1"></use>
            </mask>
            <use id="Mask" fill="#1B2025" xlink:href="#path-1"></use>
        </g>
    </g>
</svg>