<?xml version="1.0" encoding="UTF-8"?>
<svg width="12px" height="8px" viewBox="0 0 12 8" version="1.1" xmlns="http://www.w3.org/2000/svg" xmlns:xlink="http://www.w3.org/1999/xlink">
    <!-- Generator: Sketch 53.2 (72643) - https://sketchapp.com -->
    <title>memory</title>
    <desc>Created with Sketch.</desc>
    <defs>
        <path d="M2,4.48 C2,4.204 2.224,3.98 2.5,3.98 L9.5,3.98 C9.776,3.98 10,4.204 10,4.48 L10,5.49 C10,5.767 9.776,5.99 9.5,5.99 L2.5,5.99 C2.224,5.99 2,5.767 2,5.49 L2,4.48 Z M11.002,2 L0.998,2 C0.447,2 0,2.446 0,2.997 L0,7.002 C0,7.553 0.447,8 0.998,8 L1.25,8 L1.25,9.25 C1.25,9.663 1.586,10 2,10 C2.414,10 2.75,9.663 2.75,9.25 L2.75,8 L5.25,8 L5.25,9.25 C5.25,9.663 5.586,10 6,10 C6.414,10 6.75,9.663 6.75,9.25 L6.75,8 L9.25,8 L9.25,9.25 C9.25,9.663 9.586,10 10,10 C10.414,10 10.75,9.663 10.75,9.25 L10.75,8 L11.002,8 C11.553,8 12,7.553 12,7.002 L12,2.997 C12,2.446 11.553,2 11.002,2 L11.002,2 Z" id="path-1"></path>
    </defs>
    <g id="Symbols" stroke="none" stroke-width="1" fill="none" fill-rule="evenodd">
        <g id="Standard-/-Memory" transform="translate(0.000000, -2.000000)">
            <mask id="mask-2" fill="white">
                <use xlink:href="#path-1"></use>
            </mask>
            <use id="memory" fill="#1B2025" xlink:href="#path-1"></use>
        </g>
    </g>
</svg>