<?xml version="1.0" encoding="UTF-8"?>
<svg width="8px" height="10px" viewBox="0 0 8 10" version="1.1" xmlns="http://www.w3.org/2000/svg" xmlns:xlink="http://www.w3.org/1999/xlink">
    <!-- Generator: Sketch 53.2 (72643) - https://sketchapp.com -->
    <title>pause</title>
    <desc>Created with Sketch.</desc>
    <defs>
        <path d="M3.125,1.5 C3.74632034,1.5 4.25,2.00367966 4.25,2.625 L4.25,9.375 C4.25,9.99632034 3.74632034,10.5 3.125,10.5 C2.50367966,10.5 2,9.99632034 2,9.375 L2,2.625 C2,2.00367966 2.50367966,1.5 3.125,1.5 Z M8.875,1.5 C9.49632034,1.5 10,2.00367966 10,2.625 L10,9.375 C10,9.99632034 9.49632034,10.5 8.875,10.5 C8.25367966,10.5 7.75,9.99632034 7.75,9.375 L7.75,2.625 C7.75,2.00367966 8.25367966,1.5 8.875,1.5 Z" id="path-1"></path>
    </defs>
    <g id="Symbols" stroke="none" stroke-width="1" fill="none" fill-rule="evenodd">
        <g id="Standard-/-Suspend" transform="translate(-2.000000, -1.000000)">
            <mask id="mask-2" fill="white">
                <use xlink:href="#path-1"></use>
            </mask>
            <use id="pause" fill="#1B2025" xlink:href="#path-1"></use>
        </g>
    </g>
</svg>