<svg xmlns="http://www.w3.org/2000/svg" width="106.03" height="119.17" viewBox="0 0 106.03 119.17"><defs><style>.cls-1,.cls-4{fill:#fff;}.cls-1,.cls-2,.cls-3{stroke:#627386;}.cls-1,.cls-2,.cls-3,.cls-4,.cls-5,.cls-6{stroke-linecap:round;stroke-linejoin:round;stroke-width:2px;}.cls-2{fill:#d5dae0;}.cls-3{fill:#f2f4f6;}.cls-4,.cls-5,.cls-6{stroke:#1b6dc6;}.cls-5{fill:#d3edfd;}.cls-6{fill:#e9f6fe;}</style></defs><title>barchart_02</title><g id="Layer_2" data-name="Layer 2"><g id="Layer_1-2" data-name="Layer 1"><polygon class="cls-1" points="33.01 46.01 17 36.77 1 46.01 17 55.25 33.01 46.01"/><polygon class="cls-2" points="33.01 67.35 17 76.59 17 55.25 33.01 46.01 33.01 67.35"/><polygon class="cls-3" points="1 67.35 17 76.59 17 55.25 1 46.01 1 67.35"/><polygon class="cls-1" points="57.02 17.2 41.01 7.96 25.01 17.2 41.01 26.44 57.02 17.2"/><polygon class="cls-2" points="41.01 26.44 41.01 47.77 41.01 69.11 41.01 90.45 57.02 81.21 57.02 59.87 57.02 38.53 57.02 17.2 41.01 26.44"/><polygon class="cls-3" points="25.01 17.2 25.01 38.53 25.01 59.87 25.01 81.21 41.01 90.45 41.01 69.11 41.01 47.77 41.01 26.44 25.01 17.2"/><polygon class="cls-1" points="81.02 52.4 65.02 43.16 49.01 52.4 65.02 61.63 81.02 52.4"/><polygon class="cls-2" points="65.02 61.63 65.02 82.97 65.02 104.31 81.02 95.07 81.02 73.73 81.02 52.4 65.02 61.63"/><polygon class="cls-3" points="49.01 52.4 49.01 73.73 49.01 95.07 65.02 104.31 65.02 82.97 65.02 61.63 49.01 52.4"/><polygon class="cls-4" points="105.03 10.24 89.02 1 73.02 10.24 89.02 19.48 105.03 10.24"/><polygon class="cls-5" points="89.02 19.48 89.02 19.48 89.02 75.5 89.02 96.83 89.02 118.17 105.03 108.93 105.03 87.59 105.03 31.58 105.03 10.24 105.03 10.24 89.02 19.48"/><polygon class="cls-6" points="73.02 10.24 73.02 10.24 73.02 31.58 73.02 87.59 73.02 108.93 89.02 118.17 89.02 96.83 89.02 75.5 89.02 19.48 89.02 19.48 73.02 10.24"/></g></g></svg>