<svg xmlns="http://www.w3.org/2000/svg" width="102" height="71.73" viewBox="0 0 102 71.73"><defs><style>.cls-1,.cls-5{fill:#f2f4f6;}.cls-2,.cls-3,.cls-7{fill:none;}.cls-2,.cls-3,.cls-4,.cls-5,.cls-6,.cls-7{stroke:#627386;stroke-linecap:round;stroke-linejoin:round;stroke-width:2px;}.cls-2{stroke-dasharray:0 6;}.cls-3{stroke-dasharray:0 6.05;}.cls-4{fill:#d5dae0;}.cls-6{fill:#fff;}</style></defs><title>task_01</title><g id="Layer_2" data-name="Layer 2"><g id="Layer_1-2" data-name="Layer 1"><path class="cls-1" d="M51,13C23.39,13,1,25.92,1,41.87S23.39,70.73,51,70.73s50-12.92,50-28.86S78.61,13,51,13Zm0,46.19c-16.57,0-30-7.76-30-17.32S34.43,24.55,51,24.55,81,32.3,81,41.87,67.57,59.19,51,59.19Z"/><ellipse class="cls-2" cx="51" cy="41.87" rx="50" ry="28.87"/><ellipse class="cls-3" cx="51" cy="41.87" rx="30" ry="17.32"/><path class="cls-4" d="M97.55,31.33c-5.43-8-16.84-14.24-31-16.91V9.48H51V24.55c14.64,0,26.82,6.05,29.46,14.06l-8.25,3.5v12l14.15,8.17C95.4,57.06,101,49.84,101,41.87v-12Z"/><path class="cls-5" d="M66.5,14.42V9.48H51V24.55c14.64,0,26.82,6.05,29.46,14.06l-8.25,3.5v12l14.15,8.17V21.48A63.52,63.52,0,0,0,66.5,14.42Z"/><path class="cls-6" d="M81,29.87c0,4.78-3.36,9.11-8.79,12.24l14.15,8.17C95.4,45.06,101,37.84,101,29.87,101,13.92,78.61,1,51,1V12.55C67.57,12.55,81,20.3,81,29.87Z"/><line class="cls-7" x1="86.36" y1="50.28" x2="86.36" y2="62.28"/></g></g></svg>