<svg xmlns="http://www.w3.org/2000/svg" width="157.25" height="69.76" viewBox="0 0 157.25 69.76"><defs><style>.cls-1{fill:#f2f4f6;}.cls-1,.cls-3,.cls-4,.cls-5,.cls-7{stroke:#627386;}.cls-1,.cls-2,.cls-3,.cls-4,.cls-5,.cls-6,.cls-7,.cls-8{stroke-linecap:round;stroke-linejoin:round;stroke-width:2px;}.cls-2,.cls-3,.cls-6,.cls-8{fill:none;}.cls-2{stroke:#d5dae0;}.cls-4{fill:#b8bfca;}.cls-5{fill:#fff;}.cls-6{stroke:#f2f4f6;}.cls-7{fill:#d5dae0;}.cls-8{stroke:#b8bfca;}</style></defs><title>group_02</title><g id="Layer_2" data-name="Layer 2"><g id="Layer_2-2" data-name="Layer 2"><path class="cls-1" d="M151.14,28.67c-7.88-9-24.09-15.25-42.82-15.25a72.23,72.23,0,0,0-29.7,6V62.8a72.43,72.43,0,0,0,29.7,6c26.47,0,47.93-12.39,47.93-27.67V28.67Z"/><path class="cls-2" d="M78.62,19.4V62.8c11.1-5.07,18.23-12.91,18.23-21.71V28.67H91.74A38.43,38.43,0,0,0,78.62,19.4Z"/><path class="cls-3" d="M151.14,28.67c-7.88-9-24.09-15.25-42.82-15.25a72.23,72.23,0,0,0-29.7,6V62.8a72.43,72.43,0,0,0,29.7,6c26.47,0,47.93-12.39,47.93-27.67V28.67Z"/><path class="cls-4" d="M78.62,19.4a72.19,72.19,0,0,0-29.7-6C30.2,13.42,14,19.63,6.1,28.67H1V41.09C1,56.37,22.46,68.76,48.92,68.76a72.36,72.36,0,0,0,29.7-6Z"/><path class="cls-3" d="M78.62,19.4A38.63,38.63,0,0,0,65.5,28.67H60.4V41.09c0,8.8,7.13,16.64,18.22,21.71V19.4Z"/><ellipse class="cls-5" cx="108.32" cy="28.67" rx="47.92" ry="27.67"/><path class="cls-6" d="M78.62,19.4v31a63.07,63.07,0,0,0,12.27,4.06c3.79-4,6-8.51,6-13.35V28.67H91.74A38.43,38.43,0,0,0,78.62,19.4Z"/><ellipse class="cls-6" cx="108.32" cy="34.88" rx="46.7" ry="21.46"/><ellipse class="cls-3" cx="108.32" cy="28.67" rx="47.92" ry="27.67"/><ellipse class="cls-3" cx="48.92" cy="28.67" rx="47.92" ry="27.67"/><ellipse class="cls-7" cx="48.92" cy="28.67" rx="47.92" ry="27.67"/><path class="cls-8" d="M65.5,28.67H60.4V41.09c0,4.84,2.17,9.39,6,13.35a62.75,62.75,0,0,0,12.26-4.06v-31A38.63,38.63,0,0,0,65.5,28.67Z"/><ellipse class="cls-8" cx="48.92" cy="34.88" rx="46.7" ry="21.46"/><ellipse class="cls-3" cx="48.92" cy="28.67" rx="47.92" ry="27.67"/><path class="cls-1" d="M78.62,7c-18.4,8.38-23.86,23.49-11.8,35.55a40.18,40.18,0,0,0,11.8,7.88C97,42,102.49,26.89,90.43,14.83A40.3,40.3,0,0,0,78.62,7Z"/><path class="cls-2" d="M95.63,34.88a21.17,21.17,0,0,1-1.08,2.26h0c-.2.36-.41.71-.63,1.06l-.07.11c-.21.33-.43.65-.66,1l-.14.18q-.33.45-.69.9c0,.05-.09.1-.13.16a28,28,0,0,1-2.5,2.64l-.29.28c-.28.26-.57.51-.87.76l-.27.23c-.31.26-.63.51-1,.77l-.22.17L86,46.17l-.12.08A45,45,0,0,1,79.42,50l-.55.26-.25.12C60.47,42.11,54.93,27.29,66.37,15.31,81,18.61,92.06,25.91,95.63,34.88Z"/><path class="cls-2" d="M61.63,34.88a18.59,18.59,0,0,0,1.07,2.26h0c.2.36.41.72.64,1.07l.07.11q.31.48.66,1l.13.18q.33.45.69.9a1.07,1.07,0,0,0,.14.16,29.24,29.24,0,0,0,2.49,2.65l.29.27c.28.26.58.51.87.76l.27.23c.31.26.64.52,1,.77l.22.17c.35.27.71.53,1.08.79l.12.08A45,45,0,0,0,77.84,50l.54.26.25.11c18.16-8.26,23.7-23.09,12.25-35.06C76.3,18.61,65.19,25.91,61.63,34.88Z"/><path class="cls-2" d="M78.62,19.38c-8.78,4-14.6,9.52-17,15.52a22.72,22.72,0,0,0,5.19,7.6,40.18,40.18,0,0,0,11.8,7.88c8.78-4,14.61-9.52,17-15.52a23,23,0,0,0-5.19-7.6A39.91,39.91,0,0,0,78.62,19.38Z"/><line class="cls-2" x1="78.62" y1="19.4" x2="78.62" y2="7.23"/><path class="cls-3" d="M78.62,7c-18.4,8.38-23.86,23.49-11.8,35.55a40.18,40.18,0,0,0,11.8,7.88C97,42,102.49,26.89,90.43,14.83A40.3,40.3,0,0,0,78.62,7Z"/><line class="cls-3" x1="78.62" y1="50.38" x2="78.62" y2="62.81"/></g></g></svg>