<svg xmlns="http://www.w3.org/2000/svg" width="127.35" height="83.7" viewBox="0 0 127.35 83.7"><defs><style>.cls-1{fill:#f2f4f6;}.cls-1,.cls-3,.cls-8{stroke:#627386;}.cls-1,.cls-3,.cls-4,.cls-5,.cls-6,.cls-7,.cls-8{stroke-linecap:round;stroke-linejoin:round;stroke-width:2px;}.cls-2{fill:#d5dae0;}.cls-3,.cls-6{fill:none;}.cls-4{fill:#bde4fd;}.cls-4,.cls-5,.cls-6,.cls-7{stroke:#1b6dc6;}.cls-5{fill:#d3edfd;}.cls-7{fill:#e9f6fe;}.cls-8{fill:#fff;}</style></defs><title>piechart_01</title><g id="Layer_2" data-name="Layer 2"><g id="Layer_1-2" data-name="Layer 1"><path class="cls-1" d="M30.52,28.67h9.81c14.38-10.93,40.93-14.24,62.06-7.2a49.19,49.19,0,0,1,14.17,7.2h9.79V45.43h0c0,4.7-2,9.47-6.41,13.83C106.69,72.49,77.39,77,54.47,69.39V52.62H71.24l7.19-7.19H30.52Z"/><path class="cls-2" d="M102.39,21.47a49.19,49.19,0,0,1,14.17,7.2h9.79V45.43h0c0,4.7-2,9.47-6.41,13.83-8.87,8.87-25,13.82-41.5,13.83V17.77A76.45,76.45,0,0,1,102.39,21.47Z"/><path class="cls-3" d="M30.52,28.67h9.81c14.38-10.93,40.93-14.24,62.06-7.2a49.19,49.19,0,0,1,14.17,7.2h9.79V45.43h0c0,4.7-2,9.47-6.41,13.83C106.69,72.49,77.39,77,54.47,69.39V52.62H71.24l7.19-7.19H30.52Z"/><path class="cls-4" d="M35.55,47.32,48.91,42V58.75l-24,24C9.59,77.58,1,68.3,1,58.75V42Z"/><path class="cls-5" d="M1,58.75V42l24,3.7v37C9.59,77.58,1,68.3,1,58.75Z"/><path class="cls-6" d="M35.55,47.32,48.91,42V58.75l-24,24C9.59,77.58,1,68.3,1,58.75V42Z"/><path class="cls-7" d="M1,42H48.91l-24,24C9.59,60.82,1,51.53,1,42Z"/><path class="cls-6" d="M1,42H48.91l-24,24C9.59,60.82,1,51.53,1,42Z"/><path class="cls-8" d="M30.52,28.67c0-4.7,2.05-9.47,6.42-13.83C50.17,1.61,79.47-2.93,102.39,4.71s30.77,24.56,17.54,37.79S77.39,60.26,54.47,52.62l24-23.95Z"/><path class="cls-3" d="M30.52,28.67c0-4.7,2.05-9.47,6.42-13.83C50.17,1.61,79.47-2.93,102.39,4.71s30.77,24.56,17.54,37.79S77.39,60.26,54.47,52.62l24-23.95Z"/></g></g></svg>