<svg xmlns="http://www.w3.org/2000/svg" width="128" height="84.63" viewBox="0 0 128 84.63"><defs><style>.cls-1{isolation:isolate;}.cls-2{fill:#f2f4f6;}.cls-2,.cls-4,.cls-5{stroke:#627386;}.cls-2,.cls-4,.cls-5,.cls-6,.cls-7{stroke-linecap:round;stroke-linejoin:round;stroke-width:2px;}.cls-3{fill:#d5dae0;}.cls-4,.cls-6,.cls-7{fill:none;}.cls-5{fill:#fff;}.cls-6,.cls-7{stroke:#b8bfca;}.cls-6{mix-blend-mode:darken;}</style></defs><title>profile_01</title><g class="cls-1"><g id="Layer_2" data-name="Layer 2"><g id="Layer_1-2" data-name="Layer 1"><path class="cls-2" d="M118.39,30.5,80.09,8.38a2.94,2.94,0,0,0-2.65,0L14.28,44.84,1,45.9v9.89a.93.93,0,0,0,.55.76L47.91,83.32a2.94,2.94,0,0,0,2.65,0L126.45,39.5a.93.93,0,0,0,.55-.76V28.85Z"/><path class="cls-3" d="M80.09,8.38a2.94,2.94,0,0,0-2.65,0L49.24,24.66v59a2.74,2.74,0,0,0,1.32-.31L126.45,39.5a.93.93,0,0,0,.55-.76V28.85l-8.61,1.65Z"/><path class="cls-4" d="M118.39,30.5,80.09,8.38a2.94,2.94,0,0,0-2.65,0L14.28,44.84,1,45.9v9.89a.93.93,0,0,0,.55.76L47.91,83.32a2.94,2.94,0,0,0,2.65,0L126.45,39.5a.93.93,0,0,0,.55-.76V28.85Z"/><line class="cls-4" x1="89.06" y1="51.2" x2="89.06" y2="60.91"/><line class="cls-4" x1="9.41" y1="51.2" x2="9.41" y2="61.09"/><path class="cls-5" d="M126.45,29.61,50.56,73.43a2.94,2.94,0,0,1-2.65,0L1.55,46.66a.81.81,0,0,1,0-1.53L77.44,1.32a2.88,2.88,0,0,1,2.65,0l46.36,26.76A.81.81,0,0,1,126.45,29.61Z"/><path class="cls-6" d="M77.44,1.32,1.55,45.13a.81.81,0,0,0,0,1.53L9.41,51.2,88,5.86,80.09,1.32A2.88,2.88,0,0,0,77.44,1.32Z"/><path class="cls-6" d="M83.54,46.49c-.74.42-.74,1.1,0,1.53l5.52,3.18,37.39-21.59a.81.81,0,0,0,0-1.53l-5.52-3.18Z"/><polygon class="cls-6" points="108.39 25.53 77.26 43.5 56.85 31.72 87.98 13.74 108.39 25.53"/><path class="cls-7" d="M74,52,50.56,65.53a2.94,2.94,0,0,1-2.65,0L24.43,52c-.74-.43-.74-1.11,0-1.53L47.91,36.88a2.94,2.94,0,0,1,2.65,0L74,50.44C74.78,50.86,74.78,51.54,74,52Z"/><path class="cls-7" d="M48.94,64.87a7.75,7.75,0,0,0,.07,1,2.84,2.84,0,0,0,1.55-.3L74,52c.43-.25.6-.58.53-.9-.55,0-1.1,0-1.66,0C59.67,51,48.94,57.23,48.94,64.87Z"/><ellipse class="cls-7" cx="46.48" cy="49.61" rx="9.83" ry="5.67"/></g></g></g></svg>