<svg xmlns="http://www.w3.org/2000/svg" width="134.28" height="78.37" viewBox="0 0 134.28 78.37"><defs><style>.cls-1{fill:#fff;}.cls-1,.cls-2,.cls-4{stroke:#1b6dc6;}.cls-1,.cls-2,.cls-3,.cls-4{stroke-linecap:round;stroke-linejoin:round;stroke-width:2px;}.cls-2{fill:#d3edfd;}.cls-3,.cls-4{fill:none;}.cls-3{stroke:#d3edfd;}</style></defs><title>report_01</title><g id="Layer_2" data-name="Layer 2"><g id="Layer_2-2" data-name="Layer 2"><polygon class="cls-1" points="78.56 77.37 133.28 45.78 55.72 1 1 32.59 78.56 77.37"/><polygon class="cls-2" points="9.81 37.68 1 32.59 55.72 1 64.53 6.09 9.81 37.68"/><polygon class="cls-3" points="37.2 36.99 30.94 40.62 24.67 36.99 30.94 33.38 37.2 36.99"/><line class="cls-3" x1="39.08" y1="32.29" x2="64.53" y2="17.6"/><polygon class="cls-3" points="48.88 43.73 42.62 47.35 36.34 43.73 42.62 40.11 48.88 43.73"/><line class="cls-3" x1="50.76" y1="39.03" x2="72.63" y2="26.4"/><polygon class="cls-2" points="60.56 50.47 54.29 54.09 48.02 50.47 54.29 46.85 60.56 50.47"/><line class="cls-4" x1="62.44" y1="45.76" x2="89.78" y2="29.97"/><ellipse class="cls-1" cx="78.3" cy="57.68" rx="12.57" ry="7.26"/><path class="cls-2" d="M90.86,57.68h0c0-1.86-1.23-3.71-3.68-5.13-4.91-2.83-12.86-2.83-17.77,0l8.89,5.13Z"/></g></g></svg>