<svg xmlns="http://www.w3.org/2000/svg" width="164.09" height="106.03" viewBox="0 0 164.09 106.03"><defs><style>.cls-1{fill:#f2f4f6;}.cls-1,.cls-3,.cls-4{stroke:#627386;}.cls-1,.cls-3,.cls-4,.cls-5{stroke-linecap:round;stroke-linejoin:round;stroke-width:2px;}.cls-2{fill:#d5dae0;}.cls-3,.cls-5{fill:none;}.cls-4{fill:#fff;}.cls-5{stroke:#d5dae0;}</style></defs><title>report_02</title><g id="Layer_2" data-name="Layer 2"><g id="Layer_2-2" data-name="Layer 2"><path class="cls-1" d="M148.25,55.28l-34-19.63-39-22.51a15.61,15.61,0,0,0-14.13,0L32.53,29.65,11.89,41.57,1,39.8V50.25c0,1.47,1,3,2.93,4.08l39,22.51,45.91,26.5a15.59,15.59,0,0,0,14.12,0l28.61-16.51,28.61-16.52c2-1.12,2.92-2.6,2.92-4.08V55.79Z"/><path class="cls-2" d="M114.26,35.65,96.46,25.37V105a13.94,13.94,0,0,0,6.49-1.66l28.61-16.51,28.61-16.52c2-1.12,2.92-2.6,2.92-4.08V55.79l-14.84-.51Z"/><path class="cls-3" d="M148.25,55.28l-34-19.63-39-22.51a15.61,15.61,0,0,0-14.13,0L32.53,29.65,11.89,41.57,1,39.8V50.25c0,1.47,1,3,2.93,4.08l39,22.51,45.91,26.5a15.59,15.59,0,0,0,14.12,0l28.61-16.51,28.61-16.52c2-1.12,2.92-2.6,2.92-4.08V55.79Z"/><path class="cls-4" d="M160.17,51.71,114.26,25.2l-39-22.51a15.61,15.61,0,0,0-14.13,0L32.53,19.21,3.93,35.72C2,36.85,1,38.32,1,39.8s1,3,2.93,4.08l39,22.51L88.83,92.9a15.67,15.67,0,0,0,14.12,0l28.61-16.52,28.61-16.52c2-1.12,2.92-2.6,2.92-4.07S162.12,52.83,160.17,51.71Z"/><polygon class="cls-5" points="93.32 85.89 148.04 54.3 70.48 9.52 15.76 41.12 93.32 85.89"/><polygon class="cls-5" points="24.57 46.2 15.76 41.12 70.48 9.52 79.29 14.61 24.57 46.2"/><polygon class="cls-5" points="51.96 45.52 45.7 49.14 39.42 45.52 45.7 41.9 51.96 45.52"/><line class="cls-5" x1="53.84" y1="40.82" x2="79.29" y2="26.12"/><polygon class="cls-5" points="63.64 52.25 57.37 55.87 51.1 52.25 57.37 48.63 63.64 52.25"/><line class="cls-5" x1="65.52" y1="47.55" x2="88.26" y2="34.42"/><polygon class="cls-5" points="75.32 58.99 69.05 62.61 62.78 58.99 69.05 55.37 75.32 58.99"/><line class="cls-5" x1="77.2" y1="54.29" x2="104.54" y2="38.5"/><ellipse class="cls-5" cx="93.05" cy="66.2" rx="12.57" ry="7.26"/><path class="cls-5" d="M105.62,66.2a4.38,4.38,0,0,0,0-.51.07.07,0,0,0,0,0,3.88,3.88,0,0,0-.14-.66h0a7.08,7.08,0,0,0-3.49-3.9c-4.91-2.83-12.86-2.83-17.77,0l8.88,5.13h0v7.26a18.13,18.13,0,0,0,8.89-2.13c2.46-1.41,3.67-3.27,3.67-5.13Z"/></g></g></svg>