<svg xmlns="http://www.w3.org/2000/svg" width="176" height="117.93" viewBox="0 0 176 117.93"><defs><style>.cls-1,.cls-3{fill:#fff;}.cls-1,.cls-2{stroke:#d5dae0;}.cls-1,.cls-2,.cls-3,.cls-4,.cls-5{stroke-linecap:round;stroke-linejoin:round;stroke-width:2px;}.cls-2,.cls-5{fill:none;}.cls-3,.cls-4,.cls-5{stroke:#627386;}.cls-4{fill:#f2f4f6;}</style></defs><title>report_03</title><g id="Layer_2" data-name="Layer 2"><g id="Layer_4" data-name="Layer 4"><polygon class="cls-1" points="175 75.33 102.95 116.93 1 58.07 73.05 16.47 175 75.33"/><line class="cls-2" x1="11.08" y1="48.42" x2="11.08" y2="63.89"/><polygon class="cls-3" points="102.95 116.93 102.95 101.46 1 42.6 1 58.07 102.95 116.93"/><polygon class="cls-4" points="102.95 116.93 102.95 101.46 175 59.86 175 75.33 102.95 116.93"/><line class="cls-2" x1="175" y1="67.59" x2="102.95" y2="109.19"/><polygon class="cls-5" points="102.95 116.93 102.95 101.46 175 59.86 175 75.33 102.95 116.93"/><line class="cls-2" x1="102.95" y1="109.19" x2="1" y2="50.33"/><polygon class="cls-5" points="102.95 116.93 102.95 101.46 1 42.6 1 58.07 102.95 116.93"/><polygon class="cls-1" points="175 59.86 102.95 101.46 1 42.6 73.05 1 175 59.86"/><line class="cls-2" x1="83.47" y1="19.03" x2="32.23" y2="48.61"/><line class="cls-2" x1="84.49" y1="26.93" x2="45.91" y2="49.2"/><line class="cls-2" x1="104.52" y1="31.19" x2="53.29" y2="60.77"/><line class="cls-2" x1="111.87" y1="35.43" x2="60.64" y2="65.01"/><line class="cls-2" x1="94.77" y1="60.6" x2="73.88" y2="72.66"/><line class="cls-2" x1="125.11" y1="43.08" x2="102.45" y2="56.16"/><polygon class="cls-4" points="83.14 6.82 11.08 48.42 1 42.6 73.05 1 83.14 6.82"/><polygon class="cls-2" points="123 76.9 102.11 88.96 81.23 76.9 102.11 64.84 123 76.9"/><polygon class="cls-2" points="142.36 53.03 119.7 66.12 113.5 62.54 136.16 49.45 142.36 53.03"/><line class="cls-2" x1="126.35" y1="69.96" x2="149.01" y2="56.87"/><polygon class="cls-5" points="175 59.86 102.95 101.46 1 42.6 73.05 1 175 59.86"/></g></g></svg>