<svg xmlns="http://www.w3.org/2000/svg" width="78.28" height="49.42" viewBox="0 0 78.28 49.42"><defs><style>.cls-1,.cls-6{fill:#fff;}.cls-1{stroke:#bde4fd;}.cls-1,.cls-2,.cls-4,.cls-6{stroke-linecap:round;stroke-linejoin:round;stroke-width:2px;}.cls-2{fill:#bde4fd;}.cls-2,.cls-4,.cls-6{stroke:#1b6dc6;}.cls-3{fill:#e9f6fe;}.cls-4,.cls-5{fill:none;}</style></defs><title>toogle_02</title><g id="Layer_2" data-name="Layer 2"><g id="Layer_1-2" data-name="Layer 1"><path class="cls-1" d="M53.28,48.42a32.86,32.86,0,0,1-16.14-3.91L8.86,28.18C3.79,25.25,1,21.12,1,16.55S3.79,7.84,8.86,4.92A32.73,32.73,0,0,1,25,1,32.73,32.73,0,0,1,41.14,4.92L69.43,21.25c5.06,2.92,7.85,7.05,7.85,11.63s-2.79,8.7-7.85,11.63A32.87,32.87,0,0,1,53.28,48.42Z"/><path class="cls-2" d="M33.28,16.88v16c0,2.95,2,5.91,5.86,8.16,7.81,4.51,20.48,4.51,28.29,0,3.9-2.25,5.85-5.21,5.85-8.16h0v-16Z"/><path class="cls-3" d="M33.28,16.88v16c0,2.95,2,5.91,5.86,8.16a28.88,28.88,0,0,0,14.14,3.38V16.88Z"/><path class="cls-4" d="M33.28,16.88v16c0,2.95,2,5.91,5.86,8.16,7.81,4.51,20.48,4.51,28.29,0,3.9-2.25,5.85-5.21,5.85-8.16h0v-16Z"/><ellipse class="cls-5" cx="53.28" cy="32.88" rx="20" ry="11.55"/><ellipse class="cls-6" cx="53.28" cy="16.88" rx="20" ry="11.55"/></g></g></svg>