<svg xmlns="http://www.w3.org/2000/svg" viewBox="0 0 48.91 47.79"><defs><style>.cls-1{fill:#ebebeb;}.cls-2{fill:#98b9ea;}.cls-3,.cls-6{fill:none;stroke-linejoin:round;stroke-width:0.5px;}.cls-3{stroke:#304d9d;}.cls-4{fill:#deeaff;}.cls-5{fill:#fff;}.cls-6{stroke:#b6cd5b;}.cls-7{fill:#dfeab0;}.cls-8{fill:#b6cd5b;}</style></defs><title>Acropolis</title><g id="Layer_2" data-name="Layer 2"><g id="Layer_1-2" data-name="Layer 1"><polygon class="cls-1" points="24.47 47.79 1.34 39.31 24.47 30.83 47.6 39.31 24.47 47.79"/><polygon class="cls-2" points="24.45 40.13 48.66 31.26 42.11 23.19 24.45 29.67 24.45 40.13"/><polygon class="cls-3" points="24.45 40.13 48.66 31.26 42.11 23.19 24.45 29.67 24.45 40.13"/><polygon class="cls-4" points="6.8 23.19 0.25 31.26 24.45 40.13 24.45 29.67 6.8 23.19"/><polygon class="cls-3" points="6.8 23.19 0.25 31.26 24.45 40.13 24.45 29.67 6.8 23.19"/><polygon class="cls-5" points="6.8 23.19 24.45 16.72 42.11 23.19 24.45 29.67 6.8 23.19"/><polygon class="cls-3" points="6.8 23.19 24.45 16.72 42.11 23.19 24.45 29.67 6.8 23.19"/><path class="cls-5" d="M46.1,3.07,40.18.63a3.66,3.66,0,0,0-3-.11,6.67,6.67,0,0,0-3.87,4.73,3,3,0,0,0-2.46,0C29,6,28,8.46,28,10.25v1.82l6.07,2.59V12.77"/><path class="cls-6" d="M46.1,3.07,40.18.63a3.66,3.66,0,0,0-3-.11,6.67,6.67,0,0,0-3.87,4.73,3,3,0,0,0-2.46,0C29,6,28,8.46,28,10.25v1.82l6.07,2.59V12.77"/><path class="cls-7" d="M48.65,9.33v-2c0-2.94-2.43-5.44-5.42-4.33a6.66,6.66,0,0,0-3.86,4.73,3,3,0,0,0-2.47,0c-1.8.75-2.79,3.2-2.79,5v1.89Z"/><path class="cls-6" d="M48.65,9.33v-2c0-2.94-2.43-5.44-5.42-4.33a6.66,6.66,0,0,0-3.86,4.73,3,3,0,0,0-2.47,0c-1.8.75-2.79,3.2-2.79,5v1.89Z"/><line class="cls-7" x1="33.29" y1="5.25" x2="39.37" y2="7.77"/><line class="cls-6" x1="33.29" y1="5.25" x2="39.37" y2="7.77"/><polygon class="cls-2" points="38.84 19.16 24.45 1.45 24.45 24.44 38.84 19.16"/><polygon class="cls-3" points="38.84 19.16 24.45 1.45 24.45 24.44 38.84 19.16"/><polygon class="cls-4" points="24.45 1.45 10.07 19.16 24.45 24.44 24.45 1.45"/><polygon class="cls-3" points="24.45 1.45 10.07 19.16 24.45 24.44 24.45 1.45"/><path class="cls-5" d="M17.19,7,12.85,5.22a2.72,2.72,0,0,0-2.23-.08A4.94,4.94,0,0,0,7.78,8.62a2.16,2.16,0,0,0-1.8,0,4.13,4.13,0,0,0-2.06,3.67v1.33l4.47,1.9V14.14"/><path class="cls-6" d="M17.19,7,12.85,5.22a2.72,2.72,0,0,0-2.23-.08A4.94,4.94,0,0,0,7.78,8.62a2.16,2.16,0,0,0-1.8,0,4.13,4.13,0,0,0-2.06,3.67v1.33l4.47,1.9V14.14"/><path class="cls-7" d="M19.06,11.61V10.17c0-2.16-1.78-4-4-3.18a4.9,4.9,0,0,0-2.83,3.47,2.23,2.23,0,0,0-1.81,0,4.14,4.14,0,0,0-2,3.67v1.38Z"/><path class="cls-6" d="M19.06,11.61V10.17c0-2.16-1.78-4-4-3.18a4.9,4.9,0,0,0-2.83,3.47,2.23,2.23,0,0,0-1.81,0,4.14,4.14,0,0,0-2,3.67v1.38Z"/><line class="cls-7" x1="7.78" y1="8.61" x2="12.24" y2="10.47"/><line class="cls-6" x1="7.78" y1="8.61" x2="12.24" y2="10.47"/><path class="cls-8" d="M29.7,35.37a2,2,0,0,1-1.32,1.76.93.93,0,0,1-1.33-.89,2,2,0,0,1,1.33-1.76.92.92,0,0,1,1.32.89"/><path class="cls-8" d="M33.41,34a2,2,0,0,1-1.32,1.76.93.93,0,0,1-1.33-.89,2,2,0,0,1,1.33-1.76.92.92,0,0,1,1.32.89"/><path class="cls-8" d="M19.59,35.4a2,2,0,0,0,1.32,1.76.93.93,0,0,0,1.33-.9,2,2,0,0,0-1.33-1.75.92.92,0,0,0-1.32.89"/><path class="cls-8" d="M15.88,34a2,2,0,0,0,1.32,1.75.93.93,0,0,0,1.33-.89,2,2,0,0,0-1.33-1.76.93.93,0,0,0-1.32.9"/></g></g></svg>