<svg xmlns="http://www.w3.org/2000/svg" viewBox="0 0 46.26 49.51"><defs><style>.cls-1{fill:#ebebeb;}.cls-2{fill:#98b9ea;}.cls-3,.cls-7{fill:none;stroke-linejoin:round;stroke-width:0.5px;}.cls-3{stroke:#304d9d;}.cls-4{fill:#fff;}.cls-5{fill:#deeaff;}.cls-6{fill:#dfeab0;}.cls-7{stroke:#b6cd5b;}.cls-8{fill:#304d9d;}</style></defs><title>Analytics_and_big_data</title><g id="Layer_2" data-name="Layer 2"><g id="Layer_1-2" data-name="Layer 1"><polygon class="cls-1" points="23.13 49.52 0 41.03 23.13 32.55 46.26 41.03 23.13 49.52"/><polygon class="cls-2" points="7.01 41.03 5.03 40.12 5.03 7.48 7.01 8.4 7.01 41.03"/><polygon class="cls-3" points="7.01 41.03 5.03 40.12 5.03 7.48 7.01 8.4 7.01 41.03"/><polygon class="cls-4" points="26.18 1.17 24.2 0.25 5.03 7.48 7.01 8.4 26.18 1.17"/><polygon class="cls-3" points="26.18 1.17 24.2 0.25 5.03 7.48 7.01 8.4 26.18 1.17"/><polygon class="cls-5" points="7.01 41.03 26.14 33.79 26.14 1.15 7.01 8.4 7.01 41.03"/><polygon class="cls-3" points="7.01 41.03 26.14 33.79 26.14 1.15 7.01 8.4 7.01 41.03"/><polygon class="cls-4" points="8.83 37.25 24.33 31.38 24.33 3.87 8.83 9.74 8.83 37.25"/><path class="cls-6" d="M18.73,4.94V3c0-1.08-.91-1.63-2-1.21a3.19,3.19,0,0,0-2,2.72v2L10,8.17l-.75,3.27,14.88-5.5-.76-2.72Z"/><path class="cls-7" d="M18.73,4.94V3c0-1.08-.91-1.63-2-1.21a3.19,3.19,0,0,0-2,2.72v2L10,8.17l-.75,3.27,14.88-5.5-.76-2.72Z"/><polygon class="cls-6" points="13.08 19.78 11.42 18.57 12.03 17.8 13.08 18.56 16.12 14.7 16.73 15.14 13.08 19.78"/><polygon class="cls-6" points="13.08 25.59 11.42 24.37 12.03 23.6 13.08 24.36 16.12 20.5 16.73 20.95 13.08 25.59"/><polygon class="cls-6" points="13.08 31.39 11.42 30.18 12.03 29.4 13.08 30.16 16.12 26.3 16.73 26.75 13.08 31.39"/><polygon class="cls-5" points="19.14 41.58 36.12 35.15 36.12 6.19 19.14 12.62 19.14 41.58"/><polygon class="cls-3" points="19.14 41.58 36.12 35.15 36.12 6.19 19.14 12.62 19.14 41.58"/><polygon class="cls-8" points="21.83 17.46 21.05 17.79 21.05 14.87 21.83 14.54 21.83 17.46"/><path class="cls-8" d="M24.22,13.47a2.6,2.6,0,0,0-1.56,2.19c0,.86.7,1.28,1.56.92a2.6,2.6,0,0,0,1.56-2.19c0-.86-.7-1.28-1.56-.92m0,2.32c-.42.18-.77,0-.77-.45a1.28,1.28,0,0,1,.77-1.08c.43-.18.77,0,.77.45a1.28,1.28,0,0,1-.77,1.08"/><polygon class="cls-8" points="27.04 15.33 26.25 15.65 26.25 12.73 27.04 12.41 27.04 15.33"/><polygon class="cls-8" points="32.52 13.09 31.73 13.41 31.73 10.49 32.52 10.17 32.52 13.09"/><polygon class="cls-8" points="34.07 12.46 33.28 12.78 33.28 9.86 34.07 9.54 34.07 12.46"/><polygon class="cls-8" points="34.07 16.34 33.28 16.66 33.28 13.74 34.07 13.42 34.07 16.34"/><polygon class="cls-8" points="34.07 24.23 33.28 24.55 33.28 21.63 34.07 21.31 34.07 24.23"/><polygon class="cls-8" points="34.07 27.88 33.28 28.2 33.28 25.28 34.07 24.96 34.07 27.88"/><path class="cls-8" d="M29.43,11.34a2.6,2.6,0,0,0-1.56,2.19c0,.86.7,1.28,1.56.92A2.6,2.6,0,0,0,31,12.26c0-.86-.7-1.28-1.56-.92m0,2.32c-.42.18-.77,0-.77-.45a1.28,1.28,0,0,1,.77-1.08c.43-.18.77,0,.77.45a1.26,1.26,0,0,1-.77,1.08"/><path class="cls-8" d="M22.6,18A2.62,2.62,0,0,0,21,20.15c0,.86.7,1.27,1.56.92a2.63,2.63,0,0,0,1.56-2.2c0-.86-.7-1.27-1.56-.92m0,2.33c-.43.17-.77,0-.77-.46a1.28,1.28,0,0,1,.77-1.08c.42-.17.77,0,.77.45a1.31,1.31,0,0,1-.77,1.09"/><polygon class="cls-8" points="25.42 19.82 24.63 20.14 24.63 17.22 25.42 16.89 25.42 19.82"/><polygon class="cls-8" points="30.9 17.57 30.11 17.9 30.11 14.98 30.9 14.65 30.9 17.57"/><polygon class="cls-8" points="32.45 16.94 31.66 17.26 31.66 14.34 32.45 14.02 32.45 16.94"/><path class="cls-8" d="M27.81,15.82A2.59,2.59,0,0,0,26.25,18c0,.86.69,1.27,1.56.92a2.62,2.62,0,0,0,1.55-2.2c0-.86-.69-1.27-1.55-.92m0,2.33c-.43.17-.77,0-.77-.46a1.28,1.28,0,0,1,.77-1.08c.42-.17.76,0,.76.45a1.3,1.3,0,0,1-.76,1.09"/><polygon class="cls-8" points="28.02 23.57 28.81 23.24 28.81 26.16 28.02 26.49 28.02 23.57"/><polygon class="cls-8" points="26.47 24.2 27.26 23.88 27.26 26.8 26.47 27.12 26.47 24.2"/><path class="cls-8" d="M31.11,25.32a2.61,2.61,0,0,0,1.56-2.2c0-.86-.7-1.27-1.56-.92a2.63,2.63,0,0,0-1.56,2.2c0,.86.7,1.27,1.56.92m0-2.33c.43-.17.77,0,.77.46a1.28,1.28,0,0,1-.77,1.08c-.42.17-.77,0-.77-.45A1.31,1.31,0,0,1,31.11,23"/><polygon class="cls-8" points="21.04 26.42 21.83 26.1 21.83 29.02 21.04 29.34 21.04 26.42"/><path class="cls-8" d="M24.13,28.18A2.63,2.63,0,0,0,25.69,26c0-.86-.7-1.27-1.56-.92a2.6,2.6,0,0,0-1.56,2.19c0,.87.7,1.28,1.56.93m0-2.33c.43-.18.77,0,.77.45a1.29,1.29,0,0,1-.77,1.09c-.42.17-.77,0-.77-.46a1.29,1.29,0,0,1,.77-1.08"/><polygon class="cls-8" points="21.04 22.6 21.83 22.28 21.83 25.2 21.04 25.52 21.04 22.6"/><polygon class="cls-8" points="29.65 19.08 30.44 18.76 30.44 21.68 29.65 22 29.65 19.08"/><polygon class="cls-8" points="28.1 19.71 28.89 19.39 28.89 22.31 28.1 22.64 28.1 19.71"/><path class="cls-8" d="M32.74,20.84a2.63,2.63,0,0,0,1.56-2.2c0-.86-.7-1.27-1.56-.92a2.61,2.61,0,0,0-1.56,2.2c0,.86.7,1.27,1.56.92m0-2.33c.42-.17.77,0,.77.45a1.31,1.31,0,0,1-.77,1.09c-.43.17-.77,0-.77-.46a1.28,1.28,0,0,1,.77-1.08"/><polygon class="cls-8" points="22.66 21.94 23.45 21.61 23.45 24.53 22.66 24.86 22.66 21.94"/><path class="cls-8" d="M25.76,23.69a2.6,2.6,0,0,0,1.56-2.19c0-.86-.7-1.28-1.56-.93a2.63,2.63,0,0,0-1.56,2.2c0,.86.7,1.27,1.56.92m0-2.33c.42-.17.77,0,.77.46a1.29,1.29,0,0,1-.77,1.08c-.43.18-.77,0-.77-.45a1.29,1.29,0,0,1,.77-1.09"/><path class="cls-8" d="M22.6,29.6A2.62,2.62,0,0,0,21,31.8c0,.86.7,1.27,1.56.92a2.62,2.62,0,0,0,1.56-2.2c0-.86-.7-1.27-1.56-.92m0,2.33c-.43.17-.77,0-.77-.45a1.29,1.29,0,0,1,.77-1.09c.42-.17.77,0,.77.46a1.29,1.29,0,0,1-.77,1.08"/><polygon class="cls-8" points="25.42 31.47 24.63 31.79 24.63 28.87 25.42 28.55 25.42 31.47"/><polygon class="cls-8" points="30.9 29.23 30.11 29.55 30.11 26.63 30.9 26.31 30.9 29.23"/><polygon class="cls-8" points="32.45 28.59 31.66 28.92 31.66 26 32.45 25.67 32.45 28.59"/><path class="cls-8" d="M27.81,27.47a2.6,2.6,0,0,0-1.56,2.2c0,.86.69,1.27,1.56.92a2.61,2.61,0,0,0,1.55-2.2c0-.86-.69-1.27-1.55-.92m0,2.33c-.43.17-.77,0-.77-.46a1.29,1.29,0,0,1,.77-1.08c.42-.17.76,0,.76.46a1.28,1.28,0,0,1-.76,1.08"/><polygon class="cls-5" points="26.59 44.17 43.56 37.74 43.56 8.78 26.59 15.21 26.59 44.17"/><polygon class="cls-3" points="26.59 44.17 43.56 37.74 43.56 8.78 26.59 15.21 26.59 44.17"/><polygon class="cls-8" points="29.28 20.87 28.49 21.19 28.49 18.27 29.28 17.95 29.28 20.87"/><path class="cls-8" d="M31.67,16.87a2.62,2.62,0,0,0-1.56,2.2c0,.86.7,1.27,1.56.92a2.61,2.61,0,0,0,1.55-2.2c0-.86-.69-1.27-1.55-.92m0,2.33c-.43.17-.77,0-.77-.45a1.29,1.29,0,0,1,.77-1.09c.42-.17.77,0,.77.46a1.29,1.29,0,0,1-.77,1.08"/><polygon class="cls-8" points="34.49 18.74 33.7 19.06 33.7 16.14 34.49 15.82 34.49 18.74"/><polygon class="cls-8" points="39.97 16.5 39.18 16.82 39.18 13.9 39.97 13.58 39.97 16.5"/><polygon class="cls-8" points="41.51 15.86 40.72 16.19 40.72 13.27 41.51 12.94 41.51 15.86"/><polygon class="cls-8" points="41.51 19.75 40.72 20.07 40.72 17.15 41.51 16.83 41.51 19.75"/><polygon class="cls-8" points="41.51 27.64 40.72 27.96 40.72 25.04 41.51 24.72 41.51 27.64"/><polygon class="cls-8" points="41.51 31.28 40.72 31.61 40.72 28.69 41.51 28.36 41.51 31.28"/><path class="cls-8" d="M36.87,14.74a2.61,2.61,0,0,0-1.55,2.2c0,.86.69,1.27,1.55.92a2.62,2.62,0,0,0,1.56-2.2c0-.86-.7-1.27-1.56-.92m0,2.33c-.42.17-.76,0-.76-.46a1.3,1.3,0,0,1,.76-1.08c.43-.17.77,0,.77.46a1.28,1.28,0,0,1-.77,1.08"/><path class="cls-8" d="M30,21.36a2.6,2.6,0,0,0-1.56,2.19c0,.86.7,1.28,1.56.92a2.6,2.6,0,0,0,1.56-2.19c0-.86-.7-1.28-1.56-.92m0,2.32c-.43.18-.77,0-.77-.45A1.26,1.26,0,0,1,30,22.15c.42-.18.77,0,.77.45A1.28,1.28,0,0,1,30,23.68"/><polygon class="cls-8" points="32.86 23.22 32.07 23.55 32.07 20.63 32.86 20.3 32.86 23.22"/><polygon class="cls-8" points="38.34 20.98 37.55 21.3 37.55 18.38 38.34 18.06 38.34 20.98"/><polygon class="cls-8" points="39.89 20.35 39.1 20.67 39.1 17.75 39.89 17.43 39.89 20.35"/><path class="cls-8" d="M35.25,19.23a2.6,2.6,0,0,0-1.56,2.19c0,.86.7,1.27,1.56.92a2.6,2.6,0,0,0,1.56-2.19c0-.86-.7-1.28-1.56-.92m0,2.32c-.43.18-.77,0-.77-.45A1.26,1.26,0,0,1,35.25,20c.42-.18.77,0,.77.45a1.29,1.29,0,0,1-.77,1.08"/><polygon class="cls-8" points="35.46 26.97 36.25 26.65 36.25 29.57 35.46 29.89 35.46 26.97"/><polygon class="cls-8" points="33.91 27.61 34.7 27.28 34.7 30.2 33.91 30.52 33.91 27.61"/><path class="cls-8" d="M38.55,28.73a2.63,2.63,0,0,0,1.56-2.2c0-.86-.7-1.27-1.56-.92A2.6,2.6,0,0,0,37,27.81c0,.86.69,1.27,1.55.92m0-2.33c.43-.17.77,0,.77.45a1.29,1.29,0,0,1-.77,1.09c-.42.17-.77,0-.77-.46a1.29,1.29,0,0,1,.77-1.08"/><polygon class="cls-8" points="28.48 29.83 29.27 29.5 29.27 32.42 28.48 32.75 28.48 29.83"/><path class="cls-8" d="M31.57,31.58a2.6,2.6,0,0,0,1.56-2.19c0-.86-.7-1.28-1.56-.93A2.63,2.63,0,0,0,30,30.66c0,.86.7,1.27,1.56.92m0-2.33c.43-.17.77,0,.77.46a1.28,1.28,0,0,1-.77,1.08c-.42.18-.77,0-.77-.45a1.31,1.31,0,0,1,.77-1.09"/><polygon class="cls-8" points="28.48 26.01 29.27 25.69 29.27 28.61 28.48 28.93 28.48 26.01"/><polygon class="cls-8" points="37.09 22.49 37.88 22.17 37.88 25.09 37.09 25.41 37.09 22.49"/><polygon class="cls-8" points="35.54 23.12 36.33 22.8 36.33 25.72 35.54 26.04 35.54 23.12"/><path class="cls-8" d="M40.18,24.24a2.6,2.6,0,0,0,1.56-2.19c0-.86-.7-1.28-1.56-.92a2.6,2.6,0,0,0-1.56,2.19c0,.86.7,1.27,1.56.92m0-2.32c.43-.18.77,0,.77.45a1.28,1.28,0,0,1-.77,1.08c-.42.18-.77,0-.77-.45a1.28,1.28,0,0,1,.77-1.08"/><polygon class="cls-8" points="30.11 25.34 30.9 25.02 30.9 27.94 30.11 28.26 30.11 25.34"/><path class="cls-8" d="M33.2,27.1a2.62,2.62,0,0,0,1.56-2.2c0-.86-.7-1.27-1.56-.92a2.62,2.62,0,0,0-1.56,2.2c0,.86.7,1.27,1.56.92m0-2.33c.42-.17.77,0,.77.45a1.31,1.31,0,0,1-.77,1.09c-.42.17-.77,0-.77-.46a1.29,1.29,0,0,1,.77-1.08"/><path class="cls-8" d="M30,33a2.61,2.61,0,0,0-1.56,2.2c0,.86.7,1.27,1.56.92a2.63,2.63,0,0,0,1.56-2.2c0-.86-.7-1.27-1.56-.92m0,2.33c-.43.17-.77,0-.77-.46A1.28,1.28,0,0,1,30,33.8c.42-.17.77,0,.77.45A1.31,1.31,0,0,1,30,35.34"/><polygon class="cls-8" points="32.86 34.87 32.07 35.2 32.07 32.28 32.86 31.95 32.86 34.87"/><polygon class="cls-8" points="38.34 32.63 37.55 32.95 37.55 30.04 38.34 29.71 38.34 32.63"/><polygon class="cls-8" points="39.89 32 39.1 32.32 39.1 29.4 39.89 29.08 39.89 32"/><path class="cls-8" d="M35.25,30.88a2.61,2.61,0,0,0-1.56,2.2c0,.85.7,1.27,1.56.92a2.63,2.63,0,0,0,1.56-2.2c0-.86-.7-1.27-1.56-.92m0,2.33c-.43.17-.77,0-.77-.46a1.28,1.28,0,0,1,.77-1.08c.42-.18.77,0,.77.45a1.31,1.31,0,0,1-.77,1.09"/></g></g></svg>