<svg xmlns="http://www.w3.org/2000/svg" viewBox="0 0 48.16 49.51"><defs><style>.cls-1{fill:#ebebeb;}.cls-2{fill:#c4d36c;}.cls-3,.cls-8{fill:none;stroke-linejoin:round;stroke-width:0.5px;}.cls-3{stroke:#b6cd5b;}.cls-4{fill:#fff;}.cls-5{fill:#dfeab0;}.cls-6{fill:#98b9ea;}.cls-7{fill:#deeaff;}.cls-8{stroke:#304d9d;}</style></defs><title>Analytics</title><g id="Layer_2" data-name="Layer 2"><g id="Layer_1-2" data-name="Layer 1"><polygon class="cls-1" points="23.13 49.52 0 41.03 23.13 32.55 46.26 41.03 23.13 49.52"/><polygon class="cls-2" points="7.01 41.03 5.03 40.12 5.03 7.48 7.01 8.4 7.01 41.03"/><polygon class="cls-3" points="7.01 41.03 5.03 40.12 5.03 7.48 7.01 8.4 7.01 41.03"/><polygon class="cls-4" points="26.18 1.17 24.2 0.25 5.03 7.48 7.01 8.4 26.18 1.17"/><polygon class="cls-3" points="26.18 1.17 24.2 0.25 5.03 7.48 7.01 8.4 26.18 1.17"/><polygon class="cls-5" points="7.01 41.03 26.14 33.79 26.14 1.15 7.01 8.4 7.01 41.03"/><polygon class="cls-3" points="7.01 41.03 26.14 33.79 26.14 1.15 7.01 8.4 7.01 41.03"/><polygon class="cls-4" points="8.82 37.25 24.33 31.38 24.33 3.87 8.82 9.74 8.82 37.25"/><path class="cls-6" d="M18.73,4.94V3c0-1.08-.91-1.63-2-1.21a3.19,3.19,0,0,0-2,2.72v2L10,8.17l-.75,3.27,14.87-5.5-.75-2.72Z"/><polygon class="cls-6" points="12.38 17.19 10.72 15.98 11.34 15.2 12.38 15.96 15.42 12.1 16.03 12.55 12.38 17.19"/><polygon class="cls-6" points="12.38 23.11 10.72 21.89 11.34 21.12 12.38 21.88 15.42 18.02 16.03 18.47 12.38 23.11"/><polygon class="cls-6" points="12.38 29.02 10.72 27.81 11.34 27.03 12.38 27.8 15.42 23.94 16.03 24.38 12.38 29.02"/><polygon class="cls-7" points="13.42 42.24 17.14 43.61 17.14 38.18 13.42 36.81 13.42 42.24"/><polygon class="cls-8" points="13.42 42.24 17.14 43.61 17.14 38.18 13.42 36.81 13.42 42.24"/><polygon class="cls-4" points="20.85 42.29 17.14 43.61 17.14 38.18 20.85 36.86 20.85 42.29"/><polygon class="cls-8" points="20.85 42.29 17.14 43.61 17.14 38.18 20.85 36.86 20.85 42.29"/><polygon class="cls-6" points="17.14 38.18 13.42 36.81 17.14 35.49 20.85 36.86 17.14 38.18"/><polygon class="cls-8" points="17.14 38.18 13.42 36.81 17.14 35.49 20.85 36.86 17.14 38.18"/><polygon class="cls-7" points="22.29 39.48 26 40.85 26 28.42 22.29 27.05 22.29 39.48"/><polygon class="cls-8" points="22.29 39.48 26 40.85 26 28.42 22.29 27.05 22.29 39.48"/><polygon class="cls-4" points="29.72 39.52 26 40.85 26 28.42 29.72 27.1 29.72 39.52"/><polygon class="cls-8" points="29.72 39.52 26 40.85 26 28.42 29.72 27.1 29.72 39.52"/><polygon class="cls-6" points="26 28.42 22.29 27.05 26 25.73 29.72 27.1 26 28.42"/><polygon class="cls-8" points="26 28.42 22.29 27.05 26 25.73 29.72 27.1 26 28.42"/><polygon class="cls-7" points="40.48 33.79 44.2 35.16 44.2 22.73 40.48 21.36 40.48 33.79"/><polygon class="cls-8" points="40.48 33.79 44.2 35.16 44.2 22.73 40.48 21.36 40.48 33.79"/><polygon class="cls-4" points="47.91 33.83 44.2 35.15 44.2 22.73 47.91 21.41 47.91 33.83"/><polygon class="cls-8" points="47.91 33.83 44.2 35.15 44.2 22.73 47.91 21.41 47.91 33.83"/><polygon class="cls-6" points="44.2 22.73 40.48 21.36 44.2 20.04 47.91 21.41 44.2 22.73"/><polygon class="cls-8" points="44.2 22.73 40.48 21.36 44.2 20.04 47.91 21.41 44.2 22.73"/><polygon class="cls-7" points="31.32 36.78 35.03 38.15 35.03 15.72 31.32 14.35 31.32 36.78"/><polygon class="cls-8" points="31.32 36.78 35.03 38.15 35.03 15.72 31.32 14.35 31.32 36.78"/><polygon class="cls-4" points="38.75 36.83 35.03 38.15 35.03 15.72 38.75 14.4 38.75 36.83"/><polygon class="cls-8" points="38.75 36.83 35.03 38.15 35.03 15.72 38.75 14.4 38.75 36.83"/><polygon class="cls-6" points="35.03 15.72 31.32 14.35 35.03 13.03 38.75 14.4 35.03 15.72"/><polygon class="cls-8" points="35.03 15.72 31.32 14.35 35.03 13.03 38.75 14.4 35.03 15.72"/></g></g></svg>