<svg xmlns="http://www.w3.org/2000/svg" viewBox="0 0 46.26 49.51"><defs><style>.cls-1{fill:#ebebeb;}.cls-2{fill:#98b9ea;}.cls-3,.cls-7{fill:none;stroke-linejoin:round;stroke-width:0.5px;}.cls-3{stroke:#304d9d;}.cls-4{fill:#fff;}.cls-5{fill:#deeaff;}.cls-6{fill:#dfeab0;}.cls-7{stroke:#b6cd5b;}.cls-8{fill:#c4d36c;}</style></defs><title>Analyst_industry_report</title><g id="Layer_2" data-name="Layer 2"><g id="Layer_1-2" data-name="Layer 1"><polygon class="cls-1" points="23.13 49.52 0 41.03 23.13 32.55 46.26 41.03 23.13 49.52"/><polygon class="cls-2" points="7.01 41.03 5.03 40.12 5.03 7.48 7.01 8.4 7.01 41.03"/><polygon class="cls-3" points="7.01 41.03 5.03 40.12 5.03 7.48 7.01 8.4 7.01 41.03"/><polygon class="cls-4" points="26.18 1.17 24.2 0.25 5.03 7.48 7.01 8.4 26.18 1.17"/><polygon class="cls-3" points="26.18 1.17 24.2 0.25 5.03 7.48 7.01 8.4 26.18 1.17"/><polygon class="cls-5" points="7.01 41.03 26.14 33.79 26.14 1.15 7.01 8.4 7.01 41.03"/><polygon class="cls-3" points="7.01 41.03 26.14 33.79 26.14 1.15 7.01 8.4 7.01 41.03"/><polygon class="cls-4" points="8.82 37.25 24.33 31.38 24.33 3.87 8.82 9.74 8.82 37.25"/><path class="cls-6" d="M18.27,30.82C18.27,34.76,24.44,38,32,38s13.78-3.19,13.78-7.13v-3.4H18.27Z"/><path class="cls-7" d="M18.27,30.82C18.27,34.76,24.44,38,32,38s13.78-3.19,13.78-7.13v-3.4H18.27Z"/><path class="cls-6" d="M45.82,27.42c0,3.94-6.17,7.13-13.78,7.13s-13.77-3.19-13.77-7.13S24.44,20.29,32,20.29s13.78,3.2,13.78,7.13"/><ellipse class="cls-7" cx="32.04" cy="27.42" rx="13.78" ry="7.13"/><path class="cls-6" d="M18.73,4.94V3c0-1.08-.91-1.63-2-1.21a3.19,3.19,0,0,0-2,2.72v2L10,8.17l-.75,3.27,14.87-5.5-.75-2.72Z"/><path class="cls-7" d="M18.73,4.94V3c0-1.08-.91-1.63-2-1.21a3.19,3.19,0,0,0-2,2.72v2L10,8.17l-.75,3.27,14.87-5.5-.75-2.72Z"/><path class="cls-4" d="M32,27.42l6.25-6.35s7.53,1.79,7.53,6.35Z"/><path class="cls-7" d="M32,27.42l6.25-6.35s7.53,1.79,7.53,6.35Z"/><path class="cls-8" d="M32,27.42H45.82a3.92,3.92,0,0,1-1.54,3.3Z"/><path class="cls-7" d="M32,27.42H45.82a3.92,3.92,0,0,1-1.54,3.3Z"/><line class="cls-8" x1="44.28" y1="30.72" x2="44.28" y2="34.1"/><line class="cls-7" x1="44.28" y1="30.72" x2="44.28" y2="34.1"/><polygon class="cls-2" points="14.56 22.93 10.72 20.14 12.14 18.34 14.56 20.11 21.57 11.19 22.99 12.22 14.56 22.93"/></g></g></svg>