<svg xmlns="http://www.w3.org/2000/svg" viewBox="0 0 48.22 49.15"><defs><style>.cls-1{fill:#ebebeb;}.cls-2{fill:#deeaff;}.cls-3,.cls-6{fill:none;stroke-linejoin:round;stroke-width:0.5px;}.cls-3{stroke:#304d9d;}.cls-4{fill:#98b9ea;}.cls-5{fill:#dfeab0;}.cls-6{stroke:#b6cd5b;}</style></defs><title>antivirus</title><g id="Layer_2" data-name="Layer 2"><g id="Layer_1-2" data-name="Layer 1"><polygon class="cls-1" points="25.1 49.15 1.97 40.66 25.1 32.18 48.23 40.66 25.1 49.15"/><path class="cls-2" d="M30.18,6.54a2.83,2.83,0,0,0-3.55-3l-5.14.91L16.35,7.8a7.79,7.79,0,0,0-3.55,6v2L30.18,8.53Z"/><path class="cls-3" d="M30.18,6.54a2.83,2.83,0,0,0-3.55-3l-5.14.91L16.35,7.8a7.79,7.79,0,0,0-3.55,6v2L30.18,8.53Z"/><path class="cls-2" d="M36.11,14.88l6.39-4.8L35.41,13l-5.23,2.22v-.48l5.93-9.29L42.5.25l-7.09,3-5.23,8.45L12.8,19.18,7.34,14.92l-7.09,3,6.4-.11,6.15,4.51v.22L7.34,24.74l-7.09,3,6.4-.54,6.21-2.59a6.79,6.79,0,0,0,.16.92L9.76,30.83l-6.4,6.26,7.1-4,3.46-5.56a3.65,3.65,0,0,0,.32.45l7.25,5.09,7.25-11.14c.09-.17.16-.34.24-.52l2.14.22,8.27.43L33,21.14l-3.07-2.49a11.7,11.7,0,0,0,.2-1.28Z"/><path class="cls-3" d="M36.11,14.88l6.39-4.8-7.09,3-5.23,2.21v-.48l5.93-9.29L42.5.25l-7.09,3-5.23,8.45L12.8,19.18,7.34,14.92l-7.09,3,6.4-.11,6.15,4.51v.22L7.34,24.74l-7.09,3,6.4-.54,6.21-2.59a6.79,6.79,0,0,0,.16.92L9.76,30.83,3.36,37.1l7.1-4,3.46-5.56a3.65,3.65,0,0,0,.32.45l7.25,5.09,7.25-11.14c.09-.17.16-.34.24-.52l2.14.22,8.27.43L33,21.14l-3.07-2.49a11.7,11.7,0,0,0,.2-1.28Z"/><polygon class="cls-2" points="10.24 16.5 7.34 14.92 0.25 17.88 3.15 19.46 10.24 16.5"/><polygon class="cls-3" points="10.24 16.5 7.34 14.92 0.25 17.88 3.15 19.46 10.24 16.5"/><polygon class="cls-2" points="15.69 24.08 12.8 22.5 0.25 27.7 3.15 29.29 15.69 24.08"/><polygon class="cls-3" points="15.69 24.08 12.8 22.5 0.25 27.7 3.15 29.29 15.69 24.08"/><polygon class="cls-2" points="15.91 27.07 12.21 25.89 9.76 30.83 3.36 37.09 6.26 38.68 12.66 32.41 15.91 27.07"/><polygon class="cls-3" points="15.91 27.07 12.21 25.89 9.76 30.83 3.36 37.09 6.26 38.68 12.66 32.41 15.91 27.07"/><polygon class="cls-2" points="45.4 1.83 42.5 0.25 35.41 3.21 38.31 4.79 45.4 1.83"/><polygon class="cls-3" points="45.4 1.83 42.5 0.25 35.41 3.21 38.31 4.79 45.4 1.83"/><polygon class="cls-2" points="38.31 4.79 35.41 3.21 30.18 11.66 33.08 13.24 38.31 4.79"/><polygon class="cls-3" points="38.31 4.79 35.41 3.21 30.18 11.66 33.08 13.24 38.31 4.79"/><polygon class="cls-2" points="15.69 20.76 12.8 19.18 30.18 11.66 33.08 13.24 15.69 20.76"/><polygon class="cls-3" points="15.69 20.76 12.8 19.18 30.18 11.66 33.08 13.24 15.69 20.76"/><polygon class="cls-2" points="45.4 11.66 42.5 10.08 30.18 15.25 33.08 16.83 45.4 11.66"/><polygon class="cls-3" points="45.4 11.66 42.5 10.08 30.18 15.25 33.08 16.83 45.4 11.66"/><polygon class="cls-2" points="42.29 23.65 39.39 22.07 32.99 21.14 35.89 22.72 42.29 23.65"/><polygon class="cls-3" points="42.29 23.65 39.39 22.07 32.99 21.14 35.89 22.72 42.29 23.65"/><path class="cls-4" d="M33.08,8.12a2.84,2.84,0,0,0-3.56-3L24.38,6,19.24,9.39a7.77,7.77,0,0,0-3.55,6v2l17.39-7.25Z"/><path class="cls-3" d="M33.08,8.12a2.84,2.84,0,0,0-3.56-3L24.38,6,19.24,9.39a7.77,7.77,0,0,0-3.55,6v2l17.39-7.25Z"/><path class="cls-2" d="M28.54,3.68a3.34,3.34,0,0,0-1.91-.16l-5.14.91L16.35,7.8a7.79,7.79,0,0,0-3.55,6v2l2.89,1.58v-2a7.77,7.77,0,0,1,3.55-6L24.38,6l5.14-.92a3.19,3.19,0,0,1,2.27.35Z"/><path class="cls-3" d="M28.54,3.68a3.34,3.34,0,0,0-1.91-.16l-5.14.91L16.35,7.8a7.79,7.79,0,0,0-3.55,6v2l2.89,1.58v-2a7.77,7.77,0,0,1,3.55-6L24.38,6l5.14-.92a3.19,3.19,0,0,1,2.27.35Z"/><path class="cls-4" d="M39,16.46l6.4-4.8-7.09,3-5.23,2.21v-.48L39,7.06l6.4-5.23-7.09,3-5.23,8.45L15.69,20.76,10.24,16.5l-7.09,3,6.39-.11,6.15,4.51v.22l-5.45,2.25-7.09,3,6.39-.54,6.22-2.6a6.79,6.79,0,0,0,.15.92l-3.25,5.34-6.4,6.27,7.09-4,3.46-5.55c.11.15.2.31.32.45l7.25,5.08,7.26-11.13c.09-.18.15-.35.23-.53l3.32,2.57,7.1-1.92-6.4-.93-3.08-2.48A12.09,12.09,0,0,0,33,19Z"/><path class="cls-3" d="M39,16.46l6.4-4.8-7.09,3-5.23,2.21v-.48L39,7.06l6.4-5.23-7.09,3-5.23,8.45L15.69,20.76,10.24,16.5l-7.09,3,6.39-.11,6.15,4.51v.22l-5.45,2.25-7.09,3,6.39-.54,6.22-2.6a6.79,6.79,0,0,0,.15.92l-3.25,5.34-6.4,6.27,7.09-4,3.46-5.55c.11.15.2.31.32.45l7.25,5.08,7.26-11.13c.09-.18.15-.35.23-.53l3.32,2.57,7.1-1.92-6.4-.93-3.08-2.48A12.09,12.09,0,0,0,33,19Z"/><polygon class="cls-5" points="29.61 25.52 29.5 25.66 29.43 25.58 24.81 20.96 19.34 28.15 23.96 32.77 24.03 32.85 23.93 32.99 19.12 39.36 24.15 44.64 28.96 38.26 29.06 38.13 29.14 38.2 33.27 42.77 38.75 35.58 34.61 31.02 34.53 30.94 34.64 30.8 39.61 24.29 34.58 19.01 29.61 25.52"/><polygon class="cls-6" points="29.61 25.52 29.5 25.66 29.43 25.58 24.81 20.96 19.34 28.15 23.96 32.77 24.03 32.85 23.93 32.99 19.12 39.36 24.15 44.64 28.96 38.26 29.06 38.13 29.14 38.2 33.27 42.77 38.75 35.58 34.61 31.02 34.53 30.94 34.64 30.8 39.61 24.29 34.58 19.01 29.61 25.52"/></g></g></svg>