<svg xmlns="http://www.w3.org/2000/svg" viewBox="0 0 46.26 48.93"><defs><style>.cls-1{fill:#ebebeb;}.cls-2{fill:#dfeab0;}.cls-3,.cls-5{fill:none;stroke-linejoin:round;}.cls-3{stroke:#b6cd5b;stroke-linecap:round;stroke-width:2px;}.cls-4{fill:#deeaff;}.cls-5{stroke:#304d9d;stroke-width:0.5px;}.cls-6{fill:#fff;}.cls-7{fill:#98b9ea;}</style></defs><title>app_mobility_fabric</title><g id="Layer_2" data-name="Layer 2"><g id="Layer_1-2" data-name="Layer 1"><polygon class="cls-1" points="23.13 48.93 0 40.45 23.13 31.96 46.26 40.45 23.13 48.93"/><line class="cls-2" x1="2.4" y1="24.52" x2="28.83" y2="14.72"/><line class="cls-3" x1="2.4" y1="24.52" x2="28.83" y2="14.72"/><line class="cls-2" x1="9.03" y1="15.12" x2="19.03" y2="11.41"/><line class="cls-3" x1="9.03" y1="15.12" x2="19.03" y2="11.41"/><polygon class="cls-4" points="25.66 39.55 23.26 38.66 23.26 7.49 25.66 8.38 25.66 39.55"/><polygon class="cls-5" points="25.66 39.55 23.26 38.66 23.26 7.49 25.66 8.38 25.66 39.55"/><path class="cls-6" d="M41.11,1.07l1.07.22C41.4.77,39.2,0,38.3.33L24.57,5.58l2.4.89Z"/><path class="cls-5" d="M41.11,1.07l1.07.22C41.4.77,39.2,0,38.3.33L24.57,5.58l2.4.89Z"/><path class="cls-7" d="M23.26,38.66a2,2,0,0,0,1.5,2c.41.11,1.71.58,2.55.82l-1.65-1.9Z"/><path class="cls-5" d="M23.26,38.66a2,2,0,0,0,1.5,2c.41.11,1.71.58,2.55.82l-1.65-1.9Z"/><path class="cls-6" d="M25.66,8.41v31a2,2,0,0,0,2.79,1.9L42,35.92A2,2,0,0,0,43.33,34V3.14a2,2,0,0,0-2.78-1.9L27,6.5a2.06,2.06,0,0,0-1.3,1.91"/><path class="cls-5" d="M25.66,8.41v31a2,2,0,0,0,2.79,1.9L42,35.92A2,2,0,0,0,43.33,34V3.14a2,2,0,0,0-2.78-1.9L27,6.5A2.06,2.06,0,0,0,25.66,8.41Z"/><path class="cls-4" d="M23.26,7.46a2,2,0,0,1,1.31-1.91L27,6.5a2.06,2.06,0,0,0-1.3,1.91Z"/><path class="cls-5" d="M23.26,7.46a2,2,0,0,1,1.31-1.91L27,6.5a2.06,2.06,0,0,0-1.3,1.91Z"/><polygon class="cls-2" points="26.72 10.48 26.72 37.92 42.27 31.72 42.27 4.46 26.72 10.48"/><line class="cls-2" x1="6.17" y1="39.03" x2="32.6" y2="29.22"/><line class="cls-3" x1="6.17" y1="39.03" x2="32.6" y2="29.22"/><line class="cls-2" x1="15.89" y1="27.35" x2="33.52" y2="20.81"/><line class="cls-3" x1="15.89" y1="27.35" x2="33.52" y2="20.81"/></g></g></svg>