<svg xmlns="http://www.w3.org/2000/svg" viewBox="0 0 49.13 45.83"><defs><style>.cls-1{fill:#ebebeb;}.cls-2{fill:#dfeab0;}.cls-3{fill:none;stroke:#b6cd5b;stroke-linejoin:round;stroke-width:0.5px;}.cls-4{fill:#fff;}.cls-5{fill:#c4d36c;}</style></defs><title>Bezel_simplified</title><g id="Layer_2" data-name="Layer 2"><g id="Layer_1-2" data-name="Layer 1"><polygon class="cls-1" points="24.06 45.83 0.93 37.35 24.06 28.86 47.19 37.35 24.06 45.83"/><polygon class="cls-2" points="0.25 24.68 24.56 33.6 24.56 18.08 0.25 9.17 0.25 24.68"/><polygon class="cls-3" points="0.25 24.68 24.56 33.6 24.56 18.08 0.25 9.17 0.25 24.68"/><polygon class="cls-4" points="48.88 24.68 24.56 33.6 24.56 18.08 48.88 9.17 48.88 24.68"/><polygon class="cls-3" points="48.88 24.68 24.56 33.6 24.56 18.08 48.88 9.17 48.88 24.68"/><polygon class="cls-5" points="24.56 18.08 0.25 9.17 24.56 0.25 48.88 9.17 24.56 18.08"/><polygon class="cls-3" points="24.56 18.08 0.25 9.17 24.56 0.25 48.88 9.17 24.56 18.08"/><path class="cls-1" d="M38.82,20.55a3.32,3.32,0,0,1-2.18,2.9A1.53,1.53,0,0,1,34.46,22a3.29,3.29,0,0,1,2.18-2.9,1.53,1.53,0,0,1,2.18,1.47"/><path class="cls-1" d="M9.46,20.55a3.3,3.3,0,0,0,2.18,2.9A1.53,1.53,0,0,0,13.82,22a3.3,3.3,0,0,0-2.18-2.9,1.53,1.53,0,0,0-2.18,1.47"/></g></g></svg>