<svg xmlns="http://www.w3.org/2000/svg" viewBox="0 0 46.26 48.3"><defs><style>.cls-1{fill:#ebebeb;}.cls-2{fill:#deeaff;}.cls-3,.cls-8{fill:none;stroke-linejoin:round;stroke-width:0.5px;}.cls-3{stroke:#304d9d;}.cls-4{fill:#fff;}.cls-5{fill:#98b9ea;}.cls-6{fill:#b6cd5b;}.cls-7{fill:#dfeab0;}.cls-8{stroke:#dfeab0;}.cls-9{fill:#304d9d;}</style></defs><title>build_in_Dr</title><g id="Layer_2" data-name="Layer 2"><g id="Layer_1-2" data-name="Layer 1"><polygon class="cls-1" points="23.13 48.3 0 39.82 23.13 31.34 46.26 39.82 23.13 48.3"/><polygon class="cls-2" points="0.76 35.1 23.13 43.31 23.13 38.23 0.76 30.03 0.76 35.1"/><polygon class="cls-3" points="0.76 35.1 23.13 43.31 23.13 38.23 0.76 30.03 0.76 35.1"/><polygon class="cls-4" points="45.49 35.1 23.13 43.31 23.13 38.23 45.49 30.03 45.49 35.1"/><polygon class="cls-3" points="45.49 35.1 23.13 43.31 23.13 38.23 45.49 30.03 45.49 35.1"/><polygon class="cls-2" points="23.13 38.23 0.76 30.03 23.13 21.83 45.49 30.03 23.13 38.23"/><polygon class="cls-3" points="23.13 38.23 0.76 30.03 23.13 21.83 45.49 30.03 23.13 38.23"/><polygon class="cls-5" points="23.13 38.23 6.69 32.2 23.13 26.17 39.57 32.2 23.13 38.23"/><polygon class="cls-3" points="23.13 38.23 6.69 32.2 23.13 26.17 39.57 32.2 23.13 38.23"/><path class="cls-6" d="M27.11,39.41a2,2,0,0,1-1.29,1.72.9.9,0,0,1-1.29-.87,1.94,1.94,0,0,1,1.29-1.72.91.91,0,0,1,1.29.87"/><path class="cls-6" d="M30.8,38.05a2,2,0,0,1-1.29,1.72.91.91,0,0,1-1.3-.87,2,2,0,0,1,1.3-1.72.91.91,0,0,1,1.29.87"/><line class="cls-3" x1="23.13" y1="26.17" x2="23.13" y2="21.83"/><path class="cls-7" d="M23.15,21.79c-6.33,0-11.47,2.66-11.47,5.94s5.14,5.93,11.47,5.93S34.62,31,34.62,27.73s-5.13-5.94-11.47-5.94m0,9.15c-3.43,0-6.22-1.44-6.22-3.21s2.79-3.22,6.22-3.22,6.22,1.44,6.22,3.22-2.78,3.21-6.22,3.21"/><path class="cls-8" d="M23.15,21.79c-6.33,0-11.47,2.66-11.47,5.94s5.14,5.93,11.47,5.93S34.62,31,34.62,27.73,29.49,21.79,23.15,21.79Zm0,9.15c-3.43,0-6.22-1.44-6.22-3.21s2.79-3.22,6.22-3.22,6.22,1.44,6.22,3.22S26.59,30.94,23.15,30.94Z"/><path class="cls-7" d="M11.68,27.73c0,3.28,5.13,5.93,11.47,5.93S34.62,31,34.62,27.73V24.89h-3.9l-4.36,4.39H19.94l-4-4.39H11.68Z"/><path class="cls-8" d="M11.68,27.73c0,3.28,5.13,5.93,11.47,5.93S34.62,31,34.62,27.73V24.89h-3.9l-4.36,4.39H19.94l-4-4.39H11.68Z"/><path class="cls-7" d="M23.15,19c-6.33,0-11.47,2.65-11.47,5.93s5.14,5.94,11.47,5.94,11.47-2.66,11.47-5.94S29.49,19,23.15,19m0,9.15c-3.43,0-6.22-1.44-6.22-3.22s2.79-3.21,6.22-3.21,6.22,1.44,6.22,3.21-2.78,3.22-6.22,3.22"/><path class="cls-8" d="M23.15,19c-6.33,0-11.47,2.65-11.47,5.93s5.14,5.94,11.47,5.94,11.47-2.66,11.47-5.94S29.49,19,23.15,19Zm0,9.15c-3.43,0-6.22-1.44-6.22-3.22s2.79-3.21,6.22-3.21,6.22,1.44,6.22,3.21S26.59,28.11,23.15,28.11Z"/><path class="cls-6" d="M17.42,32.79c-2-.64-3.9-1.45-5.12-3.27a3.22,3.22,0,0,1,.81-2.58,4,4,0,0,1,3-1.32,3.79,3.79,0,0,1,1.07.16,3.16,3.16,0,0,0,1.7,1.55,4.93,4.93,0,0,0-1.43,5.46"/><path class="cls-9" d="M16.08,25.87A3.22,3.22,0,0,1,17,26a3.26,3.26,0,0,0,1.45,1.39,5.26,5.26,0,0,0-1.38,5,8.18,8.18,0,0,1-4.49-3,3,3,0,0,1,.76-2.34,3.75,3.75,0,0,1,2.78-1.23m0-.5a3.89,3.89,0,0,0-4,4.24c1.4,2.11,3.59,2.9,5.85,3.59a4.6,4.6,0,0,1,1.47-5.93c-1-.36-1.95-1.12-2-1.68a3.84,3.84,0,0,0-1.29-.22"/><path class="cls-6" d="M28.87,32.79a4.9,4.9,0,0,0-1.43-5.46,3.16,3.16,0,0,0,1.7-1.55,3.92,3.92,0,0,1,1.08-.16,4,4,0,0,1,3,1.32A3.29,3.29,0,0,1,34,29.52c-1.23,1.82-3.11,2.62-5.13,3.27"/><path class="cls-9" d="M30.22,25.87h0A3.75,3.75,0,0,1,33,27.1a3.06,3.06,0,0,1,.76,2.34,8.24,8.24,0,0,1-4.5,3,5.22,5.22,0,0,0-1.38-5A3.34,3.34,0,0,0,29.34,26a3.17,3.17,0,0,1,.88-.12m0-.5a3.76,3.76,0,0,0-1.29.22c-.06.56-1,1.32-2,1.68A4.61,4.61,0,0,1,28.4,33.2c2.25-.69,4.44-1.48,5.84-3.59a3.89,3.89,0,0,0-4-4.24"/><path class="cls-6" d="M18.67,25.39a3.27,3.27,0,0,0-.57-2.29,5,5,0,0,0-3.78-1.94,11.61,11.61,0,0,1,3.89-1.55,2.87,2.87,0,0,1,2.34,2.31,5.58,5.58,0,0,1,0,2.76,9.66,9.66,0,0,0-1.87.71"/><path class="cls-9" d="M18.16,19.87A2.67,2.67,0,0,1,20.32,22a5.29,5.29,0,0,1,0,2.47,10.66,10.66,0,0,0-1.39.5,3.58,3.58,0,0,0-.63-2,5.34,5.34,0,0,0-3.19-2,11.51,11.51,0,0,1,3-1.12m0-.51a12.08,12.08,0,0,0-4.75,2.12,4,4,0,0,1,.78-.08,4.72,4.72,0,0,1,3.72,1.86A3,3,0,0,1,18.24,26a7.63,7.63,0,0,1,2.5-1.12,5.84,5.84,0,0,0,.06-3,3.16,3.16,0,0,0-2.64-2.5"/><path class="cls-6" d="M27.63,25.39a9.87,9.87,0,0,0-1.86-.71,5.5,5.5,0,0,1,0-2.74,2.9,2.9,0,0,1,2.44-2.34A11.9,11.9,0,0,1,32,21.16a5,5,0,0,0-3.78,1.95,3.33,3.33,0,0,0-.57,2.28"/><path class="cls-9" d="M28.14,19.87A11.44,11.44,0,0,1,31.19,21a5.32,5.32,0,0,0-3.18,2,3.63,3.63,0,0,0-.65,2,10.6,10.6,0,0,0-1.38-.5A5.33,5.33,0,0,1,26,22a2.64,2.64,0,0,1,2.14-2.1m0-.51a3.16,3.16,0,0,0-2.63,2.5,5.84,5.84,0,0,0,.06,3A7.72,7.72,0,0,1,28.07,26a3,3,0,0,1,.32-2.74,4.76,4.76,0,0,1,3.73-1.86,3.94,3.94,0,0,1,.77.08,12,12,0,0,0-4.75-2.12"/><path class="cls-3" d="M34.62,24.89c0-3.28-5.13-5.93-11.47-5.93s-11.47,2.65-11.47,5.93v2.84a3.64,3.64,0,0,0,.9,2.31,6.85,6.85,0,0,0,1.06,1,9,9,0,0,0,1.4.87,12.6,12.6,0,0,0,1.7.73,18,18,0,0,0,3,.75,22.49,22.49,0,0,0,6.82,0,18,18,0,0,0,3-.75,12.6,12.6,0,0,0,1.7-.73,9,9,0,0,0,1.4-.87,6.43,6.43,0,0,0,1.06-1,3.64,3.64,0,0,0,.9-2.31Zm-5.89,1.42c-1,1.07-3.13,1.8-5.58,1.8s-4.56-.73-5.58-1.8c1-1.07,3.13-1.8,5.58-1.8S27.72,25.24,28.73,26.31Z"/><path class="cls-3" d="M37.2,24.37c0,4-6.24,7.22-13.94,7.22S9.33,28.36,9.33,24.37s6.24-7.21,13.93-7.21S37.2,20.39,37.2,24.37Z"/><polygon class="cls-2" points="0.76 13.53 23.13 21.73 23.13 16.65 0.76 8.45 0.76 13.53"/><polygon class="cls-3" points="0.76 13.53 23.13 21.73 23.13 16.65 0.76 8.45 0.76 13.53"/><polygon class="cls-4" points="45.49 13.53 23.13 21.73 23.13 16.65 45.49 8.45 45.49 13.53"/><polygon class="cls-3" points="45.49 13.53 23.13 21.73 23.13 16.65 45.49 8.45 45.49 13.53"/><polygon class="cls-5" points="23.13 16.65 0.76 8.45 23.13 0.25 45.49 8.45 23.13 16.65"/><polygon class="cls-3" points="23.13 16.65 0.76 8.45 23.13 0.25 45.49 8.45 23.13 16.65"/><path class="cls-6" d="M27.11,17.84a2,2,0,0,1-1.29,1.71.9.9,0,0,1-1.29-.87A1.93,1.93,0,0,1,25.82,17a.9.9,0,0,1,1.29.87"/><path class="cls-6" d="M30.8,16.48a2,2,0,0,1-1.29,1.71.91.91,0,0,1-1.3-.87,1.94,1.94,0,0,1,1.3-1.71.9.9,0,0,1,1.29.87"/></g></g></svg>