<svg xmlns="http://www.w3.org/2000/svg" viewBox="0 0 46.26 49.51"><defs><style>.cls-1{fill:#ebebeb;}.cls-2{fill:#deeaff;}.cls-3,.cls-5{fill:none;stroke-linejoin:round;stroke-width:0.5px;}.cls-3{stroke:#304d9d;}.cls-4{fill:#fff;}.cls-5{stroke:#b6cd5b;stroke-linecap:round;}.cls-6{fill:#98b9ea;}</style></defs><title>calm</title><g id="Layer_2" data-name="Layer 2"><g id="Layer_1-2" data-name="Layer 1"><polygon class="cls-1" points="23.13 49.51 0 41.03 23.13 32.54 46.26 41.03 23.13 49.51"/><polygon class="cls-2" points="34.99 0.25 41.24 2.5 41.24 26.08 34.99 23.9 34.99 0.25"/><polygon class="cls-3" points="34.99 0.25 41.24 2.5 41.24 26.08 34.99 23.9 34.99 0.25"/><polyline class="cls-4" points="9.51 38.34 41.31 26.09 41.31 2.5 5.66 16.05 5.66 39.81"/><polyline class="cls-3" points="9.51 38.34 41.31 26.09 41.31 2.5 5.66 16.05 5.66 39.81"/><polygon class="cls-2" points="5.66 16.12 11.92 18.48 11.92 42.05 5.66 39.77 5.66 16.12"/><polygon class="cls-3" points="5.66 16.12 11.92 18.48 11.92 42.05 5.66 39.77 5.66 16.12"/><path class="cls-5" d="M16.77,31.65c-.57-1.18.48-4.13,2.54-7.65"/><path class="cls-5" d="M28.89,12c2.81-2.51,5-3.51,5.6-2.29"/><path class="cls-5" d="M34.87,25.13c.51-1.57-.66-3.72-2.86-5.71"/><path class="cls-5" d="M22,14.52c-2.88-.46-5.09.13-5.61,1.76"/><path class="cls-5" d="M34.49,9.75c.92,1.88-2.31,8.31-7.2,14.35s-9.61,9.43-10.52,7.55"/><path class="cls-5" d="M16.39,16.28c-.8,2.49,2.68,6.5,7.79,8.94s9.89,2.41,10.69-.09"/><path class="cls-5" d="M16.79,31.65C15.88,29.77,19.1,23.34,24,17.3s9.6-9.42,10.51-7.55"/><path class="cls-5" d="M16.35,16.28C15.84,17.84,17,20,19.21,22"/><path class="cls-5" d="M29.22,26.88c2.88.46,5.09-.13,5.61-1.75"/><path class="cls-5" d="M34.83,25.13c.8-2.5-2.68-6.51-7.79-8.95s-9.89-2.4-10.69.09"/><path class="cls-6" d="M31.44,19a7,7,0,0,1-5.6,6.62,4.56,4.56,0,0,1-5.61-4.59,7,7,0,0,1,5.61-6.62A4.55,4.55,0,0,1,31.44,19"/><path class="cls-3" d="M31.44,19a7,7,0,0,1-5.6,6.62,4.56,4.56,0,0,1-5.61-4.59,7,7,0,0,1,5.61-6.62A4.55,4.55,0,0,1,31.44,19Z"/><polygon class="cls-4" points="24.57 23.54 22.46 22 23.23 21.01 24.57 21.98 28.44 17.07 29.22 17.63 24.57 23.54"/><path class="cls-5" d="M34.49,9.75c.92,1.88-2.31,8.31-7.2,14.35s-9.61,9.43-10.52,7.55"/><path class="cls-5" d="M16.39,16.28c-.8,2.49,2.68,6.5,7.79,8.94s9.89,2.41,10.69-.09"/></g></g></svg>