<svg xmlns="http://www.w3.org/2000/svg" viewBox="0 0 46.26 50.37"><defs><style>.cls-1{fill:#ebebeb;}.cls-2,.cls-3,.cls-4{fill:none;stroke-linejoin:round;stroke-width:0.5px;}.cls-2{stroke:#304d9d;}.cls-3{stroke:#3e91f3;stroke-linecap:round;stroke-dasharray:1 2;}.cls-4{stroke:#b6cd5b;}.cls-5{fill:#deeaff;}.cls-6{fill:#98b9ea;}</style></defs><title>click</title><g id="Layer_2" data-name="Layer 2"><g id="Layer_1-2" data-name="Layer 1"><polygon class="cls-1" points="23.13 50.37 0 41.89 23.13 33.41 46.26 41.89 23.13 50.37"/><path class="cls-2" d="M23.68,16c0,6.57-4.18,12.24-9.34,12.65S5,24.06,5,17.49,9.18,5.25,14.34,4.84,23.68,9.42,23.68,16Z"/><path class="cls-3" d="M27.25,15.7c0,9.09-5.78,16.92-12.91,17.5S1.43,26.86,1.43,17.78,7.21.86,14.34.28,27.25,6.61,27.25,15.7Z"/><path class="cls-4" d="M19.13,16.35c0,3.38-2.15,6.28-4.79,6.5S9.55,20.5,9.55,17.12s2.14-6.28,4.79-6.49S19.13,13,19.13,16.35Z"/><polygon class="cls-5" points="34.38 43.56 37.29 43.47 29.54 34.09 26.63 34.18 34.38 43.56"/><polygon class="cls-2" points="34.38 43.56 37.29 43.47 29.54 34.09 26.63 34.18 34.38 43.56"/><polygon class="cls-6" points="37.58 27.45 16.96 15.59 24.71 38.08 29.54 34.09 37.29 43.47 40.49 40.82 32.74 31.44 37.58 27.45"/><polygon class="cls-2" points="37.58 27.45 16.96 15.59 24.71 38.08 29.54 34.09 37.29 43.47 40.49 40.82 32.74 31.44 37.58 27.45"/><polygon class="cls-5" points="24.71 38.08 21.8 38.17 14.05 15.69 16.96 15.59 24.71 38.08"/><polygon class="cls-2" points="24.71 38.08 21.8 38.17 14.05 15.69 16.96 15.59 24.71 38.08"/></g></g></svg>