<svg xmlns="http://www.w3.org/2000/svg" viewBox="0 0 46.26 47.36"><defs><style>.cls-1{fill:#ebebeb;}.cls-2{fill:#fff;}.cls-3{fill:#304d9d;}.cls-4{fill:#98b9ea;}.cls-5{fill:none;stroke:#304d9d;stroke-linejoin:round;stroke-width:0.5px;}.cls-6{fill:#deeaff;}</style></defs><title>clock</title><g id="Layer_2" data-name="Layer 2"><g id="Layer_1-2" data-name="Layer 1"><polygon class="cls-1" points="23.13 47.37 0 38.88 23.13 30.4 46.26 38.88 23.13 47.37"/><path class="cls-2" d="M25.93,34.39c-7.9,3-15.42-1.45-16.79-9.83S13.05,7,21,4s15.43,1.45,16.8,9.84S33.83,31.44,25.93,34.39"/><path class="cls-3" d="M25.05,22.9a1.35,1.35,0,0,1-1.87-1.1,2.16,2.16,0,0,1,1.32-2.28,1.34,1.34,0,0,1,1.86,1.09,2.15,2.15,0,0,1-1.31,2.29"/><path class="cls-4" d="M20.51,1.33C11.21,4.81,5,15.63,6.6,25.51S17.07,40.56,26.37,37.08s15.54-14.3,13.92-24.17S29.82-2.15,20.51,1.33m5.42,33.06c-7.9,3-15.42-1.45-16.79-9.83S13.05,7,21,4s15.43,1.45,16.8,9.84S33.83,31.44,25.93,34.39"/><path class="cls-5" d="M20.51,1.33C11.21,4.81,5,15.63,6.6,25.51S17.07,40.56,26.37,37.08s15.54-14.3,13.92-24.17S29.82-2.15,20.51,1.33Zm5.42,33.06c-7.9,3-15.42-1.45-16.79-9.83S13.05,7,21,4s15.43,1.45,16.8,9.84S33.83,31.44,25.93,34.39Z"/><path class="cls-6" d="M22.69,2.17C13.39,5.65,7.16,16.47,8.78,26.35s10.47,15,19.78,11.57,15.53-14.3,13.91-24.17S32-1.31,22.69,2.17m5.43,33.06c-7.91,3-15.43-1.45-16.8-9.83S15.23,7.82,23.14,4.86,38.56,6.31,39.93,14.7,36,32.28,28.12,35.23"/><path class="cls-5" d="M22.69,2.17C13.39,5.65,7.16,16.47,8.78,26.35s10.47,15,19.78,11.57,15.53-14.3,13.91-24.17S32-1.31,22.69,2.17Zm5.43,33.06c-7.91,3-15.43-1.45-16.8-9.83S15.23,7.82,23.14,4.86,38.56,6.31,39.93,14.7,36,32.28,28.12,35.23Z"/><path class="cls-1" d="M26.27,6.23a1.45,1.45,0,0,0-1.73,1.31A1.79,1.79,0,0,0,25.6,9.66a1.46,1.46,0,0,0,1.73-1.31,1.81,1.81,0,0,0-1.06-2.12"/><polygon class="cls-3" points="24.23 20.46 26.21 21.75 34.1 10.16 33.33 9.7 24.23 20.46"/><polygon class="cls-3" points="25.5 20.94 23.58 22.62 16.66 16.22 16.91 15.71 25.5 20.94"/></g></g></svg>