<svg xmlns="http://www.w3.org/2000/svg" viewBox="0 0 46.26 48.75"><defs><style>.cls-1{fill:#ebebeb;}.cls-2{fill:#deeaff;}.cls-3,.cls-4{fill:none;stroke-linejoin:round;stroke-width:0.5px;}.cls-3{stroke:#304d9d;}.cls-4{stroke:#b6cd5b;}.cls-5{fill:#fff;}.cls-6{fill:#98b9ea;}</style></defs><title>cog</title><g id="Layer_2" data-name="Layer 2"><g id="Layer_1-2" data-name="Layer 1"><polygon class="cls-1" points="23.13 48.75 0 40.27 23.13 31.78 46.26 40.27 23.13 48.75"/><path class="cls-2" d="M32,11.19l2.65-3L30.11,2.09l-2.61,3A8.64,8.64,0,0,0,22.93,4L22.55.25,15,3.34,15.33,7a18.66,18.66,0,0,0-4,4.62l-3-.73-3,9.15,3,.73a16.33,16.33,0,0,0,0,2.8A14.27,14.27,0,0,0,9,26.42L6.31,29.51l4.58,6.05,2.74-3.16a8.69,8.69,0,0,0,4.42,1.06l.4,3.94,7.6-3.09,6.59-7.6,3-9.14ZM15.33,7a18.66,18.66,0,0,0-4,4.62m10,15.45c-4,1.62-7.56-.79-8-5.37s2.36-9.59,6.33-11.21,7.56.8,8,5.37-2.36,9.6-6.33,11.21"/><path class="cls-3" d="M32,11.19l2.65-3L30.11,2.09l-2.61,3A8.64,8.64,0,0,0,22.93,4L22.55.25,15,3.34,15.33,7a18.66,18.66,0,0,0-4,4.62l-3-.73-3,9.15,3,.73a16.33,16.33,0,0,0,0,2.8A14.27,14.27,0,0,0,9,26.42L6.31,29.51l4.58,6.05,2.74-3.16a8.69,8.69,0,0,0,4.42,1.06l.4,3.94,7.6-3.09,6.59-7.6,3-9.14ZM15.33,7a18.66,18.66,0,0,0-4,4.62m10,15.45c-4,1.62-7.56-.79-8-5.37s2.36-9.59,6.33-11.21,7.56.8,8,5.37S25.32,25.5,21.35,27.11Z"/><path class="cls-4" d="M27,31.28c-4.81,2-9.17-1-9.74-6.51s2.87-11.64,7.68-13.6,9.17,1,9.74,6.52S31.79,29.33,27,31.28Z"/><polygon class="cls-2" points="23.89 39.8 18.45 37.4 18.05 33.46 23.49 35.86 23.89 39.8"/><polygon class="cls-3" points="23.89 39.8 18.45 37.4 18.05 33.46 23.49 35.86 23.89 39.8"/><polygon class="cls-2" points="16.33 37.96 10.89 35.56 6.31 29.51 11.75 31.91 16.33 37.96"/><polygon class="cls-3" points="16.33 37.96 10.89 35.56 6.31 29.51 11.75 31.91 16.33 37.96"/><path class="cls-2" d="M9,26.27a14.27,14.27,0,0,1-.57-2.81,17.31,17.31,0,0,1,0-2.79l5.44,2.4a17.44,17.44,0,0,0,0,2.8,14.76,14.76,0,0,0,.57,2.8Z"/><path class="cls-3" d="M9,26.27a14.27,14.27,0,0,1-.57-2.81,17.31,17.31,0,0,1,0-2.79l5.44,2.4a17.44,17.44,0,0,0,0,2.8,14.76,14.76,0,0,0,.57,2.8Z"/><polygon class="cls-5" points="14.44 28.82 8.99 26.42 6.31 29.51 11.75 31.91 14.44 28.82"/><polygon class="cls-3" points="14.44 28.82 8.99 26.42 6.31 29.51 11.75 31.91 14.44 28.82"/><polygon class="cls-5" points="10.78 22.48 5.34 20.08 8.36 10.93 13.8 13.34 10.78 22.48"/><polygon class="cls-3" points="10.78 22.48 5.34 20.08 8.36 10.93 13.8 13.34 10.78 22.48"/><polygon class="cls-2" points="20.39 5.75 14.95 3.34 15.33 7.04 20.77 9.45 20.39 5.75"/><polygon class="cls-3" points="20.39 5.75 14.95 3.34 15.33 7.04 20.77 9.45 20.39 5.75"/><polygon class="cls-5" points="27.99 2.65 22.55 0.25 14.95 3.34 20.39 5.75 27.99 2.65"/><polygon class="cls-3" points="27.99 2.65 22.55 0.25 14.95 3.34 20.39 5.75 27.99 2.65"/><polygon class="cls-5" points="30.11 2.09 35.55 4.49 32.94 7.5 27.5 5.1 30.11 2.09"/><polygon class="cls-3" points="30.11 2.09 35.55 4.49 32.94 7.5 27.5 5.1 30.11 2.09"/><path class="cls-6" d="M38,16.2a13.92,13.92,0,0,0-.51-2.6l2.65-3.06-4.58-6-2.61,3a8.63,8.63,0,0,0-4.57-1.14L28,2.66,20.4,5.75l.37,3.7a18.31,18.31,0,0,0-4,4.62l-3-.73-3,9.14,3,.74a16.35,16.35,0,0,0,0,2.8,14.16,14.16,0,0,0,.57,2.8l-2.69,3.09L16.33,38l2.74-3.15a8.7,8.7,0,0,0,4.42,1l.4,3.94,7.6-3.09-.4-3.94a18.27,18.27,0,0,0,3.85-4.42l3.14.77,3-9.14L38,19.23a16.14,16.14,0,0,0,0-3M20.77,9.45a18.31,18.31,0,0,0-4,4.62m10,15.45c-4,1.61-7.56-.79-8-5.37s2.36-9.6,6.33-11.21,7.56.79,8,5.37-2.36,9.59-6.33,11.21"/><path class="cls-3" d="M38,16.2a13.92,13.92,0,0,0-.51-2.6l2.65-3.06-4.58-6-2.61,3a8.63,8.63,0,0,0-4.57-1.14L28,2.66,20.4,5.75l.37,3.7a18.31,18.31,0,0,0-4,4.62l-3-.73-3,9.14,3,.74a16.35,16.35,0,0,0,0,2.8,14.16,14.16,0,0,0,.57,2.8l-2.69,3.09L16.33,38l2.74-3.15a8.7,8.7,0,0,0,4.42,1l.4,3.94,7.6-3.09-.4-3.94a18.27,18.27,0,0,0,3.85-4.42l3.14.77,3-9.14L38,19.23A16.14,16.14,0,0,0,38,16.2ZM20.77,9.45a18.31,18.31,0,0,0-4,4.62m10,15.45c-4,1.61-7.56-.79-8-5.37s2.36-9.6,6.33-11.21,7.56.79,8,5.37S30.76,27.9,26.79,29.52Z"/><path class="cls-2" d="M11.36,11.67a18.7,18.7,0,0,1,4-4.62l5.44,2.41a18.34,18.34,0,0,0-4,4.62Z"/><path class="cls-3" d="M11.36,11.67a18.7,18.7,0,0,1,4-4.62l5.44,2.41a18.34,18.34,0,0,0-4,4.62Z"/><path class="cls-6" d="M26.79,29.52c-4,1.61-7.56-.79-8-5.37s2.36-9.6,6.33-11.21,7.56.79,8,5.37-2.36,9.59-6.33,11.21"/><path class="cls-3" d="M26.79,29.52c-4,1.61-7.56-.79-8-5.37s2.36-9.6,6.33-11.21,7.56.79,8,5.37S30.76,27.9,26.79,29.52Z"/><path class="cls-2" d="M26.39,25.61c-2.1.86-4-.41-4.25-2.84a6,6,0,0,1,3.35-5.93c2.1-.85,4,.42,4.25,2.84a6,6,0,0,1-3.35,5.93"/><path class="cls-3" d="M26.39,25.61c-2.1.86-4-.41-4.25-2.84a6,6,0,0,1,3.35-5.93c2.1-.85,4,.42,4.25,2.84A6,6,0,0,1,26.39,25.61Z"/></g></g></svg>