<svg xmlns="http://www.w3.org/2000/svg" viewBox="0 0 46.76 50.28"><defs><style>.cls-1{fill:#ebebeb;}.cls-2{fill:#deeaff;}.cls-3,.cls-7,.cls-8{fill:none;stroke-linejoin:round;stroke-width:0.5px;}.cls-3{stroke:#304d9d;}.cls-4{fill:#fff;}.cls-5{fill:#98b9ea;}.cls-6{fill:#dfeab0;}.cls-7,.cls-8{stroke:#b6cd5b;}.cls-7{stroke-linecap:round;}</style></defs><title>cost_and_complexity</title><g id="Layer_2" data-name="Layer 2"><g id="Layer_1-2" data-name="Layer 1"><polygon class="cls-1" points="23.38 50.28 0.25 41.79 23.38 33.31 46.51 41.79 23.38 50.28"/><polygon class="cls-2" points="17.15 28.88 23.38 31.18 23.38 23.76 17.15 21.46 17.15 28.88"/><polygon class="cls-3" points="17.15 28.88 23.38 31.18 23.38 23.76 17.15 21.46 17.15 28.88"/><polygon class="cls-4" points="29.61 28.96 23.38 31.18 23.38 23.76 29.61 21.54 29.61 28.96"/><polygon class="cls-3" points="29.61 28.96 23.38 31.18 23.38 23.76 29.61 21.54 29.61 28.96"/><polygon class="cls-5" points="23.38 23.76 17.15 21.46 23.38 19.25 29.61 21.54 23.38 23.76"/><polygon class="cls-3" points="23.38 23.76 17.15 21.46 23.38 19.25 29.61 21.54 23.38 23.76"/><line class="cls-6" x1="20.27" y1="26.77" x2="9.59" y2="30.68"/><line class="cls-7" x1="20.27" y1="26.77" x2="9.59" y2="30.68"/><line class="cls-6" x1="26.49" y1="26.77" x2="37.17" y2="30.68"/><line class="cls-7" x1="26.49" y1="26.77" x2="37.17" y2="30.68"/><path class="cls-6" d="M12,21.55c0,3.25,5.09,5.89,11.37,5.89s11.37-2.64,11.37-5.89V19.74H12Z"/><path class="cls-8" d="M12,21.55c0,3.25,5.09,5.89,11.37,5.89s11.37-2.64,11.37-5.89V19.74H12Z"/><path class="cls-4" d="M34.75,19.75c0,3.25-5.09,5.88-11.37,5.88S12,23,12,19.75s5.09-5.89,11.37-5.89,11.37,2.64,11.37,5.89"/><path class="cls-8" d="M34.75,19.75c0,3.25-5.09,5.88-11.37,5.88S12,23,12,19.75s5.09-5.89,11.37-5.89S34.75,16.5,34.75,19.75Z"/><path class="cls-7" d="M20.73,16.93h-.9a.63.63,0,0,0-.6.89l1.26,3.85a1.34,1.34,0,0,0,1.18.89h1.8a.62.62,0,0,0,.59-.89L22.8,17.82a.63.63,0,0,1,.6-.89h1.8a1.33,1.33,0,0,1,1.17.89l1.26,3.85a.62.62,0,0,1-.59.89h-.93"/><line class="cls-7" x1="17.3" y1="20.49" x2="20.11" y2="20.49"/><line class="cls-7" x1="16.72" y1="18.72" x2="19.53" y2="18.72"/><line class="cls-7" x1="27.25" y1="20.49" x2="30.06" y2="20.49"/><line class="cls-7" x1="26.67" y1="18.72" x2="29.48" y2="18.72"/><polygon class="cls-2" points="0.25 34.85 6.48 37.14 6.48 29.72 0.25 27.43 0.25 34.85"/><polygon class="cls-3" points="0.25 34.85 6.48 37.14 6.48 29.72 0.25 27.43 0.25 34.85"/><polygon class="cls-4" points="12.71 34.92 6.48 37.14 6.48 29.72 12.71 27.5 12.71 34.92"/><polygon class="cls-3" points="12.71 34.92 6.48 37.14 6.48 29.72 12.71 27.5 12.71 34.92"/><polygon class="cls-5" points="6.48 29.72 0.25 27.43 6.48 25.21 12.71 27.5 6.48 29.72"/><polygon class="cls-3" points="6.48 29.72 0.25 27.43 6.48 25.21 12.71 27.5 6.48 29.72"/><polygon class="cls-2" points="34.05 34.85 40.28 37.14 40.28 29.72 34.05 27.43 34.05 34.85"/><polygon class="cls-3" points="34.05 34.85 40.28 37.14 40.28 29.72 34.05 27.43 34.05 34.85"/><polygon class="cls-4" points="46.51 34.92 40.28 37.14 40.28 29.72 46.51 27.5 46.51 34.92"/><polygon class="cls-3" points="46.51 34.92 40.28 37.14 40.28 29.72 46.51 27.5 46.51 34.92"/><polygon class="cls-5" points="40.28 29.72 34.05 27.43 40.28 25.21 46.51 27.5 40.28 29.72"/><polygon class="cls-3" points="40.28 29.72 34.05 27.43 40.28 25.21 46.51 27.5 40.28 29.72"/><line class="cls-7" x1="21.82" y1="8.99" x2="6.48" y2="27.43"/><line class="cls-6" x1="20.27" y1="36.68" x2="9.59" y2="32.77"/><line class="cls-7" x1="20.27" y1="36.68" x2="9.59" y2="32.77"/><line class="cls-7" x1="23.38" y1="8.99" x2="40.28" y2="27.51"/><line class="cls-6" x1="26.49" y1="36.68" x2="37.17" y2="32.77"/><line class="cls-7" x1="26.49" y1="36.68" x2="37.17" y2="32.77"/><polygon class="cls-2" points="17.15 41.25 23.38 43.54 23.38 36.12 17.15 33.83 17.15 41.25"/><polygon class="cls-3" points="17.15 41.25 23.38 43.54 23.38 36.12 17.15 33.83 17.15 41.25"/><polygon class="cls-4" points="29.61 41.32 23.38 43.54 23.38 36.12 29.61 33.9 29.61 41.32"/><polygon class="cls-3" points="29.61 41.32 23.38 43.54 23.38 36.12 29.61 33.9 29.61 41.32"/><polygon class="cls-5" points="23.38 36.12 17.15 33.83 23.38 31.61 29.61 33.9 23.38 36.12"/><polygon class="cls-3" points="23.38 36.12 17.15 33.83 23.38 31.61 29.61 33.9 23.38 36.12"/><line class="cls-7" x1="23.38" y1="8.99" x2="23.38" y2="33.31"/><polygon class="cls-2" points="17.15 9.88 23.38 12.18 23.38 4.76 17.15 2.46 17.15 9.88"/><polygon class="cls-3" points="17.15 9.88 23.38 12.18 23.38 4.76 17.15 2.46 17.15 9.88"/><polygon class="cls-4" points="29.61 9.96 23.38 12.18 23.38 4.76 29.61 2.54 29.61 9.96"/><polygon class="cls-3" points="29.61 9.96 23.38 12.18 23.38 4.76 29.61 2.54 29.61 9.96"/><polygon class="cls-5" points="23.38 4.76 17.15 2.46 23.38 0.25 29.61 2.54 23.38 4.76"/><polygon class="cls-3" points="23.38 4.76 17.15 2.46 23.38 0.25 29.61 2.54 23.38 4.76"/></g></g></svg>