<svg xmlns="http://www.w3.org/2000/svg" viewBox="0 0 49.13 48.86"><defs><style>.cls-1{fill:#ebebeb;}.cls-2{fill:#deeaff;}.cls-3,.cls-7{fill:none;stroke-linejoin:round;stroke-width:0.5px;}.cls-3{stroke:#304d9d;}.cls-4{fill:#fff;}.cls-5{fill:#98b9ea;}.cls-6{fill:#b6cd5b;}.cls-7{stroke:#b6cd5b;}.cls-8{fill:#dfeab0;}</style></defs><title>database</title><g id="Layer_2" data-name="Layer 2"><g id="Layer_1-2" data-name="Layer 1"><polygon class="cls-1" points="24.56 48.86 1.44 40.38 24.56 31.89 47.69 40.38 24.56 48.86"/><polygon class="cls-2" points="0.25 36.71 24.56 45.63 24.56 40.11 0.25 31.19 0.25 36.71"/><polygon class="cls-3" points="0.25 36.71 24.56 45.63 24.56 40.11 0.25 31.19 0.25 36.71"/><polygon class="cls-4" points="48.88 36.71 24.56 45.63 24.56 40.11 48.88 31.19 48.88 36.71"/><polygon class="cls-3" points="48.88 36.71 24.56 45.63 24.56 40.11 48.88 31.19 48.88 36.71"/><polygon class="cls-5" points="24.56 40.11 0.25 31.19 24.56 22.28 48.88 31.19 24.56 40.11"/><polygon class="cls-3" points="24.56 40.11 0.25 31.19 24.56 22.28 48.88 31.19 24.56 40.11"/><path class="cls-6" d="M28.89,41.39a2.11,2.11,0,0,1-1.4,1.87,1,1,0,0,1-1.41-.95,2.12,2.12,0,0,1,1.41-1.86,1,1,0,0,1,1.4.94"/><path class="cls-6" d="M32.9,39.92a2.12,2.12,0,0,1-1.4,1.86,1,1,0,0,1-1.41-.94A2.12,2.12,0,0,1,31.5,39a1,1,0,0,1,1.4,1"/><polygon class="cls-4" points="31.86 5.04 31.86 2.71 25.66 0.25 25.66 2.58 22.48 1.32 22.48 17.66 43.77 26.12 43.77 9.78 31.86 5.04"/><polygon class="cls-7" points="31.86 5.04 31.86 2.71 25.66 0.25 25.66 2.58 22.48 1.32 22.48 17.66 43.77 26.12 43.77 9.78 31.86 5.04"/><polygon class="cls-8" points="35.67 11.31 35.67 8.92 29.48 6.46 29.48 8.85 17.07 3.92 17.07 20.27 38.36 28.72 38.36 12.38 35.67 11.31"/><polygon class="cls-7" points="35.67 11.31 35.67 8.92 29.48 6.46 29.48 8.85 17.07 3.92 17.07 20.27 38.36 28.72 38.36 12.38 35.67 11.31"/><polygon class="cls-4" points="24.95 11.41 24.95 9.14 18.76 6.68 18.76 8.95 11.21 5.95 11.21 22.29 32.5 30.75 32.5 14.41 24.95 11.41"/><polygon class="cls-7" points="24.95 11.41 24.95 9.14 18.76 6.68 18.76 8.95 11.21 5.95 11.21 22.29 32.5 30.75 32.5 14.41 24.95 11.41"/><polygon class="cls-8" points="14.73 12.6 14.73 10.27 8.54 7.81 8.54 10.14 5.36 8.88 5.36 25.22 26.65 33.68 26.65 17.34 14.73 12.6"/><polygon class="cls-7" points="14.73 12.6 14.73 10.27 8.54 7.81 8.54 10.14 5.36 8.88 5.36 25.22 26.65 33.68 26.65 17.34 14.73 12.6"/></g></g></svg>