<svg xmlns="http://www.w3.org/2000/svg" viewBox="0 0 46.81 49.13"><defs><style>.cls-1{fill:#ebebeb;}.cls-2{fill:#deeaff;}.cls-3,.cls-6{fill:none;stroke:#304d9d;stroke-linejoin:round;stroke-width:0.5px;}.cls-4{fill:#98b9ea;}.cls-5{fill:#fff;}.cls-6{stroke-linecap:round;}.cls-7{fill:#b6cd5b;}</style></defs><title>data_sheets_and_solution_brief</title><g id="Layer_2" data-name="Layer 2"><g id="Layer_1-2" data-name="Layer 1"><polygon class="cls-1" points="23.64 49.13 0.51 40.65 23.64 32.16 46.77 40.65 23.64 49.13"/><polygon class="cls-2" points="25.83 43.59 0.25 33.28 0.25 26.73 25.83 37.04 25.83 43.59"/><polygon class="cls-3" points="25.83 43.59 0.25 33.28 0.25 26.73 25.83 37.04 25.83 43.59"/><polygon class="cls-4" points="46.56 29.13 20.98 18.82 0.25 26.73 25.83 37.04 46.56 29.13"/><polygon class="cls-3" points="46.56 29.13 20.98 18.82 0.25 26.73 25.83 37.04 46.56 29.13"/><path class="cls-5" d="M46.56,26.25a10,10,0,0,1-7,0L21,18.82.25,26.73l18.84,7.59a7.78,7.78,0,0,0,6.74-.15Z"/><path class="cls-3" d="M46.56,26.25a10,10,0,0,1-7,0L21,18.82.25,26.73l18.83,7.59a7.81,7.81,0,0,0,6.75-.15Z"/><polygon class="cls-5" points="25.83 43.59 46.54 35.67 46.54 29.12 25.83 37.04 25.83 43.59"/><polygon class="cls-3" points="25.83 43.59 46.54 35.67 46.54 29.12 25.83 37.04 25.83 43.59"/><line class="cls-5" x1="26.06" y1="41.7" x2="38.94" y2="36.78"/><line class="cls-6" x1="26.06" y1="41.7" x2="38.94" y2="36.78"/><line class="cls-5" x1="25.83" y1="40.23" x2="35.22" y2="36.64"/><line class="cls-6" x1="25.83" y1="40.23" x2="35.22" y2="36.64"/><line class="cls-5" x1="25.83" y1="38.67" x2="31.51" y2="36.5"/><line class="cls-6" x1="25.83" y1="38.67" x2="31.51" y2="36.5"/><polygon class="cls-7" points="14.98 12.75 13.71 13.27 13.71 8.57 14.98 8.05 14.98 12.75"/><path class="cls-7" d="M18.83,6.32a4.2,4.2,0,0,0-2.51,3.54c0,1.38,1.12,2,2.51,1.48a4.21,4.21,0,0,0,2.5-3.54c0-1.38-1.12-2-2.5-1.48m0,3.75c-.69.28-1.24-.05-1.24-.73a2.07,2.07,0,0,1,1.24-1.75c.68-.28,1.23,0,1.23.73a2.07,2.07,0,0,1-1.23,1.75"/><polygon class="cls-7" points="23.36 9.32 22.09 9.84 22.09 5.14 23.36 4.63 23.36 9.32"/><polygon class="cls-7" points="32.18 5.72 30.91 6.24 30.91 1.54 32.18 1.02 32.18 5.72"/><polygon class="cls-7" points="34.67 4.7 33.4 5.22 33.4 0.52 34.67 0 34.67 4.7"/><polygon class="cls-7" points="34.67 10.92 33.4 11.44 33.4 6.74 34.67 6.22 34.67 10.92"/><path class="cls-7" d="M27.21,2.9A4.18,4.18,0,0,0,24.7,6.43c0,1.38,1.12,2.05,2.51,1.48a4.21,4.21,0,0,0,2.5-3.53c0-1.39-1.12-2-2.5-1.48m0,3.74c-.69.28-1.24,0-1.24-.73a2.09,2.09,0,0,1,1.24-1.75c.68-.27,1.23,0,1.23.74a2.07,2.07,0,0,1-1.23,1.74"/><path class="cls-7" d="M16.21,13.54a4.18,4.18,0,0,0-2.51,3.53c0,1.39,1.12,2.05,2.51,1.48A4.2,4.2,0,0,0,18.71,15c0-1.38-1.12-2-2.5-1.48m0,3.74c-.69.28-1.24-.05-1.24-.73a2.06,2.06,0,0,1,1.24-1.74c.68-.28,1.23,0,1.23.73a2.07,2.07,0,0,1-1.23,1.74"/><polygon class="cls-7" points="20.74 16.54 19.47 17.06 19.47 12.36 20.74 11.84 20.74 16.54"/><polygon class="cls-7" points="29.57 12.93 28.29 13.45 28.29 8.75 29.57 8.23 29.57 12.93"/><polygon class="cls-7" points="32.05 11.91 30.78 12.43 30.78 7.73 32.05 7.21 32.05 11.91"/><path class="cls-7" d="M24.59,10.11a4.2,4.2,0,0,0-2.51,3.53c0,1.39,1.12,2,2.51,1.49a4.22,4.22,0,0,0,2.51-3.54c0-1.38-1.13-2.05-2.51-1.48m0,3.74c-.68.28-1.24,0-1.24-.73a2.08,2.08,0,0,1,1.24-1.74c.68-.28,1.24,0,1.24.73a2.07,2.07,0,0,1-1.24,1.74"/><polygon class="cls-7" points="33.75 18.97 35.02 18.45 35.02 23.15 33.75 23.66 33.75 18.97"/><polygon class="cls-7" points="24.93 22.57 26.2 22.05 26.2 26.75 24.93 27.27 24.93 22.57"/><polygon class="cls-7" points="22.44 23.59 23.71 23.07 23.71 27.77 22.44 28.29 22.44 23.59"/><path class="cls-7" d="M29.91,25.4a4.22,4.22,0,0,0,2.51-3.54c0-1.38-1.13-2-2.51-1.48a4.2,4.2,0,0,0-2.51,3.53c0,1.39,1.12,2.05,2.51,1.49m0-3.75c.68-.28,1.24.05,1.24.73a2.08,2.08,0,0,1-1.24,1.75c-.68.28-1.24-.05-1.24-.74a2.08,2.08,0,0,1,1.24-1.74"/><polygon class="cls-7" points="13.7 27.17 14.97 26.65 14.97 31.35 13.7 31.87 13.7 27.17"/><path class="cls-7" d="M18.68,30a4.21,4.21,0,0,0,2.5-3.53c0-1.39-1.12-2.05-2.5-1.49a4.2,4.2,0,0,0-2.51,3.54c0,1.38,1.12,2,2.51,1.48m0-3.74c.68-.28,1.23,0,1.23.73a2.07,2.07,0,0,1-1.23,1.74c-.69.28-1.24,0-1.24-.73a2.05,2.05,0,0,1,1.24-1.74"/><polygon class="cls-7" points="13.7 21.02 14.97 20.5 14.97 25.2 13.7 25.72 13.7 21.02"/><polygon class="cls-7" points="27.55 15.36 28.82 14.84 28.82 19.54 27.55 20.06 27.55 15.36"/><polygon class="cls-7" points="25.06 16.38 26.33 15.86 26.33 20.56 25.06 21.08 25.06 16.38"/><path class="cls-7" d="M32.53,18.18A4.21,4.21,0,0,0,35,14.65c0-1.39-1.12-2.05-2.5-1.48A4.18,4.18,0,0,0,30,16.7c0,1.38,1.12,2.05,2.51,1.48m0-3.74c.68-.28,1.23,0,1.23.73a2.07,2.07,0,0,1-1.23,1.74c-.69.28-1.24-.05-1.24-.73a2.06,2.06,0,0,1,1.24-1.74"/><polygon class="cls-7" points="16.32 19.95 17.59 19.43 17.59 24.13 16.32 24.65 16.32 19.95"/><path class="cls-7" d="M21.29,22.78a4.2,4.2,0,0,0,2.51-3.54c0-1.38-1.12-2-2.51-1.48a4.21,4.21,0,0,0-2.5,3.53c0,1.39,1.12,2.05,2.5,1.49m0-3.75c.69-.28,1.24,0,1.24.73a2.07,2.07,0,0,1-1.24,1.75c-.68.27-1.23-.05-1.23-.74A2.07,2.07,0,0,1,21.29,19"/></g></g></svg>