<svg xmlns="http://www.w3.org/2000/svg" viewBox="0 0 46.26 49.73"><defs><style>.cls-1{fill:#ebebeb;}.cls-2{fill:#dfeab0;}.cls-3,.cls-5,.cls-7{fill:none;stroke-linejoin:round;stroke-width:0.5px;}.cls-3,.cls-5{stroke:#b6cd5b;}.cls-4{fill:#fff;}.cls-5{stroke-linecap:round;}.cls-6{fill:#98b9ea;}.cls-7{stroke:#304d9d;}.cls-8{fill:#deeaff;}.cls-9{fill:#304d9d;}</style></defs><title>diversified_insurance</title><g id="Layer_2" data-name="Layer 2"><g id="Layer_1-2" data-name="Layer 1"><polygon class="cls-1" points="23.13 49.73 0 41.25 23.13 32.77 46.26 41.25 23.13 49.73"/><path class="cls-2" d="M34.11,34.09c0,1.41,2.21,2.56,4.94,2.56s5-1.15,5-2.56V32.87H34.11Z"/><path class="cls-3" d="M34.11,34.09c0,1.41,2.21,2.56,4.94,2.56s5-1.15,5-2.56V32.87H34.11Z"/><path class="cls-4" d="M44,32.87c0,1.41-2.21,2.56-5,2.56s-4.94-1.15-4.94-2.56,2.21-2.57,4.94-2.57,5,1.15,5,2.57"/><path class="cls-3" d="M44,32.87c0,1.41-2.21,2.56-5,2.56s-4.94-1.15-4.94-2.56,2.21-2.57,4.94-2.57S44,31.45,44,32.87Z"/><path class="cls-5" d="M37.9,31.64h-.39a.27.27,0,0,0-.26.39l.55,1.67a.58.58,0,0,0,.51.39h.78a.27.27,0,0,0,.26-.39L38.8,32c-.06-.22.05-.39.26-.39h.79a.58.58,0,0,1,.51.39l.55,1.67a.27.27,0,0,1-.26.39h-.4"/><line class="cls-5" x1="36.41" y1="33.19" x2="37.63" y2="33.19"/><line class="cls-5" x1="36.16" y1="32.42" x2="37.38" y2="32.42"/><line class="cls-5" x1="40.74" y1="33.19" x2="41.96" y2="33.19"/><line class="cls-5" x1="40.49" y1="32.42" x2="41.71" y2="32.42"/><path class="cls-6" d="M36.87,27.2v8.6a1.73,1.73,0,0,1-1.09,1.47A5.82,5.82,0,0,1,30.49,37a2,2,0,0,1-1.09-1.58V27.06"/><path class="cls-7" d="M36.87,27.2v8.6a1.73,1.73,0,0,1-1.09,1.47A5.82,5.82,0,0,1,30.49,37a2,2,0,0,1-1.09-1.58V27.06"/><path class="cls-6" d="M18.6,26.12a1.74,1.74,0,0,1,1.09-1.52,5.86,5.86,0,0,1,5.29.27,2.11,2.11,0,0,1,1.08,1.37v8.62A1.71,1.71,0,0,1,25,36.33a5.82,5.82,0,0,1-5.29-.26,2,2,0,0,1-1.09-1.58V26.12Z"/><path class="cls-7" d="M18.6,26.12a1.74,1.74,0,0,1,1.09-1.52,5.86,5.86,0,0,1,5.29.27,2.11,2.11,0,0,1,1.08,1.37v8.62A1.71,1.71,0,0,1,25,36.33a5.82,5.82,0,0,1-5.29-.26,2,2,0,0,1-1.09-1.58V26.12Z"/><path class="cls-6" d="M9.44,26.07a1.73,1.73,0,0,1,1.1-1.51,5.87,5.87,0,0,1,5.28.26,2.14,2.14,0,0,1,1.08,1.37l0,0v8.6a1.76,1.76,0,0,1-1.1,1.47A5.87,5.87,0,0,1,10.54,36a2,2,0,0,1-1.1-1.58V26.07Z"/><path class="cls-7" d="M9.44,26.07a1.73,1.73,0,0,1,1.1-1.51,5.87,5.87,0,0,1,5.28.26,2.14,2.14,0,0,1,1.08,1.37l0,0v8.6a1.76,1.76,0,0,1-1.1,1.47A5.87,5.87,0,0,1,10.54,36a2,2,0,0,1-1.1-1.58V26.07Z"/><path class="cls-8" d="M41.55,19.17c0,9.13-8.23,16.13-18.38,15.63S4.79,26.49,4.79,17.36,13,1.23,23.17,1.73,41.55,10,41.55,19.17"/><path class="cls-7" d="M41.55,19.17c0,9.13-8.23,16.13-18.38,15.63S4.79,26.49,4.79,17.36,13,1.23,23.17,1.73,41.55,10,41.55,19.17Z"/><path class="cls-8" d="M44.59,21.35a9,9,0,0,1-4.33,7.29c-2.4,1.27-4.34.05-4.34-2.71a9,9,0,0,1,4.34-7.3c2.39-1.26,4.33-.05,4.33,2.72"/><path class="cls-7" d="M44.59,21.35a9,9,0,0,1-4.34,7.29c-2.39,1.27-4.33.05-4.33-2.71a9,9,0,0,1,4.33-7.3C42.65,17.37,44.59,18.58,44.59,21.35Z"/><path class="cls-6" d="M42.69,18.17l-4.56-1.91s-1.89-.79-4.32,1.75c0,0-2.8,2.9-2.56,6.09,0,0,0,2.2,1.7,2.93l4.34,1.83S35.54,28,36,24.91A9,9,0,0,1,39.67,19a4.14,4.14,0,0,1,3-.82"/><path class="cls-7" d="M42.69,18.17l-4.56-1.91s-1.89-.79-4.32,1.75c0,0-2.8,2.9-2.56,6.09,0,0,0,2.2,1.7,2.93l4.34,1.83S35.54,28,36,24.91A9,9,0,0,1,39.67,19,4.14,4.14,0,0,1,42.69,18.17Z"/><path class="cls-9" d="M30.2,16.57c0,1.21-.6,2.17-1.33,2.13s-1.33-1.05-1.33-2.26.6-2.17,1.33-2.13,1.33,1,1.33,2.26"/><path class="cls-9" d="M36.17,12.69c0,1.21-.59,2.16-1.32,2.13s-1.33-1.05-1.33-2.26.59-2.17,1.33-2.14,1.32,1.05,1.32,2.27"/><path class="cls-4" d="M39.87,24.09c0,1.29-.31,2.32-.7,2.3s-.7-1.08-.7-2.36.31-2.32.7-2.3.7,1.08.7,2.36"/><path class="cls-4" d="M42.3,22.81c0,1.29-.31,2.32-.7,2.3s-.7-1.08-.7-2.37.31-2.31.7-2.29.7,1.07.7,2.36"/><path class="cls-7" d="M18.05,17.75,16.69,15.5c-1.06-1.77-2.91-3.73-2.13-5.86a3.41,3.41,0,0,1,4.29-2l4.68,1.55"/><path class="cls-7" d="M6.64,10.22a8,8,0,0,1-3-3.13C2.49,5,2.49,2.78,3.67,2.16c.94-.5,2.47.46,3.42,2.14.75,1.35.75,2.76,0,3.16S5.5,7.16,4.9,6.09c-.48-.86-.48-1.77,0-2s1,.19,1.4.87"/><polygon class="cls-9" points="18.69 5.2 19.97 4.66 28.38 7.54 27.1 8.08 18.69 5.2"/><polygon class="cls-7" points="18.69 5.2 19.97 4.66 28.38 7.54 27.1 8.08 18.69 5.2"/><path class="cls-8" d="M18.7,15.93a41.08,41.08,0,0,1-2.32-3.86c-.78-1.71,1.25-3.36,2.85-2.83l3.11,1c-.1,0-.82.85-.93,1A12.36,12.36,0,0,0,19.08,15c0,.11-.44.83-.38.94"/><path class="cls-8" d="M28.39,33.59v4.93A1.73,1.73,0,0,1,27.29,40,5.83,5.83,0,0,1,22,39.73a2,2,0,0,1-1.1-1.58v-4.7"/><path class="cls-7" d="M28.39,33.59v4.93A1.73,1.73,0,0,1,27.29,40,5.83,5.83,0,0,1,22,39.73a2,2,0,0,1-1.1-1.58v-4.7"/><path class="cls-8" d="M28.39,3.69l1.88-2.63a2.2,2.2,0,0,1,3.78.7L35.4,7"/><path class="cls-7" d="M28.39,3.69l1.88-2.63a2.2,2.2,0,0,1,3.78.7L35.4,7"/><path class="cls-2" d="M1.48,37.92c0,1.42,2.21,2.56,4.94,2.56s4.95-1.14,4.95-2.56V36.7H1.48Z"/><path class="cls-3" d="M1.48,37.92c0,1.42,2.21,2.56,4.94,2.56s4.95-1.14,4.95-2.56V36.7H1.48Z"/><path class="cls-2" d="M11.37,36.7c0,1.41-2.21,2.56-4.95,2.56S1.48,38.11,1.48,36.7s2.21-2.56,4.94-2.56,4.95,1.14,4.95,2.56"/><path class="cls-3" d="M11.37,36.7c0,1.41-2.21,2.56-4.95,2.56S1.48,38.11,1.48,36.7s2.21-2.56,4.94-2.56S11.37,35.28,11.37,36.7Z"/><path class="cls-2" d="M1.48,36.7c0,1.41,2.21,2.56,4.94,2.56s4.95-1.15,4.95-2.56V35.48H1.48Z"/><path class="cls-3" d="M1.48,36.7c0,1.41,2.21,2.56,4.94,2.56s4.95-1.15,4.95-2.56V35.48H1.48Z"/><path class="cls-2" d="M11.37,35.48c0,1.41-2.21,2.56-4.95,2.56s-4.94-1.15-4.94-2.56,2.21-2.57,4.94-2.57,4.95,1.15,4.95,2.57"/><path class="cls-3" d="M11.37,35.48c0,1.41-2.21,2.56-4.95,2.56s-4.94-1.15-4.94-2.56,2.21-2.57,4.94-2.57S11.37,34.06,11.37,35.48Z"/><path class="cls-2" d="M1.48,35.48C1.48,36.89,3.69,38,6.42,38s4.95-1.15,4.95-2.56V34.25H1.48Z"/><path class="cls-3" d="M1.48,35.48C1.48,36.89,3.69,38,6.42,38s4.95-1.15,4.95-2.56V34.25H1.48Z"/><path class="cls-2" d="M11.37,34.25c0,1.42-2.21,2.57-4.95,2.57s-4.94-1.15-4.94-2.57,2.21-2.56,4.94-2.56,4.95,1.15,4.95,2.56"/><path class="cls-3" d="M11.37,34.25c0,1.42-2.21,2.57-4.95,2.57s-4.94-1.15-4.94-2.57,2.21-2.56,4.94-2.56S11.37,32.84,11.37,34.25Z"/><path class="cls-2" d="M1.48,34.25c0,1.42,2.21,2.57,4.94,2.57s4.95-1.15,4.95-2.57V33H1.48Z"/><path class="cls-3" d="M1.48,34.25c0,1.42,2.21,2.57,4.94,2.57s4.95-1.15,4.95-2.57V33H1.48Z"/><path class="cls-2" d="M11.37,33c0,1.42-2.21,2.57-4.95,2.57S1.48,34.45,1.48,33s2.21-2.56,4.94-2.56,4.95,1.15,4.95,2.56"/><path class="cls-3" d="M11.37,33c0,1.42-2.21,2.57-4.95,2.57S1.48,34.45,1.48,33s2.21-2.56,4.94-2.56S11.37,31.62,11.37,33Z"/><path class="cls-2" d="M1.48,33c0,1.42,2.21,2.57,4.94,2.57s4.95-1.15,4.95-2.57V31.81H1.48Z"/><path class="cls-3" d="M1.48,33c0,1.42,2.21,2.57,4.94,2.57s4.95-1.15,4.95-2.57V31.81H1.48Z"/><path class="cls-4" d="M11.37,31.81c0,1.42-2.21,2.56-4.95,2.56s-4.94-1.14-4.94-2.56,2.21-2.56,4.94-2.56,4.95,1.15,4.95,2.56"/><path class="cls-3" d="M11.37,31.81c0,1.42-2.21,2.56-4.95,2.56s-4.94-1.14-4.94-2.56,2.21-2.56,4.94-2.56S11.37,30.4,11.37,31.81Z"/><path class="cls-2" d="M9.85,41.08c0,1.42,2.22,2.57,5,2.57s4.95-1.15,4.95-2.57V39.86H9.85Z"/><path class="cls-3" d="M9.85,41.08c0,1.42,2.22,2.57,5,2.57s4.95-1.15,4.95-2.57V39.86H9.85Z"/><path class="cls-4" d="M19.75,39.86c0,1.42-2.22,2.56-4.95,2.56s-5-1.14-5-2.56,2.22-2.56,5-2.56,4.95,1.15,4.95,2.56"/><path class="cls-3" d="M19.75,39.86c0,1.42-2.22,2.56-4.95,2.56s-5-1.14-5-2.56,2.22-2.56,5-2.56S19.75,38.45,19.75,39.86Z"/><path class="cls-5" d="M5.27,30.59h-.4a.26.26,0,0,0-.25.38l.54,1.68a.59.59,0,0,0,.51.39h.79a.27.27,0,0,0,.26-.39L6.17,31a.27.27,0,0,1,.26-.38h.78a.57.57,0,0,1,.51.38l.55,1.68A.27.27,0,0,1,8,33h-.4"/><line class="cls-5" x1="3.77" y1="32.14" x2="5" y2="32.14"/><line class="cls-5" x1="3.52" y1="31.37" x2="4.74" y2="31.37"/><line class="cls-5" x1="8.1" y1="32.14" x2="9.33" y2="32.14"/><line class="cls-5" x1="7.85" y1="31.37" x2="9.08" y2="31.37"/><path class="cls-5" d="M13.65,38.64h-.4A.26.26,0,0,0,13,39l.54,1.68a.59.59,0,0,0,.51.39h.79a.27.27,0,0,0,.26-.39L14.55,39a.27.27,0,0,1,.26-.38h.78a.57.57,0,0,1,.51.38l.55,1.68a.27.27,0,0,1-.26.39H16"/><line class="cls-5" x1="12.15" y1="40.19" x2="13.38" y2="40.19"/><line class="cls-5" x1="11.9" y1="39.42" x2="13.12" y2="39.42"/><line class="cls-5" x1="16.48" y1="40.19" x2="17.71" y2="40.19"/><line class="cls-5" x1="16.23" y1="39.42" x2="17.46" y2="39.42"/></g></g></svg>