<svg xmlns="http://www.w3.org/2000/svg" viewBox="0 0 49.12 33.7"><defs><style>.cls-1{fill:#ebebeb;}.cls-2,.cls-4{fill:none;stroke-linejoin:round;stroke-width:0.55px;}.cls-2{stroke:#304d9d;}.cls-3{fill:#dfeab0;}.cls-4{stroke:#dfeab0;}.cls-5{fill:#b6cd5b;}.cls-6{fill:#304d9d;}</style></defs><title>dr_prem_to_prem</title><g id="Layer_2" data-name="Layer 2"><g id="Layer_1-2" data-name="Layer 1"><polygon class="cls-1" points="24.17 33.7 1.04 25.22 24.17 16.74 47.3 25.22 24.17 33.7"/><path class="cls-2" d="M25.19,6.76c0,2.69-5.58,4.86-12.46,4.86S.28,9.45.28,6.76,5.85,1.9,12.73,1.9,25.19,4.08,25.19,6.76Z"/><path class="cls-3" d="M12.63,2.86C7,2.86,2.38,5.24,2.38,8.17S7,13.48,12.63,13.48,22.89,11.1,22.89,8.17,18.3,2.86,12.63,2.86m0,8.19c-3.07,0-5.56-1.29-5.56-2.88s2.49-2.88,5.56-2.88,5.56,1.29,5.56,2.88-2.49,2.88-5.56,2.88"/><path class="cls-4" d="M12.63,2.86C7,2.86,2.38,5.24,2.38,8.17S7,13.48,12.63,13.48,22.89,11.1,22.89,8.17,18.3,2.86,12.63,2.86Zm0,8.19c-3.07,0-5.56-1.29-5.56-2.88s2.49-2.88,5.56-2.88,5.56,1.29,5.56,2.88S15.7,11.05,12.63,11.05Z"/><path class="cls-3" d="M2.38,8.17c0,2.93,4.59,5.31,10.25,5.31S22.89,11.1,22.89,8.17V5.64H19.4L15.5,9.56H9.76L6.19,5.64H2.38Z"/><path class="cls-4" d="M2.38,8.17c0,2.93,4.59,5.31,10.25,5.31S22.89,11.1,22.89,8.17V5.64H19.4L15.5,9.56H9.76L6.19,5.64H2.38Z"/><path class="cls-3" d="M12.63.33C7,.33,2.38,2.71,2.38,5.64S7,11,12.63,11,22.89,8.57,22.89,5.64,18.3.33,12.63.33m0,8.19c-3.07,0-5.56-1.29-5.56-2.88s2.49-2.88,5.56-2.88,5.56,1.29,5.56,2.88S15.7,8.52,12.63,8.52"/><path class="cls-4" d="M12.63.33C7,.33,2.38,2.71,2.38,5.64S7,11,12.63,11,22.89,8.57,22.89,5.64,18.3.33,12.63.33Zm0,8.19c-3.07,0-5.56-1.29-5.56-2.88s2.49-2.88,5.56-2.88,5.56,1.29,5.56,2.88S15.7,8.52,12.63,8.52Z"/><path class="cls-5" d="M7.43,12.62A7.91,7.91,0,0,1,3,9.76,2.85,2.85,0,0,1,3.7,7.5,3.53,3.53,0,0,1,6.31,6.34a3.1,3.1,0,0,1,.92.14A2.89,2.89,0,0,0,8.7,7.83a4.44,4.44,0,0,0-1.27,4.79"/><path class="cls-6" d="M6.31,6.62A2.76,2.76,0,0,1,7,6.71a3.09,3.09,0,0,0,1.2,1.18A4.82,4.82,0,0,0,7,12.19,7,7,0,0,1,3.25,9.66a2.63,2.63,0,0,1,.65-2A3.27,3.27,0,0,1,6.31,6.62m0-.55a3.48,3.48,0,0,0-3.6,3.79C4,11.74,5.92,12.45,7.94,13.07a4.1,4.1,0,0,1,1.31-5.3c-.91-.32-1.74-1-1.79-1.51a3.47,3.47,0,0,0-1.15-.19"/><path class="cls-5" d="M17.84,12.62a4.48,4.48,0,0,0-1.27-4.79A2.86,2.86,0,0,0,18,6.48,3.1,3.1,0,0,1,19,6.34,3.55,3.55,0,0,1,21.57,7.5a2.88,2.88,0,0,1,.71,2.26,7.88,7.88,0,0,1-4.44,2.86"/><path class="cls-6" d="M19,6.62a3.27,3.27,0,0,1,2.41,1.06,2.59,2.59,0,0,1,.65,2,7,7,0,0,1-3.77,2.53A4.82,4.82,0,0,0,17,7.89a3.09,3.09,0,0,0,1.2-1.18A2.82,2.82,0,0,1,19,6.62m0-.55a3.47,3.47,0,0,0-1.15.19c-.05.5-.88,1.19-1.79,1.51a4.1,4.1,0,0,1,1.31,5.3c2-.62,4-1.33,5.23-3.21A3.48,3.48,0,0,0,19,6.07"/><path class="cls-5" d="M8.69,6a3,3,0,0,0-.53-2A4.56,4.56,0,0,0,4.91,2.25,10.58,10.58,0,0,1,8.17,1a2.53,2.53,0,0,1,2.09,2,4.89,4.89,0,0,1,0,2.41A9.58,9.58,0,0,0,8.69,6"/><path class="cls-6" d="M8.17,1.25A2.27,2.27,0,0,1,10,3.05a.43.43,0,0,1,0,.05,4.57,4.57,0,0,1,0,2.08,11.11,11.11,0,0,0-1,.38,3.15,3.15,0,0,0-.59-1.72A4.86,4.86,0,0,0,5.75,2.11a9.93,9.93,0,0,1,2.42-.86m0-.56A11,11,0,0,0,3.93,2.58a3.85,3.85,0,0,1,.69-.06A4.25,4.25,0,0,1,8,4.18a2.66,2.66,0,0,1,.29,2.44,6.87,6.87,0,0,1,2.24-1,5.28,5.28,0,0,0,0-2.7A2.83,2.83,0,0,0,8.18.69"/><path class="cls-5" d="M16.58,6A9.58,9.58,0,0,0,15,5.4,4.94,4.94,0,0,1,15,3,2.55,2.55,0,0,1,17.1,1a10.58,10.58,0,0,1,3.26,1.28A4.57,4.57,0,0,0,17.1,4a3,3,0,0,0-.52,2"/><path class="cls-6" d="M17.1,1.25a9.93,9.93,0,0,1,2.42.86A4.82,4.82,0,0,0,16.9,3.82a3.17,3.17,0,0,0-.6,1.74,11.11,11.11,0,0,0-1.05-.38,4.57,4.57,0,0,1,0-2.08.43.43,0,0,1,0-.05,2.27,2.27,0,0,1,1.82-1.8m0-.56a2.83,2.83,0,0,0-2.35,2.24,5.28,5.28,0,0,0,0,2.7,6.87,6.87,0,0,1,2.24,1,2.66,2.66,0,0,1,.29-2.44,4.25,4.25,0,0,1,3.33-1.66,3.85,3.85,0,0,1,.69.06A11,11,0,0,0,17.09.69"/><path class="cls-2" d="M22.89,5.64C22.89,2.71,18.3.33,12.63.33S2.38,2.71,2.38,5.64V8.17a3.27,3.27,0,0,0,.8,2.07,5.87,5.87,0,0,0,.95.9,9.93,9.93,0,0,0,1.25.79,11.76,11.76,0,0,0,1.52.64,15,15,0,0,0,2.68.67,18.76,18.76,0,0,0,3.05.24,18.58,18.58,0,0,0,3-.24,14.9,14.9,0,0,0,2.69-.67,12.39,12.39,0,0,0,1.52-.64,9.93,9.93,0,0,0,1.25-.79,5.79,5.79,0,0,0,.94-.9,3.28,3.28,0,0,0,.81-2.07ZM17.62,6.91a7.17,7.17,0,0,1-5,1.61,7.15,7.15,0,0,1-5-1.61,7.1,7.1,0,0,1,5-1.62A7.13,7.13,0,0,1,17.62,6.91Z"/><path class="cls-2" d="M25.19,6.76c0,2.69-5.58,4.86-12.46,4.86S.28,9.45.28,6.76"/><path class="cls-2" d="M48.84,6.71c0,2.68-5.58,4.86-12.46,4.86S23.92,9.39,23.92,6.71,29.5,1.84,36.38,1.84,48.84,4,48.84,6.71Z"/><path class="cls-3" d="M36.28,2.81C30.62,2.81,26,5.18,26,8.12s4.59,5.3,10.25,5.3,10.26-2.37,10.26-5.3S42,2.81,36.28,2.81m0,8.18c-3.07,0-5.56-1.28-5.56-2.87s2.49-2.88,5.56-2.88,5.56,1.29,5.56,2.88S39.35,11,36.28,11"/><path class="cls-4" d="M36.28,2.81C30.62,2.81,26,5.18,26,8.12s4.59,5.3,10.25,5.3,10.26-2.37,10.26-5.3S42,2.81,36.28,2.81Zm0,8.18c-3.07,0-5.56-1.28-5.56-2.87s2.49-2.88,5.56-2.88,5.56,1.29,5.56,2.88S39.35,11,36.28,11Z"/><path class="cls-3" d="M26,8.12c0,2.93,4.59,5.3,10.25,5.3s10.26-2.37,10.26-5.3V5.58H43.05L39.15,9.5H33.41L29.84,5.58H26Z"/><path class="cls-4" d="M26,8.12c0,2.93,4.59,5.3,10.25,5.3s10.26-2.37,10.26-5.3V5.58H43.05L39.15,9.5H33.41L29.84,5.58H26Z"/><path class="cls-3" d="M36.28.28C30.62.28,26,2.65,26,5.58s4.59,5.31,10.25,5.31S46.54,8.52,46.54,5.58,42,.28,36.28.28m0,8.18c-3.07,0-5.56-1.29-5.56-2.88s2.49-2.87,5.56-2.87S41.84,4,41.84,5.58s-2.49,2.88-5.56,2.88"/><path class="cls-4" d="M36.28.28C30.62.28,26,2.65,26,5.58s4.59,5.31,10.25,5.31S46.54,8.52,46.54,5.58,42,.28,36.28.28Zm0,8.18c-3.07,0-5.56-1.29-5.56-2.88s2.49-2.87,5.56-2.87S41.84,4,41.84,5.58,39.35,8.46,36.28,8.46Z"/><path class="cls-5" d="M31.07,12.56a7.9,7.9,0,0,1-4.44-2.85,2.88,2.88,0,0,1,.71-2.26A3.53,3.53,0,0,1,30,6.29a3.1,3.1,0,0,1,.92.13,2.82,2.82,0,0,0,1.46,1.35,4.49,4.49,0,0,0-1.27,4.79"/><path class="cls-6" d="M30,6.56a2.82,2.82,0,0,1,.71.09,3,3,0,0,0,1.2,1.18,4.83,4.83,0,0,0-1.2,4.31A7,7,0,0,1,26.9,9.61a2.61,2.61,0,0,1,.65-2A3.25,3.25,0,0,1,30,6.56M30,6a3.48,3.48,0,0,0-3.6,3.79c1.25,1.89,3.21,2.6,5.23,3.21a4.11,4.11,0,0,1,1.31-5.3c-.91-.32-1.74-1-1.79-1.5A3.48,3.48,0,0,0,30,6"/><path class="cls-5" d="M41.48,12.56a4.45,4.45,0,0,0-1.27-4.79,2.85,2.85,0,0,0,1.47-1.35,3.1,3.1,0,0,1,.92-.13,3.5,3.5,0,0,1,2.61,1.16,2.85,2.85,0,0,1,.72,2.26,7.89,7.89,0,0,1-4.45,2.85"/><path class="cls-6" d="M42.6,6.56A3.25,3.25,0,0,1,45,7.63a2.61,2.61,0,0,1,.65,2,7,7,0,0,1-3.77,2.53,4.83,4.83,0,0,0-1.2-4.31,3,3,0,0,0,1.2-1.18,2.76,2.76,0,0,1,.71-.09m0-.55a3.48,3.48,0,0,0-1.15.2c-.05.5-.88,1.18-1.79,1.5A4.11,4.11,0,0,1,41,13c2-.61,4-1.32,5.23-3.21A3.48,3.48,0,0,0,42.6,6"/><path class="cls-5" d="M32.34,5.94a3.08,3.08,0,0,0-.53-2A4.56,4.56,0,0,0,28.56,2.2,10.33,10.33,0,0,1,31.82.92a2.55,2.55,0,0,1,2.09,2,4.93,4.93,0,0,1,0,2.42,9.58,9.58,0,0,0-1.56.59"/><path class="cls-6" d="M31.82,1.2A2.27,2.27,0,0,1,33.64,3a.43.43,0,0,0,0,0,4.62,4.62,0,0,1,0,2.09c-.26.08-.66.21-1.05.37A3.21,3.21,0,0,0,32,3.78,4.84,4.84,0,0,0,29.4,2.06a9.93,9.93,0,0,1,2.42-.86m0-.56a10.71,10.71,0,0,0-4.24,1.89,3.84,3.84,0,0,1,.69-.07A4.25,4.25,0,0,1,31.6,4.12a2.68,2.68,0,0,1,.29,2.45,6.94,6.94,0,0,1,2.23-1,5.15,5.15,0,0,0,.06-2.7A2.83,2.83,0,0,0,31.82.64"/><path class="cls-5" d="M40.23,5.94a9.58,9.58,0,0,0-1.56-.59,4.81,4.81,0,0,1,0-2.39,2.54,2.54,0,0,1,2.1-2A10.19,10.19,0,0,1,44,2.2,4.57,4.57,0,0,0,40.75,4a3,3,0,0,0-.52,2"/><path class="cls-6" d="M40.75,1.2a9.72,9.72,0,0,1,2.41.86,4.83,4.83,0,0,0-2.61,1.71A3.16,3.16,0,0,0,40,5.5c-.4-.16-.79-.29-1.05-.37a4.62,4.62,0,0,1,0-2.09.43.43,0,0,0,0,0A2.27,2.27,0,0,1,40.75,1.2m0-.56a2.83,2.83,0,0,0-2.35,2.23,5.27,5.27,0,0,0,0,2.7,7,7,0,0,1,2.24,1A2.68,2.68,0,0,1,41,4.12,4.25,4.25,0,0,1,44.3,2.46a3.84,3.84,0,0,1,.69.07A10.69,10.69,0,0,0,40.74.64"/><path class="cls-2" d="M46.54,5.58c0-2.93-4.59-5.3-10.26-5.3S26,2.65,26,5.58V8.12a3.22,3.22,0,0,0,.8,2.06,5.47,5.47,0,0,0,1,.9,8.08,8.08,0,0,0,1.25.79,11.2,11.2,0,0,0,1.52.65,16.93,16.93,0,0,0,2.68.67,20,20,0,0,0,3.05.23,19.87,19.87,0,0,0,3-.23A17.06,17.06,0,0,0,42,12.52a11.62,11.62,0,0,0,1.51-.65,7.73,7.73,0,0,0,1.26-.79,5.77,5.77,0,0,0,.94-.9,3.23,3.23,0,0,0,.81-2.06ZM41.27,6.85a7.19,7.19,0,0,1-5,1.61,7.15,7.15,0,0,1-5-1.61,7.15,7.15,0,0,1,5-1.61A7.19,7.19,0,0,1,41.27,6.85Z"/><path class="cls-2" d="M48.84,6.71c0,2.68-5.58,4.86-12.46,4.86S23.92,9.39,23.92,6.71"/></g></g></svg>