<svg xmlns="http://www.w3.org/2000/svg" xmlns:xlink="http://www.w3.org/1999/xlink" viewBox="0 0 53.05 47.01"><defs><style>.cls-1,.cls-11,.cls-7{fill:none;}.cls-2{isolation:isolate;}.cls-3{mix-blend-mode:multiply;}.cls-4{clip-path:url(#clip-path);}.cls-5{fill:#ebebeb;}.cls-6{fill:#deeaff;}.cls-7{stroke:#304d9d;}.cls-11,.cls-7{stroke-linejoin:round;stroke-width:0.5px;}.cls-8{fill:#fff;}.cls-9{fill:#98b9ea;}.cls-10{fill:#b6cd5b;}.cls-11{stroke:#b6cd5b;}</style><clipPath id="clip-path" transform="translate(0)"><rect class="cls-1" y="27.55" width="53.05" height="19.46"/></clipPath></defs><title>education</title><g class="cls-2"><g id="Layer_2" data-name="Layer 2"><g id="Layer_1-2" data-name="Layer 1"><g class="cls-3"><g class="cls-4"><polygon class="cls-5" points="26.52 47.01 0 37.28 26.52 27.55 53.05 37.28 26.52 47.01"/></g></g><line class="cls-6" x1="44.8" y1="29.32" x2="25.51" y2="36.39"/><line class="cls-7" x1="44.8" y1="29.32" x2="25.51" y2="36.39"/><path class="cls-8" d="M25.51,29.32l17.78-6.56v7.07L25.51,36.39a10.46,10.46,0,0,1,0-7.07" transform="translate(0)"/><path class="cls-7" d="M25.51,29.32l17.78-6.56v7.07L25.51,36.39A10.46,10.46,0,0,1,25.51,29.32Z" transform="translate(0)"/><polyline class="cls-6" points="36.4 19.16 44.8 22.24 25.51 29.32 6.22 22.24 14.79 19.1"/><polyline class="cls-7" points="36.4 19.16 44.8 22.24 25.51 29.32 6.22 22.24 14.79 19.1"/><path class="cls-6" d="M6.22,22.24a8.57,8.57,0,0,0,0,7.08l19.29,7.07a10.33,10.33,0,0,1,0-7.07Z" transform="translate(0)"/><path class="cls-7" d="M6.22,22.24a8.57,8.57,0,0,0,0,7.08l19.29,7.07a10.33,10.33,0,0,1,0-7.07Z" transform="translate(0)"/><path class="cls-9" d="M36.4,10.73v10S33,23,25.59,23s-10.8-2.31-10.8-2.31v-10" transform="translate(0)"/><path class="cls-7" d="M36.4,10.73v10S33,23,25.59,23s-10.8-2.31-10.8-2.31v-10" transform="translate(0)"/><polygon class="cls-6" points="25.51 14.4 6.22 7.32 25.51 0.25 44.8 7.32 25.51 14.4"/><polygon class="cls-7" points="25.51 14.4 6.22 7.32 25.51 0.25 44.8 7.32 25.51 14.4"/><path class="cls-10" d="M28.68,7.32c0,.44-1.38.79-3.09.79s-3.08-.35-3.08-.79,1.38-.78,3.08-.78,3.09.35,3.09.78" transform="translate(0)"/><path class="cls-11" d="M28.68,7.32c0,.44-1.38.79-3.09.79s-3.08-.35-3.08-.79,1.38-.78,3.08-.78S28.68,6.89,28.68,7.32Z" transform="translate(0)"/><polyline class="cls-11" points="25.59 7.32 17.23 10.65 17.23 18.36"/></g></g></g></svg>