<svg xmlns="http://www.w3.org/2000/svg" viewBox="0 0 46.26 49.62"><defs><style>.cls-1{fill:#ebebeb;}.cls-2{fill:#fff;}.cls-3{fill:none;stroke:#304d9d;stroke-linejoin:round;stroke-width:0.5px;}.cls-4{fill:#dfeab0;}.cls-5{fill:#deeaff;}.cls-6{fill:#98b9ea;}</style></defs><title>EMR_VDI_applications</title><g id="Layer_2" data-name="Layer 2"><g id="Layer_1-2" data-name="Layer 1"><polygon class="cls-1" points="23.13 49.62 0 41.14 23.13 32.65 46.26 41.14 23.13 49.62"/><polygon class="cls-2" points="34.81 34.21 20.93 29.04 4.28 35.15 18.15 40.32 34.81 34.21"/><polygon class="cls-3" points="34.81 34.21 20.93 29.04 4.28 35.15 18.15 40.32 34.81 34.21"/><polygon class="cls-4" points="22.06 30.89 20.6 30.4 7.97 35.03 9.43 35.53 22.06 30.89"/><polygon class="cls-4" points="24.93 31.83 23.47 31.34 10.84 35.97 12.31 36.46 24.93 31.83"/><polygon class="cls-4" points="27.81 32.77 26.35 32.28 13.72 36.91 15.18 37.4 27.81 32.77"/><polygon class="cls-5" points="18.15 40.32 18.15 42.25 34.81 36.15 34.81 34.21 18.15 40.32"/><polygon class="cls-3" points="18.15 40.32 18.15 42.25 34.81 36.15 34.81 34.21 18.15 40.32"/><polygon class="cls-5" points="18.15 40.32 18.15 42.25 4.28 37.08 4.28 35.15 18.15 40.32"/><polygon class="cls-3" points="18.15 40.32 18.15 42.25 4.28 37.08 4.28 35.15 18.15 40.32"/><polygon class="cls-5" points="18.3 13.11 17.23 13.11 0.57 19.22 1.64 19.22 18.3 13.11"/><polygon class="cls-3" points="18.3 13.11 17.23 13.11 0.57 19.22 1.64 19.22 18.3 13.11"/><polygon class="cls-2" points="1.64 19.22 4.19 35.08 20.85 28.97 18.3 13.11 1.64 19.22"/><polygon class="cls-3" points="1.64 19.22 4.19 35.08 20.85 28.97 18.3 13.11 1.64 19.22"/><polygon class="cls-4" points="3.37 20.1 5.46 33.1 19.11 28.09 17.02 15.09 3.37 20.1"/><polygon class="cls-5" points="1.64 19.22 4.19 35.08 2.98 35.08 0.58 19.22 1.64 19.22"/><polygon class="cls-3" points="1.64 19.22 4.19 35.08 2.98 35.08 0.58 19.22 1.64 19.22"/><path class="cls-5" d="M28.1,2.12c2.6,1.52-3.09,12-6.22,11.16a21.36,21.36,0,0,1-4.21-1.66,3.54,3.54,0,0,1-1.81-3.36A9,9,0,0,1,21.33.65,4.72,4.72,0,0,1,24.54.44,19.07,19.07,0,0,1,28.1,2.12"/><path class="cls-3" d="M28.1,2.12c2.6,1.52-3.09,12-6.22,11.16a21.36,21.36,0,0,1-4.21-1.66,3.54,3.54,0,0,1-1.81-3.36A9,9,0,0,1,21.33.65,4.72,4.72,0,0,1,24.54.44,19.07,19.07,0,0,1,28.1,2.12Z"/><path class="cls-5" d="M27.86,20.36l-10,6.28L14.8,25.47l.94-6c.53-3.33,2.5-6.57,5.59-7.78a4.34,4.34,0,0,1,3.33-.1,39.65,39.65,0,0,1,3.69,1.57Z"/><path class="cls-3" d="M27.86,20.36l-10,6.28L14.8,25.47l.94-6c.53-3.33,2.5-6.57,5.59-7.78a4.34,4.34,0,0,1,3.33-.1,39.65,39.65,0,0,1,3.69,1.57Z"/><path class="cls-6" d="M29.57,5.27a9,9,0,0,1-5.46,7.61c-3,1.18-5.47-.31-5.47-3.33A9,9,0,0,1,24.11,2c3-1.19,5.46.3,5.46,3.32"/><path class="cls-3" d="M29.57,5.27a9,9,0,0,1-5.46,7.61c-3,1.18-5.47-.31-5.47-3.33A9,9,0,0,1,24.11,2C27.13.76,29.57,2.25,29.57,5.27Z"/><path class="cls-6" d="M30.93,21.53,17.87,26.64l.94-5.95c.54-3.34,2.51-6.57,5.59-7.78s5,.4,5.59,3.4Z"/><path class="cls-3" d="M30.93,21.53,17.87,26.64l.94-5.95c.54-3.34,2.51-6.57,5.59-7.78s5,.4,5.59,3.4Z"/><polygon class="cls-5" points="26.34 32.8 24.95 32.28 24.95 20.48 26.34 21 26.34 32.8"/><polygon class="cls-3" points="26.34 32.8 24.95 32.28 24.95 20.48 26.34 21 26.34 32.8"/><path class="cls-2" d="M44.49,13.15l.62.13a3.74,3.74,0,0,0-2.26-.56L25.71,19.36l1.39.53Z"/><path class="cls-3" d="M44.49,13.15l.62.13a3.74,3.74,0,0,0-2.26-.56L25.71,19.36l1.39.53Z"/><path class="cls-6" d="M25,32.28a1.18,1.18,0,0,0,.87,1.14c.23.07,1,.34,1.48.48l-1-1.1Z"/><path class="cls-3" d="M25,32.28a1.18,1.18,0,0,0,.87,1.14c.23.07,1,.34,1.48.48l-1-1.1Z"/><path class="cls-2" d="M26.34,21V32.73A1.19,1.19,0,0,0,28,33.84L45,27.1A1.2,1.2,0,0,0,45.78,26V14.36a1.19,1.19,0,0,0-1.62-1.11L27.1,19.91a1.17,1.17,0,0,0-.76,1.1"/><path class="cls-3" d="M26.34,21V32.73A1.19,1.19,0,0,0,28,33.84L45,27.1A1.2,1.2,0,0,0,45.78,26V14.36a1.19,1.19,0,0,0-1.62-1.11L27.1,19.91A1.17,1.17,0,0,0,26.34,21Z"/><path class="cls-5" d="M25,20.46a1.19,1.19,0,0,1,.76-1.11l1.39.56a1.17,1.17,0,0,0-.76,1.1Z"/><path class="cls-3" d="M25,20.46a1.19,1.19,0,0,1,.76-1.11l1.39.56a1.17,1.17,0,0,0-.76,1.1Z"/><polygon class="cls-4" points="29 20.14 28.99 32.42 43.48 26.7 43.48 14.52 29 20.14"/></g></g></svg>