<svg xmlns="http://www.w3.org/2000/svg" viewBox="0 0 46.26 47.93"><defs><style>.cls-1{fill:#ebebeb;}.cls-2{fill:#dfeab0;}.cls-3,.cls-5{fill:none;stroke-linejoin:round;stroke-width:0.5px;}.cls-3{stroke:#b6cd5b;}.cls-4{fill:#c4d36c;}.cls-5{stroke:#304d9d;}</style></defs><title>enrgy_and_utilities</title><g id="Layer_2" data-name="Layer 2"><g id="Layer_1-2" data-name="Layer 1"><polygon class="cls-1" points="23.13 47.93 0 39.45 23.13 30.96 46.26 39.45 23.13 47.93"/><path class="cls-2" d="M25.57,33.42a2.44,2.44,0,1,1-4.88,0"/><path class="cls-3" d="M25.57,33.42a2.44,2.44,0,1,1-4.88,0"/><path class="cls-2" d="M18.59,29.62V32.4c0,.56,2,1,4.54,1s4.54-.46,4.54-1V23.26a11.32,11.32,0,1,0-9.08,0v6.36Z"/><path class="cls-3" d="M18.59,29.62V32.4c0,.56,2,1,4.54,1s4.54-.46,4.54-1V23.26a11.32,11.32,0,1,0-9.08,0v6.36Z"/><path class="cls-4" d="M18.59,27.07c0,.57,2,1,4.54,1s4.54-.46,4.54-1v2.62c0,.56-2,1-4.54,1s-4.54-.46-4.54-1Z"/><path class="cls-3" d="M18.59,27.07c0,.57,2,1,4.54,1s4.54-.46,4.54-1v2.62c0,.56-2,1-4.54,1s-4.54-.46-4.54-1Z"/><path class="cls-4" d="M18.59,29.78c0,.57,2,1,4.54,1s4.54-.46,4.54-1V32.4c0,.56-2,1-4.54,1s-4.54-.46-4.54-1Z"/><path class="cls-3" d="M18.59,29.78c0,.57,2,1,4.54,1s4.54-.46,4.54-1V32.4c0,.56-2,1-4.54,1s-4.54-.46-4.54-1Z"/><path class="cls-3" d="M34.45,13.08c0,1.5-5.07,3.74-11.32,3.74s-11.32-2.24-11.32-3.74"/><path class="cls-3" d="M23.13,1.52c1.5,0,3.74,5.07,3.74,11.32s-1.3,9.86-3.74,11.32V28.1"/><path class="cls-5" d="M5,22.5c-1.08-1.86,1.14-5.34,5.41-9.09"/><path class="cls-5" d="M30,1.93c5.7-2,10.11-2.31,11.23-.37"/><path class="cls-5" d="M41.26,22.5c1.08-1.86-1.14-5.34-5.41-9.09"/><path class="cls-5" d="M16.23,1.93C10.53-.09,6.11-.38,5,1.56"/><path class="cls-5" d="M41.26,1.56c1.72,3-5,10.09-15,15.87S6.72,25.48,5,22.5"/><path class="cls-5" d="M5,1.56c-1.73,3,5,10.09,15,15.87s19.53,8.05,21.25,5.07"/></g></g></svg>