<svg xmlns="http://www.w3.org/2000/svg" viewBox="0 0 48.55 48.9"><defs><style>.cls-1{fill:#ebebeb;}.cls-2{fill:#fff;}.cls-3{fill:#304d9d;}.cls-4{fill:#98b9ea;}.cls-5,.cls-8,.cls-9{fill:none;stroke-linejoin:round;stroke-width:0.5px;}.cls-5{stroke:#304d9d;}.cls-6{fill:#deeaff;}.cls-7{fill:#dfeab0;}.cls-8,.cls-9{stroke:#b6cd5b;}.cls-9{stroke-linecap:round;}</style></defs><title>fast_time_to_value</title><g id="Layer_2" data-name="Layer 2"><g id="Layer_1-2" data-name="Layer 1"><polygon class="cls-1" points="24.36 48.9 1.23 40.41 24.36 31.93 47.49 40.41 24.36 48.9"/><path class="cls-2" d="M14.83,25.66C9,27.86,3.35,24.59,2.33,18.35a14.45,14.45,0,0,1,8.8-15.29C17,.86,22.6,4.14,23.63,10.38a14.45,14.45,0,0,1-8.8,15.28"/><path class="cls-3" d="M14.17,17.11a1,1,0,0,1-1.39-.82,1.63,1.63,0,0,1,1-1.7,1,1,0,0,1,1.39.82,1.6,1.6,0,0,1-1,1.7"/><path class="cls-4" d="M10.8,1.06C3.87,3.64-.76,11.7.44,19.05s7.8,11.21,14.72,8.62S26.72,17,25.52,9.67,17.72-1.53,10.8,1.06m4,24.6C9,27.86,3.35,24.59,2.33,18.35a14.45,14.45,0,0,1,8.8-15.29C17,.86,22.6,4.14,23.63,10.38a14.45,14.45,0,0,1-8.8,15.28"/><path class="cls-5" d="M10.8,1.06C3.87,3.64-.76,11.7.44,19.05s7.8,11.21,14.72,8.62S26.72,17,25.52,9.67,17.72-1.53,10.8,1.06Zm4,24.6C9,27.86,3.35,24.59,2.33,18.35a14.45,14.45,0,0,1,8.8-15.29C17,.86,22.6,4.14,23.63,10.38A14.45,14.45,0,0,1,14.83,25.66Z"/><path class="cls-6" d="M12.42,1.68C5.5,4.27.86,12.33,2.06,19.68s7.8,11.2,14.72,8.61a17,17,0,0,0,10.36-18C25.93,3,19.35-.91,12.42,1.68m4,24.61C10.57,28.49,5,25.21,4,19a14.45,14.45,0,0,1,8.8-15.28C18.63,1.48,24.23,4.76,25.25,11a14.45,14.45,0,0,1-8.79,15.29"/><path class="cls-5" d="M12.42,1.68C5.5,4.27.86,12.33,2.06,19.68s7.8,11.2,14.72,8.61a17,17,0,0,0,10.36-18C25.93,3,19.35-.91,12.42,1.68Zm4,24.61C10.57,28.49,5,25.21,4,19a14.45,14.45,0,0,1,8.8-15.28C18.63,1.48,24.23,4.76,25.25,11A14.45,14.45,0,0,1,16.46,26.29Z"/><path class="cls-1" d="M15.08,4.7a1.09,1.09,0,0,0-1.29,1,1.35,1.35,0,0,0,.79,1.58,1.1,1.1,0,0,0,1.29-1,1.34,1.34,0,0,0-.79-1.58"/><polygon class="cls-3" points="13.56 15.29 15.04 16.25 20.91 7.62 20.34 7.28 13.56 15.29"/><polygon class="cls-3" points="14.51 15.65 13.08 16.9 7.93 12.14 8.11 11.75 14.51 15.65"/><path class="cls-7" d="M48.3,32.38c0,2.45-3.84,4.44-8.58,4.44s-8.57-2-8.57-4.44V30.27H48.3Z"/><path class="cls-8" d="M48.3,32.38c0,2.45-3.84,4.44-8.58,4.44s-8.57-2-8.57-4.44V30.27H48.3Z"/><path class="cls-7" d="M31.15,30.27c0,2.45,3.84,4.43,8.57,4.43s8.58-2,8.58-4.43-3.84-4.44-8.58-4.44-8.57,2-8.57,4.44"/><path class="cls-8" d="M31.15,30.27c0,2.45,3.84,4.43,8.57,4.43s8.58-2,8.58-4.43-3.84-4.44-8.58-4.44S31.15,27.82,31.15,30.27Z"/><path class="cls-7" d="M48.3,30.27c0,2.45-3.84,4.43-8.58,4.43s-8.57-2-8.57-4.43V28.15H48.3Z"/><path class="cls-8" d="M48.3,30.27c0,2.45-3.84,4.43-8.58,4.43s-8.57-2-8.57-4.43V28.15H48.3Z"/><path class="cls-7" d="M31.15,28.15c0,2.45,3.84,4.44,8.57,4.44s8.58-2,8.58-4.44-3.84-4.44-8.58-4.44-8.57,2-8.57,4.44"/><path class="cls-8" d="M31.15,28.15c0,2.45,3.84,4.44,8.57,4.44s8.58-2,8.58-4.44-3.84-4.44-8.58-4.44S31.15,25.7,31.15,28.15Z"/><path class="cls-7" d="M48.3,28.15c0,2.45-3.84,4.44-8.58,4.44s-8.57-2-8.57-4.44V26H48.3Z"/><path class="cls-8" d="M48.3,28.15c0,2.45-3.84,4.44-8.58,4.44s-8.57-2-8.57-4.44V26H48.3Z"/><path class="cls-7" d="M31.15,26c0,2.45,3.84,4.44,8.57,4.44s8.58-2,8.58-4.44-3.84-4.43-8.58-4.43-8.57,2-8.57,4.43"/><path class="cls-8" d="M31.15,26c0,2.45,3.84,4.44,8.57,4.44s8.58-2,8.58-4.44-3.84-4.43-8.58-4.43S31.15,23.58,31.15,26Z"/><path class="cls-7" d="M48.3,26c0,2.45-3.84,4.44-8.58,4.44s-8.57-2-8.57-4.44V23.92H48.3Z"/><path class="cls-8" d="M48.3,26c0,2.45-3.84,4.44-8.58,4.44s-8.57-2-8.57-4.44V23.92H48.3Z"/><path class="cls-7" d="M31.15,23.92c0,2.45,3.84,4.43,8.57,4.43s8.58-2,8.58-4.43-3.84-4.44-8.58-4.44-8.57,2-8.57,4.44"/><path class="cls-8" d="M31.15,23.92c0,2.45,3.84,4.43,8.57,4.43s8.58-2,8.58-4.43-3.84-4.44-8.58-4.44S31.15,21.47,31.15,23.92Z"/><path class="cls-7" d="M48.3,23.92c0,2.45-3.84,4.43-8.58,4.43s-8.57-2-8.57-4.43V21.8H48.3Z"/><path class="cls-8" d="M48.3,23.92c0,2.45-3.84,4.43-8.58,4.43s-8.57-2-8.57-4.43V21.8H48.3Z"/><path class="cls-7" d="M31.15,21.8c0,2.45,3.84,4.44,8.57,4.44s8.58-2,8.58-4.44-3.84-4.44-8.58-4.44-8.57,2-8.57,4.44"/><path class="cls-8" d="M31.15,21.8c0,2.45,3.84,4.44,8.57,4.44s8.58-2,8.58-4.44-3.84-4.44-8.58-4.44S31.15,19.35,31.15,21.8Z"/><path class="cls-7" d="M48.3,21.8c0,2.45-3.84,4.44-8.58,4.44s-8.57-2-8.57-4.44V19.68H48.3Z"/><path class="cls-8" d="M48.3,21.8c0,2.45-3.84,4.44-8.58,4.44s-8.57-2-8.57-4.44V19.68H48.3Z"/><path class="cls-7" d="M31.15,19.68c0,2.45,3.84,4.44,8.57,4.44s8.58-2,8.58-4.44-3.84-4.43-8.58-4.43-8.57,2-8.57,4.43"/><path class="cls-8" d="M31.15,19.68c0,2.45,3.84,4.44,8.57,4.44s8.58-2,8.58-4.44-3.84-4.43-8.58-4.43S31.15,17.23,31.15,19.68Z"/><path class="cls-7" d="M48.3,19.68c0,2.45-3.84,4.44-8.58,4.44s-8.57-2-8.57-4.44V17.57H48.3Z"/><path class="cls-8" d="M48.3,19.68c0,2.45-3.84,4.44-8.58,4.44s-8.57-2-8.57-4.44V17.57H48.3Z"/><path class="cls-7" d="M31.15,17.57C31.15,20,35,22,39.72,22s8.58-2,8.58-4.43-3.84-4.44-8.58-4.44-8.57,2-8.57,4.44"/><path class="cls-8" d="M31.15,17.57C31.15,20,35,22,39.72,22s8.58-2,8.58-4.43-3.84-4.44-8.58-4.44S31.15,15.12,31.15,17.57Z"/><path class="cls-7" d="M48.3,17.57C48.3,20,44.46,22,39.72,22s-8.57-2-8.57-4.43V15.45H48.3Z"/><path class="cls-8" d="M48.3,17.57C48.3,20,44.46,22,39.72,22s-8.57-2-8.57-4.43V15.45H48.3Z"/><path class="cls-7" d="M31.15,15.45c0,2.45,3.84,4.44,8.57,4.44s8.58-2,8.58-4.44S44.46,11,39.72,11s-8.57,2-8.57,4.44"/><path class="cls-8" d="M31.15,15.45c0,2.45,3.84,4.44,8.57,4.44s8.58-2,8.58-4.44S44.46,11,39.72,11,31.15,13,31.15,15.45Z"/><path class="cls-7" d="M48.3,15.45c0,2.45-3.84,4.44-8.58,4.44s-8.57-2-8.57-4.44V13.33H48.3Z"/><path class="cls-8" d="M48.3,15.45c0,2.45-3.84,4.44-8.58,4.44s-8.57-2-8.57-4.44V13.33H48.3Z"/><path class="cls-2" d="M31.15,13.33c0,2.45,3.84,4.44,8.57,4.44s8.58-2,8.58-4.44S44.46,8.9,39.72,8.9s-8.57,2-8.57,4.43"/><path class="cls-8" d="M31.15,13.33c0,2.45,3.84,4.44,8.57,4.44s8.58-2,8.58-4.44S44.46,8.9,39.72,8.9,31.15,10.88,31.15,13.33Z"/><path class="cls-7" d="M33.79,37.86c0,2.45-3.84,4.44-8.57,4.44s-8.57-2-8.57-4.44V35.74H33.79Z"/><path class="cls-8" d="M33.79,37.86c0,2.45-3.84,4.44-8.57,4.44s-8.57-2-8.57-4.44V35.74H33.79Z"/><path class="cls-7" d="M16.65,35.74c0,2.45,3.83,4.44,8.57,4.44s8.57-2,8.57-4.44S30,31.31,25.22,31.31s-8.57,2-8.57,4.43"/><path class="cls-8" d="M16.65,35.74c0,2.45,3.83,4.44,8.57,4.44s8.57-2,8.57-4.44S30,31.31,25.22,31.31,16.65,33.29,16.65,35.74Z"/><path class="cls-7" d="M33.79,35.74c0,2.45-3.84,4.44-8.57,4.44s-8.57-2-8.57-4.44V33.63H33.79Z"/><path class="cls-8" d="M33.79,35.74c0,2.45-3.84,4.44-8.57,4.44s-8.57-2-8.57-4.44V33.63H33.79Z"/><path class="cls-7" d="M16.65,33.63c0,2.45,3.83,4.43,8.57,4.43s8.57-2,8.57-4.43S30,29.19,25.22,29.19s-8.57,2-8.57,4.44"/><path class="cls-8" d="M16.65,33.63c0,2.45,3.83,4.43,8.57,4.43s8.57-2,8.57-4.43S30,29.19,25.22,29.19,16.65,31.18,16.65,33.63Z"/><path class="cls-7" d="M33.79,33.63c0,2.45-3.84,4.43-8.57,4.43s-8.57-2-8.57-4.43V31.51H33.79Z"/><path class="cls-8" d="M33.79,33.63c0,2.45-3.84,4.43-8.57,4.43s-8.57-2-8.57-4.43V31.51H33.79Z"/><path class="cls-7" d="M16.65,31.51C16.65,34,20.48,36,25.22,36s8.57-2,8.57-4.44S30,27.07,25.22,27.07s-8.57,2-8.57,4.44"/><path class="cls-8" d="M16.65,31.51C16.65,34,20.48,36,25.22,36s8.57-2,8.57-4.44S30,27.07,25.22,27.07,16.65,29.06,16.65,31.51Z"/><path class="cls-7" d="M33.79,31.51C33.79,34,30,36,25.22,36s-8.57-2-8.57-4.44V29.39H33.79Z"/><path class="cls-8" d="M33.79,31.51C33.79,34,30,36,25.22,36s-8.57-2-8.57-4.44V29.39H33.79Z"/><path class="cls-7" d="M16.65,29.39c0,2.45,3.83,4.44,8.57,4.44s8.57-2,8.57-4.44S30,25,25.22,25s-8.57,2-8.57,4.43"/><path class="cls-8" d="M16.65,29.39c0,2.45,3.83,4.44,8.57,4.44s8.57-2,8.57-4.44S30,25,25.22,25,16.65,26.94,16.65,29.39Z"/><path class="cls-7" d="M33.79,29.39c0,2.45-3.84,4.44-8.57,4.44s-8.57-2-8.57-4.44V27.28H33.79Z"/><path class="cls-8" d="M33.79,29.39c0,2.45-3.84,4.44-8.57,4.44s-8.57-2-8.57-4.44V27.28H33.79Z"/><path class="cls-2" d="M16.65,27.28c0,2.45,3.83,4.43,8.57,4.43s8.57-2,8.57-4.43S30,22.84,25.22,22.84s-8.57,2-8.57,4.44"/><path class="cls-8" d="M16.65,27.28c0,2.45,3.83,4.43,8.57,4.43s8.57-2,8.57-4.43S30,22.84,25.22,22.84,16.65,24.83,16.65,27.28Z"/><path class="cls-7" d="M19.28,43.34c0,2.45-3.84,4.43-8.57,4.43s-8.57-2-8.57-4.43V41.22H19.28Z"/><path class="cls-8" d="M19.28,43.34c0,2.45-3.84,4.43-8.57,4.43s-8.57-2-8.57-4.43V41.22H19.28Z"/><path class="cls-2" d="M2.14,41.22c0,2.45,3.84,4.44,8.57,4.44s8.57-2,8.57-4.44-3.83-4.44-8.57-4.44-8.57,2-8.57,4.44"/><path class="cls-8" d="M2.14,41.22c0,2.45,3.84,4.44,8.57,4.44s8.57-2,8.57-4.44-3.83-4.44-8.57-4.44S2.14,38.77,2.14,41.22Z"/><path class="cls-9" d="M37.73,11.21h-.68a.47.47,0,0,0-.45.67l.95,2.91a1,1,0,0,0,.88.66h1.36a.46.46,0,0,0,.45-.66l-1-2.91a.47.47,0,0,1,.45-.67H41.1a1,1,0,0,1,.88.67l1,2.91a.46.46,0,0,1-.45.66h-.69"/><line class="cls-9" x1="35.14" y1="13.9" x2="37.26" y2="13.9"/><line class="cls-9" x1="34.7" y1="12.56" x2="36.82" y2="12.56"/><line class="cls-9" x1="42.64" y1="13.9" x2="44.76" y2="13.9"/><line class="cls-9" x1="42.2" y1="12.56" x2="44.32" y2="12.56"/><path class="cls-9" d="M23.21,25.16h-.68a.47.47,0,0,0-.45.66l1,2.91a1,1,0,0,0,.89.67h1.36a.47.47,0,0,0,.45-.67l-.95-2.91a.46.46,0,0,1,.45-.66h1.35a1,1,0,0,1,.89.66l1,2.91a.47.47,0,0,1-.45.67h-.7"/><line class="cls-9" x1="20.63" y1="27.84" x2="22.74" y2="27.84"/><line class="cls-9" x1="20.19" y1="26.5" x2="22.31" y2="26.5"/><line class="cls-9" x1="28.13" y1="27.84" x2="30.25" y2="27.84"/><line class="cls-9" x1="27.69" y1="26.5" x2="29.81" y2="26.5"/><path class="cls-9" d="M8.7,39.1H8a.47.47,0,0,0-.45.67l.95,2.9a1,1,0,0,0,.89.67h1.35a.47.47,0,0,0,.45-.67l-1-2.9a.47.47,0,0,1,.45-.67h1.36a1,1,0,0,1,.88.67l1,2.9a.47.47,0,0,1-.44.67h-.7"/><line class="cls-9" x1="6.11" y1="41.78" x2="8.23" y2="41.78"/><line class="cls-9" x1="5.68" y1="40.45" x2="7.79" y2="40.45"/><line class="cls-9" x1="13.61" y1="41.78" x2="15.73" y2="41.78"/><line class="cls-9" x1="13.18" y1="40.45" x2="15.3" y2="40.45"/></g></g></svg>