<svg xmlns="http://www.w3.org/2000/svg" viewBox="0 0 46.26 49.53"><defs><style>.cls-1{fill:#ebebeb;}.cls-2{fill:#deeaff;}.cls-3,.cls-7{fill:none;stroke-linejoin:round;stroke-width:0.5px;}.cls-3{stroke:#304d9d;}.cls-4{fill:#fff;}.cls-5{fill:#98b9ea;}.cls-6{fill:#dfeab0;}.cls-7{stroke:#b6cd5b;}</style></defs><title>flow</title><g id="Layer_2" data-name="Layer 2"><g id="Layer_1-2" data-name="Layer 1"><polygon class="cls-1" points="23.13 49.53 0 41.05 23.13 32.57 46.26 41.05 23.13 49.53"/><polygon class="cls-2" points="4.03 44.98 13.22 48.36 13.22 37.41 4.03 34.03 4.03 44.98"/><polygon class="cls-3" points="4.03 44.98 13.22 48.36 13.22 37.41 4.03 34.03 4.03 44.98"/><polygon class="cls-4" points="22.41 45.09 13.22 48.36 13.22 37.41 22.41 34.14 22.41 45.09"/><polygon class="cls-3" points="22.41 45.09 13.22 48.36 13.22 37.41 22.41 34.14 22.41 45.09"/><polygon class="cls-5" points="13.22 37.41 4.03 34.03 13.22 30.76 22.41 34.14 13.22 37.41"/><polygon class="cls-3" points="13.22 37.41 4.03 34.03 13.22 30.76 22.41 34.14 13.22 37.41"/><polygon class="cls-2" points="26.85 37.27 36.03 40.65 36.03 29.71 26.85 26.32 26.85 37.27"/><polygon class="cls-3" points="26.85 37.27 36.03 40.65 36.03 29.71 26.85 26.32 26.85 37.27"/><polygon class="cls-4" points="45.22 37.38 36.03 40.65 36.03 29.7 45.22 26.44 45.22 37.38"/><polygon class="cls-3" points="45.22 37.38 36.03 40.65 36.03 29.7 45.22 26.44 45.22 37.38"/><polygon class="cls-5" points="36.03 29.71 26.85 26.32 36.03 23.06 45.22 26.44 36.03 29.71"/><polygon class="cls-3" points="36.03 29.71 26.85 26.32 36.03 23.06 45.22 26.44 36.03 29.71"/><path class="cls-6" d="M11.75,17.47c4.77,6.82-5.3,6.14-2.76,13.29L5.87,31.87l8.59,3.47,2.69-7.13-2.58,1c-1.68-4.87,3.66-4.43,2.81-10.37,6.36,4.3,9.74-.63,14.64,4.51l-3,1.12,7.66,3.06L39,20.88l-2.33.86c-9.18-8.67-11.88-.83-18.24-6.62Z"/><path class="cls-7" d="M11.75,17.47c4.77,6.82-5.3,6.14-2.76,13.29L5.87,31.87l8.59,3.47,2.69-7.13-2.58,1c-1.68-4.87,3.66-4.43,2.81-10.37,6.36,4.3,9.74-.63,14.64,4.51l-3,1.12,7.66,3.06L39,20.88l-2.33.86c-9.18-8.67-11.88-.83-18.24-6.62Z"/><polygon class="cls-2" points="1.53 14.46 10.72 17.84 10.72 6.9 1.53 3.52 1.53 14.46"/><polygon class="cls-3" points="1.53 14.46 10.72 17.84 10.72 6.9 1.53 3.52 1.53 14.46"/><polygon class="cls-4" points="19.9 14.58 10.72 17.84 10.72 6.9 19.9 3.63 19.9 14.58"/><polygon class="cls-3" points="19.9 14.58 10.72 17.84 10.72 6.9 19.9 3.63 19.9 14.58"/><polygon class="cls-5" points="10.72 6.9 1.53 3.52 10.72 0.25 19.9 3.63 10.72 6.9"/><polygon class="cls-3" points="10.72 6.9 1.53 3.52 10.72 0.25 19.9 3.63 10.72 6.9"/></g></g></svg>