<svg xmlns="http://www.w3.org/2000/svg" viewBox="0 0 46.26 49.49"><defs><style>.cls-1{fill:#98b9ea;}.cls-2,.cls-7{fill:none;stroke-linejoin:round;stroke-width:0.5px;}.cls-2{stroke:#304d9d;}.cls-3{fill:#fff;}.cls-4{fill:#deeaff;}.cls-5{fill:#ebebeb;}.cls-6{fill:#dfeab0;}.cls-7{stroke:#b6cd5b;}.cls-8{fill:#c4d36c;}</style></defs><title>headset</title><g id="Layer_2" data-name="Layer 2"><g id="Layer_1-2" data-name="Layer 1"><path class="cls-1" d="M34.8,33.88a7.65,7.65,0,0,0,5.62-4.8c2.1-4.79.71-11-3.12-14A6.83,6.83,0,0,0,33,13.62L29.78,14,31.12,34.3Z"/><path class="cls-2" d="M34.8,33.88a7.65,7.65,0,0,0,5.62-4.8c2.1-4.79.71-11-3.12-14A6.83,6.83,0,0,0,33,13.62L29.78,14,31.12,34.3Z"/><path class="cls-3" d="M32.47,9.4l.19,7.22-4-.66-.07-7.24c.25-4.66-4.28-8.16-9.15-7C26.83-.85,32.45,3.9,32.47,9.4"/><path class="cls-2" d="M32.47,9.4l.19,7.22-4-.66-.07-7.24c.25-4.66-4.28-8.16-9.15-7C26.83-.85,32.45,3.9,32.47,9.4Z"/><path class="cls-4" d="M26.71,32.82c3.82,2.92,8.63,1.41,10.74-3.38s.71-11-3.12-14-8.63-1.42-10.74,3.38-.71,11,3.12,14"/><path class="cls-2" d="M26.71,32.82c3.82,2.92,8.63,1.41,10.74-3.38s.71-11-3.12-14-8.63-1.42-10.74,3.38S22.88,29.89,26.71,32.82Z"/><path class="cls-1" d="M28.7,28.28c1.83,1.39,4.12.67,5.12-1.61A5.81,5.81,0,0,0,32.34,20c-1.82-1.39-4.11-.67-5.12,1.61a5.82,5.82,0,0,0,1.48,6.66"/><path class="cls-2" d="M28.7,28.28c1.83,1.39,4.12.67,5.12-1.61A5.81,5.81,0,0,0,32.34,20c-1.82-1.39-4.11-.67-5.12,1.61A5.82,5.82,0,0,0,28.7,28.28Z"/><polygon class="cls-5" points="23.13 49.49 0 41.01 23.13 32.52 46.26 41.01 23.13 49.49"/><path class="cls-1" d="M13.79,38.69a7.65,7.65,0,0,0,5.62-4.8c2.11-4.79.72-11-3.11-14A6.83,6.83,0,0,0,12,18.43l-3.26.37,1.34,20.31Z"/><path class="cls-2" d="M13.79,38.69a7.65,7.65,0,0,0,5.62-4.8c2.11-4.79.72-11-3.11-14A6.83,6.83,0,0,0,12,18.43l-3.26.37,1.34,20.31Z"/><path class="cls-3" d="M13.66,1.55c3-1.36,6.07-2,12.19-.26A18,18,0,0,0,22.24,1a14.63,14.63,0,0,0-3.71,1.11C14.26,4,10.93,8,11,15.19l.23,7.94-4.87-.54-.23-7.94C6,7.78,9.39,3.48,13.66,1.55"/><path class="cls-2" d="M13.66,1.55c3-1.36,6.07-2,12.19-.26A18,18,0,0,0,22.24,1a14.63,14.63,0,0,0-3.71,1.11C14.26,4,10.93,8,11,15.19l.23,7.94-4.87-.54-.23-7.94C6,7.78,9.39,3.48,13.66,1.55Z"/><path class="cls-4" d="M5.7,37.63c3.83,2.92,8.64,1.41,10.75-3.38s.71-11-3.12-14S4.7,18.86,2.59,23.65s-.71,11.05,3.11,14"/><path class="cls-2" d="M5.7,37.63c3.83,2.92,8.64,1.41,10.75-3.38s.71-11-3.12-14S4.7,18.86,2.59,23.65,1.88,34.7,5.7,37.63Z"/><path class="cls-6" d="M8,32.32c3.13,6.67,10,8.9,19.62,8.35l-.48,1.1C20.39,42.88,11.54,43.44,5,34.84Z"/><path class="cls-7" d="M8,32.32c3.13,6.67,10,8.9,19.62,8.35l-.48,1.1C20.39,42.88,11.54,43.44,5,34.84Z"/><path class="cls-3" d="M3.89,34.23c1.95,1.49,4.39.72,5.47-1.72A6.2,6.2,0,0,0,7.77,25.4c-1.95-1.49-4.39-.72-5.46,1.72a6.18,6.18,0,0,0,1.58,7.11"/><path class="cls-2" d="M3.89,34.23c1.95,1.49,4.39.72,5.47-1.72A6.2,6.2,0,0,0,7.77,25.4c-1.95-1.49-4.39-.72-5.46,1.72A6.18,6.18,0,0,0,3.89,34.23Z"/><path class="cls-8" d="M25.76,41.39c-.06,1.38,1.21,2,2.81,1.75s2.94-1.35,3-2.53-1.21-2-2.81-1.75-2.94,1.15-3,2.53"/><path class="cls-7" d="M25.76,41.39c-.06,1.38,1.21,2,2.81,1.75s2.94-1.35,3-2.53-1.21-2-2.81-1.75S25.82,40,25.76,41.39Z"/></g></g></svg>