<svg xmlns="http://www.w3.org/2000/svg" viewBox="0 0 46.26 46.82"><defs><style>.cls-1{fill:#ebebeb;}.cls-2{fill:#dfeab0;}.cls-3,.cls-7{fill:none;stroke-linejoin:round;stroke-width:0.5px;}.cls-3{stroke:#b6cd5b;}.cls-4{fill:#fff;}.cls-5{fill:#c4d36c;}.cls-6{fill:#deeaff;}.cls-7{stroke:#304d9d;}.cls-8{fill:#98b9ea;}.cls-9{fill:#b6cd5b;}.cls-10{fill:#304d9d;}</style></defs><title>infrastructure_choice</title><g id="Layer_2" data-name="Layer 2"><g id="Layer_1-2" data-name="Layer 1"><polygon class="cls-1" points="23.13 46.82 0 38.34 23.13 29.86 46.26 38.34 23.13 46.82"/><polygon class="cls-2" points="20.39 26.2 32.11 30.52 32.11 8.72 20.39 4.42 20.39 26.2"/><polygon class="cls-3" points="20.39 26.2 32.11 30.52 32.11 8.73 20.39 4.42 20.39 26.2"/><polygon class="cls-4" points="43.83 26.35 32.11 30.52 32.11 8.73 43.83 4.56 43.83 26.35"/><polygon class="cls-3" points="43.83 26.35 32.11 30.52 32.11 8.73 43.83 4.56 43.83 26.35"/><polygon class="cls-5" points="32.11 8.73 20.39 4.42 32.11 0.25 43.83 4.56 32.11 8.73"/><polygon class="cls-3" points="32.11 8.73 20.39 4.42 32.11 0.25 43.83 4.56 32.11 8.73"/><polygon class="cls-6" points="2.6 32.41 14.32 36.73 14.32 14.94 2.6 10.63 2.6 32.41"/><polygon class="cls-7" points="2.6 32.41 14.32 36.73 14.32 14.94 2.6 10.63 2.6 32.41"/><polygon class="cls-4" points="26.03 32.56 14.32 36.73 14.32 14.94 26.03 10.77 26.03 32.56"/><polygon class="cls-7" points="26.03 32.56 14.32 36.73 14.32 14.94 26.03 10.77 26.03 32.56"/><polygon class="cls-8" points="14.32 14.94 2.6 10.63 14.32 6.46 26.03 10.77 14.32 14.94"/><polygon class="cls-7" points="14.32 14.94 2.6 10.63 14.32 6.46 26.03 10.77 14.32 14.94"/><path class="cls-9" d="M18.66,17.09a2.64,2.64,0,0,1-1.73,2.3,1.22,1.22,0,0,1-1.74-1.17,2.61,2.61,0,0,1,1.74-2.3,1.21,1.21,0,0,1,1.73,1.17"/><path class="cls-10" d="M37.47,10.89a2.6,2.6,0,0,1-1.73,2.3A1.2,1.2,0,0,1,34,12a2.6,2.6,0,0,1,1.73-2.3,1.21,1.21,0,0,1,1.73,1.16"/></g></g></svg>