<svg xmlns="http://www.w3.org/2000/svg" viewBox="0 0 46.26 47.9"><defs><style>.cls-1{fill:#ebebeb;}.cls-2{fill:#98b9ea;}.cls-3,.cls-7{fill:none;stroke-linejoin:round;stroke-width:0.5px;}.cls-3{stroke:#304d9d;}.cls-4{fill:#deeaff;}.cls-5{fill:#fff;}.cls-6{fill:#dfeab0;}.cls-7{stroke:#b6cd5b;}.cls-8{fill:#c4d36c;}</style></defs><title>instant_onboarding</title><g id="Layer_2" data-name="Layer 2"><g id="Layer_1-2" data-name="Layer 1"><polygon class="cls-1" points="23.13 47.91 0 39.42 23.13 30.94 46.26 39.42 23.13 47.91"/><polygon class="cls-2" points="23.13 29.88 5.02 23.23 23.13 16.59 41.24 23.23 23.13 29.88"/><polygon class="cls-3" points="23.13 29.88 5.02 23.23 23.13 16.59 41.24 23.23 23.13 29.88"/><polygon class="cls-4" points="23.13 16.59 5.02 23.23 0.38 19.12 18.5 12.48 23.13 16.59"/><polygon class="cls-3" points="23.13 16.59 5.02 23.23 0.38 19.12 18.5 12.48 23.13 16.59"/><polygon class="cls-4" points="5.02 36.83 23.13 43.48 23.13 29.88 5.02 23.23 5.02 36.83"/><polygon class="cls-3" points="5.02 36.83 23.13 43.48 23.13 29.88 5.02 23.23 5.02 36.83"/><polygon class="cls-5" points="41.24 36.83 23.13 43.48 23.13 29.88 41.24 23.23 41.24 36.83"/><polygon class="cls-3" points="41.24 36.83 23.13 43.48 23.13 29.88 41.24 23.23 41.24 36.83"/><polygon class="cls-4" points="23.13 16.59 41.24 23.23 45.88 19.12 27.76 12.48 23.13 16.59"/><polygon class="cls-3" points="23.13 16.59 41.24 23.23 45.88 19.12 27.76 12.48 23.13 16.59"/><polygon class="cls-6" points="13.85 30.18 12.47 29.66 12.47 10.58 13.85 11.11 13.85 30.18"/><polygon class="cls-7" points="13.85 30.18 12.47 29.66 12.47 10.58 13.85 11.11 13.85 30.18"/><polygon class="cls-8" points="33.49 3.31 32.12 2.78 12.47 10.58 13.85 11.11 33.49 3.31"/><polygon class="cls-7" points="33.49 3.31 32.12 2.78 12.47 10.58 13.85 11.11 33.49 3.31"/><polygon class="cls-5" points="13.85 30.18 33.49 22.38 33.49 3.31 13.85 11.11 13.85 30.18"/><polygon class="cls-7" points="13.85 30.18 33.49 22.38 33.49 3.31 13.85 11.11 13.85 30.18"/><polygon class="cls-8" points="16.39 23.39 26.98 19.18 26.98 9.05 16.39 13.26 16.39 23.39"/><polygon class="cls-6" points="25.01 22.67 31.68 20.02 31.68 13.36 25.01 16.02 25.01 22.67"/><polygon class="cls-6" points="13.85 10.37 12.47 9.84 12.47 8.05 13.85 8.57 13.85 10.37"/><polygon class="cls-7" points="13.85 10.37 12.47 9.84 12.47 8.05 13.85 8.57 13.85 10.37"/><polygon class="cls-8" points="33.49 0.77 32.12 0.25 12.47 8.05 13.85 8.57 33.49 0.77"/><polygon class="cls-7" points="33.49 0.77 32.12 0.25 12.47 8.05 13.85 8.57 33.49 0.77"/><polygon class="cls-5" points="13.85 10.37 33.49 2.56 33.49 0.77 13.85 8.57 13.85 10.37"/><polygon class="cls-7" points="13.85 10.37 33.49 2.56 33.49 0.77 13.85 8.57 13.85 10.37"/><polygon class="cls-5" points="23.13 29.88 5.02 23.23 0.38 27.34 18.5 33.99 23.13 29.88"/><polygon class="cls-3" points="23.13 29.88 5.02 23.23 0.38 27.35 18.5 33.99 23.13 29.88"/><polygon class="cls-5" points="23.13 29.88 41.24 23.23 45.88 27.34 27.76 33.99 23.13 29.88"/><polygon class="cls-3" points="23.13 29.88 41.24 23.23 45.88 27.35 27.76 33.99 23.13 29.88"/></g></g></svg>