<svg xmlns="http://www.w3.org/2000/svg" viewBox="0 0 46.26 47.76"><defs><style>.cls-1{fill:#ebebeb;}.cls-2{fill:#deeaff;}.cls-3,.cls-6{fill:none;}.cls-3{stroke:#304d9d;stroke-linejoin:round;stroke-width:0.5px;}.cls-4{fill:#98b9ea;}.cls-5{fill:#fff;}.cls-6{stroke:#c4d36c;stroke-miterlimit:10;}</style></defs><title>just_in_time_forecast</title><g id="Layer_2" data-name="Layer 2"><g id="Layer_1-2" data-name="Layer 1"><polygon class="cls-1" points="23.13 47.76 0 39.28 23.13 30.8 46.26 39.28 23.13 47.76"/><polygon class="cls-2" points="5.04 38.88 2.77 38.01 2.77 13.12 5.04 13.99 5.04 38.88"/><polygon class="cls-3" points="5.04 38.88 2.77 38.01 2.77 13.12 5.04 13.99 5.04 38.88"/><polygon class="cls-4" points="37.47 1.12 35.2 0.25 2.77 13.12 5.04 13.99 37.47 1.12"/><polygon class="cls-3" points="37.47 1.12 35.2 0.25 2.77 13.12 5.04 13.99 37.47 1.12"/><polygon class="cls-5" points="5.04 38.88 37.46 26 37.46 1.11 5.04 13.99 5.04 38.88"/><polygon class="cls-3" points="5.04 38.88 37.46 26 37.46 1.11 5.04 13.99 5.04 38.88"/><polygon class="cls-4" points="5.04 17.02 37.46 4.14 37.46 1.11 5.04 13.99 5.04 17.02"/><polygon class="cls-3" points="5.04 17.02 37.46 4.14 37.46 1.11 5.04 13.99 5.04 17.02"/><polygon class="cls-4" points="32.84 27.7 37.46 25.78 37.46 18.61 32.84 20.53 32.84 27.7"/><polygon class="cls-3" points="32.84 27.7 37.46 25.78 37.46 18.61 32.84 20.53 32.84 27.7"/><line class="cls-5" x1="37.46" y1="4.13" x2="5.04" y2="17.01"/><line class="cls-3" x1="37.46" y1="4.13" x2="5.04" y2="17.01"/><line class="cls-5" x1="5.04" y1="13.99" x2="5.04" y2="38.87"/><line class="cls-3" x1="5.04" y1="13.99" x2="5.04" y2="38.87"/><line class="cls-5" x1="37.47" y1="1.11" x2="37.47" y2="26"/><line class="cls-3" x1="37.47" y1="1.11" x2="37.47" y2="26"/><line class="cls-5" x1="32.84" y1="2.95" x2="32.84" y2="27.84"/><line class="cls-3" x1="32.84" y1="2.95" x2="32.84" y2="27.84"/><line class="cls-5" x1="28.21" y1="4.79" x2="28.21" y2="29.68"/><line class="cls-3" x1="28.21" y1="4.79" x2="28.21" y2="29.68"/><line class="cls-5" x1="23.57" y1="6.63" x2="23.57" y2="31.52"/><line class="cls-3" x1="23.57" y1="6.63" x2="23.57" y2="31.52"/><line class="cls-5" x1="18.94" y1="8.47" x2="18.94" y2="33.36"/><line class="cls-3" x1="18.94" y1="8.47" x2="18.94" y2="33.36"/><line class="cls-5" x1="14.31" y1="10.31" x2="14.31" y2="35.2"/><line class="cls-3" x1="14.31" y1="10.31" x2="14.31" y2="35.2"/><line class="cls-5" x1="9.67" y1="12.15" x2="9.67" y2="37.04"/><line class="cls-3" x1="9.67" y1="12.15" x2="9.67" y2="37.04"/><line class="cls-5" x1="37.46" y1="11.06" x2="5.04" y2="23.94"/><line class="cls-3" x1="37.46" y1="11.06" x2="5.04" y2="23.94"/><line class="cls-5" x1="37.46" y1="18.64" x2="5.04" y2="31.52"/><line class="cls-3" x1="37.46" y1="18.64" x2="5.04" y2="31.52"/><path class="cls-6" d="M35.79,17.59A9.07,9.07,0,0,0,30,25.46c0,3.22,2.61,4.91,5.82,3.77a9.06,9.06,0,0,0,5.82-7.87C41.61,18.14,39,16.45,35.79,17.59Z"/><path class="cls-6" d="M35.79,14.12c-5.13,1.81-9.29,7.43-9.29,12.56s4.16,7.83,9.29,6,9.29-7.43,9.29-12.56S40.92,12.31,35.79,14.12Z"/></g></g></svg>