<svg xmlns="http://www.w3.org/2000/svg" viewBox="0 0 49.47 49.99"><defs><style>.cls-1{fill:#ebebeb;}.cls-2{fill:#fff;}.cls-3,.cls-7{fill:none;stroke-linejoin:round;stroke-width:0.5px;}.cls-3{stroke:#304d9d;}.cls-4{fill:#98b9ea;}.cls-5{fill:#b9ceed;}.cls-6{fill:#dfeab0;}.cls-7{stroke:#b6cd5b;}</style></defs><title>laptop</title><g id="Layer_2" data-name="Layer 2"><g id="Layer_1-2" data-name="Layer 1"><polygon class="cls-1" points="25.23 49.98 2.1 41.5 25.23 33.02 48.36 41.5 25.23 49.98"/><polygon class="cls-2" points="49.22 30.44 29.37 23.03 5.54 31.77 25.39 39.18 49.22 30.44"/><polygon class="cls-3" points="49.22 30.44 29.37 23.03 5.54 31.77 25.39 39.18 49.22 30.44"/><polygon class="cls-4" points="43.94 30.6 28.89 24.99 10.83 31.61 25.87 37.23 43.94 30.6"/><polygon class="cls-5" points="25.39 39.18 25.39 41.94 49.22 33.2 49.22 30.44 25.39 39.18"/><polygon class="cls-3" points="25.39 39.18 25.39 41.94 49.22 33.2 49.22 30.44 25.39 39.18"/><polygon class="cls-5" points="25.39 39.18 25.39 41.94 5.54 34.54 5.54 31.77 25.39 39.18"/><polygon class="cls-3" points="25.39 39.18 25.39 41.94 5.54 34.54 5.54 31.77 25.39 39.18"/><polygon class="cls-2" points="25.6 0.25 24.08 0.25 0.25 8.99 1.77 8.99 25.6 0.25"/><polygon class="cls-3" points="25.6 0.25 24.08 0.25 0.25 8.99 1.77 8.99 25.6 0.25"/><polygon class="cls-2" points="1.77 8.99 5.42 31.67 29.25 22.93 25.6 0.25 1.77 8.99"/><polygon class="cls-3" points="1.77 8.99 5.42 31.67 29.25 22.93 25.6 0.25 1.77 8.99"/><polygon class="cls-4" points="4.25 10.25 7.24 28.84 26.77 21.68 23.78 3.08 4.25 10.25"/><polygon class="cls-3" points="4.25 10.25 7.24 28.84 26.77 21.68 23.78 3.08 4.25 10.25"/><polygon class="cls-6" points="12.25 9.25 14.56 23.44 34.09 16.27 31.78 2.08 12.25 9.25"/><polygon class="cls-7" points="12.25 9.25 14.56 23.44 34.09 16.27 31.78 2.08 12.25 9.25"/><polygon class="cls-5" points="1.77 8.99 5.42 31.67 3.69 31.67 0.25 8.99 1.77 8.99"/><polygon class="cls-3" points="1.77 8.99 5.42 31.67 3.69 31.67 0.25 8.99 1.77 8.99"/></g></g></svg>