<svg xmlns="http://www.w3.org/2000/svg" viewBox="0 0 46.26 46.66"><defs><style>.cls-1{fill:#ebebeb;}.cls-2{fill:#98b9ea;}.cls-3,.cls-5,.cls-6{fill:none;stroke-linejoin:round;}.cls-3,.cls-5{stroke:#304d9d;stroke-width:0.5px;}.cls-4{fill:#deeaff;}.cls-5,.cls-6{stroke-linecap:round;}.cls-6{stroke:#b6cd5b;stroke-width:0.75px;}</style></defs><title>lightbulb</title><g id="Layer_2" data-name="Layer 2"><g id="Layer_1-2" data-name="Layer 1"><polygon class="cls-1" points="23.13 46.66 0 38.17 23.13 29.69 46.26 38.17 23.13 46.66"/><path class="cls-2" d="M25.57,32.15a2.44,2.44,0,1,1-4.88,0"/><path class="cls-3" d="M25.57,32.15a2.44,2.44,0,1,1-4.88,0"/><path class="cls-4" d="M18.59,28.35v2.77c0,.57,2,1,4.54,1s4.54-.46,4.54-1V22a11.32,11.32,0,1,0-9.08,0v6.36Z"/><path class="cls-3" d="M18.59,28.35v2.77c0,.57,2,1,4.54,1s4.54-.46,4.54-1V22a11.32,11.32,0,1,0-9.08,0v6.36Z"/><path class="cls-5" d="M18.59,25.8c0,.57,2,1,4.54,1s4.54-.46,4.54-1"/><path class="cls-5" d="M18.59,27.46v1c0,.57,2,1,4.54,1s4.54-.45,4.54-1V25.69"/><path class="cls-3" d="M34.45,11.81c0,1.5-5.07,3.73-11.32,3.73s-11.32-2.23-11.32-3.73"/><path class="cls-3" d="M23.13.25c1.5,0,3.74,5.07,3.74,11.32s-1.3,9.86-3.74,11.32v3.94"/><line class="cls-6" x1="3.67" y1="1.57" x2="10.31" y2="5.7"/><line class="cls-6" x1="3.67" y1="25.95" x2="10.33" y2="21.81"/><line class="cls-6" x1="9.16" y1="13.68" x2="1.76" y2="13.68"/><line class="cls-6" x1="42.87" y1="1.57" x2="36.23" y2="5.7"/><line class="cls-6" x1="42.87" y1="25.95" x2="36.21" y2="21.81"/><line class="cls-6" x1="37.38" y1="13.68" x2="44.78" y2="13.68"/></g></g></svg>