<svg xmlns="http://www.w3.org/2000/svg" viewBox="0 0 46.26 49.81"><defs><style>.cls-1{fill:#ebebeb;}.cls-2{fill:#deeaff;}.cls-3,.cls-5{fill:none;stroke-linejoin:round;stroke-width:0.5px;}.cls-3{stroke:#304d9d;}.cls-4{fill:#fff;}.cls-5{stroke:#b6cd5b;}.cls-6{fill:#98b9ea;}</style></defs><title>limitless_scalability</title><g id="Layer_2" data-name="Layer 2"><g id="Layer_1-2" data-name="Layer 1"><polygon class="cls-1" points="23.13 49.81 0 41.33 23.13 32.84 46.26 41.33 23.13 49.81"/><polygon class="cls-2" points="15.42 28.23 23.13 31.07 23.13 21.88 15.42 19.05 15.42 28.23"/><polygon class="cls-3" points="15.42 28.23 23.13 31.07 23.13 21.88 15.42 19.05 15.42 28.23"/><polygon class="cls-4" points="30.84 28.33 23.13 31.07 23.13 21.89 30.84 19.14 30.84 28.33"/><polygon class="cls-3" points="30.84 28.33 23.13 31.07 23.13 21.89 30.84 19.14 30.84 28.33"/><line class="cls-5" x1="34.1" y1="32.84" x2="42.77" y2="36.03"/><line class="cls-3" x1="29.96" y1="28.64" x2="37.81" y2="31.53"/><line class="cls-3" x1="16.3" y1="28.47" x2="8.45" y2="31.36"/><line class="cls-5" x1="12.16" y1="32.51" x2="3.49" y2="35.7"/><polygon class="cls-6" points="23.13 21.89 15.42 19.05 23.13 16.31 30.84 19.14 23.13 21.89"/><polygon class="cls-3" points="23.13 21.89 15.42 19.05 23.13 16.31 30.84 19.14 23.13 21.89"/><polygon class="cls-3" points="8.45 31.34 23.13 36.74 23.13 19.25 8.45 13.85 8.45 31.34"/><polygon class="cls-3" points="37.81 31.52 23.13 36.74 23.13 19.25 37.81 14.04 37.81 31.52"/><polygon class="cls-3" points="23.13 19.25 8.45 13.85 23.13 8.63 37.81 14.04 23.13 19.25"/><polygon class="cls-5" points="3.49 35.63 23.13 42.85 23.13 14.46 3.49 7.23 3.49 35.63"/><polygon class="cls-5" points="42.77 35.87 23.13 42.85 23.13 14.46 42.77 7.47 42.77 35.87"/><polygon class="cls-5" points="23.13 14.46 3.49 7.23 23.13 0.25 42.77 7.48 23.13 14.46"/></g></g></svg>