<svg xmlns="http://www.w3.org/2000/svg" viewBox="0 0 47.22 48.3"><defs><style>.cls-1{fill:#ebebeb;}.cls-2{fill:#deeaff;}.cls-3,.cls-8{fill:none;stroke-linejoin:round;stroke-width:0.5px;}.cls-3{stroke:#304d9d;}.cls-4{fill:#fff;}.cls-5{fill:#98b9ea;}.cls-6{fill:#b6cd5b;}.cls-7{fill:#dfeab0;}.cls-8{stroke:#b6cd5b;}.cls-9{fill:#c4d36c;}</style></defs><title>micro-segmentation</title><g id="Layer_2" data-name="Layer 2"><g id="Layer_1-2" data-name="Layer 1"><polygon class="cls-1" points="23.7 48.3 0.57 39.81 23.7 31.33 46.83 39.81 23.7 48.3"/><polygon class="cls-2" points="0.25 35.53 23.61 44.09 23.61 38.79 0.25 30.23 0.25 35.53"/><polygon class="cls-3" points="0.25 35.53 23.61 44.09 23.61 38.79 0.25 30.23 0.25 35.53"/><polygon class="cls-4" points="46.97 35.53 23.61 44.09 23.61 38.79 46.97 30.23 46.97 35.53"/><polygon class="cls-3" points="46.97 35.53 23.61 44.09 23.61 38.79 46.97 30.23 46.97 35.53"/><polygon class="cls-5" points="23.61 38.79 0.25 30.23 23.61 21.66 46.97 30.23 23.61 38.79"/><polygon class="cls-3" points="23.61 38.79 0.25 30.23 23.61 21.66 46.97 30.23 23.61 38.79"/><path class="cls-6" d="M27.77,40a2.06,2.06,0,0,1-1.35,1.79,1,1,0,0,1-1.35-.91,2,2,0,0,1,1.35-1.79.94.94,0,0,1,1.35.91"/><path class="cls-6" d="M31.62,38.6a2,2,0,0,1-1.35,1.8,1,1,0,0,1-1.35-.91,2,2,0,0,1,1.35-1.79.94.94,0,0,1,1.35.9"/><polygon class="cls-7" points="11.78 30.96 36.01 21.91 36.01 15.99 11.78 25.04 11.78 30.96"/><polygon class="cls-8" points="11.78 30.96 36.01 21.91 36.01 15.99 11.78 25.04 11.78 30.96"/><polygon class="cls-4" points="36.03 16 24.5 11.5 0.25 20.54 11.78 25.04 36.03 16"/><polygon class="cls-8" points="36.03 16 24.5 11.5 0.25 20.54 11.78 25.04 36.03 16"/><polygon class="cls-9" points="11.78 30.96 0.25 26.46 0.25 20.54 11.78 25.04 11.78 30.96"/><polygon class="cls-8" points="11.78 30.96 0.25 26.46 0.25 20.54 11.78 25.04 11.78 30.96"/><polygon class="cls-7" points="31.53 32.87 46.97 26.94 46.97 21.02 31.53 26.95 31.53 32.87"/><polygon class="cls-8" points="31.53 32.87 46.97 26.94 46.97 21.02 31.53 26.95 31.53 32.87"/><polygon class="cls-4" points="46.97 21.02 38.08 17.37 22.47 23.29 31.53 26.95 46.97 21.02"/><polygon class="cls-8" points="46.97 21.02 38.08 17.37 22.47 23.29 31.53 26.95 46.97 21.02"/><polygon class="cls-9" points="31.53 32.87 22.47 29.21 22.47 23.29 31.53 26.95 31.53 32.87"/><polygon class="cls-8" points="31.53 32.87 22.47 29.21 22.47 23.29 31.53 26.95 31.53 32.87"/><polygon class="cls-5" points="23.61 35.64 28.98 33.64 28.98 27.71 23.61 29.72 23.61 35.64"/><polygon class="cls-3" points="23.61 35.64 28.98 33.64 28.98 27.71 23.61 29.72 23.61 35.64"/><polygon class="cls-4" points="29.01 27.72 19.94 24.07 14.54 26.06 23.61 29.72 29.01 27.72"/><polygon class="cls-3" points="29.01 27.72 19.94 24.07 14.54 26.06 23.61 29.72 29.01 27.72"/><polygon class="cls-2" points="23.61 35.64 14.54 31.99 14.54 26.06 23.61 29.72 23.61 35.64"/><polygon class="cls-3" points="23.61 35.64 14.54 31.99 14.54 26.06 23.61 29.72 23.61 35.64"/><polygon class="cls-2" points="12.09 14.33 20.36 17.37 20.36 7.52 12.09 4.48 12.09 14.33"/><polygon class="cls-3" points="12.09 14.33 20.36 17.37 20.36 7.52 12.09 4.48 12.09 14.33"/><polygon class="cls-4" points="31.88 13.14 20.36 17.37 20.36 7.52 31.88 3.29 31.88 13.14"/><polygon class="cls-3" points="31.88 13.14 20.36 17.37 20.36 7.52 31.88 3.29 31.88 13.14"/><polygon class="cls-5" points="20.36 7.52 12.09 4.48 23.61 0.25 31.88 3.29 20.36 7.52"/><polygon class="cls-3" points="20.36 7.52 12.09 4.48 23.61 0.25 31.88 3.29 20.36 7.52"/><path class="cls-6" d="M24.21,9.06a2,2,0,0,1-1.36,1.79.94.94,0,0,1-1.34-.91,2,2,0,0,1,1.34-1.79,1,1,0,0,1,1.36.91"/><path class="cls-6" d="M28.06,7.64a2,2,0,0,1-1.35,1.79.94.94,0,0,1-1.35-.91,2,2,0,0,1,1.35-1.79,1,1,0,0,1,1.35.91"/></g></g></svg>