<svg xmlns="http://www.w3.org/2000/svg" viewBox="0 0 47.86 50.14"><defs><style>.cls-1{fill:#ebebeb;}.cls-2{fill:#fff;}.cls-3,.cls-5{fill:none;stroke-linejoin:round;stroke-width:0.5px;}.cls-3{stroke:#b6cd5b;}.cls-4{fill:#deeaff;}.cls-5{stroke:#304d9d;}.cls-6{fill:#dfeab0;}</style></defs><title>multi-hypervisor</title><g id="Layer_2" data-name="Layer 2"><g id="Layer_1-2" data-name="Layer 1"><polygon class="cls-1" points="24.73 50.14 1.6 41.66 24.73 33.17 47.86 41.66 24.73 50.14"/><path class="cls-2" d="M45.69,9.05c0,4.28-3,9-6.7,10.48s-6.7-.74-6.7-5,3-9,6.7-10.48,6.7.74,6.7,5"/><path class="cls-3" d="M45.69,9.05c0,4.28-3,9-6.7,10.48s-6.7-.74-6.7-5,3-9,6.7-10.48S45.69,4.78,45.69,9.05Z"/><polyline class="cls-4" points="45.96 25.43 35.19 21.5 24.96 25.67 24.96 37.48 35.77 41.42"/><polyline class="cls-5" points="45.96 25.43 35.19 21.5 24.96 25.67 24.96 37.48 35.77 41.42"/><polygon class="cls-2" points="46 37.25 35.77 41.42 35.77 29.61 46 25.44 46 37.25"/><polygon class="cls-5" points="46 37.25 35.77 41.42 35.77 29.61 46 25.44 46 37.25"/><line class="cls-4" x1="35.77" y1="29.61" x2="24.96" y2="25.67"/><line class="cls-5" x1="35.77" y1="29.61" x2="24.96" y2="25.67"/><polyline class="cls-6" points="21.25 25.14 10.48 21.21 0.25 25.37 0.25 37.19 11.06 41.12"/><polyline class="cls-3" points="21.25 25.14 10.48 21.21 0.25 25.37 0.25 37.19 11.06 41.12"/><polygon class="cls-2" points="21.29 36.95 11.06 41.12 11.06 29.31 21.29 25.14 21.29 36.95"/><polygon class="cls-3" points="21.29 36.95 11.06 41.12 11.06 29.31 21.29 25.14 21.29 36.95"/><line class="cls-3" x1="11.06" y1="29.31" x2="0.25" y2="25.37"/><polyline class="cls-4" points="8.98 20 0.77 16.46 7.51 0.25 15.73 3.76"/><polyline class="cls-5" points="8.98 20 0.77 16.46 7.51 0.25 15.73 3.76"/><polygon class="cls-2" points="15.73 3.76 8.98 20 22.47 14.5 15.73 3.76"/><polygon class="cls-5" points="15.73 3.76 8.98 20 22.47 14.5 15.73 3.76"/><path class="cls-6" d="M42.76,3.79,35.41.86S32.47-.7,28.72,2.77c0,0-4,3.08-3.66,8.05,0,0-.37,4.28,2.33,5.74l7,2.76s-2.71-1.66-2-6.35a12,12,0,0,1,5.67-8.48,5.84,5.84,0,0,1,4.68-.7"/><path class="cls-3" d="M42.76,3.79,35.41.86S32.47-.7,28.72,2.77c0,0-4,3.08-3.66,8.05,0,0-.37,4.28,2.33,5.74l7,2.76s-2.71-1.66-2-6.35a12,12,0,0,1,5.67-8.48A5.84,5.84,0,0,1,42.76,3.79Z"/></g></g></svg>