<svg xmlns="http://www.w3.org/2000/svg" viewBox="0 0 46.76 49.4"><defs><style>.cls-1{fill:#ebebeb;}.cls-2{fill:#deeaff;}.cls-3,.cls-7,.cls-8{fill:none;stroke-linejoin:round;stroke-width:0.5px;}.cls-3{stroke:#304d9d;}.cls-4{fill:#fff;}.cls-5{fill:#98b9ea;}.cls-6{fill:#dfeab0;}.cls-7,.cls-8{stroke:#b6cd5b;}.cls-7{stroke-linecap:round;}.cls-9{fill:#c4d36c;}</style></defs><title>network</title><g id="Layer_2" data-name="Layer 2"><g id="Layer_1-2" data-name="Layer 1"><polygon class="cls-1" points="23.38 49.4 0.25 40.92 23.38 32.43 46.51 40.92 23.38 49.4"/><polygon class="cls-2" points="0.25 33.97 6.48 36.26 6.48 28.84 0.25 26.55 0.25 33.97"/><polygon class="cls-3" points="0.25 33.97 6.48 36.26 6.48 28.84 0.25 26.55 0.25 33.97"/><polygon class="cls-4" points="12.71 34.05 6.48 36.26 6.48 28.84 12.71 26.63 12.71 34.05"/><polygon class="cls-3" points="12.71 34.05 6.48 36.26 6.48 28.84 12.71 26.63 12.71 34.05"/><polygon class="cls-5" points="6.48 28.84 0.25 26.55 6.48 24.33 12.71 26.63 6.48 28.84"/><polygon class="cls-3" points="6.48 28.84 0.25 26.55 6.48 24.33 12.71 26.63 6.48 28.84"/><polygon class="cls-2" points="34.05 33.97 40.28 36.26 40.28 28.84 34.05 26.55 34.05 33.97"/><polygon class="cls-3" points="34.05 33.97 40.28 36.26 40.28 28.84 34.05 26.55 34.05 33.97"/><polygon class="cls-4" points="46.51 34.05 40.28 36.26 40.28 28.84 46.51 26.63 46.51 34.05"/><polygon class="cls-3" points="46.51 34.05 40.28 36.26 40.28 28.84 46.51 26.63 46.51 34.05"/><polygon class="cls-5" points="40.28 28.84 34.05 26.55 40.28 24.33 46.51 26.63 40.28 28.84"/><polygon class="cls-3" points="40.28 28.84 34.05 26.55 40.28 24.33 46.51 26.63 40.28 28.84"/><line class="cls-6" x1="20.27" y1="35.8" x2="9.59" y2="31.89"/><line class="cls-7" x1="20.27" y1="35.8" x2="9.59" y2="31.89"/><line class="cls-6" x1="26.49" y1="35.8" x2="37.17" y2="31.89"/><line class="cls-7" x1="26.49" y1="35.8" x2="37.17" y2="31.89"/><polygon class="cls-2" points="17.15 40.37 23.38 42.66 23.38 35.24 17.15 32.95 17.15 40.37"/><polygon class="cls-3" points="17.15 40.37 23.38 42.66 23.38 35.24 17.15 32.95 17.15 40.37"/><polygon class="cls-4" points="29.61 40.45 23.38 42.66 23.38 35.24 29.61 33.03 29.61 40.45"/><polygon class="cls-3" points="29.61 40.45 23.38 42.66 23.38 35.24 29.61 33.03 29.61 40.45"/><polygon class="cls-5" points="23.38 35.24 17.15 32.95 23.38 30.73 29.61 33.03 23.38 35.24"/><polygon class="cls-3" points="23.38 35.24 17.15 32.95 23.38 30.73 29.61 33.03 23.38 35.24"/><line class="cls-7" x1="23.38" y1="20.71" x2="23.38" y2="33.03"/><polygon class="cls-6" points="17.15 25.13 23.38 27.42 23.38 20 17.15 17.71 17.15 25.13"/><polygon class="cls-8" points="17.15 25.13 23.38 27.42 23.38 20 17.15 17.71 17.15 25.13"/><polygon class="cls-4" points="29.61 25.2 23.38 27.42 23.38 20 29.61 17.78 29.61 25.2"/><polygon class="cls-8" points="29.61 25.2 23.38 27.42 23.38 20 29.61 17.78 29.61 25.2"/><polygon class="cls-9" points="23.38 20 17.15 17.71 23.38 15.49 29.61 17.78 23.38 20"/><polygon class="cls-8" points="23.38 20 17.15 17.71 23.38 15.49 29.61 17.78 23.38 20"/><line class="cls-7" x1="6.48" y1="14.23" x2="6.48" y2="26.55"/><line class="cls-7" x1="23.38" y1="5.57" x2="23.38" y2="17.89"/><line class="cls-7" x1="40.28" y1="14.23" x2="40.28" y2="26.55"/><polygon class="cls-2" points="17.15 9.88 23.38 12.18 23.38 4.75 17.15 2.46 17.15 9.88"/><polygon class="cls-3" points="17.15 9.88 23.38 12.18 23.38 4.75 17.15 2.46 17.15 9.88"/><polygon class="cls-4" points="29.61 9.96 23.38 12.18 23.38 4.75 29.61 2.54 29.61 9.96"/><polygon class="cls-3" points="29.61 9.96 23.38 12.18 23.38 4.75 29.61 2.54 29.61 9.96"/><polygon class="cls-5" points="23.38 4.75 17.15 2.46 23.38 0.25 29.61 2.54 23.38 4.75"/><polygon class="cls-3" points="23.38 4.75 17.15 2.46 23.38 0.25 29.61 2.54 23.38 4.75"/><line class="cls-6" x1="20.27" y1="7.11" x2="9.59" y2="11.02"/><line class="cls-7" x1="20.27" y1="7.11" x2="9.59" y2="11.02"/><line class="cls-6" x1="26.49" y1="7.11" x2="37.17" y2="11.02"/><line class="cls-7" x1="26.49" y1="7.11" x2="37.17" y2="11.02"/><polygon class="cls-2" points="0.25 15.85 6.48 18.14 6.48 10.72 0.25 8.43 0.25 15.85"/><polygon class="cls-3" points="0.25 15.85 6.48 18.14 6.48 10.72 0.25 8.43 0.25 15.85"/><polygon class="cls-4" points="12.71 15.92 6.48 18.14 6.48 10.72 12.71 8.5 12.71 15.92"/><polygon class="cls-3" points="12.71 15.92 6.48 18.14 6.48 10.72 12.71 8.5 12.71 15.92"/><polygon class="cls-5" points="6.48 10.72 0.25 8.43 6.48 6.21 12.71 8.5 6.48 10.72"/><polygon class="cls-3" points="6.48 10.72 0.25 8.43 6.48 6.21 12.71 8.5 6.48 10.72"/><polygon class="cls-2" points="34.05 15.85 40.28 18.14 40.28 10.72 34.05 8.43 34.05 15.85"/><polygon class="cls-3" points="34.05 15.85 40.28 18.14 40.28 10.72 34.05 8.43 34.05 15.85"/><polygon class="cls-4" points="46.51 15.92 40.28 18.14 40.28 10.72 46.51 8.5 46.51 15.92"/><polygon class="cls-3" points="46.51 15.92 40.28 18.14 40.28 10.72 46.51 8.5 46.51 15.92"/><polygon class="cls-5" points="40.28 10.72 34.05 8.43 40.28 6.21 46.51 8.5 40.28 10.72"/><polygon class="cls-3" points="40.28 10.72 34.05 8.43 40.28 6.21 46.51 8.5 40.28 10.72"/></g></g></svg>