<svg xmlns="http://www.w3.org/2000/svg" viewBox="0 0 47.24 49.08"><defs><style>.cls-1{fill:#ebebeb;}.cls-2{fill:#fff;}.cls-3,.cls-6{fill:none;stroke-linejoin:round;stroke-width:0.5px;}.cls-3{stroke:#b6cd5b;}.cls-4{fill:#dfeab0;}.cls-5{fill:#deeaff;}.cls-6{stroke:#304d9d;}.cls-7{fill:#98b9ea;}.cls-8{fill:#b6cd5b;}.cls-9{fill:#436db5;}</style></defs><title>nfv</title><g id="Layer_2" data-name="Layer 2"><g id="Layer_1-2" data-name="Layer 1"><polygon class="cls-1" points="24.11 49.08 0.98 40.59 24.11 32.11 47.24 40.59 24.11 49.08"/><path class="cls-2" d="M20.22,5,13.68,2.27a4.15,4.15,0,0,0-3.35-.11A7.36,7.36,0,0,0,6.06,7.39a3.29,3.29,0,0,0-2.72,0c-2,.82-3.09,3.53-3.09,5.52v2L7,17.79V15.7"/><path class="cls-3" d="M20.22,5,13.68,2.27a4.15,4.15,0,0,0-3.35-.11A7.36,7.36,0,0,0,6.06,7.39a3.29,3.29,0,0,0-2.72,0c-2,.82-3.09,3.53-3.09,5.52v2L7,17.79V15.7"/><path class="cls-4" d="M23,11.89V9.73c0-3.25-2.68-6-6-4.79a7.38,7.38,0,0,0-4.27,5.23,3.32,3.32,0,0,0-2.73,0C8.06,11,7,13.72,7,15.7v2.09Z"/><path class="cls-3" d="M23,11.89V9.73c0-3.25-2.68-6-6-4.79a7.38,7.38,0,0,0-4.27,5.23,3.32,3.32,0,0,0-2.73,0C8.06,11,7,13.72,7,15.7v2.09Z"/><line class="cls-4" x1="6.06" y1="7.39" x2="12.78" y2="10.17"/><line class="cls-3" x1="6.06" y1="7.39" x2="12.78" y2="10.17"/><polygon class="cls-5" points="12.15 25.46 23.04 29.47 23.04 22.23 12.15 18.22 12.15 25.46"/><polygon class="cls-6" points="12.15 25.46 23.04 29.47 23.04 22.23 12.15 18.22 12.15 25.46"/><polygon class="cls-2" points="33.92 25.6 23.03 29.47 23.03 22.23 33.92 18.36 33.92 25.6"/><polygon class="cls-6" points="33.92 25.6 23.03 29.47 23.03 22.23 33.92 18.36 33.92 25.6"/><polygon class="cls-7" points="23.03 22.23 12.15 18.22 23.03 14.36 33.92 18.36 23.03 22.23"/><polygon class="cls-6" points="23.03 22.23 12.15 18.22 23.03 14.36 33.92 18.36 23.03 22.23"/><path class="cls-8" d="M26.75,23.65a1.81,1.81,0,0,1-1.2,1.59.84.84,0,0,1-1.2-.8,1.82,1.82,0,0,1,1.2-1.6.84.84,0,0,1,1.2.81"/><path class="cls-8" d="M30.23,22.42A1.81,1.81,0,0,1,29,24a.84.84,0,0,1-1.2-.81A1.82,1.82,0,0,1,29,21.61a.84.84,0,0,1,1.2.81"/><polygon class="cls-5" points="29.66 41.78 27.36 40.81 27.36 30.85 29.66 31.82 29.66 41.78"/><polygon class="cls-6" points="29.66 41.78 27.36 40.81 27.36 30.85 29.66 31.82 29.66 41.78"/><path class="cls-2" d="M45,25.19l.53.11c-1.62-1.19-2.59-1.17-3-1L28,29.91l2.3,1Z"/><path class="cls-6" d="M45,25.19l.53.11c-1.62-1.19-2.59-1.17-3-1L28,29.91l2.3,1Z"/><path class="cls-7" d="M27.36,40.82a1,1,0,0,0,.73,1c.2.06,2,.82,2.38.94l-.82-.94Z"/><path class="cls-6" d="M27.36,40.82a1,1,0,0,0,.73,1c.2.06,2,.82,2.38.94l-.82-.94Z"/><path class="cls-2" d="M29.65,31.83v9.9a1,1,0,0,0,1.38.93L45.44,37a1,1,0,0,0,.63-.93V26.21a1,1,0,0,0-1.36-.94L30.3,30.89a1,1,0,0,0-.65.94"/><path class="cls-6" d="M29.65,31.83v9.9a1,1,0,0,0,1.38.93L45.44,37a1,1,0,0,0,.63-.93V26.21a1,1,0,0,0-1.36-.94L30.3,30.89A1,1,0,0,0,29.65,31.83Z"/><path class="cls-5" d="M27.36,30.83A1,1,0,0,1,28,29.9l2.3,1a1,1,0,0,0-.65.93Z"/><path class="cls-6" d="M27.36,30.83A1,1,0,0,1,28,29.9l2.3,1a1,1,0,0,0-.65.93Z"/><polygon class="cls-4" points="31.9 31.1 31.9 41.47 44.13 36.64 44.13 26.35 31.9 31.1"/><polygon class="cls-5" points="45.06 8.09 45.06 18.42 35.84 14.75 35.84 4.51 45.06 8.09"/><polygon class="cls-6" points="45.06 8.09 45.06 18.42 35.84 14.75 35.84 4.51 45.06 8.09"/><path class="cls-5" d="M41.83,9.27V19.61c-4.59-1-8-2.2-9.22-3.68V5.7Z"/><path class="cls-6" d="M41.83,9.27V19.61c-4.59-1-8-2.2-9.22-3.68V5.7Z"/><path class="cls-9" d="M34.73,10.63a1.19,1.19,0,0,1,1.7-1.25A3,3,0,0,1,38.13,12c0,.84-.48,1.35-1.15,1.35L38.13,17l-3.4-1.33,1.16-2.82a3,3,0,0,1-1.16-2.25"/><path class="cls-2" d="M45.06,8.09,41.83,9.27A25.05,25.05,0,0,1,32.61,5.7l3.23-1.19a28.13,28.13,0,0,1,9.22,3.58"/><path class="cls-6" d="M45.06,8.09,41.83,9.27A25.05,25.05,0,0,1,32.61,5.7l3.23-1.19A28.13,28.13,0,0,1,45.06,8.09Z"/><polygon class="cls-7" points="41.83 19.61 45.06 18.42 45.06 8.09 41.83 9.27 41.83 19.61"/><polygon class="cls-6" points="41.83 19.61 45.06 18.42 45.06 8.09 41.83 9.27 41.83 19.61"/><path class="cls-5" d="M42.27,7.73V4.08A3.39,3.39,0,0,0,39.68.41a3.21,3.21,0,0,0-4.28,2.9V5.69c0,.53,1.33,1,1.9.33V3.64a1.48,1.48,0,0,1,2-1.38l.11,0a1.48,1.48,0,0,1,.95,1.38V7.36c0,.62,1.51,1.07,1.9.37"/><path class="cls-6" d="M42.27,7.73V4.08A3.39,3.39,0,0,0,39.68.41a3.21,3.21,0,0,0-4.28,2.9V5.69c0,.53,1.33,1,1.9.33V3.64a1.48,1.48,0,0,1,2-1.38l.11,0a1.48,1.48,0,0,1,.95,1.38V7.36C40.39,8,41.88,8.43,42.27,7.73Z"/><path class="cls-5" d="M16.68,42l1.64-.63a6.07,6.07,0,0,1-1.59-3.47c0-1.76-1.63-.93-1.64.63A5.26,5.26,0,0,0,16.68,42"/><path class="cls-6" d="M16.68,42l1.64-.63a6.07,6.07,0,0,1-1.59-3.47c0-1.76-1.63-.93-1.64.63A5.26,5.26,0,0,0,16.68,42Z"/><path class="cls-5" d="M3.09,25.9,16.81,38.46l2.37-.9a2.61,2.61,0,0,0,1.22-2.5c0-3.71-3.76-6.72-8.4-8.75-2.85-1.25-5.37-1.83-6.89-1.23-.94.37-2,.82-2,.82"/><path class="cls-6" d="M3.09,25.9,16.81,38.46l2.37-.9a2.61,2.61,0,0,0,1.22-2.5c0-3.71-3.76-6.72-8.4-8.75-2.85-1.25-5.37-1.83-6.89-1.23-.94.37-2,.82-2,.82"/><path class="cls-7" d="M10.36,27c4.64,2,8.39,5,8.39,8.74,0,2.31-1.45,3.07-3.66,2.82A6.5,6.5,0,0,0,16.68,42l-.28.28a10.4,10.4,0,0,1-4.94-4.73l-1.1-.45C5.72,35.05,2,32,2,28.33S5.72,24.92,10.36,27"/><path class="cls-6" d="M10.36,27c4.64,2,8.39,5,8.39,8.74,0,2.31-1.45,3.07-3.66,2.82A6.5,6.5,0,0,0,16.68,42l-.28.28a10.4,10.4,0,0,1-4.94-4.73l-1.1-.45C5.72,35.05,2,32,2,28.33S5.72,24.92,10.36,27Z"/><polygon class="cls-5" points="16.4 42.26 16.68 41.98 18.32 41.35 18.04 41.63 16.4 42.26"/><polygon class="cls-6" points="16.4 42.26 16.68 41.98 18.32 41.35 18.04 41.63 16.4 42.26"/></g></g></svg>