<svg xmlns="http://www.w3.org/2000/svg" viewBox="0 0 46.26 48.46"><defs><style>.cls-1{fill:#ebebeb;}.cls-2{fill:#deeaff;}.cls-3,.cls-7,.cls-8{fill:none;stroke-linejoin:round;stroke-width:0.5px;}.cls-3{stroke:#304d9d;}.cls-4{fill:#98b9ea;}.cls-5{fill:#fff;}.cls-6{fill:#dfeab0;}.cls-7,.cls-8{stroke:#b6cd5b;}.cls-8{stroke-linecap:round;}</style></defs><title>nutanix_go</title><g id="Layer_2" data-name="Layer 2"><g id="Layer_1-2" data-name="Layer 1"><polygon class="cls-1" points="23.13 48.46 0 39.98 23.13 31.49 46.26 39.98 23.13 48.46"/><polygon class="cls-2" points="6.12 44.18 3.77 43.29 3.77 17.56 6.12 18.45 6.12 44.18"/><polygon class="cls-3" points="6.12 44.18 3.77 43.29 3.77 17.56 6.12 18.45 6.12 44.18"/><polygon class="cls-4" points="39.65 5.15 37.3 4.25 3.77 17.56 6.12 18.46 39.65 5.15"/><polygon class="cls-3" points="39.65 5.15 37.3 4.25 3.77 17.56 6.12 18.46 39.65 5.15"/><polygon class="cls-5" points="6.12 44.18 39.63 30.87 39.63 5.14 6.12 18.45 6.12 44.18"/><polygon class="cls-3" points="6.12 44.18 39.63 30.87 39.63 5.14 6.12 18.45 6.12 44.18"/><line class="cls-5" x1="6.12" y1="18.46" x2="6.12" y2="44.18"/><line class="cls-3" x1="6.12" y1="18.46" x2="6.12" y2="44.18"/><line class="cls-5" x1="39.64" y1="5.14" x2="39.64" y2="30.87"/><line class="cls-3" x1="39.64" y1="5.14" x2="39.64" y2="30.87"/><line class="cls-5" x1="34.86" y1="7.04" x2="34.86" y2="32.77"/><line class="cls-3" x1="34.86" y1="7.04" x2="34.86" y2="32.77"/><line class="cls-5" x1="30.07" y1="8.94" x2="30.07" y2="34.67"/><line class="cls-3" x1="30.07" y1="8.94" x2="30.07" y2="34.67"/><line class="cls-5" x1="25.28" y1="10.85" x2="25.28" y2="36.58"/><line class="cls-3" x1="25.28" y1="10.85" x2="25.28" y2="36.58"/><line class="cls-5" x1="20.49" y1="12.75" x2="20.49" y2="38.48"/><line class="cls-3" x1="20.49" y1="12.75" x2="20.49" y2="38.48"/><line class="cls-5" x1="15.7" y1="14.65" x2="15.7" y2="40.38"/><line class="cls-3" x1="15.7" y1="14.65" x2="15.7" y2="40.38"/><line class="cls-5" x1="10.91" y1="16.55" x2="10.91" y2="42.28"/><line class="cls-3" x1="10.91" y1="16.55" x2="10.91" y2="42.28"/><line class="cls-5" x1="39.63" y1="18.46" x2="6.12" y2="31.77"/><line class="cls-3" x1="39.63" y1="18.46" x2="6.12" y2="31.77"/><line class="cls-5" x1="39.63" y1="11.8" x2="6.12" y2="25.11"/><line class="cls-3" x1="39.63" y1="11.8" x2="6.12" y2="25.11"/><line class="cls-5" x1="39.63" y1="24.74" x2="6.12" y2="38.05"/><line class="cls-3" x1="39.63" y1="24.74" x2="6.12" y2="38.05"/><path class="cls-6" d="M33.77,39.41c-3.12-.84-5.27-4.42-4.4-9.87s4.26-9.87,7.56-9.87l4.14.89L37,40.17Z"/><path class="cls-7" d="M33.77,39.41c-3.12-.84-5.27-4.42-4.4-9.87s4.26-9.87,7.56-9.87l4.14.89L37,40.17Z"/><path class="cls-5" d="M40.11,20.42c-3.3,0-6.69,4.42-7.56,9.88s1.1,9.87,4.4,9.87,6.68-4.42,7.56-9.87-1.1-9.88-4.4-9.88"/><path class="cls-7" d="M40.11,20.42c-3.3,0-6.69,4.42-7.56,9.88s1.1,9.87,4.4,9.87,6.68-4.42,7.56-9.87S43.41,20.42,40.11,20.42Z"/><path class="cls-8" d="M41.46,27.77l0-.79c0-.42-.31-.62-.74-.45l-3.4,1.4A1.4,1.4,0,0,0,36.54,29l-.07,1.57c0,.43.31.63.74.45l3.4-1.39c.43-.18.77,0,.75.45l-.08,1.57a1.39,1.39,0,0,1-.81,1.09l-3.4,1.4c-.44.17-.77,0-.75-.45l0-.81"/><line class="cls-8" x1="38.52" y1="25.05" x2="38.4" y2="27.5"/><line class="cls-8" x1="40.08" y1="24.41" x2="39.96" y2="26.86"/><line class="cls-8" x1="38.11" y1="33.73" x2="37.99" y2="36.18"/><line class="cls-8" x1="39.67" y1="33.09" x2="39.55" y2="35.54"/><polygon class="cls-2" points="6.12 17.18 3.77 16.29 3.77 13.56 6.12 14.46 6.12 17.18"/><polygon class="cls-3" points="6.12 17.18 3.77 16.29 3.77 13.56 6.12 14.46 6.12 17.18"/><polygon class="cls-4" points="39.65 1.15 37.3 0.25 3.77 13.56 6.12 14.46 39.65 1.15"/><polygon class="cls-3" points="39.65 1.15 37.3 0.25 3.77 13.56 6.12 14.46 39.65 1.15"/><polygon class="cls-5" points="6.12 17.18 39.63 3.87 39.63 1.14 6.12 14.46 6.12 17.18"/><polygon class="cls-3" points="6.12 17.18 39.63 3.87 39.63 1.14 6.12 14.46 6.12 17.18"/></g></g></svg>