<svg xmlns="http://www.w3.org/2000/svg" viewBox="0 0 46.85 49.19"><defs><style>.cls-1{fill:#dfeab0;}.cls-2,.cls-5{fill:none;stroke-linejoin:round;stroke-width:0.5px;}.cls-2{stroke:#b6cd5b;}.cls-3{fill:#ebebeb;}.cls-4{fill:#deeaff;}.cls-5{stroke:#304d9d;}.cls-6{fill:#98b9ea;}</style></defs><title>one-click_failover</title><g id="Layer_2" data-name="Layer 2"><g id="Layer_1-2" data-name="Layer 1"><polygon class="cls-1" points="12.14 7.09 12.04 7.24 11.94 7.17 5.36 3.46 0.25 11 6.83 14.71 6.93 14.78 6.83 14.92 2.36 21.61 9.57 25.88 14.05 19.2 14.14 19.05 14.25 19.11 20.23 22.84 25.34 15.29 19.36 11.57 19.26 11.51 19.36 11.36 24.01 4.52 16.8 0.25 12.14 7.09"/><polygon class="cls-2" points="12.14 7.09 12.04 7.24 11.94 7.17 5.36 3.46 0.25 11 6.83 14.71 6.93 14.78 6.83 14.92 2.36 21.61 9.57 25.88 14.05 19.2 14.14 19.05 14.25 19.11 20.23 22.84 25.34 15.29 19.36 11.57 19.26 11.51 19.36 11.36 24.01 4.52 16.8 0.25 12.14 7.09"/><polygon class="cls-3" points="23.72 49.19 0.59 40.71 23.72 32.23 46.85 40.71 23.72 49.19"/><polygon class="cls-4" points="35.97 41.38 38.88 41.29 31.13 31.91 28.22 32 35.97 41.38"/><polygon class="cls-5" points="35.97 41.38 38.88 41.29 31.13 31.91 28.22 32 35.97 41.38"/><polygon class="cls-6" points="39.17 25.27 18.55 13.41 26.3 35.9 31.13 31.91 38.88 41.29 42.09 38.64 34.34 29.26 39.17 25.27"/><polygon class="cls-5" points="39.17 25.27 18.55 13.41 26.3 35.9 31.13 31.91 38.88 41.29 42.09 38.64 34.34 29.26 39.17 25.27"/><polygon class="cls-4" points="26.3 35.9 23.39 35.99 15.64 13.51 18.55 13.41 26.3 35.9"/><polygon class="cls-5" points="26.3 35.9 23.39 35.99 15.64 13.51 18.55 13.41 26.3 35.9"/></g></g></svg>