<svg xmlns="http://www.w3.org/2000/svg" viewBox="0 0 48.57 48.52"><defs><style>.cls-1{fill:#ebebeb;}.cls-2{fill:#deeaff;}.cls-3,.cls-6{fill:none;stroke-linejoin:round;}.cls-3{stroke:#304d9d;stroke-width:0.5px;}.cls-4{fill:#fff;}.cls-5{fill:#98b9ea;}.cls-6{stroke:#b6cd5b;stroke-linecap:round;}.cls-7{fill:#dfeab0;}</style></defs><title>prism</title><g id="Layer_2" data-name="Layer 2"><g id="Layer_1-2" data-name="Layer 1"><polygon class="cls-1" points="24.15 48.52 1.02 40.04 24.15 31.55 47.28 40.04 24.15 48.52"/><polygon class="cls-2" points="16.72 8.75 22.21 10.77 22.21 4.23 16.72 2.2 16.72 8.75"/><polygon class="cls-3" points="16.72 8.75 22.21 10.77 22.21 4.23 16.72 2.2 16.72 8.75"/><polygon class="cls-4" points="27.71 8.82 22.21 10.77 22.21 4.23 27.71 2.27 27.71 8.82"/><polygon class="cls-3" points="27.71 8.82 22.21 10.77 22.21 4.23 27.71 2.27 27.71 8.82"/><polygon class="cls-5" points="22.21 4.23 16.72 2.21 22.21 0.25 27.71 2.27 22.21 4.23"/><polygon class="cls-3" points="22.21 4.23 16.72 2.21 22.21 0.25 27.71 2.27 22.21 4.23"/><polygon class="cls-2" points="8.47 11.49 13.97 13.51 13.97 6.97 8.47 4.94 8.47 11.49"/><polygon class="cls-3" points="8.47 11.49 13.97 13.51 13.97 6.97 8.47 4.94 8.47 11.49"/><polygon class="cls-4" points="19.46 11.56 13.97 13.51 13.97 6.97 19.46 5.01 19.46 11.56"/><polygon class="cls-3" points="19.46 11.56 13.97 13.51 13.97 6.97 19.46 5.01 19.46 11.56"/><polygon class="cls-5" points="13.97 6.97 8.47 4.94 13.97 2.99 19.46 5.01 13.97 6.97"/><polygon class="cls-3" points="13.97 6.97 8.47 4.94 13.97 2.99 19.46 5.01 13.97 6.97"/><polygon class="cls-2" points="0.25 14.32 5.75 16.34 5.75 9.79 0.25 7.77 0.25 14.32"/><polygon class="cls-3" points="0.25 14.32 5.75 16.34 5.75 9.79 0.25 7.77 0.25 14.32"/><polygon class="cls-4" points="11.24 14.39 5.75 16.34 5.75 9.79 11.24 7.84 11.24 14.39"/><polygon class="cls-3" points="11.24 14.39 5.75 16.34 5.75 9.79 11.24 7.84 11.24 14.39"/><polygon class="cls-5" points="5.75 9.79 0.25 7.77 5.75 5.82 11.24 7.84 5.75 9.79"/><polygon class="cls-3" points="5.75 9.79 0.25 7.77 5.75 5.82 11.24 7.84 5.75 9.79"/><polygon class="cls-2" points="6.43 36.72 19.74 41.62 13.09 23.3 6.43 36.72"/><polygon class="cls-3" points="6.43 36.72 19.74 41.62 13.09 23.3 6.43 36.72"/><polygon class="cls-4" points="39.87 34.45 19.74 41.62 13.09 23.3 33.22 16.14 39.87 34.45"/><polygon class="cls-3" points="39.87 34.45 19.74 41.62 13.09 23.3 33.22 16.14 39.87 34.45"/><line class="cls-6" x1="23.02" y1="37.2" x2="27.81" y2="31.06"/><line class="cls-6" x1="12.32" y1="21.36" x2="8.84" y2="16.91"/><line class="cls-6" x1="21.2" y1="18.57" x2="17.73" y2="14.11"/><line class="cls-6" x1="30.08" y1="15.77" x2="26.61" y2="11.31"/><line class="cls-6" x1="42.08" y1="31.15" x2="46.87" y2="25.01"/><polygon class="cls-2" points="28.88 29.31 27.49 28.79 27.49 16.99 28.88 17.51 28.88 29.31"/><polygon class="cls-3" points="28.88 29.31 27.49 28.79 27.49 16.99 28.88 17.51 28.88 29.31"/><path class="cls-4" d="M47,9.66l.62.13a3.73,3.73,0,0,0-2.25-.56L28.25,15.87l1.39.53Z"/><path class="cls-3" d="M47,9.66l.62.13a3.73,3.73,0,0,0-2.25-.56L28.25,15.87l1.39.53Z"/><path class="cls-5" d="M27.49,28.79a1.18,1.18,0,0,0,.87,1.14c.24.07,1,.34,1.48.48l-1-1.1Z"/><path class="cls-3" d="M27.49,28.79a1.18,1.18,0,0,0,.87,1.14c.24.07,1,.34,1.48.48l-1-1.1Z"/><path class="cls-4" d="M28.88,17.52V29.24a1.19,1.19,0,0,0,1.63,1.11l17.06-6.74a1.2,1.2,0,0,0,.75-1.11V10.87A1.19,1.19,0,0,0,46.7,9.76L29.64,16.41a1.19,1.19,0,0,0-.76,1.11"/><path class="cls-3" d="M28.88,17.52V29.24a1.19,1.19,0,0,0,1.63,1.11l17.06-6.74a1.2,1.2,0,0,0,.75-1.11V10.87A1.19,1.19,0,0,0,46.7,9.76L29.64,16.41A1.19,1.19,0,0,0,28.88,17.52Z"/><path class="cls-2" d="M27.49,17a1.19,1.19,0,0,1,.76-1.11l1.39.55a1.19,1.19,0,0,0-.76,1.11Z"/><path class="cls-3" d="M27.49,17a1.19,1.19,0,0,1,.76-1.11l1.39.55a1.19,1.19,0,0,0-.76,1.11Z"/><polygon class="cls-7" points="31.54 16.65 31.54 28.93 46.02 23.21 46.02 11.03 31.54 16.65"/></g></g></svg>