<svg xmlns="http://www.w3.org/2000/svg" viewBox="0 0 46.26 48.71"><defs><style>.cls-1{fill:#ebebeb;}.cls-2{fill:#dfeab0;}.cls-3{fill:none;stroke:#b6cd5b;stroke-linejoin:round;stroke-width:0.5px;}.cls-4{fill:#c4d36c;}</style></defs><title>resilient</title><g id="Layer_2" data-name="Layer 2"><g id="Layer_1-2" data-name="Layer 1"><polygon class="cls-1" points="23.13 48.71 0 40.23 23.13 31.75 46.26 40.23 23.13 48.71"/><polygon class="cls-2" points="43.97 8.44 22.91 0.25 1.83 8.29 22.89 16.48 43.97 8.44"/><polygon class="cls-3" points="43.97 8.44 22.91 0.25 1.83 8.29 22.89 16.48 43.97 8.44"/><polygon class="cls-4" points="41.44 11.93 39.28 11.08 30.71 22.22 33.62 22.74 41.44 11.93"/><polygon class="cls-3" points="41.44 11.93 39.28 11.08 30.71 22.22 33.62 22.74 41.44 11.93"/><polygon class="cls-4" points="31.71 25.38 29.44 23.98 23.61 32.47 25.08 34.53 31.71 25.38"/><polygon class="cls-3" points="31.71 25.38 29.44 23.98 23.61 32.47 25.08 34.53 31.71 25.38"/><path class="cls-2" d="M22.89,16.48V40.86l21.06-8V8.44Zm18.55-4.55L33.62,22.74,25.8,17.91ZM25.08,21.28l6.63,4.1-6.63,9.15ZM26,37.15l7.66-10.59,7.65,4.74Zm15.8-9.38-6.23-3.85,6.23-8.6Z"/><path class="cls-3" d="M22.89,16.48V40.86l21.06-8V8.44Zm18.55-4.55L33.62,22.74,25.8,17.91ZM25.08,21.28l6.63,4.1-6.63,9.15ZM26,37.15l7.66-10.59,7.65,4.74Zm15.8-9.38-6.23-3.85,6.23-8.6Z"/><polygon class="cls-4" points="41.27 31.3 38.65 29.67 28.39 33.78 25.96 37.15 41.27 31.3"/><polygon class="cls-3" points="41.27 31.3 38.65 29.67 28.39 33.78 25.96 37.15 41.27 31.3"/><polygon class="cls-4" points="41.76 27.77 41.76 15.32 39.63 18.27 39.63 26.45 41.76 27.77"/><polygon class="cls-3" points="41.76 27.77 41.76 15.32 39.63 18.27 39.63 26.45 41.76 27.77"/><polygon class="cls-4" points="4.38 11.93 6.54 11.08 15.12 22.22 12.21 22.74 4.38 11.93"/><polygon class="cls-3" points="4.38 11.93 6.54 11.08 15.12 22.22 12.21 22.74 4.38 11.93"/><polygon class="cls-4" points="14.12 25.38 16.38 23.98 22.22 32.47 20.74 34.53 14.12 25.38"/><polygon class="cls-3" points="14.12 25.38 16.38 23.98 22.22 32.47 20.74 34.53 14.12 25.38"/><path class="cls-2" d="M1.88,8.43V32.81l21.06,8V16.48ZM20,17.91l-7.81,4.83L4.38,11.93Zm.72,16.62-6.62-9.15,6.62-4.1ZM4.55,31.3l7.66-4.74,7.66,10.59Zm-.48-16,6.22,8.6L4.07,27.77Z"/><path class="cls-3" d="M1.88,8.43V32.81l21.06,8V16.48ZM20,17.91l-7.81,4.83L4.38,11.93Zm.72,16.62-6.62-9.15,6.62-4.1ZM4.55,31.3l7.66-4.74,7.66,10.59Zm-.48-16,6.22,8.6L4.07,27.77Z"/><polygon class="cls-4" points="4.55 31.3 7.18 29.67 17.43 33.78 19.87 37.15 4.55 31.3"/><polygon class="cls-3" points="4.55 31.3 7.18 29.67 17.43 33.78 19.87 37.15 4.55 31.3"/><polygon class="cls-4" points="4.07 27.77 4.07 15.32 6.2 18.27 6.2 26.45 4.07 27.77"/><polygon class="cls-3" points="4.07 27.77 4.07 15.32 6.2 18.27 6.2 26.45 4.07 27.77"/></g></g></svg>