<svg xmlns="http://www.w3.org/2000/svg" xmlns:xlink="http://www.w3.org/1999/xlink" viewBox="0 0 49.29 50.02"><defs><style>.cls-1,.cls-12,.cls-7{fill:none;}.cls-2{isolation:isolate;}.cls-3{mix-blend-mode:multiply;}.cls-4{clip-path:url(#clip-path);}.cls-5{fill:#ebebeb;}.cls-6{fill:#deeaff;}.cls-7{stroke:#304d9d;}.cls-12,.cls-7{stroke-linejoin:round;stroke-width:0.5px;}.cls-8{fill:#fff;}.cls-9{fill:#98b9ea;}.cls-10{fill:#436db5;}.cls-11{fill:#dfeab0;}.cls-12{stroke:#b6cd5b;}.cls-13{fill:#c4d36c;}.cls-14{fill:#b6cd5b;}</style><clipPath id="clip-path"><rect class="cls-1" x="1.2" y="33.06" width="46.26" height="16.96"/></clipPath></defs><title>robo</title><g class="cls-2"><g id="Layer_2" data-name="Layer 2"><g id="Layer_1-2" data-name="Layer 1"><g class="cls-3"><g class="cls-4"><polygon class="cls-5" points="24.33 50.02 1.2 41.54 24.33 33.05 47.46 41.54 24.33 50.02"/></g></g><polygon class="cls-6" points="10.85 41.53 0.25 37.26 0.25 15.21 10.85 19.48 10.85 41.53"/><polygon class="cls-7" points="10.85 41.53 0.25 37.26 0.25 15.21 10.85 19.48 10.85 41.53"/><polygon class="cls-8" points="35.44 10.1 24.84 5.83 0.25 15.21 10.85 19.48 35.44 10.1"/><polygon class="cls-7" points="35.44 10.1 24.84 5.83 0.25 15.21 10.85 19.48 35.44 10.1"/><polygon class="cls-9" points="10.85 41.53 35.43 32.15 35.43 10.1 10.85 19.48 10.85 41.53"/><polygon class="cls-7" points="10.85 41.53 35.43 32.15 35.43 10.1 10.85 19.48 10.85 41.53"/><polygon class="cls-10" points="10.85 23.47 35.43 14.09 35.43 12.04 10.85 21.42 10.85 23.47"/><polygon class="cls-10" points="10.85 23.47 5.72 21.46 5.72 19.41 10.85 21.42 10.85 23.47"/><polygon class="cls-10" points="10.85 29.47 5.72 27.46 5.72 25.41 10.85 27.42 10.85 29.47"/><polygon class="cls-10" points="10.85 35.47 5.72 33.46 5.72 31.41 10.85 33.42 10.85 35.47"/><polygon class="cls-10" points="10.85 41.47 5.72 39.46 5.72 37.41 10.85 39.42 10.85 41.47"/><polygon class="cls-10" points="10.85 29.47 35.43 20.09 35.43 18.04 10.85 27.42 10.85 29.47"/><polygon class="cls-10" points="10.85 35.47 35.43 26.09 35.43 24.04 10.85 33.42 10.85 35.47"/><polygon class="cls-10" points="10.85 41.47 35.43 32.09 35.43 30.04 10.85 39.42 10.85 41.47"/><polygon class="cls-8" points="38.85 27.34 35.44 25.97 10.85 35.32 5.75 33.24 2.84 34.37 11.33 37.82 38.85 27.34"/><polygon class="cls-7" points="38.85 27.34 35.44 25.97 10.85 35.32 5.75 33.24 2.84 34.37 11.33 37.82 38.85 27.34"/><polygon class="cls-8" points="38.85 21.41 35.44 20.05 10.85 29.39 5.75 27.31 2.84 28.45 11.33 31.9 38.85 21.41"/><polygon class="cls-7" points="38.85 21.41 35.44 20.05 10.85 29.39 5.75 27.31 2.84 28.45 11.33 31.9 38.85 21.41"/><polygon class="cls-8" points="38.85 15.49 35.44 14.12 10.85 23.47 5.75 21.39 2.84 22.52 11.33 25.97 38.85 15.49"/><polygon class="cls-7" points="38.85 15.49 35.44 14.12 10.85 23.47 5.75 21.39 2.84 22.52 11.33 25.97 38.85 15.49"/><polygon class="cls-11" points="36.74 45.6 26.14 41.33 26.14 33.28 31.22 30.33 36.74 37.55 36.74 45.6"/><polygon class="cls-12" points="36.74 45.6 26.14 41.33 26.14 33.28 31.22 30.33 36.74 37.55 36.74 45.6"/><polygon class="cls-13" points="36.74 45.6 48.36 41.16 48.36 33.12 36.74 37.55 36.74 45.6"/><polygon class="cls-12" points="36.74 45.6 48.36 41.16 48.36 33.12 36.74 37.55 36.74 45.6"/><polygon class="cls-8" points="49.04 34.13 43.04 25.97 31.22 30.32 37.41 38.56 49.04 34.13"/><polygon class="cls-12" points="49.04 34.13 43.04 25.97 31.22 30.32 37.41 38.56 49.04 34.13"/><polygon class="cls-14" points="34.05 44.52 32.22 43.78 32.22 38.32 34.05 39.05 34.05 44.52"/><polygon class="cls-14" points="30.17 39.53 28.34 38.79 28.34 35.33 30.17 36.06 30.17 39.53"/><polygon class="cls-11" points="39.76 42.77 41.59 42.03 41.59 38.56 39.76 39.3 39.76 42.77"/><polygon class="cls-11" points="44.09 41.11 45.92 40.37 45.92 36.91 44.09 37.65 44.09 41.11"/><polygon class="cls-6" points="10.85 15.95 0.25 11.68 0.25 9.63 10.85 13.9 10.85 15.95"/><polygon class="cls-7" points="10.85 15.95 0.25 11.68 0.25 9.63 10.85 13.9 10.85 15.95"/><polygon class="cls-8" points="35.44 4.52 24.84 0.25 0.25 9.63 10.85 13.9 35.44 4.52"/><polygon class="cls-7" points="35.44 4.52 24.84 0.25 0.25 9.63 10.85 13.9 35.44 4.52"/><polygon class="cls-9" points="10.85 15.95 35.43 6.57 35.43 4.52 10.85 13.9 10.85 15.95"/><polygon class="cls-7" points="10.85 15.95 35.43 6.57 35.43 4.52 10.85 13.9 10.85 15.95"/></g></g></g></svg>