<svg xmlns="http://www.w3.org/2000/svg" viewBox="0 0 46.26 49.61"><defs><style>.cls-1{fill:#ebebeb;}.cls-2{fill:#deeaff;}.cls-3{fill:none;stroke:#304d9d;stroke-linejoin:round;stroke-width:0.5px;}.cls-4{fill:#436db5;}.cls-5{fill:#fff;}.cls-6{fill:#98b9ea;}</style></defs><title>security</title><g id="Layer_2" data-name="Layer 2"><g id="Layer_1-2" data-name="Layer 1"><polyline class="cls-1" points="23.13 49.61 0 41.13 23.13 32.65 46.26 41.13 23.13 49.61"/><polygon class="cls-2" points="10.3 19.64 10.3 40.11 28.56 32.84 28.56 12.57 10.3 19.64"/><polygon class="cls-3" points="10.3 19.64 10.3 40.11 28.56 32.84 28.56 12.57 10.3 19.64"/><path class="cls-2" d="M16.69,22V42.46c9.08-2,15.81-4.36,18.25-7.28V14.92Z"/><path class="cls-3" d="M16.69,22V42.46c9.08-2,15.81-4.36,18.25-7.28V14.92Z"/><path class="cls-4" d="M30.75,24.68c0-2.09-1.51-3.19-3.37-2.46A5.83,5.83,0,0,0,24,27.31C24,29,25,30,26.3,30L24,37.35l6.74-2.63-2.29-5.58a6,6,0,0,0,2.29-4.46"/><path class="cls-5" d="M10.3,19.64,16.69,22c8.19-1.73,14.1-4.14,18.25-7.07l-6.38-2.35A56.06,56.06,0,0,0,10.3,19.64"/><path class="cls-3" d="M10.3,19.64,16.69,22c8.19-1.73,14.1-4.14,18.25-7.07l-6.38-2.35A56.06,56.06,0,0,0,10.3,19.64Z"/><polygon class="cls-6" points="16.69 42.46 10.3 40.11 10.3 19.64 16.69 21.99 16.69 42.46"/><polygon class="cls-3" points="16.69 42.46 10.3 40.11 10.3 19.64 16.69 21.99 16.69 42.46"/><path class="cls-2" d="M15.15,18.85V8.67c0-4.67,2.14-7,5.69-8.06C24.77-.72,30.23,1.69,30.23,7v7.41c0,1.17-2.93,2.12-4.17.73V7.7a3.25,3.25,0,0,0-4.42-3l-.24.09a3.24,3.24,0,0,0-2.08,3V18c0,1.38-3.31,2.37-4.17.81"/><path class="cls-3" d="M15.15,18.85V8.67c0-4.67,2.14-7,5.69-8.06C24.77-.72,30.23,1.69,30.23,7v7.41c0,1.17-2.93,2.12-4.17.73V7.7a3.25,3.25,0,0,0-4.42-3l-.24.09a3.24,3.24,0,0,0-2.08,3V18C19.28,19.42,16,20.41,15.15,18.85Z"/></g></g></svg>