<svg xmlns="http://www.w3.org/2000/svg" viewBox="0 0 46.26 47.29"><defs><style>.cls-1{fill:#ebebeb;}.cls-2,.cls-4,.cls-8{fill:none;}.cls-2{stroke:#b6cd5b;stroke-width:0.75px;}.cls-2,.cls-4{stroke-linejoin:round;}.cls-3{fill:#deeaff;}.cls-4{stroke:#304d9d;}.cls-4,.cls-8{stroke-width:0.5px;}.cls-5{fill:#fff;}.cls-6{fill:#98b9ea;}.cls-7{fill:#b6cd5b;}.cls-8{stroke:#fff;stroke-miterlimit:10;}</style></defs><title>service_provider</title><g id="Layer_2" data-name="Layer 2"><g id="Layer_1-2" data-name="Layer 1"><polygon class="cls-1" points="23.13 47.29 0 38.81 23.13 30.32 46.26 38.81 23.13 47.29"/><path class="cls-2" d="M45.11,2.5C47.65,6.76,39.93,16,27.87,23.2S4,32.74,1.44,28.47,6.63,14.94,18.69,7.77,42.58-1.76,45.11,2.5Z"/><path class="cls-2" d="M1.44,2.5C-.75,6.19,7.25,15,19.3,22.16s23.62,10,25.81,6.31S39.31,16,27.25,8.81,3.63-1.19,1.44,2.5Z"/><polygon class="cls-3" points="4.02 34.64 23.07 41.63 23.07 37.3 4.02 30.32 4.02 34.64"/><polygon class="cls-4" points="4.02 34.64 23.07 41.63 23.07 37.3 4.02 30.32 4.02 34.64"/><polygon class="cls-5" points="42.12 34.64 23.07 41.63 23.07 37.3 42.12 30.32 42.12 34.64"/><polygon class="cls-4" points="42.12 34.64 23.07 41.63 23.07 37.3 42.12 30.32 42.12 34.64"/><polygon class="cls-6" points="23.07 37.3 4.02 30.32 23.07 23.33 42.12 30.32 23.07 37.3"/><polygon class="cls-4" points="23.07 37.3 4.02 30.32 23.07 23.33 42.12 30.32 23.07 37.3"/><path class="cls-7" d="M27.22,38a1.75,1.75,0,0,1-1.16,1.53.81.81,0,0,1-1.15-.78,1.75,1.75,0,0,1,1.15-1.53.81.81,0,0,1,1.16.78"/><path class="cls-7" d="M30.52,36.81a1.74,1.74,0,0,1-1.16,1.53.81.81,0,0,1-1.16-.77A1.75,1.75,0,0,1,29.36,36a.81.81,0,0,1,1.16.78"/><path class="cls-3" d="M8.37,15.28a15,15,0,1,1,15,15,15,15,0,0,1-15-15"/><path class="cls-4" d="M8.37,15.28a15,15,0,1,1,15,15A15,15,0,0,1,8.37,15.28Z"/><path class="cls-8" d="M23.07.31c2,0,5,6.64,5.12,14.91s-2.79,15-4.78,15"/><path class="cls-8" d="M23.36,30.2c-2,0-5-6.65-5.12-14.92S21,.27,23,.25"/><path class="cls-8" d="M23.36,30.2C17.68,30.2,12.1,23.55,12,15.28s6.23-15,11-15"/><path class="cls-8" d="M23.07.38C28.75.38,34.33,7,34.42,15.29s-6.23,15-11,15"/><path class="cls-4" d="M38.33,14.25c0,2-6.65,5-14.92,5.12s-15-2.79-15-4.78"/><path class="cls-4" d="M8.37,15.28a15,15,0,1,1,15,15A15,15,0,0,1,8.37,15.28Z"/><path class="cls-2" d="M45.11,2.5C47.65,6.76,39.93,16,27.87,23.2S4,32.74,1.44,28.47"/><path class="cls-2" d="M1.44,2.5C-.75,6.19,7.25,15,19.3,22.16s23.62,10,25.81,6.31"/></g></g></svg>