<svg xmlns="http://www.w3.org/2000/svg" xmlns:xlink="http://www.w3.org/1999/xlink" viewBox="0 0 47.95 49.24"><defs><style>.cls-1,.cls-8{fill:none;}.cls-2,.cls-3{isolation:isolate;}.cls-3{mix-blend-mode:multiply;}.cls-4{clip-path:url(#clip-path);}.cls-5{clip-path:url(#clip-path-2);}.cls-6{fill:#ebebeb;}.cls-7{fill:#98b9ea;}.cls-8{stroke:#304d9d;stroke-linejoin:round;stroke-width:0.5px;}.cls-9{fill:#deeaff;}.cls-10{fill:#dfeab0;}</style><clipPath id="clip-path" transform="translate(-0.6)"><rect class="cls-1" y="31.12" width="49" height="19"/></clipPath><clipPath id="clip-path-2" transform="translate(-0.6)"><rect class="cls-1" x="0.6" y="31.66" width="47.95" height="17.58"/></clipPath></defs><title>silos</title><g class="cls-2"><g id="Layer_2" data-name="Layer 2"><g id="Layer_1-2" data-name="Layer 1"><g class="cls-3"><g class="cls-4"><g class="cls-5"><polygon class="cls-6" points="23.98 49.24 0 40.45 23.98 31.66 47.95 40.45 23.98 49.24"/></g></g></g><path class="cls-7" d="M32.14,31.8c0,2.45-3.84,4.44-8.57,4.44S15,34.25,15,31.8V4.69H32.14Z" transform="translate(-0.6)"/><path class="cls-8" d="M32.14,31.8c0,2.45-3.84,4.44-8.57,4.44S15,34.25,15,31.8V4.69H32.14Z" transform="translate(-0.6)"/><path class="cls-9" d="M15,4.69c0,2.45,3.83,4.43,8.57,4.43s8.57-2,8.57-4.43S28.3.25,23.57.25,15,2.24,15,4.69" transform="translate(-0.6)"/><path class="cls-8" d="M15,4.69c0,2.45,3.83,4.43,8.57,4.43s8.57-2,8.57-4.43S28.3.25,23.57.25,15,2.24,15,4.69Z" transform="translate(-0.6)"/><path class="cls-10" d="M15,11.8c0,2.45,3.83,4.44,8.57,4.44s8.57-2,8.57-4.44v20c0,2.45-3.84,4.44-8.57,4.44S15,34.25,15,31.8Z" transform="translate(-0.6)"/><path class="cls-8" d="M15,11.8c0,2.45,3.83,4.44,8.57,4.44s8.57-2,8.57-4.44v20c0,2.45-3.84,4.44-8.57,4.44S15,34.25,15,31.8Z" transform="translate(-0.6)"/><path class="cls-7" d="M45.31,37.47c0,2.45-3.84,4.44-8.58,4.44s-8.57-2-8.57-4.44V18.35H45.31Z" transform="translate(-0.6)"/><path class="cls-8" d="M45.31,37.47c0,2.45-3.84,4.44-8.58,4.44s-8.57-2-8.57-4.44V18.35H45.31Z" transform="translate(-0.6)"/><path class="cls-9" d="M28.16,18.35c0,2.45,3.84,4.44,8.58,4.44s8.57-2,8.57-4.44-3.84-4.43-8.57-4.43-8.58,2-8.58,4.43" transform="translate(-0.6)"/><ellipse class="cls-8" cx="36.13" cy="18.35" rx="8.57" ry="4.44"/><path class="cls-7" d="M20.14,37.47c0,2.45-3.84,4.44-8.57,4.44S3,39.92,3,37.47V28.35H20.14Z" transform="translate(-0.6)"/><path class="cls-8" d="M20.14,37.47c0,2.45-3.84,4.44-8.57,4.44S3,39.92,3,37.47V28.35H20.14Z" transform="translate(-0.6)"/><path class="cls-9" d="M3,28.35c0,2.45,3.83,4.44,8.57,4.44s8.57-2,8.57-4.44-3.84-4.43-8.57-4.43S3,25.9,3,28.35" transform="translate(-0.6)"/><path class="cls-8" d="M3,28.35c0,2.45,3.83,4.44,8.57,4.44s8.57-2,8.57-4.44-3.84-4.43-8.57-4.43S3,25.9,3,28.35Z" transform="translate(-0.6)"/><path class="cls-10" d="M28.16,29.47c0,2.45,3.84,4.44,8.58,4.44s8.57-2,8.57-4.44v8c0,2.45-3.84,4.44-8.57,4.44s-8.58-2-8.58-4.44Z" transform="translate(-0.6)"/><path class="cls-8" d="M28.16,29.47c0,2.45,3.84,4.44,8.58,4.44s8.57-2,8.57-4.44v8c0,2.45-3.84,4.44-8.57,4.44s-8.58-2-8.58-4.44Z" transform="translate(-0.6)"/><path class="cls-10" d="M3,33.47c0,2.45,3.83,4.44,8.57,4.44s8.57-2,8.57-4.44v4c0,2.45-3.84,4.44-8.57,4.44S3,39.92,3,37.47Z" transform="translate(-0.6)"/><path class="cls-8" d="M3,33.47c0,2.45,3.83,4.44,8.57,4.44s8.57-2,8.57-4.44v4c0,2.45-3.84,4.44-8.57,4.44S3,39.92,3,37.47Z" transform="translate(-0.6)"/></g></g></g></svg>