<svg xmlns="http://www.w3.org/2000/svg" viewBox="0 0 46.26 48.81"><defs><style>.cls-1{fill:#ebebeb;}.cls-2{fill:#dfeab0;}.cls-3,.cls-6{fill:none;stroke-linejoin:round;stroke-width:0.5px;}.cls-3{stroke:#b6cd5b;}.cls-4{fill:#fff;}.cls-5{fill:#deeaff;}.cls-6{stroke:#304d9d;}.cls-7{fill:#98b9ea;}.cls-8{fill:#b6cd5b;}.cls-9{fill:#c4d36c;}</style></defs><title>sync</title><g id="Layer_2" data-name="Layer 2"><g id="Layer_1-2" data-name="Layer 1"><polygon class="cls-1" points="23.13 48.81 0 40.33 23.13 31.85 46.26 40.33 23.13 48.81"/><path class="cls-2" d="M24.15,4.1l3.49,11.5,3.46-5c5,2.82,5,11,0,18.18s-13.16,10.8-18.18,8-5-11,0-18.18L9.65,16.75c-6.83,9.82-6.83,20.89,0,24.73s17.9-1,24.73-10.85,6.83-20.89,0-24.73l2.8-4Z"/><path class="cls-3" d="M24.15,4.1l3.49,11.5,3.46-5c5,2.82,5,11,0,18.18s-13.16,10.8-18.18,8-5-11,0-18.18L9.65,16.75c-6.83,9.82-6.83,20.89,0,24.73s17.9-1,24.73-10.85,6.83-20.89,0-24.73l2.8-4Z"/><path class="cls-2" d="M12.92,36.77c-5-2.82-5-11,0-18.19L9.65,16.75c-6.83,9.82-6.83,20.89,0,24.73"/><path class="cls-3" d="M12.92,36.77c-5-2.82-5-11,0-18.19L9.65,16.75c-6.83,9.82-6.83,20.89,0,24.73"/><path class="cls-2" d="M12.92,36.77c-5-2.82-5-11,0-18.19L9.65,16.75c-6.83,9.82-6.83,20.89,0,24.73"/><path class="cls-3" d="M12.92,36.77c-5-2.82-5-11,0-18.19L9.65,16.75c-6.83,9.82-6.83,20.89,0,24.73"/><path class="cls-4" d="M21.15,2.47,24.64,14,28.1,9c5,2.82,5,11,0,18.18S14.94,38,9.92,35.14s-5-11,0-18.18L6.65,15.12C-.18,25-.18,36,6.65,39.85s17.9-1,24.73-10.84,6.83-20.9,0-24.73l2.8-4Z"/><path class="cls-3" d="M21.15,2.47,24.64,14,28.1,9c5,2.82,5,11,0,18.18S14.94,38,9.92,35.14s-5-11,0-18.18L6.65,15.12C-.18,25-.18,36,6.65,39.85s17.9-1,24.73-10.84,6.83-20.9,0-24.73l2.8-4Z"/><path class="cls-2" d="M24.15,4.1l3.49,11.5,3.46-5c5,2.82,5,11,0,18.18s-13.16,10.8-18.18,8-5-11,0-18.18L9.65,16.75c-6.83,9.82-6.83,20.89,0,24.73s17.9-1,24.73-10.85,6.83-20.89,0-24.73l2.8-4Z"/><path class="cls-3" d="M24.15,4.1l3.49,11.5,3.46-5c5,2.82,5,11,0,18.18s-13.16,10.8-18.18,8-5-11,0-18.18L9.65,16.75c-6.83,9.82-6.83,20.89,0,24.73s17.9-1,24.73-10.85,6.83-20.89,0-24.73l2.8-4Z"/><path class="cls-2" d="M12.92,36.77c-5-2.82-5-11,0-18.19L9.65,16.75c-6.83,9.82-6.83,20.89,0,24.73"/><path class="cls-3" d="M12.92,36.77c-5-2.82-5-11,0-18.19L9.65,16.75c-6.83,9.82-6.83,20.89,0,24.73"/><path class="cls-2" d="M12.92,36.77c-5-2.82-5-11,0-18.19L9.65,16.75c-6.83,9.82-6.83,20.89,0,24.73"/><path class="cls-3" d="M12.92,36.77c-5-2.82-5-11,0-18.19L9.65,16.75c-6.83,9.82-6.83,20.89,0,24.73"/><polygon class="cls-5" points="0.42 29.25 23.05 37.55 23.05 32.41 0.42 24.11 0.42 29.25"/><polygon class="cls-6" points="0.42 29.25 23.05 37.55 23.05 32.41 0.42 24.11 0.42 29.25"/><polygon class="cls-4" points="45.68 29.25 23.05 37.55 23.05 32.41 45.68 24.11 45.68 29.25"/><polygon class="cls-6" points="45.68 29.25 23.05 37.55 23.05 32.41 45.68 24.11 45.68 29.25"/><polygon class="cls-7" points="23.05 32.41 0.42 24.11 23.05 15.81 45.68 24.11 23.05 32.41"/><polygon class="cls-6" points="23.05 32.41 0.42 24.11 23.05 15.81 45.68 24.11 23.05 32.41"/><path class="cls-8" d="M27.08,33.61a2,2,0,0,1-1.31,1.73.91.91,0,0,1-1.31-.88,2,2,0,0,1,1.31-1.73.91.91,0,0,1,1.31.88"/><path class="cls-8" d="M30.81,32.23A2,2,0,0,1,29.5,34a.92.92,0,0,1-1.31-.88,2,2,0,0,1,1.31-1.74.92.92,0,0,1,1.31.88"/><path class="cls-4" d="M9.92,35.14c-5-2.82-5-11,0-18.18L6.65,15.12C-.18,25-.18,36,6.65,39.85"/><path class="cls-3" d="M9.92,35.14c-5-2.82-5-11,0-18.18L6.65,15.12C-.18,25-.18,36,6.65,39.85"/><path class="cls-2" d="M12.92,36.77c-5-2.82-5-11,0-18.19L9.65,16.75c-6.83,9.82-6.83,20.89,0,24.73"/><path class="cls-3" d="M12.92,36.77c-5-2.82-5-11,0-18.19L9.65,16.75c-6.83,9.82-6.83,20.89,0,24.73"/><polygon class="cls-9" points="27.64 15.6 24.64 13.97 21.15 2.47 24.15 4.1 27.64 15.6"/><polygon class="cls-3" points="27.64 15.6 24.64 13.97 21.15 2.47 24.15 4.1 27.64 15.6"/><polygon class="cls-4" points="21.15 2.47 24.15 4.1 37.18 1.87 34.18 0.25 21.15 2.47"/><polygon class="cls-3" points="21.15 2.47 24.15 4.1 37.18 1.87 34.18 0.25 21.15 2.47"/></g></g></svg>