<svg xmlns="http://www.w3.org/2000/svg" viewBox="0 0 46.26 49.92"><defs><style>.cls-1{fill:#ebebeb;}.cls-2{fill:#deeaff;}.cls-3,.cls-8{fill:none;stroke-linejoin:round;stroke-width:0.5px;}.cls-3{stroke:#304d9d;}.cls-4{fill:#fff;}.cls-5{fill:#98b9ea;}.cls-6{fill:#b6cd5b;}.cls-7{fill:#dfeab0;}.cls-8{stroke:#b6cd5b;}.cls-9{fill:#c4d36c;}</style></defs><title>system</title><g id="Layer_2" data-name="Layer 2"><g id="Layer_1-2" data-name="Layer 1"><polygon class="cls-1" points="23.13 49.92 0 41.44 23.13 32.95 46.26 41.44 23.13 49.92"/><polygon class="cls-2" points="2.6 38.93 23.38 46.55 23.38 41.83 2.6 34.21 2.6 38.93"/><polygon class="cls-3" points="2.6 38.93 23.38 46.55 23.38 41.83 2.6 34.21 2.6 38.93"/><polygon class="cls-4" points="44.16 38.93 23.38 46.55 23.38 41.83 44.16 34.21 44.16 38.93"/><polygon class="cls-3" points="44.16 38.93 23.38 46.55 23.38 41.83 44.16 34.21 44.16 38.93"/><polygon class="cls-5" points="23.38 41.83 2.6 34.21 23.38 26.59 44.16 34.21 23.38 41.83"/><polygon class="cls-3" points="23.38 41.83 2.6 34.21 23.38 26.59 44.16 34.21 23.38 41.83"/><path class="cls-6" d="M27.08,42.93a1.79,1.79,0,0,1-1.2,1.59.84.84,0,0,1-1.2-.81,1.82,1.82,0,0,1,1.2-1.59.84.84,0,0,1,1.2.81"/><path class="cls-6" d="M30.51,41.66a1.82,1.82,0,0,1-1.2,1.6.84.84,0,0,1-1.2-.81,1.79,1.79,0,0,1,1.2-1.59.84.84,0,0,1,1.2.8"/><polygon class="cls-2" points="2.94 32.15 11.06 35.13 11.06 29.73 2.94 26.75 2.94 32.15"/><polygon class="cls-3" points="2.94 32.15 11.06 35.13 11.06 29.73 2.94 26.75 2.94 32.15"/><polygon class="cls-4" points="19.17 32.25 11.06 35.13 11.06 29.73 19.17 26.85 19.17 32.25"/><polygon class="cls-3" points="19.17 32.25 11.06 35.13 11.06 29.73 19.17 26.85 19.17 32.25"/><polygon class="cls-5" points="11.06 29.73 2.94 26.75 11.06 23.86 19.17 26.85 11.06 29.73"/><polygon class="cls-3" points="11.06 29.73 2.94 26.75 11.06 23.86 19.17 26.85 11.06 29.73"/><polygon class="cls-2" points="27.59 32.53 35.71 35.52 35.71 30.12 27.59 27.14 27.59 32.53"/><polygon class="cls-3" points="27.59 32.53 35.71 35.52 35.71 30.12 27.59 27.14 27.59 32.53"/><polygon class="cls-4" points="43.83 32.63 35.71 35.52 35.71 30.12 43.83 27.24 43.83 32.63"/><polygon class="cls-3" points="43.83 32.63 35.71 35.52 35.71 30.12 43.83 27.24 43.83 32.63"/><polygon class="cls-5" points="35.71 30.12 27.59 27.14 35.71 24.25 43.83 27.24 35.71 30.12"/><polygon class="cls-3" points="35.71 30.12 27.59 27.14 35.71 24.25 43.83 27.24 35.71 30.12"/><polygon class="cls-2" points="15.27 36.84 23.38 39.82 23.38 34.43 15.27 31.44 15.27 36.84"/><polygon class="cls-3" points="15.27 36.84 23.38 39.82 23.38 34.43 15.27 31.44 15.27 36.84"/><polygon class="cls-4" points="31.5 36.94 23.38 39.82 23.38 34.42 31.5 31.54 31.5 36.94"/><polygon class="cls-3" points="31.5 36.94 23.38 39.82 23.38 34.42 31.5 31.54 31.5 36.94"/><polygon class="cls-5" points="23.38 34.42 15.27 31.44 23.38 28.55 31.5 31.54 23.38 34.42"/><polygon class="cls-3" points="23.38 34.42 15.27 31.44 23.38 28.55 31.5 31.54 23.38 34.42"/><polygon class="cls-2" points="2.6 24.4 23.38 32.02 23.38 27.3 2.6 19.68 2.6 24.4"/><polygon class="cls-3" points="2.6 24.4 23.38 32.02 23.38 27.3 2.6 19.68 2.6 24.4"/><polygon class="cls-4" points="44.16 24.4 23.38 32.02 23.38 27.3 44.16 19.68 44.16 24.4"/><polygon class="cls-3" points="44.16 24.4 23.38 32.02 23.38 27.3 44.16 19.68 44.16 24.4"/><polygon class="cls-5" points="23.38 27.3 2.6 19.68 23.38 12.06 44.16 19.68 23.38 27.3"/><polygon class="cls-3" points="23.38 27.3 2.6 19.68 23.38 12.06 44.16 19.68 23.38 27.3"/><path class="cls-6" d="M27.08,28.4A1.79,1.79,0,0,1,25.88,30a.84.84,0,0,1-1.2-.8,1.82,1.82,0,0,1,1.2-1.6.84.84,0,0,1,1.2.81"/><path class="cls-6" d="M30.51,27.13a1.82,1.82,0,0,1-1.2,1.6.84.84,0,0,1-1.2-.81,1.79,1.79,0,0,1,1.2-1.59.84.84,0,0,1,1.2.8"/><path class="cls-6" d="M27.08,35.91a1.81,1.81,0,0,1-1.2,1.6.84.84,0,0,1-1.2-.81,1.81,1.81,0,0,1,1.2-1.59.83.83,0,0,1,1.2.8"/><path class="cls-6" d="M39.43,31.62a1.82,1.82,0,0,1-1.21,1.6.84.84,0,0,1-1.2-.81,1.81,1.81,0,0,1,1.2-1.59.84.84,0,0,1,1.21.8"/><path class="cls-7" d="M39.63,6.67,23.63.82A7.56,7.56,0,0,0,18.44.63a11.45,11.45,0,0,0-6.61,8.1,5.14,5.14,0,0,0-4.22,0C4.53,10,2.83,14.22,2.83,17.29l16.28,6"/><path class="cls-8" d="M39.63,6.67,23.63.82A7.56,7.56,0,0,0,18.44.63a11.45,11.45,0,0,0-6.61,8.1,5.14,5.14,0,0,0-4.22,0C4.53,10,2.83,14.22,2.83,17.29l16.28,6"/><path class="cls-9" d="M34,17.73,44,14c0-5-4.15-9.31-9.27-7.41a11.45,11.45,0,0,0-6.61,8.1,5.14,5.14,0,0,0-4.22,0c-3.08,1.28-4.78,5.47-4.78,8.54l5.53-2.05Z"/><path class="cls-8" d="M34,17.73,44,14c0-5-4.15-9.31-9.27-7.41a11.45,11.45,0,0,0-6.61,8.1,5.14,5.14,0,0,0-4.22,0c-3.08,1.28-4.78,5.47-4.78,8.54l5.53-2.05Z"/><line class="cls-7" x1="11.83" y1="8.73" x2="28.11" y2="14.71"/><line class="cls-8" x1="11.83" y1="8.73" x2="28.11" y2="14.71"/></g></g></svg>