<svg xmlns="http://www.w3.org/2000/svg" viewBox="0 0 47.21 45.46"><defs><style>.cls-1{fill:#ebebeb;}.cls-2{fill:#fff;}.cls-3,.cls-8{fill:none;stroke-linejoin:round;stroke-width:0.5px;}.cls-3{stroke:#304d9d;}.cls-4{fill:#98b9ea;}.cls-5{fill:#deeaff;}.cls-6{fill:#304d9d;}.cls-7{fill:#c4d36c;}.cls-8{stroke:#b6cd5b;}.cls-9{fill:#dfeab0;}.cls-10{fill:#b6cd5b;}</style></defs><title>unified_comments</title><g id="Layer_2" data-name="Layer 2"><g id="Layer_1-2" data-name="Layer 1"><polygon class="cls-1" points="23.13 45.46 0 36.98 23.13 28.5 46.26 36.98 23.13 45.46"/><polygon class="cls-2" points="29.77 1.8 25.7 0.25 0.54 10.04 4.62 11.6 29.77 1.8"/><polygon class="cls-3" points="29.77 1.8 25.7 0.25 0.54 10.04 4.62 11.6 29.77 1.8"/><polygon class="cls-4" points="4.31 28.4 4.31 33.19 8.37 26.85 29.76 18.68 29.76 1.88 4.31 11.6 4.31 28.4"/><polyline class="cls-3" points="4.31 28.4 4.31 33.19 8.37 26.85 29.76 18.68 29.76 1.88 4.31 11.6 4.31 28.4"/><polyline class="cls-5" points="4.31 28.4 4.31 11.6 0.42 10.04 0.42 26.84 0.42 31.39 4.31 33.19 4.31 28.34"/><polyline class="cls-3" points="4.31 28.4 4.31 11.6 0.42 10.04 0.42 26.84 0.42 31.39 4.31 33.19 4.31 28.34"/><path class="cls-6" d="M13.48,16.08a3.63,3.63,0,0,1-2.22,3.09C10,19.65,9,19.05,9,17.82a3.63,3.63,0,0,1,2.22-3.09c1.23-.48,2.22.12,2.22,1.35"/><path class="cls-6" d="M20.46,13.36a3.63,3.63,0,0,1-2.22,3.09C17,16.93,16,16.33,16,15.1A3.63,3.63,0,0,1,18.24,12c1.23-.48,2.22.12,2.22,1.35"/><path class="cls-6" d="M27,11a3.65,3.65,0,0,1-2.22,3.1c-1.23.47-2.22-.13-2.22-1.36a3.63,3.63,0,0,1,2.22-3.09C26,9.14,27,9.74,27,11"/><polygon class="cls-7" points="24.01 33.76 20.3 32.35 20.3 17.87 24.01 19.29 24.01 33.76"/><polygon class="cls-8" points="24.01 33.76 20.3 32.35 20.3 17.87 24.01 19.29 24.01 33.76"/><polygon class="cls-9" points="46.94 25 46.94 29.03 44.05 26.11 24.01 33.76 24.01 19.29 46.94 10.53 46.94 25"/><polyline class="cls-8" points="46.94 25 46.94 29.03 44.05 26.11 24.01 33.76 24.01 19.29 46.94 10.53 46.94 25"/><polygon class="cls-2" points="46.96 10.53 43.25 9.12 20.3 17.87 24.01 19.29 46.96 10.53"/><polygon class="cls-8" points="46.96 10.53 43.25 9.12 20.3 17.87 24.01 19.29 46.96 10.53"/><path class="cls-10" d="M31.72,23.87a3.19,3.19,0,0,1-1.95,2.72c-1.08.42-2-.11-2-1.19a3.2,3.2,0,0,1,2-2.72c1.08-.43,1.95.11,1.95,1.19"/><path class="cls-10" d="M37.87,21.47a3.23,3.23,0,0,1-2,2.73C34.83,24.62,34,24.08,34,23a3.19,3.19,0,0,1,1.95-2.72c1.08-.42,2,.11,2,1.19"/><path class="cls-10" d="M43.65,19.37a3.2,3.2,0,0,1-2,2.72c-1.08.43-1.95-.11-1.95-1.19a3.19,3.19,0,0,1,1.95-2.72c1.08-.42,2,.11,2,1.19"/></g></g></svg>