<svg xmlns="http://www.w3.org/2000/svg" viewBox="0 0 46.26 49.75"><defs><style>.cls-1{fill:#ebebeb;}.cls-2{fill:#deeaff;}.cls-3{fill:none;stroke:#304d9d;stroke-linejoin:round;stroke-width:0.5px;}.cls-4{fill:#98b9ea;}.cls-5{fill:#fff;}.cls-6{fill:#c4d36c;}.cls-7{fill:#dfeab0;}</style></defs><title>virtual_applications</title><g id="Layer_2" data-name="Layer 2"><g id="Layer_1-2" data-name="Layer 1"><polygon class="cls-1" points="23.13 49.75 0 41.27 23.13 32.79 46.26 41.27 23.13 49.75"/><path class="cls-2" d="M38.87,28.78,23.34,23.1a7.35,7.35,0,0,0-5-.18,11.12,11.12,0,0,0-6.43,7.87,4.92,4.92,0,0,0-4.09,0C4.8,32,3.15,36.12,3.15,39.1L19,44.9"/><path class="cls-3" d="M38.87,28.78,23.34,23.1a7.35,7.35,0,0,0-5-.18,11.12,11.12,0,0,0-6.43,7.87,4.92,4.92,0,0,0-4.09,0C4.8,32,3.15,36.12,3.15,39.1L19,44.9"/><path class="cls-4" d="M33.42,39.52l9.69-3.6c0-4.88-4-9-9-7.19a11.11,11.11,0,0,0-6.42,7.86,5,5,0,0,0-4.09,0C20.6,37.85,19,41.92,19,44.9l5.37-2Z"/><path class="cls-3" d="M33.42,39.52l9.69-3.6c0-4.88-4-9-9-7.19a11.11,11.11,0,0,0-6.42,7.86,5,5,0,0,0-4.09,0C20.6,37.85,19,41.92,19,44.9l5.37-2Z"/><line class="cls-2" x1="11.88" y1="30.79" x2="27.69" y2="36.59"/><line class="cls-3" x1="11.88" y1="30.79" x2="27.69" y2="36.59"/><polygon class="cls-2" points="10.93 32.89 9.09 32.19 9.09 14.05 10.93 14.75 10.93 32.89"/><polygon class="cls-3" points="10.93 32.89 9.09 32.19 9.09 14.05 10.93 14.75 10.93 32.89"/><polygon class="cls-4" points="37.17 4.34 35.33 3.63 9.09 14.05 10.93 14.75 37.17 4.34"/><polygon class="cls-3" points="37.17 4.34 35.33 3.63 9.09 14.05 10.93 14.75 37.17 4.34"/><polygon class="cls-5" points="10.93 32.89 37.16 22.47 37.16 4.33 10.93 14.75 10.93 32.89"/><polygon class="cls-3" points="10.93 32.89 37.16 22.47 37.16 4.33 10.93 14.75 10.93 32.89"/><polygon class="cls-6" points="13.81 25.15 27.96 19.53 27.96 10.67 13.81 16.29 13.81 25.15"/><polygon class="cls-7" points="25.34 24.2 34.25 20.66 34.25 13.76 25.34 17.3 25.34 24.2"/><polygon class="cls-2" points="10.93 13.76 9.09 13.06 9.09 10.67 10.93 11.37 10.93 13.76"/><polygon class="cls-3" points="10.93 13.76 9.09 13.06 9.09 10.67 10.93 11.37 10.93 13.76"/><polygon class="cls-4" points="37.17 0.95 35.33 0.25 9.09 10.67 10.93 11.37 37.17 0.95"/><polygon class="cls-3" points="37.17 0.95 35.33 0.25 9.09 10.67 10.93 11.37 37.17 0.95"/><polygon class="cls-5" points="10.93 13.76 37.16 3.34 37.16 0.95 10.93 11.37 10.93 13.76"/><polygon class="cls-3" points="10.93 13.76 37.16 3.34 37.16 0.95 10.93 11.37 10.93 13.76"/></g></g></svg>