<svg xmlns="http://www.w3.org/2000/svg" xmlns:xlink="http://www.w3.org/1999/xlink" viewBox="0 0 49.26 48.84"><defs><style>.cls-1,.cls-10,.cls-12,.cls-7{fill:none;}.cls-2{isolation:isolate;}.cls-3{mix-blend-mode:multiply;}.cls-4{clip-path:url(#clip-path);}.cls-5{fill:#ebebeb;}.cls-6{fill:#fff;}.cls-12,.cls-7{stroke:#b6cd5b;}.cls-10,.cls-7{stroke-linejoin:round;stroke-width:0.5px;}.cls-8{fill:#dfeab0;}.cls-9{fill:#deeaff;}.cls-10{stroke:#304d9d;}.cls-11{fill:#98b9ea;}.cls-12{stroke-miterlimit:10;}.cls-13{fill:#b6cd5b;}</style><clipPath id="clip-path"><rect class="cls-1" x="1.24" y="31.25" width="47.95" height="17.58"/></clipPath></defs><title>virtualization_and_cloud</title><g class="cls-2"><g id="Layer_2" data-name="Layer 2"><g id="Layer_1-2" data-name="Layer 1"><g class="cls-3"><g class="cls-4"><polygon class="cls-5" points="25.21 48.84 1.24 40.04 25.21 31.25 49.19 40.04 25.21 48.84"/></g></g><path class="cls-6" d="M26.29,42.85,22.36,41.2a.85.85,0,0,1-.37-.76v-13a2,2,0,0,1,1.28-1.76L43.43,18.1a1,1,0,0,1,1,.08l4,1.36"/><path class="cls-7" d="M26.29,42.85,22.36,41.2a.85.85,0,0,1-.37-.76v-13a2,2,0,0,1,1.28-1.76L43.43,18.1a1,1,0,0,1,1,.08l4,1.36"/><path class="cls-8" d="M49,20.42v13a2.06,2.06,0,0,1-1.28,1.76L27.57,42.76c-.71.27-1.28-.09-1.28-.79V29a2.06,2.06,0,0,1,1.28-1.76l20.16-7.57c.71-.26,1.28.1,1.28.8"/><path class="cls-7" d="M49,20.42v13a2.06,2.06,0,0,1-1.28,1.76L27.57,42.76c-.71.27-1.28-.09-1.28-.79V29a2.06,2.06,0,0,1,1.28-1.76l20.16-7.57C48.44,19.36,49,19.72,49,20.42Z"/><path class="cls-9" d="M35.56,3.84,29.81,1.16A9.05,9.05,0,0,0,22.45.9C17.9,2.59,14.21,7.28,13,12.42a7.24,7.24,0,0,0-6,0C2.67,14.26.25,20.23.25,24.59l6.14,2.86"/><path class="cls-10" d="M35.56,3.84,29.81,1.16A9.05,9.05,0,0,0,22.45.9C17.9,2.59,14.21,7.28,13,12.42a7.24,7.24,0,0,0-6,0C2.67,14.26.25,20.23.25,24.59l6.14,2.86"/><path class="cls-11" d="M27.57,19.58,41.76,14.3c0-7.14-5.9-13.24-13.18-10.53-4.54,1.69-8.23,6.38-9.4,11.51a7.27,7.27,0,0,0-6,0c-4.38,1.81-6.8,7.78-6.8,12.14l7.85-2.92Z"/><path class="cls-10" d="M27.57,19.58,41.76,14.3c0-7.14-5.9-13.24-13.18-10.53-4.54,1.69-8.23,6.38-9.4,11.51a7.27,7.27,0,0,0-6,0c-4.38,1.81-6.8,7.78-6.8,12.14l7.85-2.92Z"/><path class="cls-6" d="M37.29,33.71l5-1.85c0-2.51-2.07-4.65-4.63-3.7a5.71,5.71,0,0,0-3.3,4,2.55,2.55,0,0,0-2.1,0c-1.54.64-2.39,2.73-2.39,4.26l2.76-1Z"/><path class="cls-12" d="M37.29,33.71l5-1.85c0-2.51-2.07-4.65-4.63-3.7a5.71,5.71,0,0,0-3.3,4,2.55,2.55,0,0,0-2.1,0c-1.54.64-2.39,2.73-2.39,4.26l2.76-1Z"/><path class="cls-13" d="M47.05,27.77a2,2,0,0,1-1.34,1.77.94.94,0,0,1-1.34-.9,2,2,0,0,1,1.34-1.77.93.93,0,0,1,1.34.9"/></g></g></g></svg>