<svg xmlns="http://www.w3.org/2000/svg" viewBox="0 0 48.35 49.98"><defs><style>.cls-1{fill:#deeaff;}.cls-2,.cls-7,.cls-9{fill:none;stroke-linejoin:round;stroke-width:0.5px;}.cls-2,.cls-9{stroke:#304d9d;}.cls-3{fill:#98b9ea;}.cls-4{fill:#fff;}.cls-5{fill:#ebebeb;}.cls-6{fill:#dfeab0;}.cls-7{stroke:#b6cd5b;}.cls-8{fill:#c4d36c;}.cls-9{stroke-linecap:round;}</style></defs><title>Vm_1</title><g id="Layer_2" data-name="Layer 2"><g id="Layer_1-2" data-name="Layer 1"><polygon class="cls-1" points="2.35 39.8 0.25 39 0.25 16.01 2.35 16.81 2.35 39.8"/><polygon class="cls-2" points="2.35 39.8 0.25 39 0.25 16.01 2.35 16.81 2.35 39.8"/><polygon class="cls-3" points="32.31 4.92 30.21 4.11 0.25 16.01 2.35 16.81 32.31 4.92"/><polygon class="cls-2" points="32.31 4.92 30.21 4.11 0.25 16.01 2.35 16.81 32.31 4.92"/><polygon class="cls-4" points="2.35 39.8 32.3 27.9 32.3 4.91 2.35 16.81 2.35 39.8"/><polygon class="cls-2" points="2.35 39.8 32.3 27.9 32.3 4.91 2.35 16.81 2.35 39.8"/><polygon class="cls-3" points="5.65 30.97 21.8 24.55 21.8 12.14 5.65 18.56 5.65 30.97"/><polygon class="cls-1" points="18.8 29.88 28.98 25.83 28.98 15.68 18.8 19.72 18.8 29.88"/><polygon class="cls-1" points="2.35 15.68 0.25 14.88 0.25 12.14 2.35 12.95 2.35 15.68"/><polygon class="cls-2" points="2.35 15.68 0.25 14.88 0.25 12.14 2.35 12.95 2.35 15.68"/><polygon class="cls-5" points="24.11 49.98 0.98 41.5 24.11 33.01 47.24 41.5 24.11 49.98"/><polygon class="cls-3" points="32.31 1.05 30.21 0.25 0.25 12.14 2.35 12.95 32.31 1.05"/><polygon class="cls-2" points="32.31 1.05 30.21 0.25 0.25 12.14 2.35 12.95 32.31 1.05"/><polygon class="cls-4" points="2.35 15.68 32.3 3.78 32.3 1.05 2.35 12.95 2.35 15.68"/><polygon class="cls-2" points="2.35 15.68 32.3 3.78 32.3 1.05 2.35 12.95 2.35 15.68"/><polygon class="cls-6" points="21.4 44.95 9.88 40.46 13.36 33.35 19.2 35.53 21.4 44.95"/><polygon class="cls-7" points="21.4 44.95 9.88 40.46 13.36 33.35 19.2 35.53 21.4 44.95"/><polygon class="cls-4" points="45.93 25.33 40.09 23.15 13.36 33.35 19.2 35.53 45.93 25.33"/><polygon class="cls-7" points="45.93 25.33 40.09 23.15 13.36 33.35 19.2 35.53 45.93 25.33"/><polygon class="cls-8" points="21.4 44.95 48.1 34.75 45.9 25.32 19.2 35.53 21.4 44.95"/><polygon class="cls-7" points="21.4 44.95 48.1 34.75 45.9 25.32 19.2 35.53 21.4 44.95"/><polyline class="cls-9" points="29.3 34.93 25.6 40.03 21.9 37.73"/><polyline class="cls-9" points="45.4 32.54 41.7 30.24 38 35.34 34.29 33.04 30.59 38.15"/></g></g></svg>