<svg xmlns="http://www.w3.org/2000/svg" viewBox="0 0 46.57 49.65"><defs><style>.cls-1{fill:#ebebeb;}.cls-2{fill:#dfeab0;}.cls-3,.cls-6,.cls-8{fill:none;stroke-linejoin:round;stroke-width:0.5px;}.cls-3{stroke:#b6cd5b;}.cls-4{fill:#fff;}.cls-5{fill:#c4d36c;}.cls-6,.cls-8{stroke:#304d9d;}.cls-6{stroke-linecap:round;}.cls-7{fill:#deeaff;}.cls-9{fill:#98b9ea;}</style></defs><title>VM_Database</title><g id="Layer_2" data-name="Layer 2"><g id="Layer_1-2" data-name="Layer 1"><polygon class="cls-1" points="23.44 49.65 0.32 41.17 23.44 32.68 46.57 41.17 23.44 49.65"/><polygon class="cls-2" points="25.23 44.69 0.25 35.27 2.94 29.79 23.54 37.42 25.23 44.69"/><polygon class="cls-3" points="25.23 44.69 0.25 35.27 2.94 29.79 23.54 37.42 25.23 44.69"/><polygon class="cls-4" points="44.14 29.57 23.54 21.93 2.94 29.79 23.54 37.42 44.14 29.57"/><polygon class="cls-3" points="44.14 29.57 23.54 21.93 2.94 29.79 23.54 37.42 44.14 29.57"/><polygon class="cls-5" points="25.23 44.69 45.82 36.82 44.12 29.56 23.54 37.42 25.23 44.69"/><polygon class="cls-3" points="25.23 44.69 45.82 36.82 44.12 29.56 23.54 37.42 25.23 44.69"/><polyline class="cls-6" points="31.33 36.96 28.47 40.9 25.62 39.12"/><polyline class="cls-6" points="43.74 35.12 40.88 33.35 38.03 37.28 35.17 35.51 32.32 39.44"/><polygon class="cls-7" points="25.23 33.79 0.25 24.38 2.94 18.9 23.54 26.53 25.23 33.79"/><polygon class="cls-8" points="25.23 33.79 0.25 24.38 2.94 18.9 23.54 26.53 25.23 33.79"/><polygon class="cls-4" points="44.14 18.67 23.54 11.04 2.94 18.9 23.54 26.53 44.14 18.67"/><polygon class="cls-8" points="44.14 18.67 23.54 11.04 2.94 18.9 23.54 26.53 44.14 18.67"/><polygon class="cls-9" points="25.23 33.79 45.82 25.93 44.12 18.67 23.54 26.53 25.23 33.79"/><polygon class="cls-8" points="25.23 33.79 45.82 25.93 44.12 18.67 23.54 26.53 25.23 33.79"/><polyline class="cls-6" points="31.33 26.07 28.47 30 25.62 28.23"/><polyline class="cls-6" points="43.74 24.23 40.88 22.45 38.03 26.39 35.17 24.61 32.32 28.55"/><polygon class="cls-2" points="25.23 23 0.25 13.59 2.94 8.11 23.54 15.74 25.23 23"/><polygon class="cls-3" points="25.23 23 0.25 13.59 2.94 8.11 23.54 15.74 25.23 23"/><polygon class="cls-4" points="44.14 7.88 23.54 0.25 2.94 8.11 23.54 15.74 44.14 7.88"/><polygon class="cls-3" points="44.14 7.88 23.54 0.25 2.94 8.11 23.54 15.74 44.14 7.88"/><polygon class="cls-5" points="25.23 23 45.82 15.14 44.12 7.88 23.54 15.74 25.23 23"/><polygon class="cls-3" points="25.23 23 45.82 15.14 44.12 7.88 23.54 15.74 25.23 23"/><polyline class="cls-6" points="31.33 15.28 28.47 19.21 25.62 17.44"/><polyline class="cls-6" points="43.74 13.44 40.88 11.67 38.03 15.6 35.17 13.83 32.32 17.76"/></g></g></svg>