<svg xmlns="http://www.w3.org/2000/svg" width="58" height="44.43" viewBox="0 0 58 44.43"><defs><style>.cls-1{fill:#f2f4f6;}.cls-2{fill:#d5dae0;}.cls-3{fill:none;}.cls-3,.cls-4{stroke:#627386;stroke-linecap:round;stroke-linejoin:round;stroke-width:2px;}.cls-4{fill:#fff;}</style></defs><title>bolt_01</title><g id="Layer_2" data-name="Layer 2"><g id="Layer_3" data-name="Layer 3"><path class="cls-1" d="M46.31,15.42,45,14.12a6.93,6.93,0,0,0-4.76-1.58H17.75A6.93,6.93,0,0,0,13,14.12l-1.3,1.3H1V29a2.26,2.26,0,0,0,.74,1.59L13,41.84a6.93,6.93,0,0,0,4.76,1.59h22.5A6.93,6.93,0,0,0,45,41.84L56.26,30.59A2.26,2.26,0,0,0,57,29V15.42Z"/><path class="cls-2" d="M45,14.12a6.93,6.93,0,0,0-4.76-1.58H17.75a9.16,9.16,0,0,0-2.21.27V43.16a9.16,9.16,0,0,0,2.21.27h22.5A6.93,6.93,0,0,0,45,41.84L56.26,30.59A2.26,2.26,0,0,0,57,29V15.42H46.31Z"/><path class="cls-3" d="M46.31,15.42,45,14.12a6.93,6.93,0,0,0-4.76-1.58H17.75A6.93,6.93,0,0,0,13,14.12l-1.3,1.3H1V29a2.26,2.26,0,0,0,.74,1.59L13,41.84a6.93,6.93,0,0,0,4.76,1.59h22.5A6.93,6.93,0,0,0,45,41.84L56.26,30.59A2.26,2.26,0,0,0,57,29V15.42Z"/><path class="cls-4" d="M13,28.26,1.74,17a2.06,2.06,0,0,1,0-3.17L13,2.58A6.93,6.93,0,0,1,17.75,1h22.5A6.93,6.93,0,0,1,45,2.58L56.26,13.84a2.06,2.06,0,0,1,0,3.17L45,28.26a6.88,6.88,0,0,1-4.76,1.59H17.75A6.88,6.88,0,0,1,13,28.26Z"/><ellipse class="cls-2" cx="29" cy="15.42" rx="11.77" ry="6.8"/><path class="cls-1" d="M40.77,15.42c0-3.75-5.27-6.79-11.77-6.79V22.22C35.5,22.22,40.77,19.18,40.77,15.42Z"/><ellipse class="cls-3" cx="29" cy="15.42" rx="11.77" ry="6.8"/></g></g></svg>