<svg xmlns="http://www.w3.org/2000/svg" width="84.1" height="64.08" viewBox="0 0 84.1 64.08"><defs><style>.cls-1{fill:#f2f4f6;}.cls-2,.cls-3{fill:#d5dae0;}.cls-2,.cls-4,.cls-5{stroke:#627386;stroke-linecap:round;stroke-linejoin:round;stroke-width:2px;}.cls-4{fill:none;}.cls-5{fill:#fff;}</style></defs><title>cog_02</title><g id="Layer_2" data-name="Layer 2"><g id="Layer_2-2" data-name="Layer 2"><path class="cls-1" d="M68.74,25.73a3.26,3.26,0,0,0-1-.54l-10.3-3.43a4.82,4.82,0,0,0-4.48.69l-1.8,1.81L31.3,22.6l-.14-.15a4.84,4.84,0,0,0-4.49-.69l-1.07.36L1,20.06V37.15H1V44c0,1,1.47,1.89,3.28,1.89h9a14.48,14.48,0,0,0,1.49,2.17v9.67h0c0,.65.58,1.29,1.63,1.64l10.3,3.43a4.78,4.78,0,0,0,4.49-.69l4.48-4.48a51.88,51.88,0,0,0,12.82,0l4.48,4.48a4.76,4.76,0,0,0,4.48.69l10.3-3.43c1.06-.35,1.64-1,1.64-1.64h0V48.08a14.21,14.21,0,0,0,1.49-2.17h9c1.81,0,3.28-.85,3.28-1.89V26.93Z"/><path class="cls-2" d="M67.72,25.19l-4.61-1.53V50h6.25V48.08a14.21,14.21,0,0,0,1.49-2.17h9c1.81,0,3.28-.85,3.28-1.89V26.93l-14.36-1.2A3.26,3.26,0,0,0,67.72,25.19Z"/><path class="cls-3" d="M13.24,23.5H1V37.15H1V44c0,1,1.47,1.89,3.28,1.89h9Z"/><path class="cls-1" d="M56.86,34.94V63a4.65,4.65,0,0,1-3.92-.84l-4.48-4.48V34.94Z"/><path class="cls-3" d="M56.86,63a5.12,5.12,0,0,0,.56-.15l10.3-3.43c1.06-.35,1.64-1,1.64-1.64h0V48.08h0V40.44H56.86Z"/><path class="cls-3" d="M27.24,34.94V63a4.65,4.65,0,0,0,3.92-.84l4.48-4.48V34.94Z"/><path class="cls-2" d="M48.46,33.38H35.64V57.65a51.88,51.88,0,0,0,12.82,0h0Z"/><polyline class="cls-2" points="69.36 25.13 69.36 6.33 42.16 7.06 14.73 6.33 14.73 25.13"/><line class="cls-4" x1="14.73" y1="48.08" x2="14.73" y2="40.44"/><line class="cls-4" x1="69.36" y1="48.08" x2="69.36" y2="40.44"/><path class="cls-5" d="M79.82,18.17h-9a15.48,15.48,0,0,0-2.62-3.41,22.51,22.51,0,0,0-3.79-3l4.47-4.47c.91-.91.37-2.07-1.2-2.59L57.42,1.25a4.79,4.79,0,0,0-4.48.7L48.46,6.43a52,52,0,0,0-12.83,0L31.16,2a4.81,4.81,0,0,0-4.49-.7L16.37,4.69c-1.57.52-2.1,1.68-1.2,2.59l4.48,4.47a18.49,18.49,0,0,0-6.41,6.42h-9C2.47,18.17,1,19,1,20.06v6.87c0,1,1.47,1.89,3.28,1.89h9a15.42,15.42,0,0,0,2.61,3.41,22.59,22.59,0,0,0,3.8,3l-4.48,4.47c-.9.91-.37,2.07,1.2,2.59l10.3,3.44a4.81,4.81,0,0,0,4.49-.7l4.48-4.48a51.88,51.88,0,0,0,12.82,0L52.94,45a4.79,4.79,0,0,0,4.48.7l10.3-3.44c1.57-.52,2.11-1.68,1.2-2.59l-4.47-4.47a18.46,18.46,0,0,0,6.4-6.42h9c1.81,0,3.28-.85,3.28-1.89V20.06C83.1,19,81.63,18.17,79.82,18.17ZM48.88,30.33c-6.53,2.18-14.9.89-18.67-2.89s-1.54-8.6,5-10.78,14.9-.89,18.68,2.89S55.42,28.15,48.88,30.33Z"/><line class="cls-4" x1="35.64" y1="40.56" x2="35.64" y2="57.65"/><line class="cls-4" x1="48.46" y1="40.57" x2="48.46" y2="57.65"/><line class="cls-5" x1="69.36" y1="40.44" x2="69.36" y2="57.75"/><path class="cls-4" d="M1,20.06V37.15H1V44c0,1,1.47,1.89,3.28,1.89h9a14.48,14.48,0,0,0,1.49,2.17v9.67h0c0,.65.58,1.29,1.63,1.64l10.3,3.43a4.78,4.78,0,0,0,4.49-.69l4.48-4.48a51.88,51.88,0,0,0,12.82,0l4.48,4.48a4.76,4.76,0,0,0,4.48.69l10.3-3.43c1.06-.35,1.64-1,1.64-1.64h0V48.08a14.21,14.21,0,0,0,1.49-2.17h9c1.81,0,3.28-.85,3.28-1.89V26.93"/><ellipse class="cls-3" cx="42.05" cy="23.49" rx="13.67" ry="7.89"/><path class="cls-1" d="M42.05,15.6V31.39a21.73,21.73,0,0,0,6.83-1.06c6.54-2.18,8.78-7,5-10.78C51.36,17,46.77,15.61,42.05,15.6Z"/><ellipse class="cls-4" cx="42.05" cy="23.49" rx="13.67" ry="7.89"/></g></g></svg>