<svg xmlns="http://www.w3.org/2000/svg" xmlns:xlink="http://www.w3.org/1999/xlink" width="189.03" height="122.96" viewBox="0 0 189.03 122.96"><defs><style>.cls-1{fill:none;}.cls-2{fill:#d5dae0;}.cls-2,.cls-4,.cls-5{stroke:#627386;stroke-linecap:round;stroke-linejoin:round;stroke-width:2px;}.cls-3{clip-path:url(#clip-path);}.cls-4{fill:#b8bfca;}.cls-5{fill:#f2f4f6;}</style><clipPath id="clip-path"><path class="cls-1" d="M142.5,1.49h0c-1.29-.75-3-.68-4.83.38L8.4,76.51C4.31,78.87,1,85.2,1,90.65H1c0,3,1,5.08,2.57,6h0l43,24.82,139-95.15Z"/></clipPath></defs><title>conveyorbelt_01</title><g id="Layer_2" data-name="Layer 2"><g id="Layer_1-2" data-name="Layer 1"><path class="cls-2" d="M142.5,1.49h0c-1.29-.75-3-.68-4.83.38L8.4,76.51C4.31,78.87,1,85.2,1,90.65H1c0,3,1,5.08,2.57,6h0l43,24.82,139-95.15Z"/><path class="cls-2" d="M142.5,1.49h0c-1.29-.75-3-.68-4.83.38L8.4,76.51C4.31,78.87,1,85.2,1,90.65H1c0,3,1,5.08,2.57,6h0l43,24.82,139-95.15Z"/><path class="cls-2" d="M142.5,1.49h0c-1.29-.75-3-.68-4.83.38L8.4,76.51C4.31,78.87,1,85.2,1,90.65H1c0,3,1,5.08,2.57,6h0l43,24.82,139-95.15Z"/><path class="cls-2" d="M142.5,1.49h0c-1.29-.75-3-.68-4.83.38L8.4,76.51C4.31,78.87,1,85.2,1,90.65H1c0,3,1,5.08,2.57,6h0l43,24.82,139-95.15Z"/><path class="cls-2" d="M142.5,1.49h0c-1.29-.75-3-.68-4.83.38L8.4,76.51C4.31,78.87,1,85.2,1,90.65H1c0,3,1,5.08,2.57,6h0l43,24.82,139-95.15Z"/><path class="cls-2" d="M142.5,1.49h0c-1.29-.75-3-.68-4.83.38L8.4,76.51C4.31,78.87,1,85.2,1,90.65H1c0,3,1,5.08,2.57,6h0l43,24.82,139-95.15Z"/><path class="cls-2" d="M142.5,1.49h0c-1.29-.75-3-.68-4.83.38L8.4,76.51C4.31,78.87,1,85.2,1,90.65H1c0,3,1,5.08,2.57,6h0l43,24.82,139-95.15Z"/><path class="cls-2" d="M142.5,1.49h0c-1.29-.75-3-.68-4.83.38L8.4,76.51C4.31,78.87,1,85.2,1,90.65H1c0,3,1,5.08,2.57,6h0l43,24.82,139-95.15Z"/><path class="cls-2" d="M142.5,1.49h0c-1.29-.75-3-.68-4.83.38L8.4,76.51C4.31,78.87,1,85.2,1,90.65H1c0,3,1,5.08,2.57,6h0l43,24.82,139-95.15Z"/><g class="cls-3"><line class="cls-2" x1="125.9" y1="8.51" x2="168.9" y2="32.25"/><line class="cls-2" x1="110.42" y1="17.77" x2="153.42" y2="41.45"/><line class="cls-2" x1="95.41" y1="25.97" x2="138.41" y2="49.62"/><line class="cls-2" x1="80.5" y1="36.28" x2="123.5" y2="59.91"/><line class="cls-2" x1="66.79" y1="43.75" x2="109.79" y2="67.47"/><line class="cls-2" x1="52.36" y1="51.42" x2="95.36" y2="75.24"/><line class="cls-2" x1="35.18" y1="60.55" x2="78.18" y2="84.32"/><line class="cls-2" x1="21.23" y1="69.62" x2="64.23" y2="93.47"/><line class="cls-2" x1="5.01" y1="79.57" x2="48.02" y2="104.39"/></g><path class="cls-4" d="M180.63,46.44,51.37,121.07c-4.08,2.36-7.4-.15-7.4-5.6h0c0-5.45,3.32-11.78,7.4-14.14L180.63,26.7c4.09-2.36,7.4.15,7.4,5.6h0C188,37.75,184.72,44.08,180.63,46.44Z"/><ellipse class="cls-5" cx="51.33" cy="111.23" rx="11.29" ry="6.39" transform="translate(-71.12 114.9) rotate(-66.95)"/><ellipse class="cls-5" cx="83.67" cy="92.56" rx="11.29" ry="6.39" transform="translate(-34.26 133.3) rotate(-66.95)"/><ellipse class="cls-5" cx="116" cy="73.89" rx="11.29" ry="6.39" transform="translate(2.6 151.7) rotate(-66.95)"/><ellipse class="cls-5" cx="148.34" cy="55.22" rx="11.29" ry="6.39" transform="translate(39.45 170.09) rotate(-66.95)"/><ellipse class="cls-5" cx="180.68" cy="36.54" rx="11.29" ry="6.39" transform="translate(76.31 188.49) rotate(-66.95)"/><line class="cls-5" x1="76.31" y1="96.8" x2="91.02" y2="88.31"/><line class="cls-5" x1="116" y1="64.08" x2="116" y2="83.69"/><line class="cls-5" x1="140.99" y1="59.46" x2="155.7" y2="50.97"/><line class="cls-5" x1="180.63" y1="26.7" x2="180.63" y2="46.44"/><line class="cls-5" x1="43.97" y1="115.47" x2="58.68" y2="106.98"/></g></g></svg>