<svg xmlns="http://www.w3.org/2000/svg" width="143.87" height="127.2" viewBox="0 0 143.87 127.2"><defs><style>.cls-1{fill:#f2f4f6;}.cls-1,.cls-2,.cls-6{stroke:#627386;stroke-linejoin:round;}.cls-1,.cls-2,.cls-5,.cls-6{stroke-linecap:round;}.cls-1,.cls-2,.cls-4,.cls-5,.cls-6{stroke-width:2px;}.cls-2{fill:#d5dae0;}.cls-3{fill:#fff;}.cls-4,.cls-5,.cls-6{fill:none;}.cls-4{stroke:#f2f4f6;}.cls-4,.cls-5{stroke-miterlimit:10;}.cls-5{stroke:#b8bfca;}</style></defs><title>hextool_01</title><g id="Layer_2" data-name="Layer 2"><g id="Layer_3" data-name="Layer 3"><path class="cls-1" d="M10.57,115.15v-1.71L128.41,39.82h0l9-5.66,5.48-3.45V43.46c0,4.24-3,8.07-7.79,10.85h0L10.57,126.2h0L1,120.67Z"/><path class="cls-1" d="M136.35,27.46c-.84-.55-9.28-5.93-17.39-11.1l16.68,6.29.71,4.81Z"/><path class="cls-2" d="M128.26,39.72,92.85,19.28V6.52L119,16.36c8.11,5.17,16.55,10.55,17.39,11.1h0l1,6.65.07,0-9,5.66Z"/><path class="cls-3" d="M128.26,27c1.65,1,2.68,2.28,2.68,3.75s-1,2.78-2.68,3.74L1,107.92l9.57,5.52L135,41.58h0l.06,0c4.81-2.77,7.79-6.61,7.79-10.84s-3-8.08-7.79-10.85H135l0,0L102.42,1,92.85,6.52Z"/><line class="cls-4" x1="99.84" y1="10.56" x2="128.26" y2="26.96"/><line class="cls-5" x1="106.29" y1="14.28" x2="121.8" y2="23.24"/><polyline class="cls-4" points="16.06 110.27 135.04 41.58 135.02 41.57"/><line class="cls-5" x1="24.43" y1="105.44" x2="127.57" y2="45.89"/><path class="cls-6" d="M128.26,27c1.65,1,2.68,2.28,2.68,3.75s-1,2.78-2.68,3.74L1,107.92l9.57,5.52,5.49-3.17"/><path class="cls-6" d="M135,41.57l.06,0c4.81-2.77,7.79-6.61,7.79-10.84s-3-8.08-7.79-10.85H135l0,0L102.42,1,92.85,6.52l7,4"/><polygon class="cls-2" points="1 120.67 10.57 126.2 10.57 113.44 1 107.92 1 120.67"/><line class="cls-6" x1="128.26" y1="26.96" x2="99.84" y2="10.56"/></g></g></svg>