<svg xmlns="http://www.w3.org/2000/svg" width="112" height="80.09" viewBox="0 0 112 80.09"><defs><style>.cls-1,.cls-3{fill:#d5dae0;}.cls-1,.cls-2,.cls-4,.cls-5{stroke:#627386;}.cls-1,.cls-2,.cls-4,.cls-5,.cls-6{stroke-linecap:round;stroke-linejoin:round;stroke-width:2px;}.cls-2{fill:#f2f4f6;}.cls-4{fill:none;}.cls-5{fill:#fff;}.cls-6{fill:#bde4fd;stroke:#1b6dc6;}</style></defs><title>lock_01</title><g id="Layer_2" data-name="Layer 2"><g id="Layer_1-2" data-name="Layer 1"><path class="cls-1" d="M56.14,21,10.41,47.42c-12.55,7.25-12.55,19,0,26.24h0c12.55,7.25,32.9,7.25,45.45,0l45.73-26.4c12.55-7.25,12.55-19,0-26.24h0C89,13.77,68.69,13.77,56.14,21Z"/><path class="cls-2" d="M111,19.55V34.14c0,4.75-3.14,9.5-9.41,13.12-12.55,7.25-32.9,7.25-45.45,0-6.28-3.62-9.42-8.37-9.42-13.12V19.55Z"/><path class="cls-2" d="M46.72,19.55V34.14c0,4.75,3.14,9.5,9.42,13.12s14.5,5.44,22.72,5.44V19.55Z"/><path class="cls-2" d="M111,19.55V34.14c0,4.75-3.14,9.5-9.41,13.12-12.55,7.25-32.9,7.25-45.45,0-6.28-3.62-9.42-8.37-9.42-13.12V19.55Z"/><path class="cls-3" d="M78.86,52.7c8.23,0,16.45-1.82,22.73-5.44S111,38.89,111,34.14V19.55H78.86Z"/><path class="cls-4" d="M111,19.55V34.14c0,4.75-3.14,9.5-9.41,13.12-12.55,7.25-32.9,7.25-45.45,0-6.28-3.62-9.42-8.37-9.42-13.12V19.55Z"/><ellipse class="cls-5" cx="78.86" cy="19.55" rx="32.14" ry="18.55"/><path class="cls-6" d="M80,13.59c-3.37-1.94-9-1.81-12,.4-2.36,1.7-2.33,4.17.07,5.85a11.4,11.4,0,0,0,6.75,1.7A3.93,3.93,0,0,1,77,22.1l6.29,4.22a4.31,4.31,0,0,0,4.11.09l3.35-1.93c1.16-.67,1.09-1.77-.15-2.38l-7.3-3.63c-.66-.32-1-.81-1-1.3C82.44,15.88,81.65,14.57,80,13.59Z"/></g></g></svg>