<svg xmlns="http://www.w3.org/2000/svg" width="90.02" height="81.51" viewBox="0 0 90.02 81.51"><defs><style>.cls-1{fill:#b8bfca;}.cls-1,.cls-2,.cls-3{stroke:#627386;stroke-linecap:round;stroke-linejoin:round;stroke-width:2px;}.cls-2{fill:#f2f4f6;}.cls-3{fill:#d5dae0;}</style></defs><title>megaphone_01</title><g id="Layer_2" data-name="Layer 2"><g id="Layer_1-2" data-name="Layer 1"><path class="cls-1" d="M12.35,23.68,5.7,27.52l9.66,35.06L22,58.74v0a2.59,2.59,0,0,0,1-2.37V29.85Z"/><polygon class="cls-2" points="5.7 27.52 7.71 34.39 16.38 33.69 23.03 29.85 12.35 23.68 5.7 27.52"/><path class="cls-3" d="M13.43,62.43,8.66,59.68A7.12,7.12,0,0,1,5.7,54V27.52l10.68,6.17v26.5C16.38,62.37,15.06,63.37,13.43,62.43Z"/><path class="cls-1" d="M30.39,34.1,23,29.85v3.71l-3.45.83L18,39l3.25,4.86,6.65-3.84h0C29.4,39.14,30.39,37.06,30.39,34.1Z"/><polygon class="cls-2" points="30.39 34.1 23.75 37.94 16.38 33.69 23.03 29.85 30.39 34.1"/><path class="cls-3" d="M16.38,33.69V43.5c4.07,2.35,7.37-.14,7.37-5.56Z"/><path class="cls-2" d="M17.54,1.67h0c-1.76-1-4-.93-6.54.51C5.48,5.38,1,13.94,1,21.3c0,4,1.35,6.85,3.46,8.08h0L28,43,41,15.23Z"/><ellipse class="cls-3" cx="34.49" cy="29.09" rx="15.35" ry="8.69" transform="translate(-5.78 49.43) rotate(-66.95)"/><ellipse class="cls-3" cx="34.49" cy="29.09" rx="19.14" ry="10.83" transform="translate(-5.78 49.43) rotate(-66.95)"/><ellipse class="cls-3" cx="58.98" cy="43.23" rx="27.63" ry="15.63" transform="translate(-3.89 80.58) rotate(-66.95)"/><path class="cls-2" d="M40.92,11.12v0a8.86,8.86,0,0,0-6.42,1.31C27.6,16.44,22,27.1,22,36.29c0,4,1.06,7,2.81,8.89h0L45.05,66.46,68.26,17.3Z"/><path class="cls-2" d="M79.57,18.39l1.58-2.51-7.27-4.2h0c-4-2.31-9.2-2.1-14.9,1.19C46.41,20.14,36.22,39.61,36.22,56.37c0,9.17,3.05,15.62,7.87,18.41h0L51.36,79l1-2.87A20.12,20.12,0,0,0,59,73.58c12.58-7.26,22.77-26.73,22.77-43.49A28.67,28.67,0,0,0,79.57,18.39Z"/><ellipse class="cls-3" cx="66.26" cy="47.43" rx="34.95" ry="19.77" transform="translate(-3.33 89.83) rotate(-66.95)"/><ellipse class="cls-2" cx="66.26" cy="47.43" rx="26.48" ry="14.98" transform="translate(-3.33 89.83) rotate(-66.95)"/><path class="cls-3" d="M63.58,37.79h0a2.81,2.81,0,0,0-3.37,0c-2.54,1.48-4.61,5.42-4.61,8.82,0,2.09.79,3.48,2,3.9h0L70.09,54.9,74,46.63Z"/><ellipse class="cls-1" cx="71.8" cy="50.63" rx="4.61" ry="2.61" transform="translate(-2.9 96.87) rotate(-66.95)"/></g></g></svg>