<svg xmlns="http://www.w3.org/2000/svg" width="55.97" height="47.97" viewBox="0 0 55.97 47.97"><defs><style>.cls-1,.cls-5{fill:#f2f4f6;}.cls-2{fill:#d5dae0;}.cls-3,.cls-4{fill:none;}.cls-3{stroke:#b8bfca;stroke-miterlimit:10;}.cls-3,.cls-4,.cls-5,.cls-6{stroke-width:2px;}.cls-4,.cls-5,.cls-6{stroke:#627386;stroke-linecap:round;stroke-linejoin:round;}.cls-6{fill:#b8bfca;}</style></defs><title>screw_01</title><g id="Layer_2" data-name="Layer 2"><g id="Layer_3" data-name="Layer 3"><path class="cls-1" d="M45.57,1.38h0a3.66,3.66,0,0,1,3.72.3C52.42,3.49,55,8.35,55,12.54c0,2.28-.77,3.89-2,4.58h0L26.5,32.45,19.06,16.7,45.57,1.38"/><path class="cls-2" d="M28.51,31.29l-4.34-7.52,29.39-17A13.68,13.68,0,0,1,55,12.54c0,2.28-.77,3.89-2,4.58h0Z"/><path class="cls-3" d="M45.57,1.38h0a3.66,3.66,0,0,1,3.72.3C52.42,3.49,55,8.35,55,12.54c0,2.28-.77,3.89-2,4.58"/><path class="cls-3" d="M45.57,1.38h0a3.65,3.65,0,0,1,3.72.29C52.43,3.5,55,8.36,55,12.54c0,2.29-.76,3.9-2,4.59"/><path class="cls-3" d="M33.8,8.18h0a3.61,3.61,0,0,1,3.71.29c3.14,1.81,5.69,6.68,5.69,10.86,0,2.29-.77,3.89-2,4.59"/><path class="cls-4" d="M45.57,1.38h0a3.66,3.66,0,0,1,3.72.3C52.42,3.49,55,8.35,55,12.54c0,2.28-.77,3.89-2,4.58h0L26.5,32.45,19.06,16.7,45.57,1.38"/><path class="cls-1" d="M10.26,26.57,4.87,15.15,15.45,9v0c2-1.14,4.52-1,7.32.58C29,13.21,34,22.79,34,31c0,4.52-1.51,7.68-3.88,9.05v0l-10.57,6.1L14.16,34.82A30.22,30.22,0,0,1,10.26,26.57Z"/><path class="cls-2" d="M31.24,19.69A27.13,27.13,0,0,1,34,31c0,4.52-1.51,7.68-3.88,9.05v0l-10.57,6.1L14.16,34.82a29.45,29.45,0,0,1-2.26-4Z"/><path class="cls-4" d="M10.26,26.57,4.87,15.15,15.45,9v0c2-1.14,4.52-1,7.32.58C29,13.21,34,22.79,34,31c0,4.52-1.51,7.68-3.88,9.05v0l-10.57,6.1L14.16,34.82A30.22,30.22,0,0,1,10.26,26.57Z"/><ellipse class="cls-5" cx="12.2" cy="30.68" rx="9.73" ry="17.2" transform="translate(-11.04 7.23) rotate(-23.05)"/><line class="cls-6" x1="12.2" y1="26.79" x2="12.2" y2="34.57"/><line class="cls-6" x1="9.29" y1="29" x2="15.12" y2="32.37"/></g></g></svg>