<svg xmlns="http://www.w3.org/2000/svg" width="113.03" height="73.64" viewBox="0 0 113.03 73.64"><defs><style>.cls-1,.cls-7{fill:#f2f4f6;}.cls-1,.cls-2,.cls-3,.cls-5,.cls-6{stroke:#627386;stroke-linecap:round;stroke-linejoin:round;stroke-width:2px;}.cls-2{fill:#fff;}.cls-3{fill:#b8bfca;}.cls-4,.cls-6{fill:#d5dae0;}.cls-5{fill:none;}</style></defs><title>screwdriver_01</title><g id="Layer_2" data-name="Layer 2"><g id="Layer_3" data-name="Layer 3"><line class="cls-1" x1="20.33" y1="64.79" x2="13.49" y2="60.85"/><ellipse class="cls-2" cx="60.44" cy="37.69" rx="10.73" ry="18.96" transform="translate(-9.93 26.68) rotate(-23.05)"/><path class="cls-3" d="M112,17.9A16.89,16.89,0,0,0,95.14,1a16.69,16.69,0,0,0-8.48,2.3v0L55.92,21.13l14.4,30.5,33.21-19.06v0A16.87,16.87,0,0,0,112,17.9Z"/><path class="cls-4" d="M99.42,11.75A8.5,8.5,0,0,0,86.65,4.41h0l-34.51,20,7.25,15.34L95.14,19.13h0A8.5,8.5,0,0,0,99.42,11.75Z"/><path class="cls-5" d="M112,17.9A16.89,16.89,0,0,0,95.14,1a16.69,16.69,0,0,0-8.48,2.3v0L55.92,21.13l14.4,30.5,33.21-19.06v0A16.87,16.87,0,0,0,112,17.9Z"/><path class="cls-3" d="M74.28,45.67c0-10.18-6.2-22-13.84-26.43-3.46-2-6.62-2.12-9-.72h0l-7.63,4.4L46.63,29c0,.24,0,.46,0,.71,0,9.54,5.43,20.53,12.4,25.51l2.86,6.06,7.63-4.41h0C72.42,55.16,74.28,51.25,74.28,45.67Z"/><path class="cls-4" d="M60.44,19.24c-3.46-2-6.62-2.12-9-.72h0l-7.63,4.4L46.63,29c0,.24,0,.46,0,.71a33.93,33.93,0,0,0,3.56,14.42L71.09,32.05C68.55,26.51,64.72,21.71,60.44,19.24Z"/><path class="cls-5" d="M74.28,45.67c0-10.18-6.2-22-13.84-26.43-3.46-2-6.62-2.12-9-.72h0l-7.63,4.4L46.63,29c0,.24,0,.46,0,.71,0,9.54,5.43,20.53,12.4,25.51l2.86,6.06,7.63-4.41h0C72.42,55.16,74.28,51.25,74.28,45.67Z"/><ellipse class="cls-6" cx="52.82" cy="42.09" rx="12.02" ry="21.24" transform="translate(-12.26 24.04) rotate(-23.05)"/><path class="cls-6" d="M55.7,44.37a8.18,8.18,0,0,0-3.42-6.53,2.17,2.17,0,0,0-2.23-.17h0L14.68,58.08h0a2.18,2.18,0,0,0-.31.22h0L1.5,70h0A1.47,1.47,0,0,0,1,71.13a1.51,1.51,0,0,0,1.51,1.51A1.56,1.56,0,0,0,3,72.57H3L18.8,67.71h0a1.58,1.58,0,0,0,.35-.16h0L54.52,47.14h0A3,3,0,0,0,55.7,44.37Z"/><path class="cls-7" d="M52.28,37.84a2.17,2.17,0,0,0-2.23-.17h0L14.68,58.08h0a2.18,2.18,0,0,0-.31.22h0L1.5,70h0A1.47,1.47,0,0,0,1,71.13a1.5,1.5,0,0,0,.48,1.1L55,41.31A7.31,7.31,0,0,0,52.28,37.84Z"/><path class="cls-5" d="M55.7,44.37a8.18,8.18,0,0,0-3.42-6.53,2.17,2.17,0,0,0-2.23-.17h0L14.68,58.08h0a2.18,2.18,0,0,0-.31.22h0L1.5,70h0A1.47,1.47,0,0,0,1,71.13a1.51,1.51,0,0,0,1.51,1.51A1.56,1.56,0,0,0,3,72.57H3L18.8,67.71h0a1.58,1.58,0,0,0,.35-.16h0L54.52,47.14h0A3,3,0,0,0,55.7,44.37Z"/></g></g></svg>