<svg xmlns="http://www.w3.org/2000/svg" width="33.33" height="52.29" viewBox="0 0 33.33 52.29"><defs><style>.cls-1{fill:#f2f4f6;}.cls-2{fill:#d5dae0;}.cls-3,.cls-4,.cls-5,.cls-6{fill:none;stroke-width:2px;}.cls-3{stroke:#627386;stroke-linejoin:round;}.cls-3,.cls-6{stroke-linecap:round;}.cls-4,.cls-6{stroke:#b8bfca;}.cls-4,.cls-5,.cls-6{stroke-miterlimit:10;}.cls-5{stroke:#d5dae0;}</style></defs><title>screw_02</title><g id="Layer_2" data-name="Layer 2"><g id="Layer_3" data-name="Layer 3"><path class="cls-1" d="M32.31,29.56H1L1,42.25c0,5,7,9,15.65,9s15.66-4,15.66-9Z"/><path class="cls-2" d="M16.66,29.56V51.29h0c8.65,0,15.66-4,15.66-9l0-12.69Z"/><path class="cls-3" d="M32.31,29.56H1L1,42.25c0,5,7,9,15.65,9s15.66-4,15.66-9Z"/><ellipse class="cls-1" cx="16.66" cy="29.56" rx="15.66" ry="9.04"/><ellipse class="cls-3" cx="16.66" cy="29.56" rx="15.66" ry="9.04"/><path class="cls-1" d="M8.86,5.5V29.56c0,2.49,3.49,4.5,7.8,4.5s7.79-2,7.79-4.5V5.5Z"/><path class="cls-2" d="M16.66,34.06c4.3,0,7.79-2,7.79-4.5V5.5H16.66Z"/><path class="cls-4" d="M24.45,17.53C24.45,20,21,22,16.66,22s-7.8-2-7.8-4.5"/><path class="cls-5" d="M21.44,33.11c1.83-.82,3-2.1,3-3.55"/><path class="cls-5" d="M8.86,29.56c0,1.45,1.18,2.73,3,3.55"/><polyline class="cls-3" points="24.45 29.56 24.45 5.5 8.86 5.5 8.86 29.56"/><path class="cls-6" d="M11.87,33.11a11.72,11.72,0,0,0,4.79,1,11.7,11.7,0,0,0,4.78-1"/><ellipse class="cls-1" cx="16.66" cy="5.5" rx="7.79" ry="4.5"/><ellipse class="cls-3" cx="16.66" cy="5.5" rx="7.79" ry="4.5"/></g></g></svg>