<svg xmlns="http://www.w3.org/2000/svg" width="126" height="127" viewBox="0 0 126 127"><defs><style>.cls-1{fill:#f2f4f6;}.cls-1,.cls-3,.cls-4{stroke:#627386;}.cls-1,.cls-10,.cls-3,.cls-4,.cls-5,.cls-6,.cls-7,.cls-8,.cls-9{stroke-linecap:round;stroke-linejoin:round;stroke-width:2px;}.cls-2{fill:#d5dae0;}.cls-10,.cls-11,.cls-3,.cls-5,.cls-8,.cls-9{fill:none;}.cls-4,.cls-6{fill:#fff;}.cls-5{stroke:#d5dae0;}.cls-10,.cls-6,.cls-7,.cls-9{stroke:#1b6dc6;}.cls-7{fill:#d3edfd;}.cls-8{stroke:#d3edfd;}.cls-10{stroke-dasharray:0 5.85;}</style></defs><title>Asset 7</title><g id="Layer_2" data-name="Layer 2"><g id="Layer_4" data-name="Layer 4"><path class="cls-1" d="M109.45,91.17,85.65,77.43,58.36,61.67a11,11,0,0,0-9.89,0l-20,11.56L14,81.58,6.37,80.34v7.31A3.48,3.48,0,0,0,8.42,90.5l27.29,15.76,32.14,18.56a11,11,0,0,0,9.89,0l20-11.56,20-11.56a3.48,3.48,0,0,0,2-2.86V91.53Z"/><path class="cls-2" d="M85.65,77.43,73.19,70.24V126a10,10,0,0,0,4.55-1.16l20-11.56,20-11.56a3.48,3.48,0,0,0,2-2.86V91.53l-10.39-.36Z"/><path class="cls-3" d="M109.45,91.17,85.65,77.43,58.36,61.67a11,11,0,0,0-9.89,0l-20,11.56L14,81.58,6.37,80.34v7.31A3.48,3.48,0,0,0,8.42,90.5l27.29,15.76,32.14,18.56a11,11,0,0,0,9.89,0l20-11.56,20-11.56a3.48,3.48,0,0,0,2-2.86V91.53Z"/><path class="cls-4" d="M117.79,88.67,85.65,70.12,58.36,54.36a11,11,0,0,0-9.89,0l-20,11.56-20,11.56a3,3,0,0,0,0,5.71L35.72,99,67.85,117.5a10.87,10.87,0,0,0,9.89,0l20-11.56,20-11.56a3,3,0,0,0,0-5.71Z"/><polygon class="cls-5" points="71 112.6 109.3 90.49 55.01 59.14 16.7 81.26 71 112.6"/><polygon class="cls-5" points="22.87 84.82 16.7 81.26 55.01 59.14 61.18 62.7 22.87 84.82"/><polygon class="cls-5" points="42.05 84.34 37.66 86.87 33.27 84.34 37.66 81.8 42.05 84.34"/><line class="cls-5" x1="43.36" y1="81.05" x2="61.18" y2="70.76"/><polygon class="cls-5" points="50.22 89.05 45.84 91.59 41.45 89.05 45.84 86.52 50.22 89.05"/><line class="cls-5" x1="51.54" y1="85.76" x2="67.46" y2="76.57"/><polygon class="cls-5" points="58.4 93.77 54.01 96.3 49.62 93.77 54.01 91.23 58.4 93.77"/><line class="cls-5" x1="59.71" y1="90.48" x2="78.85" y2="79.42"/><ellipse class="cls-5" cx="70.81" cy="98.82" rx="8.8" ry="5.08"/><path class="cls-5" d="M79.61,98.82c0-.12,0-.24,0-.36v0c0-.15-.06-.31-.1-.46h0A4.91,4.91,0,0,0,77,95.23a13.71,13.71,0,0,0-12.44,0l6.22,3.59h0v5.08A12.74,12.74,0,0,0,77,102.41c1.72-1,2.57-2.29,2.57-3.59Z"/><polygon class="cls-6" points="71 71.64 109.3 49.53 55.01 18.18 16.7 40.3 71 71.64"/><polygon class="cls-7" points="22.87 43.86 16.7 40.3 55.01 18.18 61.18 21.74 22.87 43.86"/><polygon class="cls-8" points="42.05 43.38 37.66 45.91 33.27 43.38 37.66 40.84 42.05 43.38"/><line class="cls-8" x1="43.36" y1="40.09" x2="61.18" y2="29.8"/><polygon class="cls-8" points="50.22 48.09 45.84 50.63 41.45 48.09 45.84 45.56 50.22 48.09"/><line class="cls-8" x1="51.54" y1="44.8" x2="66.85" y2="35.96"/><polygon class="cls-7" points="58.4 52.81 54.01 55.34 49.62 52.81 54.01 50.27 58.4 52.81"/><line class="cls-9" x1="59.71" y1="49.52" x2="78.85" y2="38.46"/><ellipse class="cls-6" cx="70.81" cy="57.86" rx="8.8" ry="5.08"/><path class="cls-7" d="M79.61,57.86h0c0-1.3-.86-2.6-2.58-3.59a13.71,13.71,0,0,0-12.44,0l6.22,3.59Z"/><line class="cls-9" x1="16.71" y1="81.26" x2="16.71" y2="81.26"/><line class="cls-10" x1="16.71" y1="75.4" x2="16.71" y2="43.22"/><line class="cls-9" x1="16.71" y1="40.3" x2="16.71" y2="40.3"/><line class="cls-9" x1="109.3" y1="90.49" x2="109.3" y2="90.49"/><line class="cls-10" x1="109.3" y1="84.64" x2="109.3" y2="52.45"/><line class="cls-9" x1="109.3" y1="49.53" x2="109.3" y2="49.53"/><rect class="cls-11" width="126" height="126"/></g></g></svg>