<svg xmlns="http://www.w3.org/2000/svg" width="300" height="300" viewBox="0 0 300 300"><defs><style>.cls-1{fill:none;}.cls-2{fill:#d5dae0;}.cls-2,.cls-4,.cls-5{stroke:#627386;}.cls-2,.cls-4,.cls-5,.cls-6{stroke-linecap:round;stroke-linejoin:round;stroke-width:2px;}.cls-3,.cls-5,.cls-6{fill:#fff;}.cls-4{fill:#f2f4f6;}.cls-6{stroke:#faabab;}</style></defs><title>error_02</title><g id="Layer_2" data-name="Layer 2"><g id="Layer_1-2" data-name="Layer 1"><rect class="cls-1" width="300" height="300"/><rect class="cls-1" width="300" height="300"/><rect class="cls-1" x="87.15" y="87" width="126" height="126"/><polygon class="cls-2" points="211 180.5 150 215.72 150 195.38 211 160.17 211 180.5"/><ellipse class="cls-3" cx="157.64" cy="201.14" rx="2.01" ry="1.14" transform="translate(-89.17 267.44) rotate(-66.95)"/><line class="cls-2" x1="188.12" y1="183.54" x2="172.87" y2="192.34"/><polygon class="cls-4" points="89 180.5 150 215.72 150 195.38 89 160.17 89 180.5"/><polygon class="cls-5" points="211 160.17 150 124.95 89 160.17 150 195.38 211 160.17"/><polygon class="cls-2" points="211 160.17 150 195.38 150 175.05 211 139.83 211 160.17"/><ellipse class="cls-3" cx="157.64" cy="180.81" rx="2.01" ry="1.14" transform="translate(-70.46 255.06) rotate(-66.95)"/><line class="cls-2" x1="188.12" y1="163.2" x2="172.87" y2="172.01"/><polygon class="cls-4" points="89 160.17 150 195.38 150 175.05 89 139.83 89 160.17"/><polygon class="cls-5" points="211 139.83 150 104.61 89 139.83 150 175.05 211 139.83"/><polygon class="cls-2" points="211 139.83 150 175.05 150 154.72 211 119.5 211 139.83"/><ellipse class="cls-3" cx="157.64" cy="160.47" rx="2.01" ry="1.14" transform="translate(-51.75 242.69) rotate(-66.95)"/><line class="cls-2" x1="188.13" y1="142.87" x2="172.88" y2="151.67"/><polygon class="cls-4" points="89 139.83 150 175.05 150 154.72 89 119.5 89 139.83"/><polygon class="cls-5" points="211 119.5 150 84.28 89 119.5 150 154.72 211 119.5"/><ellipse class="cls-6" cx="149.85" cy="119.5" rx="33" ry="19.05"/><polygon class="cls-6" points="170 116.71 154.4 116.71 154.4 107.95 145.6 107.95 145.6 116.71 130 116.71 130 122.29 145.6 122.29 145.6 131.05 154.4 131.05 154.4 122.29 170 122.29 170 116.71"/></g></g></svg>