<svg xmlns="http://www.w3.org/2000/svg" width="366.1" height="250.47" viewBox="0 0 366.1 250.47"><defs><style>.cls-1,.cls-12,.cls-13,.cls-14,.cls-2,.cls-3,.cls-6{fill:none;}.cls-1,.cls-2,.cls-3{stroke:#b8bfca;}.cls-1,.cls-10,.cls-12,.cls-13,.cls-14,.cls-15,.cls-2,.cls-3,.cls-4,.cls-5,.cls-6,.cls-7,.cls-8,.cls-9{stroke-linecap:round;stroke-linejoin:round;stroke-width:2px;}.cls-2{stroke-dasharray:0 5.94;}.cls-3{stroke-dasharray:0 5.94;}.cls-4{fill:#f2f4f6;}.cls-4,.cls-5,.cls-7{stroke:#627386;}.cls-10,.cls-15,.cls-5{fill:#fff;}.cls-6{stroke:#d5dae0;}.cls-7{fill:#d5dae0;}.cls-11,.cls-8{fill:#bde4fd;}.cls-10,.cls-12,.cls-13,.cls-14,.cls-8,.cls-9{stroke:#1b6dc6;}.cls-9{fill:#e9f6fe;}.cls-13{stroke-dasharray:0 6.3;}.cls-14{stroke-dasharray:0 5.4;}.cls-15{stroke:#bde4fd;}</style></defs><title>foundation</title><g id="Layer_2" data-name="Layer 2"><g id="Layer_2-2" data-name="Layer 2"><line class="cls-1" x1="321.05" y1="130.76" x2="321.05" y2="130.76"/><line class="cls-2" x1="315.91" y1="127.79" x2="287.62" y2="111.46"/><line class="cls-1" x1="285.05" y1="109.97" x2="285.05" y2="109.97"/><line class="cls-1" x1="285.05" y1="176.95" x2="285.05" y2="176.95"/><line class="cls-3" x1="290.19" y1="173.98" x2="318.48" y2="157.65"/><line class="cls-1" x1="321.05" y1="156.16" x2="321.05" y2="156.16"/><line class="cls-1" x1="205.05" y1="223.14" x2="205.05" y2="223.14"/><line class="cls-3" x1="210.19" y1="220.17" x2="238.48" y2="203.84"/><line class="cls-1" x1="241.05" y1="202.35" x2="241.05" y2="202.35"/><line class="cls-1" x1="125.05" y1="202.35" x2="125.05" y2="202.35"/><line class="cls-2" x1="130.19" y1="205.32" x2="158.48" y2="221.65"/><line class="cls-1" x1="161.05" y1="223.14" x2="161.05" y2="223.14"/><line class="cls-1" x1="45.05" y1="156.16" x2="45.05" y2="156.16"/><line class="cls-2" x1="50.19" y1="159.13" x2="78.48" y2="175.46"/><line class="cls-1" x1="81.05" y1="176.95" x2="81.05" y2="176.95"/><line class="cls-1" x1="81.05" y1="109.97" x2="81.05" y2="109.97"/><line class="cls-3" x1="75.91" y1="112.94" x2="47.62" y2="129.27"/><line class="cls-1" x1="45.05" y1="130.76" x2="45.05" y2="130.76"/><polygon class="cls-4" points="161 236.74 183.05 249.47 183.05 235.07 161 222.34 161 236.74"/><polygon class="cls-5" points="161 222.34 183.05 209.61 183.05 209.61 205.1 222.34 205.1 222.34 205.1 222.34 183.05 235.07 183.05 235.07 161 222.34"/><line class="cls-6" x1="183.05" y1="217.67" x2="183.05" y2="227.02"/><line class="cls-6" x1="191.15" y1="222.34" x2="174.95" y2="222.34"/><polygon class="cls-7" points="205.1 236.74 183.05 249.47 183.05 235.07 205.1 222.34 205.1 236.74"/><polygon class="cls-4" points="241 189.65 263.05 202.38 263.05 187.98 241 175.25 241 189.65"/><polygon class="cls-5" points="241 175.25 263.05 162.52 263.05 162.52 285.1 175.25 285.1 175.25 285.1 175.25 263.05 187.98 263.05 187.98 241 175.25"/><polygon class="cls-7" points="285.1 189.65 263.05 202.38 263.05 187.98 285.1 175.25 285.1 189.65"/><polygon class="cls-6" points="253.15 175.25 263.05 169.53 263.05 169.53 272.95 175.25 272.95 175.25 272.95 175.25 263.05 180.97 263.05 180.97 253.15 175.25"/><polygon class="cls-4" points="81 97.27 103.05 110 103.05 95.6 81 82.87 81 97.27"/><polygon class="cls-5" points="81 82.87 103.05 70.14 103.05 70.14 125.1 82.87 125.1 82.87 125.1 82.87 103.05 95.6 103.05 95.6 81 82.87"/><polygon class="cls-7" points="125.1 97.27 103.05 110 103.05 95.6 125.1 82.87 125.1 97.27"/><rect class="cls-6" x="97.45" y="79.64" width="11.2" height="6.46"/><polygon class="cls-7" points="365.1 143.46 343.05 156.19 343.05 141.79 365.1 129.06 365.1 143.46"/><polygon class="cls-5" points="365.1 129.06 343.05 116.33 343.05 116.33 321 129.06 321 129.06 321 129.06 343.05 141.79 343.05 141.79 365.1 129.06"/><polygon class="cls-4" points="321 143.46 343.05 156.19 343.05 141.79 321 129.06 321 143.46"/><polygon class="cls-6" points="334.55 130.38 336.83 125.47 345.33 124.15 351.55 127.75 349.27 132.65 340.77 133.97 334.55 130.38"/><polygon class="cls-4" points="241 97.27 263.05 110 263.05 95.6 241 82.87 241 97.27"/><polygon class="cls-5" points="241 82.87 263.05 70.14 263.05 70.14 285.1 82.87 285.1 82.87 285.1 82.87 263.05 95.6 263.05 95.6 241 82.87"/><line class="cls-6" x1="257.32" y1="86.18" x2="268.52" y2="79.72"/><line class="cls-6" x1="268.52" y1="86.18" x2="257.32" y2="79.72"/><polygon class="cls-7" points="285.1 97.27 263.05 110 263.05 95.6 285.1 82.87 285.1 97.27"/><polygon class="cls-5" points="196.55 150.99 183.05 143.19 169.55 150.99 183.05 158.78 196.55 150.99"/><polygon class="cls-5" points="196.55 150.99 183.05 143.19 169.55 150.99 183.05 158.78 196.55 150.99"/><polygon class="cls-5" points="196.55 150.99 183.05 143.19 169.55 150.99 183.05 158.78 196.55 150.99"/><polygon class="cls-8" points="227.15 143.46 183.05 168.92 183.05 154.52 227.15 129.06 227.15 143.46"/><polygon class="cls-9" points="138.95 143.46 183.05 168.92 183.05 154.52 138.95 129.06 138.95 143.46"/><polygon class="cls-10" points="227.15 129.06 183.05 103.6 138.95 129.06 183.05 154.52 227.15 129.06"/><path class="cls-11" d="M169.44,129.78a.58.58,0,0,1-.3-.08l-4.31-2.49c-.13-.07-.2-.19-.13-.3a.59.59,0,0,1,.5-.18l14.49.72c.33,0,.6-.14.57-.33l-1.19-8.39c0-.1.06-.2.2-.26a.81.81,0,0,1,.63,0l4.15,2.4a.26.26,0,0,1,.14.17l1.36,9.1v.08c0,.14-.18.26-.43.26H185Z"/><path class="cls-11" d="M187.83,130.38c0,.14.22.26.48.27l12.57.67a.75.75,0,0,0,.46-.11c.14-.12.11-.27-.06-.36l-4.15-2.4a.82.82,0,0,0-.3-.08l-8.74-.51c-.32,0-.59.14-.57.32Z"/><path class="cls-11" d="M185.31,131.8c.26,0,.46.13.48.28l1.28,7.31c0,.1-.06.2-.2.26a.77.77,0,0,1-.63,0l-4.15-2.39a.27.27,0,0,1-.14-.18l-.8-5.06c0-.19.24-.34.56-.33Z"/><polygon class="cls-8" points="227.15 129.06 183.05 154.52 183.05 140.12 227.15 114.66 227.15 129.06"/><polygon class="cls-9" points="138.95 129.06 183.05 154.52 183.05 140.12 138.95 114.66 138.95 129.06"/><polygon class="cls-10" points="227.15 114.66 183.05 89.2 138.95 114.66 183.05 140.12 227.15 114.66"/><path class="cls-11" d="M171.2,115.29a.53.53,0,0,1-.26-.07l-3.75-2.17c-.12-.07-.17-.17-.12-.26a.53.53,0,0,1,.44-.16l12.62.62c.28,0,.51-.12.49-.28l-1-7.3c0-.09,0-.18.17-.23a.63.63,0,0,1,.54,0l3.62,2.08a.22.22,0,0,1,.12.15l1.18,7.93v.07c0,.12-.15.22-.37.22h-.14Z"/><path class="cls-11" d="M187.21,115.81c0,.12.19.23.42.24l10.94.58a.61.61,0,0,0,.4-.1c.12-.1.1-.23,0-.31l-3.62-2.09a.66.66,0,0,0-.26-.07l-7.61-.45c-.28,0-.52.12-.5.28Z"/><path class="cls-11" d="M185,117.05c.22,0,.4.11.41.24l1.12,6.36c0,.09-.05.18-.18.23a.67.67,0,0,1-.54,0l-3.61-2.09a.23.23,0,0,1-.13-.15l-.69-4.41c0-.16.21-.3.49-.28Z"/><line class="cls-12" x1="227.15" y1="76.86" x2="227.15" y2="76.86"/><line class="cls-13" x1="227.15" y1="83.16" x2="227.15" y2="111.51"/><line class="cls-12" x1="227.15" y1="114.66" x2="227.15" y2="114.66"/><polygon class="cls-8" points="205.1 28.13 183.05 40.86 183.05 26.46 205.1 13.73 205.1 28.13"/><polygon class="cls-10" points="205.1 13.73 183.05 1 183.05 1 161 13.73 161 13.73 161 13.73 183.05 26.46 183.05 26.46 205.1 13.73"/><polygon class="cls-9" points="161 28.13 183.05 40.86 183.05 26.46 161 13.73 161 28.13"/><line class="cls-12" x1="205.1" y1="28.13" x2="205.1" y2="28.13"/><line class="cls-14" x1="205.1" y1="33.53" x2="205.1" y2="47.03"/><line class="cls-12" x1="205.1" y1="49.73" x2="205.1" y2="49.73"/><line class="cls-12" x1="161" y1="28.13" x2="161" y2="28.13"/><line class="cls-14" x1="161" y1="33.53" x2="161" y2="47.03"/><line class="cls-12" x1="161" y1="49.73" x2="161" y2="49.73"/><ellipse class="cls-15" cx="183.05" cy="13.73" rx="8.1" ry="4.68"/><polygon class="cls-8" points="227.15 76.86 205.1 89.59 205.1 75.19 227.15 62.46 227.15 76.86"/><polygon class="cls-10" points="227.15 62.46 205.1 49.73 205.1 49.73 183.05 62.46 183.05 62.46 183.05 62.46 205.1 75.19 205.1 75.19 227.15 62.46"/><polygon class="cls-9" points="183.05 76.86 205.1 89.59 205.1 75.19 183.05 62.46 183.05 76.86"/><ellipse class="cls-15" cx="205.1" cy="62.46" rx="8.1" ry="4.68"/><polygon class="cls-8" points="183.05 76.86 161 89.59 161 75.19 183.05 62.46 183.05 76.86"/><polygon class="cls-10" points="183.05 62.46 161 49.73 161 49.73 138.95 62.46 138.95 62.46 138.95 62.46 161 75.19 161 75.19 183.05 62.46"/><polygon class="cls-9" points="138.95 76.86 161 89.59 161 75.19 138.95 62.46 138.95 76.86"/><ellipse class="cls-15" cx="161" cy="62.46" rx="8.1" ry="4.68"/><polygon class="cls-8" points="205.1 89.59 183.05 102.32 183.05 87.92 205.1 75.19 205.1 89.59"/><polygon class="cls-10" points="205.1 75.19 183.05 62.46 183.05 62.46 161 75.19 161 75.19 161 75.19 183.05 87.92 183.05 87.92 205.1 75.19"/><polygon class="cls-9" points="161 89.59 183.05 102.32 183.05 87.92 161 75.19 161 89.59"/><ellipse class="cls-15" cx="183.05" cy="75.19" rx="8.1" ry="4.68"/><polygon class="cls-7" points="125.1 189.65 103.05 202.38 103.05 187.98 125.1 175.25 125.1 189.65"/><polygon class="cls-5" points="125.1 175.25 103.05 162.52 103.05 162.52 81 175.25 81 175.25 81 175.25 103.05 187.98 103.05 187.98 125.1 175.25"/><polygon class="cls-4" points="81 189.65 103.05 202.38 103.05 187.98 81 175.25 81 189.65"/><polygon class="cls-6" points="93.16 176.28 98.28 170.48 109.4 171.5 111.16 177.92 101.13 180.88 93.16 176.28"/><polygon class="cls-7" points="45.1 143.46 23.05 156.19 23.05 141.79 45.1 129.06 45.1 143.46"/><polygon class="cls-5" points="45.1 129.06 23.05 116.33 23.05 116.33 1 129.06 1 129.06 1 129.06 23.05 141.79 23.05 141.79 45.1 129.06"/><polygon class="cls-4" points="1 143.46 23.05 156.19 23.05 141.79 1 129.06 1 143.46"/><polygon class="cls-6" points="18.04 131.95 11.45 128.15 20.45 126.76 29.45 125.36 27.04 130.56 24.63 135.76 18.04 131.95"/><path class="cls-6" d="M39.93,154.94a1.47,1.47,0,0,0,.88,1.22,4.66,4.66,0,0,0,4.24,0,1.49,1.49,0,0,0,.88-1.22,1.52,1.52,0,0,0-.88-1.23,4.74,4.74,0,0,0-4.24,0A1.5,1.5,0,0,0,39.93,154.94Z"/><path class="cls-6" d="M80.17,108.75a1.49,1.49,0,0,0,.88,1.22,4.66,4.66,0,0,0,4.24,0,1.29,1.29,0,0,0,0-2.44,4.66,4.66,0,0,0-4.24,0A1.49,1.49,0,0,0,80.17,108.75Z"/><path class="cls-6" d="M119.93,201.13a1.49,1.49,0,0,0,.88,1.22,4.66,4.66,0,0,0,4.24,0,1.29,1.29,0,0,0,0-2.45,4.66,4.66,0,0,0-4.24,0A1.49,1.49,0,0,0,119.93,201.13Z"/><path class="cls-6" d="M240.17,201.13a1.51,1.51,0,0,0,.88,1.22,4.66,4.66,0,0,0,4.24,0,1.29,1.29,0,0,0,0-2.45,4.66,4.66,0,0,0-4.24,0A1.51,1.51,0,0,0,240.17,201.13Z"/><path class="cls-6" d="M320.17,154.94a1.49,1.49,0,0,0,.88,1.22,4.66,4.66,0,0,0,4.24,0,1.47,1.47,0,0,0,.88-1.22,1.5,1.5,0,0,0-.88-1.23,4.74,4.74,0,0,0-4.24,0A1.52,1.52,0,0,0,320.17,154.94Z"/><path class="cls-6" d="M279.93,108.75a1.47,1.47,0,0,0,.88,1.22,4.66,4.66,0,0,0,4.24,0,1.29,1.29,0,0,0,0-2.44,4.66,4.66,0,0,0-4.24,0A1.47,1.47,0,0,0,279.93,108.75Z"/><line class="cls-12" x1="138.95" y1="76.86" x2="138.95" y2="76.86"/><line class="cls-13" x1="138.95" y1="83.16" x2="138.95" y2="111.51"/><line class="cls-12" x1="138.95" y1="114.66" x2="138.95" y2="114.66"/></g></g></svg>