<svg xmlns="http://www.w3.org/2000/svg" width="126" height="126" viewBox="0 0 126 126"><defs><style>.cls-1,.cls-11,.cls-3{fill:#fff;}.cls-1,.cls-2{stroke:#d5dae0;}.cls-1,.cls-12,.cls-2,.cls-3,.cls-4,.cls-5,.cls-6,.cls-8,.cls-9{stroke-linecap:round;stroke-linejoin:round;stroke-width:2px;}.cls-12,.cls-13,.cls-2,.cls-5,.cls-8{fill:none;}.cls-3,.cls-4,.cls-5{stroke:#627386;}.cls-4{fill:#f2f4f6;}.cls-6{fill:#e9f6fe;}.cls-12,.cls-6,.cls-8,.cls-9{stroke:#1b6dc6;}.cls-7,.cls-9{fill:#bde4fd;}.cls-10{fill:#91d2fb;}.cls-12{stroke-dasharray:0 6.03;}</style></defs><title>licenses</title><g id="Layer_2" data-name="Layer 2"><g id="Layer_4" data-name="Layer 4"><polygon class="cls-1" points="116.37 92.58 72.34 118 10.04 82.03 54.07 56.61 116.37 92.58"/><line class="cls-2" x1="16.2" y1="76.14" x2="16.2" y2="85.59"/><polygon class="cls-3" points="72.34 118 72.34 108.55 10.04 72.58 10.04 82.03 72.34 118"/><polygon class="cls-4" points="72.34 118 72.34 108.55 116.37 83.13 116.37 92.58 72.34 118"/><polygon class="cls-5" points="72.34 118 72.34 108.55 116.37 83.13 116.37 92.58 72.34 118"/><polygon class="cls-5" points="72.34 118 72.34 108.55 10.04 72.58 10.04 82.03 72.34 118"/><polygon class="cls-1" points="116.37 83.13 72.34 108.55 10.04 72.58 54.07 47.16 116.37 83.13"/><line class="cls-2" x1="60.43" y1="58.18" x2="29.13" y2="76.25"/><line class="cls-2" x1="61.06" y1="63" x2="37.48" y2="76.61"/><line class="cls-2" x1="73.3" y1="65.6" x2="41.99" y2="83.68"/><line class="cls-2" x1="77.79" y1="68.2" x2="46.48" y2="86.27"/><line class="cls-2" x1="67.34" y1="83.58" x2="54.58" y2="90.95"/><polygon class="cls-4" points="60.23 50.71 16.2 76.14 10.04 72.58 54.07 47.16 60.23 50.71"/><polygon class="cls-2" points="84.59 93.54 71.83 100.91 59.07 93.54 71.83 86.17 84.59 93.54"/><line class="cls-2" x1="86.64" y1="89.3" x2="100.49" y2="81.3"/><polygon class="cls-5" points="116.37 83.13 72.34 108.55 10.04 72.58 54.07 47.16 116.37 83.13"/><line class="cls-2" x1="81.94" y1="85.85" x2="95.79" y2="77.85"/><line class="cls-2" x1="81.94" y1="85.85" x2="95.79" y2="77.85"/><line class="cls-2" x1="77.24" y1="82.4" x2="91.09" y2="74.4"/><polygon class="cls-6" points="111.25 42.24 84.61 33.36 79.08 38.89 105.72 47.77 103.22 43.43 111.25 42.24"/><polygon class="cls-7" points="79.08 38.89 105.72 47.77 103.22 43.43 81.71 36.26 79.08 38.89"/><polygon class="cls-6" points="88.91 50.99 97.07 52.76 89.38 45.07 81.69 37.38 76.9 38.98 72.11 40.58 79.8 48.27 87.49 55.96 88.91 50.99"/><polygon class="cls-7" points="72.11 40.58 79.8 48.27 87.49 55.96 88.91 50.99 76.9 38.98 72.11 40.58"/><polygon class="cls-8" points="111.25 42.24 84.61 33.36 79.08 38.89 105.72 47.77 103.22 43.43 111.25 42.24"/><polygon class="cls-8" points="88.91 50.99 97.07 52.76 89.38 45.07 81.69 37.38 76.9 38.98 72.11 40.58 79.8 48.27 87.49 55.96 88.91 50.99"/><path class="cls-9" d="M86,23.85a10.81,10.81,0,0,0-7.88-.73c-.89-1.56-3.44-2.7-6.45-2.7s-5.57,1.14-6.46,2.7a10.78,10.78,0,0,0-7.87.73c-2.13,1.23-2.55,3.07-1.26,4.55-2.72.51-4.68,2-4.68,3.72s2,3.22,4.68,3.73c-1.29,1.47-.87,3.32,1.26,4.55a10.73,10.73,0,0,0,7.87.72c.89,1.57,3.44,2.7,6.46,2.7s5.56-1.13,6.45-2.7A10.76,10.76,0,0,0,86,40.4c2.13-1.23,2.54-3.08,1.25-4.55,2.72-.51,4.68-2,4.68-3.73s-2-3.21-4.68-3.72C88.5,26.92,88.09,25.08,86,23.85ZM74.7,36.4a11.47,11.47,0,0,0-6.15,0,4.37,4.37,0,0,0-1.65-1.55,8.5,8.5,0,0,0-2.69-1A2.71,2.71,0,0,0,65,32.12a2.66,2.66,0,0,0-.74-1.77,8.75,8.75,0,0,0,2.69-1,4.38,4.38,0,0,0,1.65-1.56,11.21,11.21,0,0,0,6.15,0,4.38,4.38,0,0,0,1.65,1.56,8.75,8.75,0,0,0,2.69,1,2.65,2.65,0,0,0-.73,1.77A2.7,2.7,0,0,0,79,33.9a8.5,8.5,0,0,0-2.69,1A4.37,4.37,0,0,0,74.7,36.4Z"/><path class="cls-10" d="M55.64,34.18a6.31,6.31,0,0,1-3.8-2.2.26.26,0,0,0-.48.13h0c0,1.53,1.51,2.84,3.71,3.49a.26.26,0,0,0,.32-.18,2.69,2.69,0,0,1,.4-.84A.27.27,0,0,0,55.64,34.18Z"/><path class="cls-10" d="M86,38.81a10.76,10.76,0,0,1-7.88.72c-.89,1.57-3.44,2.71-6.45,2.71s-5.57-1.14-6.46-2.71a10.73,10.73,0,0,1-7.87-.72,3.9,3.9,0,0,1-1.85-2c-.44,1.25.17,2.6,1.85,3.57a10.73,10.73,0,0,0,7.87.72c.89,1.57,3.44,2.7,6.46,2.7s5.56-1.13,6.45-2.7A10.76,10.76,0,0,0,86,40.4c1.67-1,2.28-2.32,1.84-3.57A3.91,3.91,0,0,1,86,38.81Z"/><path class="cls-10" d="M87.46,34.59a2.69,2.69,0,0,1,.4.84.26.26,0,0,0,.32.18c2.2-.65,3.71-2,3.71-3.49h0a.26.26,0,0,0-.48-.13,6.28,6.28,0,0,1-3.79,2.2A.26.26,0,0,0,87.46,34.59Z"/><path class="cls-8" d="M86,23.85a10.81,10.81,0,0,0-7.88-.73c-.89-1.56-3.44-2.7-6.45-2.7s-5.57,1.14-6.46,2.7a10.78,10.78,0,0,0-7.87.73c-2.13,1.23-2.55,3.07-1.26,4.55-2.72.51-4.68,2-4.68,3.72s2,3.22,4.68,3.73c-1.29,1.47-.87,3.32,1.26,4.55a10.73,10.73,0,0,0,7.87.72c.89,1.57,3.44,2.7,6.46,2.7s5.56-1.13,6.45-2.7A10.76,10.76,0,0,0,86,40.4c2.13-1.23,2.54-3.08,1.25-4.55,2.72-.51,4.68-2,4.68-3.73s-2-3.21-4.68-3.72C88.5,26.92,88.09,25.08,86,23.85ZM74.7,36.4a11.47,11.47,0,0,0-6.15,0,4.37,4.37,0,0,0-1.65-1.55,8.5,8.5,0,0,0-2.69-1A2.71,2.71,0,0,0,65,32.12a2.66,2.66,0,0,0-.74-1.77,8.75,8.75,0,0,0,2.69-1,4.38,4.38,0,0,0,1.65-1.56,11.21,11.21,0,0,0,6.15,0,4.38,4.38,0,0,0,1.65,1.56,8.75,8.75,0,0,0,2.69,1,2.65,2.65,0,0,0-.73,1.77A2.7,2.7,0,0,0,79,33.9a8.5,8.5,0,0,0-2.69,1A4.37,4.37,0,0,0,74.7,36.4Z"/><path class="cls-10" d="M83.13,31.23c.07-1.76-1-3.52-3.36-4.86-4.5-2.6-11.79-2.6-16.29,0-2.32,1.34-3.43,3.1-3.36,4.86a1.5,1.5,0,0,0,0,.3,1.6,1.6,0,0,0,0,.31,1.5,1.5,0,0,0,0,.3c-.07,1.76,1,3.52,3.36,4.86,4.5,2.6,11.79,2.6,16.29,0,2.32-1.34,3.43-3.1,3.36-4.86a1.5,1.5,0,0,0,0-.3,1.6,1.6,0,0,0,0-.31A1.5,1.5,0,0,0,83.13,31.23Z"/><ellipse class="cls-10" cx="71.63" cy="30.77" rx="11.52" ry="6.65"/><ellipse class="cls-6" cx="71.63" cy="30.62" rx="10.87" ry="6.27"/><ellipse class="cls-11" cx="71.63" cy="29.74" rx="7.36" ry="4.25"/><line class="cls-8" x1="51.36" y1="32.12" x2="51.36" y2="32.12"/><line class="cls-12" x1="51.36" y1="26.09" x2="51.36" y2="11.02"/><line class="cls-8" x1="51.36" y1="8" x2="51.36" y2="8"/><line class="cls-8" x1="111.25" y1="42.24" x2="111.25" y2="42.24"/><line class="cls-12" x1="111.25" y1="36.21" x2="111.25" y2="21.13"/><line class="cls-8" x1="111.25" y1="18.11" x2="111.25" y2="18.11"/><rect class="cls-13" width="126" height="126"/></g></g></svg>