<svg xmlns="http://www.w3.org/2000/svg" xmlns:xlink="http://www.w3.org/1999/xlink" viewBox="0 0 126 127.8"><defs><style>.cls-1,.cls-12,.cls-5,.cls-6,.cls-9{fill:none;}.cls-10,.cls-2{fill:#fff;}.cls-2,.cls-3,.cls-4,.cls-5,.cls-6{stroke:#1b6dc6;}.cls-10,.cls-12,.cls-2,.cls-3,.cls-4,.cls-5,.cls-6,.cls-7,.cls-9{stroke-linecap:round;stroke-linejoin:round;stroke-width:2px;}.cls-3{fill:#bde4fd;}.cls-4{fill:#e9f6fe;}.cls-6{stroke-dasharray:0 6.48;}.cls-7{fill:#f2f4f6;}.cls-10,.cls-7,.cls-9{stroke:#627386;}.cls-8{fill:#d5dae0;}.cls-11{clip-path:url(#clip-path);}.cls-12{stroke:#f2f4f6;}</style><clipPath id="clip-path"><path class="cls-1" d="M117.5,84.8,65.77,54.94a5.78,5.78,0,0,0-5.22,0L8.82,84.8c-1.45.84-1.45,2.19,0,3l51.77,29.88a5.72,5.72,0,0,0,5.22,0l51.73-29.86C118.94,87,118.94,85.64,117.5,84.8Zm-46,6.32-11.43,6.6-4.19-9-4.18-9,15.62,2.42,15.62,2.42Z"/></clipPath></defs><title>no_access</title><g id="Layer_2" data-name="Layer 2"><g id="Layer_1-2" data-name="Layer 1"><g id="Layer_1-2-2" data-name="Layer 1-2"><rect class="cls-1" y="1" width="126" height="126"/><polygon class="cls-2" points="63 11.51 47.56 20.43 47.56 41.03 63 32.11 78.45 41.03 78.45 20.43 63 11.51"/><polygon class="cls-3" points="78.45 41.03 63 49.95 63 29.35 78.45 20.43 78.45 41.03"/><polygon class="cls-4" points="47.56 41.03 63 49.95 63 29.35 47.56 20.43 47.56 41.03"/><line class="cls-5" x1="47.55" y1="20.43" x2="47.55" y2="20.43"/><line class="cls-6" x1="47.55" y1="13.96" x2="47.55" y2="4.24"/><line class="cls-5" x1="47.55" y1="1" x2="47.55" y2="1"/><line class="cls-5" x1="78.45" y1="20.43" x2="78.45" y2="20.43"/><line class="cls-6" x1="78.45" y1="13.96" x2="78.45" y2="4.24"/><line class="cls-5" x1="78.45" y1="1" x2="78.45" y2="1"/><path class="cls-7" d="M118.59,86.31l-3.44,1.63L65.77,59.43a5.78,5.78,0,0,0-5.22,0L11.16,88,7.73,86.36v8.5h0a1.81,1.81,0,0,0,1.09,1.5l51.77,29.82a5.78,5.78,0,0,0,5.22,0l51.73-29.87a1.82,1.82,0,0,0,1.08-1.5h0Zm-51.28.29L82.92,89,71.48,95.6l-11.43,6.6-4.19-9-4.18-9Z"/><path class="cls-8" d="M63.8,126.77a4.87,4.87,0,0,0,2-.59l51.73-29.87a1.82,1.82,0,0,0,1.08-1.5v-8.5l-3.44,1.63-8.33-4.81-43,22.75Z"/><polygon class="cls-8" points="51.68 87.18 67.3 89.59 82.92 92.01 76.96 95.45 88.01 95.45 88.01 78.12 46.44 78.12 46.44 95.45 55.52 95.45 51.68 87.18"/><path class="cls-9" d="M118.59,86.31l-3.44,1.63L65.77,59.43a5.78,5.78,0,0,0-5.22,0L11.16,88,7.73,86.36v8.5h0a1.81,1.81,0,0,0,1.09,1.5l51.77,29.82a5.78,5.78,0,0,0,5.22,0l51.73-29.87a1.82,1.82,0,0,0,1.08-1.5h0ZM67.3,89.6,82.92,92,71.48,98.6l-11.43,6.6-4.19-9-4.18-9Z"/><path class="cls-10" d="M117.5,84.8,65.77,54.94a5.78,5.78,0,0,0-5.22,0L8.82,84.8c-1.45.84-1.45,2.19,0,3l51.77,29.88a5.72,5.72,0,0,0,5.22,0l51.73-29.86C118.94,87,118.94,85.64,117.5,84.8Zm-46,6.32-11.43,6.6-4.19-9-4.18-9,15.62,2.42,15.62,2.42Z"/><g class="cls-11"><path class="cls-12" d="M2.84,86.89C42.63,79.54,60.7,42,60.7,42"/><path class="cls-12" d="M10.53,91.72C50.74,85.16,71.07,48,71.07,48"/><path class="cls-12" d="M17.92,96.74C58.5,91,81.06,54.27,81.06,54.27"/><path class="cls-12" d="M25,101.88C65.9,97,90.67,60.72,90.67,60.72"/><path class="cls-12" d="M31.78,107.19C73,103.11,99.9,67.37,99.9,67.37"/><path class="cls-12" d="M38.22,112.6c41.4-3.26,70.49-38.41,70.49-38.41"/><path class="cls-12" d="M44.33,118.17c41.56-2.39,72.77-37,72.77-37"/></g><path class="cls-9" d="M117.5,84.8,65.77,54.94a5.78,5.78,0,0,0-5.22,0L8.82,84.8c-1.45.84-1.45,2.19,0,3l51.77,29.88a5.72,5.72,0,0,0,5.22,0l51.73-29.86C118.94,87,118.94,85.64,117.5,84.8Zm-46,6.32-11.43,6.6-4.19-9-4.18-9,15.62,2.42,15.62,2.42Z"/></g></g></g></svg>