<svg xmlns="http://www.w3.org/2000/svg" xmlns:xlink="http://www.w3.org/1999/xlink" width="179.41" height="133.17" viewBox="0 0 179.41 133.17"><defs><style>.cls-1,.cls-12,.cls-5,.cls-6,.cls-9{fill:none;}.cls-10,.cls-2{fill:#fff;}.cls-2,.cls-3,.cls-4,.cls-5,.cls-6{stroke:#1b6dc6;}.cls-10,.cls-12,.cls-2,.cls-3,.cls-4,.cls-5,.cls-6,.cls-7,.cls-9{stroke-linecap:round;stroke-linejoin:round;stroke-width:2px;}.cls-3{fill:#bde4fd;}.cls-4{fill:#e9f6fe;}.cls-6{stroke-dasharray:0 6.48;}.cls-7{fill:#f2f4f6;}.cls-10,.cls-7,.cls-9{stroke:#627386;}.cls-8{fill:#d5dae0;}.cls-11{clip-path:url(#clip-path);}.cls-12{stroke:#f2f4f6;}</style><clipPath id="clip-path"><path class="cls-1" d="M170.91,84.8,119.18,54.94a5.78,5.78,0,0,0-5.22,0L62.23,84.8c-1.45.84-1.45,2.19,0,3L114,117.68a5.72,5.72,0,0,0,5.22,0l51.73-29.86C172.35,87,172.35,85.64,170.91,84.8Zm-46,6.32-11.43,6.6-4.19-9-4.18-9,15.62,2.42,15.62,2.42Z"/></clipPath></defs><title>no_access</title><g id="Layer_2" data-name="Layer 2"><g id="Layer_1-2" data-name="Layer 1"><rect class="cls-1" x="53.41" y="1" width="126" height="126"/><polygon class="cls-2" points="116.41 11.51 100.97 20.43 100.97 41.03 116.41 32.11 131.86 41.03 131.86 20.43 116.41 11.51"/><polygon class="cls-3" points="131.86 41.03 116.41 49.95 116.41 29.35 131.86 20.43 131.86 41.03"/><polygon class="cls-4" points="100.97 41.03 116.41 49.95 116.41 29.35 100.97 20.43 100.97 41.03"/><line class="cls-5" x1="100.96" y1="20.43" x2="100.96" y2="20.43"/><line class="cls-6" x1="100.96" y1="13.96" x2="100.96" y2="4.24"/><line class="cls-5" x1="100.96" y1="1" x2="100.96" y2="1"/><line class="cls-5" x1="131.86" y1="20.43" x2="131.86" y2="20.43"/><line class="cls-6" x1="131.86" y1="13.96" x2="131.86" y2="4.24"/><line class="cls-5" x1="131.86" y1="1" x2="131.86" y2="1"/><path class="cls-7" d="M172,86.31l-3.44,1.63L119.18,59.43a5.78,5.78,0,0,0-5.22,0L64.57,88l-3.43-1.64v8.5h0a1.82,1.82,0,0,0,1.09,1.5L114,126.18a5.78,5.78,0,0,0,5.22,0l51.73-29.87a1.82,1.82,0,0,0,1.08-1.5h0Zm-51.28.29L136.33,89l-11.44,6.6-11.43,6.6-4.19-9-4.18-9Z"/><path class="cls-8" d="M117.21,126.77a5,5,0,0,0,2-.59l51.73-29.87a1.82,1.82,0,0,0,1.08-1.5v-8.5l-3.44,1.63-8.33-4.81-43,22.75Z"/><polygon class="cls-8" points="105.09 87.18 120.71 89.59 136.33 92.01 130.37 95.45 141.42 95.45 141.42 78.12 99.85 78.12 99.85 95.45 108.93 95.45 105.09 87.18"/><path class="cls-9" d="M172,86.31l-3.44,1.63L119.18,59.43a5.78,5.78,0,0,0-5.22,0L64.57,88l-3.43-1.64v8.5h0a1.82,1.82,0,0,0,1.09,1.5L114,126.18a5.78,5.78,0,0,0,5.22,0l51.73-29.87a1.82,1.82,0,0,0,1.08-1.5h0ZM120.71,89.6,136.33,92l-11.44,6.6-11.43,6.6-4.19-9-4.18-9Z"/><path class="cls-10" d="M170.91,84.8,119.18,54.94a5.78,5.78,0,0,0-5.22,0L62.23,84.8c-1.45.84-1.45,2.19,0,3L114,117.68a5.72,5.72,0,0,0,5.22,0l51.73-29.86C172.35,87,172.35,85.64,170.91,84.8Zm-46,6.32-11.43,6.6-4.19-9-4.18-9,15.62,2.42,15.62,2.42Z"/><g class="cls-11"><path class="cls-12" d="M1,108S16.46,94.24,56.25,86.89,114.11,42,114.11,42"/><path class="cls-12" d="M7.44,111.72s16.29-13.44,56.5-20S124.48,48,124.48,48"/><path class="cls-12" d="M13.66,115.57s17.09-13.11,57.67-18.83,63.14-42.47,63.14-42.47"/><path class="cls-12" d="M19.64,119.54s17.87-12.75,58.77-17.66,65.67-41.16,65.67-41.16"/><path class="cls-12" d="M25.38,123.65S44,111.27,85.19,107.19s68.12-39.82,68.12-39.82"/><path class="cls-12" d="M30.87,127.86s19.36-12,60.76-15.26,70.49-38.41,70.49-38.41"/><path class="cls-12" d="M36.09,132.17s20.09-11.61,61.65-14,72.77-37,72.77-37"/></g><path class="cls-9" d="M170.91,84.8,119.18,54.94a5.78,5.78,0,0,0-5.22,0L62.23,84.8c-1.45.84-1.45,2.19,0,3L114,117.68a5.72,5.72,0,0,0,5.22,0l51.73-29.86C172.35,87,172.35,85.64,170.91,84.8Zm-46,6.32-11.43,6.6-4.19-9-4.18-9,15.62,2.42,15.62,2.42Z"/></g></g></svg>