<svg xmlns="http://www.w3.org/2000/svg" width="128" height="127" viewBox="0 0 128 127"><defs><style>.cls-1,.cls-4{fill:#fff;}.cls-1,.cls-2{stroke:#d5dae0;}.cls-1,.cls-10,.cls-12,.cls-13,.cls-2,.cls-3,.cls-4,.cls-5,.cls-6,.cls-7,.cls-8,.cls-9{stroke-linecap:round;stroke-linejoin:round;stroke-width:2px;}.cls-10,.cls-11,.cls-2,.cls-6,.cls-7,.cls-8,.cls-9{fill:none;}.cls-3{fill:#f2f4f6;}.cls-3,.cls-4,.cls-5,.cls-6{stroke:#627386;}.cls-5{fill:#d5dae0;}.cls-7{stroke:#b8bfca;}.cls-10,.cls-12,.cls-13,.cls-8,.cls-9{stroke:#1b6dc6;}.cls-9{stroke-dasharray:0 5.53;}.cls-10{stroke-dasharray:0 5.86;}.cls-12{fill:#91d2fb;}.cls-13{fill:#e9f6fe;}.cls-14{fill:#bde4fd;}</style></defs><title>policies</title><g id="Layer_2" data-name="Layer 2"><g id="Layer_1-2" data-name="Layer 1"><polygon class="cls-1" points="1 95.88 53.18 126 127 83.38 74.82 57.45 1 95.88"/><line class="cls-2" x1="119.7" y1="80.59" x2="119.7" y2="87.59"/><polygon class="cls-3" points="53.18 126 53.18 119 127 76.38 127 83.38 53.18 126"/><polygon class="cls-4" points="53.18 126 53.18 119 1 88.88 1 95.88 53.18 126"/><polygon class="cls-5" points="8.3 100.09 1 95.88 1 88.88 8.3 93.09 8.3 100.09"/><polygon class="cls-6" points="53.18 126 53.18 119 1 88.88 1 95.88 53.18 126"/><polygon class="cls-6" points="53.18 126 53.18 119 127 76.38 127 83.38 53.18 126"/><polygon class="cls-1" points="1 88.88 53.18 119 127 76.38 74.82 46.25 1 88.88"/><polygon class="cls-3" points="82.12 50.47 8.3 93.09 1 88.88 74.82 46.25 82.12 50.47"/><polygon class="cls-6" points="1 88.88 53.18 119 127 76.38 74.82 46.25 1 88.88"/><polygon class="cls-7" points="48.85 84.36 28.7 95.99 22.75 92.56 42.9 80.92 48.85 84.36"/><polygon class="cls-7" points="61.25 91.52 41.1 103.15 35.15 99.72 55.3 88.08 61.25 91.52"/><polygon class="cls-7" points="84.69 63.66 64.54 75.3 58.59 71.86 78.75 60.23 84.69 63.66"/><polygon class="cls-7" points="97.09 70.82 76.94 82.46 71 79.02 91.15 67.39 97.09 70.82"/><line class="cls-7" x1="106.33" y1="76.38" x2="86.37" y2="87.9"/><path class="cls-7" d="M74,80.74c-10.08,5.82-18-3.91-28.09,1.9"/><path class="cls-7" d="M61.57,73.58C51.49,79.4,68.35,84,58.28,89.8"/><polygon class="cls-7" points="73.65 98.68 53.5 110.31 47.55 106.88 67.7 95.24 73.65 98.68"/><path class="cls-7" d="M74,80.74C63.89,86.56,80.75,91.14,70.68,97"/><line class="cls-8" x1="55.58" y1="35.63" x2="55.58" y2="35.63"/><line class="cls-9" x1="55.58" y1="30.11" x2="55.58" y2="10.76"/><line class="cls-8" x1="55.58" y1="8" x2="55.58" y2="8"/><line class="cls-8" x1="112.08" y1="31.17" x2="112.08" y2="31.17"/><line class="cls-10" x1="112.08" y1="25.31" x2="112.08" y2="10.66"/><line class="cls-8" x1="112.08" y1="7.73" x2="112.08" y2="7.73"/><rect class="cls-11" x="0.8" width="126" height="126"/><path class="cls-12" d="M112.08,38.87l-1.16-.07a9,9,0,0,0-3.33-3.15L85.35,22.8,62.45,36l-6.87-.39v5.81L77.83,54.28c9.55,5.51,30.67.53,30.67.53s3.58-5.07,3.58-10.14h0Z"/><path class="cls-13" d="M85.35,18.45,55.58,35.63,77.83,48.48C87.38,54,108.5,49,108.5,49s8.64-12.2-.91-17.71Z"/><path class="cls-14" d="M107.59,31.29,85.35,18.45,70.47,27l38,22h0S117.14,36.8,107.59,31.29Z"/><path class="cls-8" d="M85.35,18.45,55.58,35.63,77.83,48.48C87.38,54,108.5,49,108.5,49s8.64-12.2-.91-17.71Z"/><polygon class="cls-8" points="92.59 39.81 90.11 44.42 85.28 40.48 76.92 40.55 81.92 36.68 79.24 32.1 87.16 33.66 93.86 30.77 93.75 35.59 100.58 38.38 92.59 39.81"/></g></g></svg>