<svg xmlns="http://www.w3.org/2000/svg" width="126" height="128" viewBox="0 0 126 128"><defs><style>.cls-1,.cls-11,.cls-2,.cls-3,.cls-5,.cls-7,.cls-8{fill:none;}.cls-1,.cls-10,.cls-2,.cls-3,.cls-9{stroke:#1b6dc6;}.cls-1,.cls-10,.cls-11,.cls-2,.cls-3,.cls-4,.cls-5,.cls-6,.cls-8,.cls-9{stroke-linecap:round;stroke-linejoin:round;stroke-width:2px;}.cls-2{stroke-dasharray:0 5.84;}.cls-3{stroke-dasharray:0 5.91;}.cls-4{fill:#d5dae0;}.cls-4,.cls-5,.cls-6{stroke:#627386;}.cls-6{fill:#fff;}.cls-8{stroke:#d5dae0;}.cls-9{fill:#bde4fd;}.cls-10{fill:#e9f6fe;}.cls-11{stroke:#91d2fb;}</style></defs><title>roles_02</title><g id="Layer_2" data-name="Layer 2"><g id="Layer_4" data-name="Layer 4"><line class="cls-1" x1="81.09" y1="55.6" x2="81.09" y2="55.6"/><line class="cls-2" x1="81.09" y1="49.76" x2="81.09" y2="29.32"/><line class="cls-1" x1="81.09" y1="26.4" x2="81.09" y2="26.4"/><line class="cls-1" x1="44.81" y1="58.9" x2="44.81" y2="58.9"/><line class="cls-3" x1="44.81" y1="52.99" x2="44.81" y2="32.31"/><line class="cls-1" x1="44.81" y1="29.35" x2="44.81" y2="29.35"/><path class="cls-4" d="M93.19,74.86l8.62,14.92a.68.68,0,0,1-.92.93L88.38,83.48a3.53,3.53,0,0,1-1.32-1.31l-10.39-16a.68.68,0,0,1,.92-.93l14.28,8.25A3.56,3.56,0,0,1,93.19,74.86Z"/><path class="cls-5" d="M93.19,74.86l8.62,14.92a.68.68,0,0,1-.92.93L89.71,84.25a3.49,3.49,0,0,1-1.32-1.32L76.67,66.22a.68.68,0,0,1,.92-.93l14.28,8.25A3.56,3.56,0,0,1,93.19,74.86Z"/><path class="cls-6" d="M74.69,66.09l-9,26.09a2.24,2.24,0,0,0,1,2.69l13.8,8a1.81,1.81,0,0,0,2.61-1l9-26.09a2.25,2.25,0,0,0-1-2.68l-13.81-8A1.81,1.81,0,0,0,74.69,66.09Z"/><polygon class="cls-7" points="75.41 64.03 65.05 93.94 82.35 103.93 92.71 74.03 75.41 64.03"/><polygon class="cls-8" points="70.19 91.84 77.62 70.38 87.57 76.12 80.14 97.58 70.19 91.84"/><path class="cls-4" d="M72.48,86.82l8.61,14.92a.68.68,0,0,1-.92.93L67.66,95.44a3.61,3.61,0,0,1-1.32-1.31L56,78.18a.68.68,0,0,1,.92-.93L71.16,85.5A3.63,3.63,0,0,1,72.48,86.82Z"/><path class="cls-5" d="M72.48,86.82l8.61,14.92a.68.68,0,0,1-.92.93L69,96.21a3.56,3.56,0,0,1-1.32-1.32L56,78.18a.68.68,0,0,1,.92-.93L71.16,85.5A3.63,3.63,0,0,1,72.48,86.82Z"/><path class="cls-6" d="M54,78.06l-9,26.08a2.26,2.26,0,0,0,1,2.69l13.81,8a1.8,1.8,0,0,0,2.6-1l9-26.09a2.23,2.23,0,0,0-1-2.68l-13.8-8A1.81,1.81,0,0,0,54,78.06Z"/><polygon class="cls-7" points="54.69 76 44.33 105.9 61.63 115.89 71.99 85.99 54.69 76"/><polygon class="cls-8" points="49.47 103.8 56.9 82.34 66.85 88.08 59.42 109.54 49.47 103.8"/><path class="cls-4" d="M51.76,98.78l8.61,14.92a.68.68,0,0,1-.92.93l-12.51-7.22a3.79,3.79,0,0,1-1.32-1.32l-10.39-16a.67.67,0,0,1,.92-.92l14.29,8.24A3.63,3.63,0,0,1,51.76,98.78Z"/><path class="cls-5" d="M51.76,98.78l8.61,14.92a.68.68,0,0,1-.92.93l-11.18-6.46A3.53,3.53,0,0,1,47,106.85L35.23,90.14a.67.67,0,0,1,.92-.92l14.29,8.24A3.63,3.63,0,0,1,51.76,98.78Z"/><path class="cls-6" d="M33.26,90l-9,26.08a2.26,2.26,0,0,0,1,2.69l13.81,8a1.8,1.8,0,0,0,2.6-1l9-26.09a2.25,2.25,0,0,0-1-2.68l-13.81-8A1.8,1.8,0,0,0,33.26,90Z"/><polygon class="cls-8" points="28.75 115.76 36.19 94.3 46.13 100.05 38.7 121.5 28.75 115.76"/><path class="cls-4" d="M82.83,56.92l8.62,14.92a.67.67,0,0,1-.92.92L78,65.54a3.56,3.56,0,0,1-1.32-1.32L66.31,48.28a.68.68,0,0,1,.92-.93L81.52,55.6A3.61,3.61,0,0,1,82.83,56.92Z"/><path class="cls-5" d="M82.83,56.92l8.62,14.92a.67.67,0,0,1-.92.92L79.35,66.31A3.63,3.63,0,0,1,78,65L66.31,48.28a.68.68,0,0,1,.92-.93L81.52,55.6A3.61,3.61,0,0,1,82.83,56.92Z"/><path class="cls-6" d="M64.33,48.15l-9,26.09a2.23,2.23,0,0,0,1,2.68l13.8,8a1.82,1.82,0,0,0,2.61-1l9-26.09a2.24,2.24,0,0,0-1-2.69l-13.8-8A1.81,1.81,0,0,0,64.33,48.15Z"/><polygon class="cls-7" points="65.05 46.09 54.69 76 71.99 85.99 82.35 56.08 65.05 46.09"/><polygon class="cls-8" points="59.83 73.9 67.26 52.44 77.21 58.18 69.78 79.64 59.83 73.9"/><path class="cls-4" d="M62.12,68.88,70.73,83.8a.68.68,0,0,1-.92.93L57.3,77.5A3.61,3.61,0,0,1,56,76.19L45.59,60.24a.68.68,0,0,1,.92-.93L60.8,67.56A3.63,3.63,0,0,1,62.12,68.88Z"/><path class="cls-5" d="M62.12,68.88,70.73,83.8a.68.68,0,0,1-.92.93L58.63,78.27A3.56,3.56,0,0,1,57.31,77L45.59,60.24a.68.68,0,0,1,.92-.93L60.8,67.56A3.63,3.63,0,0,1,62.12,68.88Z"/><path class="cls-6" d="M43.62,60.11l-9,26.09a2.26,2.26,0,0,0,1,2.69l13.81,8a1.81,1.81,0,0,0,2.6-1L61,69.8a2.26,2.26,0,0,0-1-2.69l-13.8-8A1.81,1.81,0,0,0,43.62,60.11Z"/><polygon class="cls-7" points="44.33 58.05 33.97 87.95 51.28 97.95 61.63 68.05 44.33 58.05"/><polygon class="cls-8" points="39.11 85.86 46.55 64.4 56.49 70.14 49.06 91.6 39.11 85.86"/><path class="cls-9" d="M72.48,11,81.09,25.9a.67.67,0,0,1-.92.92L67.66,19.6a3.56,3.56,0,0,1-1.32-1.32L56,2.33a.67.67,0,0,1,.92-.92L71.16,9.66A3.63,3.63,0,0,1,72.48,11Z"/><path class="cls-10" d="M54,2.21l-9,26.09a2.25,2.25,0,0,0,1,2.68l13.81,8a1.8,1.8,0,0,0,2.6-1l9-26.08a2.24,2.24,0,0,0-1-2.69l-13.8-8A1.81,1.81,0,0,0,54,2.21Z"/><polygon class="cls-11" points="49.47 27.95 56.9 6.5 66.85 12.24 59.42 33.7 49.47 27.95"/><rect class="cls-7" y="1" width="126" height="126"/></g></g></svg>