<svg xmlns="http://www.w3.org/2000/svg" width="126" height="126" viewBox="0 0 126 126"><defs><style>.cls-1,.cls-10,.cls-13,.cls-2{fill:none;}.cls-1,.cls-2,.cls-3,.cls-5{stroke:#1b6dc6;}.cls-1,.cls-10,.cls-11,.cls-12,.cls-2,.cls-3,.cls-5,.cls-8{stroke-linecap:round;stroke-linejoin:round;stroke-width:2px;}.cls-2{stroke-dasharray:0 5.37;}.cls-3,.cls-6{fill:#bde4fd;}.cls-4{fill:#d3edfd;}.cls-5{fill:#e9f6fe;}.cls-12,.cls-7{fill:#f2f4f6;}.cls-8,.cls-9{fill:#d5dae0;}.cls-10,.cls-11,.cls-12,.cls-8{stroke:#627386;}.cls-11{fill:#fff;}</style></defs><title>settings</title><g id="Layer_2" data-name="Layer 2"><g id="Layer_4" data-name="Layer 4"><line class="cls-1" x1="60.85" y1="26.49" x2="60.85" y2="26.49"/><line class="cls-2" x1="60.85" y1="21.12" x2="60.85" y2="7.69"/><line class="cls-1" x1="60.85" y1="5" x2="60.85" y2="5"/><line class="cls-1" x1="12.75" y1="26.49" x2="12.75" y2="26.49"/><line class="cls-2" x1="12.75" y1="21.12" x2="12.75" y2="7.69"/><line class="cls-1" x1="12.75" y1="5" x2="12.75" y2="5"/><path class="cls-3" d="M42.5,26.49v-.13c0-.64-.91-1.16-2-1.16H33.13c-1.12,0-2,.52-2,1.16v.13H12.75V46.88h0a.86.86,0,0,0,.27.59l3.67,3.67a2.94,2.94,0,0,0,2.77.42L24.25,50a24.3,24.3,0,0,0,6.85,2.28v3.2c0,.64.91,1.16,2,1.16h7.34c1.12,0,2-.52,2-1.16v-3.2A24.3,24.3,0,0,0,49.35,50l4.79,1.59a2.94,2.94,0,0,0,2.77-.42l3.67-3.67a.86.86,0,0,0,.27-.59h0V26.49Z"/><path class="cls-4" d="M49.35,50h0l4.79,1.59a3.3,3.3,0,0,0,1.43.13V33H49.35Z"/><path class="cls-4" d="M13,47.47l3.67,3.67a2.66,2.66,0,0,0,1.86.58V26.49h-5.8V46.88h0A.86.86,0,0,0,13,47.47Z"/><path class="cls-4" d="M24.25,50a24.3,24.3,0,0,0,6.85,2.28V31H24.25V50Z"/><ellipse class="cls-4" cx="36.8" cy="31.38" rx="8.44" ry="4.87"/><line class="cls-5" x1="12.75" y1="34.33" x2="12.75" y2="44.77"/><line class="cls-5" x1="24.25" y1="37.42" x2="24.25" y2="49.97"/><line class="cls-5" x1="31.1" y1="42.9" x2="31.1" y2="55.45"/><line class="cls-5" x1="42.5" y1="42.9" x2="42.5" y2="55.45"/><line class="cls-5" x1="49.35" y1="37.42" x2="49.35" y2="49.97"/><path class="cls-6" d="M28.36,31.38c0,2.7,3.78,4.88,8.44,4.88V26.51C32.14,26.51,28.36,28.69,28.36,31.38Z"/><ellipse class="cls-1" cx="36.8" cy="31.38" rx="8.44" ry="4.87"/><path class="cls-1" d="M12.75,26.49V46.88h0a.86.86,0,0,0,.27.59l3.67,3.67a2.94,2.94,0,0,0,2.77.42L24.25,50a24.3,24.3,0,0,0,6.85,2.28v3.2c0,.64.91,1.16,2,1.16h7.34c1.12,0,2-.52,2-1.16v-3.2A24.3,24.3,0,0,0,49.35,50l4.79,1.59a2.94,2.94,0,0,0,2.77-.42l3.67-3.67a.86.86,0,0,0,.27-.59h0V26.49"/><path class="cls-5" d="M59.83,35.27l-4.78-1.6a6.43,6.43,0,0,0,0-4.57l4.78-1.6c1-.32,1.31-1,.75-1.59l-3.67-3.67a2.94,2.94,0,0,0-2.77-.43L49.35,23.4a24.3,24.3,0,0,0-6.85-2.28V17.93c0-.65-.91-1.17-2-1.17H33.13c-1.12,0-2,.52-2,1.17v3.19a24.3,24.3,0,0,0-6.85,2.28l-4.79-1.59a2.94,2.94,0,0,0-2.77.43L13,25.91c-.56.56-.22,1.27.74,1.59l4.79,1.6a6.43,6.43,0,0,0,0,4.57l-4.79,1.6c-1,.32-1.3,1-.74,1.59l3.67,3.67a3,3,0,0,0,2.77.43l4.79-1.59a24.3,24.3,0,0,0,6.85,2.28v3.19c0,.65.91,1.17,2,1.17h7.34c1.12,0,2-.52,2-1.17V41.65a24.3,24.3,0,0,0,6.85-2.28L54.14,41a3,3,0,0,0,2.77-.43l3.67-3.67C61.14,36.3,60.8,35.59,59.83,35.27Zm-23,1c-4.66,0-8.44-2.18-8.44-4.88s3.78-4.87,8.44-4.87,8.44,2.18,8.44,4.87S41.46,36.26,36.8,36.26Z"/><path class="cls-7" d="M103.2,53.52a2.06,2.06,0,0,0-.71-.37l-7.21-2.41a3.36,3.36,0,0,0-3.14.49l-1.26,1.26L77,51.33l-.1-.1a3.36,3.36,0,0,0-3.14-.49L73,51,55.78,49.55v12h0v4.81c0,.73,1,1.33,2.3,1.33h6.27a10,10,0,0,0,1,1.52v6.76h0c0,.46.41.91,1.14,1.15l7.21,2.41A3.39,3.39,0,0,0,76.89,79L80,75.86a36.46,36.46,0,0,0,9,0L92.14,79a3.39,3.39,0,0,0,3.14.49l7.21-2.41c.73-.24,1.14-.69,1.14-1.15h0V69.17a11.09,11.09,0,0,0,1-1.52H111c1.27,0,2.3-.6,2.3-1.33v-12Z"/><path class="cls-8" d="M102.49,53.15l-3.23-1.08V70.51h4.38V69.17a11.09,11.09,0,0,0,1-1.52H111c1.27,0,2.3-.6,2.3-1.33v-12l-10-.84A2.06,2.06,0,0,0,102.49,53.15Z"/><path class="cls-9" d="M64.35,52H55.78v9.55h0v4.81c0,.73,1,1.33,2.3,1.33h6.27Z"/><path class="cls-7" d="M94.89,60V79.59A3.27,3.27,0,0,1,92.14,79L89,75.86V60Z"/><path class="cls-9" d="M94.89,79.59l.39-.1,7.21-2.41c.73-.24,1.14-.69,1.14-1.15h0V69.17h0V63.82H94.89Z"/><path class="cls-9" d="M74.15,60V79.59A3.26,3.26,0,0,0,76.89,79L80,75.86V60Z"/><path class="cls-8" d="M89,58.87H80v17a36.46,36.46,0,0,0,9,0h0Z"/><polyline class="cls-8" points="103.64 53.1 103.64 39.94 84.59 40.45 65.39 39.94 65.39 53.1"/><line class="cls-10" x1="65.39" y1="69.17" x2="65.39" y2="63.82"/><line class="cls-10" x1="103.64" y1="69.17" x2="103.64" y2="63.82"/><path class="cls-11" d="M111,48.23h-6.27a10.66,10.66,0,0,0-1.83-2.39,15.21,15.21,0,0,0-2.66-2.1l3.14-3.14c.63-.63.26-1.44-.84-1.81l-7.21-2.4a3.36,3.36,0,0,0-3.14.48L89,40a35.9,35.9,0,0,0-9,0l-3.14-3.14a3.36,3.36,0,0,0-3.14-.48l-7.21,2.4c-1.1.37-1.47,1.18-.84,1.81l3.14,3.14a12.9,12.9,0,0,0-4.49,4.49H58.08c-1.27,0-2.3.59-2.3,1.32v4.81c0,.73,1,1.33,2.3,1.33h6.27a10.84,10.84,0,0,0,1.83,2.38,15.21,15.21,0,0,0,2.66,2.1L65.7,63.31c-.63.63-.26,1.45.84,1.81l7.21,2.4A3.36,3.36,0,0,0,76.89,67L80,63.9a36.46,36.46,0,0,0,9,0L92.14,67a3.36,3.36,0,0,0,3.14.48l7.21-2.4c1.1-.36,1.47-1.18.84-1.81l-3.14-3.13a13,13,0,0,0,4.49-4.49H111c1.27,0,2.3-.6,2.3-1.33V49.55C113.25,48.82,112.22,48.23,111,48.23ZM89.3,56.74c-4.58,1.53-10.43.62-13.07-2s-1.08-6,3.5-7.55,10.43-.62,13.07,2S93.88,55.22,89.3,56.74Z"/><line class="cls-10" x1="80.03" y1="63.9" x2="80.03" y2="75.86"/><line class="cls-10" x1="89.01" y1="63.91" x2="89.01" y2="75.87"/><line class="cls-11" x1="103.64" y1="63.82" x2="103.64" y2="75.93"/><path class="cls-10" d="M55.78,49.55v12h0v4.81c0,.73,1,1.33,2.3,1.33h6.27a10,10,0,0,0,1,1.52v6.76h0c0,.46.41.91,1.14,1.15l7.21,2.41A3.39,3.39,0,0,0,76.89,79L80,75.86a36.46,36.46,0,0,0,9,0L92.14,79a3.39,3.39,0,0,0,3.14.49l7.21-2.41c.73-.24,1.14-.69,1.14-1.15h0V69.17a11.09,11.09,0,0,0,1-1.52H111c1.27,0,2.3-.6,2.3-1.33v-12"/><ellipse class="cls-9" cx="84.52" cy="51.96" rx="9.57" ry="5.53"/><path class="cls-7" d="M84.52,46.43v11a15.36,15.36,0,0,0,4.78-.74c4.58-1.52,6.15-4.9,3.5-7.55C91,47.42,87.82,46.43,84.52,46.43Z"/><ellipse class="cls-10" cx="84.52" cy="51.96" rx="9.57" ry="5.53"/><path class="cls-8" d="M63,77.47v-.19c0-1-1.34-1.73-3-1.73H49.17c-1.65,0-3,.78-3,1.73v.19H19.07v27.16h0a1.19,1.19,0,0,0,.4.86l5.42,5.42a4.33,4.33,0,0,0,4.08.63l7.08-2.36a35.63,35.63,0,0,0,10.12,3.38v4.71c0,1,1.34,1.73,3,1.73H60c1.65,0,3-.77,3-1.73v-4.71a35.63,35.63,0,0,0,10.12-3.38l7.07,2.36a4.35,4.35,0,0,0,4.09-.63l5.42-5.42a1.23,1.23,0,0,0,.4-.86h0V77.47Z"/><path class="cls-7" d="M73.12,109.18h0l7.07,2.36a4.92,4.92,0,0,0,2.12.19V87H73.12Z"/><path class="cls-7" d="M19.48,105.49l5.42,5.42a3.86,3.86,0,0,0,2.74.86V77.47H19.07v27.16h0A1.19,1.19,0,0,0,19.48,105.49Z"/><path class="cls-12" d="M36.06,109.18a35.63,35.63,0,0,0,10.12,3.38V84.12H36.06v25.06Z"/><ellipse class="cls-12" cx="54.59" cy="84.7" rx="12.46" ry="7.19"/><line class="cls-10" x1="19.07" y1="89.05" x2="19.07" y2="101.51"/><line class="cls-10" x1="36.06" y1="93.61" x2="36.06" y2="109.18"/><line class="cls-10" x1="46.18" y1="101.7" x2="46.18" y2="117.27"/><line class="cls-10" x1="63" y1="101.7" x2="63" y2="117.27"/><line class="cls-10" x1="73.12" y1="93.61" x2="73.12" y2="109.18"/><path class="cls-9" d="M42.13,84.7c0,4,5.58,7.19,12.46,7.19V77.5C47.71,77.5,42.13,80.72,42.13,84.7Z"/><ellipse class="cls-10" cx="54.59" cy="84.7" rx="12.46" ry="7.19"/><path class="cls-10" d="M19.07,77.47v27.16h0a1.19,1.19,0,0,0,.4.86l5.42,5.42a4.33,4.33,0,0,0,4.08.63l7.08-2.36a35.63,35.63,0,0,0,10.12,3.38v4.71c0,1,1.34,1.73,3,1.73H60c1.65,0,3-.77,3-1.73v-4.71a35.63,35.63,0,0,0,10.12-3.38l7.07,2.36a4.35,4.35,0,0,0,4.09-.63l5.42-5.42a1.23,1.23,0,0,0,.4-.86h0V77.47"/><path class="cls-11" d="M88.61,90.43l-7.07-2.36a9.5,9.5,0,0,0,0-6.75L88.61,79c1.43-.47,1.92-1.53,1.09-2.36l-5.42-5.42a4.41,4.41,0,0,0-4.09-.63l-7.07,2.36A35.94,35.94,0,0,0,63,69.53V64.82c0-.95-1.34-1.73-3-1.73H49.17c-1.65,0-3,.78-3,1.73v4.71a35.94,35.94,0,0,0-10.12,3.38L29,70.55a4.39,4.39,0,0,0-4.08.63L19.48,76.6c-.83.83-.34,1.89,1.09,2.36l7.07,2.36a9.5,9.5,0,0,0,0,6.75l-7.07,2.36c-1.43.47-1.92,1.53-1.09,2.36l5.42,5.42a4.36,4.36,0,0,0,4.08.63l7.08-2.36a35.94,35.94,0,0,0,10.12,3.38v4.71c0,1,1.34,1.73,3,1.73H60c1.65,0,3-.78,3-1.73V99.86a35.94,35.94,0,0,0,10.12-3.38l7.07,2.36a4.38,4.38,0,0,0,4.09-.63l5.42-5.42C90.53,92,90,90.9,88.61,90.43Zm-34,1.46c-6.88,0-12.46-3.22-12.46-7.19s5.58-7.2,12.46-7.2,12.46,3.22,12.46,7.2S61.47,91.89,54.59,91.89Z"/><rect class="cls-13" width="126" height="126"/></g></g></svg>