<svg xmlns="http://www.w3.org/2000/svg" width="128.04" height="126" viewBox="0 0 128.04 126"><defs><style>.cls-1,.cls-10,.cls-12,.cls-2,.cls-3{fill:none;}.cls-1{stroke:#d5dae0;stroke-dasharray:0 6.04;}.cls-1,.cls-10,.cls-11,.cls-2,.cls-3,.cls-4,.cls-6,.cls-7{stroke-linecap:round;stroke-linejoin:round;stroke-width:2px;}.cls-2,.cls-3,.cls-4,.cls-6{stroke:#1b6dc6;}.cls-3{stroke-dasharray:0 5.37;}.cls-4{fill:#d3edfd;}.cls-5{fill:#bde4fd;}.cls-6{fill:#e9f6fe;}.cls-7,.cls-8{fill:#d5dae0;}.cls-10,.cls-11,.cls-7{stroke:#627386;}.cls-9{fill:#b8bfca;}.cls-11{fill:#f2f4f6;}</style></defs><title>tasks</title><g id="Layer_2" data-name="Layer 2"><g id="Layer_4" data-name="Layer 4"><ellipse class="cls-1" cx="29.74" cy="93.31" rx="28.74" ry="16.59"/><line class="cls-2" x1="92.76" y1="10.5" x2="92.76" y2="10.5"/><line class="cls-3" x1="92.76" y1="15.87" x2="92.76" y2="23.94"/><line class="cls-2" x1="92.76" y1="26.62" x2="92.76" y2="26.62"/><line class="cls-2" x1="35.28" y1="10.5" x2="35.28" y2="10.5"/><line class="cls-3" x1="35.28" y1="15.87" x2="35.28" y2="23.94"/><line class="cls-2" x1="35.28" y1="26.62" x2="35.28" y2="26.62"/><path class="cls-4" d="M45.26,23.81v17l8.25,5.6C55.08,44,59.18,42.2,64,42.2S73,44,74.53,46.45h3.86V23.81Z"/><path class="cls-5" d="M45.26,23.81v17l8.25,5.6C55.08,44,59.18,42.2,64,42.2V23.81Z"/><path class="cls-2" d="M45.26,23.81v17l8.25,5.6C55.08,44,59.18,42.2,64,42.2S73,44,74.53,46.45h3.86V23.81Z"/><path class="cls-4" d="M83.2,28.37c-1.71,3.74-3.29,7.26-4.34,9.69a7.12,7.12,0,0,1,2.4,5.07c0,5.5-7.72,5.95-17.24,5.95s-17.24-.45-17.24-5.95a7.08,7.08,0,0,1,2.33-5c-1.13-2.38-2.68-5.86-4.35-9.7a35.89,35.89,0,0,0-6.88,6.47h-2.6V48.66c0,9.17,12.87,16.6,28.74,16.6s28.74-7.43,28.74-16.6V34.9h-2.6A35.79,35.79,0,0,0,83.2,28.37Z"/><path class="cls-5" d="M81.26,43.06C81.26,48.56,73.54,45,64,45V65.26c15.87,0,28.74-7.43,28.74-16.6V33.5H91.17L80.48,37.42C81,38.36,81.26,42,81.26,43.06Z"/><path class="cls-2" d="M83.2,28.37c-1.71,3.74-3.29,7.26-4.34,9.69a7.12,7.12,0,0,1,2.4,5.07c0,5.5-7.72,5.95-17.24,5.95s-17.24-.45-17.24-5.95a7.08,7.08,0,0,1,2.33-5c-1.13-2.38-2.68-5.86-4.35-9.7a35.89,35.89,0,0,0-6.88,6.47h-2.6V48.66c0,9.17,12.87,16.6,28.74,16.6s28.74-7.43,28.74-16.6V34.9h-2.6A35.79,35.79,0,0,0,83.2,28.37Z"/><path class="cls-6" d="M64,18.3c-15.87,0-28.74,7.43-28.74,16.6S48.15,51.49,64,51.49,92.76,44.06,92.76,34.9,79.89,18.3,64,18.3Zm0,23.06c-6.19,0-11.2-2.89-11.2-6.46s5-6.47,11.2-6.47,11.2,2.89,11.2,6.47S70.21,41.36,64,41.36Z"/><rect class="cls-7" x="29.74" y="73.07" width="13.85" height="13.85"/><path class="cls-8" d="M48.92,73c-1.72,3.75-3.29,7.26-4.35,9.69A7.11,7.11,0,0,1,47,87.77c0,5.5-7.72,6-17.24,6s-17.24-.45-17.24-6a7.08,7.08,0,0,1,2.32-5c-1.12-2.38-2.67,3.08-4.34-.76-2.88,2.1-5.24,2.45-6.88,4.52l-2.6-7V93.31c0,9.16,12.87,16.59,28.74,16.59s28.73-7.43,28.73-16.59V79.54h-2.6A35.72,35.72,0,0,0,48.92,73Z"/><path class="cls-9" d="M47,87.71c0,5.5-7.72,1.94-17.24,1.94V109.9c15.87,0,28.73-7.43,28.73-16.59V78.14H56.89L46.2,82.06C46.7,83,47,86.67,47,87.71Z"/><path class="cls-10" d="M48.92,73c-1.72,3.75-3.29,7.26-4.35,9.69A7.11,7.11,0,0,1,47,87.77c0,5.5-7.72,6-17.24,6s-17.24-.45-17.24-6a7.08,7.08,0,0,1,2.32-5c-1.12-2.38-2.67,3.08-4.34-.76-2.88,2.1-5.24,2.45-6.88,4.52l-2.6-7V93.31c0,9.16,12.87,16.59,28.74,16.59s28.73-7.43,28.73-16.59V79.54h-2.6A35.72,35.72,0,0,0,48.92,73Z"/><path class="cls-10" d="M48.92,73c-1.72,3.75-3.29,7.26-4.35,9.69A7.11,7.11,0,0,1,47,87.77c0,5.5-7.72,6-17.24,6s-17.24-.45-17.24-6a7.08,7.08,0,0,1,2.32-5c-1.12-2.38-2.67,3.08-4.34-.76-2.88,2.1-5.24,2.45-6.88,4.52l-2.6-7V93.31c0,9.16,12.87,16.59,28.74,16.59s28.73-7.43,28.73-16.59V79.54h-2.6A35.72,35.72,0,0,0,48.92,73Z"/><path class="cls-11" d="M29.74,63V73.07c6.18,0,11.2,2.9,11.2,6.47S35.92,86,29.74,86s-11.2-2.9-11.2-6.47H1C1,88.7,13.87,96.13,29.74,96.13S58.47,88.7,58.47,79.54,45.61,63,29.74,63Z"/><ellipse class="cls-1" cx="98.3" cy="93.31" rx="28.74" ry="16.59"/><path class="cls-7" d="M98.3,73.07V86.84c6.19,0,11.2,2.9,11.2,6.47l9.12-14.09s-5.07-10.5-6.2-10.5-9.35-.88-9.35-.88Z"/><path class="cls-7" d="M124.44,79.54a36.1,36.1,0,0,0-7-6.53c-1,2.27-2,4.45-2.87,6.36l1.76.17,2.25,11.73V105h0c5.2-3,8.42-7.15,8.42-11.73V79.54Z"/><path class="cls-11" d="M109.5,79.54c0,1.78-1.25,3.4-3.28,4.57l12.4,7.16c5.2-3,8.42-7.15,8.42-11.73C127,70.38,114.17,63,98.3,63V73.07C104.49,73.07,109.5,76,109.5,79.54Z"/><polygon class="cls-11" points="118.62 91.27 118.62 105.04 106.22 97.88 106.22 84.11 118.62 91.27"/><rect class="cls-12" x="1.14" width="126" height="126"/></g></g></svg>