<svg xmlns="http://www.w3.org/2000/svg" width="153.04" height="150" viewBox="0 0 153.04 150"><defs><style>.cls-1,.cls-8{fill:none;}.cls-2{fill:#d5dae0;}.cls-2,.cls-3,.cls-4{stroke:#627386;}.cls-2,.cls-3,.cls-4,.cls-5,.cls-6,.cls-7,.cls-8{stroke-linecap:round;stroke-linejoin:round;stroke-width:2px;}.cls-3{fill:#f2f4f6;}.cls-4,.cls-7{fill:#fff;}.cls-5{fill:#bde4fd;}.cls-5,.cls-6,.cls-7,.cls-8{stroke:#1b6dc6;}.cls-6{fill:#e9f6fe;}.cls-8{stroke-dasharray:0 6;}</style></defs><title>trigger_02</title><g id="Layer_2" data-name="Layer 2"><g id="Layer_3" data-name="Layer 3"><rect class="cls-1" x="3.04" width="150" height="150"/><polygon class="cls-2" points="136.39 88.71 124.39 95.64 124.39 63.64 136.39 56.71 136.39 88.71"/><polygon class="cls-3" points="100.39 81.78 124.39 95.64 124.39 63.64 100.39 49.78 100.39 81.78"/><polygon class="cls-4" points="136.39 56.71 112.39 42.85 100.39 49.78 124.39 63.64 136.39 56.71"/><polygon class="cls-2" points="111.93 102.83 99.93 109.76 99.93 77.76 111.93 70.83 111.93 102.83"/><polygon class="cls-3" points="75.93 95.91 99.93 109.76 99.93 77.76 75.93 63.91 75.93 95.91"/><polygon class="cls-4" points="111.93 70.83 87.93 56.98 75.93 63.91 99.93 77.76 111.93 70.83"/><polygon class="cls-5" points="87.47 116.96 75.47 123.88 75.47 91.88 87.47 84.96 87.47 116.96"/><polygon class="cls-6" points="51.47 110.03 75.47 123.88 75.47 91.88 51.47 78.03 51.47 110.03"/><polygon class="cls-7" points="87.47 84.96 63.47 71.1 51.47 78.03 75.47 91.88 87.47 84.96"/><polygon class="cls-5" points="59.85 132.91 74.01 98.61 64.65 97.42 50.48 131.72 59.85 132.91"/><polygon class="cls-7" points="74.01 98.61 50.53 85.06 41.17 83.87 64.65 97.42 74.01 98.61"/><polygon class="cls-6" points="50.48 131.72 64.65 97.42 41.17 83.87 27.01 118.16 50.48 131.72"/><line class="cls-8" x1="50.49" y1="131.72" x2="24.48" y2="146.73"/><line class="cls-8" x1="27.01" y1="118.16" x2="1" y2="133.18"/></g></g></svg>