<svg xmlns="http://www.w3.org/2000/svg" width="150" height="150" viewBox="0 0 150 150"><defs><style>.cls-1{fill:none;}.cls-2{fill:#e9f6fe;}.cls-2,.cls-3{stroke:#1b6dc6;stroke-linecap:round;stroke-linejoin:round;stroke-width:2px;}.cls-3{fill:#bde4fd;}</style></defs><title>trigger_03</title><g id="Layer_2" data-name="Layer 2"><g id="Layer_3" data-name="Layer 3"><rect class="cls-1" width="150" height="150"/><polygon class="cls-2" points="88.03 79.99 88.03 66.13 112.03 79.99 112.03 93.84 88.03 79.99"/><polygon class="cls-2" points="112.03 52.53 88.03 66.13 112.03 79.99 136.03 66.38 112.03 52.53"/><polygon class="cls-3" points="112.03 93.84 136.03 80.24 136.03 66.38 112.03 79.99 112.03 93.84"/><polygon class="cls-3" points="86.06 97.7 91.06 106.2 112.97 79.5 107.97 71 86.06 97.7"/><polygon class="cls-2" points="83.47 56.85 107.97 71 86.06 97.7 61.56 83.56 83.47 56.85"/><polygon class="cls-2" points="91.06 106.2 66.56 92.06 61.56 83.56 86.06 97.7 91.06 106.2"/><polygon class="cls-3" points="62.94 111.05 67.94 119.55 89.84 92.85 84.84 84.35 62.94 111.05"/><polygon class="cls-2" points="60.34 70.21 84.84 84.35 62.94 111.05 38.44 96.91 60.34 70.21"/><polygon class="cls-2" points="67.94 119.55 43.44 105.41 38.44 96.91 62.94 111.05 67.94 119.55"/><polygon class="cls-3" points="39.81 124.41 44.81 132.91 66.72 106.2 61.72 97.7 39.81 124.41"/><polygon class="cls-2" points="37.22 83.56 61.72 97.7 39.81 124.41 15.31 110.26 37.22 83.56"/><polygon class="cls-2" points="44.81 132.91 20.31 118.76 15.31 110.26 39.81 124.41 44.81 132.91"/></g></g></svg>