<svg xmlns="http://www.w3.org/2000/svg" width="127.02" height="128" viewBox="0 0 127.02 128"><defs><style>.cls-1,.cls-15,.cls-2,.cls-3,.cls-7,.cls-8{fill:none;}.cls-11,.cls-12,.cls-13,.cls-2,.cls-3{stroke:#1b6dc6;}.cls-11,.cls-12,.cls-13,.cls-15,.cls-2,.cls-3,.cls-4,.cls-5,.cls-6,.cls-7,.cls-8{stroke-linecap:round;stroke-linejoin:round;stroke-width:2px;}.cls-3{stroke-dasharray:0 5.81;}.cls-4,.cls-9{fill:#d5dae0;}.cls-4,.cls-5,.cls-6,.cls-8{stroke:#627386;}.cls-5{fill:#f2f4f6;}.cls-13,.cls-6{fill:#fff;}.cls-7{stroke:#d5dae0;}.cls-10{fill:#627386;}.cls-11{fill:#bde4fd;}.cls-12{fill:#e9f6fe;}.cls-14{fill:#1b6dc6;}.cls-15{stroke:#bde4fd;}</style></defs><title>user_vms</title><g id="Layer_2" data-name="Layer 2"><g id="Layer_1-2" data-name="Layer 1"><rect class="cls-1" y="1" width="126" height="126"/><line class="cls-2" x1="28.29" y1="44.28" x2="28.29" y2="44.28"/><line class="cls-3" x1="28.29" y1="38.48" x2="28.29" y2="23.96"/><line class="cls-2" x1="28.29" y1="21.06" x2="28.29" y2="21.06"/><polygon class="cls-4" points="97.86 106.94 63 127 63.02 115.39 97.88 95.33 97.86 106.94"/><polygon class="cls-5" points="28.2 106.84 63 127 63.02 115.39 28.21 95.23 28.2 106.84"/><polygon class="cls-6" points="97.88 95.33 63.07 75.17 28.21 95.23 63.02 115.39 97.88 95.33"/><polygon class="cls-7" points="97.88 95.33 80.47 85.25 63.05 95.28 80.45 105.36 97.88 95.33"/><polygon class="cls-8" points="97.88 95.33 63.07 75.17 28.21 95.23 63.02 115.39 97.88 95.33"/><line class="cls-8" x1="80.45" y1="105.36" x2="80.45" y2="117"/><ellipse class="cls-7" cx="80.43" cy="95.33" rx="5.03" ry="2.9"/><ellipse class="cls-9" cx="63.07" cy="80.32" rx="1.68" ry="0.97"/><ellipse class="cls-9" cx="37.14" cy="95.24" rx="1.68" ry="0.97"/><ellipse class="cls-9" cx="63.02" cy="110.24" rx="1.68" ry="0.97"/><polygon class="cls-4" points="97.86 95.33 63 115.39 63.02 103.78 97.88 83.72 97.86 95.33"/><polygon class="cls-5" points="28.2 95.23 63 115.39 63.02 103.78 28.21 83.62 28.2 95.23"/><polygon class="cls-6" points="97.88 83.72 63.07 63.56 28.21 83.62 63.02 103.78 97.88 83.72"/><polygon class="cls-8" points="97.88 83.72 80.47 73.64 63.05 83.67 80.45 93.75 97.88 83.72"/><polygon class="cls-8" points="97.88 83.72 63.07 63.56 28.21 83.62 63.02 103.78 97.88 83.72"/><line class="cls-8" x1="80.45" y1="93.75" x2="80.45" y2="105.39"/><ellipse class="cls-7" cx="80.43" cy="83.72" rx="5.03" ry="2.9"/><ellipse class="cls-10" cx="63.07" cy="68.71" rx="1.68" ry="0.97"/><ellipse class="cls-10" cx="37.14" cy="83.63" rx="1.68" ry="0.97"/><ellipse class="cls-10" cx="63.02" cy="98.63" rx="1.68" ry="0.97"/><polygon class="cls-11" points="80.53 45.91 63.1 55.94 63.12 44.33 80.55 34.3 80.53 45.91"/><polygon class="cls-12" points="28.27 55.89 63.07 76.05 63.09 64.44 28.29 44.28 28.27 55.89"/><polygon class="cls-13" points="80.55 34.3 63.15 24.22 28.29 44.28 63.09 64.44 80.52 54.41 63.12 44.33 80.55 34.3"/><ellipse class="cls-14" cx="63.1" cy="55.42" rx="1.68" ry="0.97"/><polygon class="cls-11" points="80.5 66.02 63.07 76.05 63.09 64.44 80.52 54.41 80.5 66.02"/><ellipse class="cls-14" cx="63.13" cy="29.38" rx="1.68" ry="0.97"/><ellipse class="cls-14" cx="37.21" cy="44.3" rx="1.68" ry="0.97"/><line class="cls-2" x1="63.15" y1="24.22" x2="63.15" y2="24.22"/><line class="cls-3" x1="63.15" y1="18.42" x2="63.15" y2="3.9"/><line class="cls-2" x1="63.15" y1="1" x2="63.15" y2="1"/><polygon class="cls-11" points="126 55.99 108.57 66.02 108.59 54.41 126.02 44.38 126 55.99"/><polygon class="cls-13" points="126.02 44.38 108.61 34.3 91.18 44.33 108.59 54.41 126.02 44.38"/><polygon class="cls-12" points="91.17 55.99 108.6 66.02 108.59 54.41 91.16 44.38 91.17 55.99"/><ellipse class="cls-15" cx="108.57" cy="44.38" rx="5.03" ry="2.9"/></g></g></svg>