<svg xmlns="http://www.w3.org/2000/svg" width="650" height="393" viewBox="0 0 650 393"><defs><style>.cls-1,.cls-12,.cls-15,.cls-17,.cls-18,.cls-20,.cls-4,.cls-6{fill:none;}.cls-1{opacity:0.2;}.cls-13,.cls-2{fill:#d5dae0;}.cls-14,.cls-16,.cls-2,.cls-4,.cls-5{stroke:#627386;}.cls-12,.cls-14,.cls-16,.cls-18,.cls-2,.cls-4,.cls-5,.cls-6,.cls-7,.cls-8,.cls-9{stroke-linecap:round;}.cls-12,.cls-14,.cls-16,.cls-2,.cls-4,.cls-5,.cls-6,.cls-7,.cls-8,.cls-9{stroke-linejoin:round;}.cls-12,.cls-14,.cls-15,.cls-16,.cls-17,.cls-18,.cls-2,.cls-20,.cls-4,.cls-5,.cls-6,.cls-7,.cls-8,.cls-9{stroke-width:2px;}.cls-3,.cls-5{fill:#f2f4f6;}.cls-15,.cls-18,.cls-6{stroke:#b8bfca;}.cls-10,.cls-7{fill:#bde4fd;}.cls-12,.cls-7,.cls-8,.cls-9{stroke:#1b6dc6;}.cls-11,.cls-8{fill:#91d2fb;}.cls-9{fill:#e9f6fe;}.cls-14,.cls-19{fill:#fff;}.cls-15,.cls-17,.cls-18,.cls-20{stroke-miterlimit:10;}.cls-16{fill:#b8bfca;}.cls-17{stroke:#d5dae0;}.cls-20{stroke:#f2f4f6;}</style></defs><title>500</title><g id="Layer_2" data-name="Layer 2"><g id="Layer_3" data-name="Layer 3"><polygon class="cls-1" points="650 204.36 325 392 0 204.36 325 16.72 650 204.36"/><polyline class="cls-2" points="274.44 23.61 274.44 38.96 290.55 38.96 290.55 21.79 274.44 23.61"/><path class="cls-2" d="M313.63,39.83l-6.32-3.65V32.81H299.9v-15a48.5,48.5,0,0,0-14,5.19c-10.66,6.15-13.89,15-9.7,22.73L217.53,79.59l-109,51.91v15.34c0,2.68,1.77,5.36,5.31,7.4,7.07,4.09,18.54,4.09,25.62,0l.11.06L301.94,60.56c13.46,2.42,28.73.56,39.39-5.6,7.65-4.41,11.45-10.2,11.46-16h0V23.63Z"/><path class="cls-3" d="M128.36,123.3l-19.82,8.2v15.34c0,2.68,1.77,5.36,5.31,7.4a27,27,0,0,0,14.51,3Z"/><path class="cls-3" d="M325,35.13l-11.37,4.7-6.32-3.65V32.81h-5.37V60.56a67.14,67.14,0,0,0,23.06,0Z"/><path class="cls-4" d="M313.63,39.83l-6.32-3.65V32.81H299.9v-15a48.5,48.5,0,0,0-14,5.19c-10.66,6.15-13.89,15-9.7,22.73L217.53,79.59l-109,51.91v15.34c0,2.68,1.77,5.36,5.31,7.4,7.07,4.09,18.54,4.09,25.62,0l.11.06L301.94,60.56c13.46,2.42,28.73.56,39.39-5.6,7.65-4.41,11.45-10.2,11.46-16h0V23.63Z"/><path class="cls-2" d="M307.31,27l17-9.84V1.86H305.86V16.8c-2,.23-4,.57-6,1v15h7.41Z"/><path class="cls-5" d="M351.31,17.43l-17,9.83H318.44l-11.13-6.42V11.69l17-9.83c-13.22-2.16-28-.25-38.43,5.76-10.66,6.16-13.89,15-9.7,22.74L113.85,124.1c-7.08,4.09-7.08,10.71,0,14.8s18.54,4.08,25.62,0l.11.06L301.94,45.22c13.46,2.42,28.73.55,39.39-5.6C351.74,33.61,355.06,25.06,351.31,17.43Z"/><ellipse class="cls-2" cx="126.66" cy="131.5" rx="6.12" ry="3.54"/><line class="cls-6" x1="142.77" y1="122.2" x2="283.29" y2="41.07"/><path class="cls-7" d="M127.6,228.49l-49.34,4V249a58.44,58.44,0,0,0,21.51,6.48,77.12,77.12,0,0,0,24.36-1.2,73.64,73.64,0,0,0,22.1-8.18q11.18-6.47,14.84-13.83a16,16,0,0,0,1.78-7.17h0V208.57l-11.75,3.32Z"/><polygon class="cls-8" points="87.66 174.35 87.66 157.8 38.41 177.83 44.02 193.43 44.8 199.1 87.66 174.35"/><path class="cls-8" d="M134.86,226.73q-1.29-5.28-10.85-10.79a38.6,38.6,0,0,0-18.58-5.51A33.16,33.16,0,0,0,87.74,215q-7.63,4.4-8.37,9.45l-.15,2.3L65.3,202.59q3.56-6.75,12.15-11.71a62.82,62.82,0,0,1,33.68-8.42,74,74,0,0,1,35.47,10.39Z"/><path class="cls-9" d="M58,217.6,9.41,182.38,69.82,147.5l17.84,10.3L44.8,182.55l20.5,14.92q3.56-6.75,12.15-11.71a62.73,62.73,0,0,1,33.68-8.42,73.94,73.94,0,0,1,35.47,10.38q10.44,6,14.28,13.34a15.28,15.28,0,0,1,.19,14.68q-3.66,7.38-14.84,13.83a73.93,73.93,0,0,1-22.1,8.19A77.41,77.41,0,0,1,99.77,239a58.24,58.24,0,0,1-21.51-6.47l21.17-12.23a33.4,33.4,0,0,0,15.18,3.34,29.45,29.45,0,0,0,14.29-3.94q7.26-4.18,6-9.46T124,199.39a38.6,38.6,0,0,0-18.58-5.51,33.25,33.25,0,0,0-17.69,4.57q-7.63,4.41-8.37,9.45l-.15,2.31Z"/><path class="cls-10" d="M308.28,149.06q-21.46-12.66-23.73-24.73t15.36-22.25c11.75-6.78,18-15.82,32.06-14.92S367.19,99,382.24,107.64l19.84,11.45q21.48,12.66,23.77,24.75t-15.33,22.27a66.74,66.74,0,0,1-38.94,8.81q-21.1-1.5-43.46-14.41Zm45.06,1.31q12.82,7.23,22.46,8.77a25.75,25.75,0,0,0,17.47-3q7.94-4.58,5.11-10.35t-16-13.39l-26.24-15.14q-12.6-7-22-8.3a25.93,25.93,0,0,0-17,3.07q-7.77,4.48-5.32,10.13t15.86,13.39Z"/><path class="cls-11" d="M330.34,137.09l-2.64-1.53q-13.41-7.74-15.86-13.39T317.16,112a25.13,25.13,0,0,1,13.18-3.34V87.13c-12.9-.12-19.15,8.44-30.43,15q-17.61,10.17-15.36,22.25t23.73,24.73l19.84,11.45c.74.43,1.48.84,2.22,1.25Z"/><path class="cls-12" d="M308.28,149.06q-21.46-12.66-23.73-24.73t15.36-22.25c11.75-6.78,18-15.82,32.06-14.92S367.19,99,382.24,107.64l19.84,11.45q21.48,12.66,23.77,24.75t-15.33,22.27a66.74,66.74,0,0,1-38.94,8.81q-21.1-1.5-43.46-14.41Zm45.06,1.31q12.82,7.23,22.46,8.77a25.75,25.75,0,0,0,17.47-3q7.94-4.58,5.11-10.35t-16-13.39l-26.24-15.14q-12.6-7-22-8.3a25.93,25.93,0,0,0-17,3.07q-7.77,4.48-5.32,10.13t15.86,13.39Z"/><path class="cls-8" d="M284.55,124.33a14.75,14.75,0,0,1-.24-2.71h0V105.07l8.83,6.33a54.82,54.82,0,0,1,6.79-4.59c1.63-.93,3.27-1.79,4.94-2.58l1.77-8.44.13-.05c-.75,6.19-2.12,17.88-1.9,19,.12.62,3.19,3.66,7,7.19a5.73,5.73,0,0,0-.53,2.86c0,.08,2.36,1,6.11,2.28,3.6,3.26,6.89,6.15,8.14,7.17,3.25,2.66,37.82,12.41,37.82,12.41L389.64,149l20.69-8.27s2.58-3.83,5.13-7.47c.68.59,1.34,1.19,2,1.78l8.69-4.94V146.6h0q0,10.5-15.58,19.5a66.74,66.74,0,0,1-38.94,8.81q-21.1-1.5-43.46-14.41l-19.84-11.45Q286.82,136.4,284.55,124.33Z"/><path class="cls-10" d="M308.28,149.06q-21.46-12.66-23.73-24.73a14.75,14.75,0,0,1-.24-2.71h0V105.07l8.83,6.33a54,54,0,0,1,5.9-4.05l6,4.21a21.77,21.77,0,0,0-.15,3.14c.12.62,3.19,3.66,7,7.19a5.73,5.73,0,0,0-.53,2.86c0,.08,2.36,1,6.11,2.28,3.6,3.26,6.89,6.15,8.14,7.17,1.82,1.49,13.39,5.18,23.26,8.15l22.79,16v16.54q-21.1-1.5-43.46-14.41Z"/><path class="cls-12" d="M284.55,124.33a14.75,14.75,0,0,1-.24-2.71h0V105.07l8.83,6.33a54.82,54.82,0,0,1,6.79-4.59c1.63-.93,3.27-1.79,4.94-2.58l1.77-8.44.13-.05c-.75,6.19-2.12,17.88-1.9,19,.12.62,3.19,3.66,7,7.19a5.73,5.73,0,0,0-.53,2.86c0,.08,2.36,1,6.11,2.28,3.6,3.26,6.89,6.15,8.14,7.17,3.25,2.66,37.82,12.41,37.82,12.41L389.64,149l20.69-8.27s2.58-3.83,5.13-7.47c.68.59,1.34,1.19,2,1.78l8.69-4.94V146.6h0q0,10.5-15.58,19.5a66.74,66.74,0,0,1-38.94,8.81q-21.1-1.5-43.46-14.41l-19.84-11.45Q286.82,136.4,284.55,124.33Z"/><path class="cls-9" d="M308.28,132.52q-21.46-12.66-23.73-24.73t15.36-22.25a67.22,67.22,0,0,1,38.69-8.83q21.06,1.35,43.64,14.39l19.84,11.45q21.48,12.66,23.77,24.75t-15.33,22.27a66.66,66.66,0,0,1-38.94,8.81q-21.1-1.5-43.46-14.41Zm45.06,1.31q12.82,7.23,22.46,8.77a25.75,25.75,0,0,0,17.47-3q7.94-4.58,5.11-10.34t-16-13.39l-26.23-15.15q-12.6-7-22-8.3a25.93,25.93,0,0,0-17,3.07q-7.77,4.48-5.32,10.13T327.7,119Z"/><polygon class="cls-7" points="57.97 217.6 57.97 234.15 9.41 198.93 9.41 182.38 57.97 217.6"/><polygon class="cls-8" points="57.97 234.15 57.97 217.6 79.22 210.21 79.22 226.75 57.97 234.15"/><path class="cls-3" d="M470.75,173.59l-1.3-1.3a6.92,6.92,0,0,0-4.75-1.58H442.19a6.92,6.92,0,0,0-4.75,1.58l-1.3,1.3H425.45v13.58a2.25,2.25,0,0,0,.73,1.59L437.44,200a6.92,6.92,0,0,0,4.75,1.59H464.7a6.92,6.92,0,0,0,4.75-1.59l11.26-11.25a2.26,2.26,0,0,0,.74-1.59V173.59Z"/><path class="cls-13" d="M469.45,172.29a6.92,6.92,0,0,0-4.75-1.58H442.19A8.8,8.8,0,0,0,440,171v30.34a8.8,8.8,0,0,0,2.21.28H464.7a6.92,6.92,0,0,0,4.75-1.59l11.26-11.25a2.26,2.26,0,0,0,.74-1.59V173.59h-10.7Z"/><path class="cls-4" d="M470.75,173.59l-1.3-1.3a6.92,6.92,0,0,0-4.75-1.58H442.19a6.92,6.92,0,0,0-4.75,1.58l-1.3,1.3H425.45v13.58a2.25,2.25,0,0,0,.73,1.59L437.44,200a6.92,6.92,0,0,0,4.75,1.59H464.7a6.92,6.92,0,0,0,4.75-1.59l11.26-11.25a2.26,2.26,0,0,0,.74-1.59V173.59Z"/><path class="cls-14" d="M437.44,186.43l-11.26-11.25a2.08,2.08,0,0,1,0-3.17l11.26-11.26a6.92,6.92,0,0,1,4.75-1.58H464.7a6.92,6.92,0,0,1,4.75,1.58L480.71,172a2.08,2.08,0,0,1,0,3.17l-11.26,11.25A6.92,6.92,0,0,1,464.7,188H442.19A6.92,6.92,0,0,1,437.44,186.43Z"/><ellipse class="cls-13" cx="453.45" cy="173.59" rx="11.77" ry="6.8"/><path class="cls-3" d="M465.22,173.59c0-3.75-5.27-6.8-11.77-6.8v13.6C460,180.39,465.22,177.35,465.22,173.59Z"/><ellipse class="cls-4" cx="453.45" cy="173.59" rx="11.77" ry="6.8"/><path class="cls-3" d="M279.87,162.67h0a3.64,3.64,0,0,0-3.71.3c-3.14,1.81-5.69,6.67-5.69,10.85,0,2.29.77,3.9,2,4.59h0l61.83,35.7,7.44-15.75-61.84-35.7"/><path class="cls-13" d="M332.27,213l4.34-7.52-64.73-37.37a13.75,13.75,0,0,0-1.41,5.75c0,2.29.77,3.9,2,4.59h0Z"/><path class="cls-15" d="M291.65,169.46h0a3.65,3.65,0,0,0-3.72.29c-3.14,1.82-5.68,6.68-5.68,10.86,0,2.29.76,3.9,2,4.59"/><path class="cls-15" d="M303.42,176.26h0a3.61,3.61,0,0,0-3.71.29c-3.14,1.81-5.69,6.68-5.69,10.86,0,2.29.77,3.89,2,4.59"/><path class="cls-15" d="M315.2,183.05h0a3.65,3.65,0,0,0-3.72.29c-3.14,1.82-5.68,6.68-5.68,10.86,0,2.29.76,3.9,2,4.59"/><path class="cls-15" d="M327,189.85h0a3.61,3.61,0,0,0-3.71.29c-3.14,1.81-5.68,6.68-5.68,10.86,0,2.29.76,3.89,2,4.59"/><path class="cls-4" d="M279.87,162.67h0a3.64,3.64,0,0,0-3.71.3c-3.14,1.81-5.69,6.67-5.69,10.85,0,2.29.77,3.9,2,4.59h0l61.83,35.7,7.44-15.75-61.84-35.7"/><path class="cls-3" d="M350.51,208.24l5.39-11.42-10.58-6.11v0c-2-1.14-4.53-1-7.33.57-6.19,3.58-11.2,13.16-11.2,21.41,0,4.52,1.5,7.68,3.88,9h0l10.58,6.11,5.37-11.39A29.93,29.93,0,0,0,350.51,208.24Z"/><path class="cls-13" d="M329.53,201.36a27.12,27.12,0,0,0-2.74,11.35c0,4.52,1.5,7.68,3.88,9h0l10.58,6.11,5.37-11.39a29,29,0,0,0,2.26-4Z"/><path class="cls-4" d="M350.51,208.24l5.39-11.42-10.58-6.11v0c-2-1.14-4.53-1-7.33.57-6.19,3.58-11.2,13.16-11.2,21.41,0,4.52,1.5,7.68,3.88,9h0l10.58,6.11,5.37-11.39A29.93,29.93,0,0,0,350.51,208.24Z"/><ellipse class="cls-2" cx="348.57" cy="212.35" rx="17.2" ry="9.73" transform="translate(16.69 449.94) rotate(-66.95)"/><line class="cls-16" x1="348.57" y1="208.35" x2="348.57" y2="216.35"/><line class="cls-5" x1="177.09" y1="177.64" x2="170.25" y2="173.69"/><ellipse class="cls-14" cx="217.2" cy="150.53" rx="10.73" ry="18.96" transform="translate(-41.6 97.06) rotate(-23.05)"/><path class="cls-16" d="M268.79,130.74a16.87,16.87,0,0,0-25.37-14.6h0L212.68,134l14.4,30.5,33.21-19.07h0A16.89,16.89,0,0,0,268.79,130.74Z"/><path class="cls-13" d="M256.17,124.6a8.49,8.49,0,0,0-12.76-7.35h0l-34.51,20,7.24,15.34L251.9,132h0A8.47,8.47,0,0,0,256.17,124.6Z"/><path class="cls-4" d="M268.79,130.74a16.87,16.87,0,0,0-25.37-14.6h0L212.68,134l14.4,30.5,33.21-19.07h0A16.89,16.89,0,0,0,268.79,130.74Z"/><path class="cls-16" d="M231,158.52c0-10.19-6.2-22-13.84-26.44-3.46-2-6.62-2.11-9-.71v0l-7.63,4.4,2.87,6.08c0,.24,0,.47,0,.71,0,9.55,5.44,20.54,12.41,25.52l2.86,6.05,7.62-4.4v0C229.18,168,231,164.09,231,158.52Z"/><path class="cls-13" d="M217.2,132.08c-3.46-2-6.62-2.11-9-.71v0l-7.63,4.4,2.87,6.08c0,.24,0,.47,0,.71A33.76,33.76,0,0,0,206.93,157l20.91-12.07C225.31,139.35,221.48,134.55,217.2,132.08Z"/><path class="cls-4" d="M231,158.52c0-10.19-6.2-22-13.84-26.44-3.46-2-6.62-2.11-9-.71v0l-7.63,4.4,2.87,6.08c0,.24,0,.47,0,.71,0,9.55,5.44,20.54,12.41,25.52l2.86,6.05,7.62-4.4v0C229.18,168,231,164.09,231,158.52Z"/><ellipse class="cls-2" cx="209.58" cy="154.93" rx="12.02" ry="21.24" transform="translate(-43.93 94.43) rotate(-23.05)"/><path class="cls-2" d="M212.46,157.22a8.18,8.18,0,0,0-3.42-6.53,2.17,2.17,0,0,0-2.24-.18h0l-35.37,20.42h0a1.39,1.39,0,0,0-.31.23h0l-12.88,11.71h0a1.49,1.49,0,0,0-.5,1.12,1.52,1.52,0,0,0,1.51,1.51,1.56,1.56,0,0,0,.44-.07h0l15.84-4.87h0a2.07,2.07,0,0,0,.34-.15h0L211.27,160h0A3,3,0,0,0,212.46,157.22Z"/><path class="cls-3" d="M209,150.69a2.17,2.17,0,0,0-2.24-.18h0l-35.37,20.42h0a1.39,1.39,0,0,0-.31.23h0l-12.88,11.71h0a1.5,1.5,0,0,0,0,2.22l53.55-30.92A7.19,7.19,0,0,0,209,150.69Z"/><path class="cls-4" d="M212.46,157.22a8.18,8.18,0,0,0-3.42-6.53,2.17,2.17,0,0,0-2.24-.18h0l-35.37,20.42h0a1.39,1.39,0,0,0-.31.23h0l-12.88,11.71h0a1.49,1.49,0,0,0-.5,1.12,1.52,1.52,0,0,0,1.51,1.51,1.56,1.56,0,0,0,.44-.07h0l15.84-4.87h0a2.07,2.07,0,0,0,.34-.15h0L211.27,160h0A3,3,0,0,0,212.46,157.22Z"/><path class="cls-3" d="M225.62,191.58h0a3.61,3.61,0,0,1,3.71.29c3.14,1.81,5.68,6.68,5.68,10.86,0,2.29-.76,3.89-2,4.59h0l-26.51,15.32-7.43-15.76,26.5-15.32"/><path class="cls-13" d="M208.56,221.5,204.22,214l29.4-17a13.86,13.86,0,0,1,1.4,5.75c0,2.29-.76,3.89-2,4.59h0Z"/><path class="cls-15" d="M225.62,191.58h0a3.61,3.61,0,0,1,3.71.29c3.14,1.81,5.68,6.68,5.68,10.86,0,2.29-.76,3.89-2,4.59"/><path class="cls-15" d="M225.63,191.59h0a3.61,3.61,0,0,1,3.71.29c3.14,1.81,5.69,6.67,5.69,10.86,0,2.29-.77,3.89-2,4.59"/><path class="cls-15" d="M213.85,198.39h0a3.65,3.65,0,0,1,3.72.3c3.14,1.81,5.68,6.67,5.68,10.86,0,2.28-.76,3.89-2,4.58"/><path class="cls-4" d="M225.62,191.58h0a3.61,3.61,0,0,1,3.71.29c3.14,1.81,5.68,6.68,5.68,10.86,0,2.29-.76,3.89-2,4.59h0l-26.51,15.32-7.43-15.76,26.5-15.32"/><path class="cls-3" d="M190.32,216.78l-5.39-11.42,10.57-6.11h0c2-1.13,4.52-1,7.33.58C209,203.41,214,213,214,221.25c0,4.51-1.51,7.68-3.88,9.05h0l-10.58,6.11L194.21,225A30,30,0,0,1,190.32,216.78Z"/><path class="cls-13" d="M211.3,209.89A27.35,27.35,0,0,1,214,221.25c0,4.51-1.51,7.68-3.88,9.05h0l-10.58,6.11L194.21,225a28.47,28.47,0,0,1-2.25-4Z"/><path class="cls-4" d="M190.32,216.78l-5.39-11.42,10.57-6.11h0c2-1.13,4.52-1,7.33.58C209,203.41,214,213,214,221.25c0,4.51-1.51,7.68-3.88,9.05h0l-10.58,6.11L194.21,225A30,30,0,0,1,190.32,216.78Z"/><ellipse class="cls-5" cx="192.26" cy="220.89" rx="9.73" ry="17.2" transform="translate(-71.14 92.92) rotate(-23.05)"/><line class="cls-16" x1="192.26" y1="216.99" x2="192.26" y2="224.78"/><line class="cls-16" x1="189.34" y1="219.2" x2="195.18" y2="222.57"/><polygon class="cls-14" points="178.01 263.96 160.66 253.94 143.31 263.96 160.66 273.98 178.01 263.96"/><polygon class="cls-2" points="178.01 287.1 160.66 297.11 160.66 273.98 178.01 263.96 178.01 287.1"/><polygon class="cls-5" points="143.31 287.1 160.66 297.11 160.66 273.98 143.31 263.96 143.31 287.1"/><path class="cls-5" d="M472.94,267.49v19.25c0,2.13,1.41,4.26,4.22,5.89,5.64,3.25,14.78,3.25,20.41,0,2.82-1.63,4.23-3.76,4.23-5.89V267.49"/><path class="cls-13" d="M487.37,295.07a20.8,20.8,0,0,0,10.2-2.44c2.82-1.63,4.23-3.76,4.23-5.89V267.49H487.37Z"/><path class="cls-4" d="M472.94,267.49v19.25c0,2.13,1.41,4.26,4.22,5.89,5.64,3.25,14.78,3.25,20.41,0,2.82-1.63,4.23-3.76,4.23-5.89V267.49"/><ellipse class="cls-14" cx="487.37" cy="267.49" rx="14.43" ry="8.33"/><path class="cls-3" d="M386.67,282H355.36v12.68c0,5,7,9,15.66,9s15.65-4,15.65-9Z"/><path class="cls-13" d="M371,282v21.72h0c8.64,0,15.65-4,15.65-9V282Z"/><path class="cls-4" d="M386.67,282H355.36v12.68c0,5,7,9,15.66,9s15.65-4,15.65-9Z"/><ellipse class="cls-3" cx="371.01" cy="281.99" rx="15.66" ry="9.04"/><ellipse class="cls-4" cx="371.01" cy="281.99" rx="15.66" ry="9.04"/><path class="cls-3" d="M363.22,257.93V282c0,2.48,3.49,4.5,7.79,4.5s7.8-2,7.8-4.5V257.93Z"/><path class="cls-13" d="M371,286.49c4.3,0,7.79-2,7.79-4.5V257.93H371Z"/><path class="cls-15" d="M378.81,270c0,2.48-3.49,4.5-7.8,4.5s-7.79-2-7.79-4.5"/><path class="cls-17" d="M375.8,285.54c1.83-.82,3-2.11,3-3.55"/><path class="cls-17" d="M363.22,282c0,1.44,1.17,2.73,3,3.55"/><polyline class="cls-4" points="378.81 281.99 378.81 257.93 363.22 257.93 363.22 281.99"/><path class="cls-18" d="M366.23,285.54a12.53,12.53,0,0,0,9.57,0"/><ellipse class="cls-3" cx="371.01" cy="257.93" rx="7.79" ry="4.5"/><ellipse class="cls-4" cx="371.01" cy="257.93" rx="7.79" ry="4.5"/><path class="cls-3" d="M458.89,96.19c0,2.66-1.61,5.76-3.61,6.91a2.3,2.3,0,0,1-2.36.18h0L380.48,61.47h0a1.41,1.41,0,0,1-.32-.24h0L366.54,48.85h0a1.57,1.57,0,0,1-.53-1.18,1.6,1.6,0,0,1,1.6-1.6,1.84,1.84,0,0,1,.47.07h0l16.75,5.15h0a2.43,2.43,0,0,1,.37.16h0l72.44,41.82h0A3.2,3.2,0,0,1,458.89,96.19Z"/><path class="cls-13" d="M455.28,103.1a2.3,2.3,0,0,1-2.36.18h0L380.48,61.47h0a1.41,1.41,0,0,1-.32-.24h0L366.54,48.85h0a1.57,1.57,0,0,1-.53-1.18,1.62,1.62,0,0,1,.51-1.17l91.66,52.93A7.64,7.64,0,0,1,455.28,103.1Z"/><path class="cls-4" d="M458.89,96.19c0,2.66-1.61,5.76-3.61,6.91a2.3,2.3,0,0,1-2.36.18h0L380.48,61.47h0a1.41,1.41,0,0,1-.32-.24h0L366.54,48.85h0a1.57,1.57,0,0,1-.53-1.18,1.6,1.6,0,0,1,1.6-1.6,1.84,1.84,0,0,1,.47.07h0l16.75,5.15h0a2.43,2.43,0,0,1,.37.16h0l72.44,41.82h0A3.2,3.2,0,0,1,458.89,96.19Z"/><path class="cls-16" d="M446.64,111.38c0-12,7.31-26,16.32-31.18,4.08-2.35,7.81-2.49,10.67-.84v0L486,86.49l-3.38,7.17c0,.28,0,.55,0,.84,0,11.25-6.41,24.21-14.63,30.08l-3.37,7.14-12.39-7.14v0C448.84,122.56,446.64,118,446.64,111.38Z"/><path class="cls-13" d="M463,80.2c4.08-2.35,7.81-2.49,10.67-.84v0L486,86.49l-3.38,7.17c0,.28,0,.55,0,.84a39.75,39.75,0,0,1-4.21,17l-28-16.19C453.4,88.78,457.91,83.12,463,80.2Z"/><path class="cls-4" d="M446.64,111.38c0-12,7.31-26,16.32-31.18,4.08-2.35,7.81-2.49,10.67-.84v0L486,86.49l-3.38,7.17c0,.28,0,.55,0,.84,0,11.25-6.41,24.21-14.63,30.08l-3.37,7.14-12.39-7.14v0C448.84,122.56,446.64,118,446.64,111.38Z"/><ellipse class="cls-16" cx="475.34" cy="109.11" rx="25.05" ry="14.17" transform="translate(188.83 503.78) rotate(-66.95)"/><path class="cls-16" d="M532.29,122.46h0L483.08,94.14h0c-1.92-1.12-4.43-1-7.18.56-6.06,3.5-11,12.9-11,21,0,4.86,1.78,8.12,4.52,9.21l46.06,26.7v0a16.81,16.81,0,1,0,16.79-29.13Z"/><path class="cls-16" d="M532.29,122.46h0L483.08,94.14h0c-1.92-1.12-4.43-1-7.18.56-6.06,3.5-11,12.9-11,21,0,4.86,1.78,8.12,4.52,9.21l46.06,26.7v0a16.81,16.81,0,1,0,16.79-29.13Z"/><path class="cls-13" d="M532.29,124.21h0L479.06,93.52a9.79,9.79,0,0,0-3.17,1.19C472.21,96.84,469,101.14,467,106l56.87,32.88h0a8.46,8.46,0,1,0,8.44-14.66Z"/><path class="cls-4" d="M532.29,122.46h0L483.08,94.14h0c-1.92-1.12-4.43-1-7.18.56-6.06,3.5-11,12.9-11,21,0,4.86,1.78,8.12,4.52,9.21l46.06,26.7v0a16.81,16.81,0,1,0,16.79-29.13Z"/><path class="cls-11" d="M585.29,241.72q-22.35,12.9-43.46,14.4a66.75,66.75,0,0,1-38.94-8.8q-17.62-10.19-15.33-22.27t23.77-24.75l19.84-11.46c15.05-8.69,36.23-19.58,50.28-20.47s20.3,8.13,32,14.91,16.87,14.2,15.36,22.25-9.41,16.3-23.73,24.73Zm.42-24.95q13.41-7.76,15.86-13.39t-5.32-10.14a26,26,0,0,0-17-3.07q-9.4,1.29-22,8.3l-26.23,15.15q-13.2,7.62-16,13.39t5.1,10.35a25.84,25.84,0,0,0,17.48,3q9.63-1.54,22.45-8.78Z"/><path class="cls-10" d="M583.07,218.29l2.64-1.52q13.41-7.76,15.86-13.39t-5.32-10.14a25.13,25.13,0,0,0-13.18-3.34V168.33c12.91-.12,19.15,8.44,30.43,14.95q17.63,10.18,15.36,22.25t-23.73,24.73l-19.84,11.46L583.07,243Z"/><path class="cls-12" d="M585.29,241.72q-22.35,12.9-43.46,14.4a66.75,66.75,0,0,1-38.94-8.8q-17.62-10.19-15.33-22.27t23.77-24.75l19.84-11.46c15.05-8.69,36.23-19.58,50.28-20.47s20.3,8.13,32,14.91,16.87,14.2,15.36,22.25-9.41,16.3-23.73,24.73Zm.42-24.95q13.41-7.76,15.86-13.39t-5.32-10.14a26,26,0,0,0-17-3.07q-9.4,1.29-22,8.3l-26.23,15.15q-13.2,7.62-16,13.39t5.1,10.35a25.84,25.84,0,0,0,17.48,3q9.63-1.54,22.45-8.78Z"/><path class="cls-7" d="M628.86,205.53a14.69,14.69,0,0,0,.25-2.71h0V186.28s-4,2.82-8.83,6.33A54.08,54.08,0,0,0,613.5,188q-2.43-1.41-4.94-2.59L606.79,177l-.12-.06c.74,6.19,2.11,17.88,1.89,19-.12.62-3.19,3.67-6.95,7.2a5.67,5.67,0,0,1,.53,2.85c0,.09-2.36,1-6.12,2.29-3.6,3.25-6.89,6.14-8.14,7.16-3.25,2.66-37.82,12.41-37.82,12.41l-26.29,2.37-20.68-8.28s-2.59-3.83-5.14-7.47c-.68.6-1.34,1.19-1.95,1.78l-8.7-4.94v16.54h0q0,10.5,15.58,19.51a66.75,66.75,0,0,0,38.94,8.8q21.1-1.5,43.46-14.4l19.84-11.46Q626.61,217.62,628.86,205.53Z"/><path class="cls-11" d="M605.13,230.26q21.48-12.64,23.73-24.73a14.69,14.69,0,0,0,.25-2.71h0V186.28s-4,2.82-8.83,6.33a51.74,51.74,0,0,0-5.9-4.06l-6,4.21a19,19,0,0,1,.15,3.14c-.12.62-3.19,3.67-6.95,7.2a5.67,5.67,0,0,1,.53,2.85c0,.09-2.36,1-6.12,2.29-3.6,3.25-6.89,6.14-8.14,7.16-1.81,1.49-13.39,5.18-23.26,8.16l-22.79,16v16.54q21.1-1.5,43.46-14.4Z"/><path class="cls-12" d="M628.86,205.53a14.69,14.69,0,0,0,.25-2.71h0V186.28s-4,2.82-8.83,6.33A54.08,54.08,0,0,0,613.5,188q-2.43-1.41-4.94-2.59L606.79,177l-.12-.06c.74,6.19,2.11,17.88,1.89,19-.12.62-3.19,3.67-6.95,7.2a5.67,5.67,0,0,1,.53,2.85c0,.09-2.36,1-6.12,2.29-3.6,3.25-6.89,6.14-8.14,7.16-3.25,2.66-37.82,12.41-37.82,12.41l-26.29,2.37-20.68-8.28s-2.59-3.83-5.14-7.47c-.68.6-1.34,1.19-1.95,1.78l-8.7-4.94v16.54h0q0,10.5,15.58,19.51a66.75,66.75,0,0,0,38.94,8.8q21.1-1.5,43.46-14.4l19.84-11.46Q626.61,217.62,628.86,205.53Z"/><path class="cls-9" d="M585.29,225.18q-22.35,12.9-43.46,14.4a66.75,66.75,0,0,1-38.94-8.8q-17.62-10.18-15.33-22.27t23.77-24.75l19.84-11.46q22.58-13,43.65-14.38a67,67,0,0,1,38.68,8.83q17.63,10.17,15.36,22.24t-23.73,24.73Zm.42-25q13.41-7.74,15.86-13.39t-5.32-10.14a26,26,0,0,0-17-3.07q-9.4,1.29-22,8.3l-26.23,15.15q-13.2,7.62-16,13.39t5.1,10.35a25.84,25.84,0,0,0,17.48,3q9.63-1.55,22.45-8.78Z"/><polygon class="cls-2" points="285.89 224.16 267.44 199.56 267.44 234.81 285.89 224.16"/><polygon class="cls-5" points="248.99 224.16 267.44 199.56 267.44 234.81 248.99 224.16"/><path class="cls-5" d="M325.67,381v-1.71l117.84-73.62h0l9-5.66L458,296.5v12.76c0,4.24-3,8.07-7.78,10.85h0L325.67,392h0l-9.57-5.53Z"/><path class="cls-5" d="M451.45,293.26c-.84-.55-9.28-5.93-17.39-11.1l16.68,6.28.71,4.82Z"/><path class="cls-2" d="M443.35,305.52,408,285.08V272.32l26.11,9.84c8.11,5.17,16.55,10.55,17.39,11.1h0l1,6.65.07,0-9,5.66Z"/><path class="cls-19" d="M443.35,292.76c1.66,1,2.69,2.28,2.69,3.74s-1,2.79-2.69,3.74L316.1,373.72l9.57,5.52,124.47-71.86,0,0h.06c4.81-2.78,7.78-6.61,7.78-10.85s-3-8.07-7.78-10.84h-.08l0,0L417.52,266.8,408,272.32Z"/><line class="cls-20" x1="414.94" y1="276.36" x2="443.35" y2="292.76"/><line class="cls-18" x1="421.39" y1="280.08" x2="436.9" y2="289.04"/><polyline class="cls-20" points="331.16 376.07 450.14 307.38 450.12 307.37"/><line class="cls-18" x1="339.53" y1="371.24" x2="442.67" y2="311.69"/><path class="cls-4" d="M443.35,292.76c1.66,1,2.69,2.28,2.69,3.74s-1,2.79-2.69,3.74L316.1,373.72l9.57,5.52,5.49-3.17"/><path class="cls-4" d="M450.12,307.36h.06c4.81-2.78,7.78-6.61,7.78-10.85s-3-8.07-7.78-10.84h-.08l0,0L417.52,266.8,408,272.32l7,4"/><polygon class="cls-2" points="316.1 386.47 325.67 392 325.67 379.24 316.1 373.72 316.1 386.47"/><line class="cls-4" x1="443.35" y1="292.76" x2="414.94" y2="276.36"/><path class="cls-15" d="M420.85,216.65,450,233.44c8,4.62,8,12.09,0,16.7h0c-8,4.61-20.94,4.61-28.92,0l-29.1-16.8c-8-4.61-8-12.08,0-16.69h0C399.92,212,412.86,212,420.85,216.65Z"/><path class="cls-5" d="M385.94,215.71V225c0,3,2,6,6,8.35,8,4.62,20.93,4.62,28.92,0,4-2.3,6-5.32,6-8.35v-9.28Z"/><path class="cls-5" d="M426.84,215.71V225c0,3-2,6-6,8.35a29.51,29.51,0,0,1-14.46,3.46V215.71Z"/><path class="cls-2" d="M385.94,215.71V225c0,3,2,6,6,8.35,8,4.62,20.93,4.62,28.92,0,4-2.3,6-5.32,6-8.35v-9.28Z"/><path class="cls-3" d="M406.39,236.8a29.51,29.51,0,0,1-14.46-3.46c-4-2.3-6-5.32-6-8.35v-9.28h20.45Z"/><path class="cls-4" d="M385.94,215.71V225c0,3,2,6,6,8.35,8,4.62,20.93,4.62,28.92,0,4-2.3,6-5.32,6-8.35v-9.28Z"/><ellipse class="cls-14" cx="406.39" cy="215.71" rx="20.45" ry="11.81"/><path class="cls-2" d="M285.55,273.86v-.33c0-1.7-2.39-3.08-5.34-3.08H260.83c-2.95,0-5.35,1.38-5.35,3.08v.33H207v48.55h0a2.14,2.14,0,0,0,.71,1.54l9.69,9.69c1.47,1.48,4.74,2,7.3,1.13l12.64-4.21a64.44,64.44,0,0,0,18.09,6V345c0,1.7,2.4,3.08,5.35,3.08h19.38c3,0,5.34-1.38,5.34-3.08v-8.43a64.4,64.4,0,0,0,18.1-6l12.64,4.21c2.56.85,5.82.35,7.3-1.13l9.69-9.69a2.14,2.14,0,0,0,.71-1.54h0V273.86Z"/><path class="cls-3" d="M303.65,330.56h0l12.64,4.21a8.68,8.68,0,0,0,3.79.34V291H303.65Z"/><path class="cls-3" d="M207.76,324l9.69,9.69a6.88,6.88,0,0,0,4.9,1.54V273.86H207v48.55h0A2.14,2.14,0,0,0,207.76,324Z"/><path class="cls-5" d="M237.39,330.56a64.44,64.44,0,0,0,18.09,6V285.76H237.39v44.8Z"/><ellipse class="cls-5" cx="270.52" cy="286.79" rx="22.27" ry="12.86"/><line class="cls-4" x1="207.04" y1="294.57" x2="207.04" y2="316.84"/><line class="cls-4" x1="237.39" y1="302.71" x2="237.39" y2="330.56"/><line class="cls-4" x1="255.48" y1="317.17" x2="255.48" y2="345.02"/><line class="cls-4" x1="285.55" y1="317.17" x2="285.55" y2="345.02"/><line class="cls-4" x1="303.65" y1="302.71" x2="303.65" y2="330.56"/><path class="cls-13" d="M248.25,286.79c0,7.1,10,12.85,22.27,12.85V273.93C258.22,273.93,248.25,279.68,248.25,286.79Z"/><ellipse class="cls-4" cx="270.52" cy="286.79" rx="22.27" ry="12.86"/><path class="cls-4" d="M207,273.86v48.55h0a2.14,2.14,0,0,0,.71,1.54l9.69,9.69c1.47,1.48,4.74,2,7.3,1.13l12.64-4.21a64.44,64.44,0,0,0,18.09,6V345c0,1.7,2.4,3.08,5.35,3.08h19.38c3,0,5.34-1.38,5.34-3.08v-8.43a64.4,64.4,0,0,0,18.1-6l12.64,4.21c2.56.85,5.82.35,7.3-1.13l9.69-9.69a2.14,2.14,0,0,0,.71-1.54h0V273.86"/><path class="cls-14" d="M331.32,297l-12.63-4.21a17,17,0,0,0,0-12.07l12.63-4.21c2.56-.85,3.44-2.74,2-4.22l-9.69-9.68c-1.48-1.48-4.74-2-7.3-1.13l-12.64,4.21a64.73,64.73,0,0,0-18.1-6v-8.42c0-1.7-2.39-3.09-5.34-3.09H260.83c-2.95,0-5.35,1.39-5.35,3.09v8.42a64.76,64.76,0,0,0-18.09,6l-12.64-4.21c-2.56-.86-5.83-.35-7.3,1.13l-9.69,9.68c-1.48,1.48-.6,3.37,2,4.22l12.64,4.21a17,17,0,0,0,0,12.07L209.71,297c-2.55.85-3.43,2.74-2,4.22l9.69,9.69c1.47,1.47,4.74,2,7.3,1.12l12.64-4.21a64.76,64.76,0,0,0,18.09,6v8.42c0,1.7,2.4,3.09,5.35,3.09h19.38c3,0,5.34-1.39,5.34-3.09v-8.42a64.73,64.73,0,0,0,18.1-6l12.64,4.21c2.56.86,5.82.35,7.3-1.12l9.69-9.69C334.76,299.77,333.88,297.88,331.32,297Zm-60.8,2.61c-12.3,0-22.27-5.75-22.27-12.85s10-12.86,22.27-12.86,22.27,5.75,22.27,12.86S282.82,299.64,270.52,299.64Z"/></g></g></svg>