<?xml version="1.0" encoding="UTF-8"?>
<svg width="12px" height="12px" viewBox="0 0 12 12" version="1.1" xmlns="http://www.w3.org/2000/svg" xmlns:xlink="http://www.w3.org/1999/xlink">
    <!-- Generator: Sketch 53.2 (72643) - https://sketchapp.com -->
    <title>bug</title>
    <desc>Created with Sketch.</desc>
    <defs>
        <path d="M8.0986,1.8672 C8.5916,2.3522 8.9236,3.0022 8.9886,3.7312 C9.0006,3.8762 8.8766,4.0002 8.7326,4.0002 L3.2676,4.0002 C3.1226,4.0002 2.9986,3.8762 3.0116,3.7312 C3.0766,3.0112 3.4006,2.3692 3.8836,1.8862 L3.5526,1.2242 C3.4296,0.9772 3.5296,0.6772 3.7766,0.5532 C4.0246,0.4302 4.3236,0.5292 4.4476,0.7772 L4.7106,1.3042 C5.1026,1.1162 5.5356,1.0002 5.9996,1.0002 C6.4566,1.0002 6.8846,1.1122 7.2716,1.2942 L7.5606,0.7622 C7.6936,0.5182 7.9966,0.4302 8.2386,0.5612 C8.4816,0.6922 8.5716,0.9962 8.4396,1.2392 L8.0986,1.8672 Z M10.7803,8.2202 L11.7803,9.2202 C12.0733,9.5132 12.0733,9.9882 11.7803,10.2812 C11.6343,10.4272 11.4423,10.5002 11.2503,10.5002 C11.0573,10.5002 10.8663,10.4272 10.7193,10.2812 L10.0133,9.5742 C9.9663,9.5272 9.9013,9.5002 9.8353,9.5002 L9.6963,9.5002 C9.1973,10.7172 8.1193,11.6322 6.7993,11.9002 C6.6453,11.9312 6.5003,11.8042 6.5003,11.6482 L6.5003,5.5002 C6.5003,5.2232 6.7233,5.0002 7.0003,5.0002 L8.2483,5.0002 C8.2483,5.0002 8.2493,4.9992 8.2503,4.9992 L9.7333,5.0002 C9.8663,5.0002 9.9933,4.9472 10.0873,4.8532 L10.7193,4.2202 C11.0113,3.9282 11.4863,3.9262 11.7803,4.2192 C12.0733,4.5122 12.0733,4.9872 11.7803,5.2802 L10.7813,6.2802 C10.6403,6.4212 10.4503,6.5002 10.2513,6.5002 L10.0003,6.5002 L10.0003,8.0002 L10.2503,8.0002 C10.4493,8.0002 10.6393,8.0792 10.7803,8.2202 Z M5,5 C5.275,5 5.5,5.224 5.5,5.5 L5.5,11.648 C5.5,11.805 5.355,11.932 5.201,11.9 C3.885,11.633 2.81,10.722 2.309,9.511 L2.163,9.51 C2.096,9.51 2.03,9.536 1.982,9.583 L1.278,10.283 C1.132,10.428 0.941,10.5 0.75,10.5 C0.557,10.5 0.364,10.427 0.218,10.279 C-0.074,9.985 -0.072,9.51 0.222,9.218 L1.223,8.225 C1.365,8.084 1.586,8.025 1.756,8.007 L2.001,8.009 C2.001,8.006 2,8.003 2,8 L2,6.509 L1.746,6.507 C1.548,6.505 1.358,6.426 1.219,6.285 L0.218,5.279 C-0.074,4.985 -0.072,4.51 0.222,4.218 C0.514,3.926 0.99,3.927 1.282,4.221 L1.92,4.863 C2.014,4.956 2.14,5.009 2.271,5.01 L2.443,5.011 C2.463,5.009 2.479,5 2.5,5 L5,5 Z" id="path-1"></path>
    </defs>
    <g id="Symbols" stroke="none" stroke-width="1" fill="none" fill-rule="evenodd">
        <g id="Standard-/-Bug">
            <mask id="mask-2" fill="white">
                <use xlink:href="#path-1"></use>
            </mask>
            <use id="bug" fill="#1B2025" xlink:href="#path-1"></use>
        </g>
    </g>
</svg>