<?xml version="1.0" encoding="UTF-8"?>
<svg width="12px" height="12px" viewBox="0 0 12 12" version="1.1" xmlns="http://www.w3.org/2000/svg" xmlns:xlink="http://www.w3.org/1999/xlink">
    <!-- Generator: Sketch 53.2 (72643) - https://sketchapp.com -->
    <title>clone</title>
    <desc>Created with Sketch.</desc>
    <defs>
        <path d="M2.75,4.5 L2.75,8 L1,8 C0.447,8 0,7.552 0,7 L0,1 C0,0.448 0.447,0 1,0 L7,0 C7.553,0 8,0.448 8,1 L8,2.75 L4.5,2.75 C3.535,2.75 2.75,3.535 2.75,4.5 Z M11,4 C11.553,4 12,4.448 12,5 L12,11 C12,11.552 11.553,12 11,12 L5,12 C4.447,12 4,11.552 4,11 L4,5 C4,4.448 4.447,4 5,4 L11,4 Z" id="path-1"></path>
    </defs>
    <g id="Symbols" stroke="none" stroke-width="1" fill="none" fill-rule="evenodd">
        <g id="Standard-/-Clone">
            <mask id="mask-2" fill="white">
                <use xlink:href="#path-1"></use>
            </mask>
            <use id="clone" fill="#1B2025" xlink:href="#path-1"></use>
        </g>
    </g>
</svg>