<?xml version="1.0" encoding="UTF-8"?>
<svg width="10px" height="12px" viewBox="0 0 10 12" version="1.1" xmlns="http://www.w3.org/2000/svg" xmlns:xlink="http://www.w3.org/1999/xlink">
    <!-- Generator: Sketch 53.2 (72643) - https://sketchapp.com -->
    <title>icon-eject</title>
    <desc>Created with Sketch.</desc>
    <defs>
        <path d="M10.0029,12 L2.0579,12 C1.5069,12 1.0609,11.554 1.0609,11.003 L1.0609,10.997 C1.0609,10.446 1.5069,10 2.0579,10 L10.0029,10 C10.5539,10 10.9999,10.446 10.9999,10.997 L10.9999,11.003 C10.9999,11.554 10.5539,12 10.0029,12 Z M1.9756,8 C1.1976,8 0.7336,7.131 1.1646,6.483 L5.1896,0.435 C5.5756,-0.145 6.4246,-0.145 6.8106,0.435 L10.8346,6.483 C11.2666,7.131 10.8026,8 10.0246,8 L1.9756,8 Z" id="path-1"></path>
    </defs>
    <g id="Symbols" stroke="none" stroke-width="1" fill="none" fill-rule="evenodd">
        <g id="Standard-/-Eject" transform="translate(-1.000000, 0.000000)">
            <mask id="mask-2" fill="white">
                <use xlink:href="#path-1"></use>
            </mask>
            <use id="icon-eject" fill="#1B2025" xlink:href="#path-1"></use>
        </g>
    </g>
</svg>