<?xml version="1.0" encoding="UTF-8"?>
<svg width="12px" height="12px" viewBox="0 0 12 12" version="1.1" xmlns="http://www.w3.org/2000/svg" xmlns:xlink="http://www.w3.org/1999/xlink">
    <!-- Generator: Sketch 53.2 (72643) - https://sketchapp.com -->
    <title>icon-enter</title>
    <desc>Created with Sketch.</desc>
    <defs>
        <path d="M3.146,5.646 L6.288,2.504 C6.678,2.114 7.311,2.114 7.702,2.504 C8.092,2.895 8.092,3.528 7.702,3.918 L6.621,5 L11,5 C11.552,5 12,5.447 12,6 C12,6.552 11.552,7 11,7 L6.621,7 L7.703,8.082 C8.094,8.473 8.094,9.105 7.703,9.496 C7.508,9.691 7.252,9.789 6.996,9.789 C6.74,9.789 6.484,9.691 6.289,9.496 L3.146,6.353 C2.951,6.158 2.951,5.841 3.146,5.646 Z M3.0005,2 L2.0005,2 L2.0005,10 L3.0005,10 C3.5525,10 4.0005,10.447 4.0005,11 C4.0005,11.552 3.5525,12 3.0005,12 L1.0005,12 C0.4485,12 0.0005,11.552 0.0005,11 L0.0005,1 C0.0005,0.448 0.4485,0 1.0005,0 L3.0005,0 C3.5525,0 4.0005,0.447 4.0005,1 C4.0005,1.552 3.5525,2 3.0005,2 Z" id="path-1"></path>
    </defs>
    <g id="Symbols" stroke="none" stroke-width="1" fill="none" fill-rule="evenodd">
        <g id="Standard-/-Import">
            <mask id="mask-2" fill="white">
                <use xlink:href="#path-1"></use>
            </mask>
            <use id="icon-enter" fill="#1B2025" xlink:href="#path-1"></use>
        </g>
    </g>
</svg>