<?xml version="1.0" encoding="UTF-8"?>
<svg width="4px" height="12px" viewBox="0 0 4 12" version="1.1" xmlns="http://www.w3.org/2000/svg" xmlns:xlink="http://www.w3.org/1999/xlink">
    <!-- Generator: Sketch 53.2 (72643) - https://sketchapp.com -->
    <title>exclamation-mark</title>
    <desc>Created with Sketch.</desc>
    <defs>
        <path d="M6,0 C6.97509431,-1.79121919e-16 7.76556444,0.790470124 7.76556444,1.76556444 C7.76556444,1.83877361 7.76101101,1.91191191 7.75193053,1.98455575 L7.10949566,7.12403473 C7.04694206,7.62446356 6.62154105,8 6.11721778,8 L5.88278222,8 C5.37845895,8 4.95305794,7.62446356 4.89050434,7.12403473 L4.24806947,1.98455575 C4.1271239,1.01699124 4.81344417,0.134579471 5.78100868,0.0136339063 C5.85365253,0.00455342596 5.92679083,1.34483068e-17 6,0 Z M6.00000024,9.39999962 C6.66274196,9.39999962 7.20000029,9.93725794 7.20000029,10.5999997 L7.20000029,10.7999995 C7.20000029,11.4627412 6.66274196,11.9999995 6.00000024,11.9999995 C5.33725851,11.9999995 4.80000019,11.4627412 4.80000019,10.7999995 L4.80000019,10.5999997 C4.80000019,9.93725794 5.33725851,9.39999962 6.00000024,9.39999962 Z" id="path-1"></path>
    </defs>
    <g id="Symbols" stroke="none" stroke-width="1" fill="none" fill-rule="evenodd">
        <g id="Standard-/-Exclamation-Mark" transform="translate(-4.000000, 0.000000)">
            <mask id="mask-2" fill="white">
                <use xlink:href="#path-1"></use>
            </mask>
            <use id="exclamation-mark" fill="#1B2025" xlink:href="#path-1"></use>
        </g>
    </g>
</svg>