<?xml version="1.0" encoding="UTF-8"?>
<svg width="12px" height="12px" viewBox="0 0 12 12" version="1.1" xmlns="http://www.w3.org/2000/svg" xmlns:xlink="http://www.w3.org/1999/xlink">
    <!-- Generator: Sketch 53.2 (72643) - https://sketchapp.com -->
    <title>health</title>
    <desc>Created with Sketch.</desc>
    <defs>
        <path d="M3.8867,6.001 L0.3397,6 C0.1707,5.535 0.0527,5.051 0.0157,4.543 C-0.1163,2.715 1.0497,1.062 2.8537,0.735 C4.0887,0.513 5.2297,0.941 6.0027,1.731 C6.7767,0.941 7.9167,0.513 9.1527,0.735 C10.9547,1.062 12.1217,2.715 11.9907,4.543 C11.9787,4.695 11.9527,4.845 11.9297,4.994 L8.2547,4.97 L8.2517,4.97 C8.0637,4.97 7.8917,5.075 7.8067,5.243 L7.1597,6.516 L5.6357,4.253 C5.5367,4.107 5.3617,4.022 5.1937,4.033 C5.0177,4.043 4.8597,4.145 4.7777,4.301 L3.8867,6.001 Z M8.5576,5.9717 L11.6686,5.9927 C10.7086,8.6547 7.8926,10.5767 6.6276,11.3277 C6.2426,11.5577 5.7636,11.5577 5.3776,11.3277 C4.2786,10.6757 2.0056,9.1377 0.7976,6.9997 L4.1896,7.0007 C4.3746,7.0007 4.5456,6.8987 4.6326,6.7337 L5.2746,5.5067 L6.8056,7.7797 C6.8996,7.9177 7.0546,7.9997 7.2206,7.9997 C7.2306,7.9997 7.2416,7.9987 7.2506,7.9987 C7.4286,7.9887 7.5856,7.8837 7.6656,7.7267 L8.5576,5.9717 Z" id="path-1"></path>
    </defs>
    <g id="Symbols" stroke="none" stroke-width="1" fill="none" fill-rule="evenodd">
        <g id="Standard-/-Health">
            <mask id="mask-2" fill="white">
                <use xlink:href="#path-1"></use>
            </mask>
            <use id="health" fill="#1B2025" xlink:href="#path-1"></use>
        </g>
    </g>
</svg>