<?xml version="1.0" encoding="UTF-8"?>
<svg width="12px" height="12px" viewBox="0 0 12 12" version="1.1" xmlns="http://www.w3.org/2000/svg" xmlns:xlink="http://www.w3.org/1999/xlink">
    <!-- Generator: Sketch 53.2 (72643) - https://sketchapp.com -->
    <title>Mask</title>
    <desc>Created with Sketch.</desc>
    <defs>
        <path d="M174.983329,104.920234 L174.983329,103.920234 L174.983329,104.920234 Z M174.983329,105.420234 L174.983329,108.420234 C174.983329,108.696376 174.759471,108.920234 174.483329,108.920234 L172.983329,108.920234 C172.431044,108.920234 171.983329,108.472519 171.983329,107.920234 L171.983329,103.920234 L170.75,103.920234 C170.335786,103.920234 170,103.584448 170,103.170234 C170,102.975877 170.075449,102.789109 170.210449,102.649288 L175.443778,97.2290548 C175.731488,96.931069 176.206289,96.9227392 176.504275,97.2104496 C176.510585,97.2165421 176.516787,97.2227448 176.52288,97.2290548 L181.756209,102.649288 C182.043919,102.947274 182.035589,103.422075 181.737603,103.709785 C181.597782,103.844785 181.411015,103.920234 181.216657,103.920234 L179.983329,103.920234 L179.983329,107.920234 C179.983329,108.472519 179.535613,108.920234 178.983329,108.920234 L177.483329,108.920234 C177.207186,108.920234 176.983329,108.696376 176.983329,108.420234 L176.983329,105.920234 L176.983329,103.920234 L176.983329,105.420234 C176.983329,105.144092 176.759471,104.920234 176.483329,104.920234 L175.483329,104.920234 C175.207186,104.920234 174.983329,105.144092 174.983329,105.420234 Z" id="path-1"></path>
    </defs>
    <g id="✂️-Iconography" stroke="none" stroke-width="1" fill="none" fill-rule="evenodd">
        <g id="Standard" transform="translate(-170.000000, -97.000000)">
            <mask id="mask-2" fill="white">
                <use xlink:href="#path-1"></use>
            </mask>
            <use id="Mask" fill="#000000" xlink:href="#path-1"></use>
        </g>
    </g>
</svg>