<?xml version="1.0" encoding="UTF-8"?>
<svg width="12px" height="9px" viewBox="0 0 12 9" version="1.1" xmlns="http://www.w3.org/2000/svg" xmlns:xlink="http://www.w3.org/1999/xlink">
    <!-- Generator: Sketch 53.2 (72643) - https://sketchapp.com -->
    <title>keyboard</title>
    <desc>Created with Sketch.</desc>
    <defs>
        <path d="M9.5,7 L8.5,7 C8.224,7 8,6.776 8,6.5 C8,6.224 8.224,6 8.5,6 L9.5,6 C9.776,6 10,6.224 10,6.5 C10,6.776 9.776,7 9.5,7 M9.5,9 L8.5,9 C8.224,9 8,8.776 8,8.5 C8,8.224 8.224,8 8.5,8 L9.5,8 C9.776,8 10,8.224 10,8.5 C10,8.776 9.776,9 9.5,9 M8,4.5 C8,4.224 8.224,4 8.5,4 L9.5,4 C9.776,4 10,4.224 10,4.5 C10,4.776 9.776,5 9.5,5 L8.5,5 C8.224,5 8,4.776 8,4.5 M6.572,9 L2.429,9 C2.192,9 2,8.776 2,8.5 C2,8.224 2.192,8 2.429,8 L6.572,8 C6.809,8 7,8.224 7,8.5 C7,8.776 6.809,9 6.572,9 M2,6.5 C2,6.224 2.224,6 2.5,6 L3.5,6 C3.776,6 4,6.224 4,6.5 C4,6.776 3.776,7 3.5,7 L2.5,7 C2.224,7 2,6.776 2,6.5 M2,4.5 C2,4.224 2.224,4 2.5,4 L3.5,4 C3.776,4 4,4.224 4,4.5 C4,4.776 3.776,5 3.5,5 L2.5,5 C2.224,5 2,4.776 2,4.5 M7,6.5 C7,6.776 6.776,7 6.5,7 L5.5,7 C5.224,7 5,6.776 5,6.5 C5,6.224 5.224,6 5.5,6 L6.5,6 C6.776,6 7,6.224 7,6.5 M5,4.5 C5,4.224 5.224,4 5.5,4 L6.5,4 C6.776,4 7,4.224 7,4.5 C7,4.776 6.776,5 6.5,5 L5.5,5 C5.224,5 5,4.776 5,4.5 M11,2 L1,2 C0.448,2 0,2.448 0,3 L0,10 C0,10.552 0.448,11 1,11 L11,11 C11.553,11 12,10.552 12,10 L12,3 C12,2.448 11.553,2 11,2" id="path-1"></path>
    </defs>
    <g id="Symbols" stroke="none" stroke-width="1" fill="none" fill-rule="evenodd">
        <g id="Standard-/-Keyboard" transform="translate(0.000000, -2.000000)">
            <mask id="mask-2" fill="white">
                <use xlink:href="#path-1"></use>
            </mask>
            <use id="keyboard" fill="#1B2025" xlink:href="#path-1"></use>
        </g>
    </g>
</svg>