<?xml version="1.0" encoding="UTF-8"?>
<svg width="8px" height="12px" viewBox="0 0 8 12" version="1.1" xmlns="http://www.w3.org/2000/svg" xmlns:xlink="http://www.w3.org/1999/xlink">
    <!-- Generator: Sketch 53.2 (72643) - https://sketchapp.com -->
    <title>question-mark</title>
    <desc>Created with Sketch.</desc>
    <defs>
        <path d="M6.5,7 C6.5,7.55228475 6.05228475,8 5.5,8 C4.94771525,8 4.5,7.55228475 4.5,7 L4.5,6.23181843 C4.5,5.5887231 4.98795196,5.05054452 5.62787539,4.98780017 C7.35723242,4.8180065 8,4.33059022 8,3.5 C8,1.9548699 4.8922442,1.50403287 3.77675575,2.87980196 C3.42892573,3.30879231 2.79918839,3.37458577 2.37019804,3.02675575 C1.94120769,2.67892573 1.87541423,2.04918839 2.22324425,1.62019804 C4.38313985,-1.04367319 10,-0.22884451 10,3.5 C10,5.36908343 8.72147503,6.50474686 6.5,6.88767491 L6.5,7 Z M5.50000024,9.39999962 C6.16274196,9.39999962 6.70000029,9.93725794 6.70000029,10.5999997 L6.70000029,10.7999995 C6.70000029,11.4627412 6.16274196,11.9999995 5.50000024,11.9999995 C4.83725851,11.9999995 4.30000019,11.4627412 4.30000019,10.7999995 L4.30000019,10.5999997 C4.30000019,9.93725794 4.83725851,9.39999962 5.50000024,9.39999962 Z" id="path-1"></path>
    </defs>
    <g id="Symbols" stroke="none" stroke-width="1" fill="none" fill-rule="evenodd">
        <g id="Standard-/-Question-Mark" transform="translate(-2.000000, 0.000000)">
            <mask id="mask-2" fill="white">
                <use xlink:href="#path-1"></use>
            </mask>
            <use id="question-mark" fill="#1B2025" xlink:href="#path-1"></use>
        </g>
    </g>
</svg>