<?xml version="1.0" encoding="UTF-8"?>
<svg width="12px" height="12px" viewBox="0 0 12 12" version="1.1" xmlns="http://www.w3.org/2000/svg" xmlns:xlink="http://www.w3.org/1999/xlink">
    <!-- Generator: Sketch 53.2 (72643) - https://sketchapp.com -->
    <title>store</title>
    <desc>Created with Sketch.</desc>
    <defs>
        <path d="M11,6.35506066 L11,11 C11,11.5522847 10.5522847,12 10,12 L2,12 C1.44771525,12 1,11.5522847 1,11 L1,6.35506066 C1.31685471,6.44936123 1.65251369,6.5 2,6.5 C2.34748631,6.5 2.68314529,6.44936123 3,6.35506066 L3,10 L9,10 L9,6.35506066 C9.31685471,6.44936123 9.65251369,6.5 10,6.5 C10.3474863,6.5 10.6831453,6.44936123 11,6.35506066 Z M8,3 C8,4.1045695 7.1045695,5 6,5 C4.8954305,5 4,4.1045695 4,3 C4,4.1045695 3.1045695,5 2,5 C0.8954305,5 2.22044605e-16,4.1045695 0,3 L0,1 C0,0.44771525 0.44771525,0 1,0 L11,0 C11.5522847,0 12,0.44771525 12,1 L12,3 C12,4.1045695 11.1045695,5 10,5 C8.8954305,5 8,4.1045695 8,3 Z" id="path-1"></path>
    </defs>
    <g id="Symbols" stroke="none" stroke-width="1" fill="none" fill-rule="evenodd">
        <g id="Standard-/-Store">
            <mask id="mask-2" fill="white">
                <use xlink:href="#path-1"></use>
            </mask>
            <use id="store" fill="#1B2025" xlink:href="#path-1"></use>
        </g>
    </g>
</svg>