<?xml version="1.0" encoding="UTF-8"?>
<svg width="12px" height="12px" viewBox="0 0 12 12" version="1.1" xmlns="http://www.w3.org/2000/svg" xmlns:xlink="http://www.w3.org/1999/xlink">
    <!-- Generator: Sketch 53.2 (72643) - https://sketchapp.com -->
    <title>Mask</title>
    <desc>Created with Sketch.</desc>
    <defs>
        <path d="M11,1 C11.553,1 12,1.448 12,2 L12,11 C12,11.552 11.553,12 11,12 L1,12 C0.447,12 0,11.552 0,11 L0,2 C0,1.448 0.447,1 1,1 L2.999,1 C2.999,0.448 3.446,0 3.999,0 L8,0 C8.553,0 9,0.448 9,1 L11,1 Z M1.75,3.5 C1.61192881,3.5 1.5,3.61192881 1.5,3.75 L1.5,10.25 C1.5,10.3880712 1.61192881,10.5 1.75,10.5 L10.25,10.5 C10.3880712,10.5 10.5,10.3880712 10.5,10.25 L10.5,3.75 C10.5,3.61192881 10.3880712,3.5 10.25,3.5 L1.75,3.5 Z M7.4954954,5.19504494 C7.80198862,4.91641475 8.27632486,4.93900219 8.55495506,5.2454954 C8.83358525,5.55198862 8.81099781,6.02632486 8.5045046,6.30495506 L5.7545046,8.80495506 C5.45827367,9.07425589 5.00275621,9.06341638 4.71966991,8.78033009 L3.46966991,7.53033009 C3.1767767,7.23743687 3.1767767,6.76256313 3.46966991,6.46966991 C3.76256313,6.1767767 4.23743687,6.1767767 4.53033009,6.46966991 L5.27465287,7.2139927 L7.4954954,5.19504494 Z" id="path-1"></path>
    </defs>
    <g id="Symbols" stroke="none" stroke-width="1" fill="none" fill-rule="evenodd">
        <g id="Standard-/-Task">
            <mask id="mask-2" fill="white">
                <use xlink:href="#path-1"></use>
            </mask>
            <use id="Mask" fill="#22272E" xlink:href="#path-1"></use>
        </g>
    </g>
</svg>