<?xml version="1.0" encoding="UTF-8"?>
<svg width="12px" height="12px" viewBox="0 0 12 12" version="1.1" xmlns="http://www.w3.org/2000/svg" xmlns:xlink="http://www.w3.org/1999/xlink">
    <!-- Generator: Sketch 53.2 (72643) - https://sketchapp.com -->
    <title>upload</title>
    <desc>Created with Sketch.</desc>
    <defs>
        <path d="M5.646,0.1455 C5.841,-0.0495 6.158,-0.0495 6.354,0.1455 L9.496,3.2885 C9.691,3.4835 9.789,3.7395 9.789,3.9955 C9.789,4.2515 9.691,4.5075 9.496,4.7025 C9.105,5.0935 8.473,5.0935 8.082,4.7025 L7,3.6205 L7,7.9995 C7,8.5515 6.552,8.9995 6,8.9995 C5.447,8.9995 5,8.5515 5,7.9995 L5,3.6205 L3.918,4.7015 C3.528,5.0925 2.895,5.0925 2.504,4.7015 C2.114,4.3115 2.114,3.6785 2.504,3.2875 L5.646,0.1455 Z M11,8 C11.552,8 12,8.448 12,9 L12,11 C12,11.552 11.552,12 11,12 L1,12 C0.447,12 0,11.552 0,11 L0,10.999 L0,9 C0,8.448 0.448,8 1,8 C1.552,8 2,8.448 2,9 L2,10 L10,10 L10,9 C10,8.448 10.448,8 11,8 Z" id="path-1"></path>
    </defs>
    <g id="Symbols" stroke="none" stroke-width="1" fill="none" fill-rule="evenodd">
        <g id="Standard-/-Upload">
            <mask id="mask-2" fill="white">
                <use xlink:href="#path-1"></use>
            </mask>
            <use id="upload" fill="#1B2025" xlink:href="#path-1"></use>
        </g>
    </g>
</svg>