<?xml version="1.0" encoding="UTF-8"?>
<svg width="100px" height="111px" viewBox="0 0 100 111" version="1.1" xmlns="http://www.w3.org/2000/svg" xmlns:xlink="http://www.w3.org/1999/xlink">
    <!-- Generator: Sketch 53.1 (72631) - https://sketchapp.com -->
    <title>alert</title>
    <desc>Created with Sketch.</desc>
    <g id="Page-1" stroke="none" stroke-width="1" fill="none" fill-rule="evenodd">
        <g id="alert" transform="translate(-16.000000, -12.000000)">
            <path d="M62.17,121.39 C87.122225,121.39 107.35,109.829992 107.35,95.57 C107.35,81.3100078 87.122225,69.75 62.17,69.75 C37.217775,69.75 16.99,81.3100078 16.99,95.57 C16.99,109.829992 37.217775,121.39 62.17,121.39 Z" id="Oval" stroke="#D5DAE0" stroke-width="2" stroke-linecap="round" stroke-linejoin="round" stroke-dasharray="0"></path>
            <path d="M90.29,83 C83.73,83 77.11,77.77 77.11,66.11 C77.11,54.45 84.17,41 93.18,35.8 C95.5595175,34.3472536 98.2825786,33.5534589 101.07,33.5 C107.63,33.5 114.26,38.72 114.26,50.39 C114.26,62.06 107.2,75.45 98.18,80.66 C95.8030753,82.1237091 93.0806044,82.9311339 90.29,83 Z" id="Path" stroke="#627386" stroke-width="2" stroke-linecap="round" stroke-linejoin="round"></path>
            <ellipse id="Oval" stroke="#F2F4F6" stroke-width="2" stroke-linecap="round" stroke-linejoin="round" transform="translate(95.683121, 58.227794) rotate(-66.950000) translate(-95.683121, -58.227794) " cx="95.6831212" cy="58.2277945" rx="20.84" ry="11.79"></ellipse>
            <path d="M103,63.24 C100.77,67.8 97.6,71.73 94.14,73.73 C92.986024,74.4748425 91.6606619,74.9120399 90.29,75 C86.47,75 85.11,70.22 85.11,66.12" id="Path" stroke="#D5DAE0" stroke-width="2" stroke-linecap="round" stroke-linejoin="round"></path>
            <path d="M79.11,66.07 C79.11,54.94 85.73,42.41 94.18,37.53 C96.2592086,36.265351 98.6368121,35.5751904 101.07,35.53 C104.687159,35.5099989 108.033152,37.444939 109.82,40.59" id="Path" stroke="#FFFFFF" stroke-width="2" stroke-linecap="round" stroke-linejoin="round"></path>
            <path d="M90.29,73 C88.09,73 87.11,69.54 87.11,66.12 C87.11,57.87 92.18,47.98 98.18,44.51 C99.0407892,43.9326419 100.036463,43.588118 101.07,43.51 C103.27,43.51 104.25,46.97 104.25,50.4 C104.25,58.65 99.18,68.54 93.18,72 C92.3223744,72.5836849 91.3249599,72.928811 90.29,73 Z" id="Path" stroke="#627386" stroke-width="2" stroke-linecap="round" stroke-linejoin="round"></path>
            <path d="M28,33.11 L28,92.18 C28,103.08 43.3,111.91 62.17,111.91 C81.04,111.91 96.34,103.08 96.34,92.18 L96.34,33.11 L28,33.11 Z" id="Path" stroke="#627386" stroke-width="2" fill="#FFFFFF" fill-rule="nonzero" stroke-linecap="round" stroke-linejoin="round"></path>
            <path d="M62.17,111.91 C81.04,111.91 96.34,103.08 96.34,92.18 L96.34,33.11 L62.17,33.11 L62.17,111.91 Z" id="Path" fill="#F2F4F6" fill-rule="nonzero"></path>
            <ellipse id="Oval" fill="#FFFFFF" fill-rule="nonzero" cx="62.17" cy="33.11" rx="34.17" ry="19.73"></ellipse>
            <path d="M28,33.11 L28,92.18 C28,103.08 43.3,111.91 62.17,111.91 C81.04,111.91 96.34,103.08 96.34,92.18 L96.34,33.11" id="Path" stroke="#627386" stroke-width="2" stroke-linecap="round" stroke-linejoin="round"></path>
            <ellipse id="Oval" stroke="#627386" stroke-width="2" fill="#FFFFFF" fill-rule="nonzero" stroke-linecap="round" stroke-linejoin="round" cx="62.17" cy="33.11" rx="28.01" ry="15.01"></ellipse>
            <path d="M62.17,18.11 L62.17,18.11 C46.7,18.11 34.17,24.83 34.17,33.11 C34.17,41.39 46.72,48.11 62.17,48.11 L62.17,48.11 L62.17,18.11 Z" id="Path" fill="#F2F4F6" fill-rule="nonzero"></path>
            <path d="M62.215,48.11 C76.7953174,48.11 88.57,41.6473247 88.57,36.13 C88.57,30.6126753 76.7503174,26.14 62.17,26.14 C47.5896826,26.14 35.77,30.6126753 35.77,36.13 C35.77,41.6473247 47.6346826,48.11 62.215,48.11 Z" id="Oval" stroke="#627386" stroke-width="2" fill="#D5DAE0" fill-rule="nonzero" stroke-linecap="round" stroke-linejoin="round"></path>
            <ellipse id="Oval" stroke="#627386" stroke-width="2" stroke-linecap="round" stroke-linejoin="round" cx="62.17" cy="33.11" rx="28.01" ry="15.01"></ellipse>
            <path d="M28,33.11 C28,28.62 30.6,24.47 35,21.16 C38.9086474,18.3451467 43.3221111,16.3081634 48,15.16 C57.3280715,12.7866592 67.1019285,12.7866592 76.43,15.16 C81.1085506,16.3062714 85.5223631,18.3434156 89.43,21.16 C93.82,24.47 96.43,28.62 96.43,33.16" id="Path" stroke="#627386" stroke-width="2" stroke-linecap="round" stroke-linejoin="round"></path>
            <path d="M92,42.7 C89.4412403,45.2423438 86.4249533,47.2780831 83.11,48.7 C79.8236354,50.1579173 76.3763514,51.2219767 72.84,51.87 C69.309057,52.5370238 65.7233934,52.8718196 62.13,52.87 C58.5332743,52.8722683 54.94425,52.5374713 51.41,51.87 C47.8736486,51.2219767 44.4263646,50.1579173 41.14,48.7 C37.8279111,47.2782569 34.814874,45.242421 32.26,42.7" id="Path" stroke="#D5DAE0" stroke-width="2" stroke-linecap="round" stroke-linejoin="round"></path>
            <path d="M45.45,44.58 C44.91,43.19 43.64,42.72 42.16,43.58 C40.16,44.72 38.6,47.76 38.6,50.39" id="Path" stroke="#627386" stroke-width="2" stroke-linecap="round" stroke-linejoin="round"></path>
            <path d="M44.77,87.74 C44.77,89.21 43.88,89.89 42.77,89.25 L39.08,87.12 L35.39,85 C34.1526945,84.1135971 33.4103013,82.6919142 33.39,81.17 L33.39,70.17 C33.3341298,68.9819857 33.64483,67.8055141 34.28,66.8 L37.23,62.67 C38.12,61.42 40.06,62.54 40.94,64.81 L43.94,72.35 C44.5033008,73.7463935 44.8049854,75.2344779 44.83,76.74 L44.77,87.74 Z" id="Path" stroke="#1B6DC6" stroke-width="2" fill="#D3EDFD" fill-rule="nonzero" stroke-linecap="round" stroke-linejoin="round"></path>
            <path d="M38.6,50.38 L38.6,65.15" id="Path" stroke="#627386" stroke-width="2" stroke-linecap="round" stroke-linejoin="round"></path>
            <path d="M38.6,71.28 L38.6,76.63" id="Path" stroke="#1B6DC6" stroke-width="2" fill="#D3EDFD" fill-rule="nonzero" stroke-linecap="round" stroke-linejoin="round"></path>
            <path d="M38.6,80.79 L38.6,80.63" id="Path" stroke="#1B6DC6" stroke-width="2" fill="#D3EDFD" fill-rule="nonzero" stroke-linecap="round" stroke-linejoin="round"></path>
            <rect id="Rectangle" x="0" y="0" width="126" height="126"></rect>
        </g>
    </g>
</svg>