<svg xmlns="http://www.w3.org/2000/svg" viewBox="0 0 126 126"><defs><style>.cls-1,.cls-10,.cls-12,.cls-2,.cls-3,.cls-4,.cls-5{fill:none;}.cls-1,.cls-4{stroke:#d5dae0;}.cls-1,.cls-10,.cls-11,.cls-2,.cls-3,.cls-4,.cls-5,.cls-6,.cls-9{stroke-linecap:round;stroke-linejoin:round;stroke-width:2px;}.cls-1{stroke-dasharray:0 5.98;}.cls-2,.cls-6{stroke:#627386;}.cls-3{stroke:#f2f4f6;}.cls-5{stroke:#fff;}.cls-6,.cls-8{fill:#fff;}.cls-7{fill:#f2f4f6;}.cls-9{fill:#d5dae0;}.cls-10,.cls-9{stroke:#b8bfca;}.cls-11{fill:#d3edfd;stroke:#1b6dc6;}</style></defs><title>alerts</title><g id="Layer_2" data-name="Layer 2"><g id="Illustrations"><g id="alerts"><ellipse class="cls-1" cx="59.55" cy="91.18" rx="45.18" ry="25.82"/><path class="cls-2" d="M87.67,78.57c-6.56,0-13.19-5.22-13.19-16.89s7.06-25.07,16.08-30.27a15.82,15.82,0,0,1,7.89-2.3c6.56,0,13.19,5.23,13.19,16.89s-7.07,25.07-16.08,30.27A15.72,15.72,0,0,1,87.67,78.57Z"/><ellipse class="cls-3" cx="93.06" cy="53.84" rx="20.84" ry="11.79" transform="translate(7.08 118.39) rotate(-66.95)"/><path class="cls-4" d="M100.42,58.85c-2.23,4.57-5.4,8.49-8.86,10.49a8.11,8.11,0,0,1-3.89,1.23c-3.83,0-5.18-4.79-5.18-8.89"/><path class="cls-5" d="M76.48,61.68c0-11.12,6.63-23.66,15.08-28.54a13.85,13.85,0,0,1,6.89-2,10,10,0,0,1,8.75,5.07"/><path class="cls-2" d="M87.67,68.57c-2.2,0-3.18-3.46-3.18-6.89,0-8.25,5.07-18.14,11.07-21.61a5.92,5.92,0,0,1,2.89-1c2.2,0,3.18,3.46,3.18,6.88,0,8.25-5.07,18.14-11.07,21.61A6,6,0,0,1,87.67,68.57Z"/><path class="cls-6" d="M25.38,28.73V87.79c0,10.9,15.29,19.73,34.17,19.73s34.16-8.83,34.16-19.73V28.73Z"/><path class="cls-7" d="M59.55,107.52c18.87,0,34.16-8.83,34.16-19.73V28.73H59.55Z"/><ellipse class="cls-8" cx="59.55" cy="28.73" rx="34.17" ry="19.73"/><path class="cls-2" d="M25.38,28.73V87.79c0,10.9,15.29,19.73,34.17,19.73s34.16-8.83,34.16-19.73V28.73"/><ellipse class="cls-6" cx="59.55" cy="28.73" rx="28.01" ry="15.01"/><path class="cls-7" d="M59.55,13.72h0c-15.48,0-28,6.72-28,15s12.54,15,28,15h0Z"/><ellipse class="cls-9" cx="59.55" cy="33.74" rx="26.4" ry="9.99"/><ellipse class="cls-2" cx="59.55" cy="28.73" rx="28.01" ry="15.01"/><path class="cls-2" d="M25.38,28.73c0-4.5,2.6-8.64,7-12a37.49,37.49,0,0,1,13-6,57.65,57.65,0,0,1,28.43,0,37.49,37.49,0,0,1,13,6c4.39,3.32,7,7.46,7,12"/><path class="cls-10" d="M89.42,39.31a28.75,28.75,0,0,1-8.89,6,46.64,46.64,0,0,1-10.27,3.17,57.55,57.55,0,0,1-10.71,1,57.58,57.58,0,0,1-10.72-1A46.64,46.64,0,0,1,38.56,45.3a28.75,28.75,0,0,1-8.89-6"/><path class="cls-2" d="M42.82,40.19c-.54-1.39-1.8-1.86-3.28-1C37.58,40.32,36,43.37,36,46"/><path class="cls-11" d="M42.46,85c0,1.56-1,2.27-2.11,1.6l-3.89-2.25-3.89-2.25a5,5,0,0,1-2.11-4V66.45a6.11,6.11,0,0,1,.93-3.54l3.11-4.36c.94-1.31,3-.13,3.91,2.26l3.11,7.94a13,13,0,0,1,.94,4.63Z"/><line class="cls-2" x1="35.98" y1="45.99" x2="35.98" y2="60.76"/><line class="cls-11" x1="35.98" y1="66.9" x2="35.98" y2="73.24"/><line class="cls-11" x1="35.98" y1="78.4" x2="35.98" y2="78.25"/><rect class="cls-12" width="126" height="126"/></g></g></g></svg>