<svg xmlns="http://www.w3.org/2000/svg" viewBox="0 0 125.98 126"><defs><style>.cls-1{fill:#f2f4f6;}.cls-2{fill:#d5dae0;}.cls-10,.cls-14,.cls-3,.cls-5{fill:none;}.cls-4,.cls-8{fill:#fff;}.cls-4{stroke:#b8bfca;}.cls-10,.cls-11,.cls-12,.cls-13,.cls-14,.cls-4,.cls-5{stroke-linecap:round;stroke-linejoin:round;}.cls-10,.cls-11,.cls-12,.cls-13,.cls-14,.cls-4,.cls-5,.cls-8{stroke-width:2px;}.cls-5{stroke:#627386;}.cls-12,.cls-6{fill:#d3edfd;}.cls-11,.cls-7{fill:#bde4fd;}.cls-11,.cls-12,.cls-13,.cls-8{stroke:#91d2fb;}.cls-8{stroke-miterlimit:10;}.cls-9{fill:#91d2fb;}.cls-10,.cls-14{stroke:#1b6dc6;}.cls-13{fill:#e9f6fe;}.cls-14{stroke-dasharray:0 6.07;}</style></defs><title>budget_alert</title><g id="Layer_2" data-name="Layer 2"><g id="Illustrations"><g id="budget_alert"><path class="cls-1" d="M116,82.14l-.3-.18c-8.69-5-22.79-5-31.48,0l-.31.18H77.67v8.68c0,3.29,2.17,6.58,6.52,9.09,8.69,5,22.79,5,31.48,0,4.35-2.51,6.52-5.8,6.52-9.09V82.14Z"/><path class="cls-2" d="M115.67,99.91c4.35-2.51,6.52-5.8,6.52-9.09V82.14H116l-.3-.18a32.17,32.17,0,0,0-15.74-3.77v25.48A32.17,32.17,0,0,0,115.67,99.91Z"/><path class="cls-3" d="M116,82.14l-.3-.18c-8.69-5-22.79-5-31.48,0l-.31.18H77.67v8.68c0,3.29,2.17,6.58,6.52,9.09,8.69,5,22.79,5,31.48,0,4.35-2.51,6.52-5.8,6.52-9.09V82.14Z"/><ellipse class="cls-4" cx="99.93" cy="82.14" rx="22.26" ry="12.85"/><path class="cls-2" d="M106.93,85.06l1.92,1.11-1.7,1-1.87-1.08a15.65,15.65,0,0,1-2.86,1.14,13.07,13.07,0,0,1-2.77.54L98.5,86a14.87,14.87,0,0,0,2.32-.43,11.74,11.74,0,0,0,2.21-.8l-2.88-1.66a26.66,26.66,0,0,1-2.69.82,9.2,9.2,0,0,1-2.46.21,5.39,5.39,0,0,1-2.42-.75,2.33,2.33,0,0,1-1.41-2,3.42,3.42,0,0,1,1.74-2.45L91,77.84l1.71-1,1.87,1.08a14.15,14.15,0,0,1,4.52-1.41l1.24,1.71a13.52,13.52,0,0,0-3.5,1l2.93,1.69a22,22,0,0,1,2.64-.82,8.65,8.65,0,0,1,2.45-.2,5.33,5.33,0,0,1,2.39.73,2.28,2.28,0,0,1,1.39,2C108.62,83.41,108.06,84.21,106.93,85.06ZM96.22,82a6.2,6.2,0,0,0,1.42-.28l-2.45-1.41a1.17,1.17,0,0,0-.47.84.83.83,0,0,0,.48.63,2,2,0,0,0,1,.22m6.07.43,2.37,1.37a1.11,1.11,0,0,0,.47-.79.72.72,0,0,0-.42-.61,1.89,1.89,0,0,0-1-.22,7.22,7.22,0,0,0-1.39.25"/><path class="cls-5" d="M115.67,73.05c-8.69-5-22.79-5-31.48,0-4.35,2.51-6.52,5.8-6.52,9.09v8.68c0,3.29,2.17,6.58,6.52,9.09a32.14,32.14,0,0,0,15.74,3.76,36.87,36.87,0,0,0,8.38-.94c.84-.19,1.65-.43,2.45-.69a26.83,26.83,0,0,0,4-1.67c.29-.15.6-.3.88-.46.54-.31,1-.64,1.53-1a15.21,15.21,0,0,0,2.44-2.13,11.78,11.78,0,0,0,.92-1.14,9.43,9.43,0,0,0,1.22-2.38,7.79,7.79,0,0,0,.41-2.46V82.14C122.19,78.85,120,75.56,115.67,73.05Z"/><path class="cls-1" d="M42.1,82.14,41.79,82c-8.69-5-22.79-5-31.48,0l-.3.18H3.79v8.68c0,3.29,2.17,6.58,6.52,9.09,8.69,5,22.79,5,31.48,0,4.35-2.51,6.52-5.8,6.52-9.09V82.14Z"/><path class="cls-2" d="M41.79,99.91c4.35-2.51,6.52-5.8,6.52-9.09V82.14H42.1L41.79,82a32.14,32.14,0,0,0-15.74-3.77v25.48A32.14,32.14,0,0,0,41.79,99.91Z"/><path class="cls-3" d="M42.1,82.14,41.79,82c-8.69-5-22.79-5-31.48,0l-.3.18H3.79v8.68c0,3.29,2.17,6.58,6.52,9.09,8.69,5,22.79,5,31.48,0,4.35-2.51,6.52-5.8,6.52-9.09V82.14Z"/><ellipse class="cls-4" cx="26.05" cy="82.14" rx="22.26" ry="12.85"/><path class="cls-2" d="M33.06,85.06,35,86.17l-1.71,1-1.86-1.08a15.94,15.94,0,0,1-2.86,1.14,13.19,13.19,0,0,1-2.77.54L24.62,86A14.77,14.77,0,0,0,27,85.58a11.9,11.9,0,0,0,2.2-.8l-2.87-1.66a26,26,0,0,1-2.7.82,8.75,8.75,0,0,1-2.46.21,5.42,5.42,0,0,1-2.42-.75,2.33,2.33,0,0,1-1.41-2c0-.79.58-1.61,1.75-2.45l-1.91-1.1,1.7-1,1.87,1.08a14.12,14.12,0,0,1,4.53-1.41l1.24,1.71a13.29,13.29,0,0,0-3.5,1l2.92,1.69a22.55,22.55,0,0,1,2.64-.82,8.75,8.75,0,0,1,2.46-.2,5.36,5.36,0,0,1,2.39.73,2.27,2.27,0,0,1,1.38,2A3.47,3.47,0,0,1,33.06,85.06ZM22.34,82a6.1,6.1,0,0,0,1.42-.28l-2.44-1.41a1.11,1.11,0,0,0-.47.84.82.82,0,0,0,.47.63,2,2,0,0,0,1,.22m6.08.43,2.37,1.37a1.15,1.15,0,0,0,.47-.79.71.71,0,0,0-.43-.61,1.87,1.87,0,0,0-1-.22,7.27,7.27,0,0,0-1.38.25"/><path class="cls-5" d="M41.79,73.05c-8.69-5-22.78-5-31.48,0C6,75.56,3.79,78.85,3.79,82.14v8.68c0,3.29,2.17,6.58,6.52,9.09a32.2,32.2,0,0,0,15.74,3.76,36.87,36.87,0,0,0,8.38-.94c.84-.19,1.66-.43,2.46-.69a26.28,26.28,0,0,0,4-1.67c.3-.15.6-.3.88-.46a16.09,16.09,0,0,0,1.53-1,15.3,15.3,0,0,0,2.45-2.13,11.64,11.64,0,0,0,.91-1.14,9.16,9.16,0,0,0,1.23-2.38,7.77,7.77,0,0,0,.4-2.46V82.14C48.32,78.85,46.14,75.56,41.79,73.05Z"/><path class="cls-1" d="M42.1,73.46l-.31-.19c-8.69-5-22.79-5-31.48,0l-.3.19H3.79v8.68c0,3.29,2.17,6.58,6.52,9.09,8.69,5,22.79,5,31.48,0,4.35-2.51,6.52-5.8,6.52-9.09V73.46Z"/><path class="cls-2" d="M41.79,91.23c4.35-2.51,6.52-5.8,6.52-9.09V73.46H42.1l-.31-.19a32.14,32.14,0,0,0-15.74-3.76V95A32.14,32.14,0,0,0,41.79,91.23Z"/><path class="cls-3" d="M42.1,73.46l-.31-.19c-8.69-5-22.79-5-31.48,0l-.3.19H3.79v8.68c0,3.29,2.17,6.58,6.52,9.09,8.69,5,22.79,5,31.48,0,4.35-2.51,6.52-5.8,6.52-9.09V73.46Z"/><ellipse class="cls-4" cx="26.05" cy="73.46" rx="22.26" ry="12.85"/><path class="cls-2" d="M33.06,76.38,35,77.49l-1.71,1L31.41,77.4a15.94,15.94,0,0,1-2.86,1.14,12.52,12.52,0,0,1-2.77.53l-1.16-1.75A13.66,13.66,0,0,0,27,76.9a12.67,12.67,0,0,0,2.2-.8l-2.87-1.66a26,26,0,0,1-2.7.82,8.75,8.75,0,0,1-2.46.2,5.37,5.37,0,0,1-2.42-.74,2.34,2.34,0,0,1-1.41-2c0-.78.58-1.6,1.75-2.44l-1.91-1.1,1.7-1,1.87,1.08a14.12,14.12,0,0,1,4.53-1.41l1.24,1.71a13.69,13.69,0,0,0-3.5,1l2.92,1.69a24.39,24.39,0,0,1,2.64-.81A9.13,9.13,0,0,1,31,71.22a5.49,5.49,0,0,1,2.39.73,2.29,2.29,0,0,1,1.38,2A3.47,3.47,0,0,1,33.06,76.38ZM22.34,73.26A5.57,5.57,0,0,0,23.76,73l-2.44-1.42a1.14,1.14,0,0,0-.47.84.81.81,0,0,0,.47.64,1.89,1.89,0,0,0,1,.21m6.08.44,2.37,1.37a1.16,1.16,0,0,0,.47-.8.71.71,0,0,0-.43-.6,1.87,1.87,0,0,0-1-.22,6,6,0,0,0-1.38.25"/><path class="cls-5" d="M41.79,64.37c-8.69-5-22.78-5-31.48,0C6,66.88,3.79,70.17,3.79,73.46v8.68c0,3.29,2.17,6.58,6.52,9.09A32.2,32.2,0,0,0,26.05,95a36.87,36.87,0,0,0,8.38-.94c.84-.2,1.66-.44,2.46-.69a26.28,26.28,0,0,0,4-1.67c.3-.16.6-.3.88-.46.55-.32,1.06-.64,1.53-1a15.3,15.3,0,0,0,2.45-2.13A13,13,0,0,0,46.68,87a9.21,9.21,0,0,0,1.23-2.39,7.71,7.71,0,0,0,.4-2.45V73.46C48.32,70.17,46.14,66.88,41.79,64.37Z"/><path class="cls-1" d="M79,103.46l-.3-.18c-8.69-5-22.79-5-31.48,0l-.3.18H40.73v8.69c0,3.29,2.17,6.58,6.52,9.09,8.69,5,22.79,5,31.48,0,4.35-2.51,6.52-5.8,6.52-9.09v-8.69Z"/><path class="cls-2" d="M78.73,121.24c4.35-2.51,6.52-5.8,6.52-9.09v-8.69H79l-.3-.18A32.17,32.17,0,0,0,63,99.52V125A32.17,32.17,0,0,0,78.73,121.24Z"/><path class="cls-3" d="M79,103.46l-.3-.18c-8.69-5-22.79-5-31.48,0l-.3.18H40.73v8.69c0,3.29,2.17,6.58,6.52,9.09,8.69,5,22.79,5,31.48,0,4.35-2.51,6.52-5.8,6.52-9.09v-8.69Z"/><ellipse class="cls-4" cx="62.99" cy="103.46" rx="22.26" ry="12.85"/><path class="cls-2" d="M70,106.39l1.92,1.11-1.7,1-1.87-1.08a15.55,15.55,0,0,1-2.85,1.14,12.6,12.6,0,0,1-2.78.53l-1.15-1.75a14.4,14.4,0,0,0,2.32-.42,12.49,12.49,0,0,0,2.21-.8l-2.87-1.66c-1,.35-1.92.63-2.7.82a8.78,8.78,0,0,1-2.46.2,5.37,5.37,0,0,1-2.42-.74,2.34,2.34,0,0,1-1.41-2c0-.79.58-1.6,1.74-2.44l-1.9-1.11,1.7-1,1.87,1.07a14.12,14.12,0,0,1,4.52-1.4l1.25,1.71a13.3,13.3,0,0,0-3.5,1l2.92,1.69a24,24,0,0,1,2.64-.82,9.52,9.52,0,0,1,2.45-.2,5.37,5.37,0,0,1,2.4.73,2.28,2.28,0,0,1,1.38,2C71.68,104.74,71.12,105.54,70,106.39Zm-10.71-3.12A5.64,5.64,0,0,0,60.7,103l-2.45-1.42a1.19,1.19,0,0,0-.47.84.87.87,0,0,0,.48.64,1.87,1.87,0,0,0,1,.21m6.08.44,2.37,1.37a1.16,1.16,0,0,0,.47-.8.71.71,0,0,0-.43-.6,1.79,1.79,0,0,0-1-.22,5.88,5.88,0,0,0-1.38.25"/><path class="cls-5" d="M78.73,94.38c-8.69-5-22.79-5-31.48,0-4.35,2.51-6.52,5.8-6.52,9.08v8.69c0,3.29,2.17,6.58,6.52,9.09A32.17,32.17,0,0,0,63,125a36.87,36.87,0,0,0,8.38-.94c.84-.2,1.65-.44,2.46-.7a25.68,25.68,0,0,0,4-1.66c.29-.16.6-.3.88-.46.55-.32,1-.64,1.53-1a14.86,14.86,0,0,0,2.45-2.14,12,12,0,0,0,.91-1.14,9,9,0,0,0,1.22-2.38,7.46,7.46,0,0,0,.41-2.45v-8.68C85.25,100.18,83.08,96.89,78.73,94.38Z"/><path class="cls-1" d="M79,94.78l-.3-.18c-8.69-5-22.79-5-31.48,0l-.3.18H40.73v8.68c0,3.29,2.17,6.58,6.52,9.09,8.69,5,22.79,5,31.48,0,4.35-2.51,6.52-5.8,6.52-9.09V94.78Z"/><path class="cls-2" d="M78.73,112.55c4.35-2.51,6.52-5.8,6.52-9.09V94.78H79l-.3-.18A32.17,32.17,0,0,0,63,90.83v25.49A32.17,32.17,0,0,0,78.73,112.55Z"/><path class="cls-3" d="M79,94.78l-.3-.18c-8.69-5-22.79-5-31.48,0l-.3.18H40.73v8.68c0,3.29,2.17,6.58,6.52,9.09,8.69,5,22.79,5,31.48,0,4.35-2.51,6.52-5.8,6.52-9.09V94.78Z"/><ellipse class="cls-4" cx="62.99" cy="94.78" rx="22.26" ry="12.85"/><path class="cls-2" d="M70,97.71l1.92,1.1-1.7,1-1.87-1.07a15.53,15.53,0,0,1-2.85,1.13,12.1,12.1,0,0,1-2.78.54l-1.15-1.75a14.4,14.4,0,0,0,2.32-.42,11.75,11.75,0,0,0,2.21-.81l-2.88-1.66a23.67,23.67,0,0,1-2.69.82,8.42,8.42,0,0,1-2.46.21,5.5,5.5,0,0,1-2.42-.74,2.35,2.35,0,0,1-1.41-2A3.42,3.42,0,0,1,56,91.58l-1.9-1.1,1.7-1,1.87,1.08a14.12,14.12,0,0,1,4.52-1.4l1.25,1.71a13.3,13.3,0,0,0-3.5,1l2.92,1.69a24,24,0,0,1,2.64-.82,9.09,9.09,0,0,1,2.45-.2,5.37,5.37,0,0,1,2.4.73,2.27,2.27,0,0,1,1.38,2A3.47,3.47,0,0,1,70,97.71ZM59.28,94.59a5.71,5.71,0,0,0,1.42-.28L58.25,92.9a1.19,1.19,0,0,0-.47.84.84.84,0,0,0,.48.63,1.88,1.88,0,0,0,1,.22m6.08.44,2.37,1.37a1.16,1.16,0,0,0,.47-.8.71.71,0,0,0-.43-.6,1.79,1.79,0,0,0-1-.23,6.54,6.54,0,0,0-1.38.26"/><path class="cls-5" d="M78.73,85.69c-8.69-5-22.79-5-31.48,0-4.35,2.51-6.52,5.8-6.52,9.09v8.68c0,3.29,2.17,6.58,6.52,9.09A32.17,32.17,0,0,0,63,116.32a37.44,37.44,0,0,0,8.38-.94c.84-.2,1.65-.44,2.46-.7a25.71,25.71,0,0,0,4-1.67c.29-.15.6-.29.88-.46.55-.31,1-.64,1.53-1a15.34,15.34,0,0,0,2.45-2.14,12,12,0,0,0,.91-1.14,9,9,0,0,0,1.22-2.38,7.47,7.47,0,0,0,.41-2.46V94.78C85.25,91.49,83.08,88.2,78.73,85.69Z"/><path class="cls-1" d="M79,86.1l-.3-.18c-8.69-5-22.79-5-31.48,0l-.3.18H40.73v8.68c0,3.29,2.17,6.58,6.52,9.09,8.69,5,22.79,5,31.48,0,4.35-2.51,6.52-5.8,6.52-9.09V86.1Z"/><path class="cls-2" d="M78.73,103.87c4.35-2.51,6.52-5.8,6.52-9.09V86.1H79l-.3-.18A32.17,32.17,0,0,0,63,82.15v25.49A32.17,32.17,0,0,0,78.73,103.87Z"/><path class="cls-3" d="M79,86.1l-.3-.18c-8.69-5-22.79-5-31.48,0l-.3.18H40.73v8.68c0,3.29,2.17,6.58,6.52,9.09,8.69,5,22.79,5,31.48,0,4.35-2.51,6.52-5.8,6.52-9.09V86.1Z"/><ellipse class="cls-4" cx="62.99" cy="86.1" rx="22.26" ry="12.85"/><path class="cls-2" d="M70,89l1.92,1.11-1.7,1L68.34,90a15.55,15.55,0,0,1-2.85,1.14,12.66,12.66,0,0,1-2.78.54L61.56,90a14.45,14.45,0,0,0,2.32-.43,11.08,11.08,0,0,0,2.21-.8l-2.87-1.66a26.77,26.77,0,0,1-2.7.82,8.78,8.78,0,0,1-2.46.21,5.39,5.39,0,0,1-2.42-.75,2.33,2.33,0,0,1-1.41-2A3.42,3.42,0,0,1,56,82.9l-1.9-1.1,1.7-1,1.87,1.08a14.4,14.4,0,0,1,4.52-1.41l1.25,1.71a13.29,13.29,0,0,0-3.5,1l2.92,1.69a22,22,0,0,1,2.64-.82,8.71,8.71,0,0,1,2.45-.2,5.37,5.37,0,0,1,2.4.73,2.27,2.27,0,0,1,1.38,2A3.44,3.44,0,0,1,70,89ZM59.28,85.91a6.2,6.2,0,0,0,1.42-.28l-2.45-1.41a1.17,1.17,0,0,0-.47.84.85.85,0,0,0,.48.63,2,2,0,0,0,1,.22m6.08.44,2.37,1.36a1.15,1.15,0,0,0,.47-.79.71.71,0,0,0-.43-.6,1.79,1.79,0,0,0-1-.23,6.54,6.54,0,0,0-1.38.26"/><path class="cls-5" d="M78.73,77C70,72,55.94,72,47.25,77c-4.35,2.51-6.52,5.8-6.52,9.09v8.68c0,3.29,2.17,6.58,6.52,9.09A32.17,32.17,0,0,0,63,107.64a36.87,36.87,0,0,0,8.38-1c.84-.19,1.65-.43,2.46-.69a26.71,26.71,0,0,0,4-1.67c.29-.15.6-.3.88-.46a17.47,17.47,0,0,0,1.53-1,14.82,14.82,0,0,0,2.45-2.13,12,12,0,0,0,.91-1.14,9,9,0,0,0,1.22-2.38,7.51,7.51,0,0,0,.41-2.46V86.1C85.25,82.81,83.08,79.52,78.73,77Z"/><path class="cls-1" d="M79,77.42l-.3-.19c-8.69-5-22.79-5-31.48,0l-.3.19H40.73V86.1c0,3.29,2.17,6.58,6.52,9.09,8.69,5,22.79,5,31.48,0,4.35-2.51,6.52-5.8,6.52-9.09V77.42Z"/><path class="cls-2" d="M78.73,95.19c4.35-2.51,6.52-5.8,6.52-9.09V77.42H79l-.3-.19A32.17,32.17,0,0,0,63,73.47V99A32.17,32.17,0,0,0,78.73,95.19Z"/><path class="cls-3" d="M79,77.42l-.3-.19c-8.69-5-22.79-5-31.48,0l-.3.19H40.73V86.1c0,3.29,2.17,6.58,6.52,9.09,8.69,5,22.79,5,31.48,0,4.35-2.51,6.52-5.8,6.52-9.09V77.42Z"/><ellipse class="cls-4" cx="62.99" cy="77.42" rx="22.26" ry="12.85"/><path class="cls-2" d="M70,80.34l1.92,1.11-1.7,1-1.87-1.08a15.55,15.55,0,0,1-2.85,1.14,12.6,12.6,0,0,1-2.78.53l-1.15-1.74a14.45,14.45,0,0,0,2.32-.43,11.74,11.74,0,0,0,2.21-.8L63.21,78.4a25.91,25.91,0,0,1-2.69.82,9.17,9.17,0,0,1-2.46.21,5.51,5.51,0,0,1-2.42-.75,2.33,2.33,0,0,1-1.41-2A3.42,3.42,0,0,1,56,74.22l-1.9-1.1,1.7-1,1.87,1.08a14.15,14.15,0,0,1,4.52-1.41l1.25,1.71a13.29,13.29,0,0,0-3.5,1l2.92,1.68a23.73,23.73,0,0,1,2.64-.81,8.71,8.71,0,0,1,2.45-.2,5.48,5.48,0,0,1,2.4.72,2.29,2.29,0,0,1,1.38,2C71.68,78.69,71.12,79.49,70,80.34ZM59.28,77.22A5.64,5.64,0,0,0,60.7,77l-2.45-1.41a1.17,1.17,0,0,0-.47.84.85.85,0,0,0,.48.63,1.87,1.87,0,0,0,1,.21m6.08.44L67.73,79a1.17,1.17,0,0,0,.47-.79.73.73,0,0,0-.43-.61,1.87,1.87,0,0,0-1-.22,5.88,5.88,0,0,0-1.38.25"/><path class="cls-5" d="M78.73,68.33c-8.69-5-22.79-5-31.48,0-4.35,2.51-6.52,5.8-6.52,9.09V86.1c0,3.29,2.17,6.58,6.52,9.09A32.17,32.17,0,0,0,63,99,36.87,36.87,0,0,0,71.37,98c.84-.2,1.65-.43,2.46-.69a26.71,26.71,0,0,0,4-1.67c.29-.15.6-.3.88-.46.55-.32,1-.64,1.53-1a15.3,15.3,0,0,0,2.45-2.13c.33-.38.64-.76.91-1.14a9.17,9.17,0,0,0,1.22-2.39,7.46,7.46,0,0,0,.41-2.45V77.42C85.25,74.13,83.08,70.84,78.73,68.33Z"/><path class="cls-6" d="M79,25.53l-.3-.18c-8.69-5-22.79-5-31.48,0l-.3.18H40.73v8.69c0,3.29,2.17,6.57,6.52,9.08,8.69,5,22.79,5,31.48,0,4.35-2.51,6.52-5.79,6.52-9.08V25.53Z"/><path class="cls-7" d="M78.73,43.3c4.35-2.51,6.52-5.79,6.52-9.08V25.53H79l-.3-.18A32.17,32.17,0,0,0,63,21.59V47.07A32.17,32.17,0,0,0,78.73,43.3Z"/><path class="cls-3" d="M79,25.53l-.3-.18c-8.69-5-22.79-5-31.48,0l-.3.18H40.73v8.69c0,3.29,2.17,6.57,6.52,9.08,8.69,5,22.79,5,31.48,0,4.35-2.51,6.52-5.79,6.52-9.08V25.53Z"/><ellipse class="cls-8" cx="62.99" cy="25.53" rx="22.26" ry="12.85"/><path class="cls-9" d="M70,28.46l1.92,1.11-1.7,1-1.87-1.08a15.53,15.53,0,0,1-2.85,1.13,12.1,12.1,0,0,1-2.78.54L61.56,29.4A14.4,14.4,0,0,0,63.88,29a11.75,11.75,0,0,0,2.21-.81l-2.87-1.65a26.48,26.48,0,0,1-2.7.81,8.42,8.42,0,0,1-2.46.21,5.5,5.5,0,0,1-2.42-.74,2.34,2.34,0,0,1-1.41-2c0-.79.58-1.6,1.74-2.45l-1.9-1.1,1.7-1,1.87,1.08a14.12,14.12,0,0,1,4.52-1.4l1.25,1.71a13.3,13.3,0,0,0-3.5,1l2.92,1.69a24,24,0,0,1,2.64-.82,9.09,9.09,0,0,1,2.45-.2,5.37,5.37,0,0,1,2.4.73,2.28,2.28,0,0,1,1.38,2C71.68,26.81,71.12,27.61,70,28.46ZM59.28,25.34a5.29,5.29,0,0,0,1.42-.28l-2.45-1.41a1.19,1.19,0,0,0-.47.84.84.84,0,0,0,.48.63,1.88,1.88,0,0,0,1,.22m6.08.44,2.37,1.37a1.16,1.16,0,0,0,.47-.8.71.71,0,0,0-.43-.6,1.79,1.79,0,0,0-1-.22,5.88,5.88,0,0,0-1.38.25"/><path class="cls-10" d="M78.73,16.44c-8.69-5-22.79-5-31.48,0-4.35,2.51-6.52,5.8-6.52,9.09v8.69c0,3.29,2.17,6.57,6.52,9.08A32.17,32.17,0,0,0,63,47.07a37.44,37.44,0,0,0,8.38-.94c.84-.2,1.65-.44,2.46-.7a24.78,24.78,0,0,0,4-1.67c.29-.15.6-.29.88-.46.55-.31,1-.64,1.53-1a15.34,15.34,0,0,0,2.45-2.14,12,12,0,0,0,.91-1.14,9,9,0,0,0,1.22-2.38,7.46,7.46,0,0,0,.41-2.45V25.53C85.25,22.24,83.08,19,78.73,16.44Z"/><path class="cls-6" d="M79,16.85l-.3-.18c-8.69-5-22.79-5-31.48,0l-.3.18H40.73v8.68c0,3.29,2.17,6.58,6.52,9.09,8.69,5,22.79,5,31.48,0,4.35-2.51,6.52-5.8,6.52-9.09V16.85Z"/><path class="cls-7" d="M78.73,34.62c4.35-2.51,6.52-5.8,6.52-9.09V16.85H79l-.3-.18A32.17,32.17,0,0,0,63,12.9V38.39A32.17,32.17,0,0,0,78.73,34.62Z"/><path class="cls-3" d="M79,16.85l-.3-.18c-8.69-5-22.79-5-31.48,0l-.3.18H40.73v8.68c0,3.29,2.17,6.58,6.52,9.09,8.69,5,22.79,5,31.48,0,4.35-2.51,6.52-5.8,6.52-9.09V16.85Z"/><ellipse class="cls-8" cx="62.99" cy="16.85" rx="22.26" ry="12.85"/><path class="cls-10" d="M78.73,7.76c-8.69-5-22.79-5-31.48,0-4.35,2.51-6.52,5.8-6.52,9.09v8.68c0,3.29,2.17,6.58,6.52,9.09A32.17,32.17,0,0,0,63,38.39a37.44,37.44,0,0,0,8.38-.94c.84-.2,1.65-.44,2.46-.7a26.71,26.71,0,0,0,4-1.67c.29-.15.6-.29.88-.46.55-.31,1-.64,1.53-1a15.34,15.34,0,0,0,2.45-2.14,12,12,0,0,0,.91-1.14A9,9,0,0,0,84.84,28a7.47,7.47,0,0,0,.41-2.46V16.85C85.25,13.56,83.08,10.27,78.73,7.76Z"/><polygon class="cls-11" points="76.24 4.83 76.24 13.03 69.61 16.85 69.61 8.65 76.24 4.83"/><polygon class="cls-12" points="49.74 4.83 49.74 13.03 56.37 16.85 56.37 8.65 49.74 4.83"/><polygon class="cls-13" points="76.24 4.83 69.61 1 62.99 4.83 56.37 1 49.74 4.83 56.37 8.65 49.74 12.47 56.37 16.3 62.99 12.47 69.61 16.3 76.24 12.47 69.61 8.65 76.24 4.83"/><polygon class="cls-11" points="76.24 12.47 76.24 20.68 69.61 24.5 69.61 16.3 76.24 12.47"/><polygon class="cls-11" points="62.99 12.47 62.99 20.68 56.37 24.5 56.37 16.3 62.99 12.47"/><polygon class="cls-12" points="62.99 12.47 62.99 20.68 69.61 24.5 69.61 16.3 62.99 12.47"/><polygon class="cls-12" points="49.74 12.47 49.74 20.68 56.37 24.5 56.37 16.3 49.74 12.47"/><polygon class="cls-10" points="69.61 1 62.99 4.83 56.37 1 49.74 4.83 49.74 12.47 49.74 13.03 49.74 20.68 56.37 24.5 62.99 20.68 69.61 24.5 76.24 20.68 76.24 13.03 76.24 12.47 76.24 4.83 69.61 1"/><polygon class="cls-10" points="76.24 4.83 69.61 1 62.99 4.83 56.37 1 49.74 4.83 56.37 8.65 49.74 12.47 56.37 16.3 62.99 12.47 69.61 16.3 76.24 12.47 69.61 8.65 76.24 4.83"/><line class="cls-10" x1="85.25" y1="67.32" x2="85.25" y2="67.32"/><line class="cls-14" x1="85.25" y1="61.25" x2="85.25" y2="46.08"/><line class="cls-10" x1="85.25" y1="43.05" x2="85.25" y2="43.05"/><line class="cls-10" x1="40.73" y1="67.32" x2="40.73" y2="67.32"/><line class="cls-14" x1="40.73" y1="61.25" x2="40.73" y2="46.08"/><line class="cls-10" x1="40.73" y1="43.05" x2="40.73" y2="43.05"/><rect class="cls-3" y="0.01" width="125.98" height="125.98"/></g></g></g></svg>