<svg xmlns="http://www.w3.org/2000/svg" viewBox="0 0 126 126"><defs><style>.cls-1{fill:#f2f4f6;}.cls-2{fill:#fff;}.cls-10,.cls-11,.cls-3,.cls-4,.cls-5,.cls-6,.cls-7,.cls-9{fill:none;}.cls-3{stroke:#627386;}.cls-10,.cls-3,.cls-4,.cls-5,.cls-6,.cls-7,.cls-9{stroke-linecap:round;stroke-linejoin:round;stroke-width:2px;}.cls-4{stroke:#d5dae0;}.cls-5,.cls-6,.cls-7{stroke:#1b6dc6;}.cls-6{stroke-dasharray:0 5.64;}.cls-7{stroke-dasharray:0 5.58;}.cls-8{fill:#e9f6fe;}.cls-9{stroke:#91d2fb;}.cls-10{stroke:#b8bfca;}</style></defs><title>cloud_profile</title><g id="Layer_2" data-name="Layer 2"><g id="Illustrations"><g id="cloud_profile"><path class="cls-1" d="M125,48.2l-17,1,.34,1.85c-7.46-1.22-15.77-.2-21.67,3.13L73.6,61.63c-13.67-6.78-33.74-7-47.61-.58L12.35,62,12.2,77.56h0c0,4.92,2.8,9.86,8.56,13.91l-2,1.12L1.15,92.43,1,108c0,3.31,2.12,6.64,6.47,9.21,8.7,5.13,22.87,5.26,31.67.3l79.07-44.65c4.39-2.49,6.61-5.77,6.64-9.08Z"/><path class="cls-2" d="M86.86,38.7,73.75,46.1c-14.59-7.23-36.47-7-50.33.81S8.7,67.36,20.9,76L7.79,83.35c-8.79,5-8.87,13.15-.17,18.28s22.87,5.27,31.67.3l79.06-44.65c8.8-5,8.88-13.15.18-18.28s-22.87-5.27-31.67-.3"/><path class="cls-3" d="M118.53,39h0c-8.7-5.13-22.87-5.27-31.67-.3L73.75,46.1c-14.59-7.23-36.47-7-50.33.81C16.1,51.05,12.4,56.53,12.35,62h0L12.2,77.56h0a13.06,13.06,0,0,0,.36,3.1L7.79,83.35c-4.39,2.48-6.61,5.77-6.64,9.08L1,108c0,3.31,2.12,6.64,6.47,9.21,8.7,5.13,22.87,5.26,31.67.3l79.07-44.65c4.39-2.49,6.61-5.77,6.64-9.08L125,48.21C125,44.9,122.88,41.57,118.53,39Z"/><path class="cls-4" d="M15.75,71.3a24.56,24.56,0,0,0,5.15,4.76M7.62,101.63c8.7,5.13,22.87,5.27,31.67.3l79.06-44.65"/><line class="cls-5" x1="29.77" y1="63.75" x2="29.77" y2="63.75"/><line class="cls-5" x1="29.82" y1="57.84" x2="29.82" y2="57.84"/><line class="cls-6" x1="29.88" y1="52.2" x2="30.13" y2="26.82"/><line class="cls-5" x1="30.15" y1="24" x2="30.15" y2="24"/><line class="cls-5" x1="30.18" y1="19.9" x2="30.18" y2="19.9"/><line class="cls-5" x1="78.68" y1="64.21" x2="78.68" y2="64.21"/><line class="cls-5" x1="78.74" y1="57.5" x2="78.74" y2="57.5"/><line class="cls-7" x1="78.8" y1="51.92" x2="79.04" y2="26.79"/><line class="cls-5" x1="79.07" y1="24" x2="79.07" y2="24"/><path class="cls-2" d="M78.62,20,55.83,32.87a2.85,2.85,0,0,1-2.56,0L30.73,19.54a.78.78,0,0,1,0-1.47L53.54,5.2a2.83,2.83,0,0,1,2.55,0l22.54,13.3c.7.42.7,1.08,0,1.48"/><path class="cls-8" d="M54.27,32.22a7.26,7.26,0,0,0,.06.93,2.75,2.75,0,0,0,1.5-.28L78.62,20a.81.81,0,0,0,.51-.86c-.53,0-1.06-.05-1.6-.05C64.75,19,54.34,24.85,54.27,32.22"/><path class="cls-9" d="M54.27,32.22a7.26,7.26,0,0,0,.06.93,2.75,2.75,0,0,0,1.5-.28L78.62,20a.81.81,0,0,0,.51-.86c-.53,0-1.06-.05-1.6-.05C64.75,19,54.34,24.85,54.27,32.22Z"/><path class="cls-8" d="M58,14.11c3.25,1.92,3.23,5-.06,6.84a13.12,13.12,0,0,1-11.85-.11c-3.25-1.92-3.22-5,.07-6.84A13.07,13.07,0,0,1,58,14.11"/><path class="cls-9" d="M58,14.11c3.25,1.92,3.23,5-.06,6.84a13.12,13.12,0,0,1-11.85-.11c-3.25-1.92-3.22-5,.07-6.84A13.07,13.07,0,0,1,58,14.11Z"/><path class="cls-5" d="M78.62,20,55.83,32.87a2.85,2.85,0,0,1-2.56,0L30.73,19.54a.78.78,0,0,1,0-1.47L53.54,5.2a2.83,2.83,0,0,1,2.55,0l22.54,13.3C79.33,18.94,79.33,19.6,78.62,20Z"/><path class="cls-10" d="M78.15,64.89,55.36,77.76a2.85,2.85,0,0,1-2.56,0L30.26,64.44a.78.78,0,0,1,0-1.48L53.06,50.09a2.85,2.85,0,0,1,2.56,0L78.16,63.42a.78.78,0,0,1,0,1.47"/><path class="cls-10" d="M53.8,77.11a7.26,7.26,0,0,0,.06.93,2.77,2.77,0,0,0,1.5-.28L78.15,64.89a.82.82,0,0,0,.51-.86c-.53,0-1.06,0-1.6-.05-12.78-.12-23.19,5.76-23.26,13.13"/><path class="cls-10" d="M53.8,77.11a7.26,7.26,0,0,0,.06.93,2.77,2.77,0,0,0,1.5-.28L78.15,64.89a.82.82,0,0,0,.51-.86c-.53,0-1.06,0-1.6-.05C64.28,63.86,53.87,69.74,53.8,77.11Z"/><path class="cls-10" d="M57.52,59c3.25,1.92,3.22,5-.06,6.84a13.09,13.09,0,0,1-11.85-.11c-3.25-1.92-3.22-5,.07-6.84A13.07,13.07,0,0,1,57.52,59"/><path class="cls-10" d="M57.52,59c3.25,1.92,3.22,5-.06,6.84a13.09,13.09,0,0,1-11.85-.11c-3.25-1.92-3.22-5,.07-6.84A13.07,13.07,0,0,1,57.52,59Z"/><path class="cls-10" d="M78.15,64.89,55.36,77.76a2.85,2.85,0,0,1-2.56,0L30.26,64.44a.78.78,0,0,1,0-1.48L53.06,50.09a2.85,2.85,0,0,1,2.56,0L78.16,63.42A.78.78,0,0,1,78.15,64.89Z"/><rect class="cls-11" width="126" height="126"/></g></g></g></svg>