<svg xmlns="http://www.w3.org/2000/svg" viewBox="0 0 126 126"><defs><style>.cls-1,.cls-11,.cls-13,.cls-2,.cls-3,.cls-4,.cls-5,.cls-6,.cls-7,.cls-8{fill:none;}.cls-16,.cls-18,.cls-2,.cls-3{stroke:#91d2fb;}.cls-11,.cls-13,.cls-14,.cls-15,.cls-16,.cls-18,.cls-2,.cls-3,.cls-4,.cls-5,.cls-6,.cls-7,.cls-8{stroke-linecap:round;stroke-linejoin:round;stroke-width:2px;}.cls-3{stroke-dasharray:0 5.6;}.cls-4{stroke:#bde4fd;}.cls-14,.cls-15,.cls-5,.cls-6{stroke:#b8bfca;}.cls-6{stroke-dasharray:0 6.47;}.cls-7{stroke:#d5dae0;}.cls-8{stroke:#1b6dc6;}.cls-15,.cls-18,.cls-9{fill:#fff;}.cls-10,.cls-14{fill:#d5dae0;}.cls-11{stroke:#627386;}.cls-12{fill:#f2f4f6;}.cls-13{stroke:#fff;}.cls-16{fill:#e9f6fe;}.cls-17{fill:#bde4fd;}</style></defs><title>edge_deployment</title><g id="Layer_2" data-name="Layer 2"><g id="Illustrations"><g id="edge_deployment"><rect class="cls-1" width="126" height="126"/><rect class="cls-1" width="126" height="126"/><rect class="cls-1" width="126" height="126"/><line class="cls-2" x1="59.57" y1="52.27" x2="59.57" y2="52.27"/><line class="cls-3" x1="64.36" y1="49.38" x2="81.14" y2="39.26"/><line class="cls-2" x1="83.53" y1="37.82" x2="83.53" y2="37.82"/><polyline class="cls-4" points="86.72 39.66 88.46 34.98 80.35 35.98 83.53 37.82 86.72 39.66"/><line class="cls-5" x1="58.08" y1="78.42" x2="58.08" y2="78.42"/><line class="cls-6" x1="63.69" y1="81.66" x2="77.7" y2="89.75"/><line class="cls-5" x1="80.5" y1="91.36" x2="80.5" y2="91.36"/><path class="cls-7" d="M86.44,92.79a1.75,1.75,0,0,1-1,1.42,5.42,5.42,0,0,1-4.92,0,1.51,1.51,0,0,1,0-2.85,5.42,5.42,0,0,1,4.92,0A1.76,1.76,0,0,1,86.44,92.79Z"/><path class="cls-8" d="M51.15,20.87a2.28,2.28,0,0,1,3,1.08l7.9,16.66,7.81,16.44c.31.66-.36,1.63-1.49,2.17s-2.31.44-2.62-.21L58,40.56,50.07,23.91A2.29,2.29,0,0,1,51.15,20.87Z"/><path class="cls-9" d="M51.15,20.87a2.28,2.28,0,0,1,3,1.08l7.9,16.66,7.81,16.44c.31.66-.36,1.63-1.49,2.17s-2.31.44-2.62-.21L58,40.56,50.07,23.91a2.29,2.29,0,0,1,1.08-3"/><path class="cls-8" d="M51.15,20.87a2.28,2.28,0,0,1,3,1.08l7.9,16.66,7.81,16.44c.31.66-.36,1.63-1.49,2.17s-2.31.44-2.62-.21L58,40.56,50.07,23.91A2.29,2.29,0,0,1,51.15,20.87Z"/><path class="cls-10" d="M68.4,57.22h0c1.13-.54,1.8-1.51,1.49-2.17L62.08,38.61,54.43,22.46a1.14,1.14,0,1,0-2.06,1Z"/><path class="cls-5" d="M60.76,35.83c.31.66-.36,1.63-1.49,2.17s-2.31.44-2.62-.21"/><path class="cls-11" d="M51.15,20.87a2.28,2.28,0,0,1,3,1.08l7.9,16.66,7.81,16.44c.31.66-.36,1.63-1.49,2.17s-2.31.44-2.62-.21L58,40.56,50.07,23.91A2.29,2.29,0,0,1,51.15,20.87Z"/><line class="cls-5" x1="11.94" y1="64.45" x2="11.94" y2="64.45"/><line class="cls-5" x1="60.48" y1="64.45" x2="60.48" y2="64.45"/><line class="cls-8" x1="71.4" y1="61.37" x2="71.4" y2="61.37"/><line class="cls-8" x1="1.02" y1="63.25" x2="1.02" y2="63.25"/><path class="cls-4" d="M44.56,66.13c0,2.49-3.5,4.5-7.8,4.5s-7.8-2-7.8-4.5,3.49-4.5,7.8-4.5S44.56,63.64,44.56,66.13Z"/><path class="cls-9" d="M69.1,51.17,39,33.81a1.49,1.49,0,0,0-1.51-.11h0L1.8,54.31,34.89,84.92,70.61,64.3h0a2,2,0,0,0,.82-1.87V55.6a5.55,5.55,0,0,0-2.32-4.43"/><path class="cls-8" d="M69.1,51.17,39,33.81a1.49,1.49,0,0,0-1.51-.11h0L1.8,54.31,34.89,84.92,70.61,64.3h0a2,2,0,0,0,.82-1.87V55.6A5.55,5.55,0,0,0,69.1,51.17Z"/><path class="cls-10" d="M70.6,64.29a2,2,0,0,0,.82-1.87V55.6a5.9,5.9,0,0,0-1.6-3.85L27.49,76.19l2.32,4,5.08,4.7L70.61,64.3Z"/><path class="cls-8" d="M69.1,51.17,39,33.81a1.49,1.49,0,0,0-1.51-.11h0L1.8,54.31,34.89,84.92,70.61,64.3h0a2,2,0,0,0,.82-1.87V55.6A5.55,5.55,0,0,0,69.1,51.17Z"/><path class="cls-12" d="M3.32,67.44,33.38,84.8c1.28.74,2.32,0,2.32-1.75V76.22a5.55,5.55,0,0,0-2.32-4.43L3.32,54.44C2,53.7,1,54.48,1,56.19V63a5.55,5.55,0,0,0,2.32,4.43"/><path class="cls-5" d="M35.7,79.14V76.22a5.55,5.55,0,0,0-2.32-4.43L6.25,56.13"/><path class="cls-11" d="M69.1,51.17,39,33.81a1.49,1.49,0,0,0-1.51-.11h0L1.8,54.31h0A2.05,2.05,0,0,0,1,56.19V63a5.55,5.55,0,0,0,2.32,4.43L33.38,84.8a1.47,1.47,0,0,0,1.5.11h0L70.61,64.3h0a2,2,0,0,0,.82-1.87V55.6A5.55,5.55,0,0,0,69.1,51.17Z"/><line class="cls-13" x1="40.88" y1="75.75" x2="41.7" y2="75.28"/><line class="cls-13" x1="58.79" y1="65.42" x2="65.51" y2="61.54"/><line class="cls-5" x1="17.09" y1="68.89" x2="19.61" y2="70.34"/><path class="cls-5" d="M44.56,53.12c0,2.49-3.5,4.5-7.8,4.5s-7.8-2-7.8-4.5,3.49-4.5,7.8-4.5S44.56,50.64,44.56,53.12Z"/><path class="cls-12" d="M107.85,96l-4.18-2.41a1.25,1.25,0,0,0-.18-.31c-.4-.36-7.72-.52-7.72-.52v8.89h0c0,.33.38.65,1,.75,1,.14,1.84-3.38,2.57-3,.88.5,1.42,5,1.61,5.61l-11.75-3.81v3h18.64Z"/><polygon class="cls-12" points="80.54 110.11 80.54 101.22 87.03 101.22 96.16 119.13 80.54 110.11"/><polygon class="cls-5" points="80.54 110.11 80.54 101.22 87.03 101.22 96.16 119.13 80.54 110.11"/><path class="cls-12" d="M124.48,109.39,103.13,97.06l-7,4c-.73.42-.37,1.13.62,1.28a7.16,7.16,0,0,1,2.57.86c2.41,1.38,2.24,3.69-.5,5a9.28,9.28,0,0,1-7.06,0,3.89,3.89,0,0,1-2.08-1.81c-.25-.56-1.49-.74-2.21-.32l-4.87,2.81v9.72h0a2.6,2.6,0,0,0,1.24,2.07,8.83,8.83,0,0,0,8.59.28,3.49,3.49,0,0,0,1.48-1.48c.27-.58,1.49-.78,2.22-.36l7,4,21.35-12.32A.76.76,0,0,0,124.48,109.39Z"/><path class="cls-5" d="M124.48,109.39,103.13,97.06l-7,4c-.73.42-.37,1.13.62,1.28a7.16,7.16,0,0,1,2.57.86c2.41,1.38,2.24,3.69-.5,5a9.28,9.28,0,0,1-7.06,0,3.89,3.89,0,0,1-2.08-1.81c-.25-.56-1.49-.74-2.21-.32l-4.87,2.81v9.72h0a2.6,2.6,0,0,0,1.24,2.07,8.83,8.83,0,0,0,8.59.28,3.49,3.49,0,0,0,1.48-1.48c.27-.58,1.49-.78,2.22-.36l7,4,21.35-12.32A.76.76,0,0,0,124.48,109.39Z"/><path class="cls-14" d="M116.93,101.22l-13.26-7.66a1.25,1.25,0,0,0-.18-.31c-.4-.36-7.72-.52-7.72-.52v8.89h0a.43.43,0,0,0,.06.18h7.3v21.35l21.35-12.32a.87.87,0,0,0,.52-.72v-8.89Z"/><path class="cls-15" d="M91.79,99.33a4,4,0,0,1-2.08-1.81c-.25-.56-1.49-.74-2.21-.33l-7,4,7,4c.72.41.42,1.13-.56,1.27a7,7,0,0,0-3.13,1.2c-1.6,1.19-1.57,2.9.06,4.08a8.83,8.83,0,0,0,8.59.29,3.55,3.55,0,0,0,1.48-1.48c.27-.58,1.49-.79,2.22-.37l7,4,21.35-12.33a.75.75,0,0,0,0-1.43L103.13,88.17l-7,4c-.73.42-.37,1.12.62,1.28a7.35,7.35,0,0,1,2.57.85c2.41,1.39,2.24,3.7-.5,5A9.28,9.28,0,0,1,91.79,99.33Z"/><path class="cls-11" d="M125,101.22a.87.87,0,0,0-.52-.72L103.13,88.17l-7,4a.63.63,0,0,0-.39.53h0V100a9,9,0,0,1-4-.65,4,4,0,0,1-2.08-1.81c-.25-.56-1.49-.74-2.21-.33l-7,4h0v8.89l2.09,1.21v7.3h0a2.6,2.6,0,0,0,1.24,2.07,8.83,8.83,0,0,0,8.59.28,3.49,3.49,0,0,0,1.48-1.48c.27-.58,1.49-.78,2.22-.36l7,4h0L113.81,117l10.67-6.16a1.06,1.06,0,0,0,.49-.53.63.63,0,0,0,0-.19v-8.89Z"/><path class="cls-16" d="M116.2,11.66,103.65,4.41a2.8,2.8,0,0,0-2.49,0L88.61,11.66l-8.8,3.81h0v8.89l7,4a1.82,1.82,0,0,0,1,.22A1.43,1.43,0,0,0,89,28a3.51,3.51,0,0,1,1.48-1.49L91,26.3l.12-.05.4-.17.12,0,.43-.14.1,0,.48-.11h.06a5.07,5.07,0,0,1,.54-.09h0l.59-.06h0a10,10,0,0,1,1.22,0v2.17h0v5.08a.69.69,0,0,0,.39.55l7,4h0l7-4a1.88,1.88,0,0,1,.95-.23,1.38,1.38,0,0,1,1.26.55,3.83,3.83,0,0,0,2.07,1.81,9.34,9.34,0,0,0,7.07,0c1.46-.68,2.18-1.64,2.18-2.61h0V25.57L125,24.36V15.47h0Z"/><path class="cls-17" d="M110.13,33.17V15.68H102.4V37.41l7-4A1.92,1.92,0,0,1,110.13,33.17Z"/><path class="cls-17" d="M87.9,15.47V28.6A1.35,1.35,0,0,0,89,28a3.51,3.51,0,0,1,1.48-1.49,9.1,9.1,0,0,1,6.6-.63l4.08-2V8.22L88.61,15.47Z"/><polygon class="cls-17" points="120.93 26.71 125 24.36 125 15.47 120.93 15.47 120.93 26.71"/><rect class="cls-17" x="115.95" y="15.68" width="6.02" height="6.19"/><path class="cls-2" d="M116.2,11.66,103.65,4.41a2.8,2.8,0,0,0-2.49,0L88.61,11.66l-8.8,3.81h0v8.89l7,4a1.82,1.82,0,0,0,1,.22A1.43,1.43,0,0,0,89,28a3.51,3.51,0,0,1,1.48-1.49L91,26.3l.12-.05.4-.17.12,0,.43-.14.1,0,.48-.11h.06a5.07,5.07,0,0,1,.54-.09h0l.59-.06h0a10,10,0,0,1,1.22,0v2.17h0v5.08a.69.69,0,0,0,.39.55l7,4h0l7-4a1.88,1.88,0,0,1,.95-.23,1.38,1.38,0,0,1,1.26.55,3.83,3.83,0,0,0,2.07,1.81,9.34,9.34,0,0,0,7.07,0c1.46-.68,2.18-1.64,2.18-2.61h0V25.57L125,24.36V15.47h0Z"/><path class="cls-18" d="M99.13,22A7,7,0,0,1,96,23.22c-1,.14-1.28.86-.57,1.27l7,4,7-4c.71-.41,2-.23,2.21.33a3.87,3.87,0,0,0,2.07,1.81,9.31,9.31,0,0,0,7.07,0c2.74-1.26,2.91-3.57.5-5a7.49,7.49,0,0,0-2.57-.85c-1-.16-1.36-.86-.63-1.28l7-4L103.65,3.14a2.8,2.8,0,0,0-2.49,0L79.81,15.47l7,4c.73.42,2,.21,2.22-.36a3.45,3.45,0,0,1,1.48-1.49,8.83,8.83,0,0,1,8.59.29A2.33,2.33,0,0,1,99.13,22Z"/><path class="cls-8" d="M125,15.47,103.65,3.14a2.8,2.8,0,0,0-2.49,0L79.81,15.47h0v8.89l7,4a1.82,1.82,0,0,0,1,.22h.21a1.35,1.35,0,0,0,.29-.05l.09,0,.23-.08.14-.08.13-.09A.87.87,0,0,0,89,28h0a3.51,3.51,0,0,1,1.48-1.49h0a5.92,5.92,0,0,1,.62-.3l.19-.08a5.1,5.1,0,0,1,.55-.19l.16,0c.23-.07.46-.12.69-.17l.26,0,.5-.07.29,0h.18c.33,0,.65,0,1,0H95v7.25a.69.69,0,0,0,.39.55l7,4h0l7-4a1.76,1.76,0,0,1,.4-.16l.23,0a1.75,1.75,0,0,1,.32,0,1.38,1.38,0,0,1,1.26.55,3.83,3.83,0,0,0,2.07,1.81,9.34,9.34,0,0,0,7.07,0,4.43,4.43,0,0,0,1.68-1.26l0,0c.07-.1.14-.19.2-.29l0-.07a1.59,1.59,0,0,0,.12-.27.57.57,0,0,0,0-.14,1.52,1.52,0,0,0,.06-.2c0-.1,0-.2,0-.3v0h0V25.57L125,24.36V15.47Z"/></g></g></g></svg>