<svg xmlns="http://www.w3.org/2000/svg" width="126" height="126" viewBox="0 0 126 126"><defs><style>.cls-1{isolation:isolate;}.cls-2{fill:#f2f4f6;}.cls-2,.cls-3,.cls-4{stroke:#627386;}.cls-10,.cls-11,.cls-12,.cls-13,.cls-2,.cls-3,.cls-4,.cls-6,.cls-7,.cls-8,.cls-9{stroke-linecap:round;stroke-linejoin:round;stroke-width:2px;}.cls-12,.cls-3{fill:#fff;}.cls-4{fill:#d5dae0;}.cls-5,.cls-8{mix-blend-mode:darken;}.cls-10,.cls-14,.cls-6,.cls-7,.cls-8,.cls-9{fill:none;}.cls-10,.cls-6,.cls-7,.cls-8,.cls-9{stroke:#b8bfca;}.cls-7{stroke-dasharray:0 5.6;}.cls-9{stroke-dasharray:0 5.6;}.cls-10{stroke-dasharray:0 5.5;}.cls-11{fill:#e9f6fe;}.cls-11,.cls-12,.cls-13{stroke:#1b6dc6;}.cls-13{fill:#bde4fd;}</style></defs><title>network</title><g class="cls-1"><g id="Layer_2" data-name="Layer 2"><g id="Layer_4" data-name="Layer 4"><polygon class="cls-2" points="77.54 110.6 63 119 48.46 110.6 48.46 93.81 63 85.42 77.54 93.81 77.54 110.6"/><polygon class="cls-3" points="77.54 93.81 63 102.21 48.46 93.81 48.46 93.81 63 85.42 77.54 93.81 77.54 93.81"/><polygon class="cls-4" points="63 102.21 63 119 77.54 110.6 77.54 93.81 63 102.21"/><polygon class="cls-2" points="77.54 32.19 63 40.58 48.46 32.19 48.46 15.4 63 7 77.54 15.4 77.54 32.19"/><polygon class="cls-3" points="77.54 15.4 63 23.79 48.46 15.4 48.46 15.4 63 7 77.54 15.4 77.54 15.4"/><polygon class="cls-4" points="63 23.79 63 40.58 77.54 32.19 77.54 15.4 63 23.79"/><polygon class="cls-2" points="111.5 51.79 96.96 60.19 82.41 51.79 82.41 35 96.96 26.6 111.5 35 111.5 51.79"/><polygon class="cls-3" points="111.5 35 96.96 43.4 82.41 35 82.41 35 96.96 26.6 111.5 35 111.5 35"/><polygon class="cls-4" points="96.96 43.4 96.96 60.19 111.5 51.79 111.5 35 96.96 43.4"/><polygon class="cls-2" points="111.5 91 96.96 99.4 82.41 91 82.41 74.21 96.96 65.81 111.5 74.21 111.5 91"/><polygon class="cls-3" points="111.5 74.21 96.96 82.6 82.41 74.21 82.41 74.21 96.96 65.81 111.5 74.21 111.5 74.21"/><polygon class="cls-4" points="96.96 82.6 96.96 99.4 111.5 91 111.5 74.21 96.96 82.6"/><polygon class="cls-4" points="14.5 51.79 29.04 60.19 43.59 51.79 43.59 35 29.04 26.6 14.5 35 14.5 51.79"/><polygon class="cls-3" points="14.5 35 29.04 43.4 43.59 35 43.59 35 29.04 26.6 14.5 35 14.5 35"/><polygon class="cls-2" points="29.04 43.4 29.04 60.19 14.5 51.79 14.5 35 29.04 43.4"/><polygon class="cls-4" points="14.5 91 29.04 99.4 43.59 91 43.59 74.21 29.04 65.81 14.5 74.21 14.5 91"/><polygon class="cls-3" points="14.5 74.21 29.04 82.6 43.59 74.21 43.59 74.21 29.04 65.81 14.5 74.21 14.5 74.21"/><polygon class="cls-2" points="29.04 82.6 29.04 99.4 14.5 91 14.5 74.21 29.04 82.6"/><g class="cls-5"><line class="cls-6" x1="63" y1="102.21" x2="63" y2="102.21"/><line class="cls-7" x1="63" y1="96.61" x2="63" y2="88.22"/><line class="cls-6" x1="63" y1="85.42" x2="63" y2="85.42"/></g><line class="cls-8" x1="63" y1="85.42" x2="63" y2="79.79"/><line class="cls-8" x1="63" y1="63" x2="63" y2="40.58"/><line class="cls-8" x1="82.41" y1="35" x2="77.96" y2="32.43"/><line class="cls-8" x1="77.54" y1="93.81" x2="82.41" y2="91"/><line class="cls-8" x1="96.96" y1="65.81" x2="96.96" y2="60.19"/><g class="cls-5"><line class="cls-6" x1="96.96" y1="82.6" x2="96.96" y2="82.6"/><line class="cls-9" x1="96.96" y1="77.01" x2="96.96" y2="68.61"/><line class="cls-6" x1="96.96" y1="65.81" x2="96.96" y2="65.81"/></g><line class="cls-8" x1="82.41" y1="51.79" x2="43.81" y2="74.08"/><line class="cls-8" x1="43.59" y1="35" x2="48.46" y2="32.19"/><line class="cls-8" x1="48.46" y1="93.81" x2="43.59" y2="91"/><g class="cls-5"><line class="cls-6" x1="43.35" y1="90.86" x2="43.35" y2="90.86"/><line class="cls-10" x1="38.58" y1="88.11" x2="31.43" y2="83.98"/><line class="cls-6" x1="29.04" y1="82.6" x2="29.04" y2="82.6"/></g><line class="cls-8" x1="29.04" y1="65.81" x2="29.04" y2="60.19"/><line class="cls-8" x1="43.59" y1="51.79" x2="82.41" y2="74.21"/><polygon class="cls-11" points="77.54 71.4 63 79.79 48.46 71.4 48.46 54.6 63 46.21 77.54 54.6 77.54 71.4"/><polygon class="cls-12" points="77.54 54.6 63 63 48.46 54.6 48.46 54.6 63 46.21 77.54 54.6 77.54 54.6"/><polygon class="cls-13" points="63 63 63 79.79 77.54 71.4 77.54 54.6 63 63"/><g class="cls-5"><line class="cls-6" x1="29.04" y1="82.6" x2="29.04" y2="82.6"/><line class="cls-9" x1="29.04" y1="77.01" x2="29.04" y2="68.61"/><line class="cls-6" x1="29.04" y1="65.81" x2="29.04" y2="65.81"/></g><g class="cls-5"><line class="cls-6" x1="82.41" y1="91" x2="82.41" y2="91"/><line class="cls-10" x1="87.18" y1="88.25" x2="94.33" y2="84.12"/><line class="cls-6" x1="96.72" y1="82.74" x2="96.72" y2="82.74"/></g><g class="cls-5"><line class="cls-6" x1="43.59" y1="51.79" x2="43.59" y2="51.79"/><line class="cls-10" x1="38.82" y1="49.04" x2="31.67" y2="44.91"/><line class="cls-6" x1="29.28" y1="43.53" x2="29.28" y2="43.53"/></g><g class="cls-5"><line class="cls-6" x1="82.65" y1="51.93" x2="82.65" y2="51.93"/><line class="cls-10" x1="87.42" y1="49.18" x2="94.57" y2="45.05"/><line class="cls-6" x1="96.96" y1="43.67" x2="96.96" y2="43.67"/></g><g class="cls-5"><line class="cls-6" x1="63" y1="23.79" x2="63" y2="23.79"/><line class="cls-10" x1="67.77" y1="26.54" x2="74.92" y2="30.67"/><line class="cls-6" x1="77.3" y1="32.05" x2="77.3" y2="32.05"/></g><g class="cls-5"><line class="cls-6" x1="63" y1="23.79" x2="63" y2="23.79"/><line class="cls-10" x1="58.23" y1="26.54" x2="51.08" y2="30.67"/><line class="cls-6" x1="48.7" y1="32.05" x2="48.7" y2="32.05"/></g><rect class="cls-14" width="126" height="126"/></g></g></g></svg>