<svg xmlns="http://www.w3.org/2000/svg" xmlns:xlink="http://www.w3.org/1999/xlink" width="199.22" height="199.22" viewBox="0 0 199.22 199.22"><defs><style>.cls-1,.cls-12,.cls-5,.cls-6,.cls-9{fill:none;}.cls-10,.cls-2{fill:#fff;}.cls-2,.cls-3,.cls-4,.cls-5,.cls-6{stroke:#1b6dc6;}.cls-10,.cls-12,.cls-2,.cls-3,.cls-4,.cls-5,.cls-6,.cls-7,.cls-9{stroke-linecap:round;stroke-linejoin:round;stroke-width:2px;}.cls-3{fill:#bde4fd;}.cls-4{fill:#e9f6fe;}.cls-6{stroke-dasharray:0 6.48;}.cls-7{fill:#f2f4f6;}.cls-10,.cls-7,.cls-9{stroke:#627386;}.cls-8{fill:#d5dae0;}.cls-11{clip-path:url(#clip-path);}.cls-12{stroke:#f2f4f6;}</style><clipPath id="clip-path"><path class="cls-1" d="M154,120.8,102.44,90.57a5.78,5.78,0,0,0-5.22,0L45.28,120c-1.45.83-1.46,2.18,0,3l51.55,30.25a5.72,5.72,0,0,0,5.22,0L154,123.82C155.38,123,155.39,121.65,154,120.8Zm-46.05,6-11.47,6.52-4.13-9-4.11-9,15.6,2.53,15.6,2.53Z"/></clipPath></defs><title>no_access</title><g id="Layer_2" data-name="Layer 2"><g id="Layer_1-2" data-name="Layer 1"><g id="Layer_1-2-2" data-name="Layer 1-2"><g id="Layer_1-2-2-2" data-name="Layer 1-2-2"><rect class="cls-1" x="0.71" y="0.71" width="197.8" height="197.8" transform="translate(-0.71 198.5) rotate(-89.59)"/><polygon class="cls-2" points="99.99 47.12 84.48 55.93 84.33 76.53 99.84 67.72 115.22 76.75 115.37 56.15 99.99 47.12"/><polygon class="cls-3" points="115.22 76.75 99.71 85.56 99.86 64.96 115.37 56.15 115.22 76.75"/><polygon class="cls-4" points="84.33 76.53 99.71 85.56 99.86 64.96 84.48 55.93 84.33 76.53"/><line class="cls-5" x1="84.47" y1="55.93" x2="84.47" y2="55.93"/><line class="cls-6" x1="84.52" y1="49.46" x2="84.59" y2="39.74"/><line class="cls-5" x1="84.61" y1="36.5" x2="84.61" y2="36.5"/><line class="cls-5" x1="115.37" y1="56.15" x2="115.37" y2="56.15"/><line class="cls-6" x1="115.42" y1="49.68" x2="115.49" y2="39.96"/><line class="cls-5" x1="115.51" y1="36.72" x2="115.51" y2="36.72"/><path class="cls-7" d="M155,122.32l-3.45,1.6L102.41,95.06a5.78,5.78,0,0,0-5.22,0L47.6,123.24l-3.42-1.67-.06,8.5h0a1.81,1.81,0,0,0,1.08,1.51l51.55,30.19a5.78,5.78,0,0,0,5.22,0l51.95-29.5a1.84,1.84,0,0,0,1.09-1.49h0Zm-51.28-.08,15.59,2.51-11.49,6.52-11.47,6.52-4.13-9-4.12-9Z"/><path class="cls-8" d="M100,162.38a4.85,4.85,0,0,0,2-.57l52-29.5a1.84,1.84,0,0,0,1.09-1.49l.06-8.5-3.45,1.6-8.3-4.87-43.16,22.44Z"/><polygon class="cls-8" points="88.12 122.71 103.73 125.23 119.33 127.76 113.34 131.16 124.39 131.24 124.52 113.91 82.95 113.61 82.82 130.94 91.9 131 88.12 122.71"/><path class="cls-9" d="M155,122.32l-3.45,1.6L102.41,95.06a5.78,5.78,0,0,0-5.22,0L47.6,123.24l-3.42-1.67-.06,8.5h0a1.81,1.81,0,0,0,1.08,1.51l51.55,30.19a5.78,5.78,0,0,0,5.22,0l51.95-29.5a1.84,1.84,0,0,0,1.09-1.49h0Zm-51.31,2.92,15.6,2.51-11.49,6.52-11.48,6.52-4.12-9-4.12-9Z"/><path class="cls-10" d="M154,120.8,102.44,90.57a5.78,5.78,0,0,0-5.22,0L45.28,120c-1.45.83-1.46,2.18,0,3l51.55,30.25a5.72,5.72,0,0,0,5.22,0L154,123.82C155.38,123,155.39,121.65,154,120.8Zm-46.05,6-11.47,6.52-4.13-9-4.11-9,15.6,2.53,15.6,2.53Z"/><g class="cls-11"><path class="cls-12" d="M39.29,122.07C79.13,115,97.47,77.59,97.47,77.59"/><path class="cls-12" d="M46.94,127c40.26-6.27,60.85-43.28,60.85-43.28"/><path class="cls-12" d="M54.3,132c40.62-5.45,63.44-42,63.44-42"/><path class="cls-12" d="M61.34,137.22c40.93-4.59,66-40.69,66-40.69"/><path class="cls-12" d="M68.08,142.57c41.25-3.78,68.4-39.33,68.4-39.33"/><path class="cls-12" d="M74.48,148c41.42-3,70.77-37.9,70.77-37.9"/><path class="cls-12" d="M80.55,153.64c41.58-2.09,73-36.47,73-36.47"/></g><path class="cls-9" d="M154,120.8,102.44,90.57a5.78,5.78,0,0,0-5.22,0L45.28,120c-1.45.83-1.46,2.18,0,3l51.55,30.25a5.72,5.72,0,0,0,5.22,0L154,123.82C155.38,123,155.39,121.65,154,120.8Zm-46.05,6-11.47,6.52-4.13-9-4.11-9,15.6,2.53,15.6,2.53Z"/></g></g></g></g></svg>