<svg xmlns="http://www.w3.org/2000/svg" width="126" height="127.53" viewBox="0 0 126 127.53"><defs><style>.cls-1,.cls-12,.cls-2,.cls-5,.cls-8,.cls-9{fill:none;}.cls-2{stroke:#b8bfca;}.cls-11,.cls-12,.cls-13,.cls-2,.cls-3,.cls-5,.cls-6,.cls-7,.cls-8,.cls-9{stroke-linecap:round;stroke-linejoin:round;stroke-width:2px;}.cls-3{fill:#f2f4f6;}.cls-3,.cls-5,.cls-6{stroke:#627386;}.cls-4{fill:#d5dae0;}.cls-6{fill:#fff;}.cls-7{fill:#bde4fd;}.cls-11,.cls-13,.cls-7,.cls-8,.cls-9{stroke:#1b6dc6;}.cls-9{stroke-dasharray:0 5.5;}.cls-10,.cls-13{fill:#e9f6fe;}.cls-11{fill:#d3edfd;}.cls-12{stroke:#91d2fb;}</style></defs><title>permissions</title><g id="Layer_2" data-name="Layer 2"><g id="Layer_1-2" data-name="Layer 1"><rect class="cls-1" y="0.3" width="126" height="126"/><path class="cls-2" d="M63.1,85.87l-32,18.48c-8.79,5.08-8.79,13.3,0,18.37h0c8.78,5.07,23,5.07,31.81,0l32-18.48c8.79-5.07,8.79-13.29,0-18.37h0C86.13,80.8,71.88,80.8,63.1,85.87Z"/><path class="cls-3" d="M101.5,86.85v8.21c0,3.32-2.2,6.65-6.59,9.18-8.78,5.08-23,5.08-31.81,0-4.4-2.53-6.59-5.86-6.59-9.18V86.85Z"/><path class="cls-3" d="M56.51,86.85v8.21c0,3.32,2.19,6.65,6.59,9.18A32.46,32.46,0,0,0,79,108.05V86.85Z"/><path class="cls-3" d="M101.5,86.85v8.21c0,3.32-2.2,6.65-6.59,9.18-8.78,5.08-23,5.08-31.81,0-4.4-2.53-6.59-5.86-6.59-9.18V86.85Z"/><path class="cls-4" d="M79,108.05a32.47,32.47,0,0,0,15.91-3.81c4.39-2.53,6.59-5.86,6.59-9.18V86.85H79Z"/><path class="cls-5" d="M101.5,86.85v8.21c0,3.32-2.2,6.65-6.59,9.18-8.78,5.08-23,5.08-31.81,0-4.4-2.53-6.59-5.86-6.59-9.18V86.85Z"/><ellipse class="cls-6" cx="79" cy="86.85" rx="22.5" ry="12.99"/><path class="cls-7" d="M79.77,82.67a8.68,8.68,0,0,0-8.43.28c-1.65,1.19-1.63,2.92,0,4.1a8.05,8.05,0,0,0,4.73,1.19,2.76,2.76,0,0,1,1.57.39l4.4,3a3,3,0,0,0,2.88.07l2.34-1.36c.81-.46.76-1.23-.1-1.66l-5.12-2.54c-.46-.23-.71-.56-.68-.91A2.71,2.71,0,0,0,79.77,82.67Z"/><line class="cls-8" x1="64.41" y1="17.49" x2="64.41" y2="17.49"/><line class="cls-9" x1="64.41" y1="11.99" x2="64.41" y2="3.75"/><line class="cls-8" x1="64.41" y1="1" x2="64.41" y2="1"/><line class="cls-8" x1="90.25" y1="26.1" x2="90.25" y2="26.1"/><line class="cls-9" x1="90.25" y1="20.6" x2="90.25" y2="12.35"/><line class="cls-8" x1="90.25" y1="9.6" x2="90.25" y2="9.6"/><path class="cls-7" d="M74.08,22.88V76.61c0,1,1.45,1.86,3.23,1.86s3.23-.83,3.23-1.86V22.88Z"/><path class="cls-10" d="M74.08,22.88V76.61c0,1,1.33,1.86,3,1.86V22.88Z"/><path class="cls-8" d="M74.08,22.88V76.61c0,1,1.45,1.86,3.23,1.86s3.23-.83,3.23-1.86V22.88Z"/><path class="cls-7" d="M90.25,37c0-7.51-4.56-16.22-10.18-19.47C77.52,16,75.19,15.92,73.4,17h0L67.93,20.1l2.48,5.26c.17,6.56,3.72,13.92,8.37,17.72l2.48,5.26,5.47-3.16h0C88.89,43.93,90.25,41.05,90.25,37Z"/><path class="cls-10" d="M80.07,17.48C77.52,16,75.19,15.92,73.4,17h0L67.93,20.1l2.48,5.26a23.47,23.47,0,0,0,1.25,6.77l14.53-8.39A18.92,18.92,0,0,0,80.07,17.48Z"/><path class="cls-8" d="M90.25,37c0-7.51-4.56-16.22-10.18-19.47C77.52,16,75.19,15.92,73.4,17h0L67.93,20.1l2.48,5.26c.17,6.56,3.72,13.92,8.37,17.72l2.48,5.26,5.47-3.16h0C88.89,43.93,90.25,41.05,90.25,37Z"/><ellipse class="cls-11" cx="74.6" cy="34.22" rx="8.85" ry="15.64" transform="translate(-7.44 31.94) rotate(-23.05)"/><ellipse class="cls-12" cx="74.6" cy="34.22" rx="4.4" ry="7.77" transform="translate(-7.44 31.94) rotate(-23.05)"/><polyline class="cls-13" points="80.08 65.69 86.19 69.22 82.8 71.17 77.31 68"/><polyline class="cls-7" points="77.31 75.41 82.8 78.58 82.8 71.17 77.31 68"/><polygon class="cls-7" points="86.19 76.62 82.8 78.58 82.8 71.17 86.19 69.22 86.19 76.62"/></g></g></svg>