<svg xmlns="http://www.w3.org/2000/svg" viewBox="0 0 126 126"><defs><style>.cls-1{fill:#f2f4f6;}.cls-1,.cls-3,.cls-4{stroke:#b8bfca;}.cls-1,.cls-11,.cls-12,.cls-13,.cls-14,.cls-3,.cls-4,.cls-5,.cls-6,.cls-8,.cls-9{stroke-linecap:round;stroke-linejoin:round;stroke-width:2px;}.cls-2{fill:#d5dae0;}.cls-11,.cls-12,.cls-13,.cls-14,.cls-15,.cls-3,.cls-5,.cls-6{fill:none;}.cls-4,.cls-7,.cls-9{fill:#fff;}.cls-5{stroke:#d5dae0;}.cls-6{stroke:#627386;}.cls-8{fill:#d3edfd;}.cls-11,.cls-8,.cls-9{stroke:#91d2fb;}.cls-10{fill:#bde4fd;}.cls-12,.cls-13,.cls-14{stroke:#1b6dc6;}.cls-13{stroke-dasharray:0 6.25;}.cls-14{stroke-dasharray:0 5.64;}</style></defs><title>report</title><g id="Layer_2" data-name="Layer 2"><g id="Illustrations"><g id="report"><path class="cls-1" d="M112,83.18,86.85,68.65,58,52a11.57,11.57,0,0,0-10.46,0L26.34,64.21,11.06,73,3,71.72v7.74a3.65,3.65,0,0,0,2.17,3L34,99.14l34,19.62a11.57,11.57,0,0,0,10.46,0l21.18-12.22,21.17-12.23a3.67,3.67,0,0,0,2.17-3V83.56Z"/><path class="cls-2" d="M86.85,68.65,73.67,61v59a10.42,10.42,0,0,0,4.81-1.23l21.18-12.22,21.17-12.23a3.67,3.67,0,0,0,2.17-3V83.56l-11-.38Z"/><path class="cls-3" d="M112,83.18,86.85,68.65,58,52a11.57,11.57,0,0,0-10.46,0L26.34,64.21,11.06,73,3,71.72v7.74a3.65,3.65,0,0,0,2.17,3L34,99.14l34,19.62a11.57,11.57,0,0,0,10.46,0l21.18-12.22,21.17-12.23a3.67,3.67,0,0,0,2.17-3V83.56Z"/><path class="cls-4" d="M120.83,80.54l-34-19.63L58,44.25a11.57,11.57,0,0,0-10.46,0L26.34,56.47,5.17,68.7a3.19,3.19,0,0,0,0,6L34,91.4,68,111a11.57,11.57,0,0,0,10.46,0L99.66,98.8l21.17-12.23a3.18,3.18,0,0,0,0-6Z"/><polygon class="cls-5" points="71.35 105.73 111.86 82.34 54.44 49.19 13.93 72.58 71.35 105.73"/><polygon class="cls-5" points="20.45 76.34 13.93 72.58 54.44 49.19 60.96 52.95 20.45 76.34"/><line class="cls-5" x1="71.89" y1="95.79" x2="86.25" y2="87.5"/><line class="cls-5" x1="66.45" y1="92.63" x2="86.7" y2="80.94"/><polygon class="cls-5" points="76.08 78.63 70.85 81.67 57.88 74.18 63.11 71.15 76.08 78.63"/><polygon class="cls-5" points="70.85 81.67 65.62 84.71 56.97 79.71 62.2 76.67 70.85 81.67"/><polygon class="cls-5" points="65.62 84.71 60.4 87.74 36.04 73.68 41.26 70.64 65.62 84.71"/><polygon class="cls-5" points="81.3 75.6 76.08 78.63 57.62 67.98 62.85 64.94 81.3 75.6"/><path class="cls-6" d="M123,83.56a3.66,3.66,0,0,0-2.17-3l-34-19.63L58,44.25a11.57,11.57,0,0,0-10.46,0L26.34,56.47,5.17,68.7a3.67,3.67,0,0,0-2.17,3v7.74a3.65,3.65,0,0,0,2.17,3L34,99.14l34,19.62A10.62,10.62,0,0,0,73.25,120l.42,0h0a11.21,11.21,0,0,0,1.3-.11h0a11.76,11.76,0,0,0,1.21-.23l.32-.1a8.57,8.57,0,0,0,.86-.27,7.42,7.42,0,0,0,1.1-.52l21.18-12.22,21.17-12.23a3.67,3.67,0,0,0,2.17-3V83.56Z"/><polygon class="cls-7" points="71.35 62.53 111.86 39.14 54.44 5.99 13.93 29.37 71.35 62.53"/><polygon class="cls-8" points="20.45 33.14 13.93 29.37 54.44 5.99 60.96 9.75 20.45 33.14"/><line class="cls-8" x1="71.89" y1="52.59" x2="86.25" y2="44.29"/><line class="cls-8" x1="66.45" y1="49.42" x2="86.7" y2="37.73"/><polygon class="cls-8" points="76.08 35.43 70.85 38.47 57.88 30.98 63.11 27.94 76.08 35.43"/><polygon class="cls-9" points="70.85 38.47 65.62 41.5 56.97 36.51 62.2 33.47 70.85 38.47"/><polygon class="cls-10" points="65.62 41.5 60.4 44.54 36.04 30.48 41.26 27.44 65.62 41.5"/><polygon class="cls-11" points="65.62 41.5 60.4 44.54 36.04 30.48 41.26 27.44 65.62 41.5"/><polygon class="cls-9" points="81.3 32.39 76.08 35.43 57.62 24.78 62.85 21.74 81.3 32.39"/><polygon class="cls-12" points="71.35 62.53 111.86 39.14 54.44 5.99 13.93 29.37 71.35 62.53"/><line class="cls-12" x1="13.93" y1="66.86" x2="13.93" y2="66.86"/><line class="cls-13" x1="13.93" y1="60.61" x2="13.93" y2="32.5"/><line class="cls-12" x1="13.93" y1="29.37" x2="13.93" y2="29.37"/><line class="cls-12" x1="111.86" y1="78.62" x2="111.86" y2="78.62"/><line class="cls-14" x1="111.86" y1="72.98" x2="111.86" y2="41.96"/><line class="cls-12" x1="111.86" y1="39.14" x2="111.86" y2="39.14"/><rect class="cls-15" width="126" height="126"/></g></g></g></svg>