<svg xmlns="http://www.w3.org/2000/svg" width="126" height="126" viewBox="0 0 126 126"><defs><style>.cls-1{fill:#d5dae0;}.cls-1,.cls-2,.cls-3{stroke:#627386;}.cls-1,.cls-2,.cls-3,.cls-5,.cls-6,.cls-7,.cls-8{stroke-linecap:round;stroke-linejoin:round;stroke-width:2px;}.cls-2,.cls-4,.cls-5,.cls-8{fill:none;}.cls-3{fill:#fff;}.cls-5{stroke:#d5dae0;}.cls-6{fill:#bde4fd;}.cls-6,.cls-7{stroke:#1b6dc6;}.cls-7{fill:#e9f6fe;}.cls-8{stroke:#91d2fb;}</style></defs><title>roles_01</title><g id="Layer_2" data-name="Layer 2"><g id="Layer_4" data-name="Layer 4"><path class="cls-1" d="M99.66,59.19l10.46,18.12A.82.82,0,0,1,109,78.43L93.81,69.66a4.46,4.46,0,0,1-1.6-1.6L79.59,48.69a.82.82,0,0,1,1.12-1.12l17.35,10A4.24,4.24,0,0,1,99.66,59.19Z"/><path class="cls-2" d="M99.66,59.19l10.46,18.12A.82.82,0,0,1,109,78.43L95.43,70.59a4.24,4.24,0,0,1-1.6-1.6L79.59,48.69a.82.82,0,0,1,1.12-1.12l17.35,10A4.24,4.24,0,0,1,99.66,59.19Z"/><path class="cls-3" d="M77.2,48.54l-11,31.68a2.75,2.75,0,0,0,1.22,3.26l16.77,9.68A2.19,2.19,0,0,0,87.37,92l11-31.67A2.74,2.74,0,0,0,97.12,57L80.36,47.37A2.19,2.19,0,0,0,77.2,48.54Z"/><polygon class="cls-4" points="78.06 46.04 65.48 82.35 86.5 94.48 99.08 58.17 78.06 46.04"/><polygon class="cls-5" points="71.47 79.9 80.64 53.43 93.09 60.63 83.92 87.09 71.47 79.9"/><path class="cls-1" d="M74.51,73.71,85,91.83A.82.82,0,0,1,83.85,93L68.66,84.18a4.24,4.24,0,0,1-1.6-1.6L54.44,63.22a.82.82,0,0,1,1.12-1.12l17.35,10A4.46,4.46,0,0,1,74.51,73.71Z"/><path class="cls-2" d="M74.51,73.71,85,91.83A.82.82,0,0,1,83.85,93L70.27,85.12a4.49,4.49,0,0,1-1.6-1.61L54.44,63.22a.82.82,0,0,1,1.12-1.12l17.35,10A4.46,4.46,0,0,1,74.51,73.71Z"/><path class="cls-3" d="M52,63.07l-11,31.67A2.73,2.73,0,0,0,42.28,98l16.77,9.68a2.18,2.18,0,0,0,3.16-1.18l11-31.67A2.73,2.73,0,0,0,72,71.57L55.2,61.89A2.18,2.18,0,0,0,52,63.07Z"/><polygon class="cls-4" points="52.91 60.56 40.33 96.87 61.34 109.01 73.92 72.7 52.91 60.56"/><polygon class="cls-5" points="46.31 94.42 55.48 67.96 67.94 75.15 58.77 101.61 46.31 94.42"/><path class="cls-1" d="M49.35,88.24l10.46,18.12a.82.82,0,0,1-1.12,1.12L43.5,98.71a4.54,4.54,0,0,1-1.6-1.6L29.28,77.74a.82.82,0,0,1,1.12-1.12l17.35,10A4.41,4.41,0,0,1,49.35,88.24Z"/><path class="cls-2" d="M49.35,88.24l10.46,18.12a.82.82,0,0,1-1.12,1.12L45.12,99.64a4.31,4.31,0,0,1-1.6-1.6L29.28,77.74a.82.82,0,0,1,1.12-1.12l17.35,10A4.41,4.41,0,0,1,49.35,88.24Z"/><path class="cls-3" d="M26.88,77.59l-11,31.67a2.74,2.74,0,0,0,1.22,3.27l16.76,9.68A2.19,2.19,0,0,0,37.05,121L48,89.35a2.76,2.76,0,0,0-1.22-3.26L30,76.41A2.19,2.19,0,0,0,26.88,77.59Z"/><polygon class="cls-5" points="21.16 108.95 30.32 82.48 42.78 89.67 33.61 116.14 21.16 108.95"/><path class="cls-1" d="M87.08,37.4,97.55,55.52a.82.82,0,0,1-1.12,1.12L81.24,47.87a4.24,4.24,0,0,1-1.6-1.6L67,26.91a.82.82,0,0,1,1.12-1.12l17.34,10A4.38,4.38,0,0,1,87.08,37.4Z"/><path class="cls-2" d="M87.08,37.4,97.55,55.52a.82.82,0,0,1-1.12,1.12L82.85,48.81a4.41,4.41,0,0,1-1.6-1.61L67,26.91a.82.82,0,0,1,1.12-1.12l17.34,10A4.38,4.38,0,0,1,87.08,37.4Z"/><path class="cls-3" d="M64.62,26.76l-11,31.67a2.73,2.73,0,0,0,1.21,3.26l16.77,9.68a2.18,2.18,0,0,0,3.16-1.18l11-31.67a2.72,2.72,0,0,0-1.22-3.26L67.78,25.58A2.18,2.18,0,0,0,64.62,26.76Z"/><polygon class="cls-4" points="65.48 24.26 52.91 60.56 73.92 72.7 86.5 36.39 65.48 24.26"/><polygon class="cls-5" points="58.89 58.11 68.06 31.65 80.52 38.84 71.35 65.31 58.89 58.11"/><path class="cls-1" d="M61.93,51.93,72.39,70.05a.82.82,0,0,1-1.12,1.12L56.08,62.4a4.46,4.46,0,0,1-1.6-1.6L41.86,41.43A.82.82,0,0,1,43,40.31l17.35,10A4.38,4.38,0,0,1,61.93,51.93Z"/><path class="cls-2" d="M61.93,51.93,72.39,70.05a.82.82,0,0,1-1.12,1.12L57.7,63.33a4.41,4.41,0,0,1-1.61-1.6L41.86,41.43A.82.82,0,0,1,43,40.31l17.35,10A4.38,4.38,0,0,1,61.93,51.93Z"/><path class="cls-3" d="M39.46,41.28,28.49,73a2.73,2.73,0,0,0,1.22,3.26L46.47,85.9a2.19,2.19,0,0,0,3.16-1.18L60.6,53a2.74,2.74,0,0,0-1.21-3.26L42.62,40.1A2.19,2.19,0,0,0,39.46,41.28Z"/><polygon class="cls-4" points="40.33 38.78 27.75 75.09 48.77 87.22 61.34 50.91 40.33 38.78"/><polygon class="cls-5" points="33.73 72.64 42.9 46.17 55.36 53.36 46.19 79.83 33.73 72.64"/><polygon class="cls-5" points="33.73 72.64 42.9 46.17 55.36 53.36 46.19 79.83 33.73 72.64"/><path class="cls-6" d="M74.51,15.62,85,33.74a.82.82,0,0,1-1.12,1.12L68.66,26.09a4.38,4.38,0,0,1-1.6-1.6L54.44,5.12A.82.82,0,0,1,55.56,4L72.91,14A4.38,4.38,0,0,1,74.51,15.62Z"/><path class="cls-7" d="M52,5l-11,31.68a2.74,2.74,0,0,0,1.21,3.26l16.77,9.68a2.19,2.19,0,0,0,3.16-1.18l11-31.67A2.75,2.75,0,0,0,72,13.47L55.2,3.79A2.19,2.19,0,0,0,52,5Z"/><polygon class="cls-8" points="46.31 36.33 55.48 9.86 67.94 17.05 58.77 43.52 46.31 36.33"/><rect class="cls-4" width="126" height="126"/></g></g></svg>