<svg xmlns="http://www.w3.org/2000/svg" width="126" height="126" viewBox="0 0 126 126"><defs><style>.cls-1,.cls-14,.cls-5,.cls-8{fill:none;}.cls-12,.cls-2{fill:#fff;}.cls-13,.cls-2,.cls-3,.cls-5{stroke:#627386;}.cls-11,.cls-12,.cls-13,.cls-14,.cls-2,.cls-3,.cls-5,.cls-6,.cls-8,.cls-9{stroke-linecap:round;stroke-linejoin:round;stroke-width:2px;}.cls-3{fill:#f2f4f6;}.cls-13,.cls-4{fill:#d5dae0;}.cls-10,.cls-6{fill:#d3edfd;}.cls-11,.cls-12,.cls-14,.cls-6,.cls-8,.cls-9{stroke:#1b6dc6;}.cls-11,.cls-7{fill:#bde4fd;}.cls-9{fill:#e9f6fe;}.cls-14{stroke-dasharray:0 6.05;}</style></defs><title>storage</title><g id="Layer_2" data-name="Layer 2"><g id="Layer_1-2" data-name="Layer 1"><rect class="cls-1" width="126" height="126"/><polygon class="cls-2" points="61.03 55.78 41.15 67.26 41.15 67.26 61.03 78.74 80.91 67.26 80.91 67.26 61.03 55.78"/><polygon class="cls-3" points="41.15 93.77 61.03 105.25 61.03 78.74 41.15 67.26 41.15 93.77"/><polygon class="cls-3" points="80.91 93.77 61.03 105.25 61.03 78.74 80.91 67.26 80.91 93.77"/><polygon class="cls-3" points="61.03 78.74 61.03 82.29 80.91 93.77 80.91 67.26 61.03 78.74"/><polygon class="cls-4" points="80.91 67.26 75.94 79.54 67.77 74.85 80.91 67.26"/><polygon class="cls-5" points="61.03 78.74 61.03 82.29 80.91 93.77 80.91 67.26 61.03 78.74"/><line class="cls-5" x1="84" y1="96.86" x2="89.26" y2="93.82"/><polygon class="cls-6" points="61.03 93.82 80.63 105.13 80.63 116.56 61.03 105.25 61.03 93.82"/><polygon class="cls-6" points="67.77 74.85 100.51 93.66 100.51 105.09 61.03 82.29 61.03 78.74 67.77 74.85"/><polygon class="cls-7" points="61.03 82.29 70.97 88.03 67.77 74.85 61.03 78.74 61.03 82.29"/><polygon class="cls-7" points="70.97 88.03 74.55 78.74 67.77 74.85 66 79.82 70.97 88.03"/><polygon class="cls-8" points="61.03 93.82 80.63 105.13 80.63 116.56 61.03 105.25 61.03 93.82"/><polygon class="cls-8" points="67.77 74.85 100.51 93.66 100.51 105.09 61.03 82.29 61.03 78.74 67.77 74.85"/><polygon class="cls-8" points="80.63 105.13 80.63 93.61 61.03 82.29 61.03 93.82 80.63 105.13"/><polygon class="cls-9" points="80.63 105.13 80.63 93.61 61.03 82.29 61.03 93.82 80.63 105.13"/><polygon class="cls-10" points="70.97 88.03 61.03 82.29 61.03 93.77 70.97 88.03"/><polygon class="cls-8" points="80.63 105.13 80.63 93.61 61.03 82.29 61.03 93.82 80.63 105.13"/><polygon class="cls-11" points="104.73 107.52 84.85 119 84.85 92.49 104.73 81.02 104.73 107.52"/><line class="cls-11" x1="92.16" y1="101.57" x2="97.42" y2="98.53"/><polygon class="cls-12" points="104.73 81.02 100.51 78.58 80.63 90.06 84.85 92.49 104.73 81.02"/><polygon class="cls-9" points="84.85 119 80.63 116.56 80.63 90.06 84.85 92.49 84.85 119"/><line class="cls-5" x1="80.91" y1="67.26" x2="61.03" y2="78.74"/><line class="cls-5" x1="61.03" y1="78.74" x2="61.03" y2="105.25"/><polygon class="cls-2" points="41.15 67.26 21.27 78.74 21.27 78.74 41.15 90.22 61.03 78.74 61.03 78.74 41.15 67.26"/><polygon class="cls-3" points="21.27 105.25 41.15 116.72 41.15 90.22 21.27 78.74 21.27 105.25"/><polygon class="cls-13" points="61.03 105.25 41.15 116.72 41.15 90.22 61.03 78.74 61.03 105.25"/><line class="cls-5" x1="48.46" y1="99.3" x2="53.72" y2="96.26"/><polygon class="cls-2" points="61.03 29.28 41.15 40.76 41.15 40.76 61.03 52.23 80.91 40.76 80.91 40.76 61.03 29.28"/><polygon class="cls-13" points="80.91 67.26 61.03 78.74 61.03 52.23 80.91 40.76 80.91 67.26"/><line class="cls-5" x1="68.34" y1="61.31" x2="73.6" y2="58.27"/><polygon class="cls-3" points="41.15 67.26 61.03 78.74 61.03 52.23 41.15 40.76 41.15 67.26"/><polygon class="cls-2" points="41.15 40.76 21.27 52.23 21.27 52.23 41.15 63.71 61.03 52.23 61.03 52.23 41.15 40.76"/><polygon class="cls-3" points="21.27 78.74 41.15 90.22 41.15 63.71 21.27 52.23 21.27 78.74"/><polygon class="cls-13" points="61.03 78.74 41.15 90.22 41.15 63.71 61.03 52.23 61.03 78.74"/><line class="cls-5" x1="48.46" y1="72.79" x2="53.72" y2="69.75"/><polygon class="cls-12" points="77.61 18.21 65.58 25.16 65.58 41.21 77.61 34.26 89.65 41.21 89.65 25.16 77.61 18.21"/><polygon class="cls-11" points="89.65 41.21 77.61 48.16 77.61 32.11 89.65 25.16 89.65 41.21"/><polygon class="cls-9" points="65.58 41.21 77.61 48.16 77.61 32.11 65.58 25.16 65.58 41.21"/><line class="cls-8" x1="89.65" y1="7" x2="89.65" y2="7"/><line class="cls-14" x1="89.65" y1="13.05" x2="89.65" y2="22.13"/><line class="cls-8" x1="89.65" y1="25.16" x2="89.65" y2="25.16"/><line class="cls-8" x1="65.58" y1="7" x2="65.58" y2="7"/><line class="cls-14" x1="65.58" y1="13.05" x2="65.58" y2="22.13"/><line class="cls-8" x1="65.58" y1="25.16" x2="65.58" y2="25.16"/></g></g></svg>