<svg xmlns="http://www.w3.org/2000/svg" width="126" height="128" viewBox="0 0 126 128"><defs><style>.cls-1,.cls-5,.cls-6{fill:none;}.cls-10,.cls-2{fill:#fff;}.cls-2,.cls-3,.cls-4,.cls-5,.cls-6{stroke:#1b6dc6;}.cls-10,.cls-2,.cls-3,.cls-4,.cls-5,.cls-6,.cls-7,.cls-9{stroke-linecap:round;stroke-linejoin:round;stroke-width:2px;}.cls-3{fill:#bde4fd;}.cls-4{fill:#e9f6fe;}.cls-6{stroke-dasharray:0 6.48;}.cls-7{fill:#f2f4f6;}.cls-10,.cls-7,.cls-9{stroke:#627386;}.cls-8,.cls-9{fill:#d5dae0;}</style></defs><title>subscriptions</title><g id="Layer_2" data-name="Layer 2"><g id="Layer_1-2" data-name="Layer 1"><rect class="cls-1" y="1" width="126" height="126"/><polygon class="cls-2" points="63 11.51 47.55 20.43 47.55 41.03 63 32.11 78.45 41.03 78.45 20.43 63 11.51"/><polygon class="cls-3" points="78.45 41.03 63 49.95 63 29.35 78.45 20.43 78.45 41.03"/><polygon class="cls-4" points="47.55 41.03 63 49.95 63 29.35 47.55 20.43 47.55 41.03"/><line class="cls-5" x1="47.55" y1="20.43" x2="47.55" y2="20.43"/><line class="cls-6" x1="47.55" y1="13.96" x2="47.55" y2="4.24"/><line class="cls-5" x1="47.55" y1="1" x2="47.55" y2="1"/><line class="cls-5" x1="78.45" y1="20.43" x2="78.45" y2="20.43"/><line class="cls-6" x1="78.45" y1="13.96" x2="78.45" y2="4.24"/><line class="cls-5" x1="78.45" y1="1" x2="78.45" y2="1"/><polygon class="cls-7" points="63 102.98 93.9 85.14 63 67.3 63 102.98"/><polygon class="cls-8" points="63 67.3 73.77 96.76 63 102.98 63 67.3"/><polygon class="cls-9" points="63 102.98 32.1 85.14 63 67.3 63 102.98"/><polygon class="cls-9" points="43.83 95.03 51.45 97.99 38.67 105.37 38.33 95.03 43.83 95.03"/><polygon class="cls-7" points="63 91.33 32.1 109.16 63 127 93.9 109.16 63 91.33"/><polygon class="cls-9" points="93.9 109.16 63 127 63 102.98 93.9 85.14 93.9 109.16"/><path class="cls-7" d="M32.1,85.14v24L63,127V103Z"/><polygon class="cls-10" points="93.9 85.14 108.41 86.47 77.52 104.31 63 102.98 93.9 85.14"/><polygon class="cls-10" points="63 67.3 48.48 51.88 17.59 69.71 32.1 85.14 63 67.3"/><path class="cls-9" d="M52.7,107.46c0,1.1-.67,1.61-1.49,1.13l-7.31-4.22a3.59,3.59,0,0,1-1.5-2.86v-1.12c0-1.1.67-1.61,1.5-1.13l7.31,4.22a3.57,3.57,0,0,1,1.49,2.85Z"/><path class="cls-10" d="M83.6,89.62c0,1.1-.67,1.61-1.5,1.13l-7.31-4.22a3.59,3.59,0,0,1-1.49-2.85V82.55c0-1.1.67-1.61,1.49-1.13l7.31,4.22a3.59,3.59,0,0,1,1.5,2.86Z"/></g></g></svg>