<svg xmlns="http://www.w3.org/2000/svg" width="128" height="126" viewBox="0 0 128 126"><defs><style>.cls-1{isolation:isolate;}.cls-2{fill:#f2f4f6;}.cls-2,.cls-6,.cls-7{stroke:#627386;}.cls-10,.cls-11,.cls-12,.cls-2,.cls-4,.cls-5,.cls-6,.cls-7,.cls-8,.cls-9{stroke-linecap:round;stroke-linejoin:round;stroke-width:2px;}.cls-3{fill:#d5dae0;}.cls-10,.cls-13,.cls-4,.cls-5,.cls-6,.cls-8,.cls-9{fill:none;}.cls-4,.cls-8{stroke:#b8bfca;}.cls-5{stroke:#d5dae0;}.cls-11,.cls-7{fill:#fff;}.cls-8{mix-blend-mode:darken;}.cls-10,.cls-11,.cls-12,.cls-9{stroke:#1b6dc6;}.cls-10{stroke-dasharray:0 6.3;}.cls-12{fill:#bde4fd;}</style></defs><title>users</title><g class="cls-1"><g id="Layer_2" data-name="Layer 2"><g id="Layer_4" data-name="Layer 4"><path class="cls-2" d="M118.39,61.65,80.09,39.53a2.94,2.94,0,0,0-2.65,0L14.28,76,1,77.05v9.89a.94.94,0,0,0,.55.77l46.36,26.76a2.94,2.94,0,0,0,2.65,0l75.89-43.81a.94.94,0,0,0,.55-.77V60Z"/><path class="cls-3" d="M80.09,39.53a2.94,2.94,0,0,0-2.65,0L49.24,55.82v59a2.74,2.74,0,0,0,1.32-.32l75.89-43.81a.94.94,0,0,0,.55-.77V60l-8.61,1.65Z"/><line class="cls-4" x1="89.06" y1="82.36" x2="89.06" y2="92.07"/><line class="cls-5" x1="9.41" y1="82.36" x2="9.41" y2="92.25"/><path class="cls-6" d="M118.39,61.65,80.09,39.53a2.94,2.94,0,0,0-2.65,0L14.28,76,1,77.05v9.89a.94.94,0,0,0,.55.77l46.36,26.76a2.94,2.94,0,0,0,2.65,0l75.89-43.81a.94.94,0,0,0,.55-.77V60Z"/><path class="cls-7" d="M126.45,60.77,50.56,104.58a2.88,2.88,0,0,1-2.65,0L1.55,77.82a.81.81,0,0,1,0-1.53L77.44,32.47a2.94,2.94,0,0,1,2.65,0l46.36,26.77A.81.81,0,0,1,126.45,60.77Z"/><path class="cls-8" d="M77.44,32.47,1.55,76.29a.81.81,0,0,0,0,1.53l7.86,4.54L88,37l-7.86-4.54A2.94,2.94,0,0,0,77.44,32.47Z"/><path class="cls-8" d="M83.54,77.64a.8.8,0,0,0,0,1.53l5.52,3.19,37.39-21.59a.81.81,0,0,0,0-1.53l-5.52-3.19Z"/><polygon class="cls-8" points="108.39 56.68 77.26 74.66 56.85 62.87 87.98 44.9 108.39 56.68"/><line class="cls-9" x1="23.9" y1="82.41" x2="23.9" y2="82.41"/><line class="cls-10" x1="23.9" y1="76.11" x2="23.9" y2="28.83"/><line class="cls-9" x1="23.9" y1="25.68" x2="23.9" y2="25.68"/><line class="cls-9" x1="74.59" y1="82.41" x2="74.59" y2="82.41"/><line class="cls-10" x1="74.59" y1="76.11" x2="74.59" y2="28.83"/><line class="cls-9" x1="74.59" y1="25.68" x2="74.59" y2="25.68"/><path class="cls-11" d="M74,26.62,50.56,40.18a2.94,2.94,0,0,1-2.65,0L24.43,26.62c-.74-.43-.74-1.11,0-1.53L47.91,11.53a2.94,2.94,0,0,1,2.65,0L74,25.09C74.78,25.51,74.78,26.19,74,26.62Z"/><path class="cls-12" d="M48.94,39.52a7.75,7.75,0,0,0,.07,1,2.84,2.84,0,0,0,1.55-.3L74,26.62c.43-.25.6-.58.53-.9-.55,0-1.1,0-1.66,0C59.67,25.68,48.94,31.88,48.94,39.52Z"/><ellipse class="cls-12" cx="46.48" cy="24.26" rx="9.83" ry="5.67"/><path class="cls-4" d="M74,83.12,50.56,96.68a2.94,2.94,0,0,1-2.65,0L24.43,83.12a.8.8,0,0,1,0-1.53L47.91,68a2.94,2.94,0,0,1,2.65,0L74,81.59A.8.8,0,0,1,74,83.12Z"/><path class="cls-4" d="M48.94,96A7.48,7.48,0,0,0,49,97a2.76,2.76,0,0,0,1.55-.3L74,83.12a.84.84,0,0,0,.53-.89c-.55,0-1.1,0-1.66,0C59.67,82.19,48.94,88.38,48.94,96Z"/><ellipse class="cls-4" cx="46.48" cy="80.77" rx="9.83" ry="5.67"/><rect class="cls-13" x="1" width="126" height="126"/></g></g></g></svg>