<svg xmlns="http://www.w3.org/2000/svg" width="142" height="98.58" viewBox="0 0 142 98.58"><defs><style>.cls-1{fill:#f2f4f6;}.cls-1,.cls-7,.cls-8{stroke:#627386;}.cls-1,.cls-2,.cls-4,.cls-5,.cls-7,.cls-8{stroke-linecap:round;stroke-linejoin:round;stroke-width:2px;}.cls-2{fill:#e9f6fe;}.cls-2,.cls-4,.cls-5{stroke:#1b6dc6;}.cls-3{fill:#bde4fd;}.cls-4{fill:none;}.cls-5,.cls-8{fill:#fff;}.cls-6{fill:#1b6dc6;}.cls-7{fill:#d5dae0;}.cls-9{fill:#627386;}</style></defs><title>disk_01</title><g id="Layer_2" data-name="Layer 2"><g id="Layer_1-2" data-name="Layer 1"><polygon class="cls-1" points="1 51.28 88.09 1 141 31.55 53.91 81.83 1 51.28"/><polygon class="cls-1" points="71.77 71.51 53.91 81.83 26.06 65.75 43.93 55.44 71.77 71.51"/><path class="cls-1" d="M43.93,55.44,26.06,65.75,1,51.28,26.06,36.81,43.93,47.13C47.9,49.42,47.9,53.14,43.93,55.44Z"/><ellipse class="cls-2" cx="86.63" cy="32.39" rx="31.5" ry="18.19"/><path class="cls-1" d="M93.83,32.16V28.45H89a12.33,12.33,0,0,0-4.69,0H79.41v3.94a3.58,3.58,0,0,0,2.11,3,11.27,11.27,0,0,0,10.21,0C93.24,34.47,93.94,33.3,93.83,32.16Z"/><path class="cls-2" d="M93.83,32.16V28.45H89a12.33,12.33,0,0,0-4.69,0H79.41v3.94a3.58,3.58,0,0,0,2.11,3,11.27,11.27,0,0,0,10.21,0C93.24,34.47,93.94,33.3,93.83,32.16Z"/><path class="cls-3" d="M91.73,35.34c1.51-.87,2.21-2,2.1-3.18V28.45H89a12.13,12.13,0,0,0-2.34-.22v8.33A10.48,10.48,0,0,0,91.73,35.34Z"/><path class="cls-4" d="M93.83,32.16V28.45H89a12.33,12.33,0,0,0-4.69,0H79.41v3.94a3.58,3.58,0,0,0,2.11,3,11.27,11.27,0,0,0,10.21,0C93.24,34.47,93.94,33.3,93.83,32.16Z"/><ellipse class="cls-5" cx="86.63" cy="28.46" rx="7.22" ry="4.17"/><ellipse class="cls-6" cx="86.63" cy="28.46" rx="1.33" ry="0.77"/><polygon class="cls-7" points="141 31.55 141 47.3 53.91 97.58 53.91 81.83 141 31.55"/><polygon class="cls-1" points="1 51.28 1 67.03 53.91 97.58 53.91 81.83 1 51.28"/><path class="cls-8" d="M18.3,49.37h0C17.18,47,20,44.55,24.22,44.2L70.5,40.41c1.74-.14,2.4,1.27.76,1.65L27.9,52.14C23.91,53.07,19.41,51.77,18.3,49.37Z"/><ellipse class="cls-9" cx="25.8" cy="48.21" rx="2" ry="1.15"/><line class="cls-7" x1="42.57" y1="83.01" x2="47.71" y2="85.98"/><line class="cls-7" x1="6.09" y1="62.45" x2="25.17" y2="73.46"/></g></g></svg>