<svg xmlns="http://www.w3.org/2000/svg" width="86.36" height="92.89" viewBox="0 0 86.36 92.89"><defs><style>.cls-1{fill:#d5dae0;}.cls-1,.cls-3,.cls-4{stroke:#627386;}.cls-1,.cls-3,.cls-4,.cls-5{stroke-linecap:round;stroke-linejoin:round;stroke-width:2px;}.cls-2,.cls-4,.cls-5{fill:#fff;}.cls-3{fill:#f2f4f6;}.cls-5{stroke:#faabab;}</style></defs><title>node_02</title><g id="Layer_2" data-name="Layer 2"><g id="Layer_1-2" data-name="Layer 1"><polygon class="cls-1" points="85.36 67.53 43.18 91.89 43.18 77.83 85.36 53.47 85.36 67.53"/><ellipse class="cls-2" cx="48.46" cy="81.81" rx="1.39" ry="0.79" transform="translate(-45.79 94.37) rotate(-66.95)"/><line class="cls-1" x1="69.54" y1="69.63" x2="59" y2="75.72"/><polygon class="cls-3" points="1 67.53 43.18 91.89 43.18 77.83 1 53.47 1 67.53"/><polygon class="cls-4" points="85.36 53.47 43.18 29.12 1 53.47 43.18 77.83 85.36 53.47"/><polygon class="cls-1" points="85.36 53.47 43.18 77.83 43.18 63.77 85.36 39.41 85.36 53.47"/><ellipse class="cls-2" cx="48.46" cy="67.75" rx="1.39" ry="0.79" transform="translate(-32.85 85.81) rotate(-66.95)"/><line class="cls-1" x1="69.54" y1="55.57" x2="59" y2="61.66"/><polygon class="cls-3" points="1 53.47 43.18 77.83 43.18 63.77 1 39.41 1 53.47"/><polygon class="cls-4" points="85.36 39.41 43.18 15.06 1 39.41 43.18 63.77 85.36 39.41"/><polygon class="cls-1" points="85.36 39.41 43.18 63.77 43.18 49.7 85.36 25.35 85.36 39.41"/><ellipse class="cls-2" cx="48.46" cy="53.69" rx="1.39" ry="0.79" transform="translate(-19.91 77.26) rotate(-66.95)"/><line class="cls-1" x1="69.54" y1="41.51" x2="59" y2="47.6"/><polygon class="cls-3" points="1 39.41 43.18 63.77 43.18 49.7 1 25.35 1 39.41"/><polygon class="cls-4" points="85.36 25.35 43.18 1 1 25.35 43.18 49.7 85.36 25.35"/><ellipse class="cls-5" cx="43.07" cy="25.35" rx="22.82" ry="13.17"/><polygon class="cls-5" points="57.01 23.42 46.22 23.42 46.22 17.37 40.14 17.37 40.14 23.42 29.35 23.42 29.35 27.28 40.14 27.28 40.14 33.34 46.22 33.34 46.22 27.28 57.01 27.28 57.01 23.42"/></g></g></svg>