<svg xmlns="http://www.w3.org/2000/svg" width="62" height="96.64" viewBox="0 0 62 96.64"><defs><style>.cls-1{fill:#fff;}.cls-1,.cls-2,.cls-3,.cls-6{stroke:#627386;}.cls-1,.cls-2,.cls-3,.cls-5,.cls-6,.cls-7{stroke-linecap:round;stroke-linejoin:round;stroke-width:2px;}.cls-2{fill:#d5dae0;}.cls-3{fill:#f2f4f6;}.cls-4{fill:#627386;}.cls-5,.cls-6,.cls-7{fill:none;}.cls-5{stroke:#b8bfca;}.cls-7{stroke:#f2f4f6;}</style></defs><title>rack_01</title><g id="Layer_2" data-name="Layer 2"><g id="Layer_2-2" data-name="Layer 2"><polygon class="cls-1" points="61 18.32 31 35.64 1 18.32 31 1 61 18.32"/><polygon class="cls-2" points="61 78.32 61 18.32 31 35.64 31 95.64 61 78.32"/><polygon class="cls-3" points="31 95.64 31 35.64 1 18.32 1 78.32 31 95.64"/><ellipse class="cls-4" cx="5" cy="25.25" rx="0.87" ry="1.54" transform="translate(-9.49 3.97) rotate(-23.05)"/><ellipse class="cls-4" cx="27" cy="37.95" rx="0.87" ry="1.54" transform="translate(-12.7 13.6) rotate(-23.05)"/><ellipse class="cls-4" cx="5" cy="76.01" rx="0.87" ry="1.54" transform="translate(-29.36 8.03) rotate(-23.05)"/><ellipse class="cls-4" cx="27" cy="88.71" rx="0.87" ry="1.54" transform="translate(-32.58 17.66) rotate(-23.05)"/><line class="cls-5" x1="49.61" y1="18.32" x2="31" y2="29.06"/><line class="cls-5" x1="44.95" y1="15.64" x2="26.35" y2="26.38"/><line class="cls-5" x1="40.3" y1="12.95" x2="21.7" y2="23.69"/><line class="cls-5" x1="35.65" y1="10.26" x2="17.05" y2="21.01"/><line class="cls-5" x1="31" y1="7.58" x2="12.39" y2="18.32"/><line class="cls-6" x1="50.27" y1="34.52" x2="36" y2="42.75"/><line class="cls-7" x1="56" y1="31.01" x2="54.63" y2="31.81"/><line class="cls-6" x1="50.27" y1="44.52" x2="36" y2="52.75"/><line class="cls-7" x1="56" y1="41.01" x2="54.63" y2="41.81"/><line class="cls-6" x1="50.27" y1="54.52" x2="36" y2="62.75"/><line class="cls-7" x1="56" y1="51.01" x2="54.63" y2="51.81"/><line class="cls-6" x1="50.27" y1="64.52" x2="36" y2="72.75"/><line class="cls-7" x1="56" y1="61.01" x2="54.63" y2="61.81"/><line class="cls-6" x1="50.27" y1="74.52" x2="36" y2="82.75"/><line class="cls-7" x1="56" y1="71.01" x2="54.63" y2="71.81"/></g></g></svg>