<svg xmlns="http://www.w3.org/2000/svg" width="101.54" height="92.63" viewBox="0 0 101.54 92.63"><defs><style>.cls-1,.cls-6{fill:#d5dae0;}.cls-1,.cls-2,.cls-3,.cls-5{stroke:#627386;}.cls-1,.cls-2,.cls-3,.cls-4,.cls-5{stroke-linecap:round;stroke-linejoin:round;stroke-width:2px;}.cls-2{fill:#f2f4f6;}.cls-3{fill:#fff;}.cls-4,.cls-5{fill:none;}.cls-4{stroke:#d5dae0;}.cls-7{fill:#627386;}</style></defs><title>vm_02</title><g id="Layer_2" data-name="Layer 2"><g id="Layer_1-2" data-name="Layer 1"><polygon class="cls-1" points="100.52 62.97 50.72 91.63 50.74 75.04 100.54 46.39 100.52 62.97"/><polygon class="cls-2" points="1 62.83 50.72 91.63 50.74 75.04 1.02 46.24 1 62.83"/><polygon class="cls-3" points="100.54 46.39 50.82 17.59 1.02 46.24 50.74 75.04 100.54 46.39"/><polygon class="cls-4" points="100.54 46.39 75.68 31.99 50.78 46.31 75.64 60.72 100.54 46.39"/><polygon class="cls-5" points="100.54 46.39 50.82 17.59 1.02 46.24 50.74 75.04 100.54 46.39"/><line class="cls-5" x1="75.64" y1="60.72" x2="75.64" y2="77.34"/><ellipse class="cls-4" cx="75.62" cy="46.39" rx="7.18" ry="4.15"/><ellipse class="cls-6" cx="50.81" cy="24.95" rx="2.39" ry="1.38"/><ellipse class="cls-6" cx="13.77" cy="46.26" rx="2.39" ry="1.38"/><ellipse class="cls-6" cx="50.75" cy="67.68" rx="2.39" ry="1.38"/><polygon class="cls-1" points="100.52 46.39 50.72 75.04 50.74 58.46 100.54 29.8 100.52 46.39"/><polygon class="cls-2" points="1 46.24 50.72 75.04 50.74 58.46 1.02 29.66 1 46.24"/><polygon class="cls-3" points="100.54 29.8 50.82 1 1.02 29.66 50.74 58.46 100.54 29.8"/><polygon class="cls-5" points="100.54 29.8 75.68 15.4 50.78 29.73 75.64 44.13 100.54 29.8"/><polygon class="cls-5" points="100.54 29.8 50.82 1 1.02 29.66 50.74 58.46 100.54 29.8"/><line class="cls-5" x1="75.64" y1="44.13" x2="75.64" y2="60.76"/><ellipse class="cls-4" cx="75.62" cy="29.8" rx="7.18" ry="4.15"/><ellipse class="cls-7" cx="50.81" cy="8.36" rx="2.39" ry="1.38"/><ellipse class="cls-7" cx="13.77" cy="29.68" rx="2.39" ry="1.38"/><ellipse class="cls-7" cx="50.75" cy="51.1" rx="2.39" ry="1.38"/></g></g></svg>