<svg xmlns="http://www.w3.org/2000/svg" viewBox="0 0 120 120"><defs><style>.cls-1,.cls-10,.cls-2,.cls-8,.cls-9{fill:none;}.cls-1,.cls-2{stroke:#1b6dc6;}.cls-1,.cls-2,.cls-3,.cls-4,.cls-5,.cls-8,.cls-9{stroke-linecap:round;stroke-linejoin:round;stroke-width:2px;}.cls-2{stroke-dasharray:0 6.39;}.cls-3{fill:#91d2fb;}.cls-3,.cls-4,.cls-5{stroke:#91d2fb;}.cls-4{fill:#bde4fd;}.cls-5,.cls-6{fill:#fff;}.cls-7{fill:#d5dae0;}.cls-8{stroke:#b8bfca;}.cls-9{stroke:#627386;}</style></defs><title>acropolis</title><g id="Layer_2" data-name="Layer 2"><g id="Tech_Concepts" data-name="Tech Concepts"><line class="cls-1" x1="88.59" y1="28.41" x2="88.59" y2="28.41"/><line class="cls-2" x1="88.59" y1="34.8" x2="88.59" y2="44.38"/><line class="cls-1" x1="88.59" y1="47.57" x2="88.59" y2="47.57"/><line class="cls-1" x1="65.84" y1="28.41" x2="65.84" y2="28.41"/><line class="cls-2" x1="65.84" y1="34.8" x2="65.84" y2="44.38"/><line class="cls-1" x1="65.84" y1="47.57" x2="65.84" y2="47.57"/><polygon class="cls-3" points="88.59 47.58 77.22 54.14 77.22 112.25 119 88.12 88.59 47.58"/><polygon class="cls-4" points="65.84 47.58 77.22 54.14 77.22 112.25 35.43 88.12 65.84 47.58"/><polygon class="cls-5" points="65.84 47.58 77.22 41.01 88.59 47.58 77.22 54.14 65.84 47.58"/><polygon class="cls-1" points="88.59 47.58 77.22 41.01 65.84 47.58 35.43 88.12 77.22 112.25 119 88.12 88.59 47.58"/><polygon class="cls-4" points="77.22 13.24 77.22 34.98 88.59 28.41 77.22 13.24"/><polygon class="cls-5" points="77.22 13.24 77.22 34.98 65.84 28.41 77.22 13.24"/><polygon class="cls-1" points="77.22 13.24 65.84 28.41 77.22 34.98 88.59 28.41 77.22 13.24"/><path class="cls-6" d="M52.65,18h0l-9.53-5.5h0a4.07,4.07,0,0,0-4.16.33l-.69.4L30.09,8.46h0c-1.86-1.07-4.28-1-6.93.55C17.62,12.22,13.08,20.5,12.6,28L7.36,31C3.85,33.05,1,38.49,1,43.18H1c0,2.56.86,4.36,2.2,5.13h0l9.53,5.5h0a4,4,0,0,0,4.16-.33l31.6-18.24c3.51-2,6.36-7.47,6.36-12.16h0C54.85,20.53,54,18.73,52.65,18Z"/><path class="cls-7" d="M48.49,18.29l-5.24,3c-.48-6.94-5-10-10.56-6.78S22.61,26,22.13,33.5l-5.24,3c-3.51,2-6.36,7.47-6.36,12.15s2.85,6.84,6.36,4.81l31.6-18.24c3.51-2,6.36-7.47,6.36-12.16h0C54.85,18.41,52,16.26,48.49,18.29Z"/><path class="cls-8" d="M48.49,18.29l-5.24,3c-.48-6.94-5-10-10.56-6.78S22.61,26,22.13,33.5l-5.24,3c-3.51,2-6.36,7.47-6.36,12.15"/><path class="cls-9" d="M52.65,18h0l-9.53-5.5h0a4.07,4.07,0,0,0-4.16.33l-.69.4L30.09,8.46h0c-1.86-1.07-4.28-1-6.93.55C17.62,12.22,13.08,20.5,12.6,28L7.36,31C3.85,33.05,1,38.49,1,43.18H1c0,2.56.86,4.36,2.2,5.13h0l9.53,5.5h0a4,4,0,0,0,4.16-.33l31.6-18.24c3.51-2,6.36-7.47,6.36-12.16h0C54.85,20.53,54,18.73,52.65,18Z"/><rect class="cls-10" width="120" height="120"/><rect class="cls-10" width="120" height="120"/></g></g></svg>