<svg xmlns="http://www.w3.org/2000/svg" viewBox="0 0 120 120"><defs><style>.cls-1,.cls-10,.cls-11,.cls-5,.cls-6{fill:none;}.cls-1,.cls-10{stroke:#1b6dc6;}.cls-1,.cls-10,.cls-3,.cls-5,.cls-6,.cls-8,.cls-9{stroke-linecap:round;stroke-linejoin:round;stroke-width:2px;}.cls-1{stroke-dasharray:0 6;}.cls-2,.cls-9{fill:#fff;}.cls-3{fill:#b8bfca;}.cls-3,.cls-5{stroke:#b8bfca;}.cls-4{fill:#d5dae0;}.cls-6{stroke:#627386;}.cls-7{fill:#bde4fd;}.cls-8{fill:#91d2fb;}.cls-8,.cls-9{stroke:#91d2fb;}</style></defs><title>acropolis-block-services</title><g id="Layer_2" data-name="Layer 2"><g id="Tech_Concepts" data-name="Tech Concepts"><line class="cls-1" x1="79.11" y1="26.59" x2="79.11" y2="44.43"/><line class="cls-1" x1="40.72" y1="26.59" x2="40.72" y2="44.43"/><path class="cls-2" d="M40.89,87.16,22.36,76.47a1.27,1.27,0,0,0-1.17,0L2.66,87.16l18.53,10.7a1.27,1.27,0,0,0,1.17,0Z"/><path class="cls-3" d="M21.77,119a1.27,1.27,0,0,0,.63-.17l18.49-10.67v-21L22.4,97.84a1.26,1.26,0,0,1-.63.16"/><path class="cls-4" d="M21.77,98a1.25,1.25,0,0,1-.62-.16L2.66,87.16v21l18.49,10.67a1.26,1.26,0,0,0,.62.17"/><path class="cls-5" d="M40.89,87.16,22.36,76.47a1.27,1.27,0,0,0-1.17,0L2.66,87.16l18.53,10.7a1.27,1.27,0,0,0,1.17,0Z"/><line class="cls-3" x1="21.77" y1="98" x2="21.77" y2="119"/><path class="cls-6" d="M22.36,76.47a1.27,1.27,0,0,0-1.17,0L2.66,87.16v21l18.49,10.67a1.22,1.22,0,0,0,1.25,0l18.49-10.67v-21Z"/><path class="cls-2" d="M60,55.13,41.47,44.43a1.33,1.33,0,0,0-1.17,0L21.77,55.13,40.3,65.83a1.33,1.33,0,0,0,1.17,0Z"/><path class="cls-3" d="M40.89,87a1.26,1.26,0,0,0,.62-.17L60,76.13v-21L41.51,65.8a1.16,1.16,0,0,1-.62.17"/><path class="cls-4" d="M40.89,66a1.19,1.19,0,0,1-.63-.17L21.77,55.13v21L40.26,86.8a1.29,1.29,0,0,0,.63.17"/><path class="cls-5" d="M60,55.13,41.47,44.43a1.33,1.33,0,0,0-1.17,0L21.77,55.13,40.3,65.83a1.33,1.33,0,0,0,1.17,0Z"/><line class="cls-3" x1="40.89" y1="65.97" x2="40.89" y2="86.97"/><path class="cls-6" d="M41.47,44.43a1.33,1.33,0,0,0-1.17,0L21.77,55.13v21L40.26,86.8a1.27,1.27,0,0,0,1.25,0L60,76.13v-21Z"/><path class="cls-2" d="M98.23,55.13,79.7,44.43a1.33,1.33,0,0,0-1.17,0L60,55.13l18.53,10.7a1.33,1.33,0,0,0,1.17,0Z"/><path class="cls-3" d="M79.11,87a1.29,1.29,0,0,0,.63-.17L98.23,76.13v-21L79.74,65.8a1.19,1.19,0,0,1-.63.17"/><path class="cls-4" d="M79.11,66a1.16,1.16,0,0,1-.62-.17L60,55.13v21L78.49,86.8a1.26,1.26,0,0,0,.62.17"/><path class="cls-5" d="M98.23,55.13,79.7,44.43a1.33,1.33,0,0,0-1.17,0L60,55.13l18.53,10.7a1.33,1.33,0,0,0,1.17,0Z"/><line class="cls-3" x1="79.11" y1="65.97" x2="79.11" y2="86.97"/><path class="cls-6" d="M79.7,44.43a1.33,1.33,0,0,0-1.17,0L60,55.13v21L78.49,86.8a1.27,1.27,0,0,0,1.25,0L98.23,76.13v-21Z"/><path class="cls-2" d="M117.34,87.16,98.81,76.47a1.27,1.27,0,0,0-1.17,0L79.11,87.16l18.53,10.7a1.27,1.27,0,0,0,1.17,0Z"/><path class="cls-3" d="M98.23,119a1.26,1.26,0,0,0,.62-.17l18.49-10.67v-21L98.85,97.84a1.25,1.25,0,0,1-.62.16"/><path class="cls-4" d="M98.23,98a1.26,1.26,0,0,1-.63-.16L79.11,87.16v21L97.6,118.83a1.27,1.27,0,0,0,.63.17"/><path class="cls-5" d="M117.34,87.16,98.81,76.47a1.27,1.27,0,0,0-1.17,0L79.11,87.16l18.53,10.7a1.27,1.27,0,0,0,1.17,0Z"/><line class="cls-3" x1="98.23" y1="98" x2="98.23" y2="119"/><path class="cls-6" d="M98.81,76.47a1.27,1.27,0,0,0-1.17,0L79.11,87.16v21L97.6,118.83a1.22,1.22,0,0,0,1.25,0l18.49-10.67v-21Z"/><path class="cls-7" d="M60,98a1.28,1.28,0,0,1-.63-.16L40.89,87.16v21l18.49,10.67A1.23,1.23,0,0,0,60,119"/><path class="cls-8" d="M60,119a1.23,1.23,0,0,0,.62-.17l18.49-10.67v-21L60.63,97.84A1.28,1.28,0,0,1,60,98Z"/><path class="cls-9" d="M79.11,87.16,60.58,76.47a1.25,1.25,0,0,0-1.16,0L40.89,87.16l18.53,10.7a1.25,1.25,0,0,0,1.16,0Z"/><path class="cls-10" d="M60.58,76.47a1.25,1.25,0,0,0-1.16,0L40.89,87.16v21l18.49,10.67a1.22,1.22,0,0,0,1.25,0l18.48-10.67v-21Z"/><polygon class="cls-7" points="59.92 1 59.92 37.68 79.11 26.59 59.92 1"/><polygon class="cls-9" points="59.92 1 59.92 37.68 40.72 26.59 59.92 1"/><polygon class="cls-10" points="59.92 1 40.72 26.59 59.92 37.67 79.11 26.59 59.92 1"/><rect class="cls-11" width="120" height="120"/><rect class="cls-11" width="120" height="120"/></g></g></svg>