<svg xmlns="http://www.w3.org/2000/svg" viewBox="0 0 120 120"><defs><style>.cls-1,.cls-10{fill:#d5dae0;}.cls-1,.cls-2,.cls-3,.cls-4{stroke:#b8bfca;}.cls-1,.cls-10,.cls-13,.cls-2,.cls-3,.cls-4,.cls-5,.cls-6,.cls-7,.cls-8,.cls-9{stroke-linecap:round;stroke-linejoin:round;stroke-width:2px;}.cls-2{fill:#fff;}.cls-13,.cls-3{fill:#b8bfca;}.cls-14,.cls-4,.cls-5,.cls-6,.cls-7,.cls-8,.cls-9{fill:none;}.cls-10,.cls-5{stroke:#627386;}.cls-6,.cls-7{stroke:#1b6dc6;}.cls-7{stroke-dasharray:0 6.16;}.cls-8{stroke:#91d2fb;}.cls-9{stroke:#d5dae0;}.cls-11{fill:#bde4fd;}.cls-12{fill:#91d2fb;}.cls-13{stroke:#fff;}</style></defs><title>acropolis-container-services</title><g id="Layer_2" data-name="Layer 2"><g id="Tech_Concepts" data-name="Tech Concepts"><polygon class="cls-1" points="37.98 37.52 24.09 29.5 24.09 66.54 37.98 74.56 37.98 37.52"/><polygon class="cls-2" points="28.55 26.92 24.09 29.5 37.98 37.52 42.44 34.94 28.55 26.92"/><polygon class="cls-3" points="42.44 71.99 37.98 74.56 37.98 37.52 42.44 34.94 42.44 71.99"/><polygon class="cls-4" points="28.55 26.92 24.09 29.5 24.09 66.54 37.98 74.56 42.44 71.99 42.44 34.94 28.55 26.92"/><line class="cls-4" x1="32.75" y1="41.33" x2="29.33" y2="39.36"/><polygon class="cls-5" points="91.22 7 42.44 34.94 28.55 26.92 24.09 29.5 24.09 66.54 37.98 74.56 42.44 71.99 65.77 85.45 65.77 90.6 79.66 98.62 84.12 96.05 84.12 80.01 94.52 74 106.66 66.99 119 60.09 119 50.83 119 41.56 119 32.3 119 23.04 91.22 7"/><line class="cls-6" x1="24.09" y1="99.67" x2="24.09" y2="99.67"/><line class="cls-7" x1="29.43" y1="96.59" x2="48.1" y2="85.8"/><line class="cls-6" x1="50.77" y1="84.26" x2="50.77" y2="84.26"/><polygon class="cls-8" points="31.79 104.11 24.09 99.67 16.39 95.22 8.7 99.67 1 104.11 8.7 108.55 16.39 113 24.09 108.55 31.79 104.11"/><polygon class="cls-3" points="119 60.09 106.66 66.99 94.52 74 82.37 81.01 70.22 88.03 70.22 78.77 70.22 69.5 70.22 60.24 70.22 50.98 82.37 43.97 94.52 36.96 106.85 30.06 119 23.04 119 32.3 119 41.56 119 50.83 119 60.09"/><polygon class="cls-2" points="42.44 34.94 70.22 50.98 119 23.04 91.22 7 42.44 34.94"/><line class="cls-9" x1="82.37" y1="49.53" x2="82.37" y2="75.46"/><polygon class="cls-10" points="42.44 71.99 70.22 88.03 70.22 50.98 42.44 34.94 42.44 71.99"/><polygon class="cls-1" points="46.83 69.42 46.83 42.57 65.83 53.55 65.83 80.39 46.83 69.42"/><polygon class="cls-3" points="65.83 53.55 46.83 42.57 46.83 69.42 65.83 58.45 65.83 53.55"/><line class="cls-9" x1="71.6" y1="23.72" x2="89.66" y2="34.15"/><line class="cls-9" x1="77.51" y1="41.16" x2="59.45" y2="30.74"/><line class="cls-9" x1="94.52" y1="42.51" x2="94.52" y2="68.44"/><line class="cls-9" x1="106.66" y1="35.5" x2="106.66" y2="61.43"/><line class="cls-9" x1="101.8" y1="27.14" x2="83.74" y2="16.71"/><polygon class="cls-5" points="119 23.04 91.22 7 42.44 34.94 42.44 71.99 70.22 88.03 82.37 81.01 94.52 74 106.66 66.99 119 60.09 119 50.83 119 41.56 119 32.3 119 23.04 119 23.04"/><polygon class="cls-10" points="79.66 61.58 65.77 53.56 65.77 90.6 79.66 98.62 79.66 61.58"/><polygon class="cls-2" points="70.22 50.98 65.77 53.56 79.66 61.58 84.12 59 70.22 50.98"/><polygon class="cls-3" points="84.12 96.05 79.66 98.62 79.66 61.58 84.12 59 84.12 96.05"/><line class="cls-4" x1="74.42" y1="65.39" x2="71" y2="63.42"/><polygon class="cls-5" points="70.22 50.98 65.77 53.56 65.77 90.6 79.66 98.62 84.12 96.05 84.12 59 70.22 50.98"/><polygon class="cls-11" points="16.39 70.08 1.92 89.79 16.39 98.62 16.39 98.62 16.39 86.59 16.39 70.08"/><polygon class="cls-12" points="16.39 70.08 30.87 89.79 16.39 98.62 16.39 98.62 16.39 70.08"/><polyline class="cls-13" points="16.39 98.62 16.39 98.62 16.39 70.08"/><polygon class="cls-6" points="16.39 70.08 1.92 89.79 16.39 98.62 16.39 98.62 16.39 98.62 30.87 89.79 16.39 70.08"/><rect class="cls-14" width="120" height="120"/><rect class="cls-14" width="120" height="120"/></g></g></svg>