<svg xmlns="http://www.w3.org/2000/svg" viewBox="0 0 120 120"><defs><style>.cls-1,.cls-11,.cls-2,.cls-3,.cls-4,.cls-8{fill:none;}.cls-1,.cls-2{stroke:#1b6dc6;}.cls-1,.cls-10,.cls-2,.cls-3,.cls-4,.cls-5,.cls-6,.cls-7,.cls-8{stroke-linecap:round;stroke-linejoin:round;stroke-width:2px;}.cls-2{stroke-dasharray:0 9.7;}.cls-3,.cls-4{stroke:#627386;}.cls-4{stroke-dasharray:0 7.13;}.cls-5{fill:#d5dae0;}.cls-10,.cls-5,.cls-6,.cls-8{stroke:#b8bfca;}.cls-6{fill:#b8bfca;}.cls-10,.cls-7,.cls-9{fill:#fff;}.cls-7{stroke:#fff;}</style></defs><title>aerospace-&amp;amp;-defense</title><g id="Layer_2" data-name="Layer 2"><g id="Industries"><line class="cls-1" x1="60.18" y1="33.25" x2="60.18" y2="33.25"/><line class="cls-2" x1="68.58" y1="28.4" x2="72.79" y2="25.97"/><line class="cls-1" x1="76.99" y1="23.54" x2="76.99" y2="23.54"/><line class="cls-1" x1="94.96" y1="53.33" x2="94.96" y2="53.33"/><line class="cls-2" x1="103.36" y1="48.47" x2="107.56" y2="46.05"/><line class="cls-1" x1="111.77" y1="43.62" x2="111.77" y2="43.62"/><line class="cls-3" x1="106.66" y1="91.28" x2="106.66" y2="91.28"/><line class="cls-4" x1="112.83" y1="87.71" x2="115.91" y2="85.93"/><line class="cls-3" x1="119" y1="84.15" x2="119" y2="84.15"/><line class="cls-3" x1="3.55" y1="33.31" x2="3.55" y2="33.31"/><line class="cls-4" x1="9.72" y1="29.75" x2="12.81" y2="27.97"/><line class="cls-3" x1="15.9" y1="26.19" x2="15.9" y2="26.19"/><path class="cls-5" d="M73.28,92.13l-1.86-3.94L79,83.82h0a1.84,1.84,0,0,1,1.9.15,7,7,0,0,1,2.91,5.56,2.59,2.59,0,0,1-1,2.35h0l-7.57,4.37-2-4.12Z"/><ellipse class="cls-6" cx="73.32" cy="92.23" rx="2.53" ry="4.47" transform="translate(-30.26 36.07) rotate(-23.05)"/><path class="cls-3" d="M83.8,89.54A7,7,0,0,0,80.89,84a1.84,1.84,0,0,0-1.9-.15h0l-7.57,4.37v0a2.56,2.56,0,0,0-1,2.34,7,7,0,0,0,2.91,5.56,1.83,1.83,0,0,0,1.9.13v0l7.57-4.37h0A2.59,2.59,0,0,0,83.8,89.54Z"/><path class="cls-5" d="M51.14,88.54l-1.86-3.93,7.57-4.37h0a1.88,1.88,0,0,1,1.91.15A7,7,0,0,1,61.67,86a2.55,2.55,0,0,1-1,2.35h0l-7.57,4.37-2-4.13Z"/><ellipse class="cls-6" cx="51.19" cy="88.64" rx="2.53" ry="4.47" transform="translate(-30.62 27.12) rotate(-23.05)"/><path class="cls-3" d="M61.67,86a7,7,0,0,0-2.91-5.56,1.88,1.88,0,0,0-1.91-.15h0l-7.57,4.37v0a2.55,2.55,0,0,0-1,2.33,6.94,6.94,0,0,0,2.91,5.56,1.8,1.8,0,0,0,1.89.14v0l7.57-4.37h0A2.55,2.55,0,0,0,61.67,86Z"/><path class="cls-5" d="M13.74,67.5l-1.86-3.94,7.57-4.37h0a1.84,1.84,0,0,1,1.91.15,7,7,0,0,1,2.91,5.56,2.56,2.56,0,0,1-1,2.34h0l-7.57,4.37L13.74,67.5Z"/><ellipse class="cls-6" cx="13.79" cy="67.6" rx="2.53" ry="4.47" transform="translate(-25.37 10.79) rotate(-23.05)"/><path class="cls-3" d="M24.27,64.9a7,7,0,0,0-2.91-5.55,1.86,1.86,0,0,0-1.91-.16h0l-7.57,4.37v0a2.54,2.54,0,0,0-1,2.34,7,7,0,0,0,2.91,5.56,1.82,1.82,0,0,0,1.89.13v0l7.57-4.37h0A2.57,2.57,0,0,0,24.27,64.9Z"/><path class="cls-5" d="M6.48,53,4.63,49l7.57-4.37h0a1.84,1.84,0,0,1,1.9.15A7,7,0,0,1,17,50.37a2.57,2.57,0,0,1-1,2.35h0L8.43,57.09,6.49,53Z"/><ellipse class="cls-6" cx="6.53" cy="53.06" rx="2.53" ry="4.47" transform="translate(-20.25 6.79) rotate(-23.05)"/><path class="cls-3" d="M17,50.37a7,7,0,0,0-2.91-5.56,1.84,1.84,0,0,0-1.9-.15h0L4.63,49v0a2.58,2.58,0,0,0-1,2.34,7,7,0,0,0,2.91,5.56,1.83,1.83,0,0,0,1.9.13v0L16,52.72h0A2.57,2.57,0,0,0,17,50.37Z"/><path class="cls-5" d="M69.81,42.91l-8.88-9.6a.69.69,0,0,0-.75-.06l-1.41.81a.89.89,0,0,0-.54.91l2.85,13"/><path class="cls-5" d="M39.81,64.51,5.37,33.43a1.76,1.76,0,0,0-1.82-.12L2.38,34c-1.21.7-1.66,1.71-1.2,2.66L20.25,75.81"/><path class="cls-7" d="M28.49,61.3,1.18,36.65,20.25,75.81l7.14-4.13A6.45,6.45,0,0,0,28.49,61.3Z"/><path class="cls-8" d="M39.81,64.51,5.37,33.43a1.76,1.76,0,0,0-1.82-.12L2.38,34c-1.21.7-1.66,1.71-1.2,2.66L20.25,75.81"/><path class="cls-5" d="M79.47,43.53h0a3.47,3.47,0,0,1-.18,3.75h0a85.88,85.88,0,0,1-27,24.58L25.21,87.48l-4.85,2.8a5.37,5.37,0,0,1-7.33-2h0a5.37,5.37,0,0,1-.28-4.81L15,78.21a16.31,16.31,0,0,1,6.51-7.47l16.55-10L56.43,50.62q3.91-2.15,8-3.93l10.63-4.62A3.48,3.48,0,0,1,79.47,43.53Z"/><path class="cls-9" d="M78.83,42.72h0A3.48,3.48,0,0,0,75,42.09l-10.6,4.6q-4.09,1.79-8,3.93L38.1,60.69,25.81,68.15a3.13,3.13,0,0,0-.09,5.31l.06,0a3.12,3.12,0,0,0,3.34,0l4.57-2.77L71.51,50c2.1-1.16,4.34-2,6.51-3A2.62,2.62,0,0,0,78.83,42.72Z"/><path class="cls-8" d="M79.47,43.53h0a3.47,3.47,0,0,1-.18,3.75h0a85.88,85.88,0,0,1-27,24.58L25.21,87.48l-4.85,2.8a5.37,5.37,0,0,1-7.33-2h0a5.37,5.37,0,0,1-.28-4.81L15,78.21a16.31,16.31,0,0,1,6.51-7.47l16.55-10L56.43,50.62q3.91-2.15,8-3.93l10.63-4.62A3.48,3.48,0,0,1,79.47,43.53Z"/><path class="cls-10" d="M75.77,43.83l3.12-13.2a.82.82,0,0,0-1-1h0a2.62,2.62,0,0,0-1.51,1.18L67.14,46.42"/><path class="cls-5" d="M78.23,47.77l16.62,5.12c.28.09.33.31.11.44l-1.41.81a2.86,2.86,0,0,1-1.58.31L69.49,52.81"/><path class="cls-5" d="M52.62,70.34l53.84,19.89c.63.23.73.74.2,1l-1.18.68a7.28,7.28,0,0,1-4.6.69l-67.83-11"/><path class="cls-7" d="M100.88,92.65,53.71,75.23a13.29,13.29,0,0,0-11.21,1l-9.45,5.46,67.83,11a7.41,7.41,0,0,0,1.24.1A7.41,7.41,0,0,1,100.88,92.65Z"/><path class="cls-7" d="M103.7,92.59a7.19,7.19,0,0,1-.83.13A7.19,7.19,0,0,0,103.7,92.59Z"/><path class="cls-8" d="M52.62,70.34l53.84,19.89c.63.23.73.74.2,1l-1.18.68a7.28,7.28,0,0,1-4.6.69l-67.83-11"/><path class="cls-5" d="M69.81,42.91l-8.88-9.6a.69.69,0,0,0-.75-.06l-1.41.81a.89.89,0,0,0-.54.91l2.85,13,6.06,6.51,4.28-5.63L71,45.64Z"/><path class="cls-5" d="M39.81,64.51,5.37,33.43a1.76,1.76,0,0,0-1.82-.12L2.38,34c-1.21.7-1.66,1.71-1.2,2.66L20.25,75.81"/><path class="cls-7" d="M28.49,61.3,1.18,36.65,20.25,75.81l7.14-4.13A6.45,6.45,0,0,0,28.49,61.3Z"/><path class="cls-8" d="M39.81,64.51,5.37,33.43a1.76,1.76,0,0,0-1.82-.12L2.38,34c-1.21.7-1.66,1.71-1.2,2.66L20.25,75.81"/><path class="cls-5" d="M79.47,43.53h0a3.47,3.47,0,0,1-.18,3.75h0a85.88,85.88,0,0,1-27,24.58L25.21,87.48l-4.85,2.8a5.37,5.37,0,0,1-7.33-2h0a5.37,5.37,0,0,1-.28-4.81L15,78.21a16.31,16.31,0,0,1,6.51-7.47l16.55-10L56.43,50.62q3.91-2.15,8-3.93l10.63-4.62A3.48,3.48,0,0,1,79.47,43.53Z"/><path class="cls-9" d="M78.83,42.72h0A3.48,3.48,0,0,0,75,42.09l-10.6,4.6q-4.09,1.79-8,3.93L38.1,60.69,25.81,68.15a3.13,3.13,0,0,0-.09,5.31l.06,0a3.12,3.12,0,0,0,3.34,0l4.57-2.77L71.51,50c2.1-1.16,4.34-2,6.51-3A2.62,2.62,0,0,0,78.83,42.72Z"/><path class="cls-8" d="M79.47,43.53h0a3.47,3.47,0,0,1-.18,3.75h0a85.88,85.88,0,0,1-27,24.58L25.21,87.48l-4.85,2.8a5.37,5.37,0,0,1-7.33-2h0a5.37,5.37,0,0,1-.28-4.81L15,78.21a16.31,16.31,0,0,1,6.51-7.47l16.55-10L56.43,50.62q3.91-2.15,8-3.93l10.63-4.62A3.48,3.48,0,0,1,79.47,43.53Z"/><path class="cls-10" d="M75.77,43.83l3.12-13.2a.82.82,0,0,0-1-1h0a2.62,2.62,0,0,0-1.51,1.18L67.14,46.42"/><path class="cls-5" d="M78.23,47.77l16.62,5.12c.28.09.33.31.11.44l-1.41.81a2.86,2.86,0,0,1-1.58.31L69.49,52.81"/><path class="cls-5" d="M52.62,70.34l53.84,19.89c.63.23.73.74.2,1l-1.18.68a7.28,7.28,0,0,1-4.6.69l-67.83-11"/><path class="cls-7" d="M100.88,92.65,53.71,75.23a13.29,13.29,0,0,0-11.21,1l-9.45,5.46,67.83,11a7.41,7.41,0,0,0,1.24.1A7.41,7.41,0,0,1,100.88,92.65Z"/><path class="cls-7" d="M103.7,92.59a7.19,7.19,0,0,1-.83.13A7.19,7.19,0,0,0,103.7,92.59Z"/><path class="cls-8" d="M52.62,70.34l53.84,19.89c.63.23.73.74.2,1l-1.18.68a7.28,7.28,0,0,1-4.6.69l-67.83-11"/><path class="cls-3" d="M106.46,90.23,54,70.84A85.67,85.67,0,0,0,74.68,53.19L92,54.45a2.86,2.86,0,0,0,1.58-.31L95,53.33c.22-.13.17-.35-.11-.44l-16-5,.48-.66a3.47,3.47,0,0,0,.18-3.75,3.35,3.35,0,0,0-.57-.72l-.07-.09h0a1.09,1.09,0,0,0-.11-.1l-.14-.11a2.92,2.92,0,0,0-.37-.24l-.12-.07a2.78,2.78,0,0,0-.44-.19l-.1,0a3.41,3.41,0,0,0-.53-.13l-.3,0h-.45l2.64-11.17a.82.82,0,0,0-1-1,2.62,2.62,0,0,0-1.51,1.18l-6.9,11.67-8.52-9.2a.69.69,0,0,0-.75-.06l-1.41.81a.89.89,0,0,0-.54.91l2.85,13,.19.21-.88.4c-1.33.66-2.65,1.34-4,2.06L38.1,60.69l-1.51.91L5.37,33.43a1.76,1.76,0,0,0-1.82-.12L2.38,34c-1.21.7-1.66,1.71-1.2,2.66L18.8,72.84A16.34,16.34,0,0,0,15,78.21l-2.29,5.3A5.37,5.37,0,0,0,13,88.32h0a5.37,5.37,0,0,0,7.33,2l4.85-2.8,9.62-5.55,66.05,10.72a7.41,7.41,0,0,0,1.24.1h0a6.79,6.79,0,0,0,3.36-.79l1.18-.68C107.19,91,107.09,90.46,106.46,90.23Z"/><line class="cls-5" x1="64.82" y1="54.46" x2="28" y2="75.31"/><rect class="cls-11" width="120" height="120"/><rect class="cls-11" width="120" height="120"/></g></g></svg>