<svg xmlns="http://www.w3.org/2000/svg" xmlns:xlink="http://www.w3.org/1999/xlink" viewBox="0 0 120 120"><defs><style>.cls-1{fill:#91d2fb;}.cls-2{fill:#bde4fd;}.cls-3,.cls-8{fill:#d5dae0;}.cls-3,.cls-5{stroke:#b8bfca;}.cls-10,.cls-15,.cls-17,.cls-3,.cls-5,.cls-6,.cls-7,.cls-9{stroke-linecap:round;stroke-linejoin:round;stroke-width:2px;}.cls-4,.cls-6{fill:#b8bfca;}.cls-15,.cls-16,.cls-5{fill:#fff;}.cls-6{stroke:#d5dae0;}.cls-10,.cls-17,.cls-18,.cls-7,.cls-9{fill:none;}.cls-7{stroke:#627386;}.cls-10,.cls-9{stroke:#1b6dc6;}.cls-10{stroke-dasharray:0 5.89;}.cls-11{isolation:isolate;}.cls-12{clip-path:url(#clip-path);}.cls-13{clip-path:url(#clip-path-2);}.cls-14{clip-path:url(#clip-path-3);}.cls-15,.cls-17{stroke:#91d2fb;}</style><clipPath id="clip-path"><path class="cls-1" d="M36.64,34.52l0-10.87c0-3.44,2.27-6.88,6.78-9.5l0,10.09C40.18,26.12,36.65,31.08,36.64,34.52Z"/></clipPath><clipPath id="clip-path-2"><path class="cls-2" d="M83.36,23.78l0,10.87c0-3.48-2.29-7-6.89-9.63l0-10.87C81.07,16.81,83.37,20.3,83.36,23.78Z"/></clipPath><clipPath id="clip-path-3"><path class="cls-2" d="M95.35,23.81l0,10.87c0,5.21-3.44,10.4-10.27,14.37-13.75,8-36.13,8-50,0-7-4-10.44-9.3-10.43-14.57l0-10.87c0,5.27,3.47,10.55,10.43,14.57,13.84,8,36.22,8,50,0C91.91,34.21,95.33,29,95.35,23.81Z"/></clipPath></defs><title>agile</title><g id="Layer_2" data-name="Layer 2"><g id="Tech_Concepts" data-name="Tech Concepts"><path class="cls-3" d="M75.65,86.25l-12.8-7.38a6.29,6.29,0,0,0-5.7,0l-12.8,7.38H24.65V98.59a2,2,0,0,0,1.19,1.65l31.31,18.08a6.29,6.29,0,0,0,5.7,0l31.31-18.08a2,2,0,0,0,1.19-1.65V86.25Z"/><path class="cls-4" d="M62.85,118.32l31.31-18.08a2,2,0,0,0,1.19-1.65V86.25H75.65l-12.8-7.38A5.75,5.75,0,0,0,60,78.19V119A5.86,5.86,0,0,0,62.85,118.32Z"/><line class="cls-3" x1="46.12" y1="106.25" x2="36.86" y2="100.91"/><path class="cls-5" d="M94.16,84.61,62.85,66.53a6.29,6.29,0,0,0-5.7,0L25.84,84.61c-1.58.91-1.58,2.38,0,3.29L57.15,106a6.29,6.29,0,0,0,5.7,0L94.16,87.9C95.74,87,95.74,85.52,94.16,84.61Z"/><polygon class="cls-6" points="86.83 104.47 70.29 114.02 70.29 108.32 86.83 98.77 86.83 104.47"/><path class="cls-7" d="M94.16,84.61,62.85,66.53a6.29,6.29,0,0,0-5.7,0L25.84,84.61a2,2,0,0,0-1.19,1.64V98.59a2,2,0,0,0,1.19,1.65l31.31,18.08a6.31,6.31,0,0,0,5.7,0l31.31-18.08a2,2,0,0,0,1.19-1.65V86.25A2,2,0,0,0,94.16,84.61Z"/><ellipse class="cls-8" cx="87.27" cy="86.25" rx="1.6" ry="0.93"/><ellipse class="cls-8" cx="60" cy="102" rx="1.6" ry="0.93"/><ellipse class="cls-8" cx="60" cy="70.51" rx="1.6" ry="0.93"/><ellipse class="cls-8" cx="32.73" cy="86.25" rx="1.6" ry="0.93"/><line class="cls-9" x1="95.25" y1="45.37" x2="95.25" y2="45.37"/><line class="cls-10" x1="95.25" y1="51.26" x2="95.25" y2="77.77"/><line class="cls-9" x1="95.25" y1="80.72" x2="95.25" y2="80.72"/><line class="cls-9" x1="24.65" y1="45.37" x2="24.65" y2="45.37"/><line class="cls-10" x1="24.65" y1="51.26" x2="24.65" y2="77.77"/><line class="cls-9" x1="24.65" y1="80.72" x2="24.65" y2="80.72"/><polygon class="cls-1" points="92.64 4.76 92.6 15.63 84.89 20.11 84.92 9.24 92.64 4.76"/><polygon class="cls-1" points="76.47 14.15 76.44 25.02 68.72 29.5 68.75 18.64 76.47 14.15"/><polygon class="cls-1" points="68.75 18.64 68.72 29.5 62.14 11.87 62.17 1 68.75 18.64"/><g class="cls-11"><path class="cls-1" d="M36.64,34.52l0-10.87c0-3.44,2.27-6.88,6.78-9.5l0,10.09C40.18,26.12,36.65,31.08,36.64,34.52Z"/><g class="cls-12"><g class="cls-11"><path class="cls-1" d="M43.45,14.15l0,10.87-.28.17,0-10.87.28-.17"/><path class="cls-1" d="M43.17,14.32l0,10.87a17.49,17.49,0,0,0-3,2.19l0-10.87a18,18,0,0,1,3-2.19"/><path class="cls-1" d="M40.21,16.51l0,10.87a12.37,12.37,0,0,0-1.45,1.56l0-10.87a12.37,12.37,0,0,1,1.45-1.56"/><path class="cls-1" d="M38.76,18.07l0,10.87a11,11,0,0,0-.94,1.39l0-10.87a11,11,0,0,1,.94-1.39"/><path class="cls-1" d="M37.82,19.46l0,10.87a9.37,9.37,0,0,0-.62,1.33l0-10.87a10.62,10.62,0,0,1,.62-1.33"/><path class="cls-1" d="M37.2,20.79l0,10.87A8.87,8.87,0,0,0,36.79,33l0-10.87a8.87,8.87,0,0,1,.38-1.31"/><path class="cls-1" d="M36.82,22.1l0,10.87a7.64,7.64,0,0,0-.15,1.34l0-10.87a7.64,7.64,0,0,1,.15-1.34"/><path class="cls-1" d="M36.67,23.44l0,10.87v.21l0-10.87v-.21"/></g></g></g><path class="cls-2" d="M83.36,23.78l0,10.87c0-3.48-2.29-7-6.89-9.63l0-10.87C81.07,16.81,83.37,20.3,83.36,23.78Z"/><g class="cls-13"><g class="cls-11"><path class="cls-2" d="M83.36,23.78l0,10.87c0-3.48-2.29-7-6.89-9.63l0-10.87c4.6,2.66,6.9,6.15,6.89,9.63"/></g></g><path class="cls-2" d="M95.35,23.81l0,10.87c0,5.21-3.44,10.4-10.27,14.37-13.75,8-36.13,8-50,0-7-4-10.44-9.3-10.43-14.57l0-10.87c0,5.27,3.47,10.55,10.43,14.57,13.84,8,36.22,8,50,0C91.91,34.21,95.33,29,95.35,23.81Z"/><g class="cls-14"><g class="cls-11"><path class="cls-2" d="M95.35,23.81l0,10.87c0,.11,0,.21,0,.31l0-10.86c0-.11,0-.21,0-.32"/><path class="cls-2" d="M95.34,24.13l0,10.86a12.62,12.62,0,0,1-.23,2l0-10.87a12.63,12.63,0,0,0,.23-2"/><path class="cls-2" d="M95.11,26.15l0,10.87a13.18,13.18,0,0,1-.57,2l0-10.87a12.11,12.11,0,0,0,.57-2"/><path class="cls-2" d="M94.54,28.14l0,10.87a15.2,15.2,0,0,1-.94,2l0-10.87a15.2,15.2,0,0,0,.94-2"/><path class="cls-2" d="M93.6,30.15l0,10.87a18.13,18.13,0,0,1-1.42,2.11l0-10.87a17.32,17.32,0,0,0,1.42-2.11"/><path class="cls-2" d="M92.18,32.26l0,10.87A20.89,20.89,0,0,1,90,45.49l0-10.87a20.07,20.07,0,0,0,2.2-2.36"/><path class="cls-2" d="M90,34.62l0,10.87a26.73,26.73,0,0,1-4.47,3.31l0-10.87A26.73,26.73,0,0,0,90,34.62"/><path class="cls-2" d="M85.51,37.93l0,10.87-.43.25a39.88,39.88,0,0,1-7.74,3.41l0-10.87a39.61,39.61,0,0,0,7.74-3.41l.43-.25"/><path class="cls-2" d="M77.34,41.59l0,10.87a50.7,50.7,0,0,1-6.69,1.66l0-10.87a50.7,50.7,0,0,0,6.69-1.66"/><path class="cls-2" d="M70.65,43.25l0,10.87c-1.48.27-3,.48-4.51.63l0-10.87q2.28-.23,4.5-.63"/><path class="cls-2" d="M66.15,43.88l0,10.87c-1.29.13-2.6.22-3.92.26l0-10.87c1.32,0,2.63-.13,3.93-.26"/><path class="cls-2" d="M62.22,44.14l0,10.87c-1.2,0-2.41.05-3.62,0l0-10.87c1.21,0,2.42,0,3.62,0"/><path class="cls-2" d="M58.6,44.16l0,10.87c-1.16,0-2.32-.09-3.48-.19l0-10.87c1.16.1,2.32.16,3.48.19"/><path class="cls-2" d="M55.12,44l0,10.87c-1.15-.09-2.3-.22-3.44-.38l0-10.87c1.13.16,2.28.29,3.43.38"/><path class="cls-2" d="M51.69,43.59l0,10.87c-1.18-.17-2.35-.37-3.5-.61l0-10.87c1.15.24,2.32.44,3.51.61"/><path class="cls-2" d="M48.18,43l0,10.87c-1.25-.26-2.48-.56-3.68-.91l0-10.86c1.2.34,2.43.64,3.68.9"/><path class="cls-2" d="M44.5,42.08l0,10.86q-2.22-.63-4.29-1.44l0-10.87c1.38.54,2.81,1,4.29,1.45"/><path class="cls-2" d="M40.21,40.63l0,10.87a38.72,38.72,0,0,1-5.1-2.45c-7-4-10.44-9.3-10.43-14.57l0-10.87c0,5.27,3.47,10.55,10.43,14.57a38.72,38.72,0,0,0,5.1,2.45"/></g></g><path class="cls-1" d="M95.28,25c0,.15,0,.31-.06.47s0,.35-.08.52-.06.32-.1.47l-.12.52c0,.15-.09.31-.14.46s-.11.34-.17.52-.11.3-.17.45-.15.36-.23.54a4.39,4.39,0,0,1-.21.44,5.28,5.28,0,0,1-.27.53l-.24.43q-.18.32-.39.63l-.24.38c-.16.23-.33.45-.5.68l-.22.3c-.29.36-.6.71-.92,1.07l-.26.27c-.25.26-.52.53-.8.79l-.39.36-.5.44c-.16.14-.32.28-.49.41l-.55.43-.53.4-.59.42-.57.38-.64.4c-.27.17-.54.34-.82.5-.77.45-1.57.86-2.38,1.26l-.65.3c-.74.34-1.49.67-2.26,1l-.3.12c-.83.31-1.68.6-2.54.87-.6.19-1.21.35-1.82.52-.46.12-.92.26-1.39.37-.64.16-1.3.29-1.95.42l-1.43.29-.6.09c-.81.14-1.62.25-2.44.35l-.72.09c-.95.1-1.91.18-2.87.24l-.53,0c-.64,0-1.29,0-1.94.06H60V55h1.21c.32,0,.64,0,1,0l1,0,.53,0c.81,0,1.61-.1,2.41-.18l.46-.06.72-.08c.82-.1,1.63-.21,2.44-.35l.6-.09.29-.05c.39-.07.76-.17,1.14-.24.66-.13,1.31-.26,1.95-.42.47-.11.93-.25,1.39-.37.61-.17,1.22-.33,1.82-.52l.39-.11c.73-.24,1.44-.49,2.15-.76l.29-.12c.78-.3,1.53-.63,2.27-1l.65-.31c.81-.39,1.61-.8,2.38-1.25l.43-.25.39-.25.64-.4.56-.39c.21-.13.41-.27.6-.41l.53-.4.55-.43.49-.41.5-.44.21-.18.18-.18c.28-.26.54-.53.8-.79.09-.1.18-.18.26-.28.32-.35.63-.7.92-1.06l0,0c.06-.08.11-.17.18-.25.17-.23.34-.45.5-.69l.24-.37q.21-.32.39-.63a1.63,1.63,0,0,1,.11-.17l.13-.26c.09-.17.19-.35.27-.53s.15-.3.21-.44.16-.36.23-.54l.1-.24c0-.07,0-.14.07-.22s.12-.34.17-.51.09-.31.14-.46L95,37.3c0-.09,0-.19.07-.28l0-.19c0-.17.06-.35.08-.53l.06-.46c0-.18,0-.36,0-.53s0-.21,0-.32,0-.2,0-.31l0-10.87c0,.21,0,.42,0,.63S95.3,24.79,95.28,25Z"/><path class="cls-15" d="M92.64,4.76,84.92,9.24c13.84,8,13.91,21,.16,28.94s-36.13,8-50,0S21.2,17.23,35,9.24l8.5,4.91c-9.08,5.28-9,13.84.11,19.13s23.93,5.28,33,0,9-13.85-.11-19.13l-7.72,4.49L62.17,1Z"/><path class="cls-16" d="M94.92,27c0,.08,0,.16-.08.25l.09-.29Z"/><path class="cls-16" d="M95.14,26l-.06.27c0-.11,0-.21.07-.31Z"/><path class="cls-16" d="M95.28,25l0,.28,0-.33Z"/><line class="cls-17" x1="68.75" y1="18.64" x2="68.72" y2="29.5"/><path class="cls-9" d="M95.33,24.27a13.38,13.38,0,0,0-2.85-8.57l.12-.07,0-10.87L62.17,1l0,10.87L68.72,29.5,76.44,25a37.6,37.6,0,0,1,4.4,4.85,17.67,17.67,0,0,1-4.26,3.41c-9.09,5.28-23.87,5.28-33,0a18.39,18.39,0,0,1-4.48-3.6s.44-2.18,4.37-4.7V14.15L35,9.24c-6.85,4-10.27,9.2-10.26,14.42a.43.43,0,0,1,0-.05h0l0,10.87c0,5.27,3.47,10.55,10.43,14.57.75.44,1.53.84,2.32,1.22l.23.12q1.14.54,2.34,1l.21.09.18.06c.61.24,1.23.47,1.86.68l.29.1,1.68.52.28.08.32.09,1.07.28.66.17,1.19.27.44.1.12,0,1.09.21.6.11,1.42.22.27.05h0c.56.08,1.12.15,1.69.21l.38,0,1.32.13h0l.58,0,1.1.08.71,0,1,0h.66c.36,0,.73,0,1.1,0H61l1,0h.19l.49,0,1.18-.06.72,0,1.13-.1.4,0,.28,0,1.76-.21.29,0c.67-.09,1.33-.2,2-.32l.19,0,.52-.1.93-.18.75-.17.9-.21.74-.18.88-.24.73-.21.86-.26.38-.11.26-.1c.52-.17,1-.35,1.54-.54l.32-.11c.59-.23,1.18-.47,1.76-.72l.45-.2c.44-.2.87-.4,1.3-.62.16-.08.33-.15.48-.24.56-.28,1.1-.57,1.63-.88l.43-.25.39-.25.64-.4.56-.38.6-.42.53-.4.55-.43.49-.41.51-.44.2-.18.18-.18c.28-.26.55-.53.8-.8.09-.09.18-.17.26-.26.32-.36.63-.71.92-1.07l0,0c.06-.08.11-.17.18-.25l.5-.69.24-.37q.21-.32.39-.63a1.63,1.63,0,0,1,.11-.17c.05-.09.08-.17.13-.26s.19-.35.27-.53.15-.3.21-.44.16-.36.23-.54l.1-.24c0-.07,0-.14.07-.22s.12-.34.17-.51.09-.31.14-.46L95,37.3c0-.09,0-.19.07-.28l0-.19c0-.17.06-.35.08-.53l.06-.46c0-.18,0-.36,0-.53s0-.21,0-.32,0-.2,0-.31l0-10.87C95.35,24,95.33,24.12,95.33,24.27Z"/><rect class="cls-18" width="120" height="120"/><rect class="cls-18" width="120" height="120"/></g></g></svg>