<svg xmlns="http://www.w3.org/2000/svg" viewBox="0 0 120 120"><defs><style>.cls-1,.cls-9{fill:#b8bfca;}.cls-10,.cls-11,.cls-2,.cls-7{fill:none;}.cls-2{stroke:#627386;}.cls-10,.cls-2,.cls-4,.cls-7,.cls-8,.cls-9{stroke-linecap:round;stroke-linejoin:round;}.cls-10,.cls-2,.cls-4,.cls-8,.cls-9{stroke-width:2px;}.cls-3,.cls-8{fill:#d5dae0;}.cls-4,.cls-5{fill:#fff;}.cls-10,.cls-4,.cls-8,.cls-9{stroke:#b8bfca;}.cls-6{fill:#627386;}.cls-7{stroke:#91d2fb;stroke-width:3px;}</style></defs><title>analytics-and-big-data</title><g id="Layer_2" data-name="Layer 2"><g id="Tech_Concepts" data-name="Tech Concepts"><path class="cls-1" d="M76,5.48,68.71,1.26v0A2.6,2.6,0,0,0,66,1.48L24.31,25.56c-2.28,1.32-4.13,4.85-4.13,7.89v77.71c0,1.66.56,2.81,1.44,3.32l0,0,7.32,4.22L31.71,110,66,90.21c2.28-1.32,4.13-4.85,4.13-7.89V18Z"/><path class="cls-1" d="M41.92,31.85l-.74-10.39c-.21-2.84-1.92-5.9-4-7.08h0c-2.05-1.18-3.76-.1-4,2.5l-.75,9.53"/><path class="cls-2" d="M41.92,31.85l-.74-10.39c-.21-2.84-1.92-5.9-4-7.08h0c-2.05-1.18-3.76-.1-4,2.5l-.75,9.53"/><path class="cls-3" d="M68.7,1.29A2.6,2.6,0,0,0,66,1.48L24.31,25.56a8,8,0,0,0-2.83,3.14L70.14,56.79V18L76,5.48,68.71,1.26Z"/><path class="cls-4" d="M73.32,94.43,31.62,118.5c-2.28,1.32-4.13-.08-4.13-3.12V37.67c0-3,1.85-6.57,4.13-7.89L73.32,5.7c2.28-1.31,4.13.08,4.13,3.12V86.54C77.45,89.58,75.6,93.11,73.32,94.43Z"/><path class="cls-2" d="M76,5.51v0L68.71,1.26v0A2.6,2.6,0,0,0,66,1.48L24.31,25.56a4.84,4.84,0,0,0-.81.58,7.87,7.87,0,0,0-.59.57l-.15.15a9.87,9.87,0,0,0-1.28,1.84h0a10.21,10.21,0,0,0-1.3,4.75v77.71c0,1.66.56,2.81,1.44,3.32l0,0,7.32,4.22v0a2.62,2.62,0,0,0,2.7-.2l41.7-24.07c2.28-1.32,4.13-4.85,4.13-7.89V8.82C77.45,7.16,76.89,6,76,5.51Z"/><path class="cls-3" d="M62.35,9.23c-.2-2.83-1.92-5.89-4-7.07A2.53,2.53,0,0,0,55.77,2h0L34.6,14.17h0a2.57,2.57,0,0,1,2.61.2c2,1.18,3.76,4.24,4,7.08l.74,10.39L63.1,19.63Z"/><path class="cls-5" d="M37.21,14.38a8.52,8.52,0,0,1,3.25,4.15L61.64,6.3a8.46,8.46,0,0,0-3.26-4.14A2.53,2.53,0,0,0,55.77,2h0L34.6,14.17h0A2.57,2.57,0,0,1,37.21,14.38Z"/><path class="cls-2" d="M62.35,9.23c-.2-2.83-1.92-5.89-4-7.07A2.53,2.53,0,0,0,55.77,2h0L34.6,14.17h0l0,0a2.54,2.54,0,0,1,2.63.19c2,1.18,3.76,4.24,4,7.08l.74,10.39L63.1,19.63Z"/><path class="cls-5" d="M47.8,8.27l3.52-2a8.12,8.12,0,0,0,.22-1.8c0-2.76-1.68-4-3.74-2.84S44.05,6,44.05,8.76a5.17,5.17,0,0,0,.22,1.55Z"/><ellipse class="cls-6" cx="47.8" cy="6.6" rx="1.75" ry="0.99" transform="translate(23.01 47.99) rotate(-66.95)"/><path class="cls-2" d="M51.32,6.24a8.12,8.12,0,0,0,.22-1.8c0-2.76-1.68-4-3.74-2.84S44.05,6,44.05,8.76a5.17,5.17,0,0,0,.22,1.55"/><line class="cls-7" x1="64.89" y1="36.5" x2="45.7" y2="47.58"/><line class="cls-7" x1="62.56" y1="51.84" x2="45.7" y2="61.58"/><line class="cls-7" x1="68.49" y1="62.42" x2="45.7" y2="75.58"/><line class="cls-7" x1="62.84" y1="79.68" x2="45.7" y2="89.58"/><line class="cls-7" x1="38.6" y1="93.67" x2="38.6" y2="93.67"/><line class="cls-7" x1="38.6" y1="79.67" x2="38.6" y2="79.67"/><line class="cls-7" x1="38.6" y1="65.67" x2="38.6" y2="65.67"/><line class="cls-7" x1="38.6" y1="51.67" x2="38.6" y2="51.67"/><path class="cls-8" d="M95,74.19h0l-6.14-3.54h0c-2.45-1.41-5.63-1.29-9.12.73C72.06,75.82,65.82,87.73,65.82,98c0,5.61,1.87,9.56,4.82,11.26h0l6.14,3.54h0c2.44,1.41,5.63,1.28,9.11-.73,7.7-4.44,13.93-16.36,13.93-26.62C99.82,79.84,98,75.89,95,74.19Z"/><path class="cls-9" d="M69.23,83.87A33.9,33.9,0,0,0,65.82,98c0,5.61,1.87,9.56,4.82,11.26h0l6.14,3.54h0a7,7,0,0,0,1.11.5L88.46,95Z"/><path class="cls-10" d="M95,74.18l-6.14-3.54h0c-2.45-1.41-5.63-1.29-9.12.73C72.06,75.82,65.82,87.73,65.82,98c0,5.61,1.87,9.56,4.82,11.26h0l6.14,3.54,1.71-3.63a12.57,12.57,0,0,0,1.26-.65c7.7-4.44,13.93-16.35,13.93-26.61a21,21,0,0,0-.38-4.11Z"/><ellipse class="cls-4" cx="85.89" cy="93.49" rx="21.39" ry="12.1" transform="translate(-33.77 135.92) rotate(-66.95)"/><path class="cls-8" d="M97.44,97.21,85.89,93.49v18.58C90.7,109.29,94.94,103.6,97.44,97.21Z"/><path class="cls-9" d="M85.89,93.49l11.55,3.72h0a32.82,32.82,0,0,0,2.38-11.76Z"/><path class="cls-2" d="M95,74.19h0l-6.14-3.54h0c-2.45-1.41-5.63-1.29-9.12.73C72.06,75.82,65.82,87.73,65.82,98c0,5.61,1.87,9.56,4.82,11.26h0l6.14,3.54h0c2.44,1.41,5.63,1.28,9.11-.73,7.7-4.44,13.93-16.36,13.93-26.62C99.82,79.84,98,75.89,95,74.19Z"/><rect class="cls-11" width="120" height="120"/><rect class="cls-11" width="120" height="120"/></g></g></svg>