<svg xmlns="http://www.w3.org/2000/svg" viewBox="0 0 120 120"><defs><style>.cls-1,.cls-8{fill:#b8bfca;}.cls-11,.cls-2,.cls-9{fill:none;}.cls-2{stroke:#627386;}.cls-10,.cls-2,.cls-4,.cls-7,.cls-8,.cls-9{stroke-linecap:round;stroke-linejoin:round;stroke-width:2px;}.cls-3,.cls-7{fill:#d5dae0;}.cls-4,.cls-5{fill:#fff;}.cls-4,.cls-7,.cls-8,.cls-9{stroke:#b8bfca;}.cls-6{fill:#627386;}.cls-10{fill:#bde4fd;stroke:#91d2fb;}</style></defs><title>analyst-&amp;amp;-industry-reports</title><g id="Layer_2" data-name="Layer 2"><g id="Tech_Concepts" data-name="Tech Concepts"><path class="cls-1" d="M87.21,5.48,79.9,1.26v0a2.6,2.6,0,0,0-2.69.19L35.49,25.56c-2.28,1.32-4.13,4.85-4.13,7.89v77.71a3.65,3.65,0,0,0,1.44,3.32v0l7.31,4.22L42.9,110l34.3-19.8c2.28-1.32,4.13-4.85,4.13-7.89V18Z"/><path class="cls-1" d="M53.11,31.85l-.75-10.39c-.2-2.84-1.92-5.9-4-7.08h0c-2-1.18-3.76-.1-4,2.5l-.75,9.53"/><path class="cls-2" d="M53.11,31.85l-.75-10.39c-.2-2.84-1.92-5.9-4-7.08h0c-2-1.18-3.76-.1-4,2.5l-.75,9.53"/><path class="cls-3" d="M79.89,1.29a2.6,2.6,0,0,0-2.69.19L35.49,25.56a8.05,8.05,0,0,0-2.82,3.14L81.33,56.79V18l5.88-12.5L79.9,1.26Z"/><path class="cls-4" d="M84.51,94.43,42.8,118.5c-2.28,1.32-4.13-.08-4.13-3.12V37.67c0-3,1.85-6.57,4.13-7.89L84.51,5.7c2.28-1.31,4.13.08,4.13,3.12V86.54C88.64,89.58,86.79,93.11,84.51,94.43Z"/><path class="cls-2" d="M87.2,5.51v0L79.9,1.26v0a2.6,2.6,0,0,0-2.69.19L35.49,25.56a5.28,5.28,0,0,0-.81.58,7.76,7.76,0,0,0-.58.57l-.16.15a9.83,9.83,0,0,0-1.27,1.84h0a10.23,10.23,0,0,0-1.31,4.75v77.71a3.65,3.65,0,0,0,1.44,3.32v0l7.31,4.22v0a2.6,2.6,0,0,0,2.69-.2L84.51,94.43c2.28-1.32,4.13-4.85,4.13-7.89V8.82A3.62,3.62,0,0,0,87.2,5.51Z"/><path class="cls-3" d="M73.54,9.23c-.21-2.83-1.92-5.89-4-7.07A2.53,2.53,0,0,0,67,2h0L45.79,14.17h0a2.55,2.55,0,0,1,2.6.2c2,1.18,3.77,4.24,4,7.08l.75,10.39L74.28,19.63Z"/><path class="cls-5" d="M48.39,14.38a8.53,8.53,0,0,1,3.26,4.15L72.83,6.3a8.52,8.52,0,0,0-3.26-4.14A2.53,2.53,0,0,0,67,2h0L45.79,14.17h0A2.55,2.55,0,0,1,48.39,14.38Z"/><path class="cls-2" d="M73.54,9.23c-.21-2.83-1.92-5.89-4-7.07A2.53,2.53,0,0,0,67,2h0L45.79,14.17h0l0,0a2.54,2.54,0,0,1,2.63.19c2,1.18,3.77,4.24,4,7.08l.75,10.39L74.28,19.63Z"/><path class="cls-5" d="M59,8.27l3.53-2a8.12,8.12,0,0,0,.22-1.8c0-2.76-1.68-4-3.75-2.84S55.24,6,55.24,8.76a5.19,5.19,0,0,0,.21,1.55Z"/><ellipse class="cls-6" cx="58.98" cy="6.6" rx="1.75" ry="0.99" transform="translate(29.82 58.29) rotate(-66.95)"/><path class="cls-2" d="M62.51,6.24a8.12,8.12,0,0,0,.22-1.8c0-2.76-1.68-4-3.75-2.84S55.24,6,55.24,8.76a5.19,5.19,0,0,0,.21,1.55"/><path class="cls-7" d="M78.91,48.34h0l-6.14-3.55h0c-2.44-1.41-5.63-1.28-9.11.73C56,50,49.72,61.89,49.72,72.15c0,5.61,1.87,9.55,4.82,11.26h0L60.68,87h0c2.44,1.41,5.63,1.28,9.11-.73,7.7-4.44,13.93-16.36,13.93-26.62C83.72,54,81.86,50.05,78.91,48.34Z"/><path class="cls-8" d="M53.13,58a34,34,0,0,0-3.41,14.12c0,5.61,1.87,9.55,4.82,11.26h0L60.68,87h0a6.5,6.5,0,0,0,1.11.5L72.37,69.13Z"/><path class="cls-9" d="M78.91,48.34l-6.14-3.55h0c-2.44-1.41-5.63-1.28-9.11.73C56,50,49.72,61.89,49.72,72.15c0,5.61,1.87,9.55,4.82,11.26h0L60.68,87l1.71-3.63c.42-.19.84-.41,1.27-.65,7.69-4.44,13.93-16.36,13.93-26.62A20.94,20.94,0,0,0,77.2,52Z"/><ellipse class="cls-4" cx="69.79" cy="67.65" rx="21.39" ry="12.1" transform="translate(-19.78 105.38) rotate(-66.95)"/><path class="cls-10" d="M81.34,71.37,69.79,67.65V86.22C74.6,83.45,78.84,77.75,81.34,71.37Z"/><path class="cls-7" d="M69.79,67.65l11.55,3.72h0A32.7,32.7,0,0,0,83.72,59.6Z"/><path class="cls-2" d="M78.91,48.34h0l-6.14-3.55h0c-2.44-1.41-5.63-1.28-9.11.73C56,50,49.72,61.89,49.72,72.15c0,5.61,1.87,9.55,4.82,11.26h0L60.68,87h0c2.44,1.41,5.63,1.28,9.11-.73,7.7-4.44,13.93-16.36,13.93-26.62C83.72,54,81.86,50.05,78.91,48.34Z"/><rect class="cls-11" width="120" height="120"/><rect class="cls-11" width="120" height="120"/></g></g></svg>