<svg xmlns="http://www.w3.org/2000/svg" viewBox="0 0 120 120"><defs><style>.cls-1,.cls-13{fill:#b8bfca;}.cls-11,.cls-14,.cls-2{fill:none;}.cls-2{stroke:#627386;}.cls-10,.cls-11,.cls-12,.cls-13,.cls-2,.cls-4,.cls-8,.cls-9{stroke-linecap:round;stroke-linejoin:round;stroke-width:2px;}.cls-12,.cls-3{fill:#d5dae0;}.cls-10,.cls-4,.cls-5{fill:#fff;}.cls-12,.cls-13,.cls-4{stroke:#b8bfca;}.cls-6{fill:#627386;}.cls-7{isolation:isolate;}.cls-8{fill:#bde4fd;}.cls-10,.cls-8,.cls-9{stroke:#91d2fb;}.cls-9{fill:#91d2fb;}.cls-11{stroke:#1b6dc6;}</style></defs><title>analytics</title><g id="Layer_2" data-name="Layer 2"><g id="Tech_Concepts" data-name="Tech Concepts"><path class="cls-1" d="M85.73,5.48,78.42,1.26v0a2.6,2.6,0,0,0-2.69.19L34,25.56c-2.29,1.32-4.13,4.85-4.13,7.89v77.71a3.64,3.64,0,0,0,1.43,3.32v0l7.31,4.22,2.8-8.71,34.3-19.8c2.28-1.32,4.13-4.85,4.13-7.89V18Z"/><path class="cls-1" d="M51.63,31.85l-.75-10.39c-.2-2.84-1.92-5.9-4-7.08h0c-2.05-1.18-3.76-.1-4,2.5l-.75,9.53"/><path class="cls-2" d="M51.63,31.85l-.75-10.39c-.2-2.84-1.92-5.9-4-7.08h0c-2.05-1.18-3.76-.1-4,2.5l-.75,9.53"/><path class="cls-3" d="M78.41,1.29a2.6,2.6,0,0,0-2.69.19L34,25.56a8,8,0,0,0-2.83,3.14L79.85,56.79V18l5.88-12.5L78.42,1.26Z"/><path class="cls-4" d="M83,94.43,41.33,118.5c-2.28,1.32-4.13-.08-4.13-3.12V37.67c0-3,1.85-6.57,4.13-7.89L83,5.7c2.28-1.31,4.13.08,4.13,3.12V86.54C87.16,89.58,85.31,93.11,83,94.43Z"/><path class="cls-2" d="M85.72,5.51v0L78.42,1.26v0a2.6,2.6,0,0,0-2.69.19L34,25.56a4.84,4.84,0,0,0-.81.58,6.33,6.33,0,0,0-.59.57l-.16.15a10.32,10.32,0,0,0-1.27,1.84h0a10.21,10.21,0,0,0-1.3,4.75v77.71a3.64,3.64,0,0,0,1.43,3.32v0l7.31,4.22v0a2.62,2.62,0,0,0,2.7-.2L83,94.43c2.28-1.32,4.13-4.85,4.13-7.89V8.82C87.16,7.16,86.6,6,85.72,5.51Z"/><path class="cls-3" d="M72.06,9.23c-.21-2.83-1.92-5.89-4-7.07A2.53,2.53,0,0,0,65.48,2h0L44.31,14.17h0a2.57,2.57,0,0,1,2.61.2c2,1.18,3.76,4.24,4,7.08l.75,10.39L72.81,19.63Z"/><path class="cls-5" d="M46.92,14.38a8.52,8.52,0,0,1,3.25,4.15L71.35,6.3a8.46,8.46,0,0,0-3.26-4.14A2.53,2.53,0,0,0,65.48,2h0L44.31,14.17h0A2.57,2.57,0,0,1,46.92,14.38Z"/><path class="cls-2" d="M72.06,9.23c-.21-2.83-1.92-5.89-4-7.07A2.53,2.53,0,0,0,65.48,2h0L44.31,14.17h0l0,0a2.55,2.55,0,0,1,2.64.19c2,1.18,3.76,4.24,4,7.08l.75,10.39L72.81,19.63Z"/><path class="cls-5" d="M57.5,8.27l3.53-2a8.12,8.12,0,0,0,.22-1.8c0-2.76-1.68-4-3.75-2.84S53.76,6,53.76,8.76A5.17,5.17,0,0,0,54,10.31Z"/><ellipse class="cls-6" cx="57.5" cy="6.6" rx="1.75" ry="0.99" transform="translate(28.92 56.93) rotate(-66.95)"/><path class="cls-2" d="M61,6.24a8.12,8.12,0,0,0,.22-1.8c0-2.76-1.68-4-3.75-2.84S53.76,6,53.76,8.76A5.17,5.17,0,0,0,54,10.31"/><g class="cls-7"><polygon class="cls-8" points="53.82 83.68 53.79 93.85 44.94 88.74 44.97 78.57 53.82 83.68"/><polygon class="cls-9" points="53.82 83.68 77.98 69.64 77.95 79.81 53.79 93.85 53.82 83.68"/><polygon class="cls-10" points="44.97 78.57 69.13 64.53 77.98 69.64 53.82 83.68 44.97 78.57"/></g><polygon class="cls-11" points="69.13 64.53 44.97 78.57 44.94 88.74 53.79 93.85 77.95 79.81 77.98 69.64 69.13 64.53"/><g class="cls-7"><polygon class="cls-12" points="53.85 73.5 53.82 83.67 44.97 78.56 44.99 68.39 53.85 73.5"/><polygon class="cls-13" points="53.85 73.5 68.95 64.73 68.92 74.9 53.82 83.67 53.85 73.5"/></g><polygon class="cls-2" points="60.09 59.61 44.99 68.39 44.97 78.56 53.82 83.67 68.92 74.9 68.95 64.73 60.09 59.61"/><g class="cls-7"><polygon class="cls-12" points="53.87 63.33 53.84 73.5 44.99 68.39 45.02 58.22 53.87 63.33"/><polygon class="cls-13" points="53.87 63.33 90.11 42.27 90.08 52.44 53.84 73.5 53.87 63.33"/><polygon class="cls-4" points="45.02 58.22 81.27 37.16 90.11 42.27 53.87 63.33 45.02 58.22"/></g><polygon class="cls-2" points="81.27 37.16 45.02 58.22 44.99 68.39 53.84 73.5 90.08 52.44 90.11 42.27 81.27 37.16"/><rect class="cls-14" width="120" height="120"/><rect class="cls-14" width="120" height="120"/></g></g></svg>