<svg xmlns="http://www.w3.org/2000/svg" viewBox="0 0 120 120"><defs><style>.cls-1,.cls-7{fill:#fff;}.cls-2,.cls-6{fill:#d5dae0;}.cls-3{fill:#b8bfca;}.cls-3,.cls-4{stroke:#b8bfca;}.cls-3,.cls-4,.cls-5,.cls-6,.cls-7,.cls-8,.cls-9{stroke-linecap:round;stroke-linejoin:round;stroke-width:2px;}.cls-10,.cls-4,.cls-5,.cls-8,.cls-9{fill:none;}.cls-5,.cls-6,.cls-7{stroke:#627386;}.cls-8{stroke:#d5dae0;}.cls-9{stroke:#fff;}</style></defs><title>antivirus</title><g id="Layer_2" data-name="Layer 2"><g id="Tech_Concepts" data-name="Tech Concepts"><path class="cls-1" d="M96.58,11.45,85.69,5.16C72.77,12.62,54.61,5,54.61,5S36.34,33.66,23.42,41.12V78.94c0,13.2,5.42,21.75,13.06,26.16h0l10.89,6.29,1.34-2.74a32.64,32.64,0,0,0,5.84-.17C70.12,92.34,85.69,65.36,85.69,43V33.57Z"/><path class="cls-2" d="M73.44,61.18C70.87,57.75,53.27,42.85,36.66,29.1c-4.44,5.09-9.12,9.63-13.24,12V78.94c0,13.2,5.42,21.75,13.06,26.16h0l10.89,6.29,1.34-2.74a32.64,32.64,0,0,0,5.84-.17A128.15,128.15,0,0,0,78.84,71.94C76.52,66.59,74.54,62.66,73.44,61.18Z"/><path class="cls-1" d="M23.42,41.12l10.89,6.29s39.53,12.66,45,11.65S65.5,11.29,65.5,11.29L54.61,5S36.34,33.66,23.42,41.12Z"/><path class="cls-3" d="M34.31,47.41V85.23c0,22.37,15.57,31.38,31.14,29.54C81,98.63,96.58,71.65,96.58,49.28V11.45c-12.92,7.46-31.08-.16-31.08-.16S47.23,39.94,34.31,47.41Z"/><path class="cls-4" d="M34.31,47.41V85.23c0,22.37,15.57,31.38,31.14,29.54C81,98.63,96.58,71.65,96.58,49.28V11.45c-12.92,7.46-31.08-.16-31.08-.16S47.23,39.94,34.31,47.41Z"/><line class="cls-3" x1="34.31" y1="47.41" x2="23.42" y2="41.12"/><line class="cls-3" x1="65.5" y1="11.29" x2="54.61" y2="5"/><path class="cls-5" d="M96.58,11.45h0L85.69,5.16C72.77,12.62,54.61,5,54.61,5a231.28,231.28,0,0,1-18,24.11c-.82.94-1.66,1.86-2.49,2.76l-.06.07-.77.81-.07.07c-.55.57-1.09,1.13-1.64,1.67l-.08.07c-.23.24-.47.47-.71.69l-.16.16L30,36l-.12.11c-.53.49-1.05,1-1.57,1.4l-.19.16-.58.48-.22.18-.62.5-.13.1-.75.56-.17.12-.56.4-.24.16-.51.34a1.64,1.64,0,0,0-.22.14l-.71.43V78.94c0,13.2,5.42,21.75,13.06,26.16h0l10.89,6.29h0a29.26,29.26,0,0,0,18.08,3.39C81,98.63,96.58,71.65,96.58,49.28V11.45Z"/><path class="cls-6" d="M66,65.43,88.57,50.75V25.51a21.39,21.39,0,0,1-9.5,2A38.23,38.23,0,0,1,66.28,25.1Z"/><path class="cls-7" d="M88.57,50.75,66,65.43,65.66,101C76.73,89.45,88.57,69.48,88.57,52.69Z"/><path class="cls-6" d="M43.34,80.09C43.57,95.64,54,101.19,63,101.19h0a23,23,0,0,0,2.61-.14l0,0L66,65.43Z"/><path class="cls-7" d="M66.28,25.1h0c-2.08,3.22-14,21.12-22.93,26.58V79.59c0,.18,0,.33,0,.5L66,65.43Z"/><path class="cls-8" d="M63,99.19c-8.41,0-17.47-5-17.68-19.13,0-.11,0-.22,0-.32v-27c8.29-5.65,18.28-20,21.74-25.26a39.72,39.72,0,0,0,12,2,25.17,25.17,0,0,0,7.5-1.07V52.69c0,16-11.25,35.12-21.88,46.44C64.13,99.17,63.57,99.19,63,99.19Z"/><path class="cls-9" d="M65.59,98.16l-.9,1c-.56,0-1.12.06-1.67.06-8.41,0-17.47-5-17.68-19.13,0-.11,0-.22,0-.32"/><path class="cls-9" d="M67.06,27.5a39.72,39.72,0,0,0,12,2,25.17,25.17,0,0,0,7.5-1.07V51.69"/><path class="cls-5" d="M66,65.43,88.57,50.75V25.51a21.39,21.39,0,0,1-9.5,2A38.23,38.23,0,0,1,66.28,25.1Z"/><path class="cls-5" d="M43.34,80.09C43.57,95.64,54,101.19,63,101.19h0a23,23,0,0,0,2.61-.14l0,0L66,65.43Z"/><path class="cls-3" d="M68.87,55.28a8.46,8.46,0,0,1-2.82-.53h0c-.46.71-3.08,4.66-5.07,5.87v6.17s0,.07,0,.11c.05,3.44,2.36,4.66,4.35,4.66a5.44,5.44,0,0,0,.57,0h0C68.36,69,71,64.55,71,60.84v-6A4.77,4.77,0,0,1,68.87,55.28Z"/><path class="cls-9" d="M63,61.63a25.29,25.29,0,0,0,3.92-4.57,9.15,9.15,0,0,0,2,.22"/><path class="cls-5" d="M68.87,55.28a8.46,8.46,0,0,1-2.82-.53h0c-.46.71-3.08,4.66-5.07,5.87v6.17s0,.07,0,.11c.05,3.44,2.36,4.66,4.35,4.66a5.44,5.44,0,0,0,.57,0h0C68.36,69,71,64.55,71,60.84v-6A4.77,4.77,0,0,1,68.87,55.28Z"/><rect class="cls-10" width="120" height="120"/><rect class="cls-10" width="120" height="120"/></g></g></svg>