<svg xmlns="http://www.w3.org/2000/svg" viewBox="0 0 120 120"><defs><style>.cls-1,.cls-11,.cls-12,.cls-2,.cls-4,.cls-8,.cls-9{fill:none;}.cls-1,.cls-11,.cls-2{stroke:#1b6dc6;}.cls-1,.cls-10,.cls-11,.cls-2,.cls-3,.cls-4,.cls-5,.cls-8,.cls-9{stroke-linecap:round;stroke-linejoin:round;stroke-width:2px;}.cls-2{stroke-dasharray:0 5.7;}.cls-3,.cls-7{fill:#fff;}.cls-3{stroke:#b8bfca;}.cls-4{stroke:#627386;}.cls-5{fill:#bde4fd;}.cls-10,.cls-5,.cls-9{stroke:#91d2fb;}.cls-10,.cls-6{fill:#91d2fb;}.cls-8{stroke:#fff;}.cls-11{stroke-dasharray:0 5.7;}</style></defs><title>app-mobility-fabric</title><g id="Layer_2" data-name="Layer 2"><g id="Tech_Concepts" data-name="Tech Concepts"><line class="cls-1" x1="50.64" y1="113.14" x2="50.64" y2="113.14"/><line class="cls-2" x1="45.64" y1="110.4" x2="38.14" y2="106.3"/><line class="cls-1" x1="35.64" y1="104.93" x2="35.64" y2="104.93"/><path class="cls-3" d="M62.66,84.89l-29.9,17.26c-1.63.94-2.95-.05-2.95-2.22V27.29a7.05,7.05,0,0,1,2.95-5.63L62.66,4.4c1.63-.94,3,.06,3,2.22V79.26A7.05,7.05,0,0,1,62.66,84.89Z"/><path class="cls-4" d="M64.59,4.25h0l-5.27-3h0a1.9,1.9,0,0,0-1.93.15L27.49,18.62a7,7,0,0,0-2.95,5.62V96.88a2.61,2.61,0,0,0,1,2.38h0l5.27,3h0a1.9,1.9,0,0,0,1.93-.16l29.9-17.26a7.05,7.05,0,0,0,3-5.63V6.62A2.6,2.6,0,0,0,64.59,4.25Z"/><path class="cls-5" d="M94.44,20.73l-5.27-3h0a1.9,1.9,0,0,0-1.93.15L57.34,35.11a7,7,0,0,0-3,5.62v72.64a2.61,2.61,0,0,0,1,2.38h0l5.27,3,2-7.47L86.22,97.75a7,7,0,0,0,3-5.62v-59Z"/><path class="cls-6" d="M55.19,37.59a7.31,7.31,0,0,0-.8,3.14v72.64a2.61,2.61,0,0,0,1,2.38h0l5.27,3,2-7.47L86.22,97.75a7,7,0,0,0,3-5.62V57.21Z"/><path class="cls-5" d="M92.51,101.38l-29.9,17.27c-1.63.94-3-.06-3-2.23V43.78a7,7,0,0,1,3-5.62l29.9-17.27c1.63-.94,2.95.06,2.95,2.23V95.76A7,7,0,0,1,92.51,101.38Z"/><path class="cls-7" d="M95.46,38.77V23.12c0-2.17-1.32-3.17-2.95-2.23L62.61,38.16a7,7,0,0,0-3,5.62v57Z"/><path class="cls-8" d="M61.59,117.1a2.46,2.46,0,0,1-.09-.68V43.78a5.28,5.28,0,0,1,2-4l29.9-17.27.09,0a2,2,0,0,1,.09.68V95.76a5.3,5.3,0,0,1-2,4l-29.9,17.26Z"/><path class="cls-9" d="M92.51,101.38l-29.9,17.27c-1.63.94-3-.06-3-2.23V43.78a7,7,0,0,1,3-5.62l29.9-17.27c1.63-.94,2.95.06,2.95,2.23V95.76A7,7,0,0,1,92.51,101.38Z"/><path class="cls-1" d="M94.44,20.74h0l-5.27-3h0a1.9,1.9,0,0,0-1.93.15L57.34,35.11a7,7,0,0,0-3,5.62v72.64a2.61,2.61,0,0,0,1,2.38h0l5.27,3h0a1.9,1.9,0,0,0,1.93-.15l29.9-17.27a7,7,0,0,0,2.95-5.62V23.12A2.61,2.61,0,0,0,94.44,20.74Z"/><ellipse class="cls-10" cx="77.56" cy="32.39" rx="3.3" ry="1.86" transform="translate(17.39 91.07) rotate(-66.95)"/><path class="cls-10" d="M81.85,27a5.16,5.16,0,0,0-2.14,4.11l-4.3,2.48c0-1.59-1-2.31-2.14-1.63Z"/><line class="cls-1" x1="84.36" y1="15.06" x2="84.36" y2="15.06"/><line class="cls-11" x1="79.36" y1="12.33" x2="71.86" y2="8.23"/><line class="cls-1" x1="69.36" y1="6.86" x2="69.36" y2="6.86"/><rect class="cls-12" width="120" height="120"/><rect class="cls-12" width="120" height="120"/></g></g></svg>