<svg xmlns="http://www.w3.org/2000/svg" viewBox="0 0 120.12 120"><defs><style>.cls-1{isolation:isolate;}.cls-2,.cls-5{fill:#d5dae0;}.cls-3{fill:#fff;}.cls-4{fill:#b8bfca;}.cls-4,.cls-5{stroke:#b8bfca;}.cls-4,.cls-5,.cls-6,.cls-8,.cls-9{stroke-linecap:round;stroke-linejoin:round;stroke-width:2px;}.cls-10,.cls-6,.cls-9{fill:none;}.cls-6{stroke:#627386;}.cls-7{fill:#91d2fb;}.cls-8{fill:#bde4fd;stroke:#91d2fb;}.cls-9{stroke:#1b6dc6;}</style></defs><title>arrows</title><g id="Layer_2" data-name="Layer 2"><g id="Objects"><g class="cls-1"><polygon class="cls-2" points="87.11 85.22 74.16 78.68 71.62 95.15 87.16 104.18 87.11 85.22"/><polygon class="cls-3" points="84.62 70.15 74.11 61.24 36.12 83.17 49.07 90.7 84.62 70.15"/><polygon class="cls-2" points="84.57 50.79 71.62 43.26 71.67 62.62 84.62 70.15 84.57 50.79"/><polygon class="cls-3" points="119.12 58.99 106.16 51.47 71.62 43.26 84.57 50.79 119.12 58.99"/><polygon class="cls-4" points="84.57 52.06 84.62 70.15 49.07 90.7 49.12 108.14 87.11 86.2 87.16 104.18 119.12 58.99 84.57 52.06"/><polygon class="cls-5" points="49.07 90.7 36.12 83.17 36.17 100.61 49.12 108.14 49.07 90.7"/></g><polygon class="cls-6" points="71.62 62.68 71.62 42.64 106.16 51.46 119.12 58.99 87.16 104.18 71.62 95.15 49.12 108.14 36.17 100.61 36.12 83.17 71.62 62.68"/><g class="cls-1"><polygon class="cls-7" points="32.41 53.1 45.36 46.55 47.9 63.02 32.36 72.05 32.41 53.1"/><polygon class="cls-3" points="34.9 38.02 45.41 29.11 83.4 51.05 70.45 58.58 34.9 38.02"/><polygon class="cls-7" points="34.95 18.66 47.9 11.14 47.85 30.49 34.9 38.02 34.95 18.66"/><polygon class="cls-3" points="1.12 26.47 14.23 18.9 47.9 11.14 34.95 18.66 1.12 26.47"/><polygon class="cls-8" points="34.95 19.94 34.9 38.02 70.45 58.58 70.4 76.01 32.41 54.08 32.36 72.05 1.12 26.47 34.95 19.94"/><polygon class="cls-7" points="70.45 58.58 83.4 51.05 83.35 68.48 70.4 76.01 70.45 58.58"/></g><polygon class="cls-9" points="47.83 30.51 47.85 30.49 47.9 11.14 14.23 18.9 1.12 26.47 1.12 26.47 32.36 72.05 47.9 63.02 47.9 63.02 70.4 76.01 83.35 68.48 83.4 51.05 47.83 30.51"/><rect class="cls-10" width="120" height="120"/><rect class="cls-10" width="120" height="120"/></g></g></svg>