<svg xmlns="http://www.w3.org/2000/svg" viewBox="0 0 120 120"><defs><style>.cls-1{fill:#b8bfca;}.cls-2,.cls-8,.cls-9{fill:none;}.cls-2{stroke:#627386;}.cls-2,.cls-4,.cls-7,.cls-8{stroke-linecap:round;stroke-linejoin:round;}.cls-2,.cls-4{stroke-width:2px;}.cls-3{fill:#d5dae0;}.cls-4,.cls-5{fill:#fff;}.cls-4{stroke:#b8bfca;}.cls-6{fill:#627386;}.cls-7{fill:#91d2fb;stroke:#91d2fb;}.cls-8{stroke:#fff;stroke-width:3px;}</style></defs><title>assess</title><g id="Layer_2" data-name="Layer 2"><g id="Actions"><path class="cls-1" d="M87.21,5.48,79.9,1.26v0a2.6,2.6,0,0,0-2.69.19L35.49,25.56c-2.28,1.32-4.13,4.85-4.13,7.89v77.71a3.65,3.65,0,0,0,1.44,3.32v0l7.31,4.22L42.9,110l34.3-19.8c2.28-1.32,4.13-4.85,4.13-7.89V18Z"/><path class="cls-1" d="M53.11,31.85l-.75-10.39c-.2-2.84-1.92-5.9-4-7.08h0c-2-1.18-3.76-.1-4,2.5l-.75,9.53"/><path class="cls-2" d="M53.11,31.85l-.75-10.39c-.2-2.84-1.92-5.9-4-7.08h0c-2-1.18-3.76-.1-4,2.5l-.75,9.53"/><path class="cls-3" d="M79.89,1.29a2.6,2.6,0,0,0-2.69.19L35.49,25.56a8.05,8.05,0,0,0-2.82,3.14L81.33,56.79V18l5.88-12.5L79.9,1.26Z"/><path class="cls-4" d="M84.51,94.43,42.8,118.5c-2.28,1.32-4.13-.08-4.13-3.12V37.67c0-3,1.85-6.57,4.13-7.89L84.51,5.7c2.28-1.31,4.13.08,4.13,3.12V86.54C88.64,89.58,86.79,93.11,84.51,94.43Z"/><path class="cls-2" d="M87.2,5.51v0L79.9,1.26v0a2.6,2.6,0,0,0-2.69.19L35.49,25.56a5.28,5.28,0,0,0-.81.58,7.76,7.76,0,0,0-.58.57l-.16.15a9.83,9.83,0,0,0-1.27,1.84h0a10.23,10.23,0,0,0-1.31,4.75v77.71a3.65,3.65,0,0,0,1.44,3.32v0l7.31,4.22v0a2.6,2.6,0,0,0,2.69-.2L84.51,94.43c2.28-1.32,4.13-4.85,4.13-7.89V8.82A3.62,3.62,0,0,0,87.2,5.51Z"/><path class="cls-3" d="M73.54,9.23c-.21-2.83-1.92-5.89-4-7.07A2.53,2.53,0,0,0,67,2h0L45.79,14.17h0a2.55,2.55,0,0,1,2.6.2c2,1.18,3.77,4.24,4,7.08l.75,10.39L74.28,19.63Z"/><path class="cls-5" d="M48.39,14.38a8.53,8.53,0,0,1,3.26,4.15L72.83,6.3a8.52,8.52,0,0,0-3.26-4.14A2.53,2.53,0,0,0,67,2h0L45.79,14.17h0A2.55,2.55,0,0,1,48.39,14.38Z"/><path class="cls-2" d="M73.54,9.23c-.21-2.83-1.92-5.89-4-7.07A2.53,2.53,0,0,0,67,2h0L45.79,14.17h0l0,0a2.54,2.54,0,0,1,2.63.19c2,1.18,3.77,4.24,4,7.08l.75,10.39L74.28,19.63Z"/><path class="cls-5" d="M59,8.27l3.53-2a8.12,8.12,0,0,0,.22-1.8c0-2.76-1.68-4-3.75-2.84S55.24,6,55.24,8.76a5.19,5.19,0,0,0,.21,1.55Z"/><ellipse class="cls-6" cx="58.98" cy="6.6" rx="1.75" ry="0.99" transform="translate(29.82 58.29) rotate(-66.95)"/><path class="cls-2" d="M62.51,6.24a8.12,8.12,0,0,0,.22-1.8c0-2.76-1.68-4-3.75-2.84S55.24,6,55.24,8.76a5.19,5.19,0,0,0,.21,1.55"/><path class="cls-7" d="M78.23,50.64l0,0c-2,1.14-3-1.47-1.57-4.13l0,0c1.37-2.62,1.6-5.7.41-7.06-1.43-1.64-4.11-.26-5.72,2.81l-.11.22c-1.39,2.66-3.77,2.72-3.77.09v0c0-2.71-1.53-4.19-3.56-3.19-2.22,1.09-4.07,4.5-4.07,7.42V47c0,2.63-2.38,5.32-3.77,4.27h0c-1.48-1.12-3.9.08-5.42,2.86s-1.6,6.2-.08,7.35l.11.09c1.39,1,.41,4.79-1.56,5.93l0,0a9.28,9.28,0,0,0-3.94,7C45,77.53,46.77,79,49,77.71l.16-.09c2-1.14,3,1.46,1.56,4.13v0c-1.44,2.73-1.62,6-.29,7.22a2.3,2.3,0,0,0,2.88.09A7.5,7.5,0,0,0,56,86l.11-.22c1.39-2.66,3.77-2.72,3.77-.09v0c0,2.71,1.54,4.19,3.56,3.2,2.22-1.09,4.07-4.5,4.07-7.42v-.22c0-2.62,2.38-5.31,3.77-4.26l.11.09a2.38,2.38,0,0,0,2.7-.07,7.7,7.7,0,0,0,2.88-3.43c1.33-2.8,1.15-5.8-.28-6.88h0c-1.39-1.05-.4-4.8,1.57-5.93l.16-.1c2.18-1.26,3.94-4.74,3.8-7.61C82,50.49,80.26,49.47,78.23,50.64Z"/><polyline class="cls-8" points="68.62 57.6 61.22 71.74 57.62 69.16"/><rect class="cls-9" width="120" height="120"/><rect class="cls-9" width="120" height="120"/></g></g></svg>