<svg xmlns="http://www.w3.org/2000/svg" xmlns:xlink="http://www.w3.org/1999/xlink" viewBox="0 0 120 120"><defs><style>.cls-1{fill:#91d2fb;}.cls-2{fill:#bde4fd;}.cls-15,.cls-16,.cls-3,.cls-4,.cls-8{fill:none;}.cls-3,.cls-4{stroke:#1b6dc6;}.cls-13,.cls-15,.cls-3,.cls-4,.cls-7,.cls-8{stroke-linecap:round;stroke-linejoin:round;stroke-width:2px;}.cls-4{stroke-dasharray:0 5.4;}.cls-5{fill:#b8bfca;}.cls-6{fill:#d5dae0;}.cls-13,.cls-14,.cls-7{fill:#fff;}.cls-7{stroke:#b8bfca;}.cls-8{stroke:#627386;}.cls-9{isolation:isolate;}.cls-10{clip-path:url(#clip-path);}.cls-11{clip-path:url(#clip-path-2);}.cls-12{clip-path:url(#clip-path-3);}.cls-13,.cls-15{stroke:#91d2fb;}</style><clipPath id="clip-path"><path class="cls-1" d="M37.39,33.44l0-10.52c0-3.33,2.19-6.65,6.56-9.19l0,9.76C40.82,25.31,37.4,30.11,37.39,33.44Z"/></clipPath><clipPath id="clip-path-2"><path class="cls-2" d="M82.61,23.05l0,10.52c0-3.37-2.21-6.75-6.67-9.32l0-10.52C80.4,16.3,82.62,19.68,82.61,23.05Z"/></clipPath><clipPath id="clip-path-3"><path class="cls-2" d="M94.21,23.08l0,10.52c0,5-3.32,10.07-9.93,13.91-13.31,7.74-35,7.74-48.37,0-6.74-3.89-10.11-9-10.09-14.1l0-10.52C25.8,28,29.17,33.1,35.91,37c13.4,7.74,35.06,7.74,48.37,0C90.89,33.15,94.2,28.12,94.21,23.08Z"/></clipPath></defs><title>automatic-optimization</title><g id="Layer_2" data-name="Layer 2"><g id="New_Icon_Set" data-name="New Icon Set"><line class="cls-3" x1="94.16" y1="44.21" x2="94.16" y2="44.21"/><line class="cls-4" x1="94.16" y1="49.61" x2="94.16" y2="68.53"/><line class="cls-3" x1="94.16" y1="71.23" x2="94.16" y2="71.23"/><line class="cls-3" x1="25.79" y1="44.21" x2="25.79" y2="44.21"/><line class="cls-4" x1="25.79" y1="49.61" x2="25.79" y2="68.53"/><line class="cls-3" x1="25.79" y1="71.23" x2="25.79" y2="71.23"/><path class="cls-5" d="M68.1,77.23V77c0-1-1.29-1.73-2.88-1.73H54.78c-1.59,0-2.88.77-2.88,1.73v.19H25.79v27.31h0a1.24,1.24,0,0,0,.38.87l5.23,5.45a4.05,4.05,0,0,0,3.93.64l6.82-2.37a33.44,33.44,0,0,0,9.75,3.39v4.74c0,1,1.29,1.74,2.88,1.74H65.22c1.59,0,2.88-.78,2.88-1.74v-4.74a33.44,33.44,0,0,0,9.75-3.39l6.82,2.37a4.05,4.05,0,0,0,3.93-.64l5.23-5.45a1.24,1.24,0,0,0,.38-.87h0V77.23Z"/><path class="cls-6" d="M77.85,109.13h0l6.82,2.37a4.55,4.55,0,0,0,2,.19V86.86H77.85Z"/><path class="cls-6" d="M26.17,105.41l5.23,5.45a3.59,3.59,0,0,0,2.64.87V77.23H25.79v27.31h0A1.24,1.24,0,0,0,26.17,105.41Z"/><path class="cls-6" d="M42.15,109.13a33.44,33.44,0,0,0,9.75,3.39V83.92H42.15v25.21Z"/><ellipse class="cls-6" cx="60" cy="84.5" rx="12" ry="7.24"/><line class="cls-7" x1="42.15" y1="93.46" x2="42.15" y2="109.13"/><line class="cls-7" x1="51.9" y1="101.6" x2="51.9" y2="117.26"/><line class="cls-7" x1="68.1" y1="101.6" x2="68.1" y2="117.26"/><line class="cls-7" x1="77.85" y1="93.46" x2="77.85" y2="109.13"/><path class="cls-5" d="M48,84.5c0,4,5.37,7.23,12,7.23V77.26C53.37,77.26,48,80.5,48,84.5Z"/><path class="cls-7" d="M92.77,90.26,86,87.89a9.91,9.91,0,0,0,0-6.79l6.81-2.37c1.38-.47,1.85-1.54,1.06-2.37L88.6,70.91a4.05,4.05,0,0,0-3.93-.63l-6.82,2.37a33.74,33.74,0,0,0-9.75-3.4V64.51c0-1-1.29-1.74-2.88-1.74H54.78c-1.59,0-2.88.78-2.88,1.74v4.74a33.74,33.74,0,0,0-9.75,3.4l-6.82-2.37a4.05,4.05,0,0,0-3.93.63l-5.23,5.45c-.79.83-.32,1.9,1.06,2.37L34,81.1a9.91,9.91,0,0,0,0,6.79l-6.81,2.37c-1.38.48-1.85,1.55-1.06,2.38l5.23,5.45a4.05,4.05,0,0,0,3.93.63l6.82-2.37a33.74,33.74,0,0,0,9.75,3.4v4.74c0,1,1.29,1.73,2.88,1.73H65.22c1.59,0,2.88-.77,2.88-1.73V99.75a33.74,33.74,0,0,0,9.75-3.4l6.82,2.37a4.05,4.05,0,0,0,3.93-.63l5.23-5.45C94.62,91.81,94.15,90.74,92.77,90.26ZM60,91.73c-6.63,0-12-3.23-12-7.23s5.37-7.24,12-7.24S72,80.5,72,84.5,66.63,91.73,60,91.73Z"/><path class="cls-8" d="M94.21,77.23a1.26,1.26,0,0,0-.38-.87L88.6,70.91a4.05,4.05,0,0,0-3.93-.63l-6.82,2.37a33.74,33.74,0,0,0-9.75-3.4V64.51c0-1-1.29-1.74-2.88-1.74H54.78c-1.59,0-2.88.78-2.88,1.74v4.74a33.74,33.74,0,0,0-9.75,3.4l-6.82-2.37a4.05,4.05,0,0,0-3.93.63l-5.23,5.45a1.44,1.44,0,0,0-.36.66M60,91.73c-6.63,0-12-3.23-12-7.23s5.37-7.24,12-7.24S72,80.5,72,84.5,66.63,91.73,60,91.73Z"/><path class="cls-8" d="M25.79,77.23v27.31h0a1.24,1.24,0,0,0,.38.87l5.23,5.45a4.05,4.05,0,0,0,3.93.64l6.82-2.37a33.44,33.44,0,0,0,9.75,3.39v4.74c0,1,1.29,1.74,2.88,1.74H65.22c1.59,0,2.88-.78,2.88-1.74v-4.74a33.44,33.44,0,0,0,9.75-3.39l6.82,2.37a4.05,4.05,0,0,0,3.93-.64l5.23-5.45a1.24,1.24,0,0,0,.38-.87h0V77.23"/><polygon class="cls-1" points="91.59 4.64 91.56 15.16 84.09 19.5 84.12 8.98 91.59 4.64"/><polygon class="cls-1" points="75.94 13.73 75.91 24.25 68.44 28.59 68.47 18.07 75.94 13.73"/><polygon class="cls-1" points="68.47 18.07 68.44 28.59 62.07 11.52 62.1 1 68.47 18.07"/><g class="cls-9"><path class="cls-1" d="M37.39,33.44l0-10.52c0-3.33,2.19-6.65,6.56-9.19l0,9.76C40.82,25.31,37.4,30.11,37.39,33.44Z"/><g class="cls-10"><g class="cls-9"><path class="cls-1" d="M44,13.73l0,10.52-.27.16,0-10.52.27-.16"/><path class="cls-1" d="M43.71,13.89l0,10.52a17.27,17.27,0,0,0-2.86,2.12l0-10.52a17.27,17.27,0,0,1,2.86-2.12"/><path class="cls-1" d="M40.85,16l0,10.52A13.17,13.17,0,0,0,39.41,28l0-10.52A13.17,13.17,0,0,1,40.85,16"/><path class="cls-1" d="M39.44,17.52l0,10.52a11.41,11.41,0,0,0-.91,1.35l0-10.52a11.41,11.41,0,0,1,.91-1.35"/><path class="cls-1" d="M38.53,18.87l0,10.52a9.86,9.86,0,0,0-.6,1.28l0-10.52a9.86,9.86,0,0,1,.6-1.28"/><path class="cls-1" d="M37.93,20.15l0,10.52A7.41,7.41,0,0,0,37.54,32l0-10.52a7.41,7.41,0,0,1,.36-1.28"/><path class="cls-1" d="M37.57,21.43l0,10.52a7.09,7.09,0,0,0-.15,1.29l0-10.52a7.09,7.09,0,0,1,.15-1.29"/><path class="cls-1" d="M37.42,22.72l0,10.52v.2l0-10.52v-.2"/></g></g></g><path class="cls-2" d="M82.61,23.05l0,10.52c0-3.37-2.21-6.75-6.67-9.32l0-10.52C80.4,16.3,82.62,19.68,82.61,23.05Z"/><g class="cls-11"><g class="cls-9"><path class="cls-2" d="M82.61,23.05l0,10.52c0-3.37-2.21-6.75-6.67-9.32l0-10.52c4.46,2.57,6.68,5.95,6.67,9.32"/></g></g><path class="cls-2" d="M94.21,23.08l0,10.52c0,5-3.32,10.07-9.93,13.91-13.31,7.74-35,7.74-48.37,0-6.74-3.89-10.11-9-10.09-14.1l0-10.52C25.8,28,29.17,33.1,35.91,37c13.4,7.74,35.06,7.74,48.37,0C90.89,33.15,94.2,28.12,94.21,23.08Z"/><g class="cls-12"><g class="cls-9"><path class="cls-2" d="M94.21,23.08l0,10.52v.3l0-10.52v-.3"/><path class="cls-2" d="M94.21,23.38l0,10.52a12,12,0,0,1-.23,2l0-10.52a12,12,0,0,0,.23-2"/><path class="cls-2" d="M94,25.35l0,10.52a12.59,12.59,0,0,1-.55,1.92l0-10.52A12.59,12.59,0,0,0,94,25.35"/><path class="cls-2" d="M93.43,27.27l0,10.52a13.19,13.19,0,0,1-.91,2l0-10.52a13.19,13.19,0,0,0,.91-1.95"/><path class="cls-2" d="M92.52,29.22l0,10.52a15.92,15.92,0,0,1-1.38,2l0-10.52a15.92,15.92,0,0,0,1.38-2"/><path class="cls-2" d="M91.14,31.26l0,10.52A19.44,19.44,0,0,1,89,44.06l0-10.52a19.44,19.44,0,0,0,2.12-2.28"/><path class="cls-2" d="M89,33.54l0,10.52a26.46,26.46,0,0,1-4.33,3.21l0-10.52A26.46,26.46,0,0,0,89,33.54"/><path class="cls-2" d="M84.69,36.75l0,10.52-.41.24a39.06,39.06,0,0,1-7.49,3.3l0-10.53A38.43,38.43,0,0,0,84.28,37l.41-.24"/><path class="cls-2" d="M76.79,40.28l0,10.53a51.56,51.56,0,0,1-6.48,1.61l0-10.52a49.9,49.9,0,0,0,6.48-1.62"/><path class="cls-2" d="M70.31,41.9l0,10.52c-1.43.26-2.89.46-4.36.6L66,42.5c1.47-.14,2.93-.34,4.36-.6"/><path class="cls-2" d="M66,42.5l0,10.52c-1.26.13-2.53.21-3.8.26l0-10.52c1.27,0,2.54-.13,3.8-.26"/><path class="cls-2" d="M62.15,42.76l0,10.52c-1.16,0-2.33,0-3.5,0l0-10.52c1.17,0,2.34,0,3.5,0"/><path class="cls-2" d="M58.65,42.77l0,10.52c-1.13,0-2.25-.08-3.37-.18l0-10.52c1.12.1,2.24.16,3.37.18"/><path class="cls-2" d="M55.28,42.59l0,10.52c-1.12-.09-2.23-.21-3.33-.37l0-10.52c1.1.16,2.21.28,3.33.37"/><path class="cls-2" d="M52,42.22l0,10.52c-1.14-.16-2.27-.36-3.39-.59l0-10.52c1.12.23,2.25.43,3.39.59"/><path class="cls-2" d="M48.56,41.63l0,10.52q-1.81-.37-3.57-.87l0-10.52q1.75.5,3.57.87"/><path class="cls-2" d="M45,40.76l0,10.52c-1.42-.41-2.81-.88-4.15-1.4l0-10.52c1.34.52,2.73,1,4.15,1.4"/><path class="cls-2" d="M40.84,39.36l0,10.52a38,38,0,0,1-4.93-2.37c-6.74-3.89-10.11-9-10.09-14.1l0-10.52C25.8,28,29.17,33.1,35.91,37a38,38,0,0,0,4.93,2.37"/></g></g><path class="cls-1" d="M94.15,24.2l-.06.45c0,.17,0,.34-.08.51l-.09.46-.12.49c0,.15-.09.31-.14.46s-.1.33-.16.49-.11.3-.17.44-.14.35-.22.52-.13.29-.2.43l-.26.52c-.08.13-.15.27-.23.41L92,30c-.08.12-.15.24-.24.36a8,8,0,0,1-.48.66l-.21.29c-.28.35-.58.7-.89,1L90,32.6c-.25.26-.51.51-.78.77l-.37.35-.49.42-.47.4-.54.42-.51.38-.57.4-.55.38-.62.39-.79.48c-.75.43-1.52.83-2.31,1.21l-.63.3q-1.07.49-2.19.93l-.29.12c-.8.31-1.62.58-2.45.84-.58.19-1.17.34-1.76.51s-.89.25-1.35.36c-.62.15-1.26.27-1.89.4-.46.09-.91.2-1.38.28l-.58.09c-.78.13-1.57.24-2.37.34l-.69.08c-.92.1-1.85.18-2.78.23l-.51,0c-.63,0-1.25,0-1.88,0H60V53.29h2.11l1-.05.51,0q1.17-.06,2.34-.18l.44-.05.69-.08c.8-.1,1.59-.21,2.37-.34.19,0,.39,0,.58-.09l.28,0,1.11-.24c.63-.13,1.26-.25,1.88-.4.46-.11.9-.24,1.35-.37s1.18-.31,1.76-.5l.38-.1c.7-.23,1.39-.48,2.07-.74l.29-.12q1.13-.44,2.19-.93l.63-.3c.79-.38,1.56-.78,2.31-1.21.14-.08.28-.16.41-.25L85,47l.62-.39.55-.38.57-.4.51-.38.54-.42.47-.39.49-.43.2-.18.17-.17c.27-.25.53-.51.78-.77l.25-.26c.31-.34.61-.69.89-1l0,0c.07-.08.12-.16.18-.24s.33-.44.48-.67.16-.24.24-.36l.38-.61.1-.16c.05-.09.08-.17.13-.25l.26-.52.21-.43L93.3,38c0-.07.07-.15.1-.23a1.72,1.72,0,0,0,.07-.21c.06-.16.11-.33.16-.49s.1-.3.14-.46l.12-.5a2.44,2.44,0,0,0,.06-.26,1.25,1.25,0,0,0,0-.19c0-.17.06-.34.08-.51l.06-.45c0-.17,0-.34,0-.51a3,3,0,0,1,0-.31v-.3l0-10.52c0,.2,0,.4,0,.61S94.17,24,94.15,24.2Z"/><path class="cls-13" d="M91.59,4.64,84.12,9c13.39,7.73,13.47,20.28.16,28s-35,7.74-48.37,0S22.45,16.71,35.75,9L44,13.73c-8.79,5.11-8.75,13.4.11,18.51s23.16,5.11,32,0,8.74-13.4-.11-18.51l-7.47,4.34L62.1,1Z"/><path class="cls-14" d="M93.8,26.11c0,.09,0,.17-.07.25,0-.1,0-.19.08-.29Z"/><path class="cls-14" d="M94,25.16a2.38,2.38,0,0,1-.05.26l.06-.3Z"/><path class="cls-14" d="M94.15,24.2l0,.27,0-.31Z"/><line class="cls-15" x1="68.47" y1="18.07" x2="68.44" y2="28.59"/><path class="cls-3" d="M94.19,23.52a12.94,12.94,0,0,0-2.75-8.29l.12-.07,0-10.52L62.1,1l0,10.52,6.37,17.07,7.47-4.34A35.4,35.4,0,0,1,80.17,29a17.33,17.33,0,0,1-4.12,3.29c-8.8,5.11-23.11,5.11-32,0a17.2,17.2,0,0,1-4.34-3.48s.43-2.11,4.23-4.55V13.73L35.75,9c-6.63,3.85-9.94,8.9-9.93,14v0h0l0,10.52c0,5.1,3.35,10.21,10.09,14.1.73.42,1.48.81,2.25,1.18a1.51,1.51,0,0,0,.22.11c.73.35,1.49.68,2.26,1l.2.09.18.06q.88.35,1.8.66l.29.09c.53.18,1.07.35,1.61.5l.27.09.32.08,1,.28.63.15c.38.1.77.18,1.15.27l.43.09.12,0c.35.08.7.14,1.06.21l.57.1,1.38.22.26,0h0c.54.08,1.08.15,1.63.21L54,53c.42,0,.84.09,1.27.12h0l.56,0,1.07.07c.22,0,.45,0,.68,0l1,0H61l1,0h.18l.47,0,1.15,0,.69-.05,1.1-.09.39,0,.27,0c.57-.06,1.14-.12,1.7-.2l.27,0c.65-.09,1.3-.19,1.94-.3l.18,0,.51-.1.89-.18.73-.16.87-.2L74,51.6l.85-.23.71-.2.83-.25.37-.11a1.84,1.84,0,0,1,.25-.09c.5-.17,1-.34,1.49-.53l.3-.11q.87-.33,1.71-.69l.43-.2,1.27-.59.46-.24c.54-.27,1.07-.55,1.58-.85l.41-.24L85,47c.21-.13.42-.26.62-.4l.54-.36.58-.41.51-.38.54-.42.47-.39.49-.43.2-.18.17-.17c.27-.25.53-.51.78-.77l.25-.26c.31-.34.61-.69.89-1l0,0c.07-.08.12-.16.18-.24s.33-.44.48-.67.16-.24.24-.36l.38-.61.1-.16c.05-.09.08-.17.13-.25l.26-.52.21-.43L93.3,38c0-.07.07-.15.1-.23a1.72,1.72,0,0,0,.07-.21c.06-.16.11-.33.16-.49s.1-.3.14-.46l.12-.5a2.44,2.44,0,0,0,.06-.26,1.25,1.25,0,0,0,0-.19c0-.17.06-.34.08-.51l.06-.45c0-.17,0-.34,0-.51a3,3,0,0,1,0-.31v-.3l0-10.52C94.21,23.23,94.2,23.38,94.19,23.52Z"/><rect class="cls-16" width="120" height="120"/><rect class="cls-16" width="120" height="120"/></g></g></svg>