<svg xmlns="http://www.w3.org/2000/svg" viewBox="0 0 120 120"><defs><style>.cls-1,.cls-3{fill:#d5dae0;}.cls-1,.cls-6,.cls-7{stroke:#b8bfca;}.cls-1,.cls-12,.cls-13,.cls-14,.cls-6,.cls-7,.cls-8,.cls-9{stroke-linecap:round;stroke-linejoin:round;stroke-width:2px;}.cls-2,.cls-6{fill:#fff;}.cls-4{fill:#b8bfca;}.cls-5{fill:#627386;}.cls-12,.cls-13,.cls-14,.cls-15,.cls-7,.cls-8{fill:none;}.cls-8{stroke:#627386;}.cls-11,.cls-9{fill:#bde4fd;}.cls-12,.cls-9{stroke:#91d2fb;}.cls-10{fill:#91d2fb;}.cls-13{stroke:#bde4fd;}.cls-14{stroke:#1b6dc6;}</style></defs><title>beverages</title><g id="Layer_2" data-name="Layer 2"><g id="Industries"><path class="cls-1" d="M97.28,46.6h0c0-7.33-5.35-7.57-5.58-12h0a1.63,1.63,0,0,0,0-.31,2.83,2.83,0,0,0,0-.29h0L89.22,9.32H77.51L75,34.05h0a2.83,2.83,0,0,0,0,.29,1.63,1.63,0,0,0,0,.31h0c-.23,4.38-5.58,4.62-5.58,12h0V87.81a4.85,4.85,0,0,0,.23,1.42h0L70.21,91h0c1.12,3.61,6.57,6.35,13.14,6.35s12-2.74,13.15-6.35h0l.54-1.73h0a4.85,4.85,0,0,0,.23-1.42Z"/><path class="cls-2" d="M83.36,9.32H77.51L75,34.05h0a2.83,2.83,0,0,0,0,.29,1.63,1.63,0,0,0,0,.31h0c-.23,4.38-5.58,4.62-5.58,12V87.81a4.85,4.85,0,0,0,.23,1.42h0L70.21,91h0c1.12,3.61,6.57,6.35,13.14,6.35h0Z"/><path class="cls-3" d="M89.05,35.05a2.73,2.73,0,0,1,0-.7v0a1.94,1.94,0,0,1,0-.24L87.4,18H79.33L77.71,34.09a1.8,1.8,0,0,1,0,.22v0a2.89,2.89,0,0,1,0,.72,9.16,9.16,0,0,1-3,5.65c-1.43,1.54-2.56,2.75-2.56,5.89V87.81a2,2,0,0,0,.11.63l.06.25.39,1.24a2.25,2.25,0,0,1,.08.24c.67,2.15,4.91,4.47,10.59,4.47s9.93-2.32,10.6-4.47a2.25,2.25,0,0,1,.08-.24l.39-1.24.06-.25a2,2,0,0,0,.11-.63V46.6c0-3.14-1.13-4.35-2.56-5.89A9.18,9.18,0,0,1,89.05,35.05Z"/><path class="cls-4" d="M89.05,35.05a2.73,2.73,0,0,1,0-.7v0a1.94,1.94,0,0,1,0-.24L87.4,18h-4V94.64h0c5.69,0,9.93-2.32,10.6-4.47a2.25,2.25,0,0,1,.08-.24l.39-1.24.06-.25a2,2,0,0,0,.11-.63V46.6c0-3.14-1.13-4.35-2.56-5.89A9.18,9.18,0,0,1,89.05,35.05Z"/><ellipse class="cls-3" cx="83.51" cy="18.18" rx="4.11" ry="2.37"/><path class="cls-1" d="M89.23,9.52c0,1.87-2.63,3.39-5.87,3.39S77.5,11.39,77.5,9.52s2.62-4.45,5.86-4.45S89.23,7.65,89.23,9.52Z"/><path class="cls-5" d="M91.19,59.23A1.35,1.35,0,0,0,89.47,58a22.84,22.84,0,0,1-6,.77c-7.77,0-14.07-3.64-14.07-8.12V75.37c0,4.48,6.3,8.12,14.07,8.12a22.94,22.94,0,0,0,6.39-.89,1.8,1.8,0,0,0,1.28-1.72Z"/><path class="cls-4" d="M88.07,68.24a.88.88,0,0,0-1-.88,23.72,23.72,0,0,1-3.53.27c-7.77,0-14.07-3.64-14.07-8.12v6.95c0,4.48,6.3,8.12,14.07,8.12a23.4,23.4,0,0,0,3.81-.32.9.9,0,0,0,.74-.88Z"/><path class="cls-4" d="M83.43,83.49V58.72c-7.73,0-14-3.65-14-8.12V75.37C69.45,79.84,75.7,83.46,83.43,83.49Z"/><path class="cls-3" d="M83.43,74.57V67.63c-7.73,0-14-3.65-14-8.12v6.95C69.45,70.92,75.7,74.55,83.43,74.57Z"/><path class="cls-6" d="M91.39,31.13l-1.5-14.91c-.75,1.68-3.38,2.93-6.53,2.93s-5.77-1.25-6.52-2.93l-1.5,14.91c.49,2.31,3.89,4.1,8,4.1S90.9,33.44,91.39,31.13Z"/><path class="cls-3" d="M83.51,19.14V35.23c4.06,0,7.39-1.82,7.88-4.1l-1.5-14.91C89.15,17.88,86.59,19.1,83.51,19.14Z"/><path class="cls-7" d="M91.39,31.13l-1.5-14.91c-.75,1.68-3.38,2.93-6.53,2.93s-5.77-1.25-6.52-2.93l-1.5,14.91c.49,2.31,3.89,4.1,8,4.1S90.9,33.44,91.39,31.13Z"/><path class="cls-8" d="M97.28,46.6c0-7.33-5.35-7.57-5.58-12h0a1.63,1.63,0,0,0,0-.31,2.83,2.83,0,0,0,0-.29h0L89.22,9.32H77.51L75,34.05h0a2.83,2.83,0,0,0,0,.29,1.63,1.63,0,0,0,0,.31h0c-.23,4.38-5.58,4.62-5.58,12V87.81a4.85,4.85,0,0,0,.23,1.42h0L70.21,91h0c1.12,3.61,6.57,6.35,13.14,6.35h0c6.58,0,12-2.74,13.15-6.35h0l.54-1.73h0a4.85,4.85,0,0,0,.23-1.42Z"/><path class="cls-6" d="M90.46,8.7h0L90,4.54H87.27a11.55,11.55,0,0,0-7.81,0H76.7L76.26,8.7h0c0,.11,0,.23,0,.34,0,2.28,3.2,4.12,7.13,4.12S90.49,11.32,90.49,9A2,2,0,0,0,90.46,8.7Z"/><path class="cls-3" d="M90.49,9a2,2,0,0,0,0-.34h0L90,4.54H87.27a11,11,0,0,0-3.91-.68v9.3C87.3,13.16,90.49,11.32,90.49,9Z"/><ellipse class="cls-6" cx="83.36" cy="4.86" rx="6.68" ry="3.86"/><ellipse class="cls-3" cx="83.36" cy="4.86" rx="3.12" ry="1.54"/><path class="cls-8" d="M90.46,8.7h0L90,4.54h0C89.74,2.56,86.87,1,83.36,1S77,2.56,76.71,4.54h0L76.26,8.7h0c0,.11,0,.23,0,.34,0,2.28,3.2,4.12,7.13,4.12S90.49,11.32,90.49,9A2,2,0,0,0,90.46,8.7Z"/><path class="cls-1" d="M50.55,46.6h0c0-7.33-5.35-7.57-5.58-12h0a1.63,1.63,0,0,0,0-.31,2.83,2.83,0,0,0,0-.29h0L42.49,9.32H30.78L28.29,34.05h0a2.83,2.83,0,0,0,0,.29,1.63,1.63,0,0,0,0,.31h0c-.23,4.38-5.58,4.62-5.58,12h0V87.81A4.85,4.85,0,0,0,23,89.23h0L23.48,91h0c1.12,3.61,6.57,6.35,13.15,6.35s12-2.74,13.14-6.35h0l.54-1.73h0a4.85,4.85,0,0,0,.23-1.42Z"/><path class="cls-2" d="M36.64,9.32H30.78L28.29,34.05h0a2.83,2.83,0,0,0,0,.29,1.63,1.63,0,0,0,0,.31h0c-.23,4.38-5.58,4.62-5.58,12V87.81A4.85,4.85,0,0,0,23,89.23h0L23.48,91h0c1.12,3.61,6.57,6.35,13.15,6.35h0Z"/><path class="cls-3" d="M42.32,35.05a2.73,2.73,0,0,1,0-.7v0a1.94,1.94,0,0,1,0-.24L40.67,18H32.6L31,34.09c0,.07,0,.14,0,.22v0a2.48,2.48,0,0,1,0,.72,9.16,9.16,0,0,1-3,5.65c-1.43,1.54-2.56,2.75-2.56,5.89V87.81a2,2,0,0,0,.11.63c0,.09,0,.17.06.25L26,89.93a2.25,2.25,0,0,1,.08.24c.67,2.15,4.91,4.47,10.6,4.47s9.92-2.32,10.59-4.47a1.17,1.17,0,0,1,.09-.24l.38-1.24.06-.25a2,2,0,0,0,.11-.63V46.6c0-3.14-1.13-4.35-2.56-5.89A9.18,9.18,0,0,1,42.32,35.05Z"/><path class="cls-4" d="M42.32,35.05a2.73,2.73,0,0,1,0-.7v0a1.94,1.94,0,0,1,0-.24L40.67,18h-4V94.64h0c5.68,0,9.92-2.32,10.59-4.47a1.17,1.17,0,0,1,.09-.24l.38-1.24.06-.25a2,2,0,0,0,.11-.63V46.6c0-3.14-1.13-4.35-2.56-5.89A9.18,9.18,0,0,1,42.32,35.05Z"/><ellipse class="cls-3" cx="36.78" cy="18.18" rx="4.11" ry="2.37"/><path class="cls-1" d="M42.5,9.52c0,1.87-2.62,3.39-5.86,3.39s-5.87-1.52-5.87-3.39,2.63-4.45,5.87-4.45S42.5,7.65,42.5,9.52Z"/><path class="cls-5" d="M44.46,59.23A1.35,1.35,0,0,0,42.74,58a22.84,22.84,0,0,1-6,.77c-7.77,0-14.07-3.64-14.07-8.12V75.37c0,4.48,6.3,8.12,14.07,8.12a22.94,22.94,0,0,0,6.39-.89,1.8,1.8,0,0,0,1.28-1.72Z"/><path class="cls-4" d="M41.34,68.24a.88.88,0,0,0-1-.88,23.72,23.72,0,0,1-3.53.27C29,67.63,22.72,64,22.72,59.51v6.95c0,4.48,6.3,8.12,14.07,8.12a23.31,23.31,0,0,0,3.81-.32.9.9,0,0,0,.74-.88Z"/><path class="cls-4" d="M36.7,83.49V58.72c-7.73,0-14-3.65-14-8.12V75.37C22.72,79.84,29,83.46,36.7,83.49Z"/><path class="cls-3" d="M36.7,74.57V67.63c-7.73,0-14-3.65-14-8.12v6.95C22.72,70.92,29,74.55,36.7,74.57Z"/><path class="cls-6" d="M44.66,31.13l-1.5-14.91c-.75,1.68-3.38,2.93-6.52,2.93s-5.78-1.25-6.53-2.93l-1.5,14.91c.49,2.31,3.9,4.1,8,4.1S44.17,33.44,44.66,31.13Z"/><path class="cls-3" d="M36.78,19.14V35.23c4.06,0,7.39-1.82,7.88-4.1l-1.5-14.91C42.43,17.88,39.86,19.1,36.78,19.14Z"/><path class="cls-7" d="M44.66,31.13l-1.5-14.91c-.75,1.68-3.38,2.93-6.52,2.93s-5.78-1.25-6.53-2.93l-1.5,14.91c.49,2.31,3.9,4.1,8,4.1S44.17,33.44,44.66,31.13Z"/><path class="cls-8" d="M50.55,46.6c0-7.33-5.35-7.57-5.58-12h0a1.63,1.63,0,0,0,0-.31,2.83,2.83,0,0,0,0-.29h0L42.49,9.32H30.78L28.29,34.05h0a2.83,2.83,0,0,0,0,.29,1.63,1.63,0,0,0,0,.31h0c-.23,4.38-5.58,4.62-5.58,12V87.81A4.85,4.85,0,0,0,23,89.23h0L23.48,91h0c1.12,3.61,6.57,6.35,13.15,6.35h0c6.57,0,12-2.74,13.14-6.35h0l.54-1.73h0a4.85,4.85,0,0,0,.23-1.42Z"/><path class="cls-6" d="M43.74,8.7h0L43.3,4.54H40.54a11.55,11.55,0,0,0-7.81,0H30L29.53,8.7h0a2,2,0,0,0,0,.34c0,2.28,3.19,4.12,7.13,4.12S43.77,11.32,43.77,9C43.77,8.93,43.75,8.81,43.74,8.7Z"/><path class="cls-3" d="M43.77,9c0-.11,0-.23,0-.34h0L43.3,4.54H40.54a11,11,0,0,0-3.9-.68v9.3C40.57,13.16,43.77,11.32,43.77,9Z"/><ellipse class="cls-6" cx="36.64" cy="4.86" rx="6.68" ry="3.86"/><ellipse class="cls-3" cx="36.64" cy="4.86" rx="3.12" ry="1.54"/><path class="cls-8" d="M43.74,8.7h0L43.3,4.54h0C43,2.56,40.14,1,36.64,1S30.26,2.56,30,4.54h0L29.53,8.7h0a2,2,0,0,0,0,.34c0,2.28,3.19,4.12,7.13,4.12S43.77,11.32,43.77,9C43.77,8.93,43.75,8.81,43.74,8.7Z"/><path class="cls-9" d="M76.55,107.31H74c-2.16-3.18-7.53-5.44-13.81-5.44s-11.65,2.26-13.81,5.44h-2.5l1.8,4.91h0c1.42,3.87,7.37,6.78,14.5,6.78s13.09-2.91,14.51-6.78h0Z"/><path class="cls-2" d="M60.13,101.88c-6.24,0-11.56,2.27-13.71,5.43h-2.5l1.8,4.91h0c1.41,3.86,7.32,6.75,14.4,6.78Z"/><path class="cls-7" d="M76.55,107.31H74c-2.16-3.18-7.53-5.44-13.81-5.44s-11.65,2.26-13.81,5.44h-2.5l1.8,4.91h0c1.42,3.87,7.37,6.78,14.5,6.78s13.09-2.91,14.51-6.78h0Z"/><path class="cls-10" d="M43.56,73.14v32.17c0,5.31,7.46,9.62,16.67,9.62s16.68-4.31,16.68-9.62V73.14Z"/><path class="cls-11" d="M69.33,93.33a26,26,0,0,1-9.1,1.56c-9.21,0-16.67-4.31-16.67-9.62V93.5c0,5.32,7.46,9.63,16.67,9.63a26.2,26.2,0,0,0,9.1-1.56Z"/><path class="cls-11" d="M60.13,73.14H43.56v32.17c0,5.29,7.41,9.59,16.57,9.62Z"/><path class="cls-2" d="M60.13,103.13V94.89c-9.16,0-16.57-4.33-16.57-9.62V93.5C43.56,98.8,51,103.09,60.13,103.13Z"/><path class="cls-12" d="M43.56,73.14v32.17c0,5.31,7.46,9.62,16.67,9.62s16.68-4.31,16.68-9.62V73.14Z"/><path class="cls-9" d="M76.54,71.14h0l-1.81-4.91h0c-1.42-3.88-7.38-6.78-14.51-6.78s-13.08,2.9-14.5,6.78h0l-1.8,4.91h0a5.66,5.66,0,0,0-.36,2c0,5.32,7.46,9.63,16.67,9.63s16.68-4.31,16.68-9.63A5.67,5.67,0,0,0,76.54,71.14Z"/><path class="cls-2" d="M45.73,66.23h0l-1.8,4.91h0a5.66,5.66,0,0,0-.36,2c0,5.32,7.46,9.63,16.67,9.63V59.45C53.1,59.45,47.15,62.35,45.73,66.23Z"/><path class="cls-12" d="M76.54,71.14h0l-1.81-4.91h0c-1.42-3.88-7.38-6.78-14.51-6.78s-13.08,2.9-14.5,6.78h0l-1.8,4.91h0a5.66,5.66,0,0,0-.36,2c0,5.32,7.46,9.63,16.67,9.63s16.68-4.31,16.68-9.63A5.67,5.67,0,0,0,76.54,71.14Z"/><ellipse class="cls-9" cx="60.23" cy="68.05" rx="14.83" ry="8.56"/><ellipse class="cls-2" cx="60.23" cy="68.82" rx="12.42" ry="6.6"/><line class="cls-13" x1="58.88" y1="71.27" x2="64.54" y2="68.01"/><path class="cls-12" d="M60.5,65.67l5.13,3c1.56.9,1.56,2.36,0,3.26h0a6.21,6.21,0,0,1-5.66,0l-5.13-3c-1.57-.9-1.57-2.36,0-3.27h0A6.27,6.27,0,0,1,60.5,65.67Z"/><path class="cls-14" d="M76.91,73.14a5.67,5.67,0,0,0-.37-2h0l-1.81-4.91h0c-1.42-3.88-7.38-6.78-14.51-6.78h0c-6.88,0-12.66,2.71-14.33,6.38a2.83,2.83,0,0,0-.17.4h0l-1.8,4.91h0c-.06.16-.11.32-.16.49a5.91,5.91,0,0,0-.2,1.51h0v32.17a6.48,6.48,0,0,0,.08,1c0,.12.07.23.1.35a4,4,0,0,0,.15.6.43.43,0,0,0,0,.07h0l1.8,4.91h0s0,.09.05.13a6,6,0,0,0,.26.58c.06.11.13.21.19.31s.15.26.23.38.21.27.31.4l.21.26c.12.14.26.28.4.42l.2.21.54.46.15.13a8.12,8.12,0,0,0,.67.48l.1.07c.26.17.53.34.81.5l0,0A21.49,21.49,0,0,0,60.23,119c7.13,0,13.09-2.91,14.51-6.78h0l1.81-4.91h0a5.71,5.71,0,0,0,.37-2Z"/><rect class="cls-15" width="120" height="120"/><rect class="cls-15" width="120" height="120"/></g></g></svg>