<svg xmlns="http://www.w3.org/2000/svg" viewBox="0 0 120 120"><defs><style>.cls-1{fill:#b8bfca;}.cls-2{fill:#d5dae0;}.cls-3{fill:#fff;stroke:#b8bfca;}.cls-3,.cls-4{stroke-linecap:round;stroke-linejoin:round;stroke-width:2px;}.cls-4,.cls-5{fill:none;}.cls-4{stroke:#627386;}</style></defs><title>bezel-simplified</title><g id="Layer_2" data-name="Layer 2"><g id="Tech_Concepts" data-name="Tech Concepts"><path class="cls-1" d="M64.59,102.66,115,73.58a3.24,3.24,0,0,0,1.9-2.66V49.08H85.17L64.59,37.19A9.41,9.41,0,0,0,60,36.1v67.65A9.41,9.41,0,0,0,64.59,102.66Z"/><path class="cls-2" d="M60,36.1a9.41,9.41,0,0,0-4.59,1.09L34.83,49.08H3.14V70.92A3.24,3.24,0,0,0,5,73.58l50.37,29.08A9.41,9.41,0,0,0,60,103.75"/><path class="cls-1" d="M52.7,88.41a7.54,7.54,0,0,1-3.1-3.13,8.63,8.63,0,0,0-3.1-3.5L16.7,64.57a2.7,2.7,0,0,0-3.1-.08c-.79.6-1.89.26-3.1-.44L3.14,59.8v4.14l7.36,4.25a7.56,7.56,0,0,1,3.1,3.14,8.69,8.69,0,0,0,3.1,3.5L46.5,92a2.7,2.7,0,0,0,3.1.08c.79-.6,1.89-.26,3.1.44l7.56,4.37V92.78Z"/><path class="cls-3" d="M115,46.43,64.59,17.34a10.17,10.17,0,0,0-9.18,0L5,46.43c-2.53,1.46-2.53,3.83,0,5.3L55.41,80.81a10.17,10.17,0,0,0,9.18,0L115,51.73C117.49,50.26,117.49,47.89,115,46.43Z"/><path class="cls-4" d="M115,46.43,64.59,17.34a10.17,10.17,0,0,0-9.18,0L5,46.43a3.22,3.22,0,0,0-1.9,2.65V70.92A3.24,3.24,0,0,0,5,73.58l50.37,29.08a10.21,10.21,0,0,0,9.18,0L115,73.58a3.24,3.24,0,0,0,1.9-2.66V49.08A3.22,3.22,0,0,0,115,46.43Z"/><ellipse class="cls-2" cx="104.12" cy="49.08" rx="2.58" ry="1.49"/><ellipse class="cls-2" cx="60.26" cy="74.4" rx="2.58" ry="1.49"/><ellipse class="cls-2" cx="60.26" cy="23.75" rx="2.58" ry="1.49"/><ellipse class="cls-2" cx="16.4" cy="49.08" rx="2.58" ry="1.49"/><rect class="cls-5" width="120" height="120"/><rect class="cls-5" width="120" height="120"/></g></g></svg>