<svg xmlns="http://www.w3.org/2000/svg" viewBox="0 0 120 120"><defs><style>.cls-1,.cls-5{fill:#fff;}.cls-1,.cls-2,.cls-3,.cls-9{stroke:#b8bfca;}.cls-1,.cls-2,.cls-3,.cls-4,.cls-5,.cls-6,.cls-7,.cls-8,.cls-9{stroke-linecap:round;stroke-linejoin:round;stroke-width:2px;}.cls-10,.cls-2,.cls-4,.cls-8{fill:none;}.cls-3{fill:#b8bfca;}.cls-4{stroke:#627386;}.cls-5,.cls-6,.cls-7{stroke:#91d2fb;}.cls-6{fill:#91d2fb;}.cls-7{fill:#bde4fd;}.cls-8{stroke:#1b6dc6;}.cls-9{fill:#d5dae0;}</style></defs><title>big-data</title><g id="Layer_2" data-name="Layer 2"><g id="Tech_Concepts" data-name="Tech Concepts"><polygon class="cls-1" points="41.67 74.84 29.44 81.9 17.22 74.84 29.44 67.78 41.67 74.84"/><polygon class="cls-1" points="53.89 67.78 41.67 74.84 29.44 67.78 41.67 60.73 53.89 67.78"/><polygon class="cls-1" points="66.11 60.73 53.89 67.78 41.67 60.73 53.89 53.67 66.11 60.73"/><polygon class="cls-1" points="78.33 53.67 66.11 60.73 53.89 53.67 66.11 46.62 78.33 53.67"/><polygon class="cls-1" points="53.89 81.9 41.67 88.95 29.44 81.9 41.67 74.84 53.89 81.9"/><polygon class="cls-1" points="66.11 74.84 53.89 81.9 41.67 74.84 53.89 67.78 66.11 74.84"/><polygon class="cls-1" points="78.33 67.78 66.11 74.84 53.89 67.78 66.11 60.73 78.33 67.78"/><polygon class="cls-1" points="90.56 60.73 78.33 67.78 66.11 60.73 78.33 53.67 90.56 60.73"/><polygon class="cls-1" points="66.11 88.95 53.89 96.01 41.67 88.95 53.89 81.9 66.11 88.95"/><polygon class="cls-1" points="78.33 81.9 66.11 88.95 53.89 81.9 66.11 74.84 78.33 81.9"/><polygon class="cls-1" points="90.56 74.84 78.33 81.9 66.11 74.84 78.33 67.78 90.56 74.84"/><polygon class="cls-1" points="102.78 67.78 90.56 74.84 78.33 67.78 90.56 60.73 102.78 67.78"/><polygon class="cls-1" points="29.44 81.9 17.22 88.95 5 81.9 17.22 74.84 29.44 81.9"/><polygon class="cls-1" points="41.67 88.95 29.44 96.01 17.22 88.95 29.44 81.9 41.67 88.95"/><polygon class="cls-1" points="53.89 96.01 41.67 103.07 29.44 96.01 41.67 88.95 53.89 96.01"/><polygon class="cls-1" points="90.56 46.62 78.33 53.67 66.11 46.62 78.33 39.56 90.56 46.62"/><polygon class="cls-1" points="102.78 53.67 90.56 60.73 78.33 53.67 90.56 46.62 102.78 53.67"/><polygon class="cls-1" points="115 60.73 102.78 67.78 90.56 60.73 102.78 53.67 115 60.73"/><polygon class="cls-2" points="102.78 53.67 90.56 46.62 78.33 39.56 66.11 46.62 53.89 53.67 41.67 60.73 29.44 67.78 17.22 74.84 5 81.9 17.22 88.95 29.44 96.01 41.67 103.07 53.89 96.01 66.11 88.95 78.33 81.9 90.56 74.84 102.78 67.78 115 60.73 102.78 53.67"/><polygon class="cls-3" points="115 67.78 41.67 110.12 41.67 103.07 115 60.73 115 67.78"/><polygon class="cls-1" points="5 88.95 41.67 110.12 41.67 103.07 5 81.9 5 88.95"/><polygon class="cls-4" points="102.78 53.67 90.56 46.62 78.33 39.56 66.11 46.62 53.89 53.67 41.67 60.73 29.44 67.78 17.22 74.84 5 81.9 5 81.9 5 88.95 41.67 110.12 115 67.78 115 60.73 102.78 53.67"/><polygon class="cls-5" points="90.56 16.93 78.33 23.99 66.11 16.93 78.33 9.88 90.56 16.93"/><polygon class="cls-6" points="90.56 16.93 90.56 60.73 78.33 67.78 78.33 23.99 90.56 16.93"/><polygon class="cls-7" points="66.11 16.93 66.11 60.73 78.33 67.78 78.33 23.99 66.11 16.93"/><polygon class="cls-8" points="78.33 9.88 66.11 16.93 66.11 60.73 78.33 67.78 90.56 60.73 90.56 16.93 78.33 9.88"/><polygon class="cls-9" points="53.89 81.9 41.67 88.95 29.44 81.9 41.67 74.84 53.89 81.9"/><polygon class="cls-1" points="78.33 49.45 66.11 56.51 53.89 49.45 66.11 42.4 78.33 49.45"/><polygon class="cls-3" points="78.33 49.45 78.33 67.78 66.11 74.84 66.11 56.51 78.33 49.45"/><polygon class="cls-9" points="53.89 49.45 53.89 67.78 66.11 74.84 66.11 56.51 53.89 49.45"/><polygon class="cls-4" points="66.11 42.4 53.89 49.45 53.89 67.78 66.11 74.84 78.33 67.78 78.33 49.45 66.11 42.4"/><polygon class="cls-1" points="66.11 44.29 53.89 51.34 41.67 44.29 53.89 37.23 66.11 44.29"/><polygon class="cls-3" points="66.11 44.29 66.11 74.84 53.89 81.9 53.89 51.34 66.11 44.29"/><polygon class="cls-9" points="41.67 44.29 41.67 74.84 53.89 81.9 53.89 51.34 41.67 44.29"/><polygon class="cls-4" points="53.89 37.23 41.67 44.29 41.67 74.84 53.89 81.9 66.11 74.84 66.11 44.29 53.89 37.23"/><polygon class="cls-1" points="53.89 73.75 41.67 80.81 29.44 73.75 41.67 66.69 53.89 73.75"/><polygon class="cls-3" points="53.89 73.75 53.89 81.9 41.67 88.95 41.67 80.81 53.89 73.75"/><polygon class="cls-9" points="29.44 73.75 29.44 81.9 41.67 88.95 41.67 80.81 29.44 73.75"/><polygon class="cls-4" points="41.67 66.69 29.44 73.75 29.44 81.9 41.67 88.95 53.89 81.9 53.89 73.75 41.67 66.69"/><rect class="cls-10" width="120" height="120"/><rect class="cls-10" width="120" height="120"/></g></g></svg>