<svg xmlns="http://www.w3.org/2000/svg" xmlns:xlink="http://www.w3.org/1999/xlink" viewBox="0 0 120 120"><defs><style>.cls-1,.cls-5,.cls-6{fill:none;}.cls-2{fill:#bde4fd;}.cls-3{fill:#91d2fb;}.cls-4{clip-path:url(#clip-path);}.cls-5{stroke:#fff;}.cls-5,.cls-6{stroke-linecap:round;stroke-linejoin:round;stroke-width:2px;}.cls-6{stroke:#1b6dc6;}</style><clipPath id="clip-path"><path class="cls-1" d="M14.3,69.84c-3.38-2-7.22-8.56-7.22-14.42a5.39,5.39,0,0,1,.3-2L51.8,27.82c1.5,8.31,6.55,16.41,12.91,20.09l41.15,23.75L61.66,97.18Z"/></clipPath></defs><title>blueprint</title><g id="Layer_2" data-name="Layer 2"><g id="Objects"><path class="cls-2" d="M67.75,42.64c-5.7-3.29-10.32-12.12-10.32-19.72,0-3.5,1.15-6,3-7.07l.06,0L4,48.32l-.06,0c-1.83,1.09-3,3.57-3,7.07C1,63,5.62,71.85,11.32,75.14l.07,0,51.25,29.59L119,72.23Z"/><path class="cls-3" d="M57.43,22.92c0-3.5,1.15-6,3-7.07l.06,0L4,48.32l-.06,0c-1.83,1.09-3,3.57-3,7.07a22.27,22.27,0,0,0,.8,5.76L58.21,28.61A22.53,22.53,0,0,1,57.43,22.92Z"/><g class="cls-4"><line class="cls-5" x1="94.81" y1="65.28" x2="50.61" y2="90.8"/><line class="cls-5" x1="83.76" y1="58.9" x2="39.56" y2="84.42"/><line class="cls-5" x1="53.84" y1="25.13" x2="7.83" y2="51.69"/><line class="cls-5" x1="72.71" y1="52.52" x2="28.5" y2="78.04"/><line class="cls-5" x1="61.95" y1="45.97" x2="17.46" y2="71.66"/><line class="cls-5" x1="55.04" y1="37.2" x2="9.2" y2="63.66"/></g><path class="cls-5" d="M18,47.11a13.28,13.28,0,0,0-2.35-.54,8.85,8.85,0,0,0-2.41,0,6.16,6.16,0,0,0-2.26.79A6.07,6.07,0,0,0,9.18,49,9.19,9.19,0,0,0,8,51.09a14,14,0,0,0-.66,2.32,1.3,1.3,0,0,0-.11.32c0,.09,0,.21-.08.33a3.07,3.07,0,0,0-.05.34c0,.1,0,.22,0,.34s0,.22,0,.34v.34a15.25,15.25,0,0,0,.26,2.76A19.34,19.34,0,0,0,8,60.87a24.42,24.42,0,0,0,1.05,2.58,21.75,21.75,0,0,0,1.38,2.42,17.23,17.23,0,0,0,1.7,2.2,9.51,9.51,0,0,0,2.13,1.77L24,75.46l9.73,5.62L43.5,86.7l9.74,5.62,8.42,4.86,44.2-25.52L99.51,68l-8.7-5-8.7-5-8.7-5-8.7-5a20.74,20.74,0,0,1-3.3-2.41,25.68,25.68,0,0,1-2.84-3,30.24,30.24,0,0,1-2.38-3.33,34.55,34.55,0,0,1-1.93-3.61,33.85,33.85,0,0,1-1.47-3.82,30.31,30.31,0,0,1-1-4L46.16,31l-5.64,3.21-5.64,3.21-5.64,3.22L23.6,43.89Z"/><path class="cls-5" d="M51.11,28C46.7,26.59,42,27,40.53,34.27a5.39,5.39,0,0,0-.3,2c0,5.86,3.85,12.47,7.22,14.42L94.81,78"/><path class="cls-5" d="M40.06,34.35c-4.41-1.38-9.1-1-10.58,6.3a5.39,5.39,0,0,0-.3,2c0,5.86,3.85,12.47,7.22,14.42L83.76,84.42"/><path class="cls-5" d="M29,40.73c-4.41-1.38-9.1-.95-10.58,6.3a5.39,5.39,0,0,0-.3,2c0,5.86,3.85,12.47,7.22,14.42L72.71,90.8"/><path class="cls-6" d="M67.75,42.64c-5.7-3.29-10.32-12.12-10.32-19.72,0-3.5,1.15-6,3-7.07l.06,0L4,48.32l-.06,0c-1.83,1.09-3,3.57-3,7.07C1,63,5.62,71.85,11.32,75.14l.07,0,51.25,29.59L119,72.23Z"/><path class="cls-2" d="M71,21.29a14.11,14.11,0,0,0-4.75-5C64,15,62,14.93,60.41,15.85l.06,0L4,48.32l-.06,0c1.54-.92,3.57-.85,5.79.43a14,14,0,0,1,4.75,5Z"/><path class="cls-6" d="M71,21.29a14.11,14.11,0,0,0-4.75-5C64,15,62,14.93,60.41,15.85l.06,0L4,48.32l-.06,0c1.54-.92,3.57-.85,5.79.43a14,14,0,0,1,4.75,5Z"/><polygon class="cls-6" points="39.67 71.6 61.65 58.9 83.65 71.73 61.66 84.42 39.67 71.6"/><polygon class="cls-6" points="39.67 71.6 61.65 58.9 83.65 71.73 61.66 84.42 39.67 71.6"/><line class="cls-6" x1="50.6" y1="52.52" x2="28.5" y2="65.28"/><rect class="cls-1" width="120" height="120"/><rect class="cls-1" width="120" height="120"/></g></g></svg>