<svg xmlns="http://www.w3.org/2000/svg" viewBox="0 0 120 120"><defs><style>.cls-1{fill:#d5dae0;}.cls-1,.cls-3{stroke:#b8bfca;}.cls-1,.cls-3,.cls-4,.cls-5,.cls-8,.cls-9{stroke-linecap:round;stroke-linejoin:round;}.cls-1,.cls-3,.cls-4,.cls-5,.cls-6,.cls-8,.cls-9{stroke-width:2px;}.cls-2,.cls-4{fill:#b8bfca;}.cls-3{fill:#fff;}.cls-4,.cls-6{stroke:#d5dae0;}.cls-10,.cls-5,.cls-6,.cls-8,.cls-9{fill:none;}.cls-5,.cls-8,.cls-9{stroke:#627386;}.cls-6{stroke-miterlimit:10;}.cls-7{fill:#91d2fb;}.cls-8{stroke-dasharray:0 5.4;}.cls-9{stroke-dasharray:0 5.61;}</style></defs><title>built-in-DR</title><g id="Layer_2" data-name="Layer 2"><g id="Tech_Concepts" data-name="Tech Concepts"><path class="cls-1" d="M86.11,64.36,64.76,52a10.51,10.51,0,0,0-9.52,0L33.89,64.36H1V85A3.36,3.36,0,0,0,3,87.7l52.25,30.16a10.51,10.51,0,0,0,9.52,0L117,87.7A3.36,3.36,0,0,0,119,85V64.36Z"/><path class="cls-2" d="M64.76,117.86,117,87.7A3.36,3.36,0,0,0,119,85V64.36H86.11L64.76,52A9.71,9.71,0,0,0,60,50.9V119A9.71,9.71,0,0,0,64.76,117.86Z"/><line class="cls-1" x1="36.84" y1="97.72" x2="21.4" y2="88.81"/><path class="cls-3" d="M117,61.61,64.76,31.45a10.51,10.51,0,0,0-9.52,0L3,61.61c-2.63,1.52-2.63,4,0,5.5L55.24,97.27a10.51,10.51,0,0,0,9.52,0L117,67.11C119.64,65.59,119.64,63.13,117,61.61Z"/><polygon class="cls-4" points="104.77 94.76 77.17 110.7 77.17 101.19 104.77 85.25 104.77 94.76"/><path class="cls-5" d="M117,61.61,64.76,31.45a10.51,10.51,0,0,0-9.52,0L3,61.61a3.36,3.36,0,0,0-2,2.75V85A3.36,3.36,0,0,0,3,87.7l52.25,30.16a10.51,10.51,0,0,0,9.52,0L117,87.7A3.36,3.36,0,0,0,119,85V64.36A3.36,3.36,0,0,0,117,61.61Z"/><ellipse class="cls-2" cx="105.49" cy="64.36" rx="2.67" ry="1.54"/><ellipse class="cls-2" cx="60" cy="90.63" rx="2.67" ry="1.54"/><ellipse class="cls-2" cx="60" cy="38.09" rx="2.67" ry="1.54"/><ellipse class="cls-2" cx="14.51" cy="64.36" rx="2.67" ry="1.54"/><path class="cls-1" d="M63.17,48.82l13.71,7.91C85,61.41,84,69.52,79.05,75.36c-10.11,2.85-24.16,3.43-32.26-1.25L33.08,66.19c6.24-3.6,8.46-12.46,8.46-12.46S56.93,52.42,63.17,48.82Z"/><path class="cls-3" d="M41.54,61.39s15.39-1.31,21.63-4.91l13.71,7.91a11.71,11.71,0,0,1,5.26,5.66c1.68-4.8.58-9.95-5.26-13.32L63.17,48.82c-6.24,3.6-21.63,4.91-21.63,4.91s-2.22,8.86-8.46,12.46L38,69A27.1,27.1,0,0,0,41.54,61.39Z"/><path class="cls-2" d="M41.54,61.39s15.39-1.31,21.63-4.91l13.71,7.91a11.71,11.71,0,0,1,5.26,5.66c1.68-4.8.58-9.95-5.26-13.32L63.17,48.82c-6.24,3.6-21.63,4.91-21.63,4.91s-2.22,8.86-8.46,12.46L38,69A27.1,27.1,0,0,0,41.54,61.39Z"/><path class="cls-5" d="M63.17,48.82l13.71,7.91C85,61.41,84,69.52,79.05,75.36c-10.11,2.85-24.16,3.43-32.26-1.25L33.08,66.19c6.24-3.6,8.46-12.46,8.46-12.46S56.93,52.42,63.17,48.82Z"/><path class="cls-2" d="M82.87,18.25H80.63a13.46,13.46,0,0,0-3.75-3.11L63.17,7.22c-6.24,3.61-21.63,4.92-21.63,4.92a27.34,27.34,0,0,1-2.62,6.22H33.08V24.6l13.71,7.91c8.1,4.68,22.15,4.1,32.26,1.26a14.77,14.77,0,0,0,3.8-9.29h0Z"/><path class="cls-3" d="M63.17,1,76.88,8.91C85,13.6,84,21.7,79.05,27.54,68.94,30.39,54.89,31,46.79,26.29L33.08,18.37c6.24-3.6,8.46-12.46,8.46-12.46S56.93,4.61,63.17,1Z"/><path class="cls-6" d="M63,27.67c-6.29,0-11.52-1.1-15.13-3.18l-11-6.34A25.68,25.68,0,0,0,43.12,7.84c3.79-.4,14.19-1.7,20-4.47l12.72,7.34c2.77,1.6,4.4,3.68,4.83,6.16.49,2.76-.54,6-2.81,8.85A59.16,59.16,0,0,1,63,27.67Z"/><path class="cls-5" d="M82.85,18.25c0-3.51-1.73-6.89-6-9.34L63.17,1C56.93,4.61,41.54,5.91,41.54,5.91s-2.22,8.86-8.46,12.46h0V24.6l13.71,7.91c8.1,4.68,22.15,4.1,32.26,1.26a14.77,14.77,0,0,0,3.8-9.29h0V18.25Z"/><path class="cls-7" d="M50.59,18.84l4-2.32-4-2.32a.61.61,0,0,1,0-1.16l2.88-1.67a2.25,2.25,0,0,1,2,0l4,2.32,4-2.32a2.22,2.22,0,0,1,2,0L68.42,13a.61.61,0,0,1,0,1.16l-4,2.32,4,2.32a.61.61,0,0,1,0,1.16l-2.88,1.67a2.22,2.22,0,0,1-2,0l-4-2.32-4,2.32a2.25,2.25,0,0,1-2,0L50.59,20A.61.61,0,0,1,50.59,18.84Z"/><line class="cls-5" x1="82.87" y1="36.5" x2="82.87" y2="36.5"/><line class="cls-8" x1="82.87" y1="41.9" x2="82.87" y2="55.4"/><line class="cls-5" x1="82.87" y1="58.1" x2="82.87" y2="58.1"/><line class="cls-5" x1="33.08" y1="33" x2="33.08" y2="33"/><line class="cls-9" x1="33.08" y1="38.6" x2="33.08" y2="58.23"/><line class="cls-5" x1="33.08" y1="61.03" x2="33.08" y2="61.03"/><rect class="cls-10" width="120" height="120"/><rect class="cls-10" width="120" height="120"/></g></g></svg>