<svg xmlns="http://www.w3.org/2000/svg" viewBox="0 0 120 120"><defs><style>.cls-1,.cls-6{fill:#fff;}.cls-1{stroke:#b8bfca;}.cls-1,.cls-3,.cls-4,.cls-5,.cls-8{stroke-linecap:round;stroke-linejoin:round;stroke-width:2px;}.cls-2{fill:#d5dae0;}.cls-3,.cls-7{fill:#b8bfca;}.cls-3,.cls-4,.cls-5{stroke:#627386;}.cls-4,.cls-8,.cls-9{fill:none;}.cls-5{fill:#627386;}.cls-8{stroke:#91d2fb;}</style></defs><title>chart-with-line-graph</title><g id="Layer_2" data-name="Layer 2"><g id="New_Icon_Set" data-name="New Icon Set"><path class="cls-1" d="M100.41,5.94,92,1.08h0a.76.76,0,0,0-.79,0L20.39,42a2.93,2.93,0,0,0-1.23,2.34v68.71a1.07,1.07,0,0,0,.43,1h0L28,118.92l7.08-13.41L91.2,67.59a2.93,2.93,0,0,0,1.22-2.34V16.59Z"/><path class="cls-2" d="M27.58,118.67V37.87L20.39,42a2.93,2.93,0,0,0-1.23,2.34v68.71a1.07,1.07,0,0,0,.43,1h0Z"/><path class="cls-3" d="M66.81,81.67,91.2,67.59a2.93,2.93,0,0,0,1.22-2.34V16.59l8-10.65L92,1.08h0a.76.76,0,0,0-.79,0L20.39,42a2.93,2.93,0,0,0-1.23,2.34v9.8Z"/><path class="cls-2" d="M69.08,73.18,92.42,40.61v-24l8-10.65L92,1.08h0a.76.76,0,0,0-.79,0L20.39,42a2.93,2.93,0,0,0-1.23,2.34h0Z"/><path class="cls-1" d="M99.61,78,28.8,118.85c-.67.39-1.22,0-1.22-.92V49.22a3,3,0,0,1,1.22-2.34L99.61,6c.68-.39,1.23,0,1.23.93v68.7A2.93,2.93,0,0,1,99.61,78Z"/><path class="cls-4" d="M100.41,5.94h0L92,1.08h0a.76.76,0,0,0-.79,0L20.39,42a2.93,2.93,0,0,0-1.23,2.34v68.71a1.07,1.07,0,0,0,.43,1h0L28,118.92h0a.76.76,0,0,0,.79-.06L99.61,78a2.93,2.93,0,0,0,1.23-2.34V6.93A1.08,1.08,0,0,0,100.41,5.94Z"/><path class="cls-5" d="M100.84,16.72V6.93c0-.9-.55-1.32-1.23-.93L28.8,46.88a3,3,0,0,0-1.22,2.34V59Z"/><ellipse class="cls-2" cx="38.79" cy="47.11" rx="2.12" ry="1.2" transform="translate(-19.75 64.36) rotate(-66.95)"/><ellipse class="cls-6" cx="44.11" cy="44.04" rx="2.12" ry="1.2" transform="translate(-13.69 67.38) rotate(-66.95)"/><ellipse class="cls-7" cx="33.25" cy="50.31" rx="2.12" ry="1.2" transform="translate(-26.06 61.21) rotate(-66.95)"/><polyline class="cls-8" points="90.85 44.7 78.59 60.18 69.16 66.44 55.43 85.39 44.3 85.39 37.53 103.47"/><line class="cls-1" x1="37.53" y1="103.47" x2="90.89" y2="72.66"/><line class="cls-1" x1="37.53" y1="65.59" x2="37.53" y2="103.47"/><rect class="cls-9" width="120" height="120"/><rect class="cls-9" width="120" height="120"/></g></g></svg>