<svg xmlns="http://www.w3.org/2000/svg" viewBox="0 0 120 120"><defs><style>.cls-1,.cls-6{fill:#d5dae0;}.cls-1,.cls-3{stroke:#b8bfca;}.cls-1,.cls-3,.cls-4,.cls-5,.cls-7,.cls-8{stroke-linecap:round;stroke-linejoin:round;stroke-width:2px;}.cls-2,.cls-4{fill:#b8bfca;}.cls-3{fill:#fff;}.cls-4{stroke:#d5dae0;}.cls-5,.cls-8,.cls-9{fill:none;}.cls-5{stroke:#627386;}.cls-7{fill:#bde4fd;stroke:#bde4fd;}.cls-8{stroke:#91d2fb;}</style></defs><title>cloud-node</title><g id="Layer_2" data-name="Layer 2"><g id="New_Icon_Set" data-name="New Icon Set"><path class="cls-1" d="M86.12,49.7,64.76,37.37a10.51,10.51,0,0,0-9.52,0L33.88,49.7H1V70.3a3.36,3.36,0,0,0,2,2.75l52.27,30.17a10.51,10.51,0,0,0,9.52,0L117,73.05a3.36,3.36,0,0,0,2-2.75V49.7Z"/><path class="cls-2" d="M64.76,103.22,117,73.05a3.36,3.36,0,0,0,2-2.75V49.7H86.12L64.76,37.37A9.71,9.71,0,0,0,60,36.23v68.13A9.71,9.71,0,0,0,64.76,103.22Z"/><line class="cls-1" x1="36.83" y1="83.08" x2="21.38" y2="74.16"/><path class="cls-3" d="M117,47,64.76,16.78a10.51,10.51,0,0,0-9.52,0L3,47c-2.63,1.52-2.63,4,0,5.5L55.24,82.63a10.51,10.51,0,0,0,9.52,0L117,52.45C119.66,50.93,119.66,48.47,117,47Z"/><polygon class="cls-4" points="104.79 80.11 77.18 96.06 77.18 86.54 104.79 70.6 104.79 80.11"/><path class="cls-5" d="M117,47,64.76,16.78a10.51,10.51,0,0,0-9.52,0L3,47A3.36,3.36,0,0,0,1,49.7V70.3a3.36,3.36,0,0,0,2,2.75l52.27,30.17a10.51,10.51,0,0,0,9.52,0L117,73.05a3.36,3.36,0,0,0,2-2.75V49.7A3.36,3.36,0,0,0,117,47Z"/><ellipse class="cls-6" cx="105.51" cy="49.7" rx="2.68" ry="1.54"/><ellipse class="cls-6" cx="60" cy="75.98" rx="2.68" ry="1.54"/><ellipse class="cls-6" cx="60" cy="23.43" rx="2.68" ry="1.54"/><ellipse class="cls-6" cx="14.49" cy="49.7" rx="2.68" ry="1.54"/><path class="cls-7" d="M46.49,46.9c5.13-3,13.29-3.13,18.75-.48l4.86-2.81a13,13,0,0,1,11.8,0,6.44,6.44,0,0,1,1.23.91c2-1.85,1.55-4.3-1.23-5.91a13,13,0,0,0-11.8,0l-4.86,2.81c-5.46-2.65-13.62-2.49-18.75.48-3.83,2.21-5,5.39-3.38,8.17A8.77,8.77,0,0,1,46.49,46.9Z"/><path class="cls-7" d="M39.57,61.44a6.68,6.68,0,0,1,1.22-.91l4.86-2.8a7.67,7.67,0,0,1-2.88-3.34l-2,1.14C38,57.14,37.61,59.59,39.57,61.44Z"/><polygon class="cls-7" points="42.42 57.73 45.65 57.73 45.65 52.73 42.42 55.56 42.42 57.73"/><path class="cls-8" d="M70.1,38.61l-4.86,2.81c-5.46-2.65-13.62-2.49-18.75.48s-5.42,7.67-.84,10.83l-4.86,2.8c-3.26,1.89-3.26,4.94,0,6.82a13,13,0,0,0,11.8,0L81.9,45.43c3.26-1.89,3.26-4.94,0-6.82h0A13,13,0,0,0,70.1,38.61Z"/><rect class="cls-9" width="120" height="120"/><rect class="cls-9" width="120" height="120"/></g></g></svg>