<svg xmlns="http://www.w3.org/2000/svg" viewBox="0 0 120 120"><defs><style>.cls-1{fill:#fff;}.cls-2{fill:#d5dae0;}.cls-3,.cls-4,.cls-5{fill:none;}.cls-3{stroke:#b8bfca;}.cls-3,.cls-4{stroke-linecap:round;stroke-linejoin:round;stroke-width:2px;}.cls-4{stroke:#627386;}</style></defs><title>cloud-grey</title><g id="Layer_2" data-name="Layer 2"><g id="Objects"><path class="cls-1" d="M114.18,31.4h0L93.29,19.34h0c-2.44-1.41-5.62-1.29-9.11.72L82.66,21,64.75,10.61h0c-4.08-2.35-9.38-2.14-15.19,1.22C37.42,18.84,27.47,37,26.42,53.41L14.94,60C7.24,64.49,1,76.41,1,86.68H1c0,5.61,1.88,9.55,4.83,11.25v0L26.71,110h0c2.44,1.42,5.63,1.29,9.12-.73l69.23-40C112.76,64.86,119,52.93,119,42.67h0C119,37.05,117.13,33.1,114.18,31.4Z"/><path class="cls-2" d="M105.06,32.13,93.58,38.76c-1-15.21-11-21.87-23.14-14.86S48.35,49.05,47.31,65.47L35.83,72.1c-7.7,4.45-13.94,16.37-13.94,26.64s6.24,15,13.94,10.53l69.23-40C112.76,64.86,119,52.93,119,42.67h0C119,32.4,112.76,27.69,105.06,32.13Z"/><path class="cls-3" d="M105.06,32.13,93.58,38.76c-1-15.21-11-21.87-23.14-14.86S48.35,49.05,47.31,65.47L35.83,72.1c-7.7,4.45-13.94,16.37-13.94,26.64"/><path class="cls-4" d="M114.18,31.4h0L93.29,19.34h0c-2.44-1.41-5.62-1.29-9.11.72L82.66,21,64.75,10.61h0c-4.08-2.35-9.38-2.14-15.19,1.22C37.42,18.84,27.47,37,26.42,53.41L14.94,60C7.24,64.49,1,76.41,1,86.68H1c0,5.61,1.88,9.55,4.83,11.25v0L26.71,110h0c2.44,1.42,5.63,1.29,9.12-.73l69.23-40C112.76,64.86,119,52.93,119,42.67h0C119,37.05,117.13,33.1,114.18,31.4Z"/><rect class="cls-5" width="120" height="120"/><rect class="cls-5" width="120" height="120"/></g></g></svg>