<svg xmlns="http://www.w3.org/2000/svg" viewBox="0 0 120 120"><defs><style>.cls-1{fill:#d5dae0;}.cls-1,.cls-3{stroke:#b8bfca;}.cls-1,.cls-10,.cls-11,.cls-12,.cls-13,.cls-3,.cls-4,.cls-5,.cls-8,.cls-9{stroke-linecap:round;stroke-linejoin:round;}.cls-1,.cls-10,.cls-11,.cls-12,.cls-13,.cls-3,.cls-4,.cls-5,.cls-8{stroke-width:2px;}.cls-2,.cls-4{fill:#b8bfca;}.cls-3,.cls-8{fill:#fff;}.cls-4{stroke:#d5dae0;}.cls-10,.cls-12,.cls-13,.cls-14,.cls-5{fill:none;}.cls-5{stroke:#627386;}.cls-6{fill:#91d2fb;}.cls-11,.cls-7{fill:#bde4fd;}.cls-11,.cls-12,.cls-8{stroke:#91d2fb;}.cls-9{fill:#1b6dc6;}.cls-10,.cls-9{stroke:#1b6dc6;}.cls-13{stroke:#fff;}</style></defs><title>cluster-lockdown</title><g id="Layer_2" data-name="Layer 2"><g id="Objects"><path class="cls-1" d="M79.32,78.57l-15.8-9.12a7.8,7.8,0,0,0-7,0l-15.8,9.12H16.36V93.81a2.48,2.48,0,0,0,1.46,2l38.66,22.32a7.8,7.8,0,0,0,7,0l38.66-22.32a2.48,2.48,0,0,0,1.46-2V78.57Z"/><path class="cls-2" d="M63.52,118.16l38.66-22.32a2.48,2.48,0,0,0,1.46-2V78.57H79.32l-15.8-9.12A7.19,7.19,0,0,0,60,68.61V119A7.19,7.19,0,0,0,63.52,118.16Z"/><line class="cls-1" x1="42.86" y1="103.26" x2="31.43" y2="96.66"/><path class="cls-3" d="M102.18,76.54,63.52,54.22a7.8,7.8,0,0,0-7,0L17.82,76.54c-2,1.12-2,2.94,0,4.07l38.66,22.31a7.73,7.73,0,0,0,7,0l38.66-22.31C104.13,79.48,104.13,77.66,102.18,76.54Z"/><polygon class="cls-4" points="93.13 101.07 72.7 112.86 72.7 105.82 93.13 94.03 93.13 101.07"/><path class="cls-5" d="M102.18,76.54,63.52,54.22a7.8,7.8,0,0,0-7,0L17.82,76.54a2.48,2.48,0,0,0-1.46,2V93.81a2.48,2.48,0,0,0,1.46,2l38.66,22.32a7.8,7.8,0,0,0,7,0l38.66-22.32a2.48,2.48,0,0,0,1.46-2V78.57A2.48,2.48,0,0,0,102.18,76.54Z"/><ellipse class="cls-2" cx="93.66" cy="78.57" rx="1.98" ry="1.14"/><ellipse class="cls-2" cx="60" cy="98.01" rx="1.98" ry="1.14"/><ellipse class="cls-2" cx="60" cy="59.14" rx="1.98" ry="1.14"/><ellipse class="cls-2" cx="26.34" cy="78.57" rx="1.98" ry="1.14"/><path class="cls-1" d="M79.32,63.34l-15.8-9.12a7.8,7.8,0,0,0-7,0l-15.8,9.12H16.36V78.57a2.5,2.5,0,0,0,1.46,2l38.66,22.31a7.73,7.73,0,0,0,7,0l38.66-22.31a2.5,2.5,0,0,0,1.46-2V63.34Z"/><path class="cls-2" d="M63.52,102.92l38.66-22.31a2.5,2.5,0,0,0,1.46-2V63.34H79.32l-15.8-9.12A7.19,7.19,0,0,0,60,53.38v50.39A7.08,7.08,0,0,0,63.52,102.92Z"/><line class="cls-1" x1="42.86" y1="88.02" x2="31.43" y2="81.43"/><path class="cls-3" d="M102.18,61.3,63.52,39a7.73,7.73,0,0,0-7,0L17.82,61.3c-2,1.13-2,3,0,4.07L56.48,87.69a7.8,7.8,0,0,0,7,0l38.66-22.32C104.13,64.25,104.13,62.43,102.18,61.3Z"/><polygon class="cls-4" points="93.13 85.83 72.7 97.62 72.7 90.58 93.13 78.79 93.13 85.83"/><path class="cls-5" d="M102.18,61.3,63.52,39a7.73,7.73,0,0,0-7,0L17.82,61.3a2.5,2.5,0,0,0-1.46,2V78.57a2.5,2.5,0,0,0,1.46,2l38.66,22.31a7.71,7.71,0,0,0,7,0l38.66-22.31a2.5,2.5,0,0,0,1.46-2V63.34A2.5,2.5,0,0,0,102.18,61.3Z"/><ellipse class="cls-2" cx="93.66" cy="63.34" rx="1.98" ry="1.14"/><ellipse class="cls-2" cx="60" cy="82.77" rx="1.98" ry="1.14"/><ellipse class="cls-2" cx="60" cy="43.9" rx="1.98" ry="1.14"/><ellipse class="cls-2" cx="26.34" cy="63.34" rx="1.98" ry="1.14"/><path class="cls-6" d="M42.82,36.07V67.76a2.59,2.59,0,0,0,1.52,2.12l4.11,2.37a8.09,8.09,0,0,0,7.33,0l20-11.54a2.56,2.56,0,0,0,1.52-2.12V26.9Z"/><path class="cls-7" d="M52.05,33.61l-9.23,2.46V67.76a2.59,2.59,0,0,0,1.52,2.12l4.11,2.37a7.43,7.43,0,0,0,3.6.87Z"/><path class="cls-8" d="M75.77,29l-20,11.54a8.09,8.09,0,0,1-7.33,0l-4.11-2.37c-2-1.17-2-3.07,0-4.24l20-11.54a8.11,8.11,0,0,1,7.34,0l4.1,2.37C77.8,26,77.8,27.85,75.77,29Z"/><path class="cls-9" d="M68.57,46.23c0-2-1.25-3-2.79-2.11A6.69,6.69,0,0,0,63,49.45c0,1.35.55,2.22,1.35,2.4L63.78,59l4-2.32-.56-6.51A7.15,7.15,0,0,0,68.57,46.23Z"/><path class="cls-10" d="M75.77,24.78l-4.1-2.37a8.11,8.11,0,0,0-7.34,0L44.34,34a2.59,2.59,0,0,0-1.52,2.12V67.76a2.59,2.59,0,0,0,1.52,2.12l4.11,2.37a8.09,8.09,0,0,0,7.33,0l20-11.54a2.56,2.56,0,0,0,1.52-2.12V26.9A2.57,2.57,0,0,0,75.77,24.78Z"/><path class="cls-11" d="M67.22,2.05c-2.66-1.54-6-1.38-9.13.43-5.6,3.23-10,11.47-10,18.75v14h0c0,1.23,1.72,2.23,3.85,2.23s3.86-1,3.86-2.23h0v-14c0-4.55,2.87-10.18,6.14-12.07a2.13,2.13,0,0,1,1.42-.43c.28.17.85,1.16.85,3.18v14h0c0,1.23,1.73,2.22,3.86,2.22s3.86-1,3.86-2.22h0v-14C71.94,7.38,70.22,3.78,67.22,2.05Z"/><path class="cls-10" d="M67.22,2.05c-2.66-1.54-6-1.38-9.13.43-5.6,3.23-10,11.47-10,18.75v14h0c0,1.23,1.72,2.23,3.85,2.23s3.86-1,3.86-2.23h0v-14c0-4.55,2.87-10.18,6.14-12.07a2.13,2.13,0,0,1,1.42-.43c.28.17.85,1.16.85,3.18v14h0c0,1.23,1.73,2.22,3.86,2.22s3.86-1,3.86-2.22h0v-14C71.94,7.38,70.22,3.78,67.22,2.05Z"/><path class="cls-12" d="M54.58,16.28a16.41,16.41,0,0,0-.83,4.95V35a3.32,3.32,0,0,1-1.8.43"/><path class="cls-12" d="M68.39,6a11.12,11.12,0,0,1,1.49,5.92V25.67a3.35,3.35,0,0,1-1.8.43"/><path class="cls-13" d="M52.33,12.29A19.67,19.67,0,0,1,58,5"/><rect class="cls-14" width="120" height="120"/><rect class="cls-14" width="120" height="120"/></g></g></svg>