<svg xmlns="http://www.w3.org/2000/svg" viewBox="0 0 120 120"><defs><style>.cls-1,.cls-11,.cls-2,.cls-3,.cls-4{fill:none;}.cls-1,.cls-2{stroke:#627386;}.cls-1,.cls-2,.cls-3,.cls-4,.cls-9{stroke-linecap:round;stroke-linejoin:round;stroke-width:2px;}.cls-2{stroke-dasharray:0 7.82;}.cls-3,.cls-4{stroke:#1b6dc6;}.cls-4{stroke-dasharray:0 7.79;}.cls-5{fill:#bde4fd;}.cls-6{fill:#91d2fb;}.cls-7{fill:#fff;}.cls-8{fill:#d5dae0;}.cls-10,.cls-9{fill:#b8bfca;}.cls-9{stroke:#b8bfca;}</style></defs><title>community-&amp;amp;-support</title><g id="Layer_2" data-name="Layer 2"><g id="Industries"><line class="cls-1" x1="63.01" y1="3.92" x2="63.01" y2="3.92"/><path class="cls-2" d="M70.31,1.19C79.26-.23,86,6.34,87.17,18.41"/><line class="cls-1" x1="87.36" y1="22.32" x2="87.36" y2="22.32"/><line class="cls-3" x1="32.88" y1="53.77" x2="32.88" y2="53.77"/><path class="cls-4" d="M33.52,46C35.79,31.71,43.91,17,54,9.42"/><line class="cls-3" x1="57.23" y1="7.26" x2="57.23" y2="7.26"/><path class="cls-5" d="M30.11,81.79c10.44,0,25.38,9.31,25.38,27.71,0,9.84-16.81,11.1-29,8S10,108.33,10,102C10,91.8,18.84,81.79,30.11,81.79Z"/><path class="cls-6" d="M39.28,115.74a3.06,3.06,0,0,0,3.36,3.05c7.16-.75,12.85-3.57,12.85-9.29a30.26,30.26,0,0,0-1.33-9,7.6,7.6,0,0,0-7.26-5.31h0a7.62,7.62,0,0,0-7.62,7.61Z"/><path class="cls-3" d="M30.11,81.79c10.44,0,25.38,9.31,25.38,27.71,0,9.84-16.81,11.1-29,8S10,108.33,10,102C10,91.8,18.84,81.79,30.11,81.79Z"/><circle class="cls-5" cx="32.88" cy="68.93" r="17.67"/><path class="cls-6" d="M32.88,51.26A17.67,17.67,0,1,0,50.56,68.93,17.67,17.67,0,0,0,32.88,51.26ZM38.7,74.74c-5.58,5.58-14.2,6-19.25,1S14.81,62,20.39,56.43s14.2-6,19.25-.94S44.28,69.17,38.7,74.74Z"/><circle class="cls-3" cx="32.88" cy="68.93" r="17.67"/><ellipse class="cls-7" cx="24.87" cy="60.91" rx="4.76" ry="2.94" transform="translate(-35.79 35.42) rotate(-45)"/><ellipse class="cls-7" cx="18.77" cy="92.42" rx="3.69" ry="2.28" transform="translate(-59.85 40.35) rotate(-45)"/><path class="cls-8" d="M84.58,50.35C95,50.35,110,59.65,110,78.05c0,9.84-16.8,11.1-29,8S64.51,76.88,64.51,70.59C64.51,60.35,73.31,50.35,84.58,50.35Z"/><path class="cls-9" d="M93.75,84.29a3.06,3.06,0,0,0,3.36,3c7.16-.75,12.85-3.57,12.85-9.29a29.94,29.94,0,0,0-1.33-9,7.6,7.6,0,0,0-7.26-5.31h0a7.62,7.62,0,0,0-7.62,7.62Z"/><path class="cls-1" d="M84.58,50.35C95,50.35,110,59.65,110,78.05c0,9.84-16.8,11.1-29,8S64.51,76.88,64.51,70.59C64.51,60.35,73.31,50.35,84.58,50.35Z"/><circle class="cls-8" cx="87.36" cy="37.48" r="17.67"/><path class="cls-10" d="M87.36,19.81A17.67,17.67,0,1,0,105,37.48,17.68,17.68,0,0,0,87.36,19.81ZM93.17,43.3c-5.58,5.57-14.2,6-19.25.94S69.28,30.56,74.86,25s14.2-6,19.25-.95S98.75,37.72,93.17,43.3Z"/><circle class="cls-1" cx="87.36" cy="37.48" r="17.67"/><ellipse class="cls-7" cx="79.34" cy="29.46" rx="4.76" ry="2.94" transform="translate(2.4 64.73) rotate(-45)"/><ellipse class="cls-7" cx="73.25" cy="60.97" rx="3.69" ry="2.28" transform="translate(-21.66 69.65) rotate(-45)"/><line class="cls-1" x1="63.01" y1="3.92" x2="63.01" y2="3.92"/><path class="cls-2" d="M70.31,1.19C79.26-.23,86,6.34,87.17,18.41"/><line class="cls-1" x1="87.36" y1="22.32" x2="87.36" y2="22.32"/><line class="cls-3" x1="32.88" y1="53.77" x2="32.88" y2="53.77"/><path class="cls-4" d="M33.52,46C35.79,31.71,43.91,17,54,9.42"/><line class="cls-3" x1="57.23" y1="7.26" x2="57.23" y2="7.26"/><path class="cls-5" d="M30.11,81.79c10.44,0,25.38,9.31,25.38,27.71,0,9.84-16.81,11.1-29,8S10,108.33,10,102C10,91.8,18.84,81.79,30.11,81.79Z"/><path class="cls-6" d="M39.28,115.74a3.06,3.06,0,0,0,3.36,3.05c7.16-.75,12.85-3.57,12.85-9.29a30.26,30.26,0,0,0-1.33-9,7.6,7.6,0,0,0-7.26-5.31h0a7.62,7.62,0,0,0-7.62,7.61Z"/><path class="cls-3" d="M30.11,81.79c10.44,0,25.38,9.31,25.38,27.71,0,9.84-16.81,11.1-29,8S10,108.33,10,102C10,91.8,18.84,81.79,30.11,81.79Z"/><circle class="cls-5" cx="32.88" cy="68.93" r="17.67"/><path class="cls-6" d="M32.88,51.26A17.67,17.67,0,1,0,50.56,68.93,17.67,17.67,0,0,0,32.88,51.26ZM38.7,74.74c-5.58,5.58-14.2,6-19.25,1S14.81,62,20.39,56.43s14.2-6,19.25-.94S44.28,69.17,38.7,74.74Z"/><circle class="cls-3" cx="32.88" cy="68.93" r="17.67"/><ellipse class="cls-7" cx="24.87" cy="60.91" rx="4.76" ry="2.94" transform="translate(-35.79 35.42) rotate(-45)"/><ellipse class="cls-7" cx="18.77" cy="92.42" rx="3.69" ry="2.28" transform="translate(-59.85 40.35) rotate(-45)"/><path class="cls-8" d="M84.58,50.35C95,50.35,110,59.65,110,78.05c0,9.84-16.8,11.1-29,8S64.51,76.88,64.51,70.59C64.51,60.35,73.31,50.35,84.58,50.35Z"/><path class="cls-9" d="M93.75,84.29a3.06,3.06,0,0,0,3.36,3c7.16-.75,12.85-3.57,12.85-9.29a29.94,29.94,0,0,0-1.33-9,7.6,7.6,0,0,0-7.26-5.31h0a7.62,7.62,0,0,0-7.62,7.62Z"/><path class="cls-1" d="M84.58,50.35C95,50.35,110,59.65,110,78.05c0,9.84-16.8,11.1-29,8S64.51,76.88,64.51,70.59C64.51,60.35,73.31,50.35,84.58,50.35Z"/><circle class="cls-8" cx="87.36" cy="37.48" r="17.67"/><path class="cls-10" d="M87.36,19.81A17.67,17.67,0,1,0,105,37.48,17.68,17.68,0,0,0,87.36,19.81ZM93.17,43.3c-5.58,5.57-14.2,6-19.25.94S69.28,30.56,74.86,25s14.2-6,19.25-.95S98.75,37.72,93.17,43.3Z"/><circle class="cls-1" cx="87.36" cy="37.48" r="17.67"/><ellipse class="cls-7" cx="79.34" cy="29.46" rx="4.76" ry="2.94" transform="translate(2.4 64.73) rotate(-45)"/><ellipse class="cls-7" cx="73.25" cy="60.97" rx="3.69" ry="2.28" transform="translate(-21.66 69.65) rotate(-45)"/><rect class="cls-11" width="120" height="120"/><rect class="cls-11" width="120" height="120"/></g></g></svg>