<svg xmlns="http://www.w3.org/2000/svg" viewBox="0 0 120 120"><defs><style>.cls-1,.cls-5{fill:#fff;}.cls-1,.cls-2{stroke:#b8bfca;}.cls-1,.cls-2,.cls-3,.cls-5,.cls-6,.cls-7,.cls-8{stroke-linecap:round;stroke-linejoin:round;stroke-width:2px;}.cls-2{fill:#d5dae0;}.cls-3,.cls-8,.cls-9{fill:none;}.cls-3{stroke:#627386;}.cls-4{fill:#b8bfca;}.cls-5,.cls-6,.cls-7{stroke:#91d2fb;}.cls-6{fill:#91d2fb;}.cls-7{fill:#bde4fd;}.cls-8{stroke:#1b6dc6;}</style></defs><title>component</title><g id="Layer_2" data-name="Layer 2"><g id="Objects"><polygon class="cls-1" points="85.59 70.85 99.68 62.72 104.84 73.83 110 84.94 90.75 81.97 71.5 78.99 85.59 70.85"/><polygon class="cls-2" points="110 84.94 110 107.86 71.5 101.91 71.5 78.99 110 84.94"/><polygon class="cls-3" points="104.84 73.83 99.68 62.72 85.59 70.85 71.5 78.99 71.5 101.91 90.75 104.88 110 107.86 110 84.94 104.84 73.83"/><path class="cls-2" d="M10,58.23V81.15h0c0,2.69,1.78,5.39,5.35,7.45,7.13,4.11,18.68,4.11,25.81,0,3.57-2.06,5.35-4.76,5.35-7.45V58.23Z"/><path class="cls-4" d="M28.25,91.68A26.33,26.33,0,0,0,41.16,88.6c3.57-2.06,5.35-4.76,5.35-7.45V58.23H28.25Z"/><ellipse class="cls-1" cx="28.25" cy="58.23" rx="18.25" ry="10.54"/><path class="cls-3" d="M46.51,58.23c0-2.7-1.78-5.4-5.35-7.45-7.13-4.12-18.68-4.12-25.81,0-3.57,2-5.35,4.75-5.35,7.45h0V81.15c0,2.69,1.78,5.39,5.35,7.45,5.17,3,12.66,3.79,19.11,2.45a22.83,22.83,0,0,0,6.7-2.45c3.57-2.06,5.35-4.76,5.35-7.45V58.23Z"/><polygon class="cls-1" points="96.66 47.06 75.87 35.06 55.08 47.06 75.87 59.06 96.66 47.06"/><polygon class="cls-5" points="96.66 24.14 75.87 12.14 55.08 24.14 75.87 36.14 96.66 24.14"/><polygon class="cls-6" points="96.66 24.14 96.66 47.06 75.87 59.06 75.87 36.14 96.66 24.14"/><polygon class="cls-7" points="55.08 24.14 55.08 47.06 75.87 59.06 75.87 36.14 55.08 24.14"/><polygon class="cls-8" points="75.87 12.14 55.08 24.14 55.08 47.06 75.87 59.06 96.66 47.06 96.66 24.14 75.87 12.14"/><rect class="cls-9" width="120" height="120"/><rect class="cls-9" width="120" height="120"/></g></g></svg>