<svg xmlns="http://www.w3.org/2000/svg" viewBox="0 0 120 120"><defs><style>.cls-1,.cls-13,.cls-14,.cls-2,.cls-6,.cls-7,.cls-9{fill:none;}.cls-1,.cls-2,.cls-6{stroke:#1b6dc6;}.cls-1,.cls-11,.cls-12,.cls-13,.cls-2,.cls-3,.cls-6,.cls-7,.cls-9{stroke-linecap:round;stroke-linejoin:round;stroke-width:2px;}.cls-2{stroke-dasharray:0 4.96;}.cls-3{fill:#bde4fd;stroke:#91d2fb;}.cls-4{fill:#1b6dc6;}.cls-12,.cls-5{fill:#fff;}.cls-6{stroke-dasharray:0 5.12;}.cls-11,.cls-12,.cls-7{stroke:#b8bfca;}.cls-8{fill:#b8bfca;}.cls-9{stroke:#d5dae0;}.cls-10,.cls-11{fill:#d5dae0;}.cls-13{stroke:#627386;}</style></defs><title>consumer-financial-services</title><g id="Layer_2" data-name="Layer 2"><g id="Industries"><line class="cls-1" x1="65.44" y1="35.78" x2="65.44" y2="35.78"/><line class="cls-2" x1="61.15" y1="38.26" x2="54.71" y2="41.98"/><line class="cls-1" x1="52.56" y1="43.22" x2="52.56" y2="43.22"/><path class="cls-3" d="M65.44,37l31.8,18.36a2.41,2.41,0,0,0,2.16,0l19.15-11.06c.6-.34.6-.9,0-1.25L86.76,24.72a2.44,2.44,0,0,0-2.17,0L65.44,35.78C64.84,36.12,64.84,36.68,65.44,37Z"/><polygon class="cls-4" points="77.15 29.02 111.11 48.63 115.27 46.23 81.31 26.62 77.15 29.02"/><polygon class="cls-5" points="86.37 43.3 99.74 51.02 103.59 48.8 90.21 41.08 86.37 43.3"/><path class="cls-1" d="M65.44,37l31.8,18.36a2.41,2.41,0,0,0,2.16,0l19.15-11.06c.6-.34.6-.9,0-1.25L86.76,24.72a2.44,2.44,0,0,0-2.17,0L65.44,35.78C64.84,36.12,64.84,36.68,65.44,37Z"/><line class="cls-3" x1="85.17" y1="40.29" x2="75.98" y2="34.98"/><line class="cls-1" x1="99.4" y1="55.39" x2="99.4" y2="55.39"/><line class="cls-6" x1="94.97" y1="57.94" x2="88.33" y2="61.78"/><line class="cls-1" x1="86.11" y1="63.06" x2="86.11" y2="63.06"/><path class="cls-7" d="M61.69,88.74a2.46,2.46,0,0,1-2.35-.25"/><path class="cls-8" d="M2.26,64.53a3.34,3.34,0,0,0-1.26,3c0,2.76,1.67,6,3.74,7.15l33.9,19.57a11.84,11.84,0,0,0,10.72,0L81.17,75.89c3-1.71,3-4.48,0-6.18L47.26,50.13Z"/><rect class="cls-8" x="68.3" y="61.98" width="11.94" height="10.86"/><path class="cls-9" d="M4.74,67,37.35,85.81a14.76,14.76,0,0,0,13.3,0l25.92-15"/><path class="cls-10" d="M44.26,51.09l-42,13.44a3.34,3.34,0,0,0-1.26,3c0,2.76,1.67,6,3.74,7.15l33.9,19.57a11,11,0,0,0,5.62,1.27Z"/><path class="cls-7" d="M4.74,72.38,40,92.73a8.92,8.92,0,0,0,8,0L81.17,73.59"/><path class="cls-7" d="M2.26,64.53a3.34,3.34,0,0,0-1.26,3c0,2.76,1.67,6,3.74,7.15l33.9,19.57a11.84,11.84,0,0,0,10.72,0L81.17,75.89c3-1.71,3-4.48,0-6.18L47.26,50.13Z"/><line class="cls-11" x1="80.24" y1="62.47" x2="80.24" y2="71.24"/><path class="cls-12" d="M2.26,64.53a2.38,2.38,0,0,1,2.48.18l33.9,19.57a11.84,11.84,0,0,0,10.72,0L81.17,65.92c3-1.71,3-4.48,0-6.19L47.26,40.16A2.36,2.36,0,0,0,44.79,40l0,0L2.29,64.51Z"/><path class="cls-13" d="M81.17,65.92a5.4,5.4,0,0,0,1.6-1.37c0-.08.11-.16.15-.24a2.61,2.61,0,0,0,.32-.65,2.45,2.45,0,0,0,.14-.8v0a3.79,3.79,0,0,0-2.21-3.09l-20.75-12L47.26,40.16a4.19,4.19,0,0,0-.69-.32,3.34,3.34,0,0,0-.66-.13,2,2,0,0,0-1.12.27l0,0L2.29,64.51l0,0h0a3.34,3.34,0,0,0-1.26,3c0,2.76,1.67,6,3.74,7.15l33.9,19.57a11.84,11.84,0,0,0,10.72,0L81.17,75.89c3-1.71,3-4.48,0-6.19l-.93-.53V66.45Z"/><path class="cls-13" d="M7.35,66.21,38.64,84.28a11.84,11.84,0,0,0,10.72,0L81.17,65.92"/><path class="cls-7" d="M45.39,45l29.54,17a.86.86,0,0,1,0,1.49L46.78,79.82a6.84,6.84,0,0,1-5.56,0l-28-16.19"/><path class="cls-13" d="M61.69,88.74a2.46,2.46,0,0,1-2.35-.25"/><line class="cls-13" x1="80.24" y1="69.17" x2="80.24" y2="71.24"/><path class="cls-11" d="M74.92,78.83c0-2.75-1.68-6-3.74-7.15l-8-4.61a13.13,13.13,0,0,0-11.84,0c-3.27,1.89-3.27,5,0,6.84l.11,0,7.88,4.55c2.07,1.2,3.74,4.4,3.74,7.15,0,1.57-.54,2.66-1.39,3.08l.1-.06,11.83-6.83-.1.06C74.37,81.49,74.92,80.4,74.92,78.83Z"/><path class="cls-8" d="M61.69,88.74l.1-.06,11.83-6.83-.1.06c.85-.42,1.4-1.51,1.4-3.08A9,9,0,0,0,74,75.05L62.16,81.88a9.06,9.06,0,0,1,.92,3.78C63.08,87.23,62.54,88.32,61.69,88.74Z"/><ellipse class="cls-8" cx="57.27" cy="70.49" rx="4" ry="2.31"/><path class="cls-13" d="M74.92,78.83c0-2.75-1.68-6-3.74-7.15l-8-4.61a13.13,13.13,0,0,0-11.84,0c-3.27,1.89-3.27,5,0,6.84l.11,0,7.88,4.55c2.07,1.2,3.74,4.4,3.74,7.15,0,1.57-.54,2.66-1.39,3.08l.1-.06,11.83-6.83-.1.06C74.37,81.49,74.92,80.4,74.92,78.83Z"/><rect class="cls-14" width="120" height="120"/><rect class="cls-14" width="120" height="120"/></g></g></svg>