<svg xmlns="http://www.w3.org/2000/svg" viewBox="0 0 120 120"><defs><style>.cls-1,.cls-7{fill:#fff;}.cls-2,.cls-5{fill:#d5dae0;}.cls-13,.cls-16,.cls-18,.cls-19,.cls-3,.cls-9{fill:none;}.cls-3{stroke:#627386;}.cls-10,.cls-11,.cls-12,.cls-13,.cls-15,.cls-16,.cls-3,.cls-4,.cls-5,.cls-7,.cls-9{stroke-linecap:round;stroke-linejoin:round;}.cls-10,.cls-11,.cls-12,.cls-13,.cls-16,.cls-18,.cls-3,.cls-4,.cls-5,.cls-7,.cls-9{stroke-width:2px;}.cls-17,.cls-4{fill:#b8bfca;}.cls-16,.cls-4,.cls-5{stroke:#b8bfca;}.cls-6{fill:#627386;}.cls-10,.cls-11,.cls-7,.cls-9{stroke:#91d2fb;}.cls-11,.cls-15,.cls-8{fill:#bde4fd;}.cls-10,.cls-14{fill:#91d2fb;}.cls-12{fill:#1b6dc6;}.cls-12,.cls-13{stroke:#1b6dc6;}.cls-15{stroke:#bde4fd;}.cls-18{stroke:#fff;stroke-miterlimit:10;}</style></defs><title>consumer-electronics</title><g id="Layer_2" data-name="Layer 2"><g id="Industries"><path class="cls-1" d="M39.78,28.83,26.7,21.28h0a2.08,2.08,0,0,0-2.13.17L9.42,30.2a7.75,7.75,0,0,0-3.25,6.2V79.94a2.87,2.87,0,0,0,1.12,2.62h0l13.09,7.55,2.34-14.31,2.8-1.62c1.8-1,3.25-6.63,3.25-9V48.72Z"/><path class="cls-2" d="M6.76,33.56a7.81,7.81,0,0,0-.59,2.84V79.94a2.87,2.87,0,0,0,1.12,2.62h0l13.09,7.55,2.34-14.31,2.8-1.62c1.8-1,3.25-6.63,3.25-9V48.72l1.12-1.8Z"/><path class="cls-3" d="M39.78,28.83,26.7,21.28h0a2.08,2.08,0,0,0-2.13.17L9.42,30.2a7.75,7.75,0,0,0-3.25,6.2V79.94a2.87,2.87,0,0,0,1.12,2.62h0l13.09,7.55,2.34-14.31,2.8-1.62c1.8-1,3.25-6.63,3.25-9V48.72Z"/><path class="cls-1" d="M44.57,31.6l-4.79-2.77h0a2.06,2.06,0,0,0-2.12.16L22.5,37.75A7.81,7.81,0,0,0,19.25,44V87.49a2.88,2.88,0,0,0,1.13,2.63h0l4.79,2.76L26.55,78l2.81-1.62a7.79,7.79,0,0,0,3.25-6.21V50.94Z"/><path class="cls-2" d="M19.85,41.12a7.78,7.78,0,0,0-.6,2.84V87.49a2.88,2.88,0,0,0,1.13,2.63h0l4.79,2.76L26.55,78l2.81-1.62a7.79,7.79,0,0,0,3.25-6.21V50.94l1.12-1.81Z"/><path class="cls-4" d="M42.45,84,27.29,92.71c-1.79,1-3.25-.06-3.25-2.45V46.72a7.77,7.77,0,0,1,3.25-6.2l15.16-8.75c1.79-1,3.24.06,3.24,2.45V77.76A7.77,7.77,0,0,1,42.45,84Z"/><path class="cls-3" d="M44.57,31.6h0l-4.79-2.77h0a2.06,2.06,0,0,0-2.12.16L22.5,37.75A7.81,7.81,0,0,0,19.25,44V87.49a2.88,2.88,0,0,0,1.13,2.63h0l4.79,2.76h0a2.06,2.06,0,0,0,2.12-.17L42.45,84a7.77,7.77,0,0,0,3.24-6.2V34.22A2.86,2.86,0,0,0,44.57,31.6Z"/><ellipse class="cls-5" cx="34.87" cy="50.27" rx="11.49" ry="6.5" transform="translate(-25.04 62.67) rotate(-66.95)"/><ellipse class="cls-3" cx="34.87" cy="50.27" rx="11.49" ry="6.5" transform="translate(-25.04 62.67) rotate(-66.95)"/><ellipse class="cls-6" cx="32.83" cy="49.09" rx="3.73" ry="2.11" transform="translate(-25.2 60.08) rotate(-66.95)"/><ellipse class="cls-5" cx="34.87" cy="77.73" rx="5.74" ry="3.25" transform="translate(-50.31 79.38) rotate(-66.95)"/><ellipse class="cls-3" cx="34.87" cy="77.73" rx="5.74" ry="3.25" transform="translate(-50.31 79.38) rotate(-66.95)"/><ellipse class="cls-6" cx="34.48" cy="77.5" rx="1.24" ry="0.7" transform="translate(-50.34 78.89) rotate(-66.95)"/><path class="cls-7" d="M94.52,1.32h0a3,3,0,0,0-3.11.25L62.16,18.46C59.53,20,57.4,24,57.4,27.55V50.06l17.66,10.2,37.13-48.75Z"/><path class="cls-8" d="M58.15,23.7a11.2,11.2,0,0,0-.75,3.85V50.06l17.66,10.2L89.84,42Z"/><path class="cls-9" d="M94.52,1.32h0a3,3,0,0,0-3.11.25L62.16,18.46C59.53,20,57.4,24,57.4,27.55V50.06l17.66,10.2,37.13-48.75Z"/><path class="cls-10" d="M113.83,37.87,75.06,60.26V37.75c0-3.51,2.13-7.58,4.76-9.09l29.25-16.89c2.63-1.52,4.76.09,4.76,3.59Z"/><polygon class="cls-11" points="113.83 37.87 113.83 42.92 75.06 65.31 75.06 60.26 113.83 37.87"/><polygon class="cls-7" points="57.4 50.06 57.4 55.11 75.06 65.31 75.06 60.26 57.4 50.06"/><polygon class="cls-12" points="72.85 20.18 94.4 7.74 97.97 9.81 76.42 22.25 72.85 20.18"/><path class="cls-13" d="M112.18,11.52h0L94.52,1.32h0a3,3,0,0,0-3.11.25L62.16,18.46a10.28,10.28,0,0,0-4,5.24h0c-.11.3-.21.61-.3.92l0,.06c-.09.31-.17.62-.23.93v0c-.05.28-.09.55-.12.83l0,.21c0,.29,0,.57,0,.86V50.06h0v5l17.66,10.2,38.77-22.38V15.36C113.83,13.45,113.19,12.1,112.18,11.52Z"/><line class="cls-13" x1="69.26" y1="38.31" x2="69.26" y2="51.05"/><line class="cls-13" x1="63.2" y1="34.81" x2="63.2" y2="47.55"/><path class="cls-11" d="M61.79,50.57l-1.56-.9-.89.52-3.76-.59v4.77a2.17,2.17,0,0,0,1.29,1.79l4.36,2.52a6.91,6.91,0,0,0,6.23,0l3.36-1.94V52Z"/><path class="cls-14" d="M64.67,59.41a6.3,6.3,0,0,0,2.79-.73l3.36-1.94V52l-6.15-1Z"/><path class="cls-7" d="M61.23,53.92,56.87,51.4c-1.72-1-1.72-2.6,0-3.59l3.36-1.94L70.82,52l-3.36,1.94A6.91,6.91,0,0,1,61.23,53.92Z"/><path class="cls-13" d="M60.23,45.87l-3.36,1.94a2.17,2.17,0,0,0-1.29,1.79h0v4.77a2.17,2.17,0,0,0,1.29,1.79l4.36,2.52a6.91,6.91,0,0,0,6.23,0l3.36-1.94V52Z"/><polygon class="cls-15" points="89.42 39.38 80.42 44.58 80.42 40.18 89.42 34.99 89.42 39.38"/><path class="cls-11" d="M106.67,29.17h0a2.06,2.06,0,0,0-2.12.17,7.74,7.74,0,0,0-3.24,6.18,2.88,2.88,0,0,0,1.12,2.62h0l2.45,1.42,4.24-9Z"/><path class="cls-1" d="M106.67,29.17a2.06,2.06,0,0,0-2.12.17,6.63,6.63,0,0,0-2.42,2.87L107,35l2.1-4.45-2.45-1.41Z"/><ellipse class="cls-14" cx="107" cy="35.07" rx="4.97" ry="2.81" transform="translate(32.83 119.79) rotate(-66.95)"/><path class="cls-13" d="M109.11,30.58h0l-2.45-1.41h0a2.06,2.06,0,0,0-2.12.17,7.74,7.74,0,0,0-3.24,6.18,2.88,2.88,0,0,0,1.12,2.62h0l2.45,1.42h0a2.08,2.08,0,0,0,2.12-.16,7.78,7.78,0,0,0,3.24-6.19A2.88,2.88,0,0,0,109.11,30.58Z"/><path class="cls-4" d="M95.45,97.73V92.46l-4.7.83-19.06-11a1.85,1.85,0,0,0-1.71,0L40.77,99.15,34,99.51v5.28a.59.59,0,0,0,.36.49l23.4,13.51a1.87,1.87,0,0,0,1.72,0L95.1,98.23A.6.6,0,0,0,95.45,97.73Z"/><path class="cls-2" d="M58.39,89,40.77,99.15,34,99.51v5.28a.59.59,0,0,0,.36.49l23.4,13.51a1.44,1.44,0,0,0,.63.18Z"/><path class="cls-1" d="M95.1,93,59.48,113.52a1.93,1.93,0,0,1-1.72,0L34.36,100c-.47-.27-.47-.71,0-1L70,78.45a1.85,1.85,0,0,1,1.71,0L95.1,92A.52.52,0,0,1,95.1,93Z"/><path class="cls-16" d="M95.1,93,59.48,113.52a1.93,1.93,0,0,1-1.72,0L34.36,100c-.47-.27-.47-.71,0-1L70,78.45a1.85,1.85,0,0,1,1.71,0L95.1,92A.52.52,0,0,1,95.1,93Z"/><polygon class="cls-2" points="38.06 99.51 70.84 80.58 91.39 92.45 58.62 111.38 38.06 99.51"/><polygon class="cls-1" points="58.62 111.38 64.73 107.85 64.73 84.11 38.06 99.51 58.62 111.38"/><path class="cls-3" d="M95.1,92,71.69,78.45a1.85,1.85,0,0,0-1.71,0L34.36,99a.61.61,0,0,0-.36.5v5.28a.59.59,0,0,0,.36.49l23.4,13.51a1.27,1.27,0,0,0,.32.13,1.92,1.92,0,0,0,1.4-.13L95.1,98.23a.6.6,0,0,0,.35-.5V92.46A.6.6,0,0,0,95.1,92Z"/><ellipse class="cls-17" cx="77.25" cy="88.98" rx="1.73" ry="1"/><polygon class="cls-18" points="37.52 99.51 70.84 80.27 91.94 92.45 58.62 111.69 37.52 99.51"/><rect class="cls-19" width="120" height="120"/><rect class="cls-19" width="120" height="120"/></g></g></svg>