<svg xmlns="http://www.w3.org/2000/svg" viewBox="0 0 120 120"><defs><style>.cls-1,.cls-10,.cls-11,.cls-2,.cls-3,.cls-7{fill:none;}.cls-1,.cls-11,.cls-2{stroke:#1b6dc6;}.cls-1,.cls-10,.cls-11,.cls-2,.cls-4,.cls-5,.cls-6,.cls-7{stroke-linecap:round;stroke-linejoin:round;stroke-width:2px;}.cls-2{stroke-dasharray:0 5.23;}.cls-4{fill:#fff;}.cls-4,.cls-5,.cls-6{stroke:#b8bfca;}.cls-5{fill:#b8bfca;}.cls-6{fill:#d5dae0;}.cls-7{stroke:#627386;}.cls-8{fill:#bde4fd;}.cls-9{fill:#91d2fb;}.cls-10{stroke:#fff;}.cls-11{stroke-dasharray:0 5.17;}</style></defs><title>cost-&amp;amp;-complexity</title><g id="Layer_2" data-name="Layer 2"><g id="Tech_Concepts" data-name="Tech Concepts"><line class="cls-1" x1="73.58" y1="75.96" x2="73.58" y2="75.96"/><line class="cls-2" x1="78.11" y1="78.57" x2="89.42" y2="85.11"/><line class="cls-1" x1="91.69" y1="86.41" x2="91.69" y2="86.41"/><ellipse class="cls-3" cx="60" cy="68.12" rx="28.44" ry="17.24"/><line class="cls-3" x1="105.34" y1="41.94" x2="14.66" y2="94.3"/><polygon class="cls-4" points="119 78.06 105.34 85.94 91.69 78.06 105.34 70.17 119 78.06"/><polygon class="cls-5" points="119 78.06 119 94.3 105.34 102.18 105.34 85.94 119 78.06"/><polygon class="cls-6" points="91.69 78.06 91.69 94.3 105.34 102.18 105.34 85.94 91.69 78.06"/><polygon class="cls-7" points="105.34 70.17 91.69 78.06 91.69 94.3 105.34 102.18 119 94.3 119 78.06 105.34 70.17"/><polygon class="cls-3" points="119 94.3 105.34 102.18 91.69 94.3 105.34 86.41 119 94.3"/><polygon class="cls-4" points="119 25.7 105.34 33.59 91.69 25.7 105.34 17.82 119 25.7"/><polygon class="cls-5" points="119 25.7 119 41.94 105.34 49.83 105.34 33.59 119 25.7"/><polygon class="cls-6" points="91.69 25.7 91.69 41.94 105.34 49.83 105.34 33.59 91.69 25.7"/><polygon class="cls-7" points="105.34 17.82 91.69 25.7 91.69 41.94 105.34 49.83 119 41.94 119 25.7 105.34 17.82"/><polygon class="cls-3" points="119 41.94 105.34 49.83 91.69 41.94 105.34 34.05 119 41.94"/><path class="cls-8" d="M73.84,60.18,73.58,60c-7.5-4.33-19.66-4.33-27.16,0l-.26.15H40.8v7.94c0,2.84,1.87,5.67,5.62,7.84,7.5,4.33,19.66,4.33,27.16,0,3.75-2.17,5.62-5,5.62-7.84V60.18Z"/><path class="cls-9" d="M73.58,76c3.75-2.17,5.62-5,5.62-7.84V60.18H73.84L73.58,60A27.72,27.72,0,0,0,60,56.78V79.21A27.83,27.83,0,0,0,73.58,76Z"/><ellipse class="cls-8" cx="60" cy="60.18" rx="19.2" ry="11.09"/><ellipse class="cls-10" cx="60" cy="60.18" rx="19.2" ry="11.09"/><ellipse class="cls-3" cx="60" cy="67.35" rx="19.67" ry="11.9"/><path class="cls-1" d="M79.2,68.12V60.18h0c0-2.83-1.87-5.67-5.62-7.84-7.5-4.33-19.66-4.33-27.16,0-3.75,2.17-5.62,5-5.62,7.84h0v7.94c0,2.84,1.87,5.67,5.62,7.84A27.83,27.83,0,0,0,60,79.21c.61,0,1.23,0,1.84,0a33.3,33.3,0,0,0,3.63-.41c.59-.1,1.18-.22,1.76-.35A23.88,23.88,0,0,0,73.58,76a12,12,0,0,0,4.83-4.68A6.88,6.88,0,0,0,79.2,68.12Z"/><path class="cls-9" d="M67.43,63.29l2,1.17-1.81,1.05-2-1.14a16.07,16.07,0,0,1-3,1.2,12.62,12.62,0,0,1-2.94.57l-1.23-1.85A15.57,15.57,0,0,0,61,63.84,13.17,13.17,0,0,0,63.29,63l-3-1.76a27.9,27.9,0,0,1-2.86.86,9.07,9.07,0,0,1-2.61.22,5.77,5.77,0,0,1-2.57-.78,2.51,2.51,0,0,1-1.5-2.14c0-.84.62-1.71,1.86-2.6l-2-1.17,1.81-1,2,1.15a14.87,14.87,0,0,1,4.8-1.49L60.44,56a13.91,13.91,0,0,0-3.71,1.07l3.1,1.79a25.38,25.38,0,0,1,2.8-.87,9.37,9.37,0,0,1,2.6-.21,5.57,5.57,0,0,1,2.54.77,2.43,2.43,0,0,1,1.47,2.11C69.22,61.53,68.62,62.39,67.43,63.29ZM56.06,60a6.4,6.4,0,0,0,1.51-.29L55,58.19a1.19,1.19,0,0,0-.5.89.85.85,0,0,0,.5.67,2.1,2.1,0,0,0,1.08.23m6.45.46L65,61.9a1.21,1.21,0,0,0,.5-.85.76.76,0,0,0-.45-.64A1.91,1.91,0,0,0,64,60.18a6.72,6.72,0,0,0-1.47.26"/><path class="cls-8" d="M73.84,52.25l-.26-.16c-7.5-4.33-19.66-4.33-27.16,0l-.26.16H40.8v7.93c0,2.84,1.87,5.68,5.62,7.84,7.5,4.33,19.66,4.33,27.16,0,3.75-2.16,5.62-5,5.62-7.84V52.25Z"/><path class="cls-9" d="M73.58,68c3.75-2.16,5.62-5,5.62-7.84V52.25H73.84l-.26-.16A27.72,27.72,0,0,0,60,48.84V71.27A27.72,27.72,0,0,0,73.58,68Z"/><ellipse class="cls-8" cx="60" cy="52.25" rx="19.2" ry="11.09"/><ellipse class="cls-10" cx="60" cy="52.25" rx="19.2" ry="11.09"/><ellipse class="cls-3" cx="60" cy="59.42" rx="19.67" ry="11.9"/><path class="cls-1" d="M79.2,60.18V52.25h0c0-2.84-1.87-5.68-5.62-7.84-7.5-4.33-19.66-4.33-27.16,0-3.75,2.16-5.62,5-5.62,7.84h0v7.93c0,2.84,1.87,5.68,5.62,7.84A27.72,27.72,0,0,0,60,71.27c.61,0,1.23,0,1.84,0a31.25,31.25,0,0,0,3.63-.41c.59-.1,1.18-.22,1.76-.35A23.22,23.22,0,0,0,73.58,68a11.92,11.92,0,0,0,4.83-4.68A6.85,6.85,0,0,0,79.2,60.18Z"/><path class="cls-9" d="M67.43,55.35l2,1.18-1.81,1-2-1.14a16.8,16.8,0,0,1-3,1.21,13.75,13.75,0,0,1-2.94.57l-1.23-1.86A15.57,15.57,0,0,0,61,55.9a12.43,12.43,0,0,0,2.34-.85l-3-1.76a28.18,28.18,0,0,1-2.86.87,9.1,9.1,0,0,1-2.61.22,5.92,5.92,0,0,1-2.57-.79,2.5,2.5,0,0,1-1.5-2.14c0-.84.62-1.7,1.86-2.6l-2-1.16,1.81-1,2,1.14a15.12,15.12,0,0,1,4.8-1.49l1.32,1.81a14.28,14.28,0,0,0-3.71,1.07L59.83,51a25.38,25.38,0,0,1,2.8-.87,9.37,9.37,0,0,1,2.6-.21,5.86,5.86,0,0,1,2.54.77,2.43,2.43,0,0,1,1.47,2.11C69.22,53.6,68.62,54.45,67.43,55.35ZM56.06,52a5.93,5.93,0,0,0,1.51-.29L55,50.25a1.19,1.19,0,0,0-.5.89.85.85,0,0,0,.5.67,1.92,1.92,0,0,0,1.08.23m6.45.47L65,54a1.2,1.2,0,0,0,.5-.84.74.74,0,0,0-.45-.64A1.91,1.91,0,0,0,64,52.24a6.81,6.81,0,0,0-1.47.27"/><path class="cls-8" d="M73.84,44.31l-.26-.16c-7.5-4.33-19.66-4.33-27.16,0l-.26.16H40.8v7.94c0,2.84,1.87,5.67,5.62,7.84,7.5,4.33,19.66,4.33,27.16,0,3.75-2.17,5.62-5,5.62-7.84V44.31Z"/><path class="cls-9" d="M73.58,60.09c3.75-2.17,5.62-5,5.62-7.84V44.31H73.84l-.26-.16A27.83,27.83,0,0,0,60,40.91V63.34A27.83,27.83,0,0,0,73.58,60.09Z"/><ellipse class="cls-8" cx="60" cy="44.31" rx="19.2" ry="11.09"/><ellipse class="cls-10" cx="60" cy="44.31" rx="19.2" ry="11.09"/><ellipse class="cls-3" cx="60" cy="51.48" rx="19.67" ry="11.9"/><path class="cls-1" d="M79.2,52.25V44.31h0c0-2.84-1.87-5.67-5.62-7.84-7.5-4.33-19.66-4.33-27.16,0-3.75,2.17-5.62,5-5.62,7.84h0v7.94c0,2.84,1.87,5.67,5.62,7.84A27.83,27.83,0,0,0,60,63.34c.61,0,1.23,0,1.84-.06a31.24,31.24,0,0,0,3.63-.4c.59-.1,1.18-.22,1.76-.36a23.53,23.53,0,0,0,6.35-2.43,12,12,0,0,0,4.83-4.69A6.81,6.81,0,0,0,79.2,52.25Z"/><path class="cls-9" d="M67.43,47.41l2,1.18-1.81,1-2-1.15a16.8,16.8,0,0,1-3,1.21,12.62,12.62,0,0,1-2.94.57l-1.23-1.85A16.79,16.79,0,0,0,61,48a12.44,12.44,0,0,0,2.34-.86l-3-1.76a28.18,28.18,0,0,1-2.86.87,9.1,9.1,0,0,1-2.61.22,5.66,5.66,0,0,1-2.57-.79,2.49,2.49,0,0,1-1.5-2.13c0-.84.62-1.71,1.86-2.6l-2-1.17,1.81-1,2,1.15a15.14,15.14,0,0,1,4.8-1.5l1.32,1.82a14.29,14.29,0,0,0-3.71,1.06l3.1,1.8a25.38,25.38,0,0,1,2.8-.87,9.77,9.77,0,0,1,2.6-.22,5.74,5.74,0,0,1,2.54.78,2.42,2.42,0,0,1,1.47,2.11C69.22,45.66,68.62,46.51,67.43,47.41Zm-11.37-3.3a6.4,6.4,0,0,0,1.51-.29L55,42.32a1.19,1.19,0,0,0-.5.89.85.85,0,0,0,.5.67,2.1,2.1,0,0,0,1.08.23m6.45.46L65,46a1.21,1.21,0,0,0,.5-.84.75.75,0,0,0-.45-.64A2,2,0,0,0,64,44.3a6.81,6.81,0,0,0-1.47.27"/><line class="cls-1" x1="92.43" y1="48.59" x2="92.43" y2="48.59"/><line class="cls-11" x1="87.95" y1="51.18" x2="81.24" y2="55.06"/><line class="cls-1" x1="79" y1="56.35" x2="79" y2="56.35"/><line class="cls-1" x1="46.42" y1="75.96" x2="46.42" y2="75.96"/><line class="cls-2" x1="41.89" y1="78.57" x2="30.58" y2="85.11"/><line class="cls-1" x1="28.31" y1="86.41" x2="28.31" y2="86.41"/><polygon class="cls-4" points="28.31 78.06 14.66 85.94 1 78.06 14.66 70.17 28.31 78.06"/><polygon class="cls-5" points="28.31 78.06 28.31 94.3 14.66 102.18 14.66 85.94 28.31 78.06"/><polygon class="cls-6" points="1 78.06 1 94.3 14.66 102.18 14.66 85.94 1 78.06"/><polygon class="cls-7" points="14.66 70.17 1 78.06 1 94.3 14.66 102.18 28.31 94.3 28.31 78.06 14.66 70.17"/><polygon class="cls-3" points="28.31 94.3 14.66 102.18 1 94.3 14.66 86.41 28.31 94.3"/><polygon class="cls-4" points="28.31 25.7 14.66 33.59 1 25.7 14.66 17.82 28.31 25.7"/><polygon class="cls-5" points="28.31 25.7 28.31 41.94 14.66 49.83 14.66 33.59 28.31 25.7"/><polygon class="cls-6" points="1 25.7 1 41.94 14.66 49.83 14.66 33.59 1 25.7"/><polygon class="cls-7" points="14.66 17.82 1 25.7 1 41.94 14.66 49.83 28.31 41.94 28.31 25.7 14.66 17.82"/><polygon class="cls-3" points="28.31 41.94 14.66 49.83 1 41.94 14.66 34.05 28.31 41.94"/><line class="cls-1" x1="27.57" y1="48.59" x2="27.57" y2="48.59"/><line class="cls-11" x1="32.05" y1="51.18" x2="38.76" y2="55.06"/><line class="cls-1" x1="41" y1="56.35" x2="41" y2="56.35"/><rect class="cls-3" width="120" height="120"/><rect class="cls-3" width="120" height="120"/></g></g></svg>