<svg xmlns="http://www.w3.org/2000/svg" viewBox="0 0 120 120"><defs><style>.cls-1{fill:#b8bfca;}.cls-2,.cls-3{fill:#d5dae0;}.cls-3,.cls-8{stroke:#fff;}.cls-3{stroke-miterlimit:10;}.cls-10,.cls-11,.cls-3,.cls-4,.cls-5,.cls-8,.cls-9{stroke-width:2px;}.cls-10,.cls-11,.cls-12,.cls-4,.cls-5,.cls-9{fill:none;}.cls-4,.cls-5{stroke:#627386;}.cls-10,.cls-11,.cls-4,.cls-5,.cls-8,.cls-9{stroke-linecap:round;stroke-linejoin:round;}.cls-10,.cls-5{stroke-dasharray:0 5.21;}.cls-6{fill:#91d2fb;}.cls-7,.cls-8{fill:#bde4fd;}.cls-10,.cls-11,.cls-9{stroke:#1b6dc6;}.cls-11{stroke-dasharray:0 6;}</style></defs><title>database</title><g id="Layer_2" data-name="Layer 2"><g id="Objects"><path class="cls-1" d="M21.27,75.24v17.4c0,5.72,3.78,11.44,11.34,15.81,15.13,8.73,39.65,8.73,54.78,0C95,104.08,98.73,98.36,98.73,92.64h0V75.24Z"/><path class="cls-2" d="M21.27,75.24v17.4c0,5.72,3.78,11.44,11.34,15.81S50.09,115,60,115V75.24Z"/><ellipse class="cls-3" cx="60" cy="75.24" rx="38.73" ry="22.36"/><ellipse class="cls-1" cx="60" cy="75.24" rx="20" ry="10.69"/><path class="cls-4" d="M98.73,75.24c0-5.73-3.78-11.45-11.34-15.82-15.13-8.73-39.65-8.73-54.78,0-7.56,4.37-11.35,10.09-11.34,15.82v17.4c0,5.72,3.78,11.44,11.34,15.81,15.13,8.73,39.65,8.73,54.78,0C95,104.08,98.73,98.36,98.73,92.64h0V75.24Z"/><line class="cls-4" x1="72.77" y1="105.02" x2="72.77" y2="105.02"/><path class="cls-5" d="M77.82,103.77a47.1,47.1,0,0,0,7.27-2.83"/><line class="cls-4" x1="87.39" y1="99.72" x2="87.39" y2="99.72"/><path class="cls-6" d="M21.27,27.36v17.4c0,5.73,3.78,11.45,11.34,15.82,15.13,8.73,39.65,8.73,54.78,0C95,56.21,98.73,50.49,98.73,44.76h0V27.36Z"/><path class="cls-7" d="M21.27,27.36v17.4c0,5.73,3.78,11.45,11.34,15.82S50.09,67.13,60,67.13V27.36Z"/><ellipse class="cls-8" cx="60" cy="27.36" rx="38.73" ry="22.36"/><ellipse class="cls-6" cx="60" cy="27.36" rx="20" ry="10.69"/><path class="cls-9" d="M98.73,27.36c0-5.72-3.78-11.44-11.34-15.81-15.13-8.73-39.65-8.73-54.78,0-7.56,4.37-11.35,10.09-11.34,15.82V44.76c0,5.73,3.78,11.45,11.34,15.82,15.13,8.73,39.65,8.73,54.78,0C95,56.21,98.73,50.49,98.73,44.76h0V27.36Z"/><line class="cls-9" x1="72.77" y1="57.15" x2="72.77" y2="57.15"/><path class="cls-10" d="M77.82,55.89a46.09,46.09,0,0,0,7.27-2.82"/><line class="cls-9" x1="87.39" y1="51.85" x2="87.39" y2="51.85"/><line class="cls-11" x1="98.73" y1="57.5" x2="98.73" y2="66.5"/><line class="cls-11" x1="21.27" y1="57.5" x2="21.27" y2="66.5"/><rect class="cls-12" width="120" height="120"/><rect class="cls-12" width="120" height="120"/></g></g></svg>