<svg xmlns="http://www.w3.org/2000/svg" viewBox="0 0 120 120"><defs><style>.cls-1,.cls-4,.cls-8{fill:#fff;}.cls-1,.cls-3{stroke:#91d2fb;}.cls-1,.cls-10,.cls-11,.cls-12,.cls-13,.cls-3,.cls-5,.cls-6,.cls-8,.cls-9{stroke-linecap:round;stroke-linejoin:round;stroke-width:2px;}.cls-2{fill:#bde4fd;}.cls-10,.cls-11,.cls-12,.cls-13,.cls-14,.cls-3,.cls-5{fill:none;}.cls-11,.cls-12,.cls-5{stroke:#1b6dc6;}.cls-6{fill:#d5dae0;}.cls-6,.cls-8{stroke:#b8bfca;}.cls-7,.cls-9{fill:#b8bfca;}.cls-9{stroke:#d5dae0;}.cls-10,.cls-13{stroke:#627386;}.cls-11{stroke-dasharray:0 5.92;}.cls-12{stroke-dasharray:0 6.07;}.cls-13{stroke-dasharray:0 6.11;}</style></defs><title>database-support</title><g id="Layer_2" data-name="Layer 2"><g id="Tech_Concepts" data-name="Tech Concepts"><path class="cls-1" d="M52.6,50.29V73h0a2.55,2.55,0,0,0,1.52,2.12l1.73,1a8.11,8.11,0,0,0,7.34,0l2.21-1.27a2.59,2.59,0,0,0,1.52-2.12V50Z"/><path class="cls-2" d="M63.2,76.15l2.21-1.27a2.59,2.59,0,0,0,1.52-2.12V50.15H59.77V77A7.44,7.44,0,0,0,63.2,76.15Z"/><path class="cls-3" d="M52.6,50.29V73h0a2.55,2.55,0,0,0,1.52,2.12l1.73,1a8.11,8.11,0,0,0,7.34,0l2.21-1.27a2.59,2.59,0,0,0,1.52-2.12V50Z"/><path class="cls-1" d="M65.41,47.9l-1.74-1a8.11,8.11,0,0,0-7.34,0l-2.2,1.27c-2,1.17-2,3.07,0,4.24l1.73,1a8.11,8.11,0,0,0,7.34,0l2.21-1.27C67.43,51,67.43,49.07,65.41,47.9Z"/><path class="cls-2" d="M101.76,96.13l2.2-1.27a2.58,2.58,0,0,0,1.52-2.12V72.41H98.32V97A7.28,7.28,0,0,0,101.76,96.13Z"/><path class="cls-4" d="M14.52,72.28V92.74h0A2.58,2.58,0,0,0,16,94.86l1.74,1a8.11,8.11,0,0,0,7.34,0l2.2-1.27a2.56,2.56,0,0,0,1.52-2.12V72Z"/><path class="cls-2" d="M25.12,95.86l2.2-1.27a2.56,2.56,0,0,0,1.52-2.12V72.14H21.68V96.73A7.25,7.25,0,0,0,25.12,95.86Z"/><path class="cls-4" d="M53.07,94.54V115h0a2.59,2.59,0,0,0,1.52,2.12l1.74,1a8.11,8.11,0,0,0,7.34,0l2.2-1.27a2.58,2.58,0,0,0,1.53-2.12V94.26Z"/><path class="cls-2" d="M63.67,118.12l2.2-1.27a2.58,2.58,0,0,0,1.53-2.12V94.4H60.23V119A7.49,7.49,0,0,0,63.67,118.12Z"/><path class="cls-2" d="M87.94,60.91l-24.27-14a8.11,8.11,0,0,0-7.34,0l-24.27,14H14.52V72.28A2.6,2.6,0,0,0,16,74.4L56.33,97.66a8.11,8.11,0,0,0,7.34,0L104,74.4a2.6,2.6,0,0,0,1.52-2.12V60.91Z"/><path class="cls-4" d="M56.33,46.9l-24.27,14H14.52V72.28A2.6,2.6,0,0,0,16,74.4L56.33,97.66a7.54,7.54,0,0,0,3.67.87V46A7.44,7.44,0,0,0,56.33,46.9Z"/><path class="cls-3" d="M105.48,60.91H87.94l-24.27-14a8.11,8.11,0,0,0-7.34,0l-24.27,14H14.52V72.28h0V92.74h0A2.58,2.58,0,0,0,16,94.86l1.74,1a8.11,8.11,0,0,0,7.34,0l2.2-1.27a2.56,2.56,0,0,0,1.52-2.12V81.79l24.23,14V115h0a2.59,2.59,0,0,0,1.52,2.12l1.74,1a8.11,8.11,0,0,0,7.34,0l2.2-1.27a2.58,2.58,0,0,0,1.53-2.12V95.51L91.16,81.79V93h0a2.56,2.56,0,0,0,1.52,2.12l1.73,1a8.13,8.13,0,0,0,7.35,0l2.2-1.27a2.58,2.58,0,0,0,1.52-2.12V72.28h0Z"/><path class="cls-1" d="M104,58.79,63.67,35.53a8.11,8.11,0,0,0-7.34,0L16,58.79C14,60,14,61.86,16,63L56.33,86.29a8.11,8.11,0,0,0,7.34,0L104,63C106,61.86,106,60,104,58.79Z"/><path class="cls-5" d="M105.48,72.28h0V60.91h0A2.58,2.58,0,0,0,104,58.79L63.67,35.53a8.11,8.11,0,0,0-7.34,0L16,58.79a2.58,2.58,0,0,0-1.52,2.12V72.28h0V92.74h0A2.58,2.58,0,0,0,16,94.86l1.74,1a8.14,8.14,0,0,0,5.72.63,1.06,1.06,0,0,0,.19-.06c.22-.06.44-.12.65-.2a5.08,5.08,0,0,0,.78-.37l2.2-1.27a2.56,2.56,0,0,0,1.52-2.12V81.79l24.23,14V115h0a2.59,2.59,0,0,0,1.52,2.12l1.74,1a8.14,8.14,0,0,0,5.72.63l.2-.06c.22-.06.43-.12.64-.2a5.62,5.62,0,0,0,.78-.37h0l2.2-1.27a1.43,1.43,0,0,0,.2-.14,2.48,2.48,0,0,0,1.33-2V95.51L91.16,81.79V93h0a2.56,2.56,0,0,0,1.52,2.12l1.73,1a8.15,8.15,0,0,0,5.72.63l.19-.05c.23-.07.45-.13.65-.21a4.54,4.54,0,0,0,.77-.36h0l2.2-1.27a3.7,3.7,0,0,0,.66-.47,2.22,2.22,0,0,0,.86-1.65V72.41h0v-.13Z"/><path class="cls-6" d="M80.13,45l-16.46-9.5a8.11,8.11,0,0,0-7.34,0L39.87,45H14.52V60.91A2.6,2.6,0,0,0,16,63L56.33,86.29a8.11,8.11,0,0,0,7.34,0L104,63a2.6,2.6,0,0,0,1.52-2.12V45Z"/><path class="cls-7" d="M63.67,86.29,104,63a2.6,2.6,0,0,0,1.52-2.12V45H80.13l-16.46-9.5A7.44,7.44,0,0,0,60,34.65V87.16A7.54,7.54,0,0,0,63.67,86.29Z"/><line class="cls-6" x1="42.14" y1="70.76" x2="30.23" y2="63.88"/><path class="cls-8" d="M104,42.91,63.67,19.65a8.11,8.11,0,0,0-7.34,0L16,42.91c-2,1.17-2,3.07,0,4.24L56.33,70.41a8.11,8.11,0,0,0,7.34,0L104,47.15C106,46,106,44.08,104,42.91Z"/><polygon class="cls-9" points="94.52 68.47 73.24 80.76 73.24 73.43 94.52 61.14 94.52 68.47"/><path class="cls-10" d="M104,42.91,63.67,19.65a8.11,8.11,0,0,0-7.34,0L16,42.91A2.59,2.59,0,0,0,14.52,45V60.91A2.6,2.6,0,0,0,16,63L56.33,86.29a8.18,8.18,0,0,0,7.34,0L104,63a2.6,2.6,0,0,0,1.52-2.12V45A2.59,2.59,0,0,0,104,42.91Z"/><ellipse class="cls-7" cx="95.08" cy="45.03" rx="2.06" ry="1.19"/><ellipse class="cls-7" cx="60" cy="65.29" rx="2.06" ry="1.19"/><ellipse class="cls-7" cx="60" cy="24.78" rx="2.06" ry="1.19"/><ellipse class="cls-7" cx="24.92" cy="45.03" rx="2.06" ry="1.19"/><line class="cls-5" x1="101.76" y1="96.13" x2="101.76" y2="96.13"/><line class="cls-11" x1="96.63" y1="99.09" x2="68.44" y2="115.37"/><line class="cls-5" x1="65.87" y1="116.85" x2="65.87" y2="116.85"/><line class="cls-5" x1="17.78" y1="95.86" x2="17.78" y2="95.86"/><line class="cls-12" x1="23.04" y1="98.9" x2="51.96" y2="115.6"/><line class="cls-5" x1="54.59" y1="117.12" x2="54.59" y2="117.12"/><line class="cls-10" x1="105.48" y1="45.03" x2="105.48" y2="45.03"/><path class="cls-13" d="M105.48,38.92V29a4,4,0,0,0-2-3.5L62,1.54a4,4,0,0,0-4,0L16.54,25.47a4,4,0,0,0-2,3.5V42"/><line class="cls-10" x1="14.52" y1="45.03" x2="14.52" y2="45.03"/><rect class="cls-14" width="120" height="120"/><rect class="cls-14" width="120" height="120"/></g></g></svg>