<svg xmlns="http://www.w3.org/2000/svg" viewBox="0 0 120 120"><defs><style>.cls-1,.cls-10{fill:#b8bfca;}.cls-2,.cls-9{fill:#d5dae0;}.cls-3,.cls-8{fill:#fff;}.cls-12,.cls-4,.cls-5,.cls-6{fill:none;}.cls-10,.cls-4,.cls-8,.cls-9{stroke:#b8bfca;}.cls-10,.cls-11,.cls-4,.cls-5,.cls-6,.cls-8,.cls-9{stroke-linecap:round;stroke-linejoin:round;}.cls-10,.cls-4,.cls-5,.cls-6,.cls-8,.cls-9{stroke-width:2px;}.cls-11,.cls-5{stroke:#627386;}.cls-6{stroke:#fff;}.cls-11,.cls-7{fill:#627386;}</style></defs><title>data-protection</title><g id="Layer_2" data-name="Layer 2"><g id="Tech_Concepts" data-name="Tech Concepts"><path class="cls-1" d="M24.63,61.67v43.59a3.54,3.54,0,0,0,2.09,2.91l5.66,3.27a11.18,11.18,0,0,0,10.08,0L70,95.56A3.52,3.52,0,0,0,72,92.65V49.06Z"/><path class="cls-2" d="M37.33,58.29l-12.7,3.38v43.59a3.54,3.54,0,0,0,2.09,2.91l5.66,3.27a10.3,10.3,0,0,0,4.95,1.2Z"/><path class="cls-3" d="M70,52,42.46,67.84a11.12,11.12,0,0,1-10.08,0l-5.66-3.26c-2.78-1.61-2.78-4.21,0-5.82l27.5-15.88a11.18,11.18,0,0,1,10.08,0L70,46.15C72.74,47.76,72.74,50.36,70,52Z"/><path class="cls-4" d="M70,52,42.46,67.84a11.12,11.12,0,0,1-10.08,0l-5.66-3.26c-2.78-1.61-2.78-4.21,0-5.82l27.5-15.88a11.18,11.18,0,0,1,10.08,0L70,46.15C72.74,47.76,72.74,50.36,70,52Z"/><path class="cls-5" d="M70,46.15,64.3,42.88a11.18,11.18,0,0,0-10.08,0L26.72,58.76a3.55,3.55,0,0,0-2.09,2.91v43.59a3.54,3.54,0,0,0,2.09,2.91l5.66,3.27a11.18,11.18,0,0,0,10.08,0L70,95.56A3.52,3.52,0,0,0,72,92.65V49.06A3.53,3.53,0,0,0,70,46.15Z"/><path class="cls-2" d="M81,2.45C77.35.33,72.77.54,68.45,3,60.74,7.48,54.71,18.81,54.71,28.82V48.11h0c0,1.69,2.37,3.06,5.3,3.06s5.31-1.37,5.31-3.06h0V28.82c0-6.25,3.94-14,8.44-16.6,1.11-.64,1.8-.66,1.95-.58.38.22,1.18,1.58,1.18,4.37V35.3h0c0,1.69,2.37,3.06,5.31,3.06S87.5,37,87.5,35.3h0V16C87.5,9.77,85.14,4.83,81,2.45Z"/><path class="cls-5" d="M81,2.45C77.35.33,72.77.54,68.45,3,60.74,7.48,54.71,18.81,54.71,28.82V48.11h0c0,1.69,2.37,3.06,5.3,3.06s5.31-1.37,5.31-3.06h0V28.82c0-6.25,3.94-14,8.44-16.6,1.11-.64,1.8-.66,1.95-.58.38.22,1.18,1.58,1.18,4.37V35.3h0c0,1.69,2.37,3.06,5.31,3.06S87.5,37,87.5,35.3h0V16C87.5,9.77,85.14,4.83,81,2.45Z"/><path class="cls-4" d="M84.24,9.15A17.52,17.52,0,0,1,85.52,16V35.3c-.11.26-1.3,1.08-3.32,1.08"/><path class="cls-6" d="M56.69,46.08V28.82A31.56,31.56,0,0,1,64.18,9.23"/><path class="cls-4" d="M65.41,19.67a23.46,23.46,0,0,0-2.07,9.15V48.11c-.11.26-1.3,1.08-3.33,1.08"/><path class="cls-6" d="M78.87,33.27V16c0-3-.83-5.32-2.17-6.09a2.39,2.39,0,0,0-1.19-.3,5.81,5.81,0,0,0-2.74.88A13.63,13.63,0,0,0,69.67,13"/><path class="cls-1" d="M32.87,60.91h0c0-1.58,2.22-2.87,5-2.87s5,1.29,5,2.87h0c0,1.58-2.23,2.87-5,2.87s-5-1.29-5-2.87Z"/><path class="cls-5" d="M32.87,60.91h0c0-1.58,2.22-2.87,5-2.87s5,1.29,5,2.87h0c0,1.58-2.23,2.87-5,2.87s-5-1.29-5-2.87Z"/><path class="cls-7" d="M37.83,60.91a6.21,6.21,0,0,0-4.27,1.43,6.16,6.16,0,0,0,4.27,1.44,6.17,6.17,0,0,0,4.28-1.44A6.22,6.22,0,0,0,37.83,60.91Z"/><polygon class="cls-7" points="45.31 101.69 45.31 75.76 65.38 64.17 65.38 90.1 45.31 101.69"/><polygon class="cls-5" points="45.31 101.69 45.31 75.76 65.38 64.17 65.38 90.1 45.31 101.69"/><polygon class="cls-8" points="45.31 75.76 54.15 70.66 92.19 92.62 92.19 106 45.31 78.94 45.31 75.76"/><polygon class="cls-2" points="54.15 70.66 45.31 75.76 45.31 78.94 47.77 80.36 59.36 73.67 54.15 70.66"/><polygon class="cls-4" points="45.31 75.76 54.15 70.66 92.19 92.62 92.19 106 45.31 78.94 45.31 75.76"/><polygon class="cls-9" points="45.31 75.76 50.14 72.97 88.17 94.94 88.17 108.32 45.31 83.57 45.31 75.76"/><polygon class="cls-1" points="55.34 75.98 62.31 93.39 45.31 83.67 45.31 75.76 50.14 72.97 55.34 75.98"/><polygon class="cls-5" points="92.19 92.62 54.15 70.66 50.14 72.97 50.14 72.97 45.31 75.76 45.31 78.94 45.31 83.57 88.17 108.32 88.17 103.68 92.19 106 92.19 92.62"/><polygon class="cls-8" points="45.31 83.67 76.13 101.46 76.13 114.85 45.31 97.05 45.31 83.67"/><polygon class="cls-9" points="45.31 88.31 72.11 103.78 72.11 117.17 45.31 101.69 45.31 88.31"/><polygon class="cls-9" points="45.31 88.31 72.11 103.78 72.11 117.17 45.31 101.69 45.31 88.31"/><polygon class="cls-5" points="76.13 101.46 45.31 83.67 45.31 88.31 45.31 97.05 45.31 101.69 72.11 117.17 72.11 112.53 76.13 114.85 76.13 101.46"/><polygon class="cls-2" points="75.29 119 69.57 115.7 69.57 89.77 75.29 93.08 75.29 119"/><polygon class="cls-8" points="95.37 81.48 89.65 78.18 69.57 89.77 75.29 93.08 95.37 81.48"/><polygon class="cls-10" points="75.29 119 75.29 93.08 95.37 81.48 95.37 107.41 75.29 119"/><polygon class="cls-5" points="89.65 78.18 69.57 89.77 69.57 115.7 75.29 119 95.37 107.41 95.37 81.48 89.65 78.18"/><path class="cls-11" d="M87.84,95.58c0-1.84-1.13-2.69-2.51-1.89a6,6,0,0,0-2.51,4.79c0,1.22.49,2,1.22,2.16l-.52,6.46L87.13,105l-.51-5.86A6.37,6.37,0,0,0,87.84,95.58Z"/><rect class="cls-12" width="120" height="120"/><rect class="cls-12" width="120" height="120"/></g></g></svg>