<svg xmlns="http://www.w3.org/2000/svg" viewBox="0 0 120 120"><defs><style>.cls-1,.cls-12,.cls-7{fill:#fff;}.cls-13,.cls-14,.cls-2,.cls-6{fill:#b8bfca;}.cls-11,.cls-3{fill:#d5dae0;}.cls-10,.cls-15,.cls-16,.cls-4,.cls-5{fill:none;}.cls-4,.cls-6{stroke:#627386;}.cls-10,.cls-11,.cls-12,.cls-13,.cls-14,.cls-15,.cls-4,.cls-5,.cls-6,.cls-7,.cls-8,.cls-9{stroke-linecap:round;stroke-linejoin:round;stroke-width:2px;}.cls-11,.cls-12,.cls-13,.cls-5{stroke:#b8bfca;}.cls-7,.cls-8,.cls-9{stroke:#91d2fb;}.cls-8{fill:#91d2fb;}.cls-9{fill:#bde4fd;}.cls-10{stroke:#1b6dc6;}.cls-14,.cls-15{stroke:#fff;}</style></defs><title>data-integrity-check</title><g id="Layer_2" data-name="Layer 2"><g id="Tech_Concepts" data-name="Tech Concepts"><path class="cls-1" d="M118.16,67.19c1.11.65,1.12,1.69,0,2.33L55.65,105.87a4.4,4.4,0,0,1-4,0L1.86,77.13a1.22,1.22,0,0,1,0-2.32L64.37,38.45a4.43,4.43,0,0,1,4,0Z"/><path class="cls-2" d="M53.63,114.86a4.05,4.05,0,0,0,2-.48L118.15,78a1.42,1.42,0,0,0,.83-1.16l0-8.5a1.42,1.42,0,0,1-.83,1.15L55.65,105.87a4.05,4.05,0,0,1-2,.48"/><path class="cls-3" d="M53.65,106.35a4.12,4.12,0,0,1-2-.48L1.86,77.13A1.42,1.42,0,0,1,1,76l0,8.51a1.42,1.42,0,0,0,.84,1.17l49.78,28.74a4.09,4.09,0,0,0,2,.48"/><path class="cls-2" d="M10.21,82,1.86,77.13A1.42,1.42,0,0,1,1,76l0,8.51a1.42,1.42,0,0,0,.84,1.17l8.37,4.84Z"/><line class="cls-4" x1="10.19" y1="81.92" x2="76.71" y2="43.24"/><line class="cls-5" x1="69.06" y1="98.08" x2="69.06" y2="105.54"/><path class="cls-5" d="M64.37,38.45a4.43,4.43,0,0,1,4,0l49.78,28.74c1.11.65,1.12,1.69,0,2.33L55.65,105.87a4.4,4.4,0,0,1-4,0L10.21,82"/><path class="cls-4" d="M118.16,67.19,68.38,38.45a4.43,4.43,0,0,0-4,0L1.85,74.81A1.42,1.42,0,0,0,1,76H1l0,8.51a1.42,1.42,0,0,0,.84,1.17l49.78,28.74a4.43,4.43,0,0,0,4,0L118.15,78a1.42,1.42,0,0,0,.83-1.16l0-8.5h0A1.45,1.45,0,0,0,118.16,67.19Z"/><line class="cls-6" x1="10.19" y1="90.44" x2="10.19" y2="81.95"/><path class="cls-3" d="M68.38,38.45a4.43,4.43,0,0,0-4,0L1.85,74.81a1.22,1.22,0,0,0,0,2.32L10.21,82,76.68,43.24Z"/><path class="cls-4" d="M68.38,38.45a4.43,4.43,0,0,0-4,0L1.85,74.81a1.22,1.22,0,0,0,0,2.32L10.21,82,76.68,43.24Z"/><path class="cls-1" d="M21.14,70a.87.87,0,0,1,0-1.64,3.14,3.14,0,0,1,2.83,0c.78.46.79,1.19,0,1.64A3.13,3.13,0,0,1,21.14,70Z"/><path class="cls-1" d="M15.45,73.25a.87.87,0,0,1,0-1.64,3.07,3.07,0,0,1,2.83,0,.87.87,0,0,1,0,1.64A3.13,3.13,0,0,1,15.45,73.25Z"/><path class="cls-1" d="M9.77,76.53a.87.87,0,0,1,0-1.64,3.13,3.13,0,0,1,2.83,0,.87.87,0,0,1,0,1.64A3.11,3.11,0,0,1,9.77,76.53Z"/><polygon class="cls-7" points="95.65 21.3 83.65 28.23 71.65 21.3 83.65 14.37 95.65 21.3"/><polygon class="cls-8" points="95.65 21.3 95.65 64.3 83.65 71.23 83.65 28.23 95.65 21.3"/><polygon class="cls-9" points="71.65 21.3 71.65 64.3 83.65 71.23 83.65 28.23 71.65 21.3"/><polygon class="cls-10" points="83.65 14.37 71.65 21.3 71.65 64.3 83.65 71.23 95.65 64.3 95.65 21.3 83.65 14.37"/><polygon class="cls-11" points="59.65 85.09 47.65 92.01 35.65 85.09 47.65 78.16 59.65 85.09"/><polygon class="cls-12" points="83.65 56.23 71.65 63.16 59.65 56.23 71.65 49.3 83.65 56.23"/><polygon class="cls-13" points="83.65 56.23 83.65 71.23 71.65 78.16 71.65 63.16 83.65 56.23"/><polygon class="cls-11" points="59.65 56.23 59.65 71.23 71.65 78.16 71.65 63.16 59.65 56.23"/><polygon class="cls-4" points="71.65 49.3 59.65 56.23 59.65 71.23 71.65 78.16 83.65 71.23 83.65 56.23 71.65 49.3"/><polygon class="cls-12" points="71.65 46.16 59.65 53.09 47.65 46.16 59.65 39.23 71.65 46.16"/><polygon class="cls-13" points="71.65 46.16 71.65 78.16 59.65 85.09 59.65 53.09 71.65 46.16"/><polygon class="cls-11" points="47.65 46.16 47.65 78.16 59.65 85.09 59.65 53.09 47.65 46.16"/><polygon class="cls-4" points="59.65 39.23 47.65 46.16 47.65 78.16 59.65 85.09 71.65 78.16 71.65 46.16 59.65 39.23"/><polygon class="cls-12" points="59.65 77.09 47.65 84.01 35.65 77.09 47.65 70.16 59.65 77.09"/><polygon class="cls-13" points="59.65 77.09 59.65 85.09 47.65 92.01 47.65 84.01 59.65 77.09"/><polygon class="cls-11" points="35.65 77.09 35.65 85.09 47.65 92.01 47.65 84.01 35.65 77.09"/><polygon class="cls-4" points="47.65 70.16 35.65 77.09 35.65 85.09 47.65 92.01 59.65 85.09 59.65 77.09 47.65 70.16"/><path class="cls-3" d="M112.07,8.26l-4.24-2.45v0c-1.78-1-4.1-1-6.64.52C95.56,9.59,91,18.29,91,25.78c0,4.1,1.36,7,3.52,8.21v0l4.24,2.44,1.29-2.72c.28-.13.55-.27.84-.43,5.61-3.24,10.16-11.94,10.16-19.43a15.22,15.22,0,0,0-.26-2.89Z"/><path class="cls-1" d="M107.83,5.81v0c-1.78-1-4.1-1-6.64.52-3.07,1.77-5.82,5.18-7.68,9.13l15.07,8.7a24.85,24.85,0,0,0,2.48-10.31,15.22,15.22,0,0,0-.26-2.89l1.28-2.72Z"/><ellipse class="cls-14" cx="105.42" cy="22.36" rx="15.61" ry="8.83" transform="translate(43.57 110.6) rotate(-66.95)"/><path class="cls-4" d="M112.07,8.27h0l-4.24-2.45v0c-1.78-1-4.1-1-6.64.52C95.56,9.59,91,18.29,91,25.78c0,4.1,1.36,7,3.52,8.21v0l4.24,2.44h0c1.78,1,4.1,1,6.65-.52C111,32.67,115.59,24,115.59,16.49,115.59,12.39,114.22,9.52,112.07,8.27Z"/><polyline class="cls-15" points="100.94 26.42 101.36 26.74 103.57 28.41 109.89 16.31"/><rect class="cls-16" width="120" height="120"/><rect class="cls-16" width="120" height="120"/></g></g></svg>