<svg xmlns="http://www.w3.org/2000/svg" viewBox="0 0 120 120"><defs><style>.cls-1{fill:#b8bfca;}.cls-2{fill:#d5dae0;}.cls-3,.cls-5{fill:#fff;}.cls-3{stroke:#b8bfca;}.cls-3,.cls-4,.cls-5,.cls-7,.cls-8{stroke-linecap:round;stroke-linejoin:round;stroke-width:2px;}.cls-4,.cls-7,.cls-8,.cls-9{fill:none;}.cls-4,.cls-5,.cls-7,.cls-8{stroke:#627386;}.cls-6{fill:#91d2fb;}.cls-7{stroke-dasharray:0 5.62;}.cls-8{stroke-dasharray:0 6.08;}</style></defs><title>data-sheets-&amp;amp;-solution-brief</title><g id="Layer_2" data-name="Layer 2"><g id="Tech_Concepts" data-name="Tech Concepts"><polygon class="cls-1" points="104.42 83.91 104.55 95.66 64.12 119 63.99 107.25 104.42 83.91"/><polygon class="cls-2" points="64.12 119 15.58 90.8 15.45 79.05 63.99 107.25 64.12 119"/><line class="cls-3" x1="64.04" y1="113.21" x2="15.5" y2="85.01"/><polygon class="cls-3" points="63.99 107.25 15.45 79.05 55.88 55.71 104.42 83.91 63.99 107.25"/><path class="cls-3" d="M64,97.44h0a30.25,30.25,0,0,1-22.41-3.22L15.53,79.06,55.92,55.74,82,70.9a30.25,30.25,0,0,0,22.41,3.22h0Z"/><path class="cls-2" d="M56.81,95.29A27.28,27.28,0,0,1,43.13,91.6l-14.85-9L62.63,62.81l17.86,10.7a33.25,33.25,0,0,0,11.77,4.14L62.9,94.6A27.81,27.81,0,0,1,56.81,95.29Z"/><polygon class="cls-1" points="62.9 59.79 55.88 55.71 15.45 79.05 22.48 83.13 62.9 59.79"/><ellipse class="cls-2" cx="27.94" cy="76.43" rx="2.6" ry="1.5"/><path class="cls-4" d="M27.94,75.91a11.56,11.56,0,0,0-4.24-5c-3.16-1.83-5.73.11-5.73,4.33a11.87,11.87,0,0,0,.22,2.19"/><ellipse class="cls-2" cx="39.18" cy="69.94" rx="2.6" ry="1.5"/><path class="cls-4" d="M39.18,69.42a11.62,11.62,0,0,0-4.24-5c-3.16-1.83-5.73.11-5.73,4.33A11.79,11.79,0,0,0,29.43,71"/><ellipse class="cls-2" cx="50.42" cy="63.45" rx="2.6" ry="1.5"/><path class="cls-4" d="M50.42,62.93a11.62,11.62,0,0,0-4.24-5c-3.16-1.83-5.73.11-5.73,4.33a11.79,11.79,0,0,0,.22,2.19"/><path class="cls-4" d="M104.38,83.94,95.92,79l8.46-4.88A30.26,30.26,0,0,1,82,70.92L78,68.63,55.88,55.76,35.24,67.68,15.49,79.08h0l.13,11.74L64.12,119l40.39-23.32Z"/><polygon class="cls-5" points="15.53 24.32 55.92 1 104.42 29.18 64.03 52.5 15.53 24.32"/><polygon class="cls-6" points="35.69 26.72 33.95 27.72 26.99 23.7 28.73 22.7 35.69 26.72"/><polygon class="cls-6" points="51.35 17.68 49.61 18.68 42.65 14.66 44.39 13.65 51.35 17.68"/><path class="cls-6" d="M35.69,18.68c-1.93,1.11-1.93,2.91,0,4a7.69,7.69,0,0,0,7,0c1.92-1.11,1.92-2.91,0-4A7.69,7.69,0,0,0,35.69,18.68ZM41,21.75a4,4,0,0,1-3.68,0,1.12,1.12,0,0,1,0-2.12,4,4,0,0,1,3.68,0A1.12,1.12,0,0,1,41,21.75Z"/><polygon class="cls-6" points="46.22 32.7 44.48 33.7 37.52 29.68 39.26 28.68 46.22 32.7"/><path class="cls-6" d="M79,25.82c1.93-1.11,1.93-2.91,0-4a7.69,7.69,0,0,0-7,0c-1.92,1.11-1.92,2.91,0,4A7.69,7.69,0,0,0,79,25.82Zm-5.32-3.07a4,4,0,0,1,3.68,0,1.12,1.12,0,0,1,0,2.12,4,4,0,0,1-3.68,0A1.12,1.12,0,0,1,73.72,22.75Z"/><polygon class="cls-6" points="56.67 38.73 54.93 39.73 47.96 35.71 49.7 34.71 56.67 38.73"/><polygon class="cls-6" points="54.37 32.75 56.11 31.75 63.08 35.77 61.34 36.77 54.37 32.75"/><path class="cls-6" d="M70,31.75c1.92-1.12,1.92-2.92,0-4a7.69,7.69,0,0,0-7,0c-1.93,1.12-1.93,2.91,0,4A7.69,7.69,0,0,0,70,31.75Zm-5.32-3.08a4.11,4.11,0,0,1,3.68,0,1.13,1.13,0,0,1,0,2.13,4.11,4.11,0,0,1-3.68,0A1.12,1.12,0,0,1,64.72,28.67Z"/><polygon class="cls-6" points="84.25 26.82 85.99 25.82 92.95 29.84 91.21 30.84 84.25 26.82"/><path class="cls-6" d="M84.25,34.86c1.92-1.11,1.92-2.91,0-4a7.69,7.69,0,0,0-7,0c-1.93,1.11-1.93,2.91,0,4A7.69,7.69,0,0,0,84.25,34.86Zm-5.32-3.07a4.11,4.11,0,0,1,3.68,0,1.12,1.12,0,0,1,0,2.12,4,4,0,0,1-3.68,0A1.12,1.12,0,0,1,78.93,31.79Z"/><polygon class="cls-6" points="77.39 38.83 75.65 39.84 68.69 35.82 70.43 34.81 77.39 38.83"/><path class="cls-6" d="M61.89,39.73c-1.92,1.11-1.92,2.91,0,4a7.69,7.69,0,0,0,7,0c1.93-1.11,1.93-2.91,0-4A7.69,7.69,0,0,0,61.89,39.73Zm5.32,3.07a4,4,0,0,1-3.68,0,1.12,1.12,0,0,1,0-2.12,4.11,4.11,0,0,1,3.68,0A1.12,1.12,0,0,1,67.21,42.8Z"/><path class="cls-6" d="M51.17,9.74c-1.93,1.11-1.93,2.91,0,4a7.69,7.69,0,0,0,7,0c1.92-1.11,1.92-2.91,0-4A7.69,7.69,0,0,0,51.17,9.74Zm5.31,3.07a4,4,0,0,1-3.67,0,1.12,1.12,0,0,1,0-2.12,4.09,4.09,0,0,1,3.67,0A1.12,1.12,0,0,1,56.48,12.81Z"/><polygon class="cls-6" points="72.07 17.78 70.33 18.79 63.37 14.77 65.11 13.76 72.07 17.78"/><path class="cls-6" d="M46.13,24.71c-1.93,1.11-1.93,2.91,0,4a7.69,7.69,0,0,0,7,0c1.92-1.11,1.92-2.91,0-4A7.69,7.69,0,0,0,46.13,24.71Zm5.32,3.07a4,4,0,0,1-3.68,0,1.12,1.12,0,0,1,0-2.12,4.11,4.11,0,0,1,3.68,0A1.12,1.12,0,0,1,51.45,27.78Z"/><path class="cls-6" d="M56.57,18.68c-1.92,1.11-1.92,2.91,0,4a7.69,7.69,0,0,0,7,0c1.93-1.11,1.93-2.91,0-4A7.69,7.69,0,0,0,56.57,18.68Zm5.32,3.07a4,4,0,0,1-3.68,0,1.12,1.12,0,0,1,0-2.12,4.11,4.11,0,0,1,3.68,0A1.12,1.12,0,0,1,61.89,21.75Z"/><line class="cls-4" x1="104.42" y1="29.18" x2="104.42" y2="29.18"/><line class="cls-7" x1="104.42" y1="34.79" x2="104.42" y2="71.31"/><line class="cls-4" x1="104.42" y1="74.12" x2="104.42" y2="74.12"/><line class="cls-4" x1="15.53" y1="24.32" x2="15.53" y2="24.32"/><line class="cls-8" x1="15.53" y1="30.4" x2="15.53" y2="76.02"/><line class="cls-4" x1="15.53" y1="79.06" x2="15.53" y2="79.06"/><rect class="cls-9" width="120" height="120"/><rect class="cls-9" width="120" height="120"/></g></g></svg>