<svg xmlns="http://www.w3.org/2000/svg" viewBox="0 0 120 120"><defs><style>.cls-1,.cls-12,.cls-6{fill:#fff;}.cls-1,.cls-8{stroke:#b8bfca;}.cls-1,.cls-12,.cls-13,.cls-3,.cls-4,.cls-5,.cls-8{stroke-linecap:round;stroke-linejoin:round;stroke-width:2px;}.cls-2{fill:#d5dae0;}.cls-3,.cls-7{fill:#b8bfca;}.cls-3,.cls-4,.cls-5{stroke:#627386;}.cls-13,.cls-14,.cls-4,.cls-8{fill:none;}.cls-5{fill:#627386;}.cls-9{fill:#1b6dc6;}.cls-10{fill:#91d2fb;}.cls-11{fill:#bde4fd;}.cls-12{stroke:#91d2fb;}.cls-13{stroke:#1b6dc6;}</style></defs><title>deploy</title><g id="Layer_2" data-name="Layer 2"><g id="Actions"><path class="cls-1" d="M89.43,5.94,81,1.08h0a.78.78,0,0,0-.8,0L9.4,42a2.92,2.92,0,0,0-1.22,2.34v68.71a1.07,1.07,0,0,0,.42,1h0L17,118.92l7.07-13.41L80.21,67.59a2.91,2.91,0,0,0,1.22-2.34V16.59Z"/><path class="cls-2" d="M16.59,118.67V37.87L9.4,42a2.92,2.92,0,0,0-1.22,2.34v68.71a1.07,1.07,0,0,0,.42,1h0Z"/><path class="cls-3" d="M55.83,81.67,80.21,67.59a2.91,2.91,0,0,0,1.22-2.34V16.59l8-10.65L81,1.08h0a.78.78,0,0,0-.8,0L9.4,42a2.92,2.92,0,0,0-1.22,2.34v9.8Z"/><path class="cls-2" d="M58.1,73.18,81.43,40.61v-24l8-10.65L81,1.08h0a.78.78,0,0,0-.8,0L9.4,42a2.92,2.92,0,0,0-1.22,2.34h0Z"/><path class="cls-1" d="M88.63,78,17.82,118.85c-.68.39-1.23,0-1.23-.92V49.22a2.93,2.93,0,0,1,1.23-2.34L88.63,6c.67-.39,1.22,0,1.22.93v68.7A3,3,0,0,1,88.63,78Z"/><path class="cls-4" d="M89.42,5.94h0L81,1.08h0a.78.78,0,0,0-.8,0L9.4,42a2.92,2.92,0,0,0-1.22,2.34v68.71a1.07,1.07,0,0,0,.42,1h0L17,118.92h0a.78.78,0,0,0,.8-.06L88.63,78a3,3,0,0,0,1.22-2.34V6.93A1.08,1.08,0,0,0,89.42,5.94Z"/><path class="cls-5" d="M89.85,16.72V6.93c0-.9-.55-1.32-1.22-.93L17.82,46.88a2.93,2.93,0,0,0-1.23,2.34V59Z"/><ellipse class="cls-2" cx="27.8" cy="47.11" rx="2.12" ry="1.2" transform="translate(-26.44 54.25) rotate(-66.95)"/><ellipse class="cls-6" cx="33.12" cy="44.04" rx="2.12" ry="1.2" transform="translate(-20.37 57.28) rotate(-66.95)"/><ellipse class="cls-7" cx="22.26" cy="50.31" rx="2.12" ry="1.2" transform="translate(-32.75 51.1) rotate(-66.95)"/><path class="cls-8" d="M70.64,41.35c1.09-.62,2-.12,2,1.13l.07,29.17a4.33,4.33,0,0,1-2,3.4L35.8,95.22c-1.09.63-2,.12-2-1.13l-.08-29.17a4.34,4.34,0,0,1,2-3.4Z"/><polygon class="cls-7" points="40.79 66.71 65.61 52.38 65.66 69.86 40.83 84.2 40.79 66.71"/><path class="cls-9" d="M78.92,46.19a1,1,0,0,1-.71-.3,1,1,0,0,1,0-1.41,1,1,0,0,1,1.41,0,1,1,0,0,1-.7,1.71Z"/><path class="cls-9" d="M100.32,58.7a1,1,0,0,1-.37-1.37h0a1,1,0,0,1,1.37-.36h0a1,1,0,0,1,.36,1.36h0a1,1,0,0,1-.86.5h0A1,1,0,0,1,100.32,58.7Zm-5.48-3.16a1,1,0,0,1-.36-1.37h0a1,1,0,0,1,1.36-.37h0a1,1,0,0,1,.37,1.37h0a1,1,0,0,1-.87.5h0A1,1,0,0,1,94.84,55.54Zm-11-6.33a1,1,0,0,1-.36-1.36h0a1,1,0,0,1,1.36-.37h0a1,1,0,0,1,.37,1.37h0a1,1,0,0,1-.87.5h0A1,1,0,0,1,83.89,49.21Z"/><path class="cls-9" d="M106.29,62a1,1,0,0,1-.7-.29,1,1,0,0,1-.3-.71,1,1,0,0,1,1.71-.7,1,1,0,0,1,.29.7,1,1,0,0,1-.29.71A1,1,0,0,1,106.29,62Z"/><path class="cls-9" d="M40.79,100a1,1,0,0,1-1-1,1,1,0,0,1,.29-.7,1,1,0,0,1,1.71.7,1,1,0,0,1-.3.71A1,1,0,0,1,40.79,100Z"/><path class="cls-9" d="M57.17,109.66a1,1,0,0,1-.37-1.37h0a1,1,0,0,1,1.37-.37h0a1,1,0,0,1,.37,1.37h0a1,1,0,0,1-.87.5h0A1,1,0,0,1,57.17,109.66Zm-5.63-3.25a1,1,0,0,1-.37-1.37h0a1,1,0,0,1,1.37-.37h0a1,1,0,0,1,.37,1.37h0a1,1,0,0,1-.87.5h0A1,1,0,0,1,51.54,106.41Z"/><path class="cls-9" d="M63.3,113a1.05,1.05,0,0,1-.71-.29,1,1,0,0,1-.29-.71,1,1,0,0,1,.29-.71,1,1,0,0,1,1.42,0,1,1,0,0,1,.29.71,1,1,0,0,1-1,1Z"/><path class="cls-4" d="M30,111.83,88.63,78a3,3,0,0,0,1.22-2.34V43.2"/><path class="cls-10" d="M111.75,65.09a1.35,1.35,0,0,0-.58-1.26h0L106.29,61a1.38,1.38,0,0,0-1.4.14L70,81.29h0a4.34,4.34,0,0,0-2,3.4l.08,29.17a1.39,1.39,0,0,0,.57,1.27L73.53,118l-.14-.11a1.31,1.31,0,0,0,1.55,0l34.92-20.17a4.3,4.3,0,0,0,2-3.4Z"/><path class="cls-11" d="M111.17,63.83h0L106.29,61a1.38,1.38,0,0,0-1.4.14L70,81.29h0a4.31,4.31,0,0,0-1.66,2l33.22,19.17,8.33-4.81a4.3,4.3,0,0,0,2-3.4l-.07-29.17A1.35,1.35,0,0,0,111.17,63.83Z"/><path class="cls-12" d="M109.78,64c1.08-.63,2-.13,2,1.12l.07,29.17a4.29,4.29,0,0,1-2,3.4L74.94,117.89c-1.09.63-2,.12-2-1.13l-.08-29.17a4.34,4.34,0,0,1,2-3.4Z"/><path class="cls-13" d="M111.75,65.09a1.35,1.35,0,0,0-.58-1.26h0L106.29,61a1.38,1.38,0,0,0-1.4.14L70,81.29h0a4.34,4.34,0,0,0-2,3.4l.08,29.17a1.39,1.39,0,0,0,.57,1.27L73.53,118l-.14-.11a1.31,1.31,0,0,0,1.55,0l34.92-20.17a4.3,4.3,0,0,0,2-3.4Z"/><polygon class="cls-11" points="81.81 89.62 102.86 77.47 102.9 92.29 81.85 104.45 81.81 89.62"/><rect class="cls-14" width="120" height="120"/><rect class="cls-14" width="120" height="120"/></g></g></svg>