<svg xmlns="http://www.w3.org/2000/svg" viewBox="0 0 120 120"><defs><style>.cls-1,.cls-5{fill:#fff;}.cls-2{fill:#d5dae0;}.cls-3{fill:#b8bfca;}.cls-3,.cls-4{stroke:#b8bfca;}.cls-10,.cls-3,.cls-4,.cls-5,.cls-6,.cls-7,.cls-8,.cls-9{stroke-linecap:round;stroke-linejoin:round;stroke-width:2px;}.cls-10,.cls-11,.cls-4,.cls-6,.cls-7{fill:none;}.cls-5,.cls-6{stroke:#627386;}.cls-7{stroke:#fff;}.cls-8{fill:#91d2fb;stroke:#91d2fb;}.cls-9{fill:#bde4fd;stroke:#bde4fd;}.cls-10{stroke:#1b6dc6;}</style></defs><title>disaster-recovery</title><g id="Layer_2" data-name="Layer 2"><g id="Tech_Concepts" data-name="Tech Concepts"><path class="cls-1" d="M93.26,15.86l-9.9-5.71C71.61,16.93,55.1,10,55.1,10S38.49,36.05,26.74,42.83V77.22c0,12,4.93,19.77,11.87,23.78h0l9.91,5.72,1.22-2.49a29.55,29.55,0,0,0,5.31-.16C69.2,89.4,83.36,64.87,83.36,44.54V36Z"/><path class="cls-2" d="M72.21,61.08C69.88,58,53.88,44.41,38.79,31.91c-4,4.62-8.3,8.76-12,10.92V77.22c0,12,4.93,19.77,11.87,23.78h0l9.91,5.72,1.22-2.49a29.55,29.55,0,0,0,5.31-.16A116.55,116.55,0,0,0,77.12,70.86,61.94,61.94,0,0,0,72.21,61.08Z"/><path class="cls-1" d="M26.74,42.83l9.9,5.72S72.58,60.07,77.5,59.15,65,15.72,65,15.72L55.1,10S38.49,36.05,26.74,42.83Z"/><path class="cls-3" d="M36.64,48.55V82.94c0,20.34,14.16,28.52,28.31,26.85C79.1,95.12,93.26,70.59,93.26,50.25V15.86C81.51,22.65,65,15.72,65,15.72S48.39,41.77,36.64,48.55Z"/><path class="cls-4" d="M36.64,48.55V82.94c0,20.34,14.16,28.52,28.31,26.85C79.1,95.12,93.26,70.59,93.26,50.25V15.86C81.51,22.65,65,15.72,65,15.72S48.39,41.77,36.64,48.55Z"/><path class="cls-5" d="M62.4,101.34c-9.23,0-20-5.74-20-21.94V51c9.12-5.55,21.17-23.74,23.29-27a39,39,0,0,0,13,2.46,21.8,21.8,0,0,0,9.66-2V52.07c0,17.07-12,37.38-23.31,49.13a26.44,26.44,0,0,1-2.65.14Z"/><path class="cls-2" d="M62.4,101.34h0a26.44,26.44,0,0,0,2.65-.14C76.31,89.45,88.36,69.14,88.36,52.07V47.81l-46,26.54V79.4C42.39,95.6,53.17,101.34,62.4,101.34Z"/><path class="cls-6" d="M62.4,101.34c-9.23,0-20-5.74-20-21.94V51c9.12-5.55,21.17-23.74,23.29-27a39,39,0,0,0,13,2.46,21.8,21.8,0,0,0,9.66-2V52.07c0,17.07-12,37.38-23.31,49.13a26.44,26.44,0,0,1-2.65.14Z"/><path class="cls-7" d="M62.4,99.34c-8.71,0-18-5.24-18-19.94V52.13C52.81,46.38,63,31.73,66.5,26.44a40.39,40.39,0,0,0,12.2,2,25.87,25.87,0,0,0,7.66-1.09V52.07c0,16.23-11.43,35.7-22.24,47.21C63.54,99.32,63,99.34,62.4,99.34Z"/><line class="cls-3" x1="36.64" y1="48.55" x2="26.74" y2="42.83"/><line class="cls-3" x1="65" y1="15.72" x2="55.1" y2="10"/><path class="cls-8" d="M76.63,48.9l-7,4V43.61c0-1.29-.78-1.88-1.74-1.32l-5,2.9a4.18,4.18,0,0,0-1.75,3.34v9.32l-7,4a4.19,4.19,0,0,0-1.75,3.34v6.7c0,1.29.78,1.89,1.75,1.33l7-4v9.32c0,1.29.78,1.88,1.75,1.33l5-2.9a4.21,4.21,0,0,0,1.74-3.35V64.3l7-4a4.2,4.2,0,0,0,1.75-3.34v-6.7C78.38,48.93,77.59,48.34,76.63,48.9Z"/><line class="cls-7" x1="55.12" y1="63.62" x2="61" y2="60.23"/><line class="cls-7" x1="70.83" y1="54.56" x2="76.38" y2="51.35"/><line class="cls-7" x1="63.86" y1="46.92" x2="67.64" y2="44.74"/><line class="cls-9" x1="75.63" y1="58.53" x2="69.75" y2="61.92"/><line class="cls-9" x1="59.92" y1="67.6" x2="54.37" y2="70.8"/><line class="cls-9" x1="66.89" y1="75.23" x2="63.11" y2="77.41"/><path class="cls-10" d="M76.63,48.9l-7,4V43.61c0-1.29-.78-1.88-1.74-1.32l-5,2.9a4.18,4.18,0,0,0-1.75,3.34v9.32l-7,4a4.19,4.19,0,0,0-1.75,3.34v6.7c0,1.29.78,1.89,1.75,1.33l7-4v9.32c0,1.29.78,1.88,1.75,1.33l5-2.9a4.21,4.21,0,0,0,1.74-3.35V64.3l7-4a4.2,4.2,0,0,0,1.75-3.34v-6.7C78.38,48.93,77.59,48.34,76.63,48.9Z"/><path class="cls-6" d="M93.26,15.86h0l-9.9-5.71C71.61,16.93,55.1,10,55.1,10A210.57,210.57,0,0,1,38.78,31.92c-.75.85-1.5,1.69-2.26,2.5l-.06.07c-.23.24-.46.49-.7.73l-.06.07c-.5.52-1,1-1.49,1.52l-.07.06c-.22.22-.43.43-.65.63l-.14.14-.62.58-.11.1c-.47.44-.95.86-1.42,1.27l-.18.15-.52.43-.2.17-.57.45-.11.09-.68.51-.16.11c-.17.13-.34.24-.51.36l-.21.15-.47.31-.2.12c-.22.14-.43.27-.65.39V77.22c0,12,4.93,19.77,11.87,23.78h0l9.91,5.72h0A26.61,26.61,0,0,0,65,109.79C79.1,95.12,93.26,70.59,93.26,50.25V15.87Z"/><rect class="cls-11" width="120" height="120"/><rect class="cls-11" width="120" height="120"/></g></g></svg>