<svg xmlns="http://www.w3.org/2000/svg" viewBox="0 0 121.3 120"><defs><style>.cls-1,.cls-10,.cls-11,.cls-12,.cls-13,.cls-14,.cls-2,.cls-3,.cls-4,.cls-7,.cls-8,.cls-9{fill:none;}.cls-1,.cls-10,.cls-12,.cls-2{stroke:#627386;}.cls-1,.cls-10,.cls-11,.cls-12,.cls-13,.cls-2,.cls-3,.cls-4,.cls-7,.cls-8,.cls-9{stroke-linecap:round;stroke-linejoin:round;stroke-width:2px;}.cls-2,.cls-4{stroke-dasharray:0 5.12;}.cls-11,.cls-3,.cls-4,.cls-8,.cls-9{stroke:#1b6dc6;}.cls-5{fill:#fff;}.cls-6{fill:#d5dae0;}.cls-7{stroke:#b8bfca;}.cls-8{stroke-dasharray:0 5.83;}.cls-10,.cls-9{stroke-dasharray:0 5.8;}.cls-11,.cls-12{stroke-dasharray:0 5.77;}.cls-13{stroke:#91d2fb;}</style></defs><title>distributed-everything</title><g id="Layer_2" data-name="Layer 2"><g id="Tech_Concepts" data-name="Tech Concepts"><line class="cls-1" x1="60.65" y1="45.04" x2="60.65" y2="45.04"/><line class="cls-2" x1="60.65" y1="50.16" x2="60.65" y2="57.83"/><line class="cls-1" x1="60.65" y1="60.39" x2="60.65" y2="60.39"/><line class="cls-3" x1="47.54" y1="52.61" x2="47.54" y2="52.61"/><line class="cls-4" x1="47.54" y1="57.72" x2="47.54" y2="65.4"/><line class="cls-3" x1="47.54" y1="67.96" x2="47.54" y2="67.96"/><line class="cls-3" x1="73.76" y1="37.47" x2="73.76" y2="37.47"/><line class="cls-4" x1="73.76" y1="42.59" x2="73.76" y2="50.27"/><line class="cls-3" x1="73.76" y1="52.83" x2="73.76" y2="52.83"/><path class="cls-5" d="M84.66,13.27h0L73.19,6.64h0c-1.34-.77-3.09-.71-5,.4l-.84.48L57.53,1.85h0C55.29.57,52.38.69,49.19,2.53c-6.66,3.84-12.13,13.81-12.7,22.82L30.19,29c-4.23,2.44-7.65,9-7.65,14.62,0,3.08,1,5.24,2.65,6.17h0l11.47,6.62h0c1.34.77,3.09.7,5-.4l38-21.94c4.23-2.44,7.65-9,7.65-14.62C87.3,16.37,86.28,14.2,84.66,13.27Z"/><path class="cls-6" d="M79.65,13.67l-6.3,3.63c-.57-8.34-6-12-12.7-8.15S48.53,23,48,32l-6.3,3.64c-4.22,2.44-7.65,9-7.65,14.61s3.43,8.23,7.65,5.79l38-21.94c4.23-2.44,7.65-9,7.65-14.62s-3.42-8.22-7.65-5.78"/><path class="cls-7" d="M79.65,13.67l-6.3,3.63c-.57-8.34-6-12-12.7-8.15S48.53,23,48,32l-6.3,3.64c-4.22,2.44-7.65,9-7.65,14.61"/><path class="cls-1" d="M84.66,13.27h0L73.19,6.64h0c-1.34-.77-3.09-.71-5,.4l-.84.48L57.53,1.85h0C55.29.57,52.38.69,49.19,2.53c-6.66,3.84-12.13,13.81-12.7,22.82L30.19,29c-4.23,2.44-7.65,9-7.65,14.62,0,3.08,1,5.24,2.65,6.17h0l11.47,6.62h0c1.34.77,3.09.7,5-.4l38-21.94c4.23-2.44,7.65-9,7.65-14.62C87.3,16.37,86.28,14.2,84.66,13.27Z"/><line class="cls-3" x1="91.88" y1="66.53" x2="91.88" y2="66.53"/><path class="cls-8" d="M86.45,68.56c-6.67,1.06-11.68-3.84-12.55-12.82"/><line class="cls-3" x1="73.76" y1="52.83" x2="73.76" y2="52.83"/><line class="cls-3" x1="47.54" y1="67.96" x2="47.54" y2="67.96"/><path class="cls-9" d="M47.07,73.74C45.38,84.39,39.33,95.33,31.83,101"/><line class="cls-3" x1="29.42" y1="102.59" x2="29.42" y2="102.59"/><line class="cls-1" x1="60.65" y1="60.39" x2="60.65" y2="60.39"/><path class="cls-10" d="M61.12,66.17c1.69,10.65,7.74,21.59,15.24,27.25"/><line class="cls-1" x1="78.78" y1="95.02" x2="78.78" y2="95.02"/><line class="cls-3" x1="91.88" y1="66.53" x2="91.88" y2="66.53"/><line class="cls-11" x1="96.88" y1="63.64" x2="99.38" y2="62.2"/><line class="cls-3" x1="101.88" y1="60.76" x2="101.88" y2="60.76"/><line class="cls-3" x1="19.43" y1="108.36" x2="19.43" y2="108.36"/><line class="cls-11" x1="24.42" y1="105.48" x2="26.92" y2="104.03"/><line class="cls-3" x1="29.42" y1="102.59" x2="29.42" y2="102.59"/><line class="cls-1" x1="88.77" y1="100.79" x2="88.77" y2="100.79"/><line class="cls-12" x1="83.77" y1="97.91" x2="81.27" y2="96.47"/><line class="cls-1" x1="78.78" y1="95.02" x2="78.78" y2="95.02"/><path class="cls-7" d="M107.2,105.2c0,1.72-1.21,3.28-3.17,4.41a16.9,16.9,0,0,1-15.26,0c-2-1.13-3.16-2.69-3.16-4.41s1.21-3.28,3.16-4.41a16.9,16.9,0,0,1,15.26,0C106,101.92,107.2,103.48,107.2,105.2Z"/><path class="cls-13" d="M22.59,112.77c0,1.72-1.21,3.28-3.16,4.4A15.54,15.54,0,0,1,11.79,119a15.53,15.53,0,0,1-7.63-1.83C2.21,116.05,1,114.49,1,112.77s1.21-3.28,3.16-4.41a15.53,15.53,0,0,1,7.63-1.82,15.54,15.54,0,0,1,7.64,1.82C21.38,109.49,22.59,111.05,22.59,112.77Z"/><path class="cls-13" d="M120.3,56.35c0,1.72-1.2,3.28-3.16,4.41a16.9,16.9,0,0,1-15.26,0c-2-1.13-3.17-2.69-3.17-4.41s1.21-3.28,3.17-4.4a16.82,16.82,0,0,1,15.26,0C119.1,53.07,120.3,54.63,120.3,56.35Z"/><rect class="cls-14" x="0.65" width="120" height="120"/><rect class="cls-14" x="0.65" width="120" height="120"/></g></g></svg>