<svg xmlns="http://www.w3.org/2000/svg" viewBox="0 0 120 120"><defs><style>.cls-1,.cls-10,.cls-13,.cls-14,.cls-15,.cls-2,.cls-3,.cls-7,.cls-9{fill:none;}.cls-1,.cls-2,.cls-3,.cls-8{stroke:#1b6dc6;}.cls-1,.cls-10,.cls-12,.cls-13,.cls-14,.cls-2,.cls-3,.cls-6,.cls-7,.cls-8,.cls-9{stroke-linecap:round;stroke-linejoin:round;stroke-width:2px;}.cls-2{stroke-dasharray:0 6.14;}.cls-3{stroke-dasharray:0 6.33;}.cls-4,.cls-8{fill:#fff;}.cls-5{fill:#bde4fd;}.cls-6{fill:#91d2fb;}.cls-6,.cls-7{stroke:#91d2fb;}.cls-9{stroke:#fff;}.cls-10{stroke:#bde4fd;}.cls-11{fill:#d5dae0;}.cls-12{fill:#b8bfca;}.cls-12,.cls-13{stroke:#b8bfca;}.cls-14{stroke:#627386;}</style></defs><title>DR-perm-to-perm</title><g id="Layer_2" data-name="Layer 2"><g id="Tech_Concepts" data-name="Tech Concepts"><line class="cls-1" x1="56.77" y1="5.84" x2="56.77" y2="5.84"/><line class="cls-2" x1="62.09" y1="8.91" x2="107.31" y2="35.02"/><line class="cls-1" x1="109.97" y1="36.56" x2="109.97" y2="36.56"/><line class="cls-1" x1="29.98" y1="86.71" x2="29.98" y2="86.71"/><line class="cls-3" x1="35.46" y1="89.88" x2="60.14" y2="104.13"/><line class="cls-1" x1="62.88" y1="105.71" x2="62.88" y2="105.71"/><path class="cls-4" d="M118.15,41.28,110,36.56c-9.7,5.6-23.33-.12-23.33-.12s-13.71,21.5-23.41,27.1v28.4c0,9.9,4.07,16.32,9.8,19.63h0l8.18,4.72,1-2.05a25.75,25.75,0,0,0,4.38-.13C98.28,102,110,81.74,110,65V57.88Z"/><path class="cls-5" d="M100.77,78.61C98.85,76,85.63,64.85,73.17,54.53c-3.34,3.81-6.84,7.23-9.94,9v28.4c0,9.9,4.07,16.32,9.8,19.63h0l8.18,4.72,1-2.05a25.75,25.75,0,0,0,4.38-.13,96.29,96.29,0,0,0,18.22-27.43A50.51,50.51,0,0,0,100.77,78.61Z"/><path class="cls-4" d="M63.23,63.54l8.17,4.72s29.67,9.51,33.74,8.75S94.81,41.16,94.81,41.16l-8.17-4.72S72.93,57.94,63.23,63.54Z"/><path class="cls-6" d="M71.4,68.26v28.4c0,16.79,11.69,23.55,23.37,22.17,11.69-12.12,23.38-32.37,23.38-49.16V41.28c-9.7,5.6-23.34-.12-23.34-.12S81.1,62.66,71.4,68.26Z"/><path class="cls-7" d="M71.4,68.26v28.4c0,16.79,11.69,23.55,23.37,22.17,11.69-12.12,23.38-32.37,23.38-49.16V41.28c-9.7,5.6-23.34-.12-23.34-.12S81.1,62.66,71.4,68.26Z"/><path class="cls-8" d="M92.67,111.85c-7.62,0-16.52-4.74-16.52-18.12V70.32c7.53-4.58,17.48-19.6,19.23-22.3a32.12,32.12,0,0,0,10.75,2,17.91,17.91,0,0,0,8-1.68v22.8c0,14.09-9.95,30.86-19.24,40.56a20.23,20.23,0,0,1-2.19.12Z"/><path class="cls-5" d="M92.67,111.85h0a20.23,20.23,0,0,0,2.19-.12c9.29-9.7,19.24-26.47,19.24-40.56V67.65L76.15,89.56v4.17C76.15,107.11,85.05,111.85,92.67,111.85Z"/><path class="cls-1" d="M92.67,111.85c-7.62,0-16.52-4.74-16.52-18.12V70.32c7.53-4.58,17.48-19.6,19.23-22.3a32.12,32.12,0,0,0,10.75,2,17.91,17.91,0,0,0,8-1.68v22.8c0,14.09-9.95,30.86-19.24,40.56a20.23,20.23,0,0,1-2.19.12Z"/><path class="cls-9" d="M92.67,110.2c-7.19,0-14.87-4.33-14.87-16.46V71.22c7-4.75,15.35-16.85,18.25-21.21a33.41,33.41,0,0,0,10.08,1.69,21.17,21.17,0,0,0,6.32-.9V71.17c0,13.4-9.44,29.47-18.36,39C93.61,110.18,93.14,110.2,92.67,110.2Z"/><line class="cls-6" x1="71.4" y1="68.26" x2="63.23" y2="63.54"/><line class="cls-6" x1="94.81" y1="41.16" x2="86.64" y2="36.44"/><path class="cls-6" d="M104.42,68.55l-5.78,3.33v-7.7c0-1.06-.64-1.55-1.44-1.09l-4.15,2.4a3.45,3.45,0,0,0-1.45,2.76V76l-5.77,3.33A3.45,3.45,0,0,0,84.39,82v5.53c0,1.07.64,1.55,1.44,1.09l5.77-3.33V93c0,1.06.65,1.55,1.45,1.09l4.15-2.39A3.47,3.47,0,0,0,98.64,89v-7.7l5.78-3.34a3.47,3.47,0,0,0,1.44-2.76V69.64C105.86,68.58,105.21,68.09,104.42,68.55Z"/><line class="cls-9" x1="86.66" y1="81.11" x2="91.51" y2="78.31"/><line class="cls-9" x1="99.62" y1="73.62" x2="104.21" y2="70.98"/><line class="cls-9" x1="93.87" y1="67.32" x2="96.99" y2="65.52"/><line class="cls-10" x1="103.59" y1="76.1" x2="98.74" y2="78.91"/><line class="cls-10" x1="90.62" y1="83.59" x2="86.04" y2="86.24"/><line class="cls-10" x1="96.37" y1="89.89" x2="93.26" y2="91.69"/><path class="cls-1" d="M104.42,68.55l-5.78,3.33v-7.7c0-1.06-.64-1.55-1.44-1.09l-4.15,2.4a3.45,3.45,0,0,0-1.45,2.76V76l-5.77,3.33A3.45,3.45,0,0,0,84.39,82v5.53c0,1.07.64,1.55,1.44,1.09l5.77-3.33V93c0,1.06.65,1.55,1.45,1.09l4.15-2.39A3.47,3.47,0,0,0,98.64,89v-7.7l5.78-3.34a3.47,3.47,0,0,0,1.44-2.76V69.64C105.86,68.58,105.21,68.09,104.42,68.55Z"/><path class="cls-1" d="M118.15,41.28h0L110,36.56c-9.7,5.6-23.33-.12-23.33-.12A174.68,174.68,0,0,1,73.17,54.53c-.62.71-1.24,1.4-1.87,2.07l0,0-.57.61-.05.05-1.24,1.26,0,0-.54.52-.12.12-.51.47-.09.09c-.39.36-.78.71-1.17,1l-.15.13-.43.36-.16.13-.47.38-.1.07c-.19.15-.37.29-.56.42l-.13.1-.42.29-.18.12-.38.26-.17.1-.53.32v28.4c0,9.9,4.07,16.32,9.8,19.63h0l8.18,4.72h0a22,22,0,0,0,13.56,2.54c11.69-12.12,23.38-32.37,23.38-49.16V41.28Z"/><path class="cls-4" d="M56.77,5.84,48.6,1.12C38.9,6.72,25.26,1,25.26,1S11.55,22.51,1.85,28.11V56.5c0,9.91,4.07,16.32,9.81,19.63h0l8.17,4.72,1-2a24.84,24.84,0,0,0,4.39-.13C36.91,66.56,48.6,46.31,48.6,29.51V22.44Z"/><path class="cls-11" d="M39.4,43.17C37.47,40.6,24.26,29.41,11.8,19.09c-3.34,3.82-6.85,7.23-10,9V56.5c0,9.91,4.07,16.32,9.81,19.63h0l8.17,4.72,1-2a24.84,24.84,0,0,0,4.39-.13A96.44,96.44,0,0,0,43.45,51.25,53.12,53.12,0,0,0,39.4,43.17Z"/><path class="cls-4" d="M1.85,28.11,10,32.83s29.67,9.51,33.74,8.75S33.44,5.72,33.44,5.72L25.26,1S11.55,22.51,1.85,28.11Z"/><path class="cls-12" d="M10,32.83V61.22C10,78,21.72,84.77,33.4,83.39,45.09,71.28,56.77,51,56.77,34.23V5.84c-9.7,5.6-23.33-.12-23.33-.12S19.73,27.23,10,32.83Z"/><path class="cls-13" d="M10,32.83V61.22C10,78,21.72,84.77,33.4,83.39,45.09,71.28,56.77,51,56.77,34.23V5.84c-9.7,5.6-23.33-.12-23.33-.12S19.73,27.23,10,32.83Z"/><path class="cls-8" d="M31.29,76.42c-7.62,0-16.52-4.75-16.52-18.12V34.88C22.31,30.3,32.26,15.29,34,12.59a32.32,32.32,0,0,0,10.74,2,18.09,18.09,0,0,0,8-1.67V35.73c0,14.1-9.95,30.87-19.25,40.57a20.09,20.09,0,0,1-2.19.12Z"/><path class="cls-11" d="M31.29,76.42h0a20.09,20.09,0,0,0,2.19-.12c9.3-9.7,19.25-26.47,19.25-40.57V32.22l-38,21.91V58.3C14.77,71.67,23.67,76.42,31.29,76.42Z"/><path class="cls-14" d="M31.29,76.42c-7.62,0-16.52-4.75-16.52-18.12V34.88C22.31,30.3,32.26,15.29,34,12.59a32.32,32.32,0,0,0,10.74,2,18.09,18.09,0,0,0,8-1.67V35.73c0,14.1-9.95,30.87-19.25,40.57a20.09,20.09,0,0,1-2.19.12Z"/><path class="cls-9" d="M31.29,74.77c-7.18,0-14.87-4.33-14.87-16.47V35.78c7-4.74,15.36-16.84,18.26-21.21a33,33,0,0,0,10.07,1.7,21.12,21.12,0,0,0,6.32-.91V35.73c0,13.41-9.43,29.48-18.36,39C32.24,74.75,31.76,74.77,31.29,74.77Z"/><line class="cls-12" x1="10.03" y1="32.83" x2="1.85" y2="28.11"/><line class="cls-12" x1="33.44" y1="5.72" x2="25.26" y2="1"/><path class="cls-11" d="M43,33.11l-5.77,3.34v-7.7c0-1.06-.65-1.55-1.45-1.09l-4.15,2.39a3.48,3.48,0,0,0-1.44,2.76v7.7l-5.77,3.33A3.48,3.48,0,0,0,23,46.6v5.54c0,1.06.65,1.55,1.45,1.09l5.77-3.34v7.7c0,1.07.65,1.56,1.44,1.1l4.15-2.4a3.46,3.46,0,0,0,1.45-2.76v-7.7L43,42.5a3.46,3.46,0,0,0,1.45-2.76V34.21C44.49,33.14,43.84,32.65,43,33.11Z"/><line class="cls-9" x1="25.28" y1="45.67" x2="30.14" y2="42.87"/><line class="cls-9" x1="38.25" y1="38.19" x2="42.83" y2="35.54"/><line class="cls-9" x1="32.5" y1="31.88" x2="35.62" y2="30.08"/><line class="cls-13" x1="42.22" y1="40.67" x2="37.36" y2="43.47"/><line class="cls-13" x1="29.25" y1="48.16" x2="24.66" y2="50.8"/><line class="cls-13" x1="35" y1="54.46" x2="31.88" y2="56.26"/><path class="cls-14" d="M43,33.11l-5.77,3.34v-7.7c0-1.06-.65-1.55-1.45-1.09l-4.15,2.39a3.48,3.48,0,0,0-1.44,2.76v7.7l-5.77,3.33A3.48,3.48,0,0,0,23,46.6v5.54c0,1.06.65,1.55,1.45,1.09l5.77-3.34v7.7c0,1.07.65,1.56,1.44,1.1l4.15-2.4a3.46,3.46,0,0,0,1.45-2.76v-7.7L43,42.5a3.46,3.46,0,0,0,1.45-2.76V34.21C44.49,33.14,43.84,32.65,43,33.11Z"/><path class="cls-14" d="M56.77,5.84h0L48.6,1.12C38.9,6.72,25.26,1,25.26,1A172.59,172.59,0,0,1,11.79,19.1c-.61.7-1.24,1.4-1.86,2.07l0,0-.58.61-.05.05c-.41.43-.82.85-1.23,1.25L8,23.19l-.53.52-.12.11-.51.48-.09.08c-.39.37-.78.71-1.17,1.05l-.15.12L5,25.91l-.17.14-.47.37-.09.08-.56.42L3.54,27l-.42.3-.18.12-.39.25-.16.11-.54.32V56.5c0,9.91,4.07,16.32,9.81,19.63h0l8.17,4.72h0A22,22,0,0,0,33.4,83.39C45.09,71.28,56.77,51,56.77,34.23V5.85Z"/><rect class="cls-15" width="120" height="120"/><rect class="cls-15" width="120" height="120"/></g></g></svg>