<svg xmlns="http://www.w3.org/2000/svg" viewBox="0 0 120 120"><defs><style>.cls-1{fill:#b8bfca;}.cls-2{fill:#d5dae0;}.cls-10,.cls-3{fill:#fff;}.cls-11,.cls-4,.cls-7,.cls-9{fill:none;}.cls-4{stroke:#627386;}.cls-10,.cls-4,.cls-7,.cls-8,.cls-9{stroke-linecap:round;stroke-linejoin:round;stroke-width:2px;}.cls-5{fill:#91d2fb;}.cls-6,.cls-8{fill:#bde4fd;}.cls-7{stroke:#1b6dc6;}.cls-10,.cls-8{stroke:#91d2fb;}.cls-9{stroke:#fff;}</style></defs><title>drug-retail</title><g id="Layer_2" data-name="Layer 2"><g id="Industries"><path class="cls-1" d="M87.69,101.08h0a6.93,6.93,0,0,0,9.48,2.54l6.14-3.54,6.13-3.54A7,7,0,0,0,112,87.05h0a7,7,0,0,0-9.49-2.54l-6.13,3.54L90.23,91.6a6.95,6.95,0,0,0-2.54,9.48Z"/><rect class="cls-2" x="96.18" y="81.43" width="5.73" height="19.36" rx="2.87" transform="translate(69.67 222.44) rotate(-120)"/><path class="cls-2" d="M87,95.81a6.9,6.9,0,0,1,3.23-4.21l4.87-2.81a2.94,2.94,0,0,1,2.82.3c2.5,1.45,4.53,5.32,4.53,8.66,0,1.81-.59,3.08-1.53,3.65l0,0-3.79,2.18A6.94,6.94,0,0,1,87,95.81Z"/><path class="cls-3" d="M94.58,97a2.87,2.87,0,0,1-2.87-5l5.6-3.23c.13.06.26.11.4.19a9.31,9.31,0,0,1,3.47,4.2Z"/><path class="cls-4" d="M87.69,101.08h0a6.93,6.93,0,0,0,9.48,2.54l6.14-3.54,6.13-3.54A7,7,0,0,0,112,87.05h0a7,7,0,0,0-9.49-2.54l-6.13,3.54L90.23,91.6a6.95,6.95,0,0,0-2.54,9.48Z"/><path class="cls-4" d="M100.92,101.4c.94-.57,1.53-1.84,1.53-3.65,0-3.34-2-7.21-4.53-8.66A2.94,2.94,0,0,0,95,88.81"/><path class="cls-2" d="M24.58,112.32h0a6.95,6.95,0,0,1-9.48-2.54l-3.54-6.14L8,97.51A7,7,0,0,1,10.56,88h0A6.94,6.94,0,0,1,20,90.57l3.54,6.13,3.55,6.14a6.94,6.94,0,0,1-2.55,9.48Z"/><rect class="cls-3" x="16.87" y="88.32" width="5.73" height="19.36" rx="2.87" transform="translate(-46.36 23) rotate(-30)"/><path class="cls-1" d="M20.66,105.34a2.87,2.87,0,1,0,5-2.87l-3.23-5.59a3,3,0,0,0-.44,0,9.34,9.34,0,0,0-5.1,1.9Z"/><path class="cls-1" d="M15.1,109.78a6.94,6.94,0,0,0,12-6.94L24.39,98.1a4.68,4.68,0,0,0-3.13-1.54,8.43,8.43,0,0,0-5,1.18h0a8.44,8.44,0,0,0-3.51,3.73,4.45,4.45,0,0,0,0,4.1l-.08,0Z"/><path class="cls-2" d="M20.11,104.38a2.87,2.87,0,1,0,5-2.87l-3.23-5.59c-.15,0-.28,0-.44,0a9.34,9.34,0,0,0-5.1,1.9Z"/><path class="cls-4" d="M12.69,105.62a4.45,4.45,0,0,1,0-4.1,8.52,8.52,0,0,1,3.52-3.73h0a8.43,8.43,0,0,1,5-1.18,4.46,4.46,0,0,1,3.54,2.06"/><path class="cls-4" d="M24.58,112.32h0a6.95,6.95,0,0,1-9.48-2.54l-3.54-6.14L8,97.51A7,7,0,0,1,10.56,88h0A6.94,6.94,0,0,1,20,90.57l3.54,6.13,3.55,6.14a6.94,6.94,0,0,1-2.55,9.48Z"/><path class="cls-5" d="M45,112.88h0A6.95,6.95,0,0,0,52.72,119l7-.85,7-.84a7,7,0,0,0,6.07-7.72h0a6.95,6.95,0,0,0-7.73-6.07l-7,.85-7,.84A7,7,0,0,0,45,112.88Z"/><rect class="cls-6" x="56.49" y="98.5" width="5.73" height="19.36" rx="2.87" transform="translate(-40.96 180.02) rotate(-96.86)"/><path class="cls-6" d="M46.43,107.77a6.89,6.89,0,0,1,4.63-2.61l5.57-.67a3,3,0,0,1,2.48,1.39c1.74,2.31,2.08,6.68.77,9.75-.71,1.66-1.76,2.6-2.85,2.74l0,.06-4.33.52a6.94,6.94,0,0,1-6.29-11.18Z"/><path class="cls-3" d="M52.94,111.84a2.87,2.87,0,0,1-.69-5.7l6.41-.77c.1.11.21.21.3.33a9.37,9.37,0,0,1,1.54,5.23Z"/><path class="cls-7" d="M45,112.88h0A6.95,6.95,0,0,0,52.72,119l7-.85,7-.84a7,7,0,0,0,6.07-7.72h0a6.95,6.95,0,0,0-7.73-6.07l-7,.85-7,.84A7,7,0,0,0,45,112.88Z"/><path class="cls-7" d="M58.94,118.18c.72-.22,1.33-1.23,1.64-2.92.57-3.12-.12-7.41-1.53-9.57-.62-1-1.27-1.33-1.86-1.2"/><ellipse class="cls-6" cx="56.92" cy="40.76" rx="26.97" ry="15.57"/><ellipse class="cls-6" cx="56.92" cy="30.28" rx="28.91" ry="16.69"/><path class="cls-8" d="M85.84,30.28H79.41c-5.3-3.79-13.4-6.21-22.49-6.21s-17.19,2.42-22.49,6.21H28V40.76a10.67,10.67,0,0,0,1.95,6V80.34c0,8.6,12.07,15.57,27,15.57s27-7,27-15.57V46.78a10.75,10.75,0,0,0,2-6Z"/><path class="cls-5" d="M56.92,24.07h0V95.91h0c14.9,0,27-7,27-15.57V46.78a10.75,10.75,0,0,0,2-6V30.28H79.41C74.11,26.49,66,24.07,56.92,24.07Z"/><path class="cls-9" d="M85.84,30.28H79.41c-5.3-3.79-13.4-6.21-22.49-6.21s-17.19,2.42-22.49,6.21H28V40.76a10.67,10.67,0,0,0,1.95,6V80.34c0,8.6,12.07,15.57,27,15.57s27-7,27-15.57V46.78a10.75,10.75,0,0,0,2-6Z"/><path class="cls-3" d="M56.92,94.86C42.63,94.86,31,88.35,31,80.34V46.46l-.18-.26a9.64,9.64,0,0,1-1.77-5.44V32.37a1,1,0,0,1,1.05-1h4.66l.27-.2c5.35-3.82,13.33-6,21.88-6s16.54,2.19,21.89,6l.27.2h4.66a1,1,0,0,1,1.05,1v8.39A9.72,9.72,0,0,1,83,46.2l-.18.26V80.34C82.84,88.35,71.22,94.86,56.92,94.86ZM31.16,33.42v7.34A7.6,7.6,0,0,0,32.57,45l.35.53a1,1,0,0,1,.18.59V80.34c0,6.62,11.13,12.43,23.82,12.43S80.75,87,80.75,80.34V46.15a1.1,1.1,0,0,1,.17-.59l.36-.53a7.6,7.6,0,0,0,1.41-4.27V33.42h-4a1.12,1.12,0,0,1-.61-.19l-.54-.39c-5-3.57-12.54-5.62-20.67-5.62s-15.66,2.05-20.66,5.62l-.54.39a1.12,1.12,0,0,1-.61.19Z"/><path class="cls-6" d="M83.74,31.33H79.08l-.27-.2c-5.35-3.82-13.33-6-21.89-6v2.1c8.13,0,15.66,2.05,20.67,5.62l.54.39a1.12,1.12,0,0,0,.61.19h4v7.34A7.6,7.6,0,0,1,81.28,45l-.36.53a1.1,1.1,0,0,0-.17.59V80.34c0,6.62-11.14,12.43-23.83,12.43v2.09c14.3,0,25.92-6.51,25.92-14.52V46.46L83,46.2a9.72,9.72,0,0,0,1.77-5.44V32.37A1,1,0,0,0,83.74,31.33Z"/><path class="cls-7" d="M85.84,30.28H79.41c-5.3-3.79-13.4-6.21-22.49-6.21s-17.19,2.42-22.49,6.21H28V40.76a10.67,10.67,0,0,0,1.95,6V80.34c0,8.6,12.07,15.57,27,15.57s27-7,27-15.57V46.78a10.75,10.75,0,0,0,2-6Z"/><path class="cls-8" d="M79.41,19.79C74.11,16,66,13.58,56.92,13.58S39.73,16,34.43,19.79H28V30.28C28,39.5,41,47,56.92,47S85.84,39.5,85.84,30.28V19.79Z"/><path class="cls-10" d="M57,13.59h-.08c-9.08,0-17.19,2.43-22.49,6.21H28V30.28C28,39.5,41,47,56.92,47H57Z"/><line class="cls-10" x1="80.07" y1="27.58" x2="80.07" y2="39.82"/><line class="cls-10" x1="72.38" y1="32.87" x2="72.38" y2="44.06"/><line class="cls-10" x1="64.69" y1="34.7" x2="64.69" y2="45.89"/><line class="cls-10" x1="57" y1="36.32" x2="57" y2="46.46"/><line class="cls-10" x1="49.31" y1="33.68" x2="49.31" y2="45.91"/><line class="cls-10" x1="41.62" y1="31.69" x2="41.62" y2="43.92"/><line class="cls-10" x1="33.93" y1="28.26" x2="33.93" y2="39.45"/><ellipse class="cls-8" cx="56.92" cy="17.69" rx="28.91" ry="16.69"/><ellipse class="cls-3" cx="56.92" cy="17.69" rx="25.17" ry="13.63"/><ellipse class="cls-6" cx="56.92" cy="17.69" rx="12.58" ry="6.68"/><path class="cls-7" d="M85.84,17.69C85.84,8.47,72.89,1,56.92,1S28,8.47,28,17.69h0V30.28C28,39.5,41,47,56.92,47S85.84,39.5,85.84,30.28V17.69Z"/><path class="cls-3" d="M70.79,75.81a1.57,1.57,0,0,1-1.09,1.5,43,43,0,0,1-12.78,1.86c-14.89,0-27-7-27-15.57v-17c0,8.6,12.07,15.57,27,15.57a43.36,43.36,0,0,0,12.49-1.77,1.05,1.05,0,0,1,1.38,1Z"/><path class="cls-6" d="M56.92,68c-9.72,0-18.25-3-23-7.43v5.41c4.74,4.46,13.27,7.43,23,7.43,1.34,0,2.65-.06,3.94-.17V67.78C59.57,67.89,58.26,68,56.92,68Z"/><path class="cls-6" d="M69.41,60.38a43.36,43.36,0,0,1-12.49,1.77h0v17h0A43,43,0,0,0,69.7,77.31a1.57,1.57,0,0,0,1.09-1.5V61.38A1.05,1.05,0,0,0,69.41,60.38Z"/><path class="cls-5" d="M56.92,68h0v5.41h0c1.34,0,2.65-.06,3.94-.17V67.78C59.57,67.89,58.26,68,56.92,68Z"/><path class="cls-7" d="M70.79,75.81a1.57,1.57,0,0,1-1.09,1.5,43,43,0,0,1-12.78,1.86c-14.89,0-27-7-27-15.57v-17c0,8.6,12.07,15.57,27,15.57a43.36,43.36,0,0,0,12.49-1.77,1.05,1.05,0,0,1,1.38,1Z"/><rect class="cls-11" width="120" height="120"/><rect class="cls-11" width="120" height="120"/></g></g></svg>