<svg xmlns="http://www.w3.org/2000/svg" viewBox="0 0 120 120"><defs><style>.cls-1,.cls-11,.cls-12,.cls-2,.cls-3,.cls-7,.cls-8,.cls-9{fill:none;}.cls-1,.cls-2,.cls-3,.cls-9{stroke:#1b6dc6;}.cls-1,.cls-10,.cls-11,.cls-2,.cls-3,.cls-6,.cls-7,.cls-8,.cls-9{stroke-linecap:round;stroke-linejoin:round;stroke-width:2px;}.cls-1{stroke-dasharray:0 6;}.cls-3{stroke-dasharray:0 5.49;}.cls-4{fill:#fff;}.cls-5,.cls-6{fill:#d5dae0;}.cls-10,.cls-6,.cls-8{stroke:#b8bfca;}.cls-7{stroke:#627386;}.cls-9{stroke-dasharray:0 5.23;}.cls-10{fill:#b8bfca;}.cls-11{stroke:#bde4fd;}</style></defs><title>edge</title><g id="Layer_2" data-name="Layer 2"><g id="New_Icon_Set" data-name="New Icon Set"><line class="cls-1" x1="12.94" y1="53.68" x2="18.28" y2="56.77"/><line class="cls-1" x1="107.06" y1="54.8" x2="102.28" y2="57.56"/><line class="cls-2" x1="109" y1="110.28" x2="109" y2="110.28"/><line class="cls-2" x1="102.93" y1="106.78" x2="102.93" y2="106.78"/><line class="cls-3" x1="98.18" y1="104.03" x2="91.04" y2="99.91"/><line class="cls-2" x1="88.66" y1="98.54" x2="88.66" y2="98.54"/><path class="cls-4" d="M99.52,64.42,63.66,43.72a1.74,1.74,0,0,0-1.8-.13v0L19.24,68.17l39.48,36.51,42.61-24.6h0a2.41,2.41,0,0,0,1-2.22V69.7a6.65,6.65,0,0,0-2.76-5.28"/><path class="cls-5" d="M101.31,80.07a2.41,2.41,0,0,0,1-2.22V69.7a7,7,0,0,0-1.9-4.58L49.88,94.27l2.77,4.81,6.07,5.6,42.61-24.6Z"/><path class="cls-6" d="M21.05,83.83l35.86,20.71c1.53.88,2.76-.06,2.76-2.09V94.3A6.63,6.63,0,0,0,56.91,89L21.05,68.32c-1.53-.88-2.77.05-2.77,2.09v8.14a6.6,6.6,0,0,0,2.77,5.28"/><path class="cls-7" d="M99.52,64.42,63.66,43.72a1.74,1.74,0,0,0-1.8-.13v0L19.24,68.17v0a2.4,2.4,0,0,0-1,2.22v8.14a6.6,6.6,0,0,0,2.77,5.28l35.86,20.71a1.75,1.75,0,0,0,1.79.13h0l42.61-24.6h0a2.41,2.41,0,0,0,1-2.22V69.7A6.65,6.65,0,0,0,99.52,64.42Z"/><line class="cls-6" x1="37.48" y1="85.56" x2="40.48" y2="87.3"/><path class="cls-8" d="M70.24,66.75c0,3-4.16,5.37-9.3,5.37s-9.3-2.4-9.3-5.37,4.16-5.37,9.3-5.37S70.24,63.79,70.24,66.75Z"/><line class="cls-6" x1="65.86" y1="92.94" x2="66.84" y2="92.38"/><line class="cls-6" x1="87.22" y1="80.61" x2="95.23" y2="75.99"/><line class="cls-2" x1="19" y1="105.99" x2="19" y2="105.99"/><line class="cls-9" x1="23.53" y1="103.37" x2="30.32" y2="99.45"/><line class="cls-2" x1="32.59" y1="98.14" x2="32.59" y2="98.14"/><line class="cls-2" x1="6.88" y1="50.18" x2="6.88" y2="50.18"/><rect class="cls-10" x="91.9" y="6.33" width="6.66" height="50.28" rx="3.27"/><rect class="cls-4" x="91.9" y="10.12" width="3.33" height="40.48" rx="1.64"/><rect class="cls-7" x="91.9" y="6.33" width="6.66" height="50.28" rx="3.27"/><path class="cls-4" d="M99.52,48.91,63.66,28.2a1.79,1.79,0,0,0-1.8-.13h0L19.24,52.66,58.72,89.17l42.61-24.6h0a2.43,2.43,0,0,0,1-2.23V54.19a6.64,6.64,0,0,0-2.76-5.28"/><path class="cls-5" d="M101.31,64.56a2.43,2.43,0,0,0,1-2.23V54.19a7,7,0,0,0-1.9-4.59L49.88,78.76l2.77,4.8,6.07,5.61,42.61-24.6Z"/><path class="cls-6" d="M21.05,68.32,56.91,89c1.53.88,2.76,0,2.76-2.08V78.79a6.61,6.61,0,0,0-2.76-5.28L21.05,52.8c-1.53-.88-2.77.06-2.77,2.1V63a6.62,6.62,0,0,0,2.77,5.28"/><path class="cls-7" d="M99.52,48.91,63.66,28.2a1.79,1.79,0,0,0-1.8-.13h0L19.24,52.66h0a2.42,2.42,0,0,0-1,2.22V63a6.62,6.62,0,0,0,2.77,5.28L56.91,89a1.75,1.75,0,0,0,1.79.14h0l42.61-24.6h0a2.43,2.43,0,0,0,1-2.23V54.19A6.64,6.64,0,0,0,99.52,48.91Z"/><line class="cls-6" x1="37.48" y1="70.05" x2="40.48" y2="71.78"/><path class="cls-8" d="M70.24,51.24c0,3-4.16,5.37-9.3,5.37s-9.3-2.41-9.3-5.37,4.16-5.37,9.3-5.37S70.24,48.27,70.24,51.24Z"/><line class="cls-6" x1="65.86" y1="77.43" x2="66.84" y2="76.86"/><line class="cls-6" x1="87.22" y1="65.1" x2="95.23" y2="60.47"/><polyline class="cls-11" points="112.8 108.09 114.87 113.67 105.19 112.48 109 110.28 112.8 108.09"/><polyline class="cls-11" points="9.14 107.29 7.06 112.88 16.74 111.68 12.94 109.49 9.14 107.29"/><polyline class="cls-11" points="3.07 52.38 1 46.79 10.68 47.99 6.88 50.18 3.07 52.38"/><polyline class="cls-11" points="116.93 53.49 119 47.91 109.32 49.1 113.12 51.3 116.93 53.49"/><rect class="cls-12" width="120" height="120"/><rect class="cls-12" width="120" height="120"/></g></g></svg>