<svg xmlns="http://www.w3.org/2000/svg" viewBox="0 0 120 120"><defs><style>.cls-1,.cls-15,.cls-2,.cls-3,.cls-4,.cls-5,.cls-6,.cls-7,.cls-8{fill:none;}.cls-1,.cls-2,.cls-3{stroke:#1b6dc6;}.cls-1,.cls-10,.cls-12,.cls-13,.cls-2,.cls-3,.cls-4,.cls-5,.cls-6,.cls-7,.cls-8,.cls-9{stroke-linecap:round;stroke-linejoin:round;stroke-width:2px;}.cls-2{stroke-dasharray:0 6.17;}.cls-3{stroke-dasharray:0 6.15;}.cls-4,.cls-5,.cls-6,.cls-7,.cls-8{stroke:#627386;}.cls-5{stroke-dasharray:0 5.89;}.cls-6{stroke-dasharray:0 6.7;}.cls-7{stroke-dasharray:0 5.9;}.cls-8{stroke-dasharray:0 7.3;}.cls-9{fill:#bde4fd;}.cls-10,.cls-12,.cls-9{stroke:#91d2fb;}.cls-10,.cls-11{fill:#fff;}.cls-12{fill:#91d2fb;}.cls-13{fill:#d5dae0;stroke:#fff;}.cls-14{fill:#b8bfca;}</style></defs><title>electronics</title><g id="Layer_2" data-name="Layer 2"><g id="Industries"><line class="cls-1" x1="110.89" y1="83.81" x2="110.89" y2="83.81"/><path class="cls-2" d="M110.89,77.64V35.22a8,8,0,0,0-4-6.92L68.1,5.9"/><line class="cls-1" x1="65.43" y1="4.36" x2="65.43" y2="4.36"/><line class="cls-1" x1="9.11" y1="83.46" x2="9.11" y2="83.46"/><path class="cls-3" d="M9.11,77.31V34.77a8,8,0,0,1,4-6.92L57,2.54"/><line class="cls-1" x1="59.61" y1="1" x2="59.61" y2="1"/><line class="cls-4" x1="88.16" y1="69.8" x2="88.16" y2="69.8"/><line class="cls-5" x1="88.16" y1="63.91" x2="88.16" y2="43.31"/><line class="cls-4" x1="88.16" y1="40.36" x2="88.16" y2="40.36"/><line class="cls-6" x1="82.36" y1="37.01" x2="73.66" y2="31.99"/><line class="cls-4" x1="70.76" y1="30.32" x2="70.76" y2="30.32"/><line class="cls-4" x1="31.84" y1="69.61" x2="31.84" y2="69.61"/><line class="cls-7" x1="31.84" y1="63.71" x2="31.84" y2="43.06"/><line class="cls-4" x1="31.84" y1="40.11" x2="31.84" y2="40.11"/><line class="cls-8" x1="38.17" y1="36.46" x2="41.33" y2="34.64"/><line class="cls-4" x1="44.49" y1="32.81" x2="44.49" y2="32.81"/><polygon class="cls-9" points="60.39 48.85 54.57 45.49 54.57 28.06 60.39 31.42 60.39 48.85"/><polygon class="cls-10" points="65.43 4.36 59.61 1 48.97 31.29 54.79 34.65 65.43 4.36"/><polygon class="cls-11" points="65.21 15.2 71.03 18.56 65.43 21.79 59.61 18.43 65.21 15.2"/><polygon class="cls-12" points="71.03 18.56 65.43 21.79 65.43 4.36 54.79 34.65 60.39 31.42 60.39 48.85 71.03 18.56"/><polygon class="cls-1" points="65.43 15.32 65.43 4.36 59.61 1 48.97 31.29 54.57 34.52 54.57 45.49 60.39 48.85 71.03 18.56 65.43 15.32"/><path class="cls-13" d="M101.68,83.59,62.31,60.86a5.78,5.78,0,0,0-5.22,0L17.6,83.67l-8.49-.21v6A1.85,1.85,0,0,0,10.19,91l47.5,27.42a5.78,5.78,0,0,0,5.22,0l46.9-27.08a1.84,1.84,0,0,0,1.08-1.51v-6Z"/><path class="cls-14" d="M64.53,62.14,60.28,119a5.49,5.49,0,0,0,2.63-.62l46.9-27.08a1.84,1.84,0,0,0,1.08-1.51v-6l-9.21-.22Z"/><path class="cls-13" d="M109.81,85.32l-46.9,27.07a5.78,5.78,0,0,1-5.22,0L10.19,85c-1.44-.83-1.44-2.18,0-3l46.9-27.08a5.78,5.78,0,0,1,5.22,0l47.5,27.42C111.25,83.13,111.25,84.48,109.81,85.32Z"/><path class="cls-4" d="M109.81,82.3,62.31,54.88a5.78,5.78,0,0,0-5.22,0L10.19,82a1.82,1.82,0,0,0-1.08,1.5v6A1.85,1.85,0,0,0,10.19,91l47.5,27.42a5.31,5.31,0,0,0,2.59.62h0a6.28,6.28,0,0,0,1.38-.15h0l.55-.17.1,0a5.14,5.14,0,0,0,.58-.27l46.9-27.08a1.84,1.84,0,0,0,1.08-1.51v-6A1.84,1.84,0,0,0,109.81,82.3Z"/><polygon class="cls-14" points="29.17 86.78 27.35 87.83 20.08 83.63 21.9 82.58 29.17 86.78"/><polygon class="cls-14" points="45.51 77.34 43.69 78.39 36.43 74.19 38.24 73.15 45.51 77.34"/><path class="cls-14" d="M29.16,78.39c-2,1.16-2,3,0,4.2a8.09,8.09,0,0,0,7.27,0c2-1.16,2-3,0-4.2A8,8,0,0,0,29.16,78.39Zm5.55,3.21a4.26,4.26,0,0,1-3.84,0,1.17,1.17,0,0,1,0-2.22,4.26,4.26,0,0,1,3.84,0A1.17,1.17,0,0,1,34.71,81.6Z"/><polygon class="cls-14" points="40.16 93.02 38.34 94.07 31.07 89.87 32.89 88.82 40.16 93.02"/><path class="cls-14" d="M85.4,79.49c2-1.16,2-3,0-4.19a8,8,0,0,0-7.27,0c-2,1.16-2,3,0,4.19A8,8,0,0,0,85.4,79.49Zm-5.55-3.2a4.24,4.24,0,0,1,3.83,0,1.17,1.17,0,0,1,0,2.21,4.24,4.24,0,0,1-3.83,0A1.17,1.17,0,0,1,79.85,76.29Z"/><polygon class="cls-14" points="51.05 99.31 49.24 100.36 41.97 96.17 43.79 95.12 51.05 99.31"/><polygon class="cls-14" points="59.65 86.73 61.47 85.68 68.74 89.87 66.92 90.92 59.65 86.73"/><path class="cls-14" d="M51.06,90.92c-2,1.16-2,3,0,4.2a8.07,8.07,0,0,0,7.26,0c2-1.16,2-3,0-4.2A8,8,0,0,0,51.06,90.92Zm5.55,3.21a4.26,4.26,0,0,1-3.84,0,1.17,1.17,0,0,1,0-2.22,4.26,4.26,0,0,1,3.84,0A1.17,1.17,0,0,1,56.61,94.13Z"/><path class="cls-14" d="M76,85.68c2-1.16,2-3,0-4.2a8,8,0,0,0-7.26,0c-2,1.16-2,3,0,4.2A8,8,0,0,0,76,85.68Zm-5.55-3.21a4.26,4.26,0,0,1,3.84,0,1.17,1.17,0,0,1,0,2.22,4.26,4.26,0,0,1-3.84,0A1.17,1.17,0,0,1,70.45,82.47Z"/><polygon class="cls-14" points="90.83 80.54 92.65 79.49 99.92 83.69 98.1 84.74 90.83 80.54"/><path class="cls-14" d="M90.83,88.93c2-1.16,2-3,0-4.19a8,8,0,0,0-7.26,0c-2,1.15-2,3,0,4.19A8,8,0,0,0,90.83,88.93Zm-5.55-3.2a4.2,4.2,0,0,1,3.84,0,1.17,1.17,0,0,1,0,2.21,4.26,4.26,0,0,1-3.84,0A1.17,1.17,0,0,1,85.28,85.73Z"/><polygon class="cls-14" points="72.68 99.42 70.87 100.47 63.6 96.27 65.42 95.22 72.68 99.42"/><path class="cls-14" d="M72.68,91c-2,1.16-2,3,0,4.2a8,8,0,0,0,7.26,0c2-1.16,2-3,0-4.2A8.07,8.07,0,0,0,72.68,91Zm5.55,3.21a4.26,4.26,0,0,1-3.84,0,1.17,1.17,0,0,1,0-2.22,4.26,4.26,0,0,1,3.84,0A1.17,1.17,0,0,1,78.23,94.24Z"/><path class="cls-14" d="M56.51,100.36c-2,1.16-2,3,0,4.2a8.07,8.07,0,0,0,7.26,0c2-1.16,2-3,0-4.2A8,8,0,0,0,56.51,100.36Zm5.55,3.21a4.26,4.26,0,0,1-3.84,0,1.17,1.17,0,0,1,0-2.22,4.26,4.26,0,0,1,3.84,0A1.17,1.17,0,0,1,62.06,103.57Z"/><path class="cls-14" d="M45.41,69c-2,1.16-2,3,0,4.2a8,8,0,0,0,7.26,0c2-1.15,2-3,0-4.19A8,8,0,0,0,45.41,69ZM51,72.21a4.2,4.2,0,0,1-3.84,0,1.17,1.17,0,0,1,0-2.21A4.26,4.26,0,0,1,51,70,1.17,1.17,0,0,1,51,72.21Z"/><path class="cls-14" d="M56.31,62.72c-2,1.16-2,3,0,4.19a8,8,0,0,0,7.26,0c2-1.16,2-3,0-4.19A8,8,0,0,0,56.31,62.72Zm5.55,3.2a4.26,4.26,0,0,1-3.84,0,1.17,1.17,0,0,1,0-2.21,4.26,4.26,0,0,1,3.84,0A1.17,1.17,0,0,1,61.86,65.92Z"/><polygon class="cls-14" points="67.13 77.45 65.32 78.5 58.05 74.31 59.87 73.26 67.13 77.45"/><path class="cls-14" d="M67.13,69.07c-2,1.16-2,3,0,4.19a8,8,0,0,0,7.26,0c2-1.16,2-3,0-4.19A8,8,0,0,0,67.13,69.07Zm5.55,3.2a4.26,4.26,0,0,1-3.84,0,1.17,1.17,0,0,1,0-2.21,4.26,4.26,0,0,1,3.84,0A1.17,1.17,0,0,1,72.68,72.27Z"/><path class="cls-14" d="M40.05,84.69c-2,1.15-2,3,0,4.19a8,8,0,0,0,7.27,0c2-1.16,2-3,0-4.19A8,8,0,0,0,40.05,84.69Zm5.56,3.2a4.26,4.26,0,0,1-3.84,0,1.17,1.17,0,0,1,0-2.21,4.26,4.26,0,0,1,3.84,0A1.17,1.17,0,0,1,45.61,87.89Z"/><path class="cls-14" d="M51,78.39c-2,1.16-2,3,0,4.2a8,8,0,0,0,7.27,0c2-1.16,2-3,0-4.2A8,8,0,0,0,51,78.39Zm5.56,3.21a4.26,4.26,0,0,1-3.84,0,1.17,1.17,0,0,1,0-2.22,4.26,4.26,0,0,1,3.84,0A1.18,1.18,0,0,1,56.51,81.6Z"/><rect class="cls-15" width="120" height="120"/><rect class="cls-15" width="120" height="120"/></g></g></svg>