<svg xmlns="http://www.w3.org/2000/svg" viewBox="0 0 120 120"><defs><style>.cls-1,.cls-7{fill:#d5dae0;}.cls-2{fill:#b8bfca;}.cls-10,.cls-3,.cls-5{fill:#fff;}.cls-3,.cls-7{stroke:#b8bfca;}.cls-10,.cls-11,.cls-13,.cls-14,.cls-15,.cls-16,.cls-3,.cls-4,.cls-7,.cls-9{stroke-linecap:round;stroke-linejoin:round;}.cls-10,.cls-11,.cls-13,.cls-14,.cls-15,.cls-16,.cls-3,.cls-4,.cls-7{stroke-width:2px;}.cls-11,.cls-13,.cls-16,.cls-17,.cls-4{fill:none;}.cls-4,.cls-8{stroke:#627386;}.cls-14,.cls-15,.cls-6{fill:#bde4fd;}.cls-8{fill:#627386;stroke-miterlimit:10;}.cls-12,.cls-9{fill:#91d2fb;}.cls-10,.cls-13,.cls-15,.cls-9{stroke:#91d2fb;}.cls-11{stroke:#1b6dc6;}.cls-14,.cls-16{stroke:#fff;}</style></defs><title>electric-utilities</title><g id="Layer_2" data-name="Layer 2"><g id="Industries"><path class="cls-1" d="M81.92,88.93,62.43,77.68a5.34,5.34,0,0,0-4.86,0L38.08,88.93H24.92v9.82h0a1.7,1.7,0,0,0,1,1.4l31.64,18.27a5.4,5.4,0,0,0,4.86,0l31.64-18.27a1.7,1.7,0,0,0,1-1.4h0V88.93Z"/><path class="cls-2" d="M62.43,77.68a4.43,4.43,0,0,0-1.79-.55V119a4.58,4.58,0,0,0,1.79-.54l31.64-18.27a1.7,1.7,0,0,0,1-1.4V88.93H81.92Z"/><path class="cls-3" d="M57.57,108.6,25.93,90.33c-1.34-.77-1.34-2,0-2.81L57.57,69.26a5.34,5.34,0,0,1,4.86,0L94.07,87.52c1.34.78,1.34,2,0,2.81L62.43,108.6A5.4,5.4,0,0,1,57.57,108.6Z"/><path class="cls-4" d="M94.07,87.52,62.43,69.26a5.34,5.34,0,0,0-4.86,0L25.93,87.52a1.72,1.72,0,0,0-1,1.41v9.82a1.7,1.7,0,0,0,1,1.4l31.64,18.27a5.4,5.4,0,0,0,4.86,0l31.64-18.27a1.7,1.7,0,0,0,1-1.4V88.93A1.72,1.72,0,0,0,94.07,87.52Z"/><path class="cls-5" d="M60,106.76a2.63,2.63,0,0,1-1.22-.26L28.34,88.93,58.78,71.36a3,3,0,0,1,2.44,0L91.66,88.93,61.22,106.5A2.63,2.63,0,0,1,60,106.76Z"/><path class="cls-6" d="M60.08,99.25,42.13,88.88c-2.27-1.31-2.27-3.43,0-4.74l9.58-5.53a9.07,9.07,0,0,1,8.21,0L77.87,89c2.27,1.31,2.27,3.43,0,4.74l-9.58,5.54A9.07,9.07,0,0,1,60.08,99.25Z"/><path class="cls-7" d="M60.08,99.25,42.13,88.88c-2.27-1.31-2.27-3.43,0-4.74l9.58-5.53a9.07,9.07,0,0,1,8.21,0L77.87,89c2.27,1.31,2.27,3.43,0,4.74l-9.58,5.54A9.07,9.07,0,0,1,60.08,99.25Z"/><path class="cls-8" d="M50.45,89h0a.79.79,0,0,1,0-1.49l7.08-4.08a2.8,2.8,0,0,1,2.58,0h0a.78.78,0,0,1,0,1.48L53,89A2.86,2.86,0,0,1,50.45,89Z"/><path class="cls-8" d="M59.89,94.44h0a.79.79,0,0,1,0-1.49L67,88.87a2.86,2.86,0,0,1,2.58,0h0a.78.78,0,0,1,0,1.48l-7.08,4.09A2.86,2.86,0,0,1,59.89,94.44Z"/><ellipse class="cls-5" cx="60" cy="88.93" rx="1.82" ry="1.05"/><path class="cls-9" d="M50.45,55.9h0a.79.79,0,0,1,0-1.49l7.08-4.09a2.86,2.86,0,0,1,2.58,0h0a.79.79,0,0,1,0,1.49L53,55.9A2.86,2.86,0,0,1,50.45,55.9Z"/><path class="cls-10" d="M49.92,52.07V66.45h0a.91.91,0,0,0,.53.74,2.86,2.86,0,0,0,2.58,0l7.08-4.09a.9.9,0,0,0,.53-.74V48Z"/><path class="cls-6" d="M53.19,67.09l6.92-4a.9.9,0,0,0,.53-.74V48l-7.45,2.83Z"/><path class="cls-9" d="M59.89,58.27h0a.79.79,0,0,1,0-1.49L67,52.69a2.86,2.86,0,0,1,2.58,0h0a.79.79,0,0,1,0,1.49l-7.08,4.09A2.86,2.86,0,0,1,59.89,58.27Z"/><path class="cls-10" d="M59.36,57.52V71.9h0a.91.91,0,0,0,.53.74,2.86,2.86,0,0,0,2.58,0l7.08-4.09a.9.9,0,0,0,.53-.74V53.44Z"/><path class="cls-6" d="M62.63,72.54l6.92-4a.9.9,0,0,0,.53-.74V53.44l-7.45,2.84Z"/><path class="cls-11" d="M69.55,52.69a2.86,2.86,0,0,0-2.58,0l-6.33,3.66V48L49.92,52.07V66.45h0a.91.91,0,0,0,.53.74,2.86,2.86,0,0,0,2.58,0l6.33-3.66V71.9h0a.91.91,0,0,0,.53.74,2.86,2.86,0,0,0,2.58,0l7.08-4.09a.9.9,0,0,0,.53-.74V53.44A.93.93,0,0,0,69.55,52.69Z"/><path class="cls-12" d="M74.55,49,59.92,40.59a9.07,9.07,0,0,0-8.21,0l-7.79,4.5-3.49-.81v7a2.88,2.88,0,0,0,1.7,2.37L60.08,64a9.07,9.07,0,0,0,8.21,0l9.58-5.53a2.88,2.88,0,0,0,1.7-2.37v-7Z"/><path class="cls-6" d="M64.72,43.36l-4.8-2.77a9.07,9.07,0,0,0-8.21,0l-7.79,4.5-3.49-.81v7a2.88,2.88,0,0,0,1.7,2.37L60.08,64a8.55,8.55,0,0,0,4.64,1Z"/><path class="cls-13" d="M74.55,49,59.92,40.59a9.07,9.07,0,0,0-8.21,0l-7.79,4.5-3.49-.81v7a2.88,2.88,0,0,0,1.7,2.37L60.08,64a9.07,9.07,0,0,0,8.21,0l9.58-5.53a2.88,2.88,0,0,0,1.7-2.37v-7Z"/><path class="cls-14" d="M60.08,57,42.13,46.65c-2.27-1.31-2.27-3.43,0-4.74l9.58-5.53a9.07,9.07,0,0,1,8.21,0l18,10.36c2.27,1.31,2.27,3.43,0,4.74L68.29,57A9.07,9.07,0,0,1,60.08,57Z"/><path class="cls-11" d="M77.87,46.74l-18-10.36a9.07,9.07,0,0,0-8.21,0l-9.58,5.53a2.89,2.89,0,0,0-1.7,2.37v7a2.88,2.88,0,0,0,1.7,2.37L60.08,64a9.07,9.07,0,0,0,8.21,0l9.58-5.53a2.88,2.88,0,0,0,1.7-2.37v-7A2.89,2.89,0,0,0,77.87,46.74Z"/><path class="cls-15" d="M69.05,30.75l-7.91-4.57A10.19,10.19,0,0,0,45.85,35v8.33A1.93,1.93,0,0,0,47,44.91l14.18,8.18a6,6,0,0,0,5.46,0L73,49.41A2,2,0,0,0,74.12,48h0V39.57A10.19,10.19,0,0,0,69.05,30.75Z"/><path class="cls-6" d="M69.05,30.75l-7.91-4.57A10.19,10.19,0,0,0,45.85,35v8.33A1.93,1.93,0,0,0,47,44.91l14.18,8.18a6,6,0,0,0,5.46,0L73,49.41A2,2,0,0,0,74.12,48h0V39.57A10.19,10.19,0,0,0,69.05,30.75Z"/><path class="cls-16" d="M47.85,41.22V35a8.19,8.19,0,0,1,6.95-8.1"/><path class="cls-12" d="M65,53.65a5,5,0,0,0,1.64-.56L73,49.41A2,2,0,0,0,74.12,48h0V39.57A10.14,10.14,0,0,0,74,37.91a3.67,3.67,0,0,0-5.44-2.47l-.85.48A5.35,5.35,0,0,0,65,40.59Z"/><path class="cls-11" d="M69.05,30.75l-7.91-4.57A10.19,10.19,0,0,0,45.85,35v8.33A1.93,1.93,0,0,0,47,44.91l14.18,8.18a6,6,0,0,0,5.46,0L73,49.41A2,2,0,0,0,74.12,48h0V39.57A10.19,10.19,0,0,0,69.05,30.75Z"/><path class="cls-15" d="M58.28,2.63V28.57c0,.9,1.27,1.63,2.83,1.63s2.83-.73,2.83-1.63V2.63Z"/><ellipse class="cls-10" cx="61.11" cy="2.63" rx="2.83" ry="1.63"/><path class="cls-12" d="M58.28,2.63V28.57c0,.9,1.27,1.63,2.83,1.63s2.83-.73,2.83-1.63V2.63Z"/><ellipse class="cls-6" cx="61.11" cy="2.63" rx="2.83" ry="1.63"/><path class="cls-11" d="M61.11,1c-1.56,0-2.83.73-2.83,1.63V28.57c0,.9,1.27,1.63,2.83,1.63s2.83-.73,2.83-1.63V2.63C63.94,1.73,62.67,1,61.11,1Z"/><rect class="cls-17" width="120" height="120"/><rect class="cls-17" width="120" height="120"/></g></g></svg>