<svg xmlns="http://www.w3.org/2000/svg" viewBox="0 0 120 120"><defs><style>.cls-1,.cls-11,.cls-9{fill:#91d2fb;}.cls-2{fill:#d5dae0;}.cls-12,.cls-3{fill:#fff;}.cls-4{fill:#b8bfca;stroke:#b8bfca;}.cls-11,.cls-12,.cls-4,.cls-6,.cls-7,.cls-8,.cls-9{stroke-linecap:round;stroke-linejoin:round;}.cls-11,.cls-12,.cls-4,.cls-5,.cls-6,.cls-7,.cls-8{stroke-width:2px;}.cls-13,.cls-5,.cls-6,.cls-7,.cls-8{fill:none;}.cls-5{stroke:#d5dae0;stroke-miterlimit:10;}.cls-6{stroke:#627386;}.cls-7,.cls-8{stroke:#1b6dc6;}.cls-8{stroke-dasharray:0 5.97;}.cls-12,.cls-9{stroke:#91d2fb;}.cls-10{fill:#bde4fd;}.cls-11{stroke:#bde4fd;}</style></defs><title>eliminate-risk</title><g id="Layer_2" data-name="Layer 2"><g id="New_Icon_Set" data-name="New Icon Set"><path class="cls-1" d="M11.37,70l1.71-3.86-1.2,2.29c-2.49-3.18-4-8-4-14.14,0-.5,0-1,0-1.51l1.5.7L12.8,35.18,14,33.42,7.85,29.89C3.59,38.91,1,49,1,58.31,1,69.61,4.76,77.55,10.7,81h0l5.83,3.37.14-.37Z"/><path class="cls-2" d="M58.13,27c0-.19-.44-.17-1.06-.05,0-.35,0-.7,0-1.05,0-7.62-1.72-13.72-4.66-17.93l.79-1.38L47.39,3.25v0C42.47.43,36.06.68,29,4.73,13.56,13.67,1,37.66,1,58.31,1,69.61,4.76,77.55,10.7,81h0l5.83,3.37.58-1.51A21.78,21.78,0,0,0,29,79.51a41.57,41.57,0,0,0,9-7.17l.18.5s6.21-2,6.9-2.53,13.7-28.08,14.05-31S58.13,27.72,58.13,27ZM11.88,68.46c-2.49-3.18-4-8-4-14.14,0-.5,0-1,0-1.51l1.5.7L12.8,35.18,24,18.4v-.68A29.46,29.46,0,0,1,29,14c4.6-2.66,8.86-3.15,12.32-1.82ZM29,70.3a17.14,17.14,0,0,1-8.13,2.53L28.4,53.15c.15,0,.25-.06.26-.1.12-.35,14.39-26.13,14.39-26.13V24.4l4.12-7.2c1.9,3.13,3,7.43,3,12.72C50.17,45.48,40.71,63.56,29,70.3Z"/><path class="cls-3" d="M45,51.34c-3.87,8.2-9.59,15.28-16,19a17.46,17.46,0,0,1-7.66,2.5L19.54,76l7.75,4.47c.58-.29,1.16-.6,1.75-.94a41.57,41.57,0,0,0,9-7.17l.18.5s6.21-2,6.9-2.53c.35-.29,3.81-7.39,7.21-14.74Z"/><path class="cls-3" d="M47.39,3.27C42.47.43,36.06.68,29,4.73,20.58,9.62,13,19,7.85,29.89L14,33.42l10-15v-.68A29.46,29.46,0,0,1,29,14a15.92,15.92,0,0,1,9.74-2.45L51.46,5.6,47.39,3.25Z"/><path class="cls-4" d="M34.87,8.1C19.38,17,6.83,41,6.83,61.68s12.55,30.14,28,21.2,28-32.93,28-53.58S50.36-.84,34.87,8.1Z"/><path class="cls-5" d="M34.87,8.1C19.38,17,6.83,41,6.83,61.68s12.55,30.14,28,21.2,28-32.93,28-53.58S50.36-.84,34.87,8.1Z"/><path class="cls-6" d="M53.21,6.63h0l-1.76-1h0L47.39,3.25v0C42.47.43,36.06.68,29,4.73c-.51.3-1,.61-1.51.93L27.05,6l-1,.7-.54.41c-.32.23-.63.46-.94.71L24,8.26,23.09,9l-.53.47c-.3.27-.61.55-.91.84s-.33.31-.49.47c-.32.3-.63.61-.94.93l-.44.45c-.33.34-.66.69-1,1.05l-.35.39c-.37.41-.73.83-1.09,1.26l-.22.26A73.62,73.62,0,0,0,2.92,43.62l-.12.47c-.1.41-.2.83-.29,1.24L2.36,46c-.08.38-.15.75-.23,1.13l-.15.8L1.8,49c-.05.3-.1.6-.14.89s-.1.65-.14,1l-.12,1c0,.3-.07.6-.1.9s-.07.71-.1,1.06-.05.54-.07.81l-.06,1.22c0,.21,0,.43,0,.65,0,.62,0,1.24,0,1.85C1,69.61,4.76,77.55,10.7,81h0l5.83,3.37h0c4.91,2.84,11.32,2.58,18.34-1.47,15.49-8.94,28-32.93,28-53.58C62.91,18,59.15,10.06,53.21,6.63Z"/><path class="cls-3" d="M25.76,77.9c-7.83,0-12.89-7.52-12.89-19.16,0-16.57,10.08-35.88,22.48-43A17.46,17.46,0,0,1,44,13.08c7.82,0,12.88,7.52,12.88,19.16,0,16.57-10.08,35.87-22.48,43a17.46,17.46,0,0,1-8.63,2.63Z"/><line class="cls-7" x1="93.85" y1="30.09" x2="93.85" y2="30.09"/><line class="cls-8" x1="88.68" y1="27.1" x2="65.43" y2="13.67"/><line class="cls-7" x1="62.85" y1="12.18" x2="62.85" y2="12.18"/><line class="cls-7" x1="57.15" y1="107.83" x2="57.15" y2="107.83"/><line class="cls-8" x1="51.98" y1="104.84" x2="28.73" y2="91.41"/><line class="cls-7" x1="26.15" y1="89.92" x2="26.15" y2="89.92"/><path class="cls-9" d="M34.87,52.52h0c-1.45.83-2.62-.06-2.62-2V29.81a6.28,6.28,0,0,1,2.62-5h0c1.45-.83,2.62.05,2.62,2V47.51A6.28,6.28,0,0,1,34.87,52.52Z"/><ellipse class="cls-9" cx="34.87" cy="62.68" rx="4.02" ry="2.28" transform="translate(-36.46 70.22) rotate(-66.95)"/><path class="cls-1" d="M67.46,102.41l1.71-3.86L68,100.84c-2.5-3.18-4-8-4-14.13,0-.51,0-1,0-1.51l1.5.69,3.35-18.33,1.17-1.76-6.11-3.53c-4.27,9-6.85,19.06-6.85,28.43,0,11.29,3.76,19.24,9.7,22.66h0l5.83,3.37.14-.37Z"/><path class="cls-10" d="M114.22,59.41c0-.19-.44-.17-1.07,0,0-.35,0-.7,0-1,0-7.62-1.71-13.72-4.65-17.93l.79-1.38-5.83-3.36h0c-4.91-2.84-11.32-2.59-18.34,1.46-15.49,9-28,32.94-28,53.59,0,11.29,3.76,19.24,9.7,22.66h0l5.83,3.37.57-1.51c3.63.19,7.67-.87,11.95-3.33a42.18,42.18,0,0,0,9-7.18c.1.31.17.5.17.5s6.22-2,6.91-2.53,13.7-28.08,14-31S114.22,60.11,114.22,59.41ZM68,100.84c-2.5-3.18-4-8-4-14.13,0-.51,0-1,0-1.51l1.5.69,3.35-18.33L80,50.78V50.1a29.53,29.53,0,0,1,5.1-3.77c4.6-2.66,8.85-3.15,12.32-1.82Zm17.16,1.84A17,17,0,0,1,77,105.21l7.49-19.68c.15,0,.24-.06.26-.1.12-.35,14.39-26.13,14.39-26.13V56.78l4.12-7.2c1.9,3.13,3,7.43,3,12.72C106.26,77.86,96.8,95.94,85.13,102.68Z"/><path class="cls-3" d="M101.1,83.72c-3.88,8.2-9.59,15.28-16,19a17.41,17.41,0,0,1-7.67,2.5l-1.83,3.18,7.74,4.47c.58-.29,1.17-.59,1.76-.93a42.18,42.18,0,0,0,9-7.18c.1.31.17.5.17.5s6.22-2,6.91-2.53c.35-.29,3.81-7.39,7.21-14.74Z"/><path class="cls-3" d="M103.47,35.65c-4.91-2.84-11.32-2.59-18.34,1.46-8.47,4.89-16,14.28-21.19,25.16l6.11,3.53,10-15V50.1a29.53,29.53,0,0,1,5.1-3.77,15.8,15.8,0,0,1,9.73-2.44L107.54,38l-4.06-2.34Z"/><path class="cls-3" d="M91,40.48c-15.49,8.94-28,32.93-28,53.58S75.47,124.2,91,115.26s28-32.93,28-53.58S106.44,31.54,91,40.48Z"/><path class="cls-5" d="M91,40.48c-15.49,8.94-28,32.93-28,53.58S75.47,124.2,91,115.26s28-32.93,28-53.58S106.44,31.54,91,40.48Z"/><path class="cls-11" d="M91,40.48c-15.49,8.94-28,32.93-28,53.58S75.47,124.2,91,115.26s28-32.93,28-53.58S106.44,31.54,91,40.48Z"/><path class="cls-7" d="M109.3,39h0l-1.77-1h0l-4.06-2.34h0c-4.91-2.84-11.32-2.59-18.34,1.46-.51.3-1,.61-1.52.93l-.47.33c-.34.23-.69.46-1,.7s-.37.27-.55.41l-.93.71-.55.45-.92.76-.52.47-.92.84-.49.47c-.31.3-.63.61-.94.93l-.43.45-1,1-.35.39q-.54.61-1.08,1.26l-.22.26A73.64,73.64,0,0,0,59,76c0,.16-.08.31-.11.47-.11.41-.2.83-.29,1.24l-.15.68c-.08.38-.16.75-.23,1.13l-.15.8c-.07.35-.13.7-.18,1s-.1.6-.14.9-.1.64-.14,1-.09.65-.12,1-.08.6-.11.9l-.09,1.06c0,.27,0,.54-.07.81s0,.81-.07,1.22l0,.65q0,.93,0,1.86c0,11.29,3.76,19.24,9.7,22.66h0l5.83,3.37h0c4.92,2.84,11.33,2.58,18.35-1.47,15.48-8.94,28-32.93,28-53.58C119,50.38,115.24,42.44,109.3,39Z"/><path class="cls-12" d="M69,90.57c0-16.2,9.85-35,22-42,5.06-2.92,9.71-3.33,13.43-1.65l-30.85,59C70.67,102.54,69,97.32,69,90.57Z"/><path class="cls-12" d="M91,107.2c-5.06,2.92-9.72,3.33-13.44,1.65L108.37,49.9c2.87,3.3,4.59,8.52,4.59,15.27C113,81.37,103.11,100.19,91,107.2Z"/><rect class="cls-13" width="120" height="120"/><rect class="cls-13" width="120" height="120"/></g></g></svg>