<svg xmlns="http://www.w3.org/2000/svg" viewBox="0 0 120 120"><defs><style>.cls-1{fill:#d5dae0;}.cls-2{fill:#b8bfca;}.cls-3,.cls-9{fill:#fff;}.cls-3{stroke:#b8bfca;}.cls-10,.cls-12,.cls-13,.cls-14,.cls-3,.cls-4,.cls-7,.cls-9{stroke-linecap:round;stroke-linejoin:round;}.cls-10,.cls-14,.cls-3,.cls-4,.cls-7,.cls-9{stroke-width:2px;}.cls-10,.cls-12,.cls-13,.cls-15,.cls-4{fill:none;}.cls-14,.cls-4{stroke:#627386;}.cls-14,.cls-5{fill:#627386;}.cls-6{fill:#91d2fb;}.cls-11,.cls-7{fill:#1b6dc6;}.cls-10,.cls-7{stroke:#1b6dc6;}.cls-8{fill:#bde4fd;}.cls-12,.cls-9{stroke:#91d2fb;}.cls-12,.cls-13{stroke-width:3px;}.cls-13{stroke:#fff;}</style></defs><title>end-to-end-security</title><g id="Layer_2" data-name="Layer 2"><g id="Tech_Concepts" data-name="Tech Concepts"><path class="cls-1" d="M118.19,62.79v48a3.92,3.92,0,0,1-2.32,3.24l-6.29,3.64a12.48,12.48,0,0,1-11.23,0L67.75,100a4,4,0,0,1-2.32-3.24v-48Z"/><path class="cls-2" d="M104.07,59l14.12,3.76v48a3.92,3.92,0,0,1-2.32,3.24l-6.29,3.64a11.4,11.4,0,0,1-5.51,1.33Z"/><path class="cls-3" d="M67.75,52l30.6,17.66a12.41,12.41,0,0,0,11.23,0L115.87,66c3.1-1.79,3.1-4.69,0-6.48L85.27,41.88a12.48,12.48,0,0,0-11.23,0l-6.29,3.64C64.65,47.31,64.65,50.21,67.75,52Z"/><path class="cls-4" d="M67.75,45.52,74,41.88a12.48,12.48,0,0,1,11.23,0l30.6,17.67a4,4,0,0,1,2.32,3.24v48a3.92,3.92,0,0,1-2.32,3.24l-6.29,3.64a12.48,12.48,0,0,1-11.23,0L67.75,100a4,4,0,0,1-2.32-3.24v-48A3.92,3.92,0,0,1,67.75,45.52Z"/><path class="cls-5" d="M110.3,63h0c0-1.94-2.73-3.52-6.1-3.52S98.1,61,98.1,63h0c0,1.94,2.73,3.52,6.1,3.52s6.1-1.58,6.1-3.52Z"/><path class="cls-2" d="M99.14,65a9,9,0,0,1,10.12,0,9,9,0,0,1-10.12,0Z"/><path class="cls-6" d="M1.81,62.79v48A4,4,0,0,0,4.13,114l6.29,3.63a12.41,12.41,0,0,0,11.23,0L52.25,100a3.93,3.93,0,0,0,2.32-3.24v-48Z"/><path class="cls-7" d="M40.32,78c0-2.95-1.79-4.3-4-3s-4,4.7-4,7.65c0,1.93.78,3.18,1.94,3.44l-.81,10.29L39.2,93l-.81-9.35A10.16,10.16,0,0,0,40.32,78Z"/><path class="cls-8" d="M15.93,59,1.81,62.79v48A4,4,0,0,0,4.13,114l6.29,3.63A11.4,11.4,0,0,0,15.93,119Z"/><path class="cls-9" d="M52.25,52,21.65,69.67a12.41,12.41,0,0,1-11.23,0L4.13,66c-3.1-1.78-3.1-4.69,0-6.48l30.6-17.66a12.41,12.41,0,0,1,11.23,0l6.29,3.63C55.35,47.31,55.35,50.21,52.25,52Z"/><path class="cls-10" d="M52.25,45.52,46,41.89a12.41,12.41,0,0,0-11.23,0L4.13,59.55a4,4,0,0,0-2.32,3.24v48A4,4,0,0,0,4.13,114l6.29,3.63a12.41,12.41,0,0,0,11.23,0L52.25,100a3.93,3.93,0,0,0,2.32-3.24v-48A3.93,3.93,0,0,0,52.25,45.52Z"/><path class="cls-11" d="M9.7,63h0c0-1.95,2.73-3.53,6.1-3.53S21.9,61,21.9,63h0c0,2-2.73,3.52-6.1,3.52S9.7,64.93,9.7,63Z"/><path class="cls-6" d="M20.86,65A8,8,0,0,0,15.8,63.4,8,8,0,0,0,10.74,65,8,8,0,0,0,15.8,66.5,8,8,0,0,0,20.86,65Z"/><path class="cls-8" d="M60,1A24.82,24.82,0,0,0,35,25.57v23c0,1.78,2.5,3.23,5.59,3.23s5.58-1.45,5.58-3.23h0v-23a13.85,13.85,0,0,1,27.68,0v23h0c0,1.79,2.5,3.23,5.58,3.23S85,50.36,85,48.57h0v-23A24.82,24.82,0,0,0,60,1Z"/><path class="cls-10" d="M60,1A24.82,24.82,0,0,0,35,25.57v23c0,1.78,2.5,3.23,5.59,3.23s5.58-1.45,5.58-3.23h0v-23a13.85,13.85,0,0,1,27.68,0v23h0c0,1.79,2.5,3.23,5.58,3.23S85,50.36,85,48.57h0v-23A24.82,24.82,0,0,0,60,1Z"/><line class="cls-12" x1="43.58" y1="25.57" x2="43.58" y2="48.37"/><path class="cls-13" d="M76.42,48.37V25.57a15.65,15.65,0,0,0-3.7-10.1"/><line class="cls-12" x1="82.42" y1="25.57" x2="82.42" y2="48.37"/><path class="cls-13" d="M37.58,48.37V25.57A22.23,22.23,0,0,1,60,3.59"/><path class="cls-14" d="M79.68,78c0-2.94,1.79-4.3,4-3s4,4.7,4,7.64c0,1.94-.78,3.19-1.94,3.45l.81,10.29L80.8,93l.81-9.34A10.19,10.19,0,0,1,79.68,78Z"/><rect class="cls-15" width="120" height="120"/><rect class="cls-15" width="120" height="120"/></g></g></svg>