<svg xmlns="http://www.w3.org/2000/svg" viewBox="0 0 120 120"><defs><style>.cls-1,.cls-13,.cls-2,.cls-3,.cls-8{fill:none;}.cls-1,.cls-2,.cls-3{stroke:#1b6dc6;}.cls-1,.cls-10,.cls-11,.cls-12,.cls-2,.cls-3,.cls-4,.cls-6,.cls-7,.cls-8{stroke-linecap:round;stroke-linejoin:round;}.cls-1,.cls-10,.cls-12,.cls-2,.cls-3,.cls-4,.cls-6,.cls-7,.cls-8{stroke-width:2px;}.cls-2{stroke-dasharray:0 6.47;}.cls-3{stroke-dasharray:0 5.64;}.cls-4{fill:#d5dae0;}.cls-4,.cls-6{stroke:#b8bfca;}.cls-5,.cls-7{fill:#b8bfca;}.cls-10,.cls-6{fill:#fff;}.cls-7{stroke:#d5dae0;}.cls-8{stroke:#627386;}.cls-12,.cls-9{fill:#91d2fb;}.cls-10,.cls-12{stroke:#91d2fb;}.cls-11{fill:#bde4fd;stroke:#bde4fd;}</style></defs><title>enterprise-storage</title><g id="Layer_2" data-name="Layer 2"><g id="Tech_Concepts" data-name="Tech Concepts"><line class="cls-1" x1="17.99" y1="38.16" x2="17.99" y2="38.16"/><line class="cls-2" x1="17.99" y1="44.63" x2="17.99" y2="73.75"/><line class="cls-1" x1="17.99" y1="76.99" x2="17.99" y2="76.99"/><line class="cls-1" x1="102" y1="37.47" x2="102" y2="37.47"/><line class="cls-3" x1="102" y1="43.12" x2="102" y2="74.16"/><line class="cls-1" x1="102" y1="76.99" x2="102" y2="76.99"/><path class="cls-4" d="M78.58,77l-15.2-8.58a7.69,7.69,0,0,0-6.78,0L41.4,77H18V91.31a2.32,2.32,0,0,0,1.4,1.91l37.21,21a7.69,7.69,0,0,0,6.78,0l37.21-21A2.33,2.33,0,0,0,102,91.31V77Z"/><path class="cls-5" d="M63.38,114.21l37.21-21A2.33,2.33,0,0,0,102,91.31V77H78.58l-15.2-8.58A7,7,0,0,0,60,67.62V115A7,7,0,0,0,63.38,114.21Z"/><line class="cls-4" x1="43.49" y1="100.2" x2="32.5" y2="94"/><path class="cls-6" d="M100.59,75.07l-37.21-21a7.63,7.63,0,0,0-6.78,0l-37.21,21c-1.87,1.06-1.87,2.77,0,3.83l37.21,21a7.63,7.63,0,0,0,6.78,0l37.21-21C102.46,77.84,102.46,76.13,100.59,75.07Z"/><polygon class="cls-7" points="91.88 98.14 72.22 109.22 72.22 102.61 91.88 91.52 91.88 98.14"/><path class="cls-8" d="M100.59,75.07l-37.21-21a7.63,7.63,0,0,0-6.78,0l-37.21,21A2.32,2.32,0,0,0,18,77V91.31a2.32,2.32,0,0,0,1.4,1.91l37.21,21a7.67,7.67,0,0,0,6.78,0l37.21-21A2.33,2.33,0,0,0,102,91.31V77A2.33,2.33,0,0,0,100.59,75.07Z"/><ellipse class="cls-5" cx="92.39" cy="76.99" rx="1.9" ry="1.07"/><ellipse class="cls-5" cx="59.99" cy="95.26" rx="1.9" ry="1.07"/><ellipse class="cls-5" cx="59.99" cy="58.71" rx="1.9" ry="1.07"/><ellipse class="cls-5" cx="27.59" cy="76.99" rx="1.9" ry="1.07"/><path class="cls-9" d="M101.48,38.45a1,1,0,0,0,.06-1.76L62.82,11.18A5.47,5.47,0,0,1,60.68,7a2,2,0,0,1,.77-1.81l0,0L18.8,29.33l0,0A2,2,0,0,0,18,31.16a5.45,5.45,0,0,0,2.15,4.2L59.73,61.43a1.07,1.07,0,0,0,1.13,0l4-2.29a1.63,1.63,0,0,1,1.53,0l4.16,2.06a1.63,1.63,0,0,0,1.53,0l12.34-7a1.55,1.55,0,0,0,.26-2.52l-.93-.81a1.53,1.53,0,0,1,.27-2.51Z"/><path class="cls-1" d="M101.48,38.45a1,1,0,0,0,.06-1.76L62.82,11.18A5.47,5.47,0,0,1,60.68,7a2,2,0,0,1,.77-1.81l0,0L18.8,29.33l0,0A2,2,0,0,0,18,31.16a5.45,5.45,0,0,0,2.15,4.2L59.73,61.43a1.07,1.07,0,0,0,1.13,0l4-2.29a1.63,1.63,0,0,1,1.53,0l4.16,2.06a1.63,1.63,0,0,0,1.53,0l12.34-7a1.55,1.55,0,0,0,.26-2.52l-.93-.81a1.53,1.53,0,0,1,.27-2.51Z"/><path class="cls-10" d="M60.77,47.92,101.21,25a1,1,0,0,0-.07-1.84l-38.32-18a1.44,1.44,0,0,0-1.37,0l0,0L18.8,29.33l0,0a1.44,1.44,0,0,1,1.37,0L59.77,48A1.07,1.07,0,0,0,60.77,47.92Z"/><polygon class="cls-11" points="81.68 20.81 69.17 27.89 75.55 30.89 88.05 23.8 81.68 20.81"/><path class="cls-1" d="M101.54,36.69l-9.68-6.38,9.35-5.3a1,1,0,0,0-.07-1.84l-38.32-18a1.44,1.44,0,0,0-1.37,0l0,0h0L18.8,29.33l0,0A2,2,0,0,0,18,31.16a5.45,5.45,0,0,0,2.15,4.2L59.73,61.43a1.07,1.07,0,0,0,1.13,0l4-2.29a1.63,1.63,0,0,1,1.53,0l4.16,2.06a1.63,1.63,0,0,0,1.53,0l12.34-7a1.55,1.55,0,0,0,.26-2.52l-.93-.81a1.53,1.53,0,0,1,.27-2.51l17.42-9.88A1,1,0,0,0,101.54,36.69Z"/><line class="cls-12" x1="74.7" y1="18.22" x2="69.2" y2="21.32"/><rect class="cls-13" width="120" height="120"/><rect class="cls-13" width="120" height="120"/></g></g></svg>