<svg xmlns="http://www.w3.org/2000/svg" viewBox="0 0 120 120"><defs><style>.cls-1,.cls-14,.cls-2,.cls-7{fill:none;}.cls-1,.cls-2{stroke:#1b6dc6;}.cls-1,.cls-10,.cls-2,.cls-3,.cls-5,.cls-6,.cls-7,.cls-8,.cls-9{stroke-linecap:round;stroke-linejoin:round;stroke-width:2px;}.cls-2{stroke-dasharray:0 5.88;}.cls-3{fill:#d5dae0;}.cls-3,.cls-5{stroke:#b8bfca;}.cls-4,.cls-6{fill:#b8bfca;}.cls-13,.cls-5,.cls-8{fill:#fff;}.cls-6{stroke:#d5dae0;}.cls-7{stroke:#627386;}.cls-10,.cls-8,.cls-9{stroke:#91d2fb;}.cls-11,.cls-9{fill:#91d2fb;}.cls-10,.cls-12{fill:#bde4fd;}</style></defs><title>enterprise-applications</title><g id="Layer_2" data-name="Layer 2"><g id="Tech_Concepts" data-name="Tech Concepts"><line class="cls-1" x1="18.57" y1="41.35" x2="18.57" y2="41.35"/><line class="cls-2" x1="18.57" y1="47.23" x2="18.57" y2="73.69"/><line class="cls-1" x1="18.57" y1="76.63" x2="18.57" y2="76.63"/><line class="cls-1" x1="101.41" y1="41.35" x2="101.41" y2="41.35"/><line class="cls-2" x1="101.41" y1="47.23" x2="101.41" y2="73.69"/><line class="cls-1" x1="101.41" y1="76.63" x2="101.41" y2="76.63"/><path class="cls-3" d="M78.33,76.63,63.34,68a7.37,7.37,0,0,0-6.69,0l-15,8.66H18.57V91.09A2.36,2.36,0,0,0,20,93L56.65,114.2a7.37,7.37,0,0,0,6.69,0L100,93a2.37,2.37,0,0,0,1.38-1.93V76.63Z"/><path class="cls-4" d="M63.34,114.2,100,93a2.37,2.37,0,0,0,1.38-1.93V76.63H78.33L63.34,68a6.91,6.91,0,0,0-3.35-.8V115A6.91,6.91,0,0,0,63.34,114.2Z"/><line class="cls-3" x1="43.72" y1="100.06" x2="32.88" y2="93.8"/><path class="cls-5" d="M100,74.7,63.34,53.51a7.37,7.37,0,0,0-6.69,0L20,74.7c-1.85,1.06-1.85,2.79,0,3.86L56.65,99.74a7.37,7.37,0,0,0,6.69,0L100,78.56C101.87,77.49,101.87,75.76,100,74.7Z"/><polygon class="cls-6" points="91.44 97.98 72.05 109.17 72.05 102.49 91.44 91.3 91.44 97.98"/><path class="cls-7" d="M100,74.7,63.34,53.51a7.37,7.37,0,0,0-6.69,0L20,74.7a2.34,2.34,0,0,0-1.39,1.93V91.09A2.36,2.36,0,0,0,20,93L56.65,114.2a7.39,7.39,0,0,0,6.69,0L100,93a2.37,2.37,0,0,0,1.38-1.93V76.63A2.34,2.34,0,0,0,100,74.7Z"/><ellipse class="cls-4" cx="91.94" cy="76.63" rx="1.88" ry="1.08"/><ellipse class="cls-4" cx="59.99" cy="95.07" rx="1.88" ry="1.08"/><ellipse class="cls-4" cx="59.99" cy="58.18" rx="1.88" ry="1.08"/><ellipse class="cls-4" cx="28.04" cy="76.63" rx="1.88" ry="1.08"/><path class="cls-8" d="M100.78,27.64c.86.5.87,1.3,0,1.8L60.93,52.62a3.44,3.44,0,0,1-3.11,0L19.25,30.35a1,1,0,0,1,0-1.8L59.1,5.37a3.47,3.47,0,0,1,3.11,0Z"/><path class="cls-9" d="M59.36,59.58a3.09,3.09,0,0,0,1.55-.37L100.77,36a1.07,1.07,0,0,0,.64-.89l0-6.59a1.07,1.07,0,0,1-.64.89L60.93,52.62a3.14,3.14,0,0,1-1.55.37"/><path class="cls-10" d="M59.38,53a3.18,3.18,0,0,1-1.56-.37L19.25,30.35a1.11,1.11,0,0,1-.65-.91V36a1.09,1.09,0,0,0,.65.9L57.8,59.21a3.21,3.21,0,0,0,1.56.37"/><path class="cls-11" d="M25.72,34.09l-6.47-3.74a1.11,1.11,0,0,1-.65-.91V36a1.09,1.09,0,0,0,.65.9l6.48,3.75Z"/><line class="cls-7" x1="25.71" y1="34.06" x2="68.67" y2="9.08"/><path class="cls-1" d="M100.78,27.64,62.21,5.37a3.47,3.47,0,0,0-3.11,0L19.24,28.55a1.11,1.11,0,0,0-.64.9h0V36a1.09,1.09,0,0,0,.65.9L57.8,59.21a3.41,3.41,0,0,0,3.11,0L100.77,36a1.07,1.07,0,0,0,.64-.89l0-6.59h0A1.09,1.09,0,0,0,100.78,27.64Z"/><line class="cls-1" x1="25.71" y1="40.66" x2="25.71" y2="34.09"/><path class="cls-12" d="M62.21,5.37a3.47,3.47,0,0,0-3.11,0L19.24,28.55a1,1,0,0,0,0,1.8l6.47,3.74,42.92-25Z"/><path class="cls-1" d="M62.21,5.37a3.47,3.47,0,0,0-3.11,0L19.24,28.55a1,1,0,0,0,0,1.8l6.47,3.74,42.92-25Z"/><path class="cls-13" d="M34.19,24.8a.67.67,0,0,1,0-1.27,2.42,2.42,0,0,1,2.19,0,.67.67,0,0,1,0,1.27A2.42,2.42,0,0,1,34.19,24.8Z"/><path class="cls-13" d="M29.79,27.34a.67.67,0,0,1,0-1.27,2.42,2.42,0,0,1,2.19,0,.67.67,0,0,1,0,1.27A2.42,2.42,0,0,1,29.79,27.34Z"/><path class="cls-13" d="M25.38,29.88a.67.67,0,0,1,0-1.27,2.42,2.42,0,0,1,2.19,0,.67.67,0,0,1,0,1.27A2.42,2.42,0,0,1,25.38,29.88Z"/><path class="cls-10" d="M76.43,26.44l-2.6.4a2.8,2.8,0,0,1-1.66-.15l-.43-.27a11.2,11.2,0,0,0-1-.52l1-2.18c.17-.38-.22-.76-.86-.86l-6.31-1a1.45,1.45,0,0,0-1.49.5l-1,2.18a17.9,17.9,0,0,0-2.67.41l-2.76-1.59a1.87,1.87,0,0,0-1.72,0L50.28,26a.52.52,0,0,0,0,1L53,28.63a4.37,4.37,0,0,0-.71,1.54l-3.77.58c-.65.1-1,.49-.86.86l1.68,3.64a1.46,1.46,0,0,0,1.49.5l3.78-.58c.28.2.58.4.91.6s.68.36,1,.53l-1,2.17c-.17.38.21.76.86.86l6.31,1a1.46,1.46,0,0,0,1.49-.5l1-2.17a19.3,19.3,0,0,0,2.67-.42l2.76,1.6a1.93,1.93,0,0,0,1.72,0L77,36.15a.52.52,0,0,0,0-1l-2.76-1.59A4.8,4.8,0,0,0,75,32l3.77-.58c.65-.1,1-.49.86-.86l-1.69-3.64A1.44,1.44,0,0,0,76.43,26.44ZM56.6,36.3v2.9m10.82-5.93a8.33,8.33,0,0,1-7.53,0c-2.08-1.2-2.08-3.15,0-4.35a8.33,8.33,0,0,1,7.53,0C69.49,30.12,69.49,32.07,67.42,33.27Z"/><rect class="cls-14" width="120" height="120"/><rect class="cls-14" width="120" height="120"/></g></g></svg>