<svg xmlns="http://www.w3.org/2000/svg" viewBox="0 0 120 120"><defs><style>.cls-1,.cls-2{fill:#d5dae0;}.cls-2,.cls-5{stroke:#d5dae0;}.cls-12,.cls-15,.cls-16,.cls-17,.cls-2,.cls-3,.cls-5,.cls-7,.cls-8,.cls-9{stroke-linecap:round;stroke-linejoin:round;}.cls-12,.cls-14,.cls-15,.cls-16,.cls-17,.cls-2,.cls-3,.cls-5,.cls-7,.cls-8,.cls-9{stroke-width:2px;}.cls-12,.cls-14,.cls-15,.cls-19,.cls-3,.cls-5,.cls-7{fill:none;}.cls-3{stroke:#627386;}.cls-4,.cls-9{fill:#b8bfca;}.cls-16,.cls-6,.cls-8{fill:#fff;}.cls-7,.cls-8,.cls-9{stroke:#b8bfca;}.cls-10{fill:#627386;}.cls-10,.cls-18{fill-rule:evenodd;}.cls-11{fill:#bde4fd;}.cls-12{stroke:#1b6dc6;}.cls-13,.cls-17{fill:#91d2fb;}.cls-14{stroke:#bde4fd;stroke-miterlimit:10;}.cls-15,.cls-16,.cls-17{stroke:#91d2fb;}.cls-18{fill:#1b6dc6;}</style></defs><title>environmental-&amp;amp;-waste</title><g id="Layer_2" data-name="Layer 2"><g id="Industries"><path class="cls-1" d="M63,36.07,6.71,35.76l4.37,46.75h0A2,2,0,0,0,12.25,84l20,11.57a6.23,6.23,0,0,0,5.64,0l19.57-11.3a2,2,0,0,0,1.15-1.51h0Z"/><path class="cls-2" d="M64.25,22a2.24,2.24,0,0,1-1.12-4.19l5.08-2.93L52.34,5.67a2.32,2.32,0,0,0-1.79,0L44.11,9.39A2.24,2.24,0,0,1,41.87,5.5l6.44-3.71a6.63,6.63,0,0,1,6.27,0l17.23,9.94a3.6,3.6,0,0,1,2,3.11,3.6,3.6,0,0,1-2,3.1l-6.44,3.72A2.3,2.3,0,0,1,64.25,22Z"/><path class="cls-3" d="M64.25,22a2.24,2.24,0,0,1-1.12-4.19l5.08-2.93L52.34,5.67a2.32,2.32,0,0,0-1.79,0L44.11,9.39A2.24,2.24,0,0,1,41.87,5.5l6.44-3.71a6.63,6.63,0,0,1,6.27,0l17.23,9.94a3.6,3.6,0,0,1,2,3.11,3.6,3.6,0,0,1-2,3.1l-6.44,3.72A2.3,2.3,0,0,1,64.25,22Z"/><path class="cls-4" d="M34.87,96.25a5.84,5.84,0,0,0,3.05-.66l19.57-11.3a2,2,0,0,0,1.15-1.51h0L63,36.07l-28.16-.16Z"/><path class="cls-5" d="M35.1,94.25a3.85,3.85,0,0,1-1.81-.4l-20-11.57a.61.61,0,0,1-.16-.11l-.15-1.67h0l-4-42.72,51.9.29-4,42.7h0l-.16,1.67-.16.11L36.92,93.85A3.89,3.89,0,0,1,35.1,94.25Z"/><path class="cls-4" d="M7.85,46.92,31.57,60.61a7.94,7.94,0,0,0,7.2,0L61.88,47.26,63,35.07,6.71,34.75Z"/><path class="cls-3" d="M63,36.07,6.71,35.76l4.37,46.75h0A2,2,0,0,0,12.25,84l20,11.57a6.23,6.23,0,0,0,5.64,0l19.57-11.3a2,2,0,0,0,1.15-1.51h0Z"/><path class="cls-3" d="M61,37.59,38.4,50.65a7.2,7.2,0,0,1-6.52,0L8.72,37.28c-1.8-1-1.8-2.72,0-3.76L31.34,20.46a7.2,7.2,0,0,1,6.52,0L61,33.83C62.82,34.87,62.82,36.55,61,37.59Z"/><path class="cls-2" d="M63.73,18.44,38.17,3.68a8,8,0,0,0-7.2,0L12.1,14.58a2.92,2.92,0,0,0-1.38,1.48h0L4.62,33.15h0a1.8,1.8,0,0,0-.1.6h0v5A2.54,2.54,0,0,0,6,40.83L31.57,55.58a7.94,7.94,0,0,0,7.2,0l25-14.41a2.53,2.53,0,0,0,1.5-2.08V20.52A2.54,2.54,0,0,0,63.73,18.44Z"/><path class="cls-6" d="M28.78,5,12.1,14.58a2.92,2.92,0,0,0-1.38,1.48h0L4.62,33.15h0a1.8,1.8,0,0,0-.1.6h0v5A2.54,2.54,0,0,0,6,40.83L31.57,55.58a7.21,7.21,0,0,0,3.64.86l6-22.08,1.27-6.61V14.29L35.8,5.83Z"/><path class="cls-7" d="M40.3,18.48l-2.13-1.23a8,8,0,0,0-7.2,0l-.71.41-19.55-1.6L4.62,33.15h0c-.33.94.13,2,1.38,2.68L31.57,50.58a7.94,7.94,0,0,0,7.2,0l25-14.41a2.53,2.53,0,0,0,1.5-2.08V20.52Z"/><path class="cls-8" d="M63.73,22.6,44.86,33.5a8,8,0,0,1-7.2,0L12.1,18.74c-2-1.15-2-3,0-4.16L31,3.68a8,8,0,0,1,7.2,0L63.73,18.44C65.72,19.59,65.72,21.45,63.73,22.6Z"/><path class="cls-2" d="M53.67,21.63l-10.5,6.06a4.41,4.41,0,0,1-4,0l-17-9.82a1.22,1.22,0,0,1,0-2.32l10.5-6.06a4.41,4.41,0,0,1,4,0l17,9.82A1.22,1.22,0,0,1,53.67,21.63Z"/><path class="cls-7" d="M53.67,21.63l-10.5,6.06a4.41,4.41,0,0,1-4,0l-17-9.82a1.22,1.22,0,0,1,0-2.32l10.5-6.06a4.41,4.41,0,0,1,4,0l17,9.82A1.22,1.22,0,0,1,53.67,21.63Z"/><path class="cls-3" d="M63.73,18.44,38.17,3.68a8,8,0,0,0-7.2,0L12.1,14.58a2.92,2.92,0,0,0-1.38,1.48h0L4.62,33.15h0a1.8,1.8,0,0,0-.1.6h0v5A2.54,2.54,0,0,0,6,40.83L31.57,55.58a7.94,7.94,0,0,0,7.2,0l25-14.41a2.53,2.53,0,0,0,1.5-2.08V20.52A2.54,2.54,0,0,0,63.73,18.44Z"/><polygon class="cls-2" points="29.61 49.46 33.13 36.71 13.85 25.58 10.34 38.33 29.61 49.46"/><polygon class="cls-9" points="13.85 25.58 10.34 38.33 10.84 38.62 23.64 31.23 13.85 25.58"/><path class="cls-10" d="M14.64,61.88,18,63.82,20,69l-1.33-1.83-1.08,2.09,3.68,2.13L21.44,76l-2.86-1.65a2.31,2.31,0,0,1-.56-.46,3.9,3.9,0,0,1-.92-1.59,3.14,3.14,0,0,1-.13-.4L15,66.3a2.84,2.84,0,0,1-.11-.48A1.42,1.42,0,0,1,15,65l.8-1.5-1.17-1.58Zm2.3-.53,1.34-2.75a1,1,0,0,1,.25-.26,1,1,0,0,1,1.11.12l.27.22,3.83,2.26.32.29a2.58,2.58,0,0,1,.56.91l.94,2.51,1.11-.25-1.48,3.06-3.53-1.81L23,65.39l-1.3-3.45L20,65.31l-3.07-4Zm11.84,12a2,2,0,0,1-.19,1.45.8.8,0,0,1-.15.21s0,0,0,0l-1.88,3.2a.49.49,0,0,1-.21.19.67.67,0,0,1-.66-.07l-1.7-1,0,1.78-1.81-4.92,1.53-3.27,0,2,2.35,1.38-2-5.42L27,68.31l1.63,4.43a4.56,4.56,0,0,1,.14.59Z"/><polygon class="cls-3" points="29.61 49.46 33.13 36.71 13.85 25.58 10.34 38.33 29.61 49.46"/><path class="cls-11" d="M104.75,58.81l-56.31-.32,4.37,46.75h0A2,2,0,0,0,54,106.76l20,11.57a6.31,6.31,0,0,0,5.65,0L99.22,107a2.07,2.07,0,0,0,1.15-1.52h0Z"/><path class="cls-11" d="M106,44.7a2.25,2.25,0,0,1-1.12-4.19l5.09-2.94L94.06,28.41a2.32,2.32,0,0,0-1.79,0l-6.43,3.72a2.25,2.25,0,0,1-2.25-3.89L90,24.52a6.69,6.69,0,0,1,6.27,0l17.23,10a3.44,3.44,0,0,1,0,6.21l-6.44,3.72A2.27,2.27,0,0,1,106,44.7Z"/><path class="cls-12" d="M106,44.7a2.25,2.25,0,0,1-1.12-4.19l5.09-2.94L94.06,28.41a2.32,2.32,0,0,0-1.79,0l-6.43,3.72a2.25,2.25,0,0,1-2.25-3.89L90,24.52a6.69,6.69,0,0,1,6.27,0l17.23,10a3.44,3.44,0,0,1,0,6.21l-6.44,3.72A2.27,2.27,0,0,1,106,44.7Z"/><path class="cls-13" d="M76.6,119a6,6,0,0,0,3.05-.66L99.22,107a2.05,2.05,0,0,0,1.15-1.52h0l4.37-46.7L76.6,58.65Z"/><path class="cls-14" d="M76.83,117a3.77,3.77,0,0,1-1.82-.41L55,105l-.17-.11-.14-1.68h0l-4-42.71,51.89.29-4,42.69h0l-.15,1.67-.17.12L78.64,116.58A3.76,3.76,0,0,1,76.83,117Z"/><path class="cls-13" d="M49.58,69.66,73.29,83.35a7.94,7.94,0,0,0,7.2,0L103.61,70l1.14-12.19-56.31-.32Z"/><path class="cls-12" d="M104.75,58.81l-56.31-.32,4.37,46.75h0A2,2,0,0,0,54,106.76l20,11.57a6.31,6.31,0,0,0,5.65,0L99.22,107a2.07,2.07,0,0,0,1.15-1.52h0Z"/><path class="cls-3" d="M102.74,60.33,80.13,73.39a7.22,7.22,0,0,1-6.53,0L50.45,60c-1.81-1-1.81-2.73,0-3.77l22.61-13a7.22,7.22,0,0,1,6.53,0l23.15,13.36C104.54,57.6,104.54,59.29,102.74,60.33Z"/><path class="cls-11" d="M105.46,41.18,79.9,26.42a7.94,7.94,0,0,0-7.2,0L53.82,37.32a2.92,2.92,0,0,0-1.38,1.48h0L46.34,55.89h0a1.78,1.78,0,0,0-.1.59h0v5a2.5,2.5,0,0,0,1.49,2.08L73.29,78.32a7.94,7.94,0,0,0,7.2,0l25-14.41A2.55,2.55,0,0,0,107,61.83V43.26A2.52,2.52,0,0,0,105.46,41.18Z"/><path class="cls-6" d="M70.5,27.69,53.82,37.32a2.92,2.92,0,0,0-1.38,1.48h0L46.34,55.89h0a1.78,1.78,0,0,0-.1.59h0v5a2.5,2.5,0,0,0,1.49,2.08L73.29,78.32a7.38,7.38,0,0,0,3.65.86l6-22.09,1.27-6.6V37l-6.73-8.46Z"/><path class="cls-15" d="M82,41.22,79.9,40a7.94,7.94,0,0,0-7.2,0L72,40.4,52.43,38.8,46.34,55.89h0c-.34.94.12,2,1.38,2.67L73.29,73.32a7.94,7.94,0,0,0,7.2,0l25-14.41A2.55,2.55,0,0,0,107,56.83V43.26Z"/><path class="cls-16" d="M105.46,45.34,86.58,56.23a7.94,7.94,0,0,1-7.2,0L53.82,41.48c-2-1.15-2-3,0-4.16L72.7,26.42a7.94,7.94,0,0,1,7.2,0l25.56,14.76C107.45,42.33,107.45,44.19,105.46,45.34Z"/><path class="cls-11" d="M95.4,44.36,84.9,50.42a4.43,4.43,0,0,1-4,0l-17-9.82a1.22,1.22,0,0,1,0-2.31l10.5-6.06a4.41,4.41,0,0,1,4,0l17,9.82A1.22,1.22,0,0,1,95.4,44.36Z"/><path class="cls-15" d="M95.4,44.36,84.9,50.42a4.43,4.43,0,0,1-4,0l-17-9.82a1.22,1.22,0,0,1,0-2.31l10.5-6.06a4.41,4.41,0,0,1,4,0l17,9.82A1.22,1.22,0,0,1,95.4,44.36Z"/><path class="cls-12" d="M105.46,41.18,79.9,26.42a7.94,7.94,0,0,0-7.2,0L53.82,37.32a2.92,2.92,0,0,0-1.38,1.48h0L46.34,55.89h0a1.78,1.78,0,0,0-.1.59h0v5a2.5,2.5,0,0,0,1.49,2.08L73.29,78.32a7.94,7.94,0,0,0,7.2,0l25-14.41A2.55,2.55,0,0,0,107,61.83V43.26A2.52,2.52,0,0,0,105.46,41.18Z"/><polygon class="cls-11" points="71.34 72.19 74.86 59.45 55.58 48.31 52.06 61.06 71.34 72.19"/><polygon class="cls-17" points="55.58 48.31 52.06 61.06 52.57 61.36 65.36 53.97 55.58 48.31"/><path class="cls-18" d="M56.37,84.62l3.35,1.94,2,5.16L60.39,89.9,59.31,92,63,94.12l.17,4.65L60.3,97.11a2.19,2.19,0,0,1-.56-.45,3.9,3.9,0,0,1-.92-1.59,2.34,2.34,0,0,1-.12-.4l-2-5.63a3.26,3.26,0,0,1-.1-.49,1.36,1.36,0,0,1,.1-.86l.8-1.49-1.17-1.58Zm2.29-.53L60,81.34a.89.89,0,0,1,.25-.26.94.94,0,0,1,1.11.12l.26.21,3.83,2.27.33.28a2.88,2.88,0,0,1,.56.92l.93,2.5,1.11-.24L66.91,90.2l-3.53-1.81,1.29-.26-1.29-3.45-1.65,3.37-3.07-4Zm11.84,12a2,2,0,0,1-.19,1.45.51.51,0,0,1-.15.21s0,0,0,0L68.28,101a.6.6,0,0,1-.22.19.68.68,0,0,1-.65-.07l-1.71-1,0,1.79-1.81-4.92,1.54-3.27,0,2,2.36,1.38-2-5.42L68.74,91l1.62,4.44a4.56,4.56,0,0,1,.14.59Z"/><polygon class="cls-12" points="71.34 72.19 74.86 59.45 55.58 48.31 52.06 61.06 71.34 72.19"/><rect class="cls-19" width="120" height="120"/><rect class="cls-19" width="120" height="120"/></g></g></svg>