<svg xmlns="http://www.w3.org/2000/svg" viewBox="0 0 120 120"><defs><style>.cls-1{fill:#d5dae0;stroke:#d5dae0;}.cls-1,.cls-10,.cls-2,.cls-3,.cls-4,.cls-5,.cls-6,.cls-7,.cls-8,.cls-9{stroke-linecap:round;stroke-linejoin:round;stroke-width:2px;}.cls-2,.cls-8{fill:#fff;}.cls-2,.cls-3,.cls-5{stroke:#b8bfca;}.cls-3,.cls-6{fill:#bde4fd;}.cls-10,.cls-11,.cls-4,.cls-5,.cls-9{fill:none;}.cls-10,.cls-4{stroke:#627386;}.cls-6,.cls-7,.cls-8{stroke:#91d2fb;}.cls-7{fill:#91d2fb;}.cls-9{stroke:#1b6dc6;}.cls-10{stroke-dasharray:0 5.6;}</style></defs><title>export</title><g id="Layer_2" data-name="Layer 2"><g id="Actions"><path class="cls-1" d="M25.74,37.69V20.1a5.23,5.23,0,0,0-.56.83L15.2,40a4.77,4.77,0,0,0-.55,2.11v3.76l9.76-5.63A3.22,3.22,0,0,0,25.74,37.69Z"/><path class="cls-2" d="M25.18,20.93,15.2,40a4.77,4.77,0,0,0-.55,2.11V107c0,.7.42,1,.95.72L58.22,83.08a2.28,2.28,0,0,0,1-1.81V1.83c0-.7-.42-1-1-.72L26.52,19.42A3.79,3.79,0,0,0,25.18,20.93Z"/><path class="cls-1" d="M25.74,37.31V20a4.76,4.76,0,0,0-.54.81L15.37,39.58a4.65,4.65,0,0,0-.55,2.08v3.71l9.61-5.55A3.13,3.13,0,0,0,25.74,37.31Z"/><path class="cls-2" d="M14.82,41l10-5.76a2.27,2.27,0,0,0,.95-1.81V20.1a5.23,5.23,0,0,0-.56.83l-5,9.53L15.2,40A5.64,5.64,0,0,0,14.82,41Z"/><line class="cls-3" x1="48.52" y1="66.01" x2="25.3" y2="79.41"/><line class="cls-3" x1="48.52" y1="55.59" x2="25.3" y2="68.99"/><line class="cls-3" x1="48.52" y1="45.17" x2="25.3" y2="58.58"/><line class="cls-3" x1="48.52" y1="34.76" x2="25.3" y2="48.16"/><path class="cls-4" d="M25.18,20.93,15.2,40a4.77,4.77,0,0,0-.55,2.11V107c0,.7.42,1,.95.72L58.22,83.08a2.28,2.28,0,0,0,1-1.81V1.83c0-.7-.42-1-1-.72L26.52,19.42A3.79,3.79,0,0,0,25.18,20.93Z"/><path class="cls-1" d="M45.14,48.89V31.3a4.16,4.16,0,0,0-.56.83L34.6,51.2a4.77,4.77,0,0,0-.55,2.11v3.76l9.76-5.63A3.22,3.22,0,0,0,45.14,48.89Z"/><path class="cls-2" d="M44.58,32.13,34.6,51.2a4.77,4.77,0,0,0-.55,2.11v64.86c0,.7.42,1,.94.72L77.62,94.28a2.3,2.3,0,0,0,.95-1.81V13c0-.7-.43-1-.95-.72l-31.7,18.3A3.89,3.89,0,0,0,44.58,32.13Z"/><path class="cls-1" d="M45.14,48.51V31.19a4.23,4.23,0,0,0-.54.81L34.76,50.78a4.64,4.64,0,0,0-.54,2.08v3.71L43.83,51A3.16,3.16,0,0,0,45.14,48.51Z"/><path class="cls-2" d="M34.22,52.16l10-5.76a2.27,2.27,0,0,0,1-1.81V31.3a4.16,4.16,0,0,0-.56.83l-5,9.53-5,9.54A5.64,5.64,0,0,0,34.22,52.16Z"/><line class="cls-5" x1="67.92" y1="77.2" x2="44.7" y2="90.61"/><line class="cls-5" x1="67.92" y1="66.79" x2="44.7" y2="80.19"/><line class="cls-5" x1="67.92" y1="56.37" x2="44.7" y2="69.78"/><line class="cls-5" x1="67.92" y1="45.96" x2="44.7" y2="59.36"/><path class="cls-4" d="M44.58,32.13,34.6,51.2a4.77,4.77,0,0,0-.55,2.11v64.86c0,.7.42,1,.94.72L77.62,94.28a2.3,2.3,0,0,0,.95-1.81V13c0-.7-.43-1-.95-.72l-31.7,18.3A3.89,3.89,0,0,0,44.58,32.13Z"/><polygon class="cls-6" points="86.78 98.47 86.78 108.11 78.57 103.37 78.57 93.73 86.78 98.47"/><polygon class="cls-7" points="105.35 82.84 97.14 78.1 78.57 74.28 86.78 79.02 105.35 82.84"/><polygon class="cls-7" points="105.35 82.84 86.78 79.02 86.78 88.66 67.13 100 67.13 109.81 86.78 98.47 86.78 108.11 105.35 82.84"/><polygon class="cls-6" points="86.78 79.02 86.78 88.66 78.57 83.92 78.57 74.28 86.78 79.02"/><polygon class="cls-8" points="67.13 100 86.78 88.66 78.57 83.92 58.92 95.26 67.13 100"/><polygon class="cls-6" points="67.13 100 67.13 109.81 58.92 105.07 58.92 95.26 67.13 100"/><polygon class="cls-9" points="97.14 78.1 78.57 74.28 78.57 83.92 58.92 95.26 58.92 105.07 67.13 109.81 78.57 103.21 78.57 103.37 86.78 108.11 105.35 82.84 97.14 78.1"/><line class="cls-4" x1="14.98" y1="107.74" x2="14.98" y2="107.74"/><line class="cls-10" x1="19.82" y1="110.54" x2="31.95" y2="117.54"/><line class="cls-4" x1="34.37" y1="118.94" x2="34.37" y2="118.94"/><line class="cls-4" x1="58.84" y1="1.06" x2="58.84" y2="1.06"/><line class="cls-10" x1="63.69" y1="3.86" x2="75.82" y2="10.86"/><line class="cls-4" x1="78.24" y1="12.26" x2="78.24" y2="12.26"/><rect class="cls-11" width="120" height="120"/><rect class="cls-11" width="120" height="120"/></g></g></svg>