<svg xmlns="http://www.w3.org/2000/svg" viewBox="0 0 120 120"><defs><style>.cls-1,.cls-5,.cls-8{fill:#d5dae0;}.cls-1,.cls-2,.cls-3,.cls-6{stroke:#b8bfca;}.cls-1,.cls-10,.cls-2,.cls-3,.cls-4,.cls-5,.cls-6,.cls-9{stroke-linecap:round;stroke-linejoin:round;}.cls-1,.cls-10,.cls-2,.cls-3,.cls-4,.cls-6,.cls-9{stroke-width:2px;}.cls-11,.cls-2{fill:#fff;}.cls-3,.cls-7{fill:#b8bfca;}.cls-10,.cls-12,.cls-4,.cls-6,.cls-9{fill:none;}.cls-4{stroke:#627386;}.cls-10,.cls-5{stroke:#d5dae0;}.cls-9{stroke:#fff;}</style></defs><title>federal-government</title><g id="Layer_2" data-name="Layer 2"><g id="Industries"><path class="cls-1" d="M67.07,7.52A6.13,6.13,0,0,1,63,9.88a6.05,6.05,0,0,0-4.08,2.36V5.72A6.05,6.05,0,0,1,63,3.36,6.05,6.05,0,0,0,67.07,1Z"/><polygon class="cls-2" points="98.17 44.11 85.39 51.49 62.02 37.99 74.8 30.62 98.17 44.11"/><polygon class="cls-1" points="98.17 72.23 98.17 77.23 85.39 84.6 85.39 79.6 98.17 72.23"/><polygon class="cls-2" points="107.74 97.5 70.51 119 24.79 91.7 62.02 70.2 107.74 97.5"/><polygon class="cls-2" points="107.74 92.5 85.39 79.6 98.17 72.23 74.8 58.74 25.24 87.35 24.79 87.61 24.79 87.61 12.02 94.98 35.39 108.47 48.16 101.1 70.51 114 107.74 92.5"/><polygon class="cls-3" points="107.74 92.5 107.74 97.5 70.51 119 70.51 114 107.74 92.5"/><polygon class="cls-1" points="48.16 101.1 48.16 106.1 70.51 119 70.51 114 48.16 101.1"/><polygon class="cls-3" points="85.39 79.6 85.39 51.49 98.17 44.11 98.17 72.23 85.39 79.6"/><polygon class="cls-4" points="74.8 30.62 62.02 37.99 62.02 66.11 62.02 71.11 85.39 84.6 98.17 77.23 98.17 72.23 98.17 44.11 74.8 30.62"/><polygon class="cls-2" points="48.16 72.98 35.39 80.36 12.02 66.86 24.79 59.49 48.16 72.98"/><polygon class="cls-5" points="39.69 72.66 34.82 75.46 20.49 67.19 25.36 64.38 39.69 72.66"/><polygon class="cls-3" points="58.04 106.81 58.04 78.69 95.28 57.19 95.28 85.31 58.04 106.81"/><polygon class="cls-1" points="68.98 100.49 68.98 84.1 84.34 75.23 84.34 91.62 68.98 100.49"/><polygon class="cls-6" points="58.04 106.81 58.04 78.69 95.28 57.19 95.28 85.31 58.04 106.81"/><line class="cls-4" x1="58.04" y1="106.8" x2="93.58" y2="86.29"/><path class="cls-1" d="M93.3,65.73V92.2c0,1.14,1.6,2.06,3.57,2.06s3.57-.92,3.57-2.06V65.73Z"/><path class="cls-1" d="M100.2,73.46c0,1.06-1.49,1.92-3.33,1.92s-3.33-.86-3.33-1.92S95,63.23,96.87,63.23,100.2,72.39,100.2,73.46Z"/><path class="cls-3" d="M92.5,60V73.15c0,1.39,2,2.52,4.37,2.52s4.38-1.13,4.38-2.52V60Z"/><path class="cls-4" d="M92.5,60V73.15a1.91,1.91,0,0,0,.8,1.45V92.2c0,1.14,1.6,2.06,3.57,2.06s3.57-.92,3.57-2.06V74.6a1.9,1.9,0,0,0,.81-1.45V60Z"/><path class="cls-1" d="M68.38,80.12v26.47c0,1.14,1.6,2.06,3.57,2.06s3.57-.92,3.57-2.06V80.12Z"/><path class="cls-1" d="M75.28,87.85c0,1.06-1.49,1.92-3.33,1.92s-3.33-.86-3.33-1.92S70.11,77.62,72,77.62,75.28,86.78,75.28,87.85Z"/><path class="cls-3" d="M67.57,74.37V87.54c0,1.39,2,2.52,4.38,2.52s4.37-1.13,4.37-2.52V74.37Z"/><path class="cls-4" d="M67.57,74.37V87.54A1.93,1.93,0,0,0,68.38,89v17.6c0,1.14,1.6,2.06,3.57,2.06s3.57-.92,3.57-2.06V89a1.91,1.91,0,0,0,.8-1.45V74.37Z"/><polygon class="cls-7" points="35.39 108.47 35.39 80.36 48.16 72.98 48.16 101.1 35.39 108.47"/><polygon class="cls-8" points="35.39 108.47 35.39 80.36 12.02 66.86 12.02 94.98 35.39 108.47"/><polyline class="cls-9" points="48.16 85.23 35.39 92.61 12.02 79.11"/><polygon class="cls-2" points="103.13 54.91 65.89 76.41 24.79 52.67 62.02 31.18 103.13 54.91"/><polygon class="cls-2" points="103.13 51.5 84.51 52.88 65.89 73 70.75 75.8 89.36 55.68 107.98 54.3 103.13 51.5"/><polygon class="cls-1" points="65.89 73 65.89 76.41 24.79 52.67 24.79 59.49 48.16 72.98 48.16 101.1 58.04 106.81 58.04 78.69 65.89 83.22 70.75 86.02 70.75 75.8 65.89 73"/><line class="cls-9" x1="48.16" y1="85.23" x2="53.04" y2="88.05"/><polygon class="cls-3" points="89.36 55.68 70.75 75.8 70.75 86.02 89.36 75.28 107.98 64.53 107.98 61.12 107.98 57.71 107.98 54.3 89.36 55.68"/><line class="cls-10" x1="95.6" y1="64.17" x2="83.13" y2="71.37"/><polygon class="cls-8" points="48.16 101.1 48.16 106.1 35.39 113.47 35.39 108.47 48.16 101.1"/><polygon class="cls-11" points="12.02 94.98 12.02 99.98 35.39 113.47 35.39 108.47 12.02 94.98"/><polygon class="cls-6" points="35.39 80.36 12.02 66.86 12.02 94.98 12.02 99.98 35.39 113.47 48.16 106.1 48.16 101.1 48.16 72.98 35.39 80.36"/><line class="cls-10" x1="84.51" y1="52.88" x2="89.36" y2="55.68"/><polygon class="cls-6" points="103.13 51.5 84.51 52.88 65.89 73 70.75 75.8 89.36 55.68 107.98 54.3 103.13 51.5"/><polygon class="cls-4" points="24.79 59.49 12.02 66.86 12.02 94.98 12.02 99.98 35.39 113.47 48.16 106.1 48.16 101.1 48.16 72.98 24.79 59.49"/><line class="cls-4" x1="107.74" y1="92.5" x2="107.74" y2="97.5"/><polyline class="cls-4" points="107.74 97.5 70.51 119 48.16 106.1 48.16 72.98 24.79 59.49 24.79 52.67 62.02 31.18 97.89 51.89 103.13 51.5 107.98 54.3 107.98 64.53 70.75 86.02"/><line class="cls-4" x1="70.75" y1="86.02" x2="58.04" y2="78.69"/><line class="cls-4" x1="58.04" y1="78.69" x2="58.04" y2="106.8"/><line class="cls-4" x1="58.04" y1="106.8" x2="48.16" y2="101.1"/><path class="cls-3" d="M73.05,45.44c-3.14-2.56-8.3-4.33-14.15-4.33s-11-.06-14.16,2.5l-3.2,1.83v5.78c0,5.53,7.77,10,17.36,10s17.35-4.49,17.35-10V45.44Z"/><path class="cls-8" d="M44.74,43.61l-3.2,1.83v5.78c0,5.53,7.77,10,17.36,10V41.11C53.05,41.11,47.89,41.05,44.74,43.61Z"/><path class="cls-6" d="M73.05,45.44c-3.14-2.56-8.3-4.33-14.15-4.33s-11-.06-14.16,2.5l-3.2,1.83v5.78c0,5.53,7.77,10,17.36,10s17.35-4.49,17.35-10V45.44Z"/><path class="cls-2" d="M41.54,45.44c0,5.53,7.77,10,17.36,10s17.35-4.48,17.35-10V38a17.36,17.36,0,1,0-34.71,0Z"/><path class="cls-8" d="M58.9,36.56V55.45c6.1,0,11.45-1.82,14.55-4.56a5.62,5.62,0,0,0,.09-.92V36.78c0-.29,0-.57,0-.86C73,26.59,58.9,27.21,58.9,36.56Z"/><path class="cls-10" d="M43.29,50.1V38A15.62,15.62,0,0,1,58.9,22.4"/><path class="cls-9" d="M58.9,22.4A15.62,15.62,0,0,1,74.5,38V49.66"/><path class="cls-6" d="M41.54,45.44c0,5.53,7.77,10,17.36,10s17.35-4.48,17.35-10V38a17.36,17.36,0,1,0-34.71,0Z"/><path class="cls-2" d="M58.9,15.76a6.13,6.13,0,0,0-6.13,6.13v2c0,1.95,2.74,3.53,6.13,3.53S65,25.86,65,23.91v-2A6.13,6.13,0,0,0,58.9,15.76Z"/><path class="cls-8" d="M59,21.74v5.7c3.33,0,6-1.6,6-3.53v-2a5.06,5.06,0,0,0,0-.55C64.67,17.61,59,18,59,21.74Z"/><path class="cls-6" d="M58.9,15.76a6.13,6.13,0,0,0-6.13,6.13v2c0,1.95,2.74,3.53,6.13,3.53S65,25.86,65,23.91v-2A6.13,6.13,0,0,0,58.9,15.76Z"/><ellipse class="cls-7" cx="58.9" cy="17.19" rx="1.42" ry="0.97"/><path class="cls-4" d="M65,21.79a6.12,6.12,0,0,0-12.24,0A17.34,17.34,0,0,0,41.54,38v7.43h0v5.78c0,5.53,7.77,10,17.36,10s17.35-4.49,17.35-10V38A17.33,17.33,0,0,0,65,21.79Z"/><line class="cls-4" x1="107.74" y1="92.5" x2="100.44" y2="88.29"/><line class="cls-4" x1="58.9" y1="4.37" x2="58.9" y2="16.75"/><rect class="cls-12" width="120" height="120"/><rect class="cls-12" width="120" height="120"/></g></g></svg>