<svg xmlns="http://www.w3.org/2000/svg" viewBox="0 0 120 120"><defs><style>.cls-1,.cls-13,.cls-14,.cls-16,.cls-2,.cls-3,.cls-4{fill:none;}.cls-1,.cls-2{stroke:#1b6dc6;}.cls-1,.cls-10,.cls-13,.cls-16,.cls-19,.cls-2,.cls-3,.cls-4,.cls-5,.cls-6,.cls-7,.cls-8,.cls-9{stroke-linecap:round;stroke-linejoin:round;stroke-width:2px;}.cls-2,.cls-4{stroke-dasharray:0 5.81;}.cls-3,.cls-4{stroke:#627386;}.cls-15,.cls-5,.cls-8{fill:#fff;}.cls-16,.cls-5,.cls-6,.cls-7{stroke:#91d2fb;}.cls-12,.cls-6{fill:#91d2fb;}.cls-11,.cls-7{fill:#bde4fd;}.cls-10,.cls-8,.cls-9{stroke:#b8bfca;}.cls-18,.cls-9{fill:#b8bfca;}.cls-10,.cls-17,.cls-19{fill:#d5dae0;}.cls-13,.cls-19{stroke:#fff;}</style></defs><title>financial-services</title><g id="Layer_2" data-name="Layer 2"><g id="Industries"><ellipse class="cls-1" cx="68.4" cy="77.21" rx="3.08" ry="1.78"/><line class="cls-1" x1="70.57" y1="78.47" x2="70.57" y2="78.47"/><line class="cls-2" x1="75.61" y1="81.37" x2="83.16" y2="85.73"/><line class="cls-1" x1="85.67" y1="87.18" x2="85.67" y2="87.18"/><ellipse class="cls-3" cx="40.13" cy="93.53" rx="3.08" ry="1.78"/><line class="cls-3" x1="42.31" y1="94.78" x2="42.31" y2="94.78"/><line class="cls-4" x1="47.34" y1="97.69" x2="54.89" y2="102.05"/><line class="cls-3" x1="57.41" y1="103.5" x2="57.41" y2="103.5"/><polygon class="cls-5" points="68.97 30.75 52.26 40.4 35.55 30.75 52.26 21.1 68.97 30.75"/><polygon class="cls-6" points="68.97 30.75 68.97 67.89 52.26 77.54 52.26 40.4 68.97 30.75"/><polygon class="cls-7" points="35.55 30.75 35.55 67.89 52.26 77.54 52.26 40.4 35.55 30.75"/><polygon class="cls-1" points="52.26 21.1 35.55 30.75 35.55 67.89 52.26 77.54 68.97 67.89 68.97 30.75 52.26 21.1"/><polygon class="cls-8" points="40.71 65.72 24 75.37 7.29 65.72 24 56.07 40.71 65.72"/><polygon class="cls-9" points="40.71 65.72 40.71 84.21 24 93.86 24 75.37 40.71 65.72"/><polygon class="cls-10" points="7.29 65.72 7.29 84.21 24 93.86 24 75.37 7.29 65.72"/><polygon class="cls-3" points="24 56.07 7.29 65.72 7.29 84.21 24 93.86 40.71 84.21 40.71 65.72 24 56.07"/><path class="cls-11" d="M108.54,88.57l-.19-.12c-5.57-3.21-14.59-3.21-20.15,0l-.19.12H84v5.89c0,2.1,1.39,4.21,4.17,5.81,5.56,3.22,14.58,3.22,20.15,0,2.78-1.6,4.17-3.71,4.17-5.81V88.57Z"/><path class="cls-12" d="M108.35,100.27c2.78-1.6,4.17-3.71,4.17-5.81V88.57h-4l-.19-.12A20.7,20.7,0,0,0,98.27,86v16.64A20.59,20.59,0,0,0,108.35,100.27Z"/><ellipse class="cls-11" cx="98.27" cy="88.57" rx="14.25" ry="8.22"/><ellipse class="cls-13" cx="98.27" cy="88.57" rx="14.25" ry="8.22"/><ellipse class="cls-14" cx="98.27" cy="93.89" rx="14.59" ry="8.83"/><path class="cls-1" d="M112.52,94.46V88.57h0c0-2.1-1.39-4.21-4.17-5.81-5.57-3.22-14.59-3.22-20.15,0C85.42,84.36,84,86.47,84,88.57h0v5.89c0,2.1,1.39,4.21,4.17,5.81a20.55,20.55,0,0,0,10.07,2.41c.46,0,.91,0,1.37,0a21.7,21.7,0,0,0,2.69-.31c.44-.07.87-.16,1.3-.26a17.09,17.09,0,0,0,4.72-1.81,8.87,8.87,0,0,0,3.58-3.47A5.11,5.11,0,0,0,112.52,94.46Z"/><path class="cls-12" d="M103.78,90.87l1.51.87-1.33.78-1.48-.85a11.91,11.91,0,0,1-2.24.9,9.77,9.77,0,0,1-2.18.42l-.91-1.37A11.89,11.89,0,0,0,99,91.28a8.83,8.83,0,0,0,1.73-.63l-2.26-1.31a19.43,19.43,0,0,1-2.12.65,7,7,0,0,1-1.94.16,4.29,4.29,0,0,1-1.9-.58A1.84,1.84,0,0,1,91.38,88c0-.62.45-1.26,1.37-1.93l-1.5-.86,1.34-.78,1.47.85a11.18,11.18,0,0,1,3.56-1.11l1,1.35a10.59,10.59,0,0,0-2.76.79l2.31,1.33a19.78,19.78,0,0,1,2.07-.65,6.91,6.91,0,0,1,1.93-.15,4.19,4.19,0,0,1,1.89.57A1.82,1.82,0,0,1,105.13,89,2.74,2.74,0,0,1,103.78,90.87Zm-8.43-2.45a4.4,4.4,0,0,0,1.12-.22l-1.92-1.11c-.27.25-.39.47-.37.66a.64.64,0,0,0,.37.5,1.5,1.5,0,0,0,.8.17m4.78.34L102,89.84a.93.93,0,0,0,.37-.62.56.56,0,0,0-.34-.48,1.39,1.39,0,0,0-.81-.17,5.32,5.32,0,0,0-1.09.19"/><polygon class="cls-15" points="52.26 7.39 35.55 17.04 35.55 30.75 52.26 40.4 68.97 30.75 68.97 17.04 52.26 7.39"/><polygon class="cls-16" points="68.97 30.75 52.26 40.4 35.55 30.75 52.26 21.1 68.97 30.75"/><polygon class="cls-5" points="68.97 10.65 52.26 20.3 35.55 10.65 52.26 1 68.97 10.65"/><line class="cls-16" x1="52.26" y1="1" x2="52.26" y2="19.32"/><line class="cls-16" x1="52.26" y1="20.3" x2="52.26" y2="40.4"/><polygon class="cls-1" points="52.26 1 35.55 10.65 35.55 30.75 52.26 40.4 68.97 30.75 68.97 10.65 52.26 1"/><path class="cls-17" d="M80.28,104.89l-.19-.12c-5.57-3.21-14.59-3.21-20.15,0l-.2.12h-4v5.89c0,2.1,1.39,4.2,4.17,5.81,5.56,3.21,14.58,3.21,20.15,0,2.78-1.61,4.17-3.71,4.17-5.81v-5.89Z"/><path class="cls-18" d="M80.09,116.59c2.78-1.61,4.17-3.71,4.17-5.81v-5.89h-4l-.19-.12A20.59,20.59,0,0,0,70,102.36V119A20.59,20.59,0,0,0,80.09,116.59Z"/><ellipse class="cls-19" cx="70.01" cy="104.89" rx="14.25" ry="8.22"/><ellipse class="cls-13" cx="70.01" cy="104.89" rx="14.25" ry="8.22"/><ellipse class="cls-14" cx="70.01" cy="110.21" rx="14.59" ry="8.83"/><path class="cls-3" d="M84.26,110.77v-5.88h0c0-2.11-1.39-4.21-4.18-5.82-5.56-3.21-14.58-3.21-20.14,0-2.78,1.61-4.17,3.71-4.17,5.82h0v5.89c0,2.1,1.39,4.2,4.17,5.81A20.55,20.55,0,0,0,70,119c.46,0,.91,0,1.37,0a23.79,23.79,0,0,0,2.69-.3c.44-.07.87-.16,1.3-.26a17.54,17.54,0,0,0,4.72-1.81,8.87,8.87,0,0,0,3.58-3.47A5.18,5.18,0,0,0,84.26,110.77Z"/><path class="cls-18" d="M75.52,107.19l1.51.87-1.34.78L74.22,108a12.63,12.63,0,0,1-2.24.9,9.75,9.75,0,0,1-2.19.42l-.9-1.38a11.49,11.49,0,0,0,1.82-.33,10.14,10.14,0,0,0,1.74-.63l-2.26-1.31a21.93,21.93,0,0,1-2.12.65,7.38,7.38,0,0,1-1.94.16,4.3,4.3,0,0,1-1.9-.59,1.83,1.83,0,0,1-1.11-1.58c0-.62.45-1.27,1.37-1.93L63,101.5l1.34-.77,1.47.84a11.16,11.16,0,0,1,3.56-1.1l1,1.34a10.58,10.58,0,0,0-2.76.8l2.31,1.32a19.52,19.52,0,0,1,2.07-.64,7.3,7.3,0,0,1,1.93-.16,4.21,4.21,0,0,1,1.89.58,1.79,1.79,0,0,1,1.09,1.56A2.74,2.74,0,0,1,75.52,107.19Zm-8.43-2.45a4.88,4.88,0,0,0,1.12-.22l-1.93-1.11a.92.92,0,0,0-.37.66.7.7,0,0,0,.38.5,1.48,1.48,0,0,0,.8.17m4.78.34,1.87,1.08a.92.92,0,0,0,.37-.63.54.54,0,0,0-.34-.47,1.39,1.39,0,0,0-.81-.18,4.8,4.8,0,0,0-1.09.2"/><path class="cls-11" d="M108.54,82.68a1.18,1.18,0,0,1-.19-.11c-5.57-3.21-14.59-3.21-20.15,0l-.19.11H84v5.89c0,2.11,1.39,4.21,4.17,5.82,5.56,3.21,14.58,3.21,20.15,0,2.78-1.61,4.17-3.71,4.17-5.82V82.68Z"/><path class="cls-12" d="M108.35,94.39c2.78-1.61,4.17-3.71,4.17-5.82V82.68h-4a1.18,1.18,0,0,1-.19-.11,20.59,20.59,0,0,0-10.08-2.41V96.8A20.7,20.7,0,0,0,108.35,94.39Z"/><ellipse class="cls-11" cx="98.27" cy="82.68" rx="14.25" ry="8.22"/><ellipse class="cls-13" cx="98.27" cy="82.68" rx="14.25" ry="8.22"/><ellipse class="cls-14" cx="98.27" cy="88" rx="14.59" ry="8.83"/><path class="cls-1" d="M112.52,88.57V82.68h0c0-2.1-1.39-4.21-4.17-5.81-5.57-3.21-14.59-3.21-20.15,0C85.42,78.47,84,80.58,84,82.68h0v5.89c0,2.11,1.39,4.21,4.17,5.82A20.66,20.66,0,0,0,98.27,96.8c.46,0,.91,0,1.37,0a23.79,23.79,0,0,0,2.69-.3c.44-.08.87-.17,1.3-.27a17.39,17.39,0,0,0,4.72-1.8,8.89,8.89,0,0,0,3.58-3.48A5.11,5.11,0,0,0,112.52,88.57Z"/><path class="cls-12" d="M103.78,85l1.51.87-1.33.78-1.48-.85a12.6,12.6,0,0,1-2.24.89,9.77,9.77,0,0,1-2.18.42l-.91-1.37A13.14,13.14,0,0,0,99,85.4a9.54,9.54,0,0,0,1.73-.64l-2.26-1.3a19.18,19.18,0,0,1-2.12.64,7,7,0,0,1-1.94.17,4.43,4.43,0,0,1-1.9-.59,1.84,1.84,0,0,1-1.11-1.59c0-.62.45-1.26,1.37-1.92l-1.5-.87,1.34-.78,1.47.85a11.44,11.44,0,0,1,3.56-1.11l1,1.35a10.59,10.59,0,0,0-2.76.79l2.31,1.33a17.44,17.44,0,0,1,2.07-.64,6.91,6.91,0,0,1,1.93-.16,4.32,4.32,0,0,1,1.89.57,1.82,1.82,0,0,1,1.09,1.57A2.74,2.74,0,0,1,103.78,85Zm-8.43-2.46a4.81,4.81,0,0,0,1.12-.21L94.55,81.2a.87.87,0,0,0-.37.67.63.63,0,0,0,.37.49,1.5,1.5,0,0,0,.8.17m4.78.35L102,84a.92.92,0,0,0,.37-.63.56.56,0,0,0-.34-.48,1.47,1.47,0,0,0-.81-.17,4.8,4.8,0,0,0-1.09.2"/><path class="cls-15" d="M112.71,82.76V76.87h0c0-2.11-1.39-4.21-4.17-5.82-5.56-3.21-14.58-3.21-20.15,0-2.78,1.61-4.17,3.71-4.17,5.82h0v5.89c0,2.1,1.39,4.21,4.17,5.81A20.56,20.56,0,0,0,98.47,91c.45,0,.91,0,1.36,0a23.79,23.79,0,0,0,2.69-.3c.44-.07.88-.16,1.31-.26a17.47,17.47,0,0,0,4.71-1.81,8.81,8.81,0,0,0,3.58-3.47A5,5,0,0,0,112.71,82.76Z"/><ellipse class="cls-5" cx="98.47" cy="76.87" rx="14.25" ry="8.22"/><ellipse class="cls-14" cx="98.47" cy="82.19" rx="14.59" ry="8.83"/><path class="cls-1" d="M112.71,82.76V76.87h0c0-2.11-1.39-4.21-4.17-5.82-5.56-3.21-14.58-3.21-20.15,0-2.78,1.61-4.17,3.71-4.17,5.82h0v5.89c0,2.1,1.39,4.21,4.17,5.81A20.56,20.56,0,0,0,98.47,91c.45,0,.91,0,1.36,0a23.79,23.79,0,0,0,2.69-.3c.44-.07.88-.16,1.31-.26a17.47,17.47,0,0,0,4.71-1.81,8.81,8.81,0,0,0,3.58-3.47A5,5,0,0,0,112.71,82.76Z"/><rect class="cls-14" width="120" height="120"/><rect class="cls-14" width="120" height="120"/></g></g></svg>