<svg xmlns="http://www.w3.org/2000/svg" viewBox="0 0 120 120"><defs><style>.cls-1{fill:#d5dae0;}.cls-1,.cls-2{stroke:#b8bfca;}.cls-1,.cls-10,.cls-2,.cls-3,.cls-6,.cls-7,.cls-8,.cls-9{stroke-linecap:round;stroke-linejoin:round;stroke-width:2px;}.cls-2,.cls-6{fill:#fff;}.cls-10,.cls-11,.cls-3,.cls-8,.cls-9{fill:none;}.cls-3{stroke:#627386;}.cls-4{fill:#91d2fb;}.cls-5{fill:#bde4fd;}.cls-6,.cls-9{stroke:#91d2fb;}.cls-7{fill:#1b6dc6;}.cls-7,.cls-8{stroke:#1b6dc6;}.cls-10{stroke:#fff;}</style></defs><title>firewall</title><g id="Layer_2" data-name="Layer 2"><g id="Tech_Concepts" data-name="Tech Concepts"><polygon class="cls-1" points="99.47 76.6 81.75 86.83 81.75 76.76 99.47 66.53 99.47 76.6"/><polygon class="cls-2" points="72.89 81.71 81.75 86.83 81.75 76.76 72.89 71.65 72.89 81.71"/><polygon class="cls-2" points="99.47 66.53 90.61 61.41 72.89 71.65 81.75 76.76 99.47 66.53"/><polygon class="cls-3" points="90.61 61.41 72.89 71.65 72.89 81.71 81.75 86.83 99.47 76.6 99.47 66.53 90.61 61.41"/><polygon class="cls-1" points="81.75 86.83 64.02 97.07 64.02 87 81.75 76.76 81.75 86.83"/><polygon class="cls-2" points="55.16 91.95 64.02 97.07 64.02 87 55.16 81.88 55.16 91.95"/><polygon class="cls-2" points="81.75 76.76 72.89 71.65 55.16 81.88 64.02 87 81.75 76.76"/><polygon class="cls-3" points="72.89 71.65 55.16 81.88 55.16 91.95 64.02 97.07 81.75 86.83 81.75 76.76 72.89 71.65"/><polygon class="cls-1" points="64.02 97.07 46.3 107.3 46.3 97.23 64.02 87 64.02 97.07"/><polygon class="cls-2" points="37.43 102.18 46.3 107.3 46.3 97.23 37.43 92.11 37.43 102.18"/><polygon class="cls-2" points="64.02 87 55.16 81.88 37.43 92.11 46.3 97.23 64.02 87"/><polygon class="cls-3" points="55.16 81.88 37.43 92.11 37.43 102.18 46.3 107.3 64.02 97.07 64.02 87 55.16 81.88"/><polygon class="cls-1" points="46.3 107.3 28.57 117.53 28.57 107.47 46.3 97.23 46.3 107.3"/><polygon class="cls-2" points="19.7 112.42 28.57 117.53 28.57 107.47 19.7 102.35 19.7 112.42"/><polygon class="cls-2" points="46.3 97.23 37.43 92.11 19.7 102.35 28.57 107.47 46.3 97.23"/><polygon class="cls-3" points="37.43 92.11 19.7 102.35 19.7 112.42 28.57 117.53 46.3 107.3 46.3 97.23 37.43 92.11"/><polygon class="cls-1" points="90.61 71.65 72.89 81.88 72.89 71.81 90.61 61.58 90.61 71.65"/><polygon class="cls-2" points="64.02 76.76 72.89 81.88 72.89 71.81 64.02 66.69 64.02 76.76"/><polygon class="cls-2" points="90.61 61.58 81.75 56.46 64.02 66.69 72.89 71.81 90.61 61.58"/><polygon class="cls-3" points="81.75 56.46 64.02 66.69 64.02 76.76 72.89 81.88 90.61 71.65 90.61 61.58 81.75 56.46"/><polygon class="cls-1" points="72.89 81.88 55.16 92.11 55.16 82.05 72.89 71.81 72.89 81.88"/><polygon class="cls-2" points="46.3 87 55.16 92.11 55.16 82.05 46.3 76.93 46.3 87"/><polygon class="cls-2" points="72.89 71.81 64.02 66.69 46.3 76.93 55.16 82.05 72.89 71.81"/><polygon class="cls-3" points="64.02 66.69 46.3 76.93 46.3 87 55.16 92.11 72.89 81.88 72.89 71.81 64.02 66.69"/><polygon class="cls-1" points="55.16 92.11 37.43 102.35 37.43 92.28 55.16 82.05 55.16 92.11"/><polygon class="cls-2" points="28.57 97.23 37.43 102.35 37.43 92.28 28.57 87.16 28.57 97.23"/><polygon class="cls-2" points="55.16 82.05 46.3 76.93 28.57 87.16 37.43 92.28 55.16 82.05"/><polygon class="cls-3" points="46.3 76.93 28.57 87.16 28.57 97.23 37.43 102.35 55.16 92.11 55.16 82.05 46.3 76.93"/><polygon class="cls-1" points="99.47 56.46 81.75 66.69 81.75 56.63 99.47 46.39 99.47 56.46"/><polygon class="cls-2" points="72.89 61.58 81.75 66.69 81.75 56.63 72.89 51.51 72.89 61.58"/><polygon class="cls-2" points="99.47 46.39 90.61 41.27 72.89 51.51 81.75 56.63 99.47 46.39"/><polygon class="cls-3" points="90.61 41.27 72.89 51.51 72.89 61.58 81.75 66.69 99.47 56.46 99.47 46.39 90.61 41.27"/><polygon class="cls-1" points="81.75 66.69 64.02 76.93 64.02 66.86 81.75 56.63 81.75 66.69"/><polygon class="cls-2" points="55.16 71.81 64.02 76.93 64.02 66.86 55.16 61.74 55.16 71.81"/><polygon class="cls-2" points="81.75 56.63 72.89 51.51 55.16 61.74 64.02 66.86 81.75 56.63"/><polygon class="cls-3" points="72.89 51.51 55.16 61.74 55.16 71.81 64.02 76.93 81.75 66.69 81.75 56.63 72.89 51.51"/><polygon class="cls-1" points="64.02 76.93 46.3 87.16 46.3 77.09 64.02 66.86 64.02 76.93"/><polygon class="cls-2" points="37.43 82.05 46.3 87.16 46.3 77.09 37.43 71.98 37.43 82.05"/><polygon class="cls-2" points="64.02 66.86 55.16 61.74 37.43 71.98 46.3 77.09 64.02 66.86"/><polygon class="cls-3" points="55.16 61.74 37.43 71.98 37.43 82.05 46.3 87.16 64.02 76.93 64.02 66.86 55.16 61.74"/><polygon class="cls-1" points="46.3 87.16 28.57 97.4 28.57 87.33 46.3 77.09 46.3 87.16"/><polygon class="cls-2" points="19.7 92.28 28.57 97.4 28.57 87.33 19.7 82.21 19.7 92.28"/><polygon class="cls-2" points="46.3 77.09 37.43 71.98 19.7 82.21 28.57 87.33 46.3 77.09"/><polygon class="cls-3" points="37.43 71.98 19.7 82.21 19.7 92.28 28.57 97.4 46.3 87.16 46.3 77.09 37.43 71.98"/><polygon class="cls-1" points="90.61 51.51 72.89 61.74 72.89 51.67 90.61 41.44 90.61 51.51"/><polygon class="cls-2" points="64.02 56.63 72.89 61.74 72.89 51.67 64.02 46.56 64.02 56.63"/><polygon class="cls-2" points="90.61 41.44 81.75 36.32 64.02 46.56 72.89 51.67 90.61 41.44"/><polygon class="cls-3" points="81.75 36.32 64.02 46.56 64.02 56.63 72.89 61.74 90.61 51.51 90.61 41.44 81.75 36.32"/><polygon class="cls-1" points="72.89 61.74 55.16 71.98 55.16 61.91 72.89 51.67 72.89 61.74"/><polygon class="cls-2" points="46.3 66.86 55.16 71.98 55.16 61.91 46.3 56.79 46.3 66.86"/><polygon class="cls-2" points="72.89 51.67 64.02 46.56 46.3 56.79 55.16 61.91 72.89 51.67"/><polygon class="cls-3" points="64.02 46.56 46.3 56.79 46.3 66.86 55.16 71.98 72.89 61.74 72.89 51.67 64.02 46.56"/><polygon class="cls-1" points="55.16 71.98 37.43 82.21 37.43 72.14 55.16 61.91 55.16 71.98"/><polygon class="cls-2" points="28.57 77.09 37.43 82.21 37.43 72.14 28.57 67.03 28.57 77.09"/><polygon class="cls-2" points="55.16 61.91 46.3 56.79 28.57 67.03 37.43 72.14 55.16 61.91"/><polygon class="cls-3" points="46.3 56.79 28.57 67.03 28.57 77.09 37.43 82.21 55.16 71.98 55.16 61.91 46.3 56.79"/><polygon class="cls-1" points="99.47 36.32 81.75 46.56 81.75 36.49 99.47 26.25 99.47 36.32"/><polygon class="cls-2" points="72.89 41.44 81.75 46.56 81.75 36.49 72.89 31.37 72.89 41.44"/><polygon class="cls-2" points="99.47 26.25 90.61 21.14 72.89 31.37 81.75 36.49 99.47 26.25"/><polygon class="cls-3" points="90.61 21.14 72.89 31.37 72.89 41.44 81.75 46.56 99.47 36.32 99.47 26.25 90.61 21.14"/><polygon class="cls-1" points="81.75 46.56 64.02 56.79 64.02 46.72 81.75 36.49 81.75 46.56"/><polygon class="cls-2" points="55.16 51.67 64.02 56.79 64.02 46.72 55.16 41.61 55.16 51.67"/><polygon class="cls-2" points="81.75 36.49 72.89 31.37 55.16 41.61 64.02 46.72 81.75 36.49"/><polygon class="cls-3" points="72.89 31.37 55.16 41.61 55.16 51.67 64.02 56.79 81.75 46.56 81.75 36.49 72.89 31.37"/><polygon class="cls-1" points="64.02 56.79 46.3 67.03 46.3 56.96 64.02 46.72 64.02 56.79"/><polygon class="cls-2" points="37.43 61.91 46.3 67.03 46.3 56.96 37.43 51.84 37.43 61.91"/><polygon class="cls-2" points="64.02 46.72 55.16 41.61 37.43 51.84 46.3 56.96 64.02 46.72"/><polygon class="cls-3" points="55.16 41.61 37.43 51.84 37.43 61.91 46.3 67.03 64.02 56.79 64.02 46.72 55.16 41.61"/><polygon class="cls-1" points="46.3 67.03 28.57 77.26 28.57 67.19 46.3 56.96 46.3 67.03"/><polygon class="cls-2" points="19.7 72.14 28.57 77.26 28.57 67.19 19.7 62.08 19.7 72.14"/><polygon class="cls-2" points="46.3 56.96 37.43 51.84 19.7 62.08 28.57 67.19 46.3 56.96"/><polygon class="cls-3" points="37.43 51.84 19.7 62.08 19.7 72.14 28.57 77.26 46.3 67.03 46.3 56.96 37.43 51.84"/><polygon class="cls-1" points="90.61 31.37 72.89 41.61 72.89 31.54 90.61 21.3 90.61 31.37"/><polygon class="cls-2" points="64.02 36.49 72.89 41.61 72.89 31.54 64.02 26.42 64.02 36.49"/><polygon class="cls-2" points="90.61 21.3 81.75 16.19 64.02 26.42 72.89 31.54 90.61 21.3"/><polygon class="cls-3" points="81.75 16.19 64.02 26.42 64.02 36.49 72.89 41.61 90.61 31.37 90.61 21.3 81.75 16.19"/><polygon class="cls-1" points="72.89 41.61 55.16 51.84 55.16 41.77 72.89 31.54 72.89 41.61"/><polygon class="cls-2" points="46.3 46.72 55.16 51.84 55.16 41.77 46.3 36.66 46.3 46.72"/><polygon class="cls-2" points="72.89 31.54 64.02 26.42 46.3 36.66 55.16 41.77 72.89 31.54"/><polygon class="cls-3" points="64.02 26.42 46.3 36.66 46.3 46.72 55.16 51.84 72.89 41.61 72.89 31.54 64.02 26.42"/><polygon class="cls-1" points="55.16 51.84 37.43 62.08 37.43 52.01 55.16 41.77 55.16 51.84"/><polygon class="cls-2" points="28.57 56.96 37.43 62.08 37.43 52.01 28.57 46.89 28.57 56.96"/><polygon class="cls-2" points="55.16 41.77 46.3 36.66 28.57 46.89 37.43 52.01 55.16 41.77"/><polygon class="cls-3" points="46.3 36.66 28.57 46.89 28.57 56.96 37.43 62.08 55.16 51.84 55.16 41.77 46.3 36.66"/><polygon class="cls-1" points="99.47 16.19 81.75 26.42 81.75 16.35 99.47 6.12 99.47 16.19"/><polygon class="cls-2" points="72.89 21.3 81.75 26.42 81.75 16.35 72.89 11.23 72.89 21.3"/><polygon class="cls-2" points="99.47 6.12 90.61 1 72.89 11.23 81.75 16.35 99.47 6.12"/><polygon class="cls-3" points="90.61 1 72.89 11.23 72.89 21.3 81.75 26.42 99.47 16.19 99.47 6.12 90.61 1"/><polygon class="cls-1" points="81.75 26.42 64.02 36.66 64.02 26.59 81.75 16.35 81.75 26.42"/><polygon class="cls-2" points="55.16 31.54 64.02 36.66 64.02 26.59 55.16 21.47 55.16 31.54"/><polygon class="cls-2" points="81.75 16.35 72.89 11.23 55.16 21.47 64.02 26.59 81.75 16.35"/><polygon class="cls-3" points="72.89 11.23 55.16 21.47 55.16 31.54 64.02 36.66 81.75 26.42 81.75 16.35 72.89 11.23"/><polygon class="cls-1" points="64.02 36.66 46.3 46.89 46.3 36.82 64.02 26.59 64.02 36.66"/><polygon class="cls-2" points="37.43 41.77 46.3 46.89 46.3 36.82 37.43 31.7 37.43 41.77"/><polygon class="cls-2" points="64.02 26.59 55.16 21.47 37.43 31.7 46.3 36.82 64.02 26.59"/><polygon class="cls-3" points="55.16 21.47 37.43 31.7 37.43 41.77 46.3 46.89 64.02 36.66 64.02 26.59 55.16 21.47"/><polygon class="cls-1" points="46.3 46.89 28.57 57.12 28.57 47.05 46.3 36.82 46.3 46.89"/><polygon class="cls-2" points="19.7 52.01 28.57 57.12 28.57 47.05 19.7 41.94 19.7 52.01"/><polygon class="cls-2" points="46.3 36.82 37.43 31.7 19.7 41.94 28.57 47.05 46.3 36.82"/><polygon class="cls-3" points="37.43 31.7 19.7 41.94 19.7 52.01 28.57 57.12 46.3 46.89 46.3 36.82 37.43 31.7"/><path class="cls-4" d="M57.6,78.32v34A3.22,3.22,0,0,0,59.48,115l5.09,2.93a10,10,0,0,0,9.08,0l24.76-14.29A3.2,3.2,0,0,0,100.3,101V67Z"/><path class="cls-5" d="M69,75.28l-11.43,3v34A3.22,3.22,0,0,0,59.48,115l5.09,2.93A9.23,9.23,0,0,0,69,119Z"/><path class="cls-6" d="M98.41,69.58,73.65,83.88a10,10,0,0,1-9.08,0l-5.09-2.94c-2.51-1.45-2.51-3.79,0-5.24L84.24,61.4a10,10,0,0,1,9.08,0l5.09,2.94C100.92,65.79,100.92,68.14,98.41,69.58Z"/><path class="cls-7" d="M89,87.75c0-2.37-1.45-3.47-3.23-2.44a7.73,7.73,0,0,0-3.22,6.17c0,1.56.62,2.57,1.56,2.78l-.66,8.3,4.64-2.68-.66-7.54A8.19,8.19,0,0,0,89,87.75Z"/><path class="cls-8" d="M98.41,64.34,93.32,61.4a10,10,0,0,0-9.08,0L59.48,75.7a3.19,3.19,0,0,0-1.88,2.62v34A3.22,3.22,0,0,0,59.48,115l5.09,2.93a10,10,0,0,0,9.08,0l24.76-14.29A3.2,3.2,0,0,0,100.3,101V67A3.2,3.2,0,0,0,98.41,64.34Z"/><path class="cls-5" d="M87.9,39.42c-3.31-1.91-7.45-1.72-11.35.53-7,4-12.42,14.26-12.42,23.3V78h0c0,1.53,2.15,2.77,4.79,2.77s4.8-1.24,4.8-2.77h0V63.25c0-5.64,3.56-12.65,7.62-15,1-.58,1.64-.61,1.77-.53.35.2,1.06,1.43,1.06,4V66.44h0c0,1.52,2.15,2.76,4.8,2.76s4.79-1.24,4.79-2.76h0V51.68C93.76,46,91.63,41.57,87.9,39.42Z"/><path class="cls-9" d="M74.88,52.48a22.53,22.53,0,0,0-3.11,10.77V77.87"/><path class="cls-9" d="M78.65,47.72a18.79,18.79,0,0,0-3.77,4.76"/><line class="cls-10" x1="86.12" y1="66.3" x2="86.12" y2="51.68"/><path class="cls-9" d="M91.59,48.78a17.85,17.85,0,0,1,.23,2.9V66.3"/><path class="cls-10" d="M70.76,48.5a20.94,20.94,0,0,1,6.66-6.69l.43-.23"/><path class="cls-10" d="M66.08,77.87V63.25A28.2,28.2,0,0,1,70.76,48.5"/><path class="cls-8" d="M87.9,39.42c-3.31-1.91-7.45-1.72-11.35.53-7,4-12.42,14.26-12.42,23.3V78h0c0,1.53,2.15,2.77,4.79,2.77s4.8-1.24,4.8-2.77h0V63.25c0-5.64,3.56-12.65,7.62-15,1-.58,1.64-.61,1.77-.53.35.2,1.06,1.43,1.06,4V66.44h0c0,1.52,2.15,2.76,4.8,2.76s4.79-1.24,4.79-2.76h0V51.68C93.76,46,91.63,41.57,87.9,39.42Z"/><rect class="cls-11" width="120" height="120"/><rect class="cls-11" width="120" height="120"/></g></g></svg>