<svg xmlns="http://www.w3.org/2000/svg" viewBox="0 0 120 120"><defs><style>.cls-1{fill:#bde4fd;}.cls-2{fill:#91d2fb;}.cls-2,.cls-5,.cls-7{stroke:#91d2fb;}.cls-2,.cls-4,.cls-5,.cls-6,.cls-7,.cls-8,.cls-9{stroke-linecap:round;stroke-linejoin:round;stroke-width:2px;}.cls-3{fill:#d5dae0;}.cls-4{fill:#b8bfca;}.cls-4,.cls-6{stroke:#b8bfca;}.cls-10,.cls-5,.cls-8,.cls-9{fill:none;}.cls-6,.cls-7{fill:#fff;}.cls-8{stroke:#627386;}.cls-9{stroke:#1b6dc6;}</style></defs><title>footprint</title><g id="Layer_2" data-name="Layer 2"><g id="Objects"><path class="cls-1" d="M30.9,83.39l19.82-8a3,3,0,0,1,2.39.1,26,26,0,0,0,8.38,3.11C80.6,82,103.22,101.8,91.28,107.4c-16.5,7.73-46.5-2.71-58-19.1a29.61,29.61,0,0,0-2.92-3.48C29.87,84.33,30.1,83.72,30.9,83.39Z"/><path class="cls-2" d="M52.26,75.23a3.06,3.06,0,0,0-1.54.15l-19.82,8c-.8.33-1,.94-.56,1.43a29.61,29.61,0,0,1,2.92,3.48c4.31,6.13,11.2,11.43,19,15.25Z"/><path class="cls-1" d="M24.18,77.73a2.87,2.87,0,0,1-2.63-.27c-9.85-8-19.73-14.74-6.33-19.67C28,53.1,35.08,61.3,43.49,68.62c.57.5.36,1.16-.48,1.5Z"/><path class="cls-2" d="M23.65,56.46a20.12,20.12,0,0,0-8.43,1.33c-11.58,4.26-5.78,9.86,2.37,16.47h6.06Z"/><path class="cls-3" d="M65.21,22.81,51.34,34.26c-.52.42-.46,1,.17,1.38,2.5,1.46,4.42,3,5.38,4.84,5.87,11,40.2,24.09,49.9,17.19,13.4-9.52-4.69-26.84-33.07-33.49-2-.48-4.06-1.05-6-1.69A2.87,2.87,0,0,0,65.21,22.81Z"/><path class="cls-4" d="M66.43,22.38a2.28,2.28,0,0,0-1.22.43L51.34,34.26c-.52.42-.46,1,.17,1.38,2.5,1.46,4.42,3,5.38,4.84,1.54,2.89,5,5.92,9.54,8.7Z"/><path class="cls-3" d="M55.4,18.93c.6-.49.39-1.16-.46-1.51C41.05,11.73,29.4,6,20.87,13.76c-8.13,7.37,6.07,11.47,18.76,16.32a2.83,2.83,0,0,0,2.59-.28Z"/><path class="cls-4" d="M31.54,10a14.46,14.46,0,0,0-10.67,3.75c-6.39,5.8,1,9.57,10.67,13.28Z"/><path class="cls-5" d="M65.21,22.81,51.34,34.26c-.52.42-.46,1,.17,1.38,2.5,1.46,4.42,3,5.38,4.84,5.87,11,40.2,24.09,49.9,17.19,13.4-9.52-4.69-26.84-33.07-33.49-2-.48-4.06-1.05-6-1.69A2.87,2.87,0,0,0,65.21,22.81Z"/><path class="cls-5" d="M55.4,18.93c.6-.49.39-1.16-.46-1.51C41.05,11.73,29.4,6,20.87,13.76c-8.13,7.37,6.07,11.47,18.76,16.32a2.83,2.83,0,0,0,2.59-.28Z"/><path class="cls-5" d="M30.9,83.39l19.82-8a3,3,0,0,1,2.39.1,26,26,0,0,0,8.38,3.11C80.6,82,103.22,101.8,91.28,107.4c-16.5,7.73-46.5-2.71-58-19.1a29.61,29.61,0,0,0-2.92-3.48C29.87,84.33,30.1,83.72,30.9,83.39Z"/><path class="cls-5" d="M24.18,77.73a2.87,2.87,0,0,1-2.63-.27c-9.85-8-19.73-14.74-6.33-19.67C28,53.1,35.08,61.3,43.49,68.62c.57.5.36,1.16-.48,1.5Z"/><path class="cls-6" d="M56.89,40.48c5.87,11,40.2,24.09,49.9,17.19a10.91,10.91,0,0,0,3.76-4.29c-3.33-8.5-17.75-17.8-36.83-22.27-2-.48-4.06-1.05-6-1.69a2.87,2.87,0,0,0-2.48.33L55,38.16A8.89,8.89,0,0,1,56.89,40.48Z"/><path class="cls-3" d="M103.83,59a1.15,1.15,0,0,0,.74-1.58L103,53.92c-3.29-7.39-16.51-15.11-32.15-18.77l-1.73-.43a1.16,1.16,0,0,0-1,.23l-7,5.77a1.14,1.14,0,0,0,0,1.74,13.14,13.14,0,0,1,3,3.67,12.79,12.79,0,0,0,2.81,3.31,1,1,0,0,0,.2.15C78.33,56.3,95.19,61.35,103.83,59Z"/><path class="cls-6" d="M20.87,20.69c-.21.19-.4.38-.59.57,3.54,3.25,11.71,5.9,19.35,8.82a2.83,2.83,0,0,0,2.59-.28l8.65-7.13C38.77,17.66,28.55,13.72,20.87,20.69Z"/><path class="cls-3" d="M28.76,21.9A9.17,9.17,0,0,0,27.24,23c-.15.14-.29.27-.41.4a1.14,1.14,0,0,0,.37,1.84c3.7,1.62,8.15,3.18,12.43,4.81a3,3,0,0,0,1.24.17l3.64-3a1.16,1.16,0,0,0-.32-2C35.4,21.74,31.11,20.54,28.76,21.9Z"/><path class="cls-7" d="M15.22,64.72a15.32,15.32,0,0,0-4.92,2.67c2.31,3.06,6.78,6.43,11.25,10.07a2.86,2.86,0,0,0,2.63.27l15-6C32.41,65.74,25.74,60.86,15.22,64.72Z"/><path class="cls-1" d="M19.27,68.4a13.42,13.42,0,0,0-2,.88C15,70.61,17,73,22.83,77.91a2.92,2.92,0,0,0,1.35-.18l8.76-3.54C24.94,67.22,22.91,67.07,19.27,68.4Z"/><path class="cls-7" d="M91.28,107.4a6.56,6.56,0,0,0,2.19-1.61c-4.12-7.89-18.87-18-32-20.27a26,26,0,0,1-8.38-3.11,3,3,0,0,0-2.39-.1L33.87,89.12C45.8,105,75.06,115,91.28,107.4Z"/><path class="cls-1" d="M87,108.93a5.74,5.74,0,0,0-.4-1.22c-3-6.94-17-16.2-27.28-18a34.35,34.35,0,0,1-7-2,2.3,2.3,0,0,0-1.73,0l-9.86,4a1.15,1.15,0,0,0-.46,1.8,69.8,69.8,0,0,0,6.56,7C59.15,108.16,75.23,112,87,108.93Z"/><path class="cls-8" d="M109.91,54.53l0,0a9.54,9.54,0,0,0,.62-1.12h0c4.49-9.76-12.32-23.46-36.83-29.2-2-.48-4.06-1.05-6-1.69a3.22,3.22,0,0,0-1.92,0h0a2.14,2.14,0,0,0-.54.29L54.81,31.4l-3.47,2.86a.88.88,0,0,0-.28.34A.7.7,0,0,0,51,35a.94.94,0,0,0,.52.67,23.52,23.52,0,0,1,2.55,1.7c.25.2.49.39.72.59l.23.23h0a7.3,7.3,0,0,1,.56.55l0,0c.17.17.32.35.47.53l.12.16c.11.14.22.28.32.43s.26.41.38.62a11.34,11.34,0,0,0,.65,1.07c.06.09.14.18.21.27.19.27.39.54.62.81l.23.27c.25.28.49.55.76.83l.22.22.93.89.18.15c.36.32.73.64,1.12.95l.12.09c.42.34.86.68,1.32,1l0,0c12.07,8.8,35.71,16.13,43.5,10.59h0a13.68,13.68,0,0,0,1.22-1l.17-.16c.31-.29.61-.59.88-.89l.08-.1A9.88,9.88,0,0,0,109.91,54.53Z"/><path class="cls-8" d="M19.54,15.2c-.11.14-.21.29-.31.43s-.07.11-.1.16-.21.38-.3.57a.49.49,0,0,1,0,.11,4,4,0,0,0-.16.45c0,.06,0,.12-.05.18a2.5,2.5,0,0,0-.06.38,1.1,1.1,0,0,0,0,.18c0,.14,0,.28,0,.41a.49.49,0,0,0,0,.12,3,3,0,0,0,.08.51.88.88,0,0,0,.05.15,2.53,2.53,0,0,0,.12.36l.08.18a2.68,2.68,0,0,0,.18.33l.09.17.29.42.06.07a5.46,5.46,0,0,0,.39.45L20,21c.1.1.2.2.32.3l.19.18.37.3.19.16.6.42.18.13.49.31.28.18.44.26.31.18.51.27.28.15.77.4.35.16.52.25.4.18.51.24.41.18.6.26.58.24L29,26l.49.2.52.21.49.19.54.21.49.19.05,0h0c1.75.67,3.57,1.35,5.4,2l.89.33.44.17,1.36.51a2.77,2.77,0,0,0,1,.17,2.48,2.48,0,0,0,1.55-.45L55.4,18.93c.6-.49.39-1.16-.46-1.51C46.17,13.83,38.3,10.23,31.54,10h0c-.47,0-.93,0-1.39,0H30c-.46,0-.93.06-1.38.11h0a12.74,12.74,0,0,0-1.26.22l-.19,0c-.43.1-.85.22-1.27.36h-.05c-.38.13-.76.29-1.14.45l-.25.12a11.46,11.46,0,0,0-1.15.6l-.06,0c-.35.21-.7.44-1,.69a2.83,2.83,0,0,0-.28.2c-.36.27-.71.56-1.06.87h0c-.23.21-.44.42-.64.62a1.46,1.46,0,0,0-.16.19c-.14.14-.26.29-.38.43Z"/><path class="cls-9" d="M61.49,78.59a26,26,0,0,1-8.38-3.11,2.86,2.86,0,0,0-1.59-.27h-.07a2.78,2.78,0,0,0-.73.17h0l-19.82,8a1.27,1.27,0,0,0-.75.65.65.65,0,0,0,.05.59,1.33,1.33,0,0,0,.14.19c.55.57,1.07,1.15,1.56,1.73s1,1.16,1.36,1.75h0c.48.68,1,1.34,1.54,2l.42.5c.55.65,1.11,1.29,1.72,1.91v0c.62.63,1.27,1.25,1.93,1.85.16.15.32.3.49.44.67.6,1.36,1.19,2.07,1.75h0c.73.58,1.49,1.14,2.26,1.69l.53.37c1,.7,2,1.38,3.12,2l0,0,1.73,1,.56.3c.45.25.91.49,1.37.73l.1.06c.37.19.73.38,1.11.56h0l.69.33.16.07q.89.42,1.77.81l.23.1,1.74.73.29.11,1.7.65.36.12q.82.3,1.65.57l.43.14,1.6.49.5.14c.51.14,1,.29,1.54.42l.56.14c.49.12,1,.24,1.48.34l.63.13,1.41.29.69.11c.45.08.89.16,1.34.22l.76.1,1.26.16.81.07c.4,0,.79.08,1.19.1l.85,0L77,110h.89c.35,0,.71,0,1,0l.93,0c.33,0,.66,0,1,0l1-.08.92-.09,1-.14.86-.13,1-.2c.26-.06.53-.1.79-.17s.67-.18,1-.27l.7-.19c.38-.12.74-.25,1.11-.38l.53-.18c.54-.21,1.06-.43,1.58-.67a9.32,9.32,0,0,0,.84-.47l.33-.22.29-.22C101,99.92,79.68,81.81,61.49,78.59Z"/><path class="cls-9" d="M43,70.12c.84-.34,1.05-1,.48-1.49-6.36-5.55-12-11.58-19.84-12.17h0a17.82,17.82,0,0,0-1.94,0h0l-1,.07h-.06l-1,.12-.16,0c-.3,0-.6.09-.9.16l-.3.07-.79.18-.55.16c-.2.06-.38.1-.58.17l-1.16.39c-.4.15-.77.29-1.12.44l-.32.14-.68.31-.34.17c-.19.1-.38.19-.55.29l-.32.18-.47.29-.28.19-.42.3-.22.18c-.15.12-.28.25-.41.37l-.12.11a6.28,6.28,0,0,0-.43.49l-.11.16a3.37,3.37,0,0,0-.22.35L9.1,62c0,.11-.1.21-.14.31s-.05.15-.08.22-.06.21-.08.31,0,.15-.05.22l0,.32c0,.07,0,.14,0,.22s0,.23,0,.35a1.28,1.28,0,0,0,0,.19,4.52,4.52,0,0,0,.11.53c0,.06,0,.12.05.18s.08.25.13.38l.1.24c0,.11.09.22.15.33l.13.26.18.31c.05.09.11.18.17.27a2.92,2.92,0,0,0,.21.32l.18.27.25.33.21.26.33.4.34.39q.17.2.36.39l.29.3.3.31.32.32.32.3.35.33.32.3.37.34.32.28.41.36.26.22c.58.5,1.18,1,1.8,1.52l.16.13.64.52.09.07h0l2.48,2,1.38,1.12.1.08a1.62,1.62,0,0,0,.55.3,3,3,0,0,0,2.08,0l5.17-2.09Z"/><rect class="cls-10" width="120" height="120"/><rect class="cls-10" width="120" height="120"/></g></g></svg>