<svg xmlns="http://www.w3.org/2000/svg" viewBox="0 0 120 120"><defs><style>.cls-1,.cls-11{fill:#fff;}.cls-1,.cls-10,.cls-2,.cls-6{stroke:#b8bfca;}.cls-1,.cls-10,.cls-11,.cls-2,.cls-4,.cls-5,.cls-6,.cls-7,.cls-9{stroke-linecap:round;stroke-linejoin:round;}.cls-1,.cls-11,.cls-2,.cls-4,.cls-5,.cls-6,.cls-7,.cls-9{stroke-width:2px;}.cls-2,.cls-5,.cls-9{fill:#d5dae0;}.cls-3{fill:#627386;}.cls-12,.cls-4{fill:none;}.cls-4{stroke:#627386;}.cls-11,.cls-5,.cls-7{stroke:#d5dae0;}.cls-10,.cls-6,.cls-7,.cls-8{fill:#b8bfca;}.cls-9{stroke:#fff;}</style></defs><title>hotels-&amp;amp;-motels</title><g id="Layer_2" data-name="Layer 2"><g id="Industries"><polygon class="cls-1" points="111.16 28.03 44.45 66.54 12.89 48.32 79.6 9.81 111.16 28.03"/><polygon class="cls-2" points="111.16 28.03 44.45 66.54 44.45 119 111.16 80.49 111.16 28.03"/><polygon class="cls-3" points="70.93 103.71 84.68 95.77 84.68 79.05 70.93 86.99 70.93 103.71"/><polygon class="cls-1" points="12.89 48.32 44.45 66.54 44.45 119 12.89 100.78 12.89 48.32"/><polygon class="cls-4" points="44.45 66.54 12.89 48.32 12.89 100.78 44.45 119 111.16 80.49 111.16 28.03 44.45 66.54"/><polygon class="cls-3" points="54.45 77.84 50.77 79.96 50.77 73.19 54.45 71.06 54.45 77.84"/><polygon class="cls-1" points="8.65 48.32 79.6 7.36 115.4 28.03 44.45 68.99 8.65 48.32"/><polygon class="cls-3" points="115.4 21.67 115.4 28.03 44.45 68.99 44.45 62.63 115.4 21.67"/><polygon class="cls-5" points="8.65 41.96 79.6 1 115.4 21.67 44.45 62.63 8.65 41.96"/><polygon class="cls-5" points="38.91 59.43 109.85 18.47 115.4 21.67 44.45 62.63 38.91 59.43"/><polygon class="cls-6" points="25.62 41.96 79.6 10.79 98.44 21.67 44.45 52.84 25.62 41.96"/><polygon class="cls-7" points="8.65 41.96 8.65 48.32 44.45 68.99 44.45 62.63 8.65 41.96"/><polygon class="cls-4" points="79.6 1 8.65 41.96 8.65 48.32 44.45 68.99 115.4 28.03 115.4 21.67 79.6 1"/><polygon class="cls-3" points="64.53 72.02 60.85 74.14 60.85 67.37 64.53 65.25 64.53 72.02"/><polygon class="cls-3" points="74.6 66.2 70.93 68.32 70.93 61.55 74.6 59.43 74.6 66.2"/><polygon class="cls-3" points="84.68 60.38 81.01 62.51 81.01 55.73 84.68 53.61 84.68 60.38"/><polygon class="cls-3" points="94.76 54.56 91.08 56.69 91.08 49.91 94.76 47.79 94.76 54.56"/><polygon class="cls-3" points="104.84 48.75 101.16 50.87 101.16 44.09 104.84 41.97 104.84 48.75"/><polygon class="cls-3" points="54.45 90.56 50.77 92.68 50.77 85.91 54.45 83.78 54.45 90.56"/><polygon class="cls-3" points="64.53 84.74 60.85 86.86 60.85 80.09 64.53 77.97 64.53 84.74"/><polygon class="cls-3" points="74.6 78.92 70.93 81.05 70.93 74.27 74.6 72.15 74.6 78.92"/><polygon class="cls-3" points="84.68 73.11 81.01 75.23 81.01 68.45 84.68 66.33 84.68 73.11"/><polygon class="cls-3" points="94.76 67.29 91.08 69.41 91.08 62.63 94.76 60.51 94.76 67.29"/><polygon class="cls-3" points="104.84 61.47 101.16 63.59 101.16 56.81 104.84 54.69 104.84 61.47"/><polygon class="cls-3" points="54.45 103.28 50.77 105.4 50.77 98.63 54.45 96.51 54.45 103.28"/><polygon class="cls-3" points="64.53 97.46 60.85 99.58 60.85 92.81 64.53 90.69 64.53 97.46"/><polygon class="cls-3" points="94.76 80.01 91.08 82.13 91.08 75.36 94.76 73.23 94.76 80.01"/><polygon class="cls-3" points="104.84 74.19 101.16 76.31 101.16 69.54 104.84 67.41 104.84 74.19"/><polygon class="cls-1" points="92.29 83.44 84.68 79.05 70.93 86.99 78.53 91.38 92.29 83.44"/><polygon class="cls-2" points="78.53 108.1 70.93 103.71 70.93 86.99 78.53 91.38 78.53 108.1"/><polygon class="cls-6" points="78.53 108.1 92.29 100.16 92.29 83.44 78.53 91.38 78.53 108.1"/><polygon class="cls-4" points="84.68 79.05 70.93 86.99 70.93 103.71 78.53 108.1 92.29 100.16 92.29 83.44 84.68 79.05"/><line class="cls-4" x1="85.41" y1="94.41" x2="85.41" y2="104.26"/><polygon class="cls-8" points="33.06 77.84 36.74 79.96 36.74 73.19 33.06 71.06 33.06 77.84"/><polygon class="cls-8" points="22.98 72.02 26.66 74.14 26.66 67.37 22.98 65.25 22.98 72.02"/><polygon class="cls-8" points="33.06 90.56 36.74 92.68 36.74 85.91 33.06 83.78 33.06 90.56"/><polygon class="cls-8" points="22.98 84.74 26.66 86.86 26.66 80.09 22.98 77.97 22.98 84.74"/><polygon class="cls-8" points="33.06 103.28 36.74 105.4 36.74 98.63 33.06 96.51 33.06 103.28"/><polygon class="cls-8" points="22.98 97.46 26.66 99.58 26.66 92.81 22.98 90.69 22.98 97.46"/><line class="cls-4" x1="16.57" y1="68.84" x2="19.93" y2="66.9"/><line class="cls-4" x1="16.57" y1="96.29" x2="19.93" y2="94.35"/><path class="cls-6" d="M16.57,63.56,12.66,61.3h0a.75.75,0,0,0-.77.06L5.78,64.89A2.84,2.84,0,0,0,4.6,67.14v35.75a1,1,0,0,0,.41.94H5l3.91,2.26.34-3.35,3.48-2a2.81,2.81,0,0,0,1.18-2.25V73.65Z"/><path class="cls-9" d="M15.8,102.51,9.69,106c-.65.38-1.18,0-1.18-.89V69.4a2.83,2.83,0,0,1,1.18-2.25l6.11-3.53c.65-.37,1.17,0,1.17.89v35.75A2.83,2.83,0,0,1,15.8,102.51Z"/><path class="cls-4" d="M16.56,63.57h0L12.66,61.3h0a.75.75,0,0,0-.77.06L5.78,64.89A2.84,2.84,0,0,0,4.6,67.14v35.75a1,1,0,0,0,.41.94H5l3.91,2.26h0a.75.75,0,0,0,.77-.06l6.11-3.52A2.83,2.83,0,0,0,17,100.26V64.51A1,1,0,0,0,16.56,63.57Z"/><polygon class="cls-10" points="103.47 13.24 57.69 39.67 57.69 55.46 103.47 29.03 103.47 13.24"/><polygon class="cls-11" points="52.14 36.47 97.92 10.04 103.47 13.24 57.69 39.67 52.14 36.47"/><polygon class="cls-5" points="52.14 36.47 57.69 39.67 57.69 55.46 52.14 52.26 52.14 36.47"/><polygon class="cls-4" points="97.92 10.04 52.14 36.47 52.14 52.26 57.69 55.46 103.47 29.03 103.47 13.24 97.92 10.04"/><line class="cls-4" x1="66.08" y1="42.72" x2="95.08" y2="25.98"/><rect class="cls-12" width="120" height="120"/><rect class="cls-12" width="120" height="120"/></g></g></svg>