<svg xmlns="http://www.w3.org/2000/svg" viewBox="0 0 120 120"><defs><style>.cls-1,.cls-11,.cls-12,.cls-13,.cls-2,.cls-3,.cls-9{fill:none;}.cls-1,.cls-2,.cls-3{stroke:#627386;}.cls-1,.cls-11,.cls-12,.cls-2,.cls-3,.cls-5,.cls-6,.cls-8,.cls-9{stroke-linecap:round;stroke-linejoin:round;stroke-width:2px;}.cls-2{stroke-dasharray:0 5.98;}.cls-3{stroke-dasharray:0 5.93;}.cls-4,.cls-6,.cls-8{fill:#fff;}.cls-5{fill:#d5dae0;}.cls-5,.cls-6{stroke:#b8bfca;}.cls-7{fill:#b8bfca;}.cls-8{stroke:#91d2fb;}.cls-11,.cls-12,.cls-9{stroke:#1b6dc6;}.cls-10{fill:#91d2fb;}.cls-11{stroke-dasharray:0 5.91;}.cls-12{stroke-dasharray:0 6.18;}</style></defs><title>infrastructure-choice</title><g id="Layer_2" data-name="Layer 2"><g id="Tech_Concepts" data-name="Tech Concepts"><line class="cls-1" x1="16.52" y1="49.17" x2="16.52" y2="49.17"/><polyline class="cls-2" points="11.35 52.16 8.76 53.65 3.59 56.64"/><line class="cls-1" x1="1" y1="58.13" x2="1" y2="58.13"/><line class="cls-3" x1="6.13" y1="61.1" x2="29.23" y2="74.43"/><line class="cls-1" x1="31.8" y1="75.91" x2="31.8" y2="75.91"/><path class="cls-4" d="M62.78,38.85l-11.6-6.7a5.76,5.76,0,0,0-5.18,0l-11.6,6.7H16.52v11.2a1.81,1.81,0,0,0,1.08,1.49L46,67.94a5.76,5.76,0,0,0,5.18,0l28.4-16.4a1.82,1.82,0,0,0,1.07-1.49V38.85Z"/><line class="cls-5" x1="36" y1="56.99" x2="27.6" y2="52.14"/><path class="cls-6" d="M79.58,37.36,51.18,21A5.7,5.7,0,0,0,46,21L17.6,37.36c-1.43.82-1.43,2.16,0,3L46,56.74a5.7,5.7,0,0,0,5.18,0l28.4-16.39C81,39.52,81,38.18,79.58,37.36Z"/><polygon class="cls-6" points="72.93 55.38 57.92 64.04 57.92 58.87 72.93 50.21 72.93 55.38"/><path class="cls-1" d="M79.58,37.36,51.18,21A5.7,5.7,0,0,0,46,21L17.6,37.36a1.81,1.81,0,0,0-1.08,1.49v11.2a1.81,1.81,0,0,0,1.08,1.49L46,67.94a5.31,5.31,0,0,0,2.59.62,5.36,5.36,0,0,0,2.59-.62l28.4-16.4a1.82,1.82,0,0,0,1.07-1.49V38.85A1.82,1.82,0,0,0,79.58,37.36Z"/><ellipse class="cls-7" cx="73.32" cy="38.85" rx="1.45" ry="0.84"/><ellipse class="cls-7" cx="48.59" cy="53.13" rx="1.45" ry="0.84"/><ellipse class="cls-7" cx="48.59" cy="24.57" rx="1.45" ry="0.84"/><ellipse class="cls-7" cx="23.85" cy="38.85" rx="1.45" ry="0.84"/><path class="cls-4" d="M117.93,59.5,89.52,43.1a5.68,5.68,0,0,0-5.17,0L55.94,59.5A1.82,1.82,0,0,0,54.87,61v11.2a1.82,1.82,0,0,0,1.07,1.49l28.41,16.4a5.7,5.7,0,0,0,5.17,0l28.41-16.4A1.82,1.82,0,0,0,119,72.19V61A1.82,1.82,0,0,0,117.93,59.5Z"/><line class="cls-8" x1="74.34" y1="79.13" x2="65.95" y2="74.28"/><path class="cls-8" d="M117.93,59.5,89.52,43.1a5.68,5.68,0,0,0-5.17,0L55.94,59.5c-1.43.82-1.43,2.16,0,3l28.41,16.4a5.74,5.74,0,0,0,5.17,0l28.41-16.4C119.36,61.66,119.36,60.32,117.93,59.5Z"/><polygon class="cls-8" points="111.28 77.52 96.27 86.18 96.27 81.01 111.28 72.35 111.28 77.52"/><path class="cls-9" d="M117.93,59.5,89.52,43.1a5.68,5.68,0,0,0-5.17,0L55.94,59.5A1.82,1.82,0,0,0,54.87,61v11.2a1.82,1.82,0,0,0,1.07,1.49l28.41,16.4a5.7,5.7,0,0,0,5.17,0l28.41-16.4A1.82,1.82,0,0,0,119,72.19V61A1.82,1.82,0,0,0,117.93,59.5Z"/><ellipse class="cls-10" cx="111.67" cy="60.99" rx="1.45" ry="0.84"/><ellipse class="cls-10" cx="86.94" cy="75.27" rx="1.45" ry="0.84"/><ellipse class="cls-10" cx="86.94" cy="46.71" rx="1.45" ry="0.84"/><ellipse class="cls-10" cx="62.2" cy="60.99" rx="1.45" ry="0.84"/><path class="cls-4" d="M117.93,48.3,89.52,31.91a5.68,5.68,0,0,0-5.17,0L55.94,48.3a1.84,1.84,0,0,0-1.07,1.5V61a1.84,1.84,0,0,0,1.07,1.5l28.41,16.4a5.78,5.78,0,0,0,5.17,0l28.41-16.4A1.84,1.84,0,0,0,119,61V49.8A1.84,1.84,0,0,0,117.93,48.3Z"/><line class="cls-8" x1="74.34" y1="67.94" x2="65.95" y2="63.09"/><path class="cls-8" d="M117.93,48.3,89.52,31.91a5.68,5.68,0,0,0-5.17,0L55.94,48.3c-1.43.83-1.43,2.17,0,3l28.41,16.4a5.68,5.68,0,0,0,5.17,0l28.41-16.4C119.36,50.47,119.36,49.13,117.93,48.3Z"/><polygon class="cls-8" points="111.28 66.33 96.27 74.99 96.27 69.82 111.28 61.16 111.28 66.33"/><path class="cls-9" d="M117.93,48.3,89.52,31.91a5.68,5.68,0,0,0-5.17,0L55.94,48.3a1.84,1.84,0,0,0-1.07,1.5V61a1.84,1.84,0,0,0,1.07,1.5l28.41,16.4a5.78,5.78,0,0,0,5.17,0l28.41-16.4A1.84,1.84,0,0,0,119,61V49.8A1.84,1.84,0,0,0,117.93,48.3Z"/><ellipse class="cls-10" cx="111.67" cy="49.8" rx="1.45" ry="0.84"/><ellipse class="cls-10" cx="86.94" cy="64.08" rx="1.45" ry="0.84"/><ellipse class="cls-10" cx="86.94" cy="35.52" rx="1.45" ry="0.84"/><ellipse class="cls-10" cx="62.2" cy="49.8" rx="1.45" ry="0.84"/><line class="cls-9" x1="42.21" y1="81.93" x2="42.21" y2="81.93"/><line class="cls-11" x1="47.33" y1="84.88" x2="70.37" y2="98.18"/><line class="cls-9" x1="72.93" y1="99.66" x2="72.93" y2="99.66"/><line class="cls-12" x1="78.28" y1="96.57" x2="80.09" y2="95.53"/><line class="cls-9" x1="83.63" y1="93.48" x2="83.63" y2="93.48"/><rect class="cls-13" width="120" height="120"/><rect class="cls-13" width="120" height="120"/></g></g></svg>