<svg xmlns="http://www.w3.org/2000/svg" viewBox="0 0 120 120"><defs><style>.cls-1,.cls-10,.cls-16,.cls-17,.cls-2,.cls-3{fill:none;}.cls-1,.cls-13,.cls-14,.cls-2,.cls-3{stroke:#1b6dc6;}.cls-1,.cls-10,.cls-11,.cls-13,.cls-14,.cls-16,.cls-2,.cls-3,.cls-5,.cls-6,.cls-7{stroke-linecap:round;stroke-linejoin:round;stroke-width:2px;}.cls-2{stroke-dasharray:0 6.53;}.cls-3{stroke-dasharray:0 6.44;}.cls-4{fill:#d5dae0;}.cls-5,.cls-9{fill:#b8bfca;}.cls-10,.cls-5,.cls-7{stroke:#627386;}.cls-11,.cls-6,.cls-8{fill:#fff;}.cls-6{stroke:#b8bfca;}.cls-7{fill:#627386;}.cls-11,.cls-16{stroke:#91d2fb;}.cls-12{fill:#bde4fd;}.cls-13,.cls-15{fill:#91d2fb;}.cls-14{fill:#1b6dc6;}</style></defs><title>instance</title><g id="Layer_2" data-name="Layer 2"><g id="Objects"><line class="cls-1" x1="40.42" y1="114.77" x2="40.42" y2="114.77"/><line class="cls-2" x1="34.76" y1="111.51" x2="20.63" y2="103.35"/><line class="cls-1" x1="17.8" y1="101.72" x2="17.8" y2="101.72"/><line class="cls-1" x1="101.88" y1="18.1" x2="101.88" y2="18.1"/><line class="cls-3" x1="96.31" y1="14.88" x2="82.37" y2="6.83"/><line class="cls-1" x1="79.59" y1="5.22" x2="79.59" y2="5.22"/><path class="cls-4" d="M17.39,101.49v-69L11.25,36a2.51,2.51,0,0,0-1.05,2V96.7a.93.93,0,0,0,.37.84h0Z"/><path class="cls-5" d="M50.9,69.89l20.82-12a2.53,2.53,0,0,0,1-2V14.32l6.83-9.1L72.4,1.07h0a.68.68,0,0,0-.68.05L11.25,36a2.51,2.51,0,0,0-1.05,2V46.4Z"/><path class="cls-4" d="M52.83,62.64,72.76,34.83V14.32l6.83-9.1L72.4,1.07h0a.68.68,0,0,0-.68.05L11.25,36a2.51,2.51,0,0,0-1.05,2h0Z"/><path class="cls-6" d="M78.91,66.73,18.44,101.64c-.58.34-1.05,0-1.05-.79V42.18a2.51,2.51,0,0,1,1.05-2L78.91,5.27c.57-.33,1,0,1,.79V64.73A2.52,2.52,0,0,1,78.91,66.73Z"/><path class="cls-7" d="M80,14.43V6.06c0-.77-.47-1.12-1-.79L18.44,40.18a2.51,2.51,0,0,0-1.05,2v8.37Z"/><ellipse class="cls-4" cx="26.96" cy="40.38" rx="1.81" ry="1.02" transform="translate(-20.75 49.38) rotate(-66.95)"/><ellipse class="cls-8" cx="31.51" cy="37.76" rx="1.81" ry="1.02" transform="translate(-15.57 51.96) rotate(-66.95)"/><ellipse class="cls-9" cx="22.23" cy="43.11" rx="1.81" ry="1.02" transform="translate(-26.14 46.69) rotate(-66.95)"/><path class="cls-10" d="M79.58,5.22h0L72.4,1.07h0a.68.68,0,0,0-.68.05L11.25,36a2.51,2.51,0,0,0-1.05,2V96.7a.93.93,0,0,0,.37.84h0l7.19,4.15h0a.65.65,0,0,0,.68,0L78.91,66.73a2.52,2.52,0,0,0,1-2V6.06A.9.9,0,0,0,79.58,5.22Z"/><path class="cls-11" d="M109.44,22.45l-7.19-4.15h0a.68.68,0,0,0-.68.05L41.09,53.27a2.5,2.5,0,0,0-1,2v58.67a.88.88,0,0,0,.37.84h0l7.19,4.15,6-11.45L101.56,75.1a2.5,2.5,0,0,0,1-2V31.55Z"/><path class="cls-12" d="M47.24,118.72v-69l-6.15,3.55a2.5,2.5,0,0,0-1,2v58.67a.88.88,0,0,0,.37.84h0Z"/><path class="cls-13" d="M80.74,87.12l20.82-12a2.5,2.5,0,0,0,1-2V31.55l6.83-9.1-7.19-4.15h0a.68.68,0,0,0-.68.05L41.09,53.27a2.5,2.5,0,0,0-1,2v8.37Z"/><path class="cls-12" d="M82.68,79.87l19.93-27.81V31.55l6.83-9.1-7.19-4.15h0a.68.68,0,0,0-.68.05L41.09,53.27a2.5,2.5,0,0,0-1,2h0Z"/><path class="cls-11" d="M108.75,84,48.28,118.87c-.57.34-1,0-1-.79V59.41a2.5,2.5,0,0,1,1-2L108.75,22.5c.58-.33,1,0,1,.79V82A2.48,2.48,0,0,1,108.75,84Z"/><path class="cls-1" d="M109.43,22.45h0l-7.19-4.15h0a.68.68,0,0,0-.68.05L41.09,53.27a2.5,2.5,0,0,0-1,2v58.67a.88.88,0,0,0,.37.84h0l7.19,4.15h0a.63.63,0,0,0,.68,0L108.75,84a2.48,2.48,0,0,0,1-2V23.29A.93.93,0,0,0,109.43,22.45Z"/><path class="cls-14" d="M109.8,31.66V23.29c0-.77-.47-1.12-1-.79L48.28,57.42a2.5,2.5,0,0,0-1,2v8.37Z"/><ellipse class="cls-12" cx="56.81" cy="57.61" rx="1.81" ry="1.02" transform="translate(-18.45 87.33) rotate(-66.95)"/><ellipse class="cls-8" cx="61.35" cy="54.99" rx="1.81" ry="1.02" transform="translate(-13.27 89.91) rotate(-66.95)"/><ellipse class="cls-15" cx="52.08" cy="60.34" rx="1.81" ry="1.02" transform="translate(-23.84 84.64) rotate(-66.95)"/><path class="cls-1" d="M58.67,112.88,108.75,84a2.48,2.48,0,0,0,1-2V54.27"/><path class="cls-12" d="M84.68,75.74l-22.52,13c-.32.18-.58,0-.58-.44V70.46a1.42,1.42,0,0,1,.58-1.12l22.52-13c.32-.18.58,0,.58.44V74.62A1.42,1.42,0,0,1,84.68,75.74Z"/><path class="cls-16" d="M84.68,75.74l-22.52,13c-.32.18-.58,0-.58-.44V70.46a1.42,1.42,0,0,1,.58-1.12l22.52-13c.32-.18.58,0,.58.44V74.62A1.42,1.42,0,0,1,84.68,75.74Z"/><path class="cls-11" d="M94.87,82,72.36,95c-.32.19-.59,0-.59-.44V76.76a1.42,1.42,0,0,1,.59-1.12l22.51-13c.32-.18.59,0,.59.44V80.93A1.39,1.39,0,0,1,94.87,82Z"/><rect class="cls-17" width="120" height="120"/><rect class="cls-17" width="120" height="120"/></g></g></svg>