<svg xmlns="http://www.w3.org/2000/svg" viewBox="0 0 120 120"><defs><style>.cls-1,.cls-5{fill:#bde4fd;}.cls-2{fill:#91d2fb;}.cls-10,.cls-3,.cls-7,.cls-8{fill:none;}.cls-3{stroke:#1b6dc6;}.cls-3,.cls-7{stroke-linecap:round;stroke-linejoin:round;}.cls-3,.cls-7,.cls-8{stroke-width:2px;}.cls-4{fill:#fff;}.cls-5{stroke:#fff;}.cls-5,.cls-8{stroke-miterlimit:10;}.cls-6{fill:#d5dae0;}.cls-7{stroke:#627386;}.cls-8{stroke:#d5dae0;}.cls-9{fill:#b8bfca;}</style></defs><title>intelligence</title><g id="Layer_2" data-name="Layer 2"><g id="New_Icon_Set" data-name="New Icon Set"><path class="cls-1" d="M93.56,47.41H76.05v8.48a3,3,0,0,0,.27,1.22h0L78,60.93h0C78.72,62.7,81.5,64,84.81,64s6.09-1.32,6.85-3.09h0l1.64-3.82h0a3,3,0,0,0,.26-1.22Z"/><path class="cls-2" d="M84.81,64c3.31,0,6.09-1.32,6.85-3.09h0l1.64-3.82h0a3,3,0,0,0,.26-1.22V47.41H84.81Z"/><path class="cls-3" d="M76.05,53.07c0,2.79,3.92,5,8.76,5s8.75-2.26,8.75-5"/><path class="cls-3" d="M93.56,47.41H76.05v8.48a3,3,0,0,0,.27,1.22h0L78,60.93h0C78.72,62.7,81.5,64,84.81,64s6.09-1.32,6.85-3.09h0l1.64-3.82h0a3,3,0,0,0,.26-1.22Z"/><path class="cls-4" d="M105.81,22A21,21,0,1,0,72.68,39.14a8.15,8.15,0,0,1,3.37,6.68v1.52h0s0,0,0,.07c0,2.79,3.92,5.06,8.76,5.06s8.75-2.27,8.75-5.06v-.07h0V45.77A8.17,8.17,0,0,1,97,39.11,21,21,0,0,0,105.81,22Z"/><path class="cls-3" d="M105.81,22A21,21,0,1,0,72.68,39.14a8.15,8.15,0,0,1,3.37,6.68v1.52h0s0,0,0,.07c0,2.79,3.92,5.06,8.76,5.06s8.75-2.27,8.75-5.06v-.07h0V45.77A8.17,8.17,0,0,1,97,39.11,21,21,0,0,0,105.81,22Z"/><path class="cls-4" d="M84.81,50.83c4,0,7-1.77,7.11-3.36V45.82a9.79,9.79,0,0,1,4.07-8A19.36,19.36,0,0,0,86.3,2.7c-.5,0-1-.06-1.49-.06A19.36,19.36,0,0,0,73.6,37.78a9.82,9.82,0,0,1,4.1,8v1.7C77.76,49.06,80.78,50.83,84.81,50.83Z"/><path class="cls-5" d="M84.81,12.75V39.2a4.39,4.39,0,0,1-3.06,4.13c-1.79.61-3,1.73-3,3,0,1.93,2.71,3.5,6.06,3.5s6.06-1.57,6.06-3.5h0v-.58a10.87,10.87,0,0,1,4.54-8.85,18.3,18.3,0,0,0,.26-29.65A6.81,6.81,0,0,0,84.81,12.75Z"/><ellipse class="cls-1" cx="74.51" cy="11.98" rx="3.92" ry="2.28" transform="translate(13.36 56.2) rotate(-45)"/><path class="cls-6" d="M44.19,75c-12.35,0-30,11-30,32.76,0,11.62,19.86,13.11,34.29,9.45S67.9,106.39,67.9,99C67.9,86.85,57.5,75,44.19,75Z"/><path class="cls-7" d="M44.19,75c-12.35,0-30,11-30,32.76,0,11.62,19.86,13.11,34.29,9.45S67.9,106.39,67.9,99C67.9,86.85,57.5,75,44.19,75Z"/><path class="cls-8" d="M34.29,117.05c-4.25,0-18.14-.67-18.14-9.27,0-20.1,16.28-30.8,28-30.8C57,77,66,88.56,66,99c0,7.75-6.21,13.41-18,16.39a57.59,57.59,0,0,1-13.71,1.71Z"/><circle class="cls-6" cx="41.62" cy="58.48" r="20.89"/><path class="cls-9" d="M55,46.56a1.32,1.32,0,0,0-2.23,1.34c1.78,4.4,2.33,10.83-4.3,17.45s-13.05,6.08-17.44,4.3a1.32,1.32,0,0,0-1.35,2.23A17.93,17.93,0,0,0,55,46.56Z"/><circle class="cls-7" cx="41.62" cy="58.48" r="20.89"/><ellipse class="cls-4" cx="31.79" cy="48.65" rx="4.81" ry="2.98" transform="translate(-25.09 36.73) rotate(-45)"/><path class="cls-8" d="M41.62,77.41A18.94,18.94,0,1,1,60.55,58.48,18.95,18.95,0,0,1,41.62,77.41Z"/><ellipse class="cls-4" cx="26.57" cy="90.88" rx="4.36" ry="2.7" transform="translate(-60.31 53.22) rotate(-50.27)"/><path class="cls-9" d="M65,99a22,22,0,0,0-10.39-18,2.39,2.39,0,0,0-3.66,2.25,36.7,36.7,0,0,1,.25,4.2c0,9-4.25,17.66-16.56,22.08a36.05,36.05,0,0,1-5.9,1.57,2.38,2.38,0,0,0,.1,4.71,45.91,45.91,0,0,0,5.48.34,56.54,56.54,0,0,0,13.47-1.68C55.61,112.4,65,108.11,65,99Z"/><rect class="cls-10" width="120" height="120"/><rect class="cls-10" width="120" height="120"/></g></g></svg>