<svg xmlns="http://www.w3.org/2000/svg" viewBox="0 0 120 120"><defs><style>.cls-1,.cls-2,.cls-4,.cls-5,.cls-6,.cls-7,.cls-8,.cls-9{fill:none;}.cls-1,.cls-2{stroke:#627386;}.cls-1,.cls-2,.cls-4,.cls-5,.cls-6,.cls-7,.cls-8{stroke-linecap:round;stroke-linejoin:round;stroke-width:2px;}.cls-2{stroke-dasharray:0 5.41;}.cls-3{fill:#fff;}.cls-4{stroke:#b8bfca;}.cls-5{stroke:#bde4fd;}.cls-6{stroke:#91d2fb;}.cls-7{stroke:#1b6dc6;}.cls-8{stroke:#d5dae0;}</style></defs><title>invisible-infrastructure-1</title><g id="Layer_2" data-name="Layer 2"><g id="New_Icon_Set" data-name="New Icon Set"><line class="cls-1" x1="37.88" y1="39.06" x2="37.88" y2="39.06"/><line class="cls-2" x1="37.88" y1="44.47" x2="37.88" y2="52.58"/><line class="cls-1" x1="37.88" y1="55.28" x2="37.88" y2="55.28"/><line class="cls-1" x1="82.01" y1="39.16" x2="82.01" y2="39.16"/><line class="cls-2" x1="82.01" y1="44.57" x2="82.01" y2="52.68"/><line class="cls-1" x1="82.01" y1="55.39" x2="82.01" y2="55.39"/><polygon class="cls-3" points="37.99 106.17 15.91 93.34 15.84 68.01 37.92 80.84 37.99 106.17"/><polygon class="cls-3" points="59.96 68.11 60.03 93.44 37.99 106.17 37.92 80.84 59.96 68.11"/><polygon class="cls-4" points="59.96 68.11 60.03 93.44 37.99 106.17 37.92 80.84 59.96 68.11"/><line class="cls-5" x1="38.07" y1="80.75" x2="60.04" y2="93.44"/><line class="cls-5" x1="15.92" y1="93.34" x2="37.74" y2="80.74"/><polygon class="cls-3" points="37.92 80.84 15.84 68.01 37.88 55.28 59.96 68.11 37.92 80.84"/><line class="cls-5" x1="37.96" y1="55.28" x2="37.99" y2="80.84"/><polygon class="cls-6" points="37.92 80.84 15.84 68.01 37.88 55.28 59.96 68.11 37.92 80.84"/><line class="cls-6" x1="37.96" y1="80.61" x2="37.99" y2="106.17"/><polygon class="cls-7" points="59.96 68.11 37.88 55.28 15.84 68.01 15.91 93.34 37.99 106.17 60.03 93.44 59.96 68.11"/><polygon class="cls-3" points="82.11 106.27 60.03 93.44 59.96 68.11 82.04 80.94 82.11 106.27"/><polygon class="cls-3" points="104.08 68.22 104.16 93.55 82.11 106.27 82.04 80.94 104.08 68.22"/><polygon class="cls-4" points="104.08 68.22 104.16 93.55 82.11 106.27 82.04 80.94 104.08 68.22"/><line class="cls-5" x1="82.19" y1="80.86" x2="104.16" y2="93.55"/><line class="cls-5" x1="60.04" y1="93.44" x2="81.86" y2="80.84"/><polygon class="cls-3" points="82.04 80.94 59.96 68.11 82.01 55.39 104.08 68.22 82.04 80.94"/><line class="cls-5" x1="82.08" y1="55.39" x2="82.12" y2="80.94"/><polygon class="cls-6" points="82.04 80.94 59.96 68.11 82.01 55.39 104.08 68.22 82.04 80.94"/><line class="cls-6" x1="82.08" y1="80.72" x2="82.12" y2="106.27"/><polygon class="cls-7" points="104.08 68.22 82.01 55.39 59.96 68.11 60.03 93.44 82.11 106.27 104.16 93.55 104.08 68.22"/><polygon class="cls-3" points="60.07 119 37.99 106.17 37.92 80.84 60 93.67 60.07 119"/><polygon class="cls-3" points="82.04 80.94 82.11 106.27 60.07 119 60 93.67 82.04 80.94"/><polygon class="cls-4" points="82.04 80.94 82.11 106.27 60.07 119 60 93.67 82.04 80.94"/><line class="cls-8" x1="60.14" y1="93.58" x2="82.12" y2="106.27"/><line class="cls-8" x1="37.99" y1="106.17" x2="59.82" y2="93.57"/><polygon class="cls-3" points="60 93.67 37.92 80.84 59.96 68.11 82.04 80.94 60 93.67"/><line class="cls-8" x1="60.04" y1="68.11" x2="60.07" y2="93.67"/><polygon class="cls-4" points="60 93.67 37.92 80.84 59.96 68.11 82.04 80.94 60 93.67"/><line class="cls-4" x1="60.04" y1="93.44" x2="60.07" y2="119"/><polygon class="cls-1" points="82.04 80.94 59.96 68.11 37.92 80.84 37.99 106.17 60.07 119 82.11 106.27 82.04 80.94"/><polygon class="cls-3" points="59.96 51.89 37.88 39.06 37.81 13.73 59.89 26.56 59.96 51.89"/><polygon class="cls-3" points="81.93 13.83 82.01 39.16 59.96 51.89 59.89 26.56 81.93 13.83"/><polygon class="cls-4" points="81.93 13.83 82.01 39.16 59.96 51.89 59.89 26.56 81.93 13.83"/><line class="cls-8" x1="60.04" y1="26.47" x2="82.01" y2="39.16"/><line class="cls-8" x1="37.89" y1="39.06" x2="59.71" y2="26.45"/><polygon class="cls-3" points="59.89 26.56 37.81 13.73 59.85 1 81.93 13.83 59.89 26.56"/><line class="cls-8" x1="59.93" y1="1" x2="59.97" y2="26.56"/><polygon class="cls-4" points="59.89 26.56 37.81 13.73 59.85 1 81.93 13.83 59.89 26.56"/><line class="cls-4" x1="59.93" y1="26.33" x2="59.97" y2="51.89"/><polygon class="cls-1" points="81.93 13.83 59.85 1 37.81 13.73 37.88 39.06 59.96 51.89 82.01 39.16 81.93 13.83"/><rect class="cls-9" width="120" height="120"/><rect class="cls-9" width="120" height="120"/></g></g></svg>