<svg xmlns="http://www.w3.org/2000/svg" viewBox="0 0 120 120"><defs><style>.cls-1,.cls-11,.cls-13,.cls-2,.cls-4,.cls-5,.cls-6{fill:none;}.cls-1,.cls-2{stroke:#1b6dc6;}.cls-1,.cls-10,.cls-11,.cls-2,.cls-4,.cls-5,.cls-6,.cls-7,.cls-9{stroke-linecap:round;stroke-linejoin:round;stroke-width:2px;}.cls-2{stroke-dasharray:0 5.52;}.cls-3,.cls-9{fill:#fff;}.cls-4{stroke:#bde4fd;}.cls-5{stroke:#fff;}.cls-6{stroke:#91d2fb;}.cls-12,.cls-7{fill:#d5dae0;}.cls-7,.cls-9{stroke:#b8bfca;}.cls-10,.cls-8{fill:#b8bfca;}.cls-10{stroke:#d5dae0;}.cls-11{stroke:#627386;}</style></defs><title>invisible-infrastructure-2</title><g id="Layer_2" data-name="Layer 2"><g id="New_Icon_Set" data-name="New Icon Set"><line class="cls-1" x1="17.12" y1="55.76" x2="17.12" y2="55.76"/><line class="cls-2" x1="17.12" y1="61.28" x2="17.12" y2="75.09"/><line class="cls-1" x1="17.12" y1="77.85" x2="17.12" y2="77.85"/><line class="cls-1" x1="102.93" y1="55.76" x2="102.93" y2="55.76"/><line class="cls-2" x1="102.93" y1="61.28" x2="102.93" y2="75.09"/><line class="cls-1" x1="102.93" y1="77.85" x2="102.93" y2="77.85"/><polygon class="cls-3" points="59.89 53 17.12 77.85 17.07 94.15 60.11 119 102.88 94.15 102.93 77.85 59.89 53"/><line class="cls-4" x1="60.17" y1="102.7" x2="60.17" y2="119"/><polygon class="cls-3" points="102.93 77.85 60.17 102.7 17.12 77.85 59.89 53 102.93 77.85"/><line class="cls-5" x1="31.18" y1="85.97" x2="17.07" y2="94.15"/><line class="cls-4" x1="102.88" y1="94.15" x2="88.84" y2="86.04"/><line class="cls-4" x1="59.89" y1="69.33" x2="59.89" y2="53"/><polyline class="cls-4" points="102.88 94.15 59.89 69.33 17.07 94.15"/><polygon class="cls-6" points="102.93 77.85 60.17 102.7 17.12 77.85 59.89 53 102.93 77.85"/><polygon class="cls-1" points="59.89 53 17.12 77.85 17.07 94.15 60.11 119 102.88 94.15 102.93 77.85 59.89 53"/><path class="cls-7" d="M79,40.77l-15.53-9a7.71,7.71,0,0,0-6.94,0L41,40.77H17.07v15a2.43,2.43,0,0,0,1.43,2l38,22a7.65,7.65,0,0,0,6.94,0l38-22a2.43,2.43,0,0,0,1.43-2v-15Z"/><path class="cls-8" d="M63.47,79.72l38-22a2.43,2.43,0,0,0,1.43-2v-15H79l-15.53-9A7.15,7.15,0,0,0,60,31V80.55A7.15,7.15,0,0,0,63.47,79.72Z"/><line class="cls-7" x1="43.14" y1="65.06" x2="31.9" y2="58.57"/><path class="cls-9" d="M101.5,38.77l-38-22a7.65,7.65,0,0,0-6.94,0l-38,22c-1.91,1.11-1.91,2.9,0,4l38,22a7.65,7.65,0,0,0,6.94,0l38-22C103.41,41.67,103.41,39.88,101.5,38.77Z"/><polygon class="cls-10" points="92.59 62.91 72.5 74.51 72.5 67.58 92.59 55.98 92.59 62.91"/><path class="cls-11" d="M101.5,38.77l-38-22a7.65,7.65,0,0,0-6.94,0l-38,22a2.46,2.46,0,0,0-1.43,2v15a2.43,2.43,0,0,0,1.43,2l38,22a7.67,7.67,0,0,0,6.94,0l38-22a2.43,2.43,0,0,0,1.43-2v-15A2.46,2.46,0,0,0,101.5,38.77Z"/><ellipse class="cls-12" cx="93.12" cy="40.77" rx="1.95" ry="1.12"/><ellipse class="cls-12" cx="60" cy="59.9" rx="1.95" ry="1.12"/><ellipse class="cls-12" cx="60" cy="21.65" rx="1.95" ry="1.12"/><ellipse class="cls-12" cx="26.88" cy="40.77" rx="1.95" ry="1.12"/><path class="cls-7" d="M79,25.79l-15.53-9a7.65,7.65,0,0,0-6.94,0L41,25.79H17.07v15a2.46,2.46,0,0,0,1.43,2l38,22a7.65,7.65,0,0,0,6.94,0l38-22a2.46,2.46,0,0,0,1.43-2v-15Z"/><path class="cls-8" d="M63.47,64.73l38-22a2.46,2.46,0,0,0,1.43-2v-15H79l-15.53-9A7,7,0,0,0,60,16V65.56A7,7,0,0,0,63.47,64.73Z"/><line class="cls-7" x1="43.14" y1="50.07" x2="31.9" y2="43.58"/><path class="cls-9" d="M101.5,23.79l-38-22a7.65,7.65,0,0,0-6.94,0l-38,22c-1.91,1.1-1.91,2.89,0,4l38,22a7.71,7.71,0,0,0,6.94,0l38-22C103.41,26.68,103.41,24.89,101.5,23.79Z"/><polygon class="cls-10" points="92.59 47.92 72.5 59.52 72.5 52.59 92.59 40.99 92.59 47.92"/><path class="cls-11" d="M101.5,23.79l-38-22a7.65,7.65,0,0,0-6.94,0l-38,22a2.43,2.43,0,0,0-1.43,2v15a2.46,2.46,0,0,0,1.43,2l38,22a7.67,7.67,0,0,0,6.94,0l38-22a2.46,2.46,0,0,0,1.43-2v-15A2.43,2.43,0,0,0,101.5,23.79Z"/><ellipse class="cls-12" cx="93.12" cy="25.79" rx="1.95" ry="1.12"/><ellipse class="cls-12" cx="60" cy="44.91" rx="1.95" ry="1.12"/><ellipse class="cls-12" cx="60" cy="6.67" rx="1.95" ry="1.12"/><ellipse class="cls-12" cx="26.88" cy="25.79" rx="1.95" ry="1.12"/><rect class="cls-13" width="120" height="120"/><rect class="cls-13" width="120" height="120"/></g></g></svg>