<svg xmlns="http://www.w3.org/2000/svg" viewBox="0 0 120 120"><defs><style>.cls-1{fill:#d5dae0;}.cls-1,.cls-2,.cls-5{stroke:#b8bfca;}.cls-1,.cls-10,.cls-11,.cls-12,.cls-13,.cls-2,.cls-5,.cls-6,.cls-7,.cls-8,.cls-9{stroke-linecap:round;stroke-linejoin:round;}.cls-1,.cls-10,.cls-11,.cls-12,.cls-13,.cls-2,.cls-5,.cls-6,.cls-8,.cls-9{stroke-width:2px;}.cls-2,.cls-3{fill:#b8bfca;}.cls-11,.cls-4,.cls-5{fill:#fff;}.cls-10,.cls-14,.cls-6,.cls-8,.cls-9{fill:none;}.cls-6{stroke:#627386;}.cls-13,.cls-7{fill:#bde4fd;}.cls-7{stroke:#bde4fd;}.cls-10,.cls-8,.cls-9{stroke:#1b6dc6;}.cls-9{stroke-dasharray:0 5.88;}.cls-10{stroke-dasharray:0 5.75;}.cls-11,.cls-12,.cls-13{stroke:#91d2fb;}.cls-12{fill:#91d2fb;}</style></defs><title>just-in-time-forecast</title><g id="Layer_2" data-name="Layer 2"><g id="Tech_Concepts" data-name="Tech Concepts"><path class="cls-1" d="M118.74,68.8a1.94,1.94,0,0,0-1.19-2l-53.63-31a6.48,6.48,0,0,0-5.88,0L2.23,68.3A2.06,2.06,0,0,0,1,70H1l0,7.48a2.08,2.08,0,0,0,1.23,1.71l53.63,31a6.52,6.52,0,0,0,5.88,0l55.81-32.43a2.06,2.06,0,0,0,1.21-1.7l0-7.47A1.87,1.87,0,0,1,118.74,68.8Z"/><path class="cls-2" d="M10.23,63.65l-8,4.65A2.06,2.06,0,0,0,1,70H1l0,7.48a2.08,2.08,0,0,0,1.23,1.71l8,4.63Z"/><path class="cls-3" d="M58.74,110.85a6,6,0,0,0,3-.7l55.81-32.43a2.06,2.06,0,0,0,1.21-1.7l0-7.47a2,2,0,0,1-1.21,1.69l-55.8,32.43a6,6,0,0,1-2.94.71"/><path class="cls-4" d="M117.55,66.83c1.63.94,1.64,2.47,0,3.41l-55.8,32.43a6.44,6.44,0,0,1-5.89,0l-53.63-31c-1.63-.94-1.64-2.47,0-3.41L58,35.87a6.48,6.48,0,0,1,5.88,0Z"/><path class="cls-5" d="M117.55,66.83c1.63.94,1.64,2.47,0,3.41l-55.8,32.43a6.44,6.44,0,0,1-5.89,0l-53.63-31c-1.63-.94-1.64-2.47,0-3.41L58,35.87a6.48,6.48,0,0,1,5.88,0Z"/><line class="cls-1" x1="31.38" y1="64.03" x2="79.77" y2="92.21"/><line class="cls-1" x1="87.87" y1="49.69" x2="26.25" y2="85.57"/><line class="cls-1" x1="104.45" y1="59.27" x2="42.84" y2="95.15"/><line class="cls-1" x1="52.19" y1="51.94" x2="100.58" y2="80.12"/><path class="cls-1" d="M63.92,35.87a6.48,6.48,0,0,0-5.88,0L2.23,68.3c-1.62.94-1.61,2.47,0,3.41l8,4.61L71.91,40.48Z"/><path class="cls-6" d="M118.74,68.8a1.94,1.94,0,0,0-1.19-2l-53.63-31a6.48,6.48,0,0,0-5.88,0L2.23,68.3A2.06,2.06,0,0,0,1,70H1l0,7.48a2.08,2.08,0,0,0,1.23,1.71l53.63,31a6.52,6.52,0,0,0,5.88,0l55.81-32.43a2.06,2.06,0,0,0,1.21-1.7l0-7.47A1.87,1.87,0,0,1,118.74,68.8Z"/><ellipse class="cls-3" cx="53.27" cy="45.36" rx="1.75" ry="3.02" transform="translate(7.76 98.51) rotate(-89.84)"/><path class="cls-6" d="M44.43,43.8a8.31,8.31,0,0,1-.62-3,3.54,3.54,0,0,1,1.59-3.26,3.58,3.58,0,0,1,3.64.27,9.3,9.3,0,0,1,4.23,7"/><ellipse class="cls-3" cx="19.37" cy="64.61" rx="1.75" ry="3.02" transform="translate(-45.3 83.8) rotate(-89.84)"/><ellipse class="cls-3" cx="36.32" cy="55.01" rx="1.75" ry="3.02" transform="translate(-18.79 91.17) rotate(-89.84)"/><path class="cls-6" d="M10.61,63.27a7.88,7.88,0,0,1-.7-3.18,3.55,3.55,0,0,1,1.58-3.26,3.58,3.58,0,0,1,3.64.27,9.3,9.3,0,0,1,4.24,7"/><path class="cls-6" d="M27.48,53.45a8.19,8.19,0,0,1-.62-3,3.52,3.52,0,0,1,1.59-3.25,3.54,3.54,0,0,1,3.63.27,9.28,9.28,0,0,1,4.24,7"/><polygon class="cls-7" points="104.21 64.05 112.22 68.68 101.24 75.06 93.22 70.43 104.21 64.05"/><line class="cls-8" x1="118.78" y1="68.55" x2="118.78" y2="68.55"/><line class="cls-9" x1="118.78" y1="62.67" x2="118.78" y2="30.33"/><line class="cls-8" x1="118.78" y1="27.39" x2="118.78" y2="27.39"/><line class="cls-8" x1="84.62" y1="70.82" x2="84.62" y2="70.82"/><line class="cls-10" x1="84.62" y1="65.07" x2="84.62" y2="33.44"/><line class="cls-8" x1="84.62" y1="30.56" x2="84.62" y2="30.56"/><polygon class="cls-11" points="104.5 9.15 119 17.52 99.12 29.07 84.62 20.7 104.5 9.15"/><polygon class="cls-12" points="119 17.52 99.12 29.07 99.12 38.94 119 27.39 119 17.52"/><polygon class="cls-13" points="99.12 38.94 84.62 30.56 84.62 20.7 99.12 29.07 99.12 38.94"/><polygon class="cls-8" points="104.5 9.15 84.62 20.7 84.62 30.56 99.12 38.94 119 27.39 119 17.52 104.5 9.15"/><rect class="cls-14" width="120" height="120"/><rect class="cls-14" width="120" height="120"/></g></g></svg>