<svg xmlns="http://www.w3.org/2000/svg" viewBox="0 0 120 120"><defs><style>.cls-1,.cls-3{fill:#d5dae0;}.cls-2{fill:#fff;}.cls-3,.cls-5{stroke:#b8bfca;}.cls-3,.cls-4,.cls-5,.cls-6{stroke-linecap:round;stroke-linejoin:round;stroke-width:2px;}.cls-4,.cls-5,.cls-6,.cls-8{fill:none;}.cls-4{stroke:#fff;}.cls-6{stroke:#627386;}.cls-7{fill:#b8bfca;}</style></defs><title>key-1</title><g id="Layer_2" data-name="Layer 2"><g id="Objects"><path class="cls-1" d="M82.57,37.92C82.57,24.53,74.43,9,64.39,3.18c-4.55-2.63-8.7-2.8-11.89-1h0L43.71,7.29h0c3.18-1.85,7.34-1.68,11.89,1C65.65,14,73.79,29.6,73.79,43c0,7.32-2.44,12.47-6.29,14.7h0l8.78-5.07h0C80.13,50.39,82.57,45.24,82.57,37.92Z"/><path class="cls-2" d="M64.39,3.18c-4.55-2.63-8.7-2.8-11.89-1h0L43.71,7.29h0c3.18-1.85,7.34-1.68,11.89,1C61.1,11.42,66,17.5,69.35,24.56l8.78-5.07C74.8,12.43,69.88,6.35,64.39,3.18Z"/><path class="cls-1" d="M45,101.37a3.14,3.14,0,0,0,1.15,1.14l15.27,8.82a3.14,3.14,0,0,0,3.14-5.44L49.27,97.07a3.14,3.14,0,0,0-4.29,4.3Z"/><path class="cls-3" d="M45,101.37a3.14,3.14,0,0,0,1.15,1.14l15.27,8.82a3.14,3.14,0,0,0,3.14-5.44L49.27,97.07a3.14,3.14,0,0,0-4.29,4.3Z"/><path class="cls-3" d="M49.65,90.86A3,3,0,0,0,50.8,92l9.58,5.54a3.14,3.14,0,0,0,3.14-5.45l-9.58-5.53a3.14,3.14,0,0,0-4.29,1.15A3.1,3.1,0,0,0,49.65,90.86Z"/><line class="cls-4" x1="52.38" y1="87.93" x2="59.76" y2="92.19"/><line class="cls-4" x1="47.71" y1="98.43" x2="60.78" y2="105.97"/><path class="cls-1" d="M58.69,51.3A5.13,5.13,0,0,0,58,53.88v60a5.17,5.17,0,0,0,10.33,0v-60a5.16,5.16,0,0,0-9.64-2.58Z"/><path class="cls-2" d="M59.18,53.14a1.76,1.76,0,0,0-.24.88V112.6a1.76,1.76,0,0,0,1.76,1.76,1.74,1.74,0,0,0,1.76-1.76V54a1.76,1.76,0,0,0-3.28-.88Z"/><path class="cls-5" d="M58.69,48.82A5.13,5.13,0,0,0,58,51.4v62.44a5.17,5.17,0,0,0,10.33,0V51.4a5.16,5.16,0,0,0-9.64-2.58Z"/><path class="cls-3" d="M55.61,8.25c-10-5.8-18.18.35-18.18,13.74s8.14,29,18.18,34.74S73.79,56.38,73.79,43,65.65,14,55.61,8.25Z"/><path class="cls-5" d="M82.57,37.92C82.57,24.53,74.43,9,64.39,3.18c-4.55-2.63-8.7-2.8-11.89-1h0L43.71,7.29h0c3.18-1.85,7.34-1.68,11.89,1C65.65,14,73.79,29.6,73.79,43c0,7.32-2.44,12.47-6.29,14.7h0l8.78-5.07h0C80.13,50.39,82.57,45.24,82.57,37.92Z"/><path class="cls-6" d="M82.57,37.92c0-9.71-4.28-20.56-10.46-28L72,9.76l-.71-.82c-.07-.08-.15-.16-.22-.25L70.39,8l-.28-.29-.61-.6-.31-.3-.6-.55L68.25,6l-.59-.5-.36-.29-.6-.46-.36-.26L65.68,4l-.31-.21c-.32-.21-.65-.41-1-.6-4.55-2.63-8.7-2.8-11.89-1h0L43.71,7.29h0c-3.85,2.23-6.29,7.38-6.29,14.7,0,13.39,8.14,29,18.18,34.74A19.43,19.43,0,0,0,58,57.9v31l-4.06-2.35a3.14,3.14,0,0,0-4.29,1.15,3.1,3.1,0,0,0,0,3.14A3,3,0,0,0,50.8,92L58,96.17v5.94l-8.73-5a3.14,3.14,0,1,0-3.14,5.44L58,109.37v4.47a5.17,5.17,0,0,0,10.33,0V57.22l8-4.6h0C80.13,50.39,82.57,45.24,82.57,37.92Z"/><path class="cls-7" d="M55.61,43.5c-4.56-2.63-8.26-9.7-8.26-15.78s3.7-8.87,8.26-6.24,8.26,9.7,8.26,15.78S60.17,46.13,55.61,43.5Z"/><rect class="cls-8" width="120" height="120"/><rect class="cls-8" width="120" height="120"/></g></g></svg>