<svg xmlns="http://www.w3.org/2000/svg" viewBox="0 0 120 120"><defs><style>.cls-1{fill:#b8bfca;}.cls-2{fill:#d5dae0;}.cls-3,.cls-4,.cls-6,.cls-7,.cls-8{fill:none;}.cls-3{stroke:#d5dae0;}.cls-3,.cls-7{stroke-miterlimit:10;}.cls-3,.cls-4,.cls-6,.cls-7{stroke-width:2px;}.cls-4,.cls-7{stroke:#627386;}.cls-4,.cls-6{stroke-linecap:round;stroke-linejoin:round;}.cls-5{fill:#fff;}.cls-6{stroke:#fff;}</style></defs><title>learn</title><g id="Layer_2" data-name="Layer 2"><g id="Actions"><path class="cls-1" d="M103.28,82.9h0l-3.09-33.53h0c-1.12-12.19-18.6-21.87-40-21.87s-38.87,9.68-40,21.87h0L17.12,82.9h0c0,.45-.07.9-.07,1.35,0,13.75,19.32,24.91,43.15,24.91S103.34,98,103.34,84.25Q103.34,83.57,103.28,82.9Z"/><path class="cls-2" d="M20.2,49.37h0L17.12,82.9h0c0,.45-.07.9-.07,1.35,0,13.75,19.32,24.91,43.15,24.91V27.5C38.8,27.5,21.33,37.18,20.2,49.37Z"/><path class="cls-1" d="M60.2,27.5A66,66,0,0,0,45,29.23L23.05,42a15.41,15.41,0,0,0-2.85,7.4h0L18.3,70,60.18,94.2l41.9-24.35-1.89-20.48h0a15.12,15.12,0,0,0-2.54-6.94L74.38,29A66.23,66.23,0,0,0,60.2,27.5Z"/><path class="cls-3" d="M60.2,107.16c-22.69,0-41.15-10.28-41.15-22.91a11.12,11.12,0,0,1,.06-1.16l.2-2.19L22.2,49.56c1-11.06,18.06-20.06,38-20.06s37,9,38,20.06l2.89,31.34.19,2.19a11.12,11.12,0,0,1,.06,1.16C101.34,96.88,82.88,107.16,60.2,107.16Z"/><path class="cls-4" d="M103.28,82.9h0l-3.09-33.53h0c-1.12-12.19-18.6-21.87-40-21.87s-38.87,9.68-40,21.87h0L17.12,82.9h0c0,.45-.07.9-.07,1.35,0,13.75,19.32,24.91,43.15,24.91S103.34,98,103.34,84.25Q103.34,83.57,103.28,82.9Z"/><path class="cls-2" d="M90.69,80.25c2.24-1.29,4.06-.25,4.07,2.33V87a2.31,2.31,0,0,1-1.15,2l-5.24,3a1.15,1.15,0,0,1-1.72-1l0-3.81A9,9,0,0,1,90.69,80.25Z"/><path class="cls-1" d="M93.62,85l-5.24,3a1.15,1.15,0,0,1-1.72-1c0,.06,0,.12,0,.17l0,3.81a1.15,1.15,0,0,0,1.72,1l5.24-3a2.31,2.31,0,0,0,1.15-2V83.12A2.28,2.28,0,0,1,93.62,85Z"/><path class="cls-4" d="M90.69,80.25c2.24-1.29,4.06-.25,4.07,2.33V87a2.31,2.31,0,0,1-1.15,2l-5.24,3a1.15,1.15,0,0,1-1.72-1l0-3.81A9,9,0,0,1,90.69,80.25Z"/><ellipse class="cls-5" cx="60" cy="55.7" rx="20.78" ry="35.87" transform="translate(4.13 115.54) rotate(-89.84)"/><polygon class="cls-2" points="118.94 44.98 60.2 79.12 1.07 44.98 59.82 10.84 118.94 44.98"/><polygon class="cls-1" points="118.94 44.98 118.93 52.6 60.18 86.73 60.2 79.12 118.94 44.98"/><polygon class="cls-2" points="60.2 79.12 60.18 86.73 1.06 52.6 1.07 44.98 60.2 79.12"/><polygon class="cls-6" points="118.94 44.98 60.2 79.12 1.07 44.98 59.82 10.84 118.94 44.98"/><polygon class="cls-6" points="118.94 44.98 118.93 52.6 60.18 86.73 60.2 79.12 118.94 44.98"/><polygon class="cls-6" points="60.2 79.12 60.18 86.73 1.06 52.6 1.07 44.98 60.2 79.12"/><polygon class="cls-4" points="59.82 10.84 1.07 44.98 1.06 52.6 60.18 86.73 118.93 52.6 118.94 44.98 59.82 10.84"/><path class="cls-2" d="M50.45,39.45c-5.34,3.11-5.31,8.14.07,11.25A19.86,19.86,0,0,0,60.2,53V37.12A19.86,19.86,0,0,0,50.45,39.45Z"/><path class="cls-4" d="M91.31,78.81V65.31a3.93,3.93,0,0,0-2-3.41L69.94,50.7"/><ellipse class="cls-7" cx="60.2" cy="45.08" rx="7.96" ry="13.73" transform="translate(14.95 105.15) rotate(-89.84)"/><ellipse class="cls-1" cx="60.2" cy="45.08" rx="3.48" ry="6" transform="translate(14.95 105.15) rotate(-89.84)"/><path class="cls-2" d="M91.3,74.12c1.64-1,3-.18,3,1.71a6.54,6.54,0,0,1-3,5.15c-1.65,1-3,.19-3-1.71A6.59,6.59,0,0,1,91.3,74.12Z"/><path class="cls-4" d="M91.3,74.12c1.64-1,3-.18,3,1.71a6.54,6.54,0,0,1-3,5.15c-1.65,1-3,.19-3-1.71A6.59,6.59,0,0,1,91.3,74.12Z"/><rect class="cls-8" width="120" height="120"/></g></g></svg>