<svg xmlns="http://www.w3.org/2000/svg" viewBox="0 0 120 120"><defs><style>.cls-1,.cls-5{fill:#d5dae0;}.cls-1,.cls-4{stroke:#b8bfca;}.cls-1,.cls-3,.cls-4,.cls-6{stroke-linecap:round;stroke-linejoin:round;stroke-width:2px;}.cls-2{fill:#fff;}.cls-3,.cls-6,.cls-7{fill:none;}.cls-3{stroke:#627386;}.cls-4{fill:#b8bfca;}.cls-6{stroke:#91d2fb;}</style></defs><title>magnifying-glass</title><g id="Layer_2" data-name="Layer 2"><g id="Objects"><path class="cls-1" d="M116.53,94.58h0L47.81,54.89l-8,13.86,68.73,39.67h0c2.78,1.6,6.82-.19,9-4S119.3,96.19,116.53,94.58Z"/><path class="cls-2" d="M116.53,94.58h0L52.84,57.79l-4,6.95,62.74,36.2c3.49,2,7.71-1.71,5.89-5.31A2.52,2.52,0,0,0,116.53,94.58Z"/><path class="cls-3" d="M116.53,94.58h0L47.81,54.89l-8,13.86,68.73,39.67h0c2.78,1.6,6.82-.19,9-4S119.3,96.19,116.53,94.58Z"/><path class="cls-4" d="M73,66.35v0L54.54,55.68,43.74,74.4,62.19,85.05v0h0c3.75,2.16,9.2-.26,12.18-5.42S76.73,68.52,73,66.35Z"/><path class="cls-5" d="M73,66.35v0l-13-7.5-5.34,9.25,11.71,6.74c4.66,2.69,10.28-2.27,7.85-7.07A3.27,3.27,0,0,0,73,66.35Z"/><path class="cls-3" d="M73,66.35v0L54.54,55.68,43.74,74.4,62.19,85.05v0h0c3.75,2.16,9.2-.26,12.18-5.42S76.73,68.52,73,66.35Z"/><path class="cls-5" d="M63.33,20.47,50.39,13v0c-5.23-3-12-2.75-19.52,1.56C14.4,24.09,1,49.6,1,71.57c0,12,4,20.47,10.32,24.11h0l12.94,7.47,2-6.86a30.61,30.61,0,0,0,4.59-2.18c16.48-9.51,29.83-35,29.83-57a42.86,42.86,0,0,0-1.31-11Z"/><path class="cls-2" d="M50.39,13v0c-5.23-3-12-2.75-19.52,1.56-9,5.2-17.07,15.18-22.54,26.75l45.08,26C58,57.77,60.7,47.08,60.7,37.13a42.86,42.86,0,0,0-1.31-11l3.94-5.71Z"/><path class="cls-6" d="M63.33,20.47,50.39,13v0c-5.23-3-12-2.75-19.52,1.56C14.4,24.09,1,49.6,1,71.57c0,12,4,20.47,10.32,24.11h0l12.94,7.47,2-6.86a30.61,30.61,0,0,0,4.59-2.18c16.48-9.51,29.83-35,29.83-57a42.86,42.86,0,0,0-1.31-11Z"/><line class="cls-6" x1="43.81" y1="61.82" x2="30.87" y2="54.35"/><ellipse class="cls-4" cx="43.81" cy="61.82" rx="45.79" ry="25.91" transform="translate(-30.23 77.93) rotate(-66.95)"/><path class="cls-5" d="M34,96.68c-8.43,0-13.88-8.1-13.88-20.62,0-17.82,10.84-38.58,24.17-46.27A18.74,18.74,0,0,1,53.61,27C62,27,67.48,35.05,67.48,47.57c0,17.82-10.84,38.58-24.17,46.28A18.81,18.81,0,0,1,34,96.68Z"/><path class="cls-2" d="M61.59,72.08,26,51.55a59.14,59.14,0,0,0-5.89,24.51c0,12.52,5.45,20.62,13.88,20.62a18.81,18.81,0,0,0,9.29-2.83C50.61,89.64,57.16,81.5,61.59,72.08Z"/><path class="cls-3" d="M34,96.68c-8.43,0-13.88-8.1-13.88-20.62,0-17.82,10.84-38.58,24.17-46.27A18.74,18.74,0,0,1,53.61,27C62,27,67.48,35.05,67.48,47.57c0,17.82-10.84,38.58-24.17,46.28A18.81,18.81,0,0,1,34,96.68Z"/><path class="cls-3" d="M63.32,20.48h0L50.39,13v0c-5.23-3-12-2.75-19.52,1.56-.48.28-1,.57-1.45.88l-.47.32c-.32.21-.64.42-.95.65s-.39.27-.58.41l-.83.62L26,18q-.39.3-.78.63l-.63.53-.72.64-.65.59-.67.64-.67.65-.56.58c-1,1-1.89,2-2.81,3.1l-.31.38c-.3.35-.58.71-.87,1.06-.1.14-.21.27-.32.41-.28.37-.57.74-.85,1.12l-.28.38c-.3.4-.59.8-.87,1.21l-.21.29c-.31.44-.61.89-.91,1.34l-.06.09C6.09,43.23,1,58.07,1,71.57c0,12,4,20.47,10.32,24.11h0l12.94,7.47h0c5.23,3,12.05,2.75,19.51-1.56,16.48-9.51,29.83-35,29.83-57C73.64,32.58,69.64,24.13,63.32,20.48Z"/><path class="cls-2" d="M44.31,29.79C31,37.48,20.14,58.24,20.14,76.06a29.34,29.34,0,0,0,2.65,13,20.29,20.29,0,0,0,7.58-2.71C43.7,78.68,54.54,57.92,54.54,40.1a29.32,29.32,0,0,0-2.65-13A20,20,0,0,0,44.31,29.79Z"/><path class="cls-3" d="M44.31,29.79C31,37.48,20.14,58.24,20.14,76.06a29.34,29.34,0,0,0,2.65,13,20.29,20.29,0,0,0,7.58-2.71C43.7,78.68,54.54,57.92,54.54,40.1a29.32,29.32,0,0,0-2.65-13A20,20,0,0,0,44.31,29.79Z"/><rect class="cls-7" width="120" height="120"/><rect class="cls-7" width="120" height="120"/></g></g></svg>