<svg xmlns="http://www.w3.org/2000/svg" xmlns:xlink="http://www.w3.org/1999/xlink" viewBox="0 0 120 120.5"><defs><style>.cls-1,.cls-13,.cls-18,.cls-19,.cls-4,.cls-7,.cls-8{fill:none;}.cls-17,.cls-2{fill:#91d2fb;}.cls-11,.cls-18,.cls-2{stroke:#91d2fb;}.cls-11,.cls-13,.cls-16,.cls-18,.cls-19,.cls-2,.cls-3,.cls-4,.cls-5,.cls-6,.cls-7,.cls-8,.cls-9{stroke-linecap:round;stroke-linejoin:round;stroke-width:2px;}.cls-3{fill:#d5dae0;}.cls-3,.cls-4,.cls-5,.cls-9{stroke:#b8bfca;}.cls-5,.cls-6{fill:#b8bfca;}.cls-6{stroke:#d5dae0;}.cls-7{stroke:#fff;}.cls-8{stroke:#627386;}.cls-12,.cls-9{fill:#fff;}.cls-10{clip-path:url(#clip-path);}.cls-11,.cls-14{fill:#bde4fd;}.cls-13,.cls-16{stroke:#1b6dc6;}.cls-15{clip-path:url(#clip-path-2);}.cls-16{fill:#1b6dc6;}.cls-19{stroke:#bde4fd;}</style><clipPath id="clip-path"><path class="cls-1" d="M115.33,42.82s-1.89,40.51-2.86,40.51S71.89,59.85,71.89,59.85,55.83,61.46,55,61.48s-23.5-8-25-20.65S21.5.5,21.5.5h93.83L118,35.62Z"/></clipPath><clipPath id="clip-path-2"><path class="cls-1" d="M99.26,9c-1.32-.77-3-.71-4.93.38-4.15,2.4-7.52,8.84-7.52,14.39l6.29,78L47.22,61.6,42,24.86l9.19-16.4L74.28,5.67l25.93-.77Z"/></clipPath></defs><title>manufacturing</title><g id="Layer_2" data-name="Layer 2"><g id="Industries"><line class="cls-2" x1="83.72" y1="50.07" x2="83.72" y2="81.47"/><path class="cls-3" d="M118,93.91c0-4.08-2.48-8.81-5.54-10.58l-69-39.85a3.53,3.53,0,0,0-3.62-.28h0L3.91,63.93l76.27,55.2,35.91-20.74h0C117.26,97.71,118,96.15,118,93.91Z"/><line class="cls-4" x1="102.21" y1="77.41" x2="66.29" y2="98.14"/><line class="cls-4" x1="87.03" y1="68.64" x2="50.6" y2="89.67"/><line class="cls-4" x1="71.89" y1="59.85" x2="36.51" y2="80.28"/><line class="cls-4" x1="56.66" y1="51.11" x2="20.74" y2="71.85"/><path class="cls-5" d="M80.18,119.13l35.91-20.74h0c1.17-.68,1.92-2.24,1.92-4.48A13.94,13.94,0,0,0,116,87L71.72,112.55Z"/><path class="cls-5" d="M76.55,118.84,7.53,79C4.47,77.22,2,72.48,2,68.4H2c0-4.07,2.48-6,5.54-4.18l69,39.85c3.06,1.76,5.54,6.5,5.54,10.58h0C82.09,118.73,79.61,120.6,76.55,118.84Z"/><path class="cls-6" d="M77.55,117.1l-69-39.85C6.07,75.83,4,71.78,4,68.4"/><path class="cls-7" d="M76.55,118.84,7.53,79C4.47,77.22,2,72.48,2,68.4H2c0-4.07,2.48-6,5.54-4.18l69,39.85c3.06,1.76,5.54,6.5,5.54,10.58h0C82.09,118.73,79.61,120.6,76.55,118.84Z"/><path class="cls-8" d="M118,93.91c0-.27,0-.55,0-.83l0-.26c0-.2,0-.39-.07-.58s0-.21-.05-.31-.07-.36-.11-.54,0-.21-.07-.32-.09-.36-.15-.54,0-.2-.09-.3-.12-.38-.19-.56l-.09-.27c-.08-.21-.17-.41-.25-.62a1.54,1.54,0,0,1-.08-.19,11.61,11.61,0,0,0-4.32-5.26l-69-39.85a3.53,3.53,0,0,0-3.62-.28h0L3.91,63.93h0C2.74,64.61,2,66.17,2,68.4,2,72.48,4.47,77.22,7.53,79l69,39.84h0a3.56,3.56,0,0,0,3.62.28h0l35.91-20.74h0C117.26,97.71,118,96.15,118,93.91Z"/><polygon class="cls-5" points="74.28 76.03 61.38 83.48 61.38 75.25 74.28 67.8 74.28 76.03"/><polygon class="cls-3" points="61.38 75.25 48.48 67.8 48.48 76.03 61.38 83.48 61.38 75.25"/><polygon class="cls-9" points="74.28 67.8 61.38 60.35 48.48 67.8 61.38 75.25 74.28 67.8"/><polygon class="cls-8" points="61.38 60.35 48.48 67.8 48.48 76.03 61.38 83.48 74.28 76.03 74.28 67.8 61.38 60.35"/><line class="cls-8" x1="9.05" y1="72.48" x2="75.04" y2="110.58"/><g class="cls-10"><path class="cls-2" d="M88.17,99.31h0c-4.16,2.4-7.53-.15-7.53-5.7V20.19c0-5.54,3.37-12,7.53-14.39h0c4.16-2.4,7.53.15,7.53,5.7V84.92C95.7,90.47,92.33,96.91,88.17,99.31Z"/><path class="cls-11" d="M98.9,20.28h0c-1.45,4.21-4.68,7.22-7.2,6.74h0c-2.53-.49-3.39-4.29-1.94-8.5h0c1.46-4.2,4.69-7.22,7.21-6.73h0C99.5,12.27,100.36,16.08,98.9,20.28Z"/><path class="cls-11" d="M99.26,9h0c-1.32-.77-3-.71-4.93.38-4.15,2.4-7.52,8.84-7.52,14.39v19.8L80.64,40V20.19c0-5.54,3.37-12,7.53-14.39,1.89-1.08,3.6-1.15,4.92-.38h0L87.22,2h0c-1.32-.76-3-.7-4.93.39-4.16,2.4-7.53,8.84-7.53,14.39V90.22c0,3,1,5.16,2.61,6.08h0l5.88,3.39h0c-1.59-.92-2.6-3-2.6-6.08V90.48L86.81,94v3.13c0,3,1,5.16,2.6,6.08h0l5.88,3.4.3-4.67a18.71,18.71,0,0,0,6.27-13.51V23.82l3.28-11.46Z"/><path class="cls-12" d="M99.26,9h0c-1.32-.77-3-.71-4.93.38-3.07,1.78-5.71,5.76-6.88,10l14.41,8.32V23.82l3.28-11.46Z"/><path class="cls-12" d="M75.41,12.36l5.88,3.4c1.17-4.2,3.81-8.18,6.88-10,1.89-1.08,3.6-1.15,4.92-.38h0L87.22,2h0c-1.32-.76-3-.7-4.93.39C79.22,4.18,76.58,8.17,75.41,12.36Z"/><line class="cls-13" x1="86.81" y1="43.55" x2="80.64" y2="39.99"/><path class="cls-13" d="M80.64,40V20.19c0-5.54,3.37-12,7.53-14.39h0c3.36-1.94,6.21-.64,7.18,2.86"/><path class="cls-2" d="M100.21,106.26h0c-4.15,2.4-7.52-.15-7.52-5.69V27.14c0-5.54,3.37-12,7.52-14.38h0c4.16-2.4,7.53.15,7.53,5.69V91.87C107.74,97.42,104.37,103.86,100.21,106.26Z"/><path class="cls-14" d="M100.21,26.44h0c-1.5.87-2.73-.06-2.73-2.07h0a6.55,6.55,0,0,1,2.73-5.21h0c1.51-.88,2.74.05,2.74,2.06h0A6.55,6.55,0,0,1,100.21,26.44Z"/><path class="cls-13" d="M105.14,12.37h0L99.26,9h0a4.36,4.36,0,0,0-3.87-.12,5.25,5.25,0,0,0-2.3-3.44h0L87.22,2h0c-1.32-.76-3-.7-4.93.39-4.16,2.4-7.53,8.84-7.53,14.39V90.22c0,3,1,5.16,2.61,6.08h0l5.88,3.39h0a4.39,4.39,0,0,0,3.88.12,5.27,5.27,0,0,0,2.29,3.44h0l5.88,3.4h0c1.32.76,3,.7,4.92-.39h0c4.16-2.4,7.53-8.84,7.53-14.39V18.45C107.74,15.42,106.73,13.29,105.14,12.37Z"/><g class="cls-15"><path class="cls-16" d="M49.87,46v5.36c0,3.18,4.48,5.77,10,5.77s10-2.59,10-5.77V46Z"/><path class="cls-17" d="M49.87,46v5.36c0,3.18,4.48,5.77,10,5.77V46Z"/><ellipse class="cls-14" cx="59.87" cy="45.96" rx="10" ry="5.77"/><path class="cls-13" d="M59.87,40.18c-5.52,0-10,2.59-10,5.78v5.36c0,3.18,4.48,5.77,10,5.77s10-2.59,10-5.77V46C69.87,42.77,65.4,40.18,59.87,40.18Z"/><path class="cls-14" d="M56.93,22.23V45.16c0,.93,1.32,1.69,2.94,1.69s2.94-.76,2.94-1.69V22.23Z"/><path class="cls-17" d="M56.93,27.52V38.71c0,.94,1.32,1.7,2.94,1.7s2.94-.76,2.94-1.7V27.52Z"/><path class="cls-18" d="M56.93,22.23V45.16c0,.93,1.32,1.69,2.94,1.69s2.94-.76,2.94-1.69V22.23Z"/><path class="cls-13" d="M56.93,22.23V45.16c0,.93,1.32,1.69,2.94,1.69s2.94-.76,2.94-1.69V22.23Z"/><path class="cls-11" d="M97.26,14.09,91.1,10.53h0A2.9,2.9,0,0,0,89,10.26L53.86,18c-2.81.62-5.71,4.52-6.46,8.7h0c-.54,3,.17,5.34,1.65,6.19h0l6.17,3.56,7.31-4.86,24.94-5.47c2.82-.62,5.71-4.52,6.46-8.7a10.54,10.54,0,0,0,.18-2Z"/><path class="cls-12" d="M93.92,17.41a10.54,10.54,0,0,0,.18-2l3.16-1.29L91.1,10.53h0A2.9,2.9,0,0,0,89,10.26L53.86,18a7.71,7.71,0,0,0-4.19,3.28l16.5,9.52,21.29-4.67C90.28,25.49,93.17,21.59,93.92,17.41Z"/><path class="cls-18" d="M97.26,14.09,91.1,10.53h0A2.9,2.9,0,0,0,89,10.26L53.86,18c-2.81.62-5.71,4.52-6.46,8.7h0c-.54,3,.17,5.34,1.65,6.19h0l6.17,3.56,7.31-4.86,24.94-5.47c2.82-.62,5.71-4.52,6.46-8.7a10.54,10.54,0,0,0,.18-2Z"/><path class="cls-2" d="M98.9,20.28h0c-.75,4.19-3.64,8.09-6.46,8.71L57.29,36.71c-2.81.61-4.48-2.28-3.73-6.47h0c.76-4.18,3.65-8.08,6.46-8.7l35.15-7.72C98,13.2,99.66,16.09,98.9,20.28Z"/><path class="cls-13" d="M97.25,14.09h0L91.1,10.53h0A2.9,2.9,0,0,0,89,10.26L53.86,18c-2.81.62-5.71,4.52-6.46,8.7h0c-.54,3,.17,5.34,1.65,6.19h0l6.17,3.56h0a2.82,2.82,0,0,0,2.07.28L92.44,29c2.82-.62,5.71-4.52,6.46-8.71C99.44,17.27,98.73,14.94,97.25,14.09Z"/><line class="cls-19" x1="87.64" y1="22.75" x2="64.82" y2="27.77"/></g><path class="cls-13" d="M99.26,9c-1.32-.77-3-.71-4.93.38-4.15,2.4-7.52,8.84-7.52,14.39v19.8"/></g><line class="cls-8" x1="70.26" y1="58.96" x2="112.47" y2="83.33"/><rect class="cls-1" width="120" height="120"/><rect class="cls-1" width="120" height="120"/></g></g></svg>