<svg xmlns="http://www.w3.org/2000/svg" viewBox="0 0 120 120"><defs><style>.cls-1,.cls-6{fill:#d5dae0;}.cls-1,.cls-2,.cls-7{stroke:#b8bfca;}.cls-1,.cls-10,.cls-11,.cls-12,.cls-2,.cls-3,.cls-4,.cls-6,.cls-7,.cls-8,.cls-9{stroke-linecap:round;stroke-linejoin:round;stroke-width:2px;}.cls-2{fill:#b8bfca;}.cls-12,.cls-13,.cls-3,.cls-7,.cls-8{fill:none;}.cls-3,.cls-4{stroke:#627386;}.cls-4{fill:#627386;}.cls-10,.cls-5{fill:#fff;}.cls-6{stroke:#d5dae0;}.cls-10,.cls-11,.cls-8,.cls-9{stroke:#91d2fb;}.cls-9{fill:#bde4fd;}.cls-11{fill:#91d2fb;}.cls-12{stroke:#1b6dc6;}</style></defs><title>marketplace</title><g id="Layer_2" data-name="Layer 2"><g id="Industries"><polygon class="cls-1" points="11.99 92.81 11.99 99.27 23.28 105.79 23.28 99.33 11.99 92.81"/><polygon class="cls-2" points="34.57 92.81 34.57 99.27 23.28 105.79 23.28 99.33 34.57 92.81"/><polygon class="cls-3" points="23.28 99.33 11.99 92.81 11.99 99.27 23.28 105.79 34.57 99.27 34.57 92.81 23.28 99.33"/><polygon class="cls-4" points="80.35 79.78 80.35 86.23 91.64 92.75 91.64 86.3 80.35 79.78"/><polygon class="cls-2" points="102.92 79.78 102.92 86.23 91.64 92.75 91.64 86.3 102.92 79.78"/><polygon class="cls-2" points="91.64 86.3 80.35 79.78 80.35 86.23 91.64 92.75 102.92 86.23 102.92 79.78 91.64 86.3"/><polygon class="cls-1" points="80.35 79.78 80.35 86.23 91.64 92.75 91.64 86.3 80.35 79.78"/><polygon class="cls-3" points="91.64 86.3 80.35 79.78 80.35 86.23 91.64 92.75 102.92 86.23 102.92 79.78 91.64 86.3"/><polygon class="cls-1" points="34.88 106.03 34.88 112.48 46.17 119 46.17 112.55 34.88 106.03"/><polygon class="cls-2" points="57.46 106.03 57.46 112.48 46.17 119 46.17 112.55 57.46 106.03"/><polygon class="cls-3" points="46.17 112.55 34.88 106.03 34.88 112.48 46.17 119 57.46 112.48 57.46 106.03 46.17 112.55"/><path class="cls-5" d="M102.92,69.08,68.75,35.3,12,68.06V92.81l34.18,19.74,56.75-32.77V69.08Z"/><polygon class="cls-5" points="19.52 69.03 68.01 41.03 95.4 68.11 46.91 96.11 19.52 69.03"/><polygon class="cls-6" points="79.42 65.78 66.08 42.66 21.04 68.66 23.57 73.04 39.53 88.81 79.42 65.78"/><polygon class="cls-7" points="19.52 69.03 68.01 41.03 95.4 68.11 46.91 96.11 19.52 69.03"/><polygon class="cls-2" points="102.92 69.08 102.92 79.78 46.17 112.55 46.17 101.84 102.92 69.08"/><polygon class="cls-1" points="11.99 68.06 11.99 92.81 46.17 112.55 46.17 101.84 11.99 68.06"/><path class="cls-3" d="M102.92,69.08,68.75,35.3,12,68.06V92.81l34.18,19.74,56.75-32.77V69.08Z"/><polygon class="cls-2" points="68.01 41.03 19.52 69.03 35.33 84.66 68.01 65.78 68.01 41.03"/><polygon class="cls-1" points="83.72 74.85 95.4 68.11 68.01 41.03 68.01 65.78 83.72 74.85"/><polygon class="cls-2" points="68.01 41.03 73.71 69.08 68.01 65.78 68.01 41.03"/><polygon class="cls-1" points="11.99 68.06 11.99 33.8 15.99 36.29 15.99 71.99 11.99 68.06"/><polygon class="cls-2" points="15.99 71.99 19.3 70.08 19.3 34.56 15.99 36.29 15.99 71.99"/><polyline class="cls-3" points="19.3 63.72 19.3 34.56 15.99 36.29 11.99 33.8 11.99 73.92"/><polygon class="cls-8" points="108.01 37.81 108.01 34.84 68.81 1 76.92 34.77 108.01 37.81"/><polygon class="cls-9" points="96.64 44.37 96.64 41.4 57.44 7.56 65.55 43.37 96.64 44.37"/><path class="cls-10" d="M68.81,1,57.44,7.56,96.64,41.4v3c0,4.19,2.55,6.11,5.69,4.3S108,42,108,37.81v-3Z"/><path class="cls-9" d="M96.64,44.37c0,4.19,2.55,6.11,5.69,4.3S108,42,108,37.81v-3L96.64,41.4Z"/><polygon class="cls-8" points="96.64 44.37 96.64 41.4 57.44 7.56 65.55 41.34 96.64 44.37"/><polygon class="cls-11" points="85.28 50.93 85.28 47.96 46.08 14.12 54.19 49.93 85.28 50.93"/><path class="cls-9" d="M57.44,7.56,46.08,14.12,85.28,48v3c0,4.19,2.54,6.11,5.68,4.3s5.68-6.67,5.68-10.86v-3Z"/><path class="cls-11" d="M85.28,50.93c0,4.19,2.54,6.11,5.68,4.3s5.68-6.67,5.68-10.86v-3L85.28,48Z"/><polygon class="cls-8" points="85.28 50.93 85.28 47.96 46.08 14.12 62.89 55.25 85.28 50.93"/><polygon class="cls-9" points="73.92 57.49 73.92 54.52 34.72 20.68 51.52 63.85 73.92 57.49"/><path class="cls-10" d="M46.08,14.12,34.72,20.68l39.2,33.84v3c0,4.19,2.54,6.11,5.68,4.3s5.68-6.67,5.68-10.86V48Z"/><path class="cls-9" d="M73.92,57.49c0,4.19,2.54,6.11,5.68,4.3s5.68-6.67,5.68-10.86V48L73.92,54.52Z"/><polygon class="cls-8" points="73.92 57.49 73.92 54.52 34.72 20.68 51.52 61.81 73.92 57.49"/><path class="cls-9" d="M34.72,20.68,23.36,27.24l39.2,33.84v3c0,4.19,2.54,6.11,5.68,4.3s5.68-6.67,5.68-10.86v-3Z"/><path class="cls-11" d="M62.56,64.05c0,4.19,2.54,6.11,5.68,4.3s5.68-6.67,5.68-10.86v-3L62.56,61.08Z"/><path class="cls-10" d="M23.36,27.24,12,33.8l39.2,33.84v3c0,4.19,2.55,6.11,5.69,4.3s5.68-6.67,5.68-10.86v-3Z"/><path class="cls-9" d="M51.19,70.61c0,4.19,2.55,6.11,5.69,4.3s5.68-6.67,5.68-10.86v-3L51.19,67.64Z"/><path class="cls-12" d="M68.81,1h0L57.44,7.56h0L46.08,14.12h0L34.72,20.68h0L23.36,27.24h0L12,33.8l39.2,33.84h0v3c0,4.19,2.55,6.11,5.69,4.3a8.47,8.47,0,0,0,1.68-1.32,14.37,14.37,0,0,0,4-9.54h0c0,2.89,1.21,4.7,3,5a3.31,3.31,0,0,0,1,0,4.89,4.89,0,0,0,1.69-.63c3.14-1.81,5.68-6.67,5.68-10.86,0,4.19,2.54,6.11,5.68,4.3a8.24,8.24,0,0,0,1.69-1.32c.18-.18.35-.36.52-.55a14,14,0,0,0,1-1.26,16.38,16.38,0,0,0,.84-1.41,15.08,15.08,0,0,0,1.21-3.11,12.36,12.36,0,0,0,.45-3.21c0,4.19,2.54,6.11,5.68,4.3a9,9,0,0,0,2.21-1.88A13.38,13.38,0,0,0,95,50.69c.13-.25.25-.5.37-.75a13.76,13.76,0,0,0,1.29-5.57c0,3.14,1.43,5,3.47,5a4.67,4.67,0,0,0,2.22-.68C105.46,46.86,108,42,108,37.81v-3Z"/><line class="cls-3" x1="19.3" y1="63.72" x2="22.88" y2="61.77"/><rect class="cls-13" width="120" height="120"/><rect class="cls-13" width="120" height="120"/></g></g></svg>