<svg xmlns="http://www.w3.org/2000/svg" viewBox="0 0 120 120"><defs><style>.cls-1,.cls-12,.cls-2,.cls-7{fill:none;}.cls-1,.cls-2{stroke:#1b6dc6;}.cls-1,.cls-10,.cls-11,.cls-2,.cls-3,.cls-5,.cls-6,.cls-7,.cls-8,.cls-9{stroke-linecap:round;stroke-linejoin:round;stroke-width:2px;}.cls-2{stroke-dasharray:0 5.55;}.cls-3{fill:#d5dae0;}.cls-11,.cls-3,.cls-5{stroke:#b8bfca;}.cls-11,.cls-4,.cls-6{fill:#b8bfca;}.cls-5,.cls-8{fill:#fff;}.cls-6{stroke:#d5dae0;}.cls-7{stroke:#627386;}.cls-10,.cls-8,.cls-9{stroke:#91d2fb;}.cls-9{fill:#91d2fb;}.cls-10{fill:#bde4fd;}</style></defs><title>micro-segmentation</title><g id="Layer_2" data-name="Layer 2"><g id="Tech_Concepts" data-name="Tech Concepts"><line class="cls-1" x1="75.48" y1="28.35" x2="75.48" y2="28.35"/><line class="cls-2" x1="75.48" y1="33.89" x2="75.48" y2="42.22"/><line class="cls-1" x1="75.48" y1="44.99" x2="75.48" y2="44.99"/><line class="cls-1" x1="44.52" y1="28.35" x2="44.52" y2="28.35"/><line class="cls-2" x1="44.52" y1="33.89" x2="44.52" y2="42.22"/><line class="cls-1" x1="44.52" y1="44.99" x2="44.52" y2="44.99"/><path class="cls-3" d="M77.69,82,63.23,73.61a7.14,7.14,0,0,0-6.46,0L42.31,82H20v14a2.27,2.27,0,0,0,1.34,1.86l35.41,20.45a7.14,7.14,0,0,0,6.46,0L98.64,97.78A2.27,2.27,0,0,0,100,95.92V82Z"/><path class="cls-4" d="M63.23,118.23,98.64,97.78A2.27,2.27,0,0,0,100,95.92V82H77.69L63.23,73.61A6.65,6.65,0,0,0,60,72.84V119A6.65,6.65,0,0,0,63.23,118.23Z"/><line class="cls-3" x1="44.3" y1="104.58" x2="33.83" y2="98.54"/><path class="cls-5" d="M98.64,80.1,63.23,59.66a7.14,7.14,0,0,0-6.46,0L21.36,80.1c-1.78,1-1.78,2.7,0,3.73l35.41,20.44a7.14,7.14,0,0,0,6.46,0L98.64,83.83C100.42,82.8,100.42,81.13,98.64,80.1Z"/><polygon class="cls-6" points="90.35 102.57 71.64 113.37 71.64 106.92 90.35 96.12 90.35 102.57"/><path class="cls-7" d="M98.64,80.1,63.23,59.66a7.14,7.14,0,0,0-6.46,0L21.36,80.1A2.28,2.28,0,0,0,20,82v14a2.27,2.27,0,0,0,1.34,1.86l35.41,20.45a7.16,7.16,0,0,0,6.46,0L98.64,97.78A2.27,2.27,0,0,0,100,95.92V82A2.28,2.28,0,0,0,98.64,80.1Z"/><ellipse class="cls-4" cx="90.84" cy="81.97" rx="1.81" ry="1.05"/><ellipse class="cls-4" cx="60" cy="99.77" rx="1.81" ry="1.05"/><ellipse class="cls-4" cx="60" cy="64.16" rx="1.81" ry="1.05"/><ellipse class="cls-4" cx="29.16" cy="81.97" rx="1.81" ry="1.05"/><polygon class="cls-8" points="75.48 9.94 60 18.88 44.52 9.94 60 1 75.48 9.94"/><polygon class="cls-9" points="75.48 9.94 75.48 28.35 60 37.28 60 18.88 75.48 9.94"/><polygon class="cls-10" points="44.52 9.94 44.52 28.35 60 37.28 60 18.88 44.52 9.94"/><polygon class="cls-1" points="60 1 44.52 9.94 44.52 28.35 60 37.28 75.48 28.35 75.48 9.94 60 1"/><polygon class="cls-5" points="60 53.93 44.52 62.87 29.04 53.93 44.52 44.99 60 53.93"/><polygon class="cls-11" points="60 53.93 60 72.33 44.52 81.27 44.52 62.87 60 53.93"/><polygon class="cls-3" points="29.04 53.93 29.04 72.33 44.52 81.27 44.52 62.87 29.04 53.93"/><polygon class="cls-7" points="44.52 44.99 29.04 53.93 29.04 72.33 44.52 81.27 60 72.33 60 53.93 44.52 44.99"/><polygon class="cls-3" points="60 53.93 60 72.33 75.48 81.27 75.48 62.87 60 53.93"/><polygon class="cls-7" points="75.48 44.99 60 53.93 60 72.33 75.48 81.27 90.96 72.33 90.96 53.93 75.48 44.99"/><polygon class="cls-5" points="90.96 53.93 75.48 44.99 60 53.93 44.52 62.87 60 71.8 75.48 62.87 75.48 62.87 75.48 62.87 90.96 53.93"/><polygon class="cls-11" points="75.48 62.87 75.48 62.87 60 71.8 60 90.21 75.48 81.27 75.48 81.27 90.96 72.33 90.96 53.93 75.48 62.87"/><polygon class="cls-3" points="44.52 62.87 44.52 81.27 60 90.21 60 71.8 44.52 62.87"/><polygon class="cls-7" points="75.48 44.99 44.52 62.87 44.52 81.27 60 90.21 90.96 72.33 90.96 53.93 75.48 44.99"/><rect class="cls-12" width="120" height="120"/><rect class="cls-12" width="120" height="120"/></g></g></svg>