<svg xmlns="http://www.w3.org/2000/svg" viewBox="0 0 120 120"><defs><style>.cls-1{fill:#fff;}.cls-2{fill:#d5dae0;}.cls-3,.cls-4,.cls-7,.cls-8{fill:none;}.cls-3{stroke:#b8bfca;}.cls-3,.cls-4,.cls-6,.cls-7{stroke-linecap:round;stroke-linejoin:round;stroke-width:2px;}.cls-4{stroke:#627386;}.cls-5,.cls-6{fill:#bde4fd;}.cls-6{stroke:#91d2fb;}.cls-7{stroke:#1b6dc6;}</style></defs><title>multi-cloud</title><g id="Layer_2" data-name="Layer 2"><g id="New_Icon_Set" data-name="New Icon Set"><path class="cls-1" d="M116.31,59.12h0l-11.64-6.73h0c-1.36-.78-3.14-.72-5.08.4l-.85.49-10-5.76h0c-2.27-1.31-5.23-1.19-8.47.68-6.77,3.91-12.32,14-12.9,23.19L61,75.09c-4.29,2.48-7.77,9.13-7.77,14.85h0c0,3.14,1,5.33,2.69,6.28h0L67.54,103h0c1.36.79,3.14.72,5.08-.4l38.61-22.29c4.29-2.48,7.77-9.13,7.77-14.85h0C119,62.27,118,60.07,116.31,59.12Z"/><path class="cls-2" d="M111.23,59.53l-6.4,3.69c-.59-8.48-6.14-12.19-12.91-8.28S79.61,69,79,78.12l-6.4,3.7C68.33,84.3,64.85,91,64.85,96.67s3.48,8.35,7.77,5.88l38.61-22.29c4.29-2.48,7.77-9.13,7.77-14.85h0C119,59.68,115.52,57.05,111.23,59.53Z"/><path class="cls-3" d="M111.23,59.53l-6.4,3.69c-.59-8.48-6.14-12.19-12.91-8.28S79.61,69,79,78.12l-6.4,3.7C68.33,84.3,64.85,91,64.85,96.67"/><path class="cls-4" d="M116.31,59.12h0l-11.64-6.73h0c-1.36-.78-3.14-.72-5.08.4l-.85.49-10-5.76h0c-2.27-1.31-5.23-1.19-8.47.68-6.77,3.91-12.32,14-12.9,23.19L61,75.09c-4.29,2.48-7.77,9.13-7.77,14.85h0c0,3.14,1,5.33,2.69,6.28h0L67.54,103h0c1.36.79,3.14.72,5.08-.4l38.61-22.29c4.29-2.48,7.77-9.13,7.77-14.85h0C119,62.27,118,60.07,116.31,59.12Z"/><path class="cls-1" d="M64.11,29h0L52.46,22.26h0c-1.37-.78-3.14-.72-5.08.41l-.85.48-10-5.76h0c-2.27-1.31-5.23-1.19-8.47.68C21.31,22,15.76,32.1,15.17,41.26L8.77,45C4.48,47.43,1,54.08,1,59.81H1c0,3.13,1,5.32,2.69,6.27h0l11.64,6.73h0c1.36.79,3.14.72,5.08-.4L59,50.12C63.32,47.64,66.8,41,66.8,35.27h0C66.8,32.14,65.76,29.93,64.11,29Z"/><path class="cls-5" d="M59,29.39l-6.41,3.7c-.58-8.49-6.13-12.2-12.9-8.29S27.41,38.83,26.82,48l-6.4,3.7c-4.29,2.48-7.77,9.13-7.77,14.85s3.48,8.36,7.77,5.88L59,50.12C63.32,47.64,66.8,41,66.8,35.27h0C66.8,29.54,63.32,26.91,59,29.39Z"/><path class="cls-6" d="M59,29.39l-6.41,3.7c-.58-8.49-6.13-12.2-12.9-8.29S27.41,38.83,26.82,48l-6.4,3.7c-4.29,2.48-7.77,9.13-7.77,14.85"/><path class="cls-7" d="M64.11,29h0L52.46,22.26h0c-1.37-.78-3.14-.72-5.08.41l-.85.48-10-5.76h0c-2.27-1.31-5.23-1.19-8.47.68C21.31,22,15.76,32.1,15.17,41.26L8.77,45C4.48,47.43,1,54.08,1,59.81H1c0,3.13,1,5.32,2.69,6.27h0l11.64,6.73h0c1.36.79,3.14.72,5.08-.4L59,50.12C63.32,47.64,66.8,41,66.8,35.27h0C66.8,32.14,65.76,29.93,64.11,29Z"/><rect class="cls-8" width="120" height="120"/><rect class="cls-8" width="120" height="120"/></g></g></svg>