<svg xmlns="http://www.w3.org/2000/svg" viewBox="0 0 120 120"><defs><style>.cls-1,.cls-4{fill:#fff;}.cls-1{stroke:#b8bfca;}.cls-1,.cls-2,.cls-3,.cls-4,.cls-5,.cls-6,.cls-7,.cls-8{stroke-linecap:round;stroke-linejoin:round;stroke-width:2px;}.cls-2,.cls-6,.cls-7,.cls-8,.cls-9{fill:none;}.cls-2{stroke:#1b6dc6;}.cls-3{fill:#bde4fd;}.cls-3,.cls-4,.cls-5{stroke:#91d2fb;}.cls-5{fill:#91d2fb;}.cls-6,.cls-7,.cls-8{stroke:#627386;}.cls-7{stroke-dasharray:0 5.9;}.cls-8{stroke-dasharray:0 5.9;}</style></defs><title>nfv</title><g id="Layer_2" data-name="Layer 2"><g id="Tech_Concepts" data-name="Tech Concepts"><polygon class="cls-1" points="111.1 89.5 95.78 98.34 80.45 89.5 80.45 71.81 95.78 62.96 111.1 71.81 111.1 89.5"/><polygon class="cls-1" points="111.1 71.81 95.78 80.65 80.45 71.81 80.45 71.81 95.78 62.96 111.1 71.81 111.1 71.81"/><polygon class="cls-1" points="95.78 80.65 95.78 98.34 111.1 89.5 111.1 71.81 95.78 80.65"/><polygon class="cls-1" points="111.1 48.19 95.78 57.04 80.45 48.19 80.45 30.5 95.78 21.66 111.1 30.5 111.1 48.19"/><polygon class="cls-1" points="111.1 30.5 95.78 39.35 80.45 30.5 80.45 30.5 95.78 21.66 111.1 30.5 111.1 30.5"/><polygon class="cls-1" points="95.78 39.35 95.78 57.04 111.1 48.19 111.1 30.5 95.78 39.35"/><polygon class="cls-1" points="75.32 27.54 60 36.38 44.68 27.54 44.68 9.85 60 1 75.32 9.85 75.32 27.54"/><polygon class="cls-1" points="75.32 9.85 60 18.69 44.68 9.85 44.68 9.85 60 1 75.32 9.85 75.32 9.85"/><polygon class="cls-1" points="60 18.69 60 36.38 75.32 27.54 75.32 9.85 60 18.69"/><polygon class="cls-1" points="39.55 48.19 24.23 57.04 8.9 48.19 8.9 30.5 24.23 21.66 39.55 30.5 39.55 48.19"/><polygon class="cls-1" points="39.55 30.5 24.23 39.35 8.9 30.5 8.9 30.5 24.23 21.66 39.55 30.5 39.55 30.5"/><polygon class="cls-1" points="24.23 39.35 24.23 57.04 39.55 48.19 39.55 30.5 24.23 39.35"/><polygon class="cls-1" points="39.55 89.5 24.23 98.34 8.9 89.5 8.9 71.81 24.23 62.96 39.55 71.81 39.55 89.5"/><polygon class="cls-1" points="39.55 71.81 24.23 80.66 8.9 71.81 8.9 71.81 24.23 62.96 39.55 71.81 39.55 71.81"/><polygon class="cls-1" points="24.23 80.66 24.23 98.34 39.55 89.5 39.55 71.81 24.23 80.66"/><line class="cls-2" x1="39.55" y1="48.19" x2="80.45" y2="71.81"/><line class="cls-2" x1="60" y1="83.62" x2="60" y2="77.69"/><line class="cls-2" x1="60" y1="60" x2="60" y2="36.38"/><line class="cls-2" x1="80.45" y1="48.19" x2="39.78" y2="71.68"/><polygon class="cls-3" points="75.32 68.84 60 77.69 44.68 68.84 44.68 51.16 60 42.31 75.32 51.16 75.32 68.84"/><polygon class="cls-4" points="75.32 51.16 60 60 44.68 51.16 44.68 51.16 60 42.31 75.32 51.16 75.32 51.16"/><polygon class="cls-5" points="60 60 60 77.69 75.32 68.84 75.32 51.16 60 60"/><polygon class="cls-2" points="60 42.31 44.68 51.16 44.68 68.84 60 77.69 75.32 68.84 75.32 51.16 60 42.31"/><line class="cls-6" x1="60" y1="1" x2="60" y2="1"/><line class="cls-7" x1="54.89" y1="3.95" x2="11.46" y2="29.03"/><line class="cls-6" x1="8.9" y1="30.5" x2="8.9" y2="30.5"/><line class="cls-8" x1="8.9" y1="36.4" x2="8.9" y2="86.55"/><line class="cls-6" x1="8.9" y1="89.5" x2="8.9" y2="89.5"/><line class="cls-7" x1="14.01" y1="92.45" x2="57.45" y2="117.52"/><line class="cls-6" x1="60" y1="119" x2="60" y2="119"/><line class="cls-7" x1="65.11" y1="116.05" x2="108.54" y2="90.97"/><line class="cls-6" x1="111.1" y1="89.5" x2="111.1" y2="89.5"/><line class="cls-8" x1="111.1" y1="83.6" x2="111.1" y2="33.45"/><line class="cls-6" x1="111.1" y1="30.5" x2="111.1" y2="30.5"/><line class="cls-7" x1="105.99" y1="27.55" x2="62.55" y2="2.48"/><polygon class="cls-6" points="60 1 44.68 9.85 44.68 27.54 60 36.38 75.32 27.54 75.32 9.85 60 1"/><polygon class="cls-6" points="95.78 21.66 80.45 30.5 80.45 48.19 95.78 57.04 111.1 48.19 111.1 30.5 95.78 21.66"/><polygon class="cls-6" points="95.78 62.96 80.45 71.81 80.45 89.5 95.78 98.34 111.1 89.5 111.1 71.81 95.78 62.96"/><polygon class="cls-6" points="24.23 21.66 8.9 30.5 8.9 48.19 24.23 57.04 39.55 48.19 39.55 30.5 24.23 21.66"/><polygon class="cls-6" points="24.23 62.96 8.9 71.81 8.9 89.5 24.23 98.34 39.55 89.5 39.55 71.81 24.23 62.96"/><polygon class="cls-1" points="75.32 110.16 60 119 44.68 110.16 44.68 92.46 60 83.62 75.32 92.46 75.32 110.16"/><polygon class="cls-1" points="75.32 92.46 60 101.31 44.68 92.46 44.68 92.46 60 83.62 75.32 92.46 75.32 92.46"/><polygon class="cls-1" points="60 101.31 60 119 75.32 110.16 75.32 92.46 60 101.31"/><polygon class="cls-6" points="60 83.62 44.68 92.46 44.68 110.16 60 119 75.32 110.16 75.32 92.46 60 83.62"/><rect class="cls-9" width="120" height="120"/><rect class="cls-9" width="120" height="120"/></g></g></svg>