<svg xmlns="http://www.w3.org/2000/svg" viewBox="0 0 120 120"><defs><style>.cls-1,.cls-4,.cls-7{fill:#fff;}.cls-1,.cls-9{stroke:#91d2fb;}.cls-1,.cls-10,.cls-12,.cls-13,.cls-14,.cls-2,.cls-4,.cls-5,.cls-6,.cls-9{stroke-linecap:round;stroke-linejoin:round;stroke-width:2px;}.cls-11,.cls-2{fill:#d5dae0;}.cls-12,.cls-2,.cls-4{stroke:#b8bfca;}.cls-3,.cls-5{fill:#b8bfca;}.cls-5{stroke:#d5dae0;}.cls-10,.cls-12,.cls-13,.cls-14,.cls-15,.cls-6,.cls-9{fill:none;}.cls-6{stroke:#627386;}.cls-8{fill:#bde4fd;}.cls-10,.cls-13,.cls-14{stroke:#1b6dc6;}.cls-13{stroke-dasharray:0 5.76;}.cls-14{stroke-dasharray:0 7.33;}</style></defs><title>Nutanix-AHV</title><g id="Layer_2" data-name="Layer 2"><g id="Tech_Concepts" data-name="Tech Concepts"><path class="cls-1" d="M106.49,89,63.91,64.42a8.64,8.64,0,0,0-7.77,0L13.56,89c-2.14,1.24-2.14,3.24,0,4.48l42.58,24.58a8.58,8.58,0,0,0,7.77,0l42.58-24.58C108.63,92.25,108.63,90.25,106.49,89Z"/><path class="cls-2" d="M81.3,74.47l-17.39-10a8.64,8.64,0,0,0-7.77,0l-17.39,10H12V91.25a2.74,2.74,0,0,0,1.61,2.24l42.58,24.58a8.58,8.58,0,0,0,7.77,0l42.58-24.58a2.74,2.74,0,0,0,1.61-2.24V74.47Z"/><path class="cls-3" d="M63.91,118.07l42.58-24.58a2.74,2.74,0,0,0,1.61-2.24V74.47H81.3l-17.39-10A8.07,8.07,0,0,0,60,63.5V119A8,8,0,0,0,63.91,118.07Z"/><line class="cls-2" x1="41.15" y1="101.66" x2="28.56" y2="94.4"/><path class="cls-4" d="M106.49,72.23,63.91,47.64a8.64,8.64,0,0,0-7.77,0L13.56,72.23c-2.14,1.24-2.14,3.24,0,4.48l42.58,24.58a8.58,8.58,0,0,0,7.77,0l42.58-24.58C108.63,75.47,108.63,73.47,106.49,72.23Z"/><polygon class="cls-5" points="96.52 99.25 74.02 112.24 74.02 104.48 96.52 91.49 96.52 99.25"/><path class="cls-6" d="M106.49,72.23,63.91,47.64a8.64,8.64,0,0,0-7.77,0L13.56,72.23A2.74,2.74,0,0,0,12,74.47V91.25a2.74,2.74,0,0,0,1.61,2.24l42.58,24.58a8.58,8.58,0,0,0,7.77,0l42.58-24.58a2.74,2.74,0,0,0,1.61-2.24V74.47A2.74,2.74,0,0,0,106.49,72.23Z"/><ellipse class="cls-3" cx="97.1" cy="74.47" rx="2.18" ry="1.26"/><ellipse class="cls-3" cx="60.02" cy="95.88" rx="2.18" ry="1.26"/><ellipse class="cls-3" cx="60.02" cy="53.06" rx="2.18" ry="1.26"/><ellipse class="cls-3" cx="22.94" cy="74.47" rx="2.18" ry="1.26"/><path class="cls-7" d="M105.89,35.61h0L96.36,30.1h0a4.07,4.07,0,0,0-4.16.33l-.69.4-8.17-4.72h0c-1.86-1.07-4.28-1-6.93.56-5.54,3.2-10.09,11.48-10.56,19l-5.24,3c-3.51,2-6.36,7.47-6.36,12.15h0c0,2.57.85,4.36,2.2,5.14h0L66,71.48h0a4.08,4.08,0,0,0,4.16-.34L101.73,52.9c3.52-2,6.37-7.47,6.37-12.15h0C108.1,38.19,107.24,36.39,105.89,35.61Z"/><path class="cls-8" d="M101.73,35.94,96.5,39c-.48-6.95-5-10-10.56-6.79s-10.08,11.48-10.56,19l-5.24,3c-3.51,2-6.36,7.47-6.36,12.16s2.85,6.83,6.36,4.8L101.73,52.9c3.52-2,6.37-7.47,6.37-12.15h0C108.1,36.07,105.25,33.91,101.73,35.94Z"/><path class="cls-9" d="M101.73,35.94,96.5,39c-.48-6.95-5-10-10.56-6.79s-10.08,11.48-10.56,19l-5.24,3c-3.51,2-6.36,7.47-6.36,12.16"/><path class="cls-10" d="M105.89,35.61h0L96.36,30.1h0a4.07,4.07,0,0,0-4.16.33l-.69.4-8.17-4.72h0c-1.86-1.07-4.28-1-6.93.56-5.54,3.2-10.09,11.48-10.56,19l-5.24,3c-3.51,2-6.36,7.47-6.36,12.15h0c0,2.57.85,4.36,2.2,5.14h0L66,71.48h0a4.08,4.08,0,0,0,4.16-.34L101.73,52.9c3.52-2,6.37-7.47,6.37-12.15h0C108.1,38.19,107.24,36.39,105.89,35.61Z"/><path class="cls-7" d="M63.55,11.2h0L54,5.69h0A4.07,4.07,0,0,0,49.86,6l-.69.4L41,1.71h0c-1.86-1.07-4.29-1-6.94.56C28.53,5.47,24,13.75,23.5,21.24l-5.23,3c-3.52,2-6.37,7.47-6.37,12.15h0c0,2.57.86,4.36,2.21,5.14h0l9.54,5.5h0a4.08,4.08,0,0,0,4.16-.34L59.39,28.49c3.51-2,6.36-7.47,6.36-12.15h0C65.75,13.78,64.9,12,63.55,11.2Z"/><path class="cls-11" d="M59.39,11.53l-5.24,3c-.47-6.95-5-10-10.56-6.79S33.51,19.25,33,26.75l-5.24,3c-3.52,2-6.36,7.47-6.36,12.16s2.84,6.83,6.36,4.8L59.39,28.49c3.51-2,6.36-7.47,6.36-12.15h0C65.75,11.66,62.9,9.5,59.39,11.53Z"/><path class="cls-12" d="M59.39,11.53l-5.24,3c-.47-6.95-5-10-10.56-6.79S33.51,19.25,33,26.75l-5.24,3c-3.52,2-6.36,7.47-6.36,12.16"/><path class="cls-6" d="M63.55,11.2h0L54,5.69h0A4.07,4.07,0,0,0,49.86,6l-.69.4L41,1.71h0c-1.86-1.07-4.29-1-6.94.56C28.53,5.47,24,13.75,23.5,21.24l-5.23,3c-3.52,2-6.37,7.47-6.37,12.15h0c0,2.57.86,4.36,2.21,5.14h0l9.54,5.5h0a4.08,4.08,0,0,0,4.16-.34L59.39,28.49c3.51-2,6.36-7.47,6.36-12.15h0C65.75,13.78,64.9,12,63.55,11.2Z"/><line class="cls-10" x1="11.9" y1="45.42" x2="11.9" y2="45.42"/><line class="cls-13" x1="11.9" y1="51.18" x2="11.9" y2="65.59"/><line class="cls-10" x1="11.9" y1="68.47" x2="11.9" y2="68.47"/><line class="cls-10" x1="108.1" y1="52.8" x2="108.1" y2="52.8"/><line class="cls-14" x1="108.1" y1="60.13" x2="108.1" y2="63.8"/><line class="cls-10" x1="108.1" y1="67.47" x2="108.1" y2="67.47"/><rect class="cls-15" width="120" height="120"/><rect class="cls-15" width="120" height="120"/></g></g></svg>