<svg xmlns="http://www.w3.org/2000/svg" viewBox="0 0 120 120"><defs><style>.cls-1{fill:#fff;}.cls-10,.cls-11,.cls-2,.cls-4,.cls-7{fill:none;}.cls-2,.cls-3,.cls-5{stroke:#b8bfca;}.cls-10,.cls-11,.cls-2,.cls-3,.cls-5,.cls-7{stroke-linecap:round;stroke-linejoin:round;stroke-width:2px;}.cls-3,.cls-6{fill:#d5dae0;}.cls-5{fill:#b8bfca;}.cls-7{stroke:#627386;}.cls-8{fill:#bde4fd;}.cls-9{fill:#91d2fb;}.cls-10{stroke:#fff;}.cls-11{stroke:#1b6dc6;}</style></defs><title>Nutanix-Go</title><g id="Layer_2" data-name="Layer 2"><g id="Tech_Concepts" data-name="Tech Concepts"><path class="cls-1" d="M88,4.77,81.68,1.13a1.4,1.4,0,0,0-1.38.13l-74,42.45a4.3,4.3,0,0,0-1.81,2.43,3.4,3.4,0,0,0-.16,1v61.51a1.39,1.39,0,0,0,.58,1.28l6.33,3.63h0a1.4,1.4,0,0,0,1.39-.14L86.63,71a4.33,4.33,0,0,0,2-3.4V6.05a1.3,1.3,0,0,0-.74-1.35Z"/><path class="cls-2" d="M4.9,45.18a4,4,0,0,1,1.39-1.47l74-42.45a1.4,1.4,0,0,1,1.38-.13L88,4.77a1.36,1.36,0,0,0-1.38.13l-74,42.45a4,4,0,0,0-1.37,1.43"/><path class="cls-3" d="M11.25,48.78a4,4,0,0,0-.59,2v61.52a1.39,1.39,0,0,0,.58,1.28L4.9,109.91a1.39,1.39,0,0,1-.58-1.28V47.12a4,4,0,0,1,.58-1.94"/><line class="cls-2" x1="37.62" y1="99.07" x2="37.62" y2="45.18"/><line class="cls-2" x1="10.66" y1="78.77" x2="88.59" y2="33.77"/><line class="cls-2" x1="10.66" y1="96.78" x2="88.59" y2="51.78"/><path class="cls-4" d="M11.25,48.78a4,4,0,0,0-.59,2v61.52a1.39,1.39,0,0,0,.58,1.28L4.9,109.91a1.39,1.39,0,0,1-.58-1.28V47.12a4,4,0,0,1,.58-1.94"/><path class="cls-5" d="M88.59,15.76V6.05c0-1.26-.88-1.77-2-1.15l-74,42.45a4.33,4.33,0,0,0-2,3.4v10Z"/><path class="cls-6" d="M25.7,44.21a1.87,1.87,0,0,0-1.92.13,4.93,4.93,0,0,0-2.27,3.93A1.88,1.88,0,0,0,22.36,50a1.46,1.46,0,0,0,.77.21,2.29,2.29,0,0,0,1.15-.34A4.93,4.93,0,0,0,26.55,46,1.88,1.88,0,0,0,25.7,44.21Z"/><path class="cls-6" d="M51.42,29.39a1.87,1.87,0,0,0-1.92.14,4.91,4.91,0,0,0-2.27,3.92,1.9,1.9,0,0,0,.85,1.75,1.49,1.49,0,0,0,.78.2A2.26,2.26,0,0,0,50,35.06a4.91,4.91,0,0,0,2.27-3.92A1.9,1.9,0,0,0,51.42,29.39Z"/><path class="cls-6" d="M76.3,15.29a1.87,1.87,0,0,0-1.92.14,4.91,4.91,0,0,0-2.27,3.92A1.91,1.91,0,0,0,73,21.1a1.52,1.52,0,0,0,.78.21A2.43,2.43,0,0,0,74.88,21,4.94,4.94,0,0,0,77.14,17,1.92,1.92,0,0,0,76.3,15.29Z"/><line class="cls-2" x1="4.32" y1="57.1" x2="10.66" y2="60.76"/><line class="cls-2" x1="61.88" y1="85.16" x2="61.88" y2="31.18"/><path class="cls-2" d="M88.59,6.05c0-1.26-.88-1.77-2-1.15l-74,42.45a4.33,4.33,0,0,0-2,3.4v61.52c0,1.25.88,1.76,2,1.14L86.63,71a4.33,4.33,0,0,0,2-3.4Z"/><path class="cls-2" d="M88.59,15.76V6.05c0-1.26-.88-1.77-2-1.15l-74,42.45a4.33,4.33,0,0,0-2,3.4v10Z"/><path class="cls-7" d="M88,4.77,81.68,1.13a1.4,1.4,0,0,0-1.38.13l-74,42.45a4.3,4.3,0,0,0-1.81,2.43,3.4,3.4,0,0,0-.16,1v61.51a1.39,1.39,0,0,0,.58,1.28l6.33,3.63h0a1.4,1.4,0,0,0,1.39-.14L86.63,71a4.33,4.33,0,0,0,2-3.4V6.05a1.3,1.3,0,0,0-.74-1.35Z"/><path class="cls-7" d="M13.05,39.83a10.54,10.54,0,0,1-.44-2.94c0-4,2.8-5.53,6.23-3.55A13.64,13.64,0,0,1,25,44.06a5.26,5.26,0,0,1-.93,3.21"/><path class="cls-7" d="M38.75,25.09a10.18,10.18,0,0,1-.44-2.94c0-3.95,2.8-5.53,6.23-3.55a13.64,13.64,0,0,1,6.19,10.72,5.26,5.26,0,0,1-.93,3.21"/><path class="cls-7" d="M63.37,11a10.3,10.3,0,0,1-.44-3c0-3.94,2.8-5.53,6.23-3.55A13.64,13.64,0,0,1,75.35,15.2a5.17,5.17,0,0,1-.94,3.21"/><path class="cls-8" d="M110.39,77.8l-.26-.15c-7.4-4.28-19.4-4.28-26.79,0l-.26.15H77.79v6.32c0,2.8,1.85,5.6,5.55,7.73,7.39,4.27,19.39,4.27,26.79,0,3.7-2.13,5.55-4.93,5.55-7.73V77.8Z"/><path class="cls-9" d="M110.13,91.85c3.7-2.13,5.55-4.93,5.55-7.73V77.8h-5.29l-.26-.15a27.35,27.35,0,0,0-13.4-3.21V95.06A27.35,27.35,0,0,0,110.13,91.85Z"/><ellipse class="cls-8" cx="96.73" cy="77.8" rx="18.95" ry="10.94"/><ellipse class="cls-10" cx="96.73" cy="77.8" rx="18.95" ry="10.94"/><ellipse class="cls-4" cx="96.73" cy="84.12" rx="18.95" ry="10.94"/><path class="cls-11" d="M115.68,84.12V77.8h0c0-2.8-1.85-5.6-5.55-7.73-7.4-4.28-19.4-4.28-26.79,0-3.7,2.13-5.55,4.93-5.55,7.73h0v6.32c0,2.8,1.85,5.6,5.55,7.73a27.31,27.31,0,0,0,13.39,3.21c.61,0,1.21,0,1.82,0a32.39,32.39,0,0,0,3.58-.4c.58-.11,1.16-.22,1.73-.36a22.94,22.94,0,0,0,6.27-2.4,11.81,11.81,0,0,0,4.77-4.62A6.76,6.76,0,0,0,115.68,84.12Z"/><path class="cls-9" d="M104.06,80.86l2,1.16-1.78,1-2-1.13a16.45,16.45,0,0,1-3,1.19,12.59,12.59,0,0,1-2.9.56l-1.2-1.83a16.24,16.24,0,0,0,2.43-.44,12.45,12.45,0,0,0,2.3-.84l-3-1.74c-1,.37-2,.66-2.82.86a9.26,9.26,0,0,1-2.58.21A5.77,5.77,0,0,1,89,79.13,2.45,2.45,0,0,1,87.56,77c0-.83.61-1.69,1.83-2.57l-2-1.15,1.79-1,1.95,1.13a15,15,0,0,1,4.74-1.48l1.3,1.79a14.21,14.21,0,0,0-3.67,1.06l3.07,1.76a23.88,23.88,0,0,1,2.76-.85,9.12,9.12,0,0,1,2.57-.21,5.59,5.59,0,0,1,2.5.76,2.4,2.4,0,0,1,1.45,2.08C105.83,79.13,105.24,80,104.06,80.86ZM92.85,77.6a6.35,6.35,0,0,0,1.49-.29l-2.56-1.48a1.24,1.24,0,0,0-.5.88.86.86,0,0,0,.5.66,2,2,0,0,0,1.07.23m6.36.46,2.48,1.43a1.22,1.22,0,0,0,.49-.83.74.74,0,0,0-.44-.63,2,2,0,0,0-1.08-.24,6.66,6.66,0,0,0-1.45.27"/><path class="cls-8" d="M110.39,71.49l-.26-.16c-7.4-4.27-19.4-4.27-26.79,0a2.26,2.26,0,0,0-.26.16H77.79V77.8c0,2.8,1.85,5.6,5.55,7.74,7.39,4.27,19.39,4.27,26.79,0,3.7-2.14,5.55-4.94,5.55-7.74V71.49Z"/><path class="cls-9" d="M110.13,85.54c3.7-2.14,5.55-4.94,5.55-7.74V71.49h-5.29l-.26-.16a27.35,27.35,0,0,0-13.4-3.2V88.74A27.46,27.46,0,0,0,110.13,85.54Z"/><ellipse class="cls-8" cx="96.73" cy="71.49" rx="18.95" ry="10.94"/><ellipse class="cls-10" cx="96.73" cy="71.49" rx="18.95" ry="10.94"/><ellipse class="cls-4" cx="96.73" cy="77.8" rx="18.95" ry="10.94"/><path class="cls-11" d="M115.68,77.8V71.49h0c0-2.8-1.85-5.6-5.55-7.74-7.4-4.27-19.4-4.27-26.79,0-3.7,2.14-5.55,4.94-5.55,7.74h0V77.8c0,2.8,1.85,5.6,5.55,7.74a27.39,27.39,0,0,0,13.39,3.2c.61,0,1.21,0,1.82,0a32.39,32.39,0,0,0,3.58-.4c.58-.1,1.16-.22,1.73-.35a23.27,23.27,0,0,0,6.27-2.4,11.87,11.87,0,0,0,4.77-4.62A6.83,6.83,0,0,0,115.68,77.8Z"/><path class="cls-9" d="M104.06,74.55l2,1.16-1.78,1-2-1.13a15.41,15.41,0,0,1-3,1.19,12.59,12.59,0,0,1-2.9.56l-1.2-1.83a14,14,0,0,0,2.43-.44,12.45,12.45,0,0,0,2.3-.84l-3-1.74a25.17,25.17,0,0,1-2.82.86,8.9,8.9,0,0,1-2.58.22A5.78,5.78,0,0,1,89,72.81a2.45,2.45,0,0,1-1.48-2.11c0-.83.61-1.68,1.83-2.56l-2-1.15,1.78-1,2,1.13a14.74,14.74,0,0,1,4.74-1.47l1.3,1.79a14.22,14.22,0,0,0-3.67,1l3.06,1.77a24.82,24.82,0,0,1,2.77-.86,9.12,9.12,0,0,1,2.57-.21,5.72,5.72,0,0,1,2.5.76A2.4,2.4,0,0,1,105.85,72C105.83,72.82,105.24,73.66,104.06,74.55ZM92.85,71.28A5.82,5.82,0,0,0,94.34,71l-2.56-1.48a1.23,1.23,0,0,0-.5.88.88.88,0,0,0,.5.66,1.94,1.94,0,0,0,1.07.22m6.36.46,2.48,1.44a1.25,1.25,0,0,0,.49-.84.74.74,0,0,0-.45-.63,1.93,1.93,0,0,0-1.07-.23,6.57,6.57,0,0,0-1.45.26"/><path class="cls-8" d="M68.91,101.75l-.25-.16c-7.4-4.27-19.4-4.27-26.8,0l-.25.16h-5.3v6.31c0,2.8,1.85,5.6,5.55,7.74,7.4,4.27,19.4,4.27,26.8,0,3.7-2.14,5.55-4.94,5.55-7.74v-6.31Z"/><path class="cls-9" d="M68.66,115.8c3.7-2.14,5.55-4.94,5.55-7.74v-6.31h-5.3l-.25-.16a27.35,27.35,0,0,0-13.4-3.2V119A27.46,27.46,0,0,0,68.66,115.8Z"/><ellipse class="cls-8" cx="55.26" cy="101.75" rx="18.95" ry="10.94"/><ellipse class="cls-10" cx="55.26" cy="101.75" rx="18.95" ry="10.94"/><ellipse class="cls-4" cx="55.26" cy="108.06" rx="18.95" ry="10.94"/><path class="cls-11" d="M74.21,108.06v-6.31h0c0-2.8-1.85-5.6-5.55-7.74-7.4-4.27-19.4-4.27-26.8,0-3.7,2.14-5.55,4.94-5.55,7.74h0v6.31c0,2.8,1.85,5.6,5.55,7.74a27.46,27.46,0,0,0,13.4,3.2c.61,0,1.21,0,1.82,0a32.48,32.48,0,0,0,3.57-.4c.59-.1,1.17-.22,1.74-.35a23.27,23.27,0,0,0,6.27-2.4,11.87,11.87,0,0,0,4.77-4.62A6.83,6.83,0,0,0,74.21,108.06Z"/><path class="cls-9" d="M62.59,104.81l2,1.16-1.78,1-2-1.13a16.35,16.35,0,0,1-3,1.19,12.69,12.69,0,0,1-2.9.56l-1.21-1.83a14.14,14.14,0,0,0,2.44-.44,12.45,12.45,0,0,0,2.3-.84l-3-1.74a25.17,25.17,0,0,1-2.82.86,9.65,9.65,0,0,1-2.58.22,5.74,5.74,0,0,1-2.53-.78A2.45,2.45,0,0,1,46.09,101c0-.83.61-1.68,1.83-2.56l-2-1.15,1.78-1,2,1.13a14.69,14.69,0,0,1,4.73-1.47l1.3,1.79a13.65,13.65,0,0,0-3.66,1l3.06,1.77a24.82,24.82,0,0,1,2.77-.86,9.08,9.08,0,0,1,2.56-.21,5.59,5.59,0,0,1,2.51.76,2.4,2.4,0,0,1,1.45,2.08A3.66,3.66,0,0,1,62.59,104.81Zm-11.21-3.27a5.82,5.82,0,0,0,1.49-.28L50.3,99.78a1.24,1.24,0,0,0-.49.88.88.88,0,0,0,.5.66,1.94,1.94,0,0,0,1.07.22m6.36.46,2.48,1.44a1.25,1.25,0,0,0,.49-.84.74.74,0,0,0-.45-.63,1.85,1.85,0,0,0-1.07-.23,6.47,6.47,0,0,0-1.45.26"/><rect class="cls-4" width="120" height="120"/><rect class="cls-4" width="120" height="120"/></g></g></svg>