<svg xmlns="http://www.w3.org/2000/svg" viewBox="0 0 120 120"><defs><style>.cls-1,.cls-4,.cls-5{fill:none;}.cls-1{stroke:#91d2fb;}.cls-1,.cls-2,.cls-3,.cls-4{stroke-linecap:round;stroke-linejoin:round;stroke-width:2px;}.cls-2{fill:#b8bfca;}.cls-2,.cls-3{stroke:#fff;}.cls-3{fill:#d5dae0;}.cls-4{stroke:#627386;}</style></defs><title>one-click</title><g id="Layer_2" data-name="Layer 2"><g id="Tech_Concepts" data-name="Tech Concepts"><ellipse class="cls-1" cx="42.72" cy="35.66" rx="32.38" ry="18.32" transform="translate(-6.82 61.01) rotate(-66.95)"/><polygon class="cls-2" points="84.06 41.75 42.72 35.66 41.51 99.06 54.35 81.77 69.55 108.1 86.42 85.38 71.22 59.05 84.06 41.75"/><polygon class="cls-2" points="96.01 48.65 54.67 42.56 53.47 105.97 66.31 88.67 81.51 115 98.37 92.28 83.17 65.95 96.01 48.65"/><polygon class="cls-3" points="81.51 115 69.55 108.1 61.82 94.71 66.31 88.67 81.51 115"/><polygon class="cls-3" points="53.47 105.97 41.51 99.06 42.72 35.66 54.67 42.56 53.47 105.97"/><polygon class="cls-3" points="96.01 48.65 84.06 41.75 42.72 35.66 54.67 42.56 96.01 48.65"/><polygon class="cls-4" points="83.17 65.95 96.01 48.65 84.06 41.75 42.72 35.66 41.51 99.06 53.47 105.97 61.82 94.71 61.82 94.71 61.82 94.71 69.55 108.1 81.51 115 98.37 92.28 83.17 65.95"/><rect class="cls-5" width="120" height="120"/><rect class="cls-5" width="120" height="120"/></g></g></svg>