<svg xmlns="http://www.w3.org/2000/svg" viewBox="0 0 120 120"><defs><style>.cls-1,.cls-10,.cls-6,.cls-9{fill:none;}.cls-1,.cls-2,.cls-3,.cls-4,.cls-5{stroke:#91d2fb;}.cls-1,.cls-2,.cls-3,.cls-4,.cls-5,.cls-6,.cls-7,.cls-8,.cls-9{stroke-linecap:round;stroke-linejoin:round;}.cls-1,.cls-3,.cls-5,.cls-6,.cls-7,.cls-8,.cls-9{stroke-width:2px;}.cls-2,.cls-3{fill:#bde4fd;}.cls-4{fill:#fff;}.cls-5{fill:#91d2fb;}.cls-6{stroke:#1b6dc6;}.cls-7{fill:#b8bfca;}.cls-7,.cls-8{stroke:#fff;}.cls-8{fill:#d5dae0;}.cls-9{stroke:#627386;}</style></defs><title>one-click-infrastructure-management</title><g id="Layer_2" data-name="Layer 2"><g id="Tech_Concepts" data-name="Tech Concepts"><line class="cls-1" x1="82.77" y1="59.95" x2="74.51" y2="64.72"/><path class="cls-2" d="M19.33,32.86V96.57L74.51,64.72V1Zm8.26,4.77L66.25,15.31V60L27.59,82.26Z"/><path class="cls-1" d="M19.33,32.86V96.57L74.51,64.72V1Zm8.26,4.77L66.25,15.31V60L27.59,82.26Z"/><polygon class="cls-1" points="66.25 15.31 27.59 37.63 27.59 82.27 66.25 59.95 66.25 15.31"/><polygon class="cls-3" points="66.25 24.85 74.51 20.08 74.51 64.72 35.85 87.03 35.85 77.5 66.25 59.95 66.25 24.85"/><polygon class="cls-4" points="66.25 59.95 74.51 64.72 74.51 64.72 35.85 87.03 35.85 77.5 66.25 59.95 66.25 59.95"/><polygon class="cls-1" points="66.25 24.85 74.51 20.08 74.51 64.72 35.85 87.03 35.85 77.5 66.25 59.95 66.25 24.85"/><line class="cls-1" x1="66.25" y1="59.95" x2="74.51" y2="64.72"/><path class="cls-5" d="M27.59,37.63v63.71L82.77,69.49V5.77Zm8.26,4.77L74.51,20.08V64.72L35.85,87Z"/><path class="cls-1" d="M62.54,17.45,27.59,37.63v63.71L82.77,69.49V28.89m-19.6-11.8-.63.36M82.77,28.89V5.77l-15.57,9-4,2.33M35.85,42.4,74.51,20.08V64.72L35.85,87Z"/><polyline class="cls-4" points="82.77 5.77 27.59 37.63 19.33 32.86 74.51 1 82.77 5.77"/><polyline class="cls-1" points="82.77 5.77 27.59 37.63 19.33 32.86 74.51 1 82.77 5.77"/><polygon class="cls-3" points="27.59 101.34 19.33 96.57 19.33 32.86 27.59 37.63 27.59 101.34"/><polygon class="cls-1" points="27.59 101.34 19.33 96.57 19.33 32.86 27.59 37.63 27.59 101.34"/><path class="cls-6" d="M74.51,1,19.33,32.86V96.57l8.26,4.77L82.77,69.49V5.77Z"/><polygon class="cls-6" points="66.25 59.95 55.45 66.19 35.85 77.5 35.85 42.4 66.25 24.85 66.25 59.95"/><polygon class="cls-7" points="89.26 60.62 56.32 55.77 55.35 106.3 65.58 92.52 77.7 113.5 91.14 95.39 79.03 74.41 89.26 60.62"/><polygon class="cls-7" points="98.78 66.12 65.84 61.27 64.88 111.8 75.11 98.02 87.23 119 100.67 100.89 88.55 79.91 98.78 66.12"/><polygon class="cls-8" points="87.23 119 77.7 113.5 71.54 102.83 75.11 98.02 87.23 119"/><polygon class="cls-8" points="64.88 111.8 55.35 106.3 56.32 55.77 65.84 61.27 64.88 111.8"/><polygon class="cls-8" points="98.78 66.12 89.26 60.62 56.32 55.77 65.84 61.27 98.78 66.12"/><polygon class="cls-9" points="88.55 79.91 98.78 66.12 89.26 60.62 56.32 55.77 55.35 106.3 64.88 111.8 71.54 102.83 71.54 102.83 71.54 102.83 77.7 113.5 87.23 119 100.67 100.89 88.55 79.91"/><rect class="cls-10" width="120" height="120"/><rect class="cls-10" width="120" height="120"/></g></g></svg>