<svg xmlns="http://www.w3.org/2000/svg" viewBox="0 0 120 120"><defs><style>.cls-1{fill:#d5dae0;stroke:#b8bfca;}.cls-1,.cls-4,.cls-5{stroke-linecap:round;stroke-linejoin:round;}.cls-1,.cls-3,.cls-4,.cls-5{stroke-width:2px;}.cls-2,.cls-3{fill:#fff;}.cls-3{stroke:#fff;stroke-miterlimit:10;}.cls-4{fill:#b8bfca;stroke:#d5dae0;}.cls-5,.cls-6{fill:none;}.cls-5{stroke:#627386;}</style></defs><title>PACS-VNA-imaging</title><g id="Layer_2" data-name="Layer 2"><g id="Tech_Concepts" data-name="Tech Concepts"><path class="cls-1" d="M80.16,34.77c.18-.72.34-1.45.49-2.17L92,16.64,74.27,6.42h0c-3.73-2.15-8.59-2-13.9,1.12-6.15,3.54-11.68,10.22-15.56,18-3.88-3.32-9.41-3.61-15.56-.06C17.51,32.29,8,50.47,8,66.12a28.42,28.42,0,0,0,1.46,9.47h0c3.08,9.67,13.78,19.24,23.22,24.69h0L50.36,110.5l4.91-21.36C65.08,72.57,76.9,48.78,80.16,34.77Z"/><path class="cls-2" d="M82.73,29.67l9.23-13L74.27,6.42h0c-3.73-2.15-8.59-2-13.9,1.12a31.67,31.67,0,0,0-6.72,5.32Z"/><path class="cls-3" d="M63.78,73.83A256.74,256.74,0,0,0,77.23,44.29L44.81,25.57h0l-3.44-2c-3.44-1.2-7.61-.67-12.12,1.93-6.42,3.71-12.18,10.84-16.08,19.1Z"/><path class="cls-4" d="M97.85,45a46.11,46.11,0,0,0,1.46-11.16c0-15.65-9.52-22.85-21.25-16.07C71.91,21.31,66.38,28,62.5,35.78c-3.88-3.32-9.41-3.6-15.56-.06-11.73,6.78-21.25,25-21.25,40.61a28.53,28.53,0,0,0,1.46,9.48h0c4.34,13.64,23.88,27.11,33.62,29a1.78,1.78,0,0,0,1.73-.18h0c.15-.09.29-.2.44-.31l.11-.08a4.08,4.08,0,0,0,.36-.36h0l0,0a6.4,6.4,0,0,0,.72-1C73.9,99.82,93.5,63.68,97.86,45Z"/><path class="cls-5" d="M99.31,33.83c0-8.56-2.85-14.59-7.35-17.18h0L74.27,6.42h0c-3.73-2.15-8.59-2-13.9,1.12-6.15,3.54-11.68,10.22-15.56,18-3.88-3.32-9.41-3.61-15.56-.06C17.51,32.29,8,50.47,8,66.12a28.42,28.42,0,0,0,1.46,9.47h0c3.08,9.67,13.78,19.24,23.22,24.69h0L50.36,110.5h0a36.61,36.61,0,0,0,10.41,4.36,1.78,1.78,0,0,0,1.73-.18h0c.15-.09.29-.2.44-.31l.11-.08a4.08,4.08,0,0,0,.36-.36h0l0,0a6.4,6.4,0,0,0,.72-1C73.9,99.82,93.5,63.68,97.86,45h0A46.11,46.11,0,0,0,99.31,33.83Z"/><polyline class="cls-5" points="13 96.99 46.77 77.5 50.7 65.85 60.43 85.63 69.54 45.94 77.14 65.85 82.7 50.14 112 33.22"/><rect class="cls-6" width="120" height="120"/><rect class="cls-6" width="120" height="120"/></g></g></svg>