<svg xmlns="http://www.w3.org/2000/svg" viewBox="0 0 120 120"><defs><style>.cls-1{fill:#d5dae0;}.cls-1,.cls-6,.cls-8{stroke:#b8bfca;}.cls-1,.cls-6,.cls-7,.cls-8{stroke-linecap:round;stroke-linejoin:round;}.cls-1,.cls-3,.cls-6,.cls-7,.cls-8{stroke-width:2px;}.cls-2,.cls-8{fill:#b8bfca;}.cls-3,.cls-4,.cls-6,.cls-7,.cls-9{fill:none;}.cls-3,.cls-4{stroke:#fff;stroke-miterlimit:10;}.cls-4{stroke-width:3.5px;}.cls-5{fill:#fff;}.cls-7{stroke:#627386;}</style></defs><title>phone</title><g id="Layer_2" data-name="Layer 2"><g id="Objects"><path class="cls-1" d="M82.68,4.77,76.56,1.23h0a2.19,2.19,0,0,0-2.24.18L39.56,21.48A8.2,8.2,0,0,0,36.13,28v84.44a3,3,0,0,0,1.19,2.76h0l6.12,3.54,2.35-8.68L73.14,94.3a8.19,8.19,0,0,0,3.42-6.54V19.22Z"/><path class="cls-2" d="M37.06,24.37A8.41,8.41,0,0,0,36.13,28v84.44a3,3,0,0,0,1.19,2.76h0l6.12,3.54,2.35-8.68L73.14,94.3a8.19,8.19,0,0,0,3.42-6.54V47.17Z"/><path class="cls-1" d="M80.44,98.52,45.68,118.59c-1.89,1.09-3.42-.07-3.42-2.59V31.56A8.19,8.19,0,0,1,45.68,25L80.44,5c1.89-1.09,3.43.07,3.43,2.59V92A8.2,8.2,0,0,1,80.44,98.52Z"/><path class="cls-3" d="M80.44,98.52,45.68,118.59c-1.89,1.09-3.42-.07-3.42-2.59V31.56A8.19,8.19,0,0,1,45.68,25L80.44,5c1.89-1.09,3.43.07,3.43,2.59V92A8.2,8.2,0,0,1,80.44,98.52Z"/><path class="cls-4" d="M44.32,117.75c-.56,0-.81-.88-.81-1.75V31.56A7,7,0,0,1,46.3,26.1L81.07,6a1.51,1.51,0,0,1,.73-.24c.57,0,.82.88.82,1.75V92a7,7,0,0,1-2.8,5.46L45.06,117.51A1.53,1.53,0,0,1,44.32,117.75Z"/><path class="cls-5" d="M83.87,25.74V7.54C83.87,5,82.33,3.86,80.44,5L45.68,25a8.19,8.19,0,0,0-3.42,6.54V97.8Z"/><path class="cls-6" d="M80.44,98.52,45.68,118.59c-1.89,1.09-3.42-.07-3.42-2.59V31.56A8.19,8.19,0,0,1,45.68,25L80.44,5c1.89-1.09,3.43.07,3.43,2.59V92A8.2,8.2,0,0,1,80.44,98.52Z"/><path class="cls-7" d="M82.68,4.77h0L76.56,1.23h0a2.19,2.19,0,0,0-2.24.18L39.56,21.48A8.2,8.2,0,0,0,36.13,28v84.44a3,3,0,0,0,1.19,2.76h0l6.12,3.54h0a2.22,2.22,0,0,0,2.24-.18L80.44,98.52A8.2,8.2,0,0,0,83.87,92V7.54A3,3,0,0,0,82.68,4.77Z"/><ellipse class="cls-8" cx="63.06" cy="18.31" rx="3.83" ry="2.17" transform="translate(21.52 69.17) rotate(-66.95)"/><path class="cls-8" d="M68.05,12.1a6,6,0,0,0-2.49,4.77l-5,2.88c0-1.83-1.12-2.68-2.5-1.88Z"/><rect class="cls-9" width="120" height="120"/><rect class="cls-9" width="120" height="120"/></g></g></svg>