<svg xmlns="http://www.w3.org/2000/svg" viewBox="0 0 120 120"><defs><style>.cls-1{fill:#d5dae0;}.cls-2{fill:#b8bfca;}.cls-3{fill:#fff;}.cls-3,.cls-4{stroke:#b8bfca;}.cls-3,.cls-4,.cls-5,.cls-7{stroke-linecap:round;stroke-linejoin:round;stroke-width:2px;}.cls-4,.cls-5,.cls-7,.cls-8{fill:none;}.cls-5{stroke:#627386;}.cls-6{opacity:0.93;}.cls-7{stroke:#d5dae0;}</style></defs><title>phone-2</title><g id="Layer_2" data-name="Layer 2"><g id="Objects"><path class="cls-1" d="M2.37,61.26,52.6,90.45a7,7,0,0,0,6.37,0L117.61,56.6a2.26,2.26,0,0,0,1.33-1.86l.06,16a2.26,2.26,0,0,1-1.33,1.86L59,106.41a7,7,0,0,1-6.37,0L2.43,77.22a2.24,2.24,0,0,1-1.31-1.83l-.06-16A2.24,2.24,0,0,0,2.37,61.26Z"/><path class="cls-2" d="M55.66,91.21A6.5,6.5,0,0,0,59,90.45L117.61,56.6a2.26,2.26,0,0,0,1.33-1.86l.06,16a2.26,2.26,0,0,1-1.33,1.86L59,106.41a6.63,6.63,0,0,1-3.37.76Z"/><path class="cls-1" d="M117.61,56.6,59,90.45a7,7,0,0,1-6.37,0L2.37,61.26a2.24,2.24,0,0,1-1.31-1.83L1,47.56s0-.06,0-.09l.06,16a2.24,2.24,0,0,0,1.31,1.83L52.6,94.45a7,7,0,0,0,6.37,0L117.61,60.6a2.26,2.26,0,0,0,1.33-1.86V54.83A2.31,2.31,0,0,1,117.61,56.6Z"/><path class="cls-2" d="M117.67,68.56,59,102.41a7,7,0,0,1-6.37,0L2.43,73.22a2.24,2.24,0,0,1-1.31-1.83L1.07,59.52s0-.06,0-.09l.06,16a2.24,2.24,0,0,0,1.31,1.83l50.23,29.19a7,7,0,0,0,6.37,0l58.64-33.85A2.26,2.26,0,0,0,119,70.7V66.79A2.31,2.31,0,0,1,117.67,68.56Z"/><path class="cls-3" d="M2.39,57.57c-1.77,1-1.78,2.67,0,3.69L52.6,90.45a7,7,0,0,0,6.37,0L117.61,56.6c1.77-1,1.78-2.68,0-3.7L67.4,23.71a7,7,0,0,0-6.37,0Z"/><path class="cls-1" d="M85.24,43.46,73.59,50.19a1,1,0,0,0,0,1.7l16.27,9.45a2,2,0,0,0,2,0l11.65-6.72a1,1,0,0,0,0-1.71L87.21,43.46A2,2,0,0,0,85.24,43.46Z"/><path class="cls-2" d="M73.59,51.89l1.12.65,10.53-6.08a2,2,0,0,1,2,0l15.15,8.8,1.12-.64a1,1,0,0,0,0-1.71L87.21,43.46a2,2,0,0,0-2,0L73.59,50.19A1,1,0,0,0,73.59,51.89Z"/><path class="cls-4" d="M85.24,43.46,73.59,50.19a1,1,0,0,0,0,1.7l16.27,9.45a2,2,0,0,0,2,0l11.65-6.72a1,1,0,0,0,0-1.71L87.21,43.46A2,2,0,0,0,85.24,43.46Z"/><path class="cls-5" d="M1.1,59.7a2.09,2.09,0,0,1,1.29-2.13L61,23.72a7,7,0,0,1,6.37,0L117.63,52.9a2.24,2.24,0,0,1,1.31,1.84h0l.06,16a2.26,2.26,0,0,1-1.33,1.86L59,106.41a7,7,0,0,1-6.37,0L2.43,77.22a2.24,2.24,0,0,1-1.31-1.83l-.06-16A2.51,2.51,0,0,0,1.1,59.7Z"/><path class="cls-2" d="M66.42,39.93a2.22,2.22,0,0,1,.94,2v2.41a1.12,1.12,0,0,0,.46,1L50.54,35.37a1.12,1.12,0,0,1-.47-1V31.93a2.22,2.22,0,0,0-.94-2.05Z"/><path class="cls-3" d="M21.47,32.4,53.09,14.14c2.67-1.54,5.1-1.68,6.85-.67l17.3,10.06c-1.75-1-4.18-.88-6.85.67L38.77,42.45c-5.32,3.07-9.62,10.51-9.6,16.62l0,7.36a1.12,1.12,0,0,0,.47,1l-17.3-10a1.14,1.14,0,0,1-.47-1l0-7.36C11.86,42.91,16.15,35.47,21.47,32.4Z"/><path class="cls-2" d="M38.77,42.45c-5.32,3.07-9.62,10.51-9.6,16.62l0,7.36c0,1,.73,1.43,1.61.92l9.5-5.48a3.54,3.54,0,0,0,1.6-2.77V56.69a7,7,0,0,1,3.2-5.54l19-11c1.77-1,3.21-.2,3.22,1.83v2.41c0,1,.72,1.43,1.6.92l9.5-5.48a3.54,3.54,0,0,0,1.6-2.77l0-7.36c0-6.11-4.34-8.57-9.65-5.5Z"/><path class="cls-1" d="M29.17,59.07l0,7.36a1.12,1.12,0,0,0,.47,1l-17.3-10a1.14,1.14,0,0,1-.47-1l0-7.36a19,19,0,0,1,2.26-8.45l17.3,10A18.93,18.93,0,0,0,29.17,59.07Z"/><g class="cls-6"><path class="cls-4" d="M38.77,42.45c-5.32,3.07-9.62,10.51-9.6,16.62l0,7.36c0,1,.73,1.43,1.61.92l9.5-5.48a3.54,3.54,0,0,0,1.6-2.77V56.69a7,7,0,0,1,3.2-5.54l19-11c1.77-1,3.21-.2,3.22,1.83v2.41c0,1,.72,1.43,1.6.92l9.5-5.48a3.54,3.54,0,0,0,1.6-2.77l0-7.36c0-6.11-4.34-8.57-9.65-5.5Z"/></g><path class="cls-5" d="M21.47,32.4,53.09,14.14c2.67-1.54,5.1-1.68,6.85-.67l17.3,10.06h0C79,24.52,80,26.66,80,29.7l0,7.36a3.54,3.54,0,0,1-1.6,2.77L69,45.31a1,1,0,0,1-1.24,0,.39.39,0,0,0,.1.08l-6.39-3.71L45.09,51.15a7,7,0,0,0-3.2,5.54V59.1a3.54,3.54,0,0,1-1.6,2.77l-9.5,5.48a1,1,0,0,1-1.25,0,.87.87,0,0,0,.11.09l-17.3-10a1.14,1.14,0,0,1-.47-1l0-7.36C11.86,42.91,16.15,35.47,21.47,32.4Z"/><path class="cls-2" d="M86.62,66.74c.47.27.47.7,0,1L84.07,69.2a1.84,1.84,0,0,1-1.68,0l-4-2.31a.52.52,0,0,1,0-1l2.55-1.48a1.84,1.84,0,0,1,1.68,0Z"/><path class="cls-2" d="M77.8,61.74c.47.27.47.7,0,1L75.25,64.2a1.87,1.87,0,0,1-1.68,0l-4-2.32c-.48-.27-.47-.7,0-1l2.55-1.48a1.84,1.84,0,0,1,1.68,0Z"/><path class="cls-2" d="M69,56.74c.45.26.46.67,0,.93L66.54,59.1a1.81,1.81,0,0,1-1.62,0l-3.84-2.22a.5.5,0,0,1,0-.94l2.45-1.42a1.76,1.76,0,0,1,1.61,0Z"/><path class="cls-2" d="M80,70.55c.47.27.47.7,0,1L77.48,73a1.84,1.84,0,0,1-1.68,0l-4-2.31c-.48-.27-.47-.71,0-1l2.55-1.49a1.84,1.84,0,0,1,1.68,0Z"/><path class="cls-2" d="M71.21,65.54c.47.28.47.71,0,1L68.66,68A1.84,1.84,0,0,1,67,68l-4-2.31a.52.52,0,0,1,0-1l2.55-1.48a1.86,1.86,0,0,1,1.69,0Z"/><path class="cls-2" d="M62.39,60.54c.46.26.46.68,0,.94L60,62.9a1.76,1.76,0,0,1-1.61,0l-3.85-2.22a.49.49,0,0,1,0-.93l2.45-1.43a1.76,1.76,0,0,1,1.61,0Z"/><path class="cls-2" d="M73.44,74.35c.47.27.47.7,0,1l-2.56,1.49a1.87,1.87,0,0,1-1.68,0l-4-2.32c-.47-.27-.47-.7,0-1L67.75,72a1.81,1.81,0,0,1,1.69,0Z"/><path class="cls-2" d="M64.62,69.35c.47.27.48.7,0,1L62.08,71.8a1.81,1.81,0,0,1-1.68,0l-4-2.31c-.47-.27-.47-.7,0-1L58.94,67a1.84,1.84,0,0,1,1.68,0Z"/><path class="cls-2" d="M55.81,64.34c.45.27.45.68,0,.94L53.36,66.7a1.76,1.76,0,0,1-1.61,0l-3.84-2.22c-.46-.26-.45-.67,0-.93l2.45-1.42a1.7,1.7,0,0,1,1.61,0Z"/><path class="cls-2" d="M66.85,78.15c.47.27.48.7,0,1l-2.55,1.48a1.86,1.86,0,0,1-1.69,0l-4-2.31a.52.52,0,0,1,0-1l2.56-1.48a1.84,1.84,0,0,1,1.68,0Z"/><path class="cls-2" d="M58,73.15c.47.27.47.7,0,1l-2.55,1.49a1.84,1.84,0,0,1-1.68,0l-4-2.31a.52.52,0,0,1,0-1l2.55-1.48a1.84,1.84,0,0,1,1.68,0Z"/><path class="cls-2" d="M49.22,68.15c.45.26.45.67,0,.93l-2.45,1.43a1.79,1.79,0,0,1-1.61,0l-3.84-2.22a.5.5,0,0,1,0-.94l2.45-1.42a1.78,1.78,0,0,1,1.62,0Z"/><line class="cls-7" x1="38.71" y1="74.02" x2="52.71" y2="82.11"/><path class="cls-1" d="M57.79,24.23,38.4,35.42a4.79,4.79,0,0,1-4.3,0l-.53-.31a1.31,1.31,0,0,1,0-2.48L53,21.44a4.7,4.7,0,0,1,4.29,0l.54.31A1.31,1.31,0,0,1,57.79,24.23Z"/><rect class="cls-8" width="120" height="120"/><rect class="cls-8" width="120" height="120"/></g></g></svg>