<svg xmlns="http://www.w3.org/2000/svg" viewBox="0 0 120 120"><defs><style>.cls-1,.cls-2,.cls-7,.cls-8,.cls-9{fill:none;}.cls-1,.cls-2{stroke:#1b6dc6;}.cls-1,.cls-2,.cls-3,.cls-4,.cls-5,.cls-6,.cls-7,.cls-8{stroke-linecap:round;stroke-linejoin:round;stroke-width:2px;}.cls-2{stroke-dasharray:0 5.71;}.cls-3{fill:#b8bfca;}.cls-3,.cls-4,.cls-5,.cls-6,.cls-7{stroke:#fff;}.cls-4{fill:#d5dae0;}.cls-5{fill:#91d2fb;}.cls-6{fill:#bde4fd;}.cls-8{stroke:#627386;}</style></defs><title>prism</title><g id="Layer_2" data-name="Layer 2"><g id="Tech_Concepts" data-name="Tech Concepts"><line class="cls-1" x1="73.56" y1="19.08" x2="73.56" y2="19.08"/><line class="cls-2" x1="73.56" y1="24.79" x2="73.56" y2="39.06"/><line class="cls-1" x1="73.56" y1="41.92" x2="73.56" y2="41.92"/><line class="cls-1" x1="46.44" y1="19.08" x2="46.44" y2="19.08"/><line class="cls-2" x1="46.44" y1="24.79" x2="46.44" y2="39.06"/><line class="cls-1" x1="46.44" y1="41.92" x2="46.44" y2="41.92"/><polygon class="cls-3" points="73.56 41.92 60 49.75 60 119 109.8 90.25 73.56 41.92"/><polygon class="cls-4" points="46.44 41.92 60 49.75 60 119 10.2 90.25 46.44 41.92"/><polygon class="cls-4" points="46.44 41.92 60 34.09 73.56 41.92 60 49.75 46.44 41.92"/><polygon class="cls-5" points="60 1 60 26.9 73.56 19.08 60 1"/><polygon class="cls-6" points="60 1 60 26.9 46.44 19.08 60 1"/><polygon class="cls-1" points="60 1 46.44 19.08 60 26.9 73.56 19.08 60 1"/><line class="cls-7" x1="109.8" y1="90.25" x2="60" y2="61.49"/><line class="cls-7" x1="10.2" y1="90.25" x2="60" y2="61.49"/><polygon class="cls-8" points="73.56 41.92 60 34.09 46.44 41.92 10.2 90.25 60 119 109.8 90.25 73.56 41.92"/><rect class="cls-9" width="120" height="120"/><rect class="cls-9" width="120" height="120"/></g></g></svg>