<svg xmlns="http://www.w3.org/2000/svg" xmlns:xlink="http://www.w3.org/1999/xlink" viewBox="0 0 120 120"><defs><style>.cls-1,.cls-13,.cls-16,.cls-4,.cls-5,.cls-9{fill:none;}.cls-2{fill:#fff;}.cls-3,.cls-8{fill:#d5dae0;}.cls-4,.cls-8{stroke:#b8bfca;}.cls-10,.cls-13,.cls-14,.cls-15,.cls-16,.cls-4,.cls-5,.cls-6,.cls-8,.cls-9{stroke-linecap:round;stroke-linejoin:round;stroke-width:2px;}.cls-5,.cls-6{stroke:#627386;}.cls-6{fill:#627386;}.cls-7{clip-path:url(#clip-path);}.cls-14,.cls-9{stroke:#fff;}.cls-10,.cls-12,.cls-14{fill:#bde4fd;}.cls-10,.cls-13,.cls-15{stroke:#91d2fb;}.cls-11,.cls-15{fill:#91d2fb;}.cls-16{stroke:#1b6dc6;}</style><clipPath id="clip-path"><path class="cls-1" d="M119,43.89s-33.41-5-38.28-5S68,37.26,66.28,40.22c-.85,1.46-1.28,4.3-1.5,6.81l-.54.27c-2.79,1.61-5,5.93-5,9.64,0,2.45,1,4,2.45,4.35l-1,13,3.63-2.1V85s-6,19.75,13.11,21.83,41.65-3,41.65-3Z"/></clipPath></defs><title>private-cloud</title><g id="Layer_2" data-name="Layer 2"><g id="Tech_Concepts" data-name="Tech Concepts"><path class="cls-2" d="M100.43,32.26h0L82.08,21.66h0c-2.15-1.24-4.94-1.13-8,.64l-1.34.77L57,14h0c-3.58-2.06-8.24-1.88-13.34,1.07C33,21.23,24.25,37.17,23.33,51.6L13.25,57.42C6.48,61.33,1,71.8,1,80.82H1c0,4.93,1.65,8.39,4.24,9.89h0l18.35,10.6h0c2.14,1.24,4.94,1.13,8-.64L92.42,65.56c6.76-3.91,12.24-14.38,12.24-23.4h0C104.66,37.22,103,33.75,100.43,32.26Z"/><path class="cls-3" d="M92.42,32.9,82.33,38.72c-.92-13.36-9.66-19.21-20.32-13S42.6,47.77,41.68,62.19L31.6,68c-6.77,3.9-12.25,14.38-12.25,23.39s5.48,13.17,12.25,9.26L92.42,65.56c6.76-3.91,12.24-14.38,12.24-23.4h0C104.66,33.14,99.18,29,92.42,32.9Z"/><path class="cls-4" d="M92.42,32.9,82.33,38.72c-.92-13.36-9.66-19.21-20.32-13S42.6,47.77,41.68,62.19L31.6,68c-6.77,3.9-12.25,14.38-12.25,23.39"/><path class="cls-5" d="M100.43,32.26h0L82.08,21.66h0c-2.15-1.24-4.94-1.13-8,.64l-1.34.77L57,14h0c-3.58-2.06-8.24-1.88-13.34,1.07C33,21.23,24.25,37.17,23.33,51.6L13.25,57.42C6.48,61.33,1,71.8,1,80.82H1c0,4.93,1.65,8.39,4.24,9.89h0l18.35,10.6h0c2.14,1.24,4.94,1.13,8-.64L92.42,65.56c6.76-3.91,12.24-14.38,12.24-23.4h0C104.66,37.22,103,33.75,100.43,32.26Z"/><path class="cls-6" d="M69.29,51.12c0-3.72-2.26-5.43-5.05-3.82s-5,5.93-5,9.64c0,2.45,1,4,2.45,4.35l-1,13,7.26-4.19-1-11.79A12.9,12.9,0,0,0,69.29,51.12Z"/><g class="cls-7"><path class="cls-8" d="M54.66,62.67a2.7,2.7,0,0,1-.37-1.35V51.75a2.72,2.72,0,0,1,5.44,0v9.57a2.72,2.72,0,0,1-5.07,1.35Z"/><line class="cls-9" x1="56.02" y1="60.91" x2="56.02" y2="53.54"/><path class="cls-8" d="M44.78,61.63a2.73,2.73,0,0,1-.36-1.36V45a2.72,2.72,0,1,1,5.43,0V60.27a2.72,2.72,0,0,1-5.07,1.36Z"/><line class="cls-9" x1="46.14" y1="59.86" x2="46.14" y2="46.82"/><path class="cls-3" d="M87.89,72.83a4.4,4.4,0,0,1-2.23-.6L41.07,46.49a4.46,4.46,0,1,1,4.47-7.73L90.12,64.5a4.46,4.46,0,0,1-2.23,8.33Z"/><path class="cls-2" d="M87.73,68a1.87,1.87,0,0,1-.94-.25L44.08,43.13A1.88,1.88,0,0,1,46,39.87l42.7,24.65A1.88,1.88,0,0,1,87.73,68Z"/><path class="cls-4" d="M89.74,73.9a4.39,4.39,0,0,1-2.22-.6L41.07,46.49a4.46,4.46,0,1,1,4.47-7.73L92,65.57a4.46,4.46,0,0,1-2.24,8.33Z"/><path class="cls-10" d="M54.66,62.67a2.7,2.7,0,0,1-.37-1.35V51.75a2.72,2.72,0,0,1,5.44,0v9.57a2.72,2.72,0,0,1-5.07,1.35Z"/><line class="cls-9" x1="56.02" y1="60.91" x2="56.02" y2="53.54"/><path class="cls-10" d="M44.78,61.63a2.73,2.73,0,0,1-.36-1.36V45a2.72,2.72,0,1,1,5.43,0V60.27a2.72,2.72,0,0,1-5.07,1.36Z"/><line class="cls-9" x1="46.14" y1="59.86" x2="46.14" y2="46.82"/><path class="cls-11" d="M87.89,72.83a4.4,4.4,0,0,1-2.23-.6L41.07,46.49a4.46,4.46,0,1,1,4.47-7.73L90.12,64.5a4.46,4.46,0,0,1-2.23,8.33Z"/><path class="cls-12" d="M77.51,62.13a1.87,1.87,0,0,1-.94-.25L44.08,43.13A1.88,1.88,0,0,1,46,39.87L78.45,58.62a1.88,1.88,0,0,1-.94,3.51Z"/><path class="cls-13" d="M89.74,73.9a4.39,4.39,0,0,1-2.22-.6L41.07,46.49a4.46,4.46,0,1,1,4.47-7.73L92,65.57a4.46,4.46,0,0,1-2.24,8.33Z"/><path class="cls-12" d="M117.78,77.56c0-10.91-6.63-23.59-14.82-28.32-3.71-2.14-7.09-2.27-9.69-.77h0l-7.15,4.13,1.37,2.1a19.69,19.69,0,0,0-1.07,6.76c0,10.91,6.64,23.59,14.82,28.31a13.33,13.33,0,0,0,3.5,1.46l.77,2.46,7.16-4.14h0C115.79,87.73,117.78,83.53,117.78,77.56Z"/><path class="cls-14" d="M87.52,52c2.36-.77,5.22-.37,8.28,1.41,8.19,4.72,14.82,17.4,14.82,28.31S104,97.62,95.8,92.89c-5.15-3-9.68-9.09-12.34-16A34.85,34.85,0,0,1,81,64.58C81,57.76,83.58,53.24,87.52,52Z"/><path class="cls-11" d="M117.78,77.56c0-7.91-3.49-16.75-8.53-22.82a37.1,37.1,0,0,1,4.91,7.8l-13,7.5a17.27,17.27,0,0,1,1.74,7.2c0,5.23-3.18,7.64-7.11,5.37a14.54,14.54,0,0,1-5.36-6.38l-.41.24c2.72,5.75,6.73,10.71,11.2,13.29a13.33,13.33,0,0,0,3.5,1.46l.77,2.45,7.16-4.13h0C115.79,87.73,117.78,83.53,117.78,77.56Z"/><path class="cls-10" d="M87.52,52C83.58,53.24,81,57.76,81,64.58a34.85,34.85,0,0,0,2.47,12.36"/><path class="cls-14" d="M83.46,76.94c2.66,6.86,7.19,13,12.34,16,8.19,4.73,14.82-.29,14.82-11.2S104,58.1,95.8,53.38C92.74,51.6,89.88,51.2,87.52,52"/><path class="cls-15" d="M95.8,82.61c-3.92-2.26-7.1-8.34-7.1-13.58s3.18-7.64,7.1-5.37,7.11,8.34,7.11,13.58S99.73,84.88,95.8,82.61Z"/><path class="cls-16" d="M115.45,86.84a9.74,9.74,0,0,0,.59-1l0,0a13,13,0,0,0,.83-2,5.76,5.76,0,0,0,.18-.59,20.85,20.85,0,0,0,.71-5.62c0-.44,0-.89,0-1.33,0-.12,0-.24,0-.36q0-.59-.09-1.17c0-.07,0-.13,0-.19-.05-.44-.11-.89-.18-1.34,0-.12,0-.23,0-.34-.06-.38-.13-.76-.2-1.14,0-.09,0-.17,0-.26-.09-.45-.19-.91-.3-1.36a2.68,2.68,0,0,1-.07-.27c-.1-.39-.2-.78-.31-1.16,0-.1,0-.19-.08-.28-.14-.46-.28-.92-.43-1.37,0,0,0-.1,0-.14-.14-.42-.29-.84-.44-1.25l-.1-.25c-.35-.91-.73-1.82-1.15-2.7a2,2,0,0,0-.1-.21c-.42-.9-.88-1.77-1.36-2.62l-.09-.15c-.5-.86-1-1.7-1.58-2.5a.35.35,0,0,0,0-.08c-.27-.39-.55-.78-.83-1.15l0,0c-.3-.39-.61-.78-.92-1.15h0A24,24,0,0,0,103,49.24c-3.71-2.14-7.09-2.27-9.69-.77h0l-7.15,4.13h0c-2.16,1.25-3.77,3.63-4.57,6.95l-36-20.79a4.46,4.46,0,1,0-4.47,7.73l3.35,1.93V60.27a2.73,2.73,0,0,0,.36,1.36,2.72,2.72,0,0,0,5.07-1.36V51.56l4.44,2.56v7.2a2.72,2.72,0,0,0,5.44,0V57.26L81.46,69.8c1.65,9.47,7.44,19.11,14.34,23.09,3.71,2.14,7.1,2.28,9.7.78h0l7.16-4.13h0A8.65,8.65,0,0,0,115.45,86.84Zm-1.29-24.3Z"/></g><path class="cls-5" d="M64.24,47.3c-2.79,1.61-5,5.93-5,9.64,0,2.45,1,4,2.45,4.35l-1,13"/><rect class="cls-1" width="120" height="120"/><rect class="cls-1" width="120" height="120"/></g></g></svg>