<svg xmlns="http://www.w3.org/2000/svg" viewBox="0 0 120 120"><defs><style>.cls-1,.cls-4,.cls-6{fill:#91d2fb;}.cls-1,.cls-10,.cls-4,.cls-5{stroke:#91d2fb;}.cls-1,.cls-14{stroke-miterlimit:10;}.cls-10,.cls-2{fill:#bde4fd;}.cls-14,.cls-15,.cls-17,.cls-3,.cls-5,.cls-8{fill:none;}.cls-3{stroke:#1b6dc6;}.cls-10,.cls-11,.cls-13,.cls-15,.cls-3,.cls-4,.cls-5,.cls-7,.cls-8{stroke-linecap:round;stroke-linejoin:round;}.cls-10,.cls-11,.cls-13,.cls-14,.cls-15,.cls-3,.cls-4,.cls-5,.cls-7,.cls-8{stroke-width:2px;}.cls-7{fill:#fff;}.cls-11,.cls-13,.cls-7,.cls-8{stroke:#b8bfca;}.cls-11,.cls-9{fill:#d5dae0;}.cls-12,.cls-13{fill:#b8bfca;}.cls-14{stroke:#d5dae0;}.cls-15{stroke:#627386;}.cls-16{fill:#627386;}</style></defs><title>property-&amp;amp;-casuality-insurance</title><g id="Layer_2" data-name="Layer 2"><g id="Industries"><polygon class="cls-1" points="1 82.17 66.77 44.2 119 74.36 53.23 112.33 1 82.17"/><polygon class="cls-2" points="8.29 86.38 53.23 112.33 111.71 78.56 66.77 52.61 8.29 86.38"/><polygon class="cls-3" points="1 82.17 66.77 44.2 119 74.36 53.23 112.33 1 82.17"/><polygon class="cls-4" points="98.24 67.94 98.24 76.36 53.23 102.34 53.23 93.93 98.24 67.94"/><polygon class="cls-2" points="21.76 75.76 21.76 84.17 53.23 102.34 53.23 93.93 21.76 75.76"/><polygon class="cls-5" points="21.76 75.76 21.76 84.17 53.23 102.34 53.23 93.93 21.76 75.76"/><path class="cls-6" d="M101.41,45.46,82.51,7.67l-45,26L21.76,47h0l-3.17,2.67,3.17,1.83V75.76L53.23,93.93l45-26V47.29Z"/><polyline class="cls-5" points="18.59 49.62 37.49 33.66 56.4 71.45"/><polygon class="cls-7" points="21.76 46.95 21.76 75.76 53.23 93.93 53.23 65.4 37.49 33.66 21.76 46.95"/><line class="cls-8" x1="37.49" y1="33.66" x2="37.49" y2="53.44"/><polygon class="cls-9" points="53.23 93.93 21.76 75.76 21.76 69.54 53.23 87.71 53.23 93.93"/><polyline class="cls-10" points="63.6 23.63 82.51 7.67 101.41 45.46"/><polygon class="cls-10" points="66.77 53.77 98.25 67.94 98.25 39.41 66.77 21.24 66.77 53.77"/><polygon class="cls-11" points="98.25 67.94 53.23 93.93 53.23 65.4 98.25 39.41 98.25 67.94"/><polygon class="cls-12" points="53.23 93.93 98.25 67.94 98.25 61.73 53.23 87.71 53.23 93.93"/><polygon class="cls-13" points="56.4 71.45 101.41 45.46 82.51 7.67 37.49 33.66 56.4 71.45"/><polygon class="cls-14" points="40.31 34.51 81.61 10.66 98.6 44.62 57.3 68.47 40.31 34.51"/><polygon class="cls-9" points="41.52 41.72 86.54 15.73 82.51 7.67 37.49 33.66 41.52 41.72"/><polygon class="cls-15" points="56.4 71.45 101.41 45.46 82.51 7.67 37.49 33.66 56.4 71.45"/><path class="cls-15" d="M101.41,45.46,82.51,7.67l-45,26L21.76,47h0l-3.17,2.67,3.17,1.83V75.76L53.23,93.93l45-26V47.29Z"/><polygon class="cls-3" points="78.18 32.95 75.25 27.09 73.81 19.93 62.5 24.05 64.34 27.72 64.34 27.72 66.53 32.12 67.63 34.31 67.63 34.31 69.47 37.98 78.18 32.95"/><polygon class="cls-13" points="69.47 37.98 69.47 20.32 62.5 16.3 62.5 24.05 69.47 37.98"/><polygon class="cls-16" points="78.18 15.29 69.47 20.32 69.47 37.98 78.18 32.95 78.18 15.29"/><polygon class="cls-7" points="78.18 15.29 71.21 11.27 62.5 16.3 69.47 20.32 78.18 15.29"/><polygon class="cls-15" points="71.21 11.27 62.5 16.3 62.5 24.05 69.47 37.98 78.18 32.95 78.18 15.29 71.21 11.27"/><line class="cls-15" x1="91.23" y1="59.04" x2="60.25" y2="76.92"/><line class="cls-8" x1="46.04" y1="76.82" x2="28.95" y2="66.95"/><rect class="cls-17" width="120" height="120"/><rect class="cls-17" width="120" height="120"/></g></g></svg>