<svg xmlns="http://www.w3.org/2000/svg" viewBox="0 0 120 120"><defs><style>.cls-1,.cls-15,.cls-2,.cls-3,.cls-4,.cls-5,.cls-9{fill:none;}.cls-1,.cls-2,.cls-3{stroke:#627386;}.cls-1,.cls-10,.cls-11,.cls-12,.cls-14,.cls-2,.cls-3,.cls-4,.cls-5,.cls-6,.cls-8,.cls-9{stroke-linecap:round;stroke-linejoin:round;stroke-width:2px;}.cls-2{stroke-dasharray:0 6.5;}.cls-3{stroke-dasharray:0 6.5;}.cls-4,.cls-5{stroke:#1b6dc6;}.cls-5{stroke-dasharray:0 6.8;}.cls-6{fill:#b8bfca;}.cls-6,.cls-8,.cls-9{stroke:#b8bfca;}.cls-7{fill:#d5dae0;}.cls-12,.cls-8{fill:#fff;}.cls-10,.cls-13,.cls-14{fill:#91d2fb;}.cls-10,.cls-11,.cls-12{stroke:#91d2fb;}.cls-11{fill:#bde4fd;}.cls-14{stroke:#bde4fd;}</style></defs><title>resilient</title><g id="Layer_2" data-name="Layer 2"><g id="Tech_Concepts" data-name="Tech Concepts"><line class="cls-1" x1="18" y1="87.57" x2="18" y2="87.57"/><line class="cls-2" x1="18" y1="81.06" x2="18" y2="71.31"/><line class="cls-1" x1="18" y1="68.06" x2="18" y2="68.06"/><line class="cls-1" x1="102" y1="87.57" x2="102" y2="87.57"/><line class="cls-3" x1="102" y1="81.06" x2="102" y2="71.31"/><line class="cls-1" x1="102" y1="68.06" x2="102" y2="68.06"/><line class="cls-4" x1="18" y1="60.88" x2="18" y2="60.88"/><line class="cls-5" x1="18" y1="54.08" x2="18" y2="43.88"/><line class="cls-4" x1="18" y1="40.48" x2="18" y2="40.48"/><polygon class="cls-6" points="60 111.82 60 119 102 94.75 102 87.57 60 111.82"/><polygon class="cls-6" points="30.67 87.57 36.89 91.16 60 77.81 60 70.63 30.67 87.57"/><polygon class="cls-7" points="89.33 87.57 83.11 91.16 60 77.81 60 70.63 89.33 87.57"/><polygon class="cls-8" points="60 111.82 60 119 53.66 115.34 53.66 108.16 60 111.82"/><path class="cls-8" d="M102,87.57,66.34,67h0L60,63.32,53.66,67h0L18,87.57l6.33,3.65h0L60,111.82l35.67-20.6h0ZM60,104.5,30.67,87.57,60,70.63,89.33,87.57Z"/><polygon class="cls-7" points="60 111.82 60 119 18 94.75 18 87.57 60 111.82"/><polygon class="cls-9" points="89.33 87.57 83.11 91.16 60 77.81 60 70.63 89.33 87.57"/><polygon class="cls-9" points="60 111.82 60 119 18 94.75 18 87.57 60 111.82"/><path class="cls-1" d="M102,87.57,66.34,67,60,63.32,53.66,67,18,87.57h0v7.18L60,119l42-24.25V87.57ZM36.89,91.16,60,77.82,83.11,91.16,60,104.5Z"/><polygon class="cls-10" points="60 85.13 60 92.31 102 68.06 102 60.88 60 85.13"/><polygon class="cls-10" points="30.67 60.88 36.89 64.47 60 51.13 60 43.94 30.67 60.88"/><polygon class="cls-11" points="89.33 60.88 83.11 64.47 60 51.13 60 43.94 89.33 60.88"/><path class="cls-12" d="M102,60.88,66.34,40.28h0L60,36.63l-6.34,3.65h0L18,60.88l6.33,3.65h0L60,85.13l35.67-20.6h0ZM60,77.81,30.67,60.88,60,43.94,89.33,60.88Z"/><polygon class="cls-11" points="60 85.13 60 92.31 18 68.06 18 60.88 60 85.13"/><path class="cls-4" d="M102,60.88,66.34,40.28,60,36.63l-6.34,3.65L18,60.88h0v7.18L60,92.31l42-24.25V60.88ZM36.89,64.47,60,51.13,83.11,64.47,60,77.81Z"/><line class="cls-4" x1="102" y1="60.88" x2="102" y2="60.88"/><line class="cls-5" x1="102" y1="54.08" x2="102" y2="43.88"/><line class="cls-4" x1="102" y1="40.48" x2="102" y2="40.48"/><path class="cls-8" d="M100.6,38,63.39,16.47a7.5,7.5,0,0,0-6.78,0L19.4,38c-1.87,1.08-1.87,2.83,0,3.91L56.61,63.35a7.5,7.5,0,0,0,6.78,0L100.6,41.87C102.47,40.79,102.47,39,100.6,38Z"/><path class="cls-11" d="M78.59,25.25l-15.2-8.78a7.5,7.5,0,0,0-6.78,0l-15.2,8.78H18V39.91a2.37,2.37,0,0,0,1.4,2L56.61,63.35a7.5,7.5,0,0,0,6.78,0L100.6,41.87a2.37,2.37,0,0,0,1.4-2V25.25Z"/><path class="cls-13" d="M63.39,63.35,100.6,41.87a2.37,2.37,0,0,0,1.4-2V25.25H78.59l-15.2-8.78A6.94,6.94,0,0,0,60,15.66v48.5A6.94,6.94,0,0,0,63.39,63.35Z"/><line class="cls-11" x1="43.5" y1="49.01" x2="32.51" y2="42.66"/><path class="cls-12" d="M100.6,23.29,63.39,1.81a7.5,7.5,0,0,0-6.78,0L19.4,23.29c-1.87,1.08-1.87,2.84,0,3.92L56.61,48.69a7.5,7.5,0,0,0,6.78,0L100.6,27.21C102.47,26.13,102.47,24.37,100.6,23.29Z"/><polygon class="cls-14" points="91.89 46.9 72.23 58.25 72.23 51.48 91.89 40.13 91.89 46.9"/><path class="cls-4" d="M100.6,23.29,63.39,1.81a7.5,7.5,0,0,0-6.78,0L19.4,23.29a2.37,2.37,0,0,0-1.4,2V39.91a2.37,2.37,0,0,0,1.4,2L56.61,63.35a7.5,7.5,0,0,0,6.78,0L100.6,41.87a2.37,2.37,0,0,0,1.4-2V25.25A2.37,2.37,0,0,0,100.6,23.29Z"/><ellipse class="cls-13" cx="92.4" cy="25.25" rx="1.9" ry="1.1"/><ellipse class="cls-13" cx="60" cy="43.96" rx="1.9" ry="1.1"/><ellipse class="cls-13" cx="60" cy="6.54" rx="1.9" ry="1.1"/><ellipse class="cls-13" cx="27.6" cy="25.25" rx="1.9" ry="1.1"/><rect class="cls-15" width="120" height="120"/><rect class="cls-15" width="120" height="120"/></g></g></svg>