<svg xmlns="http://www.w3.org/2000/svg" viewBox="0 0 121 120"><defs><style>.cls-1,.cls-11,.cls-4{fill:#fff;}.cls-1,.cls-2,.cls-3,.cls-6{stroke:#b8bfca;}.cls-1,.cls-10,.cls-14,.cls-16,.cls-17,.cls-18,.cls-2,.cls-3,.cls-4,.cls-6,.cls-9{stroke-linecap:round;stroke-linejoin:round;}.cls-1,.cls-10,.cls-14,.cls-16,.cls-17,.cls-18,.cls-2,.cls-3,.cls-4,.cls-6,.cls-8,.cls-9{stroke-width:2px;}.cls-2,.cls-7{fill:#b8bfca;}.cls-3,.cls-5,.cls-8{fill:#d5dae0;}.cls-14,.cls-16,.cls-17,.cls-4{stroke:#91d2fb;}.cls-10,.cls-14,.cls-18,.cls-19,.cls-6,.cls-9{fill:none;}.cls-8,.cls-9{stroke:#fff;}.cls-8{stroke-miterlimit:10;}.cls-10{stroke:#627386;}.cls-12{fill:#627386;}.cls-13,.cls-17{fill:#91d2fb;}.cls-15,.cls-16{fill:#bde4fd;}.cls-18{stroke:#1b6dc6;}</style></defs><title>ROBO</title><g id="Layer_2" data-name="Layer 2"><g id="Industries"><polygon class="cls-1" points="81.18 27.74 42.96 49.81 9.21 30.32 47.42 8.26 81.18 27.74"/><polygon class="cls-1" points="81.18 27.74 42.96 49.81 9.21 30.32 47.42 8.26 81.18 27.74"/><polygon class="cls-2" points="81.18 27.74 81.18 78.16 42.96 100.22 42.96 49.81 81.18 27.74"/><polygon class="cls-1" points="87.07 29.18 45.08 53.42 9.21 32.71 51.2 8.46 87.07 29.18"/><polygon class="cls-3" points="16.89 34.76 16.89 85.17 42.96 100.22 42.96 49.81 16.89 34.76"/><polygon class="cls-4" points="93.01 84.99 54.79 107.05 42.96 100.22 81.18 78.16 93.01 84.99"/><polygon class="cls-2" points="54.79 77.58 42.96 84.41 42.96 113.88 54.79 107.05 93.01 84.99 93.01 55.51 54.79 77.58"/><polygon class="cls-5" points="54.79 99.04 42.96 105.87 42.96 113.88 54.79 107.05 93.01 83.8 93.01 76.98 54.79 99.04"/><polygon class="cls-6" points="54.79 77.58 42.96 84.41 42.96 113.88 54.79 107.05 93.01 84.99 93.01 55.51 54.79 77.58"/><polygon class="cls-1" points="81.18 48.68 42.96 70.75 31.13 63.92 19.3 70.75 42.96 84.41 93.01 55.51 81.18 48.68"/><polygon class="cls-7" points="9.21 26.75 9.21 32.71 45.08 53.42 45.08 47.46 9.21 26.75"/><polygon class="cls-7" points="87.07 23.22 87.07 29.18 45.08 53.42 45.08 47.46 87.07 23.22"/><polygon class="cls-8" points="87.07 23.22 45.08 47.46 9.21 26.75 51.2 2.5 87.07 23.22"/><polygon class="cls-9" points="23.52 26.75 51.2 10.77 72.76 23.22 45.08 39.2 23.52 26.75"/><polygon class="cls-10" points="51.2 2.5 9.21 26.75 9.21 32.71 45.08 53.42 87.07 29.18 87.07 23.22 51.2 2.5"/><polygon class="cls-3" points="31.13 77.58 19.3 70.75 19.3 28.14 5.07 19.92 5.07 92 19.3 100.22 31.13 107.05 42.96 113.88 42.96 84.41 31.13 77.58"/><polygon class="cls-11" points="5.07 83.99 5.07 92 31.13 107.05 42.96 113.88 42.96 105.87 31.13 99.04 5.07 83.99"/><polygon class="cls-6" points="31.13 77.58 19.3 70.75 19.3 28.14 5.07 19.92 5.07 92 19.3 100.22 31.13 107.05 42.96 113.88 42.96 84.41 31.13 77.58"/><polygon class="cls-2" points="31.13 63.92 19.3 70.75 19.3 28.14 31.13 21.31 31.13 63.92"/><polygon class="cls-1" points="16.89 13.09 5.07 19.92 19.3 28.14 31.13 21.31 16.89 13.09"/><polygon class="cls-1" points="2 20.9 17.01 12.23 34.2 22.15 19.18 30.82 2 20.9"/><polygon class="cls-7" points="34.2 16.76 34.2 22.15 19.18 30.82 19.18 25.43 34.2 16.76"/><polygon class="cls-7" points="2 15.51 2 20.9 19.18 30.82 19.18 25.43 2 15.51"/><polygon class="cls-8" points="2 15.51 17.01 6.84 34.2 16.76 19.18 25.43 2 15.51"/><polygon class="cls-10" points="17.01 6.84 2 15.51 2 20.9 19.18 30.82 34.2 22.15 34.2 16.76 17.01 6.84"/><polygon class="cls-11" points="12.88 15.93 17.75 13.12 23.31 16.34 18.45 19.14 12.88 15.93"/><polygon class="cls-10" points="93.01 84.99 93.01 84.99 93.01 83.8 93.01 76.98 93.01 55.51 93.01 55.51 81.18 48.68 81.18 48.68 81.18 32.58 87.07 29.18 87.07 23.22 51.2 2.5 30.35 14.54 17.01 6.84 2 15.51 2 20.9 5.07 22.67 5.07 92 19.3 100.22 31.13 107.05 40.64 112.54 42.96 113.88 42.96 113.88 54.79 107.05 54.79 107.05 54.79 107.05 93.01 84.99"/><polygon class="cls-7" points="14.29 40.91 9.45 38.11 9.45 31.66 14.29 34.45 14.29 40.91"/><polygon class="cls-7" points="14.29 69.53 9.45 66.73 9.45 45.97 14.29 48.76 14.29 69.53"/><polygon class="cls-7" points="14.29 69.53 9.45 66.73 9.45 60.28 14.29 63.07 14.29 69.53"/><polygon class="cls-7" points="14.29 83.83 9.45 81.04 9.45 74.59 14.29 77.38 14.29 83.83"/><polygon class="cls-7" points="25.77 90.47 20.93 87.67 20.93 81.22 25.77 84.02 25.77 90.47"/><polygon class="cls-7" points="37.26 97.1 32.42 94.31 32.42 87.85 37.26 90.65 37.26 97.1"/><polygon class="cls-12" points="48.16 63.45 53 60.66 53 54.2 48.16 57 48.16 63.45"/><polygon class="cls-12" points="59.65 56.82 64.49 54.03 64.49 47.57 59.65 50.37 59.65 56.82"/><polygon class="cls-12" points="71.14 50.19 75.98 47.39 75.98 40.94 71.14 43.73 71.14 50.19"/><polygon class="cls-12" points="71.14 50.19 75.98 47.39 75.98 40.94 71.14 43.73 71.14 50.19"/><polygon class="cls-12" points="22.8 64.95 27.64 62.15 27.64 31.85 22.8 34.65 22.8 64.95"/><path class="cls-13" d="M120,87.76,109.29,66.34,83.77,81.07,74.85,88.6h0l-1.79,1.52,1.79,1v16l17.84,10.3,25.52-14.73v-14Z"/><polyline class="cls-14" points="73.06 90.11 83.77 81.07 94.49 102.49"/><polygon class="cls-4" points="74.85 88.6 74.85 107.2 92.69 117.5 92.69 99.06 83.77 81.07 74.85 88.6"/><polygon class="cls-15" points="92.69 117.5 74.85 107.2 74.85 102.11 92.69 112.41 92.69 117.5"/><polyline class="cls-16" points="98.57 75.39 109.28 66.34 120 87.76"/><polygon class="cls-16" points="100.36 92.47 118.21 102.77 118.21 84.33 100.36 74.03 100.36 92.47"/><polygon class="cls-16" points="118.21 102.77 92.69 117.5 92.69 99.06 118.21 84.33 118.21 102.77"/><polygon class="cls-13" points="92.69 117.5 118.21 102.77 118.21 97.68 92.69 112.41 92.69 117.5"/><polygon class="cls-17" points="94.49 102.49 120 87.76 109.28 66.34 83.77 81.07 94.49 102.49"/><polygon class="cls-18" points="94.49 102.49 120 87.76 109.28 66.34 83.77 81.07 94.49 102.49"/><path class="cls-18" d="M120,87.76,109.29,66.34,83.77,81.07,74.85,88.6h0l-1.79,1.52,1.79,1v16l17.84,10.3,25.52-14.73v-14Z"/><polygon class="cls-12" points="53.17 92.92 82.8 75.82 82.8 69.36 53.17 86.47 53.17 92.92"/><rect class="cls-19" x="1" width="120" height="120"/><rect class="cls-19" x="1" width="120" height="120"/></g></g></svg>