<svg xmlns="http://www.w3.org/2000/svg" viewBox="0 0 120 120"><defs><style>.cls-1{fill:#91d2fb;}.cls-2{fill:#bde4fd;}.cls-3{fill:#fff;stroke:#91d2fb;}.cls-3,.cls-4,.cls-7,.cls-9{stroke-linecap:round;stroke-linejoin:round;stroke-width:2px;}.cls-4,.cls-7,.cls-8,.cls-9{fill:none;}.cls-4{stroke:#1b6dc6;}.cls-5{fill:#d5dae0;}.cls-6{fill:#b8bfca;}.cls-7{stroke:#fff;}.cls-9{stroke:#627386;}</style></defs><title>ROI</title><g id="Layer_2" data-name="Layer 2"><g id="Tech_Concepts" data-name="Tech Concepts"><polygon class="cls-1" points="37.73 10.11 37.77 20.91 47.87 15.07 47.83 4.28 37.73 10.11"/><polygon class="cls-1" points="12.27 1 12.31 9.31 17.86 29.92 17.82 21.61 12.27 1"/><polygon class="cls-1" points="17.82 21.58 17.86 29.92 27.97 24.09 27.93 15.75 17.82 21.58"/><polygon class="cls-2" points="27.93 15.75 27.97 24.09 43.42 33.07 43.38 24.73 27.93 15.75"/><polygon class="cls-1" points="43.38 24.73 43.42 33.07 53.22 27.41 53.18 19.07 43.38 24.73"/><polygon class="cls-3" points="12.27 1 17.82 21.61 27.93 15.77 43.38 24.75 53.18 19.09 37.73 10.11 47.83 4.28 12.27 1"/><path class="cls-4" d="M53.18,19.07h0L47.86,16l0-11.72h0L12.27,1l0,8.32,5.56,20.6h0L28,24.09l15.46,9,9.79-5.66Z"/><path class="cls-5" d="M102.52,41.6l-.34-.21c-9.84-5.68-25.79-5.68-35.63,0l-.34.21h-7V50c0,3.72,2.46,7.45,7.38,10.29,9.84,5.68,25.79,5.68,35.63,0,4.92-2.84,7.38-6.57,7.38-10.29V41.6Z"/><path class="cls-6" d="M102.18,60.29c4.92-2.84,7.38-6.57,7.38-10.29V41.6h-7l-.34-.21c-4.92-2.84-11.37-4.26-17.82-4.26V64.55C90.81,64.55,97.26,63.13,102.18,60.29Z"/><ellipse class="cls-5" cx="84.36" cy="41.6" rx="25.19" ry="14.55"/><ellipse class="cls-7" cx="84.36" cy="41.6" rx="25.19" ry="14.55"/><ellipse class="cls-8" cx="84.36" cy="50" rx="25.19" ry="14.55"/><path class="cls-9" d="M109.56,50V41.6h0c0-3.72-2.46-7.44-7.38-10.28-9.84-5.68-25.79-5.68-35.63,0-4.92,2.84-7.38,6.56-7.38,10.28h0V50c0,3.72,2.46,7.45,7.38,10.29s11.36,4.26,17.81,4.26c.81,0,1.61,0,2.42-.07A44.13,44.13,0,0,0,91.54,64c.77-.14,1.55-.29,2.3-.47a30.68,30.68,0,0,0,8.34-3.19,15.73,15.73,0,0,0,6.34-6.15A9,9,0,0,0,109.56,50Z"/><path class="cls-6" d="M94.11,45.67l2.67,1.54-2.37,1.38-2.6-1.5a21.44,21.44,0,0,1-4,1.58,16.68,16.68,0,0,1-3.85.75L82.37,47a21.18,21.18,0,0,0,3.24-.59,16.71,16.71,0,0,0,3.06-1.12l-4-2.31a36.56,36.56,0,0,1-3.75,1.14,12.29,12.29,0,0,1-3.43.29,7.65,7.65,0,0,1-3.37-1,3.25,3.25,0,0,1-2-2.8c0-1.1.81-2.24,2.43-3.41l-2.66-1.53,2.37-1.38,2.6,1.5a19.74,19.74,0,0,1,6.3-2l1.73,2.38a18.83,18.83,0,0,0-4.87,1.39l4.07,2.35a33.32,33.32,0,0,1,3.67-1.13,12.15,12.15,0,0,1,3.42-.28,7.5,7.5,0,0,1,3.33,1,3.2,3.2,0,0,1,1.93,2.77C96.46,43.37,95.68,44.49,94.11,45.67ZM79.2,41.33a7.85,7.85,0,0,0,2-.38l-3.41-2a1.63,1.63,0,0,0-.65,1.17,1.14,1.14,0,0,0,.66.88,2.61,2.61,0,0,0,1.42.3m8.45.61L91,43.85a1.61,1.61,0,0,0,.66-1.11,1,1,0,0,0-.6-.84,2.51,2.51,0,0,0-1.43-.31,9.25,9.25,0,0,0-1.93.35"/><path class="cls-5" d="M102.52,33.2l-.34-.21c-9.84-5.68-25.79-5.68-35.63,0l-.34.21h-7v8.4c0,3.72,2.46,7.44,7.38,10.28,9.84,5.68,25.79,5.68,35.63,0,4.92-2.84,7.38-6.56,7.38-10.28V33.2Z"/><path class="cls-6" d="M102.18,51.88c4.92-2.84,7.38-6.56,7.38-10.28V33.2h-7l-.34-.21c-4.92-2.84-11.37-4.26-17.82-4.26V56.14C90.81,56.14,97.26,54.72,102.18,51.88Z"/><ellipse class="cls-5" cx="84.36" cy="33.2" rx="25.19" ry="14.55"/><ellipse class="cls-7" cx="84.36" cy="33.2" rx="25.19" ry="14.55"/><ellipse class="cls-8" cx="84.36" cy="41.6" rx="25.19" ry="14.55"/><path class="cls-9" d="M109.56,41.6V33.2h0c0-3.72-2.46-7.45-7.38-10.29-9.84-5.68-25.79-5.68-35.63,0-4.92,2.84-7.38,6.57-7.38,10.29h0v8.4c0,3.72,2.46,7.44,7.38,10.28s11.36,4.26,17.81,4.26c.81,0,1.61,0,2.42-.06a41.75,41.75,0,0,0,4.76-.54c.77-.13,1.55-.28,2.3-.46a30.7,30.7,0,0,0,8.34-3.2,15.65,15.65,0,0,0,6.34-6.14A9.07,9.07,0,0,0,109.56,41.6Z"/><path class="cls-6" d="M94.11,37.27l2.67,1.54-2.37,1.38-2.6-1.5a21.44,21.44,0,0,1-4,1.58A17.23,17.23,0,0,1,84,41l-1.61-2.44A20,20,0,0,0,85.61,38a16,16,0,0,0,3.06-1.12l-4-2.3c-1.4.49-2.66.88-3.75,1.14A12.67,12.67,0,0,1,77.5,36a7.78,7.78,0,0,1-3.37-1,3.26,3.26,0,0,1-2-2.81c0-1.09.81-2.23,2.43-3.4l-2.66-1.53,2.37-1.38,2.6,1.5a19.76,19.76,0,0,1,6.3-2l1.73,2.38a18.82,18.82,0,0,0-4.87,1.4l4.07,2.35a35.91,35.91,0,0,1,3.67-1.14,12.94,12.94,0,0,1,3.42-.28,7.64,7.64,0,0,1,3.33,1,3.18,3.18,0,0,1,1.93,2.76C96.46,35,95.68,36.09,94.11,37.27ZM79.2,32.93a7.85,7.85,0,0,0,2-.38l-3.41-2a1.63,1.63,0,0,0-.65,1.17,1.14,1.14,0,0,0,.66.88,2.61,2.61,0,0,0,1.42.3m8.45.61L91,35.45a1.63,1.63,0,0,0,.66-1.11,1,1,0,0,0-.6-.84,2.51,2.51,0,0,0-1.43-.31,8.63,8.63,0,0,0-1.93.35"/><path class="cls-5" d="M102.52,24.8l-.34-.21c-9.84-5.68-25.79-5.68-35.63,0l-.34.21h-7v8.4c0,3.72,2.46,7.44,7.38,10.29,9.84,5.68,25.79,5.68,35.63,0,4.92-2.85,7.38-6.57,7.38-10.29V24.8Z"/><path class="cls-6" d="M102.18,43.49c4.92-2.85,7.38-6.57,7.38-10.29V24.8h-7l-.34-.21c-4.92-2.84-11.37-4.26-17.82-4.26V47.75C90.81,47.75,97.26,46.33,102.18,43.49Z"/><ellipse class="cls-5" cx="84.36" cy="24.8" rx="25.19" ry="14.55"/><ellipse class="cls-7" cx="84.36" cy="24.8" rx="25.19" ry="14.55"/><ellipse class="cls-8" cx="84.36" cy="33.2" rx="25.19" ry="14.55"/><path class="cls-9" d="M109.56,33.2V24.8h0c0-3.72-2.46-7.44-7.38-10.28-9.84-5.68-25.79-5.68-35.63,0-4.92,2.84-7.38,6.56-7.38,10.28h0v8.4c0,3.72,2.46,7.44,7.38,10.28s11.36,4.27,17.81,4.27c.81,0,1.61,0,2.42-.07a44.13,44.13,0,0,0,4.76-.53c.77-.14,1.55-.29,2.3-.47a30.37,30.37,0,0,0,8.34-3.2,15.65,15.65,0,0,0,6.34-6.14A9,9,0,0,0,109.56,33.2Z"/><path class="cls-6" d="M94.11,28.87l2.67,1.54-2.37,1.38-2.6-1.5a21.44,21.44,0,0,1-4,1.58,16.68,16.68,0,0,1-3.85.75l-1.61-2.43a21.18,21.18,0,0,0,3.24-.59,16.71,16.71,0,0,0,3.06-1.12l-4-2.31a36.56,36.56,0,0,1-3.75,1.14,12.29,12.29,0,0,1-3.43.29,7.78,7.78,0,0,1-3.37-1,3.25,3.25,0,0,1-2-2.8c0-1.1.81-2.24,2.43-3.41l-2.66-1.53,2.37-1.38,2.6,1.5a19.74,19.74,0,0,1,6.3-2l1.73,2.38a18.83,18.83,0,0,0-4.87,1.39l4.07,2.35A33.32,33.32,0,0,1,87.81,22a12.15,12.15,0,0,1,3.42-.28,7.5,7.5,0,0,1,3.33,1,3.19,3.19,0,0,1,1.93,2.76C96.46,26.57,95.68,27.69,94.11,28.87ZM79.2,24.53a7.85,7.85,0,0,0,2-.38l-3.41-2a1.63,1.63,0,0,0-.65,1.17,1.14,1.14,0,0,0,.66.88,2.61,2.61,0,0,0,1.42.3m8.45.61L91,27.05a1.63,1.63,0,0,0,.66-1.11,1,1,0,0,0-.6-.84,2.51,2.51,0,0,0-1.43-.31,9.25,9.25,0,0,0-1.93.35"/><path class="cls-5" d="M102.52,16.4l-.34-.21c-9.84-5.68-25.79-5.68-35.63,0l-.34.21h-7v8.4c0,3.72,2.46,7.44,7.38,10.28,9.84,5.68,25.79,5.68,35.63,0,4.92-2.84,7.38-6.56,7.38-10.28V16.4Z"/><path class="cls-6" d="M102.18,35.08c4.92-2.84,7.38-6.56,7.38-10.28V16.4h-7l-.34-.21c-4.92-2.84-11.37-4.26-17.82-4.26V39.34C90.81,39.34,97.26,37.92,102.18,35.08Z"/><ellipse class="cls-5" cx="84.36" cy="16.4" rx="25.19" ry="14.55"/><ellipse class="cls-7" cx="84.36" cy="16.4" rx="25.19" ry="14.55"/><ellipse class="cls-8" cx="84.36" cy="24.8" rx="25.19" ry="14.55"/><path class="cls-9" d="M109.56,24.8V16.4h0c0-3.72-2.46-7.45-7.38-10.29C92.34.43,76.39.43,66.55,6.11,61.63,9,59.17,12.68,59.17,16.4h0v8.4c0,3.72,2.46,7.44,7.38,10.28s11.36,4.26,17.81,4.26c.81,0,1.61,0,2.42-.06a41.75,41.75,0,0,0,4.76-.54c.77-.13,1.55-.28,2.3-.46a30.7,30.7,0,0,0,8.34-3.2,15.65,15.65,0,0,0,6.34-6.14A9.07,9.07,0,0,0,109.56,24.8Z"/><path class="cls-6" d="M94.11,20.47,96.78,22l-2.37,1.38-2.6-1.5a21.44,21.44,0,0,1-4,1.58,17.81,17.81,0,0,1-3.85.75l-1.61-2.44a20,20,0,0,0,3.24-.59,16,16,0,0,0,3.06-1.12l-4-2.3a36.28,36.28,0,0,1-3.75,1.13,11.92,11.92,0,0,1-3.43.29,7.64,7.64,0,0,1-3.37-1,3.26,3.26,0,0,1-2-2.81c0-1.09.81-2.23,2.43-3.4l-2.66-1.53L74.31,9l2.6,1.5a19.76,19.76,0,0,1,6.3-2L84.94,11a18.82,18.82,0,0,0-4.87,1.4l4.07,2.35a33.57,33.57,0,0,1,3.67-1.14,12.53,12.53,0,0,1,3.42-.28,7.64,7.64,0,0,1,3.33,1,3.18,3.18,0,0,1,1.93,2.76C96.46,18.17,95.68,19.29,94.11,20.47ZM79.2,16.13a7.85,7.85,0,0,0,2-.38l-3.41-2A1.61,1.61,0,0,0,77.12,15a1.14,1.14,0,0,0,.66.88,2.61,2.61,0,0,0,1.42.3m8.45.61L91,18.65a1.63,1.63,0,0,0,.66-1.11,1,1,0,0,0-.6-.84,2.51,2.51,0,0,0-1.43-.31,8.63,8.63,0,0,0-1.93.35"/><polygon class="cls-1" points="59.39 92.56 59.43 100.9 74.89 112.34 74.85 101.55 59.39 92.56"/><polygon class="cls-2" points="64.74 107.38 64.78 115.72 100.34 119 100.29 110.66 64.74 107.38"/><polygon class="cls-3" points="59.39 92.56 74.85 101.55 64.74 107.38 100.29 110.66 94.75 90.06 84.64 95.89 69.19 86.91 59.39 92.56"/><polygon class="cls-4" points="100.34 119 100.29 110.43 94.75 90.06 84.64 95.89 69.19 86.91 59.39 92.56 59.43 100.9 64.75 104.83 64.78 115.72 100.34 119"/><path class="cls-5" d="M53.79,69.73a3.79,3.79,0,0,0-.34-.2c-9.84-5.68-25.79-5.68-35.63,0-.12.06-.22.13-.34.2h-7v8.4c0,3.72,2.46,7.45,7.38,10.29,9.84,5.68,25.79,5.68,35.63,0,4.92-2.84,7.38-6.57,7.38-10.29v-8.4Z"/><path class="cls-6" d="M53.45,88.42c4.92-2.84,7.38-6.57,7.38-10.29v-8.4h-7a3.79,3.79,0,0,0-.34-.2c-4.92-2.84-11.36-4.26-17.81-4.26V92.68C42.09,92.68,48.53,91.26,53.45,88.42Z"/><ellipse class="cls-5" cx="35.64" cy="69.73" rx="25.19" ry="14.55"/><ellipse class="cls-7" cx="35.64" cy="69.73" rx="25.19" ry="14.55"/><ellipse class="cls-8" cx="35.64" cy="78.13" rx="25.19" ry="14.55"/><path class="cls-9" d="M60.83,78.13v-8.4h0c0-3.72-2.46-7.44-7.38-10.28-9.84-5.68-25.79-5.68-35.63,0C12.9,62.29,10.44,66,10.44,69.73h0v8.4c0,3.72,2.46,7.45,7.38,10.29s11.37,4.26,17.82,4.26c.8,0,1.61,0,2.41-.07a43.85,43.85,0,0,0,4.76-.53c.78-.14,1.55-.29,2.31-.47a30.74,30.74,0,0,0,8.33-3.19,15.66,15.66,0,0,0,6.34-6.15A8.91,8.91,0,0,0,60.83,78.13Z"/><path class="cls-6" d="M45.38,73.8l2.68,1.54-2.37,1.38-2.6-1.5a21.72,21.72,0,0,1-4,1.58,16.86,16.86,0,0,1-3.86.75l-1.6-2.43a20.85,20.85,0,0,0,3.23-.59A16.82,16.82,0,0,0,40,73.41L36,71.1a35.83,35.83,0,0,1-3.75,1.14,12.25,12.25,0,0,1-3.43.29,7.57,7.57,0,0,1-3.36-1,3.25,3.25,0,0,1-2-2.8c0-1.1.81-2.24,2.43-3.41l-2.65-1.53,2.37-1.38,2.6,1.5a19.91,19.91,0,0,1,6.3-1.95l1.73,2.38a18.52,18.52,0,0,0-4.88,1.4l4.07,2.35a33,33,0,0,1,3.68-1.14,12.46,12.46,0,0,1,3.41-.28,7.5,7.5,0,0,1,3.33,1,3.2,3.2,0,0,1,1.93,2.77C47.73,71.5,47,72.62,45.38,73.8ZM30.47,69.46a7.85,7.85,0,0,0,2-.38l-3.4-2a1.61,1.61,0,0,0-.66,1.17,1.13,1.13,0,0,0,.67.88,2.49,2.49,0,0,0,1.41.3m8.46.62,3.3,1.9a1.59,1.59,0,0,0,.65-1.11,1,1,0,0,0-.59-.84,2.63,2.63,0,0,0-1.43-.31,8.62,8.62,0,0,0-1.93.36"/><rect class="cls-8" width="120" height="120"/><rect class="cls-8" width="120" height="120"/></g></g></svg>