<svg xmlns="http://www.w3.org/2000/svg" viewBox="0 0 120 120"><defs><style>.cls-1{fill:#d5dae0;}.cls-2,.cls-6{fill:none;}.cls-2,.cls-5{stroke:#627386;stroke-linecap:round;stroke-linejoin:round;}.cls-2,.cls-4,.cls-5{stroke-width:2px;}.cls-3{fill:#fff;}.cls-4{fill:#b8bfca;stroke:#b8bfca;stroke-miterlimit:10;}.cls-5{fill:#627386;}</style></defs><title>screen-&amp;amp;-computer</title><g id="Layer_2" data-name="Layer 2"><g id="Tech_Concepts" data-name="Tech Concepts"><path class="cls-1" d="M72.14,96.66,54.92,86.72a5.15,5.15,0,0,0-4.68,0L27.43,99.89c-1.29.74-1.29,2,0,2.7l17.22,9.94Z"/><path class="cls-2" d="M79.34,103.52,56.53,116.69a5.21,5.21,0,0,1-4.68,0l-24.42-14.1c-1.29-.75-1.29-2,0-2.7L50.24,86.72a5.15,5.15,0,0,1,4.68,0l24.42,14.1C80.63,101.56,80.63,102.77,79.34,103.52Z"/><path class="cls-1" d="M101.11,3.93,96.23,1.11h0a1.07,1.07,0,0,0-1.09.09L20.2,44.47a4,4,0,0,0-1.67,3.18v67.07a1.49,1.49,0,0,0,.58,1.35h0L24,118.89l6.57-11.11L93.21,71.6a4,4,0,0,0,1.67-3.18V12.17Z"/><path class="cls-3" d="M96.23,1.11h0a1.07,1.07,0,0,0-1.09.09L20.2,44.47a3.47,3.47,0,0,0-1.32,1.65l59.23,34.2,15.1-8.72a4,4,0,0,0,1.67-3.18V12.17l6.23-8.24Z"/><path class="cls-1" d="M100,75.53,25.08,118.8c-.92.53-1.67,0-1.67-1.26V50.47a4,4,0,0,1,1.67-3.19L100,4c.92-.54,1.67,0,1.67,1.26V72.35A4,4,0,0,1,100,75.53Z"/><path class="cls-4" d="M100,75.53,25.08,118.8c-.92.53-1.67,0-1.67-1.26V50.47a4,4,0,0,1,1.67-3.19L100,4c.92-.54,1.67,0,1.67,1.26V72.35A4,4,0,0,1,100,75.53Z"/><path class="cls-5" d="M100,4,25.08,47.28a4,4,0,0,0-1.67,3.19v59.71L101.69,65V5.28C101.69,4.05,100.94,3.48,100,4Z"/><ellipse class="cls-1" cx="62.39" cy="92.39" rx="2.04" ry="1.16" transform="translate(-47.06 113.62) rotate(-66.95)"/><polygon class="cls-3" points="27.19 50.92 97.91 10.09 97.91 62.66 27.19 103.49 27.19 50.92"/><polygon class="cls-1" points="97.91 62.66 97.91 10.09 85.31 17.36 39.78 96.22 97.91 62.66"/><path class="cls-2" d="M101.1,3.94h0L96.23,1.11h0a1.07,1.07,0,0,0-1.09.09L20.2,44.47a4,4,0,0,0-1.67,3.18v67.07a1.49,1.49,0,0,0,.58,1.35h0L24,118.89h0a1.06,1.06,0,0,0,1.09-.08L100,75.53a4,4,0,0,0,1.67-3.18V5.28A1.44,1.44,0,0,0,101.1,3.94Z"/><path class="cls-3" d="M27.19,50.92v52.57L97.91,62.66V10.08Zm67.72,10L30.19,98.3V52.65L94.91,15.28Z"/><rect class="cls-6" width="120" height="120"/><rect class="cls-6" width="120" height="120"/></g></g></svg>