<svg xmlns="http://www.w3.org/2000/svg" xmlns:xlink="http://www.w3.org/1999/xlink" viewBox="0 0 120 120.87"><defs><style>.cls-1,.cls-10,.cls-11,.cls-12,.cls-7{fill:none;}.cls-1,.cls-2{stroke:#91d2fb;}.cls-1,.cls-10,.cls-11,.cls-2,.cls-3,.cls-5,.cls-6,.cls-7{stroke-linecap:round;stroke-linejoin:round;stroke-width:2px;}.cls-2,.cls-5,.cls-8{fill:#fff;}.cls-3{fill:#d5dae0;}.cls-3,.cls-5{stroke:#b8bfca;}.cls-4,.cls-6{fill:#b8bfca;}.cls-6{stroke:#d5dae0;}.cls-7{stroke:#627386;}.cls-9{clip-path:url(#clip-path);}.cls-10,.cls-11{stroke:#1b6dc6;}.cls-11{stroke-dasharray:0 6.28;}</style><clipPath id="clip-path"><circle class="cls-1" cx="60" cy="41" r="40"/></clipPath></defs><title>service-provider</title><g id="Layer_2" data-name="Layer 2"><g id="Tech_Concepts" data-name="Tech Concepts"><path class="cls-2" d="M98.66,94.91,63.23,74.45a7.14,7.14,0,0,0-6.46,0L21.34,94.91c-1.79,1-1.79,2.7,0,3.73L56.77,119.1a7.2,7.2,0,0,0,6.46,0L98.66,98.64C100.45,97.61,100.45,95.94,98.66,94.91Z"/><path class="cls-3" d="M77.7,82.81,63.23,74.45a7.14,7.14,0,0,0-6.46,0L42.29,82.81H20v14a2.28,2.28,0,0,0,1.34,1.87L56.77,119.1a7.2,7.2,0,0,0,6.46,0L98.66,98.64A2.28,2.28,0,0,0,100,96.77v-14Z"/><path class="cls-4" d="M63.23,119.1,98.66,98.64A2.28,2.28,0,0,0,100,96.77v-14H77.7L63.23,74.45A6.65,6.65,0,0,0,60,73.68v46.19A6.65,6.65,0,0,0,63.23,119.1Z"/><line class="cls-3" x1="44.29" y1="105.44" x2="33.82" y2="99.39"/><path class="cls-5" d="M98.66,81,63.23,60.49a7.14,7.14,0,0,0-6.46,0L21.34,81c-1.79,1-1.79,2.69,0,3.72l35.43,20.46a7.14,7.14,0,0,0,6.46,0L98.66,84.67C100.45,83.64,100.45,82,98.66,81Z"/><polygon class="cls-6" points="90.36 103.43 71.64 114.24 71.64 107.78 90.36 96.98 90.36 103.43"/><path class="cls-7" d="M98.66,81,63.23,60.49a7.14,7.14,0,0,0-6.46,0L21.34,81A2.26,2.26,0,0,0,20,82.81v14a2.28,2.28,0,0,0,1.34,1.87L56.77,119.1a7.16,7.16,0,0,0,6.46,0L98.66,98.64A2.28,2.28,0,0,0,100,96.77v-14A2.26,2.26,0,0,0,98.66,81Z"/><ellipse class="cls-4" cx="90.85" cy="82.81" rx="1.81" ry="1.05"/><ellipse class="cls-4" cx="60" cy="100.62" rx="1.81" ry="1.05"/><ellipse class="cls-4" cx="60" cy="65" rx="1.81" ry="1.05"/><ellipse class="cls-4" cx="29.14" cy="82.81" rx="1.81" ry="1.05"/><circle class="cls-8" cx="60" cy="41" r="40"/><g class="cls-9"><circle class="cls-1" cx="60" cy="41" r="40"/><path class="cls-1" d="M92.9,17.21a15.23,15.23,0,0,1,3.25,9.15c0,12.18-16.19,22-36.15,22s-36.15-9.87-36.15-22a14.36,14.36,0,0,1,1.74-6.77"/><path class="cls-1" d="M100.3,52.41c-7.9,9.71-22.82,16.26-39.92,16.26-17.66,0-33-7-40.68-17.24"/><ellipse class="cls-1" cx="60" cy="13.75" rx="22.09" ry="12.75"/><path class="cls-1" d="M60,9.1C62.75,13,81.92,63,67.38,84.17"/><path class="cls-1" d="M92.65,71.92C106.44,37,74.49,10.42,60,9.1"/><path class="cls-1" d="M67,1.65A20,20,0,0,0,60,9.1S82.2,1.91,98.82,23"/><path class="cls-1" d="M60,9.1C57.25,13,38.08,63,52.62,84.17"/><path class="cls-1" d="M27.35,71.92C13.56,37,45.51,10.42,60,9.1"/><path class="cls-1" d="M53.26,1.79A19.89,19.89,0,0,1,60,9.1S37.8,1.91,21.18,23"/></g><circle class="cls-1" cx="60" cy="41" r="40"/><circle class="cls-10" cx="60" cy="41" r="40"/><line class="cls-10" x1="100" y1="57.08" x2="100" y2="57.08"/><line class="cls-11" x1="100" y1="63.35" x2="100" y2="72.77"/><line class="cls-10" x1="100" y1="75.91" x2="100" y2="75.91"/><line class="cls-10" x1="20" y1="57.08" x2="20" y2="57.08"/><line class="cls-11" x1="20" y1="63.35" x2="20" y2="72.77"/><line class="cls-10" x1="20" y1="75.91" x2="20" y2="75.91"/><rect class="cls-12" y="0.43" width="120" height="120"/><rect class="cls-12" y="0.43" width="120" height="120"/></g></g></svg>