<svg xmlns="http://www.w3.org/2000/svg" viewBox="0 0 120 120"><defs><style>.cls-1{fill:#b8bfca;}.cls-2{fill:#d5dae0;}.cls-3{fill:#fff;}.cls-10,.cls-4,.cls-5,.cls-6,.cls-7,.cls-8,.cls-9{fill:none;}.cls-4{stroke:#b8bfca;}.cls-4,.cls-5,.cls-6,.cls-7,.cls-8,.cls-9{stroke-linecap:round;stroke-linejoin:round;stroke-width:2px;}.cls-5{stroke:#627386;}.cls-6{stroke:#bde4fd;}.cls-7,.cls-8,.cls-9{stroke:#1b6dc6;}.cls-8{stroke-dasharray:0 4.5;}.cls-9{stroke-dasharray:0 5;}</style></defs><title>server-virtualization</title><g id="Layer_2" data-name="Layer 2"><g id="Tech_Concepts" data-name="Tech Concepts"><polygon class="cls-1" points="53.7 84.61 53.76 107.5 33.84 119 33.78 96.11 53.7 84.61"/><polygon class="cls-2" points="33.84 119 13.89 107.41 13.83 84.52 33.78 96.11 33.84 119"/><polygon class="cls-3" points="33.78 96.11 13.83 84.52 33.75 73.02 53.7 84.61 33.78 96.11"/><polygon class="cls-4" points="53.7 84.61 53.76 107.5 33.84 119 33.78 96.11 53.7 84.61"/><polygon class="cls-4" points="33.84 119 13.89 107.41 13.83 84.52 33.78 96.11 33.84 119"/><polygon class="cls-4" points="33.78 96.11 13.83 84.52 33.75 73.02 53.7 84.61 33.78 96.11"/><polygon class="cls-5" points="53.7 84.61 33.75 73.02 13.83 84.52 13.89 107.41 33.84 119 53.76 107.5 53.7 84.61"/><polygon class="cls-3" points="53.78 54.3 53.75 42.83 43.75 37.02 33.76 31.21 27.1 35.05 13.8 42.74 13.8 42.74 13.8 42.74 13.86 65.67 33.85 77.29 53.81 65.76 53.81 65.76 53.81 65.76 53.78 54.3"/><polygon class="cls-6" points="33.85 77.29 13.86 65.67 13.8 42.74 33.79 54.35 33.85 77.29"/><polygon class="cls-6" points="53.75 42.83 53.81 65.76 33.85 77.29 33.79 54.35 53.75 42.83"/><polygon class="cls-6" points="53.75 42.83 53.81 65.76 33.85 77.29 33.79 54.35 53.75 42.83"/><line class="cls-6" x1="33.92" y1="54.28" x2="53.81" y2="65.76"/><line class="cls-6" x1="13.86" y1="65.67" x2="33.62" y2="54.26"/><polygon class="cls-6" points="33.79 54.35 13.8 42.74 33.76 31.21 53.75 42.83 33.79 54.35"/><line class="cls-6" x1="33.82" y1="31.21" x2="33.86" y2="54.35"/><polygon class="cls-6" points="33.79 54.35 13.8 42.74 33.76 31.21 53.75 42.83 33.79 54.35"/><line class="cls-6" x1="33.82" y1="54.15" x2="33.86" y2="77.29"/><polygon class="cls-6" points="53.75 42.83 33.76 31.21 13.8 42.74 13.86 65.67 33.85 77.29 53.81 65.76 53.75 42.83"/><polygon class="cls-6" points="33.85 77.29 13.86 65.67 13.8 42.74 33.79 54.35 33.85 77.29"/><polygon class="cls-6" points="53.75 42.83 53.81 65.76 33.85 77.29 33.79 54.35 53.75 42.83"/><polygon class="cls-6" points="53.75 42.83 53.81 65.76 33.85 77.29 33.79 54.35 53.75 42.83"/><line class="cls-6" x1="33.92" y1="54.28" x2="53.81" y2="65.76"/><line class="cls-6" x1="13.86" y1="65.67" x2="33.62" y2="54.26"/><polygon class="cls-6" points="33.79 54.35 13.8 42.74 33.76 31.21 53.75 42.83 33.79 54.35"/><line class="cls-6" x1="33.76" y1="31.21" x2="33.86" y2="54.35"/><polygon class="cls-6" points="33.79 54.35 13.8 42.74 33.76 31.21 53.75 42.83 33.79 54.35"/><line class="cls-6" x1="33.82" y1="54.15" x2="33.86" y2="77.29"/><polygon class="cls-6" points="53.75 42.83 33.76 31.21 13.8 42.74 13.86 65.67 33.85 77.29 53.81 65.76 53.75 42.83"/><line class="cls-7" x1="53.81" y1="70.92" x2="53.81" y2="70.92"/><line class="cls-8" x1="53.81" y1="75.42" x2="53.81" y2="77.67"/><line class="cls-7" x1="53.81" y1="79.92" x2="53.81" y2="79.92"/><line class="cls-7" x1="13.8" y1="70.92" x2="13.8" y2="70.92"/><line class="cls-8" x1="13.8" y1="75.42" x2="13.8" y2="77.67"/><line class="cls-7" x1="13.8" y1="79.92" x2="13.8" y2="79.92"/><polygon class="cls-7" points="53.78 54.3 53.75 42.83 43.75 37.02 33.76 31.21 27.1 35.05 13.8 42.74 13.8 42.74 13.8 42.74 13.86 65.67 33.85 77.29 53.81 65.76 53.81 65.76 53.81 65.76 53.78 54.3"/><polygon class="cls-1" points="106.09 54.4 106.15 77.29 86.23 88.79 86.17 65.9 106.09 54.4"/><polygon class="cls-2" points="86.23 88.79 66.28 77.19 66.22 54.31 86.17 65.9 86.23 88.79"/><polygon class="cls-3" points="86.17 65.9 66.22 54.31 86.14 42.81 106.09 54.4 86.17 65.9"/><polygon class="cls-4" points="106.09 54.4 106.15 77.29 86.23 88.79 86.17 65.9 106.09 54.4"/><polygon class="cls-4" points="86.23 88.79 66.28 77.19 66.22 54.31 86.17 65.9 86.23 88.79"/><polygon class="cls-4" points="86.17 65.9 66.22 54.31 86.14 42.81 106.09 54.4 86.17 65.9"/><polygon class="cls-5" points="106.09 54.4 86.14 42.81 66.22 54.31 66.28 77.19 86.23 88.79 106.15 77.29 106.09 54.4"/><polygon class="cls-3" points="106.17 24.09 106.14 12.62 96.14 6.81 86.14 1 79.49 4.84 66.19 12.52 66.19 12.52 66.19 12.52 66.25 35.46 86.24 47.08 106.2 35.55 106.2 35.55 106.2 35.55 106.17 24.09"/><polygon class="cls-6" points="86.24 47.08 66.25 35.46 66.19 12.52 86.18 24.14 86.24 47.08"/><polygon class="cls-6" points="106.14 12.62 106.2 35.55 86.24 47.08 86.18 24.14 106.14 12.62"/><polygon class="cls-6" points="106.14 12.62 106.2 35.55 86.24 47.08 86.18 24.14 106.14 12.62"/><line class="cls-6" x1="86.31" y1="24.06" x2="106.2" y2="35.55"/><line class="cls-6" x1="66.25" y1="35.46" x2="86.01" y2="24.05"/><polygon class="cls-6" points="86.18 24.14 66.19 12.52 86.14 1 106.14 12.62 86.18 24.14"/><line class="cls-6" x1="86.21" y1="1" x2="86.24" y2="24.14"/><polygon class="cls-6" points="86.18 24.14 66.19 12.52 86.14 1 106.14 12.62 86.18 24.14"/><line class="cls-6" x1="86.21" y1="23.93" x2="86.24" y2="47.08"/><polygon class="cls-6" points="106.14 12.62 86.14 1 66.19 12.52 66.25 35.46 86.24 47.08 106.2 35.55 106.14 12.62"/><polygon class="cls-6" points="86.24 47.08 66.25 35.46 66.19 12.52 86.18 24.14 86.24 47.08"/><polygon class="cls-6" points="106.14 12.62 106.2 35.55 86.24 47.08 86.18 24.14 106.14 12.62"/><polygon class="cls-6" points="106.14 12.62 106.2 35.55 86.24 47.08 86.18 24.14 106.14 12.62"/><line class="cls-6" x1="86.31" y1="24.06" x2="106.2" y2="35.55"/><line class="cls-6" x1="66.25" y1="35.46" x2="86.01" y2="24.05"/><polygon class="cls-6" points="86.18 24.14 66.19 12.52 86.14 1 106.14 12.62 86.18 24.14"/><line class="cls-6" x1="86.14" y1="1" x2="86.24" y2="24.14"/><polygon class="cls-6" points="86.18 24.14 66.19 12.52 86.14 1 106.14 12.62 86.18 24.14"/><line class="cls-6" x1="86.21" y1="23.93" x2="86.24" y2="47.08"/><polygon class="cls-6" points="106.14 12.62 86.14 1 66.19 12.52 66.25 35.46 86.24 47.08 106.2 35.55 106.14 12.62"/><line class="cls-7" x1="106.2" y1="40.71" x2="106.2" y2="40.71"/><line class="cls-8" x1="106.2" y1="45.21" x2="106.2" y2="47.46"/><line class="cls-7" x1="106.2" y1="49.71" x2="106.2" y2="49.71"/><line class="cls-7" x1="66.19" y1="40.21" x2="66.19" y2="40.21"/><line class="cls-9" x1="66.19" y1="45.21" x2="66.19" y2="47.71"/><line class="cls-7" x1="66.19" y1="50.21" x2="66.19" y2="50.21"/><polygon class="cls-7" points="106.17 24.09 106.14 12.62 96.14 6.81 86.14 1 79.49 4.84 66.19 12.52 66.19 12.52 66.19 12.52 66.25 35.46 86.24 47.08 106.2 35.55 106.2 35.55 106.2 35.55 106.17 24.09"/><rect class="cls-10" width="120" height="120"/><rect class="cls-10" width="120" height="120"/></g></g></svg>