<svg xmlns="http://www.w3.org/2000/svg" viewBox="0 0 120 120"><defs><style>.cls-1,.cls-6{fill:#d5dae0;}.cls-1,.cls-3{stroke:#b8bfca;}.cls-1,.cls-3,.cls-4,.cls-5,.cls-9{stroke-linecap:round;stroke-linejoin:round;stroke-width:2px;}.cls-2,.cls-4{fill:#b8bfca;}.cls-10,.cls-3{fill:#fff;}.cls-4{stroke:#d5dae0;}.cls-11,.cls-5,.cls-9{fill:none;}.cls-5{stroke:#627386;}.cls-7{fill:#bde4fd;}.cls-8{fill:#91d2fb;}.cls-9{stroke:#1b6dc6;}</style></defs><title>solutions</title><g id="Layer_2" data-name="Layer 2"><g id="New_Icon_Set" data-name="New Icon Set"><path class="cls-1" d="M79.68,77.81,63.59,68.53a7.9,7.9,0,0,0-7.18,0L40.32,77.81H15.54V93.33A2.55,2.55,0,0,0,17,95.41l39.38,22.73a7.9,7.9,0,0,0,7.18,0L103,95.41a2.55,2.55,0,0,0,1.49-2.08V77.81Z"/><path class="cls-2" d="M63.59,118.14,103,95.41a2.55,2.55,0,0,0,1.49-2.08V77.81H79.68L63.59,68.53A7.25,7.25,0,0,0,60,67.67V119A7.36,7.36,0,0,0,63.59,118.14Z"/><line class="cls-1" x1="42.54" y1="102.96" x2="30.9" y2="96.24"/><path class="cls-3" d="M103,75.74,63.59,53a7.9,7.9,0,0,0-7.18,0L17,75.74c-2,1.15-2,3,0,4.15l39.38,22.73a7.9,7.9,0,0,0,7.18,0L103,79.89C105,78.74,105,76.89,103,75.74Z"/><polygon class="cls-4" points="93.75 100.73 72.94 112.74 72.94 105.57 93.75 93.56 93.75 100.73"/><path class="cls-5" d="M103,75.74,63.59,53a7.9,7.9,0,0,0-7.18,0L17,75.74a2.52,2.52,0,0,0-1.49,2.07V93.33A2.55,2.55,0,0,0,17,95.41l39.38,22.73a7.92,7.92,0,0,0,7.18,0L103,95.41a2.55,2.55,0,0,0,1.49-2.08V77.81A2.52,2.52,0,0,0,103,75.74Z"/><ellipse class="cls-6" cx="94.29" cy="77.81" rx="2.02" ry="1.16"/><ellipse class="cls-6" cx="60" cy="97.61" rx="2.02" ry="1.16"/><ellipse class="cls-6" cx="60" cy="58.02" rx="2.02" ry="1.16"/><ellipse class="cls-6" cx="25.71" cy="77.81" rx="2.02" ry="1.16"/><path class="cls-7" d="M71.49,61.9h-23V73a4.09,4.09,0,0,0,.35,1.61h0l2.15,5h0c1,2.34,4.64,4.07,9,4.07s8-1.73,9-4.07h0l2.15-5h0A4.09,4.09,0,0,0,71.49,73Z"/><path class="cls-8" d="M60,83.7c4.35,0,8-1.73,9-4.07h0l2.15-5h0A4.09,4.09,0,0,0,71.49,73V61.9H60Z"/><path class="cls-9" d="M48.51,72c0,3.66,5.14,6.63,11.49,6.63s11.49-3,11.49-6.63"/><path class="cls-9" d="M48.51,67.64c0,3.66,5.14,6.63,11.49,6.63s11.49-3,11.49-6.63"/><path class="cls-9" d="M71.49,61.9h-23V73a4.09,4.09,0,0,0,.35,1.61h0l2.15,5h0c1,2.34,4.64,4.07,9,4.07s8-1.73,9-4.07h0l2.15-5h0A4.09,4.09,0,0,0,71.49,73Z"/><path class="cls-10" d="M87.56,28.56A27.56,27.56,0,1,0,44.08,51a10.73,10.73,0,0,1,4.43,8.77v2h0s0,.07,0,.1c0,3.67,5.14,6.64,11.49,6.64s11.49-3,11.49-6.64c0,0,0-.06,0-.1h0v-2A10.71,10.71,0,0,1,76,51,27.5,27.5,0,0,0,87.56,28.56Z"/><path class="cls-9" d="M87.56,28.56A27.56,27.56,0,1,0,44.08,51a10.73,10.73,0,0,1,4.43,8.77v2h0s0,.07,0,.1c0,3.67,5.14,6.64,11.49,6.64s11.49-3,11.49-6.64c0,0,0-.06,0-.1h0v-2A10.71,10.71,0,0,1,76,51,27.5,27.5,0,0,0,87.56,28.56Z"/><path class="cls-10" d="M60,66.38c5.28,0,9.24-2.31,9.33-4.4v-.11a1.11,1.11,0,0,1,0-.26v-1.8a12.86,12.86,0,0,1,5.33-10.52A25.4,25.4,0,0,0,62,3.23c-.65,0-1.31-.08-2-.08A25.4,25.4,0,0,0,45.29,49.26a12.9,12.9,0,0,1,5.38,10.49v1.86a1.77,1.77,0,0,1,0,.23V62C50.75,64.07,54.72,66.38,60,66.38Z"/><path class="cls-7" d="M60,16.42v34.7a5.75,5.75,0,0,1-4,5.42c-2.36.8-3.94,2.28-3.94,4,0,2.53,3.56,4.59,8,4.59s8-2.06,8-4.59h0v-.76a14.27,14.27,0,0,1,6-11.62,24,24,0,0,0,.34-38.9A8.94,8.94,0,0,0,60,16.42Z"/><ellipse class="cls-7" cx="46.49" cy="15.41" rx="5.14" ry="2.99" transform="translate(2.72 37.39) rotate(-45)"/><rect class="cls-11" width="120" height="120"/><rect class="cls-11" width="120" height="120"/></g></g></svg>