<svg xmlns="http://www.w3.org/2000/svg" viewBox="0 0 120 120"><defs><style>.cls-1{fill:#fff;}.cls-1,.cls-3,.cls-4,.cls-7{stroke:#b8bfca;}.cls-1,.cls-2,.cls-3,.cls-4,.cls-5,.cls-7{stroke-linecap:round;stroke-linejoin:round;stroke-width:2px;}.cls-2,.cls-3,.cls-6{fill:#d5dae0;}.cls-2{stroke:#d5dae0;}.cls-4{fill:#b8bfca;}.cls-5,.cls-7,.cls-8{fill:none;}.cls-5{stroke:#627386;}</style></defs><title>state-&amp;amp;-government</title><g id="Layer_2" data-name="Layer 2"><g id="Industries"><polygon class="cls-1" points="3.62 80.78 60 48.24 116.38 80.78 60 113.33 3.62 80.78"/><polygon class="cls-2" points="28.61 78.47 55.56 62.92 91.39 83.6 64.44 99.16 28.61 78.47"/><polygon class="cls-3" points="3.62 80.78 3.62 86.72 60 119 60 113.33 3.62 80.78"/><polygon class="cls-4" points="116.38 80.78 116.38 86.72 60 119 60 113.33 116.38 80.78"/><polygon class="cls-5" points="60 48.24 3.62 80.78 3.62 86.72 60 119 116.38 86.72 116.38 80.78 60 48.24"/><path class="cls-1" d="M55.85,73.57v31.49c0,1.33,1.86,2.4,4.15,2.4s4.15-1.07,4.15-2.4V73.57Z"/><path class="cls-6" d="M60,107.46c2.29,0,4.15-1.07,4.15-2.4V73.57H60Z"/><path class="cls-7" d="M55.85,73.57v31.49c0,1.33,1.86,2.4,4.15,2.4s4.15-1.07,4.15-2.4V73.57Z"/><path class="cls-3" d="M63.87,82.56c0,1.23-1.73,2.23-3.87,2.23s-3.87-1-3.87-2.23S57.86,70.67,60,70.67,63.87,81.32,63.87,82.56Z"/><path class="cls-1" d="M54.91,66.88V82.2c0,1.62,2.28,2.94,5.09,2.94s5.09-1.32,5.09-2.94V66.88Z"/><path class="cls-1" d="M54.91,66.88V82.2c0,1.62,2.28,2.94,5.09,2.94s5.09-1.32,5.09-2.94V66.88Z"/><path class="cls-6" d="M60,69.13v16c2.81,0,5.09-1.32,5.09-2.94V69.13Z"/><path class="cls-7" d="M54.91,66.88V82.2c0,1.62,2.28,2.94,5.09,2.94s5.09-1.32,5.09-2.94V66.88Z"/><path class="cls-5" d="M54.91,66.88V82.2a2.25,2.25,0,0,0,.94,1.69v21.17c0,1.33,1.86,2.4,4.15,2.4a5.41,5.41,0,0,0,3.44-1.06,1.77,1.77,0,0,0,.71-1.34h0V83.89a3.11,3.11,0,0,0,.54-.55,2,2,0,0,0,.4-1.14V66.88Z"/><path class="cls-1" d="M34.83,61.43V92.92c0,1.33,1.85,2.4,4.15,2.4s4.14-1.07,4.14-2.4V61.43Z"/><path class="cls-6" d="M39,95.32c2.29,0,4.14-1.07,4.14-2.4V61.43H39Z"/><path class="cls-7" d="M34.83,61.43V92.92c0,1.33,1.85,2.4,4.15,2.4s4.14-1.07,4.14-2.4V61.43Z"/><path class="cls-3" d="M42.85,70.42c0,1.23-1.74,2.24-3.87,2.24s-3.88-1-3.88-2.24S36.84,58.53,39,58.53,42.85,69.18,42.85,70.42Z"/><path class="cls-1" d="M33.89,54.75V70.06C33.89,71.68,36.17,73,39,73s5.08-1.32,5.08-2.94V54.75Z"/><path class="cls-1" d="M33.89,54.75V70.06C33.89,71.68,36.17,73,39,73s5.08-1.32,5.08-2.94V54.75Z"/><path class="cls-6" d="M39,57V73c2.8,0,5.08-1.32,5.08-2.94V57Z"/><path class="cls-7" d="M33.89,54.75V70.06C33.89,71.68,36.17,73,39,73s5.08-1.32,5.08-2.94V54.75Z"/><path class="cls-5" d="M33.89,54.75V70.06a2.22,2.22,0,0,0,.94,1.69V92.92c0,1.33,1.85,2.4,4.15,2.4a5.43,5.43,0,0,0,3.44-1.06,1.79,1.79,0,0,0,.7-1.34h0V71.75a2.8,2.8,0,0,0,.54-.55,1.88,1.88,0,0,0,.4-1.14V54.75Z"/><path class="cls-1" d="M13.8,49.29v31.5c0,1.32,1.86,2.39,4.15,2.39s4.15-1.07,4.15-2.39V49.29Z"/><path class="cls-6" d="M18,83.18c2.29,0,4.15-1.07,4.15-2.39V49.29H18Z"/><path class="cls-7" d="M13.8,49.29v31.5c0,1.32,1.86,2.39,4.15,2.39s4.15-1.07,4.15-2.39V49.29Z"/><path class="cls-3" d="M21.82,58.28c0,1.24-1.73,2.24-3.87,2.24s-3.87-1-3.87-2.24S15.81,46.39,18,46.39,21.82,57.05,21.82,58.28Z"/><path class="cls-1" d="M12.86,42.61V57.92c0,1.62,2.28,2.94,5.09,2.94S23,59.54,23,57.92V42.61Z"/><path class="cls-1" d="M12.86,42.61V57.92c0,1.62,2.28,2.94,5.09,2.94S23,59.54,23,57.92V42.61Z"/><path class="cls-6" d="M18,44.86v16c2.81,0,5.09-1.32,5.09-2.94V44.86Z"/><path class="cls-7" d="M12.86,42.61V57.92c0,1.62,2.28,2.94,5.09,2.94S23,59.54,23,57.92V42.61Z"/><path class="cls-5" d="M12.86,42.61V57.92a2.25,2.25,0,0,0,.94,1.69V80.79c0,1.32,1.86,2.39,4.15,2.39a5.41,5.41,0,0,0,3.44-1.06,1.77,1.77,0,0,0,.71-1.33h0V59.61a3.11,3.11,0,0,0,.54-.55,2,2,0,0,0,.4-1.14V42.61Z"/><path class="cls-1" d="M97.9,49.29v31.5c0,1.32,1.86,2.39,4.15,2.39s4.15-1.07,4.15-2.39V49.29Z"/><path class="cls-6" d="M102.05,83.18c2.29,0,4.15-1.07,4.15-2.39V49.29h-4.15Z"/><path class="cls-7" d="M97.9,49.29v31.5c0,1.32,1.86,2.39,4.15,2.39s4.15-1.07,4.15-2.39V49.29Z"/><path class="cls-3" d="M105.92,58.28c0,1.24-1.73,2.24-3.87,2.24s-3.87-1-3.87-2.24,1.73-11.89,3.87-11.89S105.92,57.05,105.92,58.28Z"/><path class="cls-1" d="M97,42.61V57.92c0,1.62,2.28,2.94,5.09,2.94s5.09-1.32,5.09-2.94V42.61Z"/><path class="cls-1" d="M97,42.61V57.92c0,1.62,2.28,2.94,5.09,2.94s5.09-1.32,5.09-2.94V42.61Z"/><path class="cls-6" d="M102.05,44.86v16c2.81,0,5.09-1.32,5.09-2.94V44.86Z"/><path class="cls-7" d="M97,42.61V57.92c0,1.62,2.28,2.94,5.09,2.94s5.09-1.32,5.09-2.94V42.61Z"/><path class="cls-5" d="M97,42.61V57.92a2.22,2.22,0,0,0,.94,1.69V80.79c0,1.32,1.86,2.39,4.15,2.39a5.43,5.43,0,0,0,3.44-1.06,1.77,1.77,0,0,0,.71-1.33h0V59.61a3.11,3.11,0,0,0,.54-.55,2,2,0,0,0,.4-1.14V42.61Z"/><path class="cls-1" d="M76.88,37.16V68.65C76.88,70,78.73,71,81,71s4.15-1.07,4.15-2.39V37.16Z"/><path class="cls-6" d="M81,71c2.29,0,4.14-1.07,4.14-2.39V37.16H81Z"/><path class="cls-7" d="M76.88,37.16V68.65C76.88,70,78.73,71,81,71s4.15-1.07,4.15-2.39V37.16Z"/><path class="cls-3" d="M84.9,46.14c0,1.24-1.74,2.24-3.88,2.24s-3.87-1-3.87-2.24S78.89,34.25,81,34.25,84.9,44.91,84.9,46.14Z"/><path class="cls-1" d="M75.94,30.47V45.78c0,1.63,2.28,2.94,5.08,2.94s5.09-1.31,5.09-2.94V30.47Z"/><path class="cls-1" d="M75.94,30.47V45.78c0,1.63,2.28,2.94,5.08,2.94s5.09-1.31,5.09-2.94V30.47Z"/><path class="cls-6" d="M81,32.72v16c2.8,0,5.08-1.32,5.08-2.94V32.72Z"/><path class="cls-7" d="M75.94,30.47V45.78c0,1.63,2.28,2.94,5.08,2.94s5.09-1.31,5.09-2.94V30.47Z"/><path class="cls-5" d="M75.94,30.47V45.78a2.22,2.22,0,0,0,.94,1.69V68.65C76.88,70,78.73,71,81,71A5.48,5.48,0,0,0,84.47,70a1.82,1.82,0,0,0,.7-1.34h0V47.47a3.06,3.06,0,0,0,.54-.54,1.93,1.93,0,0,0,.4-1.15V30.47Z"/><ellipse class="cls-3" cx="102.05" cy="46.72" rx="4.57" ry="2.64"/><ellipse class="cls-3" cx="81.02" cy="58.86" rx="4.57" ry="2.64"/><ellipse class="cls-3" cx="60" cy="71" rx="4.57" ry="2.64"/><ellipse class="cls-3" cx="38.98" cy="58.86" rx="4.57" ry="2.64"/><ellipse class="cls-3" cx="17.95" cy="46.72" rx="4.57" ry="2.64"/><ellipse class="cls-3" cx="102.05" cy="46.72" rx="4.57" ry="2.64"/><ellipse class="cls-3" cx="81.02" cy="58.86" rx="4.57" ry="2.64"/><ellipse class="cls-3" cx="60" cy="71" rx="4.57" ry="2.64"/><polygon class="cls-7" points="6.01 39.56 60 8.39 113.99 39.56 60 70.73 6.01 39.56"/><polygon class="cls-7" points="102.05 46.72 60 22.45 17.95 46.72 60 71 102.05 46.72"/><polygon class="cls-4" points="113.99 38.37 113.99 46.72 60 77.89 60 69.81 113.99 38.37"/><polygon class="cls-3" points="6.01 39.56 6.01 46.72 60 77.89 60 71 6.01 39.56"/><polygon class="cls-5" points="60 69.81 60 71 6.01 39.56 6.01 46.72 60 77.89 113.99 46.72 113.99 38.37 60 69.81"/><polygon class="cls-3" points="58.34 72.17 88.19 33.55 118.04 37.41 58.34 72.17"/><polygon class="cls-4" points="76.06 61.85 88.19 46.16 100.32 47.73 76.06 61.85"/><path class="cls-3" d="M88.19,33.55C88.19,33.16,31.81,1,31.81,1L61.66,4.86,118,37.41Z"/><path class="cls-1" d="M88.19,33.55C88.19,33.16,31.81,1,31.81,1L2,39.62,58.34,72.17Z"/><polygon class="cls-5" points="61.66 4.86 31.81 1 1.96 39.62 58.34 72.17 118.04 37.41 61.66 4.86"/><rect class="cls-8" width="120" height="120"/><rect class="cls-8" width="120" height="120"/></g></g></svg>