<svg xmlns="http://www.w3.org/2000/svg" viewBox="0 0 120 120"><defs><style>.cls-1,.cls-14,.cls-2,.cls-3,.cls-4,.cls-6{fill:none;}.cls-1,.cls-2{stroke:#627386;}.cls-1,.cls-10,.cls-12,.cls-13,.cls-2,.cls-3,.cls-4,.cls-6,.cls-8,.cls-9{stroke-linecap:round;stroke-linejoin:round;stroke-width:2px;}.cls-2,.cls-4{stroke-dasharray:0 5.88;}.cls-3,.cls-4{stroke:#1b6dc6;}.cls-5,.cls-9{fill:#bde4fd;}.cls-6,.cls-8{stroke:#91d2fb;}.cls-7{fill:#91d2fb;}.cls-12,.cls-8{fill:#fff;}.cls-9{stroke:#bde4fd;}.cls-10,.cls-13{fill:#d5dae0;}.cls-10,.cls-12{stroke:#b8bfca;}.cls-11{fill:#b8bfca;}.cls-13{stroke:#d5dae0;}</style></defs><title>sync</title><g id="Layer_2" data-name="Layer 2"><g id="Actions"><line class="cls-1" x1="11.93" y1="72.45" x2="11.93" y2="72.45"/><path class="cls-2" d="M7.14,69.06C-2.41,60.7-.82,49.34,11.93,42c13.74-7.93,35.52-8.39,50.18-1.37"/><line class="cls-1" x1="64.72" y1="41.98" x2="64.72" y2="41.98"/><line class="cls-3" x1="104.59" y1="59.41" x2="104.59" y2="59.41"/><path class="cls-4" d="M109.39,62.81c9.55,8.36,8,19.72-4.8,27.08-13.74,7.93-35.52,8.39-50.18,1.37"/><line class="cls-3" x1="51.8" y1="89.89" x2="51.8" y2="89.89"/><path class="cls-5" d="M49.25,69.75l-11.2-6.47a5.57,5.57,0,0,0-5,0l-11.2,6.47H4.6V80.56a1.75,1.75,0,0,0,1,1.44L33.05,97.83a5.51,5.51,0,0,0,5,0L65.47,82a1.75,1.75,0,0,0,1-1.44V69.75Z"/><path class="cls-6" d="M49.25,69.75l-11.2-6.47a5.57,5.57,0,0,0-5,0l-11.2,6.47H4.6V80.56a1.75,1.75,0,0,0,1,1.44L33.05,97.83a5.51,5.51,0,0,0,5,0L65.47,82a1.75,1.75,0,0,0,1-1.44V69.75Z"/><path class="cls-7" d="M38.05,97.83,65.47,82a1.75,1.75,0,0,0,1-1.44V69.75H49.25l-11.2-6.47a5.22,5.22,0,0,0-2.5-.59V98.43A5.11,5.11,0,0,0,38.05,97.83Z"/><path class="cls-8" d="M65.47,68.31,38.05,52.48a5.51,5.51,0,0,0-5,0L5.63,68.31c-1.38.8-1.38,2.09,0,2.88L33.05,87a5.51,5.51,0,0,0,5,0L65.47,71.19C66.85,70.4,66.85,69.11,65.47,68.31Z"/><polygon class="cls-9" points="59.05 85.71 44.56 94.07 44.56 89.08 59.05 80.71 59.05 85.71"/><path class="cls-3" d="M65.47,68.31,38.05,52.48a5.51,5.51,0,0,0-5,0L5.63,68.31a1.75,1.75,0,0,0-1,1.44V80.56a1.75,1.75,0,0,0,1,1.44L33.05,97.83a5.51,5.51,0,0,0,5,0L65.47,82a1.75,1.75,0,0,0,1-1.44V69.75A1.75,1.75,0,0,0,65.47,68.31Z"/><ellipse class="cls-7" cx="59.43" cy="69.75" rx="1.4" ry="0.81"/><ellipse class="cls-7" cx="35.55" cy="83.54" rx="1.4" ry="0.81"/><ellipse class="cls-7" cx="35.55" cy="55.97" rx="1.4" ry="0.81"/><ellipse class="cls-7" cx="11.67" cy="69.75" rx="1.4" ry="0.81"/><path class="cls-10" d="M101.75,39.44,90.55,33a5.51,5.51,0,0,0-5,0l-11.2,6.46H57.1V50.25a1.75,1.75,0,0,0,1,1.44L85.55,67.52a5.51,5.51,0,0,0,5,0L118,51.69a1.75,1.75,0,0,0,1-1.44V39.44Z"/><path class="cls-11" d="M90.55,67.52,118,51.69a1.75,1.75,0,0,0,1-1.44V39.44H101.75L90.55,33a5.11,5.11,0,0,0-2.5-.6V68.12A5.11,5.11,0,0,0,90.55,67.52Z"/><path class="cls-12" d="M118,38,90.55,22.17a5.51,5.51,0,0,0-5,0L58.13,38c-1.38.8-1.38,2.09,0,2.89L85.55,56.72a5.57,5.57,0,0,0,5,0L118,40.89C119.35,40.09,119.35,38.8,118,38Z"/><polygon class="cls-13" points="111.54 55.4 97.06 63.76 97.06 58.77 111.54 50.41 111.54 55.4"/><path class="cls-1" d="M118,38,90.55,22.17a5.51,5.51,0,0,0-5,0L58.13,38a1.75,1.75,0,0,0-1,1.44V50.25a1.75,1.75,0,0,0,1,1.44L85.55,67.52a5.51,5.51,0,0,0,5,0L118,51.69a1.75,1.75,0,0,0,1-1.44V39.44A1.75,1.75,0,0,0,118,38Z"/><ellipse class="cls-11" cx="111.92" cy="39.44" rx="1.4" ry="0.81"/><ellipse class="cls-11" cx="88.05" cy="53.23" rx="1.4" ry="0.81"/><ellipse class="cls-11" cx="88.05" cy="25.66" rx="1.4" ry="0.81"/><ellipse class="cls-11" cx="64.17" cy="39.44" rx="1.4" ry="0.81"/><rect class="cls-14" width="120" height="120"/><rect class="cls-14" width="120" height="120"/></g></g></svg>