<svg xmlns="http://www.w3.org/2000/svg" viewBox="0 0 120 120"><defs><style>.cls-1,.cls-11,.cls-15,.cls-17,.cls-2,.cls-3,.cls-4,.cls-8,.cls-9{fill:none;}.cls-1,.cls-2{stroke:#627386;}.cls-1,.cls-11,.cls-12,.cls-15,.cls-16,.cls-2,.cls-3,.cls-4,.cls-5{stroke-linecap:round;stroke-linejoin:round;}.cls-1,.cls-11,.cls-12,.cls-15,.cls-16,.cls-2,.cls-3,.cls-4,.cls-5,.cls-8{stroke-width:2px;}.cls-2{stroke-dasharray:0 5.84;}.cls-3,.cls-4{stroke:#1b6dc6;}.cls-4{stroke-dasharray:0 5.67;}.cls-5,.cls-7{fill:#d5dae0;}.cls-11,.cls-12,.cls-5{stroke:#b8bfca;}.cls-12,.cls-6{fill:#b8bfca;}.cls-8,.cls-9{stroke:#fff;stroke-miterlimit:10;}.cls-9{stroke-width:3.5px;}.cls-10{fill:#fff;}.cls-13{fill:#bde4fd;}.cls-14,.cls-16{fill:#91d2fb;}.cls-15,.cls-16{stroke:#91d2fb;}</style></defs><title>tele-communicating</title><g id="Layer_2" data-name="Layer 2"><g id="Industries"><line class="cls-1" x1="109.59" y1="96.15" x2="109.59" y2="96.15"/><path class="cls-2" d="M104.54,99.07l-3.7,2.14c-22.56,13-59.12,13-81.67,0l-6.23-3.6"/><line class="cls-1" x1="10.41" y1="96.15" x2="10.41" y2="96.15"/><line class="cls-3" x1="81.4" y1="79.2" x2="81.4" y2="79.2"/><path class="cls-4" d="M76.47,82c-9.78,5-24.73,4.78-34.09-.62l-1.32-.77"/><line class="cls-3" x1="38.6" y1="79.2" x2="38.6" y2="79.2"/><path class="cls-5" d="M39.44,11.82,34.91,9.2h0a1.65,1.65,0,0,0-1.66.13L7.53,24.18A6.07,6.07,0,0,0,5,29V91.49a2.21,2.21,0,0,0,.88,2h0l4.53,2.62,1.73-6.42L32.37,78.05a6,6,0,0,0,2.54-4.83V22.51Z"/><path class="cls-6" d="M5.69,26.32A6.15,6.15,0,0,0,5,29V91.49a2.21,2.21,0,0,0,.88,2h0l4.53,2.62,1.73-6.42L32.37,78.05a6,6,0,0,0,2.54-4.83v-30Z"/><path class="cls-7" d="M37.78,81.18,12.06,96c-1.4.81-2.53,0-2.53-1.91V31.64a6.06,6.06,0,0,1,2.53-4.84L37.78,12c1.4-.8,2.53.05,2.53,1.92V76.34A6.07,6.07,0,0,1,37.78,81.18Z"/><path class="cls-8" d="M37.78,81.18,12.06,96c-1.4.81-2.53,0-2.53-1.91V31.64a6.06,6.06,0,0,1,2.53-4.84L37.78,12c1.4-.8,2.53.05,2.53,1.92V76.34A6.07,6.07,0,0,1,37.78,81.18Z"/><path class="cls-9" d="M11.06,95.4c-.42,0-.61-.65-.61-1.29V31.64a5.15,5.15,0,0,1,2.07-4L38.24,12.75a1.11,1.11,0,0,1,.55-.18c.41,0,.6.65.6,1.3V76.34a5.15,5.15,0,0,1-2.07,4L11.6,95.22A1.12,1.12,0,0,1,11.06,95.4Z"/><path class="cls-10" d="M40.31,27.33V13.87c0-1.87-1.13-2.72-2.53-1.92L12.06,26.8a6.06,6.06,0,0,0-2.53,4.84v49Z"/><path class="cls-11" d="M37.78,81.18,12.06,96c-1.4.81-2.53,0-2.53-1.91V31.64a6.06,6.06,0,0,1,2.53-4.84L37.78,12c1.4-.8,2.53.05,2.53,1.92V76.34A6.07,6.07,0,0,1,37.78,81.18Z"/><path class="cls-1" d="M39.44,11.82h0L34.91,9.2h0a1.65,1.65,0,0,0-1.66.13L7.53,24.18A6.07,6.07,0,0,0,5,29V91.49a2.21,2.21,0,0,0,.88,2h0l4.53,2.62h0A1.59,1.59,0,0,0,12.06,96L37.78,81.18a6.07,6.07,0,0,0,2.53-4.84V13.87A2.26,2.26,0,0,0,39.44,11.82Z"/><ellipse class="cls-12" cx="24.92" cy="21.84" rx="2.83" ry="1.6" transform="translate(-4.93 36.22) rotate(-66.95)"/><path class="cls-12" d="M28.61,17.25a4.39,4.39,0,0,0-1.84,3.52l-3.69,2.14c0-1.36-.83-2-1.85-1.4Z"/><path class="cls-13" d="M80.56,11.82,85.09,9.2h0a1.61,1.61,0,0,1,1.66.13l25.72,14.85A6.06,6.06,0,0,1,115,29V91.49a2.22,2.22,0,0,1-.88,2h0l-4.53,2.62-1.73-6.42L87.63,78.05a6.07,6.07,0,0,1-2.54-4.84V22.5Z"/><path class="cls-14" d="M114.31,26.31A6.15,6.15,0,0,1,115,29V91.49a2.22,2.22,0,0,1-.88,2h0l-4.53,2.62-1.73-6.42L87.63,78.05a6.07,6.07,0,0,1-2.54-4.84v-30Z"/><path class="cls-13" d="M82.22,81.17,107.94,96c1.4.81,2.53,0,2.53-1.91V31.64a6.06,6.06,0,0,0-2.53-4.84L82.22,12c-1.4-.81-2.53.05-2.53,1.91V76.33A6.06,6.06,0,0,0,82.22,81.17Z"/><path class="cls-8" d="M82.22,81.17,107.94,96c1.4.81,2.53,0,2.53-1.91V31.64a6.06,6.06,0,0,0-2.53-4.84L82.22,12c-1.4-.81-2.53.05-2.53,1.91V76.33A6.06,6.06,0,0,0,82.22,81.17Z"/><path class="cls-9" d="M108.94,95.4c.42,0,.61-.65.61-1.29V31.64a5.15,5.15,0,0,0-2.07-4L81.76,12.75a1.11,1.11,0,0,0-.55-.18c-.41,0-.6.65-.6,1.29V76.33a5.14,5.14,0,0,0,2.07,4L108.4,95.22A1.12,1.12,0,0,0,108.94,95.4Z"/><path class="cls-10" d="M79.69,27.33V13.86c0-1.86,1.13-2.72,2.53-1.91L107.94,26.8a6.06,6.06,0,0,1,2.53,4.84v49Z"/><path class="cls-15" d="M82.22,81.17,107.94,96c1.4.81,2.53,0,2.53-1.91V31.64a6.06,6.06,0,0,0-2.53-4.84L82.22,12c-1.4-.81-2.53.05-2.53,1.91V76.33A6.06,6.06,0,0,0,82.22,81.17Z"/><path class="cls-3" d="M80.56,11.82h0L85.09,9.2h0a1.61,1.61,0,0,1,1.66.13l25.72,14.85A6.06,6.06,0,0,1,115,29V91.49a2.22,2.22,0,0,1-.88,2h0l-4.53,2.62h0a1.59,1.59,0,0,1-1.65-.13L82.22,81.17a6.06,6.06,0,0,1-2.53-4.84V13.86A2.24,2.24,0,0,1,80.56,11.82Z"/><ellipse class="cls-16" cx="95.08" cy="21.84" rx="1.6" ry="2.83" transform="translate(-0.96 38.97) rotate(-23.05)"/><path class="cls-16" d="M91.39,17.24a4.42,4.42,0,0,1,1.84,3.53l3.69,2.13c0-1.36.83-2,1.85-1.39Z"/><path class="cls-3" d="M80.56,11.82h0L85.09,9.2h0a1.61,1.61,0,0,1,1.66.13l25.72,14.85A6.06,6.06,0,0,1,115,29V91.49a2.22,2.22,0,0,1-.88,2h0l-4.53,2.62h0a1.59,1.59,0,0,1-1.65-.13L82.22,81.17a6.06,6.06,0,0,1-2.53-4.84V13.86A2.24,2.24,0,0,1,80.56,11.82Z"/><path class="cls-1" d="M39.44,11.82h0L34.91,9.2h0a1.65,1.65,0,0,0-1.66.13L7.53,24.18A6.07,6.07,0,0,0,5,29V91.49a2.21,2.21,0,0,0,.88,2h0l4.53,2.62h0A1.59,1.59,0,0,0,12.06,96L37.78,81.18a6.07,6.07,0,0,0,2.53-4.84V13.87A2.26,2.26,0,0,0,39.44,11.82Z"/><rect class="cls-17" width="120" height="120"/><rect class="cls-17" width="120" height="120"/></g></g></svg>