<svg xmlns="http://www.w3.org/2000/svg" viewBox="0 0 120 120"><defs><style>.cls-1,.cls-14,.cls-9{fill:#fff;}.cls-1,.cls-2,.cls-3,.cls-6{stroke:#91d2fb;}.cls-1,.cls-10,.cls-11,.cls-13,.cls-14,.cls-16,.cls-17,.cls-2,.cls-3,.cls-4,.cls-5,.cls-6,.cls-7,.cls-8{stroke-linecap:round;stroke-linejoin:round;stroke-width:2px;}.cls-2,.cls-5{fill:#91d2fb;}.cls-3{fill:#bde4fd;}.cls-10,.cls-13,.cls-18,.cls-4,.cls-6,.cls-7{fill:none;}.cls-4{stroke:#bde4fd;}.cls-16,.cls-17,.cls-5{stroke:#fff;}.cls-7{stroke:#1b6dc6;}.cls-12,.cls-16,.cls-8{fill:#d5dae0;}.cls-10,.cls-11,.cls-14,.cls-8{stroke:#b8bfca;}.cls-11,.cls-15,.cls-17{fill:#b8bfca;}.cls-13{stroke:#627386;}</style></defs><title>tobacco</title><g id="Layer_2" data-name="Layer 2"><g id="Industries"><polygon class="cls-1" points="41.96 1 41.96 21.18 56.46 29.55 56.46 21.23 41.96 1"/><polygon class="cls-2" points="70.96 91.34 34.07 112.64 34.07 71.08 70.96 49.78 70.96 91.34"/><polygon class="cls-3" points="19.57 104.27 34.07 112.64 34.07 71.08 19.57 50.85 19.57 104.27"/><polygon class="cls-1" points="34.07 71.08 34.07 50.91 19.57 42.53 19.57 50.85 34.07 71.08"/><polygon class="cls-3" points="70.96 49.78 70.96 29.61 56.46 21.23 56.46 29.55 70.96 49.78"/><polygon class="cls-2" points="70.96 29.61 65 33.05 40.03 47.46 34.07 50.91 34.07 71.08 70.96 49.78 70.96 29.61"/><polygon class="cls-1" points="70.96 29.61 56.46 21.23 19.57 42.53 34.07 50.91 70.96 29.61"/><polygon class="cls-3" points="70.96 29.61 65 33.05 65 45.43 40.03 59.85 40.03 47.46 34.07 50.91 34.07 71.08 70.96 49.78 70.96 29.61"/><line class="cls-4" x1="56.46" y1="21.23" x2="34.07" y2="50.91"/><line class="cls-4" x1="70.96" y1="29.61" x2="19.57" y2="42.53"/><polygon class="cls-1" points="5.07 22.3 5.07 42.48 19.57 50.85 19.57 42.53 5.07 22.3"/><polygon class="cls-3" points="41.96 1 5.07 22.3 19.57 42.53 49.21 25.36 41.96 21.18 41.96 1"/><polygon class="cls-1" points="15.29 36.57 41.96 21.18 49.21 25.36 19.57 42.53 15.29 36.57"/><ellipse class="cls-3" cx="52.52" cy="81.21" rx="13.67" ry="7.73" transform="translate(-42.78 97.74) rotate(-66.95)"/><line class="cls-5" x1="48.57" y1="83.49" x2="56.46" y2="78.94"/><polygon class="cls-6" points="70.96 29.61 56.46 21.23 19.57 42.53 34.07 50.91 70.96 29.61"/><polygon class="cls-7" points="56.46 21.23 41.96 1 5.07 22.3 5.07 42.48 19.57 50.85 19.57 104.27 34.07 112.64 70.96 91.34 70.96 49.78 70.96 29.61 56.46 21.23"/><line class="cls-7" x1="70.96" y1="49.78" x2="34.07" y2="71.08"/><line class="cls-7" x1="34.07" y1="71.08" x2="19.57" y2="50.85"/><polygon class="cls-8" points="59.9 111.62 110.64 82.33 114.04 89.53 63.3 118.83 59.9 111.62"/><polygon class="cls-9" points="110.64 82.33 59.9 111.62 61.59 115.2 112.33 85.91 110.64 82.33"/><polygon class="cls-10" points="59.9 111.62 110.64 82.33 114.04 89.53 63.3 118.83 59.9 111.62"/><ellipse class="cls-11" cx="61.6" cy="115.22" rx="2.26" ry="3.99" transform="translate(-40.2 33.32) rotate(-23.05)"/><path class="cls-11" d="M114.93,87.43a6.25,6.25,0,0,0-2.59-5,1.67,1.67,0,0,0-1.7-.12h0L97.26,90.05a1.66,1.66,0,0,1,1.69.12,6.24,6.24,0,0,1,2.6,5,2.27,2.27,0,0,1-.91,2.08v0L114,89.53v0A2.25,2.25,0,0,0,114.93,87.43Z"/><path class="cls-12" d="M112.34,82.46a1.67,1.67,0,0,0-1.7-.12h0L97.26,90.05a1.66,1.66,0,0,1,1.69.12,5.36,5.36,0,0,1,2,2.33l13.38-7.72A5.32,5.32,0,0,0,112.34,82.46Z"/><path class="cls-10" d="M114.93,87.43a6.25,6.25,0,0,0-2.59-5,1.67,1.67,0,0,0-1.7-.12h0L97.26,90.05a1.66,1.66,0,0,1,1.69.12,6.24,6.24,0,0,1,2.6,5,2.27,2.27,0,0,1-.91,2.08v0L114,89.53v0A2.25,2.25,0,0,0,114.93,87.43Z"/><path class="cls-13" d="M114.93,87.43a6.31,6.31,0,0,0-.65-2.65h0q-.18-.37-.39-.72h0c-.14-.21-.28-.41-.43-.6l0-.06A6.14,6.14,0,0,0,113,83a.76.76,0,0,1-.09-.09,4,4,0,0,0-.55-.4,1.67,1.67,0,0,0-1.7-.12h0L97.26,90.05h0L59.89,111.62v0a2.26,2.26,0,0,0-.9,2.08,6.21,6.21,0,0,0,2.6,5,1.66,1.66,0,0,0,1.69.12v0L114,89.53v0A2.25,2.25,0,0,0,114.93,87.43Z"/><path class="cls-11" d="M82.84,18.64v45h0A3.58,3.58,0,0,0,85,66.63l10.72,6.19a11.33,11.33,0,0,0,10.21,0A3.59,3.59,0,0,0,108,69.87V24.82Z"/><path class="cls-12" d="M100.63,22.76,82.84,18.64v45A3.58,3.58,0,0,0,85,66.63l10.72,6.19a10.37,10.37,0,0,0,5,1.21Z"/><path class="cls-10" d="M82.84,18.64v45h0A3.58,3.58,0,0,0,85,66.63l10.72,6.19a11.33,11.33,0,0,0,10.21,0A3.59,3.59,0,0,0,108,69.87V24.82Z"/><path class="cls-8" d="M95.67,27.77,85,21.58c-2.82-1.62-2.82-4.26,0-5.89h0a11.27,11.27,0,0,1,10.21,0l10.72,6.19c2.82,1.62,2.82,4.26,0,5.89h0A11.27,11.27,0,0,1,95.67,27.77Z"/><path class="cls-14" d="M95.16,15.69c-1.14-.66-2.56-2.08-4-2.21L82.84,7.12V18.64A3.57,3.57,0,0,0,85,21.58l7,4,10.21-5.9Z"/><path class="cls-14" d="M95.16,4.18A11.27,11.27,0,0,0,85,4.18h0c-2.82,1.63-2.82,4.26,0,5.89l7,4,10.21-5.9Z"/><polygon class="cls-8" points="102.12 8.19 102.12 19.7 91.91 25.6 91.91 14.09 102.12 8.19"/><path class="cls-13" d="M95.16,4.18A11.27,11.27,0,0,0,85,4.18h0a3.57,3.57,0,0,0-2.11,2.94h0V18.64A3.57,3.57,0,0,0,85,21.58l7,4,10.21-5.9V8.19Z"/><path class="cls-8" d="M102.4,19.87l-.28-.17-.34.2-9.87.47V25.6l3.76,2.17a11.27,11.27,0,0,0,10.21,0h0A3.58,3.58,0,0,0,108,24.82V19.6Z"/><path class="cls-15" d="M102.12,19.7l-.34.2-1.15.05v9a10.6,10.6,0,0,0,5.25-1.21h0A3.58,3.58,0,0,0,108,24.82V19.6l-5.59.27Z"/><path class="cls-16" d="M105.88,16.65l-3.76-2.17L91.91,20.37l3.76,2.18a11.33,11.33,0,0,0,10.21,0h0C108.7,20.92,108.7,18.28,105.88,16.65Z"/><path class="cls-13" d="M105.88,16.65l-3.76-2.17L91.91,20.37V25.6l3.76,2.17a11.27,11.27,0,0,0,10.21,0h0A3.58,3.58,0,0,0,108,24.82V19.6A3.59,3.59,0,0,0,105.88,16.65Z"/><line class="cls-17" x1="91.73" y1="35.6" x2="91.73" y2="59.13"/><path class="cls-13" d="M108,19.6a3.59,3.59,0,0,0-2.11-3l-3.76-2.17V8.19l-7-4A11.27,11.27,0,0,0,85,4.18h0a3.57,3.57,0,0,0-2.11,2.94h0V18.64h0v45A3.58,3.58,0,0,0,85,66.63l10.72,6.19a7.54,7.54,0,0,0,1.11.52,9.55,9.55,0,0,0,1,.31l.22.06a11.4,11.4,0,0,0,7.89-.89A3.59,3.59,0,0,0,108,69.87V24.82h0Z"/><rect class="cls-18" width="120" height="120"/><rect class="cls-18" width="120" height="120"/></g></g></svg>