<svg xmlns="http://www.w3.org/2000/svg" viewBox="0 0 120 120"><defs><style>.cls-1,.cls-11{fill:#d5dae0;}.cls-2{fill:#bde4fd;}.cls-12,.cls-3{fill:#91d2fb;}.cls-13,.cls-4,.cls-5,.cls-7,.cls-8{fill:none;}.cls-4{stroke:#1b6dc6;}.cls-10,.cls-11,.cls-12,.cls-4,.cls-7{stroke-linecap:round;stroke-linejoin:round;}.cls-10,.cls-11,.cls-12,.cls-4,.cls-5,.cls-7,.cls-8{stroke-width:2px;}.cls-5{stroke:#bde4fd;}.cls-5,.cls-8{stroke-miterlimit:10;}.cls-6{fill:#fff;}.cls-7{stroke:#627386;}.cls-8{stroke:#d5dae0;}.cls-10,.cls-9{fill:#b8bfca;}.cls-10,.cls-11{stroke:#b8bfca;}.cls-12{stroke:#91d2fb;}</style></defs><title>unified-communications</title><g id="Layer_2" data-name="Layer 2"><g id="Tech_Concepts" data-name="Tech Concepts"><path class="cls-1" d="M22.53,83.15c10.06,0,24.45,9,24.45,26.7,0,9.48-16.19,10.69-28,7.71S3.19,108.72,3.19,102.65C3.19,92.79,11.67,83.15,22.53,83.15Z"/><path class="cls-2" d="M22.53,83.15c10.06,0,24.45,9,24.45,26.7,0,9.48-16.19,10.69-28,7.71S3.19,108.72,3.19,102.65C3.19,92.79,11.67,83.15,22.53,83.15Z"/><path class="cls-3" d="M30.59,116.51a46,46,0,0,1-11-1.36l-.84-.23a1.8,1.8,0,0,1,.3-3.5c8.92-1.36,16.35-6.6,17.14-15.85a1.85,1.85,0,0,1,3.29-1,24.1,24.1,0,0,1,5,15.26C44.49,114.76,37.31,116.51,30.59,116.51Z"/><path class="cls-4" d="M22.53,83.15c10.06,0,24.45,9,24.45,26.7,0,9.48-16.19,10.69-28,7.71S3.19,108.72,3.19,102.65C3.19,92.79,11.67,83.15,22.53,83.15Z"/><path class="cls-5" d="M30.59,117.41c3.47,0,14.8-.55,14.8-7.56,0-16.38-13.28-25.11-22.86-25.11-10.46,0-17.74,9.44-17.74,17.91,0,6.32,5.06,10.94,14.62,13.36a46.84,46.84,0,0,0,11.18,1.4Z"/><circle class="cls-2" cx="24.62" cy="69.66" r="17.03"/><path class="cls-3" d="M14.9,80.58A1.08,1.08,0,0,1,16,78.77c3.58,1.45,8.82,1.89,14.22-3.51s5-10.64,3.5-14.22a1.08,1.08,0,0,1,1.82-1.1,14.55,14.55,0,0,1,3.63,11.29A14.61,14.61,0,0,1,14.9,80.58Z"/><circle class="cls-4" cx="24.62" cy="69.66" r="17.03"/><ellipse class="cls-6" cx="16.6" cy="61.65" rx="3.92" ry="2.43" transform="translate(-38.73 29.8) rotate(-45)"/><path class="cls-5" d="M40.05,69.66A15.44,15.44,0,1,0,24.62,85.09,15.45,15.45,0,0,0,40.05,69.66Z"/><ellipse class="cls-6" cx="11.88" cy="93.07" rx="3.55" ry="2.2" transform="translate(-63.46 37.15) rotate(-46.14)"/><path class="cls-1" d="M97.47,83.15c-10.06,0-24.45,9-24.45,26.7,0,9.48,16.19,10.69,28,7.71s15.83-8.84,15.83-14.91C116.81,92.79,108.33,83.15,97.47,83.15Z"/><path class="cls-7" d="M97.47,83.15c-10.06,0-24.45,9-24.45,26.7,0,9.48,16.19,10.69,28,7.71s15.83-8.84,15.83-14.91C116.81,92.79,108.33,83.15,97.47,83.15Z"/><path class="cls-8" d="M89.41,117.41c-3.47,0-14.8-.55-14.8-7.56,0-16.38,13.28-25.11,22.86-25.11,10.46,0,17.74,9.44,17.74,17.91,0,6.32-5.06,10.94-14.62,13.36a46.84,46.84,0,0,1-11.18,1.4Z"/><circle class="cls-1" cx="95.38" cy="69.66" r="17.03"/><path class="cls-9" d="M106.31,59.94a1.08,1.08,0,0,0-1.82,1.1c1.45,3.58,1.89,8.83-3.5,14.22s-10.64,5-14.23,3.51a1.07,1.07,0,0,0-1.09,1.81A14.56,14.56,0,0,0,97,84.22a14.63,14.63,0,0,0,9.36-24.28Z"/><circle class="cls-7" cx="95.38" cy="69.66" r="17.03"/><ellipse class="cls-6" cx="87.37" cy="61.65" rx="3.92" ry="2.43" transform="translate(-18 79.83) rotate(-45)"/><path class="cls-8" d="M95.38,85.09a15.43,15.43,0,1,1,15.44-15.43A15.45,15.45,0,0,1,95.38,85.09Z"/><ellipse class="cls-6" cx="83.11" cy="96.08" rx="3.55" ry="2.2" transform="translate(-43.9 98.58) rotate(-50.27)"/><path class="cls-9" d="M114.42,102.65A17.94,17.94,0,0,0,106,88a1.94,1.94,0,0,0-3,1.83,30.08,30.08,0,0,1,.2,3.43c0,7.32-3.47,14.39-13.5,18a28.61,28.61,0,0,1-4.81,1.28,1.94,1.94,0,0,0,.08,3.84,35.06,35.06,0,0,0,4.47.28,46.12,46.12,0,0,0,11-1.37C106.79,113.62,114.42,110.12,114.42,102.65Z"/><path class="cls-10" d="M110.33,15.12l-24-13.84a1.46,1.46,0,0,0-1.52-.12h0L80.28,3.78,84,7.61V20.54A5.56,5.56,0,0,0,86.35,25l16.07,9.28L106.35,43l1.13,6.69.5.28,4.55-2.62h0a.37.37,0,0,0,.13-.32V19.57A5.61,5.61,0,0,0,110.33,15.12Z"/><path class="cls-6" d="M110.33,15.12l-24-13.84a1.46,1.46,0,0,0-1.52-.12h0L80.28,3.78,84,7.61V20.54A5.56,5.56,0,0,0,86.35,25l6.07,3.51,19.64-11.34A4.77,4.77,0,0,0,110.33,15.12Z"/><path class="cls-11" d="M81.8,3.9l24,13.85a5.56,5.56,0,0,1,2.33,4.45V49.61c0,.43-.38.45-.63,0l-6.22-10.32a2.87,2.87,0,0,0-1-1L81.8,27.62a5.6,5.6,0,0,1-2.33-4.45V5.66C79.47,4,80.52,3.16,81.8,3.9Z"/><line class="cls-7" x1="86.08" y1="14.82" x2="101.51" y2="23.78"/><line class="cls-7" x1="86.08" y1="21.79" x2="101.51" y2="30.75"/><path class="cls-7" d="M111.89,16.84h0l-.18-.29v0l-.18-.26,0,0-.18-.23,0-.05-.17-.19-.06-.05a1.37,1.37,0,0,0-.17-.17l-.06,0c-.06-.06-.12-.1-.18-.15l-.06-.05-.25-.16-24-13.84a1.46,1.46,0,0,0-1.52-.12h0L80.28,3.78h0a2.07,2.07,0,0,0-.81,1.88V23.17a5.6,5.6,0,0,0,2.33,4.45l18.48,10.67a2.87,2.87,0,0,1,1,1l6.22,10.32c.16.27.37.36.5.28h0l4.55-2.62h0a.37.37,0,0,0,.13-.32V19.57A5.75,5.75,0,0,0,111.89,16.84Z"/><path class="cls-2" d="M9.67,15.12l24-13.84a1.46,1.46,0,0,1,1.52-.12h0l4.54,2.62L36,7.61V20.54A5.56,5.56,0,0,1,33.65,25L17.58,34.27,13.65,43l-1.13,6.69-.5.28L7.47,47.3h0A.37.37,0,0,1,7.34,47V19.57A5.61,5.61,0,0,1,9.67,15.12Z"/><path class="cls-6" d="M9.67,15.12l24-13.84a1.46,1.46,0,0,1,1.52-.12h0l4.54,2.62L36,7.61V20.54A5.56,5.56,0,0,1,33.65,25L27.58,28.5,7.94,17.16A4.77,4.77,0,0,1,9.67,15.12Z"/><path class="cls-12" d="M38.2,3.9l-24,13.85a5.56,5.56,0,0,0-2.33,4.45V49.61c0,.43.38.45.63,0l6.22-10.32a2.87,2.87,0,0,1,1-1L38.2,27.62a5.6,5.6,0,0,0,2.33-4.45V5.66C40.53,4,39.48,3.16,38.2,3.9Z"/><line class="cls-4" x1="33.92" y1="14.82" x2="18.49" y2="23.78"/><line class="cls-4" x1="33.92" y1="21.79" x2="18.49" y2="30.75"/><path class="cls-4" d="M8.11,16.84h0l.18-.29v0l.18-.26,0,0L8.68,16l0-.05.17-.19L9,15.7l.17-.17.06,0,.18-.15.06-.05.25-.16,24-13.84a1.46,1.46,0,0,1,1.52-.12h0l4.54,2.62h0a2.07,2.07,0,0,1,.81,1.88V23.17a5.6,5.6,0,0,1-2.33,4.45L19.72,38.29a2.87,2.87,0,0,0-1,1L12.52,49.64c-.16.27-.37.36-.5.28h0L7.47,47.3h0A.37.37,0,0,1,7.34,47V19.57A5.75,5.75,0,0,1,8.11,16.84Z"/><rect class="cls-13" width="120" height="120"/><rect class="cls-13" width="120" height="120"/></g></g></svg>