<svg xmlns="http://www.w3.org/2000/svg" viewBox="0 0 120 120"><defs><style>.cls-1,.cls-3{fill:#fff;}.cls-1,.cls-7,.cls-8{stroke:#b8bfca;}.cls-1,.cls-10,.cls-11,.cls-4,.cls-5,.cls-6,.cls-7,.cls-8,.cls-9{stroke-linecap:round;stroke-linejoin:round;}.cls-1,.cls-11,.cls-4,.cls-5,.cls-6,.cls-7,.cls-8,.cls-9{stroke-width:2px;}.cls-10,.cls-2{fill:#d5dae0;}.cls-12,.cls-4,.cls-7,.cls-8,.cls-9{fill:none;}.cls-4,.cls-5,.cls-6{stroke:#627386;}.cls-5{fill:#627386;}.cls-6{fill:#b8bfca;}.cls-8{stroke-dasharray:0 5.69;}.cls-10,.cls-9{stroke:#d5dae0;}.cls-11{fill:#91d2fb;stroke:#91d2fb;}</style></defs><title>video</title><g id="Layer_2" data-name="Layer 2"><g id="Objects"><path class="cls-1" d="M100.41,5.94,92,1.08h0a.76.76,0,0,0-.79,0L20.39,42a2.93,2.93,0,0,0-1.23,2.34v68.71a1.07,1.07,0,0,0,.43,1h0L28,118.92l7.08-13.41L91.2,67.59a2.93,2.93,0,0,0,1.22-2.34V16.59Z"/><path class="cls-2" d="M27.58,118.67V37.87L20.39,42a2.93,2.93,0,0,0-1.23,2.34v68.71a1.07,1.07,0,0,0,.43,1h0Z"/><path class="cls-3" d="M69.08,73.18,92.42,40.61v-24l8-10.65L92,1.08h0a.76.76,0,0,0-.79,0L20.39,42a2.93,2.93,0,0,0-1.23,2.34h0Z"/><path class="cls-1" d="M28.8,46.88,99.61,6c.68-.39,1.23,0,1.23.93v68.7A2.93,2.93,0,0,1,99.61,78L28.8,118.85c-.67.39-1.22,0-1.22-.92V49.22A3,3,0,0,1,28.8,46.88Z"/><path class="cls-4" d="M100.41,5.94h0L92,1.08h0a.76.76,0,0,0-.79,0L20.39,42a2.93,2.93,0,0,0-1.23,2.34v68.71a1.07,1.07,0,0,0,.43,1h0L28,118.92h0a.76.76,0,0,0,.79-.06L99.61,78a2.93,2.93,0,0,0,1.23-2.34V6.93A1.08,1.08,0,0,0,100.41,5.94Z"/><path class="cls-5" d="M27.58,108.13v9.8c0,.9.55,1.31,1.22.92L99.61,78a2.93,2.93,0,0,0,1.23-2.34V65.84Z"/><path class="cls-6" d="M19.16,103.27v9.8a1.07,1.07,0,0,0,.43,1h0l8,4.61V108.13Z"/><line class="cls-7" x1="91.94" y1="76.8" x2="91.94" y2="76.8"/><line class="cls-8" x1="87.02" y1="79.64" x2="64.86" y2="92.44"/><line class="cls-7" x1="62.39" y1="93.86" x2="62.39" y2="93.86"/><line class="cls-9" x1="60.86" y1="94.74" x2="36.47" y2="108.82"/><ellipse class="cls-10" cx="60.86" cy="94.74" rx="3.07" ry="1.74" transform="translate(-50.15 113.64) rotate(-66.95)"/><path class="cls-4" d="M41,111.83,99.61,78a2.93,2.93,0,0,0,1.23-2.34V43.2"/><polygon class="cls-11" points="72.21 52.75 56.21 73.94 56.21 50.04 72.21 52.75"/><rect class="cls-12" width="120" height="120"/><rect class="cls-12" width="120" height="120"/></g></g></svg>