<svg xmlns="http://www.w3.org/2000/svg" viewBox="0 0 120 120"><defs><style>.cls-1,.cls-6{fill:#fff;}.cls-2,.cls-3,.cls-4,.cls-5,.cls-7{fill:none;}.cls-2{stroke:#d5dae0;}.cls-2,.cls-3,.cls-4,.cls-5,.cls-6{stroke-linecap:round;stroke-linejoin:round;stroke-width:2px;}.cls-3{stroke:#627386;}.cls-4,.cls-5,.cls-6{stroke:#1b6dc6;}.cls-5{stroke-dasharray:0 5.5;}</style></defs><title>virtualization-&amp;amp;-cloud</title><g id="Layer_2" data-name="Layer 2"><g id="Tech_Concepts" data-name="Tech Concepts"><path class="cls-1" d="M83.66,29.93h0l-15.26-8.8h0c-1.78-1-4.11-.95-6.65.52l-1.11.64L47.56,14.74h0c-3-1.72-6.85-1.56-11.1.89C27.6,20.75,20.33,34,19.57,46l-8.39,4.84C5.56,54.09,1,62.8,1,70.3H1c0,4.1,1.37,7,3.53,8.22h0l15.26,8.81h0c1.78,1,4.11.94,6.66-.53L77,57.61c5.63-3.25,10.19-12,10.19-19.45h0C87.19,34.06,85.82,31.17,83.66,29.93Z"/><path class="cls-1" d="M77,30.46,68.62,35.3c-.76-11.11-8-16-16.9-10.85S35.59,42.82,34.82,54.81l-8.38,4.85c-5.63,3.24-10.18,12-10.18,19.45s4.55,10.94,10.18,7.7L77,57.61c5.63-3.25,10.19-12,10.19-19.45h0C87.19,30.66,82.63,27.21,77,30.46Z"/><path class="cls-2" d="M77,30.46,68.62,35.3c-.76-11.11-8-16-16.9-10.85S35.59,42.82,34.82,54.81l-8.38,4.85c-5.63,3.24-10.18,12-10.18,19.45"/><path class="cls-3" d="M83.66,29.93h0l-15.26-8.8h0c-1.78-1-4.11-.95-6.65.52l-1.11.64L47.56,14.74h0c-3-1.72-6.85-1.56-11.1.89C27.6,20.75,20.33,34,19.57,46l-8.39,4.84C5.56,54.09,1,62.8,1,70.3H1c0,4.1,1.37,7,3.53,8.22h0l15.26,8.81h0c1.78,1,4.11.94,6.66-.53L77,57.61c5.63-3.25,10.19-12,10.19-19.45h0C87.19,34.06,85.82,31.17,83.66,29.93Z"/><line class="cls-4" x1="26.16" y1="91.03" x2="26.16" y2="91.03"/><line class="cls-5" x1="30.92" y1="93.78" x2="42.83" y2="100.65"/><line class="cls-4" x1="45.21" y1="102.03" x2="45.21" y2="102.03"/><line class="cls-4" x1="90.05" y1="33.61" x2="90.05" y2="33.61"/><line class="cls-5" x1="94.81" y1="36.36" x2="106.72" y2="43.23"/><line class="cls-4" x1="109.1" y1="44.61" x2="109.1" y2="44.61"/><path class="cls-1" d="M108.82,48.83l-8.39,4.84c-.76-11.11-8-16-16.89-10.86S67.4,61.19,66.64,73.18L58.25,78c-5.62,3.25-10.18,12-10.18,19.46s4.56,10.94,10.18,7.69L108.82,76C114.44,72.73,119,64,119,56.53h0C119,49,114.44,45.58,108.82,48.83Z"/><path class="cls-6" d="M108.82,48.83l-8.39,4.84c-.76-11.11-8-16-16.89-10.86S67.4,61.19,66.64,73.18L58.25,78c-5.62,3.25-10.18,12-10.18,19.46s4.56,10.94,10.18,7.69L108.82,76C114.44,72.73,119,64,119,56.53h0C119,49,114.44,45.58,108.82,48.83Z"/><rect class="cls-7" width="120" height="120"/><rect class="cls-7" width="120" height="120"/></g></g></svg>