<svg xmlns="http://www.w3.org/2000/svg" viewBox="0 0 120 120"><defs><style>.cls-1,.cls-12,.cls-13,.cls-2,.cls-3,.cls-9{fill:none;}.cls-1,.cls-2,.cls-3{stroke:#1b6dc6;}.cls-1,.cls-12,.cls-2,.cls-3,.cls-6,.cls-8,.cls-9{stroke-linecap:round;stroke-linejoin:round;}.cls-1,.cls-12,.cls-2,.cls-3,.cls-6,.cls-9{stroke-width:2px;}.cls-2{stroke-dasharray:0 6.3;}.cls-3{stroke-dasharray:0 6.17;}.cls-4{fill:#b8bfca;}.cls-5,.cls-8{fill:#d5dae0;}.cls-6,.cls-7{fill:#fff;}.cls-6{stroke:#b8bfca;}.cls-8{stroke:#fff;}.cls-9{stroke:#627386;}.cls-10{fill:#bde4fd;}.cls-11{fill:#91d2fb;}.cls-12{stroke:#91d2fb;}</style></defs><title>whitebooks-&amp;amp;-ebooks</title><g id="Layer_2" data-name="Layer 2"><g id="Tech_Concepts" data-name="Tech Concepts"><line class="cls-1" x1="102.64" y1="38.24" x2="102.64" y2="38.24"/><line class="cls-2" x1="102.64" y1="44.53" x2="102.64" y2="72.87"/><line class="cls-1" x1="102.64" y1="76.02" x2="102.64" y2="76.02"/><line class="cls-1" x1="17.36" y1="25.19" x2="17.36" y2="25.19"/><line class="cls-3" x1="17.36" y1="31.36" x2="17.36" y2="77.67"/><line class="cls-1" x1="17.36" y1="80.75" x2="17.36" y2="80.75"/><polygon class="cls-4" points="102.52 85.41 102.64 96.66 63.95 119 63.82 107.75 102.52 85.41"/><polygon class="cls-5" points="63.95 119 17.48 92 17.36 80.75 63.82 107.75 63.95 119"/><polygon class="cls-5" points="63.82 107.75 17.36 80.75 56.05 58.41 102.52 85.41 63.82 107.75"/><polygon class="cls-6" points="63.82 107.75 17.36 80.75 56.05 58.41 102.52 85.41 63.82 107.75"/><line class="cls-6" x1="63.86" y1="113.45" x2="17.4" y2="86.46"/><path class="cls-7" d="M63.82,98.36h0a29,29,0,0,1-21.47-3.08l-25-14.53L56.05,58.41l25,14.52A29,29,0,0,0,102.52,76h0Z"/><path class="cls-6" d="M63.82,98.36h0a29,29,0,0,1-21.47-3.08l-25-14.53L56.05,58.41l25,14.52A29,29,0,0,0,102.52,76h0Z"/><path class="cls-8" d="M56.91,96.3a26.07,26.07,0,0,1-13.1-3.53l-20.67-12,32.91-19L79.59,75.44a32.07,32.07,0,0,0,11.28,4L62.74,95.64A26,26,0,0,1,56.91,96.3Z"/><path class="cls-9" d="M102.52,85.41,94.41,80.7,102.52,76a29,29,0,0,1-21.47-3.09l-3.77-2.19L56.05,58.41,36.28,69.83,17.36,80.75h0L17.48,92,64,119l38.69-22.34Z"/><path class="cls-10" d="M102.64,38.24V32.15L92.2,31.29,51.4,7.74a6,6,0,0,0-5.41,0L23.81,20.54l-6.45-1.45v6.1a1.9,1.9,0,0,0,1.12,1.56L68.6,55.69a6,6,0,0,0,5.41,0L101.52,39.8A1.9,1.9,0,0,0,102.64,38.24Z"/><path class="cls-11" d="M71.64,19.42V56.31A5.3,5.3,0,0,0,74,55.69L101.52,39.8a1.9,1.9,0,0,0,1.12-1.56V32.15L92.2,31.29Z"/><path class="cls-12" d="M102.64,38.24V32.15L92.2,31.29,51.4,7.74a6,6,0,0,0-5.41,0L23.81,20.54l-6.45-1.45v6.1a1.9,1.9,0,0,0,1.12,1.56L68.6,55.69a6,6,0,0,0,5.41,0L101.52,39.8A1.9,1.9,0,0,0,102.64,38.24Z"/><path class="cls-7" d="M101.52,33.71,74,49.59a5.93,5.93,0,0,1-5.41,0L18.48,20.66c-1.5-.87-1.5-2.27,0-3.13L46,1.65a5.93,5.93,0,0,1,5.41,0l50.12,28.93C103,31.45,103,32.85,101.52,33.71Z"/><path class="cls-10" d="M71.3,47.19A2.58,2.58,0,0,1,70.12,47L21.87,19.09,47.51,4.29a3,3,0,0,1,2.37,0L98.13,32.15,72.49,47A2.63,2.63,0,0,1,71.3,47.19Z"/><path class="cls-7" d="M62.21,7.88,51.4,1.65a5.93,5.93,0,0,0-5.41,0L18.48,17.53c-1.5.86-1.5,2.26,0,3.13l39.31,22.7Z"/><path class="cls-12" d="M101.52,33.71,74,49.59a5.93,5.93,0,0,1-5.41,0L18.48,20.66c-1.5-.87-1.5-2.27,0-3.13L46,1.65a5.93,5.93,0,0,1,5.41,0l50.12,28.93C103,31.45,103,32.85,101.52,33.71Z"/><ellipse class="cls-1" cx="34.21" cy="10.73" rx="2.79" ry="1.61"/><path class="cls-1" d="M36.18,7.31a1.2,1.2,0,0,0,0,2.28l-4,2.28a4.36,4.36,0,0,0-3.95,0Z"/><path class="cls-1" d="M101.52,30.58,66.29,10.24,62.21,7.88h0L51.4,1.65h0l0,0A5.19,5.19,0,0,0,49.43,1a6.55,6.55,0,0,0-2.17.12A4.48,4.48,0,0,0,46,1.65l-20.72,12-6.79,3.92a2.09,2.09,0,0,0-.22.16,2,2,0,0,0-.83,1,1.23,1.23,0,0,0-.07.42v6.1a1.9,1.9,0,0,0,1.12,1.56L68.6,55.69a5.62,5.62,0,0,0,3,.62h0a6.18,6.18,0,0,0,1.24-.18l.06,0A4.42,4.42,0,0,0,74,55.69L101.52,39.8a1.9,1.9,0,0,0,1.12-1.56V32.15A1.91,1.91,0,0,0,101.52,30.58Z"/><line class="cls-1" x1="35.46" y1="20.9" x2="51.82" y2="11.45"/><line class="cls-1" x1="43.64" y1="25.62" x2="60" y2="16.18"/><line class="cls-1" x1="51.82" y1="30.34" x2="68.18" y2="20.9"/><line class="cls-1" x1="60" y1="35.06" x2="76.36" y2="25.62"/><line class="cls-1" x1="68.18" y1="39.79" x2="84.54" y2="30.34"/><rect class="cls-13" width="120" height="120"/><rect class="cls-13" width="120" height="120"/></g></g></svg>