<svg xmlns="http://www.w3.org/2000/svg" viewBox="0 0 120 120"><defs><style>.cls-1,.cls-6{fill:#deeaff;}.cls-1,.cls-3{stroke:#98b9ea;}.cls-1,.cls-3,.cls-4,.cls-5{stroke-linecap:round;stroke-linejoin:round;stroke-width:2px;}.cls-2,.cls-4{fill:#98b9ea;}.cls-3{fill:#fff;}.cls-4{stroke:#deeaff;}.cls-5,.cls-7{fill:none;}.cls-5{stroke:#436db5;}</style></defs><title>2-node</title><g id="Layer_2" data-name="Layer 2"><g id="Tech_Concepts" data-name="Tech Concepts"><path class="cls-1" d="M80.47,60,63.73,50.34a8.18,8.18,0,0,0-7.46,0L39.53,60H13.75V76.15a2.6,2.6,0,0,0,1.54,2.15l41,23.66a8.24,8.24,0,0,0,7.46,0l41-23.66a2.6,2.6,0,0,0,1.54-2.15V60Z"/><path class="cls-2" d="M63.73,102l41-23.66a2.6,2.6,0,0,0,1.54-2.15V60H80.47L63.73,50.34a7.57,7.57,0,0,0-3.73-.9v53.41A7.68,7.68,0,0,0,63.73,102Z"/><line class="cls-1" x1="41.83" y1="86.17" x2="29.72" y2="79.17"/><path class="cls-3" d="M104.71,57.84l-41-23.65a8.24,8.24,0,0,0-7.46,0l-41,23.65c-2.06,1.19-2.06,3.13,0,4.32l41,23.65a8.24,8.24,0,0,0,7.46,0l41-23.65C106.77,61,106.77,59,104.71,57.84Z"/><polygon class="cls-4" points="95.11 83.84 73.47 96.34 73.47 88.88 95.11 76.38 95.11 83.84"/><path class="cls-5" d="M104.71,57.84l-41-23.65a8.24,8.24,0,0,0-7.46,0l-41,23.65A2.63,2.63,0,0,0,13.75,60V76.15a2.6,2.6,0,0,0,1.54,2.15l41,23.66a8.26,8.26,0,0,0,7.46,0l41-23.66a2.6,2.6,0,0,0,1.54-2.15V60A2.63,2.63,0,0,0,104.71,57.84Z"/><ellipse class="cls-6" cx="95.68" cy="60" rx="2.1" ry="1.21"/><ellipse class="cls-6" cx="60" cy="80.6" rx="2.1" ry="1.21"/><ellipse class="cls-6" cx="60" cy="39.4" rx="2.1" ry="1.21"/><ellipse class="cls-6" cx="24.32" cy="60" rx="2.1" ry="1.21"/><path class="cls-1" d="M80.47,43.85,63.73,34.19a8.24,8.24,0,0,0-7.46,0L39.53,43.85H13.75V60a2.63,2.63,0,0,0,1.54,2.16l41,23.65a8.24,8.24,0,0,0,7.46,0l41-23.65A2.63,2.63,0,0,0,106.25,60V43.85Z"/><path class="cls-2" d="M63.73,85.81l41-23.65A2.63,2.63,0,0,0,106.25,60V43.85H80.47L63.73,34.19a7.57,7.57,0,0,0-3.73-.9V86.71A7.57,7.57,0,0,0,63.73,85.81Z"/><line class="cls-1" x1="41.83" y1="70.02" x2="29.72" y2="63.03"/><path class="cls-3" d="M104.71,41.7,63.73,18a8.24,8.24,0,0,0-7.46,0l-41,23.66c-2.06,1.19-2.06,3.12,0,4.31l41,23.65a8.18,8.18,0,0,0,7.46,0l41-23.65C106.77,44.82,106.77,42.89,104.71,41.7Z"/><polygon class="cls-4" points="95.11 67.7 73.47 80.19 73.47 72.73 95.11 60.23 95.11 67.7"/><path class="cls-5" d="M104.71,41.7,63.73,18a8.24,8.24,0,0,0-7.46,0l-41,23.66a2.6,2.6,0,0,0-1.54,2.15V60a2.63,2.63,0,0,0,1.54,2.16l41,23.65a8.18,8.18,0,0,0,7.46,0l41-23.65A2.63,2.63,0,0,0,106.25,60V43.85A2.6,2.6,0,0,0,104.71,41.7Z"/><ellipse class="cls-6" cx="95.68" cy="43.85" rx="2.1" ry="1.21"/><ellipse class="cls-6" cx="60" cy="64.45" rx="2.1" ry="1.21"/><ellipse class="cls-6" cx="60" cy="23.25" rx="2.1" ry="1.21"/><ellipse class="cls-6" cx="24.32" cy="43.85" rx="2.1" ry="1.21"/><rect class="cls-7" width="120" height="120"/><rect class="cls-7" width="120" height="120"/></g></g></svg>