<svg xmlns="http://www.w3.org/2000/svg" viewBox="0 0 120 120"><defs><style>.cls-1{fill:#dfeab0;}.cls-10,.cls-12,.cls-2,.cls-4,.cls-5,.cls-6{fill:none;}.cls-2,.cls-4{stroke:#a7b23b;}.cls-10,.cls-11,.cls-2,.cls-3,.cls-4,.cls-5,.cls-6,.cls-8{stroke-linecap:round;stroke-linejoin:round;stroke-width:2px;}.cls-11,.cls-3,.cls-7{fill:#fff;}.cls-3{stroke:#c4d36c;}.cls-4{stroke-dasharray:0 5.9;}.cls-5,.cls-6{stroke:#436db5;}.cls-6{stroke-dasharray:0 5.79;}.cls-8{fill:#98b9ea;}.cls-10,.cls-11,.cls-8{stroke:#98b9ea;}.cls-9{fill:#deeaff;}</style></defs><title>acropolis-file-service</title><g id="Layer_2" data-name="Layer 2"><g id="Tech_Concepts" data-name="Tech Concepts"><path class="cls-1" d="M106.62,92.35a1.2,1.2,0,0,0,.06-2L63.16,61a6.36,6.36,0,0,1-2.4-4.84,2.35,2.35,0,0,1,.86-2.09h0l-48,27.82,0,0A2.31,2.31,0,0,0,12.79,84a6.34,6.34,0,0,0,2.4,4.84l44.49,30a1.21,1.21,0,0,0,1.27,0l4.55-2.64a1.81,1.81,0,0,1,1.72,0l4.67,2.38a1.81,1.81,0,0,0,1.72,0l13.87-8a1.8,1.8,0,0,0,.29-2.9l-1-.93a1.8,1.8,0,0,1,.3-2.9Z"/><path class="cls-2" d="M106.62,92.35a1.2,1.2,0,0,0,.06-2L63.16,61a6.36,6.36,0,0,1-2.4-4.84,2.35,2.35,0,0,1,.86-2.09h0l-48,27.82,0,0A2.31,2.31,0,0,0,12.79,84a6.34,6.34,0,0,0,2.4,4.84l44.49,30a1.21,1.21,0,0,0,1.27,0l4.55-2.64a1.81,1.81,0,0,1,1.72,0l4.67,2.38a1.81,1.81,0,0,0,1.72,0l13.87-8a1.8,1.8,0,0,0,.29-2.9l-1-.93a1.8,1.8,0,0,1,.3-2.9Z"/><path class="cls-3" d="M60.85,103.25l45.46-26.37a1.19,1.19,0,0,0-.08-2.11L63.16,54.08a1.56,1.56,0,0,0-1.54,0h0l-48,27.82,0,0a1.52,1.52,0,0,1,1.53,0l44.54,21.4A1.2,1.2,0,0,0,60.85,103.25Z"/><path class="cls-2" d="M106.68,90.32,95.8,83l10.51-6.1a1.19,1.19,0,0,0-.08-2.11L63.16,54.08a1.56,1.56,0,0,0-1.54,0h0l-48,27.82,0,0A2.31,2.31,0,0,0,12.79,84a6.34,6.34,0,0,0,2.4,4.84l44.49,30a1.21,1.21,0,0,0,1.27,0l4.55-2.64a1.81,1.81,0,0,1,1.72,0l4.67,2.38a1.81,1.81,0,0,0,1.72,0l13.87-8a1.8,1.8,0,0,0,.29-2.9l-1-.93a1.8,1.8,0,0,1,.3-2.9l19.59-11.36A1.2,1.2,0,0,0,106.68,90.32Z"/><line class="cls-2" x1="88.74" y1="48.61" x2="88.74" y2="48.61"/><line class="cls-4" x1="88.74" y1="54.51" x2="88.74" y2="75.16"/><line class="cls-2" x1="88.74" y1="78.11" x2="88.74" y2="78.11"/><line class="cls-5" x1="38.33" y1="50.21" x2="38.33" y2="50.21"/><line class="cls-6" x1="38.33" y1="56.01" x2="38.33" y2="76.27"/><line class="cls-5" x1="38.33" y1="79.17" x2="38.33" y2="79.17"/><path class="cls-7" d="M63.53,29.27l-12.22-7a.87.87,0,0,0-.77,0L38.33,29.27l12.21,7.05a.81.81,0,0,0,.77,0Z"/><path class="cls-8" d="M50.93,50.26a.77.77,0,0,0,.41-.11l12.19-7V29.27l-12.19,7a.87.87,0,0,1-.41.11"/><path class="cls-9" d="M50.93,36.42a.84.84,0,0,1-.41-.11l-12.19-7V43.11l12.19,7a.74.74,0,0,0,.41.11"/><path class="cls-10" d="M63.53,29.27l-12.22-7a.87.87,0,0,0-.77,0L38.33,29.27l12.21,7.05a.81.81,0,0,0,.77,0Z"/><line class="cls-8" x1="50.93" y1="36.42" x2="50.93" y2="50.26"/><path class="cls-5" d="M51.31,22.22a.87.87,0,0,0-.77,0L38.33,29.27V43.11l12.19,7a.8.8,0,0,0,.82,0l12.19-7V29.27Z"/><path class="cls-7" d="M88.74,29.27l-12.22-7a.87.87,0,0,0-.77,0L63.53,29.27l12.22,7.05a.81.81,0,0,0,.77,0Z"/><path class="cls-8" d="M76.13,50.26a.78.78,0,0,0,.42-.11l12.19-7V29.27l-12.19,7a.88.88,0,0,1-.42.11"/><path class="cls-9" d="M76.13,36.42a.87.87,0,0,1-.41-.11l-12.19-7V43.11l12.19,7a.77.77,0,0,0,.41.11"/><path class="cls-10" d="M88.74,29.27l-12.22-7a.87.87,0,0,0-.77,0L63.53,29.27l12.22,7.05a.81.81,0,0,0,.77,0Z"/><line class="cls-8" x1="76.13" y1="36.42" x2="76.13" y2="50.26"/><path class="cls-5" d="M76.52,22.22a.87.87,0,0,0-.77,0L63.53,29.27V43.11l12.19,7a.82.82,0,0,0,.83,0l12.19-7V29.27Z"/><path class="cls-9" d="M63.53,15.29a.77.77,0,0,1-.41-.11l-12.19-7V22l12.19,7a.87.87,0,0,0,.41.11"/><path class="cls-8" d="M63.53,29.14a.84.84,0,0,0,.41-.11l12.19-7V8.15l-12.19,7a.74.74,0,0,1-.41.11Z"/><path class="cls-11" d="M76.13,8.15,63.92,1.09a.87.87,0,0,0-.77,0L50.93,8.15l12.22,7a.87.87,0,0,0,.77,0Z"/><path class="cls-5" d="M63.92,1.09a.87.87,0,0,0-.77,0L50.93,8.15V22l12.19,7a.85.85,0,0,0,.82,0l12.19-7V8.15Z"/><polygon class="cls-10" points="88.74 78.11 75.67 71.63 63.53 78.64 76.59 85.12 88.74 78.11"/><polygon class="cls-10" points="75.67 71.63 62.61 65.15 50.47 72.16 63.53 78.64 75.67 71.63"/><polygon class="cls-10" points="63.53 78.64 50.47 72.16 38.33 79.17 51.39 85.65 63.53 78.64"/><rect class="cls-12" width="120" height="120"/><rect class="cls-12" width="120" height="120"/></g></g></svg>