<svg xmlns="http://www.w3.org/2000/svg" viewBox="0 0 120 120"><defs><style>.cls-1{fill:#fff;stroke:#98b9ea;}.cls-1,.cls-3,.cls-4{stroke-linecap:round;stroke-linejoin:round;stroke-width:2px;}.cls-2{fill:#deeaff;}.cls-3{fill:#98b9ea;stroke:#deeaff;}.cls-4,.cls-5{fill:none;}.cls-4{stroke:#436db5;}</style></defs><title>action</title><g id="Layer_2" data-name="Layer 2"><g id="Actions"><path class="cls-1" d="M103,32.62c.38,0,4.08-18.08,4.08-18.08l-16-9.24h0A2.36,2.36,0,0,0,90.39,5c-1.25-.24-2.77.55-4.07,2.11L36.8,66.53l1.46-4.67-15.32-9v0a1.9,1.9,0,0,0-.68-.27c-1.25-.24-2.77.55-4.07,2.11l-8,9.51a11.69,11.69,0,0,0-2.28,4.63,7.18,7.18,0,0,0,.15,4.41l13.53,30.86a2.61,2.61,0,0,0,1.1,1.3v0l16,9.24L38.2,94.83,91.73,30.68C96.39,31.51,102.76,32.62,103,32.62Z"/><path class="cls-2" d="M8,68.65l-.07.22a7.18,7.18,0,0,0,.15,4.41l13.53,30.86a2.61,2.61,0,0,0,1.1,1.3v0l16,9.24L38.2,94.83l4.93-5.91Z"/><path class="cls-3" d="M39.41,115a2.48,2.48,0,0,1-1.78-1.57L24.1,82.52A7.17,7.17,0,0,1,24,78.11a11.56,11.56,0,0,1,2.28-4.63l8-9.51c1.3-1.56,2.82-2.35,4.06-2.11a2.45,2.45,0,0,1,1.79,1.57L48,81.55l54.34-65.16c1.3-1.56,2.82-2.35,4.07-2.11a2.49,2.49,0,0,1,1.78,1.58l3.73,8.49a7.11,7.11,0,0,1,.14,4.41,11.48,11.48,0,0,1-2.27,4.63l-66.3,79.46C42.18,114.41,40.66,115.2,39.41,115Z"/><path class="cls-4" d="M111.91,24.35l-3.73-8.5a2.7,2.7,0,0,0-1.1-1.3h0l-16-9.24h0A2.25,2.25,0,0,0,90.39,5c-1.25-.24-2.77.55-4.07,2.11L39.79,63a2.33,2.33,0,0,0-1.53-1.09l-15.32-9v0a1.9,1.9,0,0,0-.68-.27c-1.25-.24-2.77.55-4.07,2.11l-8,9.51a11.69,11.69,0,0,0-2.28,4.63,7.18,7.18,0,0,0,.15,4.41l13.53,30.86a2.61,2.61,0,0,0,1.1,1.3v0l16,9.24h0a2.36,2.36,0,0,0,.68.27c1.25.24,2.77-.55,4.07-2.11l66.3-79.46a11.48,11.48,0,0,0,2.27-4.63A7.11,7.11,0,0,0,111.91,24.35Z"/><rect class="cls-5" width="120" height="120"/><rect class="cls-5" width="120" height="120"/></g></g></svg>