<svg xmlns="http://www.w3.org/2000/svg" viewBox="0 0 120 120"><defs><style>.cls-1{fill:#dfeab0;}.cls-1,.cls-2,.cls-3{stroke:#c4d36c;}.cls-1,.cls-2,.cls-3,.cls-4,.cls-5,.cls-6,.cls-7,.cls-8{stroke-linecap:round;stroke-linejoin:round;stroke-width:2px;}.cls-2,.cls-7{fill:#fff;}.cls-3{fill:#c4d36c;}.cls-4,.cls-8,.cls-9{fill:none;}.cls-4{stroke:#a7b23b;}.cls-5{fill:#deeaff;}.cls-5,.cls-6,.cls-7{stroke:#98b9ea;}.cls-6{fill:#98b9ea;}.cls-8{stroke:#436db5;}</style></defs><title>agile-and-always-on</title><g id="Layer_2" data-name="Layer 2"><g id="Tech_Concepts" data-name="Tech Concepts"><path class="cls-1" d="M42.28,84.43l.1-1.57-12.9-1.48L14.72,75l-1.64-1.22c1.09-6.81,11-12.15,23.16-12.15A33.85,33.85,0,0,1,52.77,65.6l8.44-4.88a41.93,41.93,0,0,0-8.44-3.58V55.41l-3.28-6.34-13-1.53L19.13,50.77l-10,7.64-.64,4.15A21.94,21.94,0,0,0,3.89,67L1,64.84V75H1v.06c.06,11.23,15.93,20.33,35.43,20.33l0,6.3L62.52,92Z"/><path class="cls-2" d="M62.52,81.78,36.36,72l0,6.3c-12.88,0-23.37-6-23.41-13.43S23.35,51.48,36.24,51.48a33.85,33.85,0,0,1,16.53,3.93l8.44-4.87c-6.41-3.68-15.26-6-25-6C16.7,44.58.94,53.69,1,64.91S16.93,85.23,36.43,85.23l0,6.3Z"/><polygon class="cls-3" points="62.54 81.99 62.54 92.27 36.25 102.1 36.25 91.82 62.54 81.99"/><polygon class="cls-3" points="61.21 50.54 61.21 60.72 52.77 65.6 52.77 55.41 61.21 50.54"/><path class="cls-4" d="M62.52,92h0V81.78L36.36,72l0,6.3c-9.77,0-18.16-3.47-21.66-8.37,3.47-4.87,11.78-8.31,21.51-8.31A33.85,33.85,0,0,1,52.77,65.6l8.44-4.88V50.54c-6.41-3.68-15.26-6-25-6C16.74,44.58,1,53.65,1,64.84H1V75H1v.06c.06,11.23,15.93,20.33,35.43,20.33l0,6.3h0L62.52,92Z"/><path class="cls-5" d="M116.09,46.68a25.2,25.2,0,0,0-7.88-6.53c-1.5-2.94-4.24-8-5.37-8.43-1.6-.53-14.6-5.32-14.6-5.32l-3.69,1.68-1,.35v-.35l-26,9.75,26.15,9.75,0-6.3c12.06,0,22,5.26,23.27,12l-4.57,3.28-22.2,3.55L58.79,58.89V69.08c6.41,3.67,15.26,6,25,6C103.26,75,119,66,119,54.78h0V44.59Z"/><path class="cls-6" d="M103.41,47.58a10.44,10.44,0,0,1,3.47,5.72l-4.57,3.28-18.67,3V75h.16C103.26,75,119,66,119,54.78h0V47.58Z"/><path class="cls-7" d="M57.49,27.64l26.15,9.75,0-6.3c12.88,0,23.37,6,23.41,13.43S96.65,58,83.76,58A33.85,33.85,0,0,1,67.23,54l-8.44,4.87c6.41,3.68,15.26,6,25,6,19.5,0,35.26-9.1,35.2-20.32S103.07,24.2,83.57,24.2l0-6.3Z"/><polygon class="cls-5" points="83.64 37.39 83.64 47.58 57.48 37.83 57.48 27.64 83.64 37.39"/><path class="cls-8" d="M119,44.59v-.07c-.06-11.23-15.93-20.32-35.43-20.32l0-6.3-26,9.74V37.83l26.15,9.75v-6.3c8.92,0,16.68,2.9,20.62,7.14l.27.3a10.13,10.13,0,0,1,.72.9l0,0C101.8,54.52,93.48,58,83.76,58A33.78,33.78,0,0,1,67.24,54l-8.45,4.87h0V69.08C65.17,72.73,74,75,83.64,75h.16C103.26,75,119,66,119,54.78h0V44.59Z"/><rect class="cls-9" width="120" height="120"/><rect class="cls-9" width="120" height="120"/></g></g></svg>