<svg xmlns="http://www.w3.org/2000/svg" viewBox="0 0 120 120"><defs><style>.cls-1,.cls-10,.cls-12,.cls-9{fill:#fff;}.cls-2{fill:#98b9ea;}.cls-3,.cls-7{fill:#deeaff;}.cls-11,.cls-13,.cls-3,.cls-9{stroke:#98b9ea;}.cls-11,.cls-3{stroke-miterlimit:10;}.cls-10,.cls-11,.cls-12,.cls-13,.cls-3,.cls-4,.cls-8,.cls-9{stroke-width:2px;}.cls-11,.cls-13,.cls-4,.cls-5,.cls-8{fill:none;}.cls-12,.cls-4{stroke:#436db5;}.cls-10,.cls-12,.cls-13,.cls-4,.cls-8,.cls-9{stroke-linecap:round;stroke-linejoin:round;}.cls-6{fill:#436db5;}.cls-8{stroke:#fff;}.cls-10{stroke:#deeaff;}</style></defs><title>AI-powered-automation</title><g id="Layer_2" data-name="Layer 2"><g id="New_Icon_Set" data-name="New Icon Set"><path class="cls-1" d="M106,72.36c0-4.6-2.8-9.94-6.25-11.94l-9.86-5.69-16.3-9.41A4,4,0,0,0,69.55,45h0l-4.63,2.68,2.5,1.76c0,.2,0,.4,0,.61,0,4.6,2.8,10,6.25,11.94l7.66,4.42,9.19,5.31,8.76,8.38,4.64-2.68h0C105.2,76.64,106,74.88,106,72.36Z"/><path class="cls-2" d="M106,72.36a13.7,13.7,0,0,0-.58-3.8L94.07,75.14l5.17,5,4.64-2.68h0C105.2,76.64,106,74.88,106,72.36Z"/><path class="cls-3" d="M95.15,63.1,81.91,55.45,69,48c-3.45-2-6.24.12-6.24,4.72S65.54,62.66,69,64.66l12.92,7.45,13.24,7.65c3.45,2,6.25-.12,6.25-4.72h0C101.4,70.44,98.6,65.09,95.15,63.1Z"/><ellipse class="cls-2" cx="68.99" cy="56.33" rx="1.48" ry="2.62" transform="translate(-16.55 31.51) rotate(-23.05)"/><ellipse class="cls-2" cx="95.15" cy="71.43" rx="1.47" ry="2.6" transform="translate(-20.37 42.96) rotate(-23.05)"/><path class="cls-4" d="M106,72.36c0-4.6-2.8-9.94-6.25-11.94l-9.86-5.69-16.3-9.41A4,4,0,0,0,69.55,45h0l-4.63,2.68h0c-1.32.77-2.16,2.53-2.16,5,0,4.6,2.79,9.94,6.24,11.94L81.9,72.11h0l6,3.44,7.29,4.21a5.71,5.71,0,0,0,1.86.7,3.57,3.57,0,0,0,1.64-.11,2.55,2.55,0,0,0,.58-.27h0l4.64-2.68h0C105.2,76.64,106,74.88,106,72.36Z"/><ellipse class="cls-5" cx="73.63" cy="53.65" rx="5.43" ry="9.59" transform="translate(-15.13 33.11) rotate(-23.05)"/><path class="cls-6" d="M73.36,91.35,56.83,81.8a6.76,6.76,0,0,0-6.07,0l-4.49,2.59L42.92,83v5.3a2.13,2.13,0,0,0,1.26,1.75L68.79,104.3a6.72,6.72,0,0,0,6.08,0l6.58-3.79a2.15,2.15,0,0,0,1.25-1.76v-5.3Z"/><path class="cls-2" d="M71.65,90.36,56.83,81.8a6.76,6.76,0,0,0-6.07,0l-4.49,2.59L42.92,83v5.3a2.13,2.13,0,0,0,1.26,1.75L68.79,104.3a6.15,6.15,0,0,0,2.86.72Z"/><path class="cls-7" d="M56.83,77.48a6.76,6.76,0,0,0-6.07,0l-6.58,3.8c-1.68,1-1.68,2.54,0,3.51L68.79,99a6.72,6.72,0,0,0,6.08,0l6.58-3.8c1.67-1,1.67-2.54,0-3.51Z"/><path class="cls-8" d="M56.83,77.48a6.76,6.76,0,0,0-6.07,0l-6.58,3.8c-1.68,1-1.68,2.54,0,3.51L68.79,99a6.72,6.72,0,0,0,6.08,0l6.58-3.8c1.67-1,1.67-2.54,0-3.51Z"/><path class="cls-4" d="M82.7,93.45a2.15,2.15,0,0,0-1.25-1.76L56.83,77.48a6.76,6.76,0,0,0-6.07,0l-6.58,3.8A2.14,2.14,0,0,0,42.92,83h0v5.3a2.13,2.13,0,0,0,1.26,1.75L68.79,104.3a6.72,6.72,0,0,0,6.08,0l6.58-3.79a2.15,2.15,0,0,0,1.25-1.76v-5.3Z"/><path class="cls-6" d="M49.16,105.32,32.64,95.77a6.78,6.78,0,0,0-6.08,0l-4.48,2.59L18.73,97v5.31A2.12,2.12,0,0,0,20,104.06L44.6,118.27a6.69,6.69,0,0,0,6.07,0l6.58-3.8a2.12,2.12,0,0,0,1.26-1.75v-5.3Z"/><path class="cls-2" d="M47.45,104.33,32.64,95.77a6.78,6.78,0,0,0-6.08,0l-4.48,2.59L18.73,97v5.31A2.12,2.12,0,0,0,20,104.06L44.6,118.27a6.11,6.11,0,0,0,2.85.72Z"/><path class="cls-7" d="M32.64,91.45a6.72,6.72,0,0,0-6.08,0L20,95.25c-1.67,1-1.67,2.54,0,3.51L44.6,113a6.69,6.69,0,0,0,6.07,0l6.58-3.8c1.68-1,1.68-2.54,0-3.51Z"/><path class="cls-8" d="M32.64,91.45a6.72,6.72,0,0,0-6.08,0L20,95.25c-1.67,1-1.67,2.54,0,3.51L44.6,113a6.69,6.69,0,0,0,6.07,0l6.58-3.8c1.68-1,1.68-2.54,0-3.51Z"/><path class="cls-4" d="M58.51,107.42a2.14,2.14,0,0,0-1.26-1.76L32.64,91.45a6.72,6.72,0,0,0-6.08,0L20,95.25A2.13,2.13,0,0,0,18.73,97h0v5.31A2.12,2.12,0,0,0,20,104.06L44.6,118.27a6.69,6.69,0,0,0,6.07,0l6.58-3.8a2.12,2.12,0,0,0,1.26-1.75v-5.3Z"/><path class="cls-7" d="M78,60.84h0a3.46,3.46,0,0,0-.22-1.17h0L73.51,48.74,63.16,50.06l-2.29-1.33a14.68,14.68,0,0,0-13.26,0L40.27,53,21.85,55.31l-4.25,12h0a3.06,3.06,0,0,0-.17,1.11h0l.09,21.64h0c0,1.38.92,2.76,2.75,3.81l14.37,8.3a14.68,14.68,0,0,0,13.26,0L75.33,86.32c1.84-1.06,2.75-2.46,2.75-3.85h0Z"/><path class="cls-2" d="M78,60.84a3.46,3.46,0,0,0-.22-1.17h0L73.51,48.74,63.16,50.06l-2.29-1.33a14.68,14.68,0,0,0-13.26,0l-5.42,3.13v51.87a13.07,13.07,0,0,0,5.69-1.56L75.33,86.32c1.84-1.06,2.75-2.46,2.75-3.85h0L78,60.84Z"/><path class="cls-9" d="M47.62,39.35a12.56,12.56,0,0,1,11.39,0l12.34,7.12c3.15,1.82,3.15,4.76,0,6.58L47.78,66.66a12.56,12.56,0,0,1-11.39,0L24,59.54C20.9,57.72,20.9,54.78,24,53Z"/><path class="cls-4" d="M78,60.84h0a3.23,3.23,0,0,0-.22-1.17h0L73.52,48.74h0a4.79,4.79,0,0,0-2.16-2.27L59,39.35a12.56,12.56,0,0,0-11.39,0L24,53a4.67,4.67,0,0,0-2.19,2.35h0l-4.25,12h0a3.08,3.08,0,0,0-.18,1.11h0l.09,21.64h0c0,1.38.92,2.76,2.75,3.81l14.37,8.3a14.68,14.68,0,0,0,13.26,0L75.33,86.32c1.84-1.06,2.75-2.46,2.75-3.85h0Z"/><polygon class="cls-10" points="54.68 90.87 54.68 74.11 69.42 65.59 69.42 82.35 54.68 90.87"/><path class="cls-2" d="M33.48,39V54.78a2.17,2.17,0,0,0,1.29,1.79l6.75,3.9a6.88,6.88,0,0,0,6.22,0L60.62,53a2.2,2.2,0,0,0,1.29-1.8V35.43C61.11,35.43,33.48,39,33.48,39Z"/><path class="cls-7" d="M45.05,37.5,33.48,39V54.78a2.17,2.17,0,0,0,1.29,1.79l6.75,3.9a6.51,6.51,0,0,0,3.53.72Z"/><path class="cls-1" d="M47.65,29.74a6.84,6.84,0,0,1,6.23,0l6.74,3.89c1.72,1,1.72,2.6,0,3.59L47.74,44.66a6.88,6.88,0,0,1-6.22,0l-6.75-3.89c-1.72-1-1.72-2.6,0-3.6Z"/><path class="cls-11" d="M60.62,33.63l-6.74-3.89a6.84,6.84,0,0,0-6.23,0L34.77,37.17A2.2,2.2,0,0,0,33.48,39V54.78a2.17,2.17,0,0,0,1.29,1.79l6.75,3.9a4.28,4.28,0,0,0,.75.34l.17.06c.23.07.46.14.7.19l.12,0a7.53,7.53,0,0,0,.83.1h0a7.06,7.06,0,0,0,.92,0h0a6.27,6.27,0,0,0,2.69-.72L60.62,53a2.2,2.2,0,0,0,1.29-1.8V35.43A2.2,2.2,0,0,0,60.62,33.63Z"/><path class="cls-1" d="M63.48,96.93c0-4.6-2.8-9.94-6.25-11.94L47.37,79.3l-16.3-9.41A4,4,0,0,0,27,69.57h0l-4.64,2.68L24.85,74c0,.2,0,.4,0,.61,0,4.6,2.79,10,6.24,11.94L38.74,91l9.18,5.31,8.76,8.38L61.32,102h0C62.64,101.21,63.48,99.45,63.48,96.93Z"/><path class="cls-2" d="M63.48,96.93a14.06,14.06,0,0,0-.57-3.8l-11.4,6.58,5.17,5L61.32,102h0C62.64,101.21,63.48,99.45,63.48,96.93Z"/><path class="cls-3" d="M52.6,87.67,39.35,80,26.44,72.57c-3.45-2-6.25.12-6.25,4.72s2.8,9.94,6.25,11.94l12.91,7.45,13.25,7.65c3.45,2,6.24-.12,6.24-4.72h0C58.84,95,56.05,89.66,52.6,87.67Z"/><ellipse class="cls-2" cx="26.44" cy="80.9" rx="1.48" ry="2.62" transform="translate(-29.56 16.81) rotate(-23.05)"/><ellipse class="cls-2" cx="52.6" cy="96" rx="1.47" ry="2.6" transform="translate(-33.39 28.26) rotate(-23.05)"/><path class="cls-4" d="M63.48,96.93c0-4.6-2.8-9.94-6.25-11.94L47.37,79.3l-16.3-9.41A4,4,0,0,0,27,69.57h0l-4.64,2.68h0c-1.33.77-2.17,2.53-2.17,5.05,0,4.6,2.8,9.94,6.25,11.94l12.91,7.45h0l5.95,3.44,7.3,4.21a5.66,5.66,0,0,0,1.85.7,3.57,3.57,0,0,0,1.64-.11,2.84,2.84,0,0,0,.59-.27h0L61.32,102h0C62.64,101.21,63.48,99.45,63.48,96.93Z"/><ellipse class="cls-5" cx="31.07" cy="78.22" rx="5.43" ry="9.59" transform="translate(-28.15 18.41) rotate(-23.05)"/><path class="cls-12" d="M78.38,14.78h0L55.59,1.61h0C54,.69,51.92.78,49.65,2.09L23,17.45C18,20.35,14,28.11,14,34.79c0,3.66,1.22,6.23,3.14,7.34h0L39.9,55.29h0c1.59.91,3.66.84,5.93-.47L72.45,39.45c5-2.89,9.07-10.66,9.07-17.34h0C81.52,18.45,80.3,15.89,78.38,14.78Z"/><path class="cls-7" d="M17.38,23.38A22.81,22.81,0,0,0,14,34.79c0,3.66,1.22,6.23,3.14,7.34h0L39.9,55.29h0c1.59.91,3.66.84,5.93-.47l13-7.51Z"/><path class="cls-6" d="M72.45,39.45,45.83,54.82c-5,2.89-9.07-.18-9.07-6.87h0c0-6.68,4.06-14.44,9.07-17.34L72.45,15.25c5-2.9,9.07.18,9.07,6.86h0C81.52,28.79,77.46,36.56,72.45,39.45Z"/><path class="cls-11" d="M72.45,39.45,45.83,54.82c-5,2.89-9.07-.18-9.07-6.87h0c0-6.68,4.06-14.44,9.07-17.34L72.45,15.25c5-2.9,9.07.18,9.07,6.86h0C81.52,28.79,77.46,36.56,72.45,39.45Z"/><path class="cls-4" d="M78.38,14.78h0L55.59,1.61h0C54,.69,51.92.78,49.65,2.09L23,17.45C18,20.35,14,28.11,14,34.79c0,3.66,1.22,6.23,3.14,7.34h0L39.9,55.29h0c1.59.91,3.66.84,5.93-.47L72.45,39.45c5-2.89,9.07-10.66,9.07-17.34h0C81.52,18.45,80.3,15.89,78.38,14.78Z"/><line class="cls-4" x1="54.71" y1="12.39" x2="40.89" y2="20.37"/><ellipse class="cls-2" cx="47.85" cy="41.55" rx="7.86" ry="4.44" transform="translate(-9.12 69.31) rotate(-66.95)"/><ellipse class="cls-2" cx="70.43" cy="28.51" rx="7.33" ry="4.15" transform="translate(16.61 82.15) rotate(-66.95)"/><line class="cls-13" x1="60.8" y1="41.02" x2="57.82" y2="42.73"/><rect class="cls-5" width="120" height="120"/><rect class="cls-5" width="120" height="120"/></g></g></svg>