<svg xmlns="http://www.w3.org/2000/svg" viewBox="0 0 120 120"><defs><style>.cls-1,.cls-10,.cls-11,.cls-18,.cls-19,.cls-2,.cls-3,.cls-4,.cls-5,.cls-6,.cls-7,.cls-8,.cls-9{fill:none;}.cls-1,.cls-2,.cls-3,.cls-8{stroke:#a7b23b;}.cls-1,.cls-10,.cls-11,.cls-13,.cls-14,.cls-15,.cls-16,.cls-17,.cls-18,.cls-2,.cls-3,.cls-4,.cls-5,.cls-6,.cls-7,.cls-8,.cls-9{stroke-linecap:round;stroke-linejoin:round;stroke-width:2px;}.cls-2{stroke-dasharray:0 5.45;}.cls-3{stroke-dasharray:0 5.45;}.cls-10,.cls-11,.cls-15,.cls-16,.cls-17,.cls-4,.cls-5,.cls-6,.cls-7,.cls-9{stroke:#98b9ea;}.cls-5{stroke-dasharray:0 5.51;}.cls-6{stroke-dasharray:0 5.45;}.cls-7{stroke-dasharray:0 5.45;}.cls-8{stroke-dasharray:0 5.45;}.cls-9{stroke-dasharray:0 5.45;}.cls-10{stroke-dasharray:0 5.45;}.cls-11{stroke-dasharray:0 5.45;}.cls-12{fill:#dfeab0;}.cls-13{fill:#c4d36c;}.cls-13,.cls-14{stroke:#c4d36c;}.cls-14,.cls-16{fill:#fff;}.cls-15{fill:#deeaff;}.cls-17{fill:#98b9ea;}.cls-18{stroke:#436db5;}</style></defs><title>any-to-any-freedom</title><g id="Layer_2" data-name="Layer 2"><g id="Tech_Concepts" data-name="Tech Concepts"><line class="cls-1" x1="60" y1="49.79" x2="60" y2="49.79"/><line class="cls-2" x1="55.28" y1="47.06" x2="38.74" y2="37.51"/><line class="cls-1" x1="36.38" y1="36.15" x2="36.38" y2="36.15"/><line class="cls-1" x1="60" y1="49.79" x2="60" y2="49.79"/><line class="cls-3" x1="60" y1="55.24" x2="60" y2="74.33"/><line class="cls-1" x1="60" y1="77.06" x2="60" y2="77.06"/><line class="cls-4" x1="18.69" y1="73.64" x2="18.69" y2="73.64"/><line class="cls-5" x1="23.41" y1="76.48" x2="39.95" y2="86.43"/><line class="cls-4" x1="42.31" y1="87.85" x2="42.31" y2="87.85"/><line class="cls-4" x1="60" y1="2.09" x2="60" y2="2.09"/><line class="cls-6" x1="55.28" y1="4.81" x2="38.74" y2="14.36"/><line class="cls-4" x1="36.38" y1="15.72" x2="36.38" y2="15.72"/><line class="cls-4" x1="18.69" y1="46.36" x2="18.69" y2="46.36"/><line class="cls-7" x1="18.69" y1="51.82" x2="18.69" y2="70.91"/><line class="cls-4" x1="18.69" y1="73.64" x2="18.69" y2="73.64"/><line class="cls-1" x1="60" y1="49.79" x2="60" y2="49.79"/><line class="cls-8" x1="64.72" y1="47.06" x2="81.26" y2="37.51"/><line class="cls-1" x1="83.62" y1="36.15" x2="83.62" y2="36.15"/><line class="cls-4" x1="101.31" y1="73.64" x2="101.31" y2="73.64"/><line class="cls-9" x1="96.59" y1="76.36" x2="80.05" y2="85.91"/><line class="cls-4" x1="77.69" y1="87.27" x2="77.69" y2="87.27"/><line class="cls-4" x1="60" y1="2.09" x2="60" y2="2.09"/><line class="cls-10" x1="64.72" y1="4.81" x2="81.26" y2="14.36"/><line class="cls-4" x1="83.62" y1="15.72" x2="83.62" y2="15.72"/><line class="cls-4" x1="101.31" y1="46.37" x2="101.31" y2="46.37"/><line class="cls-11" x1="101.31" y1="51.82" x2="101.31" y2="70.91"/><line class="cls-4" x1="101.31" y1="73.64" x2="101.31" y2="73.64"/><polygon class="cls-12" points="77.69 107.7 60 117.91 42.31 107.7 42.31 87.27 60 77.06 77.69 87.27 77.69 107.7"/><polygon class="cls-13" points="60 97.48 60 117.91 77.69 107.7 77.69 87.27 60 97.48"/><polygon class="cls-14" points="77.69 87.27 60 97.48 42.31 87.27 42.31 87.27 60 77.06 77.69 87.27 77.69 87.27"/><polygon class="cls-1" points="60 77.06 42.31 87.27 42.31 107.7 60 117.91 77.69 107.7 77.69 87.27 60 77.06"/><polygon class="cls-15" points="119 36.15 101.31 46.37 83.62 36.15 83.62 15.72 101.31 5.51 119 15.72 119 36.15"/><polygon class="cls-16" points="119 15.72 101.31 25.94 83.62 15.72 83.62 15.72 101.31 5.51 119 15.72 119 15.72"/><polygon class="cls-17" points="101.31 25.94 101.31 46.37 119 36.15 119 15.72 101.31 25.94"/><polygon class="cls-18" points="101.31 5.51 83.62 15.72 83.62 36.15 101.31 46.37 119 36.15 119 15.72 101.31 5.51"/><polygon class="cls-15" points="36.38 36.15 18.69 46.36 1 36.15 1 15.72 18.69 5.51 36.38 15.72 36.38 36.15"/><polygon class="cls-16" points="36.38 15.72 18.69 25.94 1 15.72 1 15.72 18.69 5.51 36.38 15.72 36.38 15.72"/><polygon class="cls-17" points="18.69 25.94 18.69 46.36 36.38 36.15 36.38 15.72 18.69 25.94"/><polygon class="cls-18" points="18.69 5.51 1 15.72 1 36.15 18.69 46.36 36.38 36.15 36.38 15.72 18.69 5.51"/><rect class="cls-19" width="120" height="120"/><rect class="cls-19" width="120" height="120"/></g></g></svg>