<svg xmlns="http://www.w3.org/2000/svg" viewBox="0 0 120 120"><defs><style>.cls-1,.cls-6{fill:#fff;}.cls-1{stroke:#98b9ea;}.cls-1,.cls-3,.cls-4,.cls-5,.cls-8,.cls-9{stroke-linecap:round;stroke-linejoin:round;stroke-width:2px;}.cls-2{fill:#deeaff;}.cls-3,.cls-7{fill:#98b9ea;}.cls-3,.cls-4,.cls-5{stroke:#436db5;}.cls-10,.cls-4,.cls-9{fill:none;}.cls-5{fill:#436db5;}.cls-8{fill:#c4d36c;stroke:#c4d36c;}.cls-9{stroke:#a7b23b;}</style></defs><title>application</title><g id="Layer_2" data-name="Layer 2"><g id="Objects"><path class="cls-1" d="M100.41,5.94,92,1.08h0a.76.76,0,0,0-.79,0L20.39,42a2.93,2.93,0,0,0-1.23,2.34v68.71a1.07,1.07,0,0,0,.43,1h0L28,118.92l7.08-13.41L91.2,67.59a2.93,2.93,0,0,0,1.22-2.34V16.59Z"/><path class="cls-2" d="M27.58,118.67V37.87L20.39,42a2.93,2.93,0,0,0-1.23,2.34v68.71a1.07,1.07,0,0,0,.43,1h0Z"/><path class="cls-3" d="M66.81,81.67,91.2,67.59a2.93,2.93,0,0,0,1.22-2.34V16.59l8-10.65L92,1.08h0a.76.76,0,0,0-.79,0L20.39,42a2.93,2.93,0,0,0-1.23,2.34v9.8Z"/><path class="cls-2" d="M69.08,73.18,92.42,40.61v-24l8-10.65L92,1.08h0a.76.76,0,0,0-.79,0L20.39,42a2.93,2.93,0,0,0-1.23,2.34h0Z"/><path class="cls-1" d="M99.61,78,28.8,118.85c-.67.39-1.22,0-1.22-.92V49.22a3,3,0,0,1,1.22-2.34L99.61,6c.68-.39,1.23,0,1.23.93v68.7A2.93,2.93,0,0,1,99.61,78Z"/><path class="cls-4" d="M100.41,5.94h0L92,1.08h0a.76.76,0,0,0-.79,0L20.39,42a2.93,2.93,0,0,0-1.23,2.34v68.71a1.07,1.07,0,0,0,.43,1h0L28,118.92h0a.76.76,0,0,0,.79-.06L99.61,78a2.93,2.93,0,0,0,1.23-2.34V6.93A1.08,1.08,0,0,0,100.41,5.94Z"/><path class="cls-5" d="M100.84,16.72V6.93c0-.9-.55-1.32-1.23-.93L28.8,46.88a3,3,0,0,0-1.22,2.34V59Z"/><ellipse class="cls-2" cx="38.79" cy="47.11" rx="2.12" ry="1.2" transform="translate(-19.75 64.36) rotate(-66.95)"/><ellipse class="cls-6" cx="44.11" cy="44.04" rx="2.12" ry="1.2" transform="translate(-13.69 67.38) rotate(-66.95)"/><ellipse class="cls-7" cx="33.25" cy="50.31" rx="2.12" ry="1.2" transform="translate(-26.06 61.21) rotate(-66.95)"/><path class="cls-8" d="M78.61,64.57l-2.28-.44a1.19,1.19,0,0,1-1-1.22c0-.28,0-.55,0-.83,0-.61,0-1.19-.08-1.75l3.3-4.46a2.49,2.49,0,0,0,.44-2.41l-3.19-5.53c-.33-.57-1.06-.41-1.62.36l-3.31,4.45a5.68,5.68,0,0,0-2.34-.45V47.2c0-.87-.53-1.28-1.19-.9L61,50a2.83,2.83,0,0,0-1.19,2.27v5.08a26.11,26.11,0,0,0-2.34,3.16l-3.31-.63c-.57-.11-1.29.57-1.62,1.51l-3.19,9.21c-.33,1-.14,1.81.43,1.92l3.31.63c0,.63-.08,1.24-.08,1.85s0,1.2.08,1.76L49.8,81.2a2.5,2.5,0,0,0-.43,2.42l3.19,5.52c.33.57,1,.41,1.62-.35l3.31-4.46a5.68,5.68,0,0,0,2.34.46v5.08c0,.88.53,1.28,1.19.9l6.38-3.68a2.85,2.85,0,0,0,1.19-2.27V79.73a25.35,25.35,0,0,0,2.34-3.16l3.31.64c.56.11,1.29-.57,1.62-1.52l3.19-9.21C79.38,65.54,79.18,64.68,78.61,64.57Zm-14.4,11.3c-3,1.75-5.5-.11-5.5-4.16S61.17,63,64.21,61.2s5.5.11,5.5,4.16S67.25,74.12,64.21,75.87Z"/><path class="cls-9" d="M78.61,64.57l-2.28-.44a1.19,1.19,0,0,1-1-1.22c0-.28,0-.55,0-.83,0-.61,0-1.19-.08-1.75l3.3-4.46a2.49,2.49,0,0,0,.44-2.41l-3.19-5.53c-.33-.57-1.06-.41-1.62.36l-3.31,4.45a5.68,5.68,0,0,0-2.34-.45V47.2c0-.87-.53-1.28-1.19-.9L61,50a2.83,2.83,0,0,0-1.19,2.27v5.08a26.11,26.11,0,0,0-2.34,3.16l-3.31-.63c-.57-.11-1.29.57-1.62,1.51l-3.19,9.21c-.33,1-.14,1.81.43,1.92l3.31.63c0,.63-.08,1.24-.08,1.85s0,1.2.08,1.76L49.8,81.2a2.5,2.5,0,0,0-.43,2.42l3.19,5.52c.33.57,1,.41,1.62-.35l3.31-4.46a5.68,5.68,0,0,0,2.34.46v5.08c0,.88.53,1.28,1.19.9l6.38-3.68a2.85,2.85,0,0,0,1.19-2.27V79.73a25.35,25.35,0,0,0,2.34-3.16l3.31.64c.56.11,1.29-.57,1.62-1.52l3.19-9.21C79.38,65.54,79.18,64.68,78.61,64.57Zm-14.4,11.3c-3,1.75-5.5-.11-5.5-4.16S61.17,63,64.21,61.2s5.5.11,5.5,4.16S67.25,74.12,64.21,75.87Z"/><rect class="cls-10" width="120" height="120"/><rect class="cls-10" width="120" height="120"/></g></g></svg>