<svg xmlns="http://www.w3.org/2000/svg" xmlns:xlink="http://www.w3.org/1999/xlink" viewBox="0 0 120 120"><defs><style>.cls-1,.cls-14,.cls-17,.cls-6,.cls-7,.cls-8{fill:none;}.cls-2{fill:#98b9ea;}.cls-11,.cls-3{fill:#deeaff;}.cls-12,.cls-4{fill:#fff;}.cls-11,.cls-4,.cls-7{stroke:#98b9ea;}.cls-11,.cls-13,.cls-14,.cls-17,.cls-4,.cls-5,.cls-6,.cls-7,.cls-8{stroke-linecap:round;stroke-linejoin:round;stroke-width:2px;}.cls-5,.cls-9{fill:#436db5;}.cls-5,.cls-6{stroke:#436db5;}.cls-8{stroke:#fff;}.cls-10{clip-path:url(#clip-path);}.cls-13,.cls-15{fill:#dfeab0;}.cls-13,.cls-14{stroke:#c4d36c;}.cls-16{fill:#c4d36c;}.cls-17{stroke:#a7b23b;}</style><clipPath id="clip-path"><path class="cls-1" d="M98.49,74.18s-26.63-4-30.5-4-10.14-1.27-11.51,1.09a15.32,15.32,0,0,0-1.2,5.42l-.43.22c-2.22,1.29-4,4.73-4,7.69,0,2,.78,3.2,2,3.46L52,98.39l2.89-1.67V107s-4.76,7.2,10.45,8.86,33.19-2.41,33.19-2.41Z"/></clipPath></defs><title>authentication</title><g id="Layer_2" data-name="Layer 2"><g id="New_Icon_Set" data-name="New Icon Set"><path class="cls-2" d="M21.51,65.12V111.2a3.74,3.74,0,0,0,2.21,3.08l6,3.45a11.84,11.84,0,0,0,10.66,0L69.41,101a3.76,3.76,0,0,0,2.21-3.08V51.8Z"/><path class="cls-3" d="M34.92,61.56,21.51,65.12V111.2a3.74,3.74,0,0,0,2.21,3.08l6,3.45A10.87,10.87,0,0,0,34.92,119Z"/><path class="cls-4" d="M69.41,54.87,40.35,71.65a11.78,11.78,0,0,1-10.66,0l-6-3.45c-2.95-1.7-2.95-4.45,0-6.15L52.78,45.27a11.78,11.78,0,0,1,10.66,0l6,3.45C72.35,50.42,72.35,53.17,69.41,54.87Z"/><path class="cls-5" d="M58.93,79.9c0-3-1.81-4.36-4-3.06s-4.05,4.75-4.05,7.74c0,2,.79,3.22,2,3.49L52,98.49l5.82-3.37L57,85.66A10.39,10.39,0,0,0,58.93,79.9Z"/><path class="cls-6" d="M69.41,48.72l-6-3.45a11.78,11.78,0,0,0-10.66,0L23.72,62.05a3.73,3.73,0,0,0-2.21,3.07V111.2a3.74,3.74,0,0,0,2.21,3.08l6,3.45a11.84,11.84,0,0,0,10.66,0L69.41,101a3.76,3.76,0,0,0,2.21-3.08V51.8A3.75,3.75,0,0,0,69.41,48.72Z"/><path class="cls-3" d="M81.1,2.53c-3.88-2.24-8.72-2-13.28.62C59.68,7.85,53.3,19.82,53.3,30.4V50.79h0c0,1.79,2.51,3.24,5.6,3.24s5.61-1.45,5.61-3.24h0V30.4c0-6.6,4.17-14.79,8.92-17.54,1.17-.67,1.91-.7,2.06-.62.41.24,1.25,1.68,1.25,4.63V37.25h0c0,1.79,2.51,3.24,5.61,3.24S88,39,88,37.25h0V16.87C88,10.27,85.46,5.05,81.1,2.53Z"/><path class="cls-6" d="M81.1,2.53c-3.88-2.24-8.72-2-13.28.62C59.68,7.85,53.3,19.82,53.3,30.4V50.79h0c0,1.79,2.51,3.24,5.6,3.24s5.61-1.45,5.61-3.24h0V30.4c0-6.6,4.17-14.79,8.92-17.54,1.17-.67,1.91-.7,2.06-.62.41.24,1.25,1.68,1.25,4.63V37.25h0c0,1.79,2.51,3.24,5.61,3.24S88,39,88,37.25h0V16.87C88,10.27,85.46,5.05,81.1,2.53Z"/><path class="cls-7" d="M84.51,9.62a18.42,18.42,0,0,1,1.35,7.25V37.25c-.11.28-1.37,1.14-3.51,1.14"/><path class="cls-8" d="M55.39,48.64V30.4A33.38,33.38,0,0,1,63.3,9.7"/><path class="cls-7" d="M64.61,20.73a24.7,24.7,0,0,0-2.2,9.67V50.79c-.11.28-1.37,1.14-3.51,1.14"/><path class="cls-8" d="M78.83,35.11V16.87c0-3.16-.88-5.63-2.3-6.44a2.46,2.46,0,0,0-1.26-.32,6.09,6.09,0,0,0-2.9.94,14.27,14.27,0,0,0-3.27,2.67"/><path class="cls-2" d="M30.22,64.32h0c0-1.67,2.34-3,5.24-3s5.24,1.36,5.24,3h0c0,1.67-2.34,3-5.24,3s-5.24-1.36-5.24-3Z"/><path class="cls-6" d="M30.22,64.32h0c0-1.67,2.34-3,5.24-3s5.24,1.36,5.24,3h0c0,1.67-2.34,3-5.24,3s-5.24-1.36-5.24-3Z"/><path class="cls-9" d="M35.46,64.32a6.52,6.52,0,0,0-4.52,1.52,6.57,6.57,0,0,0,4.52,1.51A6.57,6.57,0,0,0,40,65.84,6.52,6.52,0,0,0,35.46,64.32Z"/><g class="cls-10"><path class="cls-11" d="M47.21,89.14a2.18,2.18,0,0,1-.29-1.08V80.44a2.17,2.17,0,1,1,4.33,0v7.62a2.16,2.16,0,0,1-4,1.08Z"/><line class="cls-8" x1="48.3" y1="87.74" x2="48.3" y2="81.86"/><path class="cls-11" d="M39.34,88.31a2.21,2.21,0,0,1-.29-1.08V75.08a2.17,2.17,0,0,1,4.33,0V87.23a2.17,2.17,0,0,1-4,1.08Z"/><line class="cls-8" x1="40.42" y1="86.91" x2="40.42" y2="76.51"/><path class="cls-3" d="M73.69,97.24a3.57,3.57,0,0,1-1.77-.48L36.39,76.25a3.55,3.55,0,1,1,3.55-6.16L75.48,90.6a3.56,3.56,0,0,1-1.79,6.64Z"/><path class="cls-12" d="M73.57,93.42a1.53,1.53,0,0,1-.75-.2l-34-19.65a1.5,1.5,0,1,1,1.5-2.6l34,19.65a1.5,1.5,0,0,1-.75,2.8Z"/><path class="cls-7" d="M75.17,98.09a3.56,3.56,0,0,1-1.77-.47l-37-21.37a3.55,3.55,0,1,1,3.55-6.16L77,91.46a3.55,3.55,0,0,1-1.79,6.63Z"/><path class="cls-13" d="M47.21,89.14a2.18,2.18,0,0,1-.29-1.08V80.44a2.17,2.17,0,1,1,4.33,0v7.62a2.16,2.16,0,0,1-4,1.08Z"/><line class="cls-8" x1="48.3" y1="87.74" x2="48.3" y2="81.86"/><path class="cls-13" d="M39.34,88.31a2.21,2.21,0,0,1-.29-1.08V75.08a2.17,2.17,0,0,1,4.33,0V87.23a2.17,2.17,0,0,1-4,1.08Z"/><line class="cls-8" x1="40.42" y1="86.91" x2="40.42" y2="76.51"/><path class="cls-13" d="M73.69,97.24a3.57,3.57,0,0,1-1.77-.48L36.39,76.25a3.55,3.55,0,1,1,3.55-6.16L75.48,90.6a3.56,3.56,0,0,1-1.79,6.64Z"/><path class="cls-12" d="M73.57,93.42a1.53,1.53,0,0,1-.75-.2l-34-19.65a1.5,1.5,0,1,1,1.5-2.6l34,19.65a1.5,1.5,0,0,1-.75,2.8Z"/><path class="cls-14" d="M75.17,98.09a3.56,3.56,0,0,1-1.77-.47l-37-21.37a3.55,3.55,0,1,1,3.55-6.16L77,91.46a3.55,3.55,0,0,1-1.79,6.63Z"/><path class="cls-12" d="M97.52,101c0-8.7-5.29-18.8-11.81-22.57-3-1.7-5.66-1.81-7.73-.62h0l-5.7,3.29,1.09,1.67a15.71,15.71,0,0,0-.85,5.39c0,8.69,5.29,18.8,11.81,22.56a10.88,10.88,0,0,0,2.79,1.17l.61,1.95,5.71-3.29h0C95.93,109.11,97.52,105.76,97.52,101Z"/><path class="cls-15" d="M97.52,101a30.17,30.17,0,0,0-6.8-18.19A29.25,29.25,0,0,1,94.63,89L84.28,95a13.64,13.64,0,0,1,1.39,5.74c0,4.17-2.54,6.09-5.66,4.28A11.47,11.47,0,0,1,75.73,100l-.33.19c2.17,4.58,5.36,8.53,8.93,10.59a10.88,10.88,0,0,0,2.79,1.17l.61,1.95,5.71-3.29h0C95.93,109.11,97.52,105.76,97.52,101Z"/><path class="cls-13" d="M80,81.73C73.48,78,68.19,82,68.19,90.66s5.29,18.8,11.82,22.57,11.81-.23,11.81-8.93S86.53,85.5,80,81.73Z"/><path class="cls-16" d="M80,105c-3.12-1.8-5.65-6.63-5.65-10.79S76.89,88.15,80,90s5.64,6.63,5.64,10.79S83.12,106.81,80,105Z"/><path class="cls-17" d="M95.66,108.4a6.86,6.86,0,0,0,.47-.79l0,0a11.4,11.4,0,0,0,.66-1.62c0-.16.1-.31.14-.47a16.52,16.52,0,0,0,.57-4.48c0-.35,0-.71,0-1.06a2.83,2.83,0,0,0,0-.29c0-.31,0-.62-.07-.94,0,0,0-.09,0-.14,0-.36-.09-.72-.14-1.07,0-.09,0-.18,0-.27,0-.3-.1-.61-.16-.91a1.77,1.77,0,0,1,0-.2c-.07-.37-.16-.73-.24-1.09l-.06-.21c-.07-.31-.16-.62-.25-.93l-.06-.22c-.1-.37-.22-.73-.34-1.1,0,0,0-.07,0-.11-.11-.33-.23-.66-.35-1,0-.07,0-.14-.08-.2-.28-.73-.58-1.45-.92-2.16L94.6,89c-.34-.72-.71-1.41-1.09-2.09a.75.75,0,0,1-.07-.12c-.4-.69-.82-1.35-1.26-2l0-.06c-.22-.32-.44-.62-.67-.92l0,0c-.24-.32-.48-.63-.73-.92h0a19.09,19.09,0,0,0-5-4.39c-3-1.7-5.66-1.81-7.73-.62h0l-5.7,3.29h0a8.32,8.32,0,0,0-3.64,5.53L39.94,70.09a3.55,3.55,0,1,0-3.55,6.16l2.66,1.54v9.44a2.21,2.21,0,0,0,.29,1.08,2.17,2.17,0,0,0,4-1.08v-7l3.54,2v5.73a2.17,2.17,0,1,0,4.33,0V84.83l17.32,10c1.31,7.54,5.94,15.22,11.44,18.4,2.95,1.7,5.65,1.81,7.72.62h0l5.71-3.29h0A6.7,6.7,0,0,0,95.66,108.4ZM94.63,89Z"/></g><path class="cls-6" d="M57,76.42a2.86,2.86,0,0,0-2.15.42c-2.24,1.29-4.05,4.75-4.05,7.74,0,2,.79,3.22,2,3.49L52,98.49"/><rect class="cls-1" width="120" height="120"/><rect class="cls-1" width="120" height="120"/></g></g></svg>