<svg xmlns="http://www.w3.org/2000/svg" viewBox="0 0 120 120"><defs><style>.cls-1,.cls-5{fill:#98b9ea;}.cls-11,.cls-12,.cls-2{fill:#fff;}.cls-13,.cls-14,.cls-2{stroke:#98b9ea;}.cls-11,.cls-13,.cls-14,.cls-2,.cls-3,.cls-5,.cls-6,.cls-7,.cls-8,.cls-9{stroke-linecap:round;stroke-linejoin:round;stroke-width:2px;}.cls-14,.cls-15,.cls-3,.cls-7,.cls-9{fill:none;}.cls-3,.cls-6{stroke:#436db5;}.cls-4,.cls-6{fill:#436db5;}.cls-11,.cls-5,.cls-7{stroke:#deeaff;}.cls-10,.cls-13,.cls-8{fill:#deeaff;}.cls-8,.cls-9{stroke:#fff;}</style></defs><title>auto-and-truck-manufacturer</title><g id="Layer_2" data-name="Layer 2"><g id="Industries"><polygon class="cls-1" points="15.41 64.85 10.73 67.56 10.73 61.02 15.41 58.31 15.41 64.85"/><polygon class="cls-2" points="10.73 67.56 5.15 64.34 5.15 57.8 10.73 61.02 10.73 67.56"/><polygon class="cls-3" points="10.73 61.02 5.15 57.8 5.15 64.34 10.73 67.56 15.41 64.85 15.41 58.31 10.73 61.02"/><polygon class="cls-1" points="93.15 81.67 88.46 84.38 88.46 77.84 93.15 75.13 93.15 81.67"/><polygon class="cls-2" points="88.46 84.38 55.63 65.43 55.63 58.88 88.46 77.84 88.46 84.38"/><polygon class="cls-3" points="88.46 77.84 55.63 58.88 55.63 65.43 88.46 84.38 93.15 81.67 93.15 75.13 88.46 77.84"/><path class="cls-4" d="M18,76.35,14,68l4.84-2.8h0a4,4,0,0,1,4,.32c3.4,2,6.16,7.23,6.16,11.77,0,2.48-.83,4.22-2.14,5h0L22.1,85.1,18,76.36Z"/><ellipse class="cls-5" cx="18.07" cy="76.56" rx="5.35" ry="9.46" transform="translate(-28.53 13.19) rotate(-23.05)"/><ellipse class="cls-4" cx="18.07" cy="76.56" rx="2.06" ry="3.65" transform="translate(-28.53 13.19) rotate(-23.05)"/><path class="cls-3" d="M29.08,77.32c0-4.54-2.76-9.81-6.16-11.77a4,4,0,0,0-4-.32h0L14,68h0c-1.31.75-2.14,2.49-2.14,5,0,4.54,2.76,9.81,6.16,11.77a4,4,0,0,0,4,.32h0L27,82.3h0C28.25,81.54,29.08,79.8,29.08,77.32Z"/><polygon class="cls-1" points="65.39 93.79 60.7 96.5 60.7 89.95 65.39 87.25 65.39 93.79"/><polygon class="cls-2" points="60.7 96.5 27.87 77.55 27.87 71 60.7 89.95 60.7 96.5"/><polygon class="cls-3" points="60.7 89.95 27.87 71 27.87 77.55 60.7 96.5 65.39 93.79 65.39 87.25 60.7 89.95"/><polygon class="cls-1" points="93.15 75.13 64.16 91.87 64.16 51.8 93.15 35.07 93.15 75.13"/><polygon class="cls-6" points="84.39 77.72 72.92 84.35 72.92 68.49 84.39 61.87 84.39 77.72"/><line class="cls-7" x1="93.15" y1="41.76" x2="64.16" y2="58.49"/><polygon class="cls-8" points="64.16 91.87 5.15 57.8 5.15 17.74 64.16 51.8 64.16 91.87"/><polygon class="cls-1" points="49.74 72.03 19.57 54.6 19.57 37.58 49.74 55 49.74 72.03"/><polygon class="cls-8" points="93.15 35.07 64.16 51.8 5.15 17.74 34.14 1 93.15 35.07"/><polygon class="cls-7" points="78.6 33.69 61.76 43.41 54.72 39.34 71.56 29.62 78.6 33.69"/><polygon class="cls-7" points="43.58 13.46 26.74 23.19 19.7 19.12 36.54 9.4 43.58 13.46"/><polygon class="cls-9" points="7.13 56.66 7.13 18.88 34.14 3.28 91.17 36.21 91.17 73.99 64.16 89.58 7.13 56.66"/><polygon class="cls-9" points="93.15 35.07 64.16 51.8 5.15 17.74 34.14 1 93.15 35.07"/><polygon class="cls-9" points="93.15 75.13 64.16 91.87 64.16 51.8 93.15 35.07 93.15 75.13"/><polygon class="cls-3" points="34.14 1 5.15 17.74 5.15 57.8 64.16 91.87 93.15 75.13 93.15 35.07 34.14 1"/><path class="cls-4" d="M76,109.84l-3.93-8.33,4.84-2.8h0a4,4,0,0,1,4,.32c3.4,2,6.16,7.23,6.16,11.77,0,2.48-.83,4.22-2.13,5h0l-4.84,2.8L76,109.85Z"/><ellipse class="cls-5" cx="76.08" cy="110.05" rx="5.35" ry="9.46" transform="translate(-37.01 38.57) rotate(-23.05)"/><ellipse class="cls-4" cx="76.08" cy="110.05" rx="2.06" ry="3.65" transform="translate(-37.01 38.57) rotate(-23.05)"/><path class="cls-3" d="M87.08,110.81c0-4.54-2.76-9.81-6.16-11.77a4,4,0,0,0-4-.32h0l-4.84,2.8h0c-1.3.75-2.13,2.49-2.13,5,0,4.54,2.76,9.81,6.16,11.77a3.93,3.93,0,0,0,4,.32h0l4.84-2.8h0C86.25,115,87.08,113.29,87.08,110.81Z"/><path class="cls-1" d="M94.43,54.9l10.13,5.85a7.92,7.92,0,0,1,3.72,5l4.54,18.63A7.76,7.76,0,0,1,113,86.2V99.13L88.16,113.49,69.55,69.27Z"/><path class="cls-10" d="M101.43,102.41l8.64-5V86.2a4.55,4.55,0,0,0-.14-1.16l-.59-2.46,1.79-1,.73,3a6.85,6.85,0,0,1,.19,1.63V98a1,1,0,0,1-.49.85l-10.13,5.85"/><path class="cls-11" d="M82.08,99.05l30.09-17.37-3.89-16a1.66,1.66,0,0,1-.06-.21L75.83,84.2Z"/><polygon class="cls-10" points="81.93 98.69 82.13 99.03 112.17 81.68 110.76 75.9 79.85 93.75 81.93 98.69"/><path class="cls-7" d="M82.08,99.05l30.09-17.37-3.89-16a1.66,1.66,0,0,1-.06-.21L75.83,84.2Z"/><path class="cls-12" d="M104.56,60.75,94.43,54.9,69.55,69.27l6.24,11,30.85-17.81A7.85,7.85,0,0,0,104.56,60.75Z"/><path class="cls-10" d="M72.52,74.52V71L94.43,58.33l8.65,5A5.36,5.36,0,0,1,104,64l1.77-1a6.94,6.94,0,0,0-1.7-1.4l-9.15-5.28a1,1,0,0,0-1,0L71,69.55a1,1,0,0,0-.49.86V71Z"/><path class="cls-13" d="M87.94,98.7,83.4,80.08a7.86,7.86,0,0,0-3.72-5L69.55,69.27v33.48l1,.56c1-2.19,3.1-2.89,5.56-1.48s4.56,4.56,5.55,7.9l6.53,3.76V100.57A7.84,7.84,0,0,0,87.94,98.7Z"/><path class="cls-12" d="M70.54,70.41v31.2a1,1,0,0,0,.49.85,3.19,3.19,0,0,1,1.78-1.25l-.29-.17V71l-.64-.37-1.21-.7A1,1,0,0,0,70.54,70.41Z"/><path class="cls-12" d="M79.34,105a16.18,16.18,0,0,1,1.79,3.31l6.54,3.78a1,1,0,0,0,.49.13h0v-2.13h0Z"/><path class="cls-14" d="M87.94,98.7,83.4,80.08a7.86,7.86,0,0,0-3.72-5L69.55,69.27v33.48l1,.56c1-2.19,3.1-2.89,5.56-1.48s4.56,4.56,5.55,7.9l6.53,3.76V100.57A7.84,7.84,0,0,0,87.94,98.7Z"/><polygon class="cls-8" points="88.16 108.16 88.16 113.49 113.04 101.11 113.04 93.8 88.16 108.16"/><polygon class="cls-1" points="89.97 109.2 89.97 114.54 114.85 100.17 114.85 94.84 89.97 109.2"/><line class="cls-7" x1="95.46" y1="106.03" x2="95.46" y2="111.15"/><line class="cls-7" x1="109.46" y1="97.95" x2="109.46" y2="103.07"/><polygon class="cls-11" points="113.04 93.8 114.85 94.84 89.97 109.2 88.16 108.16 113.04 93.8"/><polygon class="cls-11" points="88.16 113.49 89.97 114.54 89.97 109.2 88.16 108.16 88.16 113.49"/><polygon class="cls-3" points="113.04 93.8 88.16 108.16 88.16 113.49 89.97 114.54 114.85 100.17 114.85 94.84 113.04 93.8"/><line class="cls-7" x1="96.34" y1="97.82" x2="105.48" y2="92.54"/><path class="cls-3" d="M113,93.8V86.2a7.76,7.76,0,0,0-.22-1.86l-.65-2.66h0l-3.89-16a1.66,1.66,0,0,1-.06-.21h0a7.93,7.93,0,0,0-2.52-3.93l-.06-.06a8.08,8.08,0,0,0-1.08-.76L94.43,54.9,69.55,69.27v33.48l1,.56a5.14,5.14,0,0,1,.51-.86,3.75,3.75,0,0,1,.66-.66l.23-.18.3-.17.32-.13a1.48,1.48,0,0,1,.27-.1h0a4.34,4.34,0,0,1,3.27.62A10.9,10.9,0,0,1,79.34,105a15.09,15.09,0,0,1,.93,1.5l.11.21c.27.52.53,1,.75,1.6a14.41,14.41,0,0,1,.5,1.44l6.53,3.76L90,114.54l24.88-14.37V94.84Z"/><line class="cls-14" x1="78.86" y1="95.16" x2="81.42" y2="96.64"/><line class="cls-9" x1="74.6" y1="86.26" x2="81.53" y2="90.25"/><rect class="cls-15" width="120" height="120"/><rect class="cls-15" width="120" height="120"/></g></g></svg>