<svg xmlns="http://www.w3.org/2000/svg" viewBox="0 0 120 120"><defs><style>.cls-1,.cls-4{fill:#c4d36c;}.cls-1,.cls-5{stroke:#a7b23b;}.cls-1,.cls-10,.cls-11,.cls-13,.cls-2,.cls-5,.cls-6,.cls-7{stroke-linecap:round;stroke-linejoin:round;stroke-width:2px;}.cls-2,.cls-7{fill:#fff;}.cls-2{stroke:#c4d36c;}.cls-3{fill:#dfeab0;}.cls-10,.cls-13,.cls-14,.cls-5{fill:none;}.cls-12,.cls-6,.cls-9{fill:#98b9ea;}.cls-10,.cls-11,.cls-6{stroke:#436db5;}.cls-13,.cls-7{stroke:#98b9ea;}.cls-11,.cls-8{fill:#deeaff;}.cls-12{stroke:#9bb9e1;stroke-miterlimit:10;}</style></defs><title>best_practive_guide(1x1)</title><g id="Layer_2" data-name="Layer 2"><g id="Objects"><g id="best_practive_guide_1x1_" data-name="best_practive_guide(1x1)"><path class="cls-1" d="M69.78,105.34a4.75,4.75,0,0,1-5-.13L3.4,69.88a4.74,4.74,0,0,0,4.79,0L57.41,41.55l-.06,0L118.94,77l.06,0L69.78,105.34"/><path class="cls-2" d="M114.64,63.8,54.47,37.88l.06,0L4.61,66.6c-1.62.93,1.26,3.52,1.26,3.52L62,102.42a4.83,4.83,0,0,0,5.07.13l48.09-27.69C111.86,73.46,111.12,68.43,114.64,63.8Z"/><path class="cls-3" d="M64.79,105.21a4.76,4.76,0,0,1-2.2-4h0A12.83,12.83,0,0,1,69,90.07l49.91-28.74L57.33,25.89,7.42,54.63A12.81,12.81,0,0,0,1,65.73H1a4.74,4.74,0,0,0,2.31,4.1Z"/><path class="cls-4" d="M5.2,56.24A12.84,12.84,0,0,0,1,65.73H1a4.74,4.74,0,0,0,2.31,4.1l61.48,35.38a4.76,4.76,0,0,1-2.2-4h0a12.85,12.85,0,0,1,4.19-9.48"/><path class="cls-5" d="M64.79,105.21a4.76,4.76,0,0,1-2.2-4h0A12.83,12.83,0,0,1,69,90.07l49.91-28.74L57.33,25.89,7.42,54.63A12.81,12.81,0,0,0,1,65.73H1a4.74,4.74,0,0,0,2.31,4.1Z"/><path class="cls-5" d="M114.64,63.8c-3.52,4.63-2.74,9.67.57,11.08L118.94,77"/><path class="cls-6" d="M14.39,50.91a4,4,0,0,0,4,0L59.67,27.15l0,0L111.27,56.9l0,0L70.05,80.64a4,4,0,0,1-4.19-.11Z"/><path class="cls-7" d="M107.67,45.81,57.21,24.08l0,0L15.4,48.15c-1.36.79,1.06,3,1.06,3L63.54,78.19a4.05,4.05,0,0,0,4.25.11l40.32-23.21C105.34,53.91,104.71,49.69,107.67,45.81Z"/><path class="cls-8" d="M65.86,80.53A4,4,0,0,1,64,77.15h0a10.76,10.76,0,0,1,5.39-9.31l41.85-24.1L59.61,14,17.76,38.12a10.74,10.74,0,0,0-5.38,9.31h0a4,4,0,0,0,1.94,3.44Z"/><path class="cls-9" d="M15.9,39.47a10.73,10.73,0,0,0-3.52,8h0a4,4,0,0,0,1.94,3.44L65.86,80.53A4,4,0,0,1,64,77.15h0a10.78,10.78,0,0,1,3.52-8"/><path class="cls-10" d="M65.86,80.53A4,4,0,0,1,64,77.15h0a10.76,10.76,0,0,1,5.39-9.31l41.85-24.1L59.61,14,17.76,38.12a10.74,10.74,0,0,0-5.38,9.31h0a4,4,0,0,0,1.94,3.44Z"/><path class="cls-10" d="M107.67,45.81c-3,3.88-2.3,8.11.47,9.29l3.13,1.8"/><path class="cls-7" d="M74.42,34.87a8.72,8.72,0,0,0-6.36-.59c-.71-1.26-2.77-2.18-5.21-2.18s-4.49.92-5.21,2.18a8.7,8.7,0,0,0-6.35.59c-1.72,1-2.06,2.48-1,3.67-2.2.41-3.78,1.6-3.78,3s1.58,2.59,3.78,3c-1.05,1.19-.71,2.68,1,3.67a8.7,8.7,0,0,0,6.35.59c.72,1.26,2.78,2.18,5.21,2.18s4.5-.92,5.21-2.18a8.72,8.72,0,0,0,6.36-.59c1.72-1,2-2.48,1-3.67,2.19-.41,3.78-1.6,3.78-3s-1.59-2.6-3.78-3C76.47,37.35,76.14,35.86,74.42,34.87Z"/><path class="cls-5" d="M60.82,44.23l2.89.3c.34-2.14,1.18-6.68,1.18-6.68"/><path class="cls-9" d="M107.46,73.19l-8.24,4.88a6.9,6.9,0,0,1,2.88,5.5V94l4.49-6,3.75,1.1V78.69A6.88,6.88,0,0,0,107.46,73.19Z"/><path class="cls-11" d="M99.22,78.07a6.9,6.9,0,0,1,2.88,5.5V94l4.49-6,3.75,1.1V78.69a6.88,6.88,0,0,0-2.88-5.5"/><path class="cls-12" d="M107.46,73.19l-3.7,2.19a6.91,6.91,0,0,1,2.83,5.47V88l3.75,1.1V78.69A6.88,6.88,0,0,0,107.46,73.19Z"/><line class="cls-13" x1="107.46" y1="73.19" x2="99.22" y2="78.07"/><path class="cls-10" d="M99.22,78.07a6.9,6.9,0,0,1,2.88,5.5V94l4.49-6,3.75,1.1V78.69a6.88,6.88,0,0,0-2.88-5.5"/><rect class="cls-14" width="120" height="120"/><rect class="cls-14" width="120" height="120"/></g></g></g></svg>