<svg xmlns="http://www.w3.org/2000/svg" viewBox="0 0 120 120"><defs><style>.cls-1{fill:#98b9ea;}.cls-2{fill:#436db5;}.cls-3{fill:#deeaff;}.cls-4{fill:#fff;stroke:#98b9ea;}.cls-4,.cls-5{stroke-linecap:round;stroke-linejoin:round;stroke-width:2px;}.cls-5,.cls-6{fill:none;}.cls-5{stroke:#436db5;}</style></defs><title>bezel</title><g id="Layer_2" data-name="Layer 2"><g id="Tech_Concepts" data-name="Tech Concepts"><path class="cls-1" d="M64.59,102.66,115,73.58a3.24,3.24,0,0,0,1.9-2.66V49.08H85.17L64.59,37.19A9.41,9.41,0,0,0,60,36.1v67.65A9.41,9.41,0,0,0,64.59,102.66Z"/><path class="cls-2" d="M102.34,72.26,78.25,86.17a4.69,4.69,0,0,0-2,3.74v5.72l28-16.16V73.74C104.29,72.3,103.42,71.64,102.34,72.26Z"/><path class="cls-3" d="M60,36.1a9.41,9.41,0,0,0-4.59,1.09L34.83,49.08H3.14V70.92A3.24,3.24,0,0,0,5,73.58l50.37,29.08A9.41,9.41,0,0,0,60,103.75"/><path class="cls-1" d="M52.7,88.41a7.54,7.54,0,0,1-3.1-3.13,8.63,8.63,0,0,0-3.1-3.5L16.7,64.57a2.7,2.7,0,0,0-3.1-.08c-.79.6-1.89.26-3.1-.44L3.14,59.8v4.14l7.36,4.25a7.56,7.56,0,0,1,3.1,3.14,8.69,8.69,0,0,0,3.1,3.5L46.5,92a2.7,2.7,0,0,0,3.1.08c.79-.6,1.89-.26,3.1.44l7.56,4.37V92.78Z"/><path class="cls-4" d="M115,46.43,64.59,17.34a10.17,10.17,0,0,0-9.18,0L5,46.43c-2.53,1.46-2.53,3.83,0,5.3L55.41,80.81a10.17,10.17,0,0,0,9.18,0L115,51.73C117.49,50.26,117.49,47.89,115,46.43Z"/><path class="cls-5" d="M115,46.43,64.59,17.34a10.17,10.17,0,0,0-9.18,0L5,46.43a3.22,3.22,0,0,0-1.9,2.65V70.92A3.24,3.24,0,0,0,5,73.58l50.37,29.08a10.21,10.21,0,0,0,9.18,0L115,73.58a3.24,3.24,0,0,0,1.9-2.66V49.08A3.22,3.22,0,0,0,115,46.43Z"/><ellipse class="cls-3" cx="46.43" cy="86.9" rx="0.87" ry="1.54" transform="translate(-30.32 25.12) rotate(-23.05)"/><ellipse class="cls-3" cx="104.12" cy="49.08" rx="2.58" ry="1.49"/><ellipse class="cls-3" cx="60.26" cy="74.4" rx="2.58" ry="1.49"/><ellipse class="cls-3" cx="60.26" cy="23.75" rx="2.58" ry="1.49"/><ellipse class="cls-3" cx="16.4" cy="49.08" rx="2.58" ry="1.49"/><path class="cls-3" d="M41.25,48.09a1,1,0,0,0-.41.11L35,51.59c-.19.11-.27.27-.18.41a.82.82,0,0,0,.68.25l19.72-1c.44,0,.8.19.77.45L54.35,63.13c0,.13.08.28.28.36a1,1,0,0,0,.84-.05l5.65-3.26a.35.35,0,0,0,.19-.23l1.85-12.38v-.12c0-.19-.24-.35-.57-.34h-.22Z"/><path class="cls-3" d="M66.27,47.28c0-.2.3-.35.64-.37L84,46a.93.93,0,0,1,.62.16c.19.15.15.36-.07.49L78.93,49.9a.78.78,0,0,1-.41.11l-11.9.7c-.44,0-.81-.18-.77-.44Z"/><path class="cls-3" d="M62.84,45.34c.35,0,.62-.17.65-.37L65.23,35a.37.37,0,0,0-.27-.36,1,1,0,0,0-.85.05L58.46,38a.35.35,0,0,0-.19.23l-1.09,6.89c0,.26.33.47.76.45Z"/><rect class="cls-6" width="120" height="120"/><rect class="cls-6" width="120" height="120"/></g></g></svg>