<svg xmlns="http://www.w3.org/2000/svg" viewBox="0 0 120 120"><defs><style>.cls-1,.cls-10,.cls-2,.cls-6,.cls-8{fill:none;}.cls-1,.cls-2{stroke:#a7b23b;}.cls-1,.cls-2,.cls-3,.cls-4,.cls-5,.cls-6,.cls-7,.cls-8,.cls-9{stroke-linecap:round;stroke-linejoin:round;stroke-width:2px;}.cls-2,.cls-8{stroke-dasharray:0 6.46;}.cls-3{fill:#deeaff;}.cls-3,.cls-4,.cls-5{stroke:#98b9ea;}.cls-4{fill:#98b9ea;}.cls-5,.cls-9{fill:#fff;}.cls-6,.cls-8{stroke:#436db5;}.cls-7{fill:#dfeab0;}.cls-7,.cls-9{stroke:#c4d36c;}</style></defs><title>big-data-2</title><g id="Layer_2" data-name="Layer 2"><g id="Tech_Concepts" data-name="Tech Concepts"><line class="cls-1" x1="105.14" y1="38.3" x2="105.14" y2="38.3"/><line class="cls-2" x1="105.14" y1="44.76" x2="105.14" y2="73.85"/><line class="cls-1" x1="105.14" y1="77.09" x2="105.14" y2="77.09"/><path class="cls-3" d="M14.85,77.09v11.7c0,14.39,20.22,26.06,45.15,26.06s45.14-11.67,45.14-26.06V77.09Z"/><path class="cls-4" d="M95.62,104.8c8.08-6,9.52-12.17,9.52-16V78.46L95.62,93.1Z"/><path class="cls-5" d="M85.64,55.64A69.87,69.87,0,0,0,60,51C35.07,51,14.85,62.69,14.85,77.09S35.07,103.15,60,103.15s45.14-11.67,45.14-26.06H60Z"/><path class="cls-3" d="M60,77.09l35.62,16c8-5.84,9.52-12.07,9.52-16H60Z"/><polygon class="cls-4" points="85.64 67.34 73.98 77.09 60 77.09 85.64 55.64 85.64 67.34"/><path class="cls-6" d="M105.14,77.09H74l11.66-9.75V55.64A69.87,69.87,0,0,0,60,51C35.07,51,14.85,62.69,14.85,77.09h0v11.7c0,14.39,20.22,26.06,45.15,26.06,14.48,0,27.36-3.94,35.62-10.06h0l.23-.18.87-.69.49-.39.71-.62.58-.53.39-.38c.27-.26.54-.52.78-.78l.07-.08a19.49,19.49,0,0,0,4.87-8.37.64.64,0,0,1,0-.07c.1-.39.18-.77.25-1.14l0-.19c.07-.41.13-.81.16-1.19a1.09,1.09,0,0,0,0-.18c0-.42.06-.84.06-1.22V78.46h0V77.1Z"/><polygon class="cls-7" points="105.14 26.17 105.14 37.87 60 38.3 60 26.6 105.14 26.17"/><line class="cls-6" x1="73.98" y1="77.09" x2="60" y2="77.09"/><line class="cls-6" x1="85.64" y1="55.64" x2="60" y2="77.09"/><line class="cls-6" x1="60" y1="38.3" x2="60" y2="38.3"/><line class="cls-8" x1="60" y1="44.76" x2="60" y2="73.85"/><line class="cls-6" x1="60" y1="77.09" x2="60" y2="77.09"/><path class="cls-9" d="M85.64,5.15,60,26.6h45.14C105.45,16.55,94.67,8.55,85.64,5.15Z"/><path class="cls-1" d="M105.15,26.17h0c0-9.85-10.6-17.67-19.5-21L60,26.6V38.3h45.14v-.43h0Z"/><rect class="cls-10" width="120" height="120"/><rect class="cls-10" width="120" height="120"/></g></g></svg>