<svg xmlns="http://www.w3.org/2000/svg" viewBox="0 0 120 120"><defs><style>.cls-1,.cls-10,.cls-11,.cls-13,.cls-14,.cls-2,.cls-3,.cls-4,.cls-9{fill:none;}.cls-1,.cls-2{stroke:#436db5;}.cls-1,.cls-10,.cls-11,.cls-12,.cls-13,.cls-2,.cls-3,.cls-4,.cls-5,.cls-7,.cls-9{stroke-linecap:round;stroke-linejoin:round;stroke-width:2px;}.cls-2{stroke-dasharray:0 6.17;}.cls-3,.cls-4{stroke:#a7b23b;}.cls-4{stroke-dasharray:0 5.74;}.cls-5{fill:#deeaff;}.cls-10,.cls-5{stroke:#98b9ea;}.cls-6{fill:#98b9ea;}.cls-7{fill:#dfeab0;}.cls-7,.cls-9{stroke:#c4d36c;}.cls-8{fill:#fff;}.cls-11{stroke:#fff;}.cls-12{fill:#c4d36c;}.cls-12,.cls-13{stroke:#dfeab0;}</style></defs><title>broadcast-and-cable</title><g id="Layer_2" data-name="Layer 2"><g id="Industries"><line class="cls-1" x1="20.57" y1="60.18" x2="20.57" y2="60.18"/><line class="cls-2" x1="23.32" y1="65.71" x2="41.16" y2="101.65"/><line class="cls-1" x1="42.54" y1="104.42" x2="42.54" y2="104.42"/><line class="cls-3" x1="49.55" y1="18.45" x2="49.55" y2="18.45"/><line class="cls-4" x1="55.29" y1="18.43" x2="104.11" y2="18.2"/><line class="cls-3" x1="106.98" y1="18.19" x2="106.98" y2="18.19"/><path class="cls-5" d="M97.1,102.64,81.25,111.8a6.17,6.17,0,0,1-6.23-.33l-9-7.56L83.44,93.85l13.09,5.2C98.62,99.88,98.9,101.61,97.1,102.64Z"/><path class="cls-6" d="M83.44,93.85,66,103.91l5.24,4.39a6.26,6.26,0,0,0,2-.72L91.48,97Z"/><path class="cls-1" d="M97.1,102.64,81.25,111.8a6.17,6.17,0,0,1-6.23-.33l-9-7.56L83.44,93.85l13.09,5.2C98.62,99.88,98.9,101.61,97.1,102.64Z"/><path class="cls-7" d="M28,8.63h0a.34.34,0,0,0-.32,0L1.51,23.79a1.21,1.21,0,0,0-.51,1V45.29a.42.42,0,0,0,.18.4h0l17.19,9.93L45.23,18.56Z"/><path class="cls-8" d="M28,8.64a.34.34,0,0,0-.32,0L1.51,23.79h0L29.66,40.06l15.57-21.5L28,8.63Z"/><path class="cls-9" d="M28,8.63h0a.34.34,0,0,0-.32,0L1.51,23.79a1.21,1.21,0,0,0-.51,1V45.29a.42.42,0,0,0,.18.4h0l17.19,9.93L45.23,18.56Z"/><path class="cls-5" d="M118.56,21l-4.62-2.67h0a.81.81,0,0,0-.83.06l-66,38.1a3.08,3.08,0,0,0-1.28,2.46v51.71a1.1,1.1,0,0,0,.45,1h0l4.62,2.67,6.65-10L112,72.89a3.08,3.08,0,0,0,1.29-2.45V27.12Z"/><path class="cls-8" d="M91.7,84.19l21.63-37.45V27.12L118.56,21l-4.62-2.67h0a.81.81,0,0,0-.83.06l-66,38.1A2.85,2.85,0,0,0,46,57.83Z"/><path class="cls-10" d="M118.56,21l-4.62-2.67h0a.81.81,0,0,0-.83.06l-66,38.1a3.08,3.08,0,0,0-1.28,2.46v51.71a1.1,1.1,0,0,0,.45,1h0l4.62,2.67,6.65-10L112,72.89a3.08,3.08,0,0,0,1.29-2.45V27.12Z"/><path class="cls-5" d="M117.71,76.17l-66,38.1c-.71.41-1.29,0-1.29-1V61.58a3.08,3.08,0,0,1,1.29-2.45l66-38.1c.71-.41,1.29,0,1.29,1V73.71A3.08,3.08,0,0,1,117.71,76.17Z"/><path class="cls-11" d="M52.46,61.58a1.27,1.27,0,0,1,.32-.73L117,23.79V73.71a1.21,1.21,0,0,1-.32.74l-64.2,37.06Z"/><path class="cls-8" d="M51.73,59.13a3.08,3.08,0,0,0-1.29,2.45V113.3c0,.94.58,1.38,1.29,1L60.84,109,108.6,26.29Z"/><path class="cls-10" d="M117.71,76.17l-66,38.1c-.71.41-1.29,0-1.29-1V61.58a3.08,3.08,0,0,1,1.29-2.45l66-38.1c.71-.41,1.29,0,1.29,1V73.71A3.08,3.08,0,0,1,117.71,76.17Z"/><path class="cls-1" d="M118.55,21h0l-4.62-2.67h0a.81.81,0,0,0-.83.06l-66,38.1h0a2,2,0,0,0-.29.22l-.09.09-.19.2-.08.11a2.13,2.13,0,0,0-.16.25l-.07.11c-.07.13-.13.26-.19.39h0a3.24,3.24,0,0,0-.21,1.09v51.71a1.1,1.1,0,0,0,.45,1h0l4.62,2.67h0l.12.06a.78.78,0,0,0,.22,0,1.05,1.05,0,0,0,.5-.15L60.84,109h0l56.87-32.84a2.12,2.12,0,0,0,.72-.71,3.17,3.17,0,0,0,.57-1.75h0V22A1.12,1.12,0,0,0,118.55,21Z"/><path class="cls-12" d="M44.9,40.48,18.7,55.6c-.28.16-.51,0-.51-.38V34.69a1.23,1.23,0,0,1,.51-1L44.9,18.59c.28-.16.51,0,.51.38V39.5A1.23,1.23,0,0,1,44.9,40.48Z"/><path class="cls-13" d="M31.8,42.31V26.83a.42.42,0,0,0-.18-.4h0L18.22,18.68h0"/><path class="cls-3" d="M45.23,18.57h0L28,8.63h0a.4.4,0,0,0-.15,0,.41.41,0,0,0-.17.05L1.51,23.79h0a1.21,1.21,0,0,0-.5,1V45.29a.42.42,0,0,0,.18.4h0l17.19,9.93h0a.31.31,0,0,0,.32,0L44.9,40.48a1.23,1.23,0,0,0,.51-1V19A.43.43,0,0,0,45.23,18.57Z"/><line class="cls-3" x1="18.19" y1="18.68" x2="18.19" y2="7.6"/><line class="cls-3" x1="14.7" y1="9.62" x2="21.69" y2="5.58"/><rect class="cls-14" width="120" height="120"/><rect class="cls-14" width="120" height="120"/></g></g></svg>