<svg xmlns="http://www.w3.org/2000/svg" viewBox="0 0 120 120"><defs><style>.cls-1{fill:#c4d36c;}.cls-2{fill:#dfeab0;}.cls-3,.cls-7,.cls-9{fill:#fff;}.cls-3,.cls-4{stroke:#c4d36c;}.cls-10,.cls-12,.cls-13,.cls-3,.cls-4,.cls-5,.cls-6,.cls-7,.cls-8{stroke-linecap:round;stroke-linejoin:round;stroke-width:2px;}.cls-10,.cls-13,.cls-14,.cls-4,.cls-5,.cls-6{fill:none;}.cls-5{stroke:#dfeab0;}.cls-6{stroke:#a7b23b;}.cls-10,.cls-12,.cls-7,.cls-8{stroke:#98b9ea;}.cls-8{fill:#deeaff;}.cls-11,.cls-12{fill:#98b9ea;}.cls-13{stroke:#436db5;}</style></defs><title>business-products-and-supplies</title><g id="Layer_2" data-name="Layer 2"><g id="Industries"><polygon class="cls-1" points="91.83 41.34 91.83 49.94 56.62 70.27 56.62 61.67 91.83 41.34"/><polygon class="cls-2" points="19.45 40.21 19.45 48.81 56.62 70.27 56.62 61.67 19.45 40.21"/><polygon class="cls-3" points="56.62 61.67 19.45 40.21 54.65 19.88 91.83 41.34 56.62 61.67"/><polygon class="cls-2" points="49.63 57.64 84.84 37.31 59.08 22.44 23.87 42.77 49.63 57.64"/><polygon class="cls-4" points="56.62 61.67 19.45 40.21 54.65 19.88 91.83 41.34 56.62 61.67"/><polyline class="cls-4" points="19.45 46.81 56.62 68.27 91.83 47.94"/><polyline class="cls-5" points="19.45 42.31 56.62 63.77 91.83 43.44"/><polygon class="cls-6" points="54.65 19.88 19.45 40.21 19.45 48.81 56.62 70.27 91.83 49.94 91.83 41.34 54.65 19.88"/><path class="cls-3" d="M69,28.16a28.17,28.17,0,0,0,18.8,3.2L52.59,51.69a28.24,28.24,0,0,1-18.8-3.2l-3.29-1.9-11-6.38,35.2-20.33,9.9,5.72Z"/><polygon class="cls-2" points="62.06 24.16 54.65 19.88 19.45 40.21 26.85 44.49 62.06 24.16"/><path class="cls-6" d="M69,28.16a28.17,28.17,0,0,0,18.8,3.2L52.59,51.69a28.24,28.24,0,0,1-18.8-3.2l-3.29-1.9-11-6.38,35.2-20.33,9.9,5.72Z"/><polygon class="cls-7" points="10.19 67.16 1 57.49 13.45 60.09 10.19 67.16"/><path class="cls-8" d="M70.51,93.07,14.1,60.51a1.52,1.52,0,0,0-2-.12A6.16,6.16,0,0,0,9.56,65.3c0,1.25.51,2,1.25,2.2L66.65,99.74Z"/><path class="cls-9" d="M10.2,62.69a5.37,5.37,0,0,1,1.93-2.3,1.52,1.52,0,0,1,2,.12L70.51,93.07,68.59,96.4Z"/><path class="cls-10" d="M70.51,93.07,14.1,60.51a1.52,1.52,0,0,0-2-.12A6.16,6.16,0,0,0,9.56,65.3c0,1.25.51,2,1.25,2.2L66.65,99.74Z"/><path class="cls-8" d="M70.51,93.07l-6.39-3.69a1.53,1.53,0,0,0-2-.11,6.16,6.16,0,0,0-2.57,4.91c0,1.24.5,2,1.25,2.2l5.82,3.36Z"/><path class="cls-11" d="M60.22,91.57a6.31,6.31,0,0,0-.64,2.61c0,1.24.5,2,1.25,2.2l5.82,3.36,1.94-3.34Z"/><ellipse class="cls-12" cx="68.54" cy="96.38" rx="3.94" ry="2.23" transform="translate(-46.99 121.71) rotate(-66.95)"/><path class="cls-13" d="M70.51,93.07h0a1.33,1.33,0,0,0-.65-.37l-5.75-3.32a1.22,1.22,0,0,0-.57-.33L14.1,60.51a1.52,1.52,0,0,0-.39-.29,1.43,1.43,0,0,0-.28-.07l0-.06L1,57.49l9.19,9.67v0a1.32,1.32,0,0,0,.61.36L60.23,96a1.29,1.29,0,0,0,.6.34l5.74,3.32a1.52,1.52,0,0,0,2,.11,6.16,6.16,0,0,0,2.57-4.91A2.57,2.57,0,0,0,70.51,93.07Z"/><path class="cls-7" d="M117.8,63.76l-12.54-7.24h0a2.24,2.24,0,0,0-2.28.18l-2.58,1.5v9.29L103,66a5.87,5.87,0,0,0,1.43-1.24L116,69.35Z"/><path class="cls-8" d="M112.93,74.73l2.59-1.5c1.92-1.11,3.48-4.09,3.48-6.66s-1.56-3.74-3.48-2.63l-2.59,1.49Z"/><path class="cls-13" d="M117.79,63.76h0l-12.54-7.24h0a2.24,2.24,0,0,0-2.28.18l-2.58,1.5v9.29L103,66a5.87,5.87,0,0,0,1.43-1.24l8.52,3.38v6.58l2.59-1.49c1.92-1.11,3.48-4.09,3.48-6.66A3.08,3.08,0,0,0,117.79,63.76Z"/><polygon class="cls-8" points="91.1 78.03 78.57 70.8 100.39 58.2 112.93 65.43 91.1 78.03"/><polygon class="cls-9" points="92.47 72.31 88.49 70.01 99.03 63.92 103.01 66.22 92.47 72.31"/><polygon class="cls-12" points="112.93 65.43 112.93 74.72 91.1 87.33 91.1 78.03 112.93 65.43"/><polygon class="cls-13" points="100.39 58.2 78.57 70.8 91.1 78.03 91.1 87.33 112.93 74.72 112.93 65.43 100.39 58.2"/><path class="cls-7" d="M78.57,70.8,76,72.29C74.06,73.4,72.5,76.38,72.5,79a3.09,3.09,0,0,0,1.2,2.81h0L86.23,89h0a2.22,2.22,0,0,0,2.27-.18l2.59-1.49V78Z"/><path class="cls-8" d="M91.1,78l-2.59,1.5C86.59,80.64,85,83.62,85,86.19s1.56,3.74,3.48,2.63l2.59-1.49Z"/><path class="cls-13" d="M78.57,70.8,76,72.29C74.06,73.4,72.5,76.38,72.5,79a3.09,3.09,0,0,0,1.2,2.81h0L86.23,89h0a2.22,2.22,0,0,0,2.27-.18l2.59-1.49V78Z"/><rect class="cls-14" width="120" height="120"/><rect class="cls-14" width="120" height="120"/></g></g></svg>