<svg xmlns="http://www.w3.org/2000/svg" viewBox="0 0 120 120"><defs><style>.cls-1,.cls-15,.cls-6{fill:#fff;}.cls-1{stroke:#98b9ea;}.cls-1,.cls-12,.cls-14,.cls-3,.cls-4,.cls-5,.cls-8,.cls-9{stroke-linecap:round;stroke-linejoin:round;stroke-width:2px;}.cls-2{fill:#deeaff;}.cls-3,.cls-7{fill:#98b9ea;}.cls-3,.cls-4,.cls-5{stroke:#436db5;}.cls-12,.cls-13,.cls-4,.cls-9{fill:none;}.cls-5{fill:#436db5;}.cls-10,.cls-8{fill:#dfeab0;}.cls-8{stroke:#c4d36c;}.cls-9{stroke:#a7b23b;}.cls-11,.cls-14{fill:#c4d36c;}.cls-12,.cls-14,.cls-15{stroke:#fff;}.cls-15{stroke-miterlimit:10;}</style></defs><title>business-critical</title><g id="Layer_2" data-name="Layer 2"><g id="New_Icon_Set" data-name="New Icon Set"><path class="cls-1" d="M78.4,8.42l-6.86-4h0a.62.62,0,0,0-.65,0L13.16,37.85a2.38,2.38,0,0,0-1,1.9v56a.88.88,0,0,0,.35.8h0l6.86,4L25.14,89.6,70.89,58.69a2.4,2.4,0,0,0,1-1.91V17.11Z"/><path class="cls-2" d="M19,100.34V34.46l-5.86,3.39a2.38,2.38,0,0,0-1,1.9v56a.88.88,0,0,0,.35.8h0Z"/><path class="cls-3" d="M51,70.17,70.89,58.69a2.4,2.4,0,0,0,1-1.91V17.11L78.4,8.42l-6.86-4h0a.62.62,0,0,0-.65,0L13.16,37.85a2.38,2.38,0,0,0-1,1.9v8Z"/><path class="cls-2" d="M52.86,63.25l19-26.56V17.11L78.4,8.42l-6.86-4h0a.62.62,0,0,0-.65,0L13.16,37.85a2.38,2.38,0,0,0-1,1.9h0Z"/><path class="cls-1" d="M77.75,67.15,20,100.48c-.55.32-1,0-1-.75v-56a2.39,2.39,0,0,1,1-1.9L77.75,8.48c.55-.32,1,0,1,.75v56A2.39,2.39,0,0,1,77.75,67.15Z"/><path class="cls-4" d="M78.4,8.43h0l-6.86-4h0a.62.62,0,0,0-.65,0L13.16,37.85a2.38,2.38,0,0,0-1,1.9v56a.88.88,0,0,0,.35.8h0l6.86,4h0a.62.62,0,0,0,.65,0L77.75,67.15a2.39,2.39,0,0,0,1-1.9v-56A.88.88,0,0,0,78.4,8.43Z"/><path class="cls-5" d="M78.75,17.22v-8c0-.73-.45-1.07-1-.75L20,41.81a2.39,2.39,0,0,0-1,1.9v8Z"/><ellipse class="cls-2" cx="28.16" cy="41.99" rx="1.73" ry="0.98" transform="translate(-21.51 51.46) rotate(-66.95)"/><ellipse class="cls-6" cx="32.5" cy="39.49" rx="1.73" ry="0.98" transform="translate(-16.56 53.93) rotate(-66.95)"/><ellipse class="cls-7" cx="23.65" cy="44.6" rx="1.73" ry="0.98" transform="translate(-26.65 48.9) rotate(-66.95)"/><path class="cls-8" d="M48.64,71.47h0a29.7,29.7,0,0,0,3.51-13.34c0-8.84-5.37-12.9-12-9.07v16Z"/><ellipse class="cls-9" cx="40.16" cy="65.06" rx="18.42" ry="10.42" transform="translate(-35.43 76.54) rotate(-66.95)"/><ellipse class="cls-9" cx="40.16" cy="65.06" rx="18.42" ry="10.42" transform="translate(-35.43 76.54) rotate(-66.95)"/><line class="cls-1" x1="60.16" y1="53.51" x2="70.37" y2="47.62"/><line class="cls-1" x1="60.16" y1="60.51" x2="70.37" y2="54.62"/><line class="cls-1" x1="60.16" y1="67.51" x2="70.37" y2="61.62"/><path class="cls-10" d="M102.87,88.26l-.24-.15c-6.95-4-18.21-4-25.16,0l-.24.15h-5v5.93c0,2.63,1.73,5.26,5.21,7.26,7,4,18.21,4,25.16,0,3.47-2,5.21-4.63,5.21-7.26V88.26Z"/><path class="cls-11" d="M102.63,101.45c3.47-2,5.21-4.63,5.21-7.26V88.26h-5l-.24-.15a25.8,25.8,0,0,0-12.58-3v19.36A25.69,25.69,0,0,0,102.63,101.45Z"/><ellipse class="cls-10" cx="90.05" cy="88.26" rx="17.79" ry="10.27"/><ellipse class="cls-12" cx="90.05" cy="88.26" rx="17.79" ry="10.27"/><ellipse class="cls-13" cx="90.05" cy="94.19" rx="17.79" ry="10.27"/><path class="cls-9" d="M107.84,94.19V88.26h0c0-2.63-1.74-5.26-5.21-7.27-6.95-4-18.21-4-25.16,0-3.48,2-5.21,4.64-5.21,7.27h0v5.93c0,2.63,1.73,5.26,5.21,7.26a25.64,25.64,0,0,0,12.58,3c.57,0,1.14,0,1.7,0a30.82,30.82,0,0,0,3.36-.37c.55-.1,1.1-.21,1.63-.33a21.85,21.85,0,0,0,5.89-2.26,11.1,11.1,0,0,0,4.48-4.34A6.47,6.47,0,0,0,107.84,94.19Z"/><path class="cls-11" d="M96.93,91.13l1.89,1.09-1.68,1-1.83-1.06a14.45,14.45,0,0,1-2.81,1.12,12.13,12.13,0,0,1-2.72.53l-1.14-1.72a14.25,14.25,0,0,0,2.29-.42,11.23,11.23,0,0,0,2.16-.79l-2.82-1.63c-1,.35-1.88.62-2.65.81a8.5,8.5,0,0,1-2.42.2,5.36,5.36,0,0,1-2.38-.73,2.29,2.29,0,0,1-1.38-2c0-.78.57-1.58,1.71-2.41L81.28,84l1.67-1,1.84,1.06a13.89,13.89,0,0,1,4.44-1.38l1.23,1.68a13,13,0,0,0-3.44,1l2.87,1.66a23.29,23.29,0,0,1,2.6-.81,9.14,9.14,0,0,1,2.41-.2,5.45,5.45,0,0,1,2.35.72,2.25,2.25,0,0,1,1.36,2A3.39,3.39,0,0,1,96.93,91.13ZM86.4,88.07a6,6,0,0,0,1.4-.27l-2.41-1.39a1.18,1.18,0,0,0-.46.82.82.82,0,0,0,.47.63,1.89,1.89,0,0,0,1,.21m6,.43,2.33,1.34a1.06,1.06,0,0,0,.46-.78.69.69,0,0,0-.42-.59,1.8,1.8,0,0,0-1-.22,6.4,6.4,0,0,0-1.36.25"/><path class="cls-10" d="M77.69,102.8l-.24-.15c-7-4-18.21-4-25.16,0l-.24.15h-5v5.93c0,2.63,1.74,5.26,5.21,7.26,7,4,18.21,4,25.16,0,3.48-2,5.21-4.63,5.21-7.26V102.8Z"/><path class="cls-11" d="M77.45,116c3.48-2,5.21-4.63,5.21-7.26V102.8h-5l-.24-.15a25.78,25.78,0,0,0-12.58-3V119A25.67,25.67,0,0,0,77.45,116Z"/><ellipse class="cls-10" cx="64.87" cy="102.8" rx="17.79" ry="10.27"/><ellipse class="cls-12" cx="64.87" cy="102.8" rx="17.79" ry="10.27"/><ellipse class="cls-13" cx="64.87" cy="108.73" rx="17.79" ry="10.27"/><path class="cls-9" d="M82.66,108.73V102.8h0c0-2.63-1.73-5.26-5.21-7.26-7-4-18.21-4-25.16,0-3.47,2-5.21,4.63-5.21,7.26h0v5.93c0,2.63,1.74,5.26,5.21,7.26a25.69,25.69,0,0,0,12.58,3c.57,0,1.14,0,1.71,0a28.77,28.77,0,0,0,3.36-.37c.55-.1,1.09-.21,1.63-.33A21.78,21.78,0,0,0,77.45,116a11,11,0,0,0,4.48-4.34A6.34,6.34,0,0,0,82.66,108.73Z"/><path class="cls-11" d="M71.75,105.67l1.89,1.09-1.67,1-1.84-1.06a14.45,14.45,0,0,1-2.81,1.12,12,12,0,0,1-2.72.53l-1.13-1.72a13.13,13.13,0,0,0,2.28-.42,10.92,10.92,0,0,0,2.17-.79l-2.83-1.63a25.09,25.09,0,0,1-2.64.81,8.57,8.57,0,0,1-2.43.2,5.32,5.32,0,0,1-2.37-.73,2.29,2.29,0,0,1-1.39-2A3.34,3.34,0,0,1,58,99.66L56.1,98.57l1.68-1,1.83,1.06a13.94,13.94,0,0,1,4.45-1.38L65.28,99a13.06,13.06,0,0,0-3.44,1l2.87,1.66a25.6,25.6,0,0,1,2.6-.81,8.77,8.77,0,0,1,2.41-.19,5.3,5.3,0,0,1,2.35.71,2.25,2.25,0,0,1,1.36,2A3.39,3.39,0,0,1,71.75,105.67Zm-10.53-3.06a5.89,5.89,0,0,0,1.4-.27L60.22,101a1.11,1.11,0,0,0-.46.83.78.78,0,0,0,.47.62,1.86,1.86,0,0,0,1,.21m6,.43,2.33,1.35a1.16,1.16,0,0,0,.46-.79.69.69,0,0,0-.42-.59,1.82,1.82,0,0,0-1-.22,6.29,6.29,0,0,0-1.36.25"/><path class="cls-10" d="M77.69,96.87l-.24-.15c-7-4-18.21-4-25.16,0l-.24.15h-5v5.93c0,2.63,1.74,5.26,5.21,7.26,7,4,18.21,4,25.16,0,3.48-2,5.21-4.63,5.21-7.26V96.87Z"/><path class="cls-11" d="M77.45,110.06c3.48-2,5.21-4.63,5.21-7.26V96.87h-5l-.24-.15a25.78,25.78,0,0,0-12.58-3v19.36A25.67,25.67,0,0,0,77.45,110.06Z"/><ellipse class="cls-10" cx="64.87" cy="96.87" rx="17.79" ry="10.27"/><ellipse class="cls-12" cx="64.87" cy="96.87" rx="17.79" ry="10.27"/><ellipse class="cls-13" cx="64.87" cy="102.8" rx="17.79" ry="10.27"/><path class="cls-9" d="M82.66,102.8V96.87h0c0-2.63-1.73-5.26-5.21-7.26-7-4-18.21-4-25.16,0-3.47,2-5.21,4.63-5.21,7.26h0v5.93c0,2.63,1.74,5.26,5.21,7.26a25.69,25.69,0,0,0,12.58,3c.57,0,1.14,0,1.71,0a31.1,31.1,0,0,0,3.36-.37c.55-.1,1.09-.21,1.63-.33a21.78,21.78,0,0,0,5.88-2.26,11,11,0,0,0,4.48-4.34A6.34,6.34,0,0,0,82.66,102.8Z"/><path class="cls-11" d="M71.75,99.74l1.89,1.09-1.67,1-1.84-1.06a14.45,14.45,0,0,1-2.81,1.12,12,12,0,0,1-2.72.53l-1.13-1.72a13.13,13.13,0,0,0,2.28-.42,10.92,10.92,0,0,0,2.17-.79l-2.83-1.63c-1,.35-1.87.62-2.64.81a8.57,8.57,0,0,1-2.43.2,5.32,5.32,0,0,1-2.37-.73,2.29,2.29,0,0,1-1.39-2c0-.78.57-1.58,1.72-2.41L56.1,92.64l1.68-1,1.83,1.06a13.94,13.94,0,0,1,4.45-1.38L65.28,93a13.06,13.06,0,0,0-3.44,1l2.87,1.66a25.6,25.6,0,0,1,2.6-.81,9.17,9.17,0,0,1,2.41-.2,5.45,5.45,0,0,1,2.35.72,2.25,2.25,0,0,1,1.36,2A3.39,3.39,0,0,1,71.75,99.74ZM61.22,96.68a5.89,5.89,0,0,0,1.4-.27L60.22,95a1.1,1.1,0,0,0-.46.82.78.78,0,0,0,.47.63,1.86,1.86,0,0,0,1,.21m6,.43,2.33,1.34a1.13,1.13,0,0,0,.46-.78.69.69,0,0,0-.42-.59,1.82,1.82,0,0,0-1-.22,6.29,6.29,0,0,0-1.36.25"/><path class="cls-8" d="M98.39,5.34,92.5,1.94V2C90,.53,86.79.64,83.25,2.69c-7.8,4.5-14.13,16.59-14.13,27,0,5.69,1.9,9.68,4.89,11.41v0l5.89,3.4,1.79-3.79c.38-.18.76-.36,1.16-.59C90.65,35.62,97,23.54,97,13.13a21.62,21.62,0,0,0-.37-4Z"/><path class="cls-6" d="M92.5,1.94V2C90,.53,86.79.64,83.25,2.69,79,5.15,75.17,9.88,72.58,15.36L93.52,27.45A34.32,34.32,0,0,0,97,13.13a20.77,20.77,0,0,0-.38-4l1.79-3.78Z"/><ellipse class="cls-14" cx="89.14" cy="24.93" rx="21.69" ry="12.27" transform="translate(31.3 97.19) rotate(-66.95)"/><path class="cls-9" d="M98.38,5.36v0L92.5,1.94V2C90,.53,86.79.64,83.25,2.69c-7.8,4.5-14.13,16.59-14.13,27,0,5.69,1.9,9.68,4.89,11.41v0l5.89,3.4v0c2.47,1.43,5.7,1.32,9.23-.73,7.81-4.5,14.13-16.59,14.13-27C103.27,11.08,101.37,7.09,98.38,5.36Z"/><path class="cls-15" d="M89.72,15.58c0-.63-.38-.92-.85-.64A2,2,0,0,0,88,16.57V27c0,.42.17.69.43.74a.6.6,0,0,0,.43-.09A2.06,2.06,0,0,0,89.72,26Z"/><path class="cls-15" d="M89.72,33v-.11c0-.63-.38-.86-.86-.59A2.16,2.16,0,0,0,88,34c0,.42.17.69.43.74a.67.67,0,0,0,.43-.1A2,2,0,0,0,89.72,33Z"/><rect class="cls-13" width="120" height="120"/><rect class="cls-13" width="120" height="120"/></g></g></svg>