<svg xmlns="http://www.w3.org/2000/svg" viewBox="0 0 120 120"><defs><style>.cls-1,.cls-17,.cls-18,.cls-2,.cls-3,.cls-4,.cls-5,.cls-9{fill:none;}.cls-1,.cls-2,.cls-3{stroke:#436db5;}.cls-1,.cls-10,.cls-12,.cls-13,.cls-16,.cls-17,.cls-2,.cls-3,.cls-4,.cls-5,.cls-6,.cls-7,.cls-8,.cls-9{stroke-linecap:round;stroke-linejoin:round;stroke-width:2px;}.cls-2{stroke-dasharray:0 6.66;}.cls-3{stroke-dasharray:0 6;}.cls-4,.cls-5{stroke:#a7b23b;}.cls-5{stroke-dasharray:0 5.31;}.cls-12,.cls-15,.cls-6{fill:#fff;}.cls-6,.cls-7,.cls-8,.cls-9{stroke:#c4d36c;}.cls-7{fill:#c4d36c;}.cls-8{fill:#dfeab0;}.cls-10,.cls-14{fill:#deeaff;}.cls-10,.cls-12,.cls-16,.cls-17{stroke:#98b9ea;}.cls-11,.cls-13,.cls-16{fill:#98b9ea;}.cls-13{stroke:#deeaff;}</style></defs><title>business-continuity</title><g id="Layer_2" data-name="Layer 2"><g id="New_Icon_Set" data-name="New Icon Set"><line class="cls-1" x1="44.43" y1="9.83" x2="44.43" y2="9.83"/><line class="cls-2" x1="38.65" y1="13.16" x2="24.23" y2="21.49"/><line class="cls-1" x1="21.34" y1="23.16" x2="21.34" y2="23.16"/><line class="cls-3" x1="21.34" y1="23.16" x2="21.34" y2="47.54"/><line class="cls-1" x1="75.57" y1="9.83" x2="75.57" y2="9.83"/><line class="cls-2" x1="81.35" y1="13.16" x2="95.77" y2="21.49"/><line class="cls-1" x1="98.66" y1="23.16" x2="98.66" y2="23.16"/><line class="cls-3" x1="98.66" y1="23.16" x2="98.66" y2="47.54"/><line class="cls-4" x1="44.43" y1="26.94" x2="44.43" y2="26.94"/><line class="cls-5" x1="44.43" y1="32.25" x2="44.43" y2="40.22"/><line class="cls-4" x1="44.43" y1="42.88" x2="44.43" y2="42.88"/><line class="cls-4" x1="75.57" y1="26.94" x2="75.57" y2="26.94"/><line class="cls-5" x1="75.57" y1="32.25" x2="75.57" y2="40.22"/><line class="cls-4" x1="75.57" y1="42.88" x2="75.57" y2="42.88"/><path class="cls-6" d="M75.57,9.83,60.48,1.11a1.08,1.08,0,0,0-1,0L44.43,9.83l15.09,8.72a1.08,1.08,0,0,0,1,0Z"/><path class="cls-7" d="M60,35.77a1,1,0,0,0,.51-.13l15.06-8.7V9.83l-15.06,8.7a1,1,0,0,1-.51.13"/><path class="cls-8" d="M60,18.66a1,1,0,0,1-.51-.13L44.43,9.83V26.94l15.06,8.7a1,1,0,0,0,.51.13"/><path class="cls-9" d="M75.57,9.83,60.48,1.11a1.08,1.08,0,0,0-1,0L44.43,9.83l15.09,8.72a1.08,1.08,0,0,0,1,0Z"/><line class="cls-9" x1="60" y1="18.66" x2="60" y2="35.77"/><path class="cls-4" d="M60.48,1.11a1.08,1.08,0,0,0-1,0L44.43,9.83V26.94l15.06,8.7a1,1,0,0,0,1,0l15.06-8.7V9.83Z"/><path class="cls-10" d="M77.11,83.19l-14-8.08a6.86,6.86,0,0,0-6.24,0l-14,8.08H21.34V96.68a2.18,2.18,0,0,0,1.29,1.8l34.25,19.77a6.86,6.86,0,0,0,6.24,0L97.37,98.48a2.18,2.18,0,0,0,1.29-1.8V83.19Z"/><path class="cls-11" d="M63.12,118.25,97.37,98.48a2.18,2.18,0,0,0,1.29-1.8V83.19H77.11l-14-8.08A6.34,6.34,0,0,0,60,74.36V119A6.34,6.34,0,0,0,63.12,118.25Z"/><line class="cls-10" x1="44.82" y1="105.05" x2="34.7" y2="99.21"/><path class="cls-12" d="M97.37,81.38,63.12,61.61a6.93,6.93,0,0,0-6.24,0L22.63,81.38c-1.72,1-1.72,2.61,0,3.61l34.25,19.77a6.93,6.93,0,0,0,6.24,0L97.37,85C99.09,84,99.09,82.38,97.37,81.38Z"/><polygon class="cls-13" points="89.35 103.11 71.25 113.56 71.25 107.32 89.35 96.88 89.35 103.11"/><path class="cls-1" d="M97.37,81.38,63.12,61.61a6.93,6.93,0,0,0-6.24,0L22.63,81.38a2.2,2.2,0,0,0-1.29,1.81V96.68a2.18,2.18,0,0,0,1.29,1.8l34.25,19.77a6.86,6.86,0,0,0,6.24,0L97.37,98.48a2.18,2.18,0,0,0,1.29-1.8V83.19A2.2,2.2,0,0,0,97.37,81.38Z"/><ellipse class="cls-14" cx="89.82" cy="83.19" rx="1.75" ry="1.01"/><ellipse class="cls-14" cx="60" cy="100.4" rx="1.75" ry="1.01"/><ellipse class="cls-14" cx="60" cy="65.97" rx="1.75" ry="1.01"/><ellipse class="cls-14" cx="30.18" cy="83.19" rx="1.75" ry="1.01"/><path class="cls-15" d="M52.49,47.54l-15.1-8.72a1.06,1.06,0,0,0-1,0l-15.1,8.72,15.1,8.72a1.06,1.06,0,0,0,1,0Z"/><path class="cls-16" d="M36.92,73.48a1,1,0,0,0,.51-.13l15.06-8.7V47.54l-15.06,8.7a1,1,0,0,1-.51.13"/><path class="cls-14" d="M36.92,56.37a1,1,0,0,1-.51-.13l-15.07-8.7V64.65l15.07,8.7a1,1,0,0,0,.51.13"/><path class="cls-17" d="M52.49,47.54l-15.1-8.72a1.06,1.06,0,0,0-1,0l-15.1,8.72,15.1,8.72a1.06,1.06,0,0,0,1,0Z"/><line class="cls-16" x1="36.92" y1="56.37" x2="36.92" y2="73.48"/><path class="cls-1" d="M37.39,38.82a1.06,1.06,0,0,0-1,0l-15.1,8.72V64.65l15.07,8.7a1,1,0,0,0,1,0l15.06-8.7V47.54Z"/><path class="cls-15" d="M98.66,47.54l-15.1-8.72a1.06,1.06,0,0,0-1,0l-15.1,8.72,15.1,8.72a1.06,1.06,0,0,0,1,0Z"/><path class="cls-16" d="M83.08,73.48a1,1,0,0,0,.51-.13l15.07-8.7V47.54l-15.07,8.7a1,1,0,0,1-.51.13"/><path class="cls-14" d="M83.08,56.37a1,1,0,0,1-.51-.13l-15.06-8.7V64.65l15.06,8.7a1,1,0,0,0,.51.13"/><path class="cls-17" d="M98.66,47.54l-15.1-8.72a1.06,1.06,0,0,0-1,0l-15.1,8.72,15.1,8.72a1.06,1.06,0,0,0,1,0Z"/><line class="cls-16" x1="83.08" y1="56.37" x2="83.08" y2="73.48"/><path class="cls-1" d="M83.56,38.82a1.06,1.06,0,0,0-1,0l-15.1,8.72V64.65l15.06,8.7a1,1,0,0,0,1,0l15.07-8.7V47.54Z"/><path class="cls-15" d="M75.57,60.48,60.48,51.76a1.08,1.08,0,0,0-1,0L44.43,60.48,59.52,69.2a1.08,1.08,0,0,0,1,0Z"/><path class="cls-16" d="M60,86.42a1,1,0,0,0,.51-.13l15.06-8.7V60.48l-15.06,8.7a1,1,0,0,1-.51.13"/><path class="cls-14" d="M60,69.31a1,1,0,0,1-.51-.13l-15.06-8.7V77.59l15.06,8.7a1,1,0,0,0,.51.13"/><path class="cls-17" d="M75.57,60.48,60.48,51.76a1.08,1.08,0,0,0-1,0L44.43,60.48,59.52,69.2a1.08,1.08,0,0,0,1,0Z"/><line class="cls-16" x1="60" y1="69.31" x2="60" y2="86.42"/><path class="cls-1" d="M60.48,51.76a1.08,1.08,0,0,0-1,0L44.43,60.48V77.59l15.06,8.7a1,1,0,0,0,1,0l15.06-8.7V60.48Z"/><rect class="cls-18" width="120" height="120"/><rect class="cls-18" width="120" height="120"/></g></g></svg>