<svg xmlns="http://www.w3.org/2000/svg" viewBox="0 0 120 120"><defs><style>.cls-1,.cls-12,.cls-2,.cls-3,.cls-5,.cls-7{fill:none;}.cls-1,.cls-2,.cls-3{stroke:#a7b23b;}.cls-1,.cls-2,.cls-3,.cls-5,.cls-9{stroke-linecap:round;stroke-linejoin:round;}.cls-1,.cls-2,.cls-3,.cls-5,.cls-7,.cls-9{stroke-width:2px;}.cls-2{stroke-dasharray:0 5.66;}.cls-3{stroke-dasharray:0 6.03;}.cls-4{fill:#deeaff;}.cls-5{stroke:#436db5;}.cls-6,.cls-9{fill:#fff;}.cls-7{stroke:#deeaff;}.cls-7,.cls-8{stroke-miterlimit:10;}.cls-8{fill:#98b9ea;}.cls-8,.cls-9{stroke:#98b9ea;}.cls-10{fill:#a7b23b;}.cls-11{fill:#dfeab0;}</style></defs><title>calm</title><g id="Layer_2" data-name="Layer 2"><g id="Actions"><path class="cls-1" d="M5.88,115.46c-6.3-6.09,12.3-35.56,41.55-65.83"/><path class="cls-1" d="M115,117.87c6.26-6.14-12.57-35.47-42-65.51"/><line class="cls-1" x1="42.78" y1="25.12" x2="42.78" y2="25.12"/><path class="cls-2" d="M38.28,21.69c-8.77-6.5-16.37-11-21.89-12.81"/><line class="cls-1" x1="13.66" y1="8.15" x2="13.66" y2="8.15"/><line class="cls-1" x1="85.04" y1="17.32" x2="85.04" y2="17.32"/><path class="cls-3" d="M90,13.9a66,66,0,0,1,13.27-7.07"/><line class="cls-1" x1="106.17" y1="6" x2="106.17" y2="6"/><circle class="cls-4" cx="60" cy="53.72" r="45"/><circle class="cls-5" cx="60" cy="53.72" r="45"/><ellipse class="cls-6" cx="36.88" cy="30.6" rx="8.81" ry="5.45" transform="translate(-10.83 35.04) rotate(-45)"/><path class="cls-7" d="M60,94.51a40.79,40.79,0,1,1,40.79-40.79A40.84,40.84,0,0,1,60,94.51Z"/><path class="cls-8" d="M89.51,28.68a2.85,2.85,0,0,0-4.8,2.9c3.83,9.47,5,23.32-9.26,37.59S47.33,82.26,37.87,78.42A2.86,2.86,0,0,0,35,83.23,38.63,38.63,0,0,0,89.51,28.68Z"/><path class="cls-9" d="M74.87,55.83a6.23,6.23,0,0,0-3-5.33,6.24,6.24,0,0,0-7.23-6.83,6.24,6.24,0,0,0-10.07,0,6.24,6.24,0,0,0-7.14,7.14,6.23,6.23,0,0,0,0,10.08A6.24,6.24,0,0,0,54.59,68a6.23,6.23,0,0,0,10.08-.1,6.24,6.24,0,0,0,7.2-6.77A6.23,6.23,0,0,0,74.87,55.83Z"/><path class="cls-10" d="M57,61.39h0a1.4,1.4,0,0,1-1-.4l-3-3a1.39,1.39,0,0,1,2-2l2,2,7.13-7.13a1.39,1.39,0,1,1,2,2L58,61A1.39,1.39,0,0,1,57,61.39Z"/><circle class="cls-11" cx="8.21" cy="9.07" r="5.85"/><circle class="cls-1" cx="8.21" cy="9.07" r="5.85"/><ellipse class="cls-6" cx="6.23" cy="7.09" rx="2.5" ry="1.66" transform="translate(-3.19 6.48) rotate(-45)"/><circle class="cls-11" cx="111.79" cy="6.85" r="5.85"/><circle class="cls-1" cx="111.79" cy="6.85" r="5.85"/><ellipse class="cls-6" cx="109.8" cy="4.86" rx="2.5" ry="1.66" transform="translate(28.72 79.06) rotate(-45)"/><path class="cls-1" d="M8.68,19.54c5,12.54,20.56,33.61,41.59,55,29.48,30,58.44,49.42,64.69,43.29"/><path class="cls-1" d="M111.17,17.89c-5.09,12.64-20.38,33.52-40.93,54.78C41,102.94,12.18,122.55,5.88,116.46"/><rect class="cls-12" width="120" height="120"/><rect class="cls-12" width="120" height="120"/></g></g></svg>