<svg xmlns="http://www.w3.org/2000/svg" viewBox="0 0 120 120"><defs><style>.cls-1{fill:#fff;}.cls-2{fill:#deeaff;}.cls-3,.cls-4,.cls-6{fill:none;}.cls-3{stroke:#98b9ea;}.cls-3,.cls-4{stroke-linecap:round;stroke-linejoin:round;stroke-width:2px;}.cls-4{stroke:#436db5;}.cls-5{fill:#98b9ea;}</style></defs><title>centralize-DR-in-prism</title><g id="Layer_2" data-name="Layer 2"><g id="Tech_Concepts" data-name="Tech Concepts"><polygon class="cls-1" points="60.01 13.36 10 77.78 60.01 106.64 60.01 106.64 60.01 67.33 60.01 13.36"/><polygon class="cls-2" points="60.01 13.36 110 77.78 60.01 106.64 60.01 106.64 60.01 13.36"/><polygon class="cls-2" points="60.01 13.36 110 77.78 60.01 106.64 60.01 106.64 60.01 13.36"/><line class="cls-3" x1="60.05" y1="49.02" x2="10.06" y2="77.89"/><line class="cls-3" x1="60.01" y1="49.02" x2="110" y2="77.89"/><line class="cls-3" x1="60.01" y1="106.64" x2="60.01" y2="13.36"/><polygon class="cls-4" points="60.01 13.36 10 77.78 60.01 106.64 60.01 106.64 60.01 106.64 110 77.78 60.01 13.36"/><path class="cls-2" d="M80.85,71.36v-10s-6.68,1.3-7.27,1.63-15,.84-15,.84L38.85,61.36v10h0a1.6,1.6,0,0,0,.93,1.31l4.78,2.76-5.71-1v10h0a1.58,1.58,0,0,0,.93,1.31l6.5,3.75a5,5,0,0,0,4.52,0l9.05-5.22,9,5.22a5,5,0,0,0,4.52,0l6.5-3.75a1.6,1.6,0,0,0,.94-1.31v-10h-4l3-1.74A1.61,1.61,0,0,0,80.85,71.36Z"/><path class="cls-3" d="M80.85,71.36v-10s-6.68,1.3-7.27,1.63-15,.84-15,.84L38.85,61.36v10h0a1.6,1.6,0,0,0,.93,1.31l4.78,2.76-5.71-1v10h0a1.58,1.58,0,0,0,.93,1.31l6.5,3.75a5,5,0,0,0,4.52,0l9.05-5.22,9,5.22a5,5,0,0,0,4.52,0l6.5-3.75a1.6,1.6,0,0,0,.94-1.31v-10h-4l3-1.74A1.61,1.61,0,0,0,80.85,71.36Z"/><path class="cls-5" d="M60,84.34l8.88,5.13a5,5,0,0,0,4.52,0l6.5-3.75a1.6,1.6,0,0,0,.94-1.31v-10h-4l3-1.74a1.61,1.61,0,0,0,.94-1.31v-10s-6.68,1.3-7.27,1.63-9.93.65-13.57.78Z"/><path class="cls-3" d="M60,84.34l8.88,5.13a5,5,0,0,0,4.52,0l6.5-3.75a1.6,1.6,0,0,0,.94-1.31v-10h-4l3-1.74a1.61,1.61,0,0,0,.94-1.31v-10s-6.68,1.3-7.27,1.63-9.93.65-13.57.78Z"/><path class="cls-1" d="M39.78,73.11l9-5.22-9-5.22a1.38,1.38,0,0,1,0-2.61l6.5-3.76a5,5,0,0,1,4.52,0l9.05,5.23,9-5.23a5,5,0,0,1,4.52,0l6.5,3.76a1.38,1.38,0,0,1,0,2.61l-9,5.22,9,5.22a1.38,1.38,0,0,1,0,2.61l-6.5,3.75a5,5,0,0,1-4.52,0l-9-5.22L50.8,79.47a5,5,0,0,1-4.52,0l-6.5-3.75A1.38,1.38,0,0,1,39.78,73.11Z"/><path class="cls-3" d="M39.78,73.11l9-5.22-9-5.22a1.38,1.38,0,0,1,0-2.61l6.5-3.76a5,5,0,0,1,4.52,0l9.05,5.23,9-5.23a5,5,0,0,1,4.52,0l6.5,3.76a1.38,1.38,0,0,1,0,2.61l-9,5.22,9,5.22a1.38,1.38,0,0,1,0,2.61l-6.5,3.75a5,5,0,0,1-4.52,0l-9-5.22L50.8,79.47a5,5,0,0,1-4.52,0l-6.5-3.75A1.38,1.38,0,0,1,39.78,73.11Z"/><path class="cls-2" d="M60,74.34l8.88,5.13a5,5,0,0,0,4.52,0l6.5-3.75a1.38,1.38,0,0,0,0-2.61l-9-5.22,9-5.22a1.38,1.38,0,0,0,0-2.61l-6.5-3.76a5,5,0,0,0-4.52,0L60,61.43Z"/><path class="cls-3" d="M60,74.34l8.88,5.13a5,5,0,0,0,4.52,0l6.5-3.75a1.38,1.38,0,0,0,0-2.61l-9-5.22,9-5.22a1.38,1.38,0,0,0,0-2.61l-6.5-3.76a5,5,0,0,0-4.52,0L60,61.43Z"/><rect class="cls-6" width="120" height="120"/><rect class="cls-6" width="120" height="120"/></g></g></svg>