<svg xmlns="http://www.w3.org/2000/svg" viewBox="0 0 120 120"><defs><style>.cls-1,.cls-3{fill:#c4d36c;}.cls-1{stroke:#98b9ea;}.cls-1,.cls-2,.cls-3,.cls-4,.cls-5,.cls-7,.cls-8,.cls-9{stroke-linecap:round;stroke-linejoin:round;stroke-width:2px;}.cls-2{fill:#dfeab0;}.cls-2,.cls-5,.cls-8{stroke:#fff;}.cls-3{stroke:#c4d36c;}.cls-10,.cls-4,.cls-8,.cls-9{fill:none;}.cls-4{stroke:#a7b23b;}.cls-5{fill:#98b9ea;}.cls-6{fill:#deeaff;}.cls-7{fill:#fff;stroke:#deeaff;}.cls-9{stroke:#436db5;}</style></defs><title>certification</title><g id="Layer_2" data-name="Layer 2"><g id="Objects"><polygon class="cls-1" points="49.43 119 44.06 115.88 43.94 28.84 49.31 31.96 49.43 119"/><polygon class="cls-2" points="72 18.86 72.13 105.9 60.74 98.16 49.43 119 49.31 31.96 72 18.86"/><polygon class="cls-3" points="60.72 25.38 60.72 98.2 60.74 98.16 72.13 105.9 72 18.86 60.72 25.38"/><polygon class="cls-4" points="72 18.86 66.63 15.74 43.94 28.84 44.06 115.88 49.43 119 60.74 98.16 72.13 105.9 72 18.86"/><path class="cls-5" d="M82.57,22.81c0-4-1.6-6.55-4-7.08l4.33-8.56L73.16,1.54h0C70.82.2,67.62,1.4,64.87,4.39L60.49,1.86h0c-1.44-.83-3.32-.76-5.37.42-4,2.32-7.34,8.07-8.06,13.55-3.19-1.06-7.58,1.91-10.41,7.32s-3.16,11.45-1,14.46A20.49,20.49,0,0,0,29,52.21c0,3.11,1,5.34,2.53,6.43h0l.14.08L32,59l3.07,1.77c-1.53,5-1,9.77,1.54,11.71.14.1.29.19.44.28h0l9.76,5.63L50,72.21c1.5,1.72,3.85,2,6.49.51,4-2.31,7.34-8.06,8.06-13.54,3.19,1,7.58-1.91,10.41-7.32s3.16-11.45,1-14.46A20.5,20.5,0,0,0,82.57,22.81Z"/><path class="cls-5" d="M82.57,22.81c0-4-1.6-6.55-4-7.08l4.33-8.56L73.16,1.54h0C70.82.2,67.62,1.4,64.87,4.39L60.49,1.86h0c-1.44-.83-3.32-.76-5.37.42-4,2.32-7.34,8.07-8.06,13.55-3.19-1.06-7.58,1.91-10.41,7.32s-3.16,11.45-1,14.46A20.49,20.49,0,0,0,29,52.21c0,3.11,1,5.34,2.53,6.43h0l.14.08L32,59l3.07,1.77c-1.53,5-1,9.77,1.54,11.71.14.1.29.19.44.28h0l9.76,5.63L50,72.21c1.5,1.72,3.85,2,6.49.51,4-2.31,7.34-8.06,8.06-13.54,3.19,1,7.58-1.91,10.41-7.32s3.16-11.45,1-14.46A20.5,20.5,0,0,0,82.57,22.81Z"/><path class="cls-6" d="M55.33,63.17l6.15-10.65L35.66,37.62h0a20.32,20.32,0,0,0-6.18,10.62Z"/><path class="cls-6" d="M82.57,22.81c0-4-1.6-6.55-4-7.08l4.33-8.56L73.16,1.54h0C70.82.2,67.62,1.4,64.87,4.39L60.49,1.86h0c-1.44-.83-3.32-.76-5.37.42a15.15,15.15,0,0,0-4.95,5.1L81.73,25.61,77.3,33.29,47.06,15.84h0c-3.19-1.06-7.58,1.91-10.41,7.32h0L76.9,46.4c.78-3.62.45-7-1-9A20.5,20.5,0,0,0,82.57,22.81Z"/><path class="cls-5" d="M91,27.68c0-5.34-2.87-8.13-6.66-6.9,2.17-5.51,1.84-11.18-1-13.32s-7.22,0-10.41,4.7c-.72-4.64-4.06-6.55-8.06-4.23S57.54,16,56.82,21.47c-3.2-1-7.58,1.91-10.42,7.33s-3.15,11.44-1,14.45a20.46,20.46,0,0,0-6.67,14.59c0,5.35,2.87,8.13,6.67,6.9-2.17,5.52-1.85,11.18,1,13.32s7.22,0,10.42-4.7c.72,4.64,4,6.55,8.06,4.24s7.34-8.07,8.06-13.55c3.19,1.06,7.58-1.91,10.41-7.32s3.16-11.45,1-14.46A20.49,20.49,0,0,0,91,27.68Z"/><ellipse class="cls-7" cx="64.63" cy="42.62" rx="22.21" ry="12.56" transform="translate(0.11 85.4) rotate(-66.95)"/><path class="cls-6" d="M50.66,55.68c2.07,9.09,10,10.62,17.71,3.41C74.84,53,79.08,42.79,79.08,34.28L50.18,51A21.17,21.17,0,0,0,50.66,55.68Z"/><ellipse class="cls-3" cx="64.63" cy="42.62" rx="7.93" ry="4.49" transform="translate(0.11 85.4) rotate(-66.95)"/><path class="cls-8" d="M62.58,52.13c-2.4,0-4.27-1.69-4.89-4.4-.89-3.93,1-9.4,4.24-12.45a7.07,7.07,0,0,1,4.75-2.17c2.4,0,4.27,1.69,4.89,4.4.89,3.93-1,9.4-4.24,12.45A7.06,7.06,0,0,1,62.58,52.13Z"/><path class="cls-9" d="M91,27.68c0-5.34-2.87-8.13-6.66-6.9,2.17-5.51,1.84-11.18-1-13.32-.14-.1-.29-.19-.44-.28h0L73.16,1.54h0C70.82.2,67.62,1.4,64.87,4.39L60.49,1.86h0c-1.44-.83-3.32-.76-5.37.42-4,2.32-7.34,8.07-8.06,13.55-3.19-1.06-7.58,1.91-10.41,7.32s-3.16,11.45-1,14.46A20.49,20.49,0,0,0,29,52.21c0,3.11,1,5.34,2.53,6.43h0l.14.08L32,59l3.07,1.77c-1.53,5-1,9.77,1.54,11.71.14.1.29.19.44.28h0l9.76,5.63h0c2.84,1.64,6.94-.48,10-5,.72,4.64,4,6.55,8.06,4.24s7.34-8.07,8.06-13.55c3.19,1.06,7.58-1.91,10.41-7.32s3.16-11.45,1-14.46A20.49,20.49,0,0,0,91,27.68Z"/><rect class="cls-10" width="120" height="120"/><rect class="cls-10" width="120" height="120"/></g></g></svg>