<svg xmlns="http://www.w3.org/2000/svg" viewBox="0 0 120 120"><defs><style>.cls-1,.cls-2,.cls-3,.cls-6,.cls-7{fill:none;}.cls-1{stroke:#a7b23b;}.cls-1,.cls-2,.cls-4,.cls-5,.cls-6{stroke-linecap:round;stroke-linejoin:round;}.cls-1,.cls-2,.cls-3,.cls-4,.cls-5,.cls-6{stroke-width:2px;}.cls-2{stroke:#c4d36c;}.cls-3{stroke:#dfeab0;stroke-miterlimit:10;}.cls-4{fill:#98b9ea;}.cls-4,.cls-5{stroke:#fff;}.cls-5{fill:#deeaff;}.cls-6{stroke:#436db5;}</style></defs><title>click</title><g id="Layer_2" data-name="Layer 2"><g id="Objects"><ellipse class="cls-1" cx="53.06" cy="50.57" rx="17.46" ry="9.88" transform="translate(-14.25 79.59) rotate(-66.95)"/><ellipse class="cls-2" cx="53.06" cy="50.57" rx="34.91" ry="19.75" transform="translate(-14.25 79.59) rotate(-66.95)"/><ellipse class="cls-3" cx="53.06" cy="50.57" rx="52.37" ry="29.63" transform="translate(-14.25 79.59) rotate(-66.95)"/><polygon class="cls-4" points="88.71 55.83 53.06 50.58 52.02 105.26 63.09 90.34 76.2 113.05 90.74 93.45 77.63 70.75 88.71 55.83"/><polygon class="cls-4" points="99.01 61.78 63.37 56.53 62.33 111.21 73.4 96.29 86.51 119 101.05 99.41 87.94 76.7 99.01 61.78"/><polygon class="cls-5" points="86.51 119 76.2 113.05 69.53 101.5 73.4 96.29 86.51 119"/><polygon class="cls-5" points="62.33 111.21 52.02 105.26 53.06 50.58 63.37 56.53 62.33 111.21"/><polygon class="cls-5" points="99.01 61.78 88.71 55.83 53.06 50.58 63.37 56.53 99.01 61.78"/><polygon class="cls-6" points="87.94 76.7 99.01 61.78 88.71 55.83 53.06 50.58 52.02 105.26 62.32 111.21 69.53 101.5 69.53 101.5 69.53 101.5 76.2 113.05 86.51 119 101.05 99.41 87.94 76.7"/><rect class="cls-7" width="120" height="120"/><rect class="cls-7" width="120" height="120"/></g></g></svg>