<svg xmlns="http://www.w3.org/2000/svg" viewBox="0 0 120 120"><defs><style>.cls-1,.cls-5{fill:#fff;}.cls-1{stroke:#98b9ea;}.cls-1,.cls-3,.cls-4,.cls-5,.cls-6,.cls-7,.cls-8{stroke-linecap:round;stroke-linejoin:round;stroke-width:2px;}.cls-2{fill:#deeaff;}.cls-3{fill:#98b9ea;stroke:#fff;}.cls-4,.cls-6,.cls-7,.cls-9{fill:none;}.cls-4,.cls-5{stroke:#436db5;}.cls-6{stroke:#dfeab0;}.cls-7,.cls-8{stroke:#a7b23b;}.cls-8{fill:#a7b23b;}</style></defs><title>clock</title><g id="Layer_2" data-name="Layer 2"><g id="Objects"><path class="cls-1" d="M86.86,16.21l1.76-2.87-10-5.75h0a19.76,19.76,0,0,0-10-2.6A29.61,29.61,0,0,0,53.94,9.42C34.39,20.7,18.48,51,18.48,77c0,14.39,4.84,25,12.91,29.69h0l10,5.75,1.13-3.19a30.35,30.35,0,0,0,13.66-4.38C75.67,93.55,91.58,63.25,91.58,37.29,91.58,28.81,89.89,21.63,86.86,16.21Z"/><path class="cls-2" d="M82.85,73.19,27.2,41.06C21.78,52.47,18.48,65.17,18.48,77c0,14.39,4.84,25,12.91,29.69h0l10,5.75,1.13-3.19a30.35,30.35,0,0,0,13.66-4.38C66.78,98.69,76.35,86.87,82.85,73.19Z"/><path class="cls-3" d="M51.33,115c-13.92,0-22.91-12.67-22.91-32.29,0-26,15.91-56.26,35.47-67.55a29.61,29.61,0,0,1,14.73-4.42c13.91,0,22.9,12.67,22.9,32.29,0,26-15.91,56.27-35.46,67.55A29.61,29.61,0,0,1,51.33,115Z"/><path class="cls-4" d="M88.61,13.34h0l-10-5.75h0a19.76,19.76,0,0,0-10-2.6A29.61,29.61,0,0,0,53.94,9.42C34.39,20.7,18.48,51,18.48,77c0,14.39,4.84,25,12.91,29.69h0l10,5.75h0a19.76,19.76,0,0,0,10,2.6,29.61,29.61,0,0,0,14.73-4.42C85.61,99.3,101.52,69,101.52,43,101.52,28.64,96.68,18,88.61,13.34Z"/><ellipse class="cls-5" cx="64.97" cy="62.87" rx="46.1" ry="26.08" transform="translate(-18.32 98.04) rotate(-66.95)"/><line class="cls-6" x1="64.97" y1="31.59" x2="64.97" y2="38.09"/><line class="cls-7" x1="64.97" y1="31.59" x2="64.97" y2="62.87"/><line class="cls-7" x1="41.51" y1="76.42" x2="46.39" y2="73.6"/><line class="cls-7" x1="64.97" y1="94.15" x2="64.97" y2="87.66"/><line class="cls-7" x1="88.43" y1="49.33" x2="83.56" y2="52.14"/><line class="cls-6" x1="84.09" y1="37.12" x2="82.28" y2="39.56"/><line class="cls-6" x1="76.01" y1="31.02" x2="74.96" y2="34.03"/><line class="cls-6" x1="53.94" y1="43.76" x2="54.98" y2="45.57"/><line class="cls-6" x1="45.86" y1="59.19" x2="47.67" y2="59.54"/><line class="cls-6" x1="45.86" y1="88.62" x2="47.67" y2="86.18"/><line class="cls-6" x1="53.94" y1="94.72" x2="54.98" y2="91.71"/><line class="cls-6" x1="76.01" y1="81.98" x2="74.96" y2="80.17"/><line class="cls-6" x1="84.09" y1="66.55" x2="82.28" y2="66.2"/><line class="cls-7" x1="78.37" y1="65.45" x2="64.52" y2="62.78"/><ellipse class="cls-8" cx="64.97" cy="62.87" rx="3.45" ry="1.95" transform="translate(-18.32 98.04) rotate(-66.95)"/><rect class="cls-9" width="120" height="120"/><rect class="cls-9" width="120" height="120"/></g></g></svg>