<svg xmlns="http://www.w3.org/2000/svg" viewBox="0 0 120 120"><defs><style>.cls-1{fill:#fff;}.cls-13,.cls-2{fill:#98b9ea;}.cls-12,.cls-2,.cls-4{stroke:#98b9ea;}.cls-10,.cls-11,.cls-12,.cls-2,.cls-4,.cls-5,.cls-6,.cls-7,.cls-8,.cls-9{stroke-linecap:round;stroke-linejoin:round;stroke-width:2px;}.cls-12,.cls-3{fill:#deeaff;}.cls-10,.cls-11,.cls-14,.cls-4,.cls-5,.cls-6,.cls-7,.cls-8,.cls-9{fill:none;}.cls-5{stroke:#436db5;}.cls-6,.cls-7,.cls-8{stroke:#a7b23b;}.cls-7{stroke-dasharray:0 6.33;}.cls-8{stroke-dasharray:0 4.74;}.cls-9{stroke:#dfeab0;}.cls-10{stroke:#fff;}.cls-11{stroke:#c4d36c;}</style></defs><title>cloud-services</title><g id="Layer_2" data-name="Layer 2"><g id="New_Icon_Set" data-name="New Icon Set"><path class="cls-1" d="M119,66.16l-8.23-4.75a.59.59,0,0,0-.52,0L102,66.16l8.23,4.75a.59.59,0,0,0,.52,0Z"/><path class="cls-2" d="M110.51,105.65a.57.57,0,0,0,.28-.08l8.21-4.74V66.16l-8.21,4.74a.55.55,0,0,1-.28.07"/><path class="cls-3" d="M110.51,71a.58.58,0,0,1-.28-.07L102,66.16v34.67l8.21,4.74a.6.6,0,0,0,.28.08"/><path class="cls-4" d="M119,66.16l-8.23-4.75a.59.59,0,0,0-.52,0L102,66.16l8.23,4.75a.59.59,0,0,0,.52,0Z"/><line class="cls-2" x1="110.51" y1="70.97" x2="110.51" y2="105.65"/><path class="cls-5" d="M110.77,61.41a.59.59,0,0,0-.52,0L102,66.16v34.67l8.21,4.74a.56.56,0,0,0,.56,0l8.21-4.74V66.16Z"/><path class="cls-1" d="M110.23,82.22,102,77.47a.59.59,0,0,0-.52,0l-8.23,4.75L101.49,87a.59.59,0,0,0,.52,0Z"/><path class="cls-2" d="M101.75,110.39a.53.53,0,0,0,.27-.08l8.21-4.74V82.22L102,87a.52.52,0,0,1-.27.07"/><path class="cls-3" d="M101.75,87a.53.53,0,0,1-.28-.07l-8.21-4.74v23.35l8.21,4.74a.54.54,0,0,0,.28.08"/><path class="cls-4" d="M110.23,82.22,102,77.47a.59.59,0,0,0-.52,0l-8.23,4.75L101.49,87a.59.59,0,0,0,.52,0Z"/><line class="cls-2" x1="101.75" y1="87.03" x2="101.75" y2="110.39"/><path class="cls-5" d="M102,77.47a.59.59,0,0,0-.52,0l-8.23,4.75v23.35l8.21,4.74a.54.54,0,0,0,.55,0l8.21-4.74V82.22Z"/><line class="cls-6" x1="43.33" y1="89.9" x2="43.33" y2="89.9"/><line class="cls-7" x1="37.85" y1="93.06" x2="35.12" y2="94.65"/><line class="cls-6" x1="32.38" y1="96.23" x2="32.38" y2="96.23"/><line class="cls-6" x1="74.38" y1="89.9" x2="74.38" y2="89.9"/><line class="cls-8" x1="78.49" y1="92.27" x2="80.54" y2="93.46"/><line class="cls-6" x1="82.59" y1="94.64" x2="82.59" y2="94.64"/><polygon class="cls-1" points="58.75 52.22 28.5 69.79 28.47 81.32 58.91 98.89 89.15 81.32 89.19 69.79 58.75 52.22"/><line class="cls-9" x1="58.95" y1="87.37" x2="58.95" y2="98.89"/><polygon class="cls-1" points="89.19 69.79 58.95 87.37 28.5 69.79 58.75 52.22 89.19 69.79"/><line class="cls-10" x1="38.45" y1="75.53" x2="28.47" y2="81.32"/><line class="cls-9" x1="89.15" y1="81.32" x2="79.22" y2="75.59"/><line class="cls-9" x1="58.75" y1="63.77" x2="58.75" y2="52.22"/><polyline class="cls-9" points="89.15 81.32 58.75 63.77 28.47 81.32"/><polygon class="cls-11" points="89.19 69.79 58.95 87.37 28.5 69.79 58.75 52.22 89.19 69.79"/><polygon class="cls-6" points="58.75 52.22 28.5 69.79 28.47 81.32 58.91 98.89 89.15 81.32 89.19 69.79 58.75 52.22"/><path class="cls-1" d="M90.34,17.91h0l-12.19-7h0c-1.43-.82-3.28-.75-5.32.42l-.88.51-10.45-6h0C59.11,4.41,56,4.54,52.62,6.5c-7.08,4.09-12.89,14.68-13.5,24.26l-6.7,3.87c-4.49,2.59-8.14,9.55-8.14,15.54h0c0,3.28,1.1,5.58,2.82,6.57h0l12.19,7h0c1.43.82,3.28.75,5.32-.43L85,40c4.5-2.59,8.14-9.55,8.14-15.54h0C93.15,21.21,92.06,18.91,90.34,17.91Z"/><path class="cls-3" d="M85,18.34l-6.69,3.87c-.62-8.88-6.43-12.76-13.51-8.67S51.92,28.22,51.31,37.8l-6.7,3.87c-4.49,2.59-8.13,9.55-8.13,15.54s3.64,8.75,8.13,6.15L85,40c4.5-2.59,8.14-9.55,8.14-15.54h0C93.15,18.5,89.51,15.75,85,18.34Z"/><path class="cls-5" d="M90.34,17.91h0l-12.19-7h0c-1.43-.82-3.28-.75-5.32.42l-.88.51-10.45-6h0C59.11,4.41,56,4.54,52.62,6.5c-7.08,4.09-12.89,14.68-13.5,24.26l-6.7,3.87c-4.49,2.59-8.14,9.55-8.14,15.54h0c0,3.28,1.1,5.58,2.82,6.57h0l12.19,7h0c1.43.82,3.28.75,5.32-.43L85,40c4.5-2.59,8.14-9.55,8.14-15.54h0C93.15,21.21,92.06,18.91,90.34,17.91Z"/><path class="cls-12" d="M85,18.34l-6.69,3.87c-.62-8.88-6.43-12.76-13.51-8.67S51.92,28.22,51.31,37.8l-6.7,3.87c-4.49,2.59-8.13,9.55-8.13,15.54"/><path class="cls-1" d="M102,98.28l-8.23-4.75a.52.52,0,0,0-.51,0l-8.23,4.75L93.28,103a.57.57,0,0,0,.51,0Z"/><path class="cls-2" d="M93.54,115.13a.53.53,0,0,0,.27-.08l8.21-4.74v-12L93.81,103a.52.52,0,0,1-.27.07"/><path class="cls-3" d="M93.54,103.09a.53.53,0,0,1-.28-.07l-8.21-4.74v12l8.21,4.74a.54.54,0,0,0,.28.08"/><path class="cls-4" d="M102,98.28l-8.23-4.75a.52.52,0,0,0-.51,0l-8.23,4.75L93.28,103a.57.57,0,0,0,.51,0Z"/><line class="cls-2" x1="93.54" y1="103.09" x2="93.54" y2="115.13"/><path class="cls-5" d="M93.79,93.53a.52.52,0,0,0-.51,0l-8.23,4.75v12l8.21,4.74a.54.54,0,0,0,.55,0l8.21-4.74v-12Z"/><path class="cls-3" d="M25.13,100.53l-.19-.12c-5.48-3.16-14.36-3.16-19.83,0l-.19.12H1v5.72c0,2.07,1.37,4.14,4.11,5.72,5.47,3.16,14.35,3.16,19.83,0,2.74-1.58,4.11-3.65,4.11-5.72v-5.72Z"/><path class="cls-13" d="M24.94,112c2.74-1.58,4.11-3.65,4.11-5.72v-5.72H25.13l-.19-.12A20.3,20.3,0,0,0,15,98v16.3A20.3,20.3,0,0,0,24.94,112Z"/><ellipse class="cls-3" cx="15.02" cy="100.53" rx="14.02" ry="8.1"/><ellipse class="cls-10" cx="15.02" cy="100.53" rx="14.02" ry="8.1"/><ellipse class="cls-14" cx="15.02" cy="105.72" rx="14.34" ry="8.65"/><path class="cls-5" d="M29.05,106.25v-5.72h0c0-2.07-1.37-4.15-4.11-5.73-5.48-3.16-14.36-3.16-19.83,0C2.37,96.38,1,98.46,1,100.53H1v5.72c0,2.07,1.37,4.14,4.11,5.72A20.28,20.28,0,0,0,15,114.34q.68,0,1.35,0A23.35,23.35,0,0,0,19,114c.43-.07.86-.16,1.28-.26A17.28,17.28,0,0,0,24.94,112a8.75,8.75,0,0,0,3.53-3.42A5,5,0,0,0,29.05,106.25Z"/><polyline class="cls-4" points="20.5 101.82 9.55 101.82 9.55 99.23"/><rect class="cls-14" width="120" height="120"/><rect class="cls-14" width="120" height="120"/></g></g></svg>