<svg xmlns="http://www.w3.org/2000/svg" viewBox="0 0 120 120"><defs><style>.cls-1{fill:#deeaff;}.cls-1,.cls-3{stroke:#98b9ea;}.cls-1,.cls-3,.cls-4,.cls-5{stroke-linecap:round;stroke-linejoin:round;stroke-width:2px;}.cls-2,.cls-4{fill:#98b9ea;}.cls-3{fill:#fff;}.cls-4{stroke:#deeaff;}.cls-5,.cls-6{fill:none;}.cls-5{stroke:#436db5;}</style></defs><title>cluster</title><g id="Layer_2" data-name="Layer 2"><g id="Objects"><path class="cls-1" d="M82.11,68.72,64,58.28a8.94,8.94,0,0,0-8.06,0L37.89,68.72H10.05V86.16a2.83,2.83,0,0,0,1.67,2.33L56,114A8.94,8.94,0,0,0,64,114l44.25-25.55A2.83,2.83,0,0,0,110,86.16V68.72Z"/><path class="cls-2" d="M64,114l44.25-25.55A2.83,2.83,0,0,0,110,86.16V68.72H82.11L64,58.28a8.25,8.25,0,0,0-4-1V115A8.25,8.25,0,0,0,64,114Z"/><line class="cls-1" x1="40.38" y1="96.98" x2="27.3" y2="89.43"/><path class="cls-3" d="M108.28,66.39,64,40.84a8.94,8.94,0,0,0-8.06,0L11.72,66.39c-2.23,1.29-2.23,3.37,0,4.66L56,96.6a8.94,8.94,0,0,0,8.06,0l44.25-25.55C110.51,69.76,110.51,67.68,108.28,66.39Z"/><polygon class="cls-4" points="97.92 94.47 74.54 107.97 74.54 99.91 97.92 86.41 97.92 94.47"/><path class="cls-5" d="M108.28,66.39,64,40.84a8.94,8.94,0,0,0-8.06,0L11.72,66.39a2.82,2.82,0,0,0-1.67,2.33V86.16a2.83,2.83,0,0,0,1.67,2.33L56,114A8.94,8.94,0,0,0,64,114l44.25-25.55A2.83,2.83,0,0,0,110,86.16V68.72A2.82,2.82,0,0,0,108.28,66.39Z"/><ellipse class="cls-2" cx="98.53" cy="68.72" rx="2.27" ry="1.31"/><ellipse class="cls-2" cx="60" cy="90.97" rx="2.27" ry="1.31"/><ellipse class="cls-2" cx="60" cy="46.47" rx="2.27" ry="1.31"/><ellipse class="cls-2" cx="21.47" cy="68.72" rx="2.27" ry="1.31"/><path class="cls-1" d="M82.11,51.28,64,40.84a8.94,8.94,0,0,0-8.06,0L37.89,51.28H10.05V68.72a2.83,2.83,0,0,0,1.67,2.33L56,96.6a8.94,8.94,0,0,0,8.06,0l44.25-25.55A2.83,2.83,0,0,0,110,68.72V51.28Z"/><path class="cls-2" d="M64,96.6l44.25-25.55A2.83,2.83,0,0,0,110,68.72V51.28H82.11L64,40.84a8.25,8.25,0,0,0-4-1V97.56A8.25,8.25,0,0,0,64,96.6Z"/><line class="cls-1" x1="40.38" y1="79.54" x2="27.3" y2="71.99"/><path class="cls-3" d="M108.28,49,64,23.4a8.94,8.94,0,0,0-8.06,0L11.72,49c-2.23,1.29-2.23,3.37,0,4.66L56,79.16a8.94,8.94,0,0,0,8.06,0l44.25-25.55C110.51,52.32,110.51,50.24,108.28,49Z"/><polygon class="cls-4" points="97.92 77.03 74.54 90.53 74.54 82.47 97.92 68.97 97.92 77.03"/><path class="cls-5" d="M108.28,49,64,23.4a8.94,8.94,0,0,0-8.06,0L11.72,49a2.83,2.83,0,0,0-1.67,2.33V68.72a2.83,2.83,0,0,0,1.67,2.33L56,96.6a8.94,8.94,0,0,0,8.06,0l44.25-25.55A2.83,2.83,0,0,0,110,68.72V51.28A2.83,2.83,0,0,0,108.28,49Z"/><ellipse class="cls-2" cx="98.53" cy="51.28" rx="2.27" ry="1.31"/><ellipse class="cls-2" cx="60" cy="73.53" rx="2.27" ry="1.31"/><ellipse class="cls-2" cx="60" cy="29.03" rx="2.27" ry="1.31"/><ellipse class="cls-2" cx="21.47" cy="51.28" rx="2.27" ry="1.31"/><path class="cls-1" d="M82.11,33.84,64,23.4a8.94,8.94,0,0,0-8.06,0L37.89,33.84H10.05V51.28a2.82,2.82,0,0,0,1.67,2.33L56,79.16a8.94,8.94,0,0,0,8.06,0l44.25-25.55A2.82,2.82,0,0,0,110,51.28V33.84Z"/><path class="cls-2" d="M64,79.16l44.25-25.55A2.82,2.82,0,0,0,110,51.28V33.84H82.11L64,23.4a8.25,8.25,0,0,0-4-1V80.12A8.25,8.25,0,0,0,64,79.16Z"/><line class="cls-1" x1="40.38" y1="62.1" x2="27.3" y2="54.55"/><path class="cls-3" d="M108.28,31.51,64,6A8.94,8.94,0,0,0,56,6L11.72,31.51c-2.23,1.29-2.23,3.37,0,4.66L56,61.72a8.94,8.94,0,0,0,8.06,0l44.25-25.55C110.51,34.88,110.51,32.8,108.28,31.51Z"/><polygon class="cls-4" points="97.92 59.59 74.54 73.09 74.54 65.03 97.92 51.53 97.92 59.59"/><path class="cls-5" d="M108.28,31.51,64,6A8.94,8.94,0,0,0,56,6L11.72,31.51a2.83,2.83,0,0,0-1.67,2.33V51.28a2.82,2.82,0,0,0,1.67,2.33L56,79.16a8.94,8.94,0,0,0,8.06,0l44.25-25.55A2.82,2.82,0,0,0,110,51.28V33.84A2.83,2.83,0,0,0,108.28,31.51Z"/><ellipse class="cls-2" cx="98.53" cy="33.84" rx="2.27" ry="1.31"/><ellipse class="cls-2" cx="60" cy="56.09" rx="2.27" ry="1.31"/><ellipse class="cls-2" cx="60" cy="11.59" rx="2.27" ry="1.31"/><ellipse class="cls-2" cx="21.47" cy="33.84" rx="2.27" ry="1.31"/><rect class="cls-6" width="120" height="120"/><rect class="cls-6" width="120" height="120"/></g></g></svg>