<svg xmlns="http://www.w3.org/2000/svg" viewBox="0 0 120 120"><defs><style>.cls-1{fill:#98b9ea;}.cls-2{fill:#deeaff;}.cls-3{fill:#fff;stroke:#98b9ea;}.cls-3,.cls-5{stroke-linecap:round;stroke-linejoin:round;stroke-width:2px;}.cls-4{fill:#436db5;}.cls-5,.cls-6{fill:none;}.cls-5{stroke:#436db5;}</style></defs><title>cog(1x1)</title><g id="Layer_2" data-name="Layer 2"><g id="Objects"><g id="cog_1x1_" data-name="cog(1x1)"><path class="cls-1" d="M73,39v-.29C73,37.21,71,36,68.4,36H51.61C49.05,36,47,37.21,47,38.68V39H5V81H5a1.89,1.89,0,0,0,.62,1.34L14,90.76c1.28,1.28,4.11,1.72,6.32,1l11-3.65A55.83,55.83,0,0,0,47,93.32v7.3c0,1.47,2.08,2.67,4.64,2.67H68.4c2.55,0,4.63-1.2,4.63-2.67v-7.3A55.83,55.83,0,0,0,88.7,88.09l11,3.65c2.21.74,5,.3,6.32-1l8.4-8.39A1.89,1.89,0,0,0,115,81h0V39Z"/><path class="cls-2" d="M88.7,88.09h0l11,3.65a7.74,7.74,0,0,0,3.28.3V53.79H88.7Z"/><path class="cls-2" d="M5.62,82.37,14,90.76a6,6,0,0,0,4.25,1.33V39H5V81H5A1.89,1.89,0,0,0,5.62,82.37Z"/><path class="cls-2" d="M31.3,88.09A55.83,55.83,0,0,0,47,93.32v-44H31.3V88.09Z"/><ellipse class="cls-2" cx="60" cy="50.16" rx="19.3" ry="11.14"/><line class="cls-3" x1="31.3" y1="63.96" x2="31.3" y2="88.09"/><line class="cls-3" x1="46.97" y1="76.49" x2="46.97" y2="100.62"/><line class="cls-3" x1="73.03" y1="76.49" x2="73.03" y2="100.62"/><line class="cls-3" x1="88.7" y1="63.96" x2="88.7" y2="88.09"/><path class="cls-1" d="M40.7,50.16c0,6.16,8.64,11.15,19.3,11.15V39C49.34,39,40.7,44,40.7,50.16Z"/><path class="cls-4" d="M44.87,57.06c3.53,2.58,9,4.25,15.13,4.25s11.6-1.67,15.13-4.25c-3.53-2.58-9-4.24-15.13-4.24S48.4,54.48,44.87,57.06Z"/><path class="cls-3" d="M112.68,59l-11-3.65a14.56,14.56,0,0,0,0-10.45l11-3.65c2.22-.74,3-2.38,1.7-3.66L106,29.24c-1.28-1.28-4.11-1.72-6.32-1l-11,3.65A55.83,55.83,0,0,0,73,26.68v-7.3c0-1.47-2.08-2.67-4.64-2.67H51.61c-2.56,0-4.64,1.2-4.64,2.67v7.3A55.83,55.83,0,0,0,31.3,31.91l-11-3.65c-2.21-.74-5-.3-6.32,1l-8.4,8.39c-1.28,1.28-.52,2.92,1.7,3.66l11,3.65a14.56,14.56,0,0,0,0,10.45L7.32,59c-2.22.74-3,2.37-1.7,3.65l8.4,8.4c1.28,1.28,4.11,1.72,6.32,1l11-3.66A55.52,55.52,0,0,0,47,73.65v7.29c0,1.48,2.08,2.68,4.64,2.68H68.39c2.56,0,4.64-1.2,4.64-2.68V73.65A55.52,55.52,0,0,0,88.7,68.41l11,3.66c2.21.74,5,.3,6.32-1l8.4-8.4C115.66,61.41,114.9,59.78,112.68,59ZM60,61.31c-10.66,0-19.3-5-19.3-11.15S49.34,39,60,39s19.3,5,19.3,11.14S70.66,61.31,60,61.31Z"/><path class="cls-5" d="M115,39a1.89,1.89,0,0,0-.62-1.34L106,29.24c-1.28-1.28-4.11-1.72-6.32-1l-11,3.65A55.83,55.83,0,0,0,73,26.68v-7.3c0-1.47-2.08-2.67-4.64-2.67H51.61c-2.56,0-4.64,1.2-4.64,2.67v7.3A55.83,55.83,0,0,0,31.3,31.91l-11-3.65c-2.21-.74-5-.3-6.32,1l-8.4,8.39a2,2,0,0,0-.58,1M60,61.31c-10.66,0-19.3-5-19.3-11.15S49.34,39,60,39s19.3,5,19.3,11.14S70.66,61.31,60,61.31Z"/><path class="cls-5" d="M5,39V81H5a1.89,1.89,0,0,0,.62,1.34L14,90.76c1.28,1.28,4.11,1.72,6.32,1l11-3.65A55.83,55.83,0,0,0,47,93.32v7.3c0,1.47,2.08,2.67,4.64,2.67H68.4c2.55,0,4.63-1.2,4.63-2.67v-7.3A55.83,55.83,0,0,0,88.7,88.09l11,3.65c2.21.74,5,.3,6.32-1l8.4-8.39A1.89,1.89,0,0,0,115,81h0V39"/><rect class="cls-6" width="120" height="120"/><rect class="cls-6" width="120" height="120"/></g></g></g></svg>