<svg xmlns="http://www.w3.org/2000/svg" viewBox="0 0 120 120"><defs><style>.cls-1,.cls-13,.cls-14{fill:#dfeab0;}.cls-1,.cls-14{stroke:#dfeab0;}.cls-1,.cls-10,.cls-11,.cls-12,.cls-2,.cls-4,.cls-5,.cls-6,.cls-9{stroke-linecap:round;stroke-linejoin:round;stroke-width:2px;}.cls-11,.cls-12,.cls-16,.cls-2,.cls-6,.cls-9{fill:none;}.cls-2{stroke:#c4d36c;}.cls-3{fill:#fff;}.cls-4{fill:#c4d36c;}.cls-12,.cls-4{stroke:#fff;}.cls-15,.cls-5{fill:#a7b23b;}.cls-5,.cls-6{stroke:#a7b23b;}.cls-10,.cls-7{fill:#deeaff;}.cls-8{fill:#98b9ea;}.cls-9{stroke:#436db5;}.cls-10,.cls-11{stroke:#98b9ea;}.cls-14{stroke-miterlimit:10;}</style></defs><title>computer-&amp;amp;-electronics</title><g id="Layer_2" data-name="Layer 2"><g id="Industries"><path class="cls-1" d="M76.19,1.2h0a1.91,1.91,0,0,0-1.94.15l-16.2,9.36a7.11,7.11,0,0,0-3,5.68V70.94a2.64,2.64,0,0,0,1,2.4h0L87,91.19l20.09-72.14Z"/><line class="cls-2" x1="77.9" y1="49.58" x2="77.9" y2="33.52"/><line class="cls-2" x1="64.93" y1="42.09" x2="64.93" y2="26.03"/><line class="cls-2" x1="71.42" y1="45.84" x2="71.42" y2="29.77"/><path class="cls-3" d="M76.19,1.2a1.91,1.91,0,0,0-1.94.15l-16.2,9.36a5.92,5.92,0,0,0-2.17,2.52l45.53,26.29,5.7-20.47L76.19,1.2Z"/><path class="cls-4" d="M105.16,81.69,89,91c-1.65.95-3-.06-3-2.25V34.24a7.09,7.09,0,0,1,3-5.68l16.19-9.36c1.64-.94,3,.06,3,2.25V76A7.15,7.15,0,0,1,105.16,81.69Z"/><path class="cls-5" d="M99.73,78.32,94.4,81.39A3.22,3.22,0,0,0,93.06,84v4.72l8-4.62V79.33C101.06,78.35,100.47,77.89,99.73,78.32Z"/><path class="cls-6" d="M107.11,19.05h0L76.19,1.2h0a1.91,1.91,0,0,0-1.94.15l-16.2,9.36a7.11,7.11,0,0,0-3,5.68V70.94a2.64,2.64,0,0,0,1,2.4h0L87,91.19h0A1.91,1.91,0,0,0,89,91l16.19-9.35a7.15,7.15,0,0,0,3-5.69V21.45A2.62,2.62,0,0,0,107.11,19.05Z"/><path class="cls-7" d="M61.9,106.49,42.38,117.76a2.88,2.88,0,0,1-2.59,0l-10.5-6.07a.78.78,0,0,1,0-1.49L48.81,98.93a2.86,2.86,0,0,1,2.58,0L61.9,105A.79.79,0,0,1,61.9,106.49Z"/><path class="cls-8" d="M56.49,101.87l-5.1-2.94a2.86,2.86,0,0,0-2.58,0L29.29,110.2a.78.78,0,0,0,0,1.49l5.09,3Z"/><path class="cls-9" d="M61.9,106.49,42.38,117.76a2.88,2.88,0,0,1-2.59,0l-10.5-6.07a.78.78,0,0,1,0-1.49L48.81,98.93a2.86,2.86,0,0,1,2.58,0L61.9,105A.79.79,0,0,1,61.9,106.49Z"/><path class="cls-10" d="M77.59,36.26l-5.43-3.13h0a.71.71,0,0,0-.74,0L13,66.92a2.71,2.71,0,0,0-1.14,2.17v45.78a1,1,0,0,0,.4.91h0l5.42,3.13,5.9-8.83L71.82,82.24A2.73,2.73,0,0,0,73,80.06V41.72Z"/><path class="cls-3" d="M53.81,92.24,73,59.08V41.72l4.63-5.46-5.43-3.13h0a.71.71,0,0,0-.74,0L13,66.92a2.4,2.4,0,0,0-.94,1.21Z"/><path class="cls-11" d="M77.59,36.26l-5.43-3.13h0a.71.71,0,0,0-.74,0L13,66.92a2.71,2.71,0,0,0-1.14,2.17v45.78a1,1,0,0,0,.4.91h0l5.42,3.13,5.9-8.83L71.82,82.24A2.73,2.73,0,0,0,73,80.06V41.72Z"/><path class="cls-7" d="M76.84,85.14,18.43,118.86c-.63.37-1.14,0-1.14-.86V72.22a2.72,2.72,0,0,1,1.14-2.17L76.84,36.32c.63-.36,1.14,0,1.14.86V83A2.73,2.73,0,0,1,76.84,85.14Z"/><path class="cls-12" d="M19.08,72.22a1.15,1.15,0,0,1,.28-.65L76.19,38.76V83a1.09,1.09,0,0,1-.28.65L19.08,116.42Z"/><path class="cls-3" d="M18.43,70.05a2.72,2.72,0,0,0-1.14,2.17V118c0,.84.51,1.23,1.14.86l8.07-4.66L68.77,41Z"/><path class="cls-11" d="M76.84,85.14,18.43,118.86c-.63.37-1.14,0-1.14-.86V72.22a2.72,2.72,0,0,1,1.14-2.17L76.84,36.32c.63-.36,1.14,0,1.14.86V83A2.73,2.73,0,0,1,76.84,85.14Z"/><path class="cls-9" d="M77.58,36.27h0l-5.43-3.13h0a.71.71,0,0,0-.74,0L13,66.92h0a1.57,1.57,0,0,0-.26.19.6.6,0,0,0-.08.08,1.45,1.45,0,0,0-.16.18l-.08.1-.14.21-.06.11a2.11,2.11,0,0,0-.16.34h0a2.75,2.75,0,0,0-.2,1v45.78a1,1,0,0,0,.4.91h0l5.42,3.13h0l.1,0a.64.64,0,0,0,.2,0,.93.93,0,0,0,.44-.14l8.07-4.66h0L76.84,85.14a2,2,0,0,0,.64-.63A2.91,2.91,0,0,0,78,83h0V37.18A1,1,0,0,0,77.58,36.27Z"/><path class="cls-13" d="M99.13,19.79l-8.84,5.1a2.33,2.33,0,0,1-2.12,0L84.87,23a.65.65,0,0,1,0-1.22l8.84-5.1a2.33,2.33,0,0,1,2.12,0l3.3,1.9A.65.65,0,0,1,99.13,19.79Z"/><path class="cls-14" d="M102.91,31.57l-11.7,6.75c-.36.21-.65,0-.65-.49v-2a1.54,1.54,0,0,1,.65-1.24l11.7-6.76c.36-.21.65,0,.65.49v2A1.55,1.55,0,0,1,102.91,31.57Z"/><line class="cls-2" x1="72.49" y1="9.51" x2="84.01" y2="16.16"/><ellipse class="cls-15" cx="102.87" cy="35.9" rx="1.54" ry="0.87" transform="translate(29.56 116.5) rotate(-66.95)"/><ellipse class="cls-15" cx="102.87" cy="71.79" rx="2.3" ry="1.3" transform="translate(-3.47 138.34) rotate(-66.95)"/><ellipse class="cls-13" cx="99.09" cy="73.97" rx="1.54" ry="0.87" transform="translate(-7.77 136.19) rotate(-66.95)"/><ellipse class="cls-15" cx="103.06" cy="47.97" rx="1.06" ry="0.6" transform="translate(18.56 124.02) rotate(-66.95)"/><ellipse class="cls-15" cx="100.06" cy="49.71" rx="1.06" ry="0.6" transform="translate(15.15 122.32) rotate(-66.95)"/><ellipse class="cls-15" cx="97.06" cy="51.44" rx="1.06" ry="0.6" transform="translate(11.73 120.61) rotate(-66.95)"/><ellipse class="cls-15" cx="94.07" cy="53.17" rx="1.06" ry="0.6" transform="translate(8.31 118.91) rotate(-66.95)"/><ellipse class="cls-15" cx="91.07" cy="54.9" rx="1.06" ry="0.6" transform="translate(4.9 117.2) rotate(-66.95)"/><ellipse class="cls-15" cx="103.06" cy="51.97" rx="1.06" ry="0.6" transform="translate(14.88 126.45) rotate(-66.95)"/><ellipse class="cls-15" cx="100.06" cy="53.71" rx="1.06" ry="0.6" transform="translate(11.46 124.75) rotate(-66.95)"/><ellipse class="cls-15" cx="97.06" cy="55.44" rx="1.06" ry="0.6" transform="translate(8.05 123.04) rotate(-66.95)"/><ellipse class="cls-15" cx="94.07" cy="57.17" rx="1.06" ry="0.6" transform="translate(4.63 121.34) rotate(-66.95)"/><ellipse class="cls-15" cx="91.07" cy="58.9" rx="1.06" ry="0.6" transform="translate(1.22 119.63) rotate(-66.95)"/><ellipse class="cls-15" cx="103.06" cy="55.97" rx="1.06" ry="0.6" transform="translate(11.2 128.89) rotate(-66.95)"/><ellipse class="cls-15" cx="100.06" cy="57.71" rx="1.06" ry="0.6" transform="translate(7.78 127.18) rotate(-66.95)"/><ellipse class="cls-15" cx="97.06" cy="59.44" rx="1.06" ry="0.6" transform="translate(4.37 125.48) rotate(-66.95)"/><ellipse class="cls-15" cx="94.07" cy="61.17" rx="1.06" ry="0.6" transform="translate(0.95 123.77) rotate(-66.95)"/><ellipse class="cls-15" cx="91.07" cy="62.9" rx="1.06" ry="0.6" transform="translate(-2.46 122.07) rotate(-66.95)"/><ellipse class="cls-15" cx="103.06" cy="59.97" rx="1.06" ry="0.6" transform="translate(7.52 131.32) rotate(-66.95)"/><ellipse class="cls-15" cx="100.06" cy="61.71" rx="1.06" ry="0.6" transform="translate(4.1 129.62) rotate(-66.95)"/><ellipse class="cls-15" cx="97.06" cy="63.44" rx="1.06" ry="0.6" transform="translate(0.69 127.91) rotate(-66.95)"/><ellipse class="cls-15" cx="94.07" cy="65.17" rx="1.06" ry="0.6" transform="translate(-2.73 126.21) rotate(-66.95)"/><ellipse class="cls-15" cx="91.07" cy="66.9" rx="1.06" ry="0.6" transform="translate(-6.14 124.5) rotate(-66.95)"/><ellipse class="cls-15" cx="103.06" cy="63.97" rx="1.06" ry="0.6" transform="translate(3.84 133.76) rotate(-66.95)"/><ellipse class="cls-15" cx="100.06" cy="65.71" rx="1.06" ry="0.6" transform="translate(0.42 132.05) rotate(-66.95)"/><ellipse class="cls-15" cx="97.06" cy="67.44" rx="1.06" ry="0.6" transform="translate(-2.99 130.35) rotate(-66.95)"/><ellipse class="cls-15" cx="94.07" cy="69.17" rx="1.06" ry="0.6" transform="translate(-6.41 128.64) rotate(-66.95)"/><ellipse class="cls-15" cx="91.07" cy="70.9" rx="1.06" ry="0.6" transform="translate(-9.83 126.94) rotate(-66.95)"/><ellipse class="cls-15" cx="103.06" cy="43.97" rx="1.06" ry="0.6" transform="translate(22.24 121.59) rotate(-66.95)"/><ellipse class="cls-15" cx="100.06" cy="45.71" rx="1.06" ry="0.6" transform="translate(18.83 119.88) rotate(-66.95)"/><ellipse class="cls-15" cx="97.06" cy="47.44" rx="1.06" ry="0.6" transform="translate(15.41 118.18) rotate(-66.95)"/><ellipse class="cls-15" cx="94.07" cy="49.17" rx="1.06" ry="0.6" transform="translate(11.99 116.47) rotate(-66.95)"/><ellipse class="cls-15" cx="91.07" cy="50.9" rx="1.06" ry="0.6" transform="translate(8.58 114.77) rotate(-66.95)"/><rect class="cls-16" width="120" height="120"/><rect class="cls-16" width="120" height="120"/></g></g></svg>