<svg xmlns="http://www.w3.org/2000/svg" viewBox="0 0 120 120"><defs><style>.cls-1,.cls-13,.cls-6{fill:#fff;}.cls-1,.cls-14,.cls-16,.cls-3,.cls-4{stroke:#98b9ea;}.cls-1,.cls-10,.cls-12,.cls-14,.cls-16,.cls-2,.cls-3,.cls-4,.cls-5,.cls-6,.cls-8,.cls-9{stroke-linecap:round;stroke-linejoin:round;}.cls-1,.cls-10,.cls-12,.cls-14,.cls-2,.cls-3,.cls-4,.cls-5,.cls-6,.cls-8,.cls-9{stroke-width:2px;}.cls-10,.cls-12,.cls-14,.cls-16,.cls-17,.cls-2,.cls-5{fill:none;}.cls-2{stroke:#deeaff;}.cls-11,.cls-3{fill:#deeaff;}.cls-15,.cls-4{fill:#98b9ea;}.cls-5{stroke:#436db5;}.cls-6,.cls-8,.cls-9{stroke:#dfeab0;}.cls-7,.cls-9{fill:#dfeab0;}.cls-8{fill:#c4d36c;}.cls-10{stroke:#a7b23b;}.cls-12{stroke:#fff;}.cls-16{stroke-width:4px;}</style></defs><title>construction-materials</title><g id="Layer_2" data-name="Layer 2"><g id="Industries"><polygon class="cls-1" points="35.21 44.33 103.59 83.81 119 74.91 50.62 35.43 35.21 44.33"/><path class="cls-2" d="M78.88,59.2a77.8,77.8,0,0,0,34.44,19"/><polygon class="cls-3" points="35.21 44.33 35.21 51.15 103.59 90.63 103.59 83.81 35.21 44.33"/><polygon class="cls-4" points="119 74.91 119 81.73 103.59 90.63 103.59 83.81 119 74.91"/><polygon class="cls-5" points="50.62 35.43 119 74.91 119 81.73 103.59 90.63 35.21 51.15 35.21 44.33 50.62 35.43"/><polygon class="cls-1" points="28.33 33.53 96.71 73.01 112.12 64.12 43.73 24.63 28.33 33.53"/><path class="cls-2" d="M83.47,47.57A121.72,121.72,0,0,1,104,68.5"/><path class="cls-2" d="M43.73,24.63C55.91,33.55,73.49,51,83.47,65.37"/><path class="cls-2" d="M36.45,28.84c3.87,3.95,11.88,11.21,14.78,17.91"/><polygon class="cls-3" points="28.33 33.53 28.33 40.35 96.71 79.83 96.71 73.01 28.33 33.53"/><polygon class="cls-4" points="112.12 64.12 112.12 70.94 96.71 79.83 96.71 73.01 112.12 64.12"/><polygon class="cls-5" points="43.73 24.63 112.12 64.12 112.12 70.94 96.71 79.83 28.33 40.35 28.33 33.53 43.73 24.63"/><polygon class="cls-6" points="66.21 76.96 57 71.64 38.59 82.28 47.79 87.59 66.21 76.96"/><polygon class="cls-7" points="60.01 77.49 56.08 75.22 44.79 81.74 48.72 84.01 60.01 77.49"/><polygon class="cls-8" points="66.21 85.24 47.79 95.87 47.79 87.59 66.21 76.96 66.21 85.24"/><polygon class="cls-9" points="38.59 90.56 47.79 95.87 47.79 87.59 38.59 82.28 38.59 90.56"/><polygon class="cls-10" points="57 71.64 38.59 82.27 38.59 90.56 47.79 95.87 66.21 85.24 66.21 76.96 57 71.64"/><polygon class="cls-6" points="89.57 90.44 80.36 85.13 61.94 95.76 71.15 101.08 89.57 90.44"/><polygon class="cls-7" points="83.36 90.98 79.43 88.71 68.15 95.22 72.08 97.5 83.36 90.98"/><polygon class="cls-8" points="89.57 98.73 71.15 109.36 71.15 101.08 89.57 90.44 89.57 98.73"/><polygon class="cls-9" points="61.94 104.04 71.15 109.36 71.15 101.08 61.94 95.76 61.94 104.04"/><polygon class="cls-10" points="80.36 85.13 61.94 95.76 61.94 104.04 71.15 109.36 89.57 98.73 89.57 90.44 80.36 85.13"/><path class="cls-11" d="M42,37.51H1.07L5.65,70h0c.67,4.72,7.51,8.44,15.86,8.44S36.72,74.71,37.39,70h0Z"/><path class="cls-12" d="M21.52,76.39c-8,0-13.39-3.47-13.84-6.69L7.43,68h0l-4-28.4L3.1,37.22A4.82,4.82,0,0,1,3,36.53a5,5,0,0,1,.3-1.7c1.63-4.62,9.45-8.11,18.18-8.11,10,0,18.49,4.5,18.49,9.81a4.82,4.82,0,0,1-.06.69l-.33,2.33h0l-4,28.5-.25,1.65C34.92,72.92,29.49,76.39,21.52,76.39Z"/><path class="cls-13" d="M21.52,37.51H1.07L5.65,70h0c.67,4.72,7.51,8.44,15.86,8.44h0Z"/><path class="cls-14" d="M3.59,55.16h0c.75,5.34,8.48,9.54,17.92,9.54s17.17-4.2,17.93-9.54h0"/><path class="cls-14" d="M42,37.51H1.07L5.65,70h0c.67,4.72,7.51,8.44,15.86,8.44S36.72,74.71,37.39,70h0Z"/><ellipse class="cls-13" cx="21.52" cy="36.53" rx="20.52" ry="11.85"/><ellipse class="cls-15" cx="21.52" cy="36.53" rx="20.52" ry="11.85"/><path class="cls-15" d="M21.52,24.69C10.19,24.69,1,30,1,36.53s9.19,11.85,20.52,11.85Z"/><path class="cls-11" d="M21.52,48.38c8.53,0,15.84-3,18.94-7.27-2.12-4.91-9.78-8.54-18.94-8.54S4.71,36.2,2.59,41.11C5.69,45.38,13,48.38,21.52,48.38Z"/><path class="cls-14" d="M21.52,48.38c8.53,0,15.84-3,18.94-7.27-2.12-4.91-9.78-8.54-18.94-8.54S4.71,36.2,2.59,41.11C5.69,45.38,13,48.38,21.52,48.38Z"/><ellipse class="cls-12" cx="21.52" cy="36.53" rx="18.88" ry="9.99"/><path class="cls-5" d="M42.05,36.53c0-6.54-9.19-11.84-20.53-11.84h0c-9.91,0-18.19,4.06-20.1,9.46A6.94,6.94,0,0,0,1,36.53a6.38,6.38,0,0,0,.09,1h0L5.65,70h0c.67,4.72,7.51,8.44,15.86,8.44S36.72,74.71,37.39,70h0L42,37.51h0A6.38,6.38,0,0,0,42.05,36.53Z"/><path class="cls-5" d="M15.28,17.76a23.45,23.45,0,0,1,6.16-5.37c8-4.65,14.56.28,14.56,11"/><path class="cls-16" d="M16.39,16.5a21.77,21.77,0,0,1,5.05-4.11,12.55,12.55,0,0,1,4.36-1.63"/><line class="cls-5" x1="6.87" y1="40.22" x2="6.87" y2="47.37"/><line class="cls-5" x1="36" y1="23.4" x2="36" y2="28.19"/><path class="cls-5" d="M6.87,40.22c0-7.79,3.44-16.5,8.41-22.46"/><rect class="cls-17" width="120" height="120"/><rect class="cls-17" width="120" height="120"/></g></g></svg>