<svg xmlns="http://www.w3.org/2000/svg" viewBox="0 0 120 120"><defs><style>.cls-1,.cls-14,.cls-6{fill:#fff;}.cls-10,.cls-2{fill:#98b9ea;}.cls-14,.cls-2,.cls-4{stroke:#98b9ea;}.cls-13,.cls-14,.cls-2,.cls-4,.cls-5,.cls-6,.cls-7,.cls-8,.cls-9{stroke-linecap:round;stroke-linejoin:round;}.cls-11,.cls-13,.cls-14,.cls-2,.cls-4,.cls-5,.cls-6,.cls-7,.cls-8,.cls-9{stroke-width:2px;}.cls-11,.cls-3{fill:#deeaff;}.cls-15,.cls-4,.cls-5,.cls-9{fill:none;}.cls-5{stroke:#436db5;}.cls-6,.cls-7,.cls-8{stroke:#c4d36c;}.cls-7{fill:#c4d36c;}.cls-12,.cls-8{fill:#dfeab0;}.cls-13,.cls-9{stroke:#a7b23b;}.cls-11{stroke:#fff;stroke-miterlimit:10;}.cls-13{fill:#a7b23b;}</style></defs><title>cut-downtime</title><g id="Layer_2" data-name="Layer 2"><g id="New_Icon_Set" data-name="New Icon Set"><path class="cls-1" d="M41.12,16.44,24.46,6.82a1.14,1.14,0,0,0-1.05,0L6.74,16.44l16.67,9.62a1.14,1.14,0,0,0,1.05,0Z"/><path class="cls-2" d="M23.93,99.49a1.09,1.09,0,0,0,.56-.15l16.63-9.6V16.44L24.49,26a1.09,1.09,0,0,1-.56.15"/><path class="cls-3" d="M23.93,26.19a1.12,1.12,0,0,1-.56-.15L6.74,16.44v73.3l16.63,9.6a1.12,1.12,0,0,0,.56.15"/><path class="cls-4" d="M41.12,16.44,24.46,6.82a1.14,1.14,0,0,0-1.05,0L6.74,16.44l16.67,9.62a1.14,1.14,0,0,0,1.05,0Z"/><line class="cls-2" x1="23.93" y1="26.19" x2="23.93" y2="99.49"/><path class="cls-5" d="M24.46,6.82a1.14,1.14,0,0,0-1.05,0L6.74,16.44v73.3l16.63,9.6a1.12,1.12,0,0,0,1.12,0l16.64-9.6V16.44Z"/><path class="cls-1" d="M58.32,51.68,41.65,42.06a1.14,1.14,0,0,0-1,0L23.93,51.68,40.6,61.3a1.14,1.14,0,0,0,1,0Z"/><path class="cls-2" d="M41.12,109.25a1.16,1.16,0,0,0,.57-.15l16.63-9.61V51.68l-16.63,9.6a1.16,1.16,0,0,1-.57.15"/><path class="cls-3" d="M41.12,61.43a1.15,1.15,0,0,1-.56-.15l-16.63-9.6V99.49l16.63,9.61a1.15,1.15,0,0,0,.56.15"/><path class="cls-4" d="M58.32,51.68,41.65,42.06a1.14,1.14,0,0,0-1,0L23.93,51.68,40.6,61.3a1.14,1.14,0,0,0,1,0Z"/><line class="cls-2" x1="41.12" y1="61.43" x2="41.12" y2="109.25"/><path class="cls-5" d="M41.65,42.06a1.14,1.14,0,0,0-1,0L23.93,51.68V99.49l16.63,9.61a1.14,1.14,0,0,0,1.13,0l16.63-9.61V51.68Z"/><path class="cls-6" d="M75.51,86.92,58.84,77.3a1.14,1.14,0,0,0-1.05,0L41.13,86.92l16.66,9.62a1.14,1.14,0,0,0,1.05,0Z"/><path class="cls-7" d="M58.32,119a1.12,1.12,0,0,0,.56-.15l16.63-9.6V86.92l-16.63,9.6a1.12,1.12,0,0,1-.56.15"/><path class="cls-8" d="M58.32,96.67a1.09,1.09,0,0,1-.56-.15l-16.63-9.6v22.33l16.63,9.6a1.09,1.09,0,0,0,.56.15"/><path class="cls-9" d="M58.84,77.3a1.14,1.14,0,0,0-1.05,0L41.12,86.92v22.33l16.64,9.6a1.12,1.12,0,0,0,1.12,0l16.63-9.6V86.92Z"/><path class="cls-3" d="M72.47,18.33l-1-1.63,7.58-4.38h0a11.11,11.11,0,0,1,5.68-1.48,16.77,16.77,0,0,1,8.37,2.51c11.11,6.41,20.15,23.63,20.15,38.39,0,8.17-2.75,14.22-7.33,16.87h0L98.35,73l-.65-1.81a17.26,17.26,0,0,1-7.76-2.49C78.83,62.29,69.79,45.06,69.79,30.31A24.64,24.64,0,0,1,72.47,18.33Z"/><path class="cls-10" d="M74.75,50.72l33.56-19.38a48.8,48.8,0,0,1,5,20.41c0,8.17-2.75,14.22-7.33,16.87h0L98.35,73l-.65-1.81a17.26,17.26,0,0,1-7.76-2.49C83.88,65.2,78.44,58.49,74.75,50.72Z"/><path class="cls-11" d="M92.66,74.48c7.91,0,13-7.21,13-18.35,0-14.76-9-32-20.15-38.39a16.83,16.83,0,0,0-8.38-2.51c-7.9,0-13,7.2-13,18.34,0,14.76,9,32,20.15,38.4A16.87,16.87,0,0,0,92.66,74.48Z"/><path class="cls-5" d="M71.47,16.7h0l7.58-4.38h0a11.11,11.11,0,0,1,5.68-1.48,16.77,16.77,0,0,1,8.37,2.51c11.11,6.41,20.15,23.63,20.15,38.39,0,8.17-2.75,14.22-7.33,16.87h0L98.35,73h0a11.21,11.21,0,0,1-5.68,1.48A16.87,16.87,0,0,1,84.29,72c-11.11-6.42-20.15-23.64-20.15-38.4C64.14,25.4,66.89,19.35,71.47,16.7Z"/><ellipse class="cls-1" cx="84.91" cy="44.85" rx="14.82" ry="26.2" transform="translate(-10.78 36.83) rotate(-23.05)"/><path class="cls-12" d="M96.21,51.37c0-8.2-4.92-17.7-11-21.42v8.52c2.59,1.67,4.65,5.72,4.65,9.22S87.62,53,84.91,51.4a10.79,10.79,0,0,1-4.25-5.73l-5.53,1.06c2,5.63,5.6,10.77,9.78,13.19C91.15,63.52,96.21,59.69,96.21,51.37Z"/><ellipse class="cls-1" cx="84.91" cy="44.85" rx="5.12" ry="9.05" transform="translate(-10.78 36.83) rotate(-23.05)"/><line class="cls-9" x1="75.13" y1="46.73" x2="85.17" y2="44.8"/><ellipse class="cls-13" cx="84.91" cy="44.85" rx="1.11" ry="1.96" transform="translate(-10.78 36.83) rotate(-23.05)"/><path class="cls-2" d="M80.15,5v7.15c0,2.2,3.08,4,6.88,4s6.87-1.78,6.87-4V5Z"/><path class="cls-3" d="M80.15,5v7.15c0,2.2,3.08,4,6.88,4V5Z"/><ellipse class="cls-14" cx="87.03" cy="4.97" rx="6.88" ry="3.97"/><path class="cls-5" d="M87,1c-3.8,0-6.88,1.78-6.88,4v7.15c0,2.2,3.08,4,6.88,4s6.87-1.78,6.87-4V5C93.9,2.78,90.82,1,87,1Z"/><path class="cls-15" d="M93.9,12.12a3.44,3.44,0,0,1-2,2.81,10.7,10.7,0,0,1-9.73,0,3.44,3.44,0,0,1-2-2.81,3.44,3.44,0,0,1,2-2.8c1.25-.72,3,.8,4.87.8s3.61-1.52,4.86-.8A3.44,3.44,0,0,1,93.9,12.12Z"/><rect class="cls-15" width="120" height="120"/><rect class="cls-15" width="120" height="120"/></g></g></svg>