<svg xmlns="http://www.w3.org/2000/svg" viewBox="0 0 120 120"><defs><style>.cls-1,.cls-2{fill:#deeaff;}.cls-1,.cls-4,.cls-5,.cls-6{stroke:#98b9ea;}.cls-1,.cls-14,.cls-16,.cls-4,.cls-5,.cls-6,.cls-7,.cls-8,.cls-9{stroke-linecap:round;stroke-linejoin:round;}.cls-1,.cls-14,.cls-16,.cls-4,.cls-5,.cls-6,.cls-7,.cls-8{stroke-width:2px;}.cls-3,.cls-5{fill:#fff;}.cls-14,.cls-15,.cls-16,.cls-4,.cls-8{fill:none;}.cls-10,.cls-6{fill:#98b9ea;}.cls-11,.cls-7,.cls-9{fill:#436db5;}.cls-7,.cls-8,.cls-9{stroke:#436db5;}.cls-9{stroke-width:1.5px;}.cls-12{fill:#dfeab0;}.cls-13{fill:#c4d36c;}.cls-14{stroke:#fff;}.cls-16{stroke:#a7b23b;}</style></defs><title>diversified-insurance</title><g id="Layer_2" data-name="Layer 2"><g id="Tech_Concepts" data-name="Tech Concepts"><path class="cls-1" d="M93.62,82.16h0L91.78,68.29H73.57L71.71,82.16h0a2.72,2.72,0,0,0,0,.49c0,3.51,4.92,6.35,11,6.35s11-2.84,11-6.35A4.07,4.07,0,0,0,93.62,82.16Z"/><path class="cls-2" d="M69.32,96.19h0L67.48,82.32h0c-.37-2.72-4.3-4.86-9.1-4.86s-8.73,2.14-9.09,4.86h0L47.41,96.19h0a4,4,0,0,0,0,.49c0,3.51,4.92,6.35,11,6.35s11-2.84,11-6.35A4,4,0,0,0,69.32,96.19Z"/><path class="cls-3" d="M57.93,77.48c-4.6.12-8.3,2.21-8.65,4.84h0L47.41,96.19h0a4,4,0,0,0,0,.49c0,3.42,4.68,6.2,10.55,6.34Z"/><path class="cls-4" d="M69.32,96.19h0L67.48,82.32h0c-.37-2.72-4.3-4.86-9.1-4.86s-8.73,2.14-9.09,4.86h0L47.41,96.19h0a4,4,0,0,0,0,.49c0,3.51,4.92,6.35,11,6.35s11-2.84,11-6.35A4,4,0,0,0,69.32,96.19Z"/><path class="cls-1" d="M42.87,79.31h0L41,65.44h0c-.37-2.72-4.3-4.86-9.1-4.86s-8.73,2.14-9.09,4.86h0L21,79.31h0a3.89,3.89,0,0,0,0,.49c0,3.51,4.92,6.35,11,6.35s11-2.84,11-6.35A3.89,3.89,0,0,0,42.87,79.31Z"/><path class="cls-3" d="M22.83,65.44h0L21,79.31h0a3.89,3.89,0,0,0,0,.49c0,3.51,4.92,6.35,11,6.35V60.58C27.12,60.58,23.19,62.72,22.83,65.44Z"/><path class="cls-4" d="M42.87,79.31h0L41,65.44h0c-.37-2.72-4.3-4.86-9.1-4.86s-8.73,2.14-9.09,4.86h0L21,79.31h0a3.89,3.89,0,0,0,0,.49c0,3.51,4.92,6.35,11,6.35s11-2.84,11-6.35A3.89,3.89,0,0,0,42.87,79.31Z"/><path class="cls-1" d="M15.75,21.91A20.09,20.09,0,0,1,10.38,6.79a2.55,2.55,0,0,1,4.47-1.54c4.45,5.16,11.81,4.92,11.81,4.92"/><path class="cls-3" d="M12.44,8.85c3.51,4.06,8.8,4.77,10.9,4.9l3.32-3.58s-7.36.24-11.81-4.92a2.55,2.55,0,0,0-4.47,1.54c0,.41,0,.8,0,1.19A2.48,2.48,0,0,1,12.44,8.85Z"/><path class="cls-4" d="M15.75,21.91A20.09,20.09,0,0,1,10.38,6.79a2.55,2.55,0,0,1,4.47-1.54c4.45,5.16,11.81,4.92,11.81,4.92"/><ellipse class="cls-3" cx="57.93" cy="45.82" rx="43.3" ry="49.08" transform="translate(-10.72 73.07) rotate(-60)"/><path class="cls-2" d="M79.57,8.32a55.63,55.63,0,0,0-5.78-2.89C90.28,18,96.12,39.43,86.63,55.86c-10.4,18-35.24,23.12-55.5,11.43A44.8,44.8,0,0,1,10.23,41.2c.1,16.14,9.6,32.62,26.05,42.12,23.47,13.55,52.19,7.75,64.15-13S103.05,21.87,79.57,8.32Z"/><ellipse class="cls-4" cx="57.93" cy="45.82" rx="43.3" ry="49.08" transform="translate(-10.72 73.07) rotate(-60)"/><ellipse class="cls-3" cx="24.26" cy="26.38" rx="5.77" ry="3.63" transform="translate(-10.72 34.2) rotate(-60)"/><path class="cls-2" d="M96.51,23.55l5.35-12.93c-2.54-16.92-18-.43-24.94,3,0,0,9.1,2.94,12,12S93.67,27,93.67,27Z"/><path class="cls-4" d="M76.92,13.66c6.94-3.47,22.4-20,24.94-3L96.51,23.55"/><path class="cls-5" d="M71.9,31.63c-7-10.19-31.32-12.13-23.91,18"/><path class="cls-2" d="M100,53.55h0c-1.86-1.68-4.73-1.79-8,.07-5.6,3.24-10.15,11.19-10.15,17.76,0,3.85,1.57,6.35,4,7.13v0l9.24,3,12.13-21.44Z"/><path class="cls-3" d="M101.19,70.8l6.07-10.72-6.49-5.84h0c-1.86-1.67-4.73-1.79-8,.08l-.08,0a6.93,6.93,0,0,0,.21,11.93Z"/><path class="cls-4" d="M81.91,71.39c0,3.85,1.57,6.35,4,7.13v0l9.24,3,12.13-21.44L100,53.55h0c-1.86-1.68-4.73-1.79-8,.07"/><path class="cls-1" d="M93.62,67.92a18.38,18.38,0,0,1,6.81-7.77c4.81-2.78,8.71-.46,8.71,5.18s-3.9,12.46-8.71,15.24C96.38,82.91,93,81.64,92,77.81"/><path class="cls-6" d="M88.68,24.23c4.65-11.92,19.31-31,10.42,3.28C99.1,27.51,96.78,21.91,88.68,24.23Z"/><path class="cls-6" d="M56,48c3.21-6.36,8.8-11.37,13.45-13.45C66.69,29.72,51.53,26.85,56,48Z"/><ellipse class="cls-7" cx="97.25" cy="45.57" rx="1.85" ry="2.53"/><circle class="cls-7" cx="82.12" cy="53.71" r="2.53"/><path class="cls-8" d="M107.26,60.08h0L105,58a39.49,39.49,0,0,0,.65-6.33q0-1.08,0-2.16a46.44,46.44,0,0,0-7.09-23,5,5,0,0,1,.57,1c2.71-10.45,3.23-15.93,2.52-18.19-2.44-11.46-12-4.5-19.24.75-.48-.32-1-.63-1.46-.93s-.89-.56-1.35-.82c-.9-.52-1.82-1-2.74-1.47l-.33-.17C58.74-2.15,38.63-.41,25.17,10.1a18.56,18.56,0,0,1-3.47-.65,14.06,14.06,0,0,1-6.85-4.2,2.48,2.48,0,0,0-2-.87,2.62,2.62,0,0,0-1.65.7,2.47,2.47,0,0,0-.73,1.3,2.7,2.7,0,0,0,0,.41,20.39,20.39,0,0,0,4.94,14.68A39.06,39.06,0,0,0,10.23,41.2h0A44.39,44.39,0,0,0,13,56.11l.06.17a49.77,49.77,0,0,0,2.46,5.56l.16.3c.44.83.91,1.66,1.4,2.48l.11.18c.53.88,1.09,1.74,1.68,2.59l.17.23c.52.74,1.06,1.46,1.62,2.18.13.16.25.32.38.47.32.41.66.81,1,1.21L21,79.31h0a3.89,3.89,0,0,0,0,.49c0,3.51,4.92,6.35,11,6.35a16.54,16.54,0,0,0,6.95-1.43,55.2,55.2,0,0,0,9.57,3.79l-1,7.68h0a4,4,0,0,0,0,.49,3.39,3.39,0,0,0,.06.64c0,.08,0,.16.05.23s.06.27.11.4.08.19.12.28.09.21.14.31a3.45,3.45,0,0,0,.2.32l.16.26a4.19,4.19,0,0,0,.28.34,1.51,1.51,0,0,0,.17.2c.11.12.24.24.36.36l.16.15c.15.13.31.25.47.37l.14.11c.18.13.37.25.57.37l.1.07c.22.13.44.25.68.37l.07,0c.24.12.5.23.77.34l0,0A17,17,0,0,0,58.37,103c6.07,0,11-2.84,11-6.35a4,4,0,0,0,0-.49h0l-.78-5.86a48.54,48.54,0,0,0,6.28-1.13c1-.26,2-.55,3-.87a17.87,17.87,0,0,0,4.88.67c6.07,0,11-2.84,11-6.35a4.07,4.07,0,0,0,0-.49h0L93.48,81l1.65.53h0a6.6,6.6,0,0,0,5.3-.94c4.81-2.78,8.71-9.6,8.71-15.24A6.9,6.9,0,0,0,107.26,60.08Z"/><ellipse class="cls-9" cx="97.2" cy="72.3" rx="1.65" ry="0.42" transform="translate(20.88 166.38) rotate(-87.59)"/><ellipse class="cls-9" cx="103.94" cy="68.42" rx="1.65" ry="0.42" transform="translate(31.21 169.38) rotate(-87.59)"/><path class="cls-10" d="M68,13.58A68.37,68.37,0,0,0,49.52,5.87a2.49,2.49,0,0,0-2,.33L45.85,7.32a2,2,0,0,0,.44,3.57,137.22,137.22,0,0,1,17.58,7.26,2.5,2.5,0,0,0,1.17.26,2.35,2.35,0,0,0,1.31-.4L68,17a2,2,0,0,0,.92-1.71A2,2,0,0,0,68,13.58Z"/><path class="cls-11" d="M49.58,9.12a2.52,2.52,0,0,0-2,.33L45.9,10.57l-.09.08a2.16,2.16,0,0,0,.48.24,137.22,137.22,0,0,1,17.58,7.26,2.5,2.5,0,0,0,1.17.26,2.35,2.35,0,0,0,1.31-.4L68,17l.09-.08L68,16.83A67.88,67.88,0,0,0,49.58,9.12Z"/><path class="cls-12" d="M28.19,105.93l-.2-.12c-5.6-3.24-14.69-3.24-20.3,0l-.19.12h-4v4.78c0,2.12,1.4,4.24,4.2,5.86,5.61,3.24,14.7,3.24,20.3,0,2.81-1.62,4.21-3.74,4.21-5.86v-4.78Z"/><path class="cls-13" d="M28,116.57c2.81-1.62,4.21-3.74,4.21-5.86v-4.78h-4l-.2-.12a20.7,20.7,0,0,0-10.15-2.43V119A20.7,20.7,0,0,0,28,116.57Z"/><ellipse class="cls-12" cx="17.84" cy="105.93" rx="14.35" ry="8.29"/><ellipse class="cls-14" cx="17.84" cy="105.93" rx="14.35" ry="8.29"/><ellipse class="cls-15" cx="17.84" cy="110.71" rx="14.35" ry="8.29"/><path class="cls-16" d="M32.2,110.71v-4.78h0c0-2.12-1.4-4.24-4.21-5.86-5.6-3.24-14.69-3.24-20.3,0-2.8,1.62-4.2,3.74-4.2,5.86h0v4.78c0,2.12,1.4,4.24,4.2,5.86A20.76,20.76,0,0,0,17.84,119c.46,0,.92,0,1.38,0a24.41,24.41,0,0,0,2.71-.3c.44-.08.88-.17,1.31-.27A17.3,17.3,0,0,0,28,116.57a9,9,0,0,0,3.62-3.5A5.19,5.19,0,0,0,32.2,110.71Z"/><path class="cls-13" d="M23.4,108.25l1.52.88-1.35.78-1.48-.86a12,12,0,0,1-2.27.91,9.72,9.72,0,0,1-2.2.42L16.71,109a11.79,11.79,0,0,0,1.84-.34A9.75,9.75,0,0,0,20.3,108L18,106.71a22,22,0,0,1-2.13.65,7.09,7.09,0,0,1-2,.16,4.22,4.22,0,0,1-1.91-.59,1.85,1.85,0,0,1-1.12-1.6c0-.62.46-1.27,1.38-1.94l-1.51-.87,1.35-.78,1.48.85a11.09,11.09,0,0,1,3.59-1.11l1,1.35a10.55,10.55,0,0,0-2.77.8L17.72,105a17.86,17.86,0,0,1,2.09-.65,7,7,0,0,1,1.94-.16,4.21,4.21,0,0,1,1.9.58,1.79,1.79,0,0,1,1.1,1.57A2.77,2.77,0,0,1,23.4,108.25Zm-8.5-2.47a5,5,0,0,0,1.13-.22l-1.94-1.12a.88.88,0,0,0-.37.66.62.62,0,0,0,.38.5,1.48,1.48,0,0,0,.8.18m4.82.34,1.88,1.09a.92.92,0,0,0,.37-.63.56.56,0,0,0-.34-.48,1.49,1.49,0,0,0-.81-.18,5.39,5.39,0,0,0-1.1.2"/><path class="cls-12" d="M112.5,105.72l-.19-.12c-5.61-3.23-14.7-3.23-20.3,0l-.2.12h-4v4.79c0,2.12,1.4,4.24,4.21,5.86,5.6,3.23,14.69,3.23,20.3,0,2.8-1.62,4.2-3.74,4.2-5.86v-4.79Z"/><path class="cls-13" d="M112.31,116.37c2.8-1.62,4.2-3.74,4.2-5.86v-4.79h-4l-.19-.12a20.87,20.87,0,0,0-10.15-2.42v15.61A20.75,20.75,0,0,0,112.31,116.37Z"/><ellipse class="cls-12" cx="102.16" cy="105.72" rx="14.35" ry="8.29"/><ellipse class="cls-14" cx="102.16" cy="105.72" rx="14.35" ry="8.29"/><ellipse class="cls-15" cx="102.16" cy="110.51" rx="14.35" ry="8.29"/><path class="cls-16" d="M116.51,110.51v-4.79h0c0-2.12-1.4-4.24-4.2-5.86-5.61-3.23-14.7-3.23-20.3,0-2.81,1.62-4.21,3.74-4.21,5.86h0v4.79c0,2.12,1.4,4.24,4.21,5.86a20.7,20.7,0,0,0,10.15,2.42c.46,0,.91,0,1.37,0a23.89,23.89,0,0,0,2.71-.31c.45-.07.89-.16,1.32-.26a17.76,17.76,0,0,0,4.75-1.82,9,9,0,0,0,3.61-3.5A5.22,5.22,0,0,0,116.51,110.51Z"/><path class="cls-13" d="M107.71,108l1.52.88-1.35.78-1.48-.85a12.63,12.63,0,0,1-2.27.9,10.41,10.41,0,0,1-2.19.43l-.92-1.39a10.73,10.73,0,0,0,1.84-.34,9,9,0,0,0,1.75-.63l-2.28-1.32a22,22,0,0,1-2.13.65,7.05,7.05,0,0,1-2,.17,4.47,4.47,0,0,1-1.92-.59,1.85,1.85,0,0,1-1.12-1.6,2.7,2.7,0,0,1,1.38-1.94l-1.51-.88,1.35-.78,1.48.85a11.35,11.35,0,0,1,3.59-1.11l1,1.36a10.64,10.64,0,0,0-2.78.79l2.32,1.34a20,20,0,0,1,2.09-.65,7.38,7.38,0,0,1,1.95-.16,4.21,4.21,0,0,1,1.89.58,1.81,1.81,0,0,1,1.1,1.58C109.05,106.73,108.6,107.37,107.71,108Zm-8.5-2.47a4.39,4.39,0,0,0,1.13-.22l-1.94-1.12a.94.94,0,0,0-.37.67.65.65,0,0,0,.38.5,1.48,1.48,0,0,0,.8.17m4.82.35,1.88,1.08a.89.89,0,0,0,.37-.63.56.56,0,0,0-.33-.48,1.44,1.44,0,0,0-.82-.17,4.78,4.78,0,0,0-1.1.2"/><path class="cls-12" d="M28.19,101.14,28,101c-5.6-3.24-14.69-3.24-20.3,0a1.18,1.18,0,0,1-.19.11h-4v4.79c0,2.12,1.4,4.24,4.2,5.86,5.61,3.23,14.7,3.23,20.3,0,2.81-1.62,4.21-3.74,4.21-5.86v-4.79Z"/><path class="cls-13" d="M28,111.79c2.81-1.62,4.21-3.74,4.21-5.86v-4.79h-4L28,101A20.7,20.7,0,0,0,17.84,98.6v15.62A20.7,20.7,0,0,0,28,111.79Z"/><ellipse class="cls-12" cx="17.84" cy="101.14" rx="14.35" ry="8.29"/><ellipse class="cls-14" cx="17.84" cy="101.14" rx="14.35" ry="8.29"/><ellipse class="cls-15" cx="17.84" cy="105.93" rx="14.35" ry="8.29"/><path class="cls-16" d="M32.2,105.93v-4.79h0c0-2.12-1.4-4.24-4.21-5.85-5.6-3.24-14.69-3.24-20.3,0-2.8,1.61-4.2,3.73-4.2,5.85h0v4.79c0,2.12,1.4,4.24,4.2,5.86a20.76,20.76,0,0,0,10.15,2.43c.46,0,.92,0,1.38,0a22.25,22.25,0,0,0,2.71-.31c.44-.07.88-.16,1.31-.26A17.63,17.63,0,0,0,28,111.79a9,9,0,0,0,3.62-3.5A5.22,5.22,0,0,0,32.2,105.93Z"/><path class="cls-13" d="M23.4,103.46l1.52.88-1.35.79-1.48-.86a11.93,11.93,0,0,1-2.27.9,9.25,9.25,0,0,1-2.2.43l-.91-1.39a11.72,11.72,0,0,0,1.84-.33,9.75,9.75,0,0,0,1.75-.64L18,101.92a19.54,19.54,0,0,1-2.13.65,7.09,7.09,0,0,1-2,.17,4.34,4.34,0,0,1-1.91-.59,1.85,1.85,0,0,1-1.12-1.6c0-.63.46-1.27,1.38-1.94l-1.51-.87L12.12,97l1.48.86a11.37,11.37,0,0,1,3.59-1.12l1,1.36a10.56,10.56,0,0,0-2.77.79l2.32,1.34a20,20,0,0,1,2.09-.65,7,7,0,0,1,1.94-.15,4.32,4.32,0,0,1,1.9.57,1.81,1.81,0,0,1,1.1,1.58A2.76,2.76,0,0,1,23.4,103.46ZM14.9,101a4.47,4.47,0,0,0,1.13-.22l-1.94-1.12c-.26.25-.39.47-.37.67a.65.65,0,0,0,.38.5,1.48,1.48,0,0,0,.8.17m4.82.35,1.88,1.08a.92.92,0,0,0,.37-.63.54.54,0,0,0-.34-.47,1.41,1.41,0,0,0-.81-.18,4.78,4.78,0,0,0-1.1.2"/><rect class="cls-15" width="120" height="120"/><rect class="cls-15" width="120" height="120"/></g></g></svg>