<svg xmlns="http://www.w3.org/2000/svg" viewBox="0 0 120 120"><defs><style>.cls-1,.cls-10,.cls-11,.cls-2,.cls-3,.cls-4{fill:none;}.cls-1,.cls-2{stroke:#a7b23b;}.cls-1,.cls-10,.cls-2,.cls-3,.cls-4,.cls-5,.cls-8,.cls-9{stroke-linecap:round;stroke-linejoin:round;stroke-width:2px;}.cls-2,.cls-4{stroke-dasharray:0 6.03;}.cls-3,.cls-4{stroke:#436db5;}.cls-5{fill:#deeaff;stroke:#deeaff;}.cls-6,.cls-8,.cls-9{fill:#fff;}.cls-7{fill:#dfeab0;}.cls-8{stroke:#c4d36c;}.cls-10,.cls-9{stroke:#98b9ea;}</style></defs><title>document(1x1)</title><g id="Layer_2" data-name="Layer 2"><g id="Objects"><g id="document_1x1_" data-name="document(1x1)"><line class="cls-1" x1="30.54" y1="109.89" x2="30.54" y2="109.89"/><line class="cls-2" x1="35.77" y1="112.91" x2="43.6" y2="117.43"/><line class="cls-1" x1="46.21" y1="118.94" x2="46.21" y2="118.94"/><line class="cls-3" x1="73.79" y1="1.06" x2="73.79" y2="1.06"/><line class="cls-4" x1="79.01" y1="4.08" x2="86.85" y2="8.6"/><line class="cls-3" x1="89.46" y1="10.11" x2="89.46" y2="10.11"/><path class="cls-5" d="M41.16,37.17V19.83a4.51,4.51,0,0,0-.55.82l-9.84,18.8a4.65,4.65,0,0,0-.55,2.08v3.71l9.62-5.56A3.14,3.14,0,0,0,41.16,37.17Z"/><path class="cls-6" d="M40.61,20.65l-9.84,18.8a4.65,4.65,0,0,0-.55,2.08v67.61c0,.69.42,1,.94.71l42-24.27a2.24,2.24,0,0,0,.94-1.78v-82c0-.69-.42-1-.94-.71L41.93,19.16A3.61,3.61,0,0,0,40.61,20.65Z"/><path class="cls-7" d="M41.16,36.8V19.72a4.66,4.66,0,0,0-.54.8L30.93,39a4.52,4.52,0,0,0-.54,2.05v3.65l9.48-5.47A3.1,3.1,0,0,0,41.16,36.8Z"/><path class="cls-8" d="M30.4,40.4l9.82-5.68a2.24,2.24,0,0,0,.94-1.78V19.83a4.51,4.51,0,0,0-.55.82l-4.92,9.4-4.92,9.4A4.57,4.57,0,0,0,30.4,40.4Z"/><line class="cls-8" x1="64.7" y1="70.9" x2="39.64" y2="85.36"/><line class="cls-8" x1="64.7" y1="60" x2="39.64" y2="74.47"/><line class="cls-8" x1="64.7" y1="49.1" x2="39.64" y2="63.57"/><line class="cls-8" x1="64.7" y1="38.21" x2="39.64" y2="52.68"/><path class="cls-1" d="M40.61,20.65l-9.84,18.8a4.65,4.65,0,0,0-.55,2.08v67.61c0,.69.42,1,.94.71l42-24.27a2.24,2.24,0,0,0,.94-1.78v-82c0-.69-.42-1-.94-.71L41.93,19.16A3.61,3.61,0,0,0,40.61,20.65Z"/><path class="cls-5" d="M56.82,46.22V28.88a4.42,4.42,0,0,0-.55.81l-9.84,18.8a4.65,4.65,0,0,0-.55,2.08v3.71l9.62-5.55A3.15,3.15,0,0,0,56.82,46.22Z"/><path class="cls-6" d="M56.27,29.69l-9.84,18.8a4.65,4.65,0,0,0-.55,2.08v67.61c0,.69.42,1,.94.71l42-24.27a2.21,2.21,0,0,0,.94-1.78v-82c0-.69-.42-1-.94-.71l-31.25,18A3.68,3.68,0,0,0,56.27,29.69Z"/><path class="cls-5" d="M56.82,45.84V28.76a4.76,4.76,0,0,0-.54.81L46.59,48.08a4.65,4.65,0,0,0-.54,2.05v3.65l9.48-5.47A3.1,3.1,0,0,0,56.82,45.84Z"/><path class="cls-9" d="M46.06,49.44l9.82-5.68A2.21,2.21,0,0,0,56.82,42V28.88a4.42,4.42,0,0,0-.55.81l-4.92,9.4-4.92,9.4A5,5,0,0,0,46.06,49.44Z"/><line class="cls-10" x1="80.36" y1="79.94" x2="55.3" y2="94.41"/><line class="cls-10" x1="80.36" y1="69.04" x2="55.3" y2="83.51"/><line class="cls-10" x1="80.36" y1="58.15" x2="55.3" y2="72.62"/><line class="cls-9" x1="80.36" y1="47.25" x2="55.3" y2="61.72"/><path class="cls-3" d="M56.27,29.69l-9.84,18.8a4.65,4.65,0,0,0-.55,2.08v67.61c0,.69.42,1,.94.71l42-24.27a2.21,2.21,0,0,0,.94-1.78v-82c0-.69-.42-1-.94-.71l-31.25,18A3.68,3.68,0,0,0,56.27,29.69Z"/><rect class="cls-11" width="120" height="120"/><rect class="cls-11" width="120" height="120"/></g></g></g></svg>