<svg xmlns="http://www.w3.org/2000/svg" viewBox="0 0 120 120"><defs><style>.cls-1,.cls-14,.cls-15{fill:#98b9ea;}.cls-11,.cls-16,.cls-2,.cls-4,.cls-6,.cls-7{fill:none;}.cls-15,.cls-2{stroke:#deeaff;}.cls-2,.cls-7{stroke-miterlimit:10;}.cls-10,.cls-11,.cls-12,.cls-13,.cls-14,.cls-15,.cls-2,.cls-4,.cls-6,.cls-7,.cls-8,.cls-9{stroke-width:2px;}.cls-12,.cls-3{fill:#deeaff;}.cls-4,.cls-7{stroke:#436db5;}.cls-10,.cls-11,.cls-12,.cls-13,.cls-14,.cls-15,.cls-4,.cls-6,.cls-8,.cls-9{stroke-linecap:round;stroke-linejoin:round;}.cls-13,.cls-5,.cls-9{fill:#fff;}.cls-6{stroke:#fff;}.cls-8{fill:#c4d36c;}.cls-10,.cls-8,.cls-9{stroke:#c4d36c;}.cls-10{fill:#dfeab0;}.cls-11{stroke:#a7b23b;}.cls-12,.cls-13,.cls-14{stroke:#98b9ea;}</style></defs><title>education</title><g id="Layer_2" data-name="Layer 2"><g id="Industries"><path class="cls-1" d="M71.8,53.78h0L69.66,30.56h0C68.88,22.11,56.78,15.4,42,15.4S15,22.11,14.26,30.56h0L12.12,53.78h0c0,.31,0,.62,0,.93C12.08,64.24,25.46,72,42,72s29.88-7.72,29.88-17.25C71.84,54.4,71.83,54.09,71.8,53.78Z"/><path class="cls-2" d="M42,69.93c-15.09,0-27.85-7-27.85-15.22,0-.25,0-.5,0-.74l2.14-23.23C17,23.41,28.48,17.44,42,17.44s25,6,25.67,13.3L69.77,54c0,.23,0,.49,0,.74C69.81,63,57.06,69.93,42,69.93Z"/><path class="cls-3" d="M14.26,30.56h0L12.12,53.78h0c0,.31,0,.62,0,.93C12.08,64.24,25.46,72,42,72V15.4C27.14,15.4,15,22.11,14.26,30.56Z"/><path class="cls-1" d="M42,15.4a45.9,45.9,0,0,0-10.54,1.2L16.23,25.43a10.7,10.7,0,0,0-2,5.13h0l-1.32,14.3L42,61.6,71,44.74,69.66,30.56h0a10.4,10.4,0,0,0-1.76-4.81L51.79,16.44A46.08,46.08,0,0,0,42,15.4Z"/><path class="cls-4" d="M71.8,53.78h0L69.66,30.56h0C68.88,22.11,56.78,15.4,42,15.4S15,22.11,14.26,30.56h0L12.12,53.78h0c0,.31,0,.62,0,.93C12.08,64.24,25.46,72,42,72s29.88-7.72,29.88-17.25C71.84,54.4,71.83,54.09,71.8,53.78Z"/><path class="cls-3" d="M63.08,51.94c1.55-.89,2.81-.17,2.82,1.61v3.09a1.6,1.6,0,0,1-.8,1.39l-3.63,2.09a.79.79,0,0,1-1.19-.69V56.8A6.19,6.19,0,0,1,63.08,51.94Z"/><path class="cls-4" d="M63.08,51.94c1.55-.89,2.81-.17,2.82,1.61v3.09a1.6,1.6,0,0,1-.8,1.39l-3.63,2.09a.79.79,0,0,1-1.19-.69V56.8A6.19,6.19,0,0,1,63.08,51.94Z"/><ellipse class="cls-5" cx="41.82" cy="34.93" rx="14.39" ry="24.85" transform="matrix(0, -1, 1, 0, 6.77, 76.66)"/><polygon class="cls-3" points="82.65 27.51 41.96 51.16 1.01 27.51 41.7 3.87 82.65 27.51"/><polygon class="cls-1" points="82.65 27.51 82.64 32.79 41.95 56.43 41.96 51.16 82.65 27.51"/><polygon class="cls-3" points="41.96 51.16 41.95 56.43 1 32.79 1.01 27.51 41.96 51.16"/><polygon class="cls-6" points="82.65 27.51 41.96 51.16 1.01 27.51 41.7 3.87 82.65 27.51"/><polygon class="cls-6" points="82.65 27.51 82.64 32.79 41.95 56.43 41.96 51.16 82.65 27.51"/><polygon class="cls-6" points="41.96 51.16 41.95 56.43 1 32.79 1.01 27.51 41.96 51.16"/><polygon class="cls-4" points="41.7 3.87 1.01 27.51 1 32.79 41.95 56.43 82.64 32.79 82.65 27.51 41.7 3.87"/><path class="cls-3" d="M35.21,23.68c-3.7,2.15-3.68,5.64,0,7.8A13.8,13.8,0,0,0,42,33.09v-11A13.75,13.75,0,0,0,35.21,23.68Z"/><path class="cls-4" d="M63.51,51V41.59a2.74,2.74,0,0,0-1.36-2.36L48.71,31.48"/><ellipse class="cls-7" cx="41.96" cy="27.58" rx="5.51" ry="9.51" transform="translate(14.26 69.46) rotate(-89.84)"/><ellipse class="cls-1" cx="41.96" cy="27.58" rx="2.41" ry="4.16" transform="translate(14.26 69.46) rotate(-89.84)"/><path class="cls-3" d="M63.5,47.7c1.14-.66,2.07-.13,2.08,1.18a4.56,4.56,0,0,1-2.06,3.57c-1.15.66-2.07.13-2.08-1.18A4.56,4.56,0,0,1,63.5,47.7Z"/><path class="cls-4" d="M63.5,47.7c1.14-.66,2.07-.13,2.08,1.18a4.56,4.56,0,0,1-2.06,3.57c-1.15.66-2.07.13-2.08-1.18A4.56,4.56,0,0,1,63.5,47.7Z"/><path class="cls-8" d="M88,67.53a2.52,2.52,0,0,0-2.58-.2h0L45,90.62,73.2,116.13l40.36-23.3V82.32Z"/><path class="cls-9" d="M73.2,116.13,47.59,101.35c-2.17-1.26-3.94-4.64-3.94-7.54h0c0-2.9,1.77-4.24,3.94-3L73.2,105.62Z"/><polygon class="cls-10" points="113.56 82.32 73.2 105.61 73.2 116.13 113.56 92.83 113.56 82.32"/><path class="cls-11" d="M88,67.53a2.52,2.52,0,0,0-2.58-.2h0L45,90.62h0a3.46,3.46,0,0,0-1.37,3.18c0,2.9,1.77,6.28,3.94,7.54L73.2,116.13l40.36-23.3V82.32Z"/><polygon class="cls-12" points="72.83 98.05 81.43 103.01 119 81.32 109.48 75.83 72.83 98.05"/><path class="cls-13" d="M81.43,103,57.57,89.24a6.89,6.89,0,0,1-2.87-5.5h0c0-2.12,1.28-3.09,2.87-2.17L81.43,95.34Z"/><polygon class="cls-12" points="81.43 95.34 119 73.65 119 81.32 81.43 103.01 81.43 95.34"/><path class="cls-14" d="M57.57,81.57,81.43,95.34,119,73.65,95.14,59.88a1.83,1.83,0,0,0-1.88-.15h0L55.69,81.42h0A1.83,1.83,0,0,1,57.57,81.57Z"/><path class="cls-15" d="M103.15,74.21l-2.36,1.36a2.35,2.35,0,0,1-2.13,0l-8.84-5.1a.65.65,0,0,1,0-1.23l2.35-1.36a2.35,2.35,0,0,1,2.13,0l8.85,5.1A.65.65,0,0,1,103.15,74.21Z"/><line class="cls-15" x1="70.56" y1="82.95" x2="77.04" y2="86.69"/><path class="cls-4" d="M95.14,59.88a1.83,1.83,0,0,0-1.88-.15h0L55.69,81.42h0a2.53,2.53,0,0,0-1,2.32,6.89,6.89,0,0,0,2.87,5.5L81.43,103,119,81.32V73.65Z"/><rect class="cls-16" width="120" height="120"/><rect class="cls-16" width="120" height="120"/></g></g></svg>