<svg xmlns="http://www.w3.org/2000/svg" viewBox="0 0 120 120"><defs><style>.cls-1{fill:#fff;}.cls-2,.cls-6{fill:#98b9ea;}.cls-3{fill:#deeaff;}.cls-11,.cls-12,.cls-13,.cls-14,.cls-4,.cls-5,.cls-9{fill:none;}.cls-13,.cls-4,.cls-6{stroke:#436db5;}.cls-11,.cls-12,.cls-13,.cls-4,.cls-5,.cls-6,.cls-8,.cls-9{stroke-linecap:round;stroke-linejoin:round;stroke-width:2px;}.cls-5{stroke:#98b9ea;}.cls-7{fill:#dfeab0;}.cls-10,.cls-8{fill:#c4d36c;}.cls-8,.cls-9{stroke:#c4d36c;}.cls-11,.cls-12{stroke:#a7b23b;}.cls-12{stroke-dasharray:0 5.49;}.cls-13{stroke-dasharray:0 6.44;}</style></defs><title>EMR-VDI-applications</title><g id="Layer_2" data-name="Layer 2"><g id="Tech_Concepts" data-name="Tech Concepts"><path class="cls-1" d="M103.37,37.58c.83.48.84,1.25,0,1.73L56.76,66.42a3.3,3.3,0,0,1-3,0L16.64,45a.92.92,0,0,1,0-1.74L63.26,16.14a3.28,3.28,0,0,1,3,0Z"/><path class="cls-2" d="M55.25,73.13a3,3,0,0,0,1.49-.36l46.63-27.11a1,1,0,0,0,.61-.86l0-6.35a1.06,1.06,0,0,1-.62.86L56.76,66.42a3,3,0,0,1-1.5.36"/><path class="cls-3" d="M55.26,66.78a3.08,3.08,0,0,1-1.5-.36L16.64,45a1,1,0,0,1-.62-.87l0,6.34a1.05,1.05,0,0,0,.63.87L53.75,72.77a3.05,3.05,0,0,0,1.5.36"/><path class="cls-2" d="M22.87,48.58,16.64,45a1,1,0,0,1-.62-.87l0,6.34a1.05,1.05,0,0,0,.63.87l6.24,3.61Z"/><line class="cls-4" x1="22.86" y1="48.56" x2="72.47" y2="19.72"/><line class="cls-5" x1="66.75" y1="60.61" x2="66.75" y2="66.17"/><path class="cls-5" d="M63.26,16.14a3.28,3.28,0,0,1,3,0l37.12,21.44c.83.48.84,1.25,0,1.73L56.76,66.42a3.3,3.3,0,0,1-3,0L22.87,48.58"/><path class="cls-4" d="M103.37,37.58,66.25,16.14a3.28,3.28,0,0,0-3,0L16.63,43.25a1.06,1.06,0,0,0-.61.87h0l0,6.34a1.05,1.05,0,0,0,.63.87L53.75,72.77a3.28,3.28,0,0,0,3,0l46.63-27.11a1,1,0,0,0,.61-.86l0-6.35h0A1.07,1.07,0,0,0,103.37,37.58Z"/><line class="cls-6" x1="22.86" y1="54.91" x2="22.86" y2="48.58"/><path class="cls-3" d="M66.25,16.14a3.28,3.28,0,0,0-3,0L16.63,43.25a.92.92,0,0,0,0,1.74l6.23,3.59L72.44,19.72Z"/><path class="cls-4" d="M66.25,16.14a3.28,3.28,0,0,0-3,0L16.63,43.25a.92.92,0,0,0,0,1.74l6.23,3.59L72.44,19.72Z"/><path class="cls-2" d="M31,39.64c-.58-.34-.59-.88,0-1.22a2.31,2.31,0,0,1,2.11,0c.59.34.59.88,0,1.22A2.31,2.31,0,0,1,31,39.64Z"/><path class="cls-2" d="M26.78,42.09c-.58-.34-.59-.88,0-1.22a2.31,2.31,0,0,1,2.11,0c.59.34.59.88,0,1.22A2.31,2.31,0,0,1,26.78,42.09Z"/><path class="cls-2" d="M22.54,44.54c-.59-.34-.59-.88,0-1.22a2.31,2.31,0,0,1,2.11,0,.65.65,0,0,1,0,1.22A2.31,2.31,0,0,1,22.54,44.54Z"/><path class="cls-7" d="M29.32,101l5.39-.75L69.92,79.88a7.94,7.94,0,0,1,7.2,0l8.49,4.9,6.08,3.51,1.07.62,2.84-.7v5.15a2.55,2.55,0,0,1-1.49,2.08l-39.32,22.7a8,8,0,0,1-7.21,0l-16.51-9.53a3.1,3.1,0,0,1-1.75-2.51h0Z"/><path class="cls-8" d="M51.54,90.49,69.92,79.88a7.94,7.94,0,0,1,7.2,0l8.49,4.9,6.08,3.51,1.07.62,2.84-.7v5.15a2.55,2.55,0,0,1-1.49,2.08l-39.32,22.7a7.28,7.28,0,0,1-3.25.85Z"/><path class="cls-1" d="M95.57,88.69a2.32,2.32,0,0,1-1.25,1.6L55,113a8,8,0,0,1-7.2,0l-8.49-4.91-6.08-3.5-2.42-1.4c-2-1.15-2-3,0-4.16l39.32-22.7a7.33,7.33,0,0,1,3.61-.86c.32,0,.65,0,1,0a7.65,7.65,0,0,1,1.83.43,6.55,6.55,0,0,1,.8.38l16.51,9.53a3.26,3.26,0,0,1,1.73,2.22A2.08,2.08,0,0,1,95.57,88.69Z"/><path class="cls-7" d="M94.32,90.29l-31.86,18.4V80.76l7.67-4.43a7.33,7.33,0,0,1,3.61-.86c.32,0,.65,0,1,0a7.65,7.65,0,0,1,1.83.43,6.55,6.55,0,0,1,.8.38l16.51,9.53a3.26,3.26,0,0,1,1.73,2.22,2.08,2.08,0,0,1,0,.61A2.32,2.32,0,0,1,94.32,90.29Z"/><path class="cls-9" d="M95.57,88.69a2.32,2.32,0,0,1-1.25,1.6L55,113a8,8,0,0,1-7.2,0l-8.49-4.91-6.08-3.5-2.42-1.4c-2-1.15-2-3,0-4.16l39.32-22.7a7.33,7.33,0,0,1,3.61-.86c.32,0,.65,0,1,0a7.65,7.65,0,0,1,1.83.43,6.55,6.55,0,0,1,.8.38l16.51,9.53a3.26,3.26,0,0,1,1.73,2.22A2.08,2.08,0,0,1,95.57,88.69Z"/><ellipse class="cls-10" cx="73.57" cy="79.39" rx="1.78" ry="1.03"/><ellipse class="cls-7" cx="45.25" cy="104.33" rx="2.32" ry="1.34"/><path class="cls-11" d="M29.32,101a1.66,1.66,0,0,1,0-.32A2.32,2.32,0,0,1,30.6,99l31.86-18.4h0l7.46-4.3a7.94,7.94,0,0,1,7.2,0l8.49,4.9,6.08,3.51,2.42,1.39a2.55,2.55,0,0,1,1.49,2.08h0v5.15a2.55,2.55,0,0,1-1.49,2.08l-39.32,22.7a6,6,0,0,1-.77.36l-.32.1-.51.16-.43.08-.45.08-.49,0a2.4,2.4,0,0,1-.28,0h0a7.48,7.48,0,0,1-4-.84l-16.51-9.53a3.1,3.1,0,0,1-1.75-2.51h0V101Z"/><path class="cls-3" d="M64.11,23.16c-7.58,0-18.42,6.76-18.42,20.12,0,7.13,12.19,8,21.06,5.8s11.92-6.66,11.92-11.22C78.67,30.42,72.29,23.16,64.11,23.16Z"/><path class="cls-2" d="M57.45,47.8A2.21,2.21,0,0,1,55,50c-5.19-.54-9.32-2.58-9.32-6.73a22,22,0,0,1,1-6.54,5.52,5.52,0,0,1,5.28-3.85h0a5.52,5.52,0,0,1,5.52,5.52Z"/><path class="cls-4" d="M64.11,23.16c-7.58,0-18.42,6.76-18.42,20.12,0,7.13,12.19,8,21.06,5.8s11.92-6.66,11.92-11.22C78.67,30.42,72.29,23.16,64.11,23.16Z"/><circle class="cls-3" cx="62.09" cy="13.83" r="12.83"/><path class="cls-2" d="M62.09,26.65A12.83,12.83,0,1,0,49.27,13.83,12.82,12.82,0,0,0,62.09,26.65Zm-9.75-7.92C48.67,15.06,49,8.8,53,4.76S63.33.4,67,4.07s3.36,9.93-.68,14S56,22.4,52.34,18.73Z"/><circle class="cls-4" cx="62.09" cy="13.83" r="12.83"/><ellipse class="cls-1" cx="56.28" cy="8.01" rx="3.45" ry="2.14" transform="translate(10.82 42.14) rotate(-45)"/><ellipse class="cls-1" cx="72.34" cy="30.88" rx="1.66" ry="2.68" transform="translate(-0.65 60.19) rotate(-45)"/><line class="cls-11" x1="103.26" y1="50.52" x2="103.26" y2="50.52"/><line class="cls-12" x1="102.35" y1="55.94" x2="98.24" y2="80.32"/><line class="cls-11" x1="97.78" y1="83.02" x2="97.78" y2="83.02"/><line class="cls-4" x1="17.41" y1="57.7" x2="17.41" y2="57.7"/><line class="cls-13" x1="18.95" y1="63.95" x2="25.85" y2="92.08"/><line class="cls-4" x1="26.61" y1="95.2" x2="26.61" y2="95.2"/><rect class="cls-14" width="120" height="120"/><rect class="cls-14" width="120" height="120"/></g></g></svg>