<svg xmlns="http://www.w3.org/2000/svg" viewBox="0 0 120 120"><defs><style>.cls-1,.cls-10,.cls-6{fill:#fff;}.cls-1{stroke:#98b9ea;}.cls-1,.cls-10,.cls-11,.cls-12,.cls-13,.cls-14,.cls-3,.cls-4,.cls-5{stroke-linecap:round;stroke-linejoin:round;}.cls-1,.cls-10,.cls-12,.cls-13,.cls-14,.cls-3,.cls-4,.cls-5{stroke-width:2px;}.cls-2{fill:#deeaff;}.cls-3,.cls-7{fill:#98b9ea;}.cls-3,.cls-4,.cls-5{stroke:#436db5;}.cls-12,.cls-13,.cls-14,.cls-15,.cls-4{fill:none;}.cls-5{fill:#436db5;}.cls-8{fill:#c4d36c;}.cls-9{fill:#dfeab0;}.cls-10,.cls-13{stroke:#c4d36c;}.cls-11{fill:#a7b23b;}.cls-11,.cls-12{stroke:#a7b23b;}.cls-14{stroke:#fff;}</style></defs><title>encryptor(1x1)</title><g id="Layer_2" data-name="Layer 2"><g id="Objects"><g id="encryptor_1x1_" data-name="encryptor(1x1)"><path class="cls-1" d="M100.41,5.94,92,1.08h0a.76.76,0,0,0-.79,0L20.39,42a2.93,2.93,0,0,0-1.23,2.34v68.71a1.07,1.07,0,0,0,.43,1h0L28,118.92l7.08-13.41L91.2,67.59a2.93,2.93,0,0,0,1.22-2.34V16.59Z"/><path class="cls-2" d="M27.58,118.67V37.87L20.39,42a2.93,2.93,0,0,0-1.23,2.34v68.71a1.07,1.07,0,0,0,.43,1h0Z"/><path class="cls-3" d="M66.81,81.67,91.2,67.59a2.93,2.93,0,0,0,1.22-2.34V16.59l8-10.65L92,1.08h0a.76.76,0,0,0-.79,0L20.39,42a2.93,2.93,0,0,0-1.23,2.34v9.8Z"/><path class="cls-2" d="M69.08,73.18,92.42,40.61v-24l8-10.65L92,1.08h0a.76.76,0,0,0-.79,0L20.39,42a2.93,2.93,0,0,0-1.23,2.34h0Z"/><path class="cls-1" d="M99.61,78,28.8,118.85c-.67.39-1.22,0-1.22-.92V49.22a3,3,0,0,1,1.22-2.34L99.61,6c.68-.39,1.23,0,1.23.93v68.7A2.93,2.93,0,0,1,99.61,78Z"/><path class="cls-4" d="M100.41,5.94h0L92,1.08h0a.76.76,0,0,0-.79,0L20.39,42a2.93,2.93,0,0,0-1.23,2.34v68.71a1.07,1.07,0,0,0,.43,1h0L28,118.92h0a.76.76,0,0,0,.79-.06L99.61,78a2.93,2.93,0,0,0,1.23-2.34V6.93A1.08,1.08,0,0,0,100.41,5.94Z"/><path class="cls-5" d="M100.84,16.72V6.93c0-.9-.55-1.32-1.23-.93L28.8,46.88a3,3,0,0,0-1.22,2.34V59Z"/><ellipse class="cls-2" cx="38.79" cy="47.11" rx="2.12" ry="1.2" transform="translate(-19.75 64.36) rotate(-66.95)"/><ellipse class="cls-6" cx="44.11" cy="44.04" rx="2.12" ry="1.2" transform="translate(-13.69 67.38) rotate(-66.95)"/><ellipse class="cls-7" cx="33.25" cy="50.31" rx="2.12" ry="1.2" transform="translate(-26.06 61.21) rotate(-66.95)"/><path class="cls-4" d="M41,111.83,99.61,78a2.93,2.93,0,0,0,1.23-2.34V43.2"/><path class="cls-8" d="M59.3,82.11v30.76a2.5,2.5,0,0,0,1.48,2.06l4,2.3a7.9,7.9,0,0,0,7.12,0L91.28,106A2.5,2.5,0,0,0,92.75,104V73.22Z"/><path class="cls-9" d="M68.26,79.73l-9,2.38v30.76a2.5,2.5,0,0,0,1.48,2.06l4,2.3a7.25,7.25,0,0,0,3.5.85Z"/><path class="cls-10" d="M91.28,75.27l-19.4,11.2a7.84,7.84,0,0,1-7.12,0l-4-2.3c-2-1.14-2-3,0-4.11l19.4-11.2a7.88,7.88,0,0,1,7.11,0l4,2.3C93.24,72.3,93.24,74.14,91.28,75.27Z"/><path class="cls-11" d="M84.28,92c0-2-1.21-2.91-2.7-2a6.48,6.48,0,0,0-2.71,5.17c0,1.31.53,2.15,1.32,2.33l-.56,7,3.89-2.25L83,95.82A6.83,6.83,0,0,0,84.28,92Z"/><path class="cls-12" d="M91.28,71.16l-4-2.3a7.88,7.88,0,0,0-7.11,0l-19.4,11.2a2.5,2.5,0,0,0-1.48,2v30.76a2.5,2.5,0,0,0,1.48,2.06l4,2.3a7.9,7.9,0,0,0,7.12,0L91.28,106A2.5,2.5,0,0,0,92.75,104V73.22A2.5,2.5,0,0,0,91.28,71.16Z"/><path class="cls-9" d="M83,49.1c-2.59-1.49-5.82-1.34-8.86.42-5.44,3.13-9.7,11.13-9.7,18.19V81.32h0c0,1.19,1.67,2.16,3.74,2.16s3.75-1,3.75-2.16h0V67.71c0-4.41,2.78-9.88,6-11.71.78-.45,1.27-.47,1.38-.41.27.15.83,1.11.83,3.08V72.28h0c0,1.2,1.67,2.16,3.74,2.16s3.75-1,3.75-2.16h0V58.67C87.56,54.27,85.89,50.78,83,49.1Z"/><path class="cls-12" d="M83,49.1c-2.59-1.49-5.82-1.34-8.86.42-5.44,3.13-9.7,11.13-9.7,18.19V81.32h0c0,1.19,1.67,2.16,3.74,2.16s3.75-1,3.75-2.16h0V67.71c0-4.41,2.78-9.88,6-11.71.78-.45,1.27-.47,1.38-.41.27.15.83,1.11.83,3.08V72.28h0c0,1.2,1.67,2.16,3.74,2.16s3.75-1,3.75-2.16h0V58.67C87.56,54.27,85.89,50.78,83,49.1Z"/><path class="cls-13" d="M70.71,62.91a16,16,0,0,0-.8,4.8V81.05a3.19,3.19,0,0,1-1.75.43"/><path class="cls-13" d="M84.11,52.92a10.72,10.72,0,0,1,1.45,5.75V72a3.3,3.3,0,0,1-1.75.42"/><path class="cls-14" d="M68.53,59A19,19,0,0,1,74,52"/><rect class="cls-15" width="120" height="120"/><rect class="cls-15" width="120" height="120"/></g></g></g></svg>