<svg xmlns="http://www.w3.org/2000/svg" viewBox="0 0 120 120"><defs><style>.cls-1,.cls-10,.cls-2,.cls-3,.cls-4,.cls-7{fill:none;}.cls-1,.cls-2,.cls-3,.cls-4{stroke:#a7b23b;}.cls-1,.cls-2,.cls-3,.cls-4,.cls-7{stroke-linecap:round;stroke-linejoin:round;stroke-width:2px;}.cls-2{stroke-dasharray:0 5.99;}.cls-3{stroke-dasharray:0 6.08;}.cls-4{stroke-dasharray:0 6.11;}.cls-5{fill:#deeaff;}.cls-6{fill:#98b9ea;}.cls-7{stroke:#436db5;}.cls-8{fill:#fff;}.cls-9{fill:#dfeab0;}</style></defs><title>energy-utilities</title><g id="Layer_2" data-name="Layer 2"><g id="Industries"><line class="cls-1" x1="84.97" y1="51.46" x2="84.97" y2="51.46"/><path class="cls-2" d="M90.92,52.23c9,1.34,16.13,3.22,20.18,5.41"/><line class="cls-1" x1="113.55" y1="59.35" x2="113.55" y2="59.35"/><line class="cls-1" x1="65.47" y1="29.24" x2="65.47" y2="29.24"/><path class="cls-3" d="M69.32,24.54c4.14-4.84,7.9-8.44,11-10.46"/><line class="cls-1" x1="82.96" y1="12.65" x2="82.96" y2="12.65"/><line class="cls-1" x1="50.32" y1="29.15" x2="50.32" y2="29.15"/><path class="cls-4" d="M46.45,24.42c-4.2-4.88-8-8.5-11.08-10.48"/><line class="cls-1" x1="32.66" y1="12.56" x2="32.66" y2="12.56"/><path class="cls-1" d="M29.47,111.19C23.8,107.92,32,83.19,47.67,56"/><path class="cls-1" d="M86.4,111.19c5.66-3.27-2.49-28-18.21-55.23"/><path class="cls-1" d="M1,61.89C1,55.34,26.49,50,57.93,50"/><path class="cls-5" d="M69.3,87.81H46.58v11a3.91,3.91,0,0,0,.35,1.58h0l2.12,5h0c1,2.3,4.59,4,8.89,4s7.9-1.71,8.89-4h0l2.13-5h0a4.07,4.07,0,0,0,.34-1.58Z"/><path class="cls-6" d="M57.94,109.36c4.3,0,7.9-1.71,8.89-4h0l2.13-5h0a4.07,4.07,0,0,0,.34-1.58v-11H57.94Z"/><path class="cls-7" d="M46.58,97.75c0,3.62,5.09,6.56,11.36,6.56s11.36-2.94,11.36-6.56"/><path class="cls-7" d="M46.58,93.49c0,3.62,5.09,6.56,11.36,6.56S69.3,97.11,69.3,93.49"/><path class="cls-7" d="M69.3,87.81H46.58v11a3.91,3.91,0,0,0,.35,1.58h0l2.12,5h0c1,2.3,4.59,4,8.89,4s7.9-1.71,8.89-4h0l2.13-5h0a4.07,4.07,0,0,0,.34-1.58Z"/><path class="cls-8" d="M85.19,54.84a27.25,27.25,0,1,0-43,22.24,10.59,10.59,0,0,1,4.38,8.66v2h0s0,.06,0,.09c0,3.63,5.09,6.56,11.36,6.56S69.3,91.44,69.3,87.81a.28.28,0,0,0,0-.09h0v-2a10.58,10.58,0,0,1,4.43-8.63A27.22,27.22,0,0,0,85.19,54.84Z"/><path class="cls-7" d="M85.19,54.84a27.25,27.25,0,1,0-43,22.24,10.59,10.59,0,0,1,4.38,8.66v2h0s0,.06,0,.09c0,3.63,5.09,6.56,11.36,6.56S69.3,91.44,69.3,87.81a.28.28,0,0,0,0-.09h0v-2a10.58,10.58,0,0,1,4.43-8.63A27.22,27.22,0,0,0,85.19,54.84Z"/><path class="cls-8" d="M57.94,92.24c5.23,0,9.14-2.28,9.23-4.35v-.11a2.26,2.26,0,0,1,0-.26V85.74a12.73,12.73,0,0,1,5.28-10.4A25.11,25.11,0,0,0,59.88,29.8c-.65-.05-1.3-.08-1.94-.08A25.12,25.12,0,0,0,43.39,75.31a12.74,12.74,0,0,1,5.32,10.37v1.85a1.62,1.62,0,0,1,0,.22.62.62,0,0,1,0,.13C48.8,90,52.72,92.24,57.94,92.24Z"/><path class="cls-5" d="M57.94,91.24c-5,0-8.11-2.15-8.22-3.36v-.12a2.09,2.09,0,0,0,0-.25c0-.16,0-.59,0-1.15a2.25,2.25,0,0,1,.67-1.64A2.3,2.3,0,0,1,52,84a6.91,6.91,0,0,0,6.9-6.9V42.34A8.41,8.41,0,0,1,67.32,34a8,8,0,0,1,4.83,1.65A24.52,24.52,0,0,1,82,53.55a24.05,24.05,0,0,1-10.16,21,13.57,13.57,0,0,0-5.39,8.31c0,.23-.09.47-.13.7s-.07.49-.09.71l0,.14c0,.25,0,.42,0,.59s0,.52,0,.77v1.78a2.85,2.85,0,0,0,0,.3v.07C66,89.1,62.89,91.24,57.94,91.24Z"/><ellipse class="cls-5" cx="44.37" cy="42.11" rx="5.03" ry="2.93" transform="translate(-16.78 43.71) rotate(-45)"/><path class="cls-1" d="M86.4,12.58c5.66,3.28-2.49,28-18.21,55.23s-33.06,46.65-38.72,43.38"/><circle class="cls-9" cx="86.4" cy="12.58" r="4.14"/><ellipse class="cls-8" cx="84.99" cy="11.18" rx="2.35" ry="1.56" transform="translate(16.99 63.37) rotate(-45)"/><circle class="cls-1" cx="86.4" cy="12.58" r="4.14"/><path class="cls-1" d="M29.47,12.58c-5.67,3.28,2.48,28,18.2,55.23s33.06,46.65,38.73,43.38"/><circle class="cls-9" cx="29.47" cy="12.58" r="4.14"/><ellipse class="cls-8" cx="28.06" cy="11.18" rx="2.35" ry="1.56" transform="translate(0.31 23.12) rotate(-45)"/><circle class="cls-1" cx="29.47" cy="12.58" r="4.14"/><path class="cls-1" d="M114.86,61.89c0,6.54-25.49,11.85-56.93,11.85S1,68.43,1,61.89"/><circle class="cls-9" cx="114.86" cy="61.89" r="4.14"/><ellipse class="cls-8" cx="113.46" cy="60.48" rx="2.35" ry="1.56" transform="translate(-9.54 97.94) rotate(-45)"/><circle class="cls-1" cx="114.86" cy="61.89" r="4.14"/><rect class="cls-10" width="120" height="120"/><rect class="cls-10" width="120" height="120"/></g></g></svg>