<svg xmlns="http://www.w3.org/2000/svg" viewBox="0 0 120 120"><defs><style>.cls-1,.cls-10,.cls-11,.cls-2,.cls-5,.cls-6,.cls-7{fill:none;}.cls-1,.cls-2{stroke:#436db5;}.cls-1,.cls-10,.cls-2,.cls-3,.cls-5,.cls-6,.cls-7,.cls-8{stroke-linecap:round;stroke-linejoin:round;stroke-width:2px;}.cls-2,.cls-7{stroke-dasharray:0 6.07;}.cls-3,.cls-8{fill:#fff;}.cls-3,.cls-5{stroke:#c4d36c;}.cls-4{fill:#dfeab0;}.cls-6,.cls-7{stroke:#a7b23b;}.cls-10,.cls-8{stroke:#98b9ea;}.cls-9{fill:#deeaff;}</style></defs><title>envelope</title><g id="Layer_2" data-name="Layer 2"><g id="Objects"><line class="cls-1" x1="83.77" y1="5.17" x2="83.77" y2="5.17"/><line class="cls-2" x1="89.03" y1="8.2" x2="102.18" y2="15.8"/><line class="cls-1" x1="104.81" y1="17.31" x2="104.81" y2="17.31"/><path class="cls-3" d="M82.25,64.74,16.71,102.57c-1.28.75-2.32,0-2.32-1.76V47.56a5.57,5.57,0,0,1,2.32-4.44L82.25,5.28c1.28-.74,2.32,0,2.32,1.76V60.29A5.58,5.58,0,0,1,82.25,64.74Z"/><path class="cls-4" d="M48,47,14.58,101.94a1.35,1.35,0,0,0,2.13.63L82.25,64.74a5.3,5.3,0,0,0,2.13-3.1L50.93,45.32C50.08,44.91,48.88,45.61,48,47Z"/><path class="cls-5" d="M48,47,14.58,101.94a1.35,1.35,0,0,0,2.13.63L82.25,64.74a5.3,5.3,0,0,0,2.13-3.1L50.93,45.32C50.08,44.91,48.88,45.61,48,47Z"/><path class="cls-3" d="M52.21,60.11,84.38,5.91a1.35,1.35,0,0,0-2.13-.63L16.71,43.12a5.31,5.31,0,0,0-2.13,3.09L49.31,61.79C50.16,62.2,51.36,61.51,52.21,60.11Z"/><path class="cls-6" d="M83.6,63.37a3.38,3.38,0,0,0,.24-.41,2.12,2.12,0,0,0,.11-.21c.06-.11.11-.23.16-.34l.09-.23a3.62,3.62,0,0,0,.17-.53,4.92,4.92,0,0,0,.2-1.36V7a3.1,3.1,0,0,0-.19-1.13,1.74,1.74,0,0,0-.18-.33l-.09-.12A1.21,1.21,0,0,0,84,5.3l-.11-.09a.9.9,0,0,0-.24-.12l-.06,0a1,1,0,0,0-.35,0h-.11a1.47,1.47,0,0,0-.29,0l-.12,0a2.6,2.6,0,0,0-.42.19L16.71,43.11l-.42.3-.12.11a4,4,0,0,0-.29.29l-.11.12c-.12.15-.24.29-.35.45l-.06.11a3.26,3.26,0,0,0-.24.4,1.51,1.51,0,0,0-.11.22c-.06.11-.11.22-.16.33l-.09.24a3.16,3.16,0,0,0-.17.52,5,5,0,0,0-.2,1.36v53.25a3,3,0,0,0,.2,1.14,1.23,1.23,0,0,0,.17.32l.09.12a1.21,1.21,0,0,0,.16.16l.11.09a1.36,1.36,0,0,0,.24.13s0,0,.06,0a2,2,0,0,0,.35,0h.11a1.47,1.47,0,0,0,.29,0l.12,0a2,2,0,0,0,.42-.19L82.25,64.74q.21-.13.42-.3l.12-.11.29-.28.11-.13a5.37,5.37,0,0,0,.35-.45Z"/><line class="cls-6" x1="15.19" y1="102.69" x2="15.19" y2="102.69"/><line class="cls-7" x1="20.45" y1="105.72" x2="33.6" y2="113.31"/><line class="cls-6" x1="36.23" y1="114.83" x2="36.23" y2="114.83"/><path class="cls-8" d="M103.29,76.88,37.75,114.72c-1.28.74-2.32,0-2.32-1.76V59.71a5.58,5.58,0,0,1,2.32-4.45l65.54-37.83c1.28-.75,2.32,0,2.32,1.76V72.44A5.57,5.57,0,0,1,103.29,76.88Z"/><path class="cls-9" d="M69.07,59.15,35.62,114.09a1.35,1.35,0,0,0,2.13.63l65.54-37.84a5.31,5.31,0,0,0,2.13-3.09L72,57.47C71.12,57.06,69.92,57.75,69.07,59.15Z"/><path class="cls-10" d="M69.07,59.15,35.62,114.09a1.35,1.35,0,0,0,2.13.63l65.54-37.84a5.31,5.31,0,0,0,2.13-3.09L72,57.47C71.12,57.06,69.92,57.75,69.07,59.15Z"/><path class="cls-8" d="M73.25,72.26l32.17-54.2a1.35,1.35,0,0,0-2.13-.63L37.75,55.26a5.3,5.3,0,0,0-2.13,3.1L70.35,73.94C71.2,74.35,72.4,73.66,73.25,72.26Z"/><path class="cls-1" d="M104.64,75.51a3.26,3.26,0,0,0,.24-.4,1.51,1.51,0,0,0,.11-.22c.06-.11.11-.22.16-.33l.09-.24a3.16,3.16,0,0,0,.17-.52,5,5,0,0,0,.2-1.36V19.19a3,3,0,0,0-.2-1.14,1.23,1.23,0,0,0-.17-.32l-.09-.12-.16-.16-.11-.09a1.36,1.36,0,0,0-.24-.13l-.06,0a2,2,0,0,0-.35-.05h-.11a1.47,1.47,0,0,0-.29.05l-.12,0a2,2,0,0,0-.42.19L37.75,55.26l-.42.3-.12.11-.29.28-.11.13a5.37,5.37,0,0,0-.35.45l-.06.11a3.26,3.26,0,0,0-.24.4,2.12,2.12,0,0,0-.11.21c-.06.11-.11.23-.16.34l-.09.23a3.62,3.62,0,0,0-.17.53,4.92,4.92,0,0,0-.2,1.36V113a3.1,3.1,0,0,0,.19,1.13,1.74,1.74,0,0,0,.18.33l.09.12.16.16.11.09a.9.9,0,0,0,.24.12s0,0,.06,0a1,1,0,0,0,.35,0h.11a1.47,1.47,0,0,0,.29,0l.12,0a2.6,2.6,0,0,0,.42-.19l65.54-37.83q.21-.14.42-.3l.12-.11a4,4,0,0,0,.29-.29l.11-.12c.12-.15.24-.29.35-.45Z"/><rect class="cls-11" width="120" height="120"/><rect class="cls-11" width="120" height="120"/></g></g></svg>