<svg xmlns="http://www.w3.org/2000/svg" viewBox="0 0 120 120"><defs><style>.cls-1,.cls-4,.cls-5,.cls-6,.cls-7,.cls-8{fill:none;}.cls-2{fill:#dfeab0;}.cls-3{fill:#c4d36c;}.cls-4{stroke:#fff;}.cls-12,.cls-13,.cls-4,.cls-5,.cls-6,.cls-7,.cls-8,.cls-9{stroke-linecap:round;stroke-linejoin:round;stroke-width:2px;}.cls-5,.cls-8{stroke:#a7b23b;}.cls-6,.cls-7{stroke:#436db5;}.cls-7{stroke-dasharray:0 5.65;}.cls-8{stroke-dasharray:0 5.65;}.cls-11,.cls-9{fill:#deeaff;}.cls-12,.cls-13,.cls-9{stroke:#98b9ea;}.cls-10,.cls-12{fill:#98b9ea;}.cls-13{fill:#fff;}.cls-14{fill:#436db5;}</style></defs><title>fast-time-value</title><g id="Layer_2" data-name="Layer 2"><g id="Tech_Concepts" data-name="Tech Concepts"><rect class="cls-1" width="120" height="120"/><rect class="cls-1" width="120" height="120"/><path class="cls-2" d="M74.12,101.15l-.26-.16c-7.66-4.42-20.06-4.42-27.72,0l-.26.16H40.4v6.53c0,2.9,1.91,5.8,5.74,8,7.66,4.41,20.06,4.41,27.72,0,3.83-2.21,5.74-5.11,5.74-8v-6.53Z"/><path class="cls-3" d="M73.86,115.69c3.83-2.21,5.74-5.11,5.74-8v-6.53H74.12l-.26-.16A28.32,28.32,0,0,0,60,97.68V119A28.32,28.32,0,0,0,73.86,115.69Z"/><ellipse class="cls-2" cx="60" cy="101.15" rx="19.6" ry="11.32"/><ellipse class="cls-4" cx="60" cy="101.15" rx="19.6" ry="11.32"/><ellipse class="cls-1" cx="60" cy="107.68" rx="19.6" ry="11.32"/><path class="cls-5" d="M79.6,107.68v-6.53h0c0-2.89-1.91-5.79-5.74-8-7.66-4.42-20.06-4.42-27.72,0-3.82,2.21-5.74,5.11-5.74,8h0v6.53c0,2.9,1.92,5.8,5.74,8A28.32,28.32,0,0,0,60,119c.63,0,1.25,0,1.88,0a32.21,32.21,0,0,0,3.7-.42q.92-.15,1.8-.36a24.16,24.16,0,0,0,6.48-2.48,12.28,12.28,0,0,0,4.93-4.78A7,7,0,0,0,79.6,107.68Z"/><path class="cls-3" d="M67.58,104.32l2.08,1.2-1.84,1.07-2-1.17a16.83,16.83,0,0,1-3.1,1.23,13.13,13.13,0,0,1-3,.58l-1.25-1.89a16.22,16.22,0,0,0,2.52-.46,12,12,0,0,0,2.38-.87l-3.11-1.79a29,29,0,0,1-2.91.88,9.92,9.92,0,0,1-2.67.23,6.06,6.06,0,0,1-2.62-.81,2.53,2.53,0,0,1-1.53-2.18c0-.86.63-1.74,1.89-2.65L50.34,96.5l1.84-1.07,2,1.16a15.43,15.43,0,0,1,4.89-1.52l1.35,1.85A14.91,14.91,0,0,0,56.66,98l3.17,1.83A24.44,24.44,0,0,1,62.69,99a9.7,9.7,0,0,1,2.65-.21,5.7,5.7,0,0,1,2.59.79,2.46,2.46,0,0,1,1.5,2.15C69.41,102.53,68.8,103.4,67.58,104.32ZM56,100.94a5.77,5.77,0,0,0,1.54-.3l-2.65-1.53a1.29,1.29,0,0,0-.51.91.91.91,0,0,0,.52.69,2,2,0,0,0,1.1.23m6.58.48,2.57,1.48a1.27,1.27,0,0,0,.51-.86.76.76,0,0,0-.47-.65,2,2,0,0,0-1.11-.25,7.13,7.13,0,0,0-1.5.28"/><path class="cls-2" d="M74.12,94.62l-.26-.16C66.2,90,53.8,90,46.14,94.46l-.26.16H40.4v6.53c0,2.9,1.91,5.79,5.74,8,7.66,4.42,20.06,4.42,27.72,0,3.83-2.21,5.74-5.1,5.74-8V94.62Z"/><path class="cls-3" d="M73.86,109.15c3.83-2.21,5.74-5.1,5.74-8V94.62H74.12l-.26-.16A28.33,28.33,0,0,0,60,91.14v21.33A28.33,28.33,0,0,0,73.86,109.15Z"/><ellipse class="cls-2" cx="60" cy="94.62" rx="19.6" ry="11.32"/><ellipse class="cls-4" cx="60" cy="94.62" rx="19.6" ry="11.32"/><ellipse class="cls-1" cx="60" cy="101.15" rx="19.6" ry="11.32"/><path class="cls-5" d="M79.6,101.15V94.62h0c0-2.9-1.91-5.79-5.74-8-7.66-4.42-20.06-4.42-27.72,0-3.83,2.21-5.74,5.1-5.74,8h0v6.53c0,2.9,1.91,5.79,5.74,8A28.33,28.33,0,0,0,60,112.47c.63,0,1.25,0,1.88,0a32.21,32.21,0,0,0,3.7-.42q.92-.15,1.8-.36a23.84,23.84,0,0,0,6.48-2.49,12.22,12.22,0,0,0,4.93-4.78A7,7,0,0,0,79.6,101.15Z"/><path class="cls-3" d="M67.58,97.78,69.66,99l-1.84,1.08-2-1.17a16.83,16.83,0,0,1-3.1,1.23,13.69,13.69,0,0,1-3,.58l-1.25-1.89A16.22,16.22,0,0,0,61,98.35a13.33,13.33,0,0,0,2.38-.87l-3.11-1.8a26.87,26.87,0,0,1-2.91.89,9.52,9.52,0,0,1-2.67.22A5.91,5.91,0,0,1,52,96a2.53,2.53,0,0,1-1.53-2.18c0-.86.63-1.74,1.89-2.65L50.34,90l1.84-1.07,2,1.17a15.43,15.43,0,0,1,4.89-1.52l1.35,1.85a14.51,14.51,0,0,0-3.79,1.09l3.17,1.83a24.44,24.44,0,0,1,2.86-.89,9.7,9.7,0,0,1,2.65-.22,6,6,0,0,1,2.59.79,2.48,2.48,0,0,1,1.5,2.15C69.41,96,68.8,96.87,67.58,97.78ZM56,94.41a6.2,6.2,0,0,0,1.54-.3l-2.65-1.53a1.29,1.29,0,0,0-.51.91.91.91,0,0,0,.52.69,2.05,2.05,0,0,0,1.1.23m6.58.47,2.57,1.49a1.31,1.31,0,0,0,.51-.86.78.78,0,0,0-.47-.66,2.05,2.05,0,0,0-1.11-.24,7,7,0,0,0-1.5.27"/><path class="cls-2" d="M74.12,88.09l-.26-.17c-7.66-4.41-20.06-4.41-27.72,0l-.26.17H40.4v6.53c0,2.9,1.91,5.79,5.74,8,7.66,4.42,20.06,4.42,27.72,0,3.82-2.21,5.74-5.1,5.74-8V88.09Z"/><path class="cls-3" d="M73.86,102.62c3.82-2.21,5.74-5.1,5.74-8V88.09H74.12l-.26-.17A28.43,28.43,0,0,0,60,84.61v21.32A28.32,28.32,0,0,0,73.86,102.62Z"/><ellipse class="cls-2" cx="60" cy="88.09" rx="19.6" ry="11.32"/><ellipse class="cls-4" cx="60" cy="88.09" rx="19.6" ry="11.32"/><ellipse class="cls-1" cx="60" cy="94.62" rx="19.6" ry="11.32"/><path class="cls-5" d="M79.6,94.62V88.09h0c0-2.9-1.92-5.8-5.74-8-7.66-4.42-20.06-4.42-27.72,0-3.83,2.2-5.74,5.1-5.74,8h0v6.53c0,2.9,1.91,5.79,5.74,8A28.32,28.32,0,0,0,60,105.93c.63,0,1.25,0,1.88-.05a32.2,32.2,0,0,0,3.7-.41c.61-.11,1.21-.23,1.79-.36a24.11,24.11,0,0,0,6.49-2.49,12.22,12.22,0,0,0,4.93-4.78A7,7,0,0,0,79.6,94.62Z"/><path class="cls-3" d="M67.58,91.25l2.08,1.2-1.84,1.07-2-1.16a17.93,17.93,0,0,1-3.09,1.23,13.69,13.69,0,0,1-3,.58l-1.25-1.9A16.15,16.15,0,0,0,61,91.82,13.33,13.33,0,0,0,63.35,91l-3.11-1.8a29.32,29.32,0,0,1-2.91.89,9.52,9.52,0,0,1-2.67.22,6,6,0,0,1-2.62-.8,2.55,2.55,0,0,1-1.53-2.19c0-.85.63-1.74,1.89-2.65l-2.06-1.19,1.84-1.07,2,1.17A15.18,15.18,0,0,1,59.1,82l1.35,1.85A14.14,14.14,0,0,0,56.66,85l3.17,1.82a26.28,26.28,0,0,1,2.86-.88,9.32,9.32,0,0,1,2.65-.22,5.83,5.83,0,0,1,2.59.79,2.47,2.47,0,0,1,1.5,2.15C69.41,89.46,68.8,90.33,67.58,91.25ZM56,87.88a6.2,6.2,0,0,0,1.54-.3l-2.65-1.53a1.28,1.28,0,0,0-.51.91.9.9,0,0,0,.52.68,2.06,2.06,0,0,0,1.1.24m6.58.47,2.57,1.48a1.27,1.27,0,0,0,.51-.86.77.77,0,0,0-.47-.65,1.89,1.89,0,0,0-1.11-.24,6.46,6.46,0,0,0-1.5.27"/><line class="cls-6" x1="38.54" y1="80.16" x2="38.54" y2="80.16"/><line class="cls-7" x1="37.23" y1="74.66" x2="31.33" y2="49.93"/><line class="cls-6" x1="30.68" y1="47.18" x2="30.68" y2="47.18"/><line class="cls-5" x1="81.46" y1="80.16" x2="81.46" y2="80.16"/><line class="cls-8" x1="82.77" y1="74.66" x2="88.67" y2="49.93"/><line class="cls-5" x1="89.32" y1="47.18" x2="89.32" y2="47.18"/><path class="cls-9" d="M83.77,20l-.45-.27c-12.88-7.44-33.76-7.44-46.64,0l-.45.27H27V31.58c0,4.88,3.22,9.75,9.66,13.47,12.88,7.44,33.76,7.44,46.64,0C89.76,41.33,93,36.46,93,31.58V20Z"/><path class="cls-10" d="M83.32,45.05C89.76,41.33,93,36.46,93,31.58V20H83.77l-.45-.27C76.88,16.05,68.44,14.19,60,14.19V50.63C68.44,50.63,76.88,48.77,83.32,45.05Z"/><ellipse class="cls-11" cx="60" cy="20.04" rx="32.98" ry="19.04"/><ellipse class="cls-12" cx="60" cy="20.04" rx="26.38" ry="14.29"/><ellipse class="cls-4" cx="60" cy="20.04" rx="32.98" ry="19.04"/><path class="cls-6" d="M93,31.58V20h0c0-4.87-3.22-9.74-9.66-13.46C70.44-.86,49.56-.86,36.68,6.58,30.24,10.3,27,15.17,27,20h0V31.58c0,4.88,3.22,9.75,9.66,13.47S51.56,50.63,60,50.63c1.06,0,2.11,0,3.16-.09a55.73,55.73,0,0,0,6.23-.7c1-.17,2-.38,3-.61a40.22,40.22,0,0,0,10.91-4.18,20.5,20.5,0,0,0,8.3-8A11.8,11.8,0,0,0,93,31.58Z"/><path class="cls-13" d="M78.66,15.43c-10.31-5.58-27-5.58-37.32,0-3.85,2.09-6.26,4.66-7.23,7.36,1,2.7,3.38,5.27,7.23,7.36,10.31,5.58,27,5.58,37.32,0,3.85-2.09,6.26-4.66,7.23-7.36C84.92,20.09,82.51,17.52,78.66,15.43Z"/><ellipse class="cls-14" cx="60" cy="25.54" rx="3.12" ry="1.69"/><rect class="cls-14" x="56.87" y="23.34" width="6.25" height="2.2"/><line class="cls-6" x1="60" y1="25.54" x2="60" y2="14.73"/><line class="cls-6" x1="60" y1="25.54" x2="67.75" y2="29.16"/><ellipse class="cls-10" cx="60" cy="23.34" rx="3.12" ry="1.69"/><path class="cls-6" d="M93,31.58V20h0c0-4.87-3.22-9.74-9.66-13.46C70.44-.86,49.56-.86,36.68,6.58,30.24,10.3,27,15.17,27,20h0V31.58c0,4.88,3.22,9.75,9.66,13.47S51.56,50.63,60,50.63c1.06,0,2.11,0,3.16-.09a55.73,55.73,0,0,0,6.23-.7c1-.17,2-.38,3-.61a40.22,40.22,0,0,0,10.91-4.18,20.5,20.5,0,0,0,8.3-8A11.8,11.8,0,0,0,93,31.58Z"/></g></g></svg>