<svg xmlns="http://www.w3.org/2000/svg" viewBox="0 0 120 120"><defs><style>.cls-1,.cls-15,.cls-16,.cls-2,.cls-3,.cls-4,.cls-5,.cls-6,.cls-7,.cls-8{fill:none;}.cls-1,.cls-2,.cls-3,.cls-7,.cls-8{stroke:#a7b23b;}.cls-1,.cls-10,.cls-11,.cls-13,.cls-14,.cls-15,.cls-2,.cls-3,.cls-4,.cls-5,.cls-6,.cls-7,.cls-8,.cls-9{stroke-linecap:round;stroke-linejoin:round;stroke-width:2px;}.cls-2{stroke-dasharray:0 6.41;}.cls-3{stroke-dasharray:0 5.56;}.cls-15,.cls-4,.cls-5,.cls-6{stroke:#436db5;}.cls-5{stroke-dasharray:0 5.56;}.cls-6{stroke-dasharray:0 5.56;}.cls-7{stroke-dasharray:0 6.38;}.cls-8{stroke-dasharray:0 5.56;}.cls-9{fill:#deeaff;}.cls-10,.cls-11,.cls-9{stroke:#98b9ea;}.cls-10,.cls-13{fill:#fff;}.cls-11{fill:#98b9ea;}.cls-12{fill:#dfeab0;}.cls-13,.cls-14{stroke:#c4d36c;}.cls-14{fill:#c4d36c;}.cls-15{stroke-dasharray:0 6.38;}</style></defs><title>flow</title><g id="Layer_2" data-name="Layer 2"><g id="Actions"><line class="cls-1" x1="76.64" y1="86.27" x2="76.64" y2="86.27"/><line class="cls-2" x1="71.09" y1="89.47" x2="62.77" y2="94.28"/><line class="cls-1" x1="60" y1="95.88" x2="60" y2="95.88"/><line class="cls-1" x1="43.36" y1="86.27" x2="43.36" y2="86.27"/><line class="cls-2" x1="48.91" y1="89.47" x2="57.23" y2="94.28"/><line class="cls-1" x1="60" y1="95.88" x2="60" y2="95.88"/><line class="cls-1" x1="76.59" y1="67.12" x2="76.59" y2="67.12"/><line class="cls-3" x1="76.59" y1="61.55" x2="76.59" y2="36.51"/><line class="cls-1" x1="76.59" y1="33.73" x2="76.59" y2="33.73"/><line class="cls-1" x1="43.41" y1="67.12" x2="43.41" y2="67.12"/><line class="cls-3" x1="43.41" y1="61.55" x2="43.41" y2="36.51"/><line class="cls-1" x1="43.41" y1="33.73" x2="43.41" y2="33.73"/><line class="cls-4" x1="93.17" y1="57.54" x2="93.17" y2="57.54"/><line class="cls-5" x1="93.17" y1="51.98" x2="93.17" y2="26.94"/><line class="cls-4" x1="93.17" y1="24.15" x2="93.17" y2="24.15"/><line class="cls-4" x1="26.83" y1="57.54" x2="26.83" y2="57.54"/><line class="cls-6" x1="26.83" y1="51.98" x2="26.83" y2="26.94"/><line class="cls-4" x1="26.83" y1="24.15" x2="26.83" y2="24.15"/><line class="cls-1" x1="43.41" y1="14.58" x2="43.41" y2="14.58"/><line class="cls-7" x1="37.88" y1="17.77" x2="13" y2="32.13"/><line class="cls-1" x1="10.24" y1="33.73" x2="10.24" y2="33.73"/><line class="cls-8" x1="10.24" y1="39.29" x2="10.24" y2="64.33"/><line class="cls-1" x1="10.24" y1="67.12" x2="10.24" y2="67.12"/><line class="cls-1" x1="76.59" y1="14.58" x2="76.59" y2="14.58"/><line class="cls-7" x1="82.12" y1="17.77" x2="107" y2="32.13"/><line class="cls-1" x1="109.76" y1="33.73" x2="109.76" y2="33.73"/><line class="cls-8" x1="109.76" y1="39.29" x2="109.76" y2="64.33"/><line class="cls-1" x1="109.76" y1="67.12" x2="109.76" y2="67.12"/><polygon class="cls-9" points="109.76 86.27 93.17 95.85 76.59 86.27 76.59 67.12 93.17 57.54 109.76 67.12 109.76 86.27"/><polygon class="cls-10" points="109.76 67.12 93.17 76.69 76.59 67.12 76.59 67.12 93.17 57.54 109.76 67.12 109.76 67.12"/><polygon class="cls-11" points="93.17 76.69 93.17 95.85 109.76 86.27 109.76 67.12 93.17 76.69"/><polygon class="cls-4" points="93.17 57.54 76.59 67.12 76.59 86.27 93.17 95.85 109.76 86.27 109.76 67.12 93.17 57.54"/><polygon class="cls-9" points="43.41 86.27 26.82 95.85 10.24 86.27 10.24 67.12 26.82 57.54 43.41 67.12 43.41 86.27"/><polygon class="cls-10" points="43.41 67.12 26.82 76.69 10.24 67.12 10.24 67.12 26.82 57.54 43.41 67.12 43.41 67.12"/><polygon class="cls-11" points="26.82 76.69 26.82 95.85 43.41 86.27 43.41 67.12 26.82 76.69"/><polygon class="cls-4" points="26.82 57.54 10.24 67.12 10.24 86.27 26.82 95.85 43.41 86.27 43.41 67.12 26.82 57.54"/><polygon class="cls-12" points="76.59 33.73 60 43.31 43.41 33.73 43.41 14.58 60 5 76.59 14.58 76.59 33.73"/><polygon class="cls-13" points="76.59 14.58 60 24.15 43.41 14.58 43.41 14.58 60 5 76.59 14.58 76.59 14.58"/><polygon class="cls-14" points="60 24.15 60 43.31 76.59 33.73 76.59 14.58 60 24.15"/><polygon class="cls-1" points="60 5 43.41 14.58 43.41 33.73 60 43.31 76.59 33.73 76.59 14.58 60 5"/><line class="cls-4" x1="93.17" y1="95.85" x2="93.17" y2="95.85"/><line class="cls-15" x1="87.65" y1="99.04" x2="62.76" y2="113.4"/><line class="cls-4" x1="60" y1="115" x2="60" y2="115"/><line class="cls-4" x1="26.83" y1="95.85" x2="26.83" y2="95.85"/><line class="cls-15" x1="32.35" y1="99.04" x2="57.24" y2="113.4"/><line class="cls-4" x1="60" y1="115" x2="60" y2="115"/><rect class="cls-16" width="120" height="120"/><rect class="cls-16" width="120" height="120"/></g></g></svg>