<svg xmlns="http://www.w3.org/2000/svg" viewBox="0 0 120 120"><defs><style>.cls-1,.cls-5{fill:#dfeab0;}.cls-1,.cls-4{stroke:#c4d36c;}.cls-1,.cls-11,.cls-13,.cls-14,.cls-15,.cls-16,.cls-17,.cls-19,.cls-21,.cls-3,.cls-4,.cls-6,.cls-8,.cls-9{stroke-linecap:round;stroke-linejoin:round;}.cls-1,.cls-11,.cls-13,.cls-15,.cls-16,.cls-17,.cls-19,.cls-21,.cls-3,.cls-4,.cls-6,.cls-7,.cls-8,.cls-9{stroke-width:2px;}.cls-2{fill:#c4d36c;}.cls-11,.cls-12,.cls-15,.cls-21,.cls-3,.cls-6,.cls-7{fill:none;}.cls-3,.cls-8{stroke:#a7b23b;}.cls-10,.cls-19,.cls-4{fill:#fff;}.cls-6{stroke:#fff;}.cls-7{stroke:#dfeab0;stroke-miterlimit:10;}.cls-8{fill:#a7b23b;}.cls-17,.cls-20,.cls-9{fill:#deeaff;}.cls-11,.cls-16,.cls-19,.cls-9{stroke:#98b9ea;}.cls-13,.cls-16,.cls-18{fill:#98b9ea;}.cls-13,.cls-17,.cls-21{stroke:#deeaff;}.cls-14{fill:#436db5;}.cls-14,.cls-15{stroke:#436db5;}</style></defs><title>furniture-&amp;amp;-fixtures</title><g id="Layer_2" data-name="Layer 2"><g id="Industries"><ellipse class="cls-1" cx="85.68" cy="66.03" rx="2.73" ry="1.58"/><rect class="cls-1" x="83.89" y="35.72" width="5.47" height="33.12"/><path class="cls-2" d="M83.89,44.18a24.92,24.92,0,0,0,5.46,0V35.72H83.89Z"/><rect class="cls-3" x="83.89" y="35.72" width="5.47" height="33.12"/><path class="cls-4" d="M101.27,29.62h0l-2.38-22H74.33L72,29.62h0a4.93,4.93,0,0,0,0,.54c0,4.69,6.58,8.49,14.7,8.49s14.7-3.8,14.7-8.49A4.93,4.93,0,0,0,101.27,29.62Z"/><path class="cls-5" d="M101.29,29.62l-2.38-22H86.62v31c8.12,0,14.7-3.8,14.7-8.49a4.93,4.93,0,0,0,0-.54Z"/><path class="cls-6" d="M86.62,36.65c-7.6,0-12.9-3.32-12.9-6.3,0-.05.31-2.73.31-2.73h0L76,10h21.3l2,17.72.25,2.43c0,.06,0,.11,0,.17C99.52,33.33,94.22,36.65,86.62,36.65Z"/><path class="cls-7" d="M99.13,12.51C96.64,15.24,92,17,86.62,17c-5.61,0-10.37-1.94-12.8-4.85"/><ellipse class="cls-5" cx="86.62" cy="8.11" rx="12.32" ry="7.11"/><path class="cls-2" d="M74.3,8.11c0,3.93,5.52,7.11,12.32,7.11V1C79.82,1,74.3,4.18,74.3,8.11Z"/><path class="cls-8" d="M76.48,12.15c2.23,1.85,5.94,3.07,10.14,3.07S94.53,14,96.76,12.15A18.06,18.06,0,0,0,86.62,9.38,18.06,18.06,0,0,0,76.48,12.15Z"/><ellipse class="cls-3" cx="86.62" cy="8.11" rx="12.32" ry="7.11"/><path class="cls-3" d="M101.27,29.62h0l-2.38-22h0C98.49,3.94,93.16,1,86.62,1c-.42,0-.85,0-1.26,0-6,.35-10.64,3.15-11,6.62h0L72,29.62h0a4.93,4.93,0,0,0,0,.54c0,4.69,6.58,8.49,14.7,8.49s14.7-3.8,14.7-8.49A4.93,4.93,0,0,0,101.27,29.62Z"/><path class="cls-9" d="M66.52,41h0a3,3,0,0,0-3.08.24c-2.59,1.5-4.7,5.52-4.7,9V78.8a1.56,1.56,0,0,0,.61,1.41h0L86.27,95.75l7.17-39.18Z"/><path class="cls-10" d="M66.52,41a3,3,0,0,0-3.08.24,10.28,10.28,0,0,0-4,5.39l32.38,18.7,1.65-8.8L66.52,41Z"/><path class="cls-11" d="M66.52,41h0a3,3,0,0,0-3.08.24c-2.59,1.5-4.7,5.52-4.7,9V78.8a1.56,1.56,0,0,0,.61,1.41h0L86.27,95.75l7.17-39.18Z"/><path class="cls-12" d="M66.39,76.71l-5.9,3.41c-1,.55-1.75,0-1.75-1.32V50.26c0-3.46,2.11-7.48,4.7-9h0c2.6-1.5,4.7.09,4.7,3.55V73.37A4.18,4.18,0,0,1,66.39,76.71Z"/><path class="cls-13" d="M93.32,92.25l-5.91,3.41c-1,.56-1.75,0-1.75-1.32V65.8c0-3.46,2.11-7.48,4.7-9h0c2.6-1.5,4.7.09,4.7,3.55V88.91A4.19,4.19,0,0,1,93.32,92.25Z"/><path class="cls-14" d="M89.36,63.67c0,.94.57,1.37,1.27,1h0A3,3,0,0,0,91.9,62.2c0-.94-.57-1.37-1.27-1h0A3,3,0,0,0,89.36,63.67Z"/><path class="cls-15" d="M93.44,56.58h0L66.52,41h0a2,2,0,0,0-.3-.14l0,0a1.52,1.52,0,0,0-.28-.09h-.08l-.28,0h-.38l-.16,0a2,2,0,0,0-.24,0l-.2,0a1.8,1.8,0,0,0-.22.06,1.48,1.48,0,0,0-.27.1L63.9,41l-.46.24a6.27,6.27,0,0,0-.57.38l-.16.12c-.14.12-.28.23-.42.36l-.14.13a9.14,9.14,0,0,0-1,1.18l-.06.09c-.15.2-.29.41-.43.63l0,.07a12.93,12.93,0,0,0-1.16,2.43h0a10.89,10.89,0,0,0-.67,3.59V78.8a3.43,3.43,0,0,0,0,.47l0,.12a2.14,2.14,0,0,0,.09.27.31.31,0,0,0,.05.1,1.07,1.07,0,0,0,.13.21l.07.07a1,1,0,0,0,.16.14l0,0h0L86.27,95.75h0a1.11,1.11,0,0,0,1.14-.08l5.91-3.41a4.19,4.19,0,0,0,1.74-3.34V60.37C95.06,58.48,94.43,57.15,93.44,56.58Z"/><path class="cls-16" d="M80,93.6,51.48,110.06c-.68.39-1.23,0-1.23-.93v-7.37a3,3,0,0,1,1.23-2.36L80,82.94c.68-.39,1.23,0,1.23.93v7.37A3,3,0,0,1,80,93.6Z"/><path class="cls-15" d="M80,93.6,51.48,110.06c-.68.39-1.23,0-1.23-.93v-7.37a3,3,0,0,1,1.23-2.36L80,82.94c.68-.39,1.23,0,1.23.93v7.37A3,3,0,0,1,80,93.6Z"/><path class="cls-10" d="M87.1,72.41,61.41,57.58A1.41,1.41,0,0,0,60,57.46h0L29.84,74.86l28.56,25.2,30.14-17.4h0a1.94,1.94,0,0,0,.77-1.78V76.61A5.27,5.27,0,0,0,87.1,72.41Z"/><path class="cls-17" d="M61.41,57.58A1.41,1.41,0,0,0,60,57.46h0L29.84,74.86l8.51,7.5,33-19Z"/><path class="cls-11" d="M87.1,72.41,61.41,57.58A1.41,1.41,0,0,0,60,57.46h0L29.84,74.86l28.56,25.2,30.14-17.4h0a1.94,1.94,0,0,0,.77-1.78V76.61A5.27,5.27,0,0,0,87.1,72.41Z"/><path class="cls-18" d="M58.4,100.06l30.14-17.4h0a1.94,1.94,0,0,0,.77-1.78V76.61a5.51,5.51,0,0,0-.65-2.46l-36,20.77Z"/><path class="cls-9" d="M57,99.94,31.28,85.11a5.25,5.25,0,0,1-2.2-4.2V76.64c0-1.62,1-2.37,2.2-1.67L57,89.8A5.28,5.28,0,0,1,59.16,94v4.27C59.16,99.9,58.18,100.64,57,99.94Z"/><path class="cls-15" d="M89.25,76a0,0,0,0,0,0,0,5.19,5.19,0,0,0-2.14-3.55L61.41,57.58A1.41,1.41,0,0,0,60,57.46h0L29.84,74.86h0a1.92,1.92,0,0,0-.77,1.77v4.27a5.25,5.25,0,0,0,2.2,4.2L57,99.94a1.39,1.39,0,0,0,1.43.11h0l30.14-17.4h0a1.32,1.32,0,0,0,.56-.66,2.8,2.8,0,0,0,.21-1.12V76.61A4.44,4.44,0,0,0,89.25,76Z"/><path class="cls-19" d="M64.93,30.68l-8.3-4.79h0a2.67,2.67,0,0,0-2.74.21L30.17,39.81c-2.32,1.33-4.19,4.92-4.19,8V72a1.45,1.45,0,0,0,.58,1.34h0l8.3,4.8,5.8-11.14,16.83-9.72c.92-.54,1.68,1.91,1.68.67V41.76Z"/><path class="cls-20" d="M27.32,43A10.41,10.41,0,0,0,26,47.83V72a1.45,1.45,0,0,0,.58,1.34h0l8.3,4.8,5.8-11.14,14.2-8.2Z"/><path class="cls-11" d="M64.93,30.68l-8.3-4.79h0a2.67,2.67,0,0,0-2.74.21L30.17,39.81c-2.32,1.33-4.19,4.92-4.19,8V72a1.45,1.45,0,0,0,.58,1.34h0l8.3,4.8,5.8-11.14,16.83-9.72c.92-.54,1.68,1.91,1.68.67V41.76Z"/><path class="cls-18" d="M64.71,61.5,36,78.1c-.92.53-1.67,0-1.67-1.27V52.62c0-3.09,1.87-6.68,4.19-8L62.19,30.91c2.32-1.34,4.2.08,4.2,3.17V58.29A4,4,0,0,1,64.71,61.5Z"/><path class="cls-21" d="M64.71,61.5,36,78.1c-.92.53-1.67,0-1.67-1.27V52.62c0-3.09,1.87-6.68,4.19-8L62.19,30.91c2.32-1.34,4.2.08,4.2,3.17V58.29A4,4,0,0,1,64.71,61.5Z"/><path class="cls-15" d="M64.93,30.69h0l-8.3-4.79h0a2.68,2.68,0,0,0-2.74.22L30.17,39.81A8.88,8.88,0,0,0,26.82,44h0c-.11.27-.2.53-.3.8l-.09.28c-.07.22-.13.45-.18.68a4.64,4.64,0,0,0-.11.51c0,.17-.07.34-.09.51A7.55,7.55,0,0,0,26,47.83V72a1.45,1.45,0,0,0,.58,1.34h0l8.3,4.8h0A1.06,1.06,0,0,0,36,78.1L64.7,61.5a4,4,0,0,0,1.68-3.21V34.08C66.38,32.39,65.82,31.21,64.93,30.69Z"/><path class="cls-9" d="M26.46,64.16h0a3,3,0,0,0-3.07.24c-2.6,1.5-4.7,5.52-4.7,9v28.54a1.55,1.55,0,0,0,.6,1.41h0l26.93,15.54L53.38,79.7Z"/><path class="cls-10" d="M26.45,64.17a3,3,0,0,0-3.07.24,10.24,10.24,0,0,0-4,5.39L51.73,88.5l1.65-8.8L26.46,64.16Z"/><path class="cls-11" d="M26.46,64.16h0a3,3,0,0,0-3.07.24c-2.6,1.5-4.7,5.52-4.7,9v28.54a1.55,1.55,0,0,0,.6,1.41h0l26.93,15.54L53.38,79.7Z"/><path class="cls-13" d="M53.26,115.38l-5.91,3.41c-1,.56-1.75,0-1.75-1.32V88.93c0-3.46,2.11-7.48,4.7-9h0c2.6-1.5,4.7.09,4.7,3.55V112A4.19,4.19,0,0,1,53.26,115.38Z"/><path class="cls-12" d="M26.33,99.84l-5.9,3.41c-1,.55-1.75,0-1.75-1.32V73.39c0-3.46,2.1-7.48,4.7-9h0c2.6-1.5,4.7.09,4.7,3.55V95.53C28.08,96.82,27.3,99.28,26.33,99.84Z"/><path class="cls-14" d="M49.32,86.79c0,.93.57,1.36,1.27,1h0a3.07,3.07,0,0,0,1.27-2.43c0-.94-.57-1.37-1.27-1h0A3.07,3.07,0,0,0,49.32,86.79Z"/><path class="cls-15" d="M53.38,79.71h0L26.46,64.16h0a2.64,2.64,0,0,0-.29-.15h0a1.4,1.4,0,0,0-.29-.09h-.08l-.27,0H25.1l-.16,0-.24,0-.2.05a1.41,1.41,0,0,0-.22.06,1.48,1.48,0,0,0-.27.1l-.17.06a5.06,5.06,0,0,0-.46.24h0a5.13,5.13,0,0,0-.57.38l-.16.12q-.21.16-.42.36a.86.86,0,0,0-.14.13,9.79,9.79,0,0,0-.95,1.06l-.09.12-.06.09c-.15.2-.29.41-.43.63l0,.07-.12.19a12.83,12.83,0,0,0-.64,1.22c-.15.33-.28.67-.4,1h0a10.89,10.89,0,0,0-.67,3.59v28.54a3.43,3.43,0,0,0,0,.47l0,.11a1.84,1.84,0,0,0,.09.28.31.31,0,0,0,.05.1.77.77,0,0,0,.13.2l.07.08a1.07,1.07,0,0,0,.16.14l0,0h0l26.93,15.54h0a1.11,1.11,0,0,0,1.14-.08l5.91-3.41A4.19,4.19,0,0,0,55,112V83.5C55,81.61,54.37,80.28,53.38,79.71Z"/><rect class="cls-12" width="120" height="120"/><rect class="cls-12" width="120" height="120"/></g></g></svg>