<svg xmlns="http://www.w3.org/2000/svg" viewBox="0 0 120 120"><defs><style>.cls-1{fill:#deeaff;}.cls-2{fill:#fff;}.cls-10,.cls-12,.cls-3,.cls-5,.cls-8{fill:none;}.cls-3,.cls-4{stroke:#98b9ea;}.cls-10,.cls-11,.cls-3,.cls-4,.cls-5,.cls-6,.cls-8,.cls-9{stroke-linecap:round;stroke-linejoin:round;stroke-width:2px;}.cls-4{fill:#98b9ea;}.cls-5,.cls-6{stroke:#436db5;}.cls-6{fill:#436db5;}.cls-7{fill:#dfeab0;}.cls-8,.cls-9{stroke:#c4d36c;}.cls-9{fill:#c4d36c;}.cls-10,.cls-11{stroke:#a7b23b;}.cls-11{fill:#a7b23b;}</style></defs><title>gears</title><g id="Layer_2" data-name="Layer 2"><g id="Objects"><path class="cls-1" d="M100.63,33.55h0a1,1,0,0,0-.32-.12l-5.83-1.12c0-.45.07-.89.09-1.33,5.75,1,13.25,2.17,13.73,1.91.79-.41,2.06-20.37,2.06-20.37L95,3.66h0c-.66-.38-1.62,0-2.42,1.09L91.27,6.54l-9.35-5.4h0a1.35,1.35,0,0,0-1.37.11L69.31,7.74a5,5,0,0,0-2.09,4v9a44.3,44.3,0,0,0-4.13,5.56l-5.82-1.12c-1-.19-2.29,1-2.87,2.68L48.79,44c-.51,1.47-.31,2.82.44,3.25h0l6,3.48c0,.34,0,.69,0,1a30.46,30.46,0,0,0,.15,3.09l-5.83,7.85c-1,1.35-1.34,3.26-.76,4.26l5.61,9.73a1.24,1.24,0,0,0,.45.46h0L70.19,86l1.25-4.32,11.84,6.84S88.61,73.1,88,72.9c-.27-.1-2.9-1-5.72-2a5,5,0,0,0,.38-1.83v-9a44.3,44.3,0,0,0,4.13-5.56l5.82,1.12c1,.19,2.29-1,2.86-2.68l1.32-3.81c4.44,1.73,9.7,3.82,10.75,4.46,1.87,1.15,8.46-11.26,8.46-11.26Z"/><path class="cls-2" d="M79.88,81.61l5.45-9.43-.85-.49-2.22-.76a3.81,3.81,0,0,0,.15-.44l-27-15.61-5.83,7.85a5.84,5.84,0,0,0-.59,1Z"/><path class="cls-2" d="M55.22,26.3a5.65,5.65,0,0,0-.82,1.52L48.79,44a3.9,3.9,0,0,0-.14,2.47l16.52,9.54,10.4-18Z"/><path class="cls-2" d="M67.22,20.7a44.3,44.3,0,0,0-4.13,5.56L84.16,38.43l3.44-6Z"/><path class="cls-2" d="M110.36,12.52,95,3.66h0c-.66-.38-1.62,0-2.42,1.09L91.27,6.54l-9.35-5.4h0a1.35,1.35,0,0,0-1.37.11L69.31,7.74a4,4,0,0,0-1.43,1.59l40.53,23.4C109.19,30.84,110.36,12.52,110.36,12.52Z"/><line class="cls-3" x1="95.01" y1="3.66" x2="110.36" y2="12.52"/><line class="cls-3" x1="81.92" y1="1.14" x2="97.26" y2="10"/><line class="cls-3" x1="49.23" y1="47.29" x2="64.57" y2="56.15"/><line class="cls-3" x1="54.85" y1="77.18" x2="70.19" y2="86.04"/><line class="cls-3" x1="67.94" y1="79.7" x2="83.28" y2="88.56"/><line class="cls-3" x1="100.63" y1="33.55" x2="115.98" y2="42.41"/><path class="cls-4" d="M115.65,42.29l-4-.78a2.09,2.09,0,0,1-1.69-2.15c0-.49,0-1,0-1.46,0-1.07,0-2.1-.14-3.09L115.65,27c1-1.35,1.35-3.26.77-4.26L110.8,13c-.58-1-1.86-.72-2.86.63l-5.82,7.84a10.14,10.14,0,0,0-4.13-.8v-9c0-1.54-.94-2.25-2.1-1.58L84.65,16.6a5,5,0,0,0-2.09,4v9a45.3,45.3,0,0,0-4.13,5.56L72.61,34c-1-.19-2.28,1-2.86,2.68L64.13,52.9c-.58,1.67-.24,3.18.77,3.37l5.82,1.12c-.09,1.1-.15,2.19-.15,3.26s.06,2.11.15,3.09L64.9,71.59c-1,1.35-1.35,3.26-.77,4.26l5.62,9.73c.58,1,1.86.72,2.86-.63l5.82-7.84a10.28,10.28,0,0,0,4.13.8v9c0,1.54.94,2.25,2.09,1.58L95.89,82A5,5,0,0,0,98,78V69a45.69,45.69,0,0,0,4.13-5.57l5.82,1.12c1,.2,2.28-1,2.86-2.67l5.62-16.22C117,44,116.65,42.48,115.65,42.29Z"/><path class="cls-3" d="M100.63,33.55h0a1,1,0,0,0-.32-.12l-5.83-1.12c0-.45.07-.89.09-1.33,5.75,1,13.25,2.17,13.73,1.91.79-.41,2.06-20.37,2.06-20.37L95,3.66h0c-.66-.38-1.62,0-2.42,1.09L91.27,6.54l-9.35-5.4h0a1.35,1.35,0,0,0-1.37.11L69.31,7.74a5,5,0,0,0-2.09,4v9a44.3,44.3,0,0,0-4.13,5.56l-5.82-1.12c-1-.19-2.29,1-2.87,2.68L48.79,44c-.51,1.47-.31,2.82.44,3.25h0l6,3.48c0,.34,0,.69,0,1a30.46,30.46,0,0,0,.15,3.09l-5.83,7.85c-1,1.35-1.34,3.26-.76,4.26l5.61,9.73a1.24,1.24,0,0,0,.45.46h0L70.19,86l1.25-4.32,11.84,6.84S88.61,73.1,88,72.9c-.27-.1-2.9-1-5.72-2a5,5,0,0,0,.38-1.83v-9a44.3,44.3,0,0,0,4.13-5.56l5.82,1.12c1,.19,2.29-1,2.86-2.68l1.32-3.81c4.44,1.73,9.7,3.82,10.75,4.46,1.87,1.15,8.46-11.26,8.46-11.26Z"/><ellipse class="cls-1" cx="90.27" cy="49.28" rx="14.07" ry="7.96" transform="translate(9.58 113.05) rotate(-66.95)"/><path class="cls-2" d="M83.35,45.28a22.36,22.36,0,0,0-2.24,9.29c0,6.75,4.1,9.85,9.16,6.93,2.77-1.6,5.24-4.67,6.92-8.23Z"/><ellipse class="cls-5" cx="90.27" cy="49.28" rx="14.07" ry="7.96" transform="translate(9.58 113.05) rotate(-66.95)"/><path class="cls-5" d="M116,42.41h0l-6-3.48c0-.34,0-.69,0-1,0-1.07,0-2.1-.14-3.09L115.65,27c1-1.35,1.35-3.26.77-4.26L110.8,13a1.21,1.21,0,0,0-.45-.45h0l-7.68-4.43L95,3.66h0a1.11,1.11,0,0,0-.54-.14,1.63,1.63,0,0,0-.62.14,3.35,3.35,0,0,0-1.26,1.09L91.27,6.54l-9.35-5.4h0a1,1,0,0,0-.3-.11,1.16,1.16,0,0,0-.33,0,1.8,1.8,0,0,0-.74.25L69.31,7.74A2.78,2.78,0,0,0,68.9,8l-.3.29a.6.6,0,0,1-.08.08,5.37,5.37,0,0,0-1.3,3.34v9a44.3,44.3,0,0,0-4.13,5.56l-5.82-1.12a2.35,2.35,0,0,0-2.05,1.16h0a4.54,4.54,0,0,0-.41.63l-.07.13a5.84,5.84,0,0,0-.34.76L48.79,44a5.63,5.63,0,0,0-.18.64l0,.17a3.71,3.71,0,0,0-.06.45.66.66,0,0,1,0,.15,4.18,4.18,0,0,0,0,.51v0a2.11,2.11,0,0,0,.12.51h0a1.36,1.36,0,0,0,.58.78h0l6,3.48c0,.34,0,.69,0,1a30.46,30.46,0,0,0,.15,3.09h0l-5.83,7.85a5.29,5.29,0,0,0-.32.5A4.15,4.15,0,0,0,48.79,67l5.61,9.73a1.24,1.24,0,0,0,.45.46h0L70.19,86h0c.65.38,1.62,0,2.41-1.08l1.33-1.79,9.34,5.4h0a1.33,1.33,0,0,0,1.36-.1L95.89,82A5,5,0,0,0,98,78V69a45.69,45.69,0,0,0,4.13-5.57l5.82,1.12c1,.2,2.28-1,2.86-2.67l5.62-16.22C116.93,44.19,116.72,42.84,116,42.41Z"/><path class="cls-6" d="M81.11,54.57a12.5,12.5,0,0,0,.53,3.76,8.84,8.84,0,0,0,1.78-.79c5.06-2.92,9.16-10.76,9.16-17.51a12.5,12.5,0,0,0-.53-3.76,8.84,8.84,0,0,0-1.78.79C85.21,40,81.11,47.82,81.11,54.57Z"/><path class="cls-7" d="M47.12,72.64h0a.63.63,0,0,0-.27-.1l-4.9-1c0-.37.06-.74.08-1.12,4.83.86,11.14,1.83,11.54,1.61C54.23,71.74,55.3,55,55.3,55L42.4,47.51h0c-.55-.32-1.37,0-2,.92l-1.11,1.5-7.86-4.54h0a1.13,1.13,0,0,0-1.15.1l-9.45,5.45A4.22,4.22,0,0,0,19,54.3v7.53a39.68,39.68,0,0,0-3.47,4.68l-4.89-.94c-.85-.16-1.92.85-2.41,2.25L3.54,81.46c-.43,1.24-.26,2.37.37,2.73h0L9,87.12c0,.28,0,.57,0,.86,0,.9.05,1.76.13,2.59l-4.9,6.6a3.7,3.7,0,0,0-.64,3.58l4.72,8.18a1,1,0,0,0,.37.38h0l12.9,7.44,1-3.63,10,5.75s4.47-13,4-13.17l-4.81-1.65a4.2,4.2,0,0,0,.32-1.54V95a37.1,37.1,0,0,0,3.47-4.68l4.89,1c.85.16,1.92-.85,2.41-2.25l1.11-3.21c3.73,1.45,8.15,3.22,9,3.75,1.57,1,7.11-9.47,7.11-9.47Z"/><path class="cls-2" d="M29.68,113l4.58-7.93-.72-.41-1.86-.64c.05-.12.09-.24.13-.36L9.08,90.57l-4.9,6.6a4.94,4.94,0,0,0-.5.86Z"/><path class="cls-2" d="M9,66.54a4.47,4.47,0,0,0-.69,1.28L3.54,81.46a3.28,3.28,0,0,0-.12,2.07l13.89,8,8.74-15.13Z"/><path class="cls-2" d="M19,61.83a39.68,39.68,0,0,0-3.47,4.68L33.27,76.74l2.9-5Z"/><path class="cls-2" d="M55.3,55,42.4,47.51h0c-.55-.32-1.37,0-2,.92l-1.11,1.5-7.86-4.54h0a1.13,1.13,0,0,0-1.15.1l-9.45,5.45a3.36,3.36,0,0,0-1.2,1.34L53.66,72C54.32,70.36,55.3,55,55.3,55Z"/><line class="cls-3" x1="42.4" y1="47.51" x2="55.3" y2="54.96"/><line class="cls-8" x1="3.91" y1="84.19" x2="16.81" y2="91.64"/><line class="cls-3" x1="8.63" y1="109.32" x2="21.53" y2="116.76"/><line class="cls-3" x1="19.64" y1="111.43" x2="32.54" y2="118.88"/><line class="cls-3" x1="47.12" y1="72.64" x2="60.02" y2="80.08"/><path class="cls-9" d="M59.75,80l-3.38-.65A1.74,1.74,0,0,1,55,77.53c0-.42,0-.82,0-1.23,0-.91,0-1.77-.13-2.6l4.9-6.59a3.71,3.71,0,0,0,.64-3.58l-4.72-8.19c-.49-.84-1.56-.6-2.41.53l-4.89,6.6a8.53,8.53,0,0,0-3.47-.68V54.26c0-1.29-.79-1.89-1.76-1.33l-9.45,5.46a4.21,4.21,0,0,0-1.76,3.36v7.53A37.83,37.83,0,0,0,28.46,74L23.57,73c-.85-.16-1.92.84-2.41,2.25L16.44,88.9c-.49,1.41-.2,2.68.64,2.84l4.9.94c-.08.92-.13,1.84-.13,2.74s0,1.77.13,2.6l-4.9,6.6a3.7,3.7,0,0,0-.64,3.58l4.72,8.18c.49.84,1.56.6,2.41-.53l4.89-6.59a8.66,8.66,0,0,0,3.47.67v7.53c0,1.29.79,1.89,1.76,1.33l9.45-5.46A4.21,4.21,0,0,0,44.9,110v-7.53a38.87,38.87,0,0,0,3.47-4.68l4.89.94c.85.16,1.92-.84,2.41-2.25l4.72-13.63C60.88,81.41,60.59,80.14,59.75,80Z"/><ellipse class="cls-7" cx="38.41" cy="85.86" rx="11.83" ry="6.69" transform="translate(-55.63 87.59) rotate(-66.95)"/><path class="cls-2" d="M44.23,89.22,32.6,82.5a18.79,18.79,0,0,0-1.89,7.81c0,5.67,3.45,8.28,7.7,5.82A15.69,15.69,0,0,0,44.23,89.22Z"/><ellipse class="cls-10" cx="38.41" cy="85.86" rx="11.83" ry="6.69" transform="translate(-55.63 87.59) rotate(-66.95)"/><line class="cls-8" x1="31.39" y1="45.39" x2="44.29" y2="52.84"/><path class="cls-10" d="M60,80.09h0L55,77.16c0-.29,0-.58,0-.86,0-.91,0-1.77-.13-2.6l4.9-6.59a3.71,3.71,0,0,0,.64-3.58l-4.72-8.19A1,1,0,0,0,55.3,55h0l-6.45-3.73L42.4,47.51h0a.93.93,0,0,0-.46-.12,1.77,1.77,0,0,0-.52.12,2.93,2.93,0,0,0-1.06.92l-1.11,1.5-7.86-4.54h0a1.06,1.06,0,0,0-.25-.09.86.86,0,0,0-.28,0,1.38,1.38,0,0,0-.62.21l-9.45,5.45a2,2,0,0,0-.34.25,1.88,1.88,0,0,0-.25.24.46.46,0,0,0-.07.07A4.5,4.5,0,0,0,19,54.3v7.53a39.68,39.68,0,0,0-3.47,4.68l-4.89-.94a2,2,0,0,0-1.72,1H9a5,5,0,0,0-.35.54l-.06.1a5.36,5.36,0,0,0-.28.64L3.54,81.46a3.87,3.87,0,0,0-.15.53.77.77,0,0,0,0,.15,2.65,2.65,0,0,0-.05.38.53.53,0,0,0,0,.13,2.91,2.91,0,0,0,0,.42v0a2.47,2.47,0,0,0,.1.43h0a1.17,1.17,0,0,0,.49.66h0L9,87.12c0,.28,0,.57,0,.86,0,.9.05,1.76.13,2.59h0l-4.9,6.6a3,3,0,0,0-.27.42,3.48,3.48,0,0,0-.37,3.16l4.72,8.18a1,1,0,0,0,.37.38h0l12.9,7.44h0c.55.32,1.36,0,2-.9l1.11-1.5,7.86,4.53h0a1.12,1.12,0,0,0,1.15-.08l9.45-5.46A4.21,4.21,0,0,0,44.9,110v-7.53a38.87,38.87,0,0,0,3.47-4.68l4.89.94c.85.16,1.92-.84,2.41-2.25l4.72-13.63C60.82,81.58,60.65,80.45,60,80.09Z"/><path class="cls-11" d="M30.71,90.31a11.09,11.09,0,0,0,.34,2.83,7.66,7.66,0,0,0,1.21-.56c4.26-2.46,7.71-9,7.71-14.72A10.64,10.64,0,0,0,39.62,75a8.58,8.58,0,0,0-1.21.56C34.16,78.05,30.71,84.64,30.71,90.31Z"/><rect class="cls-12" width="120" height="120"/><rect class="cls-12" width="120" height="120"/></g></g></svg>