<svg xmlns="http://www.w3.org/2000/svg" viewBox="0 0 120 120"><defs><style>.cls-1,.cls-8{fill:#fff;}.cls-10,.cls-11,.cls-2,.cls-3,.cls-7{fill:none;}.cls-2,.cls-6{stroke:#436db5;}.cls-10,.cls-2,.cls-3,.cls-6,.cls-7,.cls-8,.cls-9{stroke-linecap:round;stroke-linejoin:round;stroke-width:2px;}.cls-3{stroke:#deeaff;}.cls-4,.cls-9{fill:#98b9ea;}.cls-5{fill:#deeaff;}.cls-6{fill:#436db5;}.cls-7,.cls-8,.cls-9{stroke:#98b9ea;}.cls-10{stroke:#fff;}</style></defs><title>headset</title><g id="Layer_2" data-name="Layer 2"><g id="Objects"><path class="cls-1" d="M99.45,105.37l-2.78-4.82,2.39-1.38a13.74,13.74,0,0,0,3.74-20.63l-13.15-16L94,59,107.1,75a19.29,19.29,0,0,1-5.26,29Z"/><path class="cls-2" d="M99.45,105.37l-2.78-4.82,2.39-1.38a13.74,13.74,0,0,0,3.74-20.63l-13.15-16L94,59,107.1,75a19.29,19.29,0,0,1-5.26,29Z"/><path class="cls-3" d="M93.68,61.82l11.88,14.46a17.3,17.3,0,0,1-4.72,26"/><path class="cls-4" d="M92.87,99.27h5a5.24,5.24,0,0,1,5.24,5.24v0a5.24,5.24,0,0,1-5.24,5.24h-5a5.24,5.24,0,0,1-5.24-5.24v0a5.23,5.23,0,0,1,5.23-5.23Z" transform="translate(-39.46 61.63) rotate(-29.97)"/><path class="cls-4" d="M102.08,100.64a5.23,5.23,0,0,0-7.15-1.92l-4.34,2.51a5.23,5.23,0,0,0,5.23,9.07l4.35-2.51A5.23,5.23,0,0,0,102.08,100.64Zm-3.71,4.66L93.71,108a3.11,3.11,0,0,1-3.11-5.39l4.66-2.69a3.11,3.11,0,1,1,3.11,5.39Z"/><path class="cls-5" d="M96.51,103.18l-4,2.29a1.82,1.82,0,0,1-2.48-.67h0a1.81,1.81,0,0,1,.67-2.47l4-2.28a1.8,1.8,0,0,1,2.47.66h0A1.8,1.8,0,0,1,96.51,103.18Z"/><path class="cls-2" d="M92.87,99.27h5a5.24,5.24,0,0,1,5.24,5.24v0a5.24,5.24,0,0,1-5.24,5.24h-5a5.24,5.24,0,0,1-5.24-5.24v0a5.23,5.23,0,0,1,5.23-5.23Z" transform="translate(-39.46 61.63) rotate(-29.97)"/><path class="cls-6" d="M49.77,99.39c0-11.15-6.78-24.11-15.15-28.94-3.79-2.19-7.25-2.32-9.91-.79h0L20.14,72.3l2.51,5.32a22.64,22.64,0,0,0-.13,2.53c0,11,6.66,23.87,14.92,28.8L40,114.29l4.58-2.64h0C47.74,109.79,49.77,105.5,49.77,99.39Z"/><path class="cls-4" d="M34.62,70.45c-3.79-2.19-7.25-2.32-9.91-.79h0L20.14,72.3l2.51,5.32a22.64,22.64,0,0,0-.13,2.53,36.71,36.71,0,0,0,3.7,15.35L46.07,84C43.29,78.16,39.2,73.09,34.62,70.45Z"/><path class="cls-7" d="M49.77,99.39c0-11.15-6.78-24.11-15.15-28.94-3.79-2.19-7.25-2.32-9.91-.79h0L20.14,72.3l2.51,5.32a22.64,22.64,0,0,0-.13,2.53c0,11,6.66,23.87,14.92,28.8L40,114.29l4.58-2.64h0C47.74,109.79,49.77,105.5,49.77,99.39Z"/><ellipse class="cls-2" cx="30.05" cy="93.29" rx="13.16" ry="23.25" transform="translate(-34.13 19.21) rotate(-23.05)"/><path class="cls-2" d="M49.77,99.39A36.9,36.9,0,0,0,46.07,84h0a38.77,38.77,0,0,0-4.33-7.1h0l-.69-.85-.12-.14c-.19-.23-.39-.45-.58-.67s-.13-.15-.19-.22l-.53-.57-.24-.24-.51-.5c-.08-.09-.17-.17-.26-.26L38.13,73l-.29-.25-.49-.41-.3-.25-.51-.38-.29-.22-.55-.38L35.44,71c-.27-.18-.54-.35-.82-.51-3.79-2.19-7.25-2.32-9.91-.79h0L20.14,72.3h0c-3.21,1.85-5.24,6.15-5.24,12.25,0,11.15,6.78,24.11,15.15,28.94,3.79,2.19,7.25,2.33,9.91.79h0l4.58-2.64h0C47.74,109.79,49.77,105.5,49.77,99.39Z"/><path class="cls-4" d="M45.19,102c0-11.16-6.78-24.11-15.14-28.94-3.79-2.19-7.26-2.33-9.91-.8h0L13.74,76l2.51,5.32c-.08.81-.13,1.65-.13,2.53,0,11.06,6.66,23.88,14.92,28.81L33.56,118l6.4-3.69h0C43.16,112.43,45.19,108.14,45.19,102Z"/><path class="cls-5" d="M30.05,73.1c-3.79-2.19-7.26-2.33-9.91-.8h0L13.74,76l2.51,5.32c-.08.81-.13,1.65-.13,2.53a36.94,36.94,0,0,0,3.7,15.36L41.49,86.68C38.72,80.81,34.62,75.74,30.05,73.1Z"/><ellipse class="cls-8" cx="23.65" cy="96.99" rx="13.16" ry="23.25" transform="translate(-36.09 17) rotate(-23.05)"/><path class="cls-2" d="M45.19,102a36.79,36.79,0,0,0-3.7-15.36h0a38,38,0,0,0-4.33-7.11h0c-.22-.29-.45-.58-.68-.85l-.13-.15c-.19-.23-.38-.45-.58-.67s-.13-.14-.19-.22-.35-.38-.53-.56l-.24-.25c-.16-.17-.33-.33-.5-.5L34,76.12c-.16-.16-.33-.31-.49-.45l-.29-.26L32.77,75l-.3-.24c-.16-.14-.33-.26-.5-.39l-.3-.22-.55-.38-.25-.17c-.28-.18-.55-.35-.82-.5-3.79-2.19-7.26-2.33-9.91-.8h0L13.74,76h0C10.53,77.85,8.5,82.14,8.5,88.24c0,11.15,6.78,24.11,15.15,28.94,3.79,2.19,7.25,2.33,9.91.8h0l6.4-3.69h0C43.16,112.43,45.19,108.14,45.19,102Z"/><ellipse class="cls-5" cx="23.65" cy="96.99" rx="7.38" ry="13.04" transform="translate(-36.09 17) rotate(-23.05)"/><path class="cls-4" d="M23.65,85.66c-4.69-2.71-8.49.17-8.49,6.42a20.66,20.66,0,0,0,2.07,8.61l12.84-7.41A17.45,17.45,0,0,0,23.65,85.66Z"/><path class="cls-5" d="M23.65,85.66a6.56,6.56,0,0,0-3.62-1,9.47,9.47,0,0,0-1.41,5.42c0,6.25,3.81,13.52,8.5,16.23a6.56,6.56,0,0,0,3.62,1,9.47,9.47,0,0,0,1.4-5.42C32.14,95.63,28.34,88.37,23.65,85.66Z"/><path class="cls-7" d="M23.65,85.66a6.56,6.56,0,0,0-3.62-1,9.47,9.47,0,0,0-1.41,5.42c0,6.25,3.81,13.52,8.5,16.23a6.56,6.56,0,0,0,3.62,1,9.47,9.47,0,0,0,1.4-5.42C32.14,95.63,28.34,88.37,23.65,85.66Z"/><ellipse class="cls-2" cx="23.65" cy="96.99" rx="7.38" ry="13.04" transform="translate(-36.09 17) rotate(-23.05)"/><path class="cls-9" d="M100.59,70.05c0-11.15-6.78-24.11-15.15-28.94-3.79-2.19-7.25-2.32-9.91-.79h0L69.13,44l2.52,5.32a22.64,22.64,0,0,0-.13,2.53c0,11,6.66,23.87,14.92,28.8L89,86l6.39-3.7h0C98.56,80.45,100.59,76.16,100.59,70.05Z"/><path class="cls-5" d="M85.44,41.11c-3.79-2.19-7.25-2.32-9.91-.79h0L69.13,44l2.52,5.32a22.64,22.64,0,0,0-.13,2.53,36.71,36.71,0,0,0,3.7,15.35L96.89,54.7C94.11,48.82,90,43.75,85.44,41.11Z"/><path class="cls-7" d="M100.59,70.05c0-11.15-6.78-24.11-15.15-28.94-3.79-2.19-7.25-2.32-9.91-.79h0L69.13,44l2.52,5.32a22.64,22.64,0,0,0-.13,2.53c0,11,6.66,23.87,14.92,28.8L89,86l6.39-3.7h0C98.56,80.45,100.59,76.16,100.59,70.05Z"/><ellipse class="cls-8" cx="79.05" cy="65" rx="13.16" ry="23.25" transform="translate(-19.14 36.14) rotate(-23.05)"/><ellipse class="cls-5" cx="79.05" cy="65" rx="8.1" ry="14.32" transform="translate(-19.14 36.14) rotate(-23.05)"/><path class="cls-4" d="M79.05,52.56c-5.16-3-9.33.19-9.33,7.06A22.66,22.66,0,0,0,72,69.07l14.09-8.14C84.38,57.32,81.86,54.19,79.05,52.56Z"/><ellipse class="cls-7" cx="79.05" cy="65" rx="8.1" ry="14.32" transform="translate(-19.14 36.14) rotate(-23.05)"/><path class="cls-2" d="M100.59,70.05a36.9,36.9,0,0,0-3.7-15.35h0a38.77,38.77,0,0,0-4.33-7.1h0l-.69-.85-.12-.14c-.19-.23-.39-.46-.58-.67L91,45.7l-.52-.57-.24-.24-.51-.5c-.08-.09-.17-.17-.26-.26L89,43.68l-.29-.25L88.17,43l-.3-.25-.51-.38-.29-.22-.55-.38-.26-.18c-.27-.17-.54-.34-.82-.5-3.79-2.19-7.25-2.32-9.91-.79h0L69.13,44h0c-3.21,1.85-5.24,6.15-5.24,12.25,0,11.15,6.78,24.11,15.15,28.94,3.79,2.19,7.25,2.33,9.9.79h0l6.39-3.7h0C98.56,80.45,100.59,76.16,100.59,70.05Z"/><path class="cls-8" d="M79.05,52.56a7.22,7.22,0,0,0-4-1.09,10.35,10.35,0,0,0-1.54,6c0,6.87,4.17,14.85,9.32,17.82a7.24,7.24,0,0,0,4,1.1,10.35,10.35,0,0,0,1.54-6C88.37,63.52,84.2,55.54,79.05,52.56Z"/><path class="cls-1" d="M66.14,3.21C60.28-.17,52.93.34,45.45,4.66,29.53,13.85,16.58,38.49,16.58,59.58V75.05a11.3,11.3,0,0,1,7.07,1.74A23.18,23.18,0,0,1,29,81.15V66.72C29,45.63,41.9,21,57.82,11.8,65.31,7.48,72.65,7,78.51,10.35Z"/><path class="cls-5" d="M24.68,28.39c-5,9.77-8.1,20.9-8.1,31.19V75.05a11.3,11.3,0,0,1,7.07,1.74A23.18,23.18,0,0,1,29,81.15V66.72C29,56.43,32,45.3,37.05,35.53Z"/><path class="cls-4" d="M34.31,78.06V66.72c0-19.38,11.75-41.94,26.19-50.28C66.26,13.12,71.7,12.6,75.84,15,81,18,84,25.26,84,34.94v15l5.35-3.09V34.94c0-11.64-4-20.6-10.86-24.59C72.65,7,65.31,7.48,57.82,11.8,41.91,21,29,45.63,29,66.72V81.15Z"/><path class="cls-10" d="M66.14,3.21C60.28-.17,52.93.34,45.45,4.66,29.53,13.85,16.58,38.49,16.58,59.58V75.05a11.3,11.3,0,0,1,7.07,1.74A23.18,23.18,0,0,1,29,81.15V66.72C29,45.63,41.9,21,57.82,11.8,65.31,7.48,72.65,7,78.51,10.35Z"/><path class="cls-2" d="M78.51,10.35h0L66.14,3.21C60.28-.17,52.93.34,45.45,4.66,29.53,13.85,16.58,38.49,16.58,59.58V75.05a11.3,11.3,0,0,1,7.07,1.74A23.18,23.18,0,0,1,29,81.15l5.36-3.09V66.72c0-19.38,11.75-41.94,26.19-50.28a20.75,20.75,0,0,1,8.18-2.85c1.91,3.65,3,8.5,3,14.2v15L84,49.92h0l5.35-3.09V34.94C89.37,23.3,85.41,14.34,78.51,10.35Z"/><path class="cls-6" d="M84,34.94C84,25.26,81,18,75.84,15a11.7,11.7,0,0,0-7.16-1.4c1.91,3.65,3,8.5,3,14.2v15L84,49.92h0Z"/><path class="cls-6" d="M94.19,73.75c0-11.16-6.78-24.11-15.14-28.94-3.79-2.19-7.26-2.33-9.91-.8h0l-4.57,2.64L67.07,52c-.08.81-.13,1.65-.13,2.53,0,11.06,6.66,23.88,14.92,28.81l2.52,5.33L89,86h0C92.16,84.14,94.19,79.85,94.19,73.75Z"/><path class="cls-4" d="M79.05,44.81c-3.79-2.19-7.26-2.33-9.91-.8h0l-4.57,2.64L67.07,52c-.08.81-.13,1.65-.13,2.53a36.94,36.94,0,0,0,3.7,15.36L90.49,58.39C87.72,52.52,83.62,47.45,79.05,44.81Z"/><path class="cls-2" d="M94.19,73.75c0-11.16-6.78-24.11-15.14-28.94-3.79-2.19-7.26-2.33-9.91-.8h0l-4.57,2.64L67.07,52c-.08.81-.13,1.65-.13,2.53,0,11.06,6.66,23.88,14.92,28.81l2.52,5.33L89,86h0C92.16,84.14,94.19,79.85,94.19,73.75Z"/><ellipse class="cls-4" cx="74.47" cy="67.64" rx="13.16" ry="23.25" transform="translate(-20.54 34.56) rotate(-23.05)"/><ellipse class="cls-3" cx="74.47" cy="67.64" rx="13.16" ry="23.25" transform="translate(-20.54 34.56) rotate(-23.05)"/><ellipse class="cls-6" cx="74.47" cy="67.64" rx="7.71" ry="13.63" transform="translate(-20.54 34.56) rotate(-23.05)"/><path class="cls-5" d="M74.47,55.8a6.82,6.82,0,0,0-3.91-1A9.79,9.79,0,0,0,69,60.53c0,6.54,4,14.14,8.88,17a6.85,6.85,0,0,0,3.92,1,9.88,9.88,0,0,0,1.53-5.77C83.35,66.23,79.37,58.64,74.47,55.8Z"/><path class="cls-7" d="M74.47,55.8a6.82,6.82,0,0,0-3.91-1A9.79,9.79,0,0,0,69,60.53c0,6.54,4,14.14,8.88,17a6.85,6.85,0,0,0,3.92,1,9.88,9.88,0,0,0,1.53-5.77C83.35,66.23,79.37,58.64,74.47,55.8Z"/><ellipse class="cls-2" cx="74.47" cy="67.64" rx="7.71" ry="13.63" transform="translate(-20.54 34.56) rotate(-23.05)"/><path class="cls-2" d="M94.19,73.75c0-11.16-6.78-24.11-15.14-28.94-3.79-2.19-7.26-2.33-9.91-.8h0l-4.57,2.64v0c-3.21,1.85-5.25,6.13-5.25,12.23,0,11.15,6.78,24.11,15.15,28.94,3.79,2.19,7.25,2.32,9.9.78v0L89,86h0C92.16,84.14,94.19,79.85,94.19,73.75Z"/><path class="cls-2" d="M94.19,73.75a36.79,36.79,0,0,0-3.7-15.36h0a38,38,0,0,0-4.33-7.11h0c-.22-.29-.45-.57-.68-.85l-.13-.15c-.19-.23-.38-.45-.58-.67s-.13-.14-.19-.22-.35-.38-.53-.56l-.24-.25-.5-.5L83,47.83c-.16-.16-.33-.31-.49-.45l-.29-.26-.49-.41-.3-.24-.5-.39-.3-.22-.55-.38-.26-.17c-.27-.18-.54-.35-.81-.5-3.79-2.19-7.26-2.33-9.91-.8h0l-4.57,2.64h0c-3.21,1.85-5.24,6.14-5.24,12.24,0,11.15,6.78,24.11,15.15,28.94,3.79,2.19,7.25,2.33,9.91.79h0L89,86h0C92.16,84.14,94.19,79.85,94.19,73.75Z"/><rect class="cls-11" width="120" height="120"/><rect class="cls-11" width="120" height="120"/></g></g></svg>