<svg xmlns="http://www.w3.org/2000/svg" viewBox="0 0 120 120"><defs><style>.cls-1{fill:#deeaff;stroke:#98b9ea;}.cls-1,.cls-4,.cls-5,.cls-9{stroke-linecap:round;stroke-linejoin:round;}.cls-1,.cls-3,.cls-4,.cls-5,.cls-8,.cls-9{stroke-width:2px;}.cls-2,.cls-3{fill:#fff;}.cls-3{stroke:#fff;}.cls-3,.cls-8{stroke-miterlimit:10;}.cls-4{fill:#98b9ea;stroke:#deeaff;}.cls-10,.cls-5,.cls-8,.cls-9{fill:none;}.cls-5{stroke:#436db5;}.cls-6{fill:#dfeab0;}.cls-7{fill:#c4d36c;}.cls-8{stroke:#dfeab0;}.cls-9{stroke:#a7b23b;}</style></defs><title>healthcare</title><g id="Layer_2" data-name="Layer 2"><g id="Industries"><path class="cls-1" d="M69.69,34.8c.16-.65.31-1.3.44-1.95L80.28,18.54,64.41,9.38h0c-3.34-1.93-7.7-1.76-12.46,1-5.51,3.18-10.47,9.16-14,16.15-3.48-3-8.44-3.23-13.95-.05C13.53,32.57,5,48.86,5,62.89a25.6,25.6,0,0,0,1.31,8.5h0c2.76,8.67,12.35,17.25,20.82,22.13h0L43,102.68l4.39-19.14c8.8-14.85,19.4-36.19,22.33-48.75Z"/><path class="cls-2" d="M72,30.22l8.27-11.68L64.41,9.38h0c-3.34-1.93-7.7-1.76-12.46,1a28.46,28.46,0,0,0-6,4.77Z"/><path class="cls-3" d="M55,69.81A230,230,0,0,0,67.07,43.33L38,26.54h0l-3.08-1.78c-3.08-1.08-6.83-.6-10.87,1.73-5.76,3.33-10.92,9.72-14.41,17.13Z"/><path class="cls-4" d="M85.55,44a41.43,41.43,0,0,0,1.31-10c0-14-8.53-20.48-19-14.41-5.51,3.18-10.47,9.17-14,16.16-3.48-3-8.44-3.23-14-.05-10.52,6.07-19,22.37-19,36.4a25.6,25.6,0,0,0,1.31,8.5h0c3.89,12.23,21.41,24.31,30.14,26a1.59,1.59,0,0,0,1.55-.17h0a3,3,0,0,0,.39-.27l.11-.08c.11-.09.21-.21.32-.31l0,0,0,0a5.51,5.51,0,0,0,.63-.85C64.08,93.11,81.66,60.71,85.56,44Z"/><path class="cls-5" d="M86.86,34c0-7.68-2.56-13.08-6.59-15.4h0L64.41,9.38h0c-3.34-1.93-7.7-1.76-12.46,1-5.51,3.18-10.47,9.16-14,16.15-3.48-3-8.44-3.23-13.95-.05C13.53,32.57,5,48.86,5,62.89a25.6,25.6,0,0,0,1.31,8.5h0c2.76,8.67,12.35,17.25,20.82,22.13h0L43,102.68h0a33.13,33.13,0,0,0,9.33,3.91,1.59,1.59,0,0,0,1.55-.17h0a3,3,0,0,0,.39-.27l.11-.08c.11-.09.21-.21.32-.31l0,0,0,0a5.51,5.51,0,0,0,.63-.85C64.08,93.11,81.66,60.71,85.56,44h0A41.43,41.43,0,0,0,86.86,34Z"/><path class="cls-6" d="M103.55,54.08h0a1.35,1.35,0,0,0-1.37.11l-7.33,4.23,4.78-9.23L88.91,43h0a1.32,1.32,0,0,0-1.38.11l-9.25,5.34a5,5,0,0,0-2.1,4V68.08a2,2,0,0,1-.84,1.61L63.63,76.44a5,5,0,0,0-2.1,4V92.79a1.85,1.85,0,0,0,.73,1.7h0L73,100.68l3.2-6.19v9.38a1.83,1.83,0,0,0,.73,1.69h0l10.72,6.18L100.77,77l13.5-16.68Z"/><path class="cls-2" d="M94.77,60.56l1.81-3.14-1.73,1,4.78-9.23L88.91,43h0a1.32,1.32,0,0,0-1.38.11l-9.25,5.34a4.16,4.16,0,0,0-1.5,1.71Z"/><path class="cls-2" d="M103.55,54.08a1.35,1.35,0,0,0-1.37.11l-7.33,4.23,4.78-9.23-3.55-2L87.32,62.32l17.23,10,9.72-12-10.72-6.19Z"/><path class="cls-2" d="M93.43,96.39,98.9,81.9,76.06,68.72a1.88,1.88,0,0,1-.72,1L63.63,76.44a4.32,4.32,0,0,0-1.56,1.85Z"/><path class="cls-7" d="M112.9,60.38l-11.71,6.76c-.46.26-.84,0-.84-.64V50.89c0-1.54-.94-2.26-2.1-1.59L89,54.64a5,5,0,0,0-2.1,4V74.27a2,2,0,0,1-.84,1.6L74.35,82.63a5,5,0,0,0-2.1,4V99c0,1.55.94,2.26,2.1,1.59l11.71-6.76c.46-.27.84,0,.84.64v15.6c0,1.55.94,2.26,2.1,1.59l9.25-5.34a5,5,0,0,0,2.1-4V86.68a2,2,0,0,1,.84-1.61l11.71-6.75a5,5,0,0,0,2.1-4V62C115,60.42,114.06,59.71,112.9,60.38Z"/><path class="cls-8" d="M112.9,60.38l-11.71,6.76c-.46.26-.84,0-.84-.64V50.89c0-1.54-.94-2.26-2.1-1.59L89,54.64a5,5,0,0,0-2.1,4V74.27a2,2,0,0,1-.84,1.6L74.35,82.63a5,5,0,0,0-2.1,4V99c0,1.55.94,2.26,2.1,1.59l11.71-6.76c.46-.27.84,0,.84.64v15.6c0,1.55.94,2.26,2.1,1.59l9.25-5.34a5,5,0,0,0,2.1-4V86.68a2,2,0,0,1,.84-1.61l11.71-6.75a5,5,0,0,0,2.1-4V62C115,60.42,114.06,59.71,112.9,60.38Z"/><path class="cls-9" d="M114.27,60.27h0l-10.72-6.19h0a1.35,1.35,0,0,0-1.37.11l-1.83,1.05V50.89a1.83,1.83,0,0,0-.73-1.69h0L88.91,43h0a1.32,1.32,0,0,0-1.38.11l-9.25,5.34a2.38,2.38,0,0,0-.43.3.12.12,0,0,1,0,.05,3.85,3.85,0,0,0-.35.35v0a5,5,0,0,0-.66,1h0a5.18,5.18,0,0,0-.6,2.3V68.08a2.07,2.07,0,0,1-.12.64h0a2.06,2.06,0,0,1-.29.55l0,0a1.29,1.29,0,0,1-.15.17l0,0a1.56,1.56,0,0,1-.2.16L63.63,76.44a4.73,4.73,0,0,0-.39.28l-.05,0c-.1.1-.21.2-.31.31l-.11.12-.23.3a5.38,5.38,0,0,0-1,3V92.79a1.85,1.85,0,0,0,.73,1.7h0L73,100.68h0a1.35,1.35,0,0,0,1.37-.11l1.83-1v4.35a1.83,1.83,0,0,0,.73,1.69h0l10.72,6.18h0a1.33,1.33,0,0,0,1.37-.11l9.25-5.34a5,5,0,0,0,2.1-4V86.68a2,2,0,0,1,.84-1.61l11.71-6.75a5,5,0,0,0,2.1-4V62A1.85,1.85,0,0,0,114.27,60.27Z"/><rect class="cls-10" width="120" height="120"/><rect class="cls-10" width="120" height="120"/></g></g></svg>