<svg xmlns="http://www.w3.org/2000/svg" viewBox="0 0 120 120"><defs><style>.cls-1{fill:#c4d36c;}.cls-2,.cls-5{fill:#dfeab0;}.cls-2,.cls-3,.cls-6{stroke:#fff;}.cls-11,.cls-13,.cls-14,.cls-15,.cls-16,.cls-17,.cls-2,.cls-3,.cls-5,.cls-6,.cls-8{stroke-linecap:round;stroke-linejoin:round;}.cls-11,.cls-13,.cls-14,.cls-15,.cls-16,.cls-17,.cls-2,.cls-3,.cls-4,.cls-5,.cls-6,.cls-8{stroke-width:2px;}.cls-11,.cls-13,.cls-14,.cls-18,.cls-3,.cls-4,.cls-8{fill:none;}.cls-4,.cls-5{stroke:#c4d36c;}.cls-4{stroke-miterlimit:10;}.cls-6,.cls-9{fill:#fff;}.cls-7{fill:#a7b23b;}.cls-8{stroke:#a7b23b;}.cls-10,.cls-16{fill:#deeaff;}.cls-11,.cls-16,.cls-17{stroke:#98b9ea;}.cls-12,.cls-17{fill:#98b9ea;}.cls-13{stroke:#deeaff;}.cls-14,.cls-15{stroke:#436db5;}.cls-15{fill:#436db5;}</style></defs><title>home-improvement</title><g id="Layer_2" data-name="Layer 2"><g id="Industries"><path class="cls-1" d="M71.3,24.47,60.13,18a6.44,6.44,0,0,0-5.83,0L32.43,30.65l27,15.56L81.25,33.59a2.06,2.06,0,0,0,1.21-1.68h0V25.34Z"/><path class="cls-2" d="M81.25,27,59.39,39.65l-27-15.56L54.3,11.47a6.44,6.44,0,0,1,5.83,0L81.25,23.66C82.86,24.59,82.86,26.1,81.25,27Z"/><path class="cls-3" d="M81.25,27,59.39,39.65l-27-15.56L54.3,11.47a6.44,6.44,0,0,1,5.83,0L81.25,23.66C82.86,24.59,82.86,26.1,81.25,27Z"/><line class="cls-4" x1="70.29" y1="17.8" x2="42.99" y2="33.55"/><line class="cls-4" x1="76.86" y1="21.78" x2="49.73" y2="37.44"/><line class="cls-4" x1="63.9" y1="13.7" x2="36.26" y2="29.66"/><path class="cls-5" d="M43,36.69l1.85,1.11-2-1.14.12,0L25.34,26.09v6.56h0a.14.14,0,0,0,.08.12l30.3,17.49a.47.47,0,0,0,.4,0l4-2.33a.79.79,0,0,0,.46-.64V40.73Z"/><path class="cls-1" d="M38.17,40.13,25.42,32.77a.15.15,0,0,0-.1,0l-5-2.92v6.56a1.84,1.84,0,0,0,1.09,1.51L31.85,44h0L28.8,42.19,12.14,51.81,1,53.47V60a3.71,3.71,0,0,0,2.2,3.06,11.71,11.71,0,0,0,10.6,0L39.4,48.31l7.43,4.29a5.74,5.74,0,0,0,5.23,0l3.66-2.11a.14.14,0,0,0,.08-.11V43.81Z"/><path class="cls-1" d="M28,41.75l.77.44L12.14,51.81,8.77,51.2V64.35a10.68,10.68,0,0,0,5-1.26L39.4,48.31V41.75Z"/><path class="cls-1" d="M50.26,53.17a4.88,4.88,0,0,0,1.8-.57l3.66-2.11a.14.14,0,0,0,.08-.11V43.81l-5.54-1.15Z"/><path class="cls-2" d="M55.72,43.7,25.42,26.21a.41.41,0,0,0-.4,0l-3.65,2.11c-1.45.83-1.45,2.19,0,3l7.43,4.29L3.2,50.41C.27,52.1.27,54.84,3.2,56.53h0a11.71,11.71,0,0,0,10.6,0L39.4,41.75,46.83,46a5.8,5.8,0,0,0,5.23,0l3.66-2.11A.12.12,0,0,0,55.72,43.7Z"/><path class="cls-6" d="M29.45,23.65l-4,2.33c-.11.06-.11.16,0,.23L55.72,43.7a.47.47,0,0,0,.4,0l4-2.33a.68.68,0,0,0,0-1.28L31.67,23.65A2.48,2.48,0,0,0,29.45,23.65Z"/><ellipse class="cls-7" cx="8.77" cy="53.31" rx="2.19" ry="1.26"/><path class="cls-8" d="M60.15,40.09,31.67,23.65a2.48,2.48,0,0,0-2.22,0l-4,2.33a.14.14,0,0,0-.08.11v.1a.44.44,0,0,0-.32,0l-3.65,2.11a1.84,1.84,0,0,0-1.09,1.51v6.56a1.84,1.84,0,0,0,1.09,1.51l1.74,1L3.2,50.41A3.72,3.72,0,0,0,1,53.47H1V60a3.71,3.71,0,0,0,2.2,3.06,10.91,10.91,0,0,0,5.57,1.26h0A12.26,12.26,0,0,0,11.43,64a2.29,2.29,0,0,0,.28-.09,8.79,8.79,0,0,0,.95-.29,7.45,7.45,0,0,0,1.14-.54L39.4,48.31l7.43,4.29a5.69,5.69,0,0,0,3.43.57h0a6.25,6.25,0,0,0,.86-.18l.17-.06a3.8,3.8,0,0,0,.77-.33l3.66-2.11.4-.23,4-2.33a.79.79,0,0,0,.46-.64V40.73A.8.8,0,0,0,60.15,40.09Z"/><path class="cls-8" d="M82.46,25.34a2,2,0,0,0-1.21-1.68L60.13,11.47a6.44,6.44,0,0,0-5.83,0L32.43,24.09l-.76-.44a2.48,2.48,0,0,0-2.22,0l-8.08,4.67a1.84,1.84,0,0,0-1.09,1.51v6.56a1.84,1.84,0,0,0,1.09,1.51l1.74,1L3.2,50.41A3.72,3.72,0,0,0,1,53.47H1V60a3.71,3.71,0,0,0,2.2,3.06,10.91,10.91,0,0,0,5.57,1.26h0A12.26,12.26,0,0,0,11.43,64a2.29,2.29,0,0,0,.28-.09,8.79,8.79,0,0,0,.95-.29,7.45,7.45,0,0,0,1.14-.54L39.4,48.31l7.43,4.29a5.69,5.69,0,0,0,3.43.57h0a6.25,6.25,0,0,0,.86-.18l.17-.06a3.8,3.8,0,0,0,.77-.33l8.09-4.67a.79.79,0,0,0,.46-.64V45.51L81.25,33.59a2.06,2.06,0,0,0,1.21-1.68V25.34Z"/><path class="cls-9" d="M39.3,60.82h0c-1.56-.9-3.59-.83-5.82.46-4.91,2.84-8.9,10.45-8.9,17,0,3.59,1.2,6.1,3.09,7.19h0l40.09,23.14L79.39,84Z"/><path class="cls-10" d="M26.71,69.36a21.59,21.59,0,0,0-2.14,8.93c0,3.59,1.2,6.1,3.09,7.19h0l40.09,23.14,5.78-12.24Z"/><path class="cls-11" d="M39.3,60.82h0c-1.56-.9-3.59-.83-5.82.46-4.91,2.84-8.9,10.45-8.9,17,0,3.59,1.2,6.1,3.09,7.19h0l40.09,23.14L79.39,84Z"/><ellipse class="cls-12" cx="73.56" cy="96.3" rx="13.66" ry="7.73" transform="translate(-43.85 126.28) rotate(-66.95)"/><ellipse class="cls-13" cx="73.56" cy="96.3" rx="13.66" ry="7.73" transform="translate(-43.85 126.28) rotate(-66.95)"/><path class="cls-14" d="M79.38,84h0L39.3,60.82h0c-1.56-.9-3.59-.83-5.82.46-3.23,1.87-6.06,5.81-7.62,10.16l-.06.16c-.23.68-.44,1.37-.61,2.07l-.06.24c-.16.69-.29,1.37-.38,2.06l0,.22a18.81,18.81,0,0,0-.14,2.09c0,3.59,1.2,6.1,3.09,7.19h0l40.09,23.14h0c1.56.9,3.59.83,5.81-.46,4.92-2.83,8.9-10.44,8.9-17C82.46,87.58,81.26,85.06,79.38,84Z"/><ellipse class="cls-15" cx="73.56" cy="96.3" rx="5.22" ry="2.95" transform="translate(-43.85 126.28) rotate(-66.95)"/><path class="cls-16" d="M119,45.05a7.59,7.59,0,0,0-3.17-6,2,2,0,0,0-2.07-.17h0L90.32,52.36l4.15,8.78,23.44-13.53h0A2.82,2.82,0,0,0,119,45.05Z"/><path class="cls-12" d="M94.47,61.14l23.44-13.53h0a2.82,2.82,0,0,0,1.1-2.56,7.48,7.48,0,0,0-.72-3.06L92.47,56.9Z"/><ellipse class="cls-17" cx="92.4" cy="56.75" rx="2.75" ry="4.86" transform="translate(-14.84 40.71) rotate(-23.05)"/><path class="cls-14" d="M119,45.05a7.59,7.59,0,0,0-3.17-6,2,2,0,0,0-2.07-.17h0L90.32,52.36v0a2.78,2.78,0,0,0-1.1,2.54,7.59,7.59,0,0,0,3.17,6,2,2,0,0,0,2.06.15v0l23.44-13.53h0A2.82,2.82,0,0,0,119,45.05Z"/><path class="cls-10" d="M78.21,101.84a2.82,2.82,0,0,1-1.42-.38l-4.47-2.58a1.83,1.83,0,0,1-.81-1.69,4.19,4.19,0,0,1,1.8-3.39,1.69,1.69,0,0,1,.86-.25,1.3,1.3,0,0,1,.81.28l3.23,1.86L99.42,83.44,74.22,68.89a2.85,2.85,0,0,1,0-4.94l16.91-9.77A1.36,1.36,0,0,1,91.8,54a1.74,1.74,0,0,1,.85.24,4.21,4.21,0,0,1,1.79,3.39,1.84,1.84,0,0,1-.79,1.68l-12.29,7.1L106.56,81a2.86,2.86,0,0,1,0,5L79.64,101.46A2.86,2.86,0,0,1,78.21,101.84Z"/><path class="cls-14" d="M78.21,101.84a2.82,2.82,0,0,1-1.42-.38l-4.47-2.58a1.83,1.83,0,0,1-.81-1.69,4.19,4.19,0,0,1,1.8-3.39,1.69,1.69,0,0,1,.86-.25,1.3,1.3,0,0,1,.81.28l3.23,1.86L99.42,83.44,74.22,68.89a2.85,2.85,0,0,1,0-4.94l16.91-9.77A1.36,1.36,0,0,1,91.8,54a1.74,1.74,0,0,1,.85.24,4.21,4.21,0,0,1,1.79,3.39,1.84,1.84,0,0,1-.79,1.68l-12.29,7.1L106.56,81a2.86,2.86,0,0,1,0,5L79.64,101.46A2.86,2.86,0,0,1,78.21,101.84Z"/><path class="cls-3" d="M80.32,96.78,100.79,85a1.76,1.76,0,0,0,0-3L75.22,67.16a.87.87,0,0,1-.43-.74.86.86,0,0,1,.43-.74l16.2-9.35"/><rect class="cls-18" width="120" height="120"/><rect class="cls-18" width="120" height="120"/></g></g></svg>