<svg xmlns="http://www.w3.org/2000/svg" viewBox="0 0 120 120"><defs><style>.cls-1,.cls-2,.cls-3,.cls-5,.cls-8{fill:none;}.cls-1,.cls-2{stroke:#a7b23b;}.cls-1,.cls-2,.cls-3,.cls-5,.cls-6{stroke-linecap:round;stroke-linejoin:round;stroke-width:2px;}.cls-2{stroke-dasharray:0 5.58;}.cls-3{stroke:#c4d36c;}.cls-4{fill:#fff;}.cls-5,.cls-6{stroke:#436db5;}.cls-6{fill:#98b9ea;}.cls-7{fill:#deeaff;}</style></defs><title>improve-infrastructure</title><g id="Layer_2" data-name="Layer 2"><g id="Actions"><line class="cls-1" x1="60" y1="64.4" x2="60" y2="64.4"/><line class="cls-2" x1="64.83" y1="67.19" x2="81.74" y2="76.95"/><line class="cls-1" x1="84.16" y1="78.35" x2="84.16" y2="78.35"/><line class="cls-1" x1="60" y1="101.05" x2="60" y2="101.05"/><line class="cls-2" x1="64.83" y1="103.84" x2="81.74" y2="113.6"/><line class="cls-1" x1="84.16" y1="115" x2="84.16" y2="115"/><line class="cls-1" x1="87.28" y1="48.65" x2="87.28" y2="48.65"/><line class="cls-2" x1="92.11" y1="51.44" x2="109.02" y2="61.2"/><line class="cls-1" x1="111.44" y1="62.6" x2="111.44" y2="62.6"/><line class="cls-1" x1="60" y1="64.4" x2="60" y2="64.4"/><line class="cls-2" x1="55.17" y1="67.19" x2="38.26" y2="76.95"/><line class="cls-1" x1="35.84" y1="78.35" x2="35.84" y2="78.35"/><line class="cls-1" x1="60" y1="101.05" x2="60" y2="101.05"/><line class="cls-2" x1="55.17" y1="103.84" x2="38.26" y2="113.6"/><line class="cls-1" x1="35.84" y1="115" x2="35.84" y2="115"/><line class="cls-1" x1="32.72" y1="48.65" x2="32.72" y2="48.65"/><line class="cls-2" x1="27.89" y1="51.44" x2="10.98" y2="61.2"/><line class="cls-1" x1="8.56" y1="62.6" x2="8.56" y2="62.6"/><line class="cls-1" x1="87.28" y1="20.75" x2="87.28" y2="20.75"/><line class="cls-2" x1="87.28" y1="26.33" x2="87.28" y2="45.86"/><line class="cls-1" x1="87.28" y1="48.65" x2="87.28" y2="48.65"/><line class="cls-1" x1="60" y1="36.5" x2="60" y2="36.5"/><line class="cls-2" x1="60" y1="42.08" x2="60" y2="61.61"/><line class="cls-1" x1="60" y1="64.4" x2="60" y2="64.4"/><line class="cls-1" x1="32.72" y1="20.75" x2="32.72" y2="20.75"/><line class="cls-2" x1="32.72" y1="26.33" x2="32.72" y2="45.86"/><line class="cls-1" x1="32.72" y1="48.65" x2="32.72" y2="48.65"/><polygon class="cls-3" points="60 64.4 32.72 48.65 60 32.9 87.28 48.65 60 64.4"/><polygon class="cls-3" points="60 101.05 60 64.4 87.28 48.65 87.28 85.3 60 101.05"/><polygon class="cls-3" points="60 101.05 60 64.4 32.72 48.65 32.72 85.3 60 101.05"/><polygon class="cls-4" points="60 36.5 32.72 20.75 60 5 87.28 20.75 60 36.5"/><polygon class="cls-5" points="60 36.5 32.72 20.75 60 5 87.28 20.75 60 36.5"/><polygon class="cls-6" points="84.16 115 84.16 78.35 111.44 62.6 111.44 99.25 84.16 115"/><polygon class="cls-7" points="35.84 115 35.84 78.35 8.56 62.6 8.56 99.25 35.84 115"/><polygon class="cls-5" points="35.84 115 35.84 78.35 8.56 62.6 8.56 99.25 35.84 115"/><rect class="cls-8" width="120" height="120"/><rect class="cls-8" width="120" height="120"/></g></g></svg>