<svg xmlns="http://www.w3.org/2000/svg" viewBox="0 0 120 120"><defs><style>.cls-1,.cls-11{fill:#deeaff;}.cls-1,.cls-12,.cls-3,.cls-4,.cls-5{stroke:#98b9ea;}.cls-1,.cls-12,.cls-13,.cls-3,.cls-4,.cls-5,.cls-6,.cls-7,.cls-8,.cls-9{stroke-linecap:round;stroke-linejoin:round;}.cls-1,.cls-12,.cls-13,.cls-3,.cls-4,.cls-6,.cls-7,.cls-8,.cls-9{stroke-width:2px;}.cls-13,.cls-2,.cls-3,.cls-5{fill:#98b9ea;}.cls-10,.cls-4{fill:#fff;}.cls-12,.cls-16,.cls-6,.cls-7,.cls-8,.cls-9{fill:none;}.cls-13,.cls-6,.cls-7{stroke:#436db5;}.cls-7{stroke-dasharray:0 5.95;}.cls-8,.cls-9{stroke:#a7b23b;}.cls-9{stroke-dasharray:0 5.97;}.cls-14{fill:#dfeab0;}.cls-15{fill:#c4d36c;}</style></defs><title>instant-onboarding</title><g id="Layer_2" data-name="Layer 2"><g id="Tech_Concepts" data-name="Tech Concepts"><polygon class="cls-1" points="60 95.03 90.83 77.23 60 59.43 60 95.03"/><polygon class="cls-2" points="60 59.43 70.75 88.82 60 95.03 60 59.43"/><polygon class="cls-3" points="60 95.03 29.17 77.23 60 59.43 60 95.03"/><polygon class="cls-4" points="60 83.4 29.17 101.2 60 119 90.83 101.2 60 83.4"/><path class="cls-1" d="M29.17,77.23v24L60,119V95Z"/><polygon class="cls-3" points="90.83 101.2 60 119 60 95.03 90.83 77.23 90.83 101.2"/><polygon class="cls-4" points="90.83 77.23 105.31 78.56 74.48 96.36 60 95.03 90.83 77.23"/><polygon class="cls-4" points="60 59.43 45.52 44.03 14.69 61.84 29.17 77.23 60 59.43"/><path class="cls-5" d="M49.72,99.5c0,1.1-.66,1.6-1.49,1.13l-7.29-4.21a3.56,3.56,0,0,1-1.49-2.85V92.45c0-1.1.66-1.61,1.49-1.13l7.29,4.21a3.54,3.54,0,0,1,1.49,2.85Z"/><path class="cls-5" d="M80.55,81.7c0,1.1-.66,1.6-1.49,1.13l-7.29-4.21a3.56,3.56,0,0,1-1.49-2.85V74.65c0-1.1.66-1.61,1.49-1.13l7.29,4.21a3.54,3.54,0,0,1,1.49,2.85Z"/><polygon class="cls-6" points="90.83 86.92 105.31 78.56 90.83 77.23 60 59.43 45.52 44.03 14.69 61.84 29.17 77.23 29.17 77.23 29.17 101.2 29.17 101.2 60 119 60 119 60 119 60 119 90.83 101.2 90.83 86.92"/><line class="cls-6" x1="60" y1="95.03" x2="29.17" y2="77.23"/><line class="cls-6" x1="90.83" y1="86.92" x2="74.49" y2="96.36"/><line class="cls-6" x1="74.49" y1="96.36" x2="60" y2="95.03"/><line class="cls-6" x1="29.17" y1="29.65" x2="29.17" y2="29.65"/><line class="cls-7" x1="29.17" y1="35.6" x2="29.17" y2="74.25"/><line class="cls-6" x1="29.17" y1="77.23" x2="29.17" y2="77.23"/><line class="cls-8" x1="90.83" y1="29.45" x2="90.83" y2="29.45"/><line class="cls-9" x1="90.83" y1="35.42" x2="90.83" y2="74.24"/><line class="cls-8" x1="90.83" y1="77.23" x2="90.83" y2="77.23"/><path class="cls-10" d="M90.36,17.85a.71.71,0,0,1,0,1.34L60.7,36.44a2.56,2.56,0,0,1-2.32,0L29.68,19.87c-.64-.37-.65-1,0-1.34L59.34,1.28a2.54,2.54,0,0,1,2.31,0Z"/><path class="cls-2" d="M59.53,41.63a2.43,2.43,0,0,0,1.16-.28L90.35,24.1a.83.83,0,0,0,.48-.67v-4.9a.81.81,0,0,1-.47.66L60.7,36.44a2.32,2.32,0,0,1-1.16.28"/><path class="cls-11" d="M59.54,36.72a2.32,2.32,0,0,1-1.16-.28L29.68,19.87a.82.82,0,0,1-.49-.68V24.1a.83.83,0,0,0,.49.68l28.7,16.57a2.43,2.43,0,0,0,1.16.28"/><path class="cls-2" d="M34.49,22.65l-4.81-2.78a.82.82,0,0,1-.49-.68V24.1a.83.83,0,0,0,.49.68l4.82,2.78Z"/><line class="cls-6" x1="34.48" y1="22.63" x2="66.46" y2="4.04"/><line class="cls-12" x1="68.43" y1="31.95" x2="68.43" y2="36.25"/><path class="cls-12" d="M59.34,1.28a2.54,2.54,0,0,1,2.31,0L90.36,17.85a.71.71,0,0,1,0,1.34L60.7,36.44a2.56,2.56,0,0,1-2.32,0L34.49,22.65"/><path class="cls-6" d="M90.36,17.85,61.65,1.28a2.54,2.54,0,0,0-2.31,0L29.67,18.53a.8.8,0,0,0-.48.67h0V24.1a.83.83,0,0,0,.49.68l28.7,16.57a2.56,2.56,0,0,0,2.32,0L90.35,24.1a.83.83,0,0,0,.48-.67v-4.9h0A.84.84,0,0,0,90.36,17.85Z"/><line class="cls-13" x1="34.48" y1="27.54" x2="34.48" y2="22.65"/><path class="cls-11" d="M61.65,1.28a2.54,2.54,0,0,0-2.31,0L29.67,18.53c-.64.37-.63,1,0,1.34l4.81,2.78L66.44,4Z"/><path class="cls-6" d="M61.65,1.28a2.54,2.54,0,0,0-2.31,0L29.67,18.53c-.64.37-.63,1,0,1.34l4.81,2.78L66.44,4Z"/><path class="cls-2" d="M40.8,15.73c-.45-.26-.46-.68,0-.94a1.8,1.8,0,0,1,1.63,0c.46.26.46.68,0,.94A1.8,1.8,0,0,1,40.8,15.73Z"/><path class="cls-2" d="M37.52,17.63a.5.5,0,0,1,0-.95,1.8,1.8,0,0,1,1.63,0,.5.5,0,0,1,0,.95A1.8,1.8,0,0,1,37.52,17.63Z"/><path class="cls-2" d="M34.24,19.52c-.45-.26-.46-.68,0-.94a1.8,1.8,0,0,1,1.63,0c.46.26.46.68,0,.94A1.8,1.8,0,0,1,34.24,19.52Z"/><polygon class="cls-14" points="79.77 18.58 66.5 26.24 57.04 20.78 70.31 13.12 79.77 18.58"/><polygon class="cls-15" points="68.41 19.68 55.14 27.34 45.68 21.88 58.95 14.22 68.41 19.68"/><rect class="cls-16" width="120" height="120"/><rect class="cls-16" width="120" height="120"/></g></g></svg>