<svg xmlns="http://www.w3.org/2000/svg" viewBox="0 0 120 120"><defs><style>.cls-1{fill:#deeaff;}.cls-10,.cls-2,.cls-3,.cls-8,.cls-9{fill:none;}.cls-2{stroke:#436db5;}.cls-10,.cls-2,.cls-8{stroke-linecap:round;stroke-linejoin:round;}.cls-10,.cls-2,.cls-3,.cls-8{stroke-width:2px;}.cls-3{stroke:#deeaff;stroke-miterlimit:10;}.cls-4{fill:#98b9ea;}.cls-5{fill:#fff;}.cls-6{fill:#dfeab0;}.cls-7{fill:#c4d36c;}.cls-8{stroke:#fff;}.cls-10{stroke:#a7b23b;}</style></defs><title>investment-services</title><g id="Layer_2" data-name="Layer 2"><g id="Industries"><path class="cls-1" d="M43,42.63C29.23,42.63,9.6,54.87,9.6,79.05,9.6,92,31.69,93.63,47.74,89.57S69.33,77.51,69.33,69.24C69.33,55.78,57.77,42.63,43,42.63Z"/><path class="cls-2" d="M43,42.63C29.23,42.63,9.6,54.87,9.6,79.05,9.6,92,31.69,93.63,47.74,89.57S69.33,77.51,69.33,69.24C69.33,55.78,57.77,42.63,43,42.63Z"/><path class="cls-3" d="M32,89.36c-4.74,0-20.18-.74-20.18-10.31C11.78,56.71,29.89,44.8,43,44.8c14.26,0,24.2,12.88,24.2,24.44,0,8.61-6.9,14.91-19.95,18.22A63.77,63.77,0,0,1,32,89.36Z"/><circle class="cls-1" cx="40.11" cy="24.23" r="23.23"/><path class="cls-4" d="M55,11a1.47,1.47,0,0,0-2.48,1.5c2,4.89,2.58,12-4.78,19.4s-14.51,6.76-19.4,4.78a1.47,1.47,0,0,0-1.5,2.48A19.94,19.94,0,0,0,55,11Z"/><circle class="cls-2" cx="40.11" cy="24.23" r="23.23"/><ellipse class="cls-5" cx="29.18" cy="13.3" rx="5.35" ry="3.31" transform="translate(-0.86 24.52) rotate(-45)"/><path class="cls-3" d="M40.11,45.28a21.06,21.06,0,1,1,21-21A21.08,21.08,0,0,1,40.11,45.28Z"/><ellipse class="cls-5" cx="23.37" cy="60.27" rx="4.85" ry="3" transform="translate(-37.92 39.71) rotate(-50.27)"/><path class="cls-4" d="M66.07,69.24c0-7.54-4.42-15.65-11.55-20a2.66,2.66,0,0,0-4.07,2.5,40.49,40.49,0,0,1,.27,4.67c0,10-4.72,19.64-18.41,24.55a40.57,40.57,0,0,1-6.56,1.75,2.65,2.65,0,0,0,.11,5.24,51,51,0,0,0,6.1.37,63,63,0,0,0,15-1.86C55.67,84.2,66.07,79.42,66.07,69.24Z"/><path class="cls-6" d="M106.06,77.49l-.21-.13c-6.07-3.5-15.9-3.5-22,0l-.21.13H79.34v6.42c0,2.29,1.51,4.59,4.55,6.34,6.06,3.5,15.89,3.5,22,0,3-1.75,4.55-4,4.55-6.34V77.49Z"/><path class="cls-7" d="M105.85,90.25c3-1.75,4.55-4,4.55-6.34V77.49h-4.34l-.21-.13a22.45,22.45,0,0,0-11-2.62V92.88A22.46,22.46,0,0,0,105.85,90.25Z"/><ellipse class="cls-6" cx="94.87" cy="77.49" rx="15.53" ry="8.97"/><ellipse class="cls-8" cx="94.87" cy="77.49" rx="15.53" ry="8.97"/><ellipse class="cls-9" cx="94.87" cy="83.29" rx="15.9" ry="9.62"/><path class="cls-10" d="M110.4,83.91V77.49h0c0-2.29-1.52-4.59-4.55-6.34-6.07-3.5-15.9-3.5-22,0-3,1.75-4.55,4-4.55,6.34h0v6.42c0,2.29,1.51,4.59,4.55,6.34a22.43,22.43,0,0,0,11,2.63c.49,0,1,0,1.49,0a25.74,25.74,0,0,0,2.93-.32c.48-.09.95-.18,1.42-.29a19.26,19.26,0,0,0,5.14-2,9.66,9.66,0,0,0,3.91-3.79A5.63,5.63,0,0,0,110.4,83.91Z"/><path class="cls-7" d="M100.88,80l1.64,1-1.46.85-1.6-.93a13.19,13.19,0,0,1-2.45,1,10.44,10.44,0,0,1-2.38.46l-1-1.5a12.5,12.5,0,0,0,2-.36,10,10,0,0,0,1.89-.69l-2.46-1.43a22.14,22.14,0,0,1-2.31.71,7.83,7.83,0,0,1-2.11.18,4.8,4.8,0,0,1-2.08-.64,2,2,0,0,1-1.21-1.73,2.93,2.93,0,0,1,1.5-2.1l-1.64-1L88.67,73l1.61.93a12.09,12.09,0,0,1,3.88-1.21l1.06,1.47a11.82,11.82,0,0,0-3,.86l2.51,1.45a21.65,21.65,0,0,1,2.27-.7,7.69,7.69,0,0,1,2.1-.17,4.61,4.61,0,0,1,2.05.62,2,2,0,0,1,1.19,1.71A3,3,0,0,1,100.88,80Zm-9.2-2.67a5.23,5.23,0,0,0,1.22-.24l-2.1-1.21a1,1,0,0,0-.4.72.71.71,0,0,0,.41.54,1.62,1.62,0,0,0,.87.19m5.22.37,2,1.18a1,1,0,0,0,.4-.69.6.6,0,0,0-.36-.51,1.59,1.59,0,0,0-.89-.19,5.57,5.57,0,0,0-1.18.21"/><path class="cls-6" d="M106.06,71.07l-.21-.12c-6.07-3.5-15.9-3.5-22,0l-.21.12H79.34v6.42c0,2.3,1.51,4.59,4.55,6.34,6.06,3.5,15.89,3.5,22,0,3-1.75,4.55-4,4.55-6.34V71.07Z"/><path class="cls-7" d="M105.85,83.83c3-1.75,4.55-4,4.55-6.34V71.07h-4.34l-.21-.12a22.46,22.46,0,0,0-11-2.63V86.46A22.46,22.46,0,0,0,105.85,83.83Z"/><ellipse class="cls-6" cx="94.87" cy="71.07" rx="15.53" ry="8.97"/><ellipse class="cls-8" cx="94.87" cy="71.07" rx="15.53" ry="8.97"/><ellipse class="cls-9" cx="94.87" cy="76.87" rx="15.9" ry="9.62"/><path class="cls-10" d="M110.4,77.49V71.07h0c0-2.29-1.52-4.58-4.55-6.34-6.07-3.5-15.9-3.5-22,0-3,1.76-4.55,4-4.55,6.34h0v6.42c0,2.3,1.51,4.59,4.55,6.34a22.43,22.43,0,0,0,11,2.63c.49,0,1,0,1.49,0a28.23,28.23,0,0,0,2.93-.33c.48-.08.95-.18,1.42-.29a18.93,18.93,0,0,0,5.14-2A9.66,9.66,0,0,0,109.76,80,5.63,5.63,0,0,0,110.4,77.49Z"/><path class="cls-7" d="M100.88,73.58l1.64,1-1.46.85-1.6-.92a13.89,13.89,0,0,1-2.45,1,9.93,9.93,0,0,1-2.38.46l-1-1.5a12.5,12.5,0,0,0,2-.36,10,10,0,0,0,1.89-.69l-2.46-1.42c-.86.3-1.64.54-2.31.7a7.44,7.44,0,0,1-2.11.18,4.8,4.8,0,0,1-2.08-.64,2,2,0,0,1-1.21-1.73,2.93,2.93,0,0,1,1.5-2.1l-1.64-.94,1.46-.85,1.61.92a12.07,12.07,0,0,1,3.88-1.2l1.06,1.46a11.81,11.81,0,0,0-3,.87L94.73,70a21.65,21.65,0,0,1,2.27-.7,7.69,7.69,0,0,1,2.1-.17,4.5,4.5,0,0,1,2.05.63,1.94,1.94,0,0,1,1.19,1.7A3,3,0,0,1,100.88,73.58Zm-9.2-2.67a4.75,4.75,0,0,0,1.22-.24l-2.1-1.21a1,1,0,0,0-.4.72.69.69,0,0,0,.41.54,1.62,1.62,0,0,0,.87.19m5.22.38,2,1.17a1,1,0,0,0,.4-.68.6.6,0,0,0-.36-.52,1.59,1.59,0,0,0-.89-.19,5.07,5.07,0,0,0-1.18.22"/><path class="cls-6" d="M106.06,64.61l-.21-.13c-6.07-3.5-15.9-3.5-22,0l-.21.13H79.34V71c0,2.3,1.51,4.59,4.55,6.34,6.06,3.51,15.89,3.51,22,0,3-1.75,4.55-4,4.55-6.34V64.61Z"/><path class="cls-7" d="M105.85,77.36c3-1.75,4.55-4,4.55-6.34V64.61h-4.34l-.21-.13a22.46,22.46,0,0,0-11-2.63V80A22.46,22.46,0,0,0,105.85,77.36Z"/><ellipse class="cls-6" cx="94.87" cy="64.61" rx="15.53" ry="8.97"/><ellipse class="cls-8" cx="94.87" cy="64.61" rx="15.53" ry="8.97"/><ellipse class="cls-9" cx="94.87" cy="70.4" rx="15.9" ry="9.62"/><path class="cls-10" d="M110.4,71V64.61h0c0-2.3-1.52-4.59-4.55-6.34-6.07-3.5-15.9-3.5-22,0-3,1.75-4.55,4-4.55,6.34h0V71c0,2.3,1.51,4.59,4.55,6.34a22.43,22.43,0,0,0,11,2.63c.49,0,1,0,1.49,0a25.74,25.74,0,0,0,2.93-.33c.48-.08.95-.18,1.42-.29a18.61,18.61,0,0,0,5.14-2,9.7,9.7,0,0,0,3.91-3.78A5.67,5.67,0,0,0,110.4,71Z"/><path class="cls-7" d="M100.88,67.11l1.64,1-1.46.84L99.46,68A13.92,13.92,0,0,1,97,69a10.39,10.39,0,0,1-2.38.45l-1-1.49a12.56,12.56,0,0,0,2-.37,10,10,0,0,0,1.89-.69l-2.46-1.42a21.86,21.86,0,0,1-2.31.7,7.44,7.44,0,0,1-2.11.18,4.67,4.67,0,0,1-2.08-.64A2,2,0,0,1,87.35,64a3,3,0,0,1,1.5-2.1l-1.64-.94,1.46-.85,1.61.92a12.32,12.32,0,0,1,3.88-1.2l1.06,1.47a11.43,11.43,0,0,0-3,.86l2.51,1.45A19.71,19.71,0,0,1,97,62.86a7.69,7.69,0,0,1,2.1-.17,4.66,4.66,0,0,1,2.05.63,1.94,1.94,0,0,1,1.19,1.7A3,3,0,0,1,100.88,67.11Zm-9.2-2.67a4.36,4.36,0,0,0,1.22-.24L90.8,63a1,1,0,0,0-.4.72.72.72,0,0,0,.41.55,1.62,1.62,0,0,0,.87.18m5.22.38,2,1.17a1,1,0,0,0,.4-.68.6.6,0,0,0-.36-.52,1.59,1.59,0,0,0-.89-.19,5.07,5.07,0,0,0-1.18.22"/><path class="cls-6" d="M85.75,90.94l-.21-.13c-6.07-3.5-15.9-3.5-22,0l-.21.13H59v6.41c0,2.3,1.51,4.59,4.54,6.34,6.07,3.51,15.9,3.51,22,0,3-1.75,4.55-4,4.55-6.34V90.94Z"/><path class="cls-7" d="M85.54,103.69c3-1.75,4.55-4,4.55-6.34V90.94H85.75l-.21-.13a22.49,22.49,0,0,0-11-2.63v18.14A22.49,22.49,0,0,0,85.54,103.69Z"/><ellipse class="cls-6" cx="74.56" cy="90.94" rx="15.53" ry="8.97"/><ellipse class="cls-8" cx="74.56" cy="90.94" rx="15.53" ry="8.97"/><ellipse class="cls-9" cx="74.56" cy="96.73" rx="15.9" ry="9.62"/><path class="cls-10" d="M90.09,97.35V90.94h0c0-2.3-1.52-4.59-4.55-6.34-6.07-3.5-15.9-3.5-22,0-3,1.75-4.54,4-4.54,6.34h0v6.41c0,2.3,1.51,4.59,4.54,6.34a22.5,22.5,0,0,0,11,2.63c.49,0,1,0,1.48,0A25.92,25.92,0,0,0,79,106c.48-.08,1-.18,1.42-.29a18.61,18.61,0,0,0,5.14-2,9.7,9.7,0,0,0,3.91-3.78A5.67,5.67,0,0,0,90.09,97.35Z"/><path class="cls-7" d="M80.56,93.44l1.65,1-1.46.84-1.6-.92a13.92,13.92,0,0,1-2.45,1,10.48,10.48,0,0,1-2.38.45l-1-1.49a12.56,12.56,0,0,0,2-.37,10.27,10.27,0,0,0,1.89-.69l-2.46-1.42a21.86,21.86,0,0,1-2.31.7,7.48,7.48,0,0,1-2.12.18A4.67,4.67,0,0,1,68.25,92,2,2,0,0,1,67,90.29a3,3,0,0,1,1.5-2.1l-1.64-.94,1.46-.85,1.6.93a12.22,12.22,0,0,1,3.89-1.21l1.06,1.47a11.43,11.43,0,0,0-3,.86l2.51,1.45a19.6,19.6,0,0,1,2.26-.71A7.79,7.79,0,0,1,78.79,89a4.66,4.66,0,0,1,2,.63A1.94,1.94,0,0,1,82,91.35,3,3,0,0,1,80.56,93.44Zm-9.19-2.67a4.43,4.43,0,0,0,1.22-.24l-2.1-1.21a1,1,0,0,0-.4.72.72.72,0,0,0,.41.55,1.62,1.62,0,0,0,.87.18m5.21.38,2,1.17a1,1,0,0,0,.4-.68.6.6,0,0,0-.36-.52,1.6,1.6,0,0,0-.89-.19,5.24,5.24,0,0,0-1.19.22"/><path class="cls-6" d="M85.75,84.52l-.21-.13c-6.07-3.5-15.9-3.5-22,0l-.21.13H59v6.42c0,2.29,1.51,4.59,4.54,6.34,6.07,3.5,15.9,3.5,22,0,3-1.75,4.55-4,4.55-6.34V84.52Z"/><path class="cls-7" d="M85.54,97.28c3-1.75,4.55-4,4.55-6.34V84.52H85.75l-.21-.13a22.48,22.48,0,0,0-11-2.62V99.9A22.48,22.48,0,0,0,85.54,97.28Z"/><ellipse class="cls-6" cx="74.56" cy="84.52" rx="15.53" ry="8.97"/><ellipse class="cls-8" cx="74.56" cy="84.52" rx="15.53" ry="8.97"/><ellipse class="cls-9" cx="74.56" cy="90.32" rx="15.9" ry="9.62"/><path class="cls-10" d="M90.09,90.94V84.52h0c0-2.3-1.52-4.59-4.55-6.34-6.07-3.5-15.9-3.5-22,0-3,1.75-4.54,4-4.54,6.34h0v6.42c0,2.29,1.51,4.59,4.54,6.34a22.49,22.49,0,0,0,11,2.62c.49,0,1,0,1.48,0A23.82,23.82,0,0,0,79,99.53c.48-.08,1-.17,1.42-.28a19.26,19.26,0,0,0,5.14-2,9.72,9.72,0,0,0,3.91-3.79A5.63,5.63,0,0,0,90.09,90.94Z"/><path class="cls-7" d="M80.56,87l1.65,1-1.46.85-1.6-.93a13.19,13.19,0,0,1-2.45,1,11.13,11.13,0,0,1-2.38.46l-1-1.5a12.56,12.56,0,0,0,2-.37,9.58,9.58,0,0,0,1.89-.68l-2.46-1.43a21.86,21.86,0,0,1-2.31.7,7.48,7.48,0,0,1-2.12.18,4.55,4.55,0,0,1-2.07-.64A2,2,0,0,1,67,83.88a2.93,2.93,0,0,1,1.5-2.1l-1.64-1L68.36,80l1.6.93a12.22,12.22,0,0,1,3.89-1.21l1.06,1.47a11.43,11.43,0,0,0-3,.86l2.51,1.45a19.39,19.39,0,0,1,2.26-.7,7.41,7.41,0,0,1,2.11-.17,4.52,4.52,0,0,1,2,.62A2,2,0,0,1,82,84.93,3,3,0,0,1,80.56,87Zm-9.19-2.68a4.77,4.77,0,0,0,1.22-.23l-2.1-1.21a1,1,0,0,0-.4.72.71.71,0,0,0,.41.54,1.53,1.53,0,0,0,.87.18m5.21.38,2,1.17a1,1,0,0,0,.4-.68.63.63,0,0,0-.36-.52,1.6,1.6,0,0,0-.89-.19,5.86,5.86,0,0,0-1.19.22"/><path class="cls-6" d="M63.79,103.62l-.22-.13c-6.06-3.5-15.89-3.5-22,0l-.21.13H37.06V110c0,2.3,1.52,4.59,4.55,6.34,6.07,3.51,15.9,3.51,22,0,3-1.75,4.55-4,4.55-6.34v-6.41Z"/><path class="cls-7" d="M63.57,116.37c3-1.75,4.55-4,4.55-6.34v-6.41H63.79l-.22-.13a22.43,22.43,0,0,0-11-2.63V119A22.43,22.43,0,0,0,63.57,116.37Z"/><ellipse class="cls-6" cx="52.59" cy="103.62" rx="15.53" ry="8.97"/><ellipse class="cls-8" cx="52.59" cy="103.62" rx="15.53" ry="8.97"/><ellipse class="cls-9" cx="52.59" cy="109.41" rx="15.9" ry="9.62"/><path class="cls-10" d="M68.12,110v-6.41h0c0-2.3-1.51-4.59-4.55-6.34-6.06-3.5-15.89-3.5-22,0-3,1.75-4.55,4-4.55,6.34h0V110c0,2.3,1.52,4.59,4.55,6.34a22.46,22.46,0,0,0,11,2.63c.5,0,1,0,1.49,0a28.73,28.73,0,0,0,2.94-.33c.48-.08.95-.18,1.42-.29a18.42,18.42,0,0,0,5.13-2,9.64,9.64,0,0,0,3.91-3.78A5.58,5.58,0,0,0,68.12,110Z"/><path class="cls-7" d="M58.6,106.12l1.65,1-1.46.84-1.6-.92a14,14,0,0,1-2.46,1,10.31,10.31,0,0,1-2.37.45l-1-1.49a12.56,12.56,0,0,0,2-.37,10.27,10.27,0,0,0,1.89-.69l-2.46-1.42a21.86,21.86,0,0,1-2.31.7,7.51,7.51,0,0,1-2.12.18,4.67,4.67,0,0,1-2.07-.64A2,2,0,0,1,45.08,103a3,3,0,0,1,1.49-2.1l-1.63-.94,1.46-.85L48,100a12.48,12.48,0,0,1,3.88-1.2L53,100.27a11.21,11.21,0,0,0-3,.86l2.51,1.45a19.6,19.6,0,0,1,2.26-.71,7.76,7.76,0,0,1,2.11-.17,4.66,4.66,0,0,1,2.05.63,2,2,0,0,1,1.19,1.7A3,3,0,0,1,58.6,106.12Zm-9.19-2.67a4.43,4.43,0,0,0,1.22-.24L48.53,102a1,1,0,0,0-.4.72.7.7,0,0,0,.41.55,1.62,1.62,0,0,0,.87.18m5.21.38,2,1.17a1,1,0,0,0,.4-.68.6.6,0,0,0-.37-.52,1.55,1.55,0,0,0-.88-.19,5.15,5.15,0,0,0-1.19.22"/><rect class="cls-9" width="120" height="120"/><rect class="cls-9" width="120" height="120"/></g></g></svg>