<svg xmlns="http://www.w3.org/2000/svg" viewBox="0 0 120 120"><defs><style>.cls-1,.cls-6{fill:#deeaff;}.cls-1,.cls-3,.cls-8{stroke:#98b9ea;}.cls-1,.cls-10,.cls-11,.cls-12,.cls-13,.cls-14,.cls-3,.cls-4,.cls-5,.cls-8,.cls-9{stroke-linecap:round;stroke-linejoin:round;stroke-width:2px;}.cls-2,.cls-4{fill:#98b9ea;}.cls-3,.cls-7,.cls-9{fill:#fff;}.cls-4{stroke:#deeaff;}.cls-12,.cls-13,.cls-14,.cls-15,.cls-5,.cls-8{fill:none;}.cls-14,.cls-5{stroke:#436db5;}.cls-10,.cls-11,.cls-9{stroke:#c4d36c;}.cls-10{fill:#c4d36c;}.cls-11{fill:#dfeab0;}.cls-12,.cls-13{stroke:#a7b23b;}.cls-13{stroke-dasharray:0 6.48;}.cls-14{stroke-dasharray:0 6.52;}</style></defs><title>iot</title><g id="Layer_2" data-name="Layer 2"><g id="New_Icon_Set" data-name="New Icon Set"><path class="cls-1" d="M75,72.29,62.73,65.23a6,6,0,0,0-5.46,0L45,72.29H26.19V84.1a1.89,1.89,0,0,0,1.13,1.57l30,17.3a6,6,0,0,0,5.46,0l30-17.3a1.89,1.89,0,0,0,1.13-1.57V72.29Z"/><path class="cls-2" d="M62.73,103l30-17.3a1.89,1.89,0,0,0,1.13-1.57V72.29H75L62.73,65.23A5.51,5.51,0,0,0,60,64.58v39A5.62,5.62,0,0,0,62.73,103Z"/><line class="cls-1" x1="46.72" y1="91.42" x2="37.87" y2="86.31"/><path class="cls-3" d="M92.68,70.72l-30-17.3a6,6,0,0,0-5.46,0L27.32,70.72c-1.51.87-1.51,2.28,0,3.15l30,17.29a6,6,0,0,0,5.46,0l30-17.29C94.19,73,94.19,71.59,92.68,70.72Z"/><polygon class="cls-4" points="85.67 89.72 69.84 98.86 69.84 93.41 85.67 84.27 85.67 89.72"/><path class="cls-5" d="M92.68,70.72l-30-17.3a6,6,0,0,0-5.46,0L27.32,70.72a1.89,1.89,0,0,0-1.13,1.57V84.1a1.89,1.89,0,0,0,1.13,1.57l30,17.3a6.06,6.06,0,0,0,5.46,0l30-17.3a1.89,1.89,0,0,0,1.13-1.57V72.29A1.89,1.89,0,0,0,92.68,70.72Z"/><ellipse class="cls-6" cx="86.08" cy="72.29" rx="1.53" ry="0.89"/><ellipse class="cls-6" cx="60" cy="87.35" rx="1.53" ry="0.89"/><ellipse class="cls-6" cx="60" cy="57.23" rx="1.53" ry="0.89"/><ellipse class="cls-6" cx="33.92" cy="72.29" rx="1.53" ry="0.89"/><path class="cls-7" d="M84.32,11.25h0L74.74,5.72h0a4.11,4.11,0,0,0-4.18.33l-.7.41L61.65,1.71h0c-1.87-1.08-4.3-1-7,.56C49.12,5.49,44.55,13.82,44.07,21.35l-5.27,3c-3.53,2-6.39,7.51-6.39,12.21h0c0,2.58.86,4.39,2.21,5.17h0l9.58,5.53h0A4.11,4.11,0,0,0,48.38,47L80.14,28.64c3.53-2,6.39-7.51,6.39-12.22h0C86.53,13.84,85.68,12,84.32,11.25Z"/><path class="cls-6" d="M80.14,11.59l-5.27,3c-.48-7-5-10-10.61-6.82S54.13,19.35,53.65,26.88l-5.27,3C44.85,32,42,37.43,42,42.14S44.85,49,48.38,47L80.14,28.64c3.53-2,6.39-7.51,6.39-12.22h0C86.53,11.71,83.67,9.55,80.14,11.59Z"/><path class="cls-8" d="M80.14,11.59l-5.27,3c-.48-7-5-10-10.61-6.82S54.13,19.35,53.65,26.88l-5.27,3C44.85,32,42,37.43,42,42.14"/><path class="cls-5" d="M84.32,11.25h0L74.74,5.72h0a4.11,4.11,0,0,0-4.18.33l-.7.41L61.65,1.71h0c-1.87-1.08-4.3-1-7,.56C49.12,5.49,44.55,13.82,44.07,21.35l-5.27,3c-3.53,2-6.39,7.51-6.39,12.21h0c0,2.58.86,4.39,2.21,5.17h0l9.58,5.53h0A4.11,4.11,0,0,0,48.38,47L80.14,28.64c3.53-2,6.39-7.51,6.39-12.22h0C86.53,13.84,85.68,12,84.32,11.25Z"/><polygon class="cls-3" points="25.68 112.29 14.06 105.58 2.43 112.29 14.06 119 25.68 112.29"/><polygon class="cls-9" points="25.68 99.47 14.06 92.76 2.43 99.47 14.06 106.19 25.68 99.47"/><polygon class="cls-10" points="25.68 99.47 25.68 112.29 14.06 119 14.06 106.19 25.68 99.47"/><polygon class="cls-11" points="2.43 99.47 2.43 112.29 14.06 119 14.06 106.19 2.43 99.47"/><polygon class="cls-12" points="14.06 92.76 2.43 99.47 2.43 112.29 14.06 119 25.68 112.29 25.68 99.47 14.06 92.76"/><line class="cls-12" x1="83.42" y1="97.62" x2="83.42" y2="97.62"/><line class="cls-13" x1="89.03" y1="100.86" x2="91.83" y2="102.48"/><line class="cls-12" x1="94.64" y1="104.1" x2="94.64" y2="104.1"/><polygon class="cls-3" points="117.57 112.29 105.94 105.58 94.32 112.29 105.94 119 117.57 112.29"/><polygon class="cls-9" points="117.57 99.47 105.94 92.76 94.32 99.47 105.94 106.19 117.57 99.47"/><polygon class="cls-10" points="117.57 99.47 117.57 112.29 105.94 119 105.94 106.19 117.57 99.47"/><polygon class="cls-11" points="94.32 99.47 94.32 112.29 105.94 119 105.94 106.19 94.32 99.47"/><polygon class="cls-12" points="105.94 92.76 94.32 99.47 94.32 112.29 105.94 119 117.57 112.29 117.57 99.47 105.94 92.76"/><line class="cls-5" x1="60" y1="72.29" x2="60" y2="72.29"/><line class="cls-14" x1="60" y1="65.78" x2="60" y2="49.49"/><line class="cls-5" x1="60" y1="46.23" x2="60" y2="46.23"/><line class="cls-12" x1="36.58" y1="97.62" x2="36.58" y2="97.62"/><line class="cls-13" x1="30.97" y1="100.86" x2="28.17" y2="102.48"/><line class="cls-12" x1="25.36" y1="104.1" x2="25.36" y2="104.1"/><rect class="cls-15" width="120" height="120"/><rect class="cls-15" width="120" height="120"/></g></g></svg>