<svg xmlns="http://www.w3.org/2000/svg" viewBox="0 0 120 120"><defs><style>.cls-1,.cls-10,.cls-12,.cls-13,.cls-14,.cls-2,.cls-3,.cls-4{fill:none;}.cls-1,.cls-2{stroke:#436db5;}.cls-1,.cls-10,.cls-11,.cls-12,.cls-13,.cls-2,.cls-3,.cls-4,.cls-5,.cls-7{stroke-linecap:round;stroke-linejoin:round;}.cls-1,.cls-10,.cls-11,.cls-13,.cls-2,.cls-3,.cls-4,.cls-5,.cls-7{stroke-width:2px;}.cls-2{stroke-dasharray:0 6.19;}.cls-3,.cls-4{stroke:#a7b23b;}.cls-4{stroke-dasharray:0 6.39;}.cls-5{fill:#deeaff;}.cls-5,.cls-7{stroke:#98b9ea;}.cls-6{fill:#98b9ea;}.cls-7{fill:#fff;}.cls-8{fill:#c4d36c;}.cls-11,.cls-9{fill:#dfeab0;}.cls-10,.cls-12{stroke:#fff;}.cls-11,.cls-13{stroke:#c4d36c;}.cls-12{stroke-width:3px;}</style></defs><title>key-management</title><g id="Layer_2" data-name="Layer 2"><g id="Tech_Concepts" data-name="Tech Concepts"><line class="cls-1" x1="15" y1="32.24" x2="15" y2="32.24"/><line class="cls-2" x1="15" y1="38.44" x2="15" y2="66.3"/><line class="cls-1" x1="15" y1="69.4" x2="15" y2="69.4"/><line class="cls-3" x1="105" y1="53.74" x2="105" y2="53.74"/><line class="cls-4" x1="105" y1="60.13" x2="105" y2="76.11"/><line class="cls-3" x1="105" y1="79.3" x2="105" y2="79.3"/><path class="cls-5" d="M37.74,60.22a2.36,2.36,0,0,0-.75,2A6,6,0,0,0,39.53,67l2.61,1.51L28.48,76.41,25.87,74.9a6.06,6.06,0,0,1-2.53-4.84,2.38,2.38,0,0,1,.74-2Z"/><path class="cls-1" d="M38,65.44l5.25-3-3.72-2.15a1.56,1.56,0,0,0-1.79,0L24.08,68.1a2.38,2.38,0,0,0-.74,2,6.06,6.06,0,0,0,2.53,4.84l2.61,1.51,13.66-7.89L39.53,67A4.61,4.61,0,0,1,38,65.44Z"/><path class="cls-5" d="M95.33,86.08,56.54,63.68a9.39,9.39,0,0,0-8.51,0l-25.91,15L15,77.39v6.8a3,3,0,0,0,1.76,2.46l46.7,27a9.45,9.45,0,0,0,8.51,0l31.27-18.06A3,3,0,0,0,105,93.1V86.3Z"/><path class="cls-6" d="M67.3,69.89V114.6a8.85,8.85,0,0,0,4.67-1l31.27-18.06A3,3,0,0,0,105,93.1V86.3l-9.67-.22Z"/><path class="cls-7" d="M103.24,83.85l-46.7-27a9.39,9.39,0,0,0-8.51,0l-31.27,18c-2.35,1.36-2.35,3.56,0,4.91l46.7,27a9.39,9.39,0,0,0,8.51,0l31.27-18C105.59,87.4,105.59,85.2,103.24,83.85Z"/><path class="cls-1" d="M105,86.3a3,3,0,0,0-1.76-2.45l-46.7-27a9.39,9.39,0,0,0-8.51,0l-31.27,18A3,3,0,0,0,15,77.39h0v6.8a3,3,0,0,0,1.76,2.46l46.7,27a8.5,8.5,0,0,0,3.84,1h0a10.23,10.23,0,0,0,1.24,0h0a10.6,10.6,0,0,0,1.13-.16l.12,0a7.41,7.41,0,0,0,1-.27,1.17,1.17,0,0,0,.2-.06,6.51,6.51,0,0,0,1-.46h0l15.63-9,15.64-9a3.41,3.41,0,0,0,1.65-1.79,2.17,2.17,0,0,0,.11-.66V86.3Z"/><path class="cls-8" d="M75.78,93.1A3.7,3.7,0,0,1,74,92.67L53.81,81a1.1,1.1,0,0,1,0-2.08,4,4,0,0,1,3.61,0L77.59,90.59a1.1,1.1,0,0,1,0,2.08A3.7,3.7,0,0,1,75.78,93.1Z"/><path class="cls-8" d="M73.18,91.23h0a2.88,2.88,0,0,1-1.36-.32l-1.8-1a.82.82,0,0,1,0-1.56l4.72-2.72a3,3,0,0,1,2.71,0l1.8,1a1,1,0,0,1,.56.78,1,1,0,0,1-.56.78l-4.72,2.73A2.83,2.83,0,0,1,73.18,91.23Z"/><path class="cls-8" d="M66.41,87.32A2.87,2.87,0,0,1,65.05,87a.83.83,0,0,1,0-1.57L68,83.75a3,3,0,0,1,2.71,0,.82.82,0,0,1,0,1.56L67.76,87A2.81,2.81,0,0,1,66.41,87.32Z"/><path class="cls-8" d="M50.2,83.13a15.62,15.62,0,0,1-7.67-1.84c-4.23-2.44-4.23-6.42,0-8.86a15.62,15.62,0,0,1,7.67-1.84,15.66,15.66,0,0,1,7.68,1.84c4.23,2.44,4.23,6.42,0,8.86A15.66,15.66,0,0,1,50.2,83.13Zm0-8.85A6.42,6.42,0,0,0,47,75c-1.74,1-1.74,2.64,0,3.65a7.23,7.23,0,0,0,6.32,0c1.74-1,1.74-2.65,0-3.65A6.4,6.4,0,0,0,50.2,74.28Z"/><path class="cls-5" d="M37.74,60.22a1.56,1.56,0,0,1,1.79,0l3.72,2.15L29.59,70.3l-3.72-2.15a1.56,1.56,0,0,0-1.79-.05Z"/><path class="cls-1" d="M37.74,60.22a1.56,1.56,0,0,1,1.79,0l3.72,2.15L29.59,70.3l-3.72-2.15a1.56,1.56,0,0,0-1.79-.05Z"/><path class="cls-9" d="M37.52,36.46a29.9,29.9,0,0,1-14.68-3.59C17.86,30,15,25.63,15,20.92s2.86-9.07,7.84-12A29.79,29.79,0,0,1,37.52,5.38,29.79,29.79,0,0,1,52.2,9c5,2.88,7.84,7.23,7.84,12S57.18,30,52.2,32.87A29.9,29.9,0,0,1,37.52,36.46ZM27.06,20.92a4.84,4.84,0,0,0,1.8,1.53,17.94,17.94,0,0,0,8.66,2,17.94,17.94,0,0,0,8.66-2A4.84,4.84,0,0,0,48,20.92a4.84,4.84,0,0,0-1.8-1.53,17.94,17.94,0,0,0-8.66-2,17.94,17.94,0,0,0-8.66,2A4.84,4.84,0,0,0,27.06,20.92Z"/><path class="cls-9" d="M98.37,60.06a4,4,0,0,1-2-.53L47.19,31.13a4,4,0,1,1,4-6.94l49.18,28.39a4,4,0,0,1-2,7.48Z"/><path class="cls-9" d="M91.25,55a3,3,0,0,1-1.5-.41l-5.19-3a3,3,0,0,1,0-5.21l10.74-6.2a3,3,0,0,1,3,0l5.19,3a3,3,0,0,1,0,5.21l-10.75,6.2A3,3,0,0,1,91.25,55Z"/><path class="cls-9" d="M76.6,46.49a3,3,0,0,1-1.5-5.61L81.8,37a3,3,0,0,1,3,5.21l-6.7,3.87A3,3,0,0,1,76.6,46.49Z"/><line class="cls-10" x1="77.86" y1="41.66" x2="83.3" y2="38.51"/><line class="cls-10" x1="88.53" y1="46.39" x2="94.03" y2="43.22"/><line class="cls-11" x1="102.88" y1="46.39" x2="96.27" y2="50.21"/><line class="cls-11" x1="98.26" y1="51.36" x2="77.5" y2="39.37"/><path class="cls-12" d="M54,16.91c0,2.63-1.85,5-4.84,6.74a23.82,23.82,0,0,1-11.67,2.79,23.82,23.82,0,0,1-11.67-2.79c-3-1.73-4.84-4.11-4.84-6.74s1.85-5,4.84-6.74A23.82,23.82,0,0,1,37.52,7.38a23.82,23.82,0,0,1,11.67,2.79C52.18,11.9,54,14.28,54,16.91Z"/><path class="cls-13" d="M51,31.24a27.43,27.43,0,0,1-13.5,3.23A27.43,27.43,0,0,1,24,31.24"/><line class="cls-10" x1="56.11" y1="29.35" x2="98.37" y2="53.75"/><path class="cls-3" d="M103.5,43.13l-5.19-3a3,3,0,0,0-3,0l-8.23,4.75-3.45-2,1.18-.68a3,3,0,0,0-3-5.21l-4.2,2.42L57.72,28a12.08,12.08,0,0,0,2.32-7c0-4.72-2.86-9.07-7.84-12A29.79,29.79,0,0,0,37.52,5.38,29.79,29.79,0,0,0,22.84,9c-5,2.88-7.84,7.23-7.84,12S17.86,30,22.84,32.87a29.9,29.9,0,0,0,14.68,3.59,30.48,30.48,0,0,0,13.63-3L96.37,59.53a4,4,0,1,0,4-7l-2.12-1.22,5.24-3a3,3,0,0,0,0-5.21ZM28.86,22.45a4.84,4.84,0,0,1-1.8-1.53,4.84,4.84,0,0,1,1.8-1.53,17.94,17.94,0,0,1,8.66-2,17.94,17.94,0,0,1,8.66,2A4.84,4.84,0,0,1,48,20.92a4.84,4.84,0,0,1-1.8,1.53,17.94,17.94,0,0,1-8.66,2A17.94,17.94,0,0,1,28.86,22.45Z"/><path class="cls-13" d="M27.85,17.65a20,20,0,0,1,9.67-2.25,20,20,0,0,1,9.67,2.25"/><path class="cls-3" d="M28.86,22.45a4.84,4.84,0,0,1-1.8-1.53,4.84,4.84,0,0,1,1.8-1.53,17.94,17.94,0,0,1,8.66-2,17.94,17.94,0,0,1,8.66,2A4.84,4.84,0,0,1,48,20.92a4.84,4.84,0,0,1-1.8,1.53,17.94,17.94,0,0,1-8.66,2A17.94,17.94,0,0,1,28.86,22.45Z"/><rect class="cls-14" width="120" height="120"/><rect class="cls-14" width="120" height="120"/></g></g></svg>