<svg xmlns="http://www.w3.org/2000/svg" viewBox="0 0 120 120"><defs><style>.cls-1,.cls-3{fill:#deeaff;}.cls-1,.cls-5{stroke:#98b9ea;}.cls-1,.cls-2,.cls-5,.cls-7{stroke-linecap:round;stroke-linejoin:round;stroke-width:2px;}.cls-2,.cls-5,.cls-7,.cls-8{fill:none;}.cls-2{stroke:#fff;}.cls-4{fill:#fff;}.cls-6{fill:#98b9ea;}.cls-7{stroke:#436db5;}</style></defs><title>key-2</title><g id="Layer_2" data-name="Layer 2"><g id="Objects"><path class="cls-1" d="M27,54.78a3.76,3.76,0,0,1-.51-1.89V39.56a3.79,3.79,0,0,1,7.57,0V52.89A3.78,3.78,0,0,1,27,54.78Z"/><line class="cls-2" x1="28.93" y1="52.33" x2="28.93" y2="42.06"/><path class="cls-1" d="M13.28,53.32a3.75,3.75,0,0,1-.51-1.88V30.2a3.79,3.79,0,0,1,7.57,0V51.44a3.78,3.78,0,0,1-7.06,1.88Z"/><line class="cls-2" x1="15.17" y1="50.87" x2="15.17" y2="32.69"/><path class="cls-3" d="M73.34,68.94a6.15,6.15,0,0,1-3.1-.84L8.11,32.23a6.22,6.22,0,1,1,6.22-10.77L76.46,57.33a6.22,6.22,0,0,1-3.12,11.61Z"/><path class="cls-4" d="M73.12,62.26a2.59,2.59,0,0,1-1.31-.36L12.31,27.55A2.62,2.62,0,0,1,14.93,23l59.5,34.35a2.63,2.63,0,0,1-1.31,4.9Z"/><path class="cls-5" d="M75.93,70.43a6.24,6.24,0,0,1-3.1-.83L8.11,32.23a6.22,6.22,0,1,1,6.22-10.77L79.05,58.83a6.22,6.22,0,0,1-3.12,11.6Z"/><path class="cls-1" d="M27,54.78a3.76,3.76,0,0,1-.51-1.89V39.56a3.79,3.79,0,0,1,7.57,0V52.89A3.78,3.78,0,0,1,27,54.78Z"/><line class="cls-2" x1="28.53" y1="52.33" x2="28.53" y2="42.06"/><path class="cls-1" d="M13.28,53.32a3.75,3.75,0,0,1-.51-1.88V30.2a3.79,3.79,0,0,1,7.57,0V51.44a3.78,3.78,0,0,1-7.06,1.88Z"/><line class="cls-2" x1="14.77" y1="50.87" x2="14.77" y2="32.69"/><path class="cls-3" d="M73.34,68.94a6.15,6.15,0,0,1-3.1-.84L8.11,32.23a6.22,6.22,0,1,1,6.22-10.77L76.46,57.33a6.22,6.22,0,0,1-3.12,11.61Z"/><path class="cls-4" d="M73.12,62.26a2.59,2.59,0,0,1-1.31-.36L12.31,27.55A2.62,2.62,0,0,1,14.93,23l59.5,34.35a2.63,2.63,0,0,1-1.31,4.9Z"/><path class="cls-5" d="M75.93,70.43a6.24,6.24,0,0,1-3.1-.83L8.11,32.23a6.22,6.22,0,1,1,6.22-10.77L79.05,58.83a6.22,6.22,0,0,1-3.12,11.6Z"/><path class="cls-4" d="M115,75.53c0-15.21-9.25-32.87-20.65-39.46-5.17-3-9.89-3.17-13.51-1.08h0l-10,5.76,1.91,2.93a27.4,27.4,0,0,0-1.49,9.41c0,15.2,9.24,32.87,20.65,39.45a19.43,19.43,0,0,0,4.87,2L97.89,98l10-5.76h0C112.23,89.7,115,83.85,115,75.53Z"/><path class="cls-3" d="M115,75.53c0-11-4.86-23.35-11.88-31.79A51.57,51.57,0,0,1,110,54.6L91.86,65a24,24,0,0,1,2.42,10c0,7.3-4.43,10.65-9.9,7.49-3-1.73-5.67-5-7.48-8.89l-.57.33c3.79,8,9.37,14.92,15.61,18.52a19.43,19.43,0,0,0,4.87,2L97.89,98l10-5.75h0C112.23,89.7,115,83.84,115,75.53Z"/><path class="cls-1" d="M84.38,41.83c-11.41-6.58-20.65.4-20.65,15.61S73,90.31,84.38,96.9,105,96.49,105,81.28,95.78,48.41,84.38,41.83Z"/><path class="cls-6" d="M84.38,81.29c-4.94-2.85-8.95-10.5-8.95-17.09s4-9.62,8.95-6.76,8.94,10.5,8.94,17.09S89.32,84.14,84.38,81.29Z"/><path class="cls-7" d="M111.75,88.46c.29-.44.57-.9.83-1.39l0,0a18.43,18.43,0,0,0,1.16-2.85c.09-.27.17-.54.25-.82a29,29,0,0,0,1-7.83c0-.62,0-1.24,0-1.86l0-.49c0-.55-.07-1.09-.13-1.64,0-.09,0-.17,0-.26-.07-.62-.15-1.25-.24-1.87,0-.16,0-.31-.07-.47-.09-.53-.18-1.06-.29-1.59l-.06-.36c-.13-.63-.27-1.27-.43-1.9l-.09-.37c-.13-.54-.28-1.09-.43-1.63,0-.12-.07-.25-.11-.38-.19-.64-.39-1.28-.6-1.91,0-.07,0-.13-.07-.2-.19-.58-.4-1.16-.62-1.74,0-.11-.08-.23-.13-.34-.49-1.28-1-2.54-1.6-3.77l-.14-.29c-.59-1.25-1.23-2.47-1.91-3.65a2.12,2.12,0,0,0-.11-.21c-.7-1.2-1.43-2.37-2.2-3.48a1,1,0,0,0-.08-.11c-.38-.55-.76-1.09-1.16-1.61l0,0c-.41-.55-.84-1.09-1.27-1.61h0a33.25,33.25,0,0,0-8.77-7.67c-5.17-3-9.89-3.17-13.51-1.08h0l-10,5.76h0c-3,1.74-5.26,5.06-6.37,9.68l-50.17-29A6.22,6.22,0,1,0,8.11,32.23l4.66,2.69V51.44a3.79,3.79,0,0,0,7.57,0V39.29l6.19,3.58v10a3.79,3.79,0,1,0,7.57,0V47.24L64.38,64.72c2.3,13.19,10.38,26.62,20,32.18,5.17,3,9.89,3.17,13.51,1.08h0l10-5.75h0A11.88,11.88,0,0,0,111.75,88.46ZM110,54.6Z"/><rect class="cls-8" width="120" height="120"/><rect class="cls-8" width="120" height="120"/></g></g></svg>