<svg xmlns="http://www.w3.org/2000/svg" viewBox="0 0 120 120"><defs><style>.cls-1,.cls-11,.cls-2,.cls-4,.cls-5,.cls-6{fill:none;}.cls-1,.cls-2,.cls-6{stroke:#436db5;}.cls-1,.cls-2,.cls-3,.cls-4,.cls-5,.cls-6,.cls-8,.cls-9{stroke-linecap:round;stroke-linejoin:round;stroke-width:2px;}.cls-2{stroke-dasharray:0 5.58;}.cls-3{fill:#deeaff;}.cls-3,.cls-8{stroke:#98b9ea;}.cls-4,.cls-5{stroke:#a7b23b;}.cls-5{stroke-dasharray:0 5.96;}.cls-6{stroke-dasharray:0 5.7;}.cls-7,.cls-9{fill:#98b9ea;}.cls-8{fill:#fff;}.cls-9{stroke:#deeaff;}.cls-10{fill:#c4d36c;}</style></defs><title>key-management-server</title><g id="Layer_2" data-name="Layer 2"><g id="Tech_Concepts" data-name="Tech Concepts"><line class="cls-1" x1="60" y1="48.85" x2="60" y2="48.85"/><line class="cls-2" x1="60" y1="54.42" x2="60" y2="68.37"/><line class="cls-1" x1="60" y1="71.15" x2="60" y2="71.15"/><path class="cls-3" d="M38.81,11.64a2.26,2.26,0,0,0-.71,1.87,5.77,5.77,0,0,0,2.42,4.61L43,19.55,30,27.06l-2.48-1.43A5.79,5.79,0,0,1,25.1,21a2.29,2.29,0,0,1,.7-1.87Z"/><path class="cls-1" d="M39.07,16.62l5-2.89-3.54-2.05a1.5,1.5,0,0,0-1.71,0l-13,7.51A2.29,2.29,0,0,0,25.1,21a5.79,5.79,0,0,0,2.41,4.61L30,27.06l13-7.51-2.48-1.43A4.45,4.45,0,0,1,39.07,16.62Z"/><line class="cls-4" x1="102.88" y1="42.96" x2="102.88" y2="42.96"/><line class="cls-5" x1="102.88" y1="48.92" x2="102.88" y2="69.8"/><line class="cls-4" x1="102.88" y1="72.78" x2="102.88" y2="72.78"/><line class="cls-1" x1="17.12" y1="42.96" x2="17.12" y2="42.96"/><line class="cls-6" x1="17.12" y1="48.66" x2="17.12" y2="62.93"/><line class="cls-1" x1="17.12" y1="65.78" x2="17.12" y2="65.78"/><path class="cls-3" d="M79,72.78l-15.52-9a7.67,7.67,0,0,0-6.92,0L41,72.78H17.12v15a2.42,2.42,0,0,0,1.44,2l38,21.93a7.61,7.61,0,0,0,6.92,0l38-21.93a2.42,2.42,0,0,0,1.44-2v-15Z"/><path class="cls-7" d="M63.46,111.67l38-21.93a2.42,2.42,0,0,0,1.44-2v-15H79l-15.52-9A7.08,7.08,0,0,0,60,63V112.5A7.08,7.08,0,0,0,63.46,111.67Z"/><line class="cls-3" x1="43.16" y1="97.03" x2="31.94" y2="90.55"/><path class="cls-8" d="M101.44,70.78l-38-21.93a7.67,7.67,0,0,0-6.92,0l-38,21.93c-1.91,1.1-1.91,2.89,0,4l38,21.92a7.61,7.61,0,0,0,6.92,0l38-21.92C103.35,73.67,103.35,71.88,101.44,70.78Z"/><polygon class="cls-9" points="92.55 94.88 72.48 106.46 72.48 99.55 92.55 87.96 92.55 94.88"/><path class="cls-1" d="M101.44,70.78l-38-21.93a7.67,7.67,0,0,0-6.92,0l-38,21.93a2.42,2.42,0,0,0-1.44,2v15a2.42,2.42,0,0,0,1.44,2l38,21.93a7.63,7.63,0,0,0,6.92,0l38-21.93a2.42,2.42,0,0,0,1.44-2v-15A2.42,2.42,0,0,0,101.44,70.78Z"/><ellipse class="cls-7" cx="93.07" cy="72.78" rx="1.94" ry="1.12"/><ellipse class="cls-7" cx="60" cy="91.87" rx="1.94" ry="1.12"/><ellipse class="cls-7" cx="60" cy="53.68" rx="1.94" ry="1.12"/><ellipse class="cls-7" cx="26.93" cy="72.78" rx="1.94" ry="1.12"/><path class="cls-3" d="M93.67,36.27,56.72,14.94a9,9,0,0,0-8.11,0L23.94,29.19,17.15,28v6.48a2.86,2.86,0,0,0,1.68,2.34L63.31,62.49a8.92,8.92,0,0,0,8.11,0L101.2,45.3A2.85,2.85,0,0,0,102.88,43V36.49Z"/><path class="cls-7" d="M67,20.86V63.44a8.46,8.46,0,0,0,4.45-.95L101.2,45.3A2.85,2.85,0,0,0,102.88,43V36.49l-9.21-.22Z"/><path class="cls-8" d="M101.2,34.15,56.72,8.47a9,9,0,0,0-8.11,0L18.83,25.66c-2.24,1.3-2.24,3.39,0,4.68L63.31,56a9,9,0,0,0,8.11,0L101.2,38.83C103.44,37.54,103.44,35.44,101.2,34.15Z"/><path class="cls-1" d="M102.88,36.49a2.84,2.84,0,0,0-1.68-2.34L56.72,8.47a9,9,0,0,0-8.11,0L18.83,25.66A2.86,2.86,0,0,0,17.15,28h0v6.48a2.86,2.86,0,0,0,1.68,2.34L63.31,62.49a8,8,0,0,0,3.66.95h0a9.3,9.3,0,0,0,1.18,0h0a9.5,9.5,0,0,0,1.07-.15l.12,0a8.52,8.52,0,0,0,.9-.26l.2-.05a6.76,6.76,0,0,0,.94-.44h0L86.31,53.9l14.89-8.6a3.29,3.29,0,0,0,1.57-1.71,2,2,0,0,0,.11-.63V36.49Z"/><path class="cls-10" d="M75,43a3.41,3.41,0,0,1-1.71-.41L54.12,31.47a1.05,1.05,0,0,1,0-2,3.79,3.79,0,0,1,3.44,0l19.2,11.09a1,1,0,0,1,0,2A3.42,3.42,0,0,1,75,43Z"/><path class="cls-10" d="M72.57,41.18h0a2.59,2.59,0,0,1-1.29-.31l-1.72-1a.78.78,0,0,1,0-1.49l4.49-2.6a2.86,2.86,0,0,1,2.58,0l1.72,1a.9.9,0,0,1,.54.74.91.91,0,0,1-.54.75l-4.49,2.59A2.65,2.65,0,0,1,72.57,41.18Z"/><path class="cls-10" d="M66.12,37.46a2.57,2.57,0,0,1-1.29-.31.78.78,0,0,1,0-1.49l2.78-1.6a2.84,2.84,0,0,1,2.57,0c.72.41.72,1.07,0,1.49l-2.77,1.6A2.62,2.62,0,0,1,66.12,37.46Z"/><path class="cls-10" d="M50.68,33.46a14.86,14.86,0,0,1-7.31-1.75c-4-2.32-4-6.11,0-8.43a14.86,14.86,0,0,1,7.31-1.75A14.83,14.83,0,0,1,58,23.28c4,2.32,4,6.11,0,8.43A14.83,14.83,0,0,1,50.68,33.46Zm0-8.42a6.09,6.09,0,0,0-3,.72c-1.66.95-1.66,2.51,0,3.47a6.84,6.84,0,0,0,6,0c1.66-1,1.66-2.52,0-3.47A6,6,0,0,0,50.68,25Z"/><path class="cls-3" d="M38.81,11.64a1.5,1.5,0,0,1,1.71,0l3.54,2.05-13,7.51-3.54-2a1.49,1.49,0,0,0-1.71-.05Z"/><path class="cls-1" d="M38.81,11.64a1.5,1.5,0,0,1,1.71,0l3.54,2.05-13,7.51-3.54-2a1.49,1.49,0,0,0-1.71-.05Z"/><rect class="cls-11" width="120" height="120"/><rect class="cls-11" width="120" height="120"/></g></g></svg>