<svg xmlns="http://www.w3.org/2000/svg" viewBox="0 0 120 120"><defs><style>.cls-1{fill:#deeaff;}.cls-2,.cls-7{fill:#98b9ea;}.cls-3{fill:#436db5;}.cls-10,.cls-4{fill:#fff;}.cls-4,.cls-6{stroke:#98b9ea;}.cls-4,.cls-6,.cls-7,.cls-9{stroke-linecap:round;stroke-linejoin:round;}.cls-4,.cls-6,.cls-7,.cls-8,.cls-9{stroke-width:2px;}.cls-5{fill:#dfeab0;}.cls-11,.cls-6,.cls-8,.cls-9{fill:none;}.cls-7,.cls-8{stroke:#fff;}.cls-8{stroke-miterlimit:10;}.cls-9{stroke:#436db5;}</style></defs><title>laptop(1x1)</title><g id="Layer_2" data-name="Layer 2"><g id="Objects"><g id="laptop_1x1_" data-name="laptop(1x1)"><path class="cls-1" d="M2.5,37,61.72,2.8A1.79,1.79,0,0,1,63,2.58h0l5.63,1.32L67,6.62,78.69,53.49,21.4,86.57l-2.5,4.19L14,89.62a1.28,1.28,0,0,1-1-.94l-12-48.21A3.31,3.31,0,0,1,2.5,37Z"/><path class="cls-2" d="M1.06,39.24,46.14,51.49s1.49,11.14,3.27,18.9l-28,16.18-2.5,4.19L14,89.62a1.28,1.28,0,0,1-1-.94l-12-48.21A3,3,0,0,1,1.06,39.24Z"/><path class="cls-2" d="M26.91,89.59l55.2-31.87L115,76.7l4-.58v5.4a1.14,1.14,0,0,1-.67.94l-60,34.61a3.58,3.58,0,0,1-3.25,0L19.75,96.66a1.73,1.73,0,0,1-.85-1.48V90.76Z"/><polygon class="cls-3" points="78.11 105.68 98.96 93.64 98.96 82.36 78.11 82.36 78.11 105.68"/><path class="cls-1" d="M56.52,72.5v45a3.16,3.16,0,0,1-1.4-.38L19.75,96.66a1.73,1.73,0,0,1-.85-1.48V90.76l8-1.17Z"/><path class="cls-4" d="M18.9,90.76l36.22,20.91a3.58,3.58,0,0,0,3.25,0l60-34.61a1,1,0,0,0,0-1.88L82.11,54.27Z"/><path class="cls-5" d="M72.55,93.67l14.6-8.43a3.75,3.75,0,0,1,3.39,0l6.81,3.93-18,10.39-6.8-3.93A1,1,0,0,1,72.55,93.67Z"/><path class="cls-6" d="M18.9,90.76l36.22,20.91a3.58,3.58,0,0,0,3.25,0l60-34.61a1,1,0,0,0,0-1.88L82.11,54.27Z"/><path class="cls-5" d="M51.68,101.78,101.2,73.19a.84.84,0,0,0,0-1.59L83.4,61.33a3.05,3.05,0,0,0-2.76,0L31.13,89.91a.85.85,0,0,0,0,1.6l17.8,10.27A3,3,0,0,0,51.68,101.78Z"/><path class="cls-2" d="M82.11,54.27l-12.19-49a1.66,1.66,0,0,0-2.56-1.17L8.14,38.31a3.31,3.31,0,0,0-1.43,3.48l12.19,49Z"/><path class="cls-7" d="M82.11,54.27l-12.19-49a1.66,1.66,0,0,0-2.56-1.17L8.14,38.31a3.31,3.31,0,0,0-1.43,3.48l12.19,49Z"/><polygon class="cls-1" points="11.75 41.85 66.16 10.44 76.5 51.88 22.09 83.29 11.75 41.85"/><polygon class="cls-1" points="11.75 41.85 66.16 10.44 76.5 51.88 22.09 83.29 11.75 41.85"/><polygon class="cls-8" points="12.9 42.34 65.51 11.97 75.35 51.39 22.74 81.76 12.9 42.34"/><path class="cls-9" d="M2.5,37,61.72,2.8A1.79,1.79,0,0,1,63,2.58h0l5.63,1.32h0a1.76,1.76,0,0,1,1.28,1.4l12.19,49L18.9,90.76,14,89.62a1.28,1.28,0,0,1-1-.94l-12-48.21A3.31,3.31,0,0,1,2.5,37Z"/><path class="cls-9" d="M82.11,54.27l36.22,20.91a1.14,1.14,0,0,1,.67.94v5.4a1.14,1.14,0,0,1-.67.94l-60,34.61a3.58,3.58,0,0,1-3.25,0L19.75,96.66a1.73,1.73,0,0,1-.85-1.48V90.76Z"/><polygon class="cls-10" points="23.6 35.01 11.75 41.85 22.09 83.29 64.65 58.72 23.6 35.01"/><rect class="cls-11" width="120" height="120"/><rect class="cls-11" width="120" height="120"/></g></g></g></svg>