<svg xmlns="http://www.w3.org/2000/svg" viewBox="0 0 120 120"><defs><style>.cls-1{fill:#deeaff;}.cls-2{fill:#98b9ea;}.cls-3,.cls-5{fill:none;}.cls-3{stroke:#436db5;stroke-linecap:round;stroke-linejoin:round;stroke-width:2px;}.cls-4{fill:#fff;}</style></defs><title>lightbulb(1x1)</title><g id="Layer_2" data-name="Layer 2"><g id="Objects"><g id="lightbulb_1x1_" data-name="lightbulb(1x1)"><path class="cls-1" d="M76.23,87.62H43.77v15.71a5.76,5.76,0,0,0,.5,2.26h0l3,7.07h0c1.42,3.3,6.56,5.74,12.7,5.74s11.28-2.44,12.7-5.74h0l3-7.07h0a5.76,5.76,0,0,0,.5-2.26Z"/><path class="cls-2" d="M60,118.4c6.14,0,11.28-2.44,12.7-5.74h0l3-7.07h0a5.76,5.76,0,0,0,.5-2.26V87.62H60Z"/><path class="cls-3" d="M43.77,101.81c0,5.17,7.27,9.37,16.23,9.37s16.23-4.2,16.23-9.37"/><path class="cls-3" d="M43.77,95.72c0,5.17,7.27,9.37,16.23,9.37s16.23-4.2,16.23-9.37"/><path class="cls-3" d="M76.23,87.62H43.77v15.71a5.76,5.76,0,0,0,.5,2.26h0l3,7.07h0c1.42,3.3,6.56,5.74,12.7,5.74s11.28-2.44,12.7-5.74h0l3-7.07h0a5.76,5.76,0,0,0,.5-2.26Z"/><path class="cls-4" d="M98.92,40.52a38.92,38.92,0,1,0-61.4,31.76,15.16,15.16,0,0,1,6.25,12.38v2.82h0s0,.09,0,.14C43.77,92.79,51,97,60,97s16.23-4.2,16.23-9.37c0-.05,0-.09,0-.14h0V84.57a15.09,15.09,0,0,1,6.32-12.33A38.86,38.86,0,0,0,98.92,40.52Z"/><path class="cls-3" d="M98.92,40.52a38.92,38.92,0,1,0-61.4,31.76,15.16,15.16,0,0,1,6.25,12.38v2.82h0s0,.09,0,.14C43.77,92.79,51,97,60,97s16.23-4.2,16.23-9.37c0-.05,0-.09,0-.14h0V84.57a15.09,15.09,0,0,1,6.32-12.33A38.86,38.86,0,0,0,98.92,40.52Z"/><path class="cls-4" d="M60,94c7.46,0,13.06-3.27,13.18-6.23a.71.71,0,0,0,0-.15,2.3,2.3,0,0,1,0-.37V84.66A18.17,18.17,0,0,1,80.72,69.8a35.88,35.88,0,0,0-18-65.06c-.92-.06-1.85-.1-2.76-.1A35.87,35.87,0,0,0,39.22,69.76a18.17,18.17,0,0,1,7.6,14.81v2.64c0,.11,0,.21,0,.32s0,.12,0,.19C46.94,90.68,52.54,94,60,94Z"/><path class="cls-1" d="M60,23.37v49a8.14,8.14,0,0,1-5.67,7.66c-3.32,1.13-5.56,3.21-5.56,5.6,0,3.58,5,6.48,11.23,6.48s11.23-2.9,11.23-6.48h0V84.57a20.18,20.18,0,0,1,8.42-16.41,33.89,33.89,0,0,0,.47-54.93A12.62,12.62,0,0,0,60,23.37Z"/><ellipse class="cls-1" cx="40.92" cy="21.94" rx="7.26" ry="4.23" transform="translate(-3.53 35.36) rotate(-45)"/><rect class="cls-5" width="120" height="120"/><rect class="cls-5" width="120" height="120"/></g></g></g></svg>