<svg xmlns="http://www.w3.org/2000/svg" viewBox="0 0 120 120"><defs><style>.cls-1,.cls-10,.cls-2,.cls-3,.cls-4,.cls-5,.cls-6{fill:none;}.cls-1,.cls-2,.cls-3,.cls-4{stroke:#436db5;}.cls-1,.cls-2,.cls-3,.cls-4,.cls-5,.cls-6,.cls-7,.cls-8,.cls-9{stroke-linecap:round;stroke-linejoin:round;stroke-width:2px;}.cls-2{stroke-dasharray:0 5.63;}.cls-3,.cls-6{stroke-dasharray:0 5.67;}.cls-4{stroke-dasharray:0 5.67;}.cls-5,.cls-6{stroke:#c4d36c;}.cls-7{fill:#fff;}.cls-7,.cls-8,.cls-9{stroke:#98b9ea;}.cls-8{fill:#98b9ea;}.cls-9{fill:#deeaff;}</style></defs><title>limitless-scalability</title><g id="Layer_2" data-name="Layer 2"><g id="Tech_Concepts" data-name="Tech Concepts"><line class="cls-1" x1="81.33" y1="47.32" x2="81.33" y2="47.32"/><line class="cls-2" x1="86.17" y1="44.44" x2="93.42" y2="40.13"/><line class="cls-1" x1="95.84" y1="38.69" x2="95.84" y2="38.69"/><line class="cls-1" x1="24.16" y1="81.31" x2="24.16" y2="81.31"/><line class="cls-2" x1="28.99" y1="78.43" x2="36.25" y2="74.12"/><line class="cls-1" x1="38.67" y1="72.68" x2="38.67" y2="72.68"/><line class="cls-1" x1="38.67" y1="47.32" x2="38.67" y2="47.32"/><line class="cls-2" x1="33.83" y1="44.44" x2="26.58" y2="40.13"/><line class="cls-1" x1="24.16" y1="38.69" x2="24.16" y2="38.69"/><line class="cls-1" x1="95.84" y1="81.31" x2="95.84" y2="81.31"/><line class="cls-2" x1="91.01" y1="78.43" x2="83.75" y2="74.12"/><line class="cls-1" x1="81.33" y1="72.68" x2="81.33" y2="72.68"/><line class="cls-1" x1="60" y1="18" x2="60" y2="18"/><line class="cls-3" x1="60" y1="23.67" x2="60" y2="32.17"/><line class="cls-1" x1="60" y1="35" x2="60" y2="35"/><line class="cls-1" x1="60" y1="85" x2="60" y2="85"/><line class="cls-4" x1="60" y1="90.67" x2="60" y2="99.17"/><line class="cls-1" x1="60" y1="102" x2="60" y2="102"/><line class="cls-5" x1="9.65" y1="30.07" x2="9.65" y2="30.07"/><line class="cls-6" x1="14.56" y1="32.9" x2="21.92" y2="37.15"/><line class="cls-5" x1="24.37" y1="38.57" x2="24.37" y2="38.57"/><line class="cls-5" x1="95.63" y1="81.43" x2="95.63" y2="81.43"/><line class="cls-6" x1="100.53" y1="84.27" x2="107.89" y2="88.52"/><line class="cls-5" x1="110.35" y1="89.93" x2="110.35" y2="89.93"/><line class="cls-5" x1="110.35" y1="30.07" x2="110.35" y2="30.07"/><line class="cls-6" x1="105.44" y1="32.9" x2="98.08" y2="37.15"/><line class="cls-5" x1="95.63" y1="38.57" x2="95.63" y2="38.57"/><line class="cls-5" x1="24.37" y1="81.43" x2="24.37" y2="81.43"/><line class="cls-6" x1="19.47" y1="84.27" x2="12.11" y2="88.52"/><line class="cls-5" x1="9.65" y1="89.93" x2="9.65" y2="89.93"/><line class="cls-5" x1="60" y1="102" x2="60" y2="102"/><line class="cls-6" x1="60" y1="107.67" x2="60" y2="116.17"/><line class="cls-5" x1="60" y1="119" x2="60" y2="119"/><line class="cls-5" x1="60" y1="1" x2="60" y2="1"/><line class="cls-6" x1="60" y1="6.67" x2="60" y2="15.17"/><line class="cls-5" x1="60" y1="18" x2="60" y2="18"/><polyline class="cls-5" points="110.35 42.04 110.35 30.07 100.28 24.25"/><polyline class="cls-5" points="100.28 95.75 110.35 89.93 110.35 77.96"/><polyline class="cls-5" points="49.93 113.19 60 119 70.07 113.19"/><polyline class="cls-5" points="9.65 77.96 9.65 89.93 19.72 95.75"/><polyline class="cls-5" points="19.72 24.25 9.65 30.07 9.65 42.04"/><polyline class="cls-5" points="70.07 6.81 60 1 49.93 6.81"/><polygon class="cls-7" points="81.33 47.32 60 59.63 38.67 47.32 60 35 81.33 47.32"/><polygon class="cls-8" points="81.33 47.32 81.33 72.68 60 85 60 59.63 81.33 47.32"/><polygon class="cls-9" points="38.67 47.32 38.67 72.68 60 85 60 59.63 38.67 47.32"/><polygon class="cls-1" points="60 35 38.67 47.32 38.67 72.68 60 85 81.33 72.68 81.33 47.32 60 35"/><line class="cls-5" x1="37.85" y1="13.79" x2="31.81" y2="17.28"/><line class="cls-5" x1="88.19" y1="17.28" x2="82.15" y2="13.79"/><line class="cls-5" x1="88.19" y1="102.72" x2="82.15" y2="106.21"/><line class="cls-5" x1="31.81" y1="102.72" x2="37.85" y2="106.21"/><line class="cls-5" x1="9.65" y1="56.41" x2="9.65" y2="63.59"/><line class="cls-5" x1="110.35" y1="56.41" x2="110.35" y2="63.59"/><polyline class="cls-1" points="95.84 47.22 95.84 38.69 88.67 34.55"/><polyline class="cls-1" points="88.67 85.45 95.84 81.31 95.84 72.78"/><polyline class="cls-1" points="52.83 97.86 60 102 67.17 97.86"/><polyline class="cls-1" points="24.16 72.78 24.16 81.31 31.33 85.45"/><polyline class="cls-1" points="31.33 34.55 24.16 38.69 24.16 47.22"/><polyline class="cls-1" points="67.17 22.14 60 18 52.83 22.14"/><rect class="cls-10" width="120" height="120"/><rect class="cls-10" width="120" height="120"/></g></g></svg>