<svg xmlns="http://www.w3.org/2000/svg" viewBox="0 0 120 120"><defs><style>.cls-1{fill:#98b9ea;}.cls-2{fill:#deeaff;}.cls-3{fill:#fff;}.cls-3,.cls-7{stroke:#98b9ea;}.cls-3,.cls-4,.cls-5,.cls-6,.cls-7{stroke-linecap:round;stroke-linejoin:round;stroke-width:2px;}.cls-4{fill:#436db5;}.cls-4,.cls-5{stroke:#436db5;}.cls-5,.cls-6,.cls-7,.cls-8{fill:none;}.cls-6{stroke:#fff;}</style></defs><title>lock(1x1)</title><g id="Layer_2" data-name="Layer 2"><g id="Objects"><g id="lock_1x1_" data-name="lock(1x1)"><path class="cls-1" d="M33.72,58.48v48.34A3.91,3.91,0,0,0,36,110l6.27,3.62a12.31,12.31,0,0,0,11.18,0L84,96.06a3.93,3.93,0,0,0,2.31-3.23V44.5Z"/><path class="cls-2" d="M47.79,54.74,33.72,58.48v48.34A3.91,3.91,0,0,0,36,110l6.27,3.62A11.29,11.29,0,0,0,47.79,115Z"/><path class="cls-3" d="M84,47.73,53.48,65.33a12.37,12.37,0,0,1-11.18,0L36,61.71C33,59.93,33,57,36,55.26l30.49-17.6a12.31,12.31,0,0,1,11.18,0L84,41.27C87.05,43.06,87.05,46,84,47.73Z"/><path class="cls-4" d="M73,74c0-3.13-1.9-4.57-4.25-3.21s-4.25,5-4.25,8.12c0,2.06.83,3.38,2.07,3.66l-.87,10.93L71.78,90,70.91,80A10.77,10.77,0,0,0,73,74Z"/><path class="cls-5" d="M84,41.27,77.7,37.66a12.31,12.31,0,0,0-11.18,0L36,55.26a3.93,3.93,0,0,0-2.31,3.22v48.34A3.91,3.91,0,0,0,36,110l6.27,3.62a12.31,12.31,0,0,0,11.18,0L84,96.06a3.93,3.93,0,0,0,2.31-3.23V44.5A3.93,3.93,0,0,0,84,41.27Z"/><path class="cls-2" d="M70.92,6.61C66.86,4.26,61.78,4.49,57,7.26c-8.55,4.93-15.24,17.49-15.24,28.58V57.23h0c0,1.88,2.63,3.4,5.88,3.4s5.88-1.52,5.88-3.4h0V35.84c0-6.92,4.38-15.52,9.36-18.4,1.23-.7,2-.73,2.16-.64.43.24,1.31,1.75,1.31,4.85V43h0c0,1.88,2.63,3.4,5.88,3.4s5.89-1.52,5.89-3.4h0V21.65C78.12,14.73,75.5,9.25,70.92,6.61Z"/><path class="cls-5" d="M70.92,6.61C66.86,4.26,61.78,4.49,57,7.26c-8.55,4.93-15.24,17.49-15.24,28.58V57.23h0c0,1.88,2.63,3.4,5.88,3.4s5.88-1.52,5.88-3.4h0V35.84c0-6.92,4.38-15.52,9.36-18.4,1.23-.7,2-.73,2.16-.64.43.24,1.31,1.75,1.31,4.85V43h0c0,1.88,2.63,3.4,5.88,3.4s5.89-1.52,5.89-3.4h0V21.65C78.12,14.73,75.5,9.25,70.92,6.61Z"/><path class="cls-6" d="M43.76,55.23V35.84C43.76,25.39,50,13.6,58,9"/><path class="cls-7" d="M51.52,57.23c0,.29-1.29,1.4-3.88,1.4"/><path class="cls-7" d="M54.24,24.84a26.24,26.24,0,0,0-2.72,11V57.23"/><path class="cls-6" d="M61.88,15.71a14.45,14.45,0,0,0-3.06,2.43"/><path class="cls-6" d="M64.82,14.76a6.2,6.2,0,0,0-2.94,1"/><path class="cls-6" d="M67.88,17.93A4.68,4.68,0,0,0,66,15.06a2.48,2.48,0,0,0-1.22-.3"/><path class="cls-6" d="M68.35,41V21.65a13.35,13.35,0,0,0-.47-3.72"/><path class="cls-7" d="M73.61,11.92a17.85,17.85,0,0,1,2.51,9.73V43c0,.29-1.3,1.4-3.89,1.4"/><path class="cls-6" d="M58,9a13.85,13.85,0,0,1,6.84-2"/><rect class="cls-8" width="120" height="120"/><rect class="cls-8" width="120" height="120"/></g></g></g></svg>