<svg xmlns="http://www.w3.org/2000/svg" viewBox="0 0 120 120"><defs><style>.cls-1,.cls-6{fill:#fff;}.cls-1{stroke:#98b9ea;}.cls-1,.cls-11,.cls-13,.cls-3,.cls-4,.cls-5,.cls-8{stroke-linecap:round;stroke-linejoin:round;stroke-width:2px;}.cls-2{fill:#deeaff;}.cls-3,.cls-7{fill:#98b9ea;}.cls-3,.cls-4,.cls-5{stroke:#436db5;}.cls-11,.cls-12,.cls-13,.cls-4,.cls-8{fill:none;}.cls-5{fill:#436db5;}.cls-8{stroke:#c4d36c;}.cls-9{fill:#dfeab0;}.cls-10{fill:#c4d36c;}.cls-11{stroke:#fff;}.cls-13{stroke:#a7b23b;}</style></defs><title>lower-costs-2</title><g id="Layer_2" data-name="Layer 2"><g id="Actions"><path class="cls-1" d="M75.19,5.41,67.67,1.07h0a.68.68,0,0,0-.71,0L3.7,37.65a2.62,2.62,0,0,0-1.1,2.09v61.38A1,1,0,0,0,3,102H3l7.52,4.34,6.32-12L67,60.49a2.62,2.62,0,0,0,1.09-2.08V14.93Z"/><path class="cls-2" d="M10.12,106.13V33.94L3.7,37.65a2.6,2.6,0,0,0-1.1,2.09v61.38A1,1,0,0,0,3,102H3Z"/><path class="cls-3" d="M45.17,73.07,67,60.49a2.62,2.62,0,0,0,1.09-2.08V14.93l7.14-9.52L67.67,1.07h0a.68.68,0,0,0-.71,0L3.7,37.65a2.62,2.62,0,0,0-1.1,2.09v8.75Z"/><path class="cls-2" d="M47.2,65.49l20.85-29.1V14.93l7.14-9.52L67.67,1.07h0a.68.68,0,0,0-.71,0L3.7,37.65a2.6,2.6,0,0,0-1.1,2.09h0Z"/><path class="cls-1" d="M74.48,69.77,11.22,106.29c-.61.35-1.1,0-1.1-.83V44.08A2.62,2.62,0,0,1,11.22,42L74.48,5.47c.6-.35,1.09,0,1.09.83V67.68A2.64,2.64,0,0,1,74.48,69.77Z"/><path class="cls-4" d="M75.19,5.42h0L67.67,1.07h0a.68.68,0,0,0-.71,0L3.7,37.65a2.6,2.6,0,0,0-1.1,2.09v61.38A1,1,0,0,0,3,102H3l7.52,4.34h0a.7.7,0,0,0,.72,0L74.48,69.77a2.64,2.64,0,0,0,1.09-2.09V6.3A1,1,0,0,0,75.19,5.42Z"/><path class="cls-5" d="M75.57,15.05V6.3c0-.81-.49-1.18-1.09-.83L11.22,42a2.62,2.62,0,0,0-1.1,2.09v8.75Z"/><ellipse class="cls-2" cx="20.14" cy="42.2" rx="1.89" ry="1.07" transform="translate(-26.58 44.2) rotate(-66.95)"/><ellipse class="cls-6" cx="24.89" cy="39.45" rx="1.89" ry="1.07" transform="translate(-21.16 46.91) rotate(-66.95)"/><ellipse class="cls-7" cx="15.19" cy="45.05" rx="1.89" ry="1.07" transform="translate(-32.22 41.39) rotate(-66.95)"/><line class="cls-1" x1="17.17" y1="93.64" x2="68.32" y2="64.12"/><line class="cls-1" x1="17.17" y1="57.34" x2="17.17" y2="93.64"/><polyline class="cls-8" points="66.28 59.02 61.21 56.59 53.04 59.72 44.47 55.02 37.3 62.14 30.19 56.77 22.66 57.31"/><path class="cls-9" d="M112,85.31l-.26-.16c-7.62-4.39-20-4.39-27.57,0l-.27.16H78.41v6.5c0,2.88,1.9,5.76,5.71,8,7.61,4.39,19.95,4.39,27.57,0,3.8-2.2,5.71-5.08,5.71-8v-6.5Z"/><path class="cls-10" d="M111.69,99.77c3.8-2.2,5.71-5.08,5.71-8v-6.5H112l-.26-.16a28.18,28.18,0,0,0-13.79-3.3v21.22A28.18,28.18,0,0,0,111.69,99.77Z"/><ellipse class="cls-9" cx="97.9" cy="85.31" rx="19.5" ry="11.26"/><ellipse class="cls-11" cx="97.9" cy="85.31" rx="19.5" ry="11.26"/><ellipse class="cls-12" cx="97.9" cy="91.81" rx="19.5" ry="11.26"/><path class="cls-13" d="M117.4,91.81v-6.5h0c0-2.88-1.91-5.76-5.71-8-7.62-4.39-20-4.39-27.57,0-3.81,2.2-5.71,5.08-5.71,8h0v6.5c0,2.88,1.9,5.76,5.71,8a28.12,28.12,0,0,0,13.78,3.3c.63,0,1.25,0,1.87-.06a29.8,29.8,0,0,0,3.68-.41c.61-.1,1.2-.22,1.79-.36a23.81,23.81,0,0,0,6.45-2.47,12,12,0,0,0,4.9-4.76A6.91,6.91,0,0,0,117.4,91.81Z"/><path class="cls-10" d="M105.44,88.46l2.07,1.19-1.83,1.07-2-1.16a17.33,17.33,0,0,1-3.08,1.22,13.51,13.51,0,0,1-3,.58l-1.24-1.88a15.78,15.78,0,0,0,2.5-.46,12.59,12.59,0,0,0,2.38-.86l-3.1-1.79a28.15,28.15,0,0,1-2.9.88,9.38,9.38,0,0,1-2.65.22,5.79,5.79,0,0,1-2.6-.8,2.5,2.5,0,0,1-1.52-2.17c0-.85.62-1.73,1.88-2.63l-2.06-1.19,1.84-1.06,2,1.16A15.32,15.32,0,0,1,97,79.26l1.34,1.85a14.36,14.36,0,0,0-3.77,1.08L97.73,84a24.83,24.83,0,0,1,2.84-.89,9.66,9.66,0,0,1,2.64-.21,5.77,5.77,0,0,1,2.58.78,2.47,2.47,0,0,1,1.49,2.14C107.26,86.68,106.66,87.55,105.44,88.46ZM93.9,85.1a6.14,6.14,0,0,0,1.54-.29L92.8,83.28a1.24,1.24,0,0,0-.5.91.86.86,0,0,0,.51.68,2,2,0,0,0,1.09.23m6.55.48L103,87.05a1.23,1.23,0,0,0,.51-.86.79.79,0,0,0-.46-.65,2.07,2.07,0,0,0-1.11-.24,7.17,7.17,0,0,0-1.49.28"/><path class="cls-9" d="M84.36,101.25l-.26-.16c-7.61-4.4-20-4.4-27.57,0l-.27.16H50.82v6.49c0,2.88,1.9,5.77,5.71,8,7.61,4.4,20,4.4,27.57,0,3.81-2.19,5.71-5.08,5.71-8v-6.49Z"/><path class="cls-10" d="M84.1,115.7c3.81-2.19,5.71-5.08,5.71-8v-6.49H84.36l-.26-.16a28.18,28.18,0,0,0-13.79-3.3V119A28.18,28.18,0,0,0,84.1,115.7Z"/><ellipse class="cls-9" cx="70.31" cy="101.25" rx="19.5" ry="11.26"/><ellipse class="cls-11" cx="70.31" cy="101.25" rx="19.5" ry="11.26"/><ellipse class="cls-12" cx="70.31" cy="107.74" rx="19.5" ry="11.26"/><path class="cls-13" d="M89.81,107.74v-6.49h0c0-2.88-1.9-5.77-5.71-8-7.61-4.4-20-4.4-27.57,0-3.81,2.19-5.71,5.08-5.71,8h0v6.49c0,2.89,1.9,5.77,5.71,8A28.12,28.12,0,0,0,70.31,119c.63,0,1.25,0,1.87,0a34.22,34.22,0,0,0,3.68-.41c.61-.11,1.2-.23,1.79-.36a23.7,23.7,0,0,0,6.45-2.48A12.17,12.17,0,0,0,89,111,7.09,7.09,0,0,0,89.81,107.74Z"/><path class="cls-10" d="M77.86,104.39l2.06,1.2-1.83,1.06-2-1.16A16.63,16.63,0,0,1,73,106.72a12.92,12.92,0,0,1-3,.57l-1.25-1.88a15.83,15.83,0,0,0,2.51-.45,13.52,13.52,0,0,0,2.37-.87l-3.09-1.79a27.19,27.19,0,0,1-2.9.88,9.46,9.46,0,0,1-2.66.23,5.92,5.92,0,0,1-2.6-.8,2.52,2.52,0,0,1-1.52-2.17c0-.85.62-1.73,1.88-2.64L60.7,96.62l1.84-1.07,2,1.16a15.37,15.37,0,0,1,4.87-1.51L70.76,97A14.36,14.36,0,0,0,67,98.12l3.15,1.82A26.75,26.75,0,0,1,73,99.06a9.7,9.7,0,0,1,2.65-.22,5.92,5.92,0,0,1,2.57.79,2.44,2.44,0,0,1,1.49,2.14C79.67,102.62,79.07,103.48,77.86,104.39ZM66.32,101a6.21,6.21,0,0,0,1.53-.3l-2.64-1.52a1.26,1.26,0,0,0-.5.9.87.87,0,0,0,.51.69,2.15,2.15,0,0,0,1.1.23m6.54.47L75.41,103a1.23,1.23,0,0,0,.51-.85.74.74,0,0,0-.46-.65,1.89,1.89,0,0,0-1.11-.24,6.48,6.48,0,0,0-1.49.27"/><path class="cls-9" d="M84.36,94.75l-.26-.16c-7.61-4.4-20-4.4-27.57,0l-.27.16H50.82v6.5c0,2.88,1.9,5.76,5.71,8,7.61,4.4,20,4.4,27.57,0,3.81-2.19,5.71-5.07,5.71-8v-6.5Z"/><path class="cls-10" d="M84.1,109.2c3.81-2.19,5.71-5.07,5.71-8v-6.5H84.36l-.26-.16a28.18,28.18,0,0,0-13.79-3.3V112.5A28.18,28.18,0,0,0,84.1,109.2Z"/><ellipse class="cls-9" cx="70.31" cy="94.75" rx="19.5" ry="11.26"/><ellipse class="cls-11" cx="70.31" cy="94.75" rx="19.5" ry="11.26"/><ellipse class="cls-12" cx="70.31" cy="101.25" rx="19.5" ry="11.26"/><path class="cls-13" d="M89.81,101.25v-6.5h0c0-2.88-1.9-5.76-5.71-8-7.61-4.4-20-4.4-27.57,0-3.81,2.2-5.71,5.08-5.71,8h0v6.5c0,2.88,1.9,5.76,5.71,8a28.12,28.12,0,0,0,13.78,3.3c.63,0,1.25,0,1.87,0a34.22,34.22,0,0,0,3.68-.41c.61-.11,1.2-.23,1.79-.36a23.7,23.7,0,0,0,6.45-2.48A12.17,12.17,0,0,0,89,104.45,7,7,0,0,0,89.81,101.25Z"/><path class="cls-10" d="M77.86,97.9l2.06,1.19-1.83,1.06-2-1.16A16.63,16.63,0,0,1,73,100.22a13.54,13.54,0,0,1-3,.58l-1.25-1.89a15.83,15.83,0,0,0,2.51-.45,13.52,13.52,0,0,0,2.37-.87L70.56,95.8a27.46,27.46,0,0,1-2.9.89,9.45,9.45,0,0,1-2.66.22,5.92,5.92,0,0,1-2.6-.8,2.51,2.51,0,0,1-1.52-2.17c0-.85.62-1.73,1.88-2.64L60.7,90.12l1.84-1.07,2,1.16a15.37,15.37,0,0,1,4.87-1.51l1.34,1.84A14.36,14.36,0,0,0,67,91.62l3.15,1.82A26.75,26.75,0,0,1,73,92.56a10.11,10.11,0,0,1,2.65-.22,5.92,5.92,0,0,1,2.57.79,2.44,2.44,0,0,1,1.49,2.14C79.67,96.12,79.07,97,77.86,97.9ZM66.32,94.54a6.21,6.21,0,0,0,1.53-.3l-2.64-1.52a1.26,1.26,0,0,0-.5.91.88.88,0,0,0,.51.68,2.15,2.15,0,0,0,1.1.23m6.54.47,2.55,1.48a1.27,1.27,0,0,0,.51-.86.76.76,0,0,0-.46-.65,2,2,0,0,0-1.11-.24,7.07,7.07,0,0,0-1.49.27"/><rect class="cls-12" width="120" height="120"/><rect class="cls-12" width="120" height="120"/></g></g></svg>