<svg xmlns="http://www.w3.org/2000/svg" viewBox="0 0 120 120"><defs><style>.cls-1{fill:#dfeab0;}.cls-2{fill:#c4d36c;}.cls-3,.cls-4,.cls-5{fill:none;}.cls-3{stroke:#fff;}.cls-3,.cls-5{stroke-linecap:round;stroke-linejoin:round;stroke-width:2px;}.cls-5{stroke:#a7b23b;}</style></defs><title>lower-costs</title><g id="Layer_2" data-name="Layer 2"><g id="Actions"><path class="cls-1" d="M43.06,52.28a3.62,3.62,0,0,0-.33-.2c-9.53-5.5-25-5.5-34.5,0-.12.06-.22.13-.34.2H1.08v8.13c0,3.61,2.38,7.21,7.15,10,9.52,5.5,25,5.5,34.5,0,4.77-2.75,7.15-6.35,7.15-10V52.28Z"/><path class="cls-2" d="M42.73,70.37c4.77-2.75,7.15-6.35,7.15-10V52.28H43.06a3.62,3.62,0,0,0-.33-.2C38,49.33,31.72,48,25.48,48V74.5C31.72,74.5,38,73.12,42.73,70.37Z"/><ellipse class="cls-1" cx="25.48" cy="52.28" rx="24.4" ry="14.09"/><ellipse class="cls-3" cx="25.48" cy="52.28" rx="24.4" ry="14.09"/><ellipse class="cls-4" cx="25.48" cy="60.41" rx="24.4" ry="14.09"/><path class="cls-5" d="M49.88,60.41V52.28h0c0-3.61-2.38-7.21-7.15-10-9.53-5.5-25-5.5-34.5,0-4.77,2.75-7.15,6.35-7.15,10h0v8.13c0,3.61,2.38,7.21,7.15,10s11,4.13,17.25,4.13c.78,0,1.56,0,2.34-.07a39.15,39.15,0,0,0,4.61-.51c.75-.13,1.5-.28,2.23-.45a29.63,29.63,0,0,0,8.07-3.1,15.12,15.12,0,0,0,6.14-6A8.73,8.73,0,0,0,49.88,60.41Z"/><path class="cls-2" d="M34.92,56.22l2.59,1.49-2.3,1.34-2.52-1.46a20.76,20.76,0,0,1-3.85,1.54,16.68,16.68,0,0,1-3.73.72l-1.56-2.36a19.57,19.57,0,0,0,3.13-.57,15.74,15.74,0,0,0,3-1.08L25.78,53.6c-1.35.48-2.57.85-3.63,1.11a11.88,11.88,0,0,1-3.32.28,7.3,7.3,0,0,1-3.26-1,3.14,3.14,0,0,1-1.9-2.71c0-1.07.78-2.17,2.35-3.3l-2.57-1.49,2.3-1.33,2.51,1.45a19.25,19.25,0,0,1,6.1-1.89L26,47a18.57,18.57,0,0,0-4.72,1.36l3.94,2.27a32.93,32.93,0,0,1,3.56-1.1,12.09,12.09,0,0,1,3.31-.27,7.27,7.27,0,0,1,3.22,1,3.1,3.1,0,0,1,1.87,2.68C37.19,54,36.44,55.08,34.92,56.22ZM20.48,52a7.68,7.68,0,0,0,1.91-.37L19.1,49.74a1.57,1.57,0,0,0-.64,1.14,1.11,1.11,0,0,0,.65.85,2.52,2.52,0,0,0,1.37.29m8.19.59,3.19,1.84a1.58,1.58,0,0,0,.64-1.07,1,1,0,0,0-.58-.81,2.47,2.47,0,0,0-1.39-.3,8.5,8.5,0,0,0-1.86.34"/><path class="cls-1" d="M77.6,72.2l-.33-.2c-9.53-5.5-25-5.5-34.5,0l-.33.2H35.62v8.13c0,3.61,2.38,7.22,7.15,10,9.53,5.5,25,5.5,34.5,0,4.77-2.75,7.15-6.36,7.15-10V72.2Z"/><path class="cls-2" d="M77.27,90.3c4.77-2.75,7.15-6.36,7.15-10V72.2H77.6l-.33-.2c-4.76-2.75-11-4.13-17.25-4.13V94.42C66.26,94.42,72.51,93.05,77.27,90.3Z"/><ellipse class="cls-1" cx="60.02" cy="72.2" rx="24.4" ry="14.09"/><ellipse class="cls-3" cx="60.02" cy="72.2" rx="24.4" ry="14.09"/><ellipse class="cls-4" cx="60.02" cy="80.33" rx="24.4" ry="14.09"/><path class="cls-5" d="M84.42,80.33V72.2h0c0-3.6-2.38-7.21-7.15-10-9.53-5.5-25-5.5-34.5,0C38,65,35.62,68.6,35.62,72.2h0v8.13c0,3.61,2.38,7.21,7.15,10s11,4.12,17.25,4.12q1.17,0,2.34-.06A41.4,41.4,0,0,0,67,93.84c.75-.13,1.5-.28,2.23-.45a29.94,29.94,0,0,0,8.07-3.09,15.19,15.19,0,0,0,6.14-6A8.77,8.77,0,0,0,84.42,80.33Z"/><path class="cls-2" d="M69.46,76.14l2.59,1.5L69.75,79l-2.52-1.45a20.74,20.74,0,0,1-3.85,1.53,16.68,16.68,0,0,1-3.73.72l-1.56-2.35a19.43,19.43,0,0,0,3.13-.58,15.49,15.49,0,0,0,3-1.08l-3.87-2.23a34.4,34.4,0,0,1-3.63,1.1,11.88,11.88,0,0,1-3.32.28,7.41,7.41,0,0,1-3.26-1,3.17,3.17,0,0,1-1.9-2.72c0-1.06.78-2.17,2.35-3.3L48,66.41l2.3-1.34,2.52,1.46a18.9,18.9,0,0,1,6.09-1.9l1.68,2.31a18.18,18.18,0,0,0-4.72,1.35l3.94,2.28a35.62,35.62,0,0,1,3.56-1.11,12.15,12.15,0,0,1,3.31-.27,7.16,7.16,0,0,1,3.22,1,3.08,3.08,0,0,1,1.87,2.67C71.73,73.92,71,75,69.46,76.14ZM55,71.94a7.83,7.83,0,0,0,1.92-.37l-3.3-1.91A1.6,1.6,0,0,0,53,70.8a1.11,1.11,0,0,0,.65.85,2.52,2.52,0,0,0,1.37.29m8.19.59,3.19,1.85A1.57,1.57,0,0,0,67,73.3a1,1,0,0,0-.58-.81,2.45,2.45,0,0,0-1.38-.3,8.48,8.48,0,0,0-1.87.34"/><path class="cls-1" d="M43.06,44.14l-.33-.2c-9.53-5.5-25-5.5-34.5,0l-.34.2H1.08v8.13c0,3.61,2.38,7.21,7.15,10,9.52,5.5,25,5.5,34.5,0,4.77-2.76,7.15-6.36,7.15-10V44.14Z"/><path class="cls-2" d="M42.73,62.24c4.77-2.76,7.15-6.36,7.15-10V44.14H43.06l-.33-.2c-4.76-2.75-11-4.13-17.25-4.13V66.36C31.72,66.36,38,65,42.73,62.24Z"/><ellipse class="cls-1" cx="25.48" cy="44.14" rx="24.4" ry="14.09"/><ellipse class="cls-3" cx="25.48" cy="44.14" rx="24.4" ry="14.09"/><ellipse class="cls-4" cx="25.48" cy="52.27" rx="24.4" ry="14.09"/><path class="cls-5" d="M49.88,52.27V44.14h0c0-3.6-2.38-7.21-7.15-10-9.53-5.5-25-5.5-34.5,0-4.77,2.75-7.15,6.36-7.15,10h0v8.13c0,3.61,2.38,7.21,7.15,10s11,4.12,17.25,4.12q1.17,0,2.34-.06a41.4,41.4,0,0,0,4.61-.52c.75-.13,1.5-.28,2.23-.45a29.94,29.94,0,0,0,8.07-3.09,15.19,15.19,0,0,0,6.14-6A8.77,8.77,0,0,0,49.88,52.27Z"/><path class="cls-2" d="M34.92,48.08l2.59,1.5-2.3,1.33-2.52-1.45A20.74,20.74,0,0,1,28.84,51a16.68,16.68,0,0,1-3.73.72l-1.56-2.35a19.63,19.63,0,0,0,3.13-.58,15.74,15.74,0,0,0,3-1.08l-3.87-2.24a33.06,33.06,0,0,1-3.63,1.11,11.88,11.88,0,0,1-3.32.28,7.41,7.41,0,0,1-3.26-1,3.17,3.17,0,0,1-1.9-2.72c0-1.06.78-2.17,2.35-3.3l-2.57-1.48L15.75,37l2.51,1.46a19,19,0,0,1,6.1-1.9L26,38.88a18.18,18.18,0,0,0-4.72,1.35l3.94,2.28a33.18,33.18,0,0,1,3.56-1.11,12.09,12.09,0,0,1,3.31-.27,7.16,7.16,0,0,1,3.22,1,3.08,3.08,0,0,1,1.87,2.67C37.19,45.86,36.44,46.94,34.92,48.08Zm-14.44-4.2a7.68,7.68,0,0,0,1.91-.37L19.1,41.6a1.6,1.6,0,0,0-.64,1.14,1.11,1.11,0,0,0,.65.85,2.52,2.52,0,0,0,1.37.29m8.19.59,3.19,1.85a1.57,1.57,0,0,0,.64-1.08,1,1,0,0,0-.58-.81,2.47,2.47,0,0,0-1.39-.3,8.5,8.5,0,0,0-1.86.34"/><path class="cls-1" d="M43.06,36a3.62,3.62,0,0,0-.33-.2c-9.53-5.5-25-5.5-34.5,0-.12.06-.22.13-.34.2H1.08v8.13c0,3.61,2.38,7.21,7.15,10,9.52,5.5,25,5.5,34.5,0,4.77-2.75,7.15-6.35,7.15-10V36Z"/><path class="cls-2" d="M42.73,54.1c4.77-2.75,7.15-6.35,7.15-10V36H43.06a3.62,3.62,0,0,0-.33-.2c-4.76-2.75-11-4.13-17.25-4.13V58.23C31.72,58.23,38,56.85,42.73,54.1Z"/><ellipse class="cls-1" cx="25.48" cy="36.01" rx="24.4" ry="14.09"/><ellipse class="cls-3" cx="25.48" cy="36.01" rx="24.4" ry="14.09"/><ellipse class="cls-4" cx="25.48" cy="44.14" rx="24.4" ry="14.09"/><path class="cls-5" d="M49.88,44.14V36h0c0-3.61-2.38-7.21-7.15-10-9.53-5.5-25-5.5-34.5,0C3.46,28.8,1.08,32.4,1.08,36h0v8.13c0,3.61,2.38,7.21,7.15,10s11,4.13,17.25,4.13c.78,0,1.56,0,2.34-.07a39.15,39.15,0,0,0,4.61-.51c.75-.13,1.5-.28,2.23-.45a29.63,29.63,0,0,0,8.07-3.1,15.12,15.12,0,0,0,6.14-6A8.73,8.73,0,0,0,49.88,44.14Z"/><path class="cls-2" d="M34.92,40l2.59,1.49-2.3,1.34-2.52-1.46a20.76,20.76,0,0,1-3.85,1.54,16.68,16.68,0,0,1-3.73.72l-1.56-2.36a19.57,19.57,0,0,0,3.13-.57,15.74,15.74,0,0,0,3-1.08l-3.87-2.24a35.12,35.12,0,0,1-3.63,1.1,11.52,11.52,0,0,1-3.32.29,7.42,7.42,0,0,1-3.26-1A3.14,3.14,0,0,1,13.67,35c0-1.07.78-2.17,2.35-3.3l-2.57-1.49,2.3-1.33,2.51,1.45a19.25,19.25,0,0,1,6.1-1.89L26,30.74a18.17,18.17,0,0,0-4.72,1.36l3.94,2.27a32.93,32.93,0,0,1,3.56-1.1A12.09,12.09,0,0,1,32.13,33a7.27,7.27,0,0,1,3.22,1,3.09,3.09,0,0,1,1.87,2.68C37.19,37.72,36.44,38.81,34.92,40Zm-14.44-4.2a7.68,7.68,0,0,0,1.91-.37L19.1,33.47a1.57,1.57,0,0,0-.64,1.13,1.11,1.11,0,0,0,.65.86,2.52,2.52,0,0,0,1.37.29m8.19.59,3.19,1.84a1.58,1.58,0,0,0,.64-1.07,1,1,0,0,0-.58-.81,2.47,2.47,0,0,0-1.39-.3,8.5,8.5,0,0,0-1.86.34"/><path class="cls-1" d="M43.06,27.87l-.33-.2c-9.53-5.5-25-5.5-34.5,0l-.34.2H1.08V36c0,3.61,2.38,7.21,7.15,10,9.52,5.51,25,5.51,34.5,0,4.77-2.75,7.15-6.35,7.15-10V27.87Z"/><path class="cls-2" d="M42.73,46c4.77-2.75,7.15-6.35,7.15-10V27.87H43.06l-.33-.2c-4.76-2.75-11-4.13-17.25-4.13V50.09C31.72,50.09,38,48.72,42.73,46Z"/><ellipse class="cls-1" cx="25.48" cy="27.87" rx="24.4" ry="14.09"/><ellipse class="cls-3" cx="25.48" cy="27.87" rx="24.4" ry="14.09"/><ellipse class="cls-4" cx="25.48" cy="36" rx="24.4" ry="14.09"/><path class="cls-5" d="M49.88,36V27.87h0c0-3.6-2.38-7.21-7.15-10-9.53-5.5-25-5.5-34.5,0-4.77,2.75-7.15,6.36-7.15,10h0V36c0,3.61,2.38,7.21,7.15,10s11,4.13,17.25,4.13q1.17,0,2.34-.06a41.4,41.4,0,0,0,4.61-.52c.75-.13,1.5-.28,2.23-.45A29.63,29.63,0,0,0,42.73,46a15.06,15.06,0,0,0,6.14-6A8.7,8.7,0,0,0,49.88,36Z"/><path class="cls-2" d="M34.92,31.81l2.59,1.5-2.3,1.33-2.52-1.46a20.09,20.09,0,0,1-3.85,1.54,16.68,16.68,0,0,1-3.73.72l-1.56-2.36a19.57,19.57,0,0,0,3.13-.57,15.74,15.74,0,0,0,3-1.08l-3.87-2.24a33.06,33.06,0,0,1-3.63,1.11,11.88,11.88,0,0,1-3.32.28,7.41,7.41,0,0,1-3.26-1,3.17,3.17,0,0,1-1.9-2.72c0-1.06.78-2.17,2.35-3.3l-2.57-1.48,2.3-1.34,2.51,1.46a19,19,0,0,1,6.1-1.9L26,22.61A18.18,18.18,0,0,0,21.32,24l3.94,2.28a33.18,33.18,0,0,1,3.56-1.11,12.09,12.09,0,0,1,3.31-.27,7.16,7.16,0,0,1,3.22,1,3.08,3.08,0,0,1,1.87,2.67C37.19,29.59,36.44,30.67,34.92,31.81Zm-14.44-4.2a7.68,7.68,0,0,0,1.91-.37L19.1,25.33a1.6,1.6,0,0,0-.64,1.14,1.11,1.11,0,0,0,.65.85,2.52,2.52,0,0,0,1.37.29m8.19.59,3.19,1.85A1.59,1.59,0,0,0,32.5,29a1,1,0,0,0-.58-.81,2.47,2.47,0,0,0-1.39-.3,8.5,8.5,0,0,0-1.86.34"/><path class="cls-1" d="M43.06,19.74a3.62,3.62,0,0,0-.33-.2c-9.53-5.51-25-5.51-34.5,0-.12.06-.22.13-.34.2H1.08v8.13c0,3.61,2.38,7.21,7.15,10,9.52,5.5,25,5.5,34.5,0,4.77-2.75,7.15-6.35,7.15-10V19.74Z"/><path class="cls-2" d="M42.73,37.83c4.77-2.75,7.15-6.35,7.15-10V19.74H43.06a3.62,3.62,0,0,0-.33-.2c-4.76-2.75-11-4.13-17.25-4.13V42C31.72,42,38,40.58,42.73,37.83Z"/><ellipse class="cls-1" cx="25.48" cy="19.74" rx="24.4" ry="14.09"/><ellipse class="cls-3" cx="25.48" cy="19.74" rx="24.4" ry="14.09"/><ellipse class="cls-4" cx="25.48" cy="27.87" rx="24.4" ry="14.09"/><path class="cls-5" d="M49.88,27.87V19.74h0c0-3.61-2.38-7.21-7.15-10-9.53-5.5-25-5.5-34.5,0-4.77,2.75-7.15,6.35-7.15,10h0v8.13c0,3.61,2.38,7.21,7.15,10S19.23,42,25.48,42c.78,0,1.56,0,2.34-.07a39.15,39.15,0,0,0,4.61-.51c.75-.13,1.5-.28,2.23-.45a29.63,29.63,0,0,0,8.07-3.1,15.12,15.12,0,0,0,6.14-5.95A8.76,8.76,0,0,0,49.88,27.87Z"/><path class="cls-2" d="M34.92,23.68l2.59,1.49-2.3,1.34-2.52-1.46a21.48,21.48,0,0,1-3.85,1.54,16.68,16.68,0,0,1-3.73.72L23.55,25a19.57,19.57,0,0,0,3.13-.57,15.74,15.74,0,0,0,3-1.08l-3.87-2.24a35.12,35.12,0,0,1-3.63,1.1,11.88,11.88,0,0,1-3.32.28,7.41,7.41,0,0,1-3.26-1,3.15,3.15,0,0,1-1.9-2.72c0-1.06.78-2.16,2.35-3.29l-2.57-1.49,2.3-1.33,2.51,1.45a19.25,19.25,0,0,1,6.1-1.89L26,14.47a18.17,18.17,0,0,0-4.72,1.36l3.94,2.27A32.93,32.93,0,0,1,28.82,17a12.09,12.09,0,0,1,3.31-.27,7.27,7.27,0,0,1,3.22,1,3.09,3.09,0,0,1,1.87,2.68C37.19,21.45,36.44,22.53,34.92,23.68Zm-14.44-4.2a7.68,7.68,0,0,0,1.91-.37L19.1,17.2a1.57,1.57,0,0,0-.64,1.13,1.12,1.12,0,0,0,.65.86,2.52,2.52,0,0,0,1.37.29m8.19.59,3.19,1.84a1.58,1.58,0,0,0,.64-1.07,1,1,0,0,0-.58-.81,2.47,2.47,0,0,0-1.39-.3,8.5,8.5,0,0,0-1.86.34"/><path class="cls-1" d="M77.6,64.06l-.33-.2c-9.53-5.5-25-5.5-34.5,0l-.33.2H35.62V72.2c0,3.6,2.38,7.21,7.15,10,9.53,5.5,25,5.5,34.5,0,4.77-2.75,7.15-6.36,7.15-10V64.06Z"/><path class="cls-2" d="M77.27,82.16c4.77-2.75,7.15-6.36,7.15-10V64.06H77.6l-.33-.2c-4.76-2.75-11-4.12-17.25-4.12V86.28C66.26,86.28,72.51,84.91,77.27,82.16Z"/><ellipse class="cls-1" cx="60.02" cy="64.06" rx="24.4" ry="14.09"/><ellipse class="cls-3" cx="60.02" cy="64.06" rx="24.4" ry="14.09"/><ellipse class="cls-4" cx="60.02" cy="72.2" rx="24.4" ry="14.09"/><path class="cls-5" d="M84.42,72.2V64.06h0c0-3.6-2.38-7.21-7.15-10-9.53-5.5-25-5.5-34.5,0-4.77,2.75-7.15,6.36-7.15,10h0V72.2c0,3.6,2.38,7.21,7.15,10s11,4.12,17.25,4.12q1.17,0,2.34-.06A41.4,41.4,0,0,0,67,85.7c.75-.13,1.5-.28,2.23-.45a29.61,29.61,0,0,0,8.07-3.09,15.12,15.12,0,0,0,6.14-6A8.76,8.76,0,0,0,84.42,72.2Z"/><path class="cls-2" d="M69.46,68l2.59,1.5-2.3,1.33-2.52-1.45a20.74,20.74,0,0,1-3.85,1.53,16.68,16.68,0,0,1-3.73.72l-1.56-2.35a19.37,19.37,0,0,0,3.13-.57,15.5,15.5,0,0,0,3-1.09l-3.87-2.23a34.4,34.4,0,0,1-3.63,1.1,11.88,11.88,0,0,1-3.32.28,7.41,7.41,0,0,1-3.26-1,3.16,3.16,0,0,1-1.9-2.72c0-1.06.78-2.16,2.35-3.3L48,58.27l2.3-1.33,2.52,1.45a19.15,19.15,0,0,1,6.09-1.9l1.68,2.31a18.18,18.18,0,0,0-4.72,1.35l3.94,2.28a32.93,32.93,0,0,1,3.56-1.1,12.15,12.15,0,0,1,3.31-.27,7.27,7.27,0,0,1,3.22,1,3.08,3.08,0,0,1,1.87,2.68C71.73,65.78,71,66.86,69.46,68ZM55,63.8a7.83,7.83,0,0,0,1.92-.37l-3.3-1.9A1.57,1.57,0,0,0,53,62.66a1.11,1.11,0,0,0,.65.85A2.52,2.52,0,0,0,55,63.8m8.19.59,3.19,1.85A1.58,1.58,0,0,0,67,65.17a1,1,0,0,0-.58-.82,2.45,2.45,0,0,0-1.38-.3,8.48,8.48,0,0,0-1.87.34"/><path class="cls-1" d="M77.6,55.93l-.33-.2c-9.53-5.5-25-5.5-34.5,0l-.33.2H35.62v8.13c0,3.61,2.38,7.21,7.15,10,9.53,5.5,25,5.5,34.5,0,4.77-2.76,7.15-6.36,7.15-10V55.93Z"/><path class="cls-2" d="M77.27,74c4.77-2.76,7.15-6.36,7.15-10V55.93H77.6l-.33-.2C72.51,53,66.26,51.6,60,51.6V78.15C66.26,78.15,72.51,76.78,77.27,74Z"/><ellipse class="cls-1" cx="60.02" cy="55.93" rx="24.4" ry="14.09"/><ellipse class="cls-3" cx="60.02" cy="55.93" rx="24.4" ry="14.09"/><ellipse class="cls-4" cx="60.02" cy="64.06" rx="24.4" ry="14.09"/><path class="cls-5" d="M84.42,64.06V55.93h0c0-3.6-2.38-7.21-7.15-10-9.53-5.5-25-5.5-34.5,0-4.77,2.75-7.15,6.36-7.15,10h0v8.13c0,3.61,2.38,7.21,7.15,10s11,4.13,17.25,4.13q1.17,0,2.34-.06A41.4,41.4,0,0,0,67,77.57c.75-.13,1.5-.28,2.23-.45A29.63,29.63,0,0,0,77.27,74a15.06,15.06,0,0,0,6.14-6A8.7,8.7,0,0,0,84.42,64.06Z"/><path class="cls-2" d="M69.46,59.87l2.59,1.5-2.3,1.33-2.52-1.45a20.74,20.74,0,0,1-3.85,1.53,16.68,16.68,0,0,1-3.73.72l-1.56-2.36a19.37,19.37,0,0,0,3.13-.57,15.49,15.49,0,0,0,3-1.08l-3.87-2.24a32.42,32.42,0,0,1-3.63,1.11,11.88,11.88,0,0,1-3.32.28,7.41,7.41,0,0,1-3.26-1,3.17,3.17,0,0,1-1.9-2.72c0-1.06.78-2.17,2.35-3.3L48,50.14l2.3-1.34,2.52,1.46a18.9,18.9,0,0,1,6.09-1.9l1.68,2.31A18.18,18.18,0,0,0,55.86,52L59.8,54.3a33.18,33.18,0,0,1,3.56-1.11,12.15,12.15,0,0,1,3.31-.27,7.16,7.16,0,0,1,3.22,1,3.08,3.08,0,0,1,1.87,2.67C71.73,57.65,71,58.73,69.46,59.87ZM55,55.67a7.83,7.83,0,0,0,1.92-.37l-3.3-1.91A1.6,1.6,0,0,0,53,54.53a1.11,1.11,0,0,0,.65.85,2.52,2.52,0,0,0,1.37.29m8.19.59,3.19,1.85A1.59,1.59,0,0,0,67,57a1,1,0,0,0-.58-.81,2.45,2.45,0,0,0-1.38-.3,8.48,8.48,0,0,0-1.87.34"/><path class="cls-1" d="M112.11,92.13c-.12-.07-.22-.14-.34-.2-9.52-5.5-25-5.5-34.5,0a3.62,3.62,0,0,0-.33.2H70.12v8.13c0,3.61,2.38,7.21,7.15,10,9.53,5.5,25,5.5,34.5,0,4.77-2.75,7.15-6.35,7.15-10V92.13Z"/><path class="cls-2" d="M111.77,110.22c4.77-2.75,7.15-6.35,7.15-10V92.13h-6.81c-.12-.07-.22-.14-.34-.2-4.76-2.75-11-4.13-17.25-4.13v26.55C100.77,114.35,107,113,111.77,110.22Z"/><ellipse class="cls-1" cx="94.52" cy="92.13" rx="24.4" ry="14.09"/><ellipse class="cls-3" cx="94.52" cy="92.13" rx="24.4" ry="14.09"/><ellipse class="cls-4" cx="94.52" cy="100.26" rx="24.4" ry="14.09"/><path class="cls-5" d="M118.92,100.26V92.13h0c0-3.61-2.38-7.21-7.15-10-9.52-5.5-25-5.5-34.5,0-4.77,2.75-7.15,6.35-7.15,10h0v8.13c0,3.61,2.38,7.21,7.15,10s11,4.13,17.25,4.13q1.17,0,2.34-.06a41.14,41.14,0,0,0,4.61-.52c.75-.13,1.5-.28,2.23-.45a29.63,29.63,0,0,0,8.07-3.1,15.22,15.22,0,0,0,6.15-6A8.72,8.72,0,0,0,118.92,100.26Z"/><path class="cls-2" d="M104,96.07l2.59,1.49-2.3,1.34-2.51-1.46A20.45,20.45,0,0,1,97.88,99a16.68,16.68,0,0,1-3.73.72L92.6,97.34a19.77,19.77,0,0,0,3.13-.57,16,16,0,0,0,3-1.08l-3.88-2.24a35.29,35.29,0,0,1-3.62,1.11,11.92,11.92,0,0,1-3.33.28,7.33,7.33,0,0,1-3.26-1,3.16,3.16,0,0,1-1.9-2.71c0-1.07.79-2.17,2.35-3.3l-2.57-1.49L84.79,85l2.52,1.45a19.1,19.1,0,0,1,6.1-1.89l1.67,2.31a18.3,18.3,0,0,0-4.72,1.35l4,2.28a30.35,30.35,0,0,1,3.55-1.11,12.15,12.15,0,0,1,3.31-.27,7.23,7.23,0,0,1,3.22,1,3.1,3.1,0,0,1,1.87,2.68C106.23,93.84,105.48,94.93,104,96.07Zm-14.44-4.2a7.83,7.83,0,0,0,1.92-.37l-3.3-1.91a1.57,1.57,0,0,0-.64,1.14,1.11,1.11,0,0,0,.65.85,2.52,2.52,0,0,0,1.37.29m8.19.59,3.19,1.85a1.57,1.57,0,0,0,.64-1.08.94.94,0,0,0-.58-.81,2.45,2.45,0,0,0-1.38-.3,8.58,8.58,0,0,0-1.87.34"/><rect class="cls-4" width="120" height="120"/><rect class="cls-4" width="120" height="120"/></g></g></svg>