<svg xmlns="http://www.w3.org/2000/svg" viewBox="0 0 120 120"><defs><style>.cls-1,.cls-7{fill:#98b9ea;}.cls-1,.cls-2,.cls-6{stroke:#98b9ea;}.cls-1,.cls-2,.cls-3,.cls-6,.cls-8{stroke-linecap:round;stroke-linejoin:round;stroke-width:2px;}.cls-2,.cls-4{fill:#deeaff;}.cls-3,.cls-6,.cls-9{fill:none;}.cls-3,.cls-8{stroke:#436db5;}.cls-5{fill:#fff;}.cls-8{fill:#436db5;}</style></defs><title>market</title><g id="Layer_2" data-name="Layer 2"><g id="Industries"><path class="cls-1" d="M27.54,34.32l-7.78-4.5a.69.69,0,0,0-.73,0v0L12.2,33.7l7.91,45.75,6.82-3.94v0c1.06-.62,1.75-2,1.75-4v-35A2.67,2.67,0,0,0,27.54,34.32Z"/><path class="cls-2" d="M16.83,79.18h0c2.77,1.6,5-.1,5-3.79v-35a2.67,2.67,0,0,0-1.12-2.14l-7.79-4.5c-.62-.35-1.12,0-1.12.85v35C11.81,73.3,14.06,77.58,16.83,79.18Z"/><path class="cls-3" d="M27.54,34.32l-7.78-4.5a.69.69,0,0,0-.73,0v0L12.2,33.7v0a1,1,0,0,0-.39.89v35c0,3.7,2.25,8,5,9.58h0a3.19,3.19,0,0,0,3.28.26h0l6.82-3.94v0c1.06-.62,1.75-2,1.75-4v-35A2.67,2.67,0,0,0,27.54,34.32Z"/><path class="cls-4" d="M26.68,10h0c-2.29-1.32-5.29-1.21-8.56.68C10.87,14.85,5,26.06,5,35.71c0,5.28,1.76,9,4.54,10.58v0L32.61,59.63,49.76,23.3Z"/><path class="cls-5" d="M41.26,41.3l8.5-18L26.68,10h0c-2.29-1.32-5.29-1.21-8.56.68-3.92,2.26-7.42,6.58-9.82,11.59Z"/><path class="cls-6" d="M26.68,10h0c-2.29-1.32-5.29-1.21-8.56.68C10.87,14.85,5,26.06,5,35.71c0,5.28,1.76,9,4.54,10.58v0L32.61,59.63,49.76,23.3Z"/><path class="cls-6" d="M34.65,14.58h0c-2.3-1.32-5.29-1.21-8.57.68C18.83,19.45,13,30.66,13,40.31c0,5.28,1.76,9,4.53,10.58v0L40.58,64.23,57.73,27.9Z"/><path class="cls-2" d="M50.34,19.2h0a13.13,13.13,0,0,0-6.3,2c-9,5.2-16.31,19.15-16.31,31.16a18.86,18.86,0,0,0,2.33,9.81l0,0L50,95l36.1-76.39Z"/><path class="cls-5" d="M68.06,56.77l18-38.2-35.77.63h0a13.13,13.13,0,0,0-6.3,2c-4.93,2.84-9.33,8.3-12.32,14.63Z"/><path class="cls-6" d="M50.34,19.2h0a13.13,13.13,0,0,0-6.3,2c-9,5.2-16.31,19.15-16.31,31.16a18.86,18.86,0,0,0,2.33,9.81l0,0L50,95l36.1-76.39Z"/><path class="cls-3" d="M50.34,19.2h0a12.64,12.64,0,0,0-5.24,1.41L26.68,10h0a7.07,7.07,0,0,0-5-.72,11,11,0,0,0-1.15.31,12.83,12.83,0,0,0-2.39,1.09h0a14.8,14.8,0,0,0-1.38.9c-.14.09-.26.2-.39.3-.33.25-.66.51-1,.79-.14.11-.27.24-.4.36-.31.29-.62.58-.93.89-.12.11-.23.24-.34.36-.32.34-.64.68-.94,1l-.27.33q-.5.6-1,1.23a2.48,2.48,0,0,1-.19.26c-.33.47-.65.94-1,1.43a1.74,1.74,0,0,1-.11.18c-.33.52-.65,1.07-1,1.62l0,.09A32.58,32.58,0,0,0,5,35.71c0,5.28,1.76,9,4.54,10.58v0l8,4.6h0l10.68,6.17a15.44,15.44,0,0,0,1.88,5.05l0,0L50,95l36.1-76.39Z"/><path class="cls-2" d="M102.34,26.51l2-3.2L94.79,17.8h0C89.38,14.68,82.33,15,74.61,19.42c-17,9.84-30.85,36.23-30.85,58.94,0,12.43,4.14,21.17,10.67,24.94h0L64,108.82l1.24-3.66a27.16,27.16,0,0,0,9.4-3.48c17-9.83,30.85-36.22,30.85-58.94A38.72,38.72,0,0,0,102.34,26.51Z"/><path class="cls-7" d="M51.3,47.09c-4.69,9.93-7.54,21-7.54,31.27,0,12.43,4.14,21.17,10.67,24.94h0L64,108.82l1.24-3.66a27.16,27.16,0,0,0,9.4-3.48,42.73,42.73,0,0,0,7.31-5.4L95.57,72.65Z"/><ellipse class="cls-1" cx="84.15" cy="66.06" rx="47.36" ry="26.79" transform="translate(-9.59 117.63) rotate(-66.95)"/><path class="cls-3" d="M104.33,23.32h0L94.79,17.8h0C89.38,14.68,82.33,15,74.61,19.42,65.3,24.8,57,35.13,51.3,47.09h0a81.89,81.89,0,0,0-5.49,15.37l-.06.2c-.29,1.22-.56,2.44-.79,3.67,0,.14-.06.29-.08.43-.22,1.19-.41,2.37-.57,3.55l-.06.5c-.15,1.18-.26,2.36-.34,3.53l0,.38c-.07,1.22-.12,2.44-.12,3.64,0,12.43,4.14,21.17,10.67,24.94h0L64,108.82h0c5.41,3.12,12.46,2.84,20.18-1.62C101.19,97.36,115,71,115,48.25,115,35.83,110.86,27.09,104.33,23.32Z"/><path class="cls-6" d="M73.78,102.88c-8.87,0-14.61-8.53-14.61-21.74,0-18.84,11.47-40.78,25.55-48.92a19.9,19.9,0,0,1,9.8-3c8.88,0,14.61,8.54,14.61,21.74,0,18.84-11.46,40.79-25.55,48.92A19.76,19.76,0,0,1,73.78,102.88Z"/><path class="cls-5" d="M73.78,102.88c-8.87,0-14.61-8.53-14.61-21.74,0-18.84,11.47-40.78,25.55-48.92a19.9,19.9,0,0,1,9.8-3c8.88,0,14.61,8.54,14.61,21.74,0,18.84-11.46,40.79-25.55,48.92A19.76,19.76,0,0,1,73.78,102.88Z"/><path class="cls-4" d="M94.52,29.24a19.9,19.9,0,0,0-9.8,3C77,36.68,70.09,45.28,65.4,55.24l37.51,21.65A62.44,62.44,0,0,0,109.13,51C109.13,37.78,103.4,29.24,94.52,29.24Z"/><path class="cls-6" d="M73.78,102.88c-8.87,0-14.61-8.53-14.61-21.74,0-18.84,11.47-40.78,25.55-48.92a19.9,19.9,0,0,1,9.8-3c8.88,0,14.61,8.54,14.61,21.74,0,18.84-11.46,40.79-25.55,48.92A19.76,19.76,0,0,1,73.78,102.88Z"/><path class="cls-3" d="M73.78,102.88c-8.87,0-14.61-8.53-14.61-21.74,0-18.84,11.47-40.78,25.55-48.92a19.9,19.9,0,0,1,9.8-3c8.88,0,14.61,8.54,14.61,21.74,0,18.84-11.46,40.79-25.55,48.92A19.76,19.76,0,0,1,73.78,102.88Z"/><path class="cls-2" d="M61.3,66.3l20.08,6.77,6.38-13.53L71.24,45.17A68.62,68.62,0,0,0,61.3,66.3Z"/><path class="cls-7" d="M65.4,55.23A68.78,68.78,0,0,0,61.3,66.3l20.08,6.77,3.19-6.77Z"/><ellipse class="cls-8" cx="84.15" cy="66.06" rx="7.54" ry="4.26" transform="translate(-9.59 117.63) rotate(-66.95)"/><ellipse class="cls-7" cx="84.15" cy="66.06" rx="3.23" ry="1.83" transform="translate(-9.59 117.63) rotate(-66.95)"/><path class="cls-3" d="M87.76,59.55h0L71.24,45.17A68.62,68.62,0,0,0,61.3,66.3l20.08,6.77h0a3.41,3.41,0,0,0,2.77-.46c2.71-1.57,4.91-5.77,4.91-9.38A4.75,4.75,0,0,0,87.76,59.55Z"/><line class="cls-3" x1="24.3" y1="60.74" x2="24.3" y2="61.62"/><path class="cls-3" d="M73.78,102.88c-8.87,0-14.61-8.53-14.61-21.74,0-18.84,11.47-40.78,25.55-48.92a19.9,19.9,0,0,1,9.8-3c8.88,0,14.61,8.54,14.61,21.74,0,18.84-11.46,40.79-25.55,48.92A19.76,19.76,0,0,1,73.78,102.88Z"/><rect class="cls-9" width="120" height="120"/><rect class="cls-9" width="120" height="120"/></g></g></svg>