<svg xmlns="http://www.w3.org/2000/svg" viewBox="0 0 120 120"><defs><style>.cls-1{fill:#98b9ea;}.cls-10,.cls-2,.cls-4,.cls-5,.cls-8,.cls-9{fill:none;}.cls-2{stroke:#deeaff;}.cls-2,.cls-4,.cls-8{stroke-miterlimit:10;}.cls-2,.cls-4,.cls-5,.cls-8,.cls-9{stroke-width:2px;}.cls-3{fill:#436db5;}.cls-4,.cls-5{stroke:#436db5;}.cls-5,.cls-9{stroke-linecap:round;stroke-linejoin:round;}.cls-6{fill:#deeaff;}.cls-7{fill:#fff;}.cls-8{stroke:#fff;}.cls-9{stroke:#98b9ea;}</style></defs><title>measure</title><g id="Layer_2" data-name="Layer 2"><g id="Actions"><path class="cls-1" d="M89.78,3.82l21.83,12.69c-4.6-2.67-11-2.29-18,1.77L71.75,5.59C78.79,1.52,85.17,1.15,89.78,3.82Z"/><path class="cls-1" d="M93.59,18.28c14-8.08,25.36-1.59,25.41,14.48S107.74,68.4,93.75,76.48,68.39,78.07,68.34,62,79.6,26.36,93.59,18.28Z"/><path class="cls-2" d="M82.39,78c-7.4,0-12-6.11-12-16,0-15.41,10.84-34.24,24.25-42A21.3,21.3,0,0,1,105,16.8c7.41,0,12,6.12,12,16,0,15.4-10.83,34.23-24.25,42A21.36,21.36,0,0,1,82.39,78Z"/><path class="cls-2" d="M89.8,57.86c-2.54,0-4.12-2.09-4.13-5.47,0-5.28,3.72-11.74,8.32-14.4a7.27,7.27,0,0,1,3.55-1.1c2.54,0,4.12,2.1,4.13,5.48,0,5.28-3.71,11.74-8.31,14.39A7.34,7.34,0,0,1,89.8,57.86Z"/><path class="cls-3" d="M92,52c-1.11,0-1.8-.92-1.81-2.4a8.05,8.05,0,0,1,3.64-6.3,3.22,3.22,0,0,1,1.55-.48c1.12,0,1.81.92,1.81,2.4a8,8,0,0,1-3.64,6.29A3.14,3.14,0,0,1,92,52Z"/><path class="cls-3" d="M75.73,78.24,53.89,65.55c-4.54-2.64-7.36-8.25-7.38-16.23,0-16.08,11.25-35.65,25.24-43.73L93.59,18.28C79.6,26.36,68.3,45.93,68.34,62,68.37,70,71.19,75.6,75.73,78.24Z"/><path class="cls-4" d="M93.59,18.28c14-8.08,25.36-1.59,25.41,14.48S107.74,68.4,93.75,76.48,68.39,78.07,68.34,62,79.6,26.36,93.59,18.28Z"/><path class="cls-5" d="M111.57,16.49l0,0L89.78,3.82c-4.61-2.67-11-2.3-18,1.77-14,8.08-25.29,27.65-25.24,43.73,0,8,2.84,13.59,7.38,16.23L75.73,78.24c-.13-.07-.26-.16-.39-.24,4.64,2.93,11.17,2.66,18.41-1.52,14-8.08,25.3-27.65,25.25-43.72C119,24.75,116.14,19.12,111.57,16.49Z"/><path class="cls-6" d="M93.59,18.28,71.75,5.59c-13.93,8-25.19,27.49-25.24,43.52h0V69.85a15,15,0,0,1-7.51,13L2,104.16a2,2,0,0,0,0,3.47l16.84,9.72a4,4,0,0,0,4,0l32-18.44A27,27,0,0,0,68.35,75.52c0-5.15,0-10.36,0-13.51C68.3,45.93,79.6,26.36,93.59,18.28Z"/><path class="cls-7" d="M45.78,74.44A15,15,0,0,1,39,82.85L2,104.16a2,2,0,0,0,0,3.47l16.84,9.72a4,4,0,0,0,4,0l32-18.44A26.89,26.89,0,0,0,66.14,86.19Z"/><path class="cls-8" d="M20.84,115.89a2.05,2.05,0,0,1-1-.27L3,105.9,40,84.58a17,17,0,0,0,8.52-14.73V49.12c.05-15,10.39-33.18,23.26-41.21l18,10.45C76.57,27.61,66.3,46.43,66.34,62c0,3.15,0,8.36,0,13.51A25.05,25.05,0,0,1,53.83,97.18l-32,18.44a2,2,0,0,1-1,.27Z"/><path class="cls-7" d="M89.78,3.82c-4.61-2.67-11-2.3-18,1.77-6.89,4-13.12,10.74-17.67,18.51L76,36.72C80.5,29,86.72,22.25,93.59,18.28c7-4.06,13.42-4.44,18-1.77Z"/><path class="cls-2" d="M20.84,115.89a2.05,2.05,0,0,1-1-.27L3,105.9,40,84.58a17,17,0,0,0,8.52-14.73V49.12c0-9.71,4.56-21.46,11.84-30.68l0,0c.33-.42.66-.83,1-1.23s.7-.83,1-1.2l.07-.08q.49-.56,1-1.08l.14-.14c.31-.33.63-.66.95-1l.19-.18.92-.89.26-.23.88-.79.32-.27.83-.7.6-.47.57-.44,1.19-.86,1.2-.8,1-.61.15-.09A21.39,21.39,0,0,1,83.12,4.11a11.12,11.12,0,0,1,5.65,1.44l13,7.53a27.6,27.6,0,0,0-9.14,3.47l-.1.05c-.41.25-.84.5-1.26.77l-.73.48-.61.41-.49.36-.83.59L88,19.7l-.66.51-.81.69-.45.37c-.31.27-.6.54-.9.82l-.33.29-1,.92-.25.24c-.34.33-.67.67-1,1l-.18.19-1,1.1-.14.15c-.34.38-.68.78-1,1.18l-.08.09c-.35.42-.7.84-1,1.27l-.07.08c-.33.41-.67.86-1,1.31a65.22,65.22,0,0,0-3.84,5.79c-5.11,8.69-7.91,18-7.89,26.3,0,3.15,0,8.36,0,13.51A25.06,25.06,0,0,1,53.84,97.18l-32,18.44A2,2,0,0,1,20.84,115.89Z"/><line class="cls-9" x1="21.5" y1="106.35" x2="9.87" y2="99.63"/><line class="cls-9" x1="32.55" y1="99.99" x2="20.91" y2="93.27"/><line class="cls-9" x1="43.56" y1="93.64" x2="31.92" y2="86.92"/><line class="cls-9" x1="52.77" y1="85.95" x2="42.52" y2="80.03"/><line class="cls-9" x1="57.62" y1="75.75" x2="46.51" y2="69.33"/><line class="cls-9" x1="58.35" y1="63.16" x2="46.51" y2="56.33"/><line class="cls-9" x1="58.76" y1="50.39" x2="46.94" y2="43.57"/><line class="cls-9" x1="62.15" y1="38.35" x2="50.36" y2="31.54"/><line class="cls-9" x1="69.37" y1="25.51" x2="57.62" y2="18.73"/><line class="cls-9" x1="79.09" y1="15.27" x2="67.41" y2="8.53"/><line class="cls-9" x1="90.09" y1="9.49" x2="78.43" y2="2.76"/><path class="cls-5" d="M89.78,3.82c-4.61-2.67-11-2.3-18,1.77-13.93,8-25.19,27.49-25.24,43.52h0V69.85a15,15,0,0,1-7.51,13L2,104.16a2,2,0,0,0,0,3.47l16.84,9.72a4,4,0,0,0,4,0l32-18.44A27,27,0,0,0,68.35,75.52c0-5.15,0-10.36,0-13.51,0-16.08,11.26-35.65,25.25-43.73,7-4.06,13.42-4.44,18-1.77Z"/><rect class="cls-10" width="120" height="120"/><rect class="cls-10" width="120" height="120"/></g></g></svg>