<svg xmlns="http://www.w3.org/2000/svg" viewBox="0 0 120 120"><defs><style>.cls-1,.cls-10,.cls-11,.cls-12,.cls-13,.cls-2,.cls-3{fill:none;}.cls-1,.cls-10,.cls-11{stroke:#436db5;}.cls-1,.cls-10,.cls-11,.cls-12,.cls-2,.cls-3,.cls-5,.cls-6,.cls-7,.cls-8,.cls-9{stroke-linecap:round;stroke-linejoin:round;stroke-width:2px;}.cls-1,.cls-12{stroke-dasharray:0 6;}.cls-12,.cls-2,.cls-3{stroke:#a7b23b;}.cls-3{stroke-dasharray:0 5.85;}.cls-4{fill:#dfeab0;}.cls-5{fill:#c4d36c;}.cls-5,.cls-6{stroke:#c4d36c;}.cls-6,.cls-8{fill:#fff;}.cls-7{fill:#deeaff;}.cls-7,.cls-8,.cls-9{stroke:#98b9ea;}.cls-9{fill:#98b9ea;}.cls-11{stroke-dasharray:0 6.33;}</style></defs><title>micro-segmentation-2</title><g id="Layer_2" data-name="Layer 2"><g id="Tech_Concepts" data-name="Tech Concepts"><line class="cls-1" x1="27.95" y1="84.84" x2="47.67" y2="73.45"/><line class="cls-2" x1="106.84" y1="26.62" x2="106.84" y2="26.62"/><line class="cls-3" x1="106.84" y1="32.48" x2="106.84" y2="70.53"/><line class="cls-2" x1="106.84" y1="73.45" x2="106.84" y2="73.45"/><polygon class="cls-4" points="92.05 81.99 77.26 90.53 62.46 81.99 62.46 64.91 77.26 56.37 92.05 64.91 92.05 81.99"/><polygon class="cls-5" points="77.26 73.45 77.26 90.53 92.05 81.99 92.05 64.91 77.26 73.45"/><polygon class="cls-6" points="92.05 64.91 77.26 73.45 62.46 64.91 62.46 64.91 77.26 56.37 92.05 64.91 92.05 64.91"/><polygon class="cls-2" points="77.26 56.37 62.46 64.91 62.46 81.99 77.26 90.53 92.05 81.99 92.05 64.91 77.26 56.37"/><polygon class="cls-4" points="42.74 110.46 27.95 119 13.16 110.46 13.16 93.38 27.95 84.84 42.74 93.38 42.74 110.46"/><polygon class="cls-5" points="27.95 101.92 27.95 119 42.74 110.46 42.74 93.38 27.95 101.92"/><polygon class="cls-6" points="42.74 93.38 27.95 101.92 13.16 93.38 13.16 93.38 27.95 84.84 42.74 93.38 42.74 93.38"/><polygon class="cls-2" points="27.95 84.84 13.16 93.38 13.16 110.46 27.95 119 42.74 110.46 42.74 93.38 27.95 84.84"/><polygon class="cls-4" points="106.84 90.53 92.05 99.08 77.26 90.53 77.26 73.45 92.05 64.91 106.84 73.45 106.84 90.53"/><polygon class="cls-5" points="92.05 81.99 92.05 99.08 106.84 90.53 106.84 73.45 92.05 81.99"/><polygon class="cls-6" points="106.84 73.45 92.05 81.99 77.26 73.45 77.26 73.45 92.05 64.91 106.84 73.45 106.84 73.45"/><polygon class="cls-2" points="92.05 64.91 77.25 73.45 77.25 90.53 92.05 99.08 106.84 90.53 106.84 73.45 92.05 64.91"/><polygon class="cls-4" points="92.05 99.08 77.25 107.62 62.46 99.08 62.46 81.99 77.25 73.45 92.05 81.99 92.05 99.08"/><polygon class="cls-5" points="77.25 90.53 77.25 107.62 92.05 99.08 92.05 81.99 77.25 90.53"/><polygon class="cls-6" points="92.05 81.99 77.25 90.53 62.46 81.99 62.46 81.99 77.25 73.45 92.05 81.99 92.05 81.99"/><polygon class="cls-2" points="77.25 73.45 62.46 81.99 62.46 99.08 77.25 107.62 92.05 99.08 92.05 81.99 77.25 73.45"/><polygon class="cls-7" points="92.05 64.91 77.26 73.45 62.46 64.91 62.46 47.83 77.26 39.29 92.05 47.83 92.05 64.91"/><polygon class="cls-8" points="92.05 47.83 77.26 56.37 62.46 47.83 62.46 47.83 77.26 39.29 92.05 47.83 92.05 47.83"/><polygon class="cls-9" points="77.26 56.37 77.26 73.45 92.05 64.91 92.05 47.83 77.26 56.37"/><polygon class="cls-10" points="77.26 39.29 62.46 47.83 62.46 64.91 77.26 73.45 92.05 64.91 92.05 47.83 77.26 39.29"/><polygon class="cls-7" points="106.84 26.62 92.05 35.16 77.26 26.62 77.26 9.54 92.05 1 106.84 9.54 106.84 26.62"/><polygon class="cls-8" points="106.84 9.54 92.05 18.08 77.26 9.54 77.26 9.54 92.05 1 106.84 9.54 106.84 9.54"/><polygon class="cls-9" points="92.05 18.08 92.05 35.16 106.84 26.62 106.84 9.54 92.05 18.08"/><polygon class="cls-10" points="92.05 1 77.26 9.54 77.26 26.62 92.05 35.16 106.84 26.62 106.84 9.54 92.05 1"/><polygon class="cls-7" points="77.25 73.45 62.46 81.99 47.67 73.45 47.67 56.37 62.46 47.83 77.25 56.37 77.25 73.45"/><polygon class="cls-8" points="77.25 56.37 62.46 64.91 47.67 56.37 47.67 56.37 62.46 47.83 77.25 56.37 77.25 56.37"/><polygon class="cls-9" points="62.46 64.91 62.46 81.99 77.25 73.45 77.25 56.37 62.46 64.91"/><polygon class="cls-10" points="62.46 47.83 47.67 56.37 47.67 73.45 62.46 81.99 77.26 73.45 77.26 56.37 62.46 47.83"/><polygon class="cls-7" points="92.05 81.99 77.26 90.53 62.46 81.99 62.46 64.91 77.26 56.37 92.05 64.91 92.05 81.99"/><polygon class="cls-8" points="92.05 64.91 77.26 73.45 62.46 64.91 62.46 64.91 77.26 56.37 92.05 64.91 92.05 64.91"/><polygon class="cls-9" points="77.26 73.45 77.26 90.53 92.05 81.99 92.05 64.91 77.26 73.45"/><polygon class="cls-10" points="77.26 56.37 62.46 64.91 62.46 81.99 77.26 90.53 92.05 81.99 92.05 64.91 77.26 56.37"/><line class="cls-10" x1="77.26" y1="26.62" x2="77.26" y2="26.62"/><line class="cls-11" x1="77.26" y1="32.96" x2="77.26" y2="36.12"/><line class="cls-10" x1="77.26" y1="39.29" x2="77.26" y2="39.29"/><line class="cls-12" x1="42.74" y1="110.46" x2="62.46" y2="99.07"/><rect class="cls-13" width="120" height="120"/><rect class="cls-13" width="120" height="120"/></g></g></svg>