<svg xmlns="http://www.w3.org/2000/svg" viewBox="0 0 120 120"><defs><style>.cls-1,.cls-4{fill:#dfeab0;}.cls-2{fill:#fff;}.cls-10,.cls-3{fill:#c4d36c;}.cls-11,.cls-3,.cls-4,.cls-6,.cls-7{stroke:#fff;}.cls-11,.cls-3,.cls-4,.cls-5,.cls-6,.cls-7,.cls-8{stroke-linecap:round;stroke-linejoin:round;stroke-width:2px;}.cls-11,.cls-14,.cls-5,.cls-8{fill:none;}.cls-5{stroke:#a7b23b;}.cls-13,.cls-6{fill:#98b9ea;}.cls-12,.cls-7{fill:#deeaff;}.cls-8{stroke:#436db5;}.cls-9{isolation:isolate;}</style></defs><title>multi-hypervisor</title><g id="Layer_2" data-name="Layer 2"><g id="Tech_Concepts" data-name="Tech Concepts"><path class="cls-1" d="M51.82,32.63h0l-11-6.38c-2.42-1.41-5.78-1.21-9.48.93-7.35,4.24-13.3,14.54-13.28,23,0,4.19,1.5,7.15,3.89,8.54l11,6.38c-.16-.09-.29-.2-.44-.3,2.45,1.71,6,1.64,9.91-.62,7.36-4.25,13.3-14.55,13.28-23C55.72,37,54.23,34,51.82,32.63Z"/><path class="cls-2" d="M51.82,32.63h0l-11-6.38c-2.42-1.41-5.78-1.21-9.48.93a27.51,27.51,0,0,0-9.77,10.59L51.41,55a27.4,27.4,0,0,0,4.32-13.8C55.72,37,54.23,34,51.82,32.63Z"/><polygon class="cls-3" points="101.68 59.85 101.75 81.41 82.98 92.25 82.92 70.68 101.68 59.85"/><polygon class="cls-4" points="82.98 92.25 64.18 81.33 64.12 59.76 82.92 70.68 82.98 92.25"/><polygon class="cls-4" points="82.92 70.68 64.12 59.76 82.89 48.92 101.68 59.85 82.92 70.68"/><polygon class="cls-5" points="101.68 59.85 82.89 48.92 64.12 59.76 64.18 81.33 82.98 92.25 101.75 81.41 101.68 59.85"/><polygon class="cls-6" points="55.67 86.6 55.73 108.16 36.96 119 36.9 97.43 55.67 86.6"/><polygon class="cls-7" points="36.96 119 18.16 108.08 18.1 86.51 36.9 97.43 36.96 119"/><polygon class="cls-7" points="36.9 97.43 18.1 86.51 36.87 75.67 55.67 86.6 36.9 97.43"/><polygon class="cls-8" points="55.67 86.6 36.87 75.67 18.1 86.51 18.16 108.08 36.96 119 55.73 108.16 55.67 86.6"/><g class="cls-9"><ellipse class="cls-10" cx="42.41" cy="48.88" rx="18.78" ry="10.88" transform="translate(-21.16 60.99) rotate(-59.84)"/></g><g class="cls-9"><ellipse class="cls-11" cx="42.41" cy="48.88" rx="18.78" ry="10.88" transform="translate(-21.16 60.99) rotate(-59.84)"/></g><path class="cls-5" d="M51.82,32.63h0l-11-6.38c-2.42-1.41-5.78-1.21-9.48.93-7.35,4.24-13.3,14.54-13.28,23,0,4.19,1.5,7.15,3.89,8.54l11,6.38c-.16-.09-.29-.2-.44-.3,2.45,1.71,6,1.64,9.91-.62,7.36-4.25,13.3-14.55,13.28-23C55.72,37,54.23,34,51.82,32.63Z"/><polygon class="cls-12" points="82.87 39.05 82.87 39.05 82.87 1 63.85 28.06 82.87 39.05"/><polygon class="cls-13" points="82.87 39.05 82.87 39.05 82.87 1 101.9 28.06 82.87 39.05"/><polygon class="cls-11" points="82.87 39.05 82.87 39.05 82.87 1 101.9 28.06 82.87 39.05"/><polygon class="cls-8" points="82.87 1 63.85 28.06 82.87 39.05 82.87 39.05 82.87 39.05 101.9 28.06 82.87 1"/><rect class="cls-14" width="120" height="120"/><rect class="cls-14" width="120" height="120"/></g></g></svg>