<svg xmlns="http://www.w3.org/2000/svg" viewBox="0 0 120 120"><defs><style>.cls-1,.cls-7{fill:#fff;}.cls-1,.cls-4,.cls-7,.cls-8{stroke:#98b9ea;}.cls-1,.cls-4,.cls-5,.cls-6,.cls-7,.cls-8{stroke-linecap:round;stroke-linejoin:round;}.cls-1,.cls-4,.cls-5,.cls-6{stroke-width:2px;}.cls-2{fill:#98b9ea;}.cls-3{fill:#deeaff;}.cls-4,.cls-5,.cls-6,.cls-8,.cls-9{fill:none;}.cls-5{stroke:#fff;}.cls-6{stroke:#436db5;}.cls-7{stroke-width:3px;}</style></defs><title>ncvm</title><g id="Layer_2" data-name="Layer 2"><g id="Tech_Concepts" data-name="Tech Concepts"><path class="cls-1" d="M97.67,9.6,89.83,5.07h0a.72.72,0,0,0-.74,0l-66,38.11a2.74,2.74,0,0,0-1.14,2.18v64.05a1,1,0,0,0,.4.92h0l7.84,4.53,6.6-12.49L89.08,67.08a2.74,2.74,0,0,0,1.14-2.18V19.54Z"/><path class="cls-2" d="M29.78,114.7V39.37l-6.71,3.87a2.74,2.74,0,0,0-1.14,2.18v64.05a1,1,0,0,0,.4.92h0Z"/><path class="cls-3" d="M68.47,72.29,90.22,41.93V19.54L97.67,9.6,89.83,5.07h0a.72.72,0,0,0-.74,0l-66,38.11a2.74,2.74,0,0,0-1.14,2.18h0Z"/><path class="cls-1" d="M96.93,76.75l-66,38.11c-.63.37-1.14,0-1.14-.86V50a2.74,2.74,0,0,1,1.14-2.18l66-38.11c.63-.36,1.14,0,1.14.87v64A2.73,2.73,0,0,1,96.93,76.75Z"/><path class="cls-3" d="M30.92,114.86l66-38.11a2.73,2.73,0,0,0,1.14-2.18V43.21L29.78,82.63V114C29.78,114.84,30.29,115.23,30.92,114.86Z"/><path class="cls-4" d="M96.93,76.75l-66,38.11c-.63.37-1.14,0-1.14-.86V50a2.74,2.74,0,0,1,1.14-2.18l66-38.11c.63-.36,1.14,0,1.14.87v64A2.73,2.73,0,0,1,96.93,76.75Z"/><path class="cls-5" d="M31.78,50a.91.91,0,0,1,.21-.49l64.08-37v62.1a.91.91,0,0,1-.21.5l-64.08,37Z"/><path class="cls-6" d="M97.67,9.61h0L89.83,5.07h0a.72.72,0,0,0-.74,0l-66,38.11a2.74,2.74,0,0,0-1.14,2.18v64.05a1,1,0,0,0,.4.92h0l7.84,4.53h0a.72.72,0,0,0,.74-.06l66-38.11a2.73,2.73,0,0,0,1.14-2.18v-64A1,1,0,0,0,97.67,9.61Z"/><line class="cls-7" x1="39.32" y1="95.07" x2="88.32" y2="66.78"/><line class="cls-7" x1="39.32" y1="59.07" x2="88.32" y2="30.78"/><path class="cls-2" d="M51.73,62.21a.59.59,0,0,1,1,.55l0,13.23a2.58,2.58,0,0,1-1.2,2,.77.77,0,0,1-1,0l-7.17-7.1,0,10.67a2.15,2.15,0,0,1-1,1.71c-.54.31-1,.06-1-.56l0-13.11a2.79,2.79,0,0,1,1.27-2.16.89.89,0,0,1,1.08,0l7,6.89,0-10.43A2.17,2.17,0,0,1,51.73,62.21Z"/><path class="cls-2" d="M65.4,54.07C67.48,52.87,69,53,70,53.71a.7.7,0,0,1,.24.58,2,2,0,0,1-.94,1.62c-.24.14-.53.19-.68,0a3,3,0,0,0-3.2.17,10.59,10.59,0,0,0-4.87,8.74c0,3.44,2.09,4.73,4.91,3.11a9.06,9.06,0,0,0,3.18-3.51,1.91,1.91,0,0,1,.7-.76c.52-.3.93,0,.93.52A1.76,1.76,0,0,1,70,65,12.43,12.43,0,0,1,65.44,70c-3.89,2.25-7,.81-7-3.93A14.67,14.67,0,0,1,65.4,54.07Z"/><path class="cls-2" d="M85.87,42.49c.62-.35,1.06,0,1.06.61l-.05.45-4.4,15.37A3.81,3.81,0,0,1,80.92,61l-.11.06c-.68.39-1.32.28-1.57-.3L74.78,50.54l-.07-.39a2.4,2.4,0,0,1,1.08-1.83c.39-.23.79-.19,1,.2l4.1,9.92,4.06-14.63A2.24,2.24,0,0,1,85.87,42.49Z"/><path class="cls-8" d="M51.73,62.21a.59.59,0,0,1,1,.55l0,13.23a2.58,2.58,0,0,1-1.2,2,.77.77,0,0,1-1,0l-7.17-7.1,0,10.67a2.15,2.15,0,0,1-1,1.71c-.54.31-1,.06-1-.56l0-13.11a2.79,2.79,0,0,1,1.27-2.16.89.89,0,0,1,1.08,0l7,6.89,0-10.43A2.17,2.17,0,0,1,51.73,62.21Z"/><path class="cls-8" d="M65.4,54.07C67.48,52.87,69,53,70,53.71a.7.7,0,0,1,.24.58,2,2,0,0,1-.94,1.62c-.24.14-.53.19-.68,0a3,3,0,0,0-3.2.17,10.59,10.59,0,0,0-4.87,8.74c0,3.44,2.09,4.73,4.91,3.11a9.06,9.06,0,0,0,3.18-3.51,1.91,1.91,0,0,1,.7-.76c.52-.3.93,0,.93.52A1.76,1.76,0,0,1,70,65,12.43,12.43,0,0,1,65.44,70c-3.89,2.25-7,.81-7-3.93A14.67,14.67,0,0,1,65.4,54.07Z"/><path class="cls-8" d="M85.87,42.49c.62-.35,1.06,0,1.06.61l-.05.45-4.4,15.37A3.81,3.81,0,0,1,80.92,61l-.11.06c-.68.39-1.32.28-1.57-.3L74.78,50.54l-.07-.39a2.4,2.4,0,0,1,1.08-1.83c.39-.23.79-.19,1,.2l4.1,9.92,4.06-14.63A2.24,2.24,0,0,1,85.87,42.49Z"/><rect class="cls-9" width="120" height="120"/><rect class="cls-9" width="120" height="120"/></g></g></svg>