<svg xmlns="http://www.w3.org/2000/svg" viewBox="0 0 120 120"><defs><style>.cls-1{fill:#dfeab0;}.cls-1,.cls-2,.cls-3{stroke:#c4d36c;}.cls-1,.cls-11,.cls-12,.cls-13,.cls-15,.cls-16,.cls-2,.cls-3,.cls-4,.cls-5,.cls-7,.cls-8,.cls-9{stroke-linecap:round;stroke-linejoin:round;}.cls-1,.cls-11,.cls-12,.cls-2,.cls-3,.cls-4,.cls-5,.cls-7,.cls-8,.cls-9{stroke-width:2px;}.cls-2,.cls-6,.cls-9{fill:#fff;}.cls-3{fill:#c4d36c;}.cls-11,.cls-12,.cls-15,.cls-17,.cls-4,.cls-7{fill:none;}.cls-4{stroke:#a7b23b;}.cls-10,.cls-13,.cls-5{fill:#deeaff;}.cls-5,.cls-7,.cls-8{stroke:#98b9ea;}.cls-14,.cls-8{fill:#98b9ea;}.cls-12,.cls-13,.cls-9{stroke:#deeaff;}.cls-11,.cls-15,.cls-16{stroke:#436db5;}.cls-15{stroke-width:4px;}.cls-16{fill:#436db5;stroke-width:3px;}</style></defs><title>oil-services-&amp;amp;-equipment</title><g id="Layer_2" data-name="Layer 2"><g id="Industries"><polygon class="cls-1" points="20.55 101.12 68.47 72.44 99.44 91.34 51.53 119 20.55 101.12"/><polygon class="cls-2" points="20.55 93.89 68.47 66.23 99.44 84.11 51.53 111.78 20.55 93.89"/><polygon class="cls-3" points="99.44 84.11 99.44 91.34 51.53 119 51.53 111.78 99.44 84.11"/><polygon class="cls-1" points="20.55 93.89 20.55 101.12 51.53 119 51.53 111.78 20.55 93.89"/><polygon class="cls-4" points="68.47 66.23 20.55 93.89 20.55 101.12 51.53 119 99.44 91.34 99.44 84.11 68.47 66.23"/><path class="cls-5" d="M68.47,57.88l16.6-45.8L66.52,1.37h0a3.6,3.6,0,0,0-3.68.29l-24.23,14C35.51,17.45,33,22.27,33,26.41V93.89L51.53,104.6l9.82-27.08,7.12-4.11Z"/><polygon class="cls-6" points="32.99 86.57 32.99 93.89 51.53 104.6 51.53 97.28 32.99 86.57"/><path class="cls-6" d="M66.52,1.38a3.6,3.6,0,0,0-3.68.29l-24.23,14a11.81,11.81,0,0,0-4.47,5.55L73.52,43.94,85.07,12.08,66.52,1.37Z"/><path class="cls-7" d="M68.47,57.88l16.6-45.8L66.52,1.37h0a3.6,3.6,0,0,0-3.68.29l-24.23,14C35.51,17.45,33,22.27,33,26.41V93.89L51.53,104.6l9.82-27.08,7.12-4.11Z"/><path class="cls-8" d="M87,84.11,51.53,104.6V37.12c0-4.15,2.52-9,5.63-10.75l24.23-14c3.1-1.8,5.62.11,5.62,4.25Z"/><path class="cls-9" d="M78.18,42.77,60.36,53.05c-1.55.9-2.81,0-2.81-2.12V37.71a6.76,6.76,0,0,1,2.81-5.38L78.18,22c1.56-.89,2.82.06,2.82,2.13V37.39A6.74,6.74,0,0,1,78.18,42.77Z"/><polygon class="cls-10" points="87.01 76.79 51.53 97.28 51.53 104.6 87.01 84.11 87.01 76.79"/><path class="cls-7" d="M87,84.11,51.53,104.6V37.12c0-4.15,2.52-9,5.63-10.75l24.23-14c3.1-1.8,5.62.11,5.62,4.25Z"/><path class="cls-11" d="M85.07,12.09h0L66.52,1.37h0a2.64,2.64,0,0,0-.38-.18,3.24,3.24,0,0,0-.41-.13A3.25,3.25,0,0,0,64.84,1a4.1,4.1,0,0,0-1.17.27,5.61,5.61,0,0,0-.83.39l-24.23,14a7.49,7.49,0,0,0-.63.41l-.18.15-.44.35-.19.18c-.14.13-.28.27-.41.41l-.17.17c-.15.17-.3.34-.44.52l-.1.12A14.36,14.36,0,0,0,33,26.41V93.89L51.53,104.6,87,84.11V16.63C87,14.37,86.26,12.78,85.07,12.09Z"/><line class="cls-12" x1="64.61" y1="60.96" x2="73.93" y2="55.58"/><ellipse class="cls-6" cx="69.27" cy="73.59" rx="9.54" ry="5.4" transform="translate(-25.57 108.52) rotate(-66.95)"/><path class="cls-10" d="M69.27,65.3c-3.43,2-6.21,7.3-6.21,11.88a7.39,7.39,0,0,0,.76,3.53A5.18,5.18,0,0,0,66,80c3.43-2,6.22-7.3,6.22-11.88a7.51,7.51,0,0,0-.76-3.53A5.22,5.22,0,0,0,69.27,65.3Z"/><polygon class="cls-13" points="74.97 39.15 63.57 45.73 63.57 35.95 74.97 29.37 74.97 39.15"/><ellipse class="cls-14" cx="41.54" cy="83.66" rx="1.86" ry="3.28" transform="translate(-29.44 22.94) rotate(-23.05)"/><ellipse class="cls-14" cx="41.54" cy="44.9" rx="4.05" ry="7.16" transform="translate(-14.26 19.85) rotate(-23.05)"/><line class="cls-15" x1="37.24" y1="55.18" x2="37.24" y2="49.52"/><path class="cls-11" d="M41.54,83.66l-1.28.74a2,2,0,0,1-3-1.74V55.18"/><path class="cls-16" d="M43.62,46.1a5,5,0,0,0-2.08-4,1.31,1.31,0,0,0-1.39-.08h0l-6,3.79h0a2.89,2.89,0,0,0,2.88,5h0l5.85-3.07h0A1.79,1.79,0,0,0,43.62,46.1Z"/><line class="cls-5" x1="40.15" y1="43.71" x2="36.04" y2="46.29"/><polygon class="cls-8" points="60.8 10.55 66 13.56 59.2 17.48 54 14.48 60.8 10.55"/><rect class="cls-17" width="120" height="120"/><rect class="cls-17" width="120" height="120"/></g></g></svg>