<svg xmlns="http://www.w3.org/2000/svg" viewBox="0 0 120 120"><defs><style>.cls-1,.cls-11{fill:#98b9ea;}.cls-13,.cls-2,.cls-7{fill:none;}.cls-2{stroke:#436db5;}.cls-11,.cls-12,.cls-2,.cls-4,.cls-7,.cls-8{stroke-linecap:round;stroke-linejoin:round;stroke-width:2px;}.cls-12,.cls-3{fill:#deeaff;}.cls-4,.cls-5,.cls-8{fill:#fff;}.cls-4{stroke:#98b9ea;}.cls-6{fill:#436db5;}.cls-10,.cls-7,.cls-8{stroke:#c4d36c;}.cls-10,.cls-9{fill:#c4d36c;}.cls-10{stroke-miterlimit:10;stroke-width:0.5px;}.cls-11,.cls-12{stroke:#fff;}</style></defs><title>one-click-planning</title><g id="Layer_2" data-name="Layer 2"><g id="Tech_Concepts" data-name="Tech Concepts"><path class="cls-1" d="M70.29,5.08,63.63,1.24v0a2.37,2.37,0,0,0-2.45.18l-38,21.93c-2.08,1.2-3.76,4.42-3.76,7.19v70.79a3.29,3.29,0,0,0,1.31,3v0l6.66,3.85,2.55-7.94,31.24-18c2.08-1.2,3.76-4.42,3.76-7.19V16.46Z"/><path class="cls-1" d="M39.23,29.1l-.68-9.47a8.67,8.67,0,0,0-3.62-6.44h0c-1.86-1.08-3.42-.09-3.61,2.27l-.68,8.68"/><path class="cls-2" d="M39.23,29.1l-.68-9.47a8.67,8.67,0,0,0-3.62-6.44h0c-1.86-1.08-3.42-.09-3.61,2.27l-.68,8.68"/><path class="cls-3" d="M63.62,1.26a2.37,2.37,0,0,0-2.45.18l-38,21.93a7.36,7.36,0,0,0-2.57,2.86L64.93,51.82V16.46L70.29,5.08,63.63,1.24Z"/><path class="cls-4" d="M67.83,86.1,29.84,108c-2.08,1.2-3.76-.08-3.76-2.85V34.4c0-2.77,1.68-6,3.76-7.18l38-21.94c2.08-1.2,3.76.08,3.76,2.85V78.92C71.59,81.69,69.91,84.9,67.83,86.1Z"/><path class="cls-2" d="M70.28,5.11v0L63.63,1.24v0a2.37,2.37,0,0,0-2.45.18l-38,21.93a5.07,5.07,0,0,0-.74.53,5.17,5.17,0,0,0-.53.52l-.14.14a8.41,8.41,0,0,0-1.16,1.67h0a9.3,9.3,0,0,0-1.19,4.33v70.79a3.29,3.29,0,0,0,1.31,3v0l6.66,3.85v0a2.39,2.39,0,0,0,2.45-.17l38-21.94c2.08-1.2,3.76-4.41,3.76-7.18V8.13A3.28,3.28,0,0,0,70.28,5.11Z"/><path class="cls-3" d="M57.83,8.5a8.65,8.65,0,0,0-3.61-6.45,2.36,2.36,0,0,0-2.38-.19h0L32.56,13h0a2.31,2.31,0,0,1,2.37.18,8.67,8.67,0,0,1,3.62,6.44l.68,9.48L58.52,18Z"/><path class="cls-5" d="M34.93,13.19a7.8,7.8,0,0,1,3,3.78L57.19,5.83a7.8,7.8,0,0,0-3-3.78,2.36,2.36,0,0,0-2.38-.19h0L32.56,13h0A2.31,2.31,0,0,1,34.93,13.19Z"/><path class="cls-2" d="M57.83,8.5a8.65,8.65,0,0,0-3.61-6.45,2.36,2.36,0,0,0-2.38-.19h0L32.56,13h0l0,0a2.3,2.3,0,0,1,2.4.17,8.67,8.67,0,0,1,3.62,6.44l.68,9.48L58.52,18Z"/><path class="cls-5" d="M44.58,7.62l3.21-1.85A7.82,7.82,0,0,0,48,4.13c0-2.51-1.53-3.67-3.41-2.58a8.16,8.16,0,0,0-3.41,6.52,5,5,0,0,0,.19,1.41Z"/><ellipse class="cls-6" cx="44.58" cy="6.1" rx="1.59" ry="0.9" transform="translate(21.51 44.73) rotate(-66.95)"/><path class="cls-2" d="M47.79,5.77A7.82,7.82,0,0,0,48,4.13c0-2.51-1.53-3.67-3.41-2.58a8.16,8.16,0,0,0-3.41,6.52,5,5,0,0,0,.19,1.41"/><path class="cls-7" d="M38.19,86.84V71.92a6.88,6.88,0,0,1,3.44-6l17.12-9.88a6.88,6.88,0,0,0,3.44-6V29.9"/><ellipse class="cls-8" cx="38.19" cy="85.58" rx="5.12" ry="2.89" transform="translate(-55.51 87.21) rotate(-66.95)"/><path class="cls-9" d="M43.11,47.05l-2.66,1.53V44.44a.58.58,0,0,0-.87-.5l-1.2.69a1.15,1.15,0,0,0-.58,1v4.48l-2.94,1.7a1.14,1.14,0,0,0-.58,1v1.38a.58.58,0,0,0,.87.5l2.65-1.53v4.15a.58.58,0,0,0,.87.5l1.2-.69a1.17,1.17,0,0,0,.57-1V51.64l2.94-1.7a1.16,1.16,0,0,0,.58-1V47.56A.58.58,0,0,0,43.11,47.05Z"/><polyline class="cls-7" points="58.25 38.62 62.2 29.9 65.59 34.38"/><path class="cls-10" d="M56.49,80a.56.56,0,0,1-.63,0l-2.69-2a1.64,1.64,0,0,1-.26-1.81,1.15,1.15,0,0,1,1.51-.57L56.19,77,62,65.68c.35-.66,1-.88,1.35-.62a1.58,1.58,0,0,1,.2,1.78L57.11,79.32A1.77,1.77,0,0,1,56.49,80Z"/><polygon class="cls-11" points="90.89 69.38 62.89 65.26 62.07 108.21 70.76 96.49 81.06 114.33 92.48 98.94 82.19 81.1 90.89 69.38"/><polygon class="cls-11" points="98.98 74.06 70.98 69.93 70.16 112.88 78.86 101.16 89.16 119 100.58 103.61 90.28 85.77 98.98 74.06"/><polygon class="cls-12" points="89.16 119 81.06 114.33 75.82 105.25 78.86 101.16 89.16 119"/><polygon class="cls-12" points="70.16 112.88 62.07 108.21 62.89 65.26 70.98 69.93 70.16 112.88"/><polygon class="cls-12" points="98.98 74.06 90.89 69.38 62.89 65.26 70.98 69.93 98.98 74.06"/><polygon class="cls-2" points="90.28 85.77 98.98 74.06 90.89 69.38 62.89 65.26 62.07 108.21 70.16 112.88 75.82 105.25 75.82 105.25 75.82 105.25 81.06 114.33 89.16 119 100.58 103.61 90.28 85.77"/><rect class="cls-13" width="120" height="120"/><rect class="cls-13" width="120" height="120"/></g></g></svg>