<svg xmlns="http://www.w3.org/2000/svg" viewBox="0 0 120 120"><defs><style>.cls-1{fill:#dfeab0;}.cls-2{fill:#fff;}.cls-2,.cls-5{stroke:#c4d36c;}.cls-2,.cls-4,.cls-5,.cls-6,.cls-7,.cls-8,.cls-9{stroke-linecap:round;stroke-linejoin:round;}.cls-2,.cls-3,.cls-4,.cls-5,.cls-6,.cls-7,.cls-8,.cls-9{stroke-width:2px;}.cls-10,.cls-3,.cls-5,.cls-6,.cls-9{fill:none;}.cls-3,.cls-4{stroke:#dfeab0;}.cls-3{stroke-miterlimit:10;}.cls-4{fill:#c4d36c;}.cls-6{stroke:#a7b23b;}.cls-7{fill:#98b9ea;}.cls-7,.cls-8{stroke:#fff;}.cls-8{fill:#deeaff;}.cls-9{stroke:#436db5;}</style></defs><title>one-click-failover</title><g id="Layer_2" data-name="Layer 2"><g id="Tech_Concepts" data-name="Tech Concepts"><polygon class="cls-1" points="53.96 28.41 40.75 20.79 36.24 28.61 49.49 36.15 53.96 28.41"/><polygon class="cls-1" points="20.15 56.48 33.35 64.1 38.5 55.18 25.32 47.52 20.15 56.48"/><polygon class="cls-2" points="22.52 46.08 9.34 38.41 20.33 19.39 33.51 27.05 22.52 46.08"/><polygon class="cls-3" points="12.18 74.28 27.98 46.9 12.07 37.69 21.06 22.12 36.97 31.34 52.91 3.73 73.68 15.7 57.81 43.2 73.78 52.3 64.8 67.86 48.82 58.76 32.95 86.25 12.18 74.28"/><polygon class="cls-4" points="65.36 8.66 76.42 14.96 60.54 42.45 76.52 51.56 65.54 70.59 49.56 61.48 33.68 88.98 22.63 82.68 38.5 55.18 22.52 46.08 33.51 27.05 49.49 36.15 65.36 8.66"/><polygon class="cls-5" points="65.36 8.66 76.42 14.96 60.54 42.45 76.52 51.56 65.54 70.59 49.56 61.48 33.68 88.98 22.63 82.68 38.5 55.18 22.52 46.08 33.51 27.05 49.49 36.15 65.36 8.66"/><polygon class="cls-6" points="60.54 42.45 76.42 14.96 52.18 1 36.24 28.61 20.33 19.39 9.34 38.41 25.25 47.63 9.45 75.02 33.68 88.98 49.56 61.48 65.54 70.59 76.52 51.56 60.54 42.45"/><polygon class="cls-7" points="98.3 55.77 62.62 50.51 61.58 105.24 72.66 90.31 85.78 113.04 100.34 93.43 87.22 70.7 98.3 55.77"/><polygon class="cls-7" points="108.62 61.73 72.94 56.47 71.89 111.2 82.98 96.27 96.1 119 110.66 99.39 97.54 76.66 108.62 61.73"/><polygon class="cls-8" points="96.1 119 85.78 113.04 79.11 101.48 82.98 96.27 96.1 119"/><polygon class="cls-8" points="71.89 111.2 61.58 105.24 62.62 50.51 72.94 56.47 71.89 111.2"/><polygon class="cls-8" points="108.62 61.73 98.3 55.77 62.62 50.51 72.94 56.47 108.62 61.73"/><polygon class="cls-9" points="97.54 76.66 108.62 61.73 98.3 55.77 62.62 50.51 61.58 105.24 71.89 111.2 79.11 101.48 79.11 101.48 79.11 101.48 85.78 113.04 96.1 119 110.66 99.39 97.54 76.66"/><rect class="cls-10" width="120" height="120"/><rect class="cls-10" width="120" height="120"/></g></g></svg>