<svg xmlns="http://www.w3.org/2000/svg" viewBox="0 0 120 120"><defs><style>.cls-1,.cls-9{fill:#98b9ea;}.cls-11,.cls-2{fill:none;}.cls-2{stroke:#436db5;}.cls-10,.cls-2,.cls-4,.cls-7,.cls-9{stroke-linecap:round;stroke-linejoin:round;stroke-width:2px;}.cls-10,.cls-3{fill:#deeaff;}.cls-4,.cls-5,.cls-7{fill:#fff;}.cls-4{stroke:#98b9ea;}.cls-6{fill:#436db5;}.cls-7,.cls-8{stroke:#c4d36c;}.cls-8{fill:#c4d36c;stroke-miterlimit:10;stroke-width:0.5px;}.cls-10,.cls-9{stroke:#fff;}</style></defs><title>one-click-operation-all-insights</title><g id="Layer_2" data-name="Layer 2"><g id="Tech_Concepts" data-name="Tech Concepts"><path class="cls-1" d="M70.29,5.08,63.63,1.24v0a2.37,2.37,0,0,0-2.45.18l-38,21.93c-2.08,1.2-3.76,4.42-3.76,7.19v70.79a3.29,3.29,0,0,0,1.31,3v0l6.66,3.85,2.55-7.94,31.24-18c2.08-1.2,3.76-4.42,3.76-7.19V16.46Z"/><path class="cls-1" d="M39.23,29.1l-.68-9.47a8.67,8.67,0,0,0-3.62-6.44h0c-1.86-1.08-3.42-.09-3.61,2.27l-.68,8.68"/><path class="cls-2" d="M39.23,29.1l-.68-9.47a8.67,8.67,0,0,0-3.62-6.44h0c-1.86-1.08-3.42-.09-3.61,2.27l-.68,8.68"/><path class="cls-3" d="M63.62,1.26a2.37,2.37,0,0,0-2.45.18l-38,21.93a7.36,7.36,0,0,0-2.57,2.86L64.93,51.82V16.46L70.29,5.08,63.63,1.24Z"/><path class="cls-4" d="M67.83,86.1,29.84,108c-2.08,1.2-3.76-.08-3.76-2.85V34.4c0-2.77,1.68-6,3.76-7.18l38-21.94c2.08-1.2,3.76.08,3.76,2.85V78.92C71.59,81.69,69.91,84.9,67.83,86.1Z"/><path class="cls-2" d="M70.28,5.11v0L63.63,1.24v0a2.37,2.37,0,0,0-2.45.18l-38,21.93a5.07,5.07,0,0,0-.74.53,5.17,5.17,0,0,0-.53.52l-.14.14a8.41,8.41,0,0,0-1.16,1.67h0a9.3,9.3,0,0,0-1.19,4.33v70.79a3.29,3.29,0,0,0,1.31,3v0l6.66,3.85v0a2.39,2.39,0,0,0,2.45-.17l38-21.94c2.08-1.2,3.76-4.41,3.76-7.18V8.13A3.28,3.28,0,0,0,70.28,5.11Z"/><path class="cls-3" d="M57.83,8.5a8.65,8.65,0,0,0-3.61-6.45,2.36,2.36,0,0,0-2.38-.19h0L32.56,13h0a2.31,2.31,0,0,1,2.37.18,8.67,8.67,0,0,1,3.62,6.44l.68,9.48L58.52,18Z"/><path class="cls-5" d="M34.93,13.19a7.8,7.8,0,0,1,3,3.78L57.19,5.83a7.8,7.8,0,0,0-3-3.78,2.36,2.36,0,0,0-2.38-.19h0L32.56,13h0A2.31,2.31,0,0,1,34.93,13.19Z"/><path class="cls-2" d="M57.83,8.5a8.65,8.65,0,0,0-3.61-6.45,2.36,2.36,0,0,0-2.38-.19h0L32.56,13h0l0,0a2.3,2.3,0,0,1,2.4.17,8.67,8.67,0,0,1,3.62,6.44l.68,9.48L58.52,18Z"/><path class="cls-5" d="M44.58,7.62l3.21-1.85A7.82,7.82,0,0,0,48,4.13c0-2.51-1.53-3.67-3.41-2.58a8.16,8.16,0,0,0-3.41,6.52,5,5,0,0,0,.19,1.41Z"/><ellipse class="cls-6" cx="44.58" cy="6.1" rx="1.59" ry="0.9" transform="translate(21.51 44.73) rotate(-66.95)"/><path class="cls-2" d="M47.79,5.77A7.82,7.82,0,0,0,48,4.13c0-2.51-1.53-3.67-3.41-2.58a8.16,8.16,0,0,0-3.41,6.52,5,5,0,0,0,.19,1.41"/><line class="cls-7" x1="48.55" y1="42.51" x2="63.87" y2="33.67"/><path class="cls-8" d="M37,68.4a.45.45,0,0,1-.52,0l-2.23-1.65a1.35,1.35,0,0,1-.21-1.5,1,1,0,0,1,1.24-.47l1.47,1.07,4.83-9.35c.29-.54.83-.72,1.12-.51a1.32,1.32,0,0,1,.16,1.48L37.54,67.82A1.48,1.48,0,0,1,37,68.4Z"/><path class="cls-8" d="M37,52.32a.47.47,0,0,1-.52,0l-2.23-1.65a1.36,1.36,0,0,1-.21-1.5.94.94,0,0,1,1.24-.47l1.47,1.07,4.83-9.35c.29-.55.83-.73,1.12-.51a1.32,1.32,0,0,1,.16,1.48L37.54,51.73A1.52,1.52,0,0,1,37,52.32Z"/><line class="cls-7" x1="48.55" y1="58.59" x2="63.87" y2="49.75"/><line class="cls-7" x1="48.55" y1="74.68" x2="63.87" y2="65.83"/><path class="cls-8" d="M37,84.48a.47.47,0,0,1-.52,0l-2.23-1.65a1.36,1.36,0,0,1-.21-1.5.94.94,0,0,1,1.24-.47L36.78,82l4.83-9.35c.29-.55.83-.73,1.12-.51a1.32,1.32,0,0,1,.16,1.48L37.54,83.9A1.41,1.41,0,0,1,37,84.48Z"/><polygon class="cls-9" points="90.89 69.38 62.89 65.26 62.07 108.21 70.76 96.49 81.06 114.33 92.48 98.94 82.19 81.1 90.89 69.38"/><polygon class="cls-9" points="98.98 74.06 70.98 69.93 70.16 112.88 78.86 101.16 89.16 119 100.58 103.61 90.28 85.77 98.98 74.06"/><polygon class="cls-10" points="89.16 119 81.06 114.33 75.82 105.25 78.86 101.16 89.16 119"/><polygon class="cls-10" points="70.16 112.88 62.07 108.21 62.89 65.26 70.98 69.93 70.16 112.88"/><polygon class="cls-10" points="98.98 74.06 90.89 69.38 62.89 65.26 70.98 69.93 98.98 74.06"/><polygon class="cls-2" points="90.28 85.77 98.98 74.06 90.89 69.38 62.89 65.26 62.07 108.21 70.16 112.88 75.82 105.25 75.82 105.25 75.82 105.25 81.06 114.33 89.16 119 100.58 103.61 90.28 85.77"/><rect class="cls-11" width="120" height="120"/><rect class="cls-11" width="120" height="120"/></g></g></svg>