<svg xmlns="http://www.w3.org/2000/svg" viewBox="0 0 120 120"><defs><style>.cls-1,.cls-6{fill:#fff;}.cls-1,.cls-10,.cls-9{stroke:#98b9ea;}.cls-1,.cls-10,.cls-11,.cls-3,.cls-4,.cls-5,.cls-9{stroke-linecap:round;stroke-linejoin:round;stroke-width:2px;}.cls-2,.cls-9{fill:#deeaff;}.cls-10,.cls-3,.cls-7{fill:#98b9ea;}.cls-3,.cls-4,.cls-5{stroke:#436db5;}.cls-11,.cls-13,.cls-4{fill:none;}.cls-5{fill:#436db5;}.cls-8{fill:#c4d36c;}.cls-11{stroke:#c4d36c;}.cls-12{fill:#dfeab0;}</style></defs><title>optimize</title><g id="Layer_2" data-name="Layer 2"><g id="Actions"><path class="cls-1" d="M83.43,5.94,75,1.08h0a.78.78,0,0,0-.8,0L3.4,42a2.92,2.92,0,0,0-1.22,2.34v68.71a1.07,1.07,0,0,0,.42,1h0L11,118.92l7.07-13.41L74.21,67.59a2.91,2.91,0,0,0,1.22-2.34V16.59Z"/><path class="cls-2" d="M10.59,118.67V37.87L3.4,42a2.92,2.92,0,0,0-1.22,2.34v68.71a1.07,1.07,0,0,0,.42,1h0Z"/><path class="cls-3" d="M49.83,81.67,74.21,67.59a2.91,2.91,0,0,0,1.22-2.34V16.59l8-10.65L75,1.08h0a.78.78,0,0,0-.8,0L3.4,42a2.92,2.92,0,0,0-1.22,2.34v9.8Z"/><path class="cls-2" d="M52.1,73.18,75.43,40.61v-24l8-10.65L75,1.08h0a.78.78,0,0,0-.8,0L3.4,42a2.92,2.92,0,0,0-1.22,2.34h0Z"/><path class="cls-1" d="M82.63,78,11.82,118.85c-.68.39-1.23,0-1.23-.92V49.22a2.93,2.93,0,0,1,1.23-2.34L82.63,6c.67-.39,1.22,0,1.22.93v68.7A3,3,0,0,1,82.63,78Z"/><path class="cls-4" d="M83.42,5.94h0L75,1.08h0a.78.78,0,0,0-.8,0L3.4,42a2.92,2.92,0,0,0-1.22,2.34v68.71a1.07,1.07,0,0,0,.42,1h0L11,118.92h0a.78.78,0,0,0,.8-.06L82.63,78a3,3,0,0,0,1.22-2.34V6.93A1.08,1.08,0,0,0,83.42,5.94Z"/><path class="cls-5" d="M83.85,16.72V6.93c0-.9-.55-1.32-1.22-.93L11.82,46.88a2.93,2.93,0,0,0-1.23,2.34V59Z"/><ellipse class="cls-2" cx="21.8" cy="47.11" rx="2.12" ry="1.2" transform="translate(-30.09 48.73) rotate(-66.95)"/><ellipse class="cls-6" cx="27.12" cy="44.04" rx="2.12" ry="1.2" transform="translate(-24.02 51.75) rotate(-66.95)"/><ellipse class="cls-7" cx="16.26" cy="50.31" rx="2.12" ry="1.2" transform="matrix(0.39, -0.92, 0.92, 0.39, -36.4, 45.58)"/><polygon class="cls-8" points="67.07 38.47 18.27 66.65 18.27 104.89 67.07 76.71 67.07 38.47"/><path class="cls-9" d="M116.28,98.92h0L72.57,73.68l-5.09,8.81,43.72,25.24h0c1.77,1,4.34-.12,5.74-2.55S118,99.94,116.28,98.92Z"/><path class="cls-6" d="M116.28,98.92h0L75.77,75.52l-2.55,4.42,39.9,23a2.65,2.65,0,0,0,3.75-3.38A1.62,1.62,0,0,0,116.28,98.92Z"/><path class="cls-4" d="M116.28,98.92h0L72.57,73.68l-5.09,8.81,43.72,25.24h0c1.77,1,4.34-.12,5.74-2.55S118,99.94,116.28,98.92Z"/><path class="cls-10" d="M88.58,81v0L76.85,74.18,70,86.08l11.73,6.78h0c2.39,1.37,5.86-.17,7.75-3.45S91,82.35,88.58,81Z"/><path class="cls-2" d="M88.58,81h0l-8.27-4.78-3.39,5.89,7.45,4.28c3,1.71,6.53-1.44,5-4.49A2,2,0,0,0,88.58,81Z"/><path class="cls-4" d="M88.58,81v0L76.85,74.18,70,86.08l11.73,6.78h0c2.39,1.37,5.86-.17,7.75-3.45S91,82.35,88.58,81Z"/><path class="cls-2" d="M82.44,51.78,74.21,47h0c-3.33-1.92-7.67-1.75-12.41,1-10.48,6-19,22.28-19,36.26,0,7.64,2.55,13,6.57,15.33h0l8.23,4.75L58.88,100a20.75,20.75,0,0,0,2.92-1.39c10.47-6,19-22.28,19-36.25a26.82,26.82,0,0,0-.84-7Z"/><path class="cls-6" d="M74.21,47h0c-3.33-1.92-7.67-1.75-12.41,1-5.73,3.31-10.86,9.66-14.34,17L76.13,81.61a46.08,46.08,0,0,0,4.64-19.23,26.82,26.82,0,0,0-.84-7l2.51-3.64Z"/><path class="cls-11" d="M82.44,51.78,74.21,47h0c-3.33-1.92-7.67-1.75-12.41,1-10.48,6-19,22.28-19,36.26,0,7.64,2.55,13,6.57,15.33h0l8.23,4.75L58.88,100a20.75,20.75,0,0,0,2.92-1.39c10.47-6,19-22.28,19-36.25a26.82,26.82,0,0,0-.84-7Z"/><line class="cls-11" x1="70.03" y1="78.08" x2="61.8" y2="73.33"/><ellipse class="cls-10" cx="70.03" cy="78.08" rx="29.13" ry="16.48" transform="translate(-29.24 111.94) rotate(-66.95)"/><path class="cls-2" d="M63.8,100.25c-5.37,0-8.83-5.14-8.83-13.11,0-11.33,6.9-24.54,15.37-29.43a12,12,0,0,1,5.92-1.8c5.36,0,8.82,5.15,8.82,13.11,0,11.34-6.89,24.54-15.37,29.44A12,12,0,0,1,63.8,100.25Z"/><path class="cls-6" d="M81.34,84.61,58.72,71.55A37.41,37.41,0,0,0,55,87.14c0,8,3.46,13.11,8.83,13.11a12,12,0,0,0,5.91-1.79C74.35,95.78,78.51,90.6,81.34,84.61Z"/><path class="cls-4" d="M63.8,100.25c-5.37,0-8.83-5.14-8.83-13.11,0-11.33,6.9-24.54,15.37-29.43a12,12,0,0,1,5.92-1.8c5.36,0,8.82,5.15,8.82,13.11,0,11.34-6.89,24.54-15.37,29.44A12,12,0,0,1,63.8,100.25Z"/><path class="cls-4" d="M82.44,51.79h0L74.21,47h0c-3.33-1.92-7.67-1.75-12.41,1l-.93.57-.3.2-.6.41-.37.26-.53.4-.39.31-.49.4-.4.34-.46.4-.41.38c-.15.13-.29.27-.43.41l-.43.41-.35.37c-.61.62-1.21,1.28-1.79,2l-.2.24c-.19.22-.37.45-.55.68L53,56c-.19.23-.37.47-.55.71l-.18.24-.55.77-.13.18L51,58.8l0,.06C46,66.26,42.82,75.7,42.82,84.29c0,7.64,2.55,13,6.57,15.33h0l8.23,4.75h0c3.33,1.92,7.67,1.75,12.42-1,10.48-6,19-22.28,19-36.25C89,59.49,86.45,54.11,82.44,51.79Z"/><path class="cls-6" d="M70.34,57.71C61.87,62.6,55,75.81,55,87.14a18.54,18.54,0,0,0,1.69,8.29,12.81,12.81,0,0,0,4.82-1.73C70,88.81,76.85,75.61,76.85,64.27A18.61,18.61,0,0,0,75.17,56,12.77,12.77,0,0,0,70.34,57.71Z"/><path class="cls-12" d="M55,87,69.9,78.39V58C61.66,63.07,55,75.91,55,87Z"/><path class="cls-4" d="M70.34,57.71C61.87,62.6,55,75.81,55,87.14a18.54,18.54,0,0,0,1.69,8.29,12.81,12.81,0,0,0,4.82-1.73C70,88.81,76.85,75.61,76.85,64.27A18.61,18.61,0,0,0,75.17,56,12.77,12.77,0,0,0,70.34,57.71Z"/><rect class="cls-13" width="120" height="120"/><rect class="cls-13" width="120" height="120"/></g></g></svg>