<svg xmlns="http://www.w3.org/2000/svg" viewBox="0 0 120 120"><defs><style>.cls-1{fill:#deeaff;}.cls-10,.cls-2,.cls-4,.cls-8{fill:none;}.cls-2{stroke:#98b9ea;}.cls-2,.cls-4,.cls-5,.cls-6,.cls-7,.cls-8,.cls-9{stroke-linecap:round;stroke-linejoin:round;stroke-width:2px;}.cls-3,.cls-9{fill:#98b9ea;}.cls-4{stroke:#436db5;}.cls-5{fill:#c4d36c;}.cls-5,.cls-6,.cls-7{stroke:#c4d36c;}.cls-6{fill:#fff;}.cls-7{fill:#dfeab0;}.cls-8{stroke:#a7b23b;}.cls-9{stroke:#deeaff;}</style></defs><title>other-transportation</title><g id="Layer_2" data-name="Layer 2"><g id="Industries"><path class="cls-1" d="M22,39.9a82.48,82.48,0,0,0-6.82,31.45v36.07l5.22,3,7-4V70.16a65.5,65.5,0,0,1,5.08-24.23Z"/><path class="cls-2" d="M78.77,9.17a21.79,21.79,0,0,0-2-2.48l1-.36-5.22-3h0C66.42-.17,58.52.15,49.86,5.14h0c-19.14,11-34.65,40.68-34.65,66.2v36.07l5.22,3,2.73-9L27.4,47.34,52.2,15.16l11.46-4a13.59,13.59,0,0,1,1.4.34Z"/><path class="cls-3" d="M55.08,17.27h0c15.29-8.83,27.68.54,27.68,20.93V74.45L32.65,45.51C37.68,33.35,45.85,22.6,55.08,17.27Z"/><path class="cls-1" d="M32.65,45.51,82.76,74.45V38.2c0-.22,0-.42,0-.63l-31.16-18C43.81,25.38,37,34.91,32.65,45.51Z"/><path class="cls-3" d="M38.45,48.86,75.93,33.63,71.22,21.27,64,14.09a23.9,23.9,0,0,0-8.92,3.18h0c-9.23,5.33-17.4,16.08-22.43,28.24Z"/><path class="cls-3" d="M69.84,14.44c4.13,4.06,6.63,11,6.63,20.12V70.81L32.65,45.51h0L82.76,74.45V38.2C82.76,25.05,77.6,16.49,69.84,14.44Z"/><path class="cls-3" d="M69.84,14.44c3,2.91,5.07,7.29,6,12.89L82.17,31C80.61,21.93,76.07,16.09,69.84,14.44Z"/><path class="cls-4" d="M69.84,14.44c4.13,4.06,6.63,11,6.63,20.12V70.81L32.65,45.51h0L82.76,74.45V38.2C82.76,25.05,77.6,16.49,69.84,14.44Z"/><path class="cls-4" d="M55.08,17.27h0c15.29-8.83,27.68.54,27.68,20.93V74.45L32.65,45.51C37.68,33.35,45.85,22.6,55.08,17.27Z"/><polygon class="cls-5" points="100.71 96.75 104.79 94.4 104.79 99.11 100.71 101.46 100.71 96.75"/><path class="cls-6" d="M30.48,51.47,104.79,94.4l-4.08,2.35L29.33,55.52C29.67,54.16,30.05,52.81,30.48,51.47Z"/><path class="cls-7" d="M29.33,55.52l71.38,41.23v4.71L28.41,59.7C28.67,58.3,29,56.91,29.33,55.52Z"/><path class="cls-8" d="M30.48,51.47,104.79,94.4v4.71l-4.08,2.35L28.41,59.7A69.3,69.3,0,0,1,30.48,51.47Z"/><polygon class="cls-5" points="91.6 95.92 65.06 111.25 57.7 107 84.24 91.67 91.6 95.92"/><polygon class="cls-6" points="91.6 93.57 65.06 108.89 57.7 104.64 84.24 89.32 91.6 93.57"/><polygon class="cls-5" points="91.6 93.57 91.6 95.92 65.06 111.25 65.06 108.89 91.6 93.57"/><polygon class="cls-8" points="57.7 104.64 84.24 89.32 91.6 93.57 91.6 95.92 65.06 111.25 57.7 107 59.74 105.82 57.7 104.64"/><polygon class="cls-5" points="71.22 84.16 44.68 99.48 37.32 95.23 63.86 79.91 71.22 84.16"/><polygon class="cls-6" points="71.22 81.8 44.68 97.13 37.32 92.87 63.86 77.55 71.22 81.8"/><polygon class="cls-5" points="71.22 81.8 71.22 84.16 44.68 99.48 44.68 97.13 71.22 81.8"/><polygon class="cls-8" points="37.32 92.87 63.86 77.55 71.22 81.8 71.22 84.16 44.68 99.48 37.32 95.23 39.36 94.05 37.32 92.87"/><polygon class="cls-5" points="50.84 72.39 27.61 85.8 22.46 80.27 43.48 68.14 50.84 72.39"/><polygon class="cls-6" points="50.84 70.03 27.61 83.45 22.46 77.92 43.48 65.78 50.84 70.03"/><polygon class="cls-5" points="50.84 70.03 50.84 72.39 27.61 85.8 27.61 83.45 50.84 70.03"/><polygon class="cls-8" points="22.46 77.92 43.48 65.78 50.84 70.04 50.84 72.39 27.61 85.8 22.46 80.27 24.5 79.09 22.46 77.92"/><polygon class="cls-7" points="27.4 89.48 70.33 114.29 70.33 119 27.4 94.19 27.4 89.48"/><polygon class="cls-6" points="27.4 84.77 27.4 84.77 74.41 111.94 70.33 114.29 27.4 89.48 27.4 84.77"/><polygon class="cls-5" points="70.33 114.29 74.41 111.94 74.41 116.65 70.33 119 70.33 114.29"/><polygon class="cls-8" points="27.4 84.77 27.4 84.77 74.41 111.94 74.41 116.65 70.33 119 27.4 94.19 27.4 84.77"/><path class="cls-4" d="M27.4,106.41V70.16c0-20.38,12.39-44.06,27.68-52.89h0c15.29-8.83,27.68.54,27.68,20.93V74.45"/><path class="cls-4" d="M27.4,106.41V70.16c0-20.38,12.39-44.06,27.68-52.89h0c15.29-8.83,27.68.54,27.68,20.93V74.45"/><path class="cls-9" d="M27.4,106.41V70.16c0-20.38,12.39-44.06,27.68-52.89h0c15.29-8.83,27.68.54,27.68,20.93V74.45l7-4V34.35c0-25.51-15.51-37.24-34.65-26.19h0C35.94,19.21,20.43,48.85,20.43,74.36v36.07Z"/><path class="cls-4" d="M77.73,6.34h0l-5.22-3h0C66.42-.17,58.52.15,49.86,5.14h0c-19.14,11-34.65,40.68-34.65,66.2v36.07l5.22,3h0l7-4V70.16c0-20.38,12.39-44.06,27.68-52.89h0c15.29-8.83,27.68.54,27.68,20.93V74.45l7-4V34.35C89.73,20.39,85.08,10.57,77.73,6.34Z"/><rect class="cls-10" width="120" height="120"/><rect class="cls-10" width="120" height="120"/></g></g></svg>