<svg xmlns="http://www.w3.org/2000/svg" viewBox="0 0 120 120"><defs><style>.cls-1{fill:#dfeab0;}.cls-10,.cls-2,.cls-3,.cls-7,.cls-8{fill:none;}.cls-2{stroke:#a7b23b;}.cls-2,.cls-7{stroke-linecap:round;stroke-linejoin:round;}.cls-2,.cls-3,.cls-7,.cls-8{stroke-width:2px;}.cls-3{stroke:#dfeab0;}.cls-3,.cls-8{stroke-miterlimit:10;}.cls-4{fill:#c4d36c;}.cls-5{fill:#fff;}.cls-6{fill:#deeaff;}.cls-7{stroke:#436db5;}.cls-8{stroke:#deeaff;}.cls-9{fill:#98b9ea;}</style></defs><title>people</title><g id="Layer_2" data-name="Layer 2"><g id="Objects"><path class="cls-1" d="M27.79,33.38c-10.68,0-25.95,9.52-25.95,28.34,0,10,17.18,11.34,29.67,8.18S48.3,60.52,48.3,54.08C48.3,43.61,39.3,33.38,27.79,33.38Z"/><path class="cls-2" d="M27.79,33.38c-10.68,0-25.95,9.52-25.95,28.34,0,10,17.18,11.34,29.67,8.18S48.3,60.52,48.3,54.08C48.3,43.61,39.3,33.38,27.79,33.38Z"/><path class="cls-3" d="M19.23,69.74c-3.68,0-15.7-.58-15.7-8,0-17.39,14.09-26.64,24.26-26.64,11.09,0,18.82,10,18.82,19,0,6.71-5.37,11.61-15.52,14.18a49.91,49.91,0,0,1-11.86,1.48Z"/><circle class="cls-1" cx="25.57" cy="19.07" r="18.07"/><path class="cls-4" d="M37.16,8.76a1.14,1.14,0,0,0-1.93,1.16c1.54,3.8,2,9.37-3.72,15.09s-11.29,5.26-15.09,3.72a1.14,1.14,0,0,0-1.16,1.93,15.51,15.51,0,0,0,21.9-21.9Z"/><circle class="cls-2" cx="25.57" cy="19.07" r="18.07"/><ellipse class="cls-5" cx="17.06" cy="10.56" rx="4.16" ry="2.57" transform="translate(-2.47 15.16) rotate(-45)"/><path class="cls-3" d="M25.57,35.45A16.38,16.38,0,1,1,42,19.07,16.4,16.4,0,0,1,25.57,35.45Z"/><ellipse class="cls-5" cx="12.54" cy="47.1" rx="3.77" ry="2.33" transform="translate(-31.7 26.64) rotate(-50.27)"/><path class="cls-4" d="M45.77,54.08a19,19,0,0,0-9-15.59,2.06,2.06,0,0,0-3.16,1.94,33.87,33.87,0,0,1,.21,3.64c0,7.77-3.68,15.28-14.33,19.1a31.86,31.86,0,0,1-5.1,1.35,2.06,2.06,0,0,0,.09,4.08,39.8,39.8,0,0,0,4.74.29,48.6,48.6,0,0,0,11.65-1.45C37.67,65.72,45.77,62,45.77,54.08Z"/><path class="cls-1" d="M97.65,33.38C87,33.38,71.7,42.9,71.7,61.72c0,10,17.18,11.34,29.66,8.18s16.8-9.38,16.8-15.82C118.16,43.61,109.16,33.38,97.65,33.38Z"/><path class="cls-2" d="M97.65,33.38C87,33.38,71.7,42.9,71.7,61.72c0,10,17.18,11.34,29.66,8.18s16.8-9.38,16.8-15.82C118.16,43.61,109.16,33.38,97.65,33.38Z"/><path class="cls-3" d="M89.09,69.74c-3.68,0-15.7-.58-15.7-8,0-17.39,14.09-26.64,24.26-26.64,11.09,0,18.82,10,18.82,19,0,6.71-5.37,11.61-15.52,14.18a49.91,49.91,0,0,1-11.86,1.48Z"/><circle class="cls-1" cx="95.43" cy="19.07" r="18.07"/><path class="cls-4" d="M107,8.76a1.14,1.14,0,0,0-1.93,1.16c1.54,3.8,2,9.37-3.72,15.09s-11.29,5.26-15.09,3.72a1.14,1.14,0,0,0-1.16,1.93A15.51,15.51,0,0,0,107,8.76Z"/><circle class="cls-2" cx="95.43" cy="19.07" r="18.07"/><ellipse class="cls-5" cx="86.92" cy="10.56" rx="4.16" ry="2.57" transform="translate(17.99 64.56) rotate(-45)"/><path class="cls-3" d="M95.43,35.45a16.38,16.38,0,1,1,16.38-16.38A16.4,16.4,0,0,1,95.43,35.45Z"/><ellipse class="cls-5" cx="82.4" cy="47.1" rx="3.77" ry="2.33" transform="matrix(0.64, -0.77, 0.77, 0.64, -6.49, 80.37)"/><path class="cls-4" d="M115.63,54.08a19,19,0,0,0-9-15.59,2.06,2.06,0,0,0-3.16,1.94,33.87,33.87,0,0,1,.21,3.64c0,7.77-3.68,15.28-14.33,19.1a31.86,31.86,0,0,1-5.1,1.35,2.06,2.06,0,0,0,.08,4.08,40.06,40.06,0,0,0,4.75.29,48.66,48.66,0,0,0,11.65-1.45C107.53,65.72,115.63,62,115.63,54.08Z"/><path class="cls-6" d="M62.76,70.76c-13.54,0-32.9,12.07-32.9,35.93,0,12.75,21.78,14.38,37.62,10.37s21.29-11.89,21.29-20C88.77,83.73,77.36,70.76,62.76,70.76Z"/><path class="cls-7" d="M62.76,70.76c-13.54,0-32.9,12.07-32.9,35.93,0,12.75,21.78,14.38,37.62,10.37s21.29-11.89,21.29-20C88.77,83.73,77.36,70.76,62.76,70.76Z"/><path class="cls-8" d="M51.91,116.86c-4.67,0-19.91-.74-19.91-10.17,0-22,17.87-33.78,30.76-33.78,14.07,0,23.87,12.7,23.87,24.1,0,8.5-6.81,14.71-19.68,18a63,63,0,0,1-15,1.88Z"/><circle class="cls-6" cx="59.95" cy="52.61" r="22.91"/><path class="cls-9" d="M74.65,39.54A1.45,1.45,0,0,0,72.2,41c2,4.81,2.55,11.87-4.71,19.13s-14.32,6.67-19.14,4.72a1.45,1.45,0,0,0-1.48,2.44A19.67,19.67,0,0,0,74.65,39.54Z"/><circle class="cls-7" cx="59.95" cy="52.61" r="22.91"/><ellipse class="cls-5" cx="49.16" cy="41.83" rx="5.28" ry="3.26" transform="translate(-15.18 47.02) rotate(-45)"/><path class="cls-8" d="M60,73.38A20.77,20.77,0,1,1,80.71,52.61,20.8,20.8,0,0,1,60,73.38Z"/><ellipse class="cls-5" cx="43.43" cy="88.16" rx="4.78" ry="2.96" transform="translate(-52.13 65.21) rotate(-50.27)"/><path class="cls-9" d="M85.56,97c0-7.43-4.36-15.43-11.39-19.77a2.62,2.62,0,0,0-4,2.46,39.21,39.21,0,0,1,.27,4.61c0,9.85-4.66,19.37-18.16,24.21a38.84,38.84,0,0,1-6.48,1.72,2.62,2.62,0,0,0,.11,5.17,49.63,49.63,0,0,0,6,.37,61.88,61.88,0,0,0,14.78-1.84C75.29,111.76,85.56,107.06,85.56,97Z"/><rect class="cls-10" width="120" height="120"/><rect class="cls-10" width="120" height="120"/></g></g></svg>