<svg xmlns="http://www.w3.org/2000/svg" viewBox="0 0 120 120"><defs><style>.cls-1{fill:#deeaff;}.cls-2,.cls-3,.cls-6{fill:none;}.cls-2{stroke:#436db5;stroke-linecap:round;stroke-linejoin:round;}.cls-2,.cls-3{stroke-width:2px;}.cls-3{stroke:#deeaff;}.cls-3,.cls-5{stroke-miterlimit:10;}.cls-4{fill:#fff;}.cls-5{fill:#98b9ea;stroke:#98b9ea;}</style></defs><title>person</title><g id="Layer_2" data-name="Layer 2"><g id="Objects"><path class="cls-1" d="M64.25,55.58c-16.69,0-40.54,14.87-40.54,44.25,0,15.71,26.84,17.72,46.34,12.78S96.29,98,96.29,87.91C96.29,71.55,82.23,55.58,64.25,55.58Z"/><path class="cls-2" d="M64.25,55.58c-16.69,0-40.54,14.87-40.54,44.25,0,15.71,26.84,17.72,46.34,12.78S96.29,98,96.29,87.91C96.29,71.55,82.23,55.58,64.25,55.58Z"/><path class="cls-3" d="M50.88,112.36c-5.76,0-24.52-.9-24.52-12.53,0-27.15,22-41.61,37.89-41.61,17.32,0,29.39,15.65,29.39,29.69,0,10.47-8.38,18.12-24.24,22.14a77.52,77.52,0,0,1-18.52,2.31Z"/><circle class="cls-1" cx="60.78" cy="33.22" r="28.22"/><circle class="cls-2" cx="60.78" cy="33.22" r="28.22"/><ellipse class="cls-4" cx="47.49" cy="19.94" rx="6.5" ry="4.02" transform="translate(-0.19 39.42) rotate(-45)"/><path class="cls-3" d="M60.78,58.8A25.58,25.58,0,1,1,86.36,33.22,25.6,25.6,0,0,1,60.78,58.8Z"/><path class="cls-5" d="M78.88,17.12a1.79,1.79,0,0,0-3,1.82c2.41,5.93,3.14,14.62-5.81,23.57s-17.63,8.21-23.57,5.8a1.79,1.79,0,0,0-1.82,3A24.23,24.23,0,0,0,78.88,17.12Z"/><ellipse class="cls-4" cx="40.44" cy="77.01" rx="5.89" ry="3.64" transform="translate(-44.63 58.88) rotate(-50.27)"/><path class="cls-5" d="M92.32,87.91c0-9.15-5.36-19-14-24.36a3.23,3.23,0,0,0-4.94,3,51,51,0,0,1,.33,5.67c0,12.14-5.74,23.87-22.37,29.84a49,49,0,0,1-8,2.11,3.22,3.22,0,0,0,.14,6.37,59.44,59.44,0,0,0,7.41.46,76.5,76.5,0,0,0,18.2-2.27C79.68,106.08,92.32,100.29,92.32,87.91Z"/><rect class="cls-6" width="120" height="120"/><rect class="cls-6" width="120" height="120"/></g></g></svg>