<svg xmlns="http://www.w3.org/2000/svg" viewBox="0 0 120 120"><defs><style>.cls-1{fill:#deeaff;}.cls-2,.cls-3,.cls-8,.cls-9{fill:none;}.cls-2{stroke:#436db5;}.cls-2,.cls-8{stroke-linecap:round;stroke-linejoin:round;}.cls-2,.cls-3,.cls-8{stroke-width:2px;}.cls-3{stroke:#deeaff;stroke-miterlimit:10;}.cls-4{fill:#98b9ea;}.cls-5{fill:#fff;}.cls-6{fill:#c4d36c;}.cls-7{fill:#dfeab0;}.cls-8{stroke:#a7b23b;}</style></defs><title>product-support</title><g id="Layer_2" data-name="Layer 2"><g id="New_Icon_Set" data-name="New Icon Set"><path class="cls-1" d="M37,70.92c-13.5,0-32.8,12-32.8,35.81,0,12.71,21.72,14.33,37.5,10.34s21.23-11.86,21.23-20C62.9,83.84,51.53,70.92,37,70.92Z"/><path class="cls-2" d="M37,70.92c-13.5,0-32.8,12-32.8,35.81,0,12.71,21.72,14.33,37.5,10.34s21.23-11.86,21.23-20C62.9,83.84,51.53,70.92,37,70.92Z"/><path class="cls-3" d="M26.15,116.86c-4.65,0-19.84-.73-19.84-10.13,0-22,17.81-33.68,30.66-33.68,14,0,23.79,12.66,23.79,24,0,8.47-6.78,14.66-19.61,17.91a62.63,62.63,0,0,1-15,1.87Z"/><circle class="cls-1" cx="34.17" cy="52.82" r="22.84"/><path class="cls-4" d="M48.82,39.79a1.45,1.45,0,0,0-2.44,1.47c1.95,4.81,2.54,11.84-4.7,19.08S27.41,67,22.61,65a1.45,1.45,0,0,0-1.48,2.44A19.61,19.61,0,0,0,48.82,39.79Z"/><circle class="cls-2" cx="34.17" cy="52.82" r="22.84"/><ellipse class="cls-5" cx="23.42" cy="42.07" rx="5.26" ry="3.25" transform="translate(-22.89 28.88) rotate(-45)"/><path class="cls-3" d="M34.17,73.53a20.71,20.71,0,1,1,20.7-20.71A20.72,20.72,0,0,1,34.17,73.53Z"/><ellipse class="cls-5" cx="17.71" cy="88.26" rx="4.77" ry="2.95" transform="translate(-61.48 45.46) rotate(-50.27)"/><path class="cls-4" d="M59.69,97.08A24.05,24.05,0,0,0,48.34,77.37a2.61,2.61,0,0,0-4,2.46,41.13,41.13,0,0,1,.26,4.59c0,9.82-4.64,19.31-18.1,24.14a39.46,39.46,0,0,1-6.45,1.71,2.61,2.61,0,0,0,.11,5.16,48.8,48.8,0,0,0,6,.36A61.9,61.9,0,0,0,40.88,114C49.46,111.79,59.69,107.09,59.69,97.08Z"/><path class="cls-6" d="M112.33,22.21l-36-20.79A2.22,2.22,0,0,0,74,1.24h0L67.19,5.17l5.62,6.26v33.8c0,.66.57,1.35,1,1.16l9.34-4.73a1.52,1.52,0,0,1,1.47.15L102.26,52,107.79,62,114.62,58h0a3.09,3.09,0,0,0,1.22-2.83V28.9A8.4,8.4,0,0,0,112.33,22.21Z"/><path class="cls-5" d="M112.33,22.21l-36-20.79A2.22,2.22,0,0,0,74,1.24h0L67.19,5.17l5.62,6.26V38.49L76.55,45l6.55-3.31a1.52,1.52,0,0,1,1.47.15l1.06.61,29.39-17A7.23,7.23,0,0,0,112.33,22.21Z"/><path class="cls-7" d="M105.5,26.15l-36-20.79C67.55,4.24,66,5.43,66,8V49.17c0,.66.57,1.35,1,1.16l9.35-4.73a1.53,1.53,0,0,1,1.47.15l27.75,16c1.93,1.11,3.5-.07,3.5-2.65V32.84A8.4,8.4,0,0,0,105.5,26.15Z"/><path class="cls-8" d="M114.78,25a.75.75,0,0,1-.07-.12l-.2-.35-.1-.15-.19-.29-.12-.16a2.56,2.56,0,0,0-.2-.26,1,1,0,0,0-.13-.16,2.2,2.2,0,0,0-.2-.23l-.14-.15-.22-.21-.13-.13-.25-.19-.12-.1-.38-.25-36-20.79A2.22,2.22,0,0,0,74,1.24h0L67.19,5.17h0A3.07,3.07,0,0,0,66,8V49.17c0,.66.57,1.35,1,1.16l9.35-4.73a1.53,1.53,0,0,1,1.47.15l27.75,16a2.26,2.26,0,0,0,2.29.18h0L114.62,58h0a3.09,3.09,0,0,0,1.22-2.83V28.9A8.76,8.76,0,0,0,114.78,25Z"/><line class="cls-8" x1="80.49" y1="29.53" x2="94.49" y2="37.61"/><rect class="cls-9" width="120" height="120"/><rect class="cls-9" width="120" height="120"/></g></g></svg>