<svg xmlns="http://www.w3.org/2000/svg" viewBox="0 0 120 120"><defs><style>.cls-1,.cls-8{fill:#98b9ea;}.cls-13,.cls-14,.cls-2,.cls-9{fill:none;}.cls-2{stroke:#436db5;}.cls-10,.cls-11,.cls-12,.cls-13,.cls-2,.cls-4,.cls-5,.cls-8,.cls-9{stroke-linecap:round;stroke-linejoin:round;stroke-width:2px;}.cls-3{fill:#deeaff;}.cls-10,.cls-4,.cls-6{fill:#fff;}.cls-4,.cls-8,.cls-9{stroke:#98b9ea;}.cls-12,.cls-5{fill:#dfeab0;}.cls-5{stroke:#dfeab0;}.cls-7{fill:#436db5;}.cls-10,.cls-11,.cls-12{stroke:#c4d36c;}.cls-11{fill:#c4d36c;}.cls-13{stroke:#a7b23b;}</style></defs><title>productivity</title><g id="Layer_2" data-name="Layer 2"><g id="New_Icon_Set" data-name="New Icon Set"><path class="cls-1" d="M71.67,5.17l-6.8-3.93v0a2.41,2.41,0,0,0-2.5.18L23.58,23.84c-2.12,1.22-3.84,4.5-3.84,7.33v72.26a3.33,3.33,0,0,0,1.34,3.08v0l6.79,3.92,2.6-8.1L62.36,84c2.12-1.23,3.84-4.51,3.84-7.34V16.78Z"/><path class="cls-1" d="M40,29.69,39.26,20c-.19-2.63-1.78-5.48-3.69-6.58h0c-1.9-1.1-3.49-.09-3.68,2.32l-.7,8.87"/><path class="cls-2" d="M40,29.69,39.26,20c-.19-2.63-1.78-5.48-3.69-6.58h0c-1.9-1.1-3.49-.09-3.68,2.32l-.7,8.87"/><path class="cls-3" d="M64.86,1.27a2.41,2.41,0,0,0-2.5.18L23.58,23.84A7.43,7.43,0,0,0,21,26.75L66.2,52.88V16.78L71.67,5.17l-6.8-3.93Z"/><path class="cls-4" d="M69.15,87.87,30.38,110.26c-2.12,1.22-3.84-.08-3.84-2.9V35.1c0-2.83,1.72-6.11,3.84-7.34L69.15,5.37C71.27,4.15,73,5.45,73,8.27V80.54C73,83.36,71.27,86.65,69.15,87.87Z"/><polygon class="cls-5" points="61.85 82.71 37.68 96.67 37.68 52.34 61.85 38.38 61.85 82.71"/><path class="cls-2" d="M71.66,5.19v0l-6.8-3.93v0a2.41,2.41,0,0,0-2.5.18L23.58,23.84a4.65,4.65,0,0,0-.75.53c-.19.16-.37.35-.55.53l-.14.15A9.06,9.06,0,0,0,21,26.75h0a9.59,9.59,0,0,0-1.21,4.42v72.26a3.33,3.33,0,0,0,1.34,3.08v0l6.79,3.92v0a2.43,2.43,0,0,0,2.51-.18L69.15,87.87C71.27,86.65,73,83.36,73,80.54V8.27A3.37,3.37,0,0,0,71.66,5.19Z"/><path class="cls-3" d="M59,8.65C58.76,6,57.17,3.18,55.26,2.08a2.37,2.37,0,0,0-2.42-.2h0L33.15,13.25h0a2.36,2.36,0,0,1,2.42.18c1.91,1.1,3.5,4,3.69,6.58l.7,9.67L59.65,18.32Z"/><path class="cls-6" d="M35.57,13.44a7.91,7.91,0,0,1,3,3.86L58.29,5.93a7.88,7.88,0,0,0-3-3.85,2.37,2.37,0,0,0-2.42-.2h0L33.15,13.25h0A2.36,2.36,0,0,1,35.57,13.44Z"/><path class="cls-2" d="M59,8.65C58.76,6,57.17,3.18,55.26,2.08a2.37,2.37,0,0,0-2.42-.2h0L33.15,13.25h0l0,0a2.34,2.34,0,0,1,2.44.17c1.91,1.1,3.5,4,3.69,6.58l.7,9.67L59.65,18.32Z"/><path class="cls-6" d="M45.42,7.76,48.7,5.87a7.48,7.48,0,0,0,.2-1.68c0-2.56-1.56-3.74-3.48-2.63s-3.48,4.09-3.48,6.66a4.75,4.75,0,0,0,.2,1.43Z"/><ellipse class="cls-7" cx="45.42" cy="6.2" rx="1.63" ry="0.92" transform="translate(21.93 45.57) rotate(-66.95)"/><path class="cls-2" d="M48.7,5.87a7.48,7.48,0,0,0,.2-1.68c0-2.56-1.56-3.74-3.48-2.63s-3.48,4.09-3.48,6.66a4.75,4.75,0,0,0,.2,1.43"/><path class="cls-6" d="M73.4,38.9l13-7.52a.91.91,0,0,1,.82,0l13,7.52-13,7.51a.91.91,0,0,1-.82,0Z"/><path class="cls-8" d="M86.83,103.76a.87.87,0,0,1-.44-.11l-13-7.5V38.9l13,7.5a1,1,0,0,0,.44.11"/><path class="cls-3" d="M86.83,46.51a1,1,0,0,0,.44-.11l13-7.5V96.15l-13,7.5a.85.85,0,0,1-.44.11"/><path class="cls-9" d="M73.4,38.9l13-7.52a.91.91,0,0,1,.82,0l13,7.52-13,7.51a.91.91,0,0,1-.82,0Z"/><line class="cls-8" x1="86.83" y1="46.51" x2="86.83" y2="103.76"/><path class="cls-2" d="M73.4,38.9V96.15l13,7.5a.92.92,0,0,0,.88,0l13-7.5V38.9l-13-7.52a.91.91,0,0,0-.82,0Z"/><path class="cls-6" d="M60,66.42,73,58.9a.91.91,0,0,1,.82,0l13,7.52-13,7.52a.91.91,0,0,1-.82,0Z"/><path class="cls-8" d="M73.4,111.38a.82.82,0,0,1-.43-.12l-13-7.5V66.42l13,7.5a.88.88,0,0,0,.44.12"/><path class="cls-3" d="M73.4,74a.83.83,0,0,0,.44-.12l13-7.5v37.34l-13,7.5a.83.83,0,0,1-.44.12"/><path class="cls-9" d="M60,66.42,73,58.9a.91.91,0,0,1,.82,0l13,7.52-13,7.52a.91.91,0,0,1-.82,0Z"/><line class="cls-8" x1="73.4" y1="74.04" x2="73.4" y2="111.38"/><path class="cls-2" d="M60,66.42v37.34l13,7.5a.85.85,0,0,0,.87,0l13-7.5V66.42l-13-7.52a.91.91,0,0,0-.82,0Z"/><path class="cls-10" d="M46.55,93.94l13-7.51a.91.91,0,0,1,.82,0l13,7.51-13,7.52a.91.91,0,0,1-.82,0Z"/><path class="cls-11" d="M60,119a.83.83,0,0,1-.44-.12l-13-7.5V93.94l13,7.5a.83.83,0,0,0,.44.12"/><path class="cls-12" d="M60,101.56a.82.82,0,0,0,.43-.12l13-7.5v17.44l-13,7.5A.82.82,0,0,1,60,119"/><path class="cls-13" d="M46.55,93.94v17.44l13,7.5a.85.85,0,0,0,.87,0l13-7.5V93.94l-13-7.51a.93.93,0,0,0-.83,0Z"/><rect class="cls-14" width="120" height="120"/><rect class="cls-14" width="120" height="120"/><line class="cls-12" x1="39.76" y1="41.46" x2="59.76" y2="29.91"/></g></g></svg>