<svg xmlns="http://www.w3.org/2000/svg" viewBox="0 0 120 120"><defs><style>.cls-1,.cls-10,.cls-12,.cls-2,.cls-7,.cls-8,.cls-9{fill:none;}.cls-1,.cls-2{stroke:#a7b23b;}.cls-1,.cls-10,.cls-2,.cls-4,.cls-7,.cls-8,.cls-9{stroke-linecap:round;stroke-linejoin:round;stroke-width:2px;}.cls-2{stroke-dasharray:0 6.11;}.cls-3{fill:#98b9ea;}.cls-4{fill:#436db5;}.cls-10,.cls-4,.cls-9{stroke:#436db5;}.cls-5{fill:#fff;}.cls-6{fill:#deeaff;}.cls-7{stroke:#98b9ea;}.cls-8{stroke:#deeaff;}.cls-10{stroke-dasharray:0 6.02;}.cls-11{fill:#dfeab0;}</style></defs><title>recreational-products</title><g id="Layer_2" data-name="Layer 2"><g id="Industries"><line class="cls-1" x1="49.67" y1="12.72" x2="49.67" y2="12.72"/><path class="cls-2" d="M43.91,12.88c-6.54,4.4-11.5,23.26-12.65,49.29"/><line class="cls-1" x1="31.14" y1="65.22" x2="31.14" y2="65.22"/><path class="cls-3" d="M116.72,53.36l-13.52.15.15,1.11C99,57.3,89.83,62.62,80.57,68c-16,9.21-29.27-9.34-61,9C11.62,81.54,7,86.29,4.78,90.88L3.28,91v6.24h0c0,6.21,4.36,11.73,10.91,15.51,13.28,7.67,39,10.15,61.88-3.08,11.62-6.71,14.69-12,14.69-16.45h0V86.92L89.14,87c-2.09-4.64-4.65-8.48,2.54-12.62,10.11-5.84,20.2-11.63,24.29-13.79a1.16,1.16,0,0,0,.74-1h0Z"/><path class="cls-4" d="M89.1,86.92H7.27a21.18,21.18,0,0,0-2.49,4L3.28,91v6.24h0c0,6.21,4.36,11.73,10.91,15.51,13.28,7.67,39,10.15,61.88-3.08,11.62-6.71,14.69-12,14.69-16.45h0V86.92L89.14,87A.3.3,0,0,0,89.1,86.92Z"/><path class="cls-3" d="M39.1,86.92H7.27a21.18,21.18,0,0,0-2.49,4L3.28,91v6.24h0c0,6.21,4.36,11.73,10.91,15.51,6.14,3.55,15,6,24.9,6.27Z"/><path class="cls-5" d="M111.92,50,116,52.42c.93.54.9,1.41-.07,1.93-4.09,2.15-14.18,7.94-24.29,13.78-16,9.22,16.17,16.9-15.6,35.24-22.93,13.24-48.6,10.76-61.88,3.09S-3.39,84,19.53,70.73c31.77-18.34,45.08.21,61-9,10.11-5.84,20.14-11.66,23.88-14a3.59,3.59,0,0,1,3.34,0Z"/><path class="cls-6" d="M109.94,57.09,99.19,50.88,97.34,52a1,1,0,0,0,.35.37l10.73,6.19,1.88-1.06A1,1,0,0,0,109.94,57.09Z"/><path class="cls-7" d="M116,52.42c.93.54.9,1.41-.07,1.93-4.09,2.15-14.18,7.94-24.29,13.78-7.31,4.22-4.54,8.12-2.44,12.86"/><path class="cls-3" d="M14.2,106.46c13.28,7.67,39,10.15,61.88-3.09,13.4-7.73,15.43-13.57,14.49-18.43L51.46,62.36c-8.41-.54-18.53.63-31.93,8.37C-3.39,84,.91,98.78,14.2,106.46Z"/><path class="cls-8" d="M51.46,62.36c-8.41-.54-18.53.63-31.93,8.37C-3.39,84,.91,98.78,14.2,106.46s39,10.15,61.88-3.09c13.4-7.73,15.43-13.57,14.49-18.43"/><line class="cls-8" x1="90.57" y1="84.94" x2="51.46" y2="62.36"/><path class="cls-9" d="M116.71,53.36a1.14,1.14,0,0,0-.67-.94L111.92,50l-4.13-2.38a3.59,3.59,0,0,0-3.34,0c-3.74,2.36-13.77,8.18-23.88,14-9.22,5.33-17.57,1.39-29.09.65h0l-.53,0-.68,0-1.18,0h-.63c-.53,0-1.06,0-1.59,0h-.27c-.63,0-1.26,0-1.91.09l-.58,0-1.39.13-.74.09-1.32.19-.79.13-1.37.26-.78.16-1.61.39-.6.14c-.74.2-1.5.42-2.27.66l-.49.17c-.61.2-1.23.41-1.86.64l-.84.32-1.6.63-.95.4-1.61.72-1,.45-1.78.89-.86.44c-.9.48-1.8,1-2.73,1.51C7.91,77.44,3.29,84.56,3.29,91h0v6.24h0c0,6.21,4.36,11.73,10.91,15.51,13.28,7.67,39,10.15,61.88-3.08,11.62-6.71,14.69-12,14.69-16.45h0V86.92h0v-.18c0-.28,0-.55,0-.82a.77.77,0,0,1,0-.15c-.34-3-1.92-5.6-2.93-8a10.92,10.92,0,0,1,3.91-3.36c10.11-5.84,20.2-11.63,24.29-13.79a1.16,1.16,0,0,0,.74-1h0V53.36Z"/><line class="cls-8" x1="84.38" y1="63.92" x2="87.87" y2="65.93"/><line class="cls-9" x1="73.08" y1="94.42" x2="73.08" y2="94.42"/><path class="cls-10" d="M73,88.4c-.64-30-6.05-55.23-13.3-67.3"/><line class="cls-9" x1="58.04" y1="18.61" x2="58.04" y2="18.61"/><circle class="cls-5" cx="49.08" cy="12.08" r="11.08"/><path class="cls-11" d="M49.08,1A11.08,11.08,0,1,0,60.16,12.08,11.08,11.08,0,0,0,49.08,1Z"/><ellipse class="cls-5" cx="46.87" cy="9.87" rx="8.47" ry="7.38" transform="translate(6.75 36.03) rotate(-45)"/><circle class="cls-1" cx="49.08" cy="12.08" r="11.08"/><circle class="cls-1" cx="49.08" cy="12.08" r="11.08"/><rect class="cls-12" width="120" height="120"/><rect class="cls-12" width="120" height="120"/></g></g></svg>