<svg xmlns="http://www.w3.org/2000/svg" viewBox="0 0 120 120"><defs><style>.cls-1,.cls-5{fill:#deeaff;}.cls-10,.cls-11,.cls-2,.cls-3,.cls-9{fill:none;}.cls-10,.cls-2,.cls-9{stroke:#436db5;}.cls-10,.cls-2,.cls-3,.cls-4,.cls-5,.cls-7,.cls-8,.cls-9{stroke-linecap:round;stroke-linejoin:round;stroke-width:2px;}.cls-3{stroke:#fff;}.cls-4,.cls-7{fill:#fff;}.cls-4{stroke:#c4d36c;}.cls-5,.cls-7{stroke:#98b9ea;}.cls-6,.cls-8{fill:#98b9ea;}.cls-8{stroke:#deeaff;}.cls-9{stroke-dasharray:0 5.49;}.cls-10{stroke-dasharray:0 5.46;}</style></defs><title>reference-architecture</title><g id="Layer_2" data-name="Layer 2"><g id="Tech_Concepts" data-name="Tech Concepts"><polygon class="cls-1" points="1 75.96 60.71 110.44 119 76.78 59.29 42.31 1 75.96"/><polygon class="cls-2" points="1 75.96 60.71 110.44 119 76.78 59.29 42.31 1 75.96"/><line class="cls-3" x1="15.01" y1="76.38" x2="45" y2="93.7"/><line class="cls-3" x1="22.5" y1="72.05" x2="52.5" y2="89.37"/><line class="cls-3" x1="30" y1="67.72" x2="60" y2="85.04"/><line class="cls-3" x1="37.5" y1="63.39" x2="67.5" y2="80.71"/><line class="cls-3" x1="75" y1="76.38" x2="45" y2="93.7"/><line class="cls-3" x1="67.5" y1="72.04" x2="37.5" y2="89.36"/><line class="cls-3" x1="60" y1="67.71" x2="30" y2="85.03"/><line class="cls-3" x1="52.5" y1="63.38" x2="22.5" y2="80.7"/><line class="cls-3" x1="45" y1="59.04" x2="15" y2="76.36"/><line class="cls-3" x1="45" y1="59.04" x2="75" y2="76.38"/><line class="cls-3" x1="30.01" y1="67.72" x2="60" y2="85.03"/><line class="cls-3" x1="37.5" y1="63.39" x2="67.5" y2="80.71"/><line class="cls-3" x1="45" y1="59.06" x2="75" y2="76.38"/><line class="cls-3" x1="52.5" y1="54.73" x2="82.5" y2="72.05"/><line class="cls-3" x1="90" y1="67.72" x2="60" y2="85.04"/><line class="cls-3" x1="82.5" y1="63.38" x2="52.5" y2="80.7"/><line class="cls-3" x1="75" y1="59.05" x2="45" y2="76.37"/><line class="cls-3" x1="67.5" y1="54.71" x2="37.5" y2="72.03"/><line class="cls-3" x1="60" y1="50.38" x2="30" y2="67.7"/><line class="cls-3" x1="60" y1="50.38" x2="90" y2="67.72"/><line class="cls-3" x1="30.01" y1="85.05" x2="60.01" y2="102.36"/><line class="cls-3" x1="37.51" y1="80.72" x2="67.5" y2="98.03"/><line class="cls-3" x1="45" y1="76.39" x2="75" y2="93.71"/><line class="cls-3" x1="52.5" y1="72.06" x2="82.5" y2="89.38"/><line class="cls-3" x1="90" y1="85.05" x2="60" y2="102.37"/><line class="cls-3" x1="82.5" y1="80.71" x2="52.5" y2="98.03"/><line class="cls-3" x1="75" y1="76.38" x2="45" y2="93.7"/><line class="cls-3" x1="67.5" y1="72.04" x2="37.5" y2="89.36"/><line class="cls-3" x1="60" y1="67.71" x2="30" y2="85.03"/><line class="cls-3" x1="60" y1="67.71" x2="90" y2="85.05"/><line class="cls-3" x1="45.01" y1="76.38" x2="75.01" y2="93.7"/><line class="cls-3" x1="52.51" y1="72.05" x2="82.5" y2="89.37"/><line class="cls-3" x1="60" y1="67.73" x2="90" y2="85.04"/><line class="cls-3" x1="67.5" y1="63.4" x2="97.5" y2="80.71"/><line class="cls-3" x1="105" y1="76.39" x2="75" y2="93.71"/><line class="cls-3" x1="97.5" y1="72.05" x2="67.5" y2="89.37"/><line class="cls-3" x1="90" y1="67.72" x2="60" y2="85.04"/><line class="cls-3" x1="82.5" y1="63.38" x2="52.5" y2="80.7"/><line class="cls-3" x1="75" y1="59.05" x2="45" y2="76.37"/><line class="cls-3" x1="75" y1="59.05" x2="105" y2="76.39"/><polygon class="cls-2" points="29.64 76.28 60 58.76 90.36 76.46 60 93.99 29.64 76.28"/><path class="cls-4" d="M89,36.14,62.29,20.69a5.38,5.38,0,0,0-4.88,0L30.65,36.14c-1.34.77-1.34,2,0,2.81L57.41,54.4a5.38,5.38,0,0,0,4.88,0L89,39C90.39,38.17,90.39,36.91,89,36.14Z"/><path class="cls-5" d="M73.22,27,62.29,20.69a5.38,5.38,0,0,0-4.88,0L46.48,27H29.64V37.54a1.72,1.72,0,0,0,1,1.41L57.41,54.4a5.38,5.38,0,0,0,4.88,0L89,39a1.72,1.72,0,0,0,1-1.41V27Z"/><path class="cls-6" d="M62.29,54.4,89,39a1.72,1.72,0,0,0,1-1.41V27H73.22L62.29,20.69a5,5,0,0,0-2.44-.58V55A5,5,0,0,0,62.29,54.4Z"/><line class="cls-5" x1="47.99" y1="44.09" x2="40.08" y2="39.52"/><path class="cls-7" d="M89,25.59,62.29,10.15a5.38,5.38,0,0,0-4.88,0L30.65,25.59c-1.34.78-1.34,2,0,2.82L57.41,43.86a5.44,5.44,0,0,0,4.88,0L89,28.41C90.39,27.63,90.39,26.37,89,25.59Z"/><polygon class="cls-8" points="82.78 42.57 68.64 50.73 68.64 45.86 82.78 37.7 82.78 42.57"/><path class="cls-2" d="M89,25.59,62.29,10.15a5.38,5.38,0,0,0-4.88,0L30.65,25.59a1.72,1.72,0,0,0-1,1.41V37.54a1.72,1.72,0,0,0,1,1.41L57.41,54.4a5,5,0,0,0,2.44.58,5,5,0,0,0,2.44-.58L89,39a1.72,1.72,0,0,0,1-1.41V27A1.72,1.72,0,0,0,89,25.59Z"/><ellipse class="cls-6" cx="83.15" cy="27" rx="1.37" ry="0.79"/><ellipse class="cls-6" cx="59.85" cy="40.45" rx="1.37" ry="0.79"/><ellipse class="cls-6" cx="59.85" cy="13.55" rx="1.37" ry="0.79"/><ellipse class="cls-6" cx="36.55" cy="27" rx="1.37" ry="0.79"/><line class="cls-2" x1="90.05" y1="43.54" x2="90.05" y2="43.54"/><line class="cls-9" x1="90.05" y1="49.03" x2="90.05" y2="73.72"/><line class="cls-2" x1="90.05" y1="76.46" x2="90.05" y2="76.46"/><line class="cls-2" x1="29.64" y1="42.97" x2="29.64" y2="42.97"/><line class="cls-10" x1="29.64" y1="48.43" x2="29.64" y2="67.55"/><line class="cls-2" x1="29.64" y1="70.28" x2="29.64" y2="70.28"/><rect class="cls-11" width="120" height="120"/><rect class="cls-11" width="120" height="120"/></g></g></svg>