<svg xmlns="http://www.w3.org/2000/svg" viewBox="0 0 120 120"><defs><style>.cls-1,.cls-9{fill:#deeaff;}.cls-1,.cls-10,.cls-3{stroke:#98b9ea;}.cls-1,.cls-10,.cls-3,.cls-4,.cls-6,.cls-7,.cls-8,.cls-9{stroke-linecap:round;stroke-linejoin:round;stroke-width:2px;}.cls-2{fill:#98b9ea;}.cls-3,.cls-5{fill:#fff;}.cls-10,.cls-11,.cls-4,.cls-7,.cls-8{fill:none;}.cls-4{stroke:#436db5;}.cls-6{fill:#c4d36c;stroke:#dfeab0;}.cls-7{stroke:#a7b23b;}.cls-8,.cls-9{stroke:#deeaff;}</style></defs><title>rental-&amp;amp;-leasing</title><g id="Layer_2" data-name="Layer 2"><g id="Industries"><path class="cls-1" d="M37.54,2.85v70.7c0,1,1.43,1.85,3.21,1.85s3.2-.83,3.2-1.85V2.85Z"/><path class="cls-2" d="M40.7,75.4h0c1.77,0,3.2-.83,3.2-1.85V2.85H40.7Z"/><ellipse class="cls-3" cx="40.75" cy="2.85" rx="3.21" ry="1.85"/><path class="cls-4" d="M40.75,1c-1.78,0-3.21.83-3.21,1.85v70.7c0,1,1.43,1.85,3.21,1.85s3.2-.83,3.2-1.85V2.85C44,1.83,42.52,1,40.75,1Z"/><polygon class="cls-5" points="46.1 92.53 52.39 89.97 52.39 79.29 46.1 82.92 46.1 92.53"/><polygon class="cls-6" points="46.1 98.13 52.39 94.5 52.39 84.25 46.1 87.88 46.1 98.13"/><polygon class="cls-5" points="67.61 80.11 73.9 76.48 73.9 66.87 67.61 70.5 67.61 80.11"/><polygon class="cls-6" points="67.61 85.71 73.9 82.08 73.9 71.83 67.61 75.46 67.61 85.71"/><polygon class="cls-7" points="46.1 87.45 46.1 92.53 46.1 98.13 52.39 94.5 52.39 89.97 52.39 83.82 52.39 79.29 46.1 82.92 46.1 87.45"/><polygon class="cls-7" points="67.61 75.03 67.61 80.11 67.61 85.71 73.9 82.08 73.9 76.48 73.9 71.4 73.9 66.87 67.61 70.5 67.61 75.03"/><path class="cls-5" d="M85.22,46.26l-1-1.18.23-1.92-4.41-2.55h0c-.48-.29-1.24.23-1.65,1.18l-4.26,10a2.73,2.73,0,0,0-.23,1.05V91.61l4.42,2.55.56-4.57,1.17-.67,5.4-3.12V47A1.21,1.21,0,0,0,85.22,46.26Z"/><path class="cls-6" d="M89.12,87.92,83.72,91l-5.4,3.12V55.4a2.73,2.73,0,0,1,.23-1l4.26-10c.46-1.07,1.36-1.59,1.82-1.05l4.26,5.08a1.21,1.21,0,0,1,.23.78V87.92Z"/><path class="cls-7" d="M88.89,48.38,84.63,43.3a.52.52,0,0,0-.17-.13h0l-4.41-2.55h0c-.49-.29-1.25.23-1.65,1.18l-4.27,10a2.73,2.73,0,0,0-.23,1.05V91.61l4.42,2.55h0L83.72,91l5.4-3.12V49.16A1.21,1.21,0,0,0,88.89,48.38Z"/><path class="cls-5" d="M42.19,71.1l-1-1.18L41.44,68,37,65.45h0c-.48-.29-1.24.23-1.65,1.18l-4.26,10a2.73,2.73,0,0,0-.23,1v38.76L35.3,119l.56-4.57,1.16-.67,5.4-3.12V71.88A1.21,1.21,0,0,0,42.19,71.1Z"/><path class="cls-6" d="M46.1,112.76l-5.4,3.12L35.3,119V80.24a2.91,2.91,0,0,1,.22-1l4.27-10c.45-1.07,1.36-1.59,1.81-1l4.27,5.08a1.21,1.21,0,0,1,.23.78v38.76Z"/><path class="cls-7" d="M45.87,73.22,41.6,68.14a.4.4,0,0,0-.16-.13h0L37,65.45h0c-.48-.29-1.24.23-1.65,1.18l-4.26,10a2.73,2.73,0,0,0-.23,1v38.76L35.3,119h0l5.4-3.12,5.4-3.12V74A1.21,1.21,0,0,0,45.87,73.22Z"/><path class="cls-5" d="M63.71,58.68l-1-1.18L63,55.58,58.53,53h0c-.48-.29-1.24.23-1.65,1.18l-4.26,10a2.73,2.73,0,0,0-.23,1V104l4.42,2.55.56-4.57,1.16-.67,5.41-3.12V59.46A1.21,1.21,0,0,0,63.71,58.68Z"/><path class="cls-6" d="M67.61,100.34l-5.4,3.12-5.4,3.12V67.82a2.73,2.73,0,0,1,.23-1l4.26-10c.46-1.07,1.36-1.59,1.82-1.05l4.26,5.08a1.21,1.21,0,0,1,.23.78v38.76Z"/><path class="cls-7" d="M67.38,60.8l-4.26-5.08a.52.52,0,0,0-.17-.13h0L58.53,53h0c-.48-.29-1.24.23-1.65,1.18l-4.26,10a2.73,2.73,0,0,0-.23,1V104l4.42,2.55h0l5.4-3.12,5.4-3.12V61.58A1.21,1.21,0,0,0,67.38,60.8Z"/><line class="cls-4" x1="43.95" y1="10.18" x2="47.96" y2="12.5"/><line class="cls-4" x1="43.95" y1="25.85" x2="47.96" y2="28.16"/><path class="cls-5" d="M51.07,37.24,81.86,55c1.34.78,2.43,0,2.43-1.83V26.75a5.85,5.85,0,0,0-2.43-4.65L51.07,4.33c-1.34-.77-2.43,0-2.43,1.84V32.59A5.83,5.83,0,0,0,51.07,37.24Z"/><path class="cls-4" d="M51.07,37.24,81.86,55c1.34.78,2.43,0,2.43-1.83V26.75a5.85,5.85,0,0,0-2.43-4.65L51.07,4.33c-1.34-.77-2.43,0-2.43,1.84V32.59A5.83,5.83,0,0,0,51.07,37.24Z"/><path class="cls-8" d="M52.07,35.51a3.94,3.94,0,0,1-1.43-2.92V6.4L80.86,23.84a4,4,0,0,1,1.43,2.91V53Z"/><polygon class="cls-9" points="76.95 27.75 55.98 15.64 55.98 22.89 76.95 35 76.95 27.75"/><line class="cls-10" x1="55.98" y1="30.88" x2="76.95" y2="42.98"/><rect class="cls-11" width="120" height="120"/><rect class="cls-11" width="120" height="120"/></g></g></svg>