<svg xmlns="http://www.w3.org/2000/svg" viewBox="0 0 120 120"><defs><style>.cls-1,.cls-11,.cls-14,.cls-16,.cls-19,.cls-2,.cls-8{fill:none;}.cls-1,.cls-4,.cls-7{stroke:#c4d36c;}.cls-1,.cls-11,.cls-14,.cls-15,.cls-16,.cls-17,.cls-2,.cls-4,.cls-7,.cls-8,.cls-9{stroke-linecap:round;stroke-linejoin:round;stroke-width:2px;}.cls-2{stroke:#a7b23b;}.cls-3,.cls-4{fill:#dfeab0;}.cls-5{fill:#c4d36c;}.cls-15,.cls-17,.cls-6,.cls-7,.cls-9{fill:#fff;}.cls-8,.cls-9{stroke:#dfeab0;}.cls-10{fill:#a7b23b;}.cls-11{stroke:#436db5;}.cls-12{fill:#deeaff;}.cls-13{fill:#98b9ea;}.cls-14,.cls-15{stroke:#98b9ea;}.cls-16,.cls-17{stroke:#deeaff;}.cls-18{fill:#436db5;}</style></defs><title>restaurants</title><g id="Layer_2" data-name="Layer 2"><g id="Industries"><path class="cls-1" d="M101.69,83.87h0L96.81,25.38H59L54.11,83.87h0c0,.23-.06.45-.06.68,0,7.6,10.67,13.76,23.84,13.76s23.83-6.16,23.83-13.76C101.75,84.32,101.71,84.1,101.69,83.87Z"/><path class="cls-2" d="M101.69,83.87h0L96.81,25.38H59L54.11,83.87h0c0,.23-.06.45-.06.68,0,7.6,10.67,13.76,23.84,13.76s23.83-6.16,23.83-13.76C101.75,84.32,101.71,84.1,101.69,83.87Z"/><path class="cls-3" d="M77.92,94.34c-11.37,0-19.87-5.17-19.87-9.79l.05-.34c0-.17,0-.33,0-.5l4.57-54.36H93.15l4.57,54.37a4,4,0,0,0,0,.49l0,.35C97.78,89.17,89.28,94.34,77.92,94.34Z"/><path class="cls-4" d="M93.71,19.91C90.33,17,84.52,15,77.92,15S65.51,17,62.12,19.91H59v6c0,6,8.47,10.92,18.92,10.92S96.83,32,96.83,25.92v-6Z"/><path class="cls-5" d="M77.92,15h0V36.84h0c10.44,0,18.91-4.89,18.91-10.92v-6H93.71C90.33,17,84.52,15,77.92,15Z"/><path class="cls-1" d="M93.71,19.91C90.33,17,84.52,15,77.92,15S65.51,17,62.12,19.91H59v6c0,6,8.47,10.92,18.92,10.92S96.83,32,96.83,25.92v-6Z"/><path class="cls-6" d="M77.92,1A18.91,18.91,0,0,1,96.83,19.91c0,6-8.47,10.93-18.91,10.93S59,26,59,19.91A18.92,18.92,0,0,1,77.92,1Z"/><path class="cls-3" d="M77.92,14.42c0-8.4,11-12,15.68-5.08a18.83,18.83,0,0,1,3.23,10.57c0,6-8.47,10.92-18.91,10.93Z"/><path class="cls-1" d="M77.92,1A18.92,18.92,0,0,0,59,19.91c0,6,8.47,10.93,18.92,10.93S96.83,26,96.83,19.91A18.91,18.91,0,0,0,77.92,1Z"/><path class="cls-2" d="M77.92,1A18.92,18.92,0,0,0,59,19.91v6c0,6,8.47,10.92,18.92,10.92S96.83,32,96.83,25.92v-6A18.91,18.91,0,0,0,77.92,1Z"/><path class="cls-7" d="M77.92,93c-11.06,0-18.43-5-18.54-8.39l0-.24a4.94,4.94,0,0,0,0-.65L60.86,66.8H95l1.43,17a3.79,3.79,0,0,0,0,.58l0,.3a4.68,4.68,0,0,1-1.61,3C92.36,90.12,86.44,93,77.92,93Z"/><path class="cls-3" d="M96.4,83.75,95,66.8h-17V93c8.52,0,14.44-2.9,16.92-5.39a4.68,4.68,0,0,0,1.61-3l0-.3A3.79,3.79,0,0,1,96.4,83.75Z"/><path class="cls-8" d="M77.92,93c-11.06,0-18.43-5-18.54-8.39l0-.24a4.94,4.94,0,0,0,0-.65L60.86,66.8H95l1.43,17a3.79,3.79,0,0,0,0,.58l0,.3a4.68,4.68,0,0,1-1.61,3C92.36,90.12,86.44,93,77.92,93Z"/><path class="cls-9" d="M77.91,74.7C68.72,74.7,61,70.48,61,65.48s7.76-9.23,16.95-9.23,17,4.22,17,9.23S87.1,74.7,77.91,74.7Z"/><path class="cls-1" d="M96.42,84.33a3.79,3.79,0,0,1,0-.58L95,66.8s-.11-.87-.11-1.32c0-5-7.76-9.23-17-9.23S61,60.47,61,65.48a4.55,4.55,0,0,0,.21,1.32h-.31L59.43,83.74a4.94,4.94,0,0,1,0,.65l0,.24C59.49,88,66.86,93,77.92,93c8.52,0,14.44-2.9,16.92-5.39a4.68,4.68,0,0,0,1.61-3Z"/><ellipse class="cls-10" cx="77.92" cy="4.87" rx="1.5" ry="0.87"/><ellipse class="cls-10" cx="68.76" cy="8.81" rx="1.37" ry="1.02" transform="translate(3.21 31.36) rotate(-26.28)"/><ellipse class="cls-10" cx="77.92" cy="13.94" rx="1.5" ry="0.98"/><ellipse class="cls-10" cx="87.08" cy="8.81" rx="1.02" ry="1.37" transform="translate(40.63 82.99) rotate(-63.72)"/><path class="cls-6" d="M65.86,104.56h0L61,46.07H23.19l-4.91,58.49h0c0,.23-.06.45-.06.68,0,7.6,10.67,13.76,23.83,13.76s23.84-6.16,23.84-13.76C65.92,105,65.88,104.79,65.86,104.56Z"/><path class="cls-1" d="M65.86,104.56h0L61,46.07H23.19l-4.91,58.49h0c0,.23-.06.45-.06.68,0,7.6,10.67,13.76,23.83,13.76s23.84-6.16,23.84-13.76C65.92,105,65.88,104.79,65.86,104.56Z"/><path class="cls-11" d="M65.86,104.56h0L61,46.07H23.19l-4.91,58.49h0c0,.23-.06.45-.06.68,0,7.6,10.67,13.76,23.83,13.76s23.84-6.16,23.84-13.76C65.92,105,65.88,104.79,65.86,104.56Z"/><path class="cls-12" d="M42.08,115c-11.36,0-19.86-5.17-19.86-9.79l0-.34a4.26,4.26,0,0,0,0-.5L26.85,50H57.32l4.57,54.36c0,.17,0,.33,0,.5l0,.35C62,109.86,53.45,115,42.08,115Z"/><path class="cls-12" d="M42.08,115c-11.36,0-19.86-5.17-19.86-9.79l0-.34a4.26,4.26,0,0,0,0-.5L26.85,50H57.32l4.57,54.36c0,.17,0,.33,0,.5l0,.35C62,109.86,53.45,115,42.08,115Z"/><path class="cls-12" d="M61.89,104.4,57.32,50H42.08v65h0c11.37,0,19.87-5.17,19.86-9.78l0-.35C61.89,104.73,61.89,104.57,61.89,104.4Z"/><path class="cls-12" d="M57.88,40.6c-3.39-3-9.19-4.92-15.8-4.92s-12.41,2-15.79,4.92H23.17v6c0,6,8.47,10.93,18.91,10.93S61,52.64,61,46.6v-6Z"/><path class="cls-13" d="M42.08,35.68h0V57.53h0C52.53,57.53,61,52.64,61,46.6v-6H57.88C54.49,37.64,48.69,35.68,42.08,35.68Z"/><path class="cls-1" d="M57.88,40.6c-3.39-3-9.19-4.92-15.8-4.92s-12.41,2-15.79,4.92H23.17v6c0,6,8.47,10.93,18.91,10.93S61,52.64,61,46.6v-6Z"/><path class="cls-6" d="M42.08,21.69A18.92,18.92,0,0,1,61,40.6c0,6-8.47,10.92-18.92,10.92S23.17,46.63,23.17,40.6A18.91,18.91,0,0,1,42.08,21.69Z"/><path class="cls-12" d="M42.09,35.1c0-8.4,11-12,15.68-5.07A18.83,18.83,0,0,1,61,40.6c0,6-8.47,10.92-18.91,10.92Z"/><path class="cls-14" d="M42.08,21.69A18.91,18.91,0,0,0,23.17,40.6c0,6,8.47,10.92,18.91,10.92S61,46.63,61,40.6A18.92,18.92,0,0,0,42.08,21.69Z"/><path class="cls-11" d="M42.08,21.69A18.91,18.91,0,0,0,23.17,40.6v6c0,6,8.47,10.93,18.91,10.93S61,52.64,61,46.6v-6A18.92,18.92,0,0,0,42.08,21.69Z"/><path class="cls-15" d="M42.08,113.7c-11,0-18.42-5-18.53-8.38l0-.24a5,5,0,0,0,0-.65l2.46-29.36h32l2.47,29.37a5.42,5.42,0,0,0,0,.57l0,.31a4.72,4.72,0,0,1-1.61,3C56.53,110.8,50.61,113.7,42.08,113.7Z"/><path class="cls-12" d="M60.57,104.44,58.1,75.07h-16V113.7h0c8.53,0,14.45-2.9,16.93-5.38a4.72,4.72,0,0,0,1.61-3l0-.31A5.42,5.42,0,0,1,60.57,104.44Z"/><path class="cls-16" d="M42.08,113.7c-11,0-18.42-5-18.53-8.38l0-.24a5,5,0,0,0,0-.65l2.46-29.36h32l2.47,29.37a5.42,5.42,0,0,0,0,.57l0,.31a4.72,4.72,0,0,1-1.61,3C56.53,110.8,50.61,113.7,42.08,113.7Z"/><path class="cls-17" d="M42.08,83.19c-8.54,0-16-3.79-16-8.12S33.54,67,42.08,67s16,3.8,16,8.12S50.62,83.19,42.08,83.19Z"/><ellipse class="cls-18" cx="42.08" cy="26.56" rx="2.65" ry="1.53"/><path class="cls-14" d="M60.58,105a5.42,5.42,0,0,1,0-.57L58.1,75.07c0-4.32-7.48-8.12-16-8.12s-16,3.8-16,8.12L23.6,104.43a5,5,0,0,1,0,.65l0,.24c.11,3.37,7.48,8.38,18.53,8.38,8.53,0,14.45-2.9,16.93-5.38a4.72,4.72,0,0,0,1.61-3Z"/><rect class="cls-19" width="120" height="120"/><rect class="cls-19" width="120" height="120"/></g></g></svg>