<svg xmlns="http://www.w3.org/2000/svg" viewBox="0 0 120 120"><defs><style>.cls-1,.cls-13,.cls-14,.cls-15,.cls-2,.cls-3,.cls-7{fill:none;}.cls-1,.cls-2,.cls-3{stroke:#a7b23b;}.cls-1,.cls-11,.cls-13,.cls-14,.cls-2,.cls-3,.cls-7,.cls-8{stroke-linecap:round;stroke-linejoin:round;stroke-width:2px;}.cls-2{stroke-dasharray:0 6.02;}.cls-3{stroke-dasharray:0 6.23;}.cls-4{fill:#dfeab0;}.cls-5{fill:#a7b23b;}.cls-6,.cls-8{fill:#fff;}.cls-7{stroke:#c4d36c;}.cls-11,.cls-13,.cls-8{stroke:#98b9ea;}.cls-9{fill:#436db5;}.cls-10,.cls-11{fill:#deeaff;}.cls-12{fill:#98b9ea;}.cls-14{stroke:#436db5;}</style></defs><title>retail</title><g id="Layer_2" data-name="Layer 2"><g id="Industries"><line class="cls-1" x1="43.26" y1="69.98" x2="43.26" y2="69.98"/><line class="cls-2" x1="38.05" y1="72.99" x2="14.6" y2="86.53"/><line class="cls-1" x1="12" y1="88.04" x2="12" y2="88.04"/><line class="cls-3" x1="17.39" y1="91.15" x2="52.44" y2="111.38"/><line class="cls-1" x1="55.13" y1="112.94" x2="55.13" y2="112.94"/><line class="cls-2" x1="60.35" y1="109.93" x2="83.8" y2="96.39"/><line class="cls-1" x1="86.4" y1="94.89" x2="86.4" y2="94.89"/><path class="cls-4" d="M27.49,88.9l26.39,15.23a2,2,0,0,0,1.8,0L71.57,95a.55.55,0,0,0,0-1L45.18,78.68a2,2,0,0,0-1.8,0L27.49,87.86C27,88.14,27,88.61,27.49,88.9Z"/><polygon class="cls-5" points="37.2 82.25 65.39 98.52 68.85 96.53 40.66 80.25 37.2 82.25"/><polygon class="cls-6" points="44.86 94.1 55.96 100.51 59.15 98.66 48.05 92.25 44.86 94.1"/><path class="cls-1" d="M27.49,88.9l26.39,15.23a2,2,0,0,0,1.8,0L71.57,95a.55.55,0,0,0,0-1L45.18,78.68a2,2,0,0,0-1.8,0L27.49,87.86C27,88.14,27,88.61,27.49,88.9Z"/><line class="cls-7" x1="42.64" y1="90.9" x2="37.46" y2="87.9"/><polygon class="cls-8" points="86.4 94.89 43.27 69.98 46.98 13.47 82.68 34.08 86.4 94.89"/><ellipse class="cls-9" cx="73.97" cy="37.64" rx="1.73" ry="3.05" transform="translate(-8.83 31.97) rotate(-23.05)"/><ellipse class="cls-9" cx="56.26" cy="27.23" rx="1.73" ry="3.05" transform="translate(-6.17 24.2) rotate(-23.05)"/><polygon class="cls-10" points="86.4 94.89 43.27 69.98 44.01 57.73 85.65 82.63 86.4 94.89"/><polygon class="cls-11" points="108 82.42 97.2 88.65 86.4 94.89 84.54 64.49 82.68 34.08 93.48 27.85 104.28 21.61 106.14 52.02 108 82.42"/><polygon class="cls-12" points="86.4 94.89 108 82.42 107.25 70.16 85.65 82.63 86.4 94.89"/><line class="cls-13" x1="95.95" y1="68.13" x2="96.53" y2="77.6"/><polygon class="cls-10" points="104.28 21.61 82.68 34.08 46.98 13.47 68.58 1 104.28 21.61"/><polygon class="cls-12" points="68.58 1 46.98 13.47 67 25.03 68.58 1"/><polygon class="cls-13" points="104.28 21.61 82.68 34.08 46.98 13.47 68.58 1 104.28 21.61"/><path class="cls-13" d="M57.18,27.85a3,3,0,0,0-1.24,2.38V41.36c0,6.55,4,14.16,8.89,17h0c4.92,2.84,8.9-.17,8.9-6.72V40.5A3,3,0,0,1,75,38.13"/><polygon class="cls-14" points="104.28 21.61 68.58 1 46.98 13.47 43.27 69.98 86.4 94.89 108 82.42 104.28 21.61"/><line class="cls-11" x1="66.61" y1="33.39" x2="63.05" y2="31.34"/><rect class="cls-15" width="120" height="120"/><rect class="cls-15" width="120" height="120"/></g></g></svg>