<svg xmlns="http://www.w3.org/2000/svg" viewBox="0 0 120 120"><defs><style>.cls-1,.cls-11,.cls-4{fill:#fff;}.cls-1,.cls-2,.cls-3,.cls-6{stroke:#c4d36c;}.cls-1,.cls-10,.cls-13,.cls-15,.cls-16,.cls-17,.cls-2,.cls-3,.cls-4,.cls-6,.cls-9{stroke-linecap:round;stroke-linejoin:round;stroke-width:2px;}.cls-2,.cls-7{fill:#c4d36c;}.cls-3,.cls-5{fill:#dfeab0;}.cls-13,.cls-15,.cls-16,.cls-4{stroke:#98b9ea;}.cls-10,.cls-13,.cls-17,.cls-18,.cls-6,.cls-9{fill:none;}.cls-8{fill:#a7b23b;}.cls-9{stroke:#fff;}.cls-10{stroke:#a7b23b;}.cls-12,.cls-16{fill:#98b9ea;}.cls-14,.cls-15{fill:#deeaff;}.cls-17{stroke:#436db5;}</style></defs><title>ROBO</title><g id="Layer_2" data-name="Layer 2"><g id="Industries"><polygon class="cls-1" points="80.18 27.74 41.96 49.81 8.21 30.32 46.42 8.26 80.18 27.74"/><polygon class="cls-1" points="80.18 27.74 41.96 49.81 8.21 30.32 46.42 8.26 80.18 27.74"/><polygon class="cls-2" points="80.18 27.74 80.18 78.16 41.96 100.22 41.96 49.81 80.18 27.74"/><polygon class="cls-1" points="86.07 29.18 44.08 53.42 8.21 32.71 50.2 8.46 86.07 29.18"/><polygon class="cls-3" points="15.89 34.76 15.89 85.17 41.96 100.22 41.96 49.81 15.89 34.76"/><polygon class="cls-4" points="92.01 84.99 53.79 107.05 41.96 100.22 80.18 78.16 92.01 84.99"/><polygon class="cls-2" points="53.79 77.58 41.96 84.41 41.96 113.88 53.79 107.05 92.01 84.99 92.01 55.51 53.79 77.58"/><polygon class="cls-5" points="53.79 99.04 41.96 105.87 41.96 113.88 53.79 107.05 92.01 83.8 92.01 76.98 53.79 99.04"/><polygon class="cls-6" points="53.79 77.58 41.96 84.41 41.96 113.88 53.79 107.05 92.01 84.99 92.01 55.51 53.79 77.58"/><polygon class="cls-1" points="80.18 48.68 41.96 70.75 30.13 63.92 18.3 70.75 41.96 84.41 92.01 55.51 80.18 48.68"/><polygon class="cls-7" points="8.21 26.75 8.21 32.71 44.08 53.42 44.08 47.46 8.21 26.75"/><polygon class="cls-8" points="86.07 23.22 86.07 29.18 44.08 53.42 44.08 47.46 86.07 23.22"/><polygon class="cls-5" points="86.07 23.22 44.08 47.46 8.21 26.75 50.2 2.5 86.07 23.22"/><polygon class="cls-9" points="22.52 26.75 50.2 10.77 71.76 23.22 44.08 39.2 22.52 26.75"/><polygon class="cls-10" points="50.2 2.5 8.21 26.75 8.21 32.71 44.08 53.42 86.07 29.18 86.07 23.22 50.2 2.5"/><polygon class="cls-3" points="30.13 77.58 18.3 70.75 18.3 28.14 4.07 19.92 4.07 92 18.3 100.22 30.13 107.05 41.96 113.88 41.96 84.41 30.13 77.58"/><polygon class="cls-11" points="4.07 83.99 4.07 92 30.13 107.05 41.96 113.88 41.96 105.87 30.13 99.04 4.07 83.99"/><polygon class="cls-6" points="30.13 77.58 18.3 70.75 18.3 28.14 4.07 19.92 4.07 92 18.3 100.22 30.13 107.05 41.96 113.88 41.96 84.41 30.13 77.58"/><polygon class="cls-2" points="30.13 63.92 18.3 70.75 18.3 28.14 30.13 21.31 30.13 63.92"/><polygon class="cls-1" points="15.89 13.09 4.07 19.92 18.3 28.14 30.13 21.31 15.89 13.09"/><polygon class="cls-1" points="1 20.9 16.01 12.23 33.2 22.15 18.18 30.82 1 20.9"/><polygon class="cls-5" points="1 15.51 16.01 6.84 33.2 16.76 18.18 25.43 1 15.51"/><polygon class="cls-11" points="11.88 15.93 16.75 13.12 22.31 16.34 17.45 19.14 11.88 15.93"/><polygon class="cls-8" points="33.2 16.76 33.2 22.15 18.18 30.82 18.18 25.43 33.2 16.76"/><polygon class="cls-7" points="1 15.51 1 20.9 18.18 30.82 18.18 25.43 1 15.51"/><polygon class="cls-10" points="16.01 6.84 1 15.51 1 20.9 18.18 30.82 33.2 22.15 33.2 16.76 16.01 6.84"/><polygon class="cls-10" points="92.01 84.99 92.01 84.99 92.01 83.8 92.01 76.98 92.01 55.51 92.01 55.51 80.18 48.68 80.18 48.68 80.18 32.58 86.07 29.18 86.07 23.22 50.2 2.5 29.35 14.54 16.01 6.84 1 15.51 1 20.9 4.07 22.67 4.07 92 18.3 100.22 30.13 107.05 39.64 112.54 41.96 113.88 41.96 113.88 53.79 107.05 53.79 107.05 53.79 107.05 92.01 84.99"/><polygon class="cls-7" points="13.29 40.91 8.45 38.11 8.45 31.66 13.29 34.45 13.29 40.91"/><polygon class="cls-7" points="13.29 69.53 8.45 66.73 8.45 45.97 13.29 48.76 13.29 69.53"/><polygon class="cls-7" points="13.29 69.53 8.45 66.73 8.45 60.28 13.29 63.07 13.29 69.53"/><polygon class="cls-7" points="13.29 83.83 8.45 81.04 8.45 74.59 13.29 77.38 13.29 83.83"/><polygon class="cls-7" points="24.77 90.47 19.93 87.67 19.93 81.22 24.77 84.02 24.77 90.47"/><polygon class="cls-7" points="36.26 97.1 31.42 94.31 31.42 87.85 36.26 90.65 36.26 97.1"/><polygon class="cls-8" points="47.16 63.45 52 60.66 52 54.2 47.16 57 47.16 63.45"/><polygon class="cls-8" points="58.65 56.82 63.49 54.03 63.49 47.57 58.65 50.37 58.65 56.82"/><polygon class="cls-8" points="70.14 50.19 74.98 47.39 74.98 40.94 70.14 43.73 70.14 50.19"/><polygon class="cls-8" points="70.14 50.19 74.98 47.39 74.98 40.94 70.14 43.73 70.14 50.19"/><polygon class="cls-8" points="21.8 64.95 26.64 62.15 26.64 31.85 21.8 34.65 21.8 64.95"/><path class="cls-12" d="M119,87.76,108.29,66.34,82.77,81.07,73.85,88.6h0l-1.79,1.52,1.79,1v16l17.84,10.3,25.52-14.73v-14Z"/><polyline class="cls-13" points="72.06 90.11 82.77 81.07 93.49 102.49"/><polygon class="cls-4" points="73.85 88.6 73.85 107.2 91.69 117.5 91.69 99.06 82.77 81.07 73.85 88.6"/><polygon class="cls-14" points="91.69 117.5 73.85 107.2 73.85 102.11 91.69 112.41 91.69 117.5"/><polyline class="cls-15" points="97.57 75.39 108.28 66.34 119 87.76"/><polygon class="cls-15" points="99.36 92.47 117.21 102.77 117.21 84.33 99.36 74.03 99.36 92.47"/><polygon class="cls-15" points="117.21 102.77 91.69 117.5 91.69 99.06 117.21 84.33 117.21 102.77"/><polygon class="cls-12" points="91.69 117.5 117.21 102.77 117.21 97.68 91.69 112.41 91.69 117.5"/><polygon class="cls-16" points="93.49 102.49 119 87.76 108.28 66.34 82.77 81.07 93.49 102.49"/><polygon class="cls-17" points="93.49 102.49 119 87.76 108.28 66.34 82.77 81.07 93.49 102.49"/><path class="cls-17" d="M119,87.76,108.29,66.34,82.77,81.07,73.85,88.6h0l-1.79,1.52,1.79,1v16l17.84,10.3,25.52-14.73v-14Z"/><polygon class="cls-8" points="52.17 92.92 81.8 75.82 81.8 69.36 52.17 86.47 52.17 92.92"/><rect class="cls-18" width="120" height="120"/><rect class="cls-18" width="120" height="120"/></g></g></svg>