<svg xmlns="http://www.w3.org/2000/svg" viewBox="0 0 120 120"><defs><style>.cls-1,.cls-13,.cls-2,.cls-6,.cls-7,.cls-8,.cls-9{fill:none;}.cls-1,.cls-2,.cls-7{stroke:#a7b23b;}.cls-1,.cls-10,.cls-11,.cls-12,.cls-2,.cls-3,.cls-4,.cls-5,.cls-6,.cls-7,.cls-8,.cls-9{stroke-linecap:round;stroke-linejoin:round;stroke-width:2px;}.cls-2{stroke-dasharray:0 5.8;}.cls-3{fill:#dfeab0;}.cls-3,.cls-4,.cls-5{stroke:#fff;}.cls-4{fill:#c4d36c;}.cls-12,.cls-5{fill:#fff;}.cls-6{stroke:#c4d36c;}.cls-7{stroke-dasharray:0 5.79;}.cls-8,.cls-9{stroke:#436db5;}.cls-9{stroke-dasharray:0 5.08;}.cls-10{fill:#98b9ea;}.cls-10,.cls-11,.cls-12{stroke:#98b9ea;}.cls-11{fill:#deeaff;}</style></defs><title>robust-scalability</title><g id="Layer_2" data-name="Layer 2"><g id="New_Icon_Set" data-name="New Icon Set"><line class="cls-1" x1="31.18" y1="9.13" x2="31.18" y2="9.13"/><line class="cls-2" x1="36.2" y1="12.03" x2="68.84" y2="30.88"/><line class="cls-1" x1="71.36" y1="32.33" x2="71.36" y2="32.33"/><polygon class="cls-3" points="25.02 46.43 24.82 92.13 10.73 84 10.94 38.3 25.02 46.43"/><polygon class="cls-4" points="25.02 46.43 30.97 42.97 30.76 88.66 24.82 92.13 25.02 46.43"/><polygon class="cls-5" points="10.94 38.3 16.89 34.84 30.97 42.97 25.02 46.43 10.94 38.3"/><polygon class="cls-1" points="16.89 34.84 10.94 38.3 10.73 84 24.82 92.13 30.76 88.66 30.97 42.97 16.89 34.84"/><line class="cls-1" x1="13.89" y1="48.99" x2="10.9" y2="47.19"/><line class="cls-1" x1="13.89" y1="58.43" x2="10.9" y2="56.64"/><line class="cls-1" x1="13.89" y1="67.88" x2="10.9" y2="66.09"/><line class="cls-1" x1="13.89" y1="77.33" x2="10.9" y2="75.53"/><line class="cls-6" x1="18.49" y1="51.61" x2="18.29" y2="51.49"/><line class="cls-6" x1="18.49" y1="61.05" x2="18.29" y2="60.94"/><line class="cls-6" x1="18.49" y1="70.5" x2="18.29" y2="70.38"/><line class="cls-6" x1="18.49" y1="79.95" x2="18.29" y2="79.83"/><polygon class="cls-3" points="25.23 12.6 25.02 25.45 10.94 17.32 11.14 4.47 25.23 12.6"/><polygon class="cls-4" points="25.23 12.6 31.18 9.13 30.97 21.98 25.02 25.45 25.23 12.6"/><polygon class="cls-5" points="11.14 4.47 17.09 1 31.18 9.13 25.23 12.6 11.14 4.47"/><polygon class="cls-1" points="17.09 1 11.14 4.47 10.94 17.32 25.02 25.45 30.97 21.98 31.18 9.13 17.09 1"/><line class="cls-1" x1="14.1" y1="13.54" x2="11.1" y2="11.75"/><line class="cls-6" x1="18.69" y1="16.16" x2="18.49" y2="16.04"/><line class="cls-1" x1="61.03" y1="60.32" x2="61.03" y2="60.32"/><line class="cls-7" x1="56.02" y1="57.43" x2="33.48" y2="44.41"/><line class="cls-1" x1="30.97" y1="42.97" x2="30.97" y2="42.97"/><line class="cls-8" x1="81.68" y1="45.1" x2="81.68" y2="45.1"/><line class="cls-9" x1="81.68" y1="50.17" x2="81.68" y2="57.79"/><line class="cls-8" x1="81.68" y1="60.32" x2="81.68" y2="60.32"/><line class="cls-8" x1="61.03" y1="45.1" x2="61.03" y2="45.1"/><line class="cls-9" x1="61.03" y1="50.17" x2="61.03" y2="57.79"/><line class="cls-8" x1="61.03" y1="60.32" x2="61.03" y2="60.32"/><polygon class="cls-10" points="81.68 60.32 71.36 66.28 71.36 119 109.27 97.11 81.68 60.32"/><polygon class="cls-11" points="61.03 60.32 71.36 66.28 71.36 119 33.44 97.11 61.03 60.32"/><polygon class="cls-12" points="61.03 60.32 71.36 54.37 81.68 60.32 71.36 66.28 61.03 60.32"/><polygon class="cls-8" points="81.68 60.32 71.36 54.37 61.03 60.32 33.44 97.11 71.36 119 109.27 97.11 81.68 60.32"/><polygon class="cls-11" points="71.36 31.34 71.36 51.05 81.68 45.1 71.36 31.34"/><polygon class="cls-12" points="71.36 31.34 71.36 51.05 61.03 45.1 71.36 31.34"/><polygon class="cls-8" points="71.36 31.34 61.03 45.1 71.36 51.05 81.68 45.1 71.36 31.34"/><rect class="cls-13" width="120" height="120"/><rect class="cls-13" width="120" height="120"/></g></g></svg>