<svg xmlns="http://www.w3.org/2000/svg" viewBox="0 0 120 120"><defs><style>.cls-1,.cls-3{fill:#c4d36c;}.cls-1,.cls-6{stroke:#98b9ea;}.cls-1,.cls-10,.cls-2,.cls-3,.cls-4,.cls-6,.cls-7,.cls-9{stroke-linecap:round;stroke-linejoin:round;}.cls-1,.cls-10,.cls-2,.cls-4,.cls-6,.cls-7,.cls-9{stroke-width:2px;}.cls-2{fill:#dfeab0;}.cls-2,.cls-7,.cls-9{stroke:#fff;}.cls-3{stroke:#c4d36c;}.cls-10,.cls-11,.cls-4{fill:none;}.cls-4{stroke:#a7b23b;}.cls-5,.cls-7{fill:#fff;}.cls-6,.cls-8{fill:#deeaff;}.cls-9{fill:#98b9ea;}.cls-10{stroke:#436db5;}</style></defs><title>rock-solid-performance</title><g id="Layer_2" data-name="Layer 2"><g id="New_Icon_Set" data-name="New Icon Set"><polygon class="cls-1" points="54.9 115 50.32 112.34 50.23 47.99 54.81 50.65 54.9 115"/><polygon class="cls-2" points="71.59 40.96 71.68 105.31 63.26 99.59 54.9 115 54.81 50.65 71.59 40.96"/><polygon class="cls-3" points="63.24 45.78 63.24 99.62 63.26 99.59 71.68 105.31 71.59 40.96 63.24 45.78"/><polygon class="cls-4" points="71.59 40.96 67.01 38.3 50.23 47.99 50.32 112.34 54.9 115 63.26 99.59 71.68 105.31 71.59 40.96"/><polygon class="cls-5" points="95.43 21.77 86.06 16.36 67.35 27.16 72.32 35.1 95.43 21.77"/><polygon class="cls-6" points="64.32 10.41 54.95 5 46.95 38.94 56.32 44.34 64.32 10.41"/><polygon class="cls-7" points="56.32 44.34 33.94 57.26 24.57 51.85 46.95 38.94 56.32 44.34"/><polygon class="cls-8" points="43.92 97.67 34.55 92.26 41.8 61.51 51.24 66.63 43.92 97.67"/><path class="cls-9" d="M77.57,52,95.43,21.77,72.32,35.1l-8-24.69s-5.3,22.46-8,33.93L33.94,57.26s12.18,6.6,17.3,9.36L43.92,97.67l20.4-27.49,20.4,3.93Z"/><path class="cls-10" d="M95.43,21.77l-9.37-5.41L69.37,26,64.32,10.41s0,.14-.09.39l.09-.39L55,5,47,38.93,24.57,51.85l9.37,5.41,7.9,4.28,0,0L34.55,92.26l9.37,5.41,20.4-27.49,20.4,3.93L77.57,52Z"/><rect class="cls-11" width="120" height="120"/><rect class="cls-11" width="120" height="120"/></g></g></svg>