<svg xmlns="http://www.w3.org/2000/svg" viewBox="0 0 120 120"><defs><style>.cls-1,.cls-6{fill:#deeaff;}.cls-2,.cls-7{fill:#fff;}.cls-3,.cls-5,.cls-8,.cls-9{fill:none;}.cls-3,.cls-4,.cls-6,.cls-7{stroke:#98b9ea;}.cls-3,.cls-4,.cls-5,.cls-6,.cls-7,.cls-8{stroke-linecap:round;stroke-linejoin:round;stroke-width:2px;}.cls-4{fill:#98b9ea;}.cls-5{stroke:#436db5;}.cls-8{stroke:#deeaff;}</style></defs><title>security</title><g id="Layer_2" data-name="Layer 2"><g id="Industries"><path class="cls-1" d="M24.14,27.45,69.39,1.32a1.69,1.69,0,0,1,1.74-.14h0l26,15L48.4,118.82l-26-15h0a2.37,2.37,0,0,1-.92-2.15V32.55A6.37,6.37,0,0,1,24.14,27.45Z"/><path class="cls-2" d="M24.14,27.45,69.39,1.32a1.69,1.69,0,0,1,1.74-.14h0l26,15L77.12,56,22.25,29.58A5.22,5.22,0,0,1,24.14,27.45Z"/><path class="cls-3" d="M35.44,111.34a2.38,2.38,0,0,1-.92-2.16V40.08A6.38,6.38,0,0,1,37.19,35L82.44,8.85a1.72,1.72,0,0,1,1.75-.13h0"/><path class="cls-4" d="M50.14,118.68,95.4,92.55a6.4,6.4,0,0,0,2.67-5.1V18.35c0-2-1.2-2.87-2.67-2L50.14,42.46a6.4,6.4,0,0,0-2.66,5.1v69.1C47.48,118.63,48.67,119.53,50.14,118.68Z"/><path class="cls-5" d="M97.14,16.2h0L80.21,6.42,71.14,1.18h0A1,1,0,0,0,71,1.11,1.38,1.38,0,0,0,70.34,1a2.28,2.28,0,0,0-.63.17,1.82,1.82,0,0,0-.32.15L39.22,18.74,24.14,27.45a.67.67,0,0,0-.14.09,3.69,3.69,0,0,0-.4.29l-.12.11a4.68,4.68,0,0,0-.38.39l-.05.06a5.7,5.7,0,0,0-.41.53l0,.06a6,6,0,0,0-.36.6h0a6.48,6.48,0,0,0-.78,3v69.1a2.37,2.37,0,0,0,.92,2.15h0l26,15h0a1.69,1.69,0,0,0,1.74-.14L95.4,92.55a6.4,6.4,0,0,0,2.67-5.1V18.35A2.34,2.34,0,0,0,97.14,16.2Z"/><path class="cls-1" d="M97.76,28.25l-4.44-2.56h0a1.42,1.42,0,0,0-1.47.12l-38.14,22a5.4,5.4,0,0,0-2.25,4.3v53.59a2,2,0,0,0,.78,1.81h0l4.44,2.56,2.15-5.69,33-19a5.4,5.4,0,0,0,2.25-4.3V35.72Z"/><path class="cls-2" d="M79.86,65,94.05,46V35.72l3.71-7.47-4.44-2.56h0a1.42,1.42,0,0,0-1.47.12l-38.14,22a5.4,5.4,0,0,0-2.25,4.3h0Z"/><path class="cls-6" d="M58.14,110,96.28,88a5.37,5.37,0,0,0,2.25-4.3V30.07c0-1.65-1-2.42-2.25-1.7l-38.14,22a5.38,5.38,0,0,0-2.25,4.29v53.59C55.89,109.94,56.9,110.7,58.14,110Z"/><path class="cls-7" d="M91.53,48l-9.62,5.56c-.45.25-.81,0-.81-.61V45.41a1.91,1.91,0,0,1,.81-1.53l9.62-5.56c.44-.25.8,0,.8.61v7.54A1.93,1.93,0,0,1,91.53,48Z"/><path class="cls-7" d="M91.53,48l-9.62,5.56c-.45.25-.81,0-.81-.61V45.41a1.91,1.91,0,0,1,.81-1.53l9.62-5.56c.44-.25.8,0,.8.61v7.54A1.93,1.93,0,0,1,91.53,48Z"/><path class="cls-3" d="M58.14,110,96.28,88a5.37,5.37,0,0,0,2.25-4.3V30.07c0-1.65-1-2.42-2.25-1.7l-38.14,22a5.38,5.38,0,0,0-2.25,4.29v53.59C55.89,109.94,56.9,110.7,58.14,110Z"/><path class="cls-5" d="M97.75,28.27v0l-4.44-2.56h0a1.42,1.42,0,0,0-1.47.12l-38.14,22a5.4,5.4,0,0,0-2.25,4.3h0v53.59a2,2,0,0,0,.78,1.81h0l4.44,2.56h0a1.44,1.44,0,0,0,1.47-.11L96.28,88a5.37,5.37,0,0,0,2.25-4.3V30.07A2,2,0,0,0,97.75,28.27Z"/><path class="cls-2" d="M73.25,63.6l-8.41-4.86h0a1.38,1.38,0,0,0-1.44.09A5.24,5.24,0,0,0,61.22,63,1.91,1.91,0,0,0,62,64.75h0l7.54,4.35V86.43l-4.68-2.7h0a1.38,1.38,0,0,0-1.44.1A5.21,5.21,0,0,0,61.22,88,2,2,0,0,0,62,89.73h0l8,4.6a4.27,4.27,0,0,0,2.16.6,4,4,0,0,0,2-.53,4.38,4.38,0,0,0,2.09-3.89V68.86A6.29,6.29,0,0,0,73.25,63.6Z"/><path class="cls-2" d="M73.25,63.6l-8.41-4.86h0a1.38,1.38,0,0,0-1.44.09A5.24,5.24,0,0,0,61.22,63,1.91,1.91,0,0,0,62,64.75h0l7.54,4.35V86.43l-4.68-2.7h0a1.38,1.38,0,0,0-1.44.1A5.21,5.21,0,0,0,61.22,88,2,2,0,0,0,62,89.73h0l8,4.6a4.27,4.27,0,0,0,2.16.6,4,4,0,0,0,2-.53,4.38,4.38,0,0,0,2.09-3.89V68.86A6.29,6.29,0,0,0,73.25,63.6Z"/><line class="cls-8" x1="63.49" y1="88.38" x2="70.75" y2="92.57"/><path class="cls-8" d="M71.52,86.53V69a1.78,1.78,0,0,0-.9-1.54l-7.13-4.12"/><path class="cls-5" d="M73.25,63.6l-8.41-4.86h0a1.38,1.38,0,0,0-1.44.09A5.24,5.24,0,0,0,61.22,63,1.91,1.91,0,0,0,62,64.75h0l7.54,4.35V86.43l-4.68-2.7h0a1.38,1.38,0,0,0-1.44.1A5.21,5.21,0,0,0,61.22,88,2,2,0,0,0,62,89.73h0l8,4.6a4.27,4.27,0,0,0,2.16.6,4,4,0,0,0,2-.53,4.38,4.38,0,0,0,2.09-3.89V68.86A6.29,6.29,0,0,0,73.25,63.6Z"/><path class="cls-5" d="M73.25,63.6l-8.41-4.86h0a1.38,1.38,0,0,0-1.44.09A5.24,5.24,0,0,0,61.22,63,1.91,1.91,0,0,0,62,64.75h0l7.54,4.35V86.43l-4.68-2.7h0a1.38,1.38,0,0,0-1.44.1A5.21,5.21,0,0,0,61.22,88,2,2,0,0,0,62,89.73h0l8,4.6a4.27,4.27,0,0,0,2.16.6,4,4,0,0,0,2-.53,4.38,4.38,0,0,0,2.09-3.89V68.86A6.29,6.29,0,0,0,73.25,63.6Z"/><rect class="cls-9" width="120" height="120"/><rect class="cls-9" width="120" height="120"/></g></g></svg>