<svg xmlns="http://www.w3.org/2000/svg" viewBox="0 0 120 120"><defs><style>.cls-1{fill:#deeaff;stroke:#98b9ea;}.cls-1,.cls-4,.cls-5{stroke-linecap:round;stroke-linejoin:round;}.cls-1,.cls-3,.cls-4,.cls-5{stroke-width:2px;}.cls-2,.cls-3{fill:#fff;}.cls-3,.cls-4{stroke:#fff;}.cls-3{stroke-miterlimit:10;}.cls-4{fill:#98b9ea;}.cls-5,.cls-6{fill:none;}.cls-5{stroke:#436db5;}</style></defs><title>self-healing</title><g id="Layer_2" data-name="Layer 2"><g id="Tech_Concepts" data-name="Tech Concepts"><path class="cls-1" d="M86.5,34.77c.19-.72.35-1.45.5-2.17l11.31-16L80.62,6.42h0c-3.72-2.15-8.58-2-13.9,1.12-6.14,3.54-11.68,10.22-15.56,18-3.88-3.32-9.41-3.61-15.55-.06-11.74,6.78-21.26,25-21.26,40.61a28.68,28.68,0,0,0,1.46,9.47h0C18.88,85.26,29.57,94.83,39,100.28h0L56.7,110.5l4.91-21.36c9.81-16.57,21.64-40.36,24.9-54.37Z"/><path class="cls-2" d="M89.07,29.67l9.24-13L80.62,6.42h0c-3.72-2.15-8.58-2-13.9,1.12A31.67,31.67,0,0,0,60,12.87Z"/><path class="cls-3" d="M70.13,73.83A256.74,256.74,0,0,0,83.58,44.29L51.15,25.57h0l-3.43-2c-3.44-1.2-7.62-.67-12.12,1.93-6.43,3.71-12.19,10.84-16.08,19.1Z"/><path class="cls-4" d="M104.2,45a46.6,46.6,0,0,0,1.46-11.16c0-15.65-9.52-22.85-21.26-16.07-6.14,3.55-11.67,10.22-15.55,18-3.88-3.32-9.42-3.6-15.56-.06C41.55,42.5,32,60.68,32,76.33a28.53,28.53,0,0,0,1.46,9.48h0c4.34,13.64,23.88,27.11,33.62,29a1.8,1.8,0,0,0,1.74-.18h0a4.25,4.25,0,0,0,.43-.31l.12-.08.36-.36h0l0,0a5.73,5.73,0,0,0,.71-1C80.24,99.82,99.85,63.68,104.2,45Z"/><path class="cls-5" d="M105.66,33.83c0-8.56-2.86-14.59-7.36-17.18h0L80.62,6.42h0c-3.72-2.15-8.58-2-13.9,1.12-6.14,3.54-11.68,10.22-15.56,18-3.88-3.32-9.41-3.61-15.55-.06-11.74,6.78-21.26,25-21.26,40.61a28.68,28.68,0,0,0,1.46,9.47h0C18.88,85.26,29.57,94.83,39,100.28h0L56.7,110.5h0a36.45,36.45,0,0,0,10.4,4.36,1.8,1.8,0,0,0,1.74-.18h0a4.25,4.25,0,0,0,.43-.31l.12-.08.36-.36h0l0,0a5.73,5.73,0,0,0,.71-1C80.24,99.82,99.85,63.68,104.2,45h0A46.6,46.6,0,0,0,105.66,33.83Z"/><path class="cls-2" d="M83.85,63.23c0-7.12-2.89-12.09-7.52-13a10.27,10.27,0,0,0-6.08.93V48.65c0-.67-.27-1.13-.77-1.23h0a1.8,1.8,0,0,0-1.47,1l-5.4,8.47a3.62,3.62,0,0,0-.56,1.84,1.19,1.19,0,0,0,.56,1.17L68,62.15l.15.05a1.05,1.05,0,0,0,.69-.15,2.39,2.39,0,0,0,.64-.57,3.56,3.56,0,0,0,.77-2.12v-2.3a7,7,0,0,1,3.89-.48c3.28.63,5.32,4.15,5.31,9.18a26.07,26.07,0,0,1-3.11,11.8A20.78,20.78,0,0,1,68.85,86a7.72,7.72,0,0,1-5.29,1.17c-3.28-.63-5.32-4.15-5.32-9.19,0-1.55-1-2.33-2.2-1.66a5.27,5.27,0,0,0-2.19,4.2c0,7.12,2.88,12.1,7.52,13h0a11,11,0,0,0,7.48-1.65c4-2.31,7.76-6.57,10.6-12A37,37,0,0,0,83.85,63.23Z"/><rect class="cls-6" width="120" height="120"/><rect class="cls-6" width="120" height="120"/></g></g></svg>