<svg xmlns="http://www.w3.org/2000/svg" viewBox="0 0 120 120"><defs><style>.cls-1{fill:#98b9ea;}.cls-1,.cls-3,.cls-4{stroke:#98b9ea;}.cls-1,.cls-3,.cls-4,.cls-5,.cls-8,.cls-9{stroke-linecap:round;stroke-linejoin:round;stroke-width:2px;}.cls-2{fill:#fff;}.cls-3{fill:#deeaff;}.cls-10,.cls-4,.cls-5,.cls-8,.cls-9{fill:none;}.cls-5{stroke:#436db5;}.cls-6{fill:#c4d36c;}.cls-7{fill:#dfeab0;}.cls-8{stroke:#c4d36c;}.cls-9{stroke:#a7b23b;}</style></defs><title>sell</title><g id="Layer_2" data-name="Layer 2"><g id="Actions"><path class="cls-1" d="M110.13,35.21,60,6.25A3.11,3.11,0,0,0,56.77,6h0l-9.51,5.49,7.82,8V46.55c0,3.59,2.19,7.76,4.88,9.32L93.58,75.28l8.23,18.16,2.36,14,1,.58,9.51-5.49h0a.69.69,0,0,0,.28-.65V44.53C115,40.94,112.82,36.77,110.13,35.21Z"/><path class="cls-2" d="M110.13,35.21,60,6.25A3.11,3.11,0,0,0,56.77,6h0l-9.51,5.49,7.82,8V46.55c0,3.59,2.19,7.76,4.88,9.32L72.65,63.2l41.1-23.73A9.88,9.88,0,0,0,110.13,35.21Z"/><path class="cls-3" d="M50.45,11.74l50.17,29c2.69,1.56,4.87,5.73,4.87,9.32v57.34c0,.91-.79,1-1.32.08l-13-21.61a6.17,6.17,0,0,0-2-2.15L50.45,61.36c-2.69-1.56-4.87-5.73-4.87-9.32V15.42C45.58,11.84,47.76,10.19,50.45,11.74Z"/><line class="cls-4" x1="59.39" y1="41.87" x2="91.68" y2="60.62"/><line class="cls-4" x1="59.39" y1="31.11" x2="91.68" y2="49.86"/><line class="cls-4" x1="59.39" y1="52.63" x2="91.68" y2="71.39"/><path class="cls-5" d="M113.4,38.8v0c-.12-.21-.24-.41-.37-.61l0,0c-.12-.19-.25-.37-.38-.55l-.05-.07c-.12-.17-.25-.32-.37-.48a.39.39,0,0,1-.08-.1c-.12-.14-.24-.27-.37-.4l-.11-.12-.36-.34-.13-.12-.37-.29-.14-.11c-.17-.12-.34-.24-.51-.34L60,6.25A3.11,3.11,0,0,0,56.77,6h0l-9.51,5.49h0c-1,.59-1.69,2-1.69,3.93V52c0,3.59,2.18,7.76,4.87,9.32L89.11,83.68a6.17,6.17,0,0,1,2,2.15l13,21.61c.33.55.76.74,1,.58h0l9.51-5.49h0a.69.69,0,0,0,.28-.65V44.53A12.14,12.14,0,0,0,113.4,38.8Z"/><path class="cls-6" d="M69.55,58.64l-50.17-29a3.1,3.1,0,0,0-3.18-.26h0L6.68,34.91l7.83,8.72V90.7c0,.92.79,1.88,1.32,1.61l13-6.58a2.11,2.11,0,0,1,2.05.21l24.64,14.23L63.23,114l9.51-5.49h0c1-.6,1.69-2,1.69-3.94V68C74.42,64.36,72.24,60.19,69.55,58.64Z"/><path class="cls-2" d="M69.55,58.64l-50.17-29a3.1,3.1,0,0,0-3.18-.26h0L6.68,34.91l7.83,8.72V81.31l5.21,9,9.12-4.61a2.11,2.11,0,0,1,2.05.21l1.48.85L73.3,63.16A10,10,0,0,0,69.55,58.64Z"/><path class="cls-7" d="M60,64.13l-50.17-29C7.18,33.61,5,35.26,5,38.85V96.19c0,.92.79,1.88,1.32,1.61l13-6.58a2.12,2.12,0,0,1,2.05.21L60,113.75c2.69,1.55,4.88-.1,4.88-3.69V73.44C64.92,69.85,62.73,65.68,60,64.13Z"/><path class="cls-8" d="M60,64.13l-50.17-29C7.18,33.61,5,35.26,5,38.85V96.19c0,.92.79,1.88,1.32,1.61l13-6.58a2.12,2.12,0,0,1,2.05.21L60,113.75c2.69,1.55,4.88-.1,4.88-3.69V73.44C64.92,69.85,62.73,65.68,60,64.13Z"/><path class="cls-9" d="M73,62.47l-.09-.17-.28-.48-.14-.22-.27-.41L72,61l-.27-.36-.18-.22c-.1-.11-.19-.22-.29-.32l-.19-.2-.3-.3-.2-.17-.34-.28L70.08,59a4.41,4.41,0,0,0-.53-.35l-50.17-29a3.1,3.1,0,0,0-3.18-.26h0L6.68,34.91h0c-1,.6-1.69,2-1.69,3.94V96.19c0,.92.79,1.88,1.32,1.61l13-6.58a2.12,2.12,0,0,1,2.05.21L60,113.75a3.14,3.14,0,0,0,3.19.25h0l9.51-5.49h0c1-.6,1.69-2,1.69-3.94V68A12.1,12.1,0,0,0,73,62.47Z"/><path class="cls-6" d="M33.89,63.36V61.2c0-.5.43-.88.77-.68l.7.4A1.2,1.2,0,0,1,35.89,62v2.44a15.57,15.57,0,0,1,2.81,2.39A14.49,14.49,0,0,1,40.48,69a1.55,1.55,0,0,1,.1,1.37l-.45,1.2c-.17.45-.63.58-.86.25A15.32,15.32,0,0,0,38,70.19a12.78,12.78,0,0,0-2.1-1.92v4.92a25.84,25.84,0,0,1,2.4,2.48,10.9,10.9,0,0,1,1.64,2.76A9.06,9.06,0,0,1,40.57,82a4.42,4.42,0,0,1-1.22,3.49c-.81.68-2,.74-3.49.11v2.13c0,.5-.43.88-.77.68l-.71-.4a1.19,1.19,0,0,1-.51-1.06V84.5a15.27,15.27,0,0,1-3.67-3.59,1.5,1.5,0,0,1-.13-1.32l.42-1.25c.15-.46.61-.62.85-.3a13.54,13.54,0,0,0,2.54,2.58v-5a24.13,24.13,0,0,1-2.37-2.42,11.36,11.36,0,0,1-1.63-2.75,8.93,8.93,0,0,1-.65-3.51,4.31,4.31,0,0,1,1.2-3.43C31.24,62.82,32.38,62.77,33.89,63.36ZM37,78.94a6.24,6.24,0,0,0-1.1-1.45v4.19a1.18,1.18,0,0,0,1.13-.2,1.55,1.55,0,0,0,.36-1.13A3,3,0,0,0,37,78.94m-3.09-7.65V67.24a1.12,1.12,0,0,0-1.08.15,1.33,1.33,0,0,0-.36,1,2.92,2.92,0,0,0,.37,1.42,7.47,7.47,0,0,0,1.06,1.43"/><rect class="cls-10" width="120" height="120"/><rect class="cls-10" width="120" height="120"/></g></g></svg>