<svg xmlns="http://www.w3.org/2000/svg" viewBox="0 0 120 120"><defs><style>.cls-1{fill:#dfeab0;}.cls-2{fill:#c4d36c;}.cls-3,.cls-7{fill:#fff;}.cls-4,.cls-8,.cls-9{fill:none;}.cls-4{stroke:#a7b23b;}.cls-4,.cls-7,.cls-8{stroke-linecap:round;stroke-linejoin:round;stroke-width:2px;}.cls-5{fill:#deeaff;}.cls-6{fill:#98b9ea;}.cls-7{stroke:#98b9ea;}.cls-8{stroke:#436db5;}</style></defs><title>silos</title><g id="Layer_2" data-name="Layer 2"><g id="Tech_Concepts" data-name="Tech Concepts"><path class="cls-1" d="M75.66,35.25l-.3-.18c-8.48-4.9-22.24-4.9-30.72,0l-.3.18H38.27v49.8c0,3.21,2.12,6.42,6.37,8.87,8.48,4.9,22.24,4.9,30.72,0,4.25-2.45,6.37-5.66,6.37-8.87V35.25Z"/><path class="cls-2" d="M75.36,93.92c4.25-2.45,6.37-5.66,6.37-8.87V35.25H75.66l-.3-.18A31.38,31.38,0,0,0,60,31.39v66.2A31.38,31.38,0,0,0,75.36,93.92Z"/><ellipse class="cls-3" cx="60" cy="35.25" rx="21.73" ry="12.54"/><path class="cls-4" d="M81.73,85.05V35.25h0c0-3.21-2.12-6.42-6.37-8.87-11-6.34-19.74-6.34-30.72,0-4.25,2.45-6.37,5.66-6.37,8.87h0v49.8c0,3.21,2.12,6.42,6.37,8.87A31.38,31.38,0,0,0,60,97.59c.7,0,1.39,0,2.08-.06a34.9,34.9,0,0,0,4.11-.45c.67-.12,1.33-.25,2-.41a26.58,26.58,0,0,0,7.18-2.75,13.45,13.45,0,0,0,5.47-5.3A7.75,7.75,0,0,0,81.73,85.05Z"/><path class="cls-5" d="M75.66,15.35l-.3-.18c-8.48-4.9-22.24-4.9-30.72,0l-.3.18H38.27v19.9c0,3.21,2.12,6.42,6.37,8.87,8.48,4.9,22.24,4.9,30.72,0,4.25-2.45,6.37-5.66,6.37-8.87V15.35Z"/><path class="cls-6" d="M75.36,44.12c4.25-2.45,6.37-5.66,6.37-8.87V15.35H75.66l-.3-.18A31.38,31.38,0,0,0,60,11.49v36.3A31.38,31.38,0,0,0,75.36,44.12Z"/><ellipse class="cls-7" cx="60" cy="15.35" rx="21.73" ry="12.54"/><path class="cls-8" d="M81.73,35.25V15.35h0c0-3.21-2.12-6.42-6.37-8.87-8.48-4.9-22.24-4.9-30.72,0-4.25,2.45-6.37,5.66-6.37,8.87h0v19.9c0,3.21,2.12,6.42,6.37,8.87A31.38,31.38,0,0,0,60,47.79c.7,0,1.39,0,2.08-.06a34.9,34.9,0,0,0,4.11-.45c.67-.12,1.33-.25,2-.41a26.58,26.58,0,0,0,7.18-2.75,13.45,13.45,0,0,0,5.47-5.3A7.75,7.75,0,0,0,81.73,35.25Z"/><path class="cls-1" d="M112.93,88.51c-.1-.06-.19-.13-.29-.18-8.49-4.9-22.25-4.9-30.73,0-.1,0-.2.12-.3.18H75.54v16.14c0,3.21,2.13,6.42,6.37,8.87,8.48,4.9,22.24,4.9,30.73,0,4.24-2.45,6.36-5.66,6.36-8.87V88.51Z"/><path class="cls-2" d="M112.64,113.52c4.24-2.45,6.36-5.66,6.36-8.87V88.51h-6.07c-.1-.06-.19-.13-.29-.18a31.45,31.45,0,0,0-15.37-3.68V117.2A31.45,31.45,0,0,0,112.64,113.52Z"/><ellipse class="cls-3" cx="97.27" cy="88.51" rx="21.73" ry="12.54"/><path class="cls-4" d="M119,104.65V88.51h0c0-3.22-2.12-6.43-6.36-8.87-8.49-4.9-22.25-4.9-30.73,0-4.24,2.44-6.37,5.65-6.37,8.87h0v16.14c0,3.21,2.13,6.42,6.37,8.87a31.38,31.38,0,0,0,15.36,3.68c.7,0,1.39,0,2.08-.06a37.17,37.17,0,0,0,4.11-.46c.67-.11,1.33-.25,2-.4a26.46,26.46,0,0,0,7.19-2.76,13.57,13.57,0,0,0,5.47-5.3A7.83,7.83,0,0,0,119,104.65Z"/><path class="cls-5" d="M112.93,65.84l-.29-.17c-8.49-4.9-22.25-4.9-30.73,0l-.3.17H75.54V88.51c0,3.21,2.13,6.42,6.37,8.87,8.48,4.89,22.24,4.89,30.73,0,4.24-2.45,6.36-5.66,6.36-8.87V65.84Z"/><path class="cls-6" d="M112.64,97.38c4.24-2.45,6.36-5.66,6.36-8.87V65.84h-6.07l-.29-.17A31.45,31.45,0,0,0,97.27,62v39.06A31.44,31.44,0,0,0,112.64,97.38Z"/><ellipse class="cls-7" cx="97.27" cy="65.84" rx="21.73" ry="12.54"/><ellipse class="cls-5" cx="97.27" cy="65.84" rx="11.9" ry="6.24"/><path class="cls-8" d="M119,88.51V65.84h0c0-3.21-2.12-6.42-6.36-8.87-8.49-4.89-22.25-4.89-30.73,0-4.24,2.45-6.37,5.66-6.37,8.87h0V88.51c0,3.21,2.13,6.42,6.37,8.87a31.38,31.38,0,0,0,15.36,3.67c.7,0,1.39,0,2.08-.06a34.91,34.91,0,0,0,4.11-.46c.67-.11,1.33-.25,2-.4a26.77,26.77,0,0,0,7.19-2.75,13.54,13.54,0,0,0,5.46-5.3A7.78,7.78,0,0,0,119,88.51Z"/><path class="cls-1" d="M38.39,90.46l-.3-.18c-8.48-4.9-22.24-4.9-30.73,0l-.29.18H1v14.19c0,3.21,2.12,6.42,6.36,8.87,8.49,4.9,22.25,4.9,30.73,0,4.24-2.45,6.37-5.66,6.37-8.87V90.46Z"/><path class="cls-2" d="M38.09,113.52c4.24-2.45,6.37-5.66,6.37-8.87V90.46H38.39l-.3-.18a31.38,31.38,0,0,0-15.36-3.67V117.2A31.38,31.38,0,0,0,38.09,113.52Z"/><ellipse class="cls-3" cx="22.73" cy="90.46" rx="21.73" ry="12.54"/><path class="cls-4" d="M44.46,104.65V90.46h0c0-3.21-2.13-6.42-6.37-8.87-8.48-4.9-22.24-4.9-30.73,0C3.12,84,1,87.25,1,90.46H1v14.19c0,3.21,2.12,6.42,6.36,8.87a31.45,31.45,0,0,0,15.37,3.68c.69,0,1.39,0,2.08-.06a36.72,36.72,0,0,0,4.1-.46c.68-.11,1.34-.25,2-.4a26.21,26.21,0,0,0,7.19-2.76,13.51,13.51,0,0,0,5.47-5.3A7.71,7.71,0,0,0,44.46,104.65Z"/><path class="cls-5" d="M38.39,77.58l-.3-.18c-8.48-4.9-22.24-4.9-30.73,0l-.29.18H1V90.46c0,3.21,2.12,6.42,6.36,8.87,8.49,4.9,22.25,4.9,30.73,0,4.24-2.45,6.37-5.66,6.37-8.87V77.58Z"/><path class="cls-6" d="M38.09,99.33c4.24-2.45,6.37-5.66,6.37-8.87V77.58H38.39l-.3-.18a31.38,31.38,0,0,0-15.36-3.68V103A31.38,31.38,0,0,0,38.09,99.33Z"/><ellipse class="cls-7" cx="22.73" cy="77.58" rx="21.73" ry="12.54"/><path class="cls-8" d="M44.46,90.46V77.58h0c0-3.21-2.13-6.42-6.37-8.87-8.48-4.9-22.24-4.9-30.73,0C3.12,71.16,1,74.37,1,77.58H1V90.46c0,3.21,2.12,6.42,6.36,8.87A31.45,31.45,0,0,0,22.73,103c.69,0,1.39,0,2.08-.06a36.72,36.72,0,0,0,4.1-.46c.68-.12,1.34-.25,2-.4a26.53,26.53,0,0,0,7.19-2.76A13.51,13.51,0,0,0,43.56,94,7.75,7.75,0,0,0,44.46,90.46Z"/><ellipse class="cls-5" cx="22.73" cy="77.92" rx="11.9" ry="6.24"/><ellipse class="cls-5" cx="60" cy="15.35" rx="11.9" ry="6.24"/><rect class="cls-9" width="120" height="120"/><rect class="cls-9" width="120" height="120"/></g></g></svg>