<svg xmlns="http://www.w3.org/2000/svg" viewBox="0 0 120 120"><defs><style>.cls-1{fill:#c4d36c;}.cls-2{fill:#dfeab0;}.cls-11,.cls-3{fill:#fff;}.cls-3,.cls-4{stroke:#c4d36c;stroke-miterlimit:10;}.cls-3,.cls-4,.cls-5,.cls-6,.cls-7,.cls-9{stroke-width:2px;}.cls-12,.cls-4,.cls-5,.cls-6,.cls-7,.cls-9{fill:none;}.cls-5,.cls-6{stroke:#a7b23b;}.cls-5,.cls-6,.cls-7,.cls-9{stroke-linecap:round;stroke-linejoin:round;}.cls-6,.cls-7{stroke-dasharray:0 6;}.cls-7,.cls-9{stroke:#436db5;}.cls-8{fill:#deeaff;}.cls-10{fill:#98b9ea;}</style></defs><title>simplified</title><g id="Layer_2" data-name="Layer 2"><g id="New_Icon_Set" data-name="New Icon Set"><path class="cls-1" d="M102,77a42,42,0,0,1-84,0"/><path class="cls-2" d="M41.61,111.25c7.83,4.22,17.75-.79,18.36-9.67,0-.34,0-.68,0-1V77H21.12A38.89,38.89,0,0,0,41.61,111.25Z"/><ellipse class="cls-3" cx="60" cy="77.02" rx="41.98" ry="24.24"/><ellipse class="cls-2" cx="60" cy="77.02" rx="35.99" ry="18.59"/><path class="cls-1" d="M60,95.61a63.66,63.66,0,0,0,17.41-2.32c-1.73-3.48-7.24-6.17-14.14-6.82A3.62,3.62,0,0,1,60,82.87V78.15A16.5,16.5,0,0,0,36.86,63C29.18,66.44,24,71.44,24,77c0,7,7.51,13.1,18.58,16.27h0c1.24.36,2.53.67,3.86.95l.44.09c.5.11,1,.2,1.52.29l.45.08,1.91.29h.1c.69.1,1.39.18,2.09.25l.44,0,1.63.14.66,0,1.52.08.64,0c.71,0,1.42,0,2.14,0Z"/><ellipse class="cls-4" cx="60" cy="77.02" rx="35.99" ry="18.59"/><path class="cls-5" d="M60,52.78C36.81,52.78,18,63.63,18,77a42,42,0,0,0,84,0C102,63.63,83.19,52.78,60,52.78Z"/><line class="cls-6" x1="101.98" y1="57.5" x2="101.98" y2="66.5"/><line class="cls-7" x1="18.02" y1="57.5" x2="18.02" y2="66.5"/><path class="cls-8" d="M60,1a42,42,0,0,1,42,42c0,13.39-18.79,24.24-42,24.24S18,56.37,18,43A42,42,0,0,1,60,1Z"/><path class="cls-9" d="M60,1A42,42,0,0,0,18,43c0,13.39,18.79,24.24,42,24.24S102,56.37,102,43A42,42,0,0,0,60,1Z"/><path class="cls-10" d="M98.88,43A38.66,38.66,0,0,0,92,20.91C82.63,7.4,61,13.05,60,29.46c0,.4,0,.81,0,1.23V59a4.91,4.91,0,0,0,5.28,4.91C84,62.47,98.88,53.47,98.88,43Z"/><ellipse class="cls-11" cx="35.32" cy="21.77" rx="6.31" ry="3.9" transform="translate(-5.05 31.35) rotate(-45)"/><rect class="cls-12" width="120" height="120"/><rect class="cls-12" width="120" height="120"/></g></g></svg>