<svg xmlns="http://www.w3.org/2000/svg" viewBox="0 0 120 120"><defs><style>.cls-1{fill:#98b9ea;}.cls-2{fill:#deeaff;}.cls-3{fill:#fff;}.cls-10,.cls-4,.cls-5,.cls-8,.cls-9{fill:none;}.cls-4{stroke:#98b9ea;}.cls-4,.cls-5,.cls-8,.cls-9{stroke-linecap:round;stroke-linejoin:round;stroke-width:2px;}.cls-5{stroke:#436db5;}.cls-6{fill:#c4d36c;}.cls-7{fill:#dfeab0;}.cls-8{stroke:#c4d36c;}.cls-9{stroke:#a7b23b;}</style></defs><title>simplify-digital-transformation</title><g id="Layer_2" data-name="Layer 2"><g id="Tech_Concepts" data-name="Tech Concepts"><polygon class="cls-1" points="118.72 18.77 118.77 68.94 103.8 77.59 103.75 27.41 118.72 18.77"/><polygon class="cls-2" points="103.8 77.59 73.02 59.82 72.97 9.64 103.75 27.41 103.8 77.59"/><polygon class="cls-3" points="103.75 27.41 72.97 9.64 87.94 1 118.72 18.77 103.75 27.41"/><polygon class="cls-4" points="118.72 18.77 118.77 68.94 103.8 77.59 103.75 27.41 118.72 18.77"/><polygon class="cls-4" points="103.8 77.59 73.02 59.82 72.97 9.64 103.75 27.41 103.8 77.59"/><polygon class="cls-4" points="103.75 27.41 72.97 9.64 87.94 1 118.72 18.77 103.75 27.41"/><polygon class="cls-5" points="118.72 18.77 87.94 1 72.97 9.64 73.02 59.82 103.8 77.59 118.77 68.94 118.72 18.77"/><ellipse class="cls-2" cx="113.72" cy="27.85" rx="1.8" ry="1.02" transform="translate(43.57 121.59) rotate(-66.95)"/><ellipse class="cls-3" cx="109.07" cy="30.55" rx="1.8" ry="1.02" transform="translate(38.25 118.95) rotate(-66.95)"/><polygon class="cls-6" points="94.81 43.7 94.85 82.75 79.89 91.39 79.84 52.35 94.81 43.7"/><polygon class="cls-7" points="79.89 91.39 49.11 73.62 49.06 34.58 79.84 52.35 79.89 91.39"/><polygon class="cls-3" points="79.84 52.35 49.06 34.58 64.03 25.93 94.81 43.7 79.84 52.35"/><polygon class="cls-8" points="94.81 43.7 94.85 82.75 79.89 91.39 79.84 52.35 94.81 43.7"/><polygon class="cls-8" points="79.89 91.39 49.11 73.62 49.06 34.58 79.84 52.35 79.89 91.39"/><polygon class="cls-8" points="79.84 52.35 49.06 34.58 64.03 25.93 94.81 43.7 79.84 52.35"/><polygon class="cls-9" points="94.81 43.7 64.03 25.93 49.06 34.58 49.11 73.62 79.89 91.39 94.85 82.75 94.81 43.7"/><ellipse class="cls-7" cx="89.81" cy="52.79" rx="1.8" ry="1.02" transform="translate(6.07 114.76) rotate(-66.95)"/><ellipse class="cls-3" cx="85.16" cy="55.49" rx="1.8" ry="1.02" transform="translate(0.76 112.12) rotate(-66.95)"/><polygon class="cls-6" points="70.89 69.66 70.94 96.56 55.97 105.2 55.92 78.31 70.89 69.66"/><polygon class="cls-7" points="55.97 105.2 25.2 87.43 25.15 60.53 55.92 78.31 55.97 105.2"/><polygon class="cls-3" points="55.92 78.31 25.15 60.53 40.12 51.89 70.89 69.66 55.92 78.31"/><polygon class="cls-8" points="70.89 69.66 70.94 96.56 55.97 105.2 55.92 78.31 70.89 69.66"/><polygon class="cls-8" points="55.97 105.2 25.2 87.43 25.15 60.53 55.92 78.31 55.97 105.2"/><polygon class="cls-8" points="55.92 78.31 25.15 60.53 40.12 51.89 70.89 69.66 55.92 78.31"/><polygon class="cls-9" points="70.89 69.66 40.12 51.89 25.15 60.53 25.2 87.43 55.97 105.2 70.94 96.56 70.89 69.66"/><ellipse class="cls-7" cx="65.9" cy="78.74" rx="1.8" ry="1.02" transform="translate(-32.36 108.55) rotate(-66.95)"/><ellipse class="cls-3" cx="61.25" cy="81.45" rx="1.8" ry="1.02" transform="translate(-37.68 105.91) rotate(-66.95)"/><polygon class="cls-1" points="46.98 92.57 47.03 110.36 32.06 119 32.01 101.21 46.98 92.57"/><polygon class="cls-2" points="32.06 119 1.28 101.23 1.23 83.44 32.01 101.21 32.06 119"/><polygon class="cls-3" points="32.01 101.21 1.23 83.44 16.2 74.8 46.98 92.57 32.01 101.21"/><polygon class="cls-2" points="11.19 83.44 16.2 80.55 37.02 92.57 32.01 95.46 11.19 83.44"/><polygon class="cls-4" points="46.98 92.57 47.03 110.36 32.06 119 32.01 101.21 46.98 92.57"/><polygon class="cls-4" points="32.06 119 1.28 101.23 1.23 83.44 32.01 101.21 32.06 119"/><polygon class="cls-4" points="32.01 101.21 1.23 83.44 16.2 74.8 46.98 92.57 32.01 101.21"/><polygon class="cls-5" points="46.98 92.57 16.2 74.8 1.23 83.44 1.28 101.23 32.06 119 47.03 110.36 46.98 92.57"/><polygon class="cls-7" points="35.11 60.54 40.12 57.64 60.93 69.66 55.92 72.55 35.11 60.54"/><polygon class="cls-7" points="59.02 34.58 64.03 31.68 84.85 43.7 79.84 46.6 59.02 34.58"/><polygon class="cls-2" points="83.63 9.64 88.64 6.75 109.45 18.77 104.44 21.66 83.63 9.64"/><ellipse class="cls-2" cx="41.99" cy="101.65" rx="1.8" ry="1.02" transform="translate(-67.99 100.49) rotate(-66.95)"/><ellipse class="cls-3" cx="37.33" cy="104.36" rx="1.8" ry="1.02" transform="translate(-73.31 97.85) rotate(-66.95)"/><line class="cls-9" x1="87.35" y1="83.72" x2="87.35" y2="87.08"/><line class="cls-9" x1="63.43" y1="97.53" x2="63.43" y2="100.89"/><line class="cls-5" x1="39.46" y1="111.37" x2="39.46" y2="114.73"/><line class="cls-5" x1="111.26" y1="69.92" x2="111.26" y2="73.28"/><rect class="cls-10" width="120" height="120"/><rect class="cls-10" width="120" height="120"/></g></g></svg>