<svg xmlns="http://www.w3.org/2000/svg" xmlns:xlink="http://www.w3.org/1999/xlink" viewBox="0 0 120 120"><defs><style>.cls-1,.cls-10,.cls-14,.cls-3,.cls-7{fill:none;}.cls-2{fill:#dfeab0;}.cls-11,.cls-3,.cls-8{stroke:#98b9ea;}.cls-10,.cls-11,.cls-14,.cls-3,.cls-4,.cls-5,.cls-6,.cls-7,.cls-8{stroke-linecap:round;stroke-linejoin:round;stroke-width:2px;}.cls-4,.cls-6,.cls-9{fill:#fff;}.cls-14,.cls-4{stroke:#dfeab0;}.cls-12,.cls-5,.cls-8{fill:#deeaff;}.cls-5,.cls-6{stroke:#deeaff;}.cls-7{stroke:#c4d36c;}.cls-10{stroke:#436db5;}.cls-11{fill:#98b9ea;}.cls-13{clip-path:url(#clip-path);}</style><clipPath id="clip-path"><path class="cls-1" d="M54.31,16.8C43.1,23.27,34,40.74,34,55.73a24.65,24.65,0,0,0,2.23,11,16.84,16.84,0,0,0,6.37-2.28c11.21-6.47,20.34-23.93,20.34-38.92a24.69,24.69,0,0,0-2.23-11A17,17,0,0,0,54.31,16.8Z"/></clipPath></defs><title>small-footprint</title><g id="Layer_2" data-name="Layer 2"><g id="Objects"><path class="cls-2" d="M43.5,106.23,34,102.39a1.43,1.43,0,0,0-1.15,0,12.27,12.27,0,0,1-4,1.49c-9.17,1.63-20,11.14-14.3,13.83,7.92,3.71,22.32-1.3,27.85-9.16a13.23,13.23,0,0,1,1.39-1.67C44,106.68,43.88,106.39,43.5,106.23Z"/><path class="cls-2" d="M46.72,103.51a1.38,1.38,0,0,0,1.26-.12c4.73-3.85,9.48-7.08,3-9.45-6.13-2.25-9.53,1.69-13.56,5.2-.28.24-.18.56.23.72Z"/><path class="cls-3" d="M43.5,106.23,34,102.39a1.43,1.43,0,0,0-1.15,0,12.27,12.27,0,0,1-4,1.49c-9.17,1.63-20,11.14-14.3,13.83,7.92,3.71,22.32-1.3,27.85-9.16a13.23,13.23,0,0,1,1.39-1.67C44,106.68,43.88,106.39,43.5,106.23Z"/><path class="cls-3" d="M46.72,103.51a1.38,1.38,0,0,0,1.26-.12c4.73-3.85,9.48-7.08,3-9.45-6.13-2.25-9.53,1.69-13.56,5.2-.28.24-.18.56.23.72Z"/><path class="cls-4" d="M51,97.27a7.2,7.2,0,0,1,2.36,1.28,34.83,34.83,0,0,1-5.4,4.83,1.35,1.35,0,0,1-1.26.13l-7.17-2.9C42.77,97.76,46,95.41,51,97.27Z"/><path class="cls-4" d="M14.52,117.75a3,3,0,0,1-1-.77c2-3.79,9.06-8.61,15.35-9.73a12.5,12.5,0,0,0,4-1.49,1.43,1.43,0,0,1,1.15-.05L42.07,109C36.35,116.62,22.3,121.4,14.52,117.75Z"/><path class="cls-2" d="M25,51.66l6.66,5.49c.25.2.22.48-.08.66A6.52,6.52,0,0,0,29,60.13c-2.82,5.3-19.3,11.56-23.95,8.25C-1.36,63.81,7.32,55.5,20.94,52.31c1-.23,1.95-.51,2.89-.81A1.35,1.35,0,0,1,25,51.66Z"/><path class="cls-5" d="M29.73,49.79c-.29-.23-.19-.56.22-.72,6.67-2.73,12.26-5.47,16.35-1.76,3.9,3.54-2.91,5.5-9,7.83A1.36,1.36,0,0,1,36.06,55Z"/><path class="cls-3" d="M25,51.66l6.66,5.49c.25.2.22.48-.08.66A6.52,6.52,0,0,0,29,60.13c-2.82,5.3-19.3,11.56-23.95,8.25C-1.36,63.81,7.32,55.5,20.94,52.31c1-.23,1.95-.51,2.89-.81A1.35,1.35,0,0,1,25,51.66Z"/><path class="cls-3" d="M29.73,49.79c-.29-.23-.19-.56.22-.72,6.67-2.73,12.26-5.47,16.35-1.76,3.9,3.54-2.91,5.5-9,7.83A1.36,1.36,0,0,1,36.06,55Z"/><path class="cls-4" d="M29,60.13c-2.82,5.3-19.3,11.56-23.95,8.25a5.21,5.21,0,0,1-1.81-2c1.6-4.09,8.52-8.55,17.68-10.69,1-.23,1.95-.51,2.89-.81A1.38,1.38,0,0,1,25,55l4.9,4A4,4,0,0,0,29,60.13Z"/><path class="cls-6" d="M46.3,50.64a3.63,3.63,0,0,1,.28.27c-1.69,1.56-5.62,2.83-9.28,4.23A1.36,1.36,0,0,1,36.06,55L31.9,51.59C37.71,49.18,42.62,47.29,46.3,50.64Z"/><path class="cls-7" d="M3.57,66.88h0q-.16-.27-.3-.54h0c-2.15-4.69,5.91-11.26,17.68-14,1-.23,1.95-.51,2.89-.81a1.6,1.6,0,0,1,.92,0h0a.72.72,0,0,1,.26.14l5,4.11,1.66,1.38a.38.38,0,0,1,.13.16.39.39,0,0,1,0,.18.47.47,0,0,1-.25.32,10.51,10.51,0,0,0-1.23.82l-.34.28a1.14,1.14,0,0,0-.11.11h0a3.38,3.38,0,0,0-.27.26l0,0c-.08.08-.15.17-.22.25l-.06.08-.15.2a2.38,2.38,0,0,0-.18.3c-.09.17-.2.34-.32.52l-.1.13-.29.39-.12.12a4.48,4.48,0,0,1-.36.4l-.11.11-.44.42-.09.08-.54.45,0,0-.64.48,0,0C20.15,67.53,8.8,71,5.07,68.38h0c-.21-.15-.4-.31-.58-.46l-.08-.08A4.36,4.36,0,0,1,4,67.41l0,0A5.15,5.15,0,0,1,3.57,66.88Z"/><path class="cls-3" d="M46.94,48l.15.21,0,.07c0,.1.1.19.14.28s0,0,0,0a1.43,1.43,0,0,1,.08.22s0,.06,0,.08l0,.18a.28.28,0,0,1,0,.09.67.67,0,0,1,0,.2v.06a2,2,0,0,1,0,.24.64.64,0,0,1,0,.07l-.06.18s0,0,0,.08a.8.8,0,0,1-.08.16.56.56,0,0,1-.05.08,1.43,1.43,0,0,1-.14.2l0,0c0,.07-.12.14-.19.22l-.07.07-.16.15-.09.08-.18.15-.09.07-.28.21-.09.06-.24.15-.13.08-.22.13-.14.08-.25.14-.13.07-.37.19-.17.08-.25.12-.19.08-.25.12-.19.08L43,53l-.28.11-.31.13-.23.1-.25.1-.24.09-.26.1-.23.09h0c-.84.33-1.71.65-2.59,1l-.43.16L38,54.9l-.65.24a1.42,1.42,0,0,1-.5.08,1.14,1.14,0,0,1-.74-.21l-6.33-5.22c-.29-.23-.19-.56.22-.72,4.21-1.73,8-3.45,11.23-3.56h0c.22,0,.44,0,.66,0h0l.67,0h0c.2,0,.4.06.6.1l.09,0,.61.17h0c.18.06.36.14.54.22l.12,0c.19.09.37.18.56.29l0,0,.5.33.13.1a6.28,6.28,0,0,1,.51.42h0l.31.3.08.09.18.2A.86.86,0,0,0,46.94,48Z"/><path class="cls-7" d="M28.82,103.92a12.27,12.27,0,0,0,4-1.49,1.44,1.44,0,0,1,.76-.13h0a1.39,1.39,0,0,1,.35.09h0l9.51,3.84a.63.63,0,0,1,.36.31.33.33,0,0,1,0,.29.28.28,0,0,1-.07.09c-.26.27-.51.55-.74.82a8.34,8.34,0,0,0-.65.85h0c-.23.33-.48.65-.74,1l-.19.24c-.27.31-.54.62-.83.92h0c-.29.31-.6.6-.92.9l-.24.21-1,.84h0q-.52.42-1.08.81l-.25.18c-.49.33-1,.66-1.5,1h0l-.84.48-.26.15-.66.35,0,0c-.18.09-.35.19-.53.27h0l-.33.15-.08,0-.85.39-.11,0-.84.35-.13.05-.82.32-.17.06-.8.27-.2.06c-.26.09-.51.17-.77.24l-.24.07-.74.2-.27.07-.71.16-.3.07-.68.13-.33.06-.64.1-.37.05-.6.07-.39,0-.57,0-.41,0-.54,0c-.14,0-.29,0-.43,0a4.17,4.17,0,0,1-.5,0H20l-.47,0-.46,0-.44,0-.46-.07-.42-.06-.46-.1-.38-.08a3.92,3.92,0,0,1-.49-.13l-.34-.09c-.18,0-.35-.12-.53-.18l-.25-.09c-.26-.1-.51-.2-.76-.32a3,3,0,0,1-.4-.22l-.16-.11-.14-.11C9.84,114.16,20.09,105.47,28.82,103.92Z"/><path class="cls-7" d="M37.69,99.86c-.41-.16-.51-.48-.23-.72,3-2.66,5.74-5.55,9.52-5.83h0a7.22,7.22,0,0,1,.93,0h0l.48,0h0l.46,0,.08,0,.43.08.14,0,.39.09.26.07.28.08.55.19c.19.07.37.14.54.22l.15.06.33.15.17.08.26.14.15.09.23.14.13.09.2.14.11.09.2.18s0,0,0,.05a2.25,2.25,0,0,1,.21.24l0,.07a1.63,1.63,0,0,1,.11.17A.93.93,0,0,1,54,96l.07.14,0,.11a.83.83,0,0,1,0,.15l0,.1s0,.1,0,.15,0,.08,0,.11,0,.11,0,.17a.28.28,0,0,1,0,.09,2.38,2.38,0,0,1-.05.26l0,.08a.82.82,0,0,1-.06.19s0,.07,0,.11a.77.77,0,0,0-.07.16.75.75,0,0,0-.07.12,1.09,1.09,0,0,0-.08.15l-.08.13-.1.15a.64.64,0,0,1-.1.13.91.91,0,0,1-.11.16,1.13,1.13,0,0,0-.1.13c-.05.06-.11.12-.16.19l-.16.18-.18.19-.14.15-.14.15-.16.15-.15.14a1.29,1.29,0,0,1-.17.16l-.15.14-.18.17-.15.13-.2.18-.12.1c-.28.24-.57.49-.87.73l-.08.06-.3.25,0,0h0l-1.19,1-.66.53-.06,0a.93.93,0,0,1-.26.15,1.44,1.44,0,0,1-1,0l-2.48-1Z"/><path class="cls-8" d="M115.05,71.3h0L57.25,37.92,50.52,49.57,108.33,83v0h0c2.33,1.35,5.73-.16,7.59-3.37S117.39,72.65,115.05,71.3Z"/><path class="cls-9" d="M115.05,71.3h0L61.48,40.36,58.11,46.2l52.77,30.45c2.94,1.7,6.49-1.43,5-4.46A2.09,2.09,0,0,0,115.05,71.3Z"/><path class="cls-10" d="M115.05,71.3h0L57.25,37.92,50.52,49.57,108.33,83v0h0c2.33,1.35,5.73-.16,7.59-3.37S117.39,72.65,115.05,71.3Z"/><path class="cls-11" d="M78.42,47.56v0l-15.51-9L53.83,54.32l15.51,9h0c3.16,1.82,7.75-.22,10.25-4.56S81.58,49.38,78.42,47.56Z"/><path class="cls-12" d="M78.42,47.56v0L67.5,41.23,63,49l9.85,5.67c3.92,2.26,8.65-1.91,6.61-6A2.73,2.73,0,0,0,78.42,47.56Z"/><path class="cls-10" d="M78.42,47.56v0l-15.51-9L53.83,54.32l15.51,9h0c3.16,1.82,7.75-.22,10.25-4.56S81.58,49.38,78.42,47.56Z"/><path class="cls-12" d="M70.31,9,59.42,2.68h0C55,.15,49.28.38,43,4,29.15,12,17.91,33.47,17.91,52c0,10.1,3.37,17.21,8.68,20.28h0l10.88,6.28,1.67-5.77A25.39,25.39,0,0,0,43,70.91c13.86-8,25.09-29.46,25.09-47.94a35.81,35.81,0,0,0-1.1-9.2Z"/><path class="cls-9" d="M59.42,2.68h0C55,.15,49.28.38,43,4c-7.57,4.37-14.36,12.77-19,22.5L62,48.41A61,61,0,0,0,68.09,23a35.81,35.81,0,0,0-1.1-9.2L70.31,9Z"/><path class="cls-7" d="M70.31,9,59.42,2.68h0C55,.15,49.28.38,43,4,29.15,12,17.91,33.47,17.91,52c0,10.1,3.37,17.21,8.68,20.28h0l10.88,6.28,1.67-5.77A25.39,25.39,0,0,0,43,70.91c13.86-8,25.09-29.46,25.09-47.94a35.81,35.81,0,0,0-1.1-9.2Z"/><line class="cls-7" x1="53.89" y1="43.74" x2="43" y2="37.46"/><ellipse class="cls-11" cx="53.89" cy="43.74" rx="38.52" ry="21.79" transform="translate(-7.46 76.2) rotate(-66.95)"/><path class="cls-12" d="M45.65,73.06C38.56,73.06,34,66.26,34,55.73c0-15,9.12-32.46,20.33-38.93a15.75,15.75,0,0,1,7.82-2.38c7.09,0,11.67,6.81,11.67,17.34,0,15-9.12,32.45-20.33,38.93A15.89,15.89,0,0,1,45.65,73.06Z"/><path class="cls-9" d="M68.84,52.38,38.93,35.11a49.69,49.69,0,0,0-5,20.62c0,10.53,4.58,17.33,11.67,17.33a15.89,15.89,0,0,0,7.82-2.37C59.61,67.14,65.11,60.3,68.84,52.38Z"/><path class="cls-10" d="M45.65,73.06C38.56,73.06,34,66.26,34,55.73c0-15,9.12-32.46,20.33-38.93a15.75,15.75,0,0,1,7.82-2.38c7.09,0,11.67,6.81,11.67,17.34,0,15-9.12,32.45-20.33,38.93A15.89,15.89,0,0,1,45.65,73.06Z"/><path class="cls-10" d="M70.3,9h0L59.42,2.68h0C55,.15,49.28.38,43,4c-.41.23-.81.48-1.22.74l-.4.27-.8.54-.48.35-.7.52-.52.41-.64.53-.54.45c-.2.17-.4.36-.6.54l-.55.49L36,9.39l-.57.55-.47.48c-.8.83-1.59,1.7-2.36,2.61l-.27.32-.72.9-.27.34-.72.94-.24.32c-.24.33-.49.67-.73,1l-.17.24c-.26.37-.52.75-.77,1.13l-.05.08C22.16,28.11,17.91,40.59,17.91,52c0,10.1,3.37,17.21,8.68,20.28h0l10.88,6.28h0c4.4,2.54,10.14,2.31,16.42-1.31C67.74,69.2,79,47.73,79,29.26,79,19.15,75.61,12,70.3,9Z"/><path class="cls-9" d="M54.31,16.8C43.1,23.27,34,40.74,34,55.73a24.65,24.65,0,0,0,2.23,11,16.84,16.84,0,0,0,6.37-2.28c11.21-6.47,20.34-23.93,20.34-38.92a24.69,24.69,0,0,0-2.23-11A17,17,0,0,0,54.31,16.8Z"/><g class="cls-13"><path class="cls-2" d="M30.9,48.65c-.33-.28-.21-.65.26-.85,7.77-3.18,14.29-6.38,19.07-2,4.54,4.13-3.4,6.42-10.5,9.14a1.61,1.61,0,0,1-1.45-.16Z"/><path class="cls-3" d="M30.9,48.65c-.33-.28-.21-.65.26-.85,7.77-3.18,14.29-6.38,19.07-2,4.54,4.13-3.4,6.42-10.5,9.14a1.61,1.61,0,0,1-1.45-.16Z"/><path class="cls-4" d="M50.23,49.63c.12.11.22.22.32.32-2,1.82-6.55,3.3-10.82,4.94a1.61,1.61,0,0,1-1.45-.16l-4.84-4C40.21,47.94,45.93,45.73,50.23,49.63Z"/><path class="cls-14" d="M51,46.56l.17.24.06.09c.06.11.12.21.17.32s0,0,0,.06a2.5,2.5,0,0,1,.09.25l0,.11,0,.2a.41.41,0,0,1,0,.11,1.69,1.69,0,0,1,0,.23.13.13,0,0,1,0,.06,1.35,1.35,0,0,1,0,.29l0,.08a1.18,1.18,0,0,1-.07.2s0,.07,0,.11l-.1.18-.06.09a1.67,1.67,0,0,1-.16.24l0,0c-.07.08-.14.17-.22.25l-.09.09-.18.17-.11.1-.2.17-.11.09-.33.24-.11.07-.27.17-.16.1-.25.15-.17.1-.28.15-.16.08-.43.23-.19.09-.3.14-.22.1-.29.13-.23.1-.33.15-.33.13-.36.16-.27.11-.29.11-.28.11-.3.12-.27.1,0,0h0l-3,1.13-.51.19-.24.09-.76.29a1.6,1.6,0,0,1-.58.09,1.4,1.4,0,0,1-.87-.25L30.9,48.65c-.33-.28-.21-.65.26-.85,4.91-2,9.31-4,13.1-4.14h.84l.77.07h0c.24,0,.48.08.71.13l.11,0c.24.06.47.12.7.2h0c.22.07.43.16.64.25l.14.06a6.75,6.75,0,0,1,.65.34l0,0c.2.12.39.25.58.39l.16.11a6.66,6.66,0,0,1,.59.49h0c.13.12.24.24.35.35l.1.1.2.25Z"/></g><path class="cls-10" d="M54.31,16.8C43.1,23.27,34,40.74,34,55.73a24.65,24.65,0,0,0,2.23,11,16.84,16.84,0,0,0,6.37-2.28c11.21-6.47,20.34-23.93,20.34-38.92a24.69,24.69,0,0,0-2.23-11A17,17,0,0,0,54.31,16.8Z"/><rect class="cls-1" width="120" height="120"/><rect class="cls-1" width="120" height="120"/></g></g></svg>