<svg xmlns="http://www.w3.org/2000/svg" viewBox="0 0 120 120"><defs><style>.cls-1{fill:#dfeab0;}.cls-2{fill:#c4d36c;}.cls-10,.cls-11,.cls-3,.cls-8,.cls-9{fill:none;}.cls-3,.cls-4{stroke:#c4d36c;}.cls-10,.cls-3,.cls-4,.cls-5,.cls-7,.cls-8,.cls-9{stroke-linecap:round;stroke-linejoin:round;stroke-width:2px;}.cls-4,.cls-7{fill:#fff;}.cls-5{fill:#98b9ea;}.cls-5,.cls-7{stroke:#98b9ea;}.cls-6{fill:#deeaff;}.cls-8{stroke:#436db5;}.cls-10,.cls-9{stroke:#a7b23b;}.cls-10{stroke-dasharray:0 6.24;}</style></defs><title>solutions-2</title><g id="Layer_2" data-name="Layer 2"><g id="Objects"><path class="cls-1" d="M77.89,21l-16.28-9.4a3.58,3.58,0,0,0-3.22,0L42.11,21,30.7,26h0V37.49l9,5.22A2.58,2.58,0,0,0,41,43a1.86,1.86,0,0,0,1.64-.76,4.48,4.48,0,0,1,1.92-1.93l.62-.32.16-.06a4.71,4.71,0,0,1,.52-.21l.15,0a5.22,5.22,0,0,1,.56-.18l.12,0a6.42,6.42,0,0,1,.63-.15l.08,0,.69-.12h0l.75-.08h0a13.88,13.88,0,0,1,1.58,0v2.82h0v6.59a.88.88,0,0,0,.51.71l9,5.21h0l9-5.21a2.48,2.48,0,0,1,1.22-.3,1.78,1.78,0,0,1,1.64.72A5,5,0,0,0,74.59,52a11.47,11.47,0,0,0,4.6.89,11.34,11.34,0,0,0,4.57-.93c1.89-.87,2.82-2.13,2.82-3.38h0V39.05l2.71-1.56V26h0Z"/><path class="cls-2" d="M70,48.91V26.23H60V54.4l9-5.21A2.24,2.24,0,0,1,70,48.91Z"/><path class="cls-2" d="M41.19,26V43a1.7,1.7,0,0,0,1.42-.74,4.57,4.57,0,0,1,1.93-1.93,11.84,11.84,0,0,1,8.56-.82l5.29-2.57V16.55L42.11,26Z"/><polygon class="cls-2" points="84.02 40.53 89.3 37.48 89.3 25.95 84.02 25.95 84.02 40.53"/><rect class="cls-2" x="77.57" y="26.23" width="7.81" height="8.03"/><path class="cls-3" d="M77.89,21l-16.28-9.4a3.58,3.58,0,0,0-3.22,0L42.11,21,30.7,26h0V37.49l9,5.22A2.58,2.58,0,0,0,41,43a1.86,1.86,0,0,0,1.64-.76,4.48,4.48,0,0,1,1.92-1.93l.62-.32.16-.06a4.71,4.71,0,0,1,.52-.21l.15,0a5.22,5.22,0,0,1,.56-.18l.12,0a6.42,6.42,0,0,1,.63-.15l.08,0,.69-.12h0l.75-.08h0a13.88,13.88,0,0,1,1.58,0v2.82h0v6.59a.88.88,0,0,0,.51.71l9,5.21h0l9-5.21a2.48,2.48,0,0,1,1.22-.3,1.78,1.78,0,0,1,1.64.72A5,5,0,0,0,74.59,52a11.47,11.47,0,0,0,4.6.89,11.34,11.34,0,0,0,4.57-.93c1.89-.87,2.82-2.13,2.82-3.38h0V39.05l2.71-1.56V26h0Z"/><path class="cls-4" d="M55.75,34.45A9,9,0,0,1,51.69,36c-1.26.19-1.65,1.12-.73,1.65l9,5.22,9-5.22c.92-.53,2.54-.3,2.86.43a5,5,0,0,0,2.69,2.34,12.13,12.13,0,0,0,9.17,0c3.55-1.64,3.76-4.63.64-6.43a9.49,9.49,0,0,0-3.33-1.12c-1.29-.2-1.76-1.11-.81-1.65l9-5.23L61.61,10a3.58,3.58,0,0,0-3.22,0L30.7,26l9,5.23c.95.54,2.53.27,2.87-.47a4.51,4.51,0,0,1,1.93-1.93c3.12-1.8,8.31-1.67,11.14.38C57.79,30.68,57.82,32.9,55.75,34.45Z"/><path class="cls-5" d="M107.19,74.17,90,64.25a1.55,1.55,0,0,0-.23-.4c-.52-.47-10-.69-10-.69V74.7h0a.51.51,0,0,0,.07.23H89.3v27.7l27.69-16a1.14,1.14,0,0,0,.67-.93V74.17Z"/><path class="cls-6" d="M90.5,77.72V64.54l-.5-.29a1.55,1.55,0,0,0-.23-.4c-.52-.47-10-.69-10-.69V74.7h0a.51.51,0,0,0,.07.23H89.3v2.79Z"/><path class="cls-5" d="M54.64,79.12,51,80.49c-.92-.53-.53-1.47.73-1.65a9,9,0,0,0,4.07-1.56,3.32,3.32,0,0,0,1.52-2.61h0V63.14l-12.18.71-1.17,3.23a4,4,0,0,0-1.31,1.52c-.35.75-1.93,1-2.88.47l-9-5.22L9.3,76.2l-7-2V85.71a1.13,1.13,0,0,0,.67.93l27.69,16,9-5.23a.81.81,0,0,0,.5-.68h0V90.13l-4.9-1.43a9.32,9.32,0,0,1,.9-.5,12.08,12.08,0,0,1,9.17,0A5,5,0,0,1,48.1,90.5c.32.73,1.94,1,2.86.43l9-5.22V79.12Z"/><path class="cls-6" d="M37.48,82.81v-15L30.7,63.85,9.3,76.2l-7-2V85.71a1.13,1.13,0,0,0,.67.93l27.69,16,6.78-3.92V84.38l-2.14-.62a6.39,6.39,0,0,1,.9-.5A9.57,9.57,0,0,1,37.48,82.81Z"/><path class="cls-5" d="M62.82,91.09a3.75,3.75,0,0,1,1.43-1.9,8.92,8.92,0,0,1,4.06-1.55c.79-.12,1.24-.53,1.24-1h0V80.1l-36.14,0v6.59h0a3.69,3.69,0,0,0,2.18,3,9.69,9.69,0,0,0,3.33,1.11,2.5,2.5,0,0,1,.84.29H30.7v11.54l27.69,16a3.52,3.52,0,0,0,3.22,0l27.69-16V91.09Z"/><path class="cls-6" d="M60,80.09l-26.59,0v6.59h0a3.69,3.69,0,0,0,2.18,3,9.69,9.69,0,0,0,3.33,1.11,2.5,2.5,0,0,1,.84.29H30.7v11.54l27.69,16A3.25,3.25,0,0,0,60,119Z"/><path class="cls-7" d="M45.41,76.63A5,5,0,0,1,48.1,79c.32.73,1.94,1,2.86.42l9-5.21L51,69c-.92-.53-.53-1.47.73-1.66a9,9,0,0,0,4.07-1.55c2.06-1.55,2-3.76-.08-5.29-2.83-2.05-8-2.17-11.14-.37A4.41,4.41,0,0,0,42.62,62c-.35.75-1.93,1-2.88.47l-9-5.22L3,73.24a1,1,0,0,0,0,1.87l27.69,16,9-5.22c.95-.55.48-1.46-.81-1.66A9.69,9.69,0,0,1,35.6,83.1c-3.12-1.8-2.91-4.8.64-6.43A12,12,0,0,1,45.41,76.63Z"/><path class="cls-7" d="M64.25,82.6a8.92,8.92,0,0,1,4.06-1.55c1.26-.19,1.65-1.12.73-1.66l-9-5.21-9,5.21c-.92.54-2.54.31-2.86-.42a5,5,0,0,0-2.69-2.34,12,12,0,0,0-9.17,0c-3.55,1.64-3.76,4.63-.64,6.43a9.69,9.69,0,0,0,3.33,1.11c1.29.2,1.76,1.11.81,1.66l-9,5.22,27.69,16a3.52,3.52,0,0,0,3.22,0l27.69-16-9-5.22c-1-.55-2.53-.28-2.87.47a4.57,4.57,0,0,1-1.93,1.93c-3.12,1.8-8.31,1.67-11.14-.38C62.21,86.36,62.18,84.15,64.25,82.6Z"/><path class="cls-7" d="M74.59,71.72a5,5,0,0,1-2.69-2.34c-.32-.73-1.94-1-2.86-.42l-9,5.21,9,5.22c.92.53.53,1.47-.73,1.65a9.09,9.09,0,0,0-4.07,1.56c-2.06,1.55-2,3.76.08,5.29,2.83,2,8,2.17,11.14.37a4.47,4.47,0,0,0,1.92-1.92c.35-.75,1.93-1,2.88-.47l9,5.22,27.69-16a1,1,0,0,0,0-1.87l-27.69-16-9,5.22c-1,.55-.48,1.46.81,1.66a9.69,9.69,0,0,1,3.33,1.11c3.12,1.8,2.91,4.8-.64,6.43A12,12,0,0,1,74.59,71.72Z"/><path class="cls-8" d="M117.66,74.17a1.14,1.14,0,0,0-.67-.93l-27.69-16-9,5.22a.82.82,0,0,0-.5.68h0v9.42a11.7,11.7,0,0,1-5.17-.86,5,5,0,0,1-2.69-2.34c-.32-.73-1.94-1-2.86-.42l-9,5.21,9,5.22c.92.53.53,1.47-.73,1.65a9,9,0,0,0-4.06,1.56c-2.07,1.55-2,3.76.07,5.29,2.83,2,8,2.17,11.14.37a4.47,4.47,0,0,0,1.92-1.92c.35-.75,1.93-1,2.88-.47l9,5.22h0v11.54l27.69-16a1.14,1.14,0,0,0,.67-.93V74.17Z"/><path class="cls-8" d="M57.28,72.61V63.14h0a3.36,3.36,0,0,0-1.6-2.68c-2.83-2.05-8-2.17-11.14-.37A4.41,4.41,0,0,0,42.62,62c-.35.75-1.93,1-2.88.47l-9-5.22L3,73.24a1.14,1.14,0,0,0-.67.94h0V85.71a1.13,1.13,0,0,0,.67.93l27.69,16V91.09h0l9-5.22c.95-.55.48-1.46-.81-1.66A9.69,9.69,0,0,1,35.6,83.1c-3.12-1.8-2.91-4.8.64-6.43a12,12,0,0,1,9.17,0A5,5,0,0,1,48.1,79c.32.73,1.94,1,2.86.42l9-5.21Z"/><path class="cls-8" d="M89.3,91.09l-9-5.22c-1-.55-2.53-.28-2.87.47a4.57,4.57,0,0,1-1.93,1.93c-3.12,1.8-8.31,1.67-11.14-.38-2.11-1.53-2.14-3.74-.07-5.29a8.92,8.92,0,0,1,4.06-1.55c1.26-.19,1.65-1.12.73-1.66l-9-5.21-9,5.21c-.92.54-2.54.31-2.86-.42a5,5,0,0,0-2.69-2.34,12,12,0,0,0-9.17,0c-3.55,1.64-3.76,4.63-.64,6.43a9.69,9.69,0,0,0,3.33,1.11c1.29.2,1.76,1.11.81,1.66l-9,5.22h0v11.54l27.69,16a3.52,3.52,0,0,0,3.22,0l27.69-16V91.09Z"/><path class="cls-9" d="M89.3,26,61.61,10a3.58,3.58,0,0,0-3.22,0L30.69,26h0V37.49l9.05,5.22A2.58,2.58,0,0,0,41,43a1.38,1.38,0,0,0,.2,0h.07l.37-.07.12,0,.3-.11.17-.11a1,1,0,0,0,.17-.12.86.86,0,0,0,.23-.28h0a4.57,4.57,0,0,1,1.93-1.93h0a6.92,6.92,0,0,1,.82-.4l.24-.1.71-.25.21-.06a9.08,9.08,0,0,1,.9-.22l.34-.05c.21,0,.43-.07.64-.09l.38,0H49c.42,0,.85,0,1.27,0h.17v9.4a.88.88,0,0,0,.51.71l9,5.21h0l9-5.21a2.08,2.08,0,0,1,.51-.2l.31-.05a2.73,2.73,0,0,1,.4,0,1.78,1.78,0,0,1,1.64.72A5,5,0,0,0,74.59,52a11.47,11.47,0,0,0,4.6.89,11.34,11.34,0,0,0,4.57-.93,5.76,5.76,0,0,0,2.18-1.63l0,0a3.11,3.11,0,0,0,.25-.38l.05-.09a2.52,2.52,0,0,0,.15-.34,1.06,1.06,0,0,0,.06-.19c0-.08,0-.17.07-.26a2.53,2.53,0,0,0,0-.38s0-.05,0-.07h0V39.05l2.71-1.57V26Z"/><line class="cls-9" x1="89.3" y1="25.95" x2="89.3" y2="25.95"/><line class="cls-10" x1="89.3" y1="19.71" x2="89.3" y2="4.12"/><line class="cls-9" x1="89.3" y1="1" x2="89.3" y2="1"/><line class="cls-9" x1="30.7" y1="25.95" x2="30.7" y2="25.95"/><line class="cls-10" x1="30.7" y1="19.71" x2="30.7" y2="4.12"/><line class="cls-9" x1="30.7" y1="1" x2="30.7" y2="1"/><rect class="cls-11" width="120" height="120"/><rect class="cls-11" width="120" height="120"/></g></g></svg>