<svg xmlns="http://www.w3.org/2000/svg" viewBox="0 0 120 120"><defs><style>.cls-1,.cls-3{fill:#fff;}.cls-1,.cls-2{stroke:#98b9ea;}.cls-1,.cls-2,.cls-3,.cls-4,.cls-5{stroke-linecap:round;stroke-linejoin:round;stroke-width:2px;}.cls-2{fill:#deeaff;}.cls-3,.cls-4{stroke:#fff;}.cls-4{fill:#98b9ea;}.cls-5,.cls-6{fill:none;}.cls-5{stroke:#436db5;}</style></defs><title>star(1x1)</title><g id="Layer_2" data-name="Layer 2"><g id="Objects"><g id="star_1x1_" data-name="star(1x1)"><polygon class="cls-1" points="102.05 24.9 90.93 18.48 68.72 31.3 74.63 40.73 102.05 24.9"/><polygon class="cls-2" points="65.13 11.42 54.01 5 44.51 45.28 55.63 51.7 65.13 11.42"/><polygon class="cls-3" points="55.63 51.7 29.07 67.04 17.95 60.62 44.51 45.28 55.63 51.7"/><polygon class="cls-2" points="40.91 115 29.79 108.58 38.39 72.08 49.6 78.15 40.91 115"/><path class="cls-4" d="M80.86,60.84,102.05,24.9,74.63,40.74l-9.5-29.32L55.63,51.7,29.07,67,49.6,78.15,40.91,115,65.13,82.37,89.35,87Z"/><path class="cls-5" d="M102.05,24.9,90.93,18.48,71.12,29.92l-6-18.5-.11.46.11-.46L54,5l-9.5,40.28L18,60.62,29.07,67l9.37,5.07,0,0-8.61,36.5L40.91,115,65.13,82.37,89.35,87,80.86,60.84Z"/><rect class="cls-6" width="120" height="120"/><rect class="cls-6" width="120" height="120"/></g></g></g></svg>