<svg xmlns="http://www.w3.org/2000/svg" viewBox="0 0 120 120"><defs><style>.cls-1{fill:#dfeab0;}.cls-2,.cls-4{fill:#c4d36c;}.cls-3,.cls-8{fill:#fff;}.cls-3{stroke:#c4d36c;}.cls-10,.cls-11,.cls-3,.cls-4,.cls-5,.cls-6,.cls-7{stroke-linecap:round;stroke-linejoin:round;stroke-width:2px;}.cls-4{stroke:#dfeab0;}.cls-10,.cls-11,.cls-12,.cls-5,.cls-6,.cls-7{fill:none;}.cls-5,.cls-6,.cls-7{stroke:#a7b23b;}.cls-6{stroke-dasharray:0 5.82;}.cls-7{stroke-dasharray:0 6.62;}.cls-9{fill:#deeaff;}.cls-10{stroke:#436db5;}.cls-11{stroke:#98b9ea;}</style></defs><title>system</title><g id="Layer_2" data-name="Layer 2"><g id="Objects"><path class="cls-1" d="M80.69,75.69,63.77,65.92a8.35,8.35,0,0,0-7.54,0L39.31,75.69H13.25V92a2.65,2.65,0,0,0,1.56,2.18L56.23,118.1a8.35,8.35,0,0,0,7.54,0l41.42-23.91A2.65,2.65,0,0,0,106.75,92V75.69Z"/><path class="cls-2" d="M63.77,118.1l41.42-23.91A2.65,2.65,0,0,0,106.75,92V75.69H80.69L63.77,65.92A7.7,7.7,0,0,0,60,65v54A7.7,7.7,0,0,0,63.77,118.1Z"/><line class="cls-3" x1="41.64" y1="102.14" x2="29.4" y2="95.07"/><path class="cls-3" d="M105.19,73.51,63.77,49.6a8.28,8.28,0,0,0-7.54,0L14.81,73.51c-2.08,1.2-2.08,3.15,0,4.36l41.42,23.91a8.35,8.35,0,0,0,7.54,0l41.42-23.91C107.27,76.66,107.27,74.71,105.19,73.51Z"/><polygon class="cls-4" points="95.49 99.79 73.61 112.42 73.61 104.88 95.49 92.25 95.49 99.79"/><path class="cls-5" d="M105.19,73.51,63.77,49.6a8.28,8.28,0,0,0-7.54,0L14.81,73.51a2.65,2.65,0,0,0-1.56,2.18V92a2.65,2.65,0,0,0,1.56,2.18L56.23,118.1a8.35,8.35,0,0,0,7.54,0l41.42-23.91A2.65,2.65,0,0,0,106.75,92V75.69A2.65,2.65,0,0,0,105.19,73.51Z"/><ellipse class="cls-1" cx="96.06" cy="75.69" rx="2.12" ry="1.22"/><ellipse class="cls-1" cx="60" cy="96.51" rx="2.12" ry="1.22"/><ellipse class="cls-1" cx="60" cy="54.87" rx="2.12" ry="1.22"/><ellipse class="cls-1" cx="23.94" cy="75.69" rx="2.12" ry="1.22"/><line class="cls-5" x1="106.75" y1="46.59" x2="106.75" y2="46.59"/><line class="cls-6" x1="106.75" y1="52.41" x2="106.75" y2="72.78"/><line class="cls-5" x1="106.75" y1="75.69" x2="106.75" y2="75.69"/><line class="cls-5" x1="13.25" y1="49.21" x2="13.25" y2="49.21"/><line class="cls-7" x1="13.25" y1="55.83" x2="13.25" y2="72.38"/><line class="cls-5" x1="13.25" y1="75.69" x2="13.25" y2="75.69"/><path class="cls-8" d="M71.84,12.57h0L61,6.32h0c-1.27-.73-2.91-.67-4.72.37l-.78.46L46.25,1.81h0C44.14.59,41.39.7,38.38,2.44,32.1,6.07,27,15.46,26.41,24l-5.95,3.43c-4,2.31-7.21,8.48-7.21,13.79h0c0,2.91,1,5,2.5,5.83h0l10.82,6.24h0c1.26.73,2.91.66,4.72-.38L67.12,32.19c4-2.3,7.21-8.48,7.21-13.79h0C74.33,15.49,73.36,13.45,71.84,12.57Z"/><path class="cls-9" d="M67.12,13l-6,3.43c-.54-7.88-5.69-11.32-12-7.7s-11.44,13-12,21.53l-5.94,3.43c-4,2.3-7.22,8.47-7.22,13.78s3.23,7.76,7.22,5.46L67.12,32.19c4-2.3,7.21-8.48,7.21-13.79h0C74.33,13.09,71.1,10.65,67.12,13Z"/><path class="cls-10" d="M71.84,12.57h0L61,6.32h0c-1.27-.73-2.91-.67-4.72.37l-.78.46L46.25,1.81h0C44.14.59,41.39.7,38.38,2.44,32.1,6.07,27,15.46,26.41,24l-5.95,3.43c-4,2.31-7.21,8.48-7.21,13.79h0c0,2.91,1,5,2.5,5.83h0l10.82,6.24h0c1.26.73,2.91.66,4.72-.38L67.12,32.19c4-2.3,7.21-8.48,7.21-13.79h0C74.33,15.49,73.36,13.45,71.84,12.57Z"/><path class="cls-11" d="M67.12,13l-6,3.43c-.54-7.88-5.69-11.32-12-7.7s-11.44,13-12,21.53l-5.94,3.43c-4,2.3-7.22,8.47-7.22,13.78"/><path class="cls-8" d="M104.26,31.29h0L93.44,25h0c-1.27-.73-2.91-.67-4.72.37l-.78.45-9.27-5.35h0c-2.11-1.22-4.86-1.11-7.87.63-6.28,3.62-11.43,13-12,21.52l-5.95,3.43c-4,2.3-7.21,8.48-7.21,13.79h0c0,2.91,1,4.95,2.5,5.83h0L59,72h0c1.26.73,2.91.66,4.72-.38L99.54,50.91c4-2.3,7.21-8.48,7.21-13.79h0C106.75,34.21,105.78,32.17,104.26,31.29Z"/><path class="cls-9" d="M99.54,31.66l-6,3.43c-.54-7.87-5.69-11.32-12-7.69s-11.44,13-12,21.52L63.7,52.36c-4,2.3-7.22,8.47-7.22,13.78s3.23,7.76,7.22,5.46L99.54,50.91c4-2.3,7.21-8.48,7.21-13.79h0C106.75,31.81,103.52,29.36,99.54,31.66Z"/><path class="cls-10" d="M104.26,31.29h0L93.44,25h0c-1.27-.73-2.91-.67-4.72.37l-.78.45-9.27-5.35h0c-2.11-1.22-4.86-1.11-7.87.63-6.28,3.62-11.43,13-12,21.52l-5.95,3.43c-4,2.3-7.21,8.48-7.21,13.79h0c0,2.91,1,4.95,2.5,5.83h0L59,72h0c1.26.73,2.91.66,4.72-.38L99.54,50.91c4-2.3,7.21-8.48,7.21-13.79h0C106.75,34.21,105.78,32.17,104.26,31.29Z"/><path class="cls-11" d="M99.54,31.66l-6,3.43c-.54-7.87-5.69-11.32-12-7.69s-11.44,13-12,21.52L63.7,52.36c-4,2.3-7.22,8.47-7.22,13.78"/><rect class="cls-12" width="120" height="120"/><rect class="cls-12" width="120" height="120"/></g></g></svg>