<svg xmlns="http://www.w3.org/2000/svg" viewBox="0 0 120 120"><defs><style>.cls-1,.cls-12,.cls-2,.cls-3,.cls-4{fill:none;}.cls-1,.cls-2{stroke:#a7b23b;}.cls-1,.cls-11,.cls-2,.cls-3,.cls-4,.cls-7{stroke-linecap:round;stroke-linejoin:round;stroke-width:2px;}.cls-2{stroke-dasharray:0 6.09;}.cls-3,.cls-4{stroke:#436db5;}.cls-4{stroke-dasharray:0 5.72;}.cls-5{fill:#98b9ea;}.cls-6{fill:#deeaff;}.cls-7,.cls-9{fill:#fff;}.cls-7{stroke:#98b9ea;}.cls-11,.cls-8{fill:#c4d36c;}.cls-10{fill:#dfeab0;}.cls-11{stroke:#c4d36c;}</style></defs><title>technotes</title><g id="Layer_2" data-name="Layer 2"><g id="Tech_Concepts" data-name="Tech Concepts"><line class="cls-1" x1="102.7" y1="33.21" x2="102.7" y2="33.21"/><line class="cls-2" x1="102.7" y1="39.3" x2="102.7" y2="72.79"/><line class="cls-1" x1="102.7" y1="75.83" x2="102.7" y2="75.83"/><line class="cls-3" x1="17.17" y1="40.58" x2="17.17" y2="40.58"/><line class="cls-4" x1="17.17" y1="46.29" x2="17.17" y2="77.73"/><line class="cls-3" x1="17.17" y1="80.59" x2="17.17" y2="80.59"/><polygon class="cls-5" points="102.7 85.27 102.83 96.56 63.97 119 63.84 107.7 102.7 85.27"/><polygon class="cls-6" points="63.97 119 17.3 91.89 17.18 80.59 63.84 107.7 63.97 119"/><line class="cls-7" x1="63.88" y1="113.43" x2="17.22" y2="86.32"/><polygon class="cls-7" points="63.84 107.7 17.18 80.59 56.03 58.16 102.7 85.27 63.84 107.7"/><polygon class="cls-5" points="62.79 62.08 56.03 58.16 17.18 80.59 23.93 84.51 62.79 62.08"/><polygon class="cls-3" points="102.7 85.27 56.03 58.16 17.18 80.59 17.3 91.89 63.97 119 102.83 96.56 102.7 85.27"/><polygon class="cls-8" points="42.2 86.86 40.38 87.91 33.09 83.7 34.91 82.65 42.2 86.86"/><polygon class="cls-8" points="58.6 77.39 56.77 78.44 49.48 74.23 51.31 73.18 58.6 77.39"/><path class="cls-8" d="M42.2,78.44c-2,1.16-2,3,0,4.21a8,8,0,0,0,7.28,0c2-1.16,2-3.05,0-4.21A8,8,0,0,0,42.2,78.44Zm5.56,3.22a4.26,4.26,0,0,1-3.84,0c-1.07-.62-1.07-1.61,0-2.22a4.2,4.2,0,0,1,3.84,0C48.83,80.05,48.83,81,47.76,81.66Z"/><polygon class="cls-8" points="53.23 93.11 51.4 94.17 44.12 89.96 45.94 88.91 53.23 93.11"/><path class="cls-8" d="M87.58,85.91c2-1.16,2-3,0-4.2a8,8,0,0,0-7.29,0c-2,1.16-2,3,0,4.2A8,8,0,0,0,87.58,85.91ZM82,82.7a4.28,4.28,0,0,1,3.85,0,1.17,1.17,0,0,1,0,2.22,4.28,4.28,0,0,1-3.85,0A1.17,1.17,0,0,1,82,82.7Z"/><polygon class="cls-8" points="64.16 99.43 62.34 100.48 55.05 96.27 56.87 95.22 64.16 99.43"/><polygon class="cls-8" points="61.76 93.17 63.58 92.12 70.87 96.33 69.05 97.38 61.76 93.17"/><path class="cls-8" d="M78.16,92.12c2-1.16,2-3.05,0-4.21a8.07,8.07,0,0,0-7.29,0c-2,1.16-2,3,0,4.21A8.07,8.07,0,0,0,78.16,92.12ZM72.59,88.9a4.28,4.28,0,0,1,3.85,0,1.17,1.17,0,0,1,0,2.22,4.22,4.22,0,0,1-3.85,0A1.17,1.17,0,0,1,72.59,88.9Z"/><path class="cls-8" d="M58.4,69.09c-2,1.16-2,3,0,4.21a8.07,8.07,0,0,0,7.29,0c2-1.17,2-3,0-4.21A8,8,0,0,0,58.4,69.09ZM64,72.3a4.22,4.22,0,0,1-3.85,0,1.17,1.17,0,0,1,0-2.22,4.28,4.28,0,0,1,3.85,0A1.17,1.17,0,0,1,64,72.3Z"/><polygon class="cls-8" points="80.29 77.5 78.46 78.55 71.17 74.35 73 73.29 80.29 77.5"/><path class="cls-8" d="M53.12,84.76c-2,1.16-2,3,0,4.21a8.07,8.07,0,0,0,7.29,0c2-1.17,2-3,0-4.21A8,8,0,0,0,53.12,84.76ZM58.69,88a4.2,4.2,0,0,1-3.84,0,1.17,1.17,0,0,1,0-2.22,4.26,4.26,0,0,1,3.84,0A1.17,1.17,0,0,1,58.69,88Z"/><path class="cls-8" d="M64.06,78.44c-2,1.17-2,3,0,4.21a8.07,8.07,0,0,0,7.29,0c2-1.16,2-3,0-4.21A8.07,8.07,0,0,0,64.06,78.44Zm5.57,3.22a4.28,4.28,0,0,1-3.85,0,1.17,1.17,0,0,1,0-2.22,4.22,4.22,0,0,1,3.85,0A1.17,1.17,0,0,1,69.63,81.66Z"/><ellipse class="cls-6" cx="29.18" cy="78.07" rx="2.5" ry="1.44"/><path class="cls-9" d="M62,14c.18,0,1.92-8.5,1.92-8.5L56.4,1.14h0A1,1,0,0,0,56.08,1a2.22,2.22,0,0,0-1.92,1L30.87,29.94l.69-2.2-7.21-4.23h0A.88.88,0,0,0,24,23.4a2.16,2.16,0,0,0-1.91,1l-3.75,4.47A5.43,5.43,0,0,0,17.3,31a3.39,3.39,0,0,0,.07,2.07l6.36,14.52a1.27,1.27,0,0,0,.52.61h0l7.53,4.35-.25-9.35L56.71,13.08C58.9,13.47,61.89,14,62,14Z"/><path class="cls-10" d="M17.33,30.93l0,.11a3.39,3.39,0,0,0,.07,2.07l6.36,14.52a1.27,1.27,0,0,0,.52.61h0l7.53,4.35-.25-9.35,2.32-2.78Z"/><path class="cls-11" d="M32.1,52.72a1.17,1.17,0,0,1-.84-.74L24.9,37.46a3.39,3.39,0,0,1-.07-2.07,5.43,5.43,0,0,1,1.07-2.18l3.75-4.48a2.21,2.21,0,0,1,1.91-1,1.17,1.17,0,0,1,.84.74L36.14,37,61.69,6.36a2.19,2.19,0,0,1,1.92-1,1.16,1.16,0,0,1,.84.74l1.75,4a3.39,3.39,0,0,1,.07,2.07,5.37,5.37,0,0,1-1.07,2.18L34,51.72A2.19,2.19,0,0,1,32.1,52.72Z"/><path class="cls-1" d="M66.2,10.1l-1.75-4a1.36,1.36,0,0,0-.52-.62h0L56.4,1.14h0A1,1,0,0,0,56.08,1a2.22,2.22,0,0,0-1.92,1L32.28,28.26a1.1,1.1,0,0,0-.72-.52l-7.21-4.23h0A.88.88,0,0,0,24,23.4a2.16,2.16,0,0,0-1.91,1l-3.75,4.47A5.43,5.43,0,0,0,17.3,31a3.39,3.39,0,0,0,.07,2.07l6.36,14.52a1.27,1.27,0,0,0,.52.61h0l7.53,4.35h0a1.13,1.13,0,0,0,.32.13,2.19,2.19,0,0,0,1.91-1L65.2,14.35a5.37,5.37,0,0,0,1.07-2.18A3.39,3.39,0,0,0,66.2,10.1Z"/><path class="cls-9" d="M98.44,35c.18,0,1.92-8.5,1.92-8.5l-7.53-4.35h0a1.27,1.27,0,0,0-.32-.13,2.19,2.19,0,0,0-1.91,1L67.31,51l.68-2.2-7.2-4.23h0a1,1,0,0,0-.33-.13,2.21,2.21,0,0,0-1.91,1L54.8,49.9a5.37,5.37,0,0,0-1.07,2.18,3.39,3.39,0,0,0,.07,2.07l6.36,14.52a1.38,1.38,0,0,0,.52.61h0l7.53,4.35L68,64.29,93.14,34.11C95.33,34.5,98.33,35,98.44,35Z"/><path class="cls-10" d="M53.77,52s0,.07,0,.11a3.39,3.39,0,0,0,.07,2.07l6.36,14.52a1.38,1.38,0,0,0,.52.61h0l7.53,4.35L68,64.29l2.32-2.79Z"/><path class="cls-11" d="M68.53,73.75a1.17,1.17,0,0,1-.84-.74L61.33,58.49a3.39,3.39,0,0,1-.07-2.07,5.5,5.5,0,0,1,1.07-2.18l3.75-4.47a2.16,2.16,0,0,1,1.91-1,1.15,1.15,0,0,1,.84.74L72.57,58,98.13,27.39a2.2,2.2,0,0,1,1.91-1,1.17,1.17,0,0,1,.84.74l1.75,4a3.39,3.39,0,0,1,.07,2.07,5.43,5.43,0,0,1-1.07,2.18L70.45,72.76A2.22,2.22,0,0,1,68.53,73.75Z"/><path class="cls-1" d="M102.63,31.14l-1.75-4a1.27,1.27,0,0,0-.52-.61h0l-7.53-4.35h0a1.27,1.27,0,0,0-.32-.13,2.19,2.19,0,0,0-1.91,1L68.71,49.29a1.06,1.06,0,0,0-.72-.51l-7.2-4.23h0a1,1,0,0,0-.33-.13,2.21,2.21,0,0,0-1.91,1L54.8,49.9a5.37,5.37,0,0,0-1.07,2.18,3.39,3.39,0,0,0,.07,2.07l6.36,14.52a1.38,1.38,0,0,0,.52.61h0l7.53,4.35h0a1,1,0,0,0,.32.13,2.22,2.22,0,0,0,1.92-1l31.18-37.37a5.43,5.43,0,0,0,1.07-2.18A3.39,3.39,0,0,0,102.63,31.14Z"/><path class="cls-3" d="M29.18,77.57a11.18,11.18,0,0,0-4.08-4.76c-3-1.75-5.5.11-5.5,4.17a11.76,11.76,0,0,0,.2,2.11"/><ellipse class="cls-6" cx="39.98" cy="71.83" rx="2.5" ry="1.44"/><path class="cls-3" d="M40,71.33a11.13,11.13,0,0,0-4.07-4.75c-3-1.76-5.51.1-5.51,4.16a11.79,11.79,0,0,0,.21,2.11"/><ellipse class="cls-6" cx="50.79" cy="65.6" rx="2.5" ry="1.44"/><path class="cls-3" d="M50.79,65.1a11.12,11.12,0,0,0-4.08-4.76c-3-1.76-5.5.11-5.5,4.16a11.76,11.76,0,0,0,.2,2.11"/><rect class="cls-12" width="120" height="120"/><rect class="cls-12" width="120" height="120"/></g></g></svg>