<svg xmlns="http://www.w3.org/2000/svg" viewBox="0 0 120 120"><defs><style>.cls-1{fill:#fff;}.cls-10,.cls-2,.cls-4,.cls-7{fill:none;}.cls-2,.cls-3,.cls-5{stroke:#98b9ea;}.cls-10,.cls-2,.cls-3,.cls-5,.cls-7,.cls-9{stroke-linecap:round;stroke-linejoin:round;stroke-width:2px;}.cls-3,.cls-6{fill:#deeaff;}.cls-5{fill:#98b9ea;}.cls-7{stroke:#436db5;}.cls-8{fill:#dfeab0;}.cls-9{fill:#c4d36c;stroke:#c4d36c;}.cls-10{stroke:#a7b23b;}</style></defs><title>term-length</title><g id="Layer_2" data-name="Layer 2"><g id="Tech_Concepts" data-name="Tech Concepts"><path class="cls-1" d="M83.37,8.26,77.13,4.68a1.37,1.37,0,0,0-1.36.13L2.94,46.59A4.34,4.34,0,0,0,1.15,49a3.25,3.25,0,0,0-.15,1v60.54a1.37,1.37,0,0,0,.57,1.26l6.23,3.58h0a1.38,1.38,0,0,0,1.37-.13L82,73.41a4.25,4.25,0,0,0,1.93-3.35V9.52a1.26,1.26,0,0,0-.73-1.32A1,1,0,0,1,83.37,8.26Z"/><path class="cls-2" d="M1.57,48a3.88,3.88,0,0,1,1.37-1.44L75.77,4.81a1.37,1.37,0,0,1,1.36-.13l6.24,3.58A1.37,1.37,0,0,0,82,8.39L9.17,50.17a3.9,3.9,0,0,0-1.35,1.41"/><path class="cls-3" d="M7.82,51.58a4,4,0,0,0-.59,1.94v60.54a1.35,1.35,0,0,0,.58,1.26l-6.24-3.58A1.37,1.37,0,0,1,1,110.48V49.94A4,4,0,0,1,1.57,48"/><line class="cls-2" x1="33.78" y1="101.08" x2="33.78" y2="48.04"/><line class="cls-2" x1="7.23" y1="81.09" x2="83.94" y2="36.8"/><line class="cls-2" x1="7.23" y1="98.82" x2="83.94" y2="54.53"/><path class="cls-4" d="M7.82,51.58a4,4,0,0,0-.59,1.94v60.54a1.35,1.35,0,0,0,.58,1.26l-6.24-3.58A1.37,1.37,0,0,1,1,110.48V49.94A4,4,0,0,1,1.57,48"/><path class="cls-5" d="M83.94,19.07V9.52c0-1.24-.86-1.74-1.93-1.13L9.17,50.17a4.26,4.26,0,0,0-1.94,3.35v9.84Z"/><path class="cls-6" d="M22,47.08a1.84,1.84,0,0,0-1.89.13,4.83,4.83,0,0,0-2.23,3.86,1.88,1.88,0,0,0,.83,1.72,1.45,1.45,0,0,0,.77.2,2.3,2.3,0,0,0,1.12-.33,4.87,4.87,0,0,0,2.23-3.87A1.85,1.85,0,0,0,22,47.08Z"/><path class="cls-6" d="M47.36,32.49a1.86,1.86,0,0,0-1.89.14,4.83,4.83,0,0,0-2.23,3.86,1.86,1.86,0,0,0,.83,1.72,1.54,1.54,0,0,0,.76.2A2.31,2.31,0,0,0,46,38.08a4.87,4.87,0,0,0,2.23-3.87A1.89,1.89,0,0,0,47.36,32.49Z"/><path class="cls-6" d="M71.84,18.62a1.84,1.84,0,0,0-1.89.13,4.85,4.85,0,0,0-2.23,3.86,1.86,1.86,0,0,0,.83,1.72,1.46,1.46,0,0,0,.77.21,2.32,2.32,0,0,0,1.12-.34,4.85,4.85,0,0,0,2.23-3.86A1.86,1.86,0,0,0,71.84,18.62Z"/><line class="cls-2" x1="1" y1="59.77" x2="7.24" y2="63.37"/><line class="cls-2" x1="57.65" y1="87.38" x2="57.65" y2="34.25"/><path class="cls-2" d="M83.94,9.52c0-1.24-.86-1.74-1.93-1.13L9.17,50.17a4.26,4.26,0,0,0-1.94,3.35v60.54c0,1.24.87,1.74,1.94,1.13L82,73.41a4.25,4.25,0,0,0,1.93-3.35Z"/><path class="cls-2" d="M83.94,19.07V9.52c0-1.24-.86-1.74-1.93-1.13L9.17,50.17a4.26,4.26,0,0,0-1.94,3.35v9.84Z"/><path class="cls-7" d="M83.37,8.26,77.13,4.68a1.37,1.37,0,0,0-1.36.13L2.94,46.59A4.34,4.34,0,0,0,1.15,49a3.25,3.25,0,0,0-.15,1v60.54a1.37,1.37,0,0,0,.57,1.26l6.23,3.58h0a1.38,1.38,0,0,0,1.37-.13L82,73.41a4.25,4.25,0,0,0,1.93-3.35V9.52a1.26,1.26,0,0,0-.73-1.32A1,1,0,0,1,83.37,8.26Z"/><path class="cls-7" d="M9.6,42.77a9.92,9.92,0,0,1-.44-2.9c0-3.88,2.75-5.44,6.13-3.49a13.41,13.41,0,0,1,6.09,10.55,5.06,5.06,0,0,1-.92,3.16"/><path class="cls-7" d="M34.89,28.26a10.26,10.26,0,0,1-.44-2.9c0-3.88,2.75-5.44,6.13-3.49a13.41,13.41,0,0,1,6.09,10.55,5.12,5.12,0,0,1-.91,3.16"/><path class="cls-7" d="M59.12,14.37a10.26,10.26,0,0,1-.44-2.9C58.69,7.59,61.43,6,64.81,8A13.41,13.41,0,0,1,70.9,18.53,5.12,5.12,0,0,1,70,21.69"/><path class="cls-1" d="M114.12,58c.2,0,2.14-9.47,2.14-9.47l-8.38-4.83h0a1.35,1.35,0,0,0-.35-.14,2.46,2.46,0,0,0-2.13,1.11L79.47,75.71l.77-2.45-8-4.7h0a1.58,1.58,0,0,0-.36-.14,2.46,2.46,0,0,0-2.13,1.11l-4.17,5a6,6,0,0,0-1.19,2.42,3.78,3.78,0,0,0,.07,2.31l7.08,16.15a1.41,1.41,0,0,0,.58.68h0l8.38,4.84-.28-10.4,28-33.58C110.66,57.37,114,58,114.12,58Z"/><path class="cls-8" d="M64.4,76.81l0,.12a3.78,3.78,0,0,0,.07,2.31l7.08,16.15a1.41,1.41,0,0,0,.58.68h0l8.38,4.84-.28-10.4,2.58-3.09Z"/><path class="cls-9" d="M80.84,101.05a1.3,1.3,0,0,1-.94-.82L72.82,84.08a3.78,3.78,0,0,1-.07-2.31,6,6,0,0,1,1.19-2.42l4.17-5a2.47,2.47,0,0,1,2.13-1.1,1.28,1.28,0,0,1,.93.82l4.16,9.49,28.44-34.11a2.44,2.44,0,0,1,2.13-1.1,1.28,1.28,0,0,1,.93.82l2,4.45a3.76,3.76,0,0,1,.08,2.31,6,6,0,0,1-1.19,2.42L83,100A2.42,2.42,0,0,1,80.84,101.05Z"/><path class="cls-10" d="M118.78,53.63l-2-4.45a1.36,1.36,0,0,0-.58-.68h0l-8.38-4.83h0a1.58,1.58,0,0,0-.36-.14,2.46,2.46,0,0,0-2.13,1.11L81,73.83a1.19,1.19,0,0,0-.79-.57l-8-4.7h0a1.58,1.58,0,0,0-.36-.14,2.46,2.46,0,0,0-2.13,1.11l-4.17,5a6,6,0,0,0-1.19,2.42,3.78,3.78,0,0,0,.07,2.31l7.08,16.15a1.41,1.41,0,0,0,.58.68h0l8.38,4.84h0a.93.93,0,0,0,.36.14A2.42,2.42,0,0,0,83,100l34.7-41.59a6,6,0,0,0,1.19-2.42A3.76,3.76,0,0,0,118.78,53.63Z"/><rect class="cls-4" width="120" height="120"/><rect class="cls-4" width="120" height="120"/></g></g></svg>