<svg xmlns="http://www.w3.org/2000/svg" viewBox="0 0 120 120"><defs><style>.cls-1,.cls-10,.cls-14,.cls-19,.cls-7,.cls-8,.cls-9{fill:none;}.cls-15,.cls-2,.cls-5{fill:#fff;}.cls-13,.cls-2{stroke:#c4d36c;}.cls-10,.cls-13,.cls-14,.cls-17,.cls-19,.cls-2,.cls-3,.cls-5,.cls-6,.cls-7,.cls-8,.cls-9{stroke-linecap:round;stroke-linejoin:round;}.cls-10,.cls-13,.cls-14,.cls-15,.cls-17,.cls-19,.cls-2,.cls-3,.cls-5,.cls-6,.cls-7,.cls-8,.cls-9{stroke-width:2px;}.cls-17,.cls-3{fill:#deeaff;}.cls-18,.cls-19,.cls-3,.cls-5{stroke:#98b9ea;}.cls-18,.cls-4,.cls-6{fill:#98b9ea;}.cls-17,.cls-6{stroke:#deeaff;}.cls-10,.cls-7{stroke:#436db5;}.cls-8,.cls-9{stroke:#a7b23b;}.cls-10,.cls-9{stroke-dasharray:0 6.19;}.cls-11{fill:#dfeab0;}.cls-12,.cls-13{fill:#c4d36c;}.cls-14{stroke:#fff;}.cls-15{stroke:#dfeab0;}.cls-15,.cls-18{stroke-miterlimit:10;}.cls-16{fill:#a7b23b;}</style></defs><title>time-for-IT-innovation</title><g id="Layer_2" data-name="Layer 2"><g id="Tech_Concepts" data-name="Tech Concepts"><rect class="cls-1" width="120" height="120"/><rect class="cls-1" width="120" height="120"/><path class="cls-2" d="M94,97.07l-31.13-18a6.31,6.31,0,0,0-5.68,0L26,97.07c-1.56.91-1.56,2.37,0,3.28l31.13,18a6.25,6.25,0,0,0,5.68,0l31.13-18C95.53,99.44,95.53,98,94,97.07Z"/><path class="cls-3" d="M75.55,86.44,62.84,79.1a6.31,6.31,0,0,0-5.68,0L44.45,86.44H24.86V98.71A2,2,0,0,0,26,100.35l31.13,18a6.25,6.25,0,0,0,5.68,0l31.13-18a2,2,0,0,0,1.17-1.64V86.44Z"/><path class="cls-4" d="M62.84,118.32l31.13-18a2,2,0,0,0,1.17-1.64V86.44H75.55L62.84,79.1A5.85,5.85,0,0,0,60,78.42V119A5.85,5.85,0,0,0,62.84,118.32Z"/><line class="cls-3" x1="46.2" y1="106.32" x2="37" y2="101.01"/><path class="cls-5" d="M94,84.81l-31.13-18a6.31,6.31,0,0,0-5.68,0L26,84.81c-1.56.9-1.56,2.37,0,3.27l31.13,18a6.25,6.25,0,0,0,5.68,0L94,88.08C95.53,87.18,95.53,85.71,94,84.81Z"/><polygon class="cls-6" points="86.68 104.56 70.23 114.05 70.23 108.39 86.68 98.89 86.68 104.56"/><path class="cls-7" d="M94,84.81l-31.13-18a6.31,6.31,0,0,0-5.68,0L26,84.81a2,2,0,0,0-1.17,1.63V98.71A2,2,0,0,0,26,100.35l31.13,18a6.27,6.27,0,0,0,5.68,0l31.13-18a2,2,0,0,0,1.17-1.64V86.44A2,2,0,0,0,94,84.81Z"/><ellipse class="cls-4" cx="87.11" cy="86.44" rx="1.59" ry="0.92"/><ellipse class="cls-4" cx="60" cy="102.09" rx="1.59" ry="0.92"/><ellipse class="cls-4" cx="60" cy="70.79" rx="1.59" ry="0.92"/><ellipse class="cls-4" cx="32.89" cy="86.44" rx="1.59" ry="0.92"/><line class="cls-8" x1="95.14" y1="46.99" x2="95.14" y2="46.99"/><line class="cls-9" x1="95.14" y1="53.18" x2="95.14" y2="74.83"/><line class="cls-8" x1="95.14" y1="77.92" x2="95.14" y2="77.92"/><line class="cls-7" x1="24.86" y1="46.99" x2="24.86" y2="46.99"/><line class="cls-10" x1="24.86" y1="53.18" x2="24.86" y2="74.83"/><line class="cls-7" x1="24.86" y1="77.92" x2="24.86" y2="77.92"/><path class="cls-11" d="M85.33,21.29,84.85,21c-13.73-7.92-36-7.92-49.7,0l-.48.29H24.86v12.3c0,5.19,3.43,10.38,10.29,14.34,13.72,7.93,36,7.93,49.7,0,6.86-4,10.29-9.15,10.29-14.34V21.29Z"/><path class="cls-12" d="M84.85,47.93c6.86-4,10.29-9.15,10.29-14.34V21.29H85.33L84.85,21C78,17,69,15.06,60,15.06V53.88C69,53.88,78,51.9,84.85,47.93Z"/><ellipse class="cls-11" cx="60" cy="21.29" rx="35.14" ry="20.29"/><ellipse class="cls-13" cx="60" cy="21.29" rx="28.11" ry="15.23"/><ellipse class="cls-14" cx="60" cy="21.29" rx="35.14" ry="20.29"/><path class="cls-8" d="M95.14,33.59V21.29h0c0-5.19-3.43-10.39-10.29-14.35C71.12-1,48.87-1,35.15,6.94c-6.86,4-10.29,9.16-10.29,14.35h0v12.3c0,5.19,3.43,10.38,10.29,14.34s15.86,6,24.85,6c1.12,0,2.25,0,3.37-.1A58.37,58.37,0,0,0,70,53c1.08-.19,2.16-.4,3.21-.65a42.92,42.92,0,0,0,11.63-4.46c4.29-2.47,7.24-5.43,8.84-8.57A12.52,12.52,0,0,0,95.14,33.59Z"/><path class="cls-15" d="M79.88,16.38c-11-5.95-28.78-5.95-39.76,0-4.11,2.22-6.68,5-7.71,7.84,1,2.87,3.6,5.61,7.71,7.84,11,5.94,28.78,5.94,39.76,0,4.11-2.23,6.68-5,7.71-7.84C86.56,21.34,84,18.6,79.88,16.38Z"/><ellipse class="cls-16" cx="60" cy="27.15" rx="3.33" ry="1.8"/><rect class="cls-16" x="56.67" y="24.8" width="6.66" height="2.34"/><line class="cls-8" x1="60" y1="27.15" x2="60" y2="15.63"/><line class="cls-8" x1="60" y1="27.15" x2="68.25" y2="31.01"/><ellipse class="cls-11" cx="60" cy="24.8" rx="3.33" ry="1.8"/><path class="cls-17" d="M48,82.5c6.64-3.83,17.4-3.83,24,0C74.68,84,76.25,86,76.78,87.94c.8-3-.78-6.14-4.76-8.44-6.64-3.83-17.4-3.83-24,0-4,2.3-5.56,5.46-4.76,8.44C43.75,86,45.32,84,48,82.5Z"/><line class="cls-5" x1="60" y1="89.44" x2="60" y2="82.69"/><line class="cls-5" x1="60" y1="89.65" x2="64.99" y2="91.99"/><ellipse class="cls-18" cx="60" cy="89.44" rx="2.01" ry="1.09"/><ellipse class="cls-19" cx="60" cy="86.44" rx="17" ry="9.81"/></g></g></svg>