<svg xmlns="http://www.w3.org/2000/svg" viewBox="0 0 120 120"><defs><style>.cls-1,.cls-6,.cls-9{fill:#fff;}.cls-1{stroke:#98b9ea;}.cls-1,.cls-12,.cls-14,.cls-3,.cls-4,.cls-5,.cls-8,.cls-9{stroke-linecap:round;stroke-linejoin:round;stroke-width:2px;}.cls-2{fill:#deeaff;}.cls-3,.cls-7{fill:#98b9ea;}.cls-3,.cls-4,.cls-5{stroke:#436db5;}.cls-12,.cls-13,.cls-14,.cls-4,.cls-8{fill:none;}.cls-5{fill:#436db5;}.cls-8,.cls-9{stroke:#c4d36c;}.cls-10{fill:#dfeab0;}.cls-11{fill:#c4d36c;}.cls-12{stroke:#fff;}.cls-14{stroke:#a7b23b;}</style></defs><title>trading-companies</title><g id="Layer_2" data-name="Layer 2"><g id="Industries"><path class="cls-1" d="M95.2,5.65,87.27,1.07h0a.73.73,0,0,0-.75,0L19.77,39.67a2.75,2.75,0,0,0-1.15,2.2v64.76a1,1,0,0,0,.4.93h0L27,112.14l6.67-12.63L86.51,63.77a2.77,2.77,0,0,0,1.16-2.21V15.7Z"/><path class="cls-2" d="M26.55,111.91V35.75l-6.78,3.92a2.75,2.75,0,0,0-1.15,2.2v64.76a1,1,0,0,0,.4.93h0Z"/><path class="cls-3" d="M63.53,77l23-13.26a2.77,2.77,0,0,0,1.16-2.21V15.7l7.53-10L87.27,1.07h0a.73.73,0,0,0-.75,0L19.77,39.67a2.75,2.75,0,0,0-1.15,2.2V51.1Z"/><path class="cls-2" d="M65.67,69l22-30.7V15.7l7.53-10L87.27,1.07h0a.73.73,0,0,0-.75,0L19.77,39.67a2.75,2.75,0,0,0-1.15,2.2h0Z"/><path class="cls-1" d="M94.45,73.55,27.71,112.08c-.64.37-1.16,0-1.16-.87V46.45a2.75,2.75,0,0,1,1.16-2.2L94.45,5.71c.63-.36,1.15,0,1.15.88V71.35A2.77,2.77,0,0,1,94.45,73.55Z"/><path class="cls-4" d="M95.2,5.66h0L87.27,1.07h0a.73.73,0,0,0-.75,0L19.77,39.67a2.75,2.75,0,0,0-1.15,2.2v64.76a1,1,0,0,0,.4.93h0L27,112.14h0a.76.76,0,0,0,.76-.06L94.45,73.55a2.77,2.77,0,0,0,1.15-2.2V6.59A1,1,0,0,0,95.2,5.66Z"/><path class="cls-5" d="M95.6,15.82V6.59c0-.85-.52-1.24-1.15-.88L27.71,44.25a2.75,2.75,0,0,0-1.16,2.2v9.23Z"/><ellipse class="cls-2" cx="37.12" cy="44.46" rx="2" ry="1.13" transform="translate(-18.33 61.21) rotate(-66.95)"/><ellipse class="cls-6" cx="42.13" cy="41.57" rx="2" ry="1.13" transform="translate(-12.61 64.06) rotate(-66.95)"/><ellipse class="cls-7" cx="31.9" cy="47.48" rx="2" ry="1.13" transform="translate(-24.28 58.24) rotate(-66.95)"/><line class="cls-1" x1="33.99" y1="98.74" x2="87.95" y2="67.59"/><line class="cls-1" x1="33.99" y1="60.44" x2="33.99" y2="98.74"/><polyline class="cls-8" points="84.12 44.37 73.33 58.69 62.54 52.78 51.75 75.19 40.96 85.47"/><ellipse class="cls-9" cx="51.75" cy="75.19" rx="3.36" ry="1.9" transform="translate(-37.7 93.37) rotate(-66.95)"/><ellipse class="cls-9" cx="62.54" cy="52.79" rx="3.36" ry="1.9" transform="translate(-10.52 89.66) rotate(-66.95)"/><ellipse class="cls-9" cx="73.33" cy="58.69" rx="3.36" ry="1.9" transform="translate(-9.38 103.19) rotate(-66.95)"/><ellipse class="cls-9" cx="84.12" cy="44.37" rx="3.36" ry="1.9" transform="translate(10.36 104.4) rotate(-66.95)"/><ellipse class="cls-9" cx="40.96" cy="85.47" rx="3.36" ry="1.9" transform="translate(-53.72 89.69) rotate(-66.95)"/><path class="cls-10" d="M97.07,91.08,96.86,91C90.82,87.47,81,87.47,75,91l-.21.12H70.48v6.39c0,2.28,1.51,4.56,4.53,6.3,6,3.49,15.81,3.49,21.85,0,3-1.74,4.52-4,4.52-6.3V91.08Z"/><path class="cls-11" d="M96.86,103.77c3-1.74,4.52-4,4.52-6.3V91.08H97.07L96.86,91a22.26,22.26,0,0,0-10.93-2.62v18A22.26,22.26,0,0,0,96.86,103.77Z"/><ellipse class="cls-10" cx="85.93" cy="91.08" rx="15.45" ry="8.92"/><ellipse class="cls-12" cx="85.93" cy="91.08" rx="15.45" ry="8.92"/><ellipse class="cls-13" cx="85.93" cy="96.85" rx="15.82" ry="9.57"/><path class="cls-14" d="M101.38,97.47V91.08h0c0-2.28-1.51-4.56-4.52-6.3-6-3.49-15.82-3.49-21.85,0-3,1.74-4.53,4-4.53,6.3h0v6.39c0,2.28,1.51,4.56,4.53,6.3a22.36,22.36,0,0,0,10.92,2.62c.5,0,1,0,1.48,0a27.73,27.73,0,0,0,2.92-.33c.48-.08,1-.18,1.42-.29a18.71,18.71,0,0,0,5.11-2,9.67,9.67,0,0,0,3.89-3.76A5.61,5.61,0,0,0,101.38,97.47Z"/><path class="cls-11" d="M91.91,93.58l1.64.94-1.45.85-1.6-.92a13.49,13.49,0,0,1-2.44,1,10.86,10.86,0,0,1-2.36.46l-1-1.5a11.47,11.47,0,0,0,2-.36,10.42,10.42,0,0,0,1.88-.68l-2.46-1.42a21.65,21.65,0,0,1-2.29.7,7.79,7.79,0,0,1-2.11.18,4.76,4.76,0,0,1-2.06-.64,2,2,0,0,1-1.21-1.72,3,3,0,0,1,1.49-2.09l-1.62-.94,1.45-.84,1.59.92a12.09,12.09,0,0,1,3.87-1.2l1.06,1.46a11.24,11.24,0,0,0-3,.86l2.5,1.44a19.28,19.28,0,0,1,2.25-.7,7.64,7.64,0,0,1,2.09-.17,4.57,4.57,0,0,1,2,.62,2,2,0,0,1,1.19,1.7C93.35,92.17,92.87,92.85,91.91,93.58Zm-9.15-2.66A5.23,5.23,0,0,0,84,90.68l-2.09-1.2a1,1,0,0,0-.4.71.69.69,0,0,0,.41.54,1.61,1.61,0,0,0,.86.19m5.19.37,2,1.17a1,1,0,0,0,.41-.68.63.63,0,0,0-.37-.51,1.55,1.55,0,0,0-.88-.19,5.57,5.57,0,0,0-1.18.21"/><path class="cls-10" d="M97.07,84.7l-.21-.13c-6-3.48-15.82-3.48-21.85,0l-.21.13H70.48v6.38c0,2.29,1.51,4.57,4.53,6.31,6,3.48,15.81,3.48,21.85,0,3-1.74,4.52-4,4.52-6.31V84.7Z"/><path class="cls-11" d="M96.86,97.39c3-1.74,4.52-4,4.52-6.31V84.7H97.07l-.21-.13A22.36,22.36,0,0,0,85.93,82v18A22.36,22.36,0,0,0,96.86,97.39Z"/><ellipse class="cls-10" cx="85.93" cy="84.7" rx="15.45" ry="8.92"/><ellipse class="cls-12" cx="85.93" cy="84.7" rx="15.45" ry="8.92"/><ellipse class="cls-13" cx="85.93" cy="90.47" rx="15.82" ry="9.57"/><path class="cls-14" d="M101.38,91.08V84.7h0c0-2.28-1.51-4.57-4.52-6.31-6-3.48-15.82-3.48-21.85,0-3,1.74-4.53,4-4.53,6.31h0v6.38c0,2.29,1.51,4.57,4.53,6.31A22.35,22.35,0,0,0,85.93,100c.5,0,1,0,1.48,0a23.29,23.29,0,0,0,2.92-.33c.48-.08,1-.17,1.42-.28a19,19,0,0,0,5.11-2,9.69,9.69,0,0,0,3.89-3.77A5.58,5.58,0,0,0,101.38,91.08Z"/><path class="cls-11" d="M91.91,87.19l1.64,1L92.1,89l-1.6-.92a12.17,12.17,0,0,1-2.44,1,10.29,10.29,0,0,1-2.36.46l-1-1.49a12.5,12.5,0,0,0,2-.36A10.44,10.44,0,0,0,88.58,87l-2.46-1.41c-.85.3-1.63.54-2.29.7a7.79,7.79,0,0,1-2.11.17,4.62,4.62,0,0,1-2.06-.63,2,2,0,0,1-1.21-1.72c0-.68.5-1.37,1.49-2.09L78.32,81l1.45-.85,1.59.93a11.84,11.84,0,0,1,3.87-1.2l1.06,1.46a11.63,11.63,0,0,0-3,.85l2.5,1.44A19.07,19.07,0,0,1,88.05,83a7.65,7.65,0,0,1,2.09-.18,4.59,4.59,0,0,1,2,.63,2,2,0,0,1,1.19,1.69A3,3,0,0,1,91.91,87.19Zm-9.15-2.66A4.7,4.7,0,0,0,84,84.3l-2.09-1.21a1,1,0,0,0-.4.72.71.71,0,0,0,.41.54,1.52,1.52,0,0,0,.86.18m5.19.38,2,1.17a1,1,0,0,0,.41-.68.63.63,0,0,0-.37-.52,1.55,1.55,0,0,0-.88-.19,5.07,5.07,0,0,0-1.18.22"/><path class="cls-10" d="M75.22,103.7l-.21-.13c-6-3.48-15.82-3.48-21.85,0l-.21.13H48.64v6.38c0,2.28,1.5,4.57,4.52,6.31,6,3.48,15.82,3.48,21.85,0,3-1.74,4.52-4,4.52-6.31V103.7Z"/><path class="cls-11" d="M75,116.39c3-1.74,4.52-4,4.52-6.31V103.7H75.22l-.21-.13A22.36,22.36,0,0,0,64.08,101v18A22.36,22.36,0,0,0,75,116.39Z"/><ellipse class="cls-10" cx="64.08" cy="103.7" rx="15.45" ry="8.92"/><ellipse class="cls-12" cx="64.08" cy="103.7" rx="15.45" ry="8.92"/><ellipse class="cls-13" cx="64.08" cy="109.46" rx="15.82" ry="9.57"/><path class="cls-14" d="M79.53,110.08V103.7h0c0-2.29-1.5-4.57-4.52-6.31-6-3.48-15.82-3.48-21.85,0-3,1.74-4.52,4-4.52,6.31h0v6.38c0,2.28,1.5,4.57,4.52,6.31A22.35,22.35,0,0,0,64.08,119c.5,0,1,0,1.49,0a25.39,25.39,0,0,0,2.91-.33c.48-.08,1-.17,1.42-.28a19,19,0,0,0,5.11-2,9.69,9.69,0,0,0,3.89-3.77A5.58,5.58,0,0,0,79.53,110.08Z"/><path class="cls-11" d="M70.06,106.19l1.64,1-1.45.84-1.6-.92a13.49,13.49,0,0,1-2.44,1,10.29,10.29,0,0,1-2.36.46l-1-1.49a13.85,13.85,0,0,0,2-.36,10.16,10.16,0,0,0,1.88-.69l-2.45-1.42a21.76,21.76,0,0,1-2.3.7,7.37,7.37,0,0,1-2.1.18,4.62,4.62,0,0,1-2.07-.63,2,2,0,0,1-1.2-1.72c0-.68.49-1.38,1.49-2.09L56.47,100l1.45-.85,1.6.92a12.29,12.29,0,0,1,3.86-1.2l1.06,1.46a11.62,11.62,0,0,0-3,.86l2.5,1.44a21.42,21.42,0,0,1,2.25-.7,7.64,7.64,0,0,1,2.09-.17,4.74,4.74,0,0,1,2,.62,2,2,0,0,1,1.18,1.7A3,3,0,0,1,70.06,106.19Zm-9.14-2.66a4.71,4.71,0,0,0,1.21-.23L60,102.09a1,1,0,0,0-.4.72.71.71,0,0,0,.41.54,1.62,1.62,0,0,0,.87.18m5.18.38,2,1.16a1,1,0,0,0,.4-.68.6.6,0,0,0-.37-.51,1.52,1.52,0,0,0-.87-.19,5.15,5.15,0,0,0-1.19.22"/><rect class="cls-13" width="120" height="120"/><rect class="cls-13" width="120" height="120"/></g></g></svg>