<svg xmlns="http://www.w3.org/2000/svg" viewBox="0 0 120 120"><defs><style>.cls-1,.cls-11,.cls-2,.cls-3,.cls-4{fill:none;}.cls-1,.cls-2{stroke:#436db5;}.cls-1,.cls-10,.cls-2,.cls-3,.cls-4,.cls-7,.cls-8{stroke-linecap:round;stroke-linejoin:round;stroke-width:2px;}.cls-2{stroke-dasharray:0 5.78;}.cls-3,.cls-4{stroke:#a7b23b;}.cls-4{stroke-dasharray:0 5.77;}.cls-5,.cls-8{fill:#fff;}.cls-6{fill:#dfeab0;}.cls-7{fill:#c4d36c;stroke:#c4d36c;}.cls-10,.cls-8{stroke:#98b9ea;}.cls-9{fill:#deeaff;}.cls-10{fill:#98b9ea;}</style></defs><title>two-factor-authentication</title><g id="Layer_2" data-name="Layer 2"><g id="New_Icon_Set" data-name="New Icon Set"><line class="cls-1" x1="78.15" y1="19.99" x2="78.15" y2="19.99"/><line class="cls-2" x1="83.15" y1="22.89" x2="95.65" y2="30.15"/><line class="cls-1" x1="98.15" y1="31.6" x2="98.15" y2="31.6"/><line class="cls-3" x1="28.39" y1="88.32" x2="28.39" y2="88.32"/><line class="cls-4" x1="33.39" y1="91.2" x2="45.89" y2="98.42"/><line class="cls-3" x1="48.39" y1="99.86" x2="48.39" y2="99.86"/><path class="cls-5" d="M67.28,27.9c.26,0,2.83-12.57,2.83-12.57L59,8.9h0a1.48,1.48,0,0,0-.47-.18,3.23,3.23,0,0,0-2.83,1.47L21.25,51.48l1-3.25L11.61,42h0a1.58,1.58,0,0,0-.47-.18,3.23,3.23,0,0,0-2.83,1.46L2.77,49.89a8,8,0,0,0-1.58,3.22,4.94,4.94,0,0,0,.1,3.06l9.4,21.46a2,2,0,0,0,.77.91h0L22.59,85l-.37-13.82,37.22-44.6C62.68,27.13,67.11,27.9,67.28,27.9Z"/><path class="cls-6" d="M1.23,53l0,.16a4.94,4.94,0,0,0,.1,3.06l9.4,21.46a2,2,0,0,0,.77.91h0L22.59,85l-.37-13.82,3.43-4.11Z"/><path class="cls-7" d="M23.07,85.15a1.72,1.72,0,0,1-1.25-1.09L12.42,62.6a5,5,0,0,1-.1-3.06,8,8,0,0,1,1.58-3.22l5.54-6.62a3.25,3.25,0,0,1,2.83-1.47,1.74,1.74,0,0,1,1.24,1.09L29,61.92l37.78-45.3a3.28,3.28,0,0,1,2.83-1.47,1.72,1.72,0,0,1,1.24,1.1l2.59,5.9a5,5,0,0,1,.1,3.07A8,8,0,0,1,72,28.44L25.89,83.69A3.23,3.23,0,0,1,23.07,85.15Z"/><path class="cls-3" d="M73.47,22.15l-2.59-5.9a1.9,1.9,0,0,0-.77-.91h0L59,8.9h0a1.48,1.48,0,0,0-.47-.18,3.23,3.23,0,0,0-2.83,1.47L23.33,49a1.67,1.67,0,0,0-1.06-.76L11.61,42h0a1.58,1.58,0,0,0-.47-.18,3.23,3.23,0,0,0-2.83,1.46L2.77,49.89a8,8,0,0,0-1.58,3.22,4.94,4.94,0,0,0,.1,3.06l9.4,21.46a2,2,0,0,0,.77.91h0L22.59,85v0a1.34,1.34,0,0,0,.48.19,3.23,3.23,0,0,0,2.82-1.46L72,28.44a8,8,0,0,0,1.58-3.22A5,5,0,0,0,73.47,22.15Z"/><path class="cls-8" d="M112.52,54c.26,0,2.84-12.57,2.84-12.57L104.22,35h0a1.48,1.48,0,0,0-.47-.18,3.24,3.24,0,0,0-2.83,1.46L66.49,77.6l1-3.25L56.85,68.1h0a1.58,1.58,0,0,0-.47-.18,3.23,3.23,0,0,0-2.83,1.46L48,76a8,8,0,0,0-1.58,3.22,4.94,4.94,0,0,0,.1,3.06l9.4,21.46a2,2,0,0,0,.77.91h0l11.13,6.43-.37-13.82,37.22-44.6C107.92,53.25,112.35,54,112.52,54Z"/><path class="cls-9" d="M46.47,79.07c0,.05,0,.11,0,.16a4.94,4.94,0,0,0,.1,3.06l9.4,21.46a2,2,0,0,0,.77.91h0l11.13,6.43-.37-13.82,3.43-4.11Z"/><path class="cls-10" d="M68.31,111.27a1.72,1.72,0,0,1-1.25-1.09l-9.4-21.46a5,5,0,0,1-.1-3.07,7.93,7.93,0,0,1,1.58-3.21l5.54-6.62a3.25,3.25,0,0,1,2.83-1.47,1.74,1.74,0,0,1,1.24,1.09L74.27,88l37.78-45.3a3.28,3.28,0,0,1,2.83-1.47,1.72,1.72,0,0,1,1.24,1.1l2.59,5.9a5,5,0,0,1,.1,3.07,8,8,0,0,1-1.58,3.22L71.13,109.8A3.22,3.22,0,0,1,68.31,111.27Z"/><path class="cls-1" d="M118.71,48.27l-2.59-5.9a1.9,1.9,0,0,0-.77-.91h0L104.22,35h0a1.48,1.48,0,0,0-.47-.18,3.24,3.24,0,0,0-2.83,1.46L68.57,75.11a1.67,1.67,0,0,0-1.06-.76L56.85,68.1h0a1.58,1.58,0,0,0-.47-.18,3.23,3.23,0,0,0-2.83,1.46L48,76a8,8,0,0,0-1.58,3.22,4.94,4.94,0,0,0,.1,3.06l9.4,21.46a2,2,0,0,0,.77.91h0l11.13,6.43v0a1.34,1.34,0,0,0,.48.19,3.22,3.22,0,0,0,2.82-1.47l46.1-55.24a8,8,0,0,0,1.58-3.22A5,5,0,0,0,118.71,48.27Z"/><rect class="cls-11" width="120" height="120"/><rect class="cls-11" width="120" height="120"/></g></g></svg>