<svg xmlns="http://www.w3.org/2000/svg" viewBox="0 0 120 120"><defs><style>.cls-1{fill:#c4d36c;}.cls-2{fill:#fff;}.cls-3{fill:#dfeab0;}.cls-10,.cls-4,.cls-5,.cls-8,.cls-9{fill:none;}.cls-4{stroke:#c4d36c;}.cls-4,.cls-5,.cls-6,.cls-7,.cls-8,.cls-9{stroke-linecap:round;stroke-linejoin:round;stroke-width:2px;}.cls-5{stroke:#a7b23b;}.cls-6{fill:#98b9ea;}.cls-6,.cls-7,.cls-8{stroke:#98b9ea;}.cls-7{fill:#deeaff;}.cls-9{stroke:#436db5;}</style></defs><title>unified-comments</title><g id="Layer_2" data-name="Layer 2"><g id="Tech_Concepts" data-name="Tech Concepts"><path class="cls-1" d="M67.8,23.81,29.07,1.45a2.42,2.42,0,0,0-2.46-.2h0L19.26,5.49l6,6.73V48.57c0,.71.62,1.45,1,1.24l10-5.08a1.64,1.64,0,0,1,1.58.16l19,11,5.94,10.68,7.34-4.24h0a3.32,3.32,0,0,0,1.31-3V31C71.57,28.23,69.88,25,67.8,23.81Z"/><path class="cls-2" d="M67.8,23.81,29.07,1.45a2.42,2.42,0,0,0-2.46-.2h0L19.26,5.49l6,6.73v29.1l4,7,7-3.56a1.64,1.64,0,0,1,1.58.16l1.14.66L70.7,27.3A7.78,7.78,0,0,0,67.8,23.81Z"/><path class="cls-3" d="M60.46,28.05,21.72,5.69C19.65,4.49,18,5.76,18,8.53V52.81c0,.7.61,1.45,1,1.24L29,49a1.64,1.64,0,0,1,1.58.16L60.46,66.36c2.08,1.2,3.76-.07,3.76-2.84V35.24C64.22,32.47,62.54,29.25,60.46,28.05Z"/><path class="cls-4" d="M60.46,28.05,21.72,5.69C19.65,4.49,18,5.76,18,8.53V52.81c0,.7.61,1.45,1,1.24L29,49a1.64,1.64,0,0,1,1.58.16L60.46,66.36c2.08,1.2,3.76-.07,3.76-2.84V35.24C64.22,32.47,62.54,29.25,60.46,28.05Z"/><path class="cls-5" d="M70.44,26.77l-.08-.13-.21-.37c0-.06-.07-.12-.11-.17a3.37,3.37,0,0,0-.21-.31l-.12-.18-.21-.27c0-.06-.09-.12-.14-.17s-.15-.17-.22-.25L69,24.76l-.23-.23-.15-.13-.27-.22-.13-.1a3.62,3.62,0,0,0-.41-.27L29.07,1.45a2.42,2.42,0,0,0-2.46-.2h0L19.26,5.49h0a3.33,3.33,0,0,0-1.31,3V52.81c0,.7.61,1.45,1,1.24L29,49a1.64,1.64,0,0,1,1.58.16L60.46,66.36a2.39,2.39,0,0,0,2.46.2h0l7.34-4.24h0a3.32,3.32,0,0,0,1.31-3V31A9.39,9.39,0,0,0,70.44,26.77Z"/><line class="cls-4" x1="28.63" y1="28.95" x2="53.56" y2="43.43"/><line class="cls-4" x1="28.63" y1="20.64" x2="53.56" y2="35.12"/><line class="cls-4" x1="28.63" y1="37.26" x2="53.56" y2="51.74"/><path class="cls-6" d="M98.28,62.74,59.54,40.38a2.41,2.41,0,0,0-2.46-.19h0l-7.34,4.24,6,6.19V71.5c0,2.77,1.68,6,3.76,7.19l26,15,6.35,14,1.82,10.81.81.45,7.35-4.24h0a.59.59,0,0,0,.21-.51V69.94C102,67.16,100.35,63.94,98.28,62.74Z"/><path class="cls-2" d="M98.28,62.74,59.54,40.38a2.41,2.41,0,0,0-2.46-.19h0l-7.34,4.24,6,6.19V71.5c0,2.77,1.68,6,3.76,7.19l9.8,5.66L101.07,66A7.71,7.71,0,0,0,98.28,62.74Z"/><path class="cls-7" d="M52.2,44.62,90.93,67c2.08,1.2,3.77,4.42,3.77,7.19v44.28c0,.7-.62.74-1,.06l-10-16.68a4.82,4.82,0,0,0-1.58-1.67L52.2,82.93c-2.08-1.2-3.77-4.42-3.77-7.19V47.46C48.43,44.69,50.12,43.42,52.2,44.62Z"/><line class="cls-8" x1="59.1" y1="67.88" x2="84.03" y2="82.37"/><line class="cls-8" x1="59.1" y1="59.57" x2="84.03" y2="74.06"/><line class="cls-8" x1="59.1" y1="76.2" x2="84.03" y2="90.68"/><path class="cls-9" d="M100.8,65.51h0c-.09-.16-.19-.32-.29-.47l0,0-.29-.42,0-.06-.28-.36-.07-.08a4.12,4.12,0,0,0-.28-.31l-.08-.09-.28-.26a.94.94,0,0,1-.1-.1l-.29-.22-.1-.09-.4-.26L59.54,40.38a2.41,2.41,0,0,0-2.46-.19h0l-7.34,4.24h0a3.33,3.33,0,0,0-1.31,3V75.74c0,2.77,1.69,6,3.77,7.19l29.85,17.23a4.82,4.82,0,0,1,1.58,1.67l10,16.68c.26.43.6.57.81.45h0l7.35-4.24h0a.59.59,0,0,0,.21-.51V69.94A9.37,9.37,0,0,0,100.8,65.51Z"/><rect class="cls-10" width="120" height="120"/><rect class="cls-10" width="120" height="120"/></g></g></svg>