<svg xmlns="http://www.w3.org/2000/svg" viewBox="0 0 120 120"><defs><style>.cls-1,.cls-4{fill:#c4d36c;}.cls-1{stroke:#c4d36c;}.cls-1,.cls-5,.cls-6,.cls-7,.cls-8,.cls-9{stroke-linecap:round;stroke-linejoin:round;}.cls-1,.cls-3,.cls-5,.cls-6,.cls-7,.cls-8,.cls-9{stroke-width:2px;}.cls-2,.cls-3{fill:#dfeab0;}.cls-3,.cls-8{stroke:#fff;}.cls-3{stroke-miterlimit:10;}.cls-10,.cls-5,.cls-6,.cls-9{fill:none;}.cls-5,.cls-6{stroke:#a7b23b;}.cls-6{stroke-dasharray:0 4.99;}.cls-7{fill:#deeaff;stroke:#98b9ea;}.cls-8{fill:#98b9ea;}.cls-9{stroke:#436db5;}</style></defs><title>update</title><g id="Layer_2" data-name="Layer 2"><g id="Actions"><path class="cls-1" d="M22.84,76.85v16.7c0,5.49,3.63,11,10.88,15.17,14.52,8.37,38,8.37,52.56,0,7.25-4.19,10.88-9.68,10.88-15.17h0V76.85Z"/><path class="cls-2" d="M22.84,76.85v16.7c0,5.49,3.63,11,10.88,15.17S50.49,115,60,115V76.85Z"/><ellipse class="cls-3" cx="60" cy="76.85" rx="37.16" ry="21.45"/><ellipse class="cls-4" cx="60" cy="76.85" rx="25.86" ry="13.82"/><path class="cls-5" d="M97.16,76.85c0-5.49-3.63-11-10.88-15.17-14.52-8.38-38-8.38-52.56,0-7.25,4.19-10.88,9.68-10.88,15.17v16.7c0,5.49,3.63,11,10.88,15.17,14.52,8.37,38,8.37,52.56,0,7.25-4.19,10.88-9.68,10.88-15.17h0V76.85Z"/><line class="cls-5" x1="72.25" y1="105.43" x2="72.25" y2="105.43"/><path class="cls-6" d="M77.1,104.22a44,44,0,0,0,7-2.71"/><line class="cls-5" x1="86.28" y1="100.34" x2="86.28" y2="100.34"/><polygon class="cls-7" points="56 86.74 46.25 81.06 46.25 56.95 55.9 51.38 56 86.74"/><polygon class="cls-7" points="41.71 59.57 31.96 53.89 55.03 5 64.77 10.68 41.71 59.57"/><polygon class="cls-8" points="64.77 10.68 88.04 32.82 73.85 41.01 73.95 76.37 56 86.74 55.9 51.38 41.71 59.57 64.77 10.68"/><polygon class="cls-9" points="88.04 32.82 64.77 10.68 55.03 5 31.96 53.89 41.71 59.57 46.25 56.95 46.25 81.06 56 86.74 73.95 76.37 73.85 41.01 88.04 32.82"/><rect class="cls-10" width="120" height="120"/><rect class="cls-10" width="120" height="120"/></g></g></svg>