<svg xmlns="http://www.w3.org/2000/svg" viewBox="0 0 120 120"><defs><style>.cls-1,.cls-3{fill:#c4d36c;}.cls-1{stroke:#98b9ea;}.cls-1,.cls-2,.cls-3,.cls-4,.cls-5,.cls-7,.cls-8{stroke-linecap:round;stroke-linejoin:round;stroke-width:2px;}.cls-2{fill:#dfeab0;}.cls-2,.cls-5{stroke:#fff;}.cls-3{stroke:#c4d36c;}.cls-10,.cls-4,.cls-8{fill:none;}.cls-4{stroke:#a7b23b;}.cls-5{fill:#98b9ea;}.cls-6{fill:#deeaff;}.cls-7{fill:#fff;stroke:#deeaff;}.cls-8{stroke:#436db5;}.cls-9{fill:#a7b23b;}</style></defs><title>VDIASSURANCE</title><g id="Layer_2" data-name="Layer 2"><g id="Tech_Concepts" data-name="Tech Concepts"><polygon class="cls-1" points="49.77 115 44.58 111.98 44.46 27.76 49.65 30.78 49.77 115"/><polygon class="cls-2" points="71.61 18.1 71.73 102.32 60.71 94.84 49.77 115 49.65 30.78 71.61 18.1"/><polygon class="cls-3" points="60.69 24.41 60.69 94.87 60.71 94.84 71.73 102.32 71.61 18.1 60.69 24.41"/><polygon class="cls-4" points="71.61 18.1 66.42 15.08 44.46 27.76 44.58 111.98 49.77 115 60.71 94.84 71.73 102.32 71.61 18.1"/><path class="cls-5" d="M79.61,19.19a23.41,23.41,0,0,0-1.32-4.07l1.61-2.55L69.39,6.51h0C64,3.38,56.4,5.07,49,12,37,23.17,30,43.6,33.16,57.65c1.2,5.28,3.68,8.91,6.94,10.79h0l10.51,6.07,1-2.89c3.85-.68,8.06-2.92,12.23-6.81C75.72,53.66,82.8,33.24,79.61,19.19Z"/><path class="cls-6" d="M79.61,19.19a23.41,23.41,0,0,0-1.32-4.07l1.61-2.55L69.39,6.51h0C64,3.38,56.4,5.07,49,12A51.7,51.7,0,0,0,37.85,27.72L73.32,48.2,78.61,39C80.48,32.06,80.94,25.07,79.61,19.19Z"/><ellipse class="cls-5" cx="65.26" cy="43.54" rx="34.31" ry="19.41" transform="translate(-0.36 86.54) rotate(-66.95)"/><path class="cls-7" d="M58.88,64.8c-3.53,0-6.06-2.56-7.11-7.22-2.15-9.44,2.67-23.26,10.74-30.81,3.1-2.89,6.34-4.49,9.12-4.49,3.53,0,6.06,2.57,7.12,7.22C80.89,38.94,76.07,52.76,68,60.31,64.9,63.21,61.66,64.8,58.88,64.8Z"/><path class="cls-8" d="M86.84,23.37c-1.2-5.28-3.68-8.91-6.94-10.79h0L69.39,6.51h0C64,3.38,56.4,5.07,49,12,37,23.17,30,43.6,33.16,57.65c1.2,5.28,3.68,8.91,6.94,10.79h0L50.59,74.5h0C56,77.64,63.6,75.94,71,69,83,57.84,90,37.42,86.84,23.37Z"/><path class="cls-9" d="M62.68,53.36a1.29,1.29,0,0,1-.8-.27l-3.6-2.71a1.33,1.33,0,1,1,1.6-2.12L62.22,50l8-15.59a1.33,1.33,0,1,1,2.36,1.22l-8.75,17a1.33,1.33,0,0,1-.89.69A1.36,1.36,0,0,1,62.68,53.36Z"/><rect class="cls-10" width="120" height="120"/><rect class="cls-10" width="120" height="120"/></g></g></svg>