<svg xmlns="http://www.w3.org/2000/svg" viewBox="0 0 120 120"><defs><style>.cls-1,.cls-10,.cls-13,.cls-14,.cls-2,.cls-3,.cls-4,.cls-9{fill:none;}.cls-1,.cls-2{stroke:#436db5;}.cls-1,.cls-10,.cls-11,.cls-13,.cls-2,.cls-3,.cls-4,.cls-5{stroke-linecap:round;stroke-linejoin:round;}.cls-1,.cls-10,.cls-13,.cls-2,.cls-3,.cls-4,.cls-5,.cls-9{stroke-width:2px;}.cls-2{stroke-dasharray:0 6.51;}.cls-3,.cls-4{stroke:#a7b23b;}.cls-4{stroke-dasharray:0 5.99;}.cls-5,.cls-8{fill:#deeaff;}.cls-5,.cls-9{stroke:#fff;}.cls-11,.cls-6{fill:#98b9ea;}.cls-7{fill:#fff;}.cls-9{stroke-miterlimit:10;}.cls-10,.cls-11{stroke:#98b9ea;}.cls-12{fill:#dfeab0;}.cls-13{stroke:#c4d36c;}</style></defs><title>virtual-desktop-infrastructure</title><g id="Layer_2" data-name="Layer 2"><g id="Tech_Concepts" data-name="Tech Concepts"><line class="cls-1" x1="26.46" y1="87.87" x2="26.46" y2="87.87"/><line class="cls-2" x1="32.13" y1="91.07" x2="51.95" y2="102.27"/><line class="cls-1" x1="54.78" y1="103.87" x2="54.78" y2="103.87"/><line class="cls-3" x1="91.47" y1="30.21" x2="91.47" y2="30.21"/><line class="cls-4" x1="96.65" y1="33.21" x2="104.43" y2="37.71"/><line class="cls-3" x1="107.03" y1="39.21" x2="107.03" y2="39.21"/><path class="cls-5" d="M65.61,110.11l-4.9-3.55h0a1.6,1.6,0,0,1-.68-1.47V75.85a6,6,0,0,1,2.79-4.54L111.3,42.52a2.06,2.06,0,0,1,2.11-.26h0l4.9,3.55-4.49,4.64v23A6,6,0,0,1,111,78L72.3,101Z"/><path class="cls-6" d="M60.91,73.23a6.14,6.14,0,0,1,1.91-1.92L111.3,42.52a2.06,2.06,0,0,1,2.11-.26h0l4.9,3.55-4.49,4.64v23A6,6,0,0,1,111,78L89.43,90.81Z"/><path class="cls-7" d="M119,76.51V47.28c0-1.58-1.25-2.13-2.8-1.21L67.73,74.86a6,6,0,0,0-2.8,4.54v29.23c0,1.59,1.25,2.13,2.8,1.22l48.47-28.8A6,6,0,0,0,119,76.51Z"/><path class="cls-8" d="M67.93,79.4a3.19,3.19,0,0,1,1.33-2L116,49.68V76.51a3.19,3.19,0,0,1-1.33,2L67.93,106.24Z"/><path class="cls-9" d="M119,76.51V47.28c0-1.58-1.25-2.13-2.8-1.21L67.73,74.86a6,6,0,0,0-2.8,4.54v29.23c0,1.59,1.25,2.13,2.8,1.22l48.47-28.8A6,6,0,0,0,119,76.51Z"/><path class="cls-7" d="M78.88,103.22l-11.15,6.63c-1.55.91-2.8.37-2.8-1.22V79.4a6,6,0,0,1,2.8-4.54l37.32-22.17Z"/><path class="cls-10" d="M119,76.51V47.28c0-1.58-1.25-2.13-2.8-1.21L67.73,74.86a6,6,0,0,0-2.8,4.54v29.23c0,1.59,1.25,2.13,2.8,1.22l48.47-28.8A6,6,0,0,0,119,76.51Z"/><path class="cls-1" d="M65.61,110.11h0l-4.9-3.55h0a1.6,1.6,0,0,1-.68-1.47V75.85a6,6,0,0,1,2.79-4.54L111.3,42.52a2.06,2.06,0,0,1,2.11-.26h0l4.9,3.55h0a1.6,1.6,0,0,1,.68,1.47V76.51a6,6,0,0,1-2.8,4.54l-48.47,28.8A2.12,2.12,0,0,1,65.61,110.11Z"/><ellipse class="cls-11" cx="66.97" cy="92.81" rx="2.76" ry="1.55" transform="translate(-47.47 93.55) rotate(-54.56)"/><path class="cls-11" d="M64.93,98.21a4.37,4.37,0,0,1,2-3.31V90.71c-1.13.67-2,.27-2-.89Z"/><path class="cls-7" d="M84.51,26.2h0L69.1,17.29h0c-1.8-1-4.15-.95-6.72.54l-1.12.64L48,10.86h0c-3-1.73-6.92-1.58-11.21.9-9,5.17-16.3,18.56-17.07,30.68l-8.47,4.89C5.6,50.61,1,59.41,1,67H1c0,4.15,1.38,7,3.56,8.31h0L20,84.2h0c1.8,1,4.15.94,6.73-.54l51.08-29.5c5.68-3.28,10.29-12.07,10.29-19.65h0C88.07,30.37,86.69,27.45,84.51,26.2Z"/><path class="cls-12" d="M77.78,26.74l-8.47,4.89c-.77-11.23-8.12-16.14-17.07-11S35.94,39.22,35.17,51.34L26.7,56.23C21,59.51,16.41,68.31,16.41,75.88S21,86.94,26.7,83.66l51.08-29.5c5.68-3.28,10.29-12.07,10.29-19.65h0C88.07,26.94,83.46,23.46,77.78,26.74Z"/><path class="cls-13" d="M77.78,26.74l-8.47,4.89c-.77-11.23-8.12-16.14-17.07-11S35.94,39.22,35.17,51.34L26.7,56.23C21,59.51,16.41,68.31,16.41,75.88"/><path class="cls-3" d="M84.51,26.2h0L69.1,17.29h0c-1.8-1-4.15-.95-6.72.54l-1.12.64L48,10.86h0c-3-1.73-6.92-1.58-11.21.9-9,5.17-16.3,18.56-17.07,30.68l-8.47,4.89C5.6,50.61,1,59.41,1,67H1c0,4.15,1.38,7,3.56,8.31h0L20,84.2h0c1.8,1,4.15.94,6.73-.54l51.08-29.5c5.68-3.28,10.29-12.07,10.29-19.65h0C88.07,30.37,86.69,27.45,84.51,26.2Z"/><rect class="cls-14" width="120" height="120"/><rect class="cls-14" width="120" height="120"/></g></g></svg>