<svg xmlns="http://www.w3.org/2000/svg" viewBox="0 0 120 120"><defs><style>.cls-1,.cls-12,.cls-13,.cls-14,.cls-15,.cls-2,.cls-3,.cls-4,.cls-8{fill:none;}.cls-1,.cls-2,.cls-7,.cls-8,.cls-9{stroke:#436db5;}.cls-1,.cls-12,.cls-13,.cls-14,.cls-2,.cls-3,.cls-4,.cls-5,.cls-7,.cls-8,.cls-9{stroke-linecap:round;stroke-linejoin:round;stroke-width:2px;}.cls-2{stroke-dasharray:0 5.75;}.cls-14,.cls-3,.cls-4{stroke:#a7b23b;}.cls-4{stroke-dasharray:0 5.67;}.cls-10,.cls-5{fill:#fff;}.cls-13,.cls-5{stroke:#98b9ea;}.cls-6{fill:#deeaff;}.cls-11,.cls-7{fill:#98b9ea;}.cls-8{stroke-dasharray:0 6.55;}.cls-9{fill:#436db5;}.cls-12{stroke:#c4d36c;}.cls-14{stroke-dasharray:0 4.96;}</style></defs><title>virtual-applications</title><g id="Layer_2" data-name="Layer 2"><g id="Tech_Concepts" data-name="Tech Concepts"><line class="cls-1" x1="46.04" y1="95.71" x2="46.04" y2="95.71"/><line class="cls-2" x1="51.02" y1="98.59" x2="53.51" y2="100.03"/><line class="cls-1" x1="56.01" y1="101.46" x2="56.01" y2="101.46"/><line class="cls-3" x1="88.22" y1="58.67" x2="88.22" y2="58.67"/><line class="cls-4" x1="93.13" y1="61.51" x2="105.41" y2="68.59"/><line class="cls-3" x1="107.86" y1="70.01" x2="107.86" y2="70.01"/><path class="cls-5" d="M87.8,5.94,79.38,1.08h0a.78.78,0,0,0-.8,0L7.77,42a2.92,2.92,0,0,0-1.22,2.34v68.71a1.07,1.07,0,0,0,.42,1H7l8.42,4.86,7.07-13.41L78.58,67.59a2.91,2.91,0,0,0,1.22-2.34V16.59Z"/><path class="cls-6" d="M15,118.67V37.87L7.77,42a2.92,2.92,0,0,0-1.22,2.34v68.71a1.07,1.07,0,0,0,.42,1H7Z"/><path class="cls-7" d="M54.2,81.67,78.58,67.59a2.91,2.91,0,0,0,1.22-2.34V16.59l8-10.65L79.38,1.08h0a.78.78,0,0,0-.8,0L7.77,42a2.92,2.92,0,0,0-1.22,2.34v9.8Z"/><path class="cls-6" d="M56.47,73.18,79.8,40.61v-24l8-10.65L79.38,1.08h0a.78.78,0,0,0-.8,0L7.77,42a2.92,2.92,0,0,0-1.22,2.34h0Z"/><path class="cls-5" d="M87,78,16.19,118.85c-.68.39-1.23,0-1.23-.92V49.22a2.93,2.93,0,0,1,1.23-2.34L87,6c.67-.39,1.22,0,1.22.93v68.7A3,3,0,0,1,87,78Z"/><line class="cls-1" x1="27.99" y1="85.82" x2="27.99" y2="85.82"/><line class="cls-8" x1="33.67" y1="89.1" x2="47.86" y2="97.29"/><line class="cls-1" x1="50.69" y1="98.93" x2="50.69" y2="98.93"/><path class="cls-1" d="M87.79,5.94h0L79.38,1.08h0a.78.78,0,0,0-.8,0L7.77,42a2.92,2.92,0,0,0-1.22,2.34v68.71a1.07,1.07,0,0,0,.42,1H7l8.42,4.86h0a.78.78,0,0,0,.8-.06L87,78a3,3,0,0,0,1.22-2.34V6.93A1.08,1.08,0,0,0,87.79,5.94Z"/><path class="cls-9" d="M88.22,16.72V6.93c0-.9-.55-1.32-1.22-.93L16.19,46.88A2.93,2.93,0,0,0,15,49.22V59Z"/><ellipse class="cls-6" cx="27.81" cy="46.17" rx="2.12" ry="1.2" transform="translate(-25.56 53.68) rotate(-66.95)"/><ellipse class="cls-10" cx="33.14" cy="43.09" rx="2.12" ry="1.2" transform="translate(-19.49 56.71) rotate(-66.95)"/><ellipse class="cls-11" cx="22.28" cy="49.36" rx="2.12" ry="1.2" transform="translate(-31.87 50.53) rotate(-66.95)"/><polygon class="cls-12" points="48.45 66.59 48.45 89.61 75.19 74.17 75.19 51.15 48.45 66.59"/><polygon class="cls-12" points="27.99 62.81 27.99 85.82 54.74 70.38 54.74 47.37 27.99 62.81"/><polygon class="cls-5" points="107.86 70.01 113.45 73.24 93 85.05 93 78.59 107.86 70.01"/><polygon class="cls-5" points="81.12 108.47 86.71 111.69 86.71 96.45 81.12 99.33 81.12 108.47"/><polygon class="cls-5" points="66.25 84.9 66.25 107.91 93 92.47 93 69.46 66.25 84.9"/><polygon class="cls-6" points="86.71 88.68 86.71 111.69 113.45 96.25 113.45 73.24 86.71 88.68"/><polygon class="cls-5" points="86.71 88.68 86.71 111.69 113.45 96.25 113.45 73.24 86.71 88.68"/><polygon class="cls-5" points="87.4 66.23 93 69.46 66.25 84.9 60.66 81.67 87.4 66.23"/><polygon class="cls-5" points="60.66 104.68 66.25 107.91 66.25 84.9 60.66 81.67 60.66 104.68"/><polygon class="cls-13" points="93 92.47 93 85.05 86.71 88.68 86.71 96.1 93 92.47"/><polygon class="cls-1" points="107.86 70.01 93 78.59 93 69.46 87.4 66.23 60.66 81.67 60.66 104.68 66.25 107.91 81.12 99.33 81.12 108.47 86.71 111.69 113.45 96.25 113.45 73.24 107.86 70.01"/><line class="cls-3" x1="79.62" y1="53.71" x2="79.62" y2="53.71"/><line class="cls-14" x1="83.92" y1="56.19" x2="86.07" y2="57.43"/><line class="cls-3" x1="88.22" y1="58.67" x2="88.22" y2="58.67"/><rect class="cls-15" width="120" height="120"/><rect class="cls-15" width="120" height="120"/></g></g></svg>