<svg xmlns="http://www.w3.org/2000/svg" viewBox="0 0 120 120"><defs><style>.cls-1,.cls-11,.cls-12,.cls-2,.cls-3,.cls-4{fill:none;}.cls-1,.cls-2{stroke:#436db5;}.cls-1,.cls-11,.cls-2,.cls-3,.cls-4,.cls-5,.cls-6,.cls-8,.cls-9{stroke-linecap:round;stroke-linejoin:round;stroke-width:2px;}.cls-2,.cls-4{stroke-dasharray:0 5.7;}.cls-3,.cls-4{stroke:#a7b23b;}.cls-10,.cls-5,.cls-8{fill:#fff;}.cls-11,.cls-5{stroke:#c4d36c;}.cls-6{fill:#deeaff;}.cls-6,.cls-8{stroke:#98b9ea;}.cls-7,.cls-9{fill:#98b9ea;}.cls-9{stroke:#deeaff;}</style></defs><title>virtualization</title><g id="Layer_2" data-name="Layer 2"><g id="Tech_Concepts" data-name="Tech Concepts"><line class="cls-1" x1="14.77" y1="42.91" x2="14.77" y2="42.91"/><line class="cls-2" x1="14.77" y1="48.6" x2="14.77" y2="74.24"/><line class="cls-1" x1="14.77" y1="77.09" x2="14.77" y2="77.09"/><line class="cls-3" x1="105.23" y1="42.91" x2="105.23" y2="42.91"/><line class="cls-4" x1="105.23" y1="48.6" x2="105.23" y2="74.24"/><line class="cls-3" x1="105.23" y1="77.09" x2="105.23" y2="77.09"/><path class="cls-5" d="M103.72,90.78,63.65,67.64a8.09,8.09,0,0,0-7.3,0L16.28,90.78c-2,1.16-2,3,0,4.21l40.07,23.14a8.09,8.09,0,0,0,7.3,0L103.72,95C105.74,93.83,105.74,91.94,103.72,90.78Z"/><path class="cls-6" d="M80,77.09,63.65,67.64a8.09,8.09,0,0,0-7.3,0L40,77.09H14.77V92.88A2.55,2.55,0,0,0,16.28,95l40.07,23.14a8.09,8.09,0,0,0,7.3,0L103.72,95a2.55,2.55,0,0,0,1.51-2.11V77.09Z"/><path class="cls-7" d="M63.65,118.13,103.72,95a2.55,2.55,0,0,0,1.51-2.11V77.09H80L63.65,67.64A7.49,7.49,0,0,0,60,66.77V119A7.49,7.49,0,0,0,63.65,118.13Z"/><line class="cls-6" x1="42.23" y1="102.68" x2="30.39" y2="95.84"/><path class="cls-8" d="M103.72,75,63.65,51.85a8.09,8.09,0,0,0-7.3,0L16.28,75c-2,1.17-2,3.06,0,4.22l40.07,23.14a8.09,8.09,0,0,0,7.3,0L103.72,79.2C105.74,78,105.74,76.15,103.72,75Z"/><polygon class="cls-9" points="94.34 100.41 73.17 112.63 73.17 105.34 94.34 93.11 94.34 100.41"/><path class="cls-1" d="M103.72,75,63.65,51.85a8.09,8.09,0,0,0-7.3,0L16.28,75a2.58,2.58,0,0,0-1.51,2.11V92.88A2.55,2.55,0,0,0,16.28,95l40.07,23.14a8.09,8.09,0,0,0,7.3,0L103.72,95a2.55,2.55,0,0,0,1.51-2.11V77.09A2.58,2.58,0,0,0,103.72,75Z"/><ellipse class="cls-7" cx="94.89" cy="77.09" rx="2.05" ry="1.18"/><ellipse class="cls-7" cx="60" cy="97.24" rx="2.05" ry="1.18"/><ellipse class="cls-7" cx="60" cy="56.95" rx="2.05" ry="1.18"/><ellipse class="cls-7" cx="25.11" cy="77.09" rx="2.05" ry="1.18"/><path class="cls-10" d="M103.72,25,63.65,1.87a8.09,8.09,0,0,0-7.3,0L16.28,25a2.55,2.55,0,0,0-1.51,2.11V42.91a2.2,2.2,0,0,0,.85,1.64,5.1,5.1,0,0,0,.66.47L56.35,68.15a6.47,6.47,0,0,0,1.71.66,8.76,8.76,0,0,0,3.88,0,6.34,6.34,0,0,0,1.71-.66L103.72,45a2.58,2.58,0,0,0,1.51-2.11V27.12A2.55,2.55,0,0,0,103.72,25Z"/><line class="cls-11" x1="60" y1="53.23" x2="60" y2="69"/><line class="cls-11" x1="60" y1="1" x2="60" y2="16.77"/><path class="cls-11" d="M103.72,40.8,63.65,17.66a8.09,8.09,0,0,0-7.3,0L16.28,40.8c-2,1.16-2,3.05,0,4.22L56.35,68.15a8.09,8.09,0,0,0,7.3,0L103.72,45C105.74,43.85,105.74,42,103.72,40.8Z"/><path class="cls-11" d="M103.72,25,63.65,1.87a8.09,8.09,0,0,0-7.3,0L16.28,25c-2,1.16-2,3,0,4.21L56.35,52.36a8.09,8.09,0,0,0,7.3,0l40.07-23.14C105.74,28.06,105.74,26.17,103.72,25Z"/><path class="cls-3" d="M103.72,25,63.65,1.87a8.09,8.09,0,0,0-7.3,0L16.28,25a2.55,2.55,0,0,0-1.51,2.11V42.91a2.2,2.2,0,0,0,.85,1.64,5.1,5.1,0,0,0,.66.47L56.35,68.15a6.47,6.47,0,0,0,1.71.66,8.76,8.76,0,0,0,3.88,0,6.34,6.34,0,0,0,1.71-.66L103.72,45a2.58,2.58,0,0,0,1.51-2.11V27.12A2.55,2.55,0,0,0,103.72,25Z"/><rect class="cls-12" width="120" height="120"/><rect class="cls-12" width="120" height="120"/></g></g></svg>