<svg xmlns="http://www.w3.org/2000/svg" viewBox="0 0 120 120"><defs><style>.cls-1,.cls-11{fill:#98b9ea;}.cls-12,.cls-2,.cls-5,.cls-9{fill:none;}.cls-10,.cls-11,.cls-2,.cls-4{stroke:#98b9ea;}.cls-10,.cls-11,.cls-2,.cls-4,.cls-5,.cls-6,.cls-8,.cls-9{stroke-linecap:round;stroke-linejoin:round;stroke-width:2px;}.cls-10,.cls-3{fill:#deeaff;}.cls-4,.cls-6{fill:#fff;}.cls-5{stroke:#436db5;}.cls-6,.cls-8{stroke:#c4d36c;}.cls-7{fill:#dfeab0;}.cls-8{fill:#c4d36c;}.cls-9{stroke:#a7b23b;}</style></defs><title>visio-stencils</title><g id="Layer_2" data-name="Layer 2"><g id="Tech_Concepts" data-name="Tech Concepts"><path class="cls-1" d="M82.43,5.07h0l-6.92-4h0a.62.62,0,0,0-.65.05L16.62,34.74a2.4,2.4,0,0,0-1,1.92V93.17A.88.88,0,0,0,16,94h0l6.92,4h0a.64.64,0,0,0,.65,0L81.78,64.31a2.43,2.43,0,0,0,1-1.93V5.87A.86.86,0,0,0,82.43,5.07Z"/><path class="cls-2" d="M82.44,5.06l-6.92-4h0a.62.62,0,0,0-.65.05L16.62,34.74a2.4,2.4,0,0,0-1,1.92V93.17A.88.88,0,0,0,16,94h0l6.92,4L28.7,87,74.86,55.77a2.42,2.42,0,0,0,1-1.92v-40Z"/><path class="cls-3" d="M82.43,5.07h0l-6.92-4h0a.62.62,0,0,0-.65.05L16.62,34.74a2.16,2.16,0,0,0-.77.94L73.6,69l8.18-4.72a2.43,2.43,0,0,0,1-1.93V5.87A.86.86,0,0,0,82.43,5.07Z"/><path class="cls-4" d="M81.78,64.31,23.54,97.93c-.55.32-1,0-1-.76V40.66a2.42,2.42,0,0,1,1-1.92L81.78,5.11c.56-.32,1,0,1,.76V62.38A2.43,2.43,0,0,1,81.78,64.31Z"/><path class="cls-5" d="M82.43,5.07h0l-6.92-4h0a.62.62,0,0,0-.65.05L16.62,34.74a2.4,2.4,0,0,0-1,1.92V93.17A.88.88,0,0,0,16,94h0l6.92,4h0a.64.64,0,0,0,.65,0L81.78,64.31a2.43,2.43,0,0,0,1-1.93V5.87A.86.86,0,0,0,82.43,5.07Z"/><polygon class="cls-6" points="59.93 48.25 59.93 62.41 72.19 55.33 72.19 41.17 59.93 48.25"/><polygon class="cls-6" points="47.67 55.33 47.67 69.49 59.93 62.41 59.93 48.25 47.67 55.33"/><polygon class="cls-6" points="35.4 62.41 35.4 76.57 47.67 69.49 47.67 55.33 35.4 62.41"/><polygon class="cls-4" points="47.67 41.17 47.67 55.33 59.93 48.25 59.93 34.09 47.67 41.17"/><polygon class="cls-7" points="104.39 95.43 90.78 103.29 77.17 95.43 77.17 79.72 90.78 71.86 104.39 79.72 104.39 95.43"/><polygon class="cls-8" points="90.78 87.58 90.78 103.29 104.39 95.43 104.39 79.72 90.78 87.58"/><polygon class="cls-6" points="104.39 79.72 90.78 87.58 77.17 79.72 77.17 79.72 90.78 71.86 104.39 79.72 104.39 79.72"/><polygon class="cls-9" points="90.78 71.86 77.17 79.72 77.17 95.43 90.78 103.29 104.39 95.43 104.39 79.72 90.78 71.86"/><polygon class="cls-7" points="90.78 103.29 77.17 111.14 63.57 103.29 63.57 87.58 77.17 79.72 90.78 87.58 90.78 103.29"/><polygon class="cls-8" points="77.17 95.43 77.17 111.14 90.78 103.29 90.78 87.58 77.17 95.43"/><polygon class="cls-6" points="90.78 87.58 77.17 95.43 63.57 87.58 63.57 87.58 77.17 79.72 90.78 87.58 90.78 87.58"/><polygon class="cls-9" points="77.17 79.72 63.57 87.58 63.57 103.29 77.17 111.14 90.78 103.29 90.78 87.58 77.17 79.72"/><polygon class="cls-7" points="77.17 111.14 63.57 119 49.96 111.14 49.96 95.43 63.57 87.58 77.17 95.43 77.17 111.14"/><polygon class="cls-8" points="63.57 103.29 63.57 119 77.17 111.14 77.17 95.43 63.57 103.29"/><polygon class="cls-6" points="77.17 95.43 63.57 103.29 49.96 95.43 49.96 95.43 63.57 87.58 77.17 95.43 77.17 95.43"/><polygon class="cls-9" points="63.57 87.58 49.96 95.43 49.96 111.14 63.57 119 77.17 111.14 77.17 95.43 63.57 87.58"/><polygon class="cls-10" points="90.78 87.58 77.17 95.43 63.56 87.58 63.56 71.86 77.17 64.01 90.78 71.86 90.78 87.58"/><polygon class="cls-4" points="90.78 71.86 77.17 79.72 63.56 71.86 63.56 71.86 77.17 64.01 90.78 71.86 90.78 71.86"/><polygon class="cls-11" points="77.17 79.72 77.17 95.43 90.78 87.58 90.78 71.86 77.17 79.72"/><polygon class="cls-5" points="77.17 64.01 63.56 71.86 63.56 87.58 77.17 95.43 90.78 87.58 90.78 71.86 77.17 64.01"/><rect class="cls-12" width="120" height="120"/><rect class="cls-12" width="120" height="120"/></g></g></svg>