<svg xmlns="http://www.w3.org/2000/svg" viewBox="0 0 120 120"><defs><style>.cls-1{fill:#fff;}.cls-2{fill:#98b9ea;}.cls-3{fill:#deeaff;}.cls-4,.cls-5,.cls-6{fill:none;}.cls-4{stroke:#98b9ea;}.cls-4,.cls-5{stroke-linecap:round;stroke-linejoin:round;stroke-width:2px;}.cls-5{stroke:#436db5;}</style></defs><title>vm-database-blue</title><g id="Layer_2" data-name="Layer 2"><g id="Tech_Concepts" data-name="Tech Concepts"><polygon class="cls-1" points="103.72 67.18 60.05 41.88 16.3 67.06 16.28 93.4 59.95 118.7 103.7 93.52 103.72 67.18"/><polygon class="cls-2" points="103.7 93.52 59.95 118.7 59.98 92.35 103.72 67.18 103.7 93.52"/><polygon class="cls-3" points="16.28 93.4 59.95 118.7 59.98 92.35 16.3 67.06 16.28 93.4"/><polygon class="cls-4" points="103.72 67.18 81.88 54.53 60.01 67.12 81.85 79.77 103.72 67.18"/><line class="cls-4" x1="81.85" y1="79.77" x2="81.85" y2="106.1"/><line class="cls-4" x1="59.97" y1="92.35" x2="59.95" y2="118.7"/><ellipse class="cls-2" cx="60.04" cy="48.35" rx="2.1" ry="1.21"/><ellipse class="cls-2" cx="27.5" cy="67.07" rx="2.1" ry="1.21"/><ellipse class="cls-2" cx="59.98" cy="85.89" rx="2.1" ry="1.21"/><polyline class="cls-5" points="16.3 80.29 59.98 105.59 103.72 80.41"/><polyline class="cls-4" points="16.3 67.06 59.98 92.35 103.72 67.18"/><polygon class="cls-5" points="103.72 67.18 60.05 41.88 16.3 67.06 16.28 93.4 59.95 118.7 103.7 93.52 103.72 67.18"/><polygon class="cls-4" points="90.17 67.31 81.87 62.5 73.56 67.29 81.86 72.09 90.17 67.31"/><polygon class="cls-1" points="103.72 26.6 60.05 1.3 16.3 26.48 16.28 52.82 59.95 78.12 103.7 52.94 103.72 26.6"/><polygon class="cls-2" points="103.7 52.94 59.95 78.12 59.98 51.77 103.72 26.6 103.7 52.94"/><polygon class="cls-3" points="16.28 52.82 59.95 78.12 59.98 51.77 16.3 26.48 16.28 52.82"/><polygon class="cls-4" points="103.72 26.6 81.88 13.95 60.01 26.54 81.85 39.19 103.72 26.6"/><line class="cls-4" x1="81.85" y1="39.19" x2="81.85" y2="65.52"/><line class="cls-4" x1="59.97" y1="51.77" x2="59.95" y2="78.12"/><ellipse class="cls-2" cx="60.04" cy="7.77" rx="2.1" ry="1.21"/><ellipse class="cls-2" cx="27.5" cy="26.49" rx="2.1" ry="1.21"/><ellipse class="cls-2" cx="59.98" cy="45.31" rx="2.1" ry="1.21"/><polyline class="cls-5" points="16.3 39.71 59.98 65.01 103.72 39.83"/><polyline class="cls-4" points="16.3 26.48 59.98 51.77 103.72 26.6"/><polygon class="cls-5" points="103.72 26.6 60.05 1.3 16.3 26.48 16.28 52.82 59.95 78.12 103.7 52.94 103.72 26.6"/><polygon class="cls-4" points="90.17 26.73 81.87 21.92 73.56 26.71 81.86 31.51 90.17 26.73"/><rect class="cls-6" width="120" height="120"/><rect class="cls-6" width="120" height="120"/></g></g></svg>