<svg xmlns="http://www.w3.org/2000/svg" viewBox="0 0 120 120"><defs><style>.cls-1{fill:#fff;}.cls-2{fill:#c4d36c;}.cls-3{fill:#dfeab0;}.cls-4,.cls-5,.cls-6{fill:none;}.cls-4{stroke:#c4d36c;}.cls-4,.cls-5{stroke-linecap:round;stroke-linejoin:round;stroke-width:2px;}.cls-5{stroke:#a7b23b;}</style></defs><title>vm-green</title><g id="Layer_2" data-name="Layer 2"><g id="Tech_Concepts" data-name="Tech Concepts"><polygon class="cls-1" points="103.72 46.89 60.05 21.59 16.3 46.77 16.28 73.11 59.95 98.41 103.7 73.23 103.72 46.89"/><polygon class="cls-2" points="103.7 73.23 59.95 98.41 59.98 72.06 103.72 46.89 103.7 73.23"/><polygon class="cls-3" points="16.28 73.11 59.95 98.41 59.98 72.06 16.3 46.77 16.28 73.11"/><polygon class="cls-4" points="103.72 46.89 81.88 34.24 60.01 46.83 81.85 59.48 103.72 46.89"/><line class="cls-4" x1="81.85" y1="59.48" x2="81.85" y2="85.81"/><line class="cls-4" x1="59.97" y1="72.06" x2="59.95" y2="98.41"/><ellipse class="cls-2" cx="27.5" cy="46.78" rx="2.1" ry="1.21"/><ellipse class="cls-2" cx="59.98" cy="65.6" rx="2.1" ry="1.21"/><polyline class="cls-5" points="16.3 60 59.98 85.3 103.72 60.12"/><polyline class="cls-4" points="16.3 46.77 59.98 72.06 103.72 46.89"/><polygon class="cls-5" points="103.72 46.89 60.05 21.59 16.3 46.77 16.28 73.11 59.95 98.41 103.7 73.23 103.72 46.89"/><polygon class="cls-4" points="90.17 47.02 81.87 42.21 73.56 47 81.86 51.8 90.17 47.02"/><ellipse class="cls-2" cx="60.04" cy="28.06" rx="2.1" ry="1.21"/><rect class="cls-6" width="120" height="120"/><rect class="cls-6" width="120" height="120"/></g></g></svg>