<svg xmlns="http://www.w3.org/2000/svg" viewBox="0 0 120 120"><defs><style>.cls-1{fill:#fff;}.cls-2{fill:#98b9ea;}.cls-3{fill:#deeaff;}.cls-4,.cls-5,.cls-6,.cls-7{fill:none;}.cls-4{stroke:#98b9ea;}.cls-4,.cls-5,.cls-6{stroke-linecap:round;stroke-linejoin:round;stroke-width:2px;}.cls-5{stroke:#436db5;}.cls-6{stroke:#c4d36c;}</style></defs><title>VM-multicolor</title><g id="Layer_2" data-name="Layer 2"><g id="Tech_Concepts" data-name="Tech Concepts"><polygon class="cls-1" points="103.78 46.87 60.05 21.54 16.24 46.75 16.22 73.13 59.95 98.46 103.76 73.25 103.78 46.87"/><polygon class="cls-2" points="103.76 73.25 59.95 98.46 59.98 72.08 103.78 46.87 103.76 73.25"/><polygon class="cls-3" points="16.22 73.13 59.95 98.46 59.98 72.08 16.24 46.75 16.22 73.13"/><polygon class="cls-4" points="103.78 46.87 81.91 34.21 60.01 46.81 81.88 59.48 103.78 46.87"/><line class="cls-4" x1="81.88" y1="59.48" x2="81.88" y2="85.84"/><line class="cls-4" x1="59.97" y1="72.08" x2="59.95" y2="98.46"/><ellipse class="cls-2" cx="60.04" cy="28.01" rx="2.11" ry="1.22"/><ellipse class="cls-2" cx="27.45" cy="46.76" rx="2.11" ry="1.22"/><ellipse class="cls-2" cx="59.98" cy="65.61" rx="2.11" ry="1.22"/><polyline class="cls-5" points="16.24 60 59.98 85.33 103.78 60.12"/><polyline class="cls-4" points="16.24 46.75 59.98 72.08 103.78 46.87"/><polygon class="cls-5" points="103.78 46.87 60.05 21.54 16.24 46.75 16.22 73.13 59.95 98.46 103.76 73.25 103.78 46.87"/><polygon class="cls-6" points="90.21 47 81.9 42.19 73.58 46.98 81.89 51.79 90.21 47"/><rect class="cls-7" width="120" height="120"/><rect class="cls-7" width="120" height="120"/></g></g></svg>