<svg xmlns="http://www.w3.org/2000/svg" viewBox="0 0 120 120"><defs><style>.cls-1,.cls-6{fill:#fff;}.cls-1{stroke:#98b9ea;}.cls-1,.cls-10,.cls-3,.cls-4,.cls-5,.cls-9{stroke-linecap:round;stroke-linejoin:round;stroke-width:2px;}.cls-2{fill:#deeaff;}.cls-3,.cls-7{fill:#98b9ea;}.cls-3,.cls-4,.cls-5{stroke:#436db5;}.cls-10,.cls-11,.cls-4{fill:none;}.cls-5{fill:#436db5;}.cls-8{fill:#dfeab0;}.cls-9{fill:#c4d36c;stroke:#c4d36c;}.cls-10{stroke:#a7b23b;}</style></defs><title>webinar</title><g id="Layer_2" data-name="Layer 2"><g id="Tech_Concepts" data-name="Tech Concepts"><path class="cls-1" d="M100.41,5.94,92,1.08h0a.76.76,0,0,0-.79,0L20.39,42a2.93,2.93,0,0,0-1.23,2.34v68.71a1.07,1.07,0,0,0,.43,1h0L28,118.92l7.08-13.41L91.2,67.59a2.93,2.93,0,0,0,1.22-2.34V16.59Z"/><path class="cls-2" d="M27.58,118.67V37.87L20.39,42a2.93,2.93,0,0,0-1.23,2.34v68.71a1.07,1.07,0,0,0,.43,1h0Z"/><path class="cls-3" d="M66.81,81.67,91.2,67.59a2.93,2.93,0,0,0,1.22-2.34V16.59l8-10.65L92,1.08h0a.76.76,0,0,0-.79,0L20.39,42a2.93,2.93,0,0,0-1.23,2.34v9.8Z"/><path class="cls-2" d="M69.08,73.18,92.42,40.61v-24l8-10.65L92,1.08h0a.76.76,0,0,0-.79,0L20.39,42a2.93,2.93,0,0,0-1.23,2.34h0Z"/><path class="cls-1" d="M99.61,78,28.8,118.85c-.67.39-1.22,0-1.22-.92V49.22a3,3,0,0,1,1.22-2.34L99.61,6c.68-.39,1.23,0,1.23.93v68.7A2.93,2.93,0,0,1,99.61,78Z"/><path class="cls-4" d="M100.41,5.94h0L92,1.08h0a.76.76,0,0,0-.79,0L20.39,42a2.93,2.93,0,0,0-1.23,2.34v68.71a1.07,1.07,0,0,0,.43,1h0L28,118.92h0a.76.76,0,0,0,.79-.06L99.61,78a2.93,2.93,0,0,0,1.23-2.34V6.93A1.08,1.08,0,0,0,100.41,5.94Z"/><path class="cls-5" d="M100.84,16.72V6.93c0-.9-.55-1.32-1.23-.93L28.8,46.88a3,3,0,0,0-1.22,2.34V59Z"/><ellipse class="cls-2" cx="40.43" cy="46.17" rx="2.12" ry="1.2" transform="translate(-17.88 65.29) rotate(-66.95)"/><ellipse class="cls-6" cx="45.75" cy="43.09" rx="2.12" ry="1.2" transform="translate(-11.81 68.32) rotate(-66.95)"/><ellipse class="cls-7" cx="34.89" cy="49.36" rx="2.12" ry="1.2" transform="translate(-24.19 62.14) rotate(-66.95)"/><path class="cls-8" d="M53.61,60.44,74.8,48.21a1.31,1.31,0,0,1,1.35-.11h0l4.72,2.72-3.3,3.39V65.64a4.92,4.92,0,0,1-2.06,3.93l-14.2,8.2-3.48,7.67-1,5.92-.45.24-4.72-2.73h0a.29.29,0,0,1-.12-.27V64.37A5,5,0,0,1,53.61,60.44Z"/><path class="cls-6" d="M53.61,60.44,74.8,48.21a1.31,1.31,0,0,1,1.35-.11h0l4.72,2.72-3.3,3.39V65.64a4.92,4.92,0,0,1-2.06,3.93l-5.36,3.1L52.08,62.24A4.17,4.17,0,0,1,53.61,60.44Z"/><path class="cls-9" d="M79.53,50.93,58.34,63.17a4.9,4.9,0,0,0-2.06,3.93V91.32c0,.39.33.41.56,0l5.49-9.13a2.55,2.55,0,0,1,.87-.91l16.33-9.43A5,5,0,0,0,81.59,68V52.49C81.59,51,80.66,50.28,79.53,50.93Z"/><line class="cls-10" x1="74.43" y1="67.28" x2="63.43" y2="73.67"/><line class="cls-10" x1="74.43" y1="60.28" x2="63.43" y2="66.67"/><path class="cls-10" d="M52.23,62h0l.16-.26v0a1.88,1.88,0,0,1,.16-.23l0,0a1.56,1.56,0,0,1,.16-.2l0,0a1.29,1.29,0,0,1,.16-.17l0,0,.16-.15,0,0,.16-.12s0,0,0-.05l.22-.14L74.8,48.21a1.31,1.31,0,0,1,1.35-.11h0l4.72,2.72h0a1.81,1.81,0,0,1,.72,1.66V68a5,5,0,0,1-2.06,3.93L63.2,81.32a2.55,2.55,0,0,0-.87.91l-5.49,9.13c-.14.23-.33.31-.45.24h0l-4.72-2.73h0a.29.29,0,0,1-.12-.27V64.37A5.23,5.23,0,0,1,52.23,62Z"/><rect class="cls-11" width="120" height="120"/><rect class="cls-11" width="120" height="120"/></g></g></svg>