<svg xmlns="http://www.w3.org/2000/svg" viewBox="0 0 120 120"><defs><style>.cls-1,.cls-10,.cls-2,.cls-4,.cls-8,.cls-9{fill:none;}.cls-1,.cls-2{stroke:#436db5;}.cls-1,.cls-2,.cls-4,.cls-7,.cls-8,.cls-9{stroke-linecap:round;stroke-linejoin:round;stroke-width:2px;}.cls-2{stroke-dasharray:0 5.65;}.cls-3,.cls-7{fill:#fff;}.cls-4{stroke:#98b9ea;}.cls-5{fill:#c4d36c;}.cls-6{fill:#dfeab0;}.cls-7,.cls-8{stroke:#c4d36c;}.cls-9{stroke:#a7b23b;}</style></defs><title>xray(1x1)</title><g id="Layer_2" data-name="Layer 2"><g id="Objects"><g id="xray_1x1_" data-name="xray(1x1)"><line class="cls-1" x1="14.61" y1="37.4" x2="14.61" y2="37.4"/><line class="cls-2" x1="14.61" y1="43.05" x2="14.61" y2="79.77"/><line class="cls-1" x1="14.61" y1="82.6" x2="14.61" y2="82.6"/><polygon class="cls-3" points="60 56.4 14.61 82.6 14.61 92.8 60 119 105.39 92.8 105.39 82.6 60 56.4"/><polygon class="cls-4" points="105.39 82.6 60 56.4 14.61 82.6 60 108.8 105.39 82.6"/><polygon class="cls-4" points="105.39 92.8 60 119 60 108.8 105.39 82.6 105.39 92.8"/><polygon class="cls-4" points="60 66.59 14.61 92.8 14.61 82.6 60 56.4 60 66.59"/><polygon class="cls-4" points="60 66.59 105.39 92.8 105.39 82.6 60 56.4 60 66.59"/><polygon class="cls-1" points="60 56.4 14.61 82.6 14.61 92.8 60 119 105.39 92.8 105.39 82.6 60 56.4"/><polygon class="cls-5" points="74.16 82.6 60 90.78 60 35.38 74.16 27.2 74.16 82.6"/><polygon class="cls-6" points="45.84 82.6 60 90.78 60 35.38 45.84 27.2 45.84 82.6"/><polygon class="cls-7" points="74.16 27.2 60 19.03 45.84 27.2 60 35.38 74.16 27.2"/><polygon class="cls-8" points="74.16 82.6 60 90.78 60 35.38 74.16 27.2 74.16 82.6"/><polygon class="cls-9" points="60 19.03 45.84 27.2 45.84 82.6 60 90.78 74.16 82.6 74.16 27.2 60 19.03"/><polygon class="cls-3" points="60 1 14.61 27.2 14.61 37.4 60 63.6 105.39 37.4 105.39 27.2 60 1"/><polygon class="cls-4" points="74.16 55.43 60 63.6 60 35.38 74.16 27.2 74.16 55.43"/><polygon class="cls-4" points="45.84 55.43 60 63.6 60 35.38 45.84 27.2 45.84 55.43"/><polygon class="cls-4" points="74.16 27.2 60 19.03 45.84 27.2 60 35.38 74.16 27.2"/><polygon class="cls-4" points="105.39 27.2 60 1 14.61 27.2 60 53.41 105.39 27.2"/><polygon class="cls-4" points="105.39 37.4 60 63.6 60 53.41 105.39 27.2 105.39 37.4"/><polygon class="cls-4" points="60 11.2 14.61 37.4 14.61 27.2 60 1 60 11.2"/><polygon class="cls-4" points="60 11.2 105.39 37.4 105.39 27.2 60 1 60 11.2"/><polygon class="cls-1" points="60 1 14.61 27.2 14.61 37.4 60 63.6 105.39 37.4 105.39 27.2 60 1"/><line class="cls-1" x1="105.39" y1="37.4" x2="105.39" y2="37.4"/><line class="cls-2" x1="105.39" y1="43.05" x2="105.39" y2="79.77"/><line class="cls-1" x1="105.39" y1="82.6" x2="105.39" y2="82.6"/><rect class="cls-10" width="120" height="120"/><rect class="cls-10" width="120" height="120"/></g></g></g></svg>