<svg xmlns="http://www.w3.org/2000/svg" width="102" height="71.73" viewBox="0 0 102 71.73"><defs><style>.cls-1{fill:#d3edfd;}.cls-1,.cls-3,.cls-4{stroke:#1b6dc6;stroke-linecap:round;stroke-linejoin:round;stroke-width:2px;}.cls-2{fill:#bde4fd;}.cls-3{fill:none;}.cls-4{fill:#e9f6fe;}</style></defs><title>task_03</title><g id="Layer_2" data-name="Layer 2"><g id="Layer_1-2" data-name="Layer 1"><path class="cls-1" d="M96.47,29.87C88.58,19.92,71.2,6.81,51,6.81S13.42,19.92,5.53,29.87H1v12C1,57.81,23.39,70.73,51,70.73s50-12.92,50-28.86v-12ZM51,59.19c-16.57,0-30-7.76-30-17.32S34.43,24.55,51,24.55,81,32.3,81,41.87,67.57,59.19,51,59.19Z"/><path class="cls-2" d="M51,24.55V6.81c-14.85,0-28.18,7.09-37.33,14.8V42l8-3.73C24.54,30.42,36.58,24.55,51,24.55Z"/><path class="cls-2" d="M81,41.87c0,9.56-13.43,17.32-30,17.32V70.73c27.61,0,50-12.92,50-28.86v-12H98.24l-18.6,6.82A10.83,10.83,0,0,1,81,41.87Z"/><path class="cls-3" d="M96.47,29.87C88.58,19.92,71.2,6.81,51,6.81S13.42,19.92,5.53,29.87H1v12C1,57.81,23.39,70.73,51,70.73s50-12.92,50-28.86v-12ZM51,59.19c-16.57,0-30-7.76-30-17.32S34.43,24.55,51,24.55,81,32.3,81,41.87,67.57,59.19,51,59.19Z"/><path class="cls-4" d="M51,1C23.39,1,1,13.92,1,29.87S23.39,58.73,51,58.73s50-12.92,50-28.86S78.61,1,51,1Zm0,46.19c-16.57,0-30-7.76-30-17.32S34.43,12.55,51,12.55,81,20.3,81,29.87,67.57,47.19,51,47.19Z"/></g></g></svg>