<svg xmlns="http://www.w3.org/2000/svg" width="102" height="71.73" viewBox="0 0 102 71.73"><defs><style>.cls-1,.cls-7{fill:#f2f4f6;}.cls-2,.cls-3,.cls-6{fill:none;}.cls-2,.cls-3,.cls-4,.cls-6,.cls-7{stroke:#627386;stroke-linecap:round;stroke-linejoin:round;stroke-width:2px;}.cls-2{stroke-dasharray:0 6;}.cls-3{stroke-dasharray:0 6.05;}.cls-4{fill:#b8bfca;}.cls-5{fill:#d5dae0;}</style></defs><title>task_02</title><g id="Layer_2" data-name="Layer 2"><g id="Layer_1-2" data-name="Layer 1"><path class="cls-1" d="M51,13C23.39,13,1,25.92,1,41.87S23.39,70.73,51,70.73s50-12.92,50-28.86S78.61,13,51,13Zm0,46.19c-16.57,0-30-7.76-30-17.32S34.43,24.55,51,24.55,81,32.3,81,41.87,67.57,59.19,51,59.19Z"/><ellipse class="cls-2" cx="51" cy="41.87" rx="50" ry="28.87"/><ellipse class="cls-3" cx="51" cy="41.87" rx="30" ry="17.32"/><path class="cls-4" d="M96.47,29.87C90.2,22,77.92,16,63,13.85V7.37H51V24.55c16.57,0,30,7.75,30,17.32S67.57,59.19,51,59.19,21,51.43,21,41.87H13v-12H1v12C1,57.81,23.39,70.73,51,70.73s50-12.92,50-28.86v-12Z"/><path class="cls-5" d="M21,41.87H13v-12H1v12C1,57.81,23.39,70.73,51,70.73V57.19C34.43,57.19,21,51.43,21,41.87Z"/><path class="cls-5" d="M63,13.85V7.37H51V24.55c15.33,0,28,6.64,29.77,15.2h5.9V21.66A65.55,65.55,0,0,0,63,13.85Z"/><path class="cls-6" d="M96.47,29.87C90.2,22,77.92,16,63,13.85V7.37H51V24.55c16.57,0,30,7.75,30,17.32S67.57,59.19,51,59.19,21,51.43,21,41.87H13v-12H1v12C1,57.81,23.39,70.73,51,70.73s50-12.92,50-28.86v-12Z"/><path class="cls-7" d="M51,1V12.55c16.57,0,30,7.75,30,17.32S67.57,47.19,51,47.19,21,39.43,21,29.87H1C1,45.81,23.39,58.74,51,58.74s50-12.93,50-28.87S78.61,1,51,1Z"/></g></g></svg>