<svg xmlns="http://www.w3.org/2000/svg" width="97.85" height="69.76" viewBox="0 0 97.85 69.76"><defs><style>.cls-1{fill:#bde4fd;}.cls-1,.cls-2,.cls-3{stroke:#1b6dc6;}.cls-1,.cls-2,.cls-3,.cls-4{stroke-linecap:round;stroke-linejoin:round;stroke-width:2px;}.cls-2,.cls-4{fill:none;}.cls-3{fill:#e9f6fe;}.cls-4{stroke:#d3edfd;}</style></defs><title>group_01</title><g id="Layer_2" data-name="Layer 2"><g id="Layer_2-2" data-name="Layer 2"><path class="cls-1" d="M91.74,28.67c-7.88-9-24.09-15.25-42.82-15.25S14,19.63,6.1,28.67H1V41.09C1,56.37,22.46,68.76,48.92,68.76S96.85,56.37,96.85,41.09V28.67Z"/><path class="cls-2" d="M91.74,28.67c-7.88-9-24.09-15.25-42.82-15.25S14,19.63,6.1,28.67H1V41.09C1,56.37,22.46,68.76,48.92,68.76S96.85,56.37,96.85,41.09V28.67Z"/><ellipse class="cls-3" cx="48.92" cy="28.67" rx="47.92" ry="27.67"/><ellipse class="cls-4" cx="48.92" cy="34.88" rx="46.7" ry="21.46"/><ellipse class="cls-2" cx="48.92" cy="28.67" rx="47.92" ry="27.67"/></g></g></svg>