<svg xmlns="http://www.w3.org/2000/svg" width="160.75" height="106.52" viewBox="0 0 160.75 106.52"><defs><style>.cls-1{fill:#f2f4f6;}.cls-1,.cls-2,.cls-3{stroke:#627386;}.cls-1,.cls-2,.cls-3,.cls-4,.cls-5{stroke-linecap:round;stroke-linejoin:round;stroke-width:2px;}.cls-2{fill:#d5dae0;}.cls-3{fill:#fff;}.cls-4{fill:none;stroke:#d5dae0;}.cls-5{fill:#e9f6fe;stroke:#91d2fb;}</style></defs><title>interface_02</title><g id="Layer_2" data-name="Layer 2"><g id="Layer_1-2" data-name="Layer 1"><polygon class="cls-1" points="1.1 64.78 71.83 105.52 71.73 92.59 1 51.86 1.1 64.78"/><polygon class="cls-2" points="159.75 54.66 71.83 105.52 71.73 92.59 159.64 41.73 159.75 54.66"/><polygon class="cls-3" points="1 51.86 88.91 1 159.64 41.73 71.73 92.59 1 51.86"/><polygon class="cls-3" points="13.84 59.25 101.75 8.39 159.64 41.73 71.73 92.59 13.84 59.25"/><polygon class="cls-1" points="1 51.86 88.91 1 101.75 8.39 13.84 59.25 1 51.86"/><polygon class="cls-2" points="13.84 72.11 1.1 64.78 1 51.86 13.84 59.25 13.84 72.11"/><line class="cls-4" x1="101.75" y1="23.5" x2="133.16" y2="41.58"/><line class="cls-4" x1="60.46" y1="47.39" x2="91.87" y2="65.47"/><line class="cls-4" x1="81.1" y1="35.45" x2="112.52" y2="53.53"/><line class="cls-4" x1="60.46" y1="47.39" x2="91.87" y2="65.47"/><line class="cls-4" x1="39.81" y1="59.34" x2="71.22" y2="77.41"/><polygon class="cls-5" points="101.75 23.5 133.16 41.58 71.22 77.42 56.28 68.84 66.89 61.16 68.22 51.86 79.28 43.99 92.81 42.18 100.12 32.54 101.75 23.5"/><line class="cls-5" x1="92.81" y1="42.18" x2="112.52" y2="53.53"/><line class="cls-5" x1="68.22" y1="51.86" x2="91.87" y2="65.47"/></g></g></svg>