<svg xmlns="http://www.w3.org/2000/svg" width="182" height="115.92" viewBox="0 0 182 115.92"><defs><style>.cls-1,.cls-4{fill:#fff;}.cls-1,.cls-2{stroke:#d5dae0;}.cls-1,.cls-2,.cls-3,.cls-4,.cls-5,.cls-6,.cls-7{stroke-linecap:round;stroke-linejoin:round;stroke-width:2px;}.cls-2,.cls-6,.cls-7{fill:none;}.cls-3{fill:#f2f4f6;}.cls-3,.cls-4,.cls-5,.cls-6{stroke:#627386;}.cls-5{fill:#d5dae0;}.cls-7{stroke:#b8bfca;}</style></defs><title>interface_01</title><g id="Layer_2" data-name="Layer 2"><g id="Layer_1-2" data-name="Layer 1"><polygon class="cls-1" points="1 71.89 75.54 114.92 181 54.03 106.46 17 1 71.89"/><line class="cls-2" x1="170.57" y1="50.06" x2="170.57" y2="60.06"/><polygon class="cls-3" points="75.54 114.92 75.54 104.92 181 44.03 181 54.03 75.54 114.92"/><polygon class="cls-4" points="75.54 114.92 75.54 104.92 1 61.89 1 71.89 75.54 114.92"/><polygon class="cls-5" points="11.43 77.91 1 71.89 1 61.89 11.43 67.91 11.43 77.91"/><polygon class="cls-6" points="75.54 114.92 75.54 104.92 1 61.89 1 71.89 75.54 114.92"/><polygon class="cls-6" points="75.54 114.92 75.54 104.92 181 44.03 181 54.03 75.54 114.92"/><polygon class="cls-1" points="1 61.89 75.54 104.92 181 44.03 106.46 1 1 61.89"/><polygon class="cls-3" points="116.89 7.02 11.43 67.91 1 61.89 106.46 1 116.89 7.02"/><polygon class="cls-6" points="1 61.89 75.54 104.92 181 44.03 106.46 1 1 61.89"/><polygon class="cls-7" points="69.36 55.44 40.57 72.06 32.07 67.15 60.86 50.53 69.36 55.44"/><polygon class="cls-7" points="87.07 65.66 58.28 82.28 49.79 77.38 78.57 60.76 87.07 65.66"/><polygon class="cls-7" points="120.56 25.87 91.78 42.49 83.28 37.59 112.06 20.97 120.56 25.87"/><polygon class="cls-7" points="138.28 36.1 109.49 52.72 100.99 47.81 129.78 31.2 138.28 36.1"/><line class="cls-7" x1="151.47" y1="44.04" x2="122.96" y2="60.5"/><path class="cls-7" d="M105.24,50.27C90.85,58.58,79.5,44.67,65.11,53"/><path class="cls-7" d="M87.53,40c-14.4,8.31,9.69,14.86-4.71,23.17"/><polygon class="cls-7" points="104.78 75.89 76 92.51 67.5 87.61 96.29 70.99 104.78 75.89"/><path class="cls-7" d="M105.24,50.27c-14.39,8.31,9.69,14.86-4.7,23.17"/></g></g></svg>