<svg xmlns="http://www.w3.org/2000/svg" width="72" height="51.7" viewBox="0 0 72 51.7"><defs><style>.cls-1,.cls-5{fill:none;}.cls-1{stroke:#b8bfca;stroke-miterlimit:10;}.cls-1,.cls-2,.cls-3,.cls-5,.cls-6{stroke-width:2px;}.cls-2,.cls-4{fill:#f2f4f6;}.cls-2,.cls-3,.cls-5,.cls-6{stroke:#627386;stroke-linecap:round;stroke-linejoin:round;}.cls-3{fill:#d5dae0;}.cls-6{fill:#fff;}</style></defs><title>toggle_01</title><g id="Layer_2" data-name="Layer 2"><g id="Layer_3" data-name="Layer 3"><path class="cls-1" d="M35.91,13.74,65,30.54c8,4.61,8,12.09,0,16.7h0c-8,4.61-20.94,4.61-28.92,0L7,30.44c-8-4.61-8-12.09,0-16.7H7C15,9.13,27.93,9.13,35.91,13.74Z"/><path class="cls-2" d="M1,12.81v9.28c0,3,2,6,6,8.35,8,4.61,20.94,4.61,28.92,0,4-2.31,6-5.33,6-8.35V12.81Z"/><path class="cls-2" d="M41.9,12.81v9.28c0,3-2,6-6,8.35A29.59,29.59,0,0,1,21.45,33.9V12.81Z"/><path class="cls-3" d="M1,12.81v9.28c0,3,2,6,6,8.35,8,4.61,20.94,4.61,28.92,0,4-2.31,6-5.33,6-8.35V12.81Z"/><path class="cls-4" d="M21.45,33.9A29.62,29.62,0,0,1,7,30.44c-4-2.31-6-5.33-6-8.35V12.81H21.45Z"/><path class="cls-5" d="M1,12.81v9.28c0,3,2,6,6,8.35,8,4.61,20.94,4.61,28.92,0,4-2.31,6-5.33,6-8.35V12.81Z"/><ellipse class="cls-6" cx="21.45" cy="12.81" rx="20.45" ry="11.81"/></g></g></svg>