<svg xmlns="http://www.w3.org/2000/svg" width="74.45" height="43.83" viewBox="0 0 74.45 43.83"><defs><style>.cls-1{fill:#fff;}.cls-1,.cls-2{stroke:#1b6dc6;stroke-linecap:round;stroke-linejoin:round;stroke-width:2px;}.cls-2{fill:#bde4fd;}</style></defs><title>user_01</title><g id="Layer_2" data-name="Layer 2"><g id="Layer_2-2" data-name="Layer 2"><path class="cls-1" d="M72.67,23,39.12,42.38a4.22,4.22,0,0,1-3.79,0L1.78,23a1.16,1.16,0,0,1,0-2.19L35.33,1.45a4.22,4.22,0,0,1,3.79,0L72.67,20.82A1.16,1.16,0,0,1,72.67,23Z"/><path class="cls-2" d="M36.81,41.44a12.44,12.44,0,0,0,.09,1.37,4,4,0,0,0,2.22-.43L72.67,23a1.23,1.23,0,0,0,.75-1.28c-.79,0-1.58-.06-2.38-.06C52.14,21.67,36.81,30.52,36.81,41.44Z"/><ellipse class="cls-2" cx="33.29" cy="19.64" rx="14.04" ry="8.11"/></g></g></svg>