<svg xmlns="http://www.w3.org/2000/svg" width="98.82" height="139.27" viewBox="0 0 98.82 139.27"><defs><style>.cls-1,.cls-5{fill:#fff;}.cls-1,.cls-2,.cls-3{stroke:#627386;}.cls-1,.cls-2,.cls-3,.cls-4,.cls-5,.cls-6,.cls-7{stroke-linecap:round;stroke-linejoin:round;stroke-width:2px;}.cls-2{fill:#f2f4f6;}.cls-3,.cls-4{fill:none;}.cls-4{stroke:#d3edfd;}.cls-5,.cls-6,.cls-7{stroke:#1b6dc6;}.cls-6{fill:#e9f6fe;}.cls-7{fill:#bde4fd;}</style></defs><title>window_01</title><g id="Layer_2" data-name="Layer 2"><g id="Layer_1-2" data-name="Layer 1"><polygon class="cls-1" points="97.82 84.95 5.46 138.27 5.46 68.55 97.82 15.23 97.82 84.95"/><polygon class="cls-2" points="1 135.7 1 65.98 5.46 68.55 5.46 138.27 1 135.7"/><line class="cls-3" x1="5.46" y1="68.55" x2="1" y2="65.98"/><polygon class="cls-1" points="97.82 84.95 5.46 138.27 5.46 68.55 97.82 15.23 97.82 84.95"/><ellipse class="cls-4" cx="51.64" cy="76.75" rx="12.31" ry="6.96" transform="translate(-39.2 94.22) rotate(-66.95)"/><ellipse class="cls-4" cx="51.64" cy="76.75" rx="18.46" ry="10.45" transform="matrix(0.39, -0.92, 0.92, 0.39, -39.2, 94.22)"/><polygon class="cls-5" points="93.36 1 1 54.33 5.46 56.9 97.82 3.58 93.36 1"/><polygon class="cls-6" points="1 65.98 1 54.33 5.46 56.9 5.46 68.55 1 65.98"/><polygon class="cls-7" points="97.82 15.23 5.46 68.55 5.46 56.9 97.82 3.58 97.82 15.23"/></g></g></svg>