<svg xmlns="http://www.w3.org/2000/svg" width="110.36" height="155.05" viewBox="0 0 110.36 155.05"><defs><style>.cls-1{fill:#d5dae0;}.cls-1,.cls-2{stroke:#627386;}.cls-1,.cls-2,.cls-3,.cls-4{stroke-linecap:round;stroke-linejoin:round;stroke-width:2px;}.cls-2{fill:#f2f4f6;}.cls-3,.cls-4{fill:none;}.cls-3{stroke:#d5dae0;}.cls-4{stroke:#b8bfca;}</style></defs><title>board_02</title><g id="Layer_2" data-name="Layer 2"><g id="Layer_1-2" data-name="Layer 1"><path class="cls-1" d="M107.38,57.19,10.47,1.24a1.27,1.27,0,0,0-1.3-.11h0L1.68,5.46,6,11.5V91.18A4.73,4.73,0,0,0,8,95l88.15,50.89,5,8.07,7.49-4.32h0a1.74,1.74,0,0,0,.68-1.6V61A4.71,4.71,0,0,0,107.38,57.19ZM17.61,93.86c-.23-.1-.47-.22-.71-.35-3.27-1.9-5.93-7-5.93-11.34a8.9,8.9,0,0,1,.2-1.94c.23.1.47.22.71.35,3.28,1.9,5.93,7,5.93,11.34A8.9,8.9,0,0,1,17.61,93.86Zm0-21.1a6.64,6.64,0,0,1-.71-.35c-3.27-1.89-5.93-7-5.93-11.34a8.8,8.8,0,0,1,.2-1.93,5.17,5.17,0,0,1,.71.35c3.28,1.89,5.93,7,5.93,11.33A8.9,8.9,0,0,1,17.61,72.76Zm0-21.1a6.64,6.64,0,0,1-.71-.35C13.63,49.42,11,44.34,11,40a8.8,8.8,0,0,1,.2-1.93,6.64,6.64,0,0,1,.71.35c3.28,1.89,5.93,7,5.93,11.34A8.8,8.8,0,0,1,17.61,51.66Zm0-21.1a5.17,5.17,0,0,1-.71-.35c-3.27-1.89-5.93-7-5.93-11.33a8.9,8.9,0,0,1,.2-1.94,6.64,6.64,0,0,1,.71.35c3.28,1.89,5.93,7,5.93,11.34A8.8,8.8,0,0,1,17.61,30.56ZM33.43,103a6.52,6.52,0,0,1-.7-.35c-3.28-1.89-5.94-7-5.94-11.34A8.78,8.78,0,0,1,27,89.37a6.52,6.52,0,0,1,.7.35c3.28,1.89,5.94,7,5.94,11.34A8.78,8.78,0,0,1,33.43,103Zm0-21.1a5.08,5.08,0,0,1-.7-.35c-3.28-1.89-5.94-7-5.94-11.33A8.87,8.87,0,0,1,27,68.27a6.52,6.52,0,0,1,.7.35c3.28,1.89,5.94,7,5.94,11.34A8.71,8.71,0,0,1,33.43,81.89Zm0-21.09c-.23-.1-.46-.22-.7-.35-3.28-1.9-5.94-7-5.94-11.34A8.71,8.71,0,0,1,27,47.18a6.39,6.39,0,0,1,.7.34c3.28,1.9,5.94,7,5.94,11.34A8.87,8.87,0,0,1,33.43,60.8Zm0-21.1a6.52,6.52,0,0,1-.7-.35c-3.28-1.89-5.94-7-5.94-11.34A8.78,8.78,0,0,1,27,26.08a5.08,5.08,0,0,1,.7.35c3.28,1.89,5.94,7,5.94,11.33A8.87,8.87,0,0,1,33.43,39.7Zm15.83,72.43a7.77,7.77,0,0,1-.71-.35c-3.28-1.89-5.93-7-5.93-11.34a8.74,8.74,0,0,1,.2-1.93,4.57,4.57,0,0,1,.7.35c3.28,1.89,5.94,7,5.94,11.33A8.9,8.9,0,0,1,49.26,112.13Zm0-21.1a5.83,5.83,0,0,1-.71-.35c-3.28-1.89-5.93-7-5.93-11.34a8.8,8.8,0,0,1,.2-1.93,5.71,5.71,0,0,1,.7.35c3.28,1.89,5.94,7,5.94,11.34A8.87,8.87,0,0,1,49.26,91Zm0-21.1a5.83,5.83,0,0,1-.71-.35c-3.28-1.89-5.93-7-5.93-11.34a8.8,8.8,0,0,1,.2-1.93,5.71,5.71,0,0,1,.7.35c3.28,1.89,5.94,7,5.94,11.34A8.8,8.8,0,0,1,49.26,69.93Zm0-21.1a4.66,4.66,0,0,1-.71-.35c-3.28-1.89-5.93-7-5.93-11.33a8.9,8.9,0,0,1,.2-1.94,5.71,5.71,0,0,1,.7.35c3.28,1.89,5.94,7,5.94,11.34A8.74,8.74,0,0,1,49.26,48.83Zm15.82,72.43a5.17,5.17,0,0,1-.71-.35c-3.27-1.89-5.93-7-5.93-11.33a8.9,8.9,0,0,1,.2-1.94,6.64,6.64,0,0,1,.71.35c3.28,1.89,5.93,7,5.93,11.34A8.8,8.8,0,0,1,65.08,121.26Zm0-21.1a5.17,5.17,0,0,1-.71-.35c-3.27-1.89-5.93-7-5.93-11.33a8.9,8.9,0,0,1,.2-1.94c.23.1.47.22.71.35,3.28,1.9,5.93,7,5.93,11.34A8.74,8.74,0,0,1,65.08,100.16Zm0-21.09a6.64,6.64,0,0,1-.71-.35c-3.27-1.89-5.93-7-5.93-11.34a8.74,8.74,0,0,1,.2-1.93,5.17,5.17,0,0,1,.71.35c3.28,1.89,5.93,7,5.93,11.33A8.9,8.9,0,0,1,65.08,79.07Zm0-21.1a6.64,6.64,0,0,1-.71-.35c-3.27-1.89-5.93-7-5.93-11.34a8.8,8.8,0,0,1,.2-1.93,6.64,6.64,0,0,1,.71.35c3.28,1.89,5.93,7,5.93,11.34A8.8,8.8,0,0,1,65.08,58ZM80.9,130.4a6.52,6.52,0,0,1-.7-.35c-3.28-1.89-5.94-7-5.94-11.34a8.21,8.21,0,0,1,.21-1.93,5.08,5.08,0,0,1,.7.35c3.28,1.89,5.94,7,5.94,11.33A8.87,8.87,0,0,1,80.9,130.4Zm0-21.1a6.52,6.52,0,0,1-.7-.35c-3.28-1.89-5.94-7-5.94-11.34a8.21,8.21,0,0,1,.21-1.93,6.52,6.52,0,0,1,.7.35c3.28,1.89,5.94,7,5.94,11.34A8.78,8.78,0,0,1,80.9,109.3Zm0-21.1a5.08,5.08,0,0,1-.7-.35c-3.28-1.89-5.94-7-5.94-11.33a8.3,8.3,0,0,1,.21-1.94,6.52,6.52,0,0,1,.7.35c3.28,1.89,5.94,7,5.94,11.34A8.78,8.78,0,0,1,80.9,88.2Zm0-21.1a6.39,6.39,0,0,1-.7-.34c-3.28-1.9-5.94-7-5.94-11.34a8.3,8.3,0,0,1,.21-1.94c.23.1.46.22.7.35,3.28,1.9,5.94,7,5.94,11.34A8.71,8.71,0,0,1,80.9,67.1Zm15.83,72.43a4.66,4.66,0,0,1-.71-.35c-3.28-1.89-5.93-7-5.93-11.33a8.9,8.9,0,0,1,.2-1.94,5.71,5.71,0,0,1,.7.35c3.28,1.89,5.94,7,5.94,11.34A8.74,8.74,0,0,1,96.73,139.53Zm0-21.09a7.77,7.77,0,0,1-.71-.35c-3.28-1.9-5.93-7-5.93-11.34a8.9,8.9,0,0,1,.2-1.94,7.61,7.61,0,0,1,.7.35c3.28,1.9,5.94,7,5.94,11.34A8.9,8.9,0,0,1,96.73,118.44Zm0-21.1A5.83,5.83,0,0,1,96,97c-3.28-1.89-5.93-7-5.93-11.34a8.8,8.8,0,0,1,.2-1.93,4.57,4.57,0,0,1,.7.35c3.28,1.89,5.94,7,5.94,11.33A8.9,8.9,0,0,1,96.73,97.34Zm0-21.1a5.83,5.83,0,0,1-.71-.35c-3.28-1.89-5.93-7-5.93-11.34a8.8,8.8,0,0,1,.2-1.93A5.71,5.71,0,0,1,91,63c3.28,1.89,5.94,7,5.94,11.34A8.8,8.8,0,0,1,96.73,76.24Z"/><path class="cls-2" d="M99.9,61.52,3,5.56c-1.09-.63-2,0-2,1.5v87a4.74,4.74,0,0,0,2,3.78l96.92,56c1.09.63,2,0,2-1.5v-87A4.73,4.73,0,0,0,99.9,61.52ZM17.61,93.86c-.23-.1-.47-.22-.71-.35-3.27-1.9-5.93-7-5.93-11.34a8.9,8.9,0,0,1,.2-1.94c.23.1.47.22.71.35,3.28,1.9,5.93,7,5.93,11.34A8.9,8.9,0,0,1,17.61,93.86Zm0-21.1a6.64,6.64,0,0,1-.71-.35c-3.27-1.89-5.93-7-5.93-11.34a8.8,8.8,0,0,1,.2-1.93,5.17,5.17,0,0,1,.71.35c3.28,1.89,5.93,7,5.93,11.33A8.9,8.9,0,0,1,17.61,72.76Zm0-21.1a6.64,6.64,0,0,1-.71-.35C13.63,49.42,11,44.34,11,40a8.8,8.8,0,0,1,.2-1.93,6.64,6.64,0,0,1,.71.35c3.28,1.89,5.93,7,5.93,11.34A8.8,8.8,0,0,1,17.61,51.66Zm0-21.1a5.17,5.17,0,0,1-.71-.35c-3.27-1.89-5.93-7-5.93-11.33a8.9,8.9,0,0,1,.2-1.94,6.64,6.64,0,0,1,.71.35c3.28,1.89,5.93,7,5.93,11.34A8.8,8.8,0,0,1,17.61,30.56ZM33.43,103a6.52,6.52,0,0,1-.7-.35c-3.28-1.89-5.94-7-5.94-11.34A8.78,8.78,0,0,1,27,89.37a6.52,6.52,0,0,1,.7.35c3.28,1.89,5.94,7,5.94,11.34A8.78,8.78,0,0,1,33.43,103Zm0-21.1a5.08,5.08,0,0,1-.7-.35c-3.28-1.89-5.94-7-5.94-11.33A8.87,8.87,0,0,1,27,68.27a6.52,6.52,0,0,1,.7.35c3.28,1.89,5.94,7,5.94,11.34A8.71,8.71,0,0,1,33.43,81.89Zm0-21.09c-.23-.1-.46-.22-.7-.35-3.28-1.9-5.94-7-5.94-11.34A8.71,8.71,0,0,1,27,47.18a6.39,6.39,0,0,1,.7.34c3.28,1.9,5.94,7,5.94,11.34A8.87,8.87,0,0,1,33.43,60.8Zm0-21.1a6.52,6.52,0,0,1-.7-.35c-3.28-1.89-5.94-7-5.94-11.34A8.78,8.78,0,0,1,27,26.08a5.08,5.08,0,0,1,.7.35c3.28,1.89,5.94,7,5.94,11.33A8.87,8.87,0,0,1,33.43,39.7Zm15.83,72.43a7.77,7.77,0,0,1-.71-.35c-3.28-1.89-5.93-7-5.93-11.34a8.74,8.74,0,0,1,.2-1.93,4.57,4.57,0,0,1,.7.35c3.28,1.89,5.94,7,5.94,11.33A8.9,8.9,0,0,1,49.26,112.13Zm0-21.1a5.83,5.83,0,0,1-.71-.35c-3.28-1.89-5.93-7-5.93-11.34a8.8,8.8,0,0,1,.2-1.93,5.71,5.71,0,0,1,.7.35c3.28,1.89,5.94,7,5.94,11.34A8.87,8.87,0,0,1,49.26,91Zm0-21.1a5.83,5.83,0,0,1-.71-.35c-3.28-1.89-5.93-7-5.93-11.34a8.8,8.8,0,0,1,.2-1.93,5.71,5.71,0,0,1,.7.35c3.28,1.89,5.94,7,5.94,11.34A8.8,8.8,0,0,1,49.26,69.93Zm0-21.1a4.66,4.66,0,0,1-.71-.35c-3.28-1.89-5.93-7-5.93-11.33a8.9,8.9,0,0,1,.2-1.94,5.71,5.71,0,0,1,.7.35c3.28,1.89,5.94,7,5.94,11.34A8.74,8.74,0,0,1,49.26,48.83Zm15.82,72.43a5.17,5.17,0,0,1-.71-.35c-3.27-1.89-5.93-7-5.93-11.33a8.9,8.9,0,0,1,.2-1.94,6.64,6.64,0,0,1,.71.35c3.28,1.89,5.93,7,5.93,11.34A8.8,8.8,0,0,1,65.08,121.26Zm0-21.1a5.17,5.17,0,0,1-.71-.35c-3.27-1.89-5.93-7-5.93-11.33a8.9,8.9,0,0,1,.2-1.94c.23.1.47.22.71.35,3.28,1.9,5.93,7,5.93,11.34A8.74,8.74,0,0,1,65.08,100.16Zm0-21.09a6.64,6.64,0,0,1-.71-.35c-3.27-1.89-5.93-7-5.93-11.34a8.74,8.74,0,0,1,.2-1.93,5.17,5.17,0,0,1,.71.35c3.28,1.89,5.93,7,5.93,11.33A8.9,8.9,0,0,1,65.08,79.07Zm0-21.1a6.64,6.64,0,0,1-.71-.35c-3.27-1.89-5.93-7-5.93-11.34a8.8,8.8,0,0,1,.2-1.93,6.64,6.64,0,0,1,.71.35c3.28,1.89,5.93,7,5.93,11.34A8.8,8.8,0,0,1,65.08,58ZM80.9,130.4a6.52,6.52,0,0,1-.7-.35c-3.28-1.89-5.94-7-5.94-11.34a8.21,8.21,0,0,1,.21-1.93,5.08,5.08,0,0,1,.7.35c3.28,1.89,5.94,7,5.94,11.33A8.87,8.87,0,0,1,80.9,130.4Zm0-21.1a6.52,6.52,0,0,1-.7-.35c-3.28-1.89-5.94-7-5.94-11.34a8.21,8.21,0,0,1,.21-1.93,6.52,6.52,0,0,1,.7.35c3.28,1.89,5.94,7,5.94,11.34A8.78,8.78,0,0,1,80.9,109.3Zm0-21.1a5.08,5.08,0,0,1-.7-.35c-3.28-1.89-5.94-7-5.94-11.33a8.3,8.3,0,0,1,.21-1.94,6.52,6.52,0,0,1,.7.35c3.28,1.89,5.94,7,5.94,11.34A8.78,8.78,0,0,1,80.9,88.2Zm0-21.1a6.39,6.39,0,0,1-.7-.34c-3.28-1.9-5.94-7-5.94-11.34a8.3,8.3,0,0,1,.21-1.94c.23.1.46.22.7.35,3.28,1.9,5.94,7,5.94,11.34A8.71,8.71,0,0,1,80.9,67.1Zm15.83,72.43a4.66,4.66,0,0,1-.71-.35c-3.28-1.89-5.93-7-5.93-11.33a8.9,8.9,0,0,1,.2-1.94,5.71,5.71,0,0,1,.7.35c3.28,1.89,5.94,7,5.94,11.34A8.74,8.74,0,0,1,96.73,139.53Zm0-21.09a7.77,7.77,0,0,1-.71-.35c-3.28-1.9-5.93-7-5.93-11.34a8.9,8.9,0,0,1,.2-1.94,7.61,7.61,0,0,1,.7.35c3.28,1.9,5.94,7,5.94,11.34A8.9,8.9,0,0,1,96.73,118.44Zm0-21.1A5.83,5.83,0,0,1,96,97c-3.28-1.89-5.93-7-5.93-11.34a8.8,8.8,0,0,1,.2-1.93,4.57,4.57,0,0,1,.7.35c3.28,1.89,5.94,7,5.94,11.33A8.9,8.9,0,0,1,96.73,97.34Zm0-21.1a5.83,5.83,0,0,1-.71-.35c-3.28-1.89-5.93-7-5.93-11.34a8.8,8.8,0,0,1,.2-1.93A5.71,5.71,0,0,1,91,63c3.28,1.89,5.94,7,5.94,11.34A8.8,8.8,0,0,1,96.73,76.24Z"/><path class="cls-1" d="M49.4,48s0,.09,0,.14S49.39,48,49.4,48Z"/><path class="cls-1" d="M43.18,35.38l.09,0Z"/><path class="cls-1" d="M49.1,44c.1.42.18.85.24,1.27C49.28,44.82,49.2,44.39,49.1,44Z"/><path class="cls-1" d="M48.87,43.13c.09.28.16.56.23.84C49,43.69,49,43.41,48.87,43.13Z"/><path class="cls-1" d="M49.45,47.35v0Z"/><path class="cls-1" d="M48.6,42.3c.1.28.19.55.27.83C48.79,42.85,48.7,42.58,48.6,42.3Z"/><path class="cls-1" d="M47.51,39.92a14.27,14.27,0,0,1,.77,1.57A14.27,14.27,0,0,0,47.51,39.92Z"/><path class="cls-1" d="M43.18,56.47l.09.05Z"/><path class="cls-1" d="M42.82,35.21l.17.08Z"/><path class="cls-1" d="M49.38,69.23s0-.1,0-.15S49.39,69.18,49.38,69.23Z"/><path class="cls-1" d="M49.42,68.86s0-.06,0-.09S49.42,68.83,49.42,68.86Z"/><path class="cls-1" d="M43.52,51.39c2.75,1.58,5.06.43,5.74-2.56a4.66,4.66,0,0,1-.71-.35c-3.28-1.89-5.93-7-5.93-11.33a8.9,8.9,0,0,1,.2-1.94c-2.94-1.23-5.23.79-5.23,4.84C37.59,44.42,40.25,49.49,43.52,51.39Z"/><path class="cls-1" d="M43.52,72.48c2.8,1.62,5.15.39,5.77-2.72l0,.17a5.83,5.83,0,0,1-.71-.35c-3.28-1.89-5.93-7-5.93-11.34a8.8,8.8,0,0,1,.2-1.93l.17.08c-3-1.39-5.4.63-5.4,4.76C37.59,65.52,40.25,70.59,43.52,72.48Z"/><path class="cls-1" d="M49.42,47.76s0-.06,0-.09S49.42,47.73,49.42,47.76Z"/><path class="cls-1" d="M65.24,78a.28.28,0,0,0,0-.09A.28.28,0,0,1,65.24,78Z"/><path class="cls-1" d="M49.35,48.32a1.85,1.85,0,0,1,0,.23A1.85,1.85,0,0,0,49.35,48.32Z"/><path class="cls-1" d="M59,65.61l.1,0Z"/><path class="cls-1" d="M65.14,78.78a2.23,2.23,0,0,1,0-.23A2.23,2.23,0,0,0,65.14,78.78Z"/><path class="cls-1" d="M59.35,60.52c2.74,1.59,5.05.43,5.73-2.55a6.64,6.64,0,0,1-.71-.35c-3.27-1.89-5.93-7-5.93-11.34a8.8,8.8,0,0,1,.2-1.93c-2.94-1.24-5.23.78-5.23,4.83C53.41,53.55,56.07,58.63,59.35,60.52Z"/><path class="cls-1" d="M59.35,81.62c2.8,1.61,5.14.38,5.77-2.73a1.16,1.16,0,0,0,0,.18,6.64,6.64,0,0,1-.71-.35c-3.27-1.89-5.93-7-5.93-11.34a8.74,8.74,0,0,1,.2-1.93l.18.07c-3-1.39-5.41.63-5.41,4.76C53.41,74.65,56.07,79.73,59.35,81.62Z"/><path class="cls-1" d="M65.2,78.36a.68.68,0,0,0,0-.14A.68.68,0,0,1,65.2,78.36Z"/><path class="cls-1" d="M49.39,45.66c0,.28,0,.55.06.83C49.44,46.21,49.42,45.94,49.39,45.66Z"/><path class="cls-1" d="M59,86.71l.1.05Z"/><path class="cls-1" d="M49.29,48.66l0,.17Z"/><path class="cls-1" d="M49.31,69.65a2.23,2.23,0,0,0,0-.23A2.23,2.23,0,0,1,49.31,69.65Z"/><path class="cls-1" d="M59.35,102.72c2.8,1.61,5.14.38,5.77-2.73a1.36,1.36,0,0,0,0,.17,5.17,5.17,0,0,1-.71-.35c-3.27-1.89-5.93-7-5.93-11.33a8.9,8.9,0,0,1,.2-1.94c-2.94-1.23-5.23.79-5.23,4.84C53.41,95.75,56.07,100.82,59.35,102.72Z"/><path class="cls-1" d="M58.64,86.54l.18.08Z"/><path class="cls-1" d="M31.69,30.79a16.14,16.14,0,0,1,.77,1.56A16.14,16.14,0,0,0,31.69,30.79Z"/><path class="cls-1" d="M27,26.08l.17.07Z"/><path class="cls-1" d="M33.56,60.09a.68.68,0,0,1,0-.14A.68.68,0,0,0,33.56,60.09Z"/><path class="cls-1" d="M27.35,47.34l.1,0Z"/><path class="cls-1" d="M33.6,59.73a.38.38,0,0,1,0-.1A.38.38,0,0,0,33.6,59.73Z"/><path class="cls-1" d="M27.7,42.25c2.75,1.59,5.06.43,5.73-2.55a6.52,6.52,0,0,1-.7-.35c-3.28-1.89-5.94-7-5.94-11.34A8.78,8.78,0,0,1,27,26.08c-2.95-1.24-5.23.78-5.23,4.83C21.77,35.28,24.42,40.36,27.7,42.25Z"/><path class="cls-1" d="M27.7,63.35c2.8,1.61,5.14.38,5.77-2.73a1.16,1.16,0,0,1,0,.18c-.23-.1-.46-.22-.7-.35-3.28-1.9-5.94-7-5.94-11.34A8.71,8.71,0,0,1,27,47.18l.17.07c-3-1.39-5.4.63-5.4,4.76C21.77,56.38,24.42,61.46,27.7,63.35Z"/><path class="cls-1" d="M33.49,60.51a1.85,1.85,0,0,0,0-.23A1.85,1.85,0,0,1,33.49,60.51Z"/><path class="cls-1" d="M17.65,30.39a1.36,1.36,0,0,0,0,.17A1.36,1.36,0,0,1,17.65,30.39Z"/><path class="cls-1" d="M17.71,30.05a1.85,1.85,0,0,0,0,.23C17.68,30.2,17.7,30.13,17.71,30.05Z"/><path class="cls-1" d="M17.77,29.49a.28.28,0,0,0,0-.09A.28.28,0,0,1,17.77,29.49Z"/><path class="cls-1" d="M27.7,84.45c2.75,1.58,5.06.43,5.73-2.56a5.08,5.08,0,0,1-.7-.35c-3.28-1.89-5.94-7-5.94-11.33A8.87,8.87,0,0,1,27,68.27l.17.08c-3-1.39-5.4.63-5.4,4.76C21.77,77.48,24.42,82.55,27.7,84.45Z"/><path class="cls-1" d="M27.35,68.44l.1,0Z"/><path class="cls-1" d="M17.74,27.38q0,.42.06.84Q17.78,27.8,17.74,27.38Z"/><path class="cls-1" d="M33.05,34c.08.28.16.56.23.84C33.21,34.56,33.13,34.28,33.05,34Z"/><path class="cls-1" d="M33.6,38.63a.28.28,0,0,1,0-.09A.28.28,0,0,0,33.6,38.63Z"/><path class="cls-1" d="M33.47,39.52a1.16,1.16,0,0,1,0,.18A1.16,1.16,0,0,0,33.47,39.52Z"/><path class="cls-1" d="M33.53,39.18a1.57,1.57,0,0,1,0,.23A1.57,1.57,0,0,0,33.53,39.18Z"/><path class="cls-1" d="M43.18,77.57l.09.05Z"/><path class="cls-1" d="M33.57,36.52c0,.28,0,.56.06.83C33.62,37.08,33.6,36.8,33.57,36.52Z"/><path class="cls-1" d="M33.58,38.85a.78.78,0,0,0,0,.14A.78.78,0,0,1,33.58,38.85Z"/><path class="cls-1" d="M27.35,26.24l.1.05Z"/><path class="cls-1" d="M58.64,44.35l.18.07Z"/><path class="cls-1" d="M33.28,34.84a11.13,11.13,0,0,1,.23,1.26A11.13,11.13,0,0,0,33.28,34.84Z"/><path class="cls-1" d="M43.52,93.58c2.75,1.59,5.06.43,5.74-2.55a5.83,5.83,0,0,1-.71-.35c-3.28-1.89-5.93-7-5.93-11.34a8.8,8.8,0,0,1,.2-1.93l.17.07c-3-1.38-5.4.63-5.4,4.76C37.59,86.61,40.25,91.69,43.52,93.58Z"/><path class="cls-1" d="M33.62,38.21v0Z"/><path class="cls-1" d="M17.75,29.71a.77.77,0,0,1,0,.15A.77.77,0,0,0,17.75,29.71Z"/><path class="cls-1" d="M32.78,33.17c.1.27.19.55.27.83C33,33.72,32.88,33.44,32.78,33.17Z"/><path class="cls-1" d="M96.85,96.63s0-.09,0-.14S96.86,96.58,96.85,96.63Z"/><path class="cls-1" d="M91,99.89c2.8,1.62,5.15.39,5.77-2.73l0,.18A5.83,5.83,0,0,1,96,97c-3.28-1.89-5.93-7-5.93-11.34a8.8,8.8,0,0,1,.2-1.93l.17.07c-3-1.39-5.4.63-5.4,4.76C85.06,92.92,87.72,98,91,99.89Z"/><path class="cls-1" d="M94.07,108.09a10.58,10.58,0,0,0-.77-1A10.58,10.58,0,0,1,94.07,108.09Z"/><path class="cls-1" d="M90.65,83.88l.09.05Z"/><path class="cls-1" d="M91,105.16h0a9,9,0,0,1,1.77,1.38A9,9,0,0,0,91,105.16Z"/><path class="cls-1" d="M96.89,96.27s0-.06,0-.09S96.89,96.24,96.89,96.27Z"/><path class="cls-1" d="M96.78,97.05a1.57,1.57,0,0,0,0-.23A1.57,1.57,0,0,1,96.78,97.05Z"/><path class="cls-1" d="M80.94,66.93a.85.85,0,0,1,0,.17A.85.85,0,0,0,80.94,66.93Z"/><path class="cls-1" d="M81.07,66a.31.31,0,0,1,0-.1A.31.31,0,0,0,81.07,66Z"/><path class="cls-1" d="M81,66.59c0,.08,0,.15,0,.23C81,66.74,81,66.67,81,66.59Z"/><path class="cls-1" d="M81,63.93c0,.28,0,.55.06.83C81.09,64.48,81.07,64.21,81,63.93Z"/><path class="cls-1" d="M90.65,105l.09,0Z"/><path class="cls-1" d="M91,121c2.75,1.58,5.06.43,5.74-2.55a7.77,7.77,0,0,1-.71-.35c-3.28-1.9-5.93-7-5.93-11.34a8.9,8.9,0,0,1,.2-1.94l.17.08c-3-1.39-5.4.63-5.4,4.76C85.06,114,87.72,119.1,91,121Z"/><path class="cls-1" d="M96.87,75.39s0,.1,0,.14S96.86,75.44,96.87,75.39Z"/><path class="cls-1" d="M81,66.26s0,.09,0,.14S81,66.3,81,66.26Z"/><path class="cls-1" d="M96.82,75.73a1.7,1.7,0,0,1,0,.22A1.7,1.7,0,0,0,96.82,75.73Z"/><path class="cls-1" d="M96.92,74.66v0Z"/><path class="cls-1" d="M96.86,73.06q0,.42.06.84Q96.91,73.48,96.86,73.06Z"/><path class="cls-1" d="M91,78.79c2.75,1.59,5.06.43,5.74-2.55a5.83,5.83,0,0,1-.71-.35c-3.28-1.89-5.93-7-5.93-11.34a8.8,8.8,0,0,1,.2-1.93c-3-1.23-5.23.78-5.23,4.84C85.06,71.82,87.72,76.9,91,78.79Z"/><path class="cls-1" d="M96.89,75.17s0-.06,0-.09S96.89,75.14,96.89,75.17Z"/><path class="cls-1" d="M96.76,76.07l0,.17Z"/><path class="cls-1" d="M90.65,62.78l.09,0Z"/><path class="cls-1" d="M95,67.33a14.12,14.12,0,0,1,.77,1.56A14.12,14.12,0,0,0,95,67.33Z"/><path class="cls-1" d="M90.29,62.62l.17.08Z"/><path class="cls-1" d="M96.07,69.71c.1.27.19.55.27.83C96.26,70.26,96.17,70,96.07,69.71Z"/><path class="cls-1" d="M96.34,70.54c.09.28.16.56.23.84C96.5,71.1,96.43,70.82,96.34,70.54Z"/><path class="cls-1" d="M96.57,71.38q.15.63.24,1.26Q96.72,72,96.57,71.38Z"/><path class="cls-1" d="M65.27,56.48v0Z"/><path class="cls-1" d="M65.18,57.45a2.23,2.23,0,0,0,0,.23A2.23,2.23,0,0,1,65.18,57.45Z"/><path class="cls-1" d="M65.21,54.79c0,.28.05.56.06.83C65.26,55.35,65.24,55.07,65.21,54.79Z"/><path class="cls-1" d="M65.12,57.79a1.16,1.16,0,0,0,0,.18A1.16,1.16,0,0,1,65.12,57.79Z"/><path class="cls-1" d="M75.17,96h0a8.6,8.6,0,0,1,1.77,1.37A8.6,8.6,0,0,0,75.17,96Z"/><path class="cls-1" d="M74.82,95.84l.1,0Z"/><path class="cls-1" d="M75.17,111.85c2.75,1.59,5.06.43,5.73-2.55a6.52,6.52,0,0,1-.7-.35c-3.28-1.89-5.94-7-5.94-11.34a8.21,8.21,0,0,1,.21-1.93l.17.08c-3-1.39-5.4.62-5.4,4.75C69.24,104.88,71.89,110,75.17,111.85Z"/><path class="cls-1" d="M65.24,56.9a.28.28,0,0,0,0-.09A.28.28,0,0,1,65.24,56.9Z"/><path class="cls-1" d="M64.92,53.11q.15.63.24,1.26Q65.07,53.74,64.92,53.11Z"/><path class="cls-1" d="M64.7,52.27c.08.28.16.56.22.84C64.86,52.83,64.78,52.55,64.7,52.27Z"/><path class="cls-1" d="M65.22,57.12a.59.59,0,0,1,0,.14A.59.59,0,0,0,65.22,57.12Z"/><path class="cls-1" d="M63.34,49.06a14.06,14.06,0,0,1,.76,1.56A14.06,14.06,0,0,0,63.34,49.06Z"/><path class="cls-1" d="M59,44.51l.1.05Z"/><path class="cls-1" d="M64.42,51.44c.1.27.19.55.28.83C64.61,52,64.52,51.71,64.42,51.44Z"/><path class="cls-1" d="M81.07,87.13a.28.28,0,0,1,0-.09A.28.28,0,0,0,81.07,87.13Z"/><path class="cls-1" d="M79.16,58.19c.28.51.54,1,.77,1.57C79.7,59.22,79.44,58.7,79.16,58.19Z"/><path class="cls-1" d="M78.25,99c-.25-.34-.5-.66-.77-1C77.75,98.29,78,98.61,78.25,99Z"/><path class="cls-1" d="M74.47,53.48l.17.08Z"/><path class="cls-1" d="M80.75,62.24c.09.42.18.85.23,1.27C80.93,63.09,80.84,62.66,80.75,62.24Z"/><path class="cls-1" d="M80.52,61.4c.08.28.16.56.23.84C80.68,62,80.6,61.68,80.52,61.4Z"/><path class="cls-1" d="M80.25,60.57c.1.28.19.55.27.83C80.44,61.12,80.35,60.85,80.25,60.57Z"/><path class="cls-1" d="M74.82,53.65a.31.31,0,0,1,.1.05A.31.31,0,0,0,74.82,53.65Z"/><path class="cls-1" d="M81,87.5s0-.1,0-.15S81,87.45,81,87.5Z"/><path class="cls-1" d="M81.09,65.62v0Z"/><path class="cls-1" d="M81,87.92c0-.08,0-.16,0-.23S81,87.84,81,87.92Z"/><path class="cls-1" d="M75.17,69.66c2.75,1.58,5.06.43,5.73-2.56a6.39,6.39,0,0,1-.7-.34c-3.28-1.9-5.94-7-5.94-11.34a8.3,8.3,0,0,1,.21-1.94c-3-1.23-5.23.79-5.23,4.84C69.24,62.69,71.89,67.76,75.17,69.66Z"/><path class="cls-1" d="M75.17,90.75c2.8,1.62,5.14.39,5.77-2.72a.85.85,0,0,1,0,.17,5.08,5.08,0,0,1-.7-.35c-3.28-1.89-5.94-7-5.94-11.33a8.3,8.3,0,0,1,.21-1.94l.17.08c-3-1.39-5.4.63-5.4,4.76C69.24,83.79,71.89,88.86,75.17,90.75Z"/><path class="cls-1" d="M74.82,74.75l.1,0Z"/><path class="cls-1" d="M11.88,54.21c2.8,1.62,5.14.39,5.77-2.72a.85.85,0,0,0,0,.17,6.64,6.64,0,0,1-.71-.35C13.63,49.42,11,44.34,11,40a8.8,8.8,0,0,1,.2-1.93l.18.08c-3-1.39-5.41.62-5.41,4.76C5.94,47.24,8.6,52.32,11.88,54.21Z"/><path class="cls-1" d="M65.25,99a.28.28,0,0,1,0,.09A.28.28,0,0,0,65.25,99Z"/><path class="cls-1" d="M65.28,98.58v0Z"/><path class="cls-1" d="M65.22,99.32a.78.78,0,0,1,0,.14A.78.78,0,0,0,65.22,99.32Z"/><path class="cls-1" d="M65.28,98.23h0a13.49,13.49,0,0,0-.58-3.77A13.49,13.49,0,0,1,65.28,98.23Z"/><path class="cls-1" d="M65.28,119.68v0Z"/><path class="cls-1" d="M65.18,99.65a1.85,1.85,0,0,0,0,.23A1.85,1.85,0,0,1,65.18,99.65Z"/><path class="cls-1" d="M64.7,94.46a16.09,16.09,0,0,0-.6-1.64A16.09,16.09,0,0,1,64.7,94.46Z"/><polygon class="cls-1" points="81.11 128.46 81.11 128.46 81.11 128.46 81.11 128.46"/><path class="cls-1" d="M74.82,116.94l.1,0Z"/><path class="cls-1" d="M65.25,120.1a.28.28,0,0,1,0,.09A.28.28,0,0,0,65.25,120.1Z"/><path class="cls-1" d="M80.94,130.22a1.16,1.16,0,0,1,0,.18A1.16,1.16,0,0,0,80.94,130.22Z"/><path class="cls-1" d="M81,129.88c0,.08,0,.16,0,.23S81,130,81,129.88Z"/><path class="cls-1" d="M80.2,130.05c-3.28-1.89-5.94-7-5.94-11.34a8.21,8.21,0,0,1,.21-1.93l.17.07c-3-1.39-5.4.63-5.4,4.76,0,4.37,2.65,9.45,5.93,11.34,2.75,1.58,5.06.43,5.73-2.55A6.52,6.52,0,0,1,80.2,130.05Z"/><path class="cls-1" d="M65.28,77.49v0Z"/><path class="cls-1" d="M49.43,89.87s0,.06,0,.09S49.43,89.9,49.43,89.87Z"/><path class="cls-1" d="M48.87,85.33a14.1,14.1,0,0,0-.59-1.65A14.1,14.1,0,0,1,48.87,85.33Z"/><path class="cls-1" d="M49.46,89.1h0a13.1,13.1,0,0,0-.59-3.77A13.1,13.1,0,0,1,49.46,89.1Z"/><path class="cls-1" d="M49.45,89.45v0Z"/><path class="cls-1" d="M49.4,90.18s0,.1,0,.14S49.39,90.23,49.4,90.18Z"/><path class="cls-1" d="M49.35,90.51a1.57,1.57,0,0,1,0,.23A1.57,1.57,0,0,0,49.35,90.51Z"/><path class="cls-1" d="M59,107.81l.1,0Z"/><polygon class="cls-1" points="65.28 119.33 65.28 119.33 65.28 119.33 65.28 119.33"/><path class="cls-1" d="M65.12,121.09a1,1,0,0,0,0,.17A1,1,0,0,1,65.12,121.09Z"/><path class="cls-1" d="M49.45,68.35v0Z"/><path class="cls-1" d="M65.18,120.75a1.57,1.57,0,0,0,0,.23A1.57,1.57,0,0,1,65.18,120.75Z"/><path class="cls-1" d="M64.37,120.91c-3.27-1.89-5.93-7-5.93-11.33a8.9,8.9,0,0,1,.2-1.94l.18.08c-3-1.39-5.41.63-5.41,4.76,0,4.37,2.66,9.44,5.94,11.33,2.74,1.59,5.05.44,5.73-2.55A5.17,5.17,0,0,1,64.37,120.91Z"/><path class="cls-1" d="M65.22,120.41a.77.77,0,0,1,0,.15A.77.77,0,0,0,65.22,120.41Z"/><path class="cls-1" d="M96.76,118.26l0,.18Z"/><path class="cls-1" d="M96.9,138.37s0,.06,0,.09S96.9,138.4,96.9,138.37Z"/><path class="cls-1" d="M96.92,138v0Z"/><path class="cls-1" d="M96.82,117.92a1.85,1.85,0,0,1,0,.23A1.85,1.85,0,0,0,96.82,117.92Z"/><path class="cls-1" d="M49.29,90.85l0,.18Z"/><path class="cls-1" d="M96.87,138.68s0,.1,0,.15S96.86,138.73,96.87,138.68Z"/><path class="cls-1" d="M96.82,139a1.85,1.85,0,0,1,0,.23A1.85,1.85,0,0,0,96.82,139Z"/><path class="cls-1" d="M96.9,117.27s0,.07,0,.1S96.9,117.3,96.9,117.27Z"/><path class="cls-1" d="M96.93,116.5h0a13.16,13.16,0,0,0-.59-3.77A13.16,13.16,0,0,1,96.93,116.5Z"/><path class="cls-1" d="M96.34,112.73a14.63,14.63,0,0,0-.59-1.64A14.63,14.63,0,0,1,96.34,112.73Z"/><path class="cls-1" d="M96.87,117.59s0,.09,0,.14S96.86,117.64,96.87,117.59Z"/><path class="cls-1" d="M96.92,95.76v0Z"/><path class="cls-1" d="M96.76,139.36l0,.17Z"/><path class="cls-1" d="M96.92,116.86v0Z"/><path class="cls-1" d="M96,139.18c-3.28-1.89-5.93-7-5.93-11.33a8.9,8.9,0,0,1,.2-1.94l.17.08c-3-1.39-5.4.63-5.4,4.76,0,4.37,2.66,9.44,5.93,11.34,2.75,1.58,5.06.43,5.74-2.56A4.66,4.66,0,0,1,96,139.18Z"/><path class="cls-1" d="M81,108.79c0,.07,0,.15,0,.22S81,108.86,81,108.79Z"/><polygon class="cls-1" points="96.93 137.6 96.93 137.6 96.93 137.6 96.93 137.6"/><path class="cls-1" d="M80.94,109.13a1.36,1.36,0,0,1,0,.17A1.36,1.36,0,0,0,80.94,109.13Z"/><path class="cls-1" d="M81.08,108.14a.28.28,0,0,0,0,.09A.28.28,0,0,1,81.08,108.14Z"/><path class="cls-1" d="M81.1,128.82v0Z"/><path class="cls-1" d="M81.08,129.24a.28.28,0,0,0,0,.09A.28.28,0,0,1,81.08,129.24Z"/><path class="cls-1" d="M81,108.45s0,.1,0,.14S81,108.5,81,108.45Z"/><path class="cls-1" d="M81,129.55s0,.09,0,.14S81,129.6,81,129.55Z"/><path class="cls-1" d="M81.1,86.62v0Z"/><path class="cls-1" d="M81.1,107.72v0Z"/><path class="cls-1" d="M90.65,126.08l.09,0Z"/><path class="cls-1" d="M17.8,29.08v0Z"/><path class="cls-1" d="M80.52,103.6c-.17-.56-.37-1.11-.59-1.65C80.15,102.49,80.35,103,80.52,103.6Z"/><path class="cls-1" d="M81.11,107.37h0a13.46,13.46,0,0,0-.59-3.77A13.46,13.46,0,0,1,81.11,107.37Z"/><path class="cls-1" d="M17.65,93.68a1.16,1.16,0,0,0,0,.18A1.16,1.16,0,0,1,17.65,93.68Z"/><path class="cls-1" d="M17.71,93.34a1.85,1.85,0,0,0,0,.23C17.68,93.49,17.7,93.42,17.71,93.34Z"/><polygon class="cls-1" points="17.81 91.92 17.81 91.92 17.81 91.92 17.81 91.92"/><path class="cls-1" d="M17.75,93a.78.78,0,0,1,0,.14A.78.78,0,0,0,17.75,93Z"/><path class="cls-1" d="M11.88,75.31c2.74,1.58,5,.43,5.73-2.55a6.64,6.64,0,0,1-.71-.35c-3.27-1.89-5.93-7-5.93-11.34a8.8,8.8,0,0,1,.2-1.93C8.23,57.9,5.94,59.92,5.94,64,5.94,68.34,8.6,73.42,11.88,75.31Z"/><path class="cls-1" d="M11.53,80.4l.1,0Z"/><path class="cls-1" d="M16.9,93.51c-3.27-1.9-5.93-7-5.93-11.34a8.9,8.9,0,0,1,.2-1.94l.18.08c-3-1.39-5.41.63-5.41,4.76,0,4.37,2.66,9.45,5.94,11.34,2.74,1.58,5,.43,5.73-2.55C17.38,93.76,17.14,93.64,16.9,93.51Z"/><path class="cls-1" d="M17.75,71.91a.68.68,0,0,1,0,.14A.68.68,0,0,0,17.75,71.91Z"/><path class="cls-1" d="M17.71,72.24a2.23,2.23,0,0,0,0,.23A2.23,2.23,0,0,1,17.71,72.24Z"/><path class="cls-1" d="M17.81,71.18v0Z"/><path class="cls-1" d="M17.81,92.28v0Z"/><path class="cls-1" d="M17.78,92.69a.38.38,0,0,1,0,.1A.38.38,0,0,0,17.78,92.69Z"/><path class="cls-1" d="M17.65,72.58a1.16,1.16,0,0,0,0,.18A1.16,1.16,0,0,1,17.65,72.58Z"/><path class="cls-1" d="M17.78,71.6a.28.28,0,0,1,0,.09A.28.28,0,0,0,17.78,71.6Z"/><path class="cls-1" d="M15.87,21.65a15,15,0,0,1,.76,1.56A15,15,0,0,0,15.87,21.65Z"/><path class="cls-1" d="M17.45,25.7q.15.63.24,1.26Q17.6,26.33,17.45,25.7Z"/><path class="cls-1" d="M11.53,17.11l.1,0Z"/><path class="cls-1" d="M17,24c.1.28.19.55.28.83C17.14,24.58,17.05,24.31,17,24Z"/><path class="cls-1" d="M11.17,16.94l.18.08Z"/><path class="cls-1" d="M17.23,24.86c.08.28.16.56.22.84C17.39,25.42,17.31,25.14,17.23,24.86Z"/><path class="cls-1" d="M11.17,59.14l.18.07Z"/><path class="cls-1" d="M17.73,51a.59.59,0,0,0,0-.14A.59.59,0,0,1,17.73,51Z"/><path class="cls-1" d="M17.67,51.37c0-.07,0-.15,0-.23C17.7,51.22,17.68,51.3,17.67,51.37Z"/><path class="cls-1" d="M11.88,33.11c2.74,1.59,5,.44,5.73-2.55a5.17,5.17,0,0,1-.71-.35c-3.27-1.89-5.93-7-5.93-11.33a8.9,8.9,0,0,1,.2-1.94c-2.94-1.23-5.23.79-5.23,4.84C5.94,26.15,8.6,31.22,11.88,33.11Z"/><path class="cls-1" d="M11.53,59.3l.1.05Z"/><path class="cls-1" d="M11.53,38.2l.1,0Z"/><path class="cls-1" d="M17.77,50.59a.28.28,0,0,0,0-.09A.28.28,0,0,1,17.77,50.59Z"/><path class="cls-1" d="M33.61,80.73a.28.28,0,0,0,0,.09A.28.28,0,0,1,33.61,80.73Z"/><path class="cls-1" d="M33.05,76.19c-.17-.56-.37-1.11-.59-1.64C32.68,75.08,32.88,75.63,33.05,76.19Z"/><path class="cls-1" d="M33.64,80h0a13.16,13.16,0,0,0-.59-3.77A13.16,13.16,0,0,1,33.64,80Z"/><path class="cls-1" d="M33.63,59.22v0Z"/><path class="cls-1" d="M48.55,111.78c-3.28-1.89-5.93-7-5.93-11.34a8.74,8.74,0,0,1,.2-1.93l.17.07c-3-1.39-5.4.63-5.4,4.76,0,4.37,2.66,9.45,5.93,11.34,2.75,1.58,5.06.43,5.74-2.55A7.77,7.77,0,0,1,48.55,111.78Z"/><path class="cls-1" d="M49.45,110.55v0Z"/><path class="cls-1" d="M33.63,80.31v0Z"/><path class="cls-1" d="M49.4,111.28s0,.09,0,.14S49.39,111.33,49.4,111.28Z"/><path class="cls-1" d="M33.58,81.05a.59.59,0,0,0,0,.14A.59.59,0,0,1,33.58,81.05Z"/><path class="cls-1" d="M49.43,111s0,.07,0,.1S49.43,111,49.43,111Z"/><path class="cls-1" d="M49.35,111.61a1.57,1.57,0,0,1,0,.23A1.57,1.57,0,0,0,49.35,111.61Z"/><polygon class="cls-1" points="49.46 110.19 49.46 110.19 49.46 110.19 49.46 110.19"/><path class="cls-1" d="M43.18,98.67l.09,0Z"/><path class="cls-1" d="M49.29,112l0,.18Z"/><path class="cls-1" d="M17.81,70.82h0a13.42,13.42,0,0,0-.58-3.76A13.42,13.42,0,0,1,17.81,70.82Z"/><path class="cls-1" d="M27.35,89.53l.1,0Z"/><path class="cls-1" d="M33.53,81.38a1.85,1.85,0,0,1,0,.23A1.85,1.85,0,0,0,33.53,81.38Z"/><path class="cls-1" d="M33.47,102.82a1,1,0,0,1,0,.17A1,1,0,0,0,33.47,102.82Z"/><path class="cls-1" d="M32.73,102.64c-3.28-1.89-5.94-7-5.94-11.34A8.78,8.78,0,0,1,27,89.37l.17.08c-3-1.39-5.4.63-5.4,4.76,0,4.37,2.65,9.44,5.93,11.33,2.75,1.59,5.06.44,5.73-2.55A6.52,6.52,0,0,1,32.73,102.64Z"/><path class="cls-1" d="M17.81,50.08v0Z"/><path class="cls-1" d="M17.23,67.06a16.26,16.26,0,0,0-.6-1.65A16.26,16.26,0,0,1,17.23,67.06Z"/><polygon class="cls-1" points="33.63 101.06 33.63 101.06 33.63 101.06 33.63 101.06"/><path class="cls-1" d="M33.47,81.72a.85.85,0,0,1,0,.17A.85.85,0,0,0,33.47,81.72Z"/><path class="cls-1" d="M33.63,101.41v0Z"/><path class="cls-1" d="M33.53,102.48a2.23,2.23,0,0,1,0,.23A2.23,2.23,0,0,0,33.53,102.48Z"/><path class="cls-1" d="M33.58,102.14a.77.77,0,0,0,0,.15A.77.77,0,0,1,33.58,102.14Z"/><path class="cls-1" d="M33.61,101.83a.28.28,0,0,0,0,.09A.28.28,0,0,1,33.61,101.83Z"/><path class="cls-2" d="M11.88,17.29a6.64,6.64,0,0,0-.71-.35c-2.94-1.23-5.23.79-5.23,4.84,0,4.37,2.66,9.44,5.94,11.33,2.74,1.59,5,.44,5.73-2.55a8.8,8.8,0,0,0,.2-1.93C17.81,24.26,15.16,19.18,11.88,17.29Z"/><path class="cls-3" d="M11.88,22.17a1.74,1.74,0,0,0-.27-.14c-1.13-.47-2,.3-2,1.86a5.43,5.43,0,0,0,2.28,4.35,1.36,1.36,0,0,0,2.2-1,3.36,3.36,0,0,0,.08-.74A5.43,5.43,0,0,0,11.88,22.17Z"/><path class="cls-1" d="M11.88,80.58c-.24-.13-.48-.25-.71-.35C8.23,79,5.94,81,5.94,85.07c0,4.37,2.66,9.45,5.94,11.34,2.74,1.58,5,.43,5.73-2.55a8.9,8.9,0,0,0,.2-1.94C17.81,87.55,15.16,82.48,11.88,80.58Z"/><path class="cls-4" d="M11.88,85.46l-.27-.14c-1.13-.47-2,.31-2,1.86a5.43,5.43,0,0,0,2.28,4.35,1.36,1.36,0,0,0,2.2-1,3.36,3.36,0,0,0,.08-.74A5.45,5.45,0,0,0,11.88,85.46Z"/><path class="cls-1" d="M27.7,89.72a6.52,6.52,0,0,0-.7-.35c-2.95-1.23-5.23.78-5.23,4.84,0,4.37,2.65,9.44,5.93,11.33,2.75,1.59,5.06.44,5.73-2.55a8.78,8.78,0,0,0,.21-1.93C33.64,96.69,31,91.61,27.7,89.72Z"/><path class="cls-4" d="M27.7,94.59l-.27-.13c-1.13-.47-2,.3-2,1.86a5.46,5.46,0,0,0,2.28,4.35,1.36,1.36,0,0,0,2.2-1A3.36,3.36,0,0,0,30,99,5.47,5.47,0,0,0,27.7,94.59Z"/><path class="cls-1" d="M27.7,68.62a6.52,6.52,0,0,0-.7-.35c-2.95-1.23-5.23.79-5.23,4.84,0,4.37,2.65,9.44,5.93,11.34,2.75,1.58,5.06.43,5.73-2.56A8.71,8.71,0,0,0,33.64,80C33.64,75.59,31,70.51,27.7,68.62Z"/><path class="cls-4" d="M27.7,73.5a1.74,1.74,0,0,0-.27-.14c-1.13-.47-2,.3-2,1.86a5.43,5.43,0,0,0,2.28,4.35,1.36,1.36,0,0,0,2.2-1,3.36,3.36,0,0,0,.08-.74A5.43,5.43,0,0,0,27.7,73.5Z"/><path class="cls-1" d="M91,126.26a5.71,5.71,0,0,0-.7-.35c-3-1.23-5.23.79-5.23,4.84,0,4.37,2.66,9.44,5.93,11.34,2.75,1.58,5.06.43,5.74-2.56a8.74,8.74,0,0,0,.2-1.93C96.93,133.23,94.27,128.15,91,126.26Z"/><path class="cls-4" d="M91,131.14a1.74,1.74,0,0,0-.27-.14c-1.13-.47-2,.3-2,1.86A5.45,5.45,0,0,0,91,137.21a1.37,1.37,0,0,0,2.21-1,3.38,3.38,0,0,0,.07-.74A5.43,5.43,0,0,0,91,131.14Z"/><path class="cls-1" d="M91,105.16a7.61,7.61,0,0,0-.7-.35c-3-1.23-5.23.79-5.23,4.84,0,4.37,2.66,9.45,5.93,11.34,2.75,1.58,5.06.43,5.74-2.55a8.9,8.9,0,0,0,.2-1.94C96.93,112.13,94.27,107.06,91,105.16Z"/><path class="cls-4" d="M91,110l-.27-.14c-1.13-.47-2,.31-2,1.86A5.45,5.45,0,0,0,91,116.11a1.37,1.37,0,0,0,2.21-1,3.38,3.38,0,0,0,.07-.74A5.45,5.45,0,0,0,91,110Z"/></g></g></svg>