<svg xmlns="http://www.w3.org/2000/svg" viewBox="0 0 440 200"><defs><style>.cls-1{fill:#d5dae0;}.cls-2{fill:#f2f4f6;}.cls-3,.cls-6{fill:#fff;}.cls-3,.cls-4{stroke:#b8bfca;}.cls-10,.cls-11,.cls-3,.cls-4,.cls-5,.cls-9{stroke-linecap:round;stroke-linejoin:round;stroke-width:2px;}.cls-10,.cls-11,.cls-12,.cls-4,.cls-5,.cls-9{fill:none;}.cls-5{stroke:#627386;}.cls-7{fill:#bde4fd;}.cls-8{fill:#d3edfd;}.cls-9{stroke:#91d2fb;}.cls-10,.cls-11{stroke:#1b6dc6;}.cls-11{stroke-dasharray:0 6;}</style></defs><title>app_integrate(1x1)</title><g id="Layer_2" data-name="Layer 2"><g id="Illustrations"><path class="cls-1" d="M195.57,182.44a6.68,6.68,0,0,0,3.29-.8l123.61-71.83a2.3,2.3,0,0,0,1.35-1.89l0-13.9a2.32,2.32,0,0,1-1.35,1.9L198.89,167.75a6.66,6.66,0,0,1-3.23.79"/><path class="cls-2" d="M195.66,168.54a6.73,6.73,0,0,1-3.36-.78L117.55,124.6a2.32,2.32,0,0,1-1.37-1.92l0,13.9a2.32,2.32,0,0,0,1.37,1.91l74.75,43.16a6.71,6.71,0,0,0,3.3.79"/><path class="cls-3" d="M322.48,92.11c1.82,1,1.83,2.75,0,3.81L198.89,167.75a7.26,7.26,0,0,1-6.59,0L117.55,124.6c-1.83-1-1.83-2.76,0-3.82L241.15,49a7.27,7.27,0,0,1,6.58,0Z"/><line class="cls-4" x1="130.43" y1="132.03" x2="130.43" y2="145.92"/><path class="cls-4" d="M260.59,56.38,247.73,49a7.27,7.27,0,0,0-6.58,0L117.54,120.78c-1.82,1.06-1.82,2.77,0,3.82L130.42,132,260.59,56.38Z"/><path class="cls-5" d="M322.48,92.11,247.73,49a7.27,7.27,0,0,0-6.58,0L117.54,120.78a2.32,2.32,0,0,0-1.36,1.91h0l0,13.9a2.32,2.32,0,0,0,1.37,1.91l74.75,43.16a7.26,7.26,0,0,0,6.59,0l123.61-71.83a2.3,2.3,0,0,0,1.35-1.89l0-13.9A2.49,2.49,0,0,0,322.48,92.11Z"/><path class="cls-6" d="M275.67,81.94c6.83,3.94,6.87,10.34.08,14.29s-17.84,3.94-24.67,0S244.2,85.88,251,81.94,268.83,78,275.67,81.94Z"/><path class="cls-6" d="M212,133.84l-21.65-12.5a1.5,1.5,0,0,0-1.37,0l-21.65,12.5L189,146.34a1.5,1.5,0,0,0,1.37,0Z"/><polygon class="cls-6" points="238.24 117.18 225.25 124.68 220.5 114.44 215.74 104.19 233.49 106.94 251.23 109.68 238.24 117.18"/><path class="cls-1" d="M263.31,90.09a25.3,25.3,0,0,1,12.36,3,14.69,14.69,0,0,1,2.27,1.62c4.49-3.93,3.72-9.27-2.27-12.73a25.09,25.09,0,0,0-12.3-3"/><path class="cls-2" d="M263.37,79a25,25,0,0,0-12.38,3c-5.92,3.44-6.64,8.75-2.19,12.67A14.63,14.63,0,0,1,251,93.05a25.12,25.12,0,0,1,12.32-3"/><path class="cls-1" d="M189.65,121.18a1.39,1.39,0,0,0-.68.16l-21.65,12.5,9.4,5.43L189,132.19a1.39,1.39,0,0,1,.68-.16"/><path class="cls-2" d="M189.65,132a1.41,1.41,0,0,1,.69.16l12.25,7.08,9.4-5.43-21.65-12.5a1.41,1.41,0,0,0-.69-.16"/><polygon class="cls-1" points="220.86 115.26 233.49 117.22 237.24 117.8 238.24 117.22 251.23 109.72 233.49 106.97 215.74 104.23 220.5 114.47 220.86 115.26"/><path class="cls-5" d="M248.8,94.61A14.63,14.63,0,0,1,251,93.05c6.8-4,17.84-3.94,24.68,0a14.69,14.69,0,0,1,2.27,1.62c4.49-3.93,3.72-9.27-2.27-12.73-6.84-4-17.88-4-24.68,0C245.07,85.38,244.35,90.69,248.8,94.61Z"/><path class="cls-5" d="M189,132.19a1.5,1.5,0,0,1,1.37,0l12.25,7.08,9.4-5.43-21.65-12.5a1.5,1.5,0,0,0-1.37,0l-21.65,12.5,9.4,5.43Z"/><polygon class="cls-5" points="220.86 115.26 233.49 117.22 237.24 117.8 238.24 117.22 251.23 109.72 233.49 106.97 215.74 104.23 220.5 114.47 220.86 115.26"/><path class="cls-5" d="M275.67,81.94c6.83,3.94,6.87,10.34.08,14.29s-17.84,3.94-24.67,0S244.2,85.88,251,81.94,268.83,78,275.67,81.94Z"/><polygon class="cls-5" points="238.24 117.22 225.25 124.72 220.5 114.47 215.74 104.23 233.49 106.97 251.23 109.72 238.24 117.22"/><path class="cls-5" d="M212,133.84l-21.65-12.5a1.5,1.5,0,0,0-1.37,0l-21.65,12.5L189,146.34a1.5,1.5,0,0,0,1.37,0Z"/><path class="cls-7" d="M189.65,53.57a1.42,1.42,0,0,0,.73-.19L212,40.9V30.23L190.37,42.71a1.41,1.41,0,0,1-.72.19"/><path class="cls-8" d="M189.65,42.9a1.41,1.41,0,0,1-.72-.19L167.32,30.23V40.9l21.6,12.48a1.47,1.47,0,0,0,.73.19"/><path class="cls-6" d="M212,30.23l-21.65-12.5a1.5,1.5,0,0,0-1.37,0l-21.65,12.5L189,42.72a1.5,1.5,0,0,0,1.37,0Z"/><path class="cls-9" d="M167.32,30.23,189,42.72a1.5,1.5,0,0,0,1.37,0L212,30.23l-21.65-12.5a1.5,1.5,0,0,0-1.37,0l-21.65,12.5"/><path class="cls-10" d="M190.34,17.73a1.5,1.5,0,0,0-1.37,0l-21.65,12.5h0V40.9l21.6,12.48a1.46,1.46,0,0,0,1.46,0L212,40.9V30.23h0Z"/><line class="cls-11" x1="211.99" y1="44.9" x2="211.99" y2="134.84"/><line class="cls-11" x1="167.32" y1="44.9" x2="167.32" y2="134.84"/><rect class="cls-12" width="440" height="200"/></g></g></svg>