<svg xmlns="http://www.w3.org/2000/svg" viewBox="0 0 126 126"><defs><style>.cls-1,.cls-4,.cls-8{fill:#d5dae0;}.cls-1,.cls-9{stroke:#b8bfca;}.cls-1,.cls-2,.cls-3,.cls-4,.cls-5,.cls-6,.cls-7{stroke-linecap:round;stroke-linejoin:round;}.cls-1,.cls-2,.cls-3,.cls-4,.cls-5,.cls-6,.cls-7,.cls-9{stroke-width:2px;}.cls-2{fill:#b8bfca;}.cls-2,.cls-3,.cls-4,.cls-5{stroke:#fff;}.cls-3{fill:#f2f4f6;}.cls-10,.cls-5,.cls-6,.cls-7,.cls-9{fill:none;}.cls-6{stroke:#627386;}.cls-7{stroke:#d5dae0;}.cls-9{stroke-miterlimit:10;}</style></defs><title>basketball_hoop(1x1)</title><g id="Layer_2" data-name="Layer 2"><g id="Illustrations"><polygon class="cls-1" points="75.61 54.55 20.22 86.52 20.22 32.98 75.61 1 75.61 54.55"/><polygon class="cls-2" points="83.35 58.92 27.97 90.9 27.97 37.35 83.35 5.38 83.35 58.92"/><polygon class="cls-3" points="83.19 5.38 75.61 1 20.22 32.98 27.8 37.35 83.19 5.38"/><polygon class="cls-4" points="27.8 90.9 20.22 86.52 20.22 32.98 27.8 37.35 27.8 90.9"/><polygon class="cls-5" points="66.91 55.97 44.08 69.15 44.08 47.08 66.91 33.9 66.91 55.97"/><polygon class="cls-6" points="83.19 5.38 75.61 1 20.22 32.98 20.22 86.52 27.8 90.9 27.97 90.9 83.35 58.92 83.35 5.38 83.19 5.38"/><path class="cls-7" d="M64.1,87c2,8,4.4,19.5,4.4,29.84,0,4.48,6.3,8.12,14.07,8.12s14.06-3.64,14.06-8.12C96.63,106.54,99,95.05,101,87"/><path class="cls-8" d="M82.57,69.27a33.13,33.13,0,0,0-14.49,3.1l-8-4.62-5.85,3.38,8.86,4.67a11.08,11.08,0,0,0-3.74,8c0,8.14,10.2,14.52,23.22,14.52s23.21-6.38,23.21-14.52S95.58,69.27,82.57,69.27Zm0,23.75C72,93,64.64,88.16,64.64,83.79S72,74.56,82.57,74.56s17.92,4.87,17.92,9.23S93.13,93,82.57,93Z"/><path class="cls-6" d="M54.23,71.13l8.86,4.67a11.08,11.08,0,0,0-3.74,8c0,8.14,10.2,14.52,23.22,14.52s23.21-6.38,23.21-14.52S95.58,69.27,82.57,69.27a33.13,33.13,0,0,0-14.49,3.1l-8-4.62"/><path class="cls-9" d="M82.57,93C72,93,64.64,88.16,64.64,83.79S72,74.56,82.57,74.56s17.92,4.87,17.92,9.23S93.13,93,82.57,93Z"/><rect class="cls-10" width="126" height="126"/></g></g></svg>