<svg xmlns="http://www.w3.org/2000/svg" viewBox="0 0 440 200"><defs><style>.cls-1{fill:#fff;}.cls-2{fill:#f2f4f6;}.cls-3{fill:#d5dae0;}.cls-4,.cls-5,.cls-6{fill:none;}.cls-4{stroke:#b8bfca;stroke-miterlimit:10;}.cls-4,.cls-5{stroke-width:2px;}.cls-5{stroke:#627386;stroke-linecap:round;stroke-linejoin:round;}</style></defs><title>bowling_pins(2x1)</title><g id="Layer_2" data-name="Layer 2"><g id="Illustrations"><path class="cls-1" d="M239.42,4a10.66,10.66,0,0,0-10.66,10.66,10.34,10.34,0,0,0,.43,3h0s3.29,19,.57,31.76S208.64,85.25,225,126.78c1.2,4,7.18,7,14.4,7s13.19-3,14.39-7c16.38-41.53-2-64.62-4.72-77.39s.56-31.76.56-31.76h0A10.66,10.66,0,0,0,239.42,4Z"/><path class="cls-2" d="M249.09,49.39c-2.73-12.77.56-31.76.56-31.76h0a10.69,10.69,0,0,0,.42-3c0-4.4-4.07-8.48-3.11-7.52a10.64,10.64,0,0,0-7.68,13.29h0s3.3,19,.57,31.76-21.1,35.86-4.73,77.39a8,8,0,0,0,3.5,4.15l.81,0c7.21,0,13.19-3,14.39-7C270.19,85.25,251.81,62.16,249.09,49.39Z"/><path class="cls-2" d="M248.83,48.08a55.92,55.92,0,0,1-.69-6.11c-1.39,1.42-4.5,2.78-8.72,2.78s-7.34-1.36-8.73-2.78a55.92,55.92,0,0,1-.69,6.11,22,22,0,0,0,18.83,0Z"/><path class="cls-3" d="M240.21,50.18a20.32,20.32,0,0,0,8.62-2.1h0c-.17-1-.3-1.92-.42-2.92,0,0,0-.1,0-.16-.11-1-.2-2-.26-3-1.23,1.26-3.83,2.47-7.35,2.73C240.68,46.57,240.49,48.42,240.21,50.18Z"/><path class="cls-4" d="M248.83,48.08a55.92,55.92,0,0,1-.69-6.11c-1.39,1.42-4.5,2.78-8.72,2.78s-7.34-1.36-8.73-2.78a55.92,55.92,0,0,1-.69,6.11,22,22,0,0,0,18.83,0Z"/><path class="cls-5" d="M239.42,4a10.66,10.66,0,0,0-10.66,10.66,10.34,10.34,0,0,0,.43,3h0s3.29,19,.57,31.76S208.64,85.25,225,126.78c1.2,4,7.18,7,14.4,7s13.19-3,14.39-7c16.38-41.53-2-64.62-4.72-77.39s.56-31.76.56-31.76h0A10.66,10.66,0,0,0,239.42,4Z"/><path class="cls-1" d="M202.76,25.17a10.66,10.66,0,0,0-10.23,13.62h0s3.29,19,.56,31.76-21.1,35.86-4.73,77.39c1.21,4,7.19,7,14.4,7s13.2-3,14.4-7c16.38-41.53-2-64.62-4.73-77.39s.57-31.76.57-31.76h0a10.34,10.34,0,0,0,.43-3A10.66,10.66,0,0,0,202.76,25.17Z"/><path class="cls-2" d="M212.43,70.55c-2.72-12.77.57-31.76.57-31.76h0a10.34,10.34,0,0,0,.43-3c0-4.4-4.07-8.48-3.11-7.52a10.6,10.6,0,0,0-7.68,13.29h0s3.3,19,.57,31.76-21.1,35.86-4.73,77.39a7.93,7.93,0,0,0,3.5,4.15l.8,0c7.22,0,13.2-3,14.4-7C233.54,106.41,215.16,83.32,212.43,70.55Z"/><path class="cls-2" d="M212.18,69.24a55.92,55.92,0,0,1-.69-6.11c-1.39,1.42-4.5,2.78-8.73,2.78s-7.33-1.36-8.72-2.78a55.92,55.92,0,0,1-.69,6.11,22,22,0,0,0,18.83,0Z"/><path class="cls-3" d="M203.56,71.34a20.32,20.32,0,0,0,8.62-2.1h0c-.17-1-.3-1.93-.42-2.93,0,0,0-.1,0-.16-.11-1-.2-2-.26-3-1.23,1.26-3.83,2.47-7.35,2.73C204,67.73,203.84,69.58,203.56,71.34Z"/><path class="cls-4" d="M212.18,69.24a55.92,55.92,0,0,1-.69-6.11c-1.39,1.42-4.5,2.78-8.73,2.78s-7.33-1.36-8.72-2.78a55.92,55.92,0,0,1-.69,6.11,22,22,0,0,0,18.83,0Z"/><path class="cls-5" d="M202.76,25.17a10.66,10.66,0,0,0-10.23,13.62h0s3.29,19,.56,31.76-21.1,35.86-4.73,77.39c1.21,4,7.19,7,14.4,7s13.2-3,14.4-7c16.38-41.53-2-64.62-4.73-77.39s.57-31.76.57-31.76h0a10.34,10.34,0,0,0,.43-3A10.66,10.66,0,0,0,202.76,25.17Z"/><path class="cls-1" d="M166.11,46.34A10.65,10.65,0,0,0,155.88,60h0s3.29,19,.56,31.76-21.1,35.86-4.73,77.39c1.21,4,7.19,7,14.4,7s13.2-3,14.4-7c16.38-41.53-2-64.62-4.73-77.39s.57-31.76.57-31.76h0a10.34,10.34,0,0,0,.43-3A10.65,10.65,0,0,0,166.11,46.34Z"/><path class="cls-2" d="M175.78,91.71c-2.72-12.77.57-31.76.57-31.76h0a10.34,10.34,0,0,0,.43-3c0-4.4-4.07-8.48-3.11-7.52A10.6,10.6,0,0,0,166,62.76h0s3.29,19,.57,31.76-21.1,35.86-4.73,77.39a8,8,0,0,0,3.49,4.15l.81,0c7.22,0,13.2-3,14.4-7C196.89,127.57,178.51,104.48,175.78,91.71Z"/><path class="cls-2" d="M175.53,90.4a53.56,53.56,0,0,1-.69-6.11c-1.39,1.42-4.5,2.78-8.73,2.78s-7.33-1.36-8.72-2.78a55.92,55.92,0,0,1-.69,6.11,21.87,21.87,0,0,0,18.83,0Z"/><path class="cls-3" d="M166.91,92.5a20.32,20.32,0,0,0,8.62-2.1h0c-.17-1-.31-1.93-.42-2.93a1,1,0,0,0,0-.16c-.1-1-.19-2-.25-3-1.23,1.26-3.83,2.47-7.35,2.73C167.38,88.89,167.19,90.74,166.91,92.5Z"/><path class="cls-4" d="M175.53,90.4a53.56,53.56,0,0,1-.69-6.11c-1.39,1.42-4.5,2.78-8.73,2.78s-7.33-1.36-8.72-2.78a55.92,55.92,0,0,1-.69,6.11,21.87,21.87,0,0,0,18.83,0Z"/><path class="cls-5" d="M166.11,46.34A10.65,10.65,0,0,0,155.88,60h0s3.29,19,.56,31.76-21.1,35.86-4.73,77.39c1.21,4,7.19,7,14.4,7s13.2-3,14.4-7c16.38-41.53-2-64.62-4.73-77.39s.57-31.76.57-31.76h0a10.34,10.34,0,0,0,.43-3A10.65,10.65,0,0,0,166.11,46.34Z"/><path class="cls-1" d="M250.52,38.67a10.62,10.62,0,0,0-10.23,13.61h0s3.29,19,.57,31.76-21.1,35.86-4.73,77.39c1.2,4,7.18,7,14.4,7s13.2-3,14.4-7c16.37-41.53-2-64.62-4.73-77.39s.57-31.76.57-31.76h0a10.65,10.65,0,0,0-10.23-13.61Z"/><path class="cls-2" d="M260.19,84c-2.73-12.77.57-31.76.57-31.76h0a10.69,10.69,0,0,0,.42-3c0-4.4-4.06-8.48-3.11-7.52a10.64,10.64,0,0,0-7.68,13.29h0s3.29,19,.56,31.76-21.1,35.86-4.73,77.39a8,8,0,0,0,3.5,4.15l.81,0c7.21,0,13.2-3,14.4-7C281.29,119.9,262.91,96.81,260.19,84Z"/><path class="cls-2" d="M259.93,82.73a53.59,53.59,0,0,1-.68-6.11c-1.4,1.43-4.5,2.78-8.73,2.78s-7.34-1.35-8.73-2.78a51.39,51.39,0,0,1-.69,6.11,21.87,21.87,0,0,0,18.83,0Z"/><path class="cls-3" d="M251.31,84.83a20.1,20.1,0,0,0,8.62-2.1h0c-.16-1-.3-1.93-.41-2.93,0,0,0-.1,0-.15-.11-1-.19-2-.25-3-1.24,1.27-3.83,2.47-7.36,2.73A52.85,52.85,0,0,1,251.31,84.83Z"/><path class="cls-4" d="M259.93,82.73a53.59,53.59,0,0,1-.68-6.11c-1.4,1.43-4.5,2.78-8.73,2.78s-7.34-1.35-8.73-2.78a51.39,51.39,0,0,1-.69,6.11,21.87,21.87,0,0,0,18.83,0Z"/><path class="cls-5" d="M250.52,38.67a10.62,10.62,0,0,0-10.23,13.61h0s3.29,19,.57,31.76-21.1,35.86-4.73,77.39c1.2,4,7.18,7,14.4,7s13.2-3,14.4-7c16.37-41.53-2-64.62-4.73-77.39s.57-31.76.57-31.76h0a10.65,10.65,0,0,0-10.23-13.61Z"/><path class="cls-1" d="M213.87,59.83a10.62,10.62,0,0,0-10.23,13.61h0s3.29,19,.57,31.76-21.11,35.86-4.73,77.39c1.2,4,7.18,7,14.4,7s13.19-3,14.4-7c16.37-41.53-2-64.62-4.73-77.39s.56-31.76.56-31.76h0a10.65,10.65,0,0,0-10.23-13.61Z"/><path class="cls-2" d="M223.54,105.2c-2.73-12.77.56-31.76.56-31.76h0a10.69,10.69,0,0,0,.42-3c0-4.39-4.06-8.48-3.11-7.52a10.64,10.64,0,0,0-7.68,13.29h0s3.29,19,.56,31.76-21.1,35.86-4.73,77.39a7.94,7.94,0,0,0,3.5,4.15c.27,0,.53,0,.81,0,7.21,0,13.19-3,14.4-7C244.64,141.06,226.26,118,223.54,105.2Z"/><path class="cls-2" d="M223.28,103.89a55.92,55.92,0,0,1-.69-6.11c-1.39,1.43-4.49,2.79-8.72,2.79s-7.34-1.36-8.73-2.79a51.39,51.39,0,0,1-.69,6.11,21.87,21.87,0,0,0,18.83,0Z"/><path class="cls-3" d="M214.66,106a20.14,20.14,0,0,0,8.62-2.1h0c-.17-1-.3-1.93-.41-2.93a.77.77,0,0,1,0-.15c-.11-1-.2-2-.26-3-1.23,1.27-3.82,2.47-7.35,2.73C215.13,102.39,214.94,104.23,214.66,106Z"/><path class="cls-4" d="M223.28,103.89a55.92,55.92,0,0,1-.69-6.11c-1.39,1.43-4.49,2.79-8.72,2.79s-7.34-1.36-8.73-2.79a51.39,51.39,0,0,1-.69,6.11,21.87,21.87,0,0,0,18.83,0Z"/><path class="cls-5" d="M213.87,59.83a10.62,10.62,0,0,0-10.23,13.61h0s3.29,19,.57,31.76-21.11,35.86-4.73,77.39c1.2,4,7.18,7,14.4,7s13.19-3,14.4-7c16.37-41.53-2-64.62-4.73-77.39s.56-31.76.56-31.76h0a10.65,10.65,0,0,0-10.23-13.61Z"/><path class="cls-1" d="M273.89,66.24a10.65,10.65,0,0,0-10.66,10.65,10.34,10.34,0,0,0,.43,3h0s3.29,19,.57,31.76-21.11,35.86-4.73,77.39c1.2,4,7.18,7,14.4,7s13.19-3,14.4-7c16.37-41.53-2-64.62-4.73-77.39s.56-31.76.56-31.76h0a10.65,10.65,0,0,0-10.23-13.61Z"/><path class="cls-2" d="M283.56,111.61c-2.73-12.77.56-31.76.56-31.76h0a10.69,10.69,0,0,0,.42-3c0-4.39-4.06-8.48-3.11-7.52a10.64,10.64,0,0,0-7.68,13.29h0s3.29,19,.56,31.77-21.1,35.85-4.73,77.38a7.94,7.94,0,0,0,3.5,4.15c.27,0,.53,0,.81,0,7.21,0,13.19-3,14.4-7C304.66,147.47,286.28,124.38,283.56,111.61Z"/><path class="cls-2" d="M283.3,110.3a55.92,55.92,0,0,1-.69-6.11c-1.39,1.43-4.5,2.79-8.72,2.79s-7.34-1.36-8.73-2.79a53.56,53.56,0,0,1-.69,6.11,21.87,21.87,0,0,0,18.83,0Z"/><path class="cls-3" d="M274.68,112.41a20.28,20.28,0,0,0,8.62-2.11h0c-.17-1-.3-1.93-.41-2.93a.77.77,0,0,1,0-.15c-.11-1-.2-2-.26-3-1.23,1.27-3.83,2.47-7.35,2.73C275.15,108.8,275,110.64,274.68,112.41Z"/><path class="cls-4" d="M283.3,110.3a55.92,55.92,0,0,1-.69-6.11c-1.39,1.43-4.5,2.79-8.72,2.79s-7.34-1.36-8.73-2.79a53.56,53.56,0,0,1-.69,6.11,21.87,21.87,0,0,0,18.83,0Z"/><path class="cls-5" d="M273.89,66.24a10.65,10.65,0,0,0-10.66,10.65,10.34,10.34,0,0,0,.43,3h0s3.29,19,.57,31.76-21.11,35.86-4.73,77.39c1.2,4,7.18,7,14.4,7s13.19-3,14.4-7c16.37-41.53-2-64.62-4.73-77.39s.56-31.76.56-31.76h0a10.65,10.65,0,0,0-10.23-13.61Z"/><rect class="cls-6" width="440" height="200"/></g></g></svg>