<svg xmlns="http://www.w3.org/2000/svg" viewBox="0 0 440 200"><defs><style>.cls-1{fill:#fff;}.cls-1,.cls-2,.cls-3,.cls-5,.cls-6{stroke:#b8bfca;}.cls-1,.cls-10,.cls-2,.cls-3,.cls-4,.cls-5,.cls-6,.cls-7,.cls-8,.cls-9{stroke-linecap:round;stroke-linejoin:round;stroke-width:2px;}.cls-10,.cls-2{fill:#d5dae0;}.cls-3,.cls-8{fill:#f2f4f6;}.cls-11,.cls-4,.cls-5,.cls-6,.cls-7{fill:none;}.cls-4{stroke:#627386;}.cls-6{stroke-dasharray:4.03 12.09;}.cls-7{stroke:#d5dae0;}.cls-10,.cls-8,.cls-9{stroke:#fff;}.cls-9{fill:#b8bfca;}</style></defs><title>building_6(1x1)</title><g id="Layer_2" data-name="Layer 2"><g id="Illustrations"><polygon class="cls-1" points="269 44.36 220 72.65 171 44.36 220 16.07 269 44.36"/><polygon class="cls-2" points="220 72.65 220 195.27 269 166.98 269 44.36 220 72.65"/><polygon class="cls-3" points="220 72.65 220 195.27 171 166.98 171 44.36 220 72.65"/><polygon class="cls-4" points="220 16.07 171 44.36 171 166.98 220 195.27 269 166.98 269 44.36 220 16.07"/><line class="cls-5" x1="260.18" y1="65.53" x2="256.72" y2="67.53"/><line class="cls-6" x1="246.25" y1="73.58" x2="237.52" y2="78.61"/><line class="cls-5" x1="232.28" y1="81.64" x2="228.82" y2="83.64"/><line class="cls-5" x1="260.18" y1="80.61" x2="256.72" y2="82.61"/><line class="cls-6" x1="246.25" y1="88.65" x2="237.52" y2="93.69"/><line class="cls-5" x1="232.28" y1="96.71" x2="228.82" y2="98.71"/><line class="cls-5" x1="260.18" y1="95.69" x2="256.72" y2="97.69"/><line class="cls-6" x1="246.25" y1="103.73" x2="237.52" y2="108.77"/><line class="cls-5" x1="232.28" y1="111.79" x2="228.82" y2="113.79"/><line class="cls-5" x1="260.18" y1="110.76" x2="256.72" y2="112.76"/><line class="cls-6" x1="246.25" y1="118.81" x2="237.52" y2="123.84"/><line class="cls-5" x1="232.28" y1="126.87" x2="228.82" y2="128.87"/><line class="cls-5" x1="260.18" y1="125.84" x2="256.72" y2="127.84"/><line class="cls-6" x1="246.25" y1="133.88" x2="237.52" y2="138.92"/><line class="cls-5" x1="232.28" y1="141.94" x2="228.82" y2="143.94"/><line class="cls-5" x1="260.18" y1="140.92" x2="256.72" y2="142.92"/><line class="cls-6" x1="246.25" y1="148.96" x2="237.52" y2="154"/><line class="cls-5" x1="232.28" y1="157.02" x2="228.82" y2="159.02"/><line class="cls-5" x1="260.18" y1="155.99" x2="256.72" y2="157.99"/><line class="cls-6" x1="246.25" y1="164.04" x2="237.52" y2="169.08"/><line class="cls-5" x1="232.28" y1="172.1" x2="228.82" y2="174.1"/><polygon class="cls-7" points="254 44.36 220 63.99 186 44.36 220 24.73 254 44.36"/><polygon class="cls-8" points="254 24.36 220 43.99 186 24.36 220 4.73 254 24.36"/><polygon class="cls-5" points="234.73 24.36 220 32.87 205.27 24.36 220 15.86 234.73 24.36"/><polygon class="cls-9" points="254 24.36 254 44.36 220 63.99 220 43.99 254 24.36"/><polygon class="cls-10" points="186 24.36 186 44.36 220 63.99 220 43.99 186 24.36"/><line class="cls-5" x1="179.82" y1="65.53" x2="183.28" y2="67.53"/><line class="cls-6" x1="193.76" y1="73.58" x2="202.48" y2="78.61"/><line class="cls-5" x1="207.72" y1="81.64" x2="211.18" y2="83.64"/><line class="cls-5" x1="179.82" y1="80.61" x2="183.28" y2="82.61"/><line class="cls-6" x1="193.76" y1="88.65" x2="202.48" y2="93.69"/><line class="cls-5" x1="207.72" y1="96.71" x2="211.18" y2="98.71"/><line class="cls-5" x1="179.82" y1="95.69" x2="183.28" y2="97.69"/><line class="cls-6" x1="193.76" y1="103.73" x2="202.48" y2="108.77"/><line class="cls-5" x1="207.72" y1="111.79" x2="211.18" y2="113.79"/><line class="cls-5" x1="179.82" y1="110.76" x2="183.28" y2="112.76"/><line class="cls-6" x1="193.76" y1="118.81" x2="202.48" y2="123.84"/><line class="cls-5" x1="207.72" y1="126.87" x2="211.18" y2="128.87"/><line class="cls-5" x1="179.82" y1="125.84" x2="183.28" y2="127.84"/><line class="cls-6" x1="193.76" y1="133.88" x2="202.48" y2="138.92"/><line class="cls-5" x1="207.72" y1="141.94" x2="211.18" y2="143.94"/><line class="cls-5" x1="179.82" y1="140.92" x2="183.28" y2="142.92"/><line class="cls-6" x1="193.76" y1="148.96" x2="202.48" y2="154"/><line class="cls-5" x1="207.72" y1="157.02" x2="211.18" y2="159.02"/><line class="cls-5" x1="179.82" y1="155.99" x2="183.28" y2="157.99"/><line class="cls-6" x1="193.76" y1="164.04" x2="202.48" y2="169.08"/><line class="cls-5" x1="207.72" y1="172.1" x2="211.18" y2="174.1"/><polygon class="cls-4" points="220 4.73 186 24.36 186 44.36 220 63.99 254 44.36 254 24.36 220 4.73"/><rect class="cls-11" width="440" height="200"/></g></g></svg>