<svg xmlns="http://www.w3.org/2000/svg" viewBox="0 0 1520 2201"><defs><style>.cls-1{fill:#627386;}.cls-1,.cls-5{stroke:#b8bfca;}.cls-1,.cls-2,.cls-3,.cls-4,.cls-5,.cls-6{stroke-linecap:round;stroke-linejoin:round;stroke-width:2px;}.cls-2,.cls-5,.cls-6,.cls-7{fill:none;}.cls-2{stroke:#627386;}.cls-3{fill:#d5dae0;}.cls-3,.cls-4{stroke:#fff;}.cls-4{fill:#f2f4f6;}.cls-6{stroke:#d5dae0;}</style></defs><title>building_2(2x1)</title><g id="Layer_2" data-name="Layer 2"><g id="Illustrations"><line class="cls-1" x1="269" y1="689.06" x2="220" y2="717.35"/><polygon class="cls-2" points="227.39 456.77 220 452.5 212.61 456.77 171 508.12 220 536.41 269 508.12 227.39 456.77"/><polygon class="cls-3" points="1300 117.65 1300 179.57 1300 179.57 1331.55 161.35 1363.1 143.14 1363.1 117.6 1363.1 81.22 1331.55 56.86 1300 117.65"/><line class="cls-2" x1="1268.45" y1="99.43" x2="1268.45" y2="161.35"/><polygon class="cls-4" points="1300 117.65 1300 179.57 1300 179.57 1268.45 161.35 1236.9 143.14 1236.9 143.14 1236.9 81.22 1268.45 99.43 1300 117.65"/><polygon class="cls-3" points="1331.55 56.86 1268.45 20.43 1236.9 81.22 1300 117.65 1331.55 56.86"/><line class="cls-5" x1="1339.62" y1="94.77" x2="1323.48" y2="104.09"/><line class="cls-5" x1="1331.55" y1="126.37" x2="1331.55" y2="146.41"/><line class="cls-6" x1="1268.47" y1="123.36" x2="1268.47" y2="149.82"/><polygon class="cls-2" points="1331.55 56.86 1268.45 20.43 1236.9 81.22 1236.9 143.14 1268.45 161.35 1300 179.57 1331.55 161.35 1363.1 143.14 1363.1 117.6 1363.1 81.22 1331.55 56.86"/><rect class="cls-7" x="1080" width="440" height="200"/><rect class="cls-7" x="1080" y="1000" width="440" height="200"/><rect class="cls-7" x="1080" y="500" width="440" height="200"/><rect class="cls-7" y="2001" width="440" height="200"/></g></g></svg>