<svg xmlns="http://www.w3.org/2000/svg" viewBox="0 0 1520 2201"><defs><style>.cls-1,.cls-4,.cls-6,.cls-7,.cls-8{fill:none;}.cls-2{fill:#d5dae0;}.cls-3{fill:#f2f4f6;}.cls-4,.cls-5{stroke:#fff;}.cls-4,.cls-5,.cls-6,.cls-7,.cls-8{stroke-linecap:round;stroke-linejoin:round;stroke-width:2px;}.cls-5{fill:#b8bfca;}.cls-6{stroke:#d5dae0;}.cls-7{stroke:#f2f4f6;}.cls-8{stroke:#627386;}</style></defs><title>building_4(2x1)</title><g id="Layer_2" data-name="Layer 2"><g id="Illustrations"><rect class="cls-1" x="1080" width="440" height="200"/><rect class="cls-1" x="1080" y="1000" width="440" height="200"/><path class="cls-2" d="M1300,525.12,1274.34,540l-15.55,9c-7.56,4.36-13.69,16.07-13.69,26.15l.06,19V643.2L1300,674.88,1354.9,556.8Z"/><path class="cls-3" d="M1330.75,607.13l24.15-50.33L1300,525.12,1274.34,540l-15.55,9c-3.81,2.2-7.25,6.26-9.73,11Z"/><path class="cls-4" d="M1300,525.12,1274.34,540l-15.55,9c-7.56,4.36-13.69,16.07-13.69,26.15l.06,19V643.2L1300,674.88,1354.9,556.8Z"/><path class="cls-5" d="M1313.66,580.61C1306.1,585,1300,596.68,1300,606.76l.06,19v49.12l54.87-31.68V556.8l-25.69,14.83Z"/><line class="cls-6" x1="1312.34" y1="642.22" x2="1341.95" y2="625.12"/><ellipse class="cls-2" cx="1316.85" cy="602.28" rx="10.75" ry="6.08" transform="translate(247.05 1578.16) rotate(-66.95)"/><line class="cls-7" x1="1287.34" y1="642.07" x2="1257.73" y2="624.97"/><line class="cls-7" x1="1287.34" y1="626.07" x2="1257.73" y2="608.97"/><line class="cls-7" x1="1287.34" y1="610.07" x2="1257.73" y2="592.97"/><path class="cls-8" d="M1354.9,556.8,1300,525.12,1274.34,540l-15.55,9c-7.56,4.36-13.69,16.07-13.69,26.15l.06,19V643.2L1300,674.88l54.87-31.68V556.8Z"/><polygon class="cls-2" points="1284.5 552.59 1307.32 565.76 1324.47 555.86 1301.65 542.69 1284.5 552.59"/><rect class="cls-1" x="1080" y="500" width="440" height="200"/><rect class="cls-1" y="2001" width="440" height="200"/></g></g></svg>