<svg xmlns="http://www.w3.org/2000/svg" viewBox="0 0 440 200"><defs><style>.cls-1,.cls-5{fill:#f2f4f6;}.cls-1,.cls-3,.cls-4,.cls-6{stroke:#b8bfca;}.cls-1,.cls-2,.cls-3,.cls-4,.cls-5,.cls-6,.cls-7{stroke-linecap:round;stroke-linejoin:round;stroke-width:2px;}.cls-2,.cls-6,.cls-7,.cls-8{fill:none;}.cls-2{stroke:#d5dae0;}.cls-3{fill:#fff;}.cls-4{fill:#d5dae0;}.cls-5,.cls-7{stroke:#627386;}</style></defs><title>building_1(2x1)</title><g id="Layer_2" data-name="Layer 2"><g id="Illustrations"><polygon class="cls-1" points="201.52 62.67 201.52 69.12 201.52 137.33 183.05 126.67 164.57 116 164.57 47.78 164.57 41.33 183.05 52 201.52 62.67"/><polygon class="cls-2" points="172.83 68.06 172.83 71.62 172.83 120.76 183.05 126.67 193.27 132.57 193.27 83.43 193.27 79.86 183.05 73.96 172.83 68.06"/><polygon class="cls-3" points="201.52 20 164.57 41.33 201.52 62.67 164.57 84 201.52 105.34 275.43 62.67 201.52 20"/><polygon class="cls-4" points="201.52 105.34 201.52 139.44 201.52 111.79 201.52 145.89 201.52 180 220 169.33 238.48 158.67 256.95 148 275.43 137.33 275.43 103.22 275.43 130.88 275.43 96.78 275.43 62.67 256.95 73.34 238.48 84 220 94.67 201.52 105.34"/><polygon class="cls-5" points="201.52 105.34 201.52 111.79 201.52 180 183.05 169.33 164.57 158.67 164.57 90.45 164.57 84 183.05 94.67 201.52 105.34"/><polygon class="cls-2" points="172.83 110.72 172.83 114.29 172.83 163.43 183.05 169.33 193.27 175.24 193.27 126.09 193.27 122.53 183.05 116.63 172.83 110.72"/><polygon class="cls-6" points="201.52 105.34 201.52 180 164.57 158.67 164.57 84 201.52 105.34"/><line class="cls-6" x1="220" y1="109.6" x2="220" y2="154.4"/><line class="cls-6" x1="238.48" y1="98.94" x2="238.48" y2="143.73"/><line class="cls-6" x1="256.95" y1="88.27" x2="256.95" y2="133.07"/><ellipse class="cls-2" cx="201.52" cy="41.33" rx="9.05" ry="5.22"/><ellipse class="cls-2" cx="238.48" cy="62.67" rx="9.05" ry="5.22"/><ellipse class="cls-2" cx="201.52" cy="84" rx="9.05" ry="5.22"/><polygon class="cls-7" points="275.43 62.67 201.52 20 164.57 41.33 164.57 47.78 164.57 84 164.57 90.45 164.57 116 164.57 158.67 172.83 163.43 172.83 163.43 176.66 165.64 183.05 169.33 201.52 180 220 169.33 238.48 158.67 256.95 148 275.43 137.33 275.43 130.88 275.43 103.22 275.43 96.78 275.43 62.67 275.43 62.67"/><rect class="cls-8" width="440" height="200"/></g></g></svg>