<svg xmlns="http://www.w3.org/2000/svg" viewBox="0 0 440 200"><defs><style>.cls-1{fill:#d5dae0;}.cls-2,.cls-4{fill:#f2f4f6;}.cls-3{fill:#fff;}.cls-3,.cls-4,.cls-5{stroke:#b8bfca;}.cls-3,.cls-4,.cls-5,.cls-6{stroke-linecap:round;stroke-linejoin:round;stroke-width:2px;}.cls-5,.cls-6,.cls-7{fill:none;}.cls-6{stroke:#627386;}</style></defs><title>building_4(1x1)</title><g id="Layer_2" data-name="Layer 2"><g id="Illustrations"><path class="cls-1" d="M286.78,51.7v82.88c0,8.12-5.35,16.24-16.06,22.42L247,170.73c-21.41,12.36-56.26,12.36-77.67,0-10.71-6.19-16.06-14.31-16.06-22.43h0V65.42Z"/><path class="cls-2" d="M208,180c-14,0-28-3.12-38.67-9.27s-16.06-14.31-16.06-22.43V65.42L208,59.79Z"/><path class="cls-3" d="M193.05,29.27,169.28,43c-21.42,12.36-21.42,32.48,0,44.84s56.26,12.37,77.67,0l23.77-13.72c21.42-12.37,21.42-32.48,0-44.85S214.46,16.91,193.05,29.27Z"/><path class="cls-4" d="M193.43,56.1c-8.5,4.91-8.5,12.89,0,17.8s22.33,4.91,30.83,0L246.57,61c8.5-4.91,8.5-12.9,0-17.8s-22.33-4.91-30.83,0Z"/><path class="cls-5" d="M270.72,132.62,247,146.34c-10.7,6.19-24.77,9.28-38.83,9.28s-28.13-3.09-38.84-9.28"/><path class="cls-5" d="M270.72,102.37,247,116.09c-10.7,6.18-24.77,9.28-38.83,9.28s-28.13-3.1-38.84-9.28"/><path class="cls-6" d="M270.72,29.27c-21.41-12.36-56.26-12.36-77.67,0L169.28,43c-10.71,6.18-16.06,14.3-16.06,22.42h0V148.3c0,8.12,5.35,16.24,16.06,22.43.67.38,1.35.76,2,1.12l1,.48,1.13.57,1.33.59.85.38,1.6.64.65.26,1.76.64.54.19c.66.23,1.33.44,2,.65l.35.11c.72.22,1.45.42,2.18.62l.23.07c.77.2,1.54.4,2.32.58l.12,0c19.86,4.66,43.51,2.35,59.59-6.93L270.72,157c10.71-6.18,16.06-14.3,16.06-22.42V51.7C286.78,43.58,281.43,35.46,270.72,29.27Z"/><rect class="cls-7" width="440" height="200"/></g></g></svg>