<svg xmlns="http://www.w3.org/2000/svg" viewBox="0 0 440 200"><defs><style>.cls-1{fill:#fff;}.cls-2{fill:#d5dae0;}.cls-2,.cls-3,.cls-4{stroke:#b8bfca;}.cls-2,.cls-3,.cls-4,.cls-5{stroke-linecap:round;stroke-linejoin:round;stroke-width:2px;}.cls-3,.cls-5,.cls-6{fill:none;}.cls-4{fill:#f2f4f6;}.cls-5{stroke:#627386;}</style></defs><title>building_5(1x1)</title><g id="Layer_2" data-name="Layer 2"><g id="Illustrations"><polygon class="cls-1" points="282.94 75.71 267.21 61.78 251.47 47.86 235.74 33.93 220 20 204.26 29.09 188.53 38.17 172.79 47.26 157.06 56.34 157.06 56.34 157.06 143.66 220 180 282.94 143.66 282.94 75.71 282.94 75.71"/><polygon class="cls-2" points="220 112.05 220 180 282.94 143.66 282.94 75.71 220 112.05"/><polygon class="cls-3" points="157.06 56.34 172.79 70.27 188.53 84.2 204.26 98.13 220 112.05 235.74 102.97 251.47 93.88 267.21 84.8 282.94 75.71 267.21 61.78 251.47 47.86 235.74 33.93 220 20 204.26 29.09 188.53 38.17 172.79 47.26 157.06 56.34"/><polygon class="cls-4" points="220 112.05 220 180 157.06 143.66 157.06 56.34 220 112.05"/><polygon class="cls-3" points="196.56 121.57 196.56 141.72 180.5 132.44 180.5 112.67 196.56 121.57 196.56 121.57"/><line class="cls-3" x1="172.79" y1="47.26" x2="235.74" y2="102.97"/><line class="cls-3" x1="188.53" y1="38.17" x2="251.47" y2="93.88"/><line class="cls-3" x1="204.26" y1="29.09" x2="267.21" y2="84.8"/><line class="cls-3" x1="220" y1="146.03" x2="282.95" y2="109.69"/><polygon class="cls-5" points="282.94 75.71 267.21 61.78 251.47 47.86 235.74 33.93 220 20 204.26 29.09 188.53 38.17 172.79 47.26 157.06 56.34 157.06 56.34 157.06 143.66 220 180 282.94 143.66 282.94 75.71 282.94 75.71"/><rect class="cls-6" width="440" height="200"/></g></g></svg>