<svg xmlns="http://www.w3.org/2000/svg" viewBox="0 0 1582.08 3141.67"><defs><style>.cls-1{fill:#f2f4f6;}.cls-2,.cls-4{fill:#d5dae0;}.cls-3{fill:#b8bfca;}.cls-3,.cls-4{stroke:#fff;}.cls-3,.cls-4,.cls-5,.cls-6{stroke-linecap:round;stroke-linejoin:round;stroke-width:2px;}.cls-5{fill:#627386;stroke:#b8bfca;}.cls-6,.cls-7{fill:none;}.cls-6{stroke:#627386;}.cls-8{fill:#ffde85;}</style></defs><title>building_3(2x1)</title><g id="Layer_2" data-name="Layer 2"><g id="Illustrations"><polygon class="cls-1" points="227.39 6.77 220 11.03 212.61 6.77 220 2.5 227.39 6.77"/><polygon class="cls-1" points="220 86.41 171 58.12 171 269.21 220 297.5 269 269.21 269 58.12 220 86.41"/><polygon class="cls-2" points="269 269.21 269 58.12 220 86.41 220 297.5 269 269.21"/><polygon class="cls-3" points="227.39 6.77 269 58.12 220 86.41 220 11.03 227.39 6.77"/><polygon class="cls-4" points="212.61 6.77 171 58.12 220 86.41 220 11.03 212.61 6.77"/><line class="cls-5" x1="220" y1="297.5" x2="220" y2="86.41"/><line class="cls-5" x1="220" y1="146.73" x2="171" y2="118.44"/><line class="cls-5" x1="220" y1="116.57" x2="171" y2="88.28"/><line class="cls-5" x1="269" y1="118.44" x2="220" y2="146.73"/><line class="cls-5" x1="269" y1="88.28" x2="220" y2="116.57"/><line class="cls-5" x1="220" y1="176.89" x2="171" y2="148.6"/><line class="cls-5" x1="269" y1="148.6" x2="220" y2="176.89"/><line class="cls-5" x1="220" y1="207.04" x2="171" y2="178.75"/><line class="cls-5" x1="269" y1="178.75" x2="220" y2="207.04"/><line class="cls-5" x1="220" y1="237.19" x2="171" y2="208.9"/><line class="cls-5" x1="269" y1="208.9" x2="220" y2="237.19"/><line class="cls-5" x1="220" y1="267.35" x2="171" y2="239.06"/><line class="cls-5" x1="269" y1="239.06" x2="220" y2="267.35"/><polygon class="cls-6" points="220 86.41 171 58.12 171 269.21 220 297.5 269 269.21 269 58.12 220 86.41"/><polygon class="cls-6" points="227.39 6.77 220 2.5 212.61 6.77 171 58.12 220 86.41 269 58.12 227.39 6.77"/><rect class="cls-7" width="440" height="300"/><path class="cls-8" d="M1550,3131.72a.56.56,0,0,1-.3-.08l-4.32-2.49c-.14-.08-.2-.2-.13-.3a.56.56,0,0,1,.49-.19l14.53.72c.32,0,.59-.14.57-.33l-1.19-8.4c0-.1,0-.21.2-.26a.71.71,0,0,1,.62,0l4.16,2.4a.23.23,0,0,1,.14.17l1.36,9.12,0,.08c0,.15-.18.26-.43.26h-.16Z"/><path class="cls-8" d="M1568.45,3132.32c0,.15.22.26.48.28l12.6.67a.78.78,0,0,0,.46-.12c.14-.11.11-.27-.06-.36l-4.15-2.4a.7.7,0,0,0-.3-.08l-8.77-.52c-.32,0-.59.14-.56.33Z"/><path class="cls-8" d="M1565.93,3133.75c.25,0,.46.13.48.28l1.28,7.32a.28.28,0,0,1-.2.27.77.77,0,0,1-.63,0l-4.16-2.4a.23.23,0,0,1-.14-.17l-.8-5.08c0-.18.24-.34.56-.32Z"/></g></g></svg>