<svg xmlns="http://www.w3.org/2000/svg" viewBox="0 0 126 126"><defs><style>.cls-1{fill:#b8bfca;}.cls-1,.cls-3,.cls-7,.cls-8{stroke:#627386;}.cls-1,.cls-2,.cls-3,.cls-4,.cls-5,.cls-6,.cls-7,.cls-8{stroke-linecap:round;stroke-linejoin:round;stroke-width:2px;}.cls-2{fill:#fff;}.cls-2,.cls-4,.cls-5,.cls-6{stroke:#b8bfca;}.cls-3,.cls-6{fill:#f2f4f6;}.cls-4,.cls-7,.cls-9{fill:none;}.cls-5,.cls-8{fill:#d5dae0;}</style></defs><title>bus(1x1)</title><g id="Layer_2" data-name="Layer 2"><g id="Illustrations"><path class="cls-1" d="M81.49,110.15l-2.94-6.22,3.62-2.09h0a2.92,2.92,0,0,1,3,.24c2.55,1.46,4.61,5.4,4.61,8.79,0,1.85-.62,3.15-1.6,3.72h0l-3.62,2.09-3.08-6.53Z"/><path class="cls-1" d="M22.63,76.17,19.7,70l3.61-2.09h0a2.92,2.92,0,0,1,3,.23c2.55,1.47,4.61,5.41,4.61,8.8,0,1.85-.62,3.15-1.6,3.71h0l-3.62,2.09-3.08-6.53Z"/><path class="cls-1" d="M9.69,68.7,6.75,62.48l3.62-2.09h0a3,3,0,0,1,3,.24C15.92,62.1,18,66,18,69.42c0,1.86-.61,3.16-1.59,3.72h0l-3.61,2.09L9.7,68.71Z"/><path class="cls-2" d="M115.75,59.73,27.88,9,1,24.52l97.12,92.42L125,101.42v-24C125,70.59,120.86,62.68,115.75,59.73Z"/><polygon class="cls-3" points="98.12 116.94 125 101.42 125 83.82 86.61 105.99 98.12 116.94"/><path class="cls-4" d="M115.75,59.73,27.88,9,1,24.52l97.12,92.42L125,101.42v-24C125,70.59,120.86,62.68,115.75,59.73Z"/><path class="cls-2" d="M98.12,116.94,1,60.87V24.52L88.87,75.25c5.11,3,9.25,10.86,9.25,17.67Z"/><polygon class="cls-5" points="98.12 105.25 98.12 105.25 98.12 105.25 98.12 105.25"/><path class="cls-5" d="M115.75,59.73,88.87,75.25h0c5.11,3,9.25,10.86,9.25,17.67v12.33L125,89.73V77.4C125,70.59,120.86,62.68,115.75,59.73Z"/><path class="cls-6" d="M88.87,75.25,44.93,49.89,1,24.52V36.85A22.77,22.77,0,0,0,3.54,46.8a18.49,18.49,0,0,0,6.71,7.72L54.18,79.89l43.94,25.36V92.92a22.77,22.77,0,0,0-2.54-10A18.62,18.62,0,0,0,88.87,75.25Z"/><line class="cls-4" x1="88.87" y1="75.25" x2="88.87" y2="99.91"/><line class="cls-4" x1="10.25" y1="29.86" x2="10.25" y2="54.52"/><line class="cls-4" x1="49.56" y1="76.84" x2="49.56" y2="52.56"/><path class="cls-2" d="M106,112.4l-7.86,4.54V111.1l4.76-2.75c1.71-1,3.1.06,3.1,2.34Z"/><path class="cls-2" d="M117.14,106l7.86-4.54V95.58l-4.77,2.75a7.45,7.45,0,0,0-3.09,5.91Z"/><path class="cls-7" d="M115.75,59.73,27.88,9,1,24.52V36.85H1v24l97.12,56.07h0l19-11h0l7.86-4.54v-24C125,70.59,120.86,62.68,115.75,59.73Z"/><ellipse class="cls-8" cx="81.57" cy="110.31" rx="4" ry="7.07" transform="translate(-36.68 40.74) rotate(-23.05)"/><ellipse class="cls-8" cx="22.71" cy="76.33" rx="4" ry="7.07" transform="translate(-28.07 14.99) rotate(-23.05)"/><ellipse class="cls-8" cx="9.76" cy="68.86" rx="4" ry="7.07" transform="translate(-26.18 9.32) rotate(-23.05)"/><rect class="cls-9" width="126" height="126"/></g></g></svg>