<svg xmlns="http://www.w3.org/2000/svg" viewBox="0 0 126 126"><defs><style>.cls-1{fill:#b8bfca;}.cls-1,.cls-7,.cls-8{stroke:#627386;}.cls-1,.cls-2,.cls-3,.cls-4,.cls-5,.cls-6,.cls-7,.cls-8{stroke-linecap:round;stroke-linejoin:round;stroke-width:2px;}.cls-2,.cls-3{fill:#f2f4f6;}.cls-2{stroke:#fff;}.cls-3,.cls-4,.cls-5,.cls-6{stroke:#b8bfca;}.cls-4,.cls-8{fill:#d5dae0;}.cls-5{fill:#fff;}.cls-6,.cls-7,.cls-9{fill:none;}</style></defs><title>car(1x1)</title><g id="Layer_2" data-name="Layer 2"><g id="Illustrations"><path class="cls-1" d="M40.1,67.74l-2.49-5.27,3.07-1.76h0a2.51,2.51,0,0,1,2.55.2c2.15,1.24,3.89,4.58,3.89,7.44a3.44,3.44,0,0,1-1.35,3.15h0l-3.06,1.76L40.1,67.75Z"/><path class="cls-1" d="M63.28,81.13,60.8,75.86l3.06-1.77h0a2.49,2.49,0,0,1,2.55.2c2.15,1.24,3.9,4.57,3.9,7.44A3.47,3.47,0,0,1,69,84.89h0L65.9,86.66l-2.61-5.52Z"/><polygon class="cls-2" points="30.65 51.1 48.18 40.98 55.31 45.1 37.78 55.22 30.65 51.1"/><polygon class="cls-3" points="63.75 61.23 66.73 70.82 77.82 79.2 77.82 87.15 30.65 59.92 30.65 51.1 37.78 55.22 42.52 48.97 63.75 61.23"/><polygon class="cls-3" points="66.73 70.82 84.26 60.7 95.35 69.08 77.82 79.2 66.73 70.82"/><polygon class="cls-4" points="77.82 87.15 77.82 79.2 95.35 69.08 95.35 77.03 77.82 87.15"/><polygon class="cls-5" points="66.73 70.82 63.75 61.23 81.28 51.1 84.26 60.7 66.73 70.82"/><polygon class="cls-3" points="42.52 48.97 60.05 38.85 81.28 51.1 63.75 61.23 42.52 48.97"/><line class="cls-6" x1="52.74" y1="54.94" x2="52.74" y2="64.85"/><line class="cls-6" x1="63.36" y1="48.8" x2="59.35" y2="51.12"/><polygon class="cls-7" points="84.26 60.7 81.28 51.1 60.05 38.85 52.27 43.34 48.18 40.98 30.65 51.1 30.65 59.92 77.82 87.15 95.35 77.03 95.35 69.08 84.26 60.7"/><ellipse class="cls-8" cx="63.35" cy="81.26" rx="3.38" ry="5.98" transform="translate(-26.76 31.29) rotate(-23.05)"/><ellipse class="cls-8" cx="40.16" cy="67.87" rx="3.38" ry="5.98" transform="translate(-23.37 21.15) rotate(-23.05)"/><rect class="cls-9" width="126" height="126"/></g></g></svg>