<svg xmlns="http://www.w3.org/2000/svg" viewBox="0 0 1746 2126"><defs><style>.cls-1{fill:#627386;stroke:#b8bfca;}.cls-1,.cls-2,.cls-5{stroke-linecap:round;stroke-linejoin:round;stroke-width:2px;}.cls-2,.cls-5,.cls-6{fill:none;}.cls-2{stroke:#627386;}.cls-3{fill:#f2f4f6;}.cls-4{fill:#fff;}.cls-5{stroke:#d5dae0;}</style></defs><title>cloud_4(1x1)</title><g id="Layer_2" data-name="Layer 2"><g id="Illustrations"><line class="cls-1" x1="388.34" y1="1155.06" x2="339.34" y2="1183.35"/><polygon class="cls-2" points="339.34 1002.41 290.34 974.12 290.34 1185.21 339.34 1213.5 388.34 1185.21 388.34 974.12 339.34 1002.41"/><path class="cls-3" d="M1722,75,1659.4,38.81c-6.17-3.56-15-4.61-22.8-3.17l.78-3.25H1621V48h0c0,3.33,2.2,6.65,6.59,9.19L1639.45,64,1632,63v15.6h0c0,5.53,3.66,11.07,11,15.3,13.85,8,35.82,8.42,50.56,1.3l13.1,7.56c8.78,5.07,23,5.07,31.81,0,4.39-2.54,6.59-5.86,6.59-9.18h0V78Z"/><path class="cls-4" d="M1634.92,71.47a25.79,25.79,0,0,0,8,6.86c13.85,8,35.82,8.43,50.56,1.3l13.1,7.56c8.78,5.08,23,5.08,31.81,0s8.79-13.29,0-18.37l-79-45.61c-8.78-5.07-23-5.07-31.81,0h0c-8.79,5.07-8.79,13.3,0,18.37l13.1,7.56c-9.21,6.35-11.13,15-5.77,22.33"/><path class="cls-2" d="M1745,78c0-3.33-2.2-6.65-6.59-9.19l-79-45.61c-8.78-5.07-23-5.07-31.81,0h0c-4.39,2.54-6.59,5.86-6.59,9.18h0V48c0,3.33,2.2,6.65,6.59,9.19l4.76,2.74A12.68,12.68,0,0,0,1632,63h0v15.6h0c0,5.53,3.66,11.07,11,15.3,13.85,8,35.82,8.42,50.56,1.3l13.1,7.56c8.78,5.07,23,5.07,31.81,0,4.39-2.54,6.59-5.86,6.59-9.18V78Z"/><path class="cls-5" d="M1635,71.57a26,26,0,0,0,8,6.76c13.85,8,35.82,8.43,50.56,1.3l13.1,7.56c8.78,5.08,23,5.08,31.81,0"/><path class="cls-5" d="M1627.59,41.58l13.1,7.56a22.55,22.55,0,0,0-6.54,6.59"/><rect class="cls-6" x="1620" width="126" height="126"/><rect class="cls-6" x="540" y="1500" width="126" height="126"/><rect class="cls-6" y="2000" width="126" height="126"/></g></g></svg>