<svg xmlns="http://www.w3.org/2000/svg" viewBox="0 0 126 126"><defs><style>.cls-1{fill:#f2f4f6;}.cls-2{fill:#fff;}.cls-3,.cls-4,.cls-5{fill:none;}.cls-3{stroke:#627386;}.cls-3,.cls-4{stroke-linecap:round;stroke-linejoin:round;stroke-width:2px;}.cls-4{stroke:#d5dae0;}</style></defs><title>cloud_3(1x1)</title><g id="Layer_2" data-name="Layer 2"><g id="Illustrations"><path class="cls-1" d="M1,32.39,18,33.6l-.36,1.86c7.51-1.16,15.84-.05,21.73,3.35l13.1,7.56c13.81-6.68,34-6.72,47.85-.12L114,47.37V63h0c0,4.94-2.91,9.88-8.73,13.89l2,1.15H125v15.6h0c0,3.32-2.2,6.64-6.59,9.18-8.78,5.07-23,5.07-31.81,0l-79-45.61C3.2,54.64,1,51.32,1,48H1Z"/><path class="cls-2" d="M7.59,23.21h0c-8.79,5.07-8.79,13.3,0,18.37l79,45.61c8.78,5.08,23,5.08,31.81,0s8.79-13.29,0-18.37l-13.1-7.56c12.34-8.5,11.6-21.19-2.25-29.19s-35.82-8.42-50.56-1.3L39.4,23.21C30.62,18.14,16.37,18.14,7.59,23.21Z"/><path class="cls-3" d="M7.59,23.21h0c8.78-5.07,23-5.07,31.81,0l13.1,7.56c14.74-7.12,36.71-6.69,50.56,1.3,7.32,4.23,11,9.77,11,15.3h0V63h0a12.62,12.62,0,0,1-.4,3.1l4.77,2.75C122.8,71.36,125,74.69,125,78v15.6c0,3.32-2.2,6.64-6.59,9.18-8.78,5.07-23,5.07-31.81,0l-79-45.61C3.2,54.64,1,51.32,1,48V32.4C1,29.07,3.2,25.75,7.59,23.21Z"/><path class="cls-4" d="M105.31,61.38a24.69,24.69,0,0,0,5.22-4.73M7.59,41.58l79,45.61c8.78,5.08,23,5.08,31.81,0"/><rect class="cls-5" width="126" height="126"/></g></g></svg>