<svg xmlns="http://www.w3.org/2000/svg" viewBox="0 0 440 200"><defs><style>.cls-1{fill:#fff;}.cls-1,.cls-3{stroke:#627386;}.cls-1,.cls-3,.cls-4{stroke-linecap:round;stroke-linejoin:round;stroke-width:2px;}.cls-2{fill:#f2f4f6;}.cls-3,.cls-4,.cls-5{fill:none;}.cls-4{stroke:#d5dae0;}</style></defs><title>cloud_2(2x1)</title><g id="Layer_2" data-name="Layer 2"><g id="Illustrations"><path class="cls-1" d="M291,62.55h0L263.6,46.75h0c-3.2-1.84-7.37-1.69-11.93,1l-2,1.15L226.22,35.32h0c-5.34-3.08-12.29-2.8-19.9,1.59-15.89,9.18-28.93,33-30.3,54.46l-15,8.68c-10.08,5.82-18.26,21.43-18.26,34.88h0c0,7.35,2.46,12.51,6.33,14.74l0,0,27.36,15.79h0c3.2,1.84,7.38,1.68,11.94-1L279,112.18c10.08-5.82,18.26-21.43,18.26-34.88h0C297.27,70,294.82,64.78,291,62.55Z"/><path class="cls-2" d="M279,63.5l-15,8.68c-1.37-19.92-14.41-28.64-30.3-19.46s-28.93,33-30.3,54.45l-15,8.68c-10.08,5.82-18.25,21.44-18.25,34.88s8.17,19.62,18.25,13.8L279,112.18c10.08-5.82,18.26-21.43,18.26-34.88h0C297.27,63.86,289.09,57.68,279,63.5Z"/><path class="cls-3" d="M291,62.55h0L263.6,46.75h0c-3.2-1.84-7.37-1.69-11.93,1l-2,1.15L226.22,35.32h0c-5.34-3.08-12.29-2.8-19.9,1.59-15.89,9.18-28.93,33-30.3,54.46l-15,8.68c-10.08,5.82-18.26,21.43-18.26,34.88h0c0,7.35,2.46,12.51,6.33,14.74l0,0,27.36,15.79h0c3.2,1.84,7.38,1.68,11.94-1L279,112.18c10.08-5.82,18.26-21.43,18.26-34.88h0C297.27,70,294.82,64.78,291,62.55Z"/><path class="cls-4" d="M279,63.5l-15,8.68c-1.37-19.92-14.41-28.64-30.3-19.46s-28.93,33-30.3,54.45l-15,8.68c-10.08,5.82-18.25,21.44-18.25,34.88"/><rect class="cls-5" width="440" height="200"/></g></g></svg>