<svg xmlns="http://www.w3.org/2000/svg" viewBox="0 0 440 200"><defs><style>.cls-1,.cls-2{fill:#f2f4f6;}.cls-1,.cls-4{stroke:#627386;}.cls-1,.cls-4,.cls-5{stroke-linecap:round;stroke-linejoin:round;stroke-width:2px;}.cls-3{fill:#fff;}.cls-4,.cls-5,.cls-6{fill:none;}.cls-5{stroke:#d5dae0;}</style></defs><title>cloud_1(2x1)</title><g id="Layer_2" data-name="Layer 2"><g id="Illustrations"><path class="cls-1" d="M286.54,106.59l-.14-.18c-.32-.37-.65-.73-1-1.09l-.58-.63q-.43-.43-.87-.84c-.26-.26-.53-.51-.8-.75s-.51-.45-.77-.66-.69-.55-1-.81-.41-.32-.62-.46a20.06,20.06,0,0,0-1.72-1.11l-15-8.68c-.88-13.74-6.52-28.4-14.62-39.59l-.28-.39c-.59-.8-1.19-1.58-1.8-2.35l-.21-.25q-.88-1.09-1.8-2.13a2,2,0,0,1-.19-.22c-.64-.7-1.28-1.38-1.93-2l-.37-.37c-.66-.65-1.32-1.29-2-1.9l-.17-.15c-.64-.56-1.29-1.11-1.94-1.63l-.35-.28c-.68-.53-1.37-1-2.06-1.51l-.42-.28c-.71-.48-1.43-.95-2.16-1.37-1-.54-1.89-1-2.82-1.45A25.36,25.36,0,0,0,226.77,34c-.45-.12-.89-.22-1.33-.31a19.45,19.45,0,0,0-2.56-.36c-.42,0-.84,0-1.25,0A16,16,0,0,0,217,34a14.61,14.61,0,0,0-3.17,1.37h0L190.33,48.86l-2-1.15a16.15,16.15,0,0,0-4.93-1.94,9.83,9.83,0,0,0-7,1h0L149,62.54h0c-3.87,2.23-6.32,7.4-6.32,14.75h0c0,13.45,8.18,29.06,18.26,34.88l90.67,52.35c4.56,2.64,8.74,2.8,11.94,1h0L291,149.7l0,0c3.87-2.23,6.33-7.39,6.33-14.74h0C297.27,125.08,292.86,114.06,286.54,106.59Z"/><path class="cls-2" d="M190.38,49.53c0-.43,0-.67,0-.67l-2-1.15c-4.56-2.64-8.73-2.79-11.93-1h0L149,62.54l0,0c3.2-1.85,7.36-1.69,11.93.94l15,8.68C176.89,59.59,182.42,51.49,190.38,49.53Z"/><path class="cls-3" d="M142.73,77.3h0c0,13.45,8.18,29.06,18.26,34.88l90.67,52.35c10.08,5.82,18.25-.36,18.25-13.8s-8.17-29.06-18.25-34.88l-15-8.68c-1.37-21.5-14.41-45.28-30.3-54.45s-28.93-.46-30.3,19.46L161,63.5C150.91,57.68,142.73,63.86,142.73,77.3Z"/><path class="cls-4" d="M286.54,106.59l-.14-.18c-.32-.37-.65-.73-1-1.09l-.58-.63q-.43-.43-.87-.84c-.26-.26-.53-.51-.8-.75s-.51-.45-.77-.66-.69-.55-1-.81-.41-.32-.62-.46a20.06,20.06,0,0,0-1.72-1.11l-15-8.68c-.88-13.74-6.52-28.4-14.62-39.59l-.28-.39c-.59-.8-1.19-1.58-1.8-2.35l-.21-.25q-.88-1.09-1.8-2.13a2,2,0,0,1-.19-.22c-.64-.7-1.28-1.38-1.93-2l-.37-.37c-.66-.65-1.32-1.29-2-1.9l-.17-.15c-.64-.56-1.29-1.11-1.94-1.63l-.35-.28c-.68-.53-1.37-1-2.06-1.51l-.42-.28c-.71-.48-1.43-.95-2.16-1.37-1-.54-1.89-1-2.82-1.45A25.36,25.36,0,0,0,226.77,34c-.45-.12-.89-.22-1.33-.31a19.45,19.45,0,0,0-2.56-.36c-.42,0-.84,0-1.25,0A16,16,0,0,0,217,34a14.61,14.61,0,0,0-3.17,1.37h0L190.33,48.86l-2-1.15a16.15,16.15,0,0,0-4.93-1.94,9.83,9.83,0,0,0-7,1h0L149,62.54h0c-3.87,2.23-6.32,7.4-6.32,14.75h0c0,13.45,8.18,29.06,18.26,34.88l90.67,52.35c4.56,2.64,8.74,2.8,11.94,1h0L291,149.7l0,0c3.87-2.23,6.33-7.39,6.33-14.74h0C297.27,125.08,292.86,114.06,286.54,106.59Z"/><path class="cls-5" d="M269.91,150.73c0-13.44-8.17-29.06-18.25-34.88l-15-8.68c-1.37-21.5-14.41-45.28-30.3-54.45s-28.93-.46-30.3,19.46L161,63.5"/><rect class="cls-6" width="440" height="200"/></g></g></svg>