<svg xmlns="http://www.w3.org/2000/svg" viewBox="0 0 1746 3207.5"><defs><style>.cls-1,.cls-14,.cls-6{fill:#f2f4f6;}.cls-2,.cls-4,.cls-9{fill:#d5dae0;}.cls-3{fill:#b8bfca;}.cls-19,.cls-3,.cls-4{stroke:#fff;}.cls-10,.cls-11,.cls-12,.cls-13,.cls-14,.cls-19,.cls-20,.cls-3,.cls-4,.cls-5,.cls-6,.cls-7,.cls-8,.cls-9{stroke-linecap:round;stroke-linejoin:round;stroke-width:2px;}.cls-5{fill:#627386;}.cls-5,.cls-6,.cls-8,.cls-9{stroke:#b8bfca;}.cls-13,.cls-15,.cls-19,.cls-20,.cls-7{fill:none;}.cls-14,.cls-7{stroke:#627386;}.cls-10,.cls-8{fill:#fff;}.cls-10,.cls-11,.cls-12{stroke:#91d2fb;}.cls-11{fill:#d3edfd;}.cls-12{fill:#e9f6fe;}.cls-13{stroke:#1b6dc6;}.cls-16{fill:#ffebb6;}.cls-17{fill:#ffde85;}.cls-18{fill:#fff2ce;}.cls-20{stroke:#cc7c09;}</style></defs><title>coins(1x1)</title><g id="Layer_2" data-name="Layer 2"><g id="Illustrations"><polygon class="cls-1" points="346.73 4.27 339.34 8.54 331.95 4.27 339.34 0 346.73 4.27"/><polygon class="cls-1" points="339.34 83.91 290.34 55.62 290.34 266.71 339.34 295 388.34 266.71 388.34 55.62 339.34 83.91"/><polygon class="cls-2" points="388.34 266.71 388.34 55.62 339.34 83.91 339.34 295 388.34 266.71"/><polygon class="cls-3" points="346.73 4.27 388.34 55.62 339.34 83.91 339.34 8.54 346.73 4.27"/><polygon class="cls-4" points="331.95 4.27 290.34 55.62 339.34 83.91 339.34 8.54 331.95 4.27"/><line class="cls-5" x1="339.34" y1="295" x2="339.34" y2="83.91"/><line class="cls-5" x1="388.34" y1="236.56" x2="339.34" y2="264.85"/><polygon class="cls-6" points="554.08 656.7 569.13 665.39 569.13 645.32 554.08 636.63 554.08 656.7"/><polygon class="cls-7" points="569.13 627.94 554.08 636.63 554.08 656.7 569.13 665.39 584.18 656.7 584.18 636.63 569.13 627.94"/><polygon class="cls-8" points="606.76 610.52 591.71 601.83 576.66 610.52 591.71 619.21 606.76 610.52"/><polygon class="cls-9" points="606.76 669.74 591.71 678.43 591.71 619.21 606.76 610.52 606.76 669.74"/><polygon class="cls-6" points="576.66 669.74 591.71 678.43 591.71 619.21 576.66 610.52 576.66 669.74"/><polygon class="cls-7" points="591.71 601.83 576.66 610.52 576.66 669.74 591.71 678.43 606.76 669.74 606.76 610.52 591.71 601.83"/><polygon class="cls-8" points="629.34 643.13 614.29 634.44 599.24 643.13 614.29 651.82 629.34 643.13"/><polygon class="cls-9" points="629.34 682.77 614.29 691.47 614.29 651.82 629.34 643.13 629.34 682.77"/><polygon class="cls-6" points="599.24 682.77 614.29 691.47 614.29 651.82 599.24 643.13 599.24 682.77"/><polygon class="cls-7" points="614.29 634.44 599.24 643.13 599.24 682.77 614.29 691.47 629.34 682.77 629.34 643.13 614.29 634.44"/><polygon class="cls-10" points="651.92 593.19 636.87 584.5 621.82 593.19 636.87 601.88 651.92 593.19"/><polygon class="cls-11" points="636.87 601.88 636.87 601.88 636.87 664.36 636.87 684.43 636.87 704.5 651.92 695.81 651.92 675.74 651.92 623.05 651.92 593.19 651.92 593.19 636.87 601.88"/><polygon class="cls-12" points="621.82 593.19 621.82 593.19 621.82 623.05 621.82 675.74 621.82 695.81 636.87 704.5 636.87 684.43 636.87 664.36 636.87 601.88 636.87 601.88 621.82 593.19"/><polygon class="cls-13" points="636.87 584.5 621.82 593.19 621.82 623.05 621.82 675.74 621.82 695.81 636.87 704.5 651.92 695.81 651.92 675.74 651.92 623.05 651.92 593.19 636.87 584.5"/><path class="cls-14" d="M68.06,660.66v22.07c0,1.61-2.26,2.92-5.06,2.92s-5.06-1.31-5.06-2.92V660.66Z"/><path class="cls-2" d="M68.06,649.06v22.07c0,1.61-2.26,2.92-5.06,2.92s-5.06-1.31-5.06-2.92V649.06Z"/><path class="cls-7" d="M68.06,660.66v22.07c0,1.61-2.26,2.92-5.06,2.92s-5.06-1.31-5.06-2.92V660.66Z"/><path class="cls-14" d="M44.25,655h0l14.22-48.27h0a4.72,4.72,0,0,1,9.06,0h0L81.75,655h0a6.43,6.43,0,0,1,.28,1.85c0,6.07-8.52,11-19,11s-19-4.92-19-11A6.43,6.43,0,0,1,44.25,655Z"/><path class="cls-2" d="M82,656.86a6.43,6.43,0,0,0-.28-1.85h0L67.53,606.74h0l0-.06c-.77-2.48-4.51-1.79-4.51.8v60.37C73.51,667.85,82,662.93,82,656.86Z"/><path class="cls-7" d="M44.25,655h0l14.22-48.27h0a4.72,4.72,0,0,1,9.06,0h0L81.75,655h0a6.43,6.43,0,0,1,.28,1.85c0,6.07-8.52,11-19,11s-19-4.92-19-11A6.43,6.43,0,0,1,44.25,655Z"/><rect class="cls-15" y="581.5" width="126" height="126"/><path class="cls-16" d="M1706.06,3149.83l-.43-.26c-12.5-7.21-32.76-7.21-45.26,0l-.43.26H1651v10.67c0,4.73,3.12,9.46,9.37,13.07,12.5,7.21,32.76,7.21,45.26,0,6.25-3.61,9.37-8.34,9.37-13.07v-10.67Z"/><path class="cls-17" d="M1705.63,3173.57c6.25-3.61,9.37-8.34,9.37-13.07v-10.67h-8.94l-.43-.26c-6.25-3.61-14.44-5.41-22.63-5.41V3179C1691.19,3179,1699.38,3177.17,1705.63,3173.57Z"/><ellipse class="cls-18" cx="1683" cy="3149.83" rx="32" ry="18.48"/><ellipse class="cls-19" cx="1683" cy="3149.83" rx="32" ry="18.48"/><ellipse class="cls-15" cx="1683" cy="3160.5" rx="32" ry="18.48"/><path class="cls-20" d="M1715,3160.5v-10.67h0c0-4.72-3.12-9.45-9.37-13.06-12.5-7.21-32.76-7.21-45.26,0-6.25,3.61-9.37,8.34-9.37,13.06h0v10.67c0,4.73,3.12,9.46,9.37,13.06s14.44,5.42,22.63,5.42c1,0,2,0,3.07-.09a54.69,54.69,0,0,0,6-.67c1-.17,2-.37,2.93-.6a38.91,38.91,0,0,0,10.59-4.06,19.86,19.86,0,0,0,8-7.8A11.45,11.45,0,0,0,1715,3160.5Z"/><path class="cls-17" d="M1669.36,3150.56a.88.88,0,0,1-.3-.08l-4.32-2.5c-.13-.08-.2-.19-.13-.3a.59.59,0,0,1,.5-.18l14.52.72c.33,0,.6-.14.57-.33l-1.19-8.41c0-.1.06-.2.2-.26a.8.8,0,0,1,.63,0l4.16,2.4a.27.27,0,0,1,.14.18l1.36,9.12v.08c0,.14-.18.26-.42.25h-.17Z"/><path class="cls-17" d="M1687.79,3151.15c0,.15.22.27.48.28l12.6.67a.75.75,0,0,0,.46-.11c.14-.12.11-.27-.06-.37l-4.16-2.4a.82.82,0,0,0-.3-.08l-8.76-.51c-.32,0-.59.14-.57.32Z"/><path class="cls-17" d="M1685.27,3152.58c.25,0,.45.13.47.28l1.28,7.32c0,.11,0,.21-.2.27a.78.78,0,0,1-.62,0L1682,3158a.27.27,0,0,1-.14-.18l-.8-5.07c0-.19.24-.34.56-.33Z"/><path class="cls-16" d="M1706.06,3139.17l-.43-.27c-12.5-7.21-32.76-7.21-45.26,0l-.43.27H1651v10.66c0,4.73,3.12,9.46,9.37,13.07,12.5,7.21,32.76,7.21,45.26,0,6.25-3.61,9.37-8.34,9.37-13.07v-10.66Z"/><path class="cls-17" d="M1705.63,3162.9c6.25-3.61,9.37-8.34,9.37-13.07v-10.66h-8.94l-.43-.27c-6.25-3.6-14.44-5.41-22.63-5.41v34.82C1691.19,3168.31,1699.38,3166.51,1705.63,3162.9Z"/><ellipse class="cls-18" cx="1683" cy="3139.17" rx="32" ry="18.48"/><ellipse class="cls-19" cx="1683" cy="3139.17" rx="32" ry="18.48"/><ellipse class="cls-15" cx="1683" cy="3149.83" rx="32" ry="18.48"/><path class="cls-20" d="M1715,3149.83v-10.66h0c0-4.73-3.12-9.46-9.37-13.07-12.5-7.21-32.76-7.21-45.26,0-6.25,3.61-9.37,8.34-9.37,13.07h0v10.66c0,4.73,3.12,9.46,9.37,13.07s14.44,5.41,22.63,5.41c1,0,2,0,3.07-.08a54.69,54.69,0,0,0,6-.68c1-.17,2-.37,2.93-.59a39.23,39.23,0,0,0,10.59-4.06,19.94,19.94,0,0,0,8-7.81A11.42,11.42,0,0,0,1715,3149.83Z"/><path class="cls-17" d="M1669.36,3139.89a.58.58,0,0,1-.3-.08l-4.32-2.49c-.13-.08-.2-.2-.13-.31a.59.59,0,0,1,.5-.18l14.52.72c.33,0,.6-.14.57-.33l-1.19-8.4a.28.28,0,0,1,.2-.27.8.8,0,0,1,.63,0l4.16,2.4a.27.27,0,0,1,.14.18l1.36,9.12v.08c0,.14-.18.26-.42.26h-.17Z"/><path class="cls-17" d="M1687.79,3140.49c0,.14.22.26.48.27l12.6.67a.75.75,0,0,0,.46-.11c.14-.12.11-.27-.06-.36l-4.16-2.4a.56.56,0,0,0-.3-.08l-8.76-.52c-.32,0-.59.14-.57.33Z"/><path class="cls-17" d="M1685.27,3141.92c.25,0,.45.13.47.27l1.28,7.33c0,.1,0,.2-.2.26a.74.74,0,0,1-.62,0l-4.16-2.4a.25.25,0,0,1-.14-.17l-.8-5.08c0-.19.24-.34.56-.33Z"/><path class="cls-16" d="M1706.06,3128.5c-.14-.09-.28-.18-.43-.26-12.5-7.22-32.76-7.22-45.26,0-.15.08-.29.17-.43.26H1651v10.67c0,4.73,3.12,9.46,9.37,13.06,12.5,7.22,32.76,7.22,45.26,0,6.25-3.6,9.37-8.33,9.37-13.06V3128.5Z"/><path class="cls-17" d="M1705.63,3152.23c6.25-3.6,9.37-8.33,9.37-13.06V3128.5h-8.94c-.14-.09-.28-.18-.43-.26-6.25-3.61-14.44-5.41-22.63-5.41v34.81C1691.19,3157.64,1699.38,3155.84,1705.63,3152.23Z"/><ellipse class="cls-18" cx="1683" cy="3128.5" rx="32" ry="18.48"/><ellipse class="cls-19" cx="1683" cy="3128.5" rx="32" ry="18.48"/><ellipse class="cls-15" cx="1683" cy="3139.17" rx="32" ry="18.48"/><path class="cls-20" d="M1715,3139.17V3128.5h0c0-4.73-3.12-9.45-9.37-13.06-12.5-7.22-32.76-7.22-45.26,0-6.25,3.61-9.37,8.33-9.37,13.06h0v10.67c0,4.73,3.12,9.45,9.37,13.06s14.44,5.41,22.63,5.41c1,0,2,0,3.07-.08a52.39,52.39,0,0,0,6-.68c1-.17,2-.36,2.93-.59a38.91,38.91,0,0,0,10.59-4.06,19.86,19.86,0,0,0,8-7.8A11.48,11.48,0,0,0,1715,3139.17Z"/><path class="cls-17" d="M1669.36,3129.23a.88.88,0,0,1-.3-.08l-4.32-2.5c-.13-.08-.2-.2-.13-.3a.56.56,0,0,1,.5-.18l14.52.71c.33,0,.6-.14.57-.32l-1.19-8.41c0-.1.06-.2.2-.26a.76.76,0,0,1,.63,0l4.16,2.4a.25.25,0,0,1,.14.17l1.36,9.12v.09c0,.14-.18.26-.42.25h-.17Z"/><path class="cls-17" d="M1687.79,3129.82c0,.15.22.27.48.28l12.6.67a.69.69,0,0,0,.46-.12c.14-.11.11-.26-.06-.36l-4.16-2.4a.82.82,0,0,0-.3-.08l-8.76-.51c-.32,0-.59.13-.57.32Z"/><path class="cls-17" d="M1685.27,3131.25c.25,0,.45.13.47.28l1.28,7.32c0,.1,0,.21-.2.27a.78.78,0,0,1-.62,0l-4.16-2.4a.27.27,0,0,1-.14-.18l-.8-5.08c0-.18.24-.34.56-.32Z"/><rect class="cls-15" x="1620" y="3081.5" width="126" height="126"/></g></g></svg>