<svg xmlns="http://www.w3.org/2000/svg" viewBox="0 0 126 126"><defs><style>.cls-1,.cls-2,.cls-3,.cls-5{fill:none;}.cls-1,.cls-2,.cls-3,.cls-4{stroke:#b8bfca;stroke-linecap:round;stroke-linejoin:round;stroke-width:2px;}.cls-2{stroke-dasharray:0 5.89;}.cls-3{stroke-dasharray:0 5.83;}.cls-4{fill:#bde4fd;}</style></defs><title>cube_construct_1(1x1)</title><g id="Layer_2" data-name="Layer 2"><g id="Illustrations"><line class="cls-1" x1="51.81" y1="48.16" x2="51.81" y2="48.16"/><line class="cls-2" x1="51.81" y1="42.27" x2="51.81" y2="3.95"/><line class="cls-1" x1="51.81" y1="1" x2="51.81" y2="1"/><line class="cls-1" x1="10.97" y1="79.03" x2="10.97" y2="79.03"/><line class="cls-3" x1="16.8" y1="79.03" x2="89.73" y2="79.03"/><line class="cls-1" x1="92.65" y1="79.03" x2="92.65" y2="79.03"/><line class="cls-1" x1="10.97" y1="24.58" x2="10.97" y2="24.58"/><line class="cls-3" x1="16.8" y1="24.58" x2="89.73" y2="24.58"/><line class="cls-1" x1="92.65" y1="24.58" x2="92.65" y2="24.58"/><polygon class="cls-1" points="92.65 79.03 51.81 102.61 51.81 48.16 92.65 24.58 92.65 79.03"/><polygon class="cls-1" points="10.97 79.03 51.81 102.61 51.81 48.16 10.97 24.58 10.97 79.03"/><line class="cls-4" x1="10.97" y1="123.04" x2="92.65" y2="123.04"/><line class="cls-4" x1="51.81" y1="124.74" x2="51.81" y2="121.33"/><polygon class="cls-4" points="92.65 123.03 90.95 122.05 89.25 121.07 89.25 123.03 89.25 125 90.95 124.02 92.65 123.03"/><polygon class="cls-4" points="10.97 123.03 12.67 124.02 14.37 125 14.37 123.03 14.37 121.07 12.67 122.05 10.97 123.03"/><line class="cls-4" x1="113.07" y1="79.03" x2="113.07" y2="65.42"/><polygon class="cls-4" points="113.07 65.42 112.09 67.12 111.1 68.82 113.07 68.82 115.03 68.82 114.05 67.12 113.07 65.42"/><polygon class="cls-4" points="113.07 79.03 114.05 77.33 115.03 75.63 113.07 75.63 111.1 75.63 112.09 77.33 113.07 79.03"/><polygon class="cls-1" points="92.65 24.58 51.81 1 10.97 24.58 51.81 48.16 92.65 24.58"/><polygon class="cls-1" points="92.65 65.42 51.81 41.84 10.97 65.42 51.81 89 92.65 65.42"/><polygon class="cls-1" points="92.65 79.03 51.81 102.61 51.81 89 92.65 65.42 92.65 79.03"/><polygon class="cls-1" points="10.97 79.03 51.81 102.61 51.81 89 10.97 65.42 10.97 79.03"/><rect class="cls-5" width="126" height="126"/></g></g></svg>