<svg xmlns="http://www.w3.org/2000/svg" viewBox="0 0 126 126"><defs><style>.cls-1{fill:#fff;}.cls-2{fill:#d5dae0;}.cls-2,.cls-3{stroke:#b8bfca;}.cls-2,.cls-3,.cls-4,.cls-5,.cls-6{stroke-linecap:round;stroke-linejoin:round;stroke-width:2px;}.cls-3{fill:#f2f4f6;}.cls-4,.cls-5,.cls-6,.cls-7{fill:none;}.cls-4,.cls-5,.cls-6{stroke:#627386;}.cls-5{stroke-dasharray:0 6.3;}.cls-6{stroke-dasharray:0 6.26;}</style></defs><title>cube_connect_top(1x1)</title><g id="Layer_2" data-name="Layer 2"><g id="Illustrations"><polygon class="cls-1" points="98.98 78.05 63.01 57.22 26.98 77.95 62.95 98.78 98.98 78.05"/><polygon class="cls-2" points="98.96 90.05 62.93 110.78 62.95 98.78 98.98 78.05 98.96 90.05"/><polygon class="cls-3" points="26.96 89.95 62.93 110.78 62.95 98.78 26.98 77.95 26.96 89.95"/><polygon class="cls-4" points="63.01 57.22 26.98 77.95 26.96 89.95 62.93 110.78 98.96 90.05 98.98 78.05 63.01 57.22"/><line class="cls-4" x1="62.99" y1="67.28" x2="62.99" y2="67.28"/><line class="cls-5" x1="62.99" y1="73.58" x2="62.95" y2="95.63"/><line class="cls-4" x1="62.95" y1="98.78" x2="62.95" y2="98.78"/><polygon class="cls-1" points="99.04 36.05 63.07 15.21 27.04 35.95 63.01 56.78 99.04 36.05"/><polygon class="cls-2" points="99.02 48.05 62.99 68.78 63.01 56.78 99.04 36.05 99.02 48.05"/><polygon class="cls-3" points="27.02 47.95 62.99 68.78 63.01 56.78 27.04 35.95 27.02 47.95"/><polygon class="cls-4" points="63.07 15.22 27.04 35.95 27.02 47.95 62.99 68.78 99.02 48.05 99.04 36.05 63.07 15.22"/><line class="cls-4" x1="99.02" y1="48.05" x2="99.02" y2="48.05"/><line class="cls-6" x1="99.01" y1="54.31" x2="98.98" y2="76.22"/><line class="cls-4" x1="98.98" y1="79.35" x2="98.98" y2="79.35"/><line class="cls-4" x1="27.02" y1="47.95" x2="27.02" y2="47.95"/><line class="cls-6" x1="27.01" y1="54.21" x2="26.98" y2="76.12"/><line class="cls-4" x1="26.98" y1="79.25" x2="26.98" y2="79.25"/><rect class="cls-7" width="126" height="126"/></g></g></svg>