<svg xmlns="http://www.w3.org/2000/svg" viewBox="0 0 440 200"><defs><style>.cls-1{fill:#fff;}.cls-1,.cls-2,.cls-3{stroke:#b8bfca;}.cls-1,.cls-2,.cls-3,.cls-4,.cls-5,.cls-7,.cls-8,.cls-9{stroke-linecap:round;stroke-linejoin:round;stroke-width:2px;}.cls-2{fill:#d5dae0;}.cls-3,.cls-6,.cls-8{fill:#f2f4f6;}.cls-10,.cls-4,.cls-5,.cls-7,.cls-9{fill:none;}.cls-4,.cls-7,.cls-8,.cls-9{stroke:#627386;}.cls-5{stroke:#d5dae0;}.cls-7{stroke-dasharray:0 6.09;}.cls-8,.cls-9{stroke-dasharray:0 6;}</style></defs><title>cube_connect_3(2x1)</title><g id="Layer_2" data-name="Layer 2"><g id="Illustrations"><polygon class="cls-1" points="214.9 112.06 199.1 102.93 214.9 93.81 230.7 102.93 214.9 112.06"/><polygon class="cls-2" points="214.9 130.3 214.9 112.06 230.7 102.93 230.7 121.18 214.9 130.3"/><polygon class="cls-3" points="214.9 130.3 214.9 112.06 199.1 102.93 199.1 121.18 214.9 130.3"/><polygon class="cls-4" points="214.9 93.81 199.1 102.93 199.1 121.18 214.9 130.3 230.7 121.18 230.7 102.93 214.9 93.81"/><polygon class="cls-1" points="214.9 93.81 199.1 84.69 214.9 75.57 230.7 84.69 214.9 93.81"/><polygon class="cls-2" points="214.9 112.06 214.9 93.81 230.7 84.69 230.7 102.93 214.9 112.06"/><polygon class="cls-3" points="214.9 112.06 214.9 93.81 199.1 84.69 199.1 102.93 214.9 112.06"/><polygon class="cls-4" points="214.9 75.57 199.1 84.69 199.1 102.93 214.9 112.06 230.7 102.93 230.7 84.69 214.9 75.57"/><polygon class="cls-5" points="214.9 57.32 167.5 84.69 167.5 139.42 214.9 166.79 262.3 139.42 262.3 84.69 214.9 57.32"/><line class="cls-6" x1="256.7" y1="154.43" x2="214.5" y2="130.07"/><line class="cls-4" x1="256.7" y1="154.43" x2="256.7" y2="154.43"/><line class="cls-7" x1="251.43" y1="151.39" x2="217.14" y2="131.59"/><line class="cls-4" x1="214.5" y1="130.07" x2="214.5" y2="130.07"/><line class="cls-6" x1="240.9" y1="163.56" x2="198.7" y2="139.19"/><line class="cls-4" x1="240.9" y1="163.56" x2="240.9" y2="163.56"/><line class="cls-7" x1="235.63" y1="160.51" x2="201.34" y2="140.71"/><line class="cls-4" x1="198.7" y1="139.19" x2="198.7" y2="139.19"/><line class="cls-6" x1="240.9" y1="181.8" x2="198.7" y2="157.44"/><line class="cls-4" x1="240.9" y1="181.8" x2="240.9" y2="181.8"/><line class="cls-7" x1="235.63" y1="178.75" x2="201.34" y2="158.96"/><line class="cls-4" x1="198.7" y1="157.44" x2="198.7" y2="157.44"/><line class="cls-8" x1="230.7" y1="36.44" x2="230.7" y2="84.69"/><line class="cls-9" x1="199.1" y1="36.44" x2="199.1" y2="84.69"/><polygon class="cls-1" points="256.7 172.68 240.9 163.56 256.7 154.43 272.5 163.56 256.7 172.68"/><polygon class="cls-2" points="256.7 190.92 256.7 172.68 272.5 163.56 272.5 181.8 256.7 190.92"/><polygon class="cls-3" points="256.7 190.92 256.7 172.68 240.9 163.56 240.9 181.8 256.7 190.92"/><polygon class="cls-4" points="256.7 154.43 240.9 163.56 240.9 181.8 256.7 190.92 272.5 181.8 272.5 163.56 256.7 154.43"/><polygon class="cls-1" points="214.9 27.32 199.1 18.2 214.9 9.08 230.7 18.2 214.9 27.32"/><polygon class="cls-2" points="214.9 45.57 214.9 27.32 230.7 18.2 230.7 36.44 214.9 45.57"/><polygon class="cls-3" points="214.9 45.57 214.9 27.32 199.1 18.2 199.1 36.44 214.9 45.57"/><polygon class="cls-4" points="214.9 9.08 199.1 18.2 199.1 36.44 214.9 45.57 230.7 36.44 230.7 18.2 214.9 9.08"/><polygon class="cls-1" points="183.3 130.3 167.5 121.18 183.3 112.06 199.1 121.18 183.3 130.3"/><polygon class="cls-2" points="183.3 148.54 183.3 130.3 199.1 121.18 199.1 139.42 183.3 148.54"/><polygon class="cls-3" points="183.3 148.54 183.3 130.3 167.5 121.18 167.5 139.42 183.3 148.54"/><polygon class="cls-4" points="183.3 112.06 167.5 121.18 167.5 139.42 183.3 148.54 199.1 139.42 199.1 121.18 183.3 112.06"/><polygon class="cls-1" points="183.3 112.06 167.5 102.93 183.3 93.81 199.1 102.93 183.3 112.06"/><polygon class="cls-2" points="183.3 130.3 183.3 112.06 199.1 102.93 199.1 121.18 183.3 130.3"/><polygon class="cls-3" points="183.3 130.3 183.3 112.06 167.5 102.93 167.5 121.18 183.3 130.3"/><polygon class="cls-4" points="183.3 93.81 167.5 102.93 167.5 121.18 183.3 130.3 199.1 121.18 199.1 102.93 183.3 93.81"/><polygon class="cls-1" points="183.3 93.81 167.5 84.69 183.3 75.57 199.1 84.69 183.3 93.81"/><polygon class="cls-2" points="183.3 112.06 183.3 93.81 199.1 84.69 199.1 102.93 183.3 112.06"/><polygon class="cls-3" points="183.3 112.06 183.3 93.81 167.5 84.69 167.5 102.93 183.3 112.06"/><polygon class="cls-4" points="183.3 75.57 167.5 84.69 167.5 102.93 183.3 112.06 199.1 102.93 199.1 84.69 183.3 75.57"/><polygon class="cls-1" points="199.1 139.42 183.3 130.3 199.1 121.18 214.9 130.3 199.1 139.42"/><polygon class="cls-2" points="199.1 157.67 199.1 139.42 214.9 130.3 214.9 148.54 199.1 157.67"/><polygon class="cls-3" points="199.1 157.67 199.1 139.42 183.3 130.3 183.3 148.54 199.1 157.67"/><polygon class="cls-4" points="199.1 121.18 183.3 130.3 183.3 148.54 199.1 157.67 214.9 148.54 214.9 130.3 199.1 121.18"/><polygon class="cls-1" points="230.7 121.18 214.9 112.06 230.7 102.93 246.5 112.06 230.7 121.18"/><polygon class="cls-2" points="230.7 139.42 230.7 121.18 246.5 112.06 246.5 130.3 230.7 139.42"/><polygon class="cls-3" points="230.7 139.42 230.7 121.18 214.9 112.06 214.9 130.3 230.7 139.42"/><polygon class="cls-4" points="230.7 102.93 214.9 112.06 214.9 130.3 230.7 139.42 246.5 130.3 246.5 112.06 230.7 102.93"/><polygon class="cls-1" points="246.5 130.3 230.7 121.18 246.5 112.06 262.3 121.18 246.5 130.3"/><polygon class="cls-2" points="246.5 148.54 246.5 130.3 262.3 121.18 262.3 139.42 246.5 148.54"/><polygon class="cls-3" points="246.5 148.54 246.5 130.3 230.7 121.18 230.7 139.42 246.5 148.54"/><polygon class="cls-4" points="246.5 112.06 230.7 121.18 230.7 139.42 246.5 148.54 262.3 139.42 262.3 121.18 246.5 112.06"/><polygon class="cls-1" points="246.5 112.06 230.7 102.93 246.5 93.81 262.3 102.93 246.5 112.06"/><polygon class="cls-2" points="246.5 130.3 246.5 112.06 262.3 102.93 262.3 121.18 246.5 130.3"/><polygon class="cls-3" points="246.5 130.3 246.5 112.06 230.7 102.93 230.7 121.18 246.5 130.3"/><polygon class="cls-4" points="246.5 93.81 230.7 102.93 230.7 121.18 246.5 130.3 262.3 121.18 262.3 102.93 246.5 93.81"/><polygon class="cls-1" points="199.1 121.18 183.3 112.06 199.1 102.93 214.9 112.06 199.1 121.18"/><polygon class="cls-2" points="199.1 139.42 199.1 121.18 214.9 112.06 214.9 130.3 199.1 139.42"/><polygon class="cls-3" points="199.1 139.42 199.1 121.18 183.3 112.06 183.3 130.3 199.1 139.42"/><polygon class="cls-4" points="199.1 102.93 183.3 112.06 183.3 130.3 199.1 139.42 214.9 130.3 214.9 112.06 199.1 102.93"/><rect class="cls-10" width="440" height="200"/></g></g></svg>