<svg xmlns="http://www.w3.org/2000/svg" viewBox="0 0 440 200"><defs><style>.cls-1{fill:#fff;}.cls-1,.cls-3{stroke:#627386;}.cls-1,.cls-2,.cls-3{stroke-linecap:round;stroke-linejoin:round;stroke-width:2px;}.cls-2,.cls-3,.cls-4{fill:none;}.cls-2{stroke:#d5dae0;}</style></defs><title>cube_connect_2(2x1)</title><g id="Layer_2" data-name="Layer 2"><g id="Illustrations"><polygon class="cls-1" points="267.59 90.84 278.96 91.82 301.02 79.09 299.32 72.52 267.59 54.2 256.22 53.22 234.16 65.96 235.87 72.52 204.14 90.84 205.84 84.28 183.78 71.54 172.41 72.52 140.68 90.84 138.98 97.41 161.03 110.14 172.41 109.16 140.68 127.48 138.98 134.04 161.03 146.78 172.41 145.8 204.14 127.48 215.51 128.46 237.57 115.72 235.87 109.16 267.59 127.48 278.96 128.46 301.02 115.72 299.32 109.16 267.59 90.84"/><line class="cls-2" x1="172.41" y1="145.8" x2="140.68" y2="127.48"/><line class="cls-2" x1="204.14" y1="127.48" x2="140.68" y2="90.84"/><line class="cls-2" x1="235.86" y1="109.16" x2="172.41" y2="72.52"/><line class="cls-2" x1="267.59" y1="90.84" x2="235.86" y2="72.52"/><line class="cls-2" x1="299.32" y1="72.52" x2="204.14" y2="127.48"/><line class="cls-2" x1="299.32" y1="109.16" x2="267.59" y2="127.48"/><line class="cls-2" x1="267.59" y1="54.2" x2="235.86" y2="72.52"/><line class="cls-2" x1="204.14" y1="90.84" x2="172.41" y2="109.16"/><polygon class="cls-3" points="267.59 90.84 278.96 91.82 301.02 79.09 299.32 72.52 267.59 54.2 256.22 53.22 234.16 65.96 235.87 72.52 204.14 90.84 205.84 84.28 183.78 71.54 172.41 72.52 140.68 90.84 138.98 97.41 161.03 110.14 172.41 109.16 140.68 127.48 138.98 134.04 161.03 146.78 172.41 145.8 204.14 127.48 215.51 128.46 237.57 115.72 235.87 109.16 267.59 127.48 278.96 128.46 301.02 115.72 299.32 109.16 267.59 90.84"/><rect class="cls-4" width="440" height="200"/></g></g></svg>