<svg xmlns="http://www.w3.org/2000/svg" viewBox="0 0 126 126"><defs><style>.cls-1,.cls-2,.cls-3,.cls-5{fill:none;}.cls-1,.cls-2,.cls-3,.cls-4{stroke:#b8bfca;stroke-linecap:round;stroke-linejoin:round;stroke-width:2px;}.cls-2{stroke-dasharray:0 5.86;}.cls-3{stroke-dasharray:0 5.8;}.cls-4{fill:#bde4fd;}</style></defs><title>cube_construct_3(1x1)</title><g id="Layer_2" data-name="Layer 2"><g id="Illustrations"><line class="cls-1" x1="51.87" y1="47.91" x2="51.87" y2="47.91"/><line class="cls-2" x1="51.87" y1="42.04" x2="51.87" y2="3.93"/><line class="cls-1" x1="51.87" y1="1" x2="51.87" y2="1"/><line class="cls-1" x1="11.25" y1="78.61" x2="11.25" y2="78.61"/><line class="cls-3" x1="17.05" y1="78.61" x2="89.59" y2="78.61"/><line class="cls-1" x1="92.49" y1="78.61" x2="92.49" y2="78.61"/><line class="cls-1" x1="11.25" y1="24.45" x2="11.25" y2="24.45"/><line class="cls-3" x1="17.05" y1="24.45" x2="89.59" y2="24.45"/><line class="cls-1" x1="92.49" y1="24.45" x2="92.49" y2="24.45"/><polygon class="cls-1" points="92.49 24.45 51.87 1 11.25 24.45 51.87 47.91 92.49 24.45"/><polygon class="cls-1" points="92.49 78.61 51.87 102.07 51.87 47.91 92.49 24.45 92.49 78.61"/><polygon class="cls-1" points="11.25 78.61 51.87 102.07 51.87 47.91 11.25 24.45 11.25 78.61"/><line class="cls-4" x1="11.25" y1="122.38" x2="92.49" y2="122.38"/><polygon class="cls-4" points="92.49 122.38 90.8 121.4 89.1 120.42 89.1 122.38 89.1 124.33 90.8 123.36 92.49 122.38"/><polygon class="cls-4" points="12.27 123.05 13.96 124.02 15.66 125 15.66 123.05 15.66 121.09 13.96 122.07 12.27 123.05"/><line class="cls-4" x1="112.8" y1="78.61" x2="112.8" y2="24.45"/><polygon class="cls-4" points="112.8 24.45 111.82 26.14 110.84 27.84 112.8 27.84 114.75 27.84 113.78 26.14 112.8 24.45"/><polygon class="cls-4" points="112.8 78.61 113.78 76.92 114.75 75.23 112.8 75.23 110.84 75.23 111.82 76.92 112.8 78.61"/><line class="cls-4" x1="51.87" y1="124.07" x2="51.87" y2="120.69"/><line class="cls-4" x1="114.49" y1="51.53" x2="111.11" y2="51.53"/><rect class="cls-5" width="126" height="126"/></g></g></svg>