<svg xmlns="http://www.w3.org/2000/svg" viewBox="0 0 126 126"><defs><style>.cls-1,.cls-2,.cls-6{fill:none;}.cls-1,.cls-2{stroke:#627386;}.cls-1,.cls-2,.cls-4,.cls-5{stroke-linecap:round;stroke-linejoin:round;stroke-width:2px;}.cls-2{stroke-dasharray:0 6.57;}.cls-3{fill:#fff;}.cls-4{fill:#d5dae0;}.cls-4,.cls-5{stroke:#b8bfca;}.cls-5{fill:#f2f4f6;}</style></defs><title>cube_connect_side(1x1)</title><g id="Layer_2" data-name="Layer 2"><g id="Illustrations"><line class="cls-1" x1="58.46" y1="20.83" x2="58.46" y2="20.83"/><line class="cls-2" x1="52.77" y1="24.12" x2="32.86" y2="35.62"/><line class="cls-1" x1="30.01" y1="37.26" x2="30.01" y2="37.26"/><polygon class="cls-3" points="103.46 36.42 67.46 15.64 58.46 20.84 94.46 41.62 103.46 36.42"/><polygon class="cls-4" points="103.46 84.42 94.46 89.62 94.46 41.62 103.46 36.42 103.46 84.42"/><polygon class="cls-5" points="58.46 68.83 94.46 89.62 94.46 41.62 58.46 20.84 58.46 68.83"/><polygon class="cls-1" points="67.46 15.64 58.46 20.84 58.46 68.83 94.46 89.62 103.46 84.42 103.46 36.42 67.46 15.64"/><line class="cls-1" x1="94.46" y1="41.62" x2="94.46" y2="41.62"/><line class="cls-2" x1="88.77" y1="44.9" x2="68.86" y2="56.4"/><line class="cls-1" x1="66.01" y1="58.05" x2="66.01" y2="58.05"/><line class="cls-1" x1="94.46" y1="89.62" x2="94.46" y2="89.62"/><line class="cls-2" x1="88.77" y1="92.9" x2="68.86" y2="104.4"/><line class="cls-1" x1="66.01" y1="106.05" x2="66.01" y2="106.05"/><polygon class="cls-3" points="67.54 57.16 31.54 36.38 22.54 41.58 58.54 62.36 67.54 57.16"/><polygon class="cls-4" points="67.54 105.17 58.54 110.36 58.54 62.36 67.54 57.16 67.54 105.17"/><polygon class="cls-5" points="22.54 89.58 58.54 110.36 58.54 62.36 22.54 41.58 22.54 89.58"/><polygon class="cls-1" points="31.54 36.38 22.54 41.58 22.54 89.58 58.54 110.36 67.54 105.17 67.54 57.16 31.54 36.38"/><rect class="cls-6" width="126" height="126"/></g></g></svg>