<svg xmlns="http://www.w3.org/2000/svg" viewBox="0 0 440 200"><defs><style>.cls-1,.cls-3,.cls-4,.cls-7{fill:none;}.cls-1{stroke:#d5dae0;}.cls-1,.cls-2,.cls-3,.cls-4,.cls-5,.cls-6{stroke-linecap:round;stroke-linejoin:round;stroke-width:2px;}.cls-2{fill:#d5dae0;}.cls-2,.cls-3,.cls-4,.cls-5,.cls-6{stroke:#627386;}.cls-4{stroke-dasharray:0 6.46;}.cls-5{fill:#f2f4f6;}.cls-6{fill:#fff;}</style></defs><title>cube_connect_1(2x1)</title><g id="Layer_2" data-name="Layer 2"><g id="Illustrations"><polygon class="cls-1" points="220 105.09 188.4 86.85 220 68.6 251.6 86.85 220 105.09"/><polygon class="cls-1" points="220 147.56 220 105.09 251.6 86.85 251.6 129.31 220 147.56"/><polygon class="cls-1" points="220 147.56 220 105.09 188.4 86.85 188.4 129.31 220 147.56"/><polygon class="cls-2" points="247.99 163.72 247.99 121.25 279.59 103.01 279.59 145.47 247.99 163.72"/><line class="cls-3" x1="220" y1="105.09" x2="220" y2="105.09"/><line class="cls-4" x1="225.6" y1="108.33" x2="245.19" y2="119.64"/><line class="cls-3" x1="247.99" y1="121.25" x2="247.99" y2="121.25"/><line class="cls-3" x1="220" y1="147.56" x2="220" y2="147.56"/><line class="cls-4" x1="225.6" y1="150.79" x2="245.19" y2="162.1"/><line class="cls-3" x1="247.99" y1="163.71" x2="247.99" y2="163.71"/><line class="cls-3" x1="251.6" y1="86.85" x2="251.6" y2="86.85"/><line class="cls-4" x1="257.2" y1="90.08" x2="276.79" y2="101.39"/><line class="cls-3" x1="279.59" y1="103.01" x2="279.59" y2="103.01"/><polygon class="cls-5" points="192.01 163.72 192.01 121.25 160.41 103.01 160.41 145.47 192.01 163.72"/><line class="cls-3" x1="220" y1="105.09" x2="220" y2="105.09"/><line class="cls-4" x1="214.4" y1="108.33" x2="194.81" y2="119.64"/><line class="cls-3" x1="192.01" y1="121.25" x2="192.01" y2="121.25"/><line class="cls-3" x1="220" y1="147.56" x2="220" y2="147.56"/><line class="cls-4" x1="214.4" y1="150.79" x2="194.81" y2="162.1"/><line class="cls-3" x1="192.01" y1="163.71" x2="192.01" y2="163.71"/><line class="cls-3" x1="188.4" y1="86.85" x2="188.4" y2="86.85"/><line class="cls-4" x1="182.8" y1="90.08" x2="163.21" y2="101.39"/><line class="cls-3" x1="160.41" y1="103.01" x2="160.41" y2="103.01"/><line class="cls-3" x1="188.4" y1="54.53" x2="188.4" y2="54.53"/><line class="cls-4" x1="188.4" y1="60.99" x2="188.4" y2="83.62"/><line class="cls-3" x1="188.4" y1="86.85" x2="188.4" y2="86.85"/><line class="cls-3" x1="251.6" y1="54.53" x2="251.6" y2="54.53"/><line class="cls-4" x1="251.6" y1="60.99" x2="251.6" y2="83.62"/><line class="cls-3" x1="251.6" y1="86.85" x2="251.6" y2="86.85"/><line class="cls-3" x1="220" y1="72.77" x2="220" y2="72.77"/><line class="cls-4" x1="220" y1="79.24" x2="220" y2="101.86"/><line class="cls-3" x1="220" y1="105.09" x2="220" y2="105.09"/><polygon class="cls-6" points="220 72.77 188.4 54.53 220 36.28 251.6 54.53 220 72.77"/><rect class="cls-7" width="440" height="200"/></g></g></svg>