<svg xmlns="http://www.w3.org/2000/svg" viewBox="0 0 126 126"><defs><style>.cls-1{fill:#f2f4f6;}.cls-2{fill:#d5dae0;}.cls-3{fill:#fff;}.cls-4,.cls-5,.cls-6,.cls-7{fill:none;}.cls-4{stroke:#b8bfca;}.cls-4,.cls-5,.cls-6{stroke-linecap:round;stroke-linejoin:round;stroke-width:2px;}.cls-5,.cls-6{stroke:#627386;}.cls-6{stroke-dasharray:0 5;}</style></defs><title>cylinder_connect_top(1x1)</title><g id="Layer_2" data-name="Layer 2"><g id="Illustrations"><path class="cls-1" d="M88.94,78.67l-.49-.3c-14.06-8.12-36.86-8.12-50.91,0l-.49.3H27v12c0,5.32,3.52,10.63,10.55,14.69,14.05,8.12,36.85,8.12,50.91,0C95.48,101.3,99,96,99,90.67v-12Z"/><path class="cls-2" d="M88.45,105.36C95.48,101.3,99,96,99,90.67v-12h-10l-.49-.3c-7-4.06-16.25-6.09-25.46-6.09v39.17C72.2,111.45,81.42,109.42,88.45,105.36Z"/><ellipse class="cls-3" cx="62.99" cy="78.67" rx="36" ry="20.78"/><ellipse class="cls-4" cx="62.99" cy="78.67" rx="36" ry="20.78"/><path class="cls-5" d="M88.45,64c-14.06-8.12-36.86-8.12-50.91,0C30.51,68,27,73.35,27,78.67v12c0,5.32,3.52,10.63,10.55,14.69s16.24,6.09,25.45,6.09q1.73,0,3.45-.09a61,61,0,0,0,6.8-.77,52,52,0,0,0,6.49-1.52,41.16,41.16,0,0,0,8.72-3.71c4.39-2.53,7.41-5.56,9.06-8.78A12.84,12.84,0,0,0,99,90.67v-12C99,73.35,95.48,68,88.45,64Z"/><line class="cls-5" x1="99.01" y1="57.98" x2="99.01" y2="57.98"/><line class="cls-6" x1="99.01" y1="62.98" x2="99.01" y2="65.48"/><line class="cls-5" x1="99.01" y1="67.98" x2="99.01" y2="67.98"/><line class="cls-5" x1="27.01" y1="57.98" x2="27.01" y2="57.98"/><line class="cls-6" x1="27.01" y1="62.98" x2="27.01" y2="65.48"/><line class="cls-5" x1="27.01" y1="67.98" x2="27.01" y2="67.98"/><path class="cls-1" d="M89,35.33c-.16-.09-.32-.2-.49-.29-14-8.12-36.85-8.12-50.91,0-.17.09-.32.2-.49.29H27v12C27,52.65,30.52,58,37.55,62c14.06,8.12,36.86,8.12,50.91,0C95.49,58,99,52.65,99,47.33v-12Z"/><path class="cls-2" d="M88.46,62C95.49,58,99,52.65,99,47.33v-12H89c-.16-.09-.32-.2-.49-.29C81.43,31,72.22,29,63,29V68.12C72.22,68.12,81.44,66.09,88.46,62Z"/><ellipse class="cls-3" cx="63.01" cy="35.33" rx="36" ry="20.78"/><ellipse class="cls-4" cx="63.01" cy="35.33" rx="36" ry="20.78"/><path class="cls-5" d="M88.46,20.64c-14-8.12-36.85-8.12-50.91,0C30.52,24.7,27,30,27,35.33v12C27,52.65,30.52,58,37.55,62S53.8,68.12,63,68.12c1.15,0,2.3,0,3.45-.1a58.93,58.93,0,0,0,6.8-.76,54.29,54.29,0,0,0,6.49-1.52A41.37,41.37,0,0,0,88.46,62c4.4-2.54,7.42-5.57,9.07-8.78A13,13,0,0,0,99,47.33v-12C99,30,95.49,24.7,88.46,20.64Z"/><rect class="cls-7" width="126" height="126"/></g></g></svg>