<svg xmlns="http://www.w3.org/2000/svg" viewBox="0 0 126 126"><defs><style>.cls-1{fill:#f2f4f6;}.cls-2{fill:#d5dae0;}.cls-3{fill:#fff;}.cls-4,.cls-5,.cls-6{fill:none;}.cls-4{stroke:#b8bfca;}.cls-4,.cls-5{stroke-linecap:round;stroke-linejoin:round;stroke-width:2px;}.cls-5{stroke:#627386;}</style></defs><title>cylinder(1x1)</title><g id="Layer_2" data-name="Layer 2"><g id="Illustrations"><path class="cls-1" d="M88.94,39l-.48-.3c-14.06-8.11-36.86-8.11-50.92,0l-.48.3H27V87c0,5.32,3.51,10.64,10.54,14.7,14.06,8.11,36.86,8.11,50.92,0C95.49,97.64,99,92.32,99,87V39Z"/><path class="cls-2" d="M88.46,101.7C95.49,97.64,99,92.32,99,87V39H88.94l-.48-.3c-7-4.06-16.25-6.08-25.46-6.08v75.16C72.21,107.78,81.43,105.76,88.46,101.7Z"/><ellipse class="cls-3" cx="63" cy="39" rx="36" ry="20.78"/><ellipse class="cls-4" cx="63" cy="39" rx="36" ry="20.78"/><path class="cls-5" d="M88.46,24.3c-14.06-8.11-36.86-8.11-50.92,0C30.51,28.36,27,33.68,27,39V87c0,5.32,3.51,10.64,10.54,14.7s16.25,6.08,25.46,6.08q1.73,0,3.45-.09a61,61,0,0,0,6.8-.76,53.84,53.84,0,0,0,6.49-1.52,41.68,41.68,0,0,0,8.72-3.71c4.39-2.54,7.41-5.57,9.06-8.78A12.91,12.91,0,0,0,99,87V39C99,33.68,95.49,28.36,88.46,24.3Z"/><rect class="cls-6" width="126" height="126"/></g></g></svg>