<svg xmlns="http://www.w3.org/2000/svg" viewBox="0 0 126 126"><defs><style>.cls-1{fill:#fff;}.cls-2{fill:#d5dae0;}.cls-3,.cls-5{fill:none;}.cls-3{stroke:#627386;}.cls-3,.cls-4{stroke-linecap:round;stroke-linejoin:round;stroke-width:2px;}.cls-4{fill:#f2f4f6;stroke:#b8bfca;}</style></defs><title>cylinder_side(1x1)</title><g id="Layer_2" data-name="Layer 2"><g id="Illustrations"><path class="cls-1" d="M105,66.46c0-17.67-10.75-38.2-24-45.86-6-3.46-11.49-3.68-15.7-1.25h0l-36,20.78,2.34,3.55A32.28,32.28,0,0,0,30,54.33C30,72,40.74,92.54,54,100.19a22.79,22.79,0,0,0,5.4,2.3l1.3,4.16,36-20.78h0C101.78,82.93,105,76.13,105,66.46Z"/><path class="cls-2" d="M104.76,62c-.06-.65-.12-1.3-.21-2s-.17-1.09-.26-1.63-.17-1-.27-1.55-.27-1.26-.41-1.89c-.1-.42-.19-.83-.3-1.25-.18-.71-.37-1.41-.57-2.11l-.3-1c-.23-.77-.49-1.54-.75-2.3-.09-.23-.17-.46-.25-.69-.31-.84-.62-1.67-1-2.48-.06-.14-.11-.27-.17-.4-.38-.9-.77-1.79-1.18-2.67h0L36,78.58l1.81,3.84C42.08,90.1,47.75,96.58,54,100.19a22.79,22.79,0,0,0,5.4,2.3l1.3,4.16,36-20.78h0a14.12,14.12,0,0,0,5.14-5.38q.38-.66.72-1.38c.15-.34.3-.68.44-1a25.85,25.85,0,0,0,1.42-4.9c0-.12,0-.25.06-.37a37.89,37.89,0,0,0,.52-6.33c0-1,0-2.12-.12-3.19C104.85,62.86,104.8,62.44,104.76,62Z"/><line class="cls-3" x1="54" y1="68.19" x2="45" y2="73.39"/><ellipse class="cls-4" cx="45" cy="73.39" rx="20.84" ry="36.84" transform="translate(-25.14 23.48) rotate(-23.05)"/><path class="cls-3" d="M105,66.47c0-17.67-10.74-38.2-24-45.86-6-3.46-11.49-3.68-15.7-1.25h0l-36,20.78h0c-5.08,2.93-8.3,9.73-8.3,19.4,0,17.67,10.75,38.2,24,45.86,6,3.47,11.49,3.68,15.7,1.25h0l36-20.78h0C101.78,82.94,105,76.14,105,66.47Z"/><rect class="cls-5" width="126" height="126"/></g></g></svg>