<svg xmlns="http://www.w3.org/2000/svg" viewBox="0 0 126 126"><defs><style>.cls-1{fill:#fff;}.cls-2{fill:#d5dae0;}.cls-3,.cls-5,.cls-6{fill:none;}.cls-3,.cls-5{stroke:#627386;}.cls-3,.cls-4,.cls-5{stroke-linecap:round;stroke-linejoin:round;stroke-width:2px;}.cls-4{fill:#f2f4f6;stroke:#b8bfca;}.cls-5{stroke-dasharray:0 5.2;}</style></defs><title>cylinder_connect_side(1x1)</title><g id="Layer_2" data-name="Layer 2"><g id="Illustrations"><path class="cls-1" d="M110.22,63.44c0-17.68-10.74-38.21-24-45.86-6-3.47-11.49-3.69-15.7-1.26h0l-9,5.2,2.34,3.55a32.27,32.27,0,0,0-1.64,10.66c0,17.68,10.75,38.21,24,45.86a23,23,0,0,0,5.4,2.3L92.93,88l9-5.19h0C107,79.9,110.22,73.1,110.22,63.44Z"/><path class="cls-2" d="M110,59c-.06-.64-.12-1.29-.21-1.94s-.17-1.09-.26-1.63-.17-1-.27-1.55-.26-1.26-.41-1.89c-.09-.42-.19-.84-.29-1.26-.18-.7-.38-1.4-.58-2.1-.1-.32-.19-.65-.29-1-.24-.77-.49-1.54-.76-2.3-.08-.23-.17-.46-.25-.7-.3-.83-.62-1.66-1-2.48,0-.13-.11-.26-.17-.39-.37-.9-.76-1.79-1.18-2.67h0L68.22,60,70,63.8C74.3,71.49,80,78,86.22,81.58a23,23,0,0,0,5.4,2.3L92.93,88l9-5.19h0a14.29,14.29,0,0,0,5.15-5.38c.25-.44.49-.9.71-1.38s.3-.68.45-1a25.75,25.75,0,0,0,1.41-4.91l.06-.36a36.86,36.86,0,0,0,.52-6.33c0-1.06,0-2.12-.12-3.19C110.08,59.84,110,59.42,110,59Z"/><line class="cls-3" x1="86.22" y1="49.58" x2="77.22" y2="54.78"/><ellipse class="cls-4" cx="77.22" cy="54.78" rx="20.84" ry="36.84" transform="translate(-15.28 34.61) rotate(-23.05)"/><path class="cls-3" d="M110.23,63.45c0-17.68-10.75-38.21-24-45.86-6-3.47-11.5-3.69-15.71-1.25v0l-9,5.2h0c-5.08,2.93-8.3,9.73-8.3,19.4,0,17.67,10.74,38.2,24,45.86,6,3.46,11.49,3.68,15.7,1.25h0l9-5.19h0C107,79.91,110.23,73.11,110.23,63.45Z"/><path class="cls-1" d="M72.77,85.07c0-17.67-10.74-38.2-24-45.86-6-3.46-11.49-3.68-15.7-1.25h0l-9,5.19,2.34,3.55a32.33,32.33,0,0,0-1.64,10.67c0,17.67,10.75,38.2,24,45.85a22.45,22.45,0,0,0,5.41,2.3l1.3,4.17,9-5.2h0C69.56,101.54,72.77,94.74,72.77,85.07Z"/><path class="cls-2" d="M72.53,80.64c-.06-.65-.12-1.3-.21-2s-.16-1.09-.25-1.63-.17-1-.27-1.55-.27-1.26-.41-1.89l-.3-1.25c-.18-.71-.37-1.41-.58-2.11-.09-.32-.19-.65-.29-1-.24-.77-.49-1.54-.76-2.3-.08-.23-.16-.46-.25-.69-.3-.84-.62-1.66-1-2.48,0-.14-.11-.27-.16-.4-.38-.9-.77-1.79-1.19-2.67h0L30.77,81.61l1.81,3.83c4.27,7.68,10,14.17,16.19,17.77a22.45,22.45,0,0,0,5.41,2.3l1.3,4.17,9-5.2h0a14.22,14.22,0,0,0,5.15-5.38c.25-.44.49-.9.71-1.38s.31-.68.45-1a25.14,25.14,0,0,0,1.41-4.9l.06-.37a36.86,36.86,0,0,0,.52-6.33c0-1,0-2.12-.11-3.19C72.63,81.47,72.57,81.05,72.53,80.64Z"/><line class="cls-3" x1="48.77" y1="71.21" x2="39.77" y2="76.41"/><ellipse class="cls-4" cx="39.77" cy="76.41" rx="20.84" ry="36.84" transform="translate(-26.74 21.67) rotate(-23.05)"/><path class="cls-3" d="M72.78,85.08c0-17.67-10.75-38.2-24-45.86-6-3.46-11.49-3.68-15.7-1.25h0l-9,5.19h0c-5.08,2.94-8.3,9.74-8.3,19.4,0,17.68,10.74,38.21,24,45.86,6,3.47,11.49,3.69,15.7,1.26h0l9-5.2h0C69.56,101.55,72.78,94.75,72.78,85.08Z"/><line class="cls-3" x1="83.2" y1="93.67" x2="83.2" y2="93.67"/><line class="cls-5" x1="78.7" y1="96.27" x2="76.45" y2="97.56"/><line class="cls-3" x1="74.2" y1="98.86" x2="74.2" y2="98.86"/><line class="cls-3" x1="51.8" y1="27.14" x2="51.8" y2="27.14"/><line class="cls-5" x1="47.3" y1="29.73" x2="45.05" y2="31.03"/><line class="cls-3" x1="42.8" y1="32.33" x2="42.8" y2="32.33"/><rect class="cls-6" width="126" height="126"/></g></g></svg>