<svg xmlns="http://www.w3.org/2000/svg" viewBox="0 0 126 126"><defs><style>.cls-1,.cls-10,.cls-11,.cls-14,.cls-15,.cls-5,.cls-6,.cls-7{fill:none;}.cls-1,.cls-6{stroke:#627386;}.cls-1,.cls-10,.cls-11,.cls-14,.cls-5,.cls-7{stroke-linecap:round;stroke-linejoin:round;}.cls-1,.cls-10,.cls-11,.cls-13,.cls-14,.cls-5,.cls-6,.cls-7{stroke-width:2px;}.cls-2{fill:#d5dae0;}.cls-3{fill:#f2f4f6;}.cls-13,.cls-4{fill:#fff;}.cls-5{stroke:#b8bfca;}.cls-13,.cls-6{stroke-miterlimit:10;}.cls-7{stroke:#fff;}.cls-14,.cls-7{stroke-dasharray:0 6;}.cls-8{fill:#e9f6fe;}.cls-9{fill:#bde4fd;}.cls-10,.cls-13,.cls-14{stroke:#91d2fb;}.cls-11{stroke:#1b6dc6;}.cls-12{fill:#91d2fb;}</style></defs><title>data_control_2(1x1)</title><g id="Layer_2" data-name="Layer 2"><g id="Illustrations"><line class="cls-1" x1="37.33" y1="92.49" x2="81.04" y2="67.25"/><path class="cls-2" d="M73.5,45.17V56.74c0,3.81,2.51,7.61,7.54,10.51,10.06,5.81,26.36,5.81,36.42,0,5-2.9,7.54-6.7,7.54-10.51h0V45.17Z"/><path class="cls-3" d="M73.5,45.17V56.74c0,3.81,2.51,7.61,7.54,10.51s11.62,4.36,18.21,4.36V45.17Z"/><path class="cls-1" d="M73.5,45.17V56.74c0,3.81,2.51,7.61,7.54,10.51,10.06,5.81,26.36,5.81,36.42,0,5-2.9,7.54-6.7,7.54-10.51h0V45.17Z"/><ellipse class="cls-4" cx="99.25" cy="45.17" rx="25.75" ry="14.87"/><ellipse class="cls-3" cx="99.25" cy="45.17" rx="16.21" ry="9.36"/><ellipse class="cls-5" cx="99.25" cy="45.17" rx="25.75" ry="14.87"/><path class="cls-6" d="M125,45.17c0-3.8-2.51-7.61-7.54-10.51-10.06-5.81-26.36-5.81-36.42,0-5,2.9-7.54,6.71-7.54,10.51V56.74c0,3.81,2.51,7.61,7.54,10.51,10.06,5.81,26.36,5.81,36.42,0,5-2.9,7.54-6.7,7.54-10.51h0V45.17Z"/><path class="cls-7" d="M110.6,64.06a30.23,30.23,0,0,0,6.86-2.83,19.46,19.46,0,0,0,4.39-3.38"/><path class="cls-2" d="M73.5,23.7V35.27c0,3.8,2.51,7.61,7.54,10.51,10.06,5.81,26.36,5.81,36.42,0,5-2.9,7.54-6.71,7.54-10.51h0V23.7Z"/><path class="cls-3" d="M73.5,23.7V35.27c0,3.8,2.51,7.61,7.54,10.51s11.62,4.36,18.21,4.36V23.7Z"/><path class="cls-1" d="M73.5,23.7V35.27c0,3.8,2.51,7.61,7.54,10.51,10.06,5.81,26.36,5.81,36.42,0,5-2.9,7.54-6.71,7.54-10.51h0V23.7Z"/><ellipse class="cls-4" cx="99.25" cy="23.7" rx="25.75" ry="14.87"/><ellipse class="cls-3" cx="99.25" cy="23.7" rx="16.21" ry="9.36"/><ellipse class="cls-5" cx="99.25" cy="23.7" rx="25.75" ry="14.87"/><path class="cls-6" d="M125,23.7c0-3.8-2.51-7.61-7.54-10.51C107.4,7.38,91.1,7.38,81,13.19c-5,2.9-7.54,6.71-7.54,10.51V35.27c0,3.8,2.51,7.61,7.54,10.51,10.06,5.81,26.36,5.81,36.42,0,5-2.9,7.54-6.71,7.54-10.51h0V23.7Z"/><path class="cls-7" d="M110.6,42.59a30.23,30.23,0,0,0,6.86-2.83,19.46,19.46,0,0,0,4.39-3.38"/><path class="cls-4" d="M89.53,86.59c1.84,1.06,1.85,2.78,0,3.84l-30,17.45a7.33,7.33,0,0,1-6.64,0L2.4,78.73c-1.84-1.06-1.85-2.79,0-3.85l30-17.44a7.29,7.29,0,0,1,6.65,0Z"/><path class="cls-8" d="M89.56,90.51,59.54,108a7.33,7.33,0,0,1-6.64,0L2.41,78.8A2.35,2.35,0,0,1,1,76.86l0,8.42a2.35,2.35,0,0,0,1.39,1.94l50.49,29.15a7.33,7.33,0,0,0,6.64,0l30-17.44A2.32,2.32,0,0,0,90.9,97l0-8.42A2.36,2.36,0,0,1,89.56,90.51Z"/><path class="cls-9" d="M89.56,90.51,59.54,108a6.77,6.77,0,0,1-3.32.8v8.42a6.8,6.8,0,0,0,3.3-.8l30-17.44A2.32,2.32,0,0,0,90.9,97l0-8.42A2.36,2.36,0,0,1,89.56,90.51Z"/><path class="cls-10" d="M89.54,86.66c1.84,1.06,1.85,2.78,0,3.85L59.54,108a7.33,7.33,0,0,1-6.64,0l-46.81-27"/><path class="cls-11" d="M90.88,88.88a2.18,2.18,0,0,0-1.34-2.22L39.05,57.51a7.27,7.27,0,0,0-6.64,0L2.39,75A2.35,2.35,0,0,0,1,76.87H1l0,8.42a2.35,2.35,0,0,0,1.39,1.94l50.49,29.15a6.85,6.85,0,0,0,3.34.8h0A7.31,7.31,0,0,0,58,117l.15,0a6.36,6.36,0,0,0,.66-.2,5.47,5.47,0,0,0,.73-.35l30-17.44A2.32,2.32,0,0,0,90.9,97l0-8.42A1.35,1.35,0,0,1,90.88,88.88Z"/><path class="cls-10" d="M65.49,92.15A9.2,9.2,0,0,1,61,91.06l-7.55-4.4a3.51,3.51,0,0,1,0-6.5,9.88,9.88,0,0,1,9,0L70,84.56a3.51,3.51,0,0,1,0,6.5A9.26,9.26,0,0,1,65.49,92.15Z"/><ellipse class="cls-12" cx="57.95" cy="83.37" rx="3.64" ry="2.1"/><line class="cls-10" x1="39.76" y1="67.11" x2="19.19" y2="79.09"/><path class="cls-13" d="M30.8,69.35c-1.42.82-1.43,2.15,0,3a5.6,5.6,0,0,0,5.13,0c1.43-.82,1.44-2.15,0-3A5.65,5.65,0,0,0,30.8,69.35Z"/><line class="cls-10" x1="49.33" y1="72.64" x2="28.76" y2="84.62"/><path class="cls-13" d="M33.75,78.73c-1.42.82-1.43,2.15,0,3a5.68,5.68,0,0,0,5.14,0c1.42-.83,1.43-2.16,0-3A5.68,5.68,0,0,0,33.75,78.73Z"/><line class="cls-14" x1="60.2" y1="96.72" x2="42.48" y2="86.49"/><line class="cls-14" x1="54.96" y1="99.74" x2="37.24" y2="89.51"/><rect class="cls-15" width="126" height="126"/></g></g></svg>