<svg xmlns="http://www.w3.org/2000/svg" viewBox="0 0 126 126"><defs><style>.cls-1{fill:#bde4fd;}.cls-2{fill:#e9f6fe;}.cls-12,.cls-13,.cls-15,.cls-3,.cls-5,.cls-6,.cls-7,.cls-8,.cls-9{fill:none;}.cls-13,.cls-3{stroke:#627386;}.cls-12,.cls-14,.cls-3,.cls-5,.cls-6,.cls-7,.cls-8,.cls-9{stroke-linecap:round;stroke-linejoin:round;}.cls-12,.cls-13,.cls-14,.cls-3,.cls-5,.cls-6,.cls-7,.cls-8,.cls-9{stroke-width:2px;}.cls-4{fill:#fff;}.cls-5{stroke:#91d2fb;}.cls-6,.cls-8{stroke:#1b6dc6;}.cls-7{stroke:#fff;}.cls-7,.cls-8,.cls-9{stroke-dasharray:0 6;}.cls-12,.cls-14,.cls-9{stroke:#b8bfca;}.cls-10{fill:#d5dae0;}.cls-11,.cls-14{fill:#f2f4f6;}.cls-13{stroke-miterlimit:10;}</style></defs><title>data_control_1(1x1)</title><g id="Layer_2" data-name="Layer 2"><g id="Illustrations"><path class="cls-1" d="M43.36,22.6v8.85c0,2.91,1.92,5.82,5.77,8.05,7.7,4.44,20.18,4.44,27.87,0,3.85-2.23,5.78-5.14,5.78-8h0V22.6Z"/><path class="cls-2" d="M43.36,22.6v8.85c0,2.91,1.92,5.82,5.77,8.05a28.51,28.51,0,0,0,13.94,3.33V22.6Z"/><path class="cls-3" d="M43.36,22.6v8.85c0,2.91,1.92,5.82,5.77,8.05,7.7,4.44,20.18,4.44,27.87,0,3.85-2.23,5.78-5.14,5.78-8h0V22.6Z"/><ellipse class="cls-4" cx="63.07" cy="22.6" rx="19.71" ry="11.38"/><ellipse class="cls-2" cx="63.07" cy="22.6" rx="12.41" ry="7.16"/><ellipse class="cls-5" cx="63.07" cy="22.6" rx="19.71" ry="11.38"/><path class="cls-6" d="M82.78,22.6c0-2.92-1.93-5.83-5.78-8-7.69-4.45-20.17-4.45-27.87,0-3.85,2.22-5.77,5.13-5.77,8.05v8.85c0,2.91,1.92,5.82,5.77,8.05,7.7,4.44,20.18,4.44,27.87,0,3.85-2.23,5.78-5.14,5.78-8h0V22.6Z"/><path class="cls-7" d="M71.75,37.06A23.08,23.08,0,0,0,77,34.88a14.87,14.87,0,0,0,3.36-2.58"/><line class="cls-8" x1="82.71" y1="40.97" x2="82.71" y2="69.01"/><line class="cls-8" x1="43.29" y1="40.97" x2="43.29" y2="69.01"/><line class="cls-9" x1="84.1" y1="71.44" x2="108.97" y2="57.08"/><line class="cls-9" x1="26.94" y1="104.14" x2="43.39" y2="94.96"/><line class="cls-9" x1="99.29" y1="104.6" x2="82.71" y2="95.02"/><line class="cls-9" x1="41.9" y1="71.44" x2="27.79" y2="63.29"/><path class="cls-10" d="M43.35,79.19v8.86c0,2.91,1.93,5.82,5.78,8,7.69,4.44,20.18,4.44,27.87,0,3.85-2.23,5.78-5.14,5.78-8h0V79.19Z"/><path class="cls-11" d="M43.35,79.19v8.86c0,2.91,1.93,5.82,5.78,8a28.51,28.51,0,0,0,13.94,3.33V79.19Z"/><path class="cls-3" d="M43.35,79.19v8.86c0,2.91,1.93,5.82,5.78,8,7.69,4.44,20.18,4.44,27.87,0,3.85-2.23,5.78-5.14,5.78-8h0V79.19Z"/><ellipse class="cls-4" cx="63.07" cy="79.19" rx="19.71" ry="11.38"/><ellipse class="cls-11" cx="63.07" cy="79.19" rx="12.41" ry="7.17"/><ellipse class="cls-12" cx="63.07" cy="79.19" rx="19.71" ry="11.38"/><path class="cls-13" d="M82.78,79.19c0-2.91-1.93-5.82-5.78-8-7.69-4.45-20.18-4.45-27.87,0-3.85,2.22-5.78,5.13-5.78,8v8.86c0,2.91,1.93,5.82,5.78,8,7.69,4.44,20.18,4.44,27.87,0,3.85-2.23,5.78-5.14,5.78-8h0V79.19Z"/><path class="cls-7" d="M71.75,93.66A23.08,23.08,0,0,0,77,91.48a14.71,14.71,0,0,0,3.37-2.58"/><ellipse class="cls-14" cx="106.04" cy="58.8" rx="10.89" ry="6.29"/><ellipse class="cls-10" cx="106.04" cy="58.8" rx="4.08" ry="2.36"/><ellipse class="cls-14" cx="19.96" cy="58.8" rx="10.89" ry="6.29"/><ellipse class="cls-10" cx="19.96" cy="58.8" rx="4.08" ry="2.36"/><ellipse class="cls-14" cx="19.96" cy="108.5" rx="10.89" ry="6.29"/><ellipse class="cls-10" cx="19.96" cy="108.5" rx="4.08" ry="2.36"/><ellipse class="cls-14" cx="106.04" cy="108.5" rx="10.89" ry="6.29"/><ellipse class="cls-10" cx="106.04" cy="108.5" rx="4.08" ry="2.36"/><rect class="cls-15" width="126" height="126"/></g></g></svg>