<svg xmlns="http://www.w3.org/2000/svg" viewBox="0 0 126 126"><defs><style>.cls-1,.cls-8{fill:#fff;}.cls-2,.cls-5{fill:#bde4fd;}.cls-3{fill:#e9f6fe;}.cls-4,.cls-6,.cls-7,.cls-9{fill:none;}.cls-5,.cls-7{stroke:#1b6dc6;}.cls-5,.cls-6,.cls-7,.cls-8,.cls-9{stroke-linecap:round;stroke-linejoin:round;stroke-width:2px;}.cls-6{stroke:#91d2fb;}.cls-8{stroke:#d5dae0;}.cls-9{stroke:#b8bfca;}</style></defs><title>data_track(1x1)</title><g id="Layer_2" data-name="Layer 2"><g id="Illustrations"><path class="cls-1" d="M111.25,48a1.12,1.12,0,0,0-.7-1.16L71.22,24.09a3.83,3.83,0,0,0-3.46,0l-65,37.79a1.21,1.21,0,0,0-.71,1H2l0,6.43a1.23,1.23,0,0,0,.72,1L42.05,93a2.92,2.92,0,0,0,.81.32A3.84,3.84,0,0,0,45.51,93l65-37.79a1.22,1.22,0,0,0,.72-1V47.8A.78.78,0,0,1,111.25,48Z"/><path class="cls-2" d="M43.78,93.45A3.46,3.46,0,0,0,45.51,93l65-37.79a1.22,1.22,0,0,0,.72-1V47.8a1.23,1.23,0,0,1-.71,1l-65,37.79a3.59,3.59,0,0,1-1.7.42"/><path class="cls-3" d="M43.83,87a3.54,3.54,0,0,1-1.77-.42L2.74,63.89a1.19,1.19,0,0,1-.72-1l0,6.44a1.23,1.23,0,0,0,.72,1L42.05,93a3.52,3.52,0,0,0,1.73.42"/><path class="cls-4" d="M43.83,87a3.54,3.54,0,0,1-1.77-.42L2.74,63.89a1.19,1.19,0,0,1-.72-1l0,6.44a1.23,1.23,0,0,0,.72,1L42.05,93a3.52,3.52,0,0,0,1.73.42"/><path class="cls-5" d="M71.22,24.09a3.83,3.83,0,0,0-3.46,0l-65,37.79a1.06,1.06,0,0,0,0,2l4.92,2.84,68-40.06Z"/><path class="cls-6" d="M71.22,24.09a3.83,3.83,0,0,0-3.46,0l-65,37.79a1.06,1.06,0,0,0,0,2l4.92,2.84,68-40.06Z"/><line class="cls-6" x1="7.66" y1="73.18" x2="7.66" y2="66.73"/><path class="cls-6" d="M110.55,46.8a1.06,1.06,0,0,1,0,2l-65,37.79a3.79,3.79,0,0,1-3.47,0L2.74,63.89a1.06,1.06,0,0,1,0-2l65-37.79a3.83,3.83,0,0,1,3.46,0Z"/><path class="cls-7" d="M111.25,48a1.12,1.12,0,0,0-.7-1.16L71.22,24.09a3.83,3.83,0,0,0-3.46,0l-65,37.79a1.21,1.21,0,0,0-.71,1H2l0,6.43a1.23,1.23,0,0,0,.72,1L42.05,93a2.92,2.92,0,0,0,.81.32A3.84,3.84,0,0,0,45.51,93l65-37.79a1.22,1.22,0,0,0,.72-1V47.8A.78.78,0,0,1,111.25,48Z"/><polygon class="cls-8" points="89.38 96.48 86.57 90.42 97.06 92.04 89.38 96.48"/><path class="cls-9" d="M58.66,102.33,56.36,101a2,2,0,0,1,0-3.47l60.33-34.79a4,4,0,0,1,4,0l3.3,1.9"/><line class="cls-9" x1="92.4" y1="81.12" x2="88.59" y2="78.93"/><line class="cls-9" x1="81.43" y1="87.45" x2="77.63" y2="85.26"/><line class="cls-9" x1="70.08" y1="94.54" x2="66.28" y2="92.34"/><line class="cls-9" x1="113.46" y1="68.97" x2="109.66" y2="66.78"/><line class="cls-9" x1="103.38" y1="74.81" x2="99.57" y2="72.61"/><line class="cls-6" x1="22.92" y1="65.75" x2="44.54" y2="78.32"/><polygon class="cls-2" points="44.8 78.17 48.58 68.37 58.84 61.48 60.66 53.37 69.5 48.34 73.1 36.66 94.73 49.15 44.8 78.17"/><line class="cls-6" x1="97.69" y1="47.43" x2="44.54" y2="78.32"/><rect class="cls-4" width="126" height="126"/></g></g></svg>