<svg xmlns="http://www.w3.org/2000/svg" viewBox="0 0 440 200"><defs><style>.cls-1,.cls-6{fill:#b8bfca;}.cls-1,.cls-7,.cls-8,.cls-9{stroke:#627386;}.cls-1,.cls-5,.cls-7,.cls-8,.cls-9{stroke-linecap:round;stroke-linejoin:round;stroke-width:2px;}.cls-2,.cls-8{fill:#d5dae0;}.cls-3{fill:#f2f4f6;}.cls-4,.cls-9{fill:#fff;}.cls-10,.cls-5,.cls-7{fill:none;}.cls-5{stroke:#b8bfca;}</style></defs><title>delorean(1x1)</title><g id="Layer_2" data-name="Layer 2"><g id="Illustrations"><path class="cls-1" d="M217.44,135.51l4.14-8.78-5.11-2.94h0a4.17,4.17,0,0,0-4.25.34c-3.58,2.07-6.49,7.63-6.49,12.41,0,2.62.87,4.45,2.25,5.24h0l5.11,3,4.35-9.21Z"/><path class="cls-1" d="M271.6,104.82,275.75,96l-5.11-3h0a4.17,4.17,0,0,0-4.25.33c-3.58,2.08-6.49,7.63-6.49,12.41,0,2.62.87,4.46,2.25,5.25h0l5.11,2.94,4.35-9.2Z"/><path class="cls-2" d="M280,80.71l-2.78-.14-3.61-13L267,63.75l-5.77,5.91-3.06-11-6.63-3.83-10.7,11-9.16-.5a4.24,4.24,0,0,0-2.39.57l-20.7,12h0l-20,13.63-29.23,22.41a3.48,3.48,0,0,0-1.36,2.74v6.14a3.46,3.46,0,0,0,1.73,3l32.14,18.55a5.14,5.14,0,0,0,5.17,0l33.46-19.32a1.79,1.79,0,0,1,1.24-.19L237,126a3.43,3.43,0,0,0,2.49-.37l19-11a3.47,3.47,0,0,0,1.54-1.87l1.86-5.46a1.67,1.67,0,0,1,.77-.94L278.84,97a3.47,3.47,0,0,0,1.55-1.92l1.47-4.52a4.33,4.33,0,0,0,.07-2.42Z"/><path class="cls-3" d="M157.93,116.58v6.14a3.47,3.47,0,0,0,1.72,3l6.26,3.61,25.88,14.94a5.18,5.18,0,0,0,2.59.69V132.31l-36.1-17.23A3.34,3.34,0,0,0,157.93,116.58Z"/><path class="cls-4" d="M225,112.48l-36.45-21-29.24,22.41a3.52,3.52,0,0,0-1,1.24l35.1,20.27a1.71,1.71,0,0,0,1.91-.13Z"/><path class="cls-5" d="M161.55,117l31.83,18.38a1.71,1.71,0,0,0,1.91-.13L226,111.81"/><line class="cls-5" x1="186.03" y1="136.06" x2="191.63" y2="139.29"/><line class="cls-5" x1="161.55" y1="121.93" x2="167.1" y2="125.13"/><polygon class="cls-2" points="230.35 65.21 254.98 79.34 277.21 80.57 252.58 66.44 230.35 65.21"/><path class="cls-6" d="M238.88,125.92l20.17-11.64a1.7,1.7,0,0,0,.77-.94l2.28-6.69L231,124.6l6.63,1.51A1.69,1.69,0,0,0,238.88,125.92Z"/><polygon class="cls-6" points="261.75 79.71 273.59 67.58 277.21 80.57 261.75 79.71"/><polygon class="cls-6" points="252.9 78.15 244.05 73.07 258.13 58.65 261.19 69.66 252.9 78.15"/><polygon class="cls-3" points="258.13 58.65 251.49 54.82 237.4 69.25 244.05 73.07 258.13 58.65"/><polygon class="cls-3" points="273.59 67.58 266.96 63.75 252.9 78.15 254.98 79.34 261.75 79.71 273.59 67.58"/><polyline class="cls-7" points="273.59 67.58 266.96 63.75 252.9 78.15 254.98 79.34"/><polygon class="cls-8" points="254.98 79.34 262.39 90.88 279.99 80.71 254.98 79.34"/><path class="cls-2" d="M255,79.34,234.79,91a3.48,3.48,0,0,1-3.45,0L208.55,77.8l-20,13.63,34.3,19.8a4.31,4.31,0,0,0,4.31,0l35.26-20.35h0L280,80.71Z"/><path class="cls-7" d="M280,80.71l-2.78-.14-3.62-13L267,63.75l-5.77,5.91-3.06-11-6.64-3.83-10.7,11-9.16-.5a4.28,4.28,0,0,0-2.39.57l-20.69,12h0l-20,13.63-29.24,22.41a3.47,3.47,0,0,0-1.35,2.74v6.14a3.47,3.47,0,0,0,1.72,3l32.14,18.55a5.14,5.14,0,0,0,5.17,0l33.47-19.32a1.78,1.78,0,0,1,1.24-.19L237,126a3.45,3.45,0,0,0,2.49-.37l19-11a3.42,3.42,0,0,0,1.54-1.87l1.86-5.46a1.75,1.75,0,0,1,.77-.94L278.84,97a3.49,3.49,0,0,0,1.56-1.92l1.47-4.52a4.33,4.33,0,0,0,.07-2.42Z"/><ellipse class="cls-1" cx="217.33" cy="135.74" rx="9.97" ry="5.64" transform="translate(7.33 282.57) rotate(-66.95)"/><ellipse class="cls-1" cx="271.5" cy="105.04" rx="9.97" ry="5.64" transform="translate(68.54 313.73) rotate(-66.95)"/><path class="cls-6" d="M262.39,90.88,255,79.34h0L235.29,90.71a4.3,4.3,0,0,1-2,.56L225,112.48Z"/><path class="cls-2" d="M231,90.71,208.55,77.8l-20,13.63,36.45,21,8.36-21.21A4.26,4.26,0,0,1,231,90.71Z"/><path class="cls-7" d="M255,79.34,234.79,91a3.48,3.48,0,0,1-3.45,0L208.55,77.8l-20,13.63,34.3,19.8a4.31,4.31,0,0,0,4.31,0l35.26-20.35Z"/><path class="cls-7" d="M255,79.34,234.79,91a3.48,3.48,0,0,1-3.45,0L208.55,77.8l-20,13.63,34.3,19.8a4.31,4.31,0,0,0,4.31,0l35.26-20.35h0L280,80.71Z"/><path class="cls-9" d="M231.24,65.72a1.85,1.85,0,0,0-1.62-.13,5,5,0,0,0-.52.26l-20.55,12L231,90.71a4.31,4.31,0,0,0,4.31,0L255,79.34Z"/><polyline class="cls-7" points="258.13 58.65 251.49 54.82 237.4 69.25"/><rect class="cls-10" width="440" height="200"/></g></g></svg>