<svg xmlns="http://www.w3.org/2000/svg" viewBox="0 0 440 200"><defs><style>.cls-1{isolation:isolate;}.cls-2,.cls-6{fill:#f2f4f6;}.cls-2{stroke:#f2f4f6;}.cls-10,.cls-11,.cls-12,.cls-13,.cls-2,.cls-3,.cls-5,.cls-7,.cls-8,.cls-9{stroke-linecap:round;stroke-linejoin:round;}.cls-2,.cls-9{stroke-width:1.8px;}.cls-10,.cls-11,.cls-12,.cls-13,.cls-14,.cls-3,.cls-7{fill:none;}.cls-3{stroke:#627386;}.cls-10,.cls-11,.cls-12,.cls-13,.cls-3,.cls-5,.cls-7,.cls-8{stroke-width:2px;}.cls-4,.cls-5{fill:#bde4fd;}.cls-5{stroke:#1b6dc6;}.cls-7{stroke:#91d2fb;}.cls-8{fill:#fff;}.cls-11,.cls-12,.cls-8{stroke:#b8bfca;}.cls-9{fill:#d5dae0;}.cls-10,.cls-13,.cls-9{stroke:#d5dae0;}.cls-10{mix-blend-mode:darken;}.cls-12{stroke-dasharray:0 5.62;}</style></defs><title>directions(2x1)</title><g class="cls-1"><g id="Layer_2" data-name="Layer 2"><g id="Illustrations"><polygon class="cls-2" points="175.31 42.39 216.07 65.93 216.07 55.45 216.07 44.97 175.31 21.43 164.38 25.6 175.31 42.39"/><polygon class="cls-2" points="175.31 42.39 216.07 65.93 216.07 55.45 216.07 44.97 175.31 21.43 164.38 25.6 175.31 42.39"/><polygon class="cls-3" points="175.31 42.39 216.07 65.93 216.07 55.45 216.07 44.97 175.31 21.43 164.38 25.6 175.31 42.39"/><polygon class="cls-3" points="175.31 42.39 216.07 65.93 216.07 55.45 216.07 44.97 175.31 21.43 164.38 25.6 175.31 42.39"/><polygon class="cls-4" points="264.69 32.39 223.93 55.93 223.93 45.45 223.93 34.97 264.69 11.43 275.62 15.6 264.69 32.39"/><polygon class="cls-5" points="264.69 32.39 223.93 55.93 223.93 45.45 223.93 34.97 264.69 11.43 275.62 15.6 264.69 32.39"/><path class="cls-6" d="M214.76,23V155.12c0,1.67,2.35,3,5.24,3s5.24-1.36,5.24-3V23Z"/><path class="cls-3" d="M214.76,23V155.12c0,1.67,2.35,3,5.24,3s5.24-1.36,5.24-3V23Z"/><polygon class="cls-7" points="269.12 127.19 259.74 127.92 250.37 128.64 252.72 130 255.08 131.37 247.92 135.5 240.77 139.63 244.16 141.59 247.56 143.56 254.72 139.42 261.88 135.29 264.24 136.65 266.59 138.01 267.86 132.6 269.12 127.19"/><ellipse class="cls-8" cx="220" cy="23.03" rx="5.24" ry="3.02"/><path class="cls-3" d="M225.24,23c0-1.67-2.35-3-5.24-3s-5.24,1.35-5.24,3h0V155.12c0,1.67,2.35,3,5.24,3s5.24-1.36,5.24-3V23Z"/><polygon class="cls-9" points="216.07 83.31 175.31 106.85 164.38 102.67 175.31 85.89 216.07 62.35 216.07 83.31"/><polygon class="cls-2" points="223.93 69.31 264.69 92.85 275.62 88.67 264.69 71.89 223.93 48.35 223.93 69.31"/><polyline class="cls-3" points="216.07 83.31 175.31 106.85 164.38 102.67 175.31 85.89 216.07 62.35"/><polyline class="cls-3" points="223.93 69.31 264.69 92.85 275.62 88.67 264.69 71.89 223.93 48.35"/><polygon class="cls-10" points="269.12 183.9 267.86 178.49 266.59 173.08 264.24 174.44 261.88 175.8 254.72 171.67 247.56 167.53 244.16 169.5 240.77 171.46 247.92 175.59 255.08 179.72 252.72 181.09 250.37 182.45 259.74 183.17 269.12 183.9"/><polygon class="cls-10" points="170.88 127.19 172.15 132.6 173.41 138.01 175.76 136.65 178.12 135.29 185.28 139.42 192.44 143.56 195.84 141.59 199.24 139.63 192.08 135.5 184.92 131.37 187.28 130 189.64 128.64 180.26 127.92 170.88 127.19"/><line class="cls-11" x1="203.32" y1="166.09" x2="203.32" y2="166.09"/><line class="cls-12" x1="198.46" y1="168.9" x2="166.81" y2="187.16"/><line class="cls-11" x1="164.38" y1="188.57" x2="164.38" y2="188.57"/><ellipse class="cls-13" cx="206.03" cy="164.52" rx="3.82" ry="2.21"/><rect class="cls-14" width="440" height="200"/></g></g></g></svg>