<svg xmlns="http://www.w3.org/2000/svg" viewBox="0 0 440 200"><defs><style>.cls-1,.cls-2,.cls-3,.cls-4,.cls-8{fill:none;}.cls-1,.cls-2{stroke:#1b6dc6;}.cls-1,.cls-2,.cls-3,.cls-4,.cls-5,.cls-6,.cls-7{stroke-linecap:round;stroke-linejoin:round;stroke-width:2px;}.cls-2{stroke-dasharray:0 6.01;}.cls-3{stroke:#d3edfd;}.cls-4{stroke:#d5dae0;}.cls-5{fill:#e9f6fe;}.cls-5,.cls-6,.cls-7{stroke:#fff;}.cls-6{fill:#91d2fb;}.cls-7{fill:#d3edfd;}</style></defs><title>direction_cube(1x1)</title><g id="Layer_2" data-name="Layer 2"><g id="Illustrations"><line class="cls-1" x1="244" y1="68.62" x2="244" y2="68.62"/><line class="cls-2" x1="244" y1="62.62" x2="244" y2="41.59"/><line class="cls-1" x1="244" y1="38.59" x2="244" y2="38.59"/><polygon class="cls-3" points="244 140.62 220 154.48 196 140.62 220 126.77 244 140.62"/><polygon class="cls-4" points="208 119.84 196 126.77 184 133.7 172 126.77 160 119.84 172 112.91 184 105.98 196 112.91 208 119.84"/><polygon class="cls-5" points="244 68.62 220 54.77 196 68.62 220 82.48 244 68.62"/><polygon class="cls-6" points="244 100.62 220 114.48 220 82.48 244 68.62 244 100.62"/><polygon class="cls-7" points="196 100.62 220 114.48 220 82.48 196 68.62 196 100.62"/><polygon class="cls-1" points="220 54.77 196 68.62 196 100.62 220 114.48 244 100.62 244 68.62 220 54.77"/><polygon class="cls-4" points="280 161.41 268 168.34 256 175.26 244 168.34 232 161.41 244 154.48 256 147.55 268 154.48 280 161.41"/><line class="cls-3" x1="229.19" y1="140.62" x2="210.81" y2="140.62"/><line class="cls-3" x1="220" y1="135.32" x2="220" y2="145.93"/><line class="cls-1" x1="220" y1="54.77" x2="220" y2="54.77"/><line class="cls-2" x1="220" y1="48.76" x2="220" y2="27.74"/><line class="cls-1" x1="220" y1="24.73" x2="220" y2="24.73"/><line class="cls-1" x1="196" y1="68.62" x2="196" y2="68.62"/><line class="cls-2" x1="196" y1="62.62" x2="196" y2="41.59"/><line class="cls-1" x1="196" y1="38.59" x2="196" y2="38.59"/><rect class="cls-8" width="440" height="200"/></g></g></svg>