<svg xmlns="http://www.w3.org/2000/svg" viewBox="0 0 126 126"><defs><style>.cls-1{fill:#f2f4f6;}.cls-2{fill:#b8bfca;}.cls-3{fill:#d5dae0;}.cls-4,.cls-5,.cls-6,.cls-7,.cls-8{fill:none;}.cls-5{stroke:#fff;}.cls-5,.cls-6,.cls-7,.cls-8{stroke-linecap:round;stroke-linejoin:round;stroke-width:2px;}.cls-6{stroke:#627386;}.cls-7,.cls-8{stroke:#1b6dc6;}.cls-8{stroke-dasharray:0 6.81;}.cls-9{fill:#e9f6fe;}.cls-10{fill:#d3edfd;}.cls-11{fill:#91d2fb;}</style></defs><title>dominos_2(1x1)</title><g id="Layer_2" data-name="Layer 2"><g id="Illustrations"><polygon class="cls-1" points="117.36 25.63 113.97 27.58 109.14 30.37 99.18 24.62 89.22 18.87 92.61 16.91 97.44 14.13 107.4 19.88 117.36 25.63"/><polygon class="cls-2" points="117.36 25.63 117.36 45.13 117.36 64.65 113.97 66.6 109.14 69.39 109.14 49.88 109.14 30.37 113.97 27.58 117.36 25.63"/><polygon class="cls-3" points="89.22 18.87 89.22 38.38 89.22 57.89 99.18 63.64 109.14 69.39 109.14 49.88 109.14 30.37 99.18 24.62 89.22 18.87"/><line class="cls-4" x1="103.42" y1="46.58" x2="94.94" y2="41.68"/><polygon class="cls-5" points="117.36 25.63 113.97 27.58 109.14 30.37 99.18 24.62 89.22 18.87 92.61 16.91 97.44 14.13 107.4 19.88 117.36 25.63"/><polygon class="cls-5" points="117.36 25.63 117.36 45.13 117.36 64.65 113.97 66.6 109.14 69.39 109.14 49.88 109.14 30.37 113.97 27.58 117.36 25.63"/><polygon class="cls-5" points="89.22 18.87 89.22 38.38 89.22 57.89 99.18 63.64 109.14 69.39 109.14 49.88 109.14 30.37 99.18 24.62 89.22 18.87"/><polygon class="cls-6" points="107.4 19.88 97.44 14.13 92.61 16.91 89.22 18.87 89.22 38.38 89.22 57.89 99.18 63.64 109.14 69.39 113.97 66.6 117.36 64.65 117.36 45.13 117.36 25.63 107.4 19.88"/><line class="cls-7" x1="46.25" y1="101.66" x2="46.25" y2="101.66"/><line class="cls-8" x1="40.35" y1="105.07" x2="31.51" y2="110.17"/><line class="cls-7" x1="28.56" y1="111.87" x2="28.56" y2="111.87"/><line class="cls-7" x1="26.33" y1="90.16" x2="26.33" y2="90.16"/><line class="cls-8" x1="20.43" y1="93.57" x2="11.59" y2="98.67"/><line class="cls-7" x1="8.64" y1="100.38" x2="8.64" y2="100.38"/><polygon class="cls-1" points="97.47 37.11 94.08 39.06 89.25 41.85 79.29 36.1 69.33 30.35 72.72 28.39 77.56 25.61 87.51 31.36 97.47 37.11"/><polygon class="cls-2" points="97.47 37.11 97.47 56.62 97.47 76.13 94.08 78.08 89.25 80.87 89.25 61.36 89.25 41.85 94.08 39.06 97.47 37.11"/><polygon class="cls-3" points="69.33 30.35 69.33 49.86 69.33 69.37 79.29 75.12 89.25 80.87 89.25 61.36 89.25 41.85 79.29 36.1 69.33 30.35"/><line class="cls-4" x1="83.53" y1="58.06" x2="75.05" y2="53.17"/><polygon class="cls-5" points="97.47 37.11 94.08 39.06 89.25 41.85 79.29 36.1 69.33 30.35 72.72 28.39 77.56 25.61 87.51 31.36 97.47 37.11"/><polygon class="cls-5" points="97.47 37.11 97.47 56.62 97.47 76.13 94.08 78.08 89.25 80.87 89.25 61.36 89.25 41.85 94.08 39.06 97.47 37.11"/><polygon class="cls-5" points="69.33 30.35 69.33 49.86 69.33 69.37 79.29 75.12 89.25 80.87 89.25 61.36 89.25 41.85 79.29 36.1 69.33 30.35"/><polygon class="cls-6" points="87.51 31.36 77.56 25.61 72.72 28.39 69.33 30.35 69.33 49.86 69.33 69.37 79.29 75.12 89.25 80.87 94.08 78.08 97.47 76.13 97.47 56.62 97.47 37.11 87.51 31.36"/><polygon class="cls-1" points="77.59 48.59 74.2 50.54 69.37 53.33 59.41 47.58 49.45 41.83 52.84 39.88 57.67 37.09 67.63 42.84 77.59 48.59"/><polygon class="cls-2" points="77.59 48.59 77.59 68.1 77.59 87.61 74.2 89.56 69.37 92.35 69.37 72.84 69.37 53.33 74.2 50.54 77.59 48.59"/><polygon class="cls-3" points="49.45 41.83 49.45 61.34 49.45 80.86 59.41 86.6 69.37 92.35 69.37 72.84 69.37 53.33 59.41 47.58 49.45 41.83"/><line class="cls-4" x1="63.65" y1="69.54" x2="55.17" y2="64.65"/><polygon class="cls-5" points="77.59 48.59 74.2 50.54 69.37 53.33 59.41 47.58 49.45 41.83 52.84 39.88 57.67 37.09 67.63 42.84 77.59 48.59"/><polygon class="cls-5" points="77.59 48.59 77.59 68.1 77.59 87.61 74.2 89.56 69.37 92.35 69.37 72.84 69.37 53.33 74.2 50.54 77.59 48.59"/><polygon class="cls-5" points="49.45 41.83 49.45 61.34 49.45 80.86 59.41 86.6 69.37 92.35 69.37 72.84 69.37 53.33 59.41 47.58 49.45 41.83"/><polygon class="cls-6" points="67.63 42.84 57.67 37.09 52.84 39.88 49.45 41.83 49.45 61.34 49.45 80.86 59.41 86.6 69.37 92.35 74.2 89.57 77.59 87.61 77.59 68.1 77.59 48.59 67.63 42.84"/><polygon class="cls-9" points="47.81 45.84 67.73 57.34 59.82 57.83 39.91 46.33 47.81 45.84"/><path class="cls-10" d="M46.25,101.66l-10-5.75-10-5.75,6.79-21.91,6.79-21.92,10,5.75,10,5.75L53,79.75Z"/><polygon class="cls-11" points="61.54 57.72 60.7 57.77 60.7 57.77 60.66 57.78 59.82 57.83 46.25 101.66 52.43 101.28 52.62 101.27 53.31 101.23 54.15 101.17 67.73 57.34 61.54 57.72"/><polygon class="cls-5" points="47.81 45.84 67.73 57.34 59.82 57.83 39.91 46.33 47.81 45.84"/><path class="cls-5" d="M46.25,101.66l-10-5.75-10-5.75,6.79-21.91,6.79-21.92,10,5.75,10,5.75L53,79.75Z"/><polygon class="cls-5" points="61.54 57.72 60.7 57.77 60.7 57.77 60.66 57.78 59.82 57.83 46.25 101.66 52.43 101.28 52.62 101.27 53.31 101.23 54.15 101.17 67.73 57.34 61.54 57.72"/><path class="cls-7" d="M67.73,57.34,47.81,45.84l-7.9.49h0L33.12,68.25,26.33,90.16l10,5.75,10,5.75,6.18-.38h.19l.69,0,.84-.06L67.73,57.34Z"/><rect class="cls-4" width="126" height="126"/></g></g></svg>