<svg xmlns="http://www.w3.org/2000/svg" viewBox="0 0 126 126"><defs><style>.cls-1{fill:#91d2fb;}.cls-2{fill:#d3edfd;}.cls-3{fill:#e9f6fe;}.cls-4,.cls-5,.cls-6{fill:none;}.cls-4{stroke:#fff;}.cls-4,.cls-5{stroke-linecap:round;stroke-linejoin:round;stroke-width:2px;}.cls-5{stroke:#1b6dc6;}</style></defs><title>dominos_3(1x1)</title><g id="Layer_2" data-name="Layer 2"><g id="Illustrations"><polygon class="cls-1" points="123.2 37.8 123.2 46.3 88.86 66.12 88.86 57.62 123.2 37.8"/><polygon class="cls-2" points="88.86 66.12 88.86 57.62 68.68 45.97 68.68 54.47 88.86 66.12"/><path class="cls-3" d="M123.2,37.8,113.1,32,103,26.15,85.85,36.06,68.68,46,78.77,51.8l10.09,5.82L106,47.71Z"/><polygon class="cls-4" points="123.2 37.8 123.2 46.3 88.86 66.12 88.86 57.62 123.2 37.8"/><polygon class="cls-4" points="88.86 66.12 88.86 57.62 68.68 45.97 68.68 54.47 88.86 66.12"/><path class="cls-4" d="M123.2,37.8,113.1,32,103,26.15,85.85,36.06,68.68,46,78.77,51.8l10.09,5.82L106,47.71Z"/><path class="cls-5" d="M113.1,32,103,26.15,85.85,36.06,68.68,46v8.5L88.86,66.12,123.2,46.3V37.8Z"/><polygon class="cls-3" points="98.64 37.7 88.72 31.97 78.8 26.24 62.77 42.03 46.74 57.83 56.66 63.56 66.59 69.29 82.61 53.49 98.64 37.7"/><polygon class="cls-1" points="101.4 45 100.61 42.91 98.64 37.7 66.59 69.29 68.96 75.56 68.96 75.56 69.35 76.59 101.4 45"/><polygon class="cls-2" points="69.35 76.59 49.5 65.14 46.74 57.83 66.59 69.29 69.35 76.59"/><polygon class="cls-4" points="98.64 37.7 88.72 31.97 78.8 26.24 62.77 42.03 46.74 57.83 56.66 63.56 66.59 69.29 82.61 53.49 98.64 37.7"/><polygon class="cls-4" points="101.4 45 100.61 42.91 98.64 37.7 66.59 69.29 68.96 75.56 68.96 75.56 69.35 76.59 101.4 45"/><polygon class="cls-4" points="69.35 76.59 49.5 65.14 46.74 57.83 66.59 69.29 69.35 76.59"/><polygon class="cls-5" points="101.4 45 100.61 42.91 98.64 37.7 88.72 31.97 78.8 26.24 62.77 42.03 46.74 57.83 46.74 57.83 46.74 57.83 46.74 57.83 46.74 57.83 49.5 65.14 69.35 76.59 69.1 75.93 69.35 76.59 101.4 45"/><polygon class="cls-3" points="76.67 49.33 66.75 43.6 56.83 37.87 40.8 53.67 24.77 69.46 34.7 75.19 44.62 80.92 60.65 65.12 76.67 49.33"/><polygon class="cls-1" points="79.43 56.63 78.64 54.54 76.67 49.33 44.62 80.92 46.99 87.19 46.99 87.19 47.38 88.22 79.43 56.63"/><polygon class="cls-2" points="47.38 88.22 27.53 76.77 24.77 69.46 44.62 80.92 47.38 88.22"/><polygon class="cls-4" points="76.67 49.33 66.75 43.6 56.83 37.87 40.8 53.67 24.77 69.46 34.7 75.19 44.62 80.92 60.65 65.12 76.67 49.33"/><polygon class="cls-4" points="79.43 56.63 78.64 54.54 76.67 49.33 44.62 80.92 46.99 87.19 46.99 87.19 47.38 88.22 79.43 56.63"/><polygon class="cls-4" points="47.38 88.22 27.53 76.77 24.77 69.46 44.62 80.92 47.38 88.22"/><polygon class="cls-5" points="79.43 56.63 78.64 54.54 76.67 49.33 66.75 43.6 56.83 37.87 40.8 53.67 24.77 69.46 24.77 69.46 24.77 69.46 24.77 69.46 24.77 69.46 27.53 76.77 47.38 88.22 47.13 87.57 47.38 88.22 79.43 56.63"/><polygon class="cls-3" points="54.7 60.96 44.78 55.23 34.86 49.5 18.83 65.3 2.8 81.1 12.73 86.82 22.65 92.55 38.67 76.76 54.7 60.96"/><polygon class="cls-1" points="57.46 68.26 56.67 66.18 54.7 60.96 22.65 92.55 25.02 98.83 25.02 98.83 25.41 99.86 57.46 68.26"/><polygon class="cls-2" points="25.41 99.86 5.57 88.4 2.8 81.1 22.65 92.55 25.41 99.86"/><polygon class="cls-4" points="54.7 60.96 44.78 55.23 34.86 49.5 18.83 65.3 2.8 81.1 12.73 86.82 22.65 92.55 38.67 76.76 54.7 60.96"/><polygon class="cls-4" points="57.46 68.26 56.67 66.18 54.7 60.96 22.65 92.55 25.02 98.83 25.02 98.83 25.41 99.86 57.46 68.26"/><polygon class="cls-4" points="25.41 99.86 5.57 88.4 2.8 81.1 22.65 92.55 25.41 99.86"/><polygon class="cls-5" points="57.46 68.26 56.67 66.18 54.7 60.96 44.78 55.23 34.86 49.5 18.83 65.3 2.8 81.1 2.8 81.1 2.8 81.1 2.8 81.1 2.8 81.1 5.57 88.4 25.41 99.86 25.16 99.2 25.41 99.86 57.46 68.26"/><rect class="cls-6" width="126" height="126"/></g></g></svg>