<svg xmlns="http://www.w3.org/2000/svg" viewBox="0 0 126 126"><defs><style>.cls-1{fill:#f2f4f6;}.cls-2{fill:#b8bfca;}.cls-3{fill:#d5dae0;}.cls-10,.cls-11,.cls-12,.cls-4,.cls-5,.cls-6{fill:none;}.cls-5{stroke:#fff;}.cls-10,.cls-11,.cls-12,.cls-5,.cls-6{stroke-linecap:round;stroke-linejoin:round;stroke-width:2px;}.cls-6{stroke:#627386;}.cls-7{fill:#e9f6fe;}.cls-8{fill:#91d2fb;}.cls-9{fill:#d3edfd;}.cls-10,.cls-12{stroke:#1b6dc6;}.cls-11{stroke:#bde4fd;}.cls-12{stroke-dasharray:0 6.81;}</style></defs><title>dominos_1(1x1)</title><g id="Layer_2" data-name="Layer 2"><g id="Illustrations"><polygon class="cls-1" points="106.9 37.32 103.51 39.28 98.68 42.07 88.72 36.32 78.76 30.57 82.15 28.61 86.98 25.82 96.94 31.57 106.9 37.32"/><polygon class="cls-2" points="106.9 37.32 106.9 56.83 106.9 76.34 103.51 78.3 98.68 81.09 98.68 61.58 98.68 42.07 103.51 39.28 106.9 37.32"/><polygon class="cls-3" points="78.76 30.57 78.76 50.08 78.76 69.59 88.72 75.34 98.68 81.09 98.68 61.58 98.68 42.07 88.72 36.32 78.76 30.57"/><line class="cls-4" x1="92.96" y1="58.28" x2="84.48" y2="53.38"/><polygon class="cls-5" points="106.9 37.32 103.51 39.28 98.68 42.07 88.72 36.32 78.76 30.57 82.15 28.61 86.98 25.82 96.94 31.57 106.9 37.32"/><polygon class="cls-5" points="106.9 37.32 106.9 56.83 106.9 76.34 103.51 78.3 98.68 81.09 98.68 61.58 98.68 42.07 103.51 39.28 106.9 37.32"/><polygon class="cls-5" points="78.76 30.57 78.76 50.08 78.76 69.59 88.72 75.34 98.68 81.09 98.68 61.58 98.68 42.07 88.72 36.32 78.76 30.57"/><polygon class="cls-6" points="96.94 31.57 86.98 25.82 82.15 28.61 78.76 30.57 78.76 50.08 78.76 69.59 88.72 75.34 98.68 81.09 103.51 78.3 106.9 76.34 106.9 56.83 106.9 37.32 96.94 31.57"/><polygon class="cls-1" points="87.01 48.8 83.62 50.76 78.79 53.55 68.83 47.8 58.87 42.05 62.27 40.09 67.09 37.3 77.05 43.05 87.01 48.8"/><polygon class="cls-2" points="87.01 48.8 87.01 68.31 87.01 87.83 83.62 89.78 78.79 92.57 78.79 73.06 78.79 53.55 83.62 50.76 87.01 48.8"/><polygon class="cls-3" points="58.87 42.05 58.87 61.56 58.87 81.07 68.83 86.82 78.79 92.57 78.79 73.06 78.79 53.55 68.83 47.8 58.87 42.05"/><line class="cls-4" x1="73.07" y1="69.76" x2="64.59" y2="64.86"/><polygon class="cls-5" points="87.01 48.8 83.62 50.76 78.79 53.55 68.83 47.8 58.87 42.05 62.27 40.09 67.09 37.3 77.05 43.05 87.01 48.8"/><polygon class="cls-5" points="87.01 48.8 87.01 68.31 87.01 87.83 83.62 89.78 78.79 92.57 78.79 73.06 78.79 53.55 83.62 50.76 87.01 48.8"/><polygon class="cls-5" points="58.87 42.05 58.87 61.56 58.87 81.07 68.83 86.82 78.79 92.57 78.79 73.06 78.79 53.55 68.83 47.8 58.87 42.05"/><polygon class="cls-6" points="77.05 43.05 67.09 37.3 62.27 40.09 58.87 42.05 58.87 61.56 58.87 81.07 68.83 86.82 78.79 92.57 83.62 89.78 87.01 87.83 87.01 68.31 87.01 48.8 77.05 43.05"/><polygon class="cls-1" points="67.13 60.28 63.74 62.24 58.91 65.03 48.95 59.28 38.99 53.53 42.38 51.57 47.21 48.78 57.17 54.53 67.13 60.28"/><polygon class="cls-2" points="67.13 60.28 67.13 79.8 67.13 99.31 63.74 101.26 58.91 104.05 58.91 84.54 58.91 65.03 63.74 62.24 67.13 60.28"/><polygon class="cls-3" points="38.99 53.53 38.99 73.04 38.99 92.55 48.95 98.3 58.91 104.05 58.91 84.54 58.91 65.03 48.95 59.28 38.99 53.53"/><line class="cls-4" x1="53.19" y1="81.24" x2="44.71" y2="76.34"/><polygon class="cls-5" points="67.13 60.28 63.74 62.24 58.91 65.03 48.95 59.28 38.99 53.53 42.38 51.57 47.21 48.78 57.17 54.53 67.13 60.28"/><polygon class="cls-5" points="67.13 60.28 67.13 79.8 67.13 99.31 63.74 101.26 58.91 104.05 58.91 84.54 58.91 65.03 63.74 62.24 67.13 60.28"/><polygon class="cls-5" points="38.99 53.53 38.99 73.04 38.99 92.55 48.95 98.3 58.91 104.05 58.91 84.54 58.91 65.03 48.95 59.28 38.99 53.53"/><polygon class="cls-6" points="57.17 54.53 47.21 48.78 42.38 51.57 38.99 53.53 38.99 73.04 38.99 92.55 48.95 98.3 58.91 104.05 63.73 101.26 67.13 99.31 67.13 79.8 67.13 60.28 57.17 54.53"/><polygon class="cls-7" points="47.24 42.39 43.85 44.35 39.02 47.13 29.06 41.39 19.1 35.64 22.49 33.68 27.32 30.89 37.28 36.64 47.24 42.39"/><polygon class="cls-8" points="47.24 42.39 47.24 61.9 47.24 81.41 43.85 83.37 39.02 86.16 39.02 66.65 39.02 47.13 43.85 44.35 47.24 42.39"/><polygon class="cls-9" points="19.1 35.64 19.1 55.15 19.1 74.66 29.06 80.41 39.02 86.16 39.02 66.65 39.02 47.13 29.06 41.39 19.1 35.64"/><line class="cls-4" x1="33.3" y1="63.34" x2="24.82" y2="58.45"/><polygon class="cls-5" points="47.24 42.39 43.85 44.35 39.02 47.13 29.06 41.39 19.1 35.64 22.49 33.68 27.32 30.89 37.28 36.64 47.24 42.39"/><polygon class="cls-5" points="47.24 42.39 47.24 61.9 47.24 81.41 43.85 83.37 39.02 86.16 39.02 66.65 39.02 47.13 43.85 44.35 47.24 42.39"/><polygon class="cls-5" points="19.1 35.64 19.1 55.15 19.1 74.66 29.06 80.41 39.02 86.16 39.02 66.65 39.02 47.13 29.06 41.39 19.1 35.64"/><polygon class="cls-10" points="37.28 36.64 27.32 30.89 22.49 33.68 19.1 35.64 19.1 55.15 19.1 74.66 29.06 80.41 39.02 86.16 43.85 83.37 47.24 81.41 47.24 61.9 47.24 42.39 37.28 36.64"/><polygon class="cls-11" points="47.24 110.79 43.85 112.74 39.02 115.53 29.06 109.78 19.1 104.03 22.49 102.08 27.32 99.29 37.28 105.04 47.24 110.79"/><line class="cls-10" x1="27.32" y1="30.89" x2="27.32" y2="30.89"/><line class="cls-12" x1="27.32" y1="24.08" x2="27.32" y2="13.87"/><line class="cls-10" x1="27.32" y1="10.47" x2="27.32" y2="10.47"/><line class="cls-10" x1="47.24" y1="42.39" x2="47.24" y2="42.39"/><line class="cls-12" x1="47.24" y1="35.58" x2="47.24" y2="25.37"/><line class="cls-10" x1="47.24" y1="21.97" x2="47.24" y2="21.97"/><rect class="cls-4" width="126" height="126"/></g></g></svg>