<svg xmlns="http://www.w3.org/2000/svg" viewBox="0 0 440 200"><defs><style>.cls-1,.cls-10,.cls-12,.cls-13,.cls-6{fill:none;}.cls-1{stroke:#1b6dc6;}.cls-1,.cls-10,.cls-11,.cls-12,.cls-2,.cls-3,.cls-4,.cls-5,.cls-6,.cls-7,.cls-8,.cls-9{stroke-linecap:round;stroke-linejoin:round;stroke-width:2px;}.cls-2,.cls-4,.cls-7{fill:#f2f4f6;}.cls-10,.cls-11,.cls-2,.cls-3{stroke:#627386;}.cls-3{fill:#fff;}.cls-4,.cls-5,.cls-6{stroke:#b8bfca;}.cls-11,.cls-5,.cls-9{fill:#d5dae0;}.cls-12,.cls-7,.cls-8,.cls-9{stroke:#fff;}.cls-8{fill:#b8bfca;}</style></defs><title>exit_2(1x1)</title><g id="Layer_2" data-name="Layer 2"><g id="Illustrations"><line class="cls-1" x1="268.23" y1="84.03" x2="220" y2="111.88"/><polygon class="cls-2" points="279 73.33 220 107.39 161 73.33 220 39.26 279 73.33"/><polygon class="cls-3" points="169.34 78.14 220 107.39 270.65 78.14 220 48.9 169.34 78.14"/><polygon class="cls-4" points="229.93 45 229.93 54.63 270.65 78.14 279 73.33 229.93 45"/><polygon class="cls-5" points="279 73.33 279 145.94 268.4 152.05 268.4 152.05 230.59 173.88 230.59 173.88 220 180 220 107.39 279 73.33"/><polygon class="cls-2" points="220 107.39 220 180 161 145.94 161 73.33 220 107.39"/><line class="cls-6" x1="220" y1="107.39" x2="161" y2="73.33"/><polygon class="cls-7" points="229.93 25.73 170.93 59.79 161 54.06 220 20 229.93 25.73"/><polygon class="cls-8" points="170.93 79.06 170.93 59.79 229.93 25.73 229.93 54.63 179.27 83.87 170.93 79.06"/><polygon class="cls-9" points="161 54.06 161 73.33 170.93 79.06 170.93 59.79 161 54.06"/><polygon class="cls-10" points="220 20 161 54.06 161 73.33 170.93 79.06 170.93 79.06 179.27 83.87 229.93 54.63 229.93 25.73 220 20"/><polygon class="cls-10" points="220 107.39 220 107.39 161 73.33 161 145.94 220 180 220 180 230.59 173.88 230.59 173.88 268.4 152.05 279 145.94 279 73.33 220 107.39"/><line class="cls-10" x1="279" y1="73.33" x2="229.93" y2="45"/><polygon class="cls-11" points="201.94 119.19 201.94 147.11 179.26 134.01 179.26 106.09 201.94 119.19"/><polyline class="cls-12" points="188.79 119.14 193.57 128.27 188.79 131.88"/><line class="cls-12" x1="239.87" y1="86.29" x2="259.13" y2="75.16"/><rect class="cls-13" width="440" height="200"/></g></g></svg>