<svg xmlns="http://www.w3.org/2000/svg" viewBox="0 0 440 200"><defs><style>.cls-1,.cls-10,.cls-14,.cls-7,.cls-9{fill:none;}.cls-1{stroke:#1b6dc6;}.cls-1,.cls-10,.cls-11,.cls-12,.cls-13,.cls-2,.cls-3,.cls-4,.cls-5,.cls-7,.cls-8,.cls-9{stroke-linecap:round;stroke-linejoin:round;stroke-width:2px;}.cls-13,.cls-2,.cls-5{fill:#d5dae0;}.cls-2,.cls-7,.cls-8{stroke:#627386;}.cls-3{fill:#fff;}.cls-3,.cls-4,.cls-5,.cls-9{stroke:#b8bfca;}.cls-11,.cls-4,.cls-8{fill:#f2f4f6;}.cls-12,.cls-6{fill:#b8bfca;}.cls-10,.cls-11,.cls-12,.cls-13{stroke:#fff;}</style></defs><title>exit_1(1x1)</title><g id="Layer_2" data-name="Layer 2"><g id="Illustrations"><line class="cls-1" x1="267.83" y1="74.61" x2="220" y2="102.23"/><polygon class="cls-2" points="278.5 64 220 97.78 161.5 64 220 30.23 278.5 64"/><polygon class="cls-3" points="169.77 68.78 210.16 92.09 260.38 63.09 220 39.78 169.77 68.78"/><polygon class="cls-4" points="220 30.23 220 39.78 270.23 68.78 278.5 64 220 30.23"/><path class="cls-5" d="M220,97.77v72l10.5-6.06v-35a39.29,39.29,0,0,1,.83-7.84L268,142.06h0L278.5,136V64Z"/><path class="cls-2" d="M249.25,92.91c10.35-6,18.75.37,18.75,14.17v35l-36.67-21.17C233.69,109.32,240.82,97.78,249.25,92.91Z"/><path class="cls-6" d="M249.25,92.91c-8.43,4.87-15.56,16.41-17.92,28l19,11h0L267.84,104C266.67,92.37,258.8,87.4,249.25,92.91Z"/><path class="cls-7" d="M249.25,92.91c10.35-6,18.75.37,18.75,14.17v35l-36.67-21.17C233.69,109.32,240.82,97.78,249.25,92.91Z"/><polygon class="cls-8" points="220 97.78 220 169.78 161.5 136 161.5 64 220 97.78"/><polygon class="cls-2" points="202.09 109.48 202.09 137.4 179.41 124.3 179.41 96.38 202.09 109.48"/><line class="cls-9" x1="220" y1="97.77" x2="161.5" y2="64"/><polygon class="cls-9" points="220 97.78 220 169.78 161.5 136 161.5 64 220 97.78"/><polyline class="cls-10" points="188.94 109.43 193.72 118.55 188.94 122.17"/><path class="cls-7" d="M220,97.77,161.5,64v72L220,169.77l10.5-6.06v-35a39.29,39.29,0,0,1,.83-7.84L268,142.06,278.5,136V64Z"/><path class="cls-7" d="M230.5,163.71v-35a39.29,39.29,0,0,1,.83-7.84"/><polygon class="cls-7" points="278.5 64 220 30.23 161.5 64 220 97.78 270.23 68.78 270.23 68.78 278.5 64"/><polygon class="cls-11" points="278.5 44.9 220 78.67 210.16 72.99 268.66 39.22 278.5 44.9"/><polygon class="cls-12" points="278.5 44.9 278.5 64 220 97.78 220 78.67 278.5 44.9"/><polygon class="cls-13" points="210.16 72.99 210.16 92.09 220 97.78 220 78.67 210.16 72.99"/><polygon class="cls-7" points="268.66 39.22 210.16 72.99 210.16 92.09 220 97.78 278.5 64 278.5 44.9 268.66 39.22"/><line class="cls-10" x1="239.7" y1="76.85" x2="258.8" y2="65.82"/><rect class="cls-14" width="440" height="200"/></g></g></svg>