<svg xmlns="http://www.w3.org/2000/svg" viewBox="0 0 126 126"><defs><style>.cls-1{fill:#d5dae0;}.cls-1,.cls-3,.cls-4{stroke:#627386;stroke-linecap:round;stroke-linejoin:round;stroke-width:2px;}.cls-2{fill:#b8bfca;}.cls-3,.cls-6{fill:none;}.cls-4{fill:#fff;}.cls-5{fill:#f2f4f6;}</style></defs><title>file_not_found(1x1)</title><g id="Layer_2" data-name="Layer 2"><g id="Illustrations"><path class="cls-1" d="M100.11,57.9a4.73,4.73,0,0,0-2.38-4.11l-8.78-5a9.64,9.64,0,0,0-10.51.58L40.54,27.57a1.87,1.87,0,0,0-2.8,1.61V78.34l50.53,39.81A5.85,5.85,0,0,0,97,123.22,6,6,0,0,0,100,118l.14-49.46h0Z"/><path class="cls-2" d="M80.05,75.66v36l8.22,6.47A5.85,5.85,0,0,0,97,123.22,6,6,0,0,0,100,118l0-18.16L88.4,93Z"/><path class="cls-3" d="M100.11,57.9a4.73,4.73,0,0,0-2.38-4.11l-8.78-5a9.64,9.64,0,0,0-10.51.58L40.54,27.57a1.87,1.87,0,0,0-2.8,1.61V78.34l50.53,39.81A5.85,5.85,0,0,0,97,123.22,6,6,0,0,0,100,118l.14-49.46h0Z"/><path class="cls-4" d="M88.27,118.15,88.49,78a4.67,4.67,0,0,0-2.36-4.08L29.2,41.18A2.14,2.14,0,0,0,26,43l-.11,35A13.31,13.31,0,0,0,32.6,89.6l58.48,33.59,0,0A5.74,5.74,0,0,1,88.27,118.15Z"/><path class="cls-5" d="M88.27,118.15l0-10.13L32.6,76a13.33,13.33,0,0,1-6.67-10.56l0,12.54A13.31,13.31,0,0,0,32.6,89.6l58.48,33.59,0,0A5.74,5.74,0,0,1,88.27,118.15Z"/><path class="cls-2" d="M75.65,9.55a14.55,14.55,0,0,1,3.27,8.67,4.76,4.76,0,0,1-.86,2.91,7,7,0,0,1-3.48,2,4.56,4.56,0,0,0-2.32,1.33,4.41,4.41,0,0,0-.48,2.35L64.9,22.85v-.79a8.6,8.6,0,0,1,.41-3,3.45,3.45,0,0,1,1.19-1.61,17.29,17.29,0,0,1,3.54-1.61c1-.34,1.47-.9,1.47-1.66a3.87,3.87,0,0,0-.58-2.1,4.68,4.68,0,0,0-1.78-1.65A2.09,2.09,0,0,0,67,10.15c-.56.33-.92,1.25-1.08,2.78l-7-5c.25-2.82,1.2-4.65,2.84-5.51S65.91,2.08,69.29,4A20.36,20.36,0,0,1,75.65,9.55Z"/><polygon class="cls-2" points="64.64 33.78 64.66 26.36 72.03 30.58 72 38 64.64 33.78"/><path class="cls-3" d="M88.27,118.15,88.49,78a4.67,4.67,0,0,0-2.36-4.08L29.2,41.18A2.14,2.14,0,0,0,26,43l-.11,35A13.31,13.31,0,0,0,32.6,89.6l58.48,33.59,0,0A5.74,5.74,0,0,1,88.27,118.15Z"/><rect class="cls-6" width="126" height="126"/></g></g></svg>