<svg xmlns="http://www.w3.org/2000/svg" viewBox="0 0 126 126"><defs><style>.cls-1,.cls-6{fill:#b8bfca;}.cls-1,.cls-2,.cls-3,.cls-4,.cls-8{stroke:#627386;}.cls-1,.cls-2,.cls-3,.cls-4,.cls-7,.cls-8{stroke-linecap:round;stroke-linejoin:round;stroke-width:2px;}.cls-2{fill:#fff;}.cls-3,.cls-5{fill:#d5dae0;}.cls-4,.cls-9{fill:#f2f4f6;}.cls-10,.cls-7,.cls-8{fill:none;}.cls-7{stroke:#b8bfca;}</style></defs><title>forklift(1x1)</title><g id="Layer_2" data-name="Layer 2"><g id="Illustrations"><path class="cls-1" d="M42.27,88.3,37.7,78.64l5.62-3.25h0a4.57,4.57,0,0,1,4.67.37c4,2.28,7.15,8.4,7.15,13.66,0,2.88-1,4.9-2.47,5.78h0l-5.62,3.25L42.27,88.32Z"/><path class="cls-1" d="M13.38,71.62,8.81,62l5.63-3.25h0a4.57,4.57,0,0,1,4.67.37c3.95,2.28,7.15,8.4,7.15,13.66,0,2.88-1,4.9-2.47,5.78h0l-5.62,3.24L13.39,71.64Z"/><path class="cls-2" d="M56.35,81.6,89.67,62.36l-50.27-29a7.31,7.31,0,0,0-6.57,0L6.08,48.78c-1.8,1-1.8,2.75,0,3.79Z"/><path class="cls-3" d="M6.08,52.57,44.65,73.84,29.49,20.23,62.81,4.75V1l4.13,2.39,8.92,5.15c7.63,4.4,13.81,16.21,13.81,26.38V73.28L56.35,92.52l-50.27-29a2.3,2.3,0,0,1-1.35-1.9V50.68A2.3,2.3,0,0,0,6.08,52.57Z"/><path class="cls-4" d="M29.49,20.23,62.81,4.75V1l4.13,2.39,8.92,5.15a20.22,20.22,0,0,1,3.83,2.93h0l.37.38c.4.4.8.82,1.18,1.27.19.21.37.41.55.63l.45.57c.19.25.39.49.58.75l.4.57.58.83.36.58c.19.3.38.59.55.9l.13.2h0a34.5,34.5,0,0,1,4.84,16.76v5.45L56.35,59.61,42.41,35.45l-9-1.32Z"/><path class="cls-4" d="M6.08,52.57,29.49,66.09V20.23l13.06,7.54c7.62,4.4,13.8,21.67,13.8,31.84v22l.21,10.8-.21.12-50.27-29a2.3,2.3,0,0,1-1.35-1.9V50.68A2.3,2.3,0,0,0,6.08,52.57Z"/><path class="cls-2" d="M29.49,44.1V20.23l13.06,7.54c7.62,4.4,13.8,21.67,13.8,31.84Z"/><polygon class="cls-5" points="29.49 44.1 29.49 20.23 34.6 22.89 34.6 46.76 29.49 44.1"/><ellipse class="cls-3" cx="13.49" cy="71.87" rx="6.21" ry="10.98" transform="translate(-27.06 11.02) rotate(-23.05)"/><ellipse class="cls-6" cx="13.73" cy="71.74" rx="1.93" ry="3.41" transform="translate(-26.99 11.1) rotate(-23.05)"/><line class="cls-7" x1="89.67" y1="40.37" x2="62.81" y2="24.87"/><ellipse class="cls-3" cx="42.38" cy="88.55" rx="6.21" ry="10.98" transform="translate(-31.29 23.66) rotate(-23.05)"/><ellipse class="cls-6" cx="42.62" cy="88.41" rx="1.93" ry="3.41" transform="translate(-31.22 23.75) rotate(-23.05)"/><line class="cls-7" x1="34.6" y1="22.89" x2="34.6" y2="46.76"/><path class="cls-8" d="M29.49,44.1V20.23l13.06,7.54c7.62,4.4,13.8,21.67,13.8,31.84Z"/><path class="cls-6" d="M46.49,75.92a.41.41,0,0,0,.14.15l2.7,1.56c.09.05.17,0,.21,0a.43.43,0,0,0-.06-.37l-4.94-8.4c-.11-.19-.11-.42,0-.48l4.94-2.73a.26.26,0,0,0,.08-.23.5.5,0,0,0-.22-.36l-2.6-1.51a.14.14,0,0,0-.14,0l-5.38,2.93,0,0c-.08,0-.08.22,0,.36l0,.1Z"/><path class="cls-6" d="M40.39,65.13c-.09.05-.21,0-.3-.17l-4.31-7.27a.49.49,0,0,1-.08-.32c0-.14.11-.18.21-.12l2.61,1.5a.49.49,0,0,1,.13.15l3,5c.11.19.11.41,0,.47Z"/><path class="cls-6" d="M40.41,67.23c-.09-.15-.22-.22-.3-.17l-4.38,2.23a.22.22,0,0,0-.08.23.53.53,0,0,0,.21.37l2.61,1.5a.12.12,0,0,0,.13,0l3-1.6c.11-.06.11-.28,0-.47Z"/><line class="cls-7" x1="62.81" y1="48.93" x2="62.81" y2="12.86"/><polygon class="cls-3" points="75.86 8.54 42.55 27.77 29.49 20.23 62.8 1 75.86 8.54"/><path class="cls-9" d="M94.55,17.75V81.17c0,5,3,10.86,6.82,13l19.9,11.49-7.65,4.41L93.72,98.62c-3.76-2.17-6.82-8-6.82-13V22.16Z"/><path class="cls-5" d="M88.61,92.58a16.62,16.62,0,0,1-1.71-7V22.16l7.65-4.41V81.17a16.66,16.66,0,0,0,1.71,7Z"/><path class="cls-8" d="M94.55,17.75V81.17c0,5,3,10.86,6.82,13l19.9,11.49-7.65,4.41L93.72,98.62c-3.76-2.17-6.82-8-6.82-13V22.16Z"/><path class="cls-9" d="M68.76,32.63V96.06c0,5,3.06,10.86,6.82,13l19.9,11.49L87.84,125l-19.9-11.49c-3.77-2.18-6.83-8-6.83-13V37.05Z"/><path class="cls-5" d="M62.82,107.47a16.62,16.62,0,0,1-1.71-7V37.05l7.65-4.42V96.06a16.7,16.7,0,0,0,1.71,7Z"/><path class="cls-8" d="M68.76,32.63V96.06c0,5,3.06,10.86,6.82,13l19.9,11.49L87.84,125l-19.9-11.49c-3.77-2.18-6.83-8-6.83-13V37.05Z"/><polygon class="cls-5" points="94.55 52.33 61.11 71.63 61.11 90.74 94.55 71.44 94.55 52.33"/><polygon class="cls-7" points="94.55 52.33 61.11 71.63 61.11 90.74 94.55 71.44 94.55 52.33"/><path class="cls-8" d="M86.93,86.49c0,.13,0,.26,0,.38s0,.36.06.54,0,.33.08.49,0,.28.07.41.08.39.13.59,0,.2.07.31.12.44.19.66l.06.22.24.72s0,.09,0,.13l.3.77,0,.07c.11.27.23.54.36.8h0a13.92,13.92,0,0,0,5.11,6l19.9,11.49,7.65-4.41-19.9-11.49a13.91,13.91,0,0,1-5.11-6q-.2-.4-.36-.81l0-.06c-.11-.26-.21-.51-.3-.77l0-.14c-.08-.24-.17-.48-.24-.72l-.06-.21c-.07-.23-.13-.45-.19-.67s0-.2-.07-.3-.09-.4-.13-.59,0-.27-.07-.41-.06-.33-.08-.5,0-.36-.06-.53,0-.26,0-.38c0-.31,0-.61,0-.91V17.75L86.9,22.16V56.74L68.76,67.22V32.63l-7.65,4.42v63.42c0,.3,0,.61,0,.91,0,.13,0,.25,0,.38l.06.53c0,.17,0,.34.08.51s0,.27.07.4.09.39.13.59a2.82,2.82,0,0,1,.07.31c.06.22.12.44.19.66l.06.22.24.72a.69.69,0,0,1,.05.13l.3.77,0,.07a14.37,14.37,0,0,0,5.48,6.84L87.84,125l7.64-4.42-19.9-11.49a13.89,13.89,0,0,1-5.11-6h0c-.12-.27-.25-.54-.36-.81l0-.06-.3-.78a1.12,1.12,0,0,0,0-.13l-.24-.72-.06-.22c-.07-.22-.13-.44-.19-.66s0-.2-.07-.3-.09-.4-.13-.6-.05-.26-.07-.4-.06-.33-.08-.5l-.06-.54c0-.12,0-.25,0-.37,0-.31,0-.61,0-.91V86.32L86.9,75.85v9.73C86.9,85.88,86.91,86.19,86.93,86.49Z"/><rect class="cls-10" width="126" height="126"/></g></g></svg>