<svg xmlns="http://www.w3.org/2000/svg" viewBox="0 0 440 200"><defs><style>.cls-1{fill:#d5dae0;}.cls-2{fill:#f2f4f6;}.cls-3{fill:#b8bfca;}.cls-10,.cls-4,.cls-5,.cls-6{fill:none;}.cls-5{stroke:#fff;}.cls-10,.cls-5,.cls-6{stroke-linecap:round;stroke-linejoin:round;stroke-width:2px;}.cls-6{stroke:#627386;}.cls-7{fill:#faabab;}.cls-8{fill:#fccccc;}.cls-9{fill:#feeeee;}.cls-10{stroke:#c44556;}</style></defs><title>generic_error_1(2x1)</title><g id="Layer_2" data-name="Layer 2"><g id="Illustrations"><path class="cls-1" d="M211.25,141.34l-9.5-5.48V86.38l9.5,5.49Z"/><polygon class="cls-2" points="221.97 85.67 211.25 91.87 201.75 86.38 212.47 80.19 221.97 85.67"/><polygon class="cls-3" points="221.97 85.67 211.25 91.87 211.25 141.34 221.97 135.15 221.97 85.67"/><path class="cls-4" d="M222,135.15l-9.5-5.49V80.19l9.5,5.48Z"/><line class="cls-5" x1="211.25" y1="91.87" x2="201.75" y2="86.38"/><line class="cls-5" x1="211.25" y1="91.87" x2="211.25" y2="141.34"/><line class="cls-5" x1="211.25" y1="91.87" x2="221.97" y2="85.67"/><polygon class="cls-6" points="212.47 80.19 201.75 86.38 201.75 135.86 211.25 141.34 221.97 135.15 221.97 85.67 212.47 80.19"/><path class="cls-7" d="M291.39,114.78v11l-42.85,24.74v-11Z"/><polygon class="cls-8" points="237.82 133.32 248.54 139.52 248.54 150.49 237.82 144.3 237.82 133.32"/><polygon class="cls-9" points="237.82 133.32 248.54 139.52 291.39 114.78 280.67 108.59 237.82 133.32"/><path class="cls-4" d="M280.67,108.59v11L237.82,144.3v-11Z"/><line class="cls-5" x1="248.54" y1="139.52" x2="248.54" y2="150.49"/><line class="cls-5" x1="248.54" y1="139.52" x2="291.39" y2="114.78"/><line class="cls-5" x1="248.54" y1="139.52" x2="237.82" y2="133.33"/><polygon class="cls-10" points="237.82 144.3 248.54 150.49 291.39 125.75 291.39 114.78 280.67 108.59 237.82 133.32 237.82 144.3"/><path class="cls-1" d="M184.68,126l-9.5-5.48V71l9.5,5.49Z"/><polygon class="cls-2" points="195.41 70.33 184.68 76.53 175.18 71.04 185.9 64.85 195.41 70.33"/><polygon class="cls-3" points="195.41 70.33 184.68 76.53 184.68 126 195.41 119.81 195.41 70.33"/><path class="cls-4" d="M195.41,119.81l-9.51-5.48V64.85l9.51,5.49Z"/><line class="cls-5" x1="184.68" y1="76.53" x2="175.18" y2="71.04"/><line class="cls-5" x1="184.68" y1="76.53" x2="184.68" y2="126"/><line class="cls-5" x1="184.68" y1="76.53" x2="195.41" y2="70.34"/><polygon class="cls-6" points="185.9 64.85 175.18 71.04 175.18 120.52 184.68 126 195.41 119.81 195.41 70.33 185.9 64.85"/><path class="cls-1" d="M158.11,110.66l-9.5-5.48V55.7l9.5,5.49Z"/><polygon class="cls-2" points="168.84 55 158.11 61.19 148.61 55.7 159.33 49.51 168.84 55"/><polygon class="cls-3" points="168.84 55 158.11 61.19 158.11 110.67 168.84 104.47 168.84 55"/><path class="cls-4" d="M168.84,104.47,159.33,99V49.51L168.84,55Z"/><line class="cls-5" x1="158.11" y1="61.19" x2="148.61" y2="55.7"/><line class="cls-5" x1="158.11" y1="61.19" x2="158.11" y2="110.66"/><line class="cls-5" x1="158.11" y1="61.19" x2="168.84" y2="55"/><polygon class="cls-6" points="159.33 49.51 148.61 55.7 148.61 105.18 158.11 110.67 168.84 104.47 168.84 55 159.33 49.51"/><rect class="cls-4" width="440" height="200"/></g></g></svg>