<svg xmlns="http://www.w3.org/2000/svg" viewBox="0 0 126 126"><defs><style>.cls-1{fill:#fff;}.cls-2{fill:#f2f4f6;}.cls-3{fill:#d5dae0;}.cls-4,.cls-7{fill:none;}.cls-4{stroke:#627386;stroke-linecap:round;stroke-linejoin:round;stroke-width:2px;}.cls-5{fill:#b8bfca;}.cls-6{fill:#faabab;}</style></defs><title>generic_error_2(1x1)</title><g id="Layer_2" data-name="Layer 2"><g id="Illustrations"><path class="cls-1" d="M61.63,30.14,44.51,20.22a9,9,0,0,0-9,0L18.3,30.14A9,9,0,0,0,13.8,38l0,23.53a9,9,0,0,0,4.52,7.81L35.5,79.14a9,9,0,0,0,9,0l17.11-9.85a9,9,0,0,0,4.52-7.8l0-23.55A9,9,0,0,0,61.63,30.14Z"/><path class="cls-2" d="M24.12,72.61,35.5,79.14a9,9,0,0,0,9,0l2.61-1.51V68.82h-23Z"/><path class="cls-2" d="M18,69.16l16.08,9.25A3.91,3.91,0,0,0,39.92,75l0-22.3a8.47,8.47,0,0,0-4.25-7.35L19.57,36.12a3.9,3.9,0,0,0-5.85,3.39V61.82A8.48,8.48,0,0,0,18,69.16Z"/><path class="cls-3" d="M61.85,69.16,45.78,78.41A3.91,3.91,0,0,1,39.92,75V52.72a8.5,8.5,0,0,1,4.26-7.35l16.07-9.25a3.91,3.91,0,0,1,5.86,3.39l0,22.31A8.46,8.46,0,0,1,61.85,69.16Z"/><path class="cls-4" d="M61.63,30.14,44.51,20.22a9,9,0,0,0-9,0L18.3,30.14A9,9,0,0,0,13.8,38l0,23.53a9,9,0,0,0,4.52,7.81L35.5,79.14a9,9,0,0,0,9,0l17.11-9.85a9,9,0,0,0,4.52-7.8l0-23.55A9,9,0,0,0,61.63,30.14Z"/><ellipse class="cls-5" cx="46.3" cy="69.85" rx="3.6" ry="2.04" transform="translate(-36.1 85.1) rotate(-66.95)"/><ellipse class="cls-5" cx="59.74" cy="44.69" rx="3.6" ry="2.04" transform="translate(-4.77 82.16) rotate(-66.95)"/><ellipse class="cls-5" cx="53.02" cy="57.27" rx="3.6" ry="2.04" transform="translate(-20.43 83.63) rotate(-66.95)"/><ellipse class="cls-5" cx="32.97" cy="52.85" rx="2.04" ry="3.6" transform="translate(-18.06 17.13) rotate(-23.05)"/><ellipse class="cls-5" cx="20.74" cy="61.68" rx="2.04" ry="3.6" transform="translate(-22.5 13.05) rotate(-23.05)"/><ellipse class="cls-6" cx="39.91" cy="32.75" rx="3.52" ry="2.03"/><path class="cls-1" d="M107.79,56.79,90.67,46.87a9,9,0,0,0-9,0L64.46,56.79A9,9,0,0,0,60,64.6V88.13a9.05,9.05,0,0,0,4.52,7.81l17.16,9.85a9,9,0,0,0,9,0l17.12-9.85a9,9,0,0,0,4.52-7.8V64.59A9,9,0,0,0,107.79,56.79Z"/><path class="cls-2" d="M70.28,99.26l11.37,6.53a9,9,0,0,0,9,0l2.62-1.51V95.47h-23Z"/><path class="cls-2" d="M64.14,95.81l16.08,9.25a3.91,3.91,0,0,0,5.86-3.39l0-22.3A8.47,8.47,0,0,0,81.81,72L65.73,62.77a3.91,3.91,0,0,0-5.86,3.39l0,22.31A8.46,8.46,0,0,0,64.14,95.81Z"/><path class="cls-3" d="M108,95.81l-16.08,9.25a3.9,3.9,0,0,1-5.85-3.39V79.37A8.49,8.49,0,0,1,90.34,72l16.08-9.25a3.91,3.91,0,0,1,5.86,3.39l0,22.31A8.46,8.46,0,0,1,108,95.81Z"/><path class="cls-4" d="M107.79,56.79,90.67,46.87a9,9,0,0,0-9,0L64.46,56.79A9,9,0,0,0,60,64.6V88.13a9.05,9.05,0,0,0,4.52,7.81l17.16,9.85a9,9,0,0,0,9,0l17.12-9.85a9,9,0,0,0,4.52-7.8V64.59A9,9,0,0,0,107.79,56.79Z"/><ellipse class="cls-5" cx="92.45" cy="96.5" rx="3.6" ry="2.04" transform="translate(-32.54 143.78) rotate(-66.95)"/><ellipse class="cls-5" cx="105.9" cy="71.34" rx="3.6" ry="2.04" transform="translate(-1.21 140.85) rotate(-66.95)"/><ellipse class="cls-5" cx="99.18" cy="83.92" rx="3.6" ry="2.04" transform="translate(-16.87 142.32) rotate(-66.95)"/><ellipse class="cls-5" cx="79.13" cy="79.5" rx="2.04" ry="3.6" transform="translate(-24.81 37.33) rotate(-23.05)"/><ellipse class="cls-5" cx="66.9" cy="88.33" rx="2.04" ry="3.6" transform="translate(-29.24 33.25) rotate(-23.05)"/><ellipse class="cls-6" cx="86.07" cy="59.4" rx="3.52" ry="2.03"/><rect class="cls-7" width="126" height="126"/></g></g></svg>