<svg xmlns="http://www.w3.org/2000/svg" viewBox="0 0 126 128.52"><defs><style>.cls-1,.cls-4,.cls-8{fill:#f2f4f6;}.cls-1,.cls-6,.cls-7{stroke:#627386;}.cls-1,.cls-11,.cls-12,.cls-13,.cls-2,.cls-3,.cls-4,.cls-6,.cls-7{stroke-linecap:round;stroke-linejoin:round;stroke-width:2px;}.cls-2,.cls-9{fill:#b8bfca;}.cls-13,.cls-2,.cls-3,.cls-4{stroke:#fff;}.cls-12,.cls-3,.cls-5,.cls-6{fill:#d5dae0;}.cls-13,.cls-14,.cls-7{fill:none;}.cls-10,.cls-11{fill:#fff;}.cls-11{stroke:#f2f4f6;}.cls-12{stroke:#b8bfca;}</style></defs><title>gift_box(1x1)</title><g id="Layer_2" data-name="Layer 2"><g id="Illustrations"><polygon class="cls-1" points="63 17.78 18.89 43.25 63 68.71 107.11 43.25 63 17.78"/><polygon class="cls-2" points="107.11 102.06 63 127.52 63 68.71 107.11 43.25 107.11 102.06"/><polygon class="cls-3" points="80.48 117.43 89.63 112.15 89.63 53.34 80.48 58.62 80.48 117.43"/><polygon class="cls-3" points="18.89 102.06 63 127.52 63 68.71 18.89 43.25 18.89 102.06"/><polygon class="cls-4" points="36.37 112.15 45.52 117.43 45.52 58.62 36.37 53.34 36.37 112.15"/><polygon class="cls-5" points="77.1 60.57 63 17.78 63 68.71 77.1 60.57"/><polygon class="cls-6" points="18.89 43.25 63 68.71 63 17.78 18.89 43.25"/><polygon class="cls-7" points="63 17.78 18.89 43.25 63 68.71 107.11 43.25 63 17.78"/><polygon class="cls-1" points="63 17.78 18.89 43.25 63 68.71 107.11 43.25 63 17.78"/><polygon class="cls-2" points="107.11 102.06 63 127.52 63 68.71 107.11 43.25 107.11 102.06"/><polygon class="cls-5" points="78.99 118.29 91.12 111.28 91.12 52.48 78.99 59.48 78.99 118.29"/><polygon class="cls-3" points="18.89 102.06 63 127.52 63 68.71 18.89 43.25 18.89 102.06"/><polygon class="cls-8" points="34.88 111.28 47.01 118.29 47.01 59.48 34.88 52.48 34.88 111.28"/><polygon class="cls-7" points="107.11 43.25 89.63 53.34 89.63 53.34 80.48 58.62 80.48 58.62 63 68.71 45.52 58.62 45.52 58.62 36.37 53.34 36.37 53.34 18.89 43.25 18.89 102.06 36.37 112.15 36.37 112.15 40.95 114.79 63 127.52 85.05 114.79 89.63 112.15 89.63 112.15 107.11 102.06 107.11 43.25"/><polygon class="cls-5" points="77.1 60.57 63 17.78 63 68.71 77.1 60.57"/><polygon class="cls-6" points="18.89 43.25 63 68.71 63 17.78 18.89 43.25"/><polygon class="cls-7" points="63 17.78 18.89 43.25 63 68.71 107.11 43.25 63 17.78"/><polygon class="cls-4" points="63 7.52 14.95 35.26 63 63 111.05 35.26 63 7.52"/><polygon class="cls-9" points="111.05 35.26 111.05 50.51 63 78.25 63 63 111.05 35.26"/><polygon class="cls-5" points="80.96 67.88 93.09 60.88 93.09 45.63 80.96 52.63 80.96 67.88"/><polygon class="cls-5" points="14.95 35.26 14.95 50.51 63 78.25 63 63 14.95 35.26"/><polygon class="cls-8" points="45.04 67.88 32.91 60.88 32.91 45.63 45.04 52.63 45.04 67.88"/><polygon class="cls-10" points="32.91 24.89 45.04 17.89 93.09 45.63 80.96 52.63 32.91 24.89"/><polygon class="cls-11" points="61.18 44.63 80.96 33.21 68.82 26.2 49.04 37.62 61.18 44.63"/><polygon class="cls-10" points="93.09 24.89 80.96 17.89 32.91 45.63 45.04 52.63 93.09 24.89"/><path class="cls-8" d="M93.29,89.42,76.82,98.93c-.81.47-1.47,0-1.47-1.12V90.05a3.53,3.53,0,0,1,1.47-2.81l16.47-9.51c.81-.47,1.47,0,1.47,1.11V86.6A3.54,3.54,0,0,1,93.29,89.42Z"/><line class="cls-12" x1="81.03" y1="90.83" x2="89.08" y2="86.19"/><polygon class="cls-13" points="111.05 35.26 111.05 50.51 63 78.25 63 63 111.05 35.26"/><polygon class="cls-13" points="14.95 35.26 14.95 50.51 63 78.25 63 63 14.95 35.26"/><polygon class="cls-7" points="63 7.52 14.95 35.26 14.95 50.51 63 78.25 111.05 50.51 111.05 35.26 63 7.52"/><rect class="cls-14" width="126" height="126"/></g></g></svg>