<svg xmlns="http://www.w3.org/2000/svg" viewBox="0 0 1746 4098.47"><defs><style>.cls-1{fill:#627386;}.cls-1,.cls-3,.cls-4,.cls-5{stroke:#b8bfca;}.cls-1,.cls-10,.cls-15,.cls-16,.cls-3,.cls-4,.cls-5,.cls-6,.cls-7,.cls-8,.cls-9{stroke-linecap:round;stroke-linejoin:round;stroke-width:2px;}.cls-10,.cls-15,.cls-16,.cls-2,.cls-6{fill:none;}.cls-3,.cls-7{fill:#fff;}.cls-11,.cls-4{fill:#d5dae0;}.cls-5{fill:#f2f4f6;}.cls-6{stroke:#627386;}.cls-7,.cls-8,.cls-9{stroke:#91d2fb;}.cls-8{fill:#d3edfd;}.cls-9{fill:#e9f6fe;}.cls-10{stroke:#1b6dc6;}.cls-12{fill:#ffebb6;}.cls-13{fill:#ffde85;}.cls-14{fill:#fff2ce;}.cls-15{stroke:#fff;}.cls-16{stroke:#cc7c09;}</style></defs><title>graph_1(1x1)</title><g id="Layer_2" data-name="Layer 2"><g id="Illustrations"><line class="cls-1" x1="339.34" y1="1213.5" x2="339.34" y2="1002.41"/><line class="cls-1" x1="388.34" y1="1155.06" x2="339.34" y2="1183.35"/><rect class="cls-2" x="1620" width="126" height="126"/><polygon class="cls-3" points="584.18 1555.13 569.13 1546.44 554.08 1555.13 569.13 1563.82 584.18 1555.13"/><polygon class="cls-4" points="584.18 1575.2 569.13 1583.89 569.13 1563.82 584.18 1555.13 584.18 1575.2"/><polygon class="cls-5" points="554.08 1575.2 569.13 1583.89 569.13 1563.82 554.08 1555.13 554.08 1575.2"/><polygon class="cls-6" points="569.13 1546.44 554.08 1555.13 554.08 1575.2 569.13 1583.89 584.18 1575.2 584.18 1555.13 569.13 1546.44"/><polygon class="cls-3" points="606.76 1529.02 591.71 1520.32 576.66 1529.02 591.71 1537.71 606.76 1529.02"/><polygon class="cls-4" points="606.76 1588.23 591.71 1596.93 591.71 1537.71 606.76 1529.02 606.76 1588.23"/><polygon class="cls-5" points="576.66 1588.23 591.71 1596.93 591.71 1537.71 576.66 1529.02 576.66 1588.23"/><polygon class="cls-6" points="591.71 1520.32 576.66 1529.02 576.66 1588.23 591.71 1596.93 606.76 1588.23 606.76 1529.02 591.71 1520.32"/><polygon class="cls-3" points="629.34 1561.63 614.29 1552.93 599.24 1561.63 614.29 1570.32 629.34 1561.63"/><polygon class="cls-4" points="629.34 1601.27 614.29 1609.96 614.29 1570.32 629.34 1561.63 629.34 1601.27"/><polygon class="cls-5" points="599.24 1601.27 614.29 1609.96 614.29 1570.32 599.24 1561.63 599.24 1601.27"/><polygon class="cls-6" points="614.29 1552.93 599.24 1561.63 599.24 1601.27 614.29 1609.96 629.34 1601.27 629.34 1561.63 614.29 1552.93"/><polygon class="cls-7" points="651.92 1511.69 636.87 1503 621.82 1511.69 636.87 1520.38 651.92 1511.69"/><polygon class="cls-8" points="636.87 1520.38 636.87 1520.38 636.87 1582.86 636.87 1602.93 636.87 1623 651.92 1614.31 651.92 1594.24 651.92 1541.55 651.92 1511.69 651.92 1511.69 636.87 1520.38"/><polygon class="cls-9" points="621.82 1511.69 621.82 1511.69 621.82 1541.55 621.82 1594.24 621.82 1614.31 636.87 1623 636.87 1602.93 636.87 1582.86 636.87 1520.38 636.87 1520.38 621.82 1511.69"/><polygon class="cls-10" points="636.87 1503 621.82 1511.69 621.82 1541.55 621.82 1594.24 621.82 1614.31 636.87 1623 651.92 1614.31 651.92 1594.24 651.92 1541.55 651.92 1511.69 636.87 1503"/><rect class="cls-2" x="540" y="1500" width="126" height="126"/><rect class="cls-2" y="2000" width="126" height="126"/><path class="cls-11" d="M68.06,1567.56v22.07c0,1.61-2.26,2.92-5.06,2.92s-5.06-1.31-5.06-2.92v-22.07Z"/><path class="cls-6" d="M68.06,1579.15v22.08c0,1.61-2.26,2.92-5.06,2.92s-5.06-1.31-5.06-2.92v-22.08Z"/><path class="cls-12" d="M1706.06,4068.33l-.43-.26c-12.5-7.22-32.76-7.22-45.26,0l-.43.26H1651V4079c0,4.73,3.12,9.46,9.37,13.06,12.5,7.22,32.76,7.22,45.26,0,6.25-3.6,9.37-8.33,9.37-13.06v-10.67Z"/><path class="cls-13" d="M1705.63,4092.06c6.25-3.6,9.37-8.33,9.37-13.06v-10.67h-8.94l-.43-.26c-6.25-3.61-14.44-5.41-22.63-5.41v34.81C1691.19,4097.47,1699.38,4095.67,1705.63,4092.06Z"/><ellipse class="cls-14" cx="1683" cy="4068.33" rx="32" ry="18.48"/><ellipse class="cls-15" cx="1683" cy="4068.33" rx="32" ry="18.48"/><ellipse class="cls-2" cx="1683" cy="4079" rx="32" ry="18.48"/><path class="cls-16" d="M1715,4079v-10.67h0c0-4.73-3.12-9.45-9.37-13.06-12.5-7.22-32.76-7.22-45.26,0-6.25,3.61-9.37,8.33-9.37,13.06h0V4079c0,4.73,3.12,9.46,9.37,13.06s14.44,5.41,22.63,5.41c1,0,2,0,3.07-.08a52.39,52.39,0,0,0,6-.68c1-.17,2-.36,2.93-.59a38.91,38.91,0,0,0,10.59-4.06,19.86,19.86,0,0,0,8-7.8A11.45,11.45,0,0,0,1715,4079Z"/><path class="cls-13" d="M1669.36,4069.06a.88.88,0,0,1-.3-.08l-4.32-2.5c-.13-.08-.2-.2-.13-.3a.56.56,0,0,1,.5-.18l14.52.71c.33,0,.6-.14.57-.32L1679,4058c0-.1.06-.2.2-.26a.76.76,0,0,1,.63,0l4.16,2.4a.28.28,0,0,1,.14.17l1.36,9.12v.09c0,.14-.18.26-.42.25h-.17Z"/><path class="cls-13" d="M1687.79,4069.65c0,.15.22.27.48.28l12.6.67a.69.69,0,0,0,.46-.12c.14-.11.11-.26-.06-.36l-4.16-2.4a.82.82,0,0,0-.3-.08l-8.76-.51c-.32,0-.59.13-.57.32Z"/><path class="cls-13" d="M1685.27,4071.08c.25,0,.45.13.47.28l1.28,7.32c0,.11,0,.21-.2.27a.78.78,0,0,1-.62,0l-4.16-2.4a.27.27,0,0,1-.14-.18l-.8-5.07c0-.19.24-.35.56-.33Z"/><path class="cls-12" d="M1706.06,4057.67l-.43-.27c-12.5-7.21-32.76-7.21-45.26,0l-.43.27H1651v10.66c0,4.73,3.12,9.46,9.37,13.07,12.5,7.21,32.76,7.21,45.26,0,6.25-3.61,9.37-8.34,9.37-13.07v-10.66Z"/><path class="cls-13" d="M1705.63,4081.4c6.25-3.61,9.37-8.34,9.37-13.07v-10.66h-8.94l-.43-.27c-6.25-3.61-14.44-5.41-22.63-5.41v34.82C1691.19,4086.81,1699.38,4085,1705.63,4081.4Z"/><ellipse class="cls-14" cx="1683" cy="4057.67" rx="32" ry="18.48"/><ellipse class="cls-15" cx="1683" cy="4057.67" rx="32" ry="18.48"/><ellipse class="cls-2" cx="1683" cy="4068.33" rx="32" ry="18.48"/><path class="cls-16" d="M1715,4068.33v-10.66h0c0-4.73-3.12-9.46-9.37-13.07-12.5-7.21-32.76-7.21-45.26,0-6.25,3.61-9.37,8.34-9.37,13.07h0v10.66c0,4.73,3.12,9.46,9.37,13.07s14.44,5.41,22.63,5.41c1,0,2,0,3.07-.09a52.38,52.38,0,0,0,6-.67c1-.17,2-.37,2.93-.59a39.56,39.56,0,0,0,10.59-4.06,19.94,19.94,0,0,0,8-7.81A11.42,11.42,0,0,0,1715,4068.33Z"/><path class="cls-13" d="M1669.36,4058.39a.58.58,0,0,1-.3-.08l-4.32-2.49c-.13-.08-.2-.2-.13-.31a.59.59,0,0,1,.5-.18l14.52.72c.33,0,.6-.14.57-.33l-1.19-8.4a.28.28,0,0,1,.2-.27.8.8,0,0,1,.63,0l4.16,2.4a.27.27,0,0,1,.14.18l1.36,9.12v.08c0,.14-.18.26-.42.25h-.17Z"/><path class="cls-13" d="M1687.79,4059c0,.14.22.26.48.27l12.6.67a.75.75,0,0,0,.46-.11c.14-.12.11-.27-.06-.36l-4.16-2.4a.66.66,0,0,0-.3-.09l-8.76-.51c-.32,0-.59.14-.57.32Z"/><ellipse class="cls-15" cx="1683" cy="4047" rx="32" ry="18.48"/><ellipse class="cls-2" cx="1683" cy="4057.67" rx="32" ry="18.48"/></g></g></svg>