<svg xmlns="http://www.w3.org/2000/svg" viewBox="0 0 1520 2201"><defs><style>.cls-1,.cls-10,.cls-11,.cls-2,.cls-6{fill:none;}.cls-2,.cls-3,.cls-4,.cls-5{stroke:#b8bfca;}.cls-10,.cls-11,.cls-12,.cls-13,.cls-2,.cls-3,.cls-4,.cls-5,.cls-6{stroke-linecap:round;stroke-linejoin:round;stroke-width:2px;}.cls-3,.cls-7{fill:#fff;}.cls-12,.cls-4{fill:#d5dae0;}.cls-5{fill:#f2f4f6;}.cls-6{stroke:#627386;}.cls-8{fill:#bde4fd;}.cls-9{fill:#e9f6fe;}.cls-10{stroke:#91d2fb;}.cls-11{stroke:#1b6dc6;}.cls-12,.cls-13{stroke:#fff;}.cls-13{fill:#b8bfca;}</style></defs><title>graph_2(2x1)</title><g id="Layer_2" data-name="Layer 2"><g id="Illustrations"><rect class="cls-1" x="1080" width="440" height="200"/><polygon class="cls-2" points="1228 1100 1210 1110.39 1210 1110.39 1228 1120.79 1246 1110.39 1246 1110.39 1228 1100"/><polygon class="cls-2" points="1246 1089.61 1228 1100 1228 1100 1246 1110.39 1264 1100 1264 1100 1246 1089.61"/><polygon class="cls-2" points="1264 1079.21 1246 1089.61 1246 1089.61 1264 1100 1282 1089.61 1282 1089.61 1264 1079.21"/><polygon class="cls-2" points="1282 1068.82 1264 1079.21 1264 1079.21 1282 1089.61 1300 1079.21 1300 1079.21 1282 1068.82"/><polygon class="cls-2" points="1300 1058.43 1282 1068.82 1282 1068.82 1300 1079.21 1318 1068.82 1318 1068.82 1300 1058.43"/><polygon class="cls-2" points="1318 1048.04 1300 1058.43 1300 1058.43 1318 1068.82 1336 1058.43 1336 1058.43 1318 1048.04"/><polygon class="cls-2" points="1246 1110.39 1228 1120.79 1228 1120.79 1246 1131.18 1264 1120.79 1264 1120.79 1246 1110.39"/><polygon class="cls-2" points="1264 1100 1246 1110.39 1246 1110.39 1264 1120.79 1282 1110.39 1282 1110.39 1264 1100"/><polygon class="cls-2" points="1282 1089.61 1264 1100 1264 1100 1282 1110.39 1300 1100 1300 1100 1282 1089.61"/><polygon class="cls-2" points="1300 1079.21 1282 1089.61 1282 1089.61 1300 1100 1318 1089.61 1318 1089.61 1300 1079.21"/><polygon class="cls-2" points="1318 1068.82 1300 1079.21 1300 1079.21 1318 1089.61 1336 1079.21 1336 1079.21 1318 1068.82"/><polygon class="cls-2" points="1336 1058.43 1318 1068.82 1318 1068.82 1336 1079.21 1354 1068.82 1354 1068.82 1336 1058.43"/><polygon class="cls-2" points="1264 1120.79 1246 1131.18 1246 1131.18 1264 1141.57 1282 1131.18 1282 1131.18 1264 1120.79"/><polygon class="cls-2" points="1282 1110.39 1264 1120.79 1264 1120.79 1282 1131.18 1300 1120.79 1300 1120.79 1282 1110.39"/><polygon class="cls-2" points="1318 1089.61 1300 1100 1300 1100 1318 1110.39 1336 1100 1336 1100 1318 1089.61"/><polygon class="cls-2" points="1336 1079.21 1318 1089.61 1318 1089.61 1336 1100 1354 1089.61 1354 1089.61 1336 1079.21"/><polygon class="cls-2" points="1354 1068.82 1336 1079.21 1336 1079.21 1354 1089.61 1372 1079.21 1372 1079.21 1354 1068.82"/><polygon class="cls-2" points="1282 1131.18 1264 1141.57 1264 1141.57 1282 1151.96 1300 1141.57 1300 1141.57 1282 1131.18"/><polygon class="cls-2" points="1300 1120.79 1282 1131.18 1282 1131.18 1300 1141.57 1318 1131.18 1318 1131.18 1300 1120.79"/><polygon class="cls-2" points="1318 1110.39 1300 1120.79 1300 1120.79 1318 1131.18 1336 1120.79 1336 1120.79 1318 1110.39"/><polygon class="cls-2" points="1336 1100 1318 1110.39 1318 1110.39 1336 1120.79 1354 1110.39 1354 1110.39 1336 1100"/><polygon class="cls-2" points="1354 1089.61 1336 1100 1336 1100 1354 1110.39 1372 1100 1372 1100 1354 1089.61"/><polygon class="cls-2" points="1372 1079.21 1354 1089.61 1354 1089.61 1372 1100 1390 1089.61 1390 1089.61 1372 1079.21"/><polygon class="cls-3" points="1264 1055.21 1264 1055.22 1246 1065.61 1228 1076 1210 1086.39 1228 1096.79 1246 1086.39 1264 1076 1282 1065.61 1282 1065.61 1264 1055.21"/><polygon class="cls-4" points="1282 1065.61 1264 1076 1246 1086.39 1228 1096.79 1228 1120.79 1246 1110.39 1264 1100 1282 1089.61 1282 1089.61 1282 1065.61 1282 1065.61"/><polygon class="cls-5" points="1210 1110.39 1228 1120.79 1228 1096.79 1210 1086.39 1210 1110.39"/><polygon class="cls-6" points="1264 1055.21 1264 1055.22 1246 1065.61 1228 1076 1210 1086.39 1210 1110.39 1228 1120.79 1246 1110.39 1264 1100 1282 1089.61 1282 1089.61 1282 1065.61 1264 1055.21"/><polygon class="cls-7" points="1300 1055.21 1300 1055.22 1282 1065.61 1264 1076 1246 1086.39 1264 1096.79 1282 1086.39 1300 1076 1318 1065.61 1318 1065.61 1300 1055.21"/><polygon class="cls-8" points="1318 1065.61 1300 1076 1282 1086.39 1264 1096.79 1264 1120.79 1282 1110.39 1300 1100 1318 1089.61 1318 1089.61 1318 1065.61 1318 1065.61"/><polygon class="cls-9" points="1246 1110.39 1264 1120.79 1264 1096.79 1246 1086.39 1246 1110.39"/><polygon class="cls-10" points="1300 1055.21 1300 1055.22 1282 1065.61 1264 1076 1246 1086.39 1264 1096.79 1282 1086.39 1300 1076 1318 1065.61 1318 1065.61 1300 1055.21"/><polygon class="cls-10" points="1318 1065.61 1300 1076 1282 1086.39 1264 1096.79 1264 1120.79 1282 1110.39 1300 1100 1318 1089.61 1318 1089.61 1318 1065.61 1318 1065.61"/><polygon class="cls-10" points="1246 1110.39 1264 1120.79 1264 1096.79 1246 1086.39 1246 1110.39"/><polygon class="cls-11" points="1300 1055.21 1300 1055.22 1282 1065.61 1264 1076 1246 1086.39 1246 1110.39 1264 1120.79 1282 1110.39 1300 1100 1318 1089.61 1318 1089.61 1318 1065.61 1300 1055.21"/><polygon class="cls-12" points="1318 1065.61 1300 1076 1282 1086.39 1300 1096.79 1318 1086.39 1318 1086.39 1336 1076 1318 1065.61"/><polygon class="cls-13" points="1300 1120.79 1300 1096.79 1282 1086.39 1282 1110.39 1300 1120.79"/><polygon class="cls-6" points="1318 1065.61 1300 1076 1282 1086.39 1282 1110.39 1300 1120.79 1300 1096.79 1318 1086.39 1318 1086.39 1336 1076 1318 1065.61"/><polygon class="cls-3" points="1372 1055.21 1354 1065.61 1336 1076 1318 1086.39 1300 1096.79 1318 1107.18 1336 1096.79 1354 1086.39 1372 1076 1390 1065.61 1372 1055.21"/><polygon class="cls-4" points="1372 1076 1354 1086.39 1336 1096.79 1318 1107.18 1318 1131.18 1336 1120.79 1354 1110.39 1372 1100 1390 1089.61 1390 1065.61 1372 1076"/><polygon class="cls-5" points="1300 1120.79 1318 1131.18 1318 1107.18 1300 1096.79 1300 1120.79"/><polygon class="cls-6" points="1372 1055.21 1354 1065.61 1336 1076 1318 1086.39 1300 1096.78 1300 1120.78 1318 1131.18 1336 1120.78 1354 1110.39 1372 1100 1390 1089.61 1390 1065.61 1372 1055.21"/><rect class="cls-1" x="1080" y="1000" width="440" height="200"/><rect class="cls-1" x="1080" y="500" width="440" height="200"/><rect class="cls-1" y="2001" width="440" height="200"/></g></g></svg>