<svg xmlns="http://www.w3.org/2000/svg" viewBox="0 0 126 126"><defs><style>.cls-1{fill:#fff;}.cls-1,.cls-3,.cls-4,.cls-5{stroke:#b8bfca;}.cls-1,.cls-2,.cls-3,.cls-4,.cls-5,.cls-6,.cls-7{stroke-linecap:round;stroke-linejoin:round;stroke-width:2px;}.cls-2,.cls-5,.cls-6,.cls-8{fill:none;}.cls-2{stroke:#d5dae0;}.cls-3{fill:#f2f4f6;}.cls-4{fill:#d5dae0;}.cls-6{stroke:#627386;}.cls-7{fill:#e9f6fe;stroke:#91d2fb;}</style></defs><title>graph_3(1x1)</title><g id="Layer_2" data-name="Layer 2"><g id="Illustrations"><polygon class="cls-1" points="1 73.58 52.35 103.22 125 61.28 73.65 33.8 1 73.58"/><line class="cls-2" x1="117.82" y1="56.57" x2="117.82" y2="65.43"/><polygon class="cls-3" points="52.35 103.22 52.35 94.37 125 52.42 125 61.28 52.35 103.22"/><polygon class="cls-1" points="52.35 103.22 52.35 94.37 1 64.72 1 73.58 52.35 103.22"/><polygon class="cls-4" points="8.18 77.73 1 73.58 1 64.72 8.18 68.87 8.18 77.73"/><polygon class="cls-5" points="52.35 103.22 52.35 94.37 1 64.72 1 73.58 52.35 103.22"/><polygon class="cls-1" points="1 64.72 52.35 94.37 125 52.42 73.65 22.78 1 64.72"/><polygon class="cls-3" points="80.83 26.92 8.18 68.87 1 64.72 73.65 22.78 80.83 26.92"/><polygon class="cls-5" points="1 64.72 52.35 94.37 125 52.42 73.65 22.78 1 64.72"/><polygon class="cls-6" points="80.83 26.92 80.83 26.92 73.65 22.78 1 64.72 1 73.58 52.35 103.22 125 61.28 125 52.42 80.83 26.92"/><line class="cls-2" x1="80.15" y1="37.3" x2="107.1" y2="52.81"/><line class="cls-2" x1="44.72" y1="57.8" x2="71.67" y2="73.31"/><line class="cls-2" x1="62.44" y1="47.55" x2="89.39" y2="63.06"/><line class="cls-2" x1="44.72" y1="57.8" x2="71.67" y2="73.31"/><line class="cls-2" x1="27.01" y1="68.05" x2="53.96" y2="83.56"/><polygon class="cls-7" points="80.15 37.3 107.1 52.81 53.96 83.56 41.14 76.2 50.24 69.61 51.38 61.63 60.88 54.88 72.48 53.33 78.75 45.06 80.15 37.3"/><line class="cls-7" x1="72.48" y1="53.33" x2="89.39" y2="63.06"/><line class="cls-7" x1="51.38" y1="61.63" x2="71.67" y2="73.31"/><rect class="cls-8" width="126" height="126"/></g></g></svg>