<svg xmlns="http://www.w3.org/2000/svg" viewBox="0 0 126 126"><defs><style>.cls-1{fill:#fff;}.cls-1,.cls-2,.cls-4,.cls-5{stroke:#b8bfca;}.cls-1,.cls-2,.cls-3,.cls-4,.cls-5,.cls-7{stroke-linecap:round;stroke-linejoin:round;stroke-width:2px;}.cls-2,.cls-7,.cls-8{fill:none;}.cls-3,.cls-4{fill:#d5dae0;}.cls-3,.cls-7{stroke:#627386;}.cls-5{fill:#f2f4f6;}.cls-6{fill:#627386;}</style></defs><title>hdd(1x1)</title><g id="Layer_2" data-name="Layer 2"><g id="Illustrations"><polygon class="cls-1" points="1 64.77 78.14 20.23 125 47.28 47.86 91.82 1 64.77"/><polygon class="cls-2" points="63.69 82.68 47.86 91.82 23.2 77.58 39.02 68.44 63.69 82.68"/><path class="cls-2" d="M39,68.44,23.2,77.58,1,64.77,23.2,52,39,61.09C42.54,63.12,42.54,66.41,39,68.44Z"/><ellipse class="cls-3" cx="76.84" cy="48.03" rx="26.87" ry="15.51"/><polygon class="cls-4" points="125 47.28 125 61.23 47.86 105.77 47.86 91.82 125 47.28"/><polygon class="cls-2" points="125 47.28 125 61.23 47.86 105.77 47.86 91.82 125 47.28"/><polygon class="cls-5" points="1 64.77 1 78.72 47.86 105.77 47.86 91.82 1 64.77"/><path class="cls-3" d="M16.32,63.07h0c-1-2.13,1.47-4.27,5.24-4.58l41-3.36c1.55-.12,2.13,1.13.68,1.47l-38.4,8.92C21.29,66.34,17.31,65.2,16.32,63.07Z"/><path class="cls-3" d="M16.32,63.07h0c-1-2.13,1.47-4.27,5.24-4.58l41-3.36c1.55-.12,2.13,1.13.68,1.47l-38.4,8.92C21.29,66.34,17.31,65.2,16.32,63.07Z"/><ellipse class="cls-6" cx="22.97" cy="62.04" rx="1.77" ry="1.02"/><polygon class="cls-2" points="1 64.77 78.14 20.23 125 47.28 47.86 91.82 1 64.77"/><ellipse class="cls-1" cx="76.84" cy="48.03" rx="6.39" ry="3.69"/><polygon class="cls-7" points="125 47.28 78.14 20.23 1 64.77 1 64.77 1 78.72 47.86 105.77 125 61.23 125 47.28 125 47.28"/><rect class="cls-8" width="126" height="126"/></g></g></svg>