<svg xmlns="http://www.w3.org/2000/svg" viewBox="0 0 126 126"><defs><style>.cls-1,.cls-2,.cls-6{fill:none;}.cls-1,.cls-2{stroke:#627386;}.cls-1,.cls-2,.cls-3,.cls-4,.cls-5{stroke-linecap:round;stroke-linejoin:round;stroke-width:2px;}.cls-2{stroke-dasharray:0 6.26;}.cls-3{fill:#fff;}.cls-3,.cls-4,.cls-5{stroke:#b8bfca;}.cls-4{fill:#d5dae0;}.cls-5{fill:#f2f4f6;}</style></defs><title>hexagon_connect_top(1x1)</title><g id="Layer_2" data-name="Layer 2"><g id="Illustrations"><line class="cls-1" x1="27" y1="47.35" x2="27" y2="47.35"/><line class="cls-2" x1="27" y1="53.61" x2="27" y2="75.52"/><line class="cls-1" x1="27" y1="78.65" x2="27" y2="78.65"/><line class="cls-1" x1="99" y1="47.35" x2="99" y2="47.35"/><line class="cls-2" x1="99" y1="53.61" x2="99" y2="75.52"/><line class="cls-1" x1="99" y1="78.65" x2="99" y2="78.65"/><polygon class="cls-3" points="45 96.65 27 78.65 45 60.65 81 60.65 99 78.65 81 96.65 45 96.65"/><polygon class="cls-4" points="99 78.65 99 90.65 81 108.65 81 96.65 99 78.65"/><rect class="cls-5" x="45" y="96.65" width="36" height="12"/><polygon class="cls-3" points="27 78.65 27 90.65 45 108.65 45 96.65 27 78.65"/><polygon class="cls-1" points="99 78.65 81 60.65 45 60.65 27 78.65 27 78.65 27 90.65 45 108.65 81 108.65 99 90.65 99 78.65 99 78.65"/><polygon class="cls-3" points="45 53.35 27 35.35 45 17.35 81 17.35 99 35.35 81 53.35 45 53.35"/><polygon class="cls-4" points="99 35.35 99 47.35 81 65.35 81 53.35 99 35.35"/><rect class="cls-5" x="45" y="53.35" width="36" height="12"/><polygon class="cls-3" points="27 35.35 27 47.35 45 65.35 45 53.35 27 35.35"/><polygon class="cls-1" points="99 35.35 81 17.35 45 17.35 27 35.35 27 35.35 27 47.35 45 65.35 81 65.35 99 47.35 99 35.35 99 35.35"/><rect class="cls-6" width="126" height="126"/></g></g></svg>