<svg xmlns="http://www.w3.org/2000/svg" viewBox="0 0 126 126"><defs><style>.cls-1{fill:#fff;}.cls-1,.cls-2,.cls-3{stroke:#b8bfca;}.cls-1,.cls-2,.cls-3,.cls-4{stroke-linecap:round;stroke-linejoin:round;stroke-width:2px;}.cls-2{fill:#d5dae0;}.cls-3{fill:#f2f4f6;}.cls-4,.cls-5{fill:none;}.cls-4{stroke:#627386;}</style></defs><title>hexagon_short(1x1)</title><g id="Layer_2" data-name="Layer 2"><g id="Illustrations"><polygon class="cls-1" points="45 69 27 51 45 33 81 33 99 51 81 69 45 69"/><polygon class="cls-2" points="99 51 99 75 81 93 81 69 99 51"/><rect class="cls-3" x="45" y="69" width="36" height="24"/><polygon class="cls-1" points="27 51 27 75 45 93 45 69 27 51"/><polygon class="cls-4" points="99 51 81 33 45 33 27 51 27 51 27 75 45 93 81 93 99 75 99 51 99 51"/><rect class="cls-5" width="126" height="126"/></g></g></svg>