<svg xmlns="http://www.w3.org/2000/svg" viewBox="0 0 126 126"><defs><style>.cls-1{fill:#f2f4f6;}.cls-1,.cls-2,.cls-3{stroke:#b8bfca;}.cls-1,.cls-2,.cls-3,.cls-4,.cls-5{stroke-linecap:round;stroke-linejoin:round;stroke-width:2px;}.cls-2{fill:#fff;}.cls-3{fill:#d5dae0;}.cls-4,.cls-5,.cls-6{fill:none;}.cls-4,.cls-5{stroke:#627386;}.cls-5{stroke-dasharray:0 6.57;}</style></defs><title>hexagon_connect_side(1x1)</title><g id="Layer_2" data-name="Layer 2"><g id="Illustrations"><polygon class="cls-1" points="65.23 75.57 53.23 40.93 65.23 20.15 89.23 34 101.23 68.64 89.23 89.43 65.23 75.57"/><polygon class="cls-2" points="99.62 28 89.23 34 65.23 20.15 75.62 14.15 99.62 28"/><polygon class="cls-1" points="89.23 34 99.62 28 111.62 62.64 101.23 68.64 89.23 34"/><polygon class="cls-3" points="111.62 62.64 99.62 83.43 89.23 89.43 101.23 68.64 111.62 62.64"/><polygon class="cls-4" points="99.62 28 75.62 14.15 65.23 20.15 53.23 40.93 65.23 75.57 89.23 89.43 99.62 83.43 111.62 62.64 99.62 28"/><polygon class="cls-1" points="26.38 98 14.38 63.36 26.38 42.57 50.38 56.43 62.38 91.07 50.38 111.85 26.38 98"/><polygon class="cls-2" points="60.77 50.43 50.38 56.43 26.38 42.57 36.77 36.57 60.77 50.43"/><polygon class="cls-1" points="50.38 56.43 60.77 50.43 72.77 85.07 62.38 91.07 50.38 56.43"/><polygon class="cls-3" points="72.77 85.07 60.77 105.85 50.38 111.85 62.38 91.07 72.77 85.07"/><polygon class="cls-4" points="60.77 50.43 36.77 36.57 26.38 42.57 14.38 63.36 26.38 98 50.38 111.85 60.77 105.85 72.77 85.07 60.77 50.43"/><line class="cls-4" x1="89.23" y1="89.43" x2="89.23" y2="89.43"/><line class="cls-5" x1="83.54" y1="92.71" x2="63.62" y2="104.21"/><line class="cls-4" x1="60.77" y1="105.85" x2="60.77" y2="105.85"/><line class="cls-4" x1="65.23" y1="20.15" x2="65.23" y2="20.15"/><line class="cls-5" x1="59.54" y1="23.43" x2="39.62" y2="34.93"/><line class="cls-4" x1="36.77" y1="36.57" x2="36.77" y2="36.57"/><rect class="cls-6" width="126" height="126"/></g></g></svg>