<svg xmlns="http://www.w3.org/2000/svg" viewBox="0 0 126 126"><defs><style>.cls-1{fill:#f2f4f6;}.cls-1,.cls-2,.cls-3{stroke:#b8bfca;}.cls-1,.cls-2,.cls-3,.cls-4{stroke-linecap:round;stroke-linejoin:round;stroke-width:2px;}.cls-2{fill:#fff;}.cls-3{fill:#d5dae0;}.cls-4,.cls-5{fill:none;}.cls-4{stroke:#627386;}</style></defs><title>hexagon_side(1x1)</title><g id="Layer_2" data-name="Layer 2"><g id="Illustrations"><polygon class="cls-1" points="30.21 95.78 18.21 61.14 30.21 40.36 54.22 54.22 66.22 88.86 54.22 109.64 30.21 95.78"/><polygon class="cls-2" points="95.78 30.22 54.22 54.22 30.21 40.36 71.78 16.36 95.78 30.22"/><polygon class="cls-1" points="54.22 54.22 95.78 30.22 107.78 64.86 66.22 88.86 54.22 54.22"/><polygon class="cls-3" points="107.78 64.86 95.78 85.64 54.22 109.64 66.22 88.86 107.78 64.86"/><polygon class="cls-4" points="95.78 30.21 71.78 16.36 30.21 40.36 18.21 61.14 30.21 95.78 54.22 109.64 95.78 85.64 107.78 64.86 95.78 30.21"/><rect class="cls-5" width="126" height="126"/></g></g></svg>