<svg xmlns="http://www.w3.org/2000/svg" viewBox="0 0 126 126"><defs><style>.cls-1{fill:#fff;}.cls-1,.cls-2,.cls-3{stroke:#b8bfca;}.cls-1,.cls-2,.cls-3,.cls-4{stroke-linecap:round;stroke-linejoin:round;stroke-width:2px;}.cls-2{fill:#d5dae0;}.cls-3{fill:#f2f4f6;}.cls-4,.cls-5{fill:none;}.cls-4{stroke:#627386;}</style></defs><title>hexagon(1x1)</title><g id="Layer_2" data-name="Layer 2"><g id="Illustrations"><polygon class="cls-1" points="45 57 27 39 45 21 81 21 99 39 81 57 45 57"/><polygon class="cls-2" points="99 39 99 87 81 105 81 57 99 39"/><rect class="cls-3" x="45" y="57" width="36" height="48"/><polygon class="cls-1" points="27 39 27 87 45 105 45 57 27 39"/><polygon class="cls-4" points="99 39 81 21 45 21 27 39 27 39 27 87 45 105 81 105 99 87 99 39 99 39"/><rect class="cls-5" width="126" height="126"/></g></g></svg>