<svg xmlns="http://www.w3.org/2000/svg" viewBox="0 0 440 200"><defs><style>.cls-1,.cls-4,.cls-7{fill:none;}.cls-1,.cls-2,.cls-3,.cls-5{stroke:#627386;}.cls-1,.cls-2,.cls-3,.cls-4,.cls-5{stroke-linecap:round;stroke-linejoin:round;stroke-width:2px;}.cls-2{fill:#fff;}.cls-3{fill:#f2f4f6;}.cls-4{stroke:#b8bfca;}.cls-5{fill:#d5dae0;}.cls-6{fill:#b8bfca;}</style></defs><title>lanyard(2x1)</title><g id="Layer_2" data-name="Layer 2"><g id="Illustrations"><path class="cls-1" d="M207.84,100.87a91.16,91.16,0,0,1,12.34,4.59,9.25,9.25,0,0,0,7.82-.26"/><path class="cls-2" d="M252.72,85.08l-57.64,33.27c-2.15,1.25-2.15,3.26,0,4.51L290.57,178a8.64,8.64,0,0,0,7.8,0L356,144.71c2.15-1.24,2.15-3.26,0-4.5L260.52,85.08A8.58,8.58,0,0,0,252.72,85.08Z"/><path class="cls-3" d="M306.12,129.39l-34.29,19.8a6,6,0,0,1-5.36,0l-34.28-19.8c-1.49-.85-1.49-2.24,0-3.09l34.28-19.8a5.89,5.89,0,0,1,5.36,0l34.29,19.8C307.6,127.15,307.6,128.54,306.12,129.39Z"/><path class="cls-4" d="M334.41,145.72l-34.29,19.8a6,6,0,0,1-5.36,0L290,162.78c-1.49-.86-1.49-2.24,0-3.1l34.28-19.79a5.89,5.89,0,0,1,5.36,0l4.75,2.74C335.89,143.48,335.89,144.87,334.41,145.72Z"/><line class="cls-4" x1="282.25" y1="154" x2="314.45" y2="135.4"/><path class="cls-5" d="M252.72,85.08l-57.64,33.27c-2.15,1.25-2.15,3.26,0,4.51L207.42,130,272.85,92.2l-12.33-7.12A8.58,8.58,0,0,0,252.72,85.08Zm-12,18.77-13.14,7.59a5.74,5.74,0,0,1-5.2,0c-1.44-.83-1.44-2.18,0-3l13.13-7.58a5.76,5.76,0,0,1,5.21,0C242.17,101.68,242.17,103,240.74,103.85Z"/><path class="cls-1" d="M228,105.2h0c2.11-1.22,2.34-3.17.45-4.51C209.15,87,203.21,59.82,197,46.42h0c-2.49-5.68-7.57-11.05-15.26-15.49-22.95-13.25-60.27-13.13-83,.34a46.6,46.6,0,0,0-6,4.22"/><path class="cls-1" d="M92.75,35.49c-.31.25-.61.51-.9.77"/><path class="cls-6" d="M92.77,38.18A2.7,2.7,0,0,1,91,33.39,49.39,49.39,0,0,1,97.38,29a65.59,65.59,0,0,1,10.14-4.86,2.71,2.71,0,1,1,1.93,5.06,61.11,61.11,0,0,0-9.3,4.45,43.75,43.75,0,0,0-5.65,4A2.7,2.7,0,0,1,92.77,38.18Z"/><path class="cls-1" d="M92.77,38.18A2.7,2.7,0,0,1,91,33.39,49.39,49.39,0,0,1,97.38,29a65.59,65.59,0,0,1,10.14-4.86,2.71,2.71,0,1,1,1.93,5.06,61.11,61.11,0,0,0-9.3,4.45,43.75,43.75,0,0,0-5.65,4A2.7,2.7,0,0,1,92.77,38.18Z"/><path class="cls-1" d="M91.85,36.26C77.53,48.9,79.41,66.08,97.75,77.52c8,5,17.91,8.24,28.44,9.78h0c19.68,3,56.45,6,81.66,13.57"/><polygon class="cls-4" points="272.38 119.27 258.13 121.48 254.31 129.7 268.56 127.5 272.38 119.27"/><polygon class="cls-4" points="284.42 126.23 280.61 134.45 268.56 127.5 272.38 119.27 284.42 126.23"/><polygon class="cls-4" points="266.35 136.66 280.61 134.45 268.56 127.5 254.31 129.7 266.35 136.66"/><rect class="cls-7" width="440" height="200"/></g></g></svg>