<svg xmlns="http://www.w3.org/2000/svg" viewBox="0 0 440 300.62"><defs><style>.cls-1,.cls-4,.cls-6{fill:#d5dae0;}.cls-2{fill:#b8bfca;}.cls-3,.cls-8{fill:#f2f4f6;}.cls-10,.cls-3,.cls-5{stroke:#b8bfca;}.cls-10,.cls-3,.cls-4,.cls-5,.cls-6,.cls-7{stroke-linecap:round;stroke-linejoin:round;stroke-width:2px;}.cls-4{stroke:#d5dae0;}.cls-5,.cls-9{fill:#fff;}.cls-6{stroke:#fff;}.cls-10,.cls-11,.cls-7{fill:none;}.cls-7{stroke:#627386;}</style></defs><title>laptop(2x1)</title><g id="Layer_2" data-name="Layer 2"><g id="Illustrations"><path class="cls-1" d="M352.35,103.22,199,14.7a4.56,4.56,0,0,0-3.32-.59h0l-8.86,2,4.21,7.07L162.61,139.05l148.32,85.63,6.46,10.86,6.86-1.56a3.31,3.31,0,0,0,2.48-2.44L356,112.23A8.58,8.58,0,0,0,352.35,103.22Z"/><path class="cls-2" d="M356.09,109,246.86,133.86s-3.85,28.84-8.45,48.95l72.52,41.87,6.46,10.86,6.86-1.56a3.31,3.31,0,0,0,2.48-2.44L356,112.23A7.83,7.83,0,0,0,356.09,109Z"/><path class="cls-3" d="M296.65,232.5,153.75,150,68.62,199.15l-10.38-1.52v8.94A3,3,0,0,0,60,209L215.2,298.61a9.32,9.32,0,0,0,8.42,0l91.56-52.86a4.4,4.4,0,0,0,2.21-3.82v-6.39Z"/><polygon class="cls-4" points="152.79 253.64 152.79 257 122.39 239.45 122.39 236.09 152.79 253.64"/><path class="cls-1" d="M220,188.25V299.59a8.28,8.28,0,0,0,3.62-1l91.56-52.86a4.4,4.4,0,0,0,2.21-3.82v-6.39l-20.74-3Z"/><path class="cls-5" d="M317.39,235.54l-93.77,54.13a9.26,9.26,0,0,1-8.42,0L60,200.06c-2.32-1.34-2.32-3.52,0-4.87l93.77-54.13Z"/><path class="cls-6" d="M153.75,141.06l29.78-121.3c.82-3.33,3.79-4.69,6.64-3.05l153.32,88.52a8.58,8.58,0,0,1,3.68,9l-29.78,121.3Z"/><path class="cls-7" d="M352.35,103.22,199,14.7a4.56,4.56,0,0,0-3.32-.59h0l-8.86,2h0a4.6,4.6,0,0,0-3.32,3.64l-29.78,121.3,163.64,94.48,6.86-1.56a3.31,3.31,0,0,0,2.48-2.44L356,112.23A8.58,8.58,0,0,0,352.35,103.22Z"/><path class="cls-7" d="M153.75,141.06,60,195.19a3,3,0,0,0-1.74,2.44v8.94A3,3,0,0,0,60,209L215.2,298.61a9.32,9.32,0,0,0,8.42,0l91.56-52.86a4.4,4.4,0,0,0,2.21-3.82v-6.39Z"/><path class="cls-8" d="M161.36,137.81l28-113.93L340.18,111a2.23,2.23,0,0,1,.56,1.69L313.06,225.39Z"/><path class="cls-9" d="M161.36,137.81l28-113.93L340.18,111a2.23,2.23,0,0,1,.56,1.69L313.06,225.39Z"/><path class="cls-8" d="M340.18,111,194.37,26.78,307,221.91l6,3.48,27.68-112.73A2.23,2.23,0,0,0,340.18,111Z"/><path class="cls-10" d="M161.36,137.81l28-113.93L340.18,111a2.23,2.23,0,0,1,.56,1.69L313.06,225.39Z"/><path class="cls-5" d="M180.61,241.86,142.81,220a9.72,9.72,0,0,0-8.79,0L114.3,231.42l46.58,26.89,19.73-11.39C183,245.52,183,243.26,180.61,241.86Z"/><path class="cls-5" d="M234.78,264.31,103.91,188.75c-2-1.16-2-3,0-4.2L151,157.39a8,8,0,0,1,7.28,0L289.1,233c2,1.16,2,3,0,4.2l-47,27.16A8,8,0,0,1,234.78,264.31Z"/><rect class="cls-11" width="440" height="300"/></g></g></svg>