<svg xmlns="http://www.w3.org/2000/svg" viewBox="0 0 126 126"><defs><style>.cls-1{fill:#fff;stroke:#b8bfca;}.cls-1,.cls-2{stroke-linecap:round;stroke-linejoin:round;stroke-width:2px;}.cls-2,.cls-3{fill:none;}.cls-2{stroke:#627386;}</style></defs><title>letter(1x1)</title><g id="Layer_2" data-name="Layer 2"><g id="Illustrations"><path class="cls-1" d="M21.25,71.88,50,88.5a3.75,3.75,0,0,0,3.36,0l53.76-31a1,1,0,0,0,0-1.94L77.53,38.41"/><path class="cls-1" d="M21.25,71.88,50,88.5a3.75,3.75,0,0,0,3.36,0l53.76-31a1,1,0,0,0,0-1.94L77.53,38.41"/><path class="cls-1" d="M77.53,38.41,76,37.5a3.75,3.75,0,0,0-3.36,0l-53.76,31a1,1,0,0,0,0,1.94l2.41,1.4"/><path class="cls-1" d="M107.16,55.52a1,1,0,0,1,0,1.94L53.4,88.5a3.75,3.75,0,0,1-3.36,0l-1-.58,8.4-23.79c.78-2.19,3.74-3.9,7.53-4.34l41.2-4.85Z"/><path class="cls-1" d="M18.84,70.48a1,1,0,0,1,0-1.94l53.76-31a3.75,3.75,0,0,1,3.36,0l1,.58-8.4,23.79c-.78,2.19-3.74,3.9-7.53,4.34l-41.2,4.85Z"/><path class="cls-2" d="M21.25,71.88l-2.41-1.4a1,1,0,0,1,0-1.94l53.76-31a3.75,3.75,0,0,1,3.36,0l1.57.91,29.63,17.11a1,1,0,0,1,0,1.94L53.4,88.5a3.75,3.75,0,0,1-3.36,0Z"/><rect class="cls-3" width="126" height="126"/></g></g></svg>