<svg xmlns="http://www.w3.org/2000/svg" viewBox="0 0 126 126"><defs><style>.cls-1{fill:#d5dae0;}.cls-1,.cls-5,.cls-6{stroke:#627386;}.cls-1,.cls-2,.cls-4,.cls-5,.cls-6,.cls-7{stroke-linecap:round;stroke-linejoin:round;}.cls-1,.cls-2,.cls-4,.cls-5,.cls-6{stroke-width:2px;}.cls-2,.cls-5,.cls-8{fill:none;}.cls-2,.cls-4{stroke:#fff;}.cls-3{fill:#f2f4f6;}.cls-4,.cls-6,.cls-7{fill:#b8bfca;}.cls-7{stroke:#b8bfca;}</style></defs><title>lock(1x1)</title><g id="Layer_2" data-name="Layer 2"><g id="Illustrations"><path class="cls-1" d="M39.19,64.17a4,4,0,0,1-2-.52l-14-8.1c-4.37-2.52-6.88-6.26-6.88-10.26S18.83,37.56,23.2,35c7.76-4.48,19.92-4.48,27.68,0l14,8.09A3.93,3.93,0,0,1,61,49.94l-14-8.1c-5.37-3.1-14.45-3.1-19.82,0-1.84,1.07-2.95,2.36-2.95,3.45s1.11,2.39,2.95,3.45l14,8.1a3.93,3.93,0,0,1-2,7.33Z"/><path class="cls-2" d="M38.34,61.72l-14-8.09c-3.67-2.12-5.78-5.16-5.78-8.34s2.11-6.21,5.78-8.33"/><path class="cls-1" d="M34.44,52,64.33,34.78A2.6,2.6,0,0,1,67,34.57h0L108.27,58.4,73.06,94.05,31.78,70.22h0c-.86-.49-1.41-1.65-1.41-3.29V59.81C30.37,56.82,32.19,53.33,34.44,52Z"/><path class="cls-3" d="M81.45,85.55,108.27,58.4,67,34.57h0a2.6,2.6,0,0,0-2.66.21L34.44,52A8.77,8.77,0,0,0,31,56.45Z"/><path class="cls-4" d="M105.61,76.58,75.72,93.84c-2.24,1.29-4.07-.08-4.07-3.08V83.65c0-3,1.83-6.48,4.07-7.78l29.89-17.25c2.25-1.3,4.07.08,4.07,3.07V68.8C109.68,71.8,107.86,75.29,105.61,76.58Z"/><path class="cls-5" d="M108.27,58.41h0L67,34.57h0a2,2,0,0,0-.58-.22,2.25,2.25,0,0,0-.64-.05,3.3,3.3,0,0,0-1.07.31c-.13.06-.25.1-.37.17L34.44,52a4.91,4.91,0,0,0-.73.52l-.16.13a8.08,8.08,0,0,0-.66.65l-.11.14a7.17,7.17,0,0,0-.52.68l-.14.19c-.18.27-.34.55-.5.85a2,2,0,0,0-.13.25c-.13.25-.25.52-.36.79,0,.06-.05.12-.08.19v0h0a9.57,9.57,0,0,0-.67,3.36v7.11c0,1.64.55,2.8,1.41,3.29h0L73.06,94.05h0a2.62,2.62,0,0,0,2.66-.21l29.89-17.26c2.25-1.29,4.07-4.78,4.07-7.78V61.69C109.68,60.05,109.13,58.9,108.27,58.41Z"/><polyline class="cls-6" points="88.03 77.75 90.67 76.23 93.3 74.7"/><path class="cls-7" d="M69.93,50.55a9.21,9.21,0,0,0-8.31,0c-2.3,1.32-2.3,3.47,0,4.8a9.08,9.08,0,0,0,5.78.85l7,5.06,5.75-3.32-8.76-4C72,52.74,71.49,51.45,69.93,50.55Z"/><rect class="cls-8" width="126" height="126"/></g></g></svg>