<svg xmlns="http://www.w3.org/2000/svg" xmlns:xlink="http://www.w3.org/1999/xlink" viewBox="0 0 126 126"><defs><style>.cls-1,.cls-10,.cls-11,.cls-14,.cls-5,.cls-6{fill:none;}.cls-2,.cls-7{fill:#f2f4f6;}.cls-3{fill:#b8bfca;}.cls-4,.cls-8{fill:#d5dae0;}.cls-5{stroke:#fff;}.cls-10,.cls-11,.cls-12,.cls-5,.cls-6,.cls-7,.cls-8{stroke-linecap:round;stroke-linejoin:round;}.cls-10,.cls-11,.cls-12,.cls-14,.cls-5,.cls-6,.cls-7,.cls-8{stroke-width:2px;}.cls-6,.cls-7,.cls-8{stroke:#627386;}.cls-9{fill:#feeeee;}.cls-10{stroke:#fccccc;}.cls-11,.cls-12{stroke:#c44556;}.cls-12{fill:#fccccc;}.cls-13{clip-path:url(#clip-path);}.cls-14{stroke:#b8bfca;stroke-miterlimit:10;}.cls-15{fill:#fff;}</style><clipPath id="clip-path"><path class="cls-1" d="M95.19,43.44,92.41,51.2,87,63.46c-1.59-.78-3.6-.64-5.79.63-5.12,3-9.28,10.89-9.28,17.72,0,3.94,1.39,6.64,3.54,7.67l-3.54,8,18.56-8.14,4.36-5.57Z"/></clipPath></defs><title>low_resources(1x1)</title><g id="Layer_2" data-name="Layer 2"><g id="Illustrations"><path class="cls-2" d="M72.63,23.26c0-8.08-4.91-17.46-11-21C58.92.72,56.42.63,54.5,1.74h0L48.23,5.34h0c-2.32,1.35-3.8,4.44-3.8,8.86,0,8.07,4.91,17.45,11,20.95,2.74,1.58,5.24,1.67,7.16.56h0l6.26-3.61h0C71.15,30.77,72.63,27.67,72.63,23.26Z"/><path class="cls-3" d="M55.41,35.16c2.74,1.58,5.24,1.67,7.16.56h0l6.26-3.61h0c2.32-1.34,3.8-4.44,3.8-8.85a26.59,26.59,0,0,0-2.62-11L47.19,25.46C49.2,29.65,52.13,33.27,55.41,35.16Z"/><ellipse class="cls-4" cx="55.41" cy="20.54" rx="9.52" ry="16.83" transform="translate(-3.62 23.33) rotate(-23.05)"/><ellipse class="cls-5" cx="55.41" cy="20.54" rx="9.52" ry="16.83" transform="translate(-3.62 23.33) rotate(-23.05)"/><path class="cls-6" d="M72.63,23.26c0-8.08-4.91-17.46-11-21C58.92.72,56.42.63,54.5,1.74h0L48.23,5.34h0a6.44,6.44,0,0,0-.8.57L47.37,6a6.65,6.65,0,0,0-.65.65l-.11.13c-.18.23-.36.47-.52.72L46,7.69a7.11,7.11,0,0,0-.4.78,2.39,2.39,0,0,0-.13.28,6.78,6.78,0,0,0-.31.83L45,9.94q-.12.44-.21.9c0,.13-.07.27-.09.41-.06.33-.1.67-.14,1,0,.13,0,.25-.05.39,0,.5-.07,1-.07,1.54,0,8.07,4.91,17.45,11,20.95h0c.36.21.72.38,1.06.54l.41.16c.21.08.42.17.62.23s.34.09.51.14l.48.11c.19,0,.38.06.56.08l.37,0H60l.28,0,.63-.09.19-.05a4.6,4.6,0,0,0,.66-.2l.1,0a4.76,4.76,0,0,0,.68-.33h0l6.26-3.61h0C71.15,30.77,72.63,27.67,72.63,23.26Z"/><path class="cls-7" d="M43,39.9c-1.88-1.08-3-2.41-3-3.46s1.16-2.37,3-3.46l14.38-8.3v0a2.65,2.65,0,0,0,1-2.38,7.16,7.16,0,0,0-3-5.72,1.87,1.87,0,0,0-2-.11v0l-15,8.64c-4.84,2.79-7.62,6.94-7.62,11.39s2.78,8.6,7.62,11.39L68.52,65.21l4-8.29Z"/><polyline class="cls-5" points="39.58 26.6 52.42 19.18 52.47 19.28 54.32 18.14"/><path class="cls-5" d="M39.54,39.72a11.47,11.47,0,0,0,2.33,1.73l27.65,16"/><ellipse class="cls-8" cx="70.53" cy="61.07" rx="4.59" ry="2.6" transform="translate(-13.28 102.06) rotate(-66.95)"/><path class="cls-9" d="M50.65,42.46v0c-1.63-.94-3.75-.87-6.07.47-5.12,3-9.27,10.9-9.27,17.73,0,3.74,1.24,6.36,3.21,7.49h0L75.12,89.32,87.26,63.6Z"/><path class="cls-10" d="M70.05,54.21S63.16,63.06,65.86,78"/><path class="cls-10" d="M52.66,44.18S41.14,59,53.74,82.66"/><path class="cls-11" d="M50.65,42.46v0c-1.63-.94-3.75-.87-6.07.47-5.12,3-9.27,10.9-9.27,17.73,0,3.74,1.24,6.36,3.21,7.49h0L75.12,89.32,87.26,63.6Z"/><ellipse class="cls-12" cx="81.19" cy="76.46" rx="14.24" ry="8.06" transform="translate(-20.95 121.23) rotate(-66.95)"/><g class="cls-13"><path class="cls-7" d="M43,39.9c-1.88-1.08-3-2.41-3-3.46s1.16-2.37,3-3.46l14.38-8.3v0a2.65,2.65,0,0,0,1-2.38,7.16,7.16,0,0,0-3-5.72,1.87,1.87,0,0,0-2-.11v0l-15,8.64c-4.84,2.79-7.62,6.94-7.62,11.39s2.78,8.6,7.62,11.39L89,77l4-8.28Z"/><line class="cls-5" x1="41.87" y1="41.45" x2="86.07" y2="66.97"/><ellipse class="cls-4" cx="91.01" cy="72.9" rx="4.59" ry="2.6" transform="translate(-11.7 128.09) rotate(-66.95)"/><ellipse class="cls-14" cx="91.01" cy="72.9" rx="4.59" ry="2.6" transform="translate(-11.7 128.09) rotate(-66.95)"/><path class="cls-6" d="M93,68.78l0,0L43,39.9c-1.88-1.08-3-2.41-3-3.46s1.16-2.37,3-3.46l14.38-8.3v0a2.65,2.65,0,0,0,1-2.38,7.16,7.16,0,0,0-3-5.72,1.87,1.87,0,0,0-2-.11v0l-15,8.64c-4.84,2.79-7.62,6.94-7.62,11.39s2.78,8.6,7.62,11.39L89,77v0a1.88,1.88,0,0,0,2-.12,7.16,7.16,0,0,0,3-5.71A2.61,2.61,0,0,0,93,68.78Z"/></g><path class="cls-11" d="M87.06,63.49c-1.59-.82-3.64-.69-5.87.6-4.6,2.65-8.41,9.31-9.15,15.59"/><polygon class="cls-15" points="35.33 103.9 35.33 59.69 71.93 80.82 71.87 125 35.33 103.9"/><line class="cls-14" x1="71.87" y1="118.98" x2="35.33" y2="97.88"/><polygon class="cls-6" points="35.33 103.9 35.33 59.69 71.93 80.82 71.87 125 35.33 103.9"/><rect class="cls-1" width="126" height="126"/></g></g></svg>