<svg xmlns="http://www.w3.org/2000/svg" viewBox="0 0 1520 2201"><defs><style>.cls-1,.cls-5,.cls-7,.cls-8{fill:none;}.cls-2{fill:#d5dae0;}.cls-10,.cls-3{fill:#b8bfca;}.cls-4,.cls-9{fill:#f2f4f6;}.cls-10,.cls-5{stroke:#fff;}.cls-10,.cls-5,.cls-7,.cls-8,.cls-9{stroke-linecap:round;stroke-linejoin:round;stroke-width:2px;}.cls-6{fill:#fff;}.cls-7,.cls-9{stroke:#627386;}.cls-8{stroke:#b8bfca;}</style></defs><title>magnifying_glass(2x1)</title><g id="Layer_2" data-name="Layer 2"><g id="Illustrations"><rect class="cls-1" x="1080" width="440" height="200"/><rect class="cls-1" x="1080" y="1000" width="440" height="200"/><rect class="cls-1" x="1080" y="500" width="440" height="200"/><path class="cls-2" d="M222.11,2071.18c-9.09-8.09-24.86-13.44-42.81-13.44s-33.71,5.35-42.8,13.44h-8.2v14c0,16.26,22.84,29.45,51,29.45s51-13.19,51-29.45v-14Z"/><path class="cls-3" d="M230.3,2085.18v-14h-8.19c-9.09-8.09-24.86-13.44-42.81-13.44v56.89C207.47,2114.63,230.3,2101.44,230.3,2085.18Z"/><ellipse class="cls-4" cx="179.3" cy="2071.18" rx="51" ry="29.44"/><ellipse class="cls-5" cx="179.3" cy="2071.18" rx="51" ry="29.44"/><ellipse class="cls-6" cx="179.3" cy="2071.18" rx="41" ry="22.57"/><path class="cls-7" d="M179.3,2041.74c-28.16,0-51,13.18-51,29.44v14c0,16.26,22.84,29.45,51,29.45s51-13.19,51-29.45v-14C230.3,2054.92,207.47,2041.74,179.3,2041.74Z"/><path class="cls-2" d="M179.3,2056.61c20.16,0,36.92,8,40.35,18.57a12.94,12.94,0,0,0,.65-4c0-12.46-18.35-22.57-41-22.57s-41,10.11-41,22.57a12.66,12.66,0,0,0,.66,4C142.39,2064.63,159.14,2056.61,179.3,2056.61Z"/><path class="cls-8" d="M179.3,2056.61c20.16,0,36.92,8,40.35,18.57a12.94,12.94,0,0,0,.65-4c0-12.46-18.35-22.57-41-22.57s-41,10.11-41,22.57a12.66,12.66,0,0,0,.66,4C142.39,2064.63,159.14,2056.61,179.3,2056.61Z"/><path class="cls-9" d="M218.66,2095.28v0a2.08,2.08,0,0,0-2.16.15,7.94,7.94,0,0,0-3.31,6.34,2.92,2.92,0,0,0,1.15,2.66v0l18.45,10.64,4.34-9.18Z"/><path class="cls-6" d="M218.65,2095.3a2.08,2.08,0,0,0-2.16.15,6.84,6.84,0,0,0-2.49,3l20.94,12.09,2.17-4.59-18.45-10.65Z"/><path class="cls-7" d="M218.66,2095.28v0a2.08,2.08,0,0,0-2.16.15,7.94,7.94,0,0,0-3.31,6.34,2.92,2.92,0,0,0,1.15,2.66v0l18.45,10.64,4.34-9.18Z"/><path class="cls-2" d="M238.31,2101.59h0a3.92,3.92,0,0,0-4,.32c-3.41,2-6.18,7.25-6.18,11.79,0,2.49.83,4.24,2.14,5h0l71.25,41.14,8.08-17.12Z"/><path class="cls-4" d="M305.52,2151.29l4-8.56-71.25-41.14h0a3.92,3.92,0,0,0-4,.32,12.59,12.59,0,0,0-4.67,5.54Z"/><ellipse class="cls-10" cx="305.52" cy="2151.29" rx="9.48" ry="5.36" transform="translate(-1793.63 1590.08) rotate(-66.95)"/><path class="cls-7" d="M309.56,2142.74h0l-71.25-41.14h0a3.92,3.92,0,0,0-4,.32,6.9,6.9,0,0,0-.67.43l-.19.15-.45.36-.21.19c-.14.13-.28.26-.42.41l-.18.19c-.15.15-.29.31-.43.47l-.15.19c-.14.18-.29.36-.42.55l-.12.17c-.15.2-.29.41-.43.63l-.09.13c-.15.24-.29.49-.43.74l0,.07c-.15.28-.3.57-.43.85h0a15.1,15.1,0,0,0-1.51,6.25c0,2.49.83,4.24,2.14,5h0l71.25,41.14h0a3.92,3.92,0,0,0,4-.32c3.41-2,6.18-7.25,6.18-11.79C311.7,2145.24,310.87,2143.49,309.56,2142.74Z"/><ellipse class="cls-7" cx="179.3" cy="2071.18" rx="41" ry="22.57"/><rect class="cls-1" y="2001" width="440" height="200"/></g></g></svg>