<svg xmlns="http://www.w3.org/2000/svg" viewBox="0 0 126 126"><defs><style>.cls-1,.cls-5,.cls-7{fill:none;}.cls-1{stroke:#627386;}.cls-1,.cls-2,.cls-5,.cls-6{stroke-linecap:round;stroke-linejoin:round;stroke-width:2px;}.cls-2{fill:#d5dae0;}.cls-2,.cls-5,.cls-6{stroke:#b8bfca;}.cls-3{fill:#f2f4f6;}.cls-4,.cls-6{fill:#fff;}</style></defs><title>mouse(1x1)</title><g id="Layer_2" data-name="Layer 2"><g id="Illustrations"><path class="cls-1" d="M1,25.17l13.24,7.64c2.56,1.48,2.56,3.88,0,5.36L7.93,41.81c-2.56,1.48-2.56,3.88,0,5.36h0a10.25,10.25,0,0,0,9.28,0l21.9-12.64a10.27,10.27,0,0,1,9.29,0l.17.1c2.56,1.48,2.56,3.88,0,5.36L26.67,52.63c-2.56,1.48-2.56,3.88,0,5.36l0,0A10.25,10.25,0,0,0,36,58l6.31-3.65a10.25,10.25,0,0,1,9.28,0L64.81,62"/><path class="cls-2" d="M45.67,65.91c0,3.6.52,5.51,7.32,9.44l5.21,3L90.74,97.15c9.7,6,16.24,4.17,26.72-1.88S45.67,65.91,45.67,65.91Z"/><path class="cls-3" d="M70,80c22.34,12.9,27.08,26.57,47.46,15.31C134.21,86,120.37,72,102.06,61.45,78.57,47.89,70.14,49.86,53.14,59.67,38.43,68.16,46.16,66.2,70,80Z"/><path class="cls-4" d="M114.2,69.62a96.84,96.84,0,0,0-12.14-8.17C78.57,47.89,70.14,49.86,53.14,59.67,38.43,68.16,46.16,66.2,70,80c3.53,2,6.62,4.09,9.4,6.07,7.7,1.9,15.5,1.27,24.42-3.66C110.2,78.85,113.48,74.41,114.2,69.62Z"/><path class="cls-5" d="M70,80c22.34,12.9,27.08,26.57,47.46,15.31C134.21,86,120.37,72,102.06,61.45,78.57,47.89,70.14,49.86,53.14,59.67,38.43,68.16,46.16,66.2,70,80Z"/><path class="cls-6" d="M68.21,59.54c-.69-.2-1.36-.38-2-.54"/><path class="cls-6" d="M70.21,60.17c-.68-.23-1.34-.44-2-.63"/><path class="cls-1" d="M102.06,61.45C78.57,47.89,70.14,49.86,53.14,59.67c-5.21,3-7.59,4.7-7.45,6.25h0c0,3.6.52,5.51,7.32,9.44l5.21,3L90.74,97.15c9.7,6,16.24,4.17,26.72-1.88C134.21,86,120.37,72,102.06,61.45Z"/><rect class="cls-7" width="126" height="126"/></g></g></svg>