<svg xmlns="http://www.w3.org/2000/svg" viewBox="0 0 126 126"><defs><style>.cls-1{isolation:isolate;}.cls-2{fill:#f2f4f6;}.cls-3{fill:#fff;}.cls-4{fill:#d5dae0;}.cls-10,.cls-11,.cls-14,.cls-15,.cls-16,.cls-5,.cls-6,.cls-8,.cls-9{fill:none;}.cls-10,.cls-11,.cls-5,.cls-8,.cls-9{stroke:#b8bfca;}.cls-10,.cls-11,.cls-14,.cls-15,.cls-5,.cls-6,.cls-8,.cls-9{stroke-linecap:round;stroke-linejoin:round;stroke-width:2px;}.cls-6{stroke:#627386;}.cls-7,.cls-9{mix-blend-mode:darken;}.cls-8{stroke-dasharray:0 5.6;}.cls-10{stroke-dasharray:0 5.6;}.cls-11{stroke-dasharray:0 5.5;}.cls-12{fill:#feeeee;}.cls-13{fill:#fccccc;}.cls-14{stroke:#faabab;}.cls-15{stroke:#c44556;}</style></defs><title>network_error(1x1)</title><g class="cls-1"><g id="Layer_2" data-name="Layer 2"><g id="Illustrations"><polygon class="cls-2" points="77.66 32.19 63.12 40.58 48.58 32.19 48.58 15.4 63.12 7 77.66 15.4 77.66 32.19"/><polygon class="cls-3" points="77.66 15.4 63.12 23.79 48.58 15.4 48.58 15.4 63.12 7 77.66 15.4 77.66 15.4"/><polygon class="cls-4" points="63.12 23.79 63.12 40.58 77.66 32.19 77.66 15.4 63.12 23.79"/><polygon class="cls-5" points="77.66 32.19 63.12 40.58 48.58 32.19 48.58 15.4 63.12 7 77.66 15.4 77.66 32.19"/><polygon class="cls-5" points="77.66 15.4 63.12 23.79 48.58 15.4 48.58 15.4 63.12 7 77.66 15.4 77.66 15.4"/><polygon class="cls-5" points="63.12 23.79 63.12 40.58 77.66 32.19 77.66 15.4 63.12 23.79"/><polygon class="cls-6" points="63.12 7 48.58 15.4 48.58 32.19 63.12 40.58 77.66 32.19 77.66 15.4 63.12 7"/><polygon class="cls-2" points="43.71 51.79 29.16 60.19 14.62 51.79 14.62 35 29.16 26.6 43.71 35 43.71 51.79"/><polygon class="cls-3" points="43.71 35 29.16 43.4 14.62 35 14.62 35 29.16 26.6 43.71 35 43.71 35"/><polygon class="cls-4" points="29.16 43.4 29.16 60.19 43.71 51.79 43.71 35 29.16 43.4"/><polygon class="cls-5" points="43.71 51.79 29.16 60.19 14.62 51.79 14.62 35 29.16 26.6 43.71 35 43.71 51.79"/><polygon class="cls-5" points="43.71 35 29.16 43.4 14.62 35 14.62 35 29.16 26.6 43.71 35 43.71 35"/><polygon class="cls-5" points="29.16 43.4 29.16 60.19 43.71 51.79 43.71 35 29.16 43.4"/><polygon class="cls-6" points="29.16 26.6 14.62 35 14.62 51.79 29.16 60.19 43.71 51.79 43.71 35 29.16 26.6"/><polygon class="cls-2" points="43.47 90.86 28.92 99.26 14.38 90.86 14.38 74.07 28.92 65.67 43.47 74.07 43.47 90.86"/><polygon class="cls-3" points="43.47 74.07 28.92 82.47 14.38 74.07 14.38 74.07 28.92 65.67 43.47 74.07 43.47 74.07"/><polygon class="cls-4" points="28.92 82.47 28.92 99.26 43.47 90.86 43.47 74.07 28.92 82.47"/><polygon class="cls-5" points="43.47 90.86 28.92 99.26 14.38 90.86 14.38 74.07 28.92 65.67 43.47 74.07 43.47 90.86"/><polygon class="cls-5" points="43.47 74.07 28.92 82.47 14.38 74.07 14.38 74.07 28.92 65.67 43.47 74.07 43.47 74.07"/><polygon class="cls-5" points="28.92 82.47 28.92 99.26 43.47 90.86 43.47 74.07 28.92 82.47"/><polygon class="cls-6" points="28.92 65.67 14.38 74.07 14.38 90.86 28.92 99.26 43.47 90.86 43.47 74.07 28.92 65.67"/><polygon class="cls-2" points="77.66 110.6 63.12 119 48.58 110.6 48.58 93.81 63.12 85.42 77.66 93.81 77.66 110.6"/><polygon class="cls-3" points="77.66 93.81 63.12 102.21 48.58 93.81 48.58 93.81 63.12 85.42 77.66 93.81 77.66 93.81"/><polygon class="cls-4" points="63.12 102.21 63.12 119 77.66 110.6 77.66 93.81 63.12 102.21"/><polygon class="cls-5" points="77.66 110.6 63.12 119 48.58 110.6 48.58 93.81 63.12 85.42 77.66 93.81 77.66 110.6"/><polygon class="cls-5" points="77.66 93.81 63.12 102.21 48.58 93.81 48.58 93.81 63.12 85.42 77.66 93.81 77.66 93.81"/><polygon class="cls-5" points="63.12 102.21 63.12 119 77.66 110.6 77.66 93.81 63.12 102.21"/><polygon class="cls-6" points="63.12 85.42 48.58 93.81 48.58 110.6 63.12 119 77.66 110.6 77.66 93.81 63.12 85.42"/><polygon class="cls-2" points="111.62 91 97.08 99.4 82.53 91 82.53 74.21 97.08 65.81 111.62 74.21 111.62 91"/><polygon class="cls-3" points="111.62 74.21 97.08 82.6 82.53 74.21 82.53 74.21 97.08 65.81 111.62 74.21 111.62 74.21"/><polygon class="cls-4" points="97.08 82.6 97.08 99.4 111.62 91 111.62 74.21 97.08 82.6"/><polygon class="cls-5" points="111.62 91 97.08 99.4 82.53 91 82.53 74.21 97.08 65.81 111.62 74.21 111.62 91"/><polygon class="cls-5" points="111.62 74.21 97.08 82.6 82.53 74.21 82.53 74.21 97.08 65.81 111.62 74.21 111.62 74.21"/><polygon class="cls-5" points="97.08 82.6 97.08 99.4 111.62 91 111.62 74.21 97.08 82.6"/><polygon class="cls-6" points="97.08 65.81 82.53 74.21 82.53 91 97.08 99.4 111.62 91 111.62 74.21 97.08 65.81"/><g class="cls-7"><line class="cls-5" x1="63.12" y1="102.21" x2="63.12" y2="102.21"/><line class="cls-8" x1="63.12" y1="96.61" x2="63.12" y2="88.22"/><line class="cls-5" x1="63.12" y1="85.42" x2="63.12" y2="85.42"/></g><line class="cls-9" x1="82.53" y1="35" x2="78.08" y2="32.43"/><line class="cls-9" x1="77.66" y1="93.81" x2="82.53" y2="91"/><line class="cls-9" x1="97.08" y1="65.81" x2="97.08" y2="60.19"/><g class="cls-7"><line class="cls-5" x1="97.08" y1="82.6" x2="97.08" y2="82.6"/><line class="cls-10" x1="97.08" y1="77.01" x2="97.08" y2="68.61"/><line class="cls-5" x1="97.08" y1="65.81" x2="97.08" y2="65.81"/></g><line class="cls-9" x1="43.71" y1="35" x2="48.58" y2="32.19"/><line class="cls-9" x1="48.58" y1="93.81" x2="43.71" y2="91"/><g class="cls-7"><line class="cls-5" x1="43.47" y1="90.86" x2="43.47" y2="90.86"/><line class="cls-11" x1="38.7" y1="88.11" x2="31.55" y2="83.98"/><line class="cls-5" x1="29.16" y1="82.6" x2="29.16" y2="82.6"/></g><line class="cls-9" x1="29.16" y1="65.81" x2="29.16" y2="60.19"/><polygon class="cls-12" points="77.66 71.4 63.12 79.79 48.58 71.4 48.58 54.6 63.12 46.21 77.66 54.6 77.66 71.4"/><polygon class="cls-3" points="77.66 54.6 63.12 63 48.58 54.6 48.58 54.6 63.12 46.21 77.66 54.6 77.66 54.6"/><polygon class="cls-13" points="63.12 63 63.12 79.79 77.66 71.4 77.66 54.6 63.12 63"/><polygon class="cls-14" points="77.66 71.4 63.12 79.79 48.58 71.4 48.58 54.6 63.12 46.21 77.66 54.6 77.66 71.4"/><polygon class="cls-14" points="77.66 54.6 63.12 63 48.58 54.6 48.58 54.6 63.12 46.21 77.66 54.6 77.66 54.6"/><polygon class="cls-14" points="63.12 63 63.12 79.79 77.66 71.4 77.66 54.6 63.12 63"/><polygon class="cls-15" points="63.12 46.21 48.58 54.6 48.58 71.4 63.12 79.79 77.66 71.4 77.66 54.6 63.12 46.21"/><g class="cls-7"><line class="cls-5" x1="29.16" y1="82.6" x2="29.16" y2="82.6"/><line class="cls-10" x1="29.16" y1="77.01" x2="29.16" y2="68.61"/><line class="cls-5" x1="29.16" y1="65.81" x2="29.16" y2="65.81"/></g><g class="cls-7"><line class="cls-5" x1="82.53" y1="91" x2="82.53" y2="91"/><line class="cls-11" x1="87.3" y1="88.25" x2="94.45" y2="84.12"/><line class="cls-5" x1="96.84" y1="82.74" x2="96.84" y2="82.74"/></g><g class="cls-7"><line class="cls-5" x1="63.12" y1="23.79" x2="63.12" y2="23.79"/><line class="cls-11" x1="67.89" y1="26.54" x2="75.04" y2="30.67"/><line class="cls-5" x1="77.42" y1="32.05" x2="77.42" y2="32.05"/></g><g class="cls-7"><line class="cls-5" x1="63.12" y1="23.79" x2="63.12" y2="23.79"/><line class="cls-11" x1="58.35" y1="26.54" x2="51.2" y2="30.67"/><line class="cls-5" x1="48.82" y1="32.05" x2="48.82" y2="32.05"/></g><polygon class="cls-2" points="111.62 51.79 97.08 60.19 82.53 51.79 82.53 35 97.08 26.6 111.62 35 111.62 51.79"/><polygon class="cls-3" points="111.62 35 97.08 43.4 82.53 35 82.53 35 97.08 26.6 111.62 35 111.62 35"/><polygon class="cls-4" points="97.08 43.4 97.08 60.19 111.62 51.79 111.62 35 97.08 43.4"/><polygon class="cls-5" points="111.62 51.79 97.08 60.19 82.53 51.79 82.53 35 97.08 26.6 111.62 35 111.62 51.79"/><polygon class="cls-5" points="111.62 35 97.08 43.4 82.53 35 82.53 35 97.08 26.6 111.62 35 111.62 35"/><polygon class="cls-5" points="97.08 43.4 97.08 60.19 111.62 51.79 111.62 35 97.08 43.4"/><polygon class="cls-6" points="97.08 26.6 82.53 35 82.53 51.79 97.08 60.19 111.62 51.79 111.62 35 97.08 26.6"/><rect class="cls-16" width="126" height="126"/></g></g></g></svg>