<svg xmlns="http://www.w3.org/2000/svg" viewBox="0 0 126 126"><defs><style>.cls-1{fill:#fff;}.cls-10,.cls-11,.cls-12,.cls-2,.cls-5,.cls-8,.cls-9{fill:none;}.cls-2{stroke:#627386;}.cls-10,.cls-11,.cls-2,.cls-5,.cls-8,.cls-9{stroke-linecap:round;stroke-linejoin:round;stroke-width:2px;}.cls-3{fill:#d5dae0;}.cls-4{fill:#f2f4f6;}.cls-10,.cls-5{stroke:#b8bfca;}.cls-6{fill:#feeeee;}.cls-7{fill:#fccccc;}.cls-8{stroke:#faabab;}.cls-9{stroke:#c44556;}.cls-10{stroke-dasharray:0 6;}.cls-11{stroke:#d5dae0;}</style></defs><title>no_access(1x1)</title><g id="Layer_2" data-name="Layer 2"><g id="Illustrations"><polygon class="cls-1" points="29.95 60.53 46.01 51.25 65.99 62.78 49.92 72.06 29.95 60.53"/><polygon class="cls-2" points="29.95 60.53 46.01 51.25 65.99 62.78 49.92 72.06 29.95 60.53"/><polygon class="cls-3" points="49.8 36.07 55.21 32.94 55.21 62.69 49.8 65.81 49.8 36.07"/><polygon class="cls-4" points="49.8 36.07 42.27 31.72 42.27 61.47 49.8 65.81 49.8 36.07"/><polyline class="cls-5" points="49.8 64.81 49.8 36.07 55.21 32.94 55.21 61.69"/><polyline class="cls-5" points="49.8 63.81 49.8 36.07 42.27 31.72 42.27 60.47"/><polyline class="cls-2" points="55.21 61.69 55.21 32.94 49.8 36.07 42.27 31.72 42.27 60.47"/><polygon class="cls-1" points="82.77 91.02 98.83 81.75 118.81 93.28 102.74 102.55 82.77 91.02"/><polygon class="cls-2" points="82.77 91.02 98.83 81.75 118.81 93.28 102.74 102.55 82.77 91.02"/><polygon class="cls-3" points="102.62 66.56 108.03 63.44 108.03 93.18 102.62 96.31 102.62 66.56"/><polygon class="cls-4" points="102.62 66.56 95.09 62.22 95.09 91.96 102.62 96.31 102.62 66.56"/><polyline class="cls-5" points="102.62 95.31 102.62 66.56 108.03 63.44 108.03 92.18"/><polyline class="cls-5" points="102.62 94.31 102.62 66.56 95.09 62.22 95.09 90.96"/><polyline class="cls-2" points="108.03 92.18 108.03 63.44 102.62 66.56 95.09 62.22 95.09 90.96"/><polygon class="cls-6" points="35.88 14.02 35.88 29.82 47.73 20.86 35.88 14.02"/><polygon class="cls-6" points="71.43 34.55 59.58 27.7 47.73 36.66 59.58 43.5 71.43 34.55"/><polygon class="cls-6" points="95.13 48.23 83.28 41.39 71.43 50.34 83.28 57.19 95.13 48.23"/><polygon class="cls-6" points="106.98 70.87 106.98 55.07 95.13 64.03 106.98 70.87"/><polygon class="cls-1" points="106.98 55.07 115.43 50.19 44.34 9.14 35.88 14.02 106.98 55.07"/><polygon class="cls-7" points="59.58 27.7 47.73 20.86 35.88 29.82 47.73 36.66 59.58 27.7"/><polygon class="cls-7" points="83.28 41.39 71.43 34.55 59.58 43.5 71.43 50.34 83.28 41.39"/><polygon class="cls-7" points="106.98 55.07 95.13 48.23 83.28 57.19 95.13 64.03 106.98 55.07"/><polygon class="cls-7" points="106.98 55.07 115.43 50.19 115.43 65.99 106.98 70.87 106.98 55.07"/><polygon class="cls-8" points="106.98 55.07 115.43 50.19 44.34 9.14 35.88 14.02 106.98 55.07"/><polygon class="cls-8" points="44.34 9.14 35.88 14.02 35.88 14.02 35.88 29.82 47.73 36.66 59.58 43.5 71.43 50.34 83.28 57.19 95.13 64.03 106.98 70.87 115.43 65.99 115.43 50.19 44.34 9.14"/><polygon class="cls-8" points="35.88 14.02 35.88 29.82 47.73 20.86 35.88 14.02"/><polygon class="cls-8" points="71.43 34.55 59.58 27.7 47.73 36.66 59.58 43.5 71.43 34.55"/><polygon class="cls-8" points="95.13 48.23 83.28 41.39 71.43 50.34 83.28 57.19 95.13 48.23"/><polygon class="cls-8" points="106.98 70.87 106.98 55.07 95.13 64.03 106.98 70.87"/><polygon class="cls-9" points="63.39 20.14 44.34 9.14 35.88 14.02 35.88 29.82 47.73 36.66 47.73 36.66 47.73 36.66 47.73 36.66 52.47 39.4 59.58 43.5 71.43 50.34 77.36 53.77 83.28 57.19 95.13 64.03 99.73 66.68 106.98 70.87 106.98 70.87 106.98 70.87 115.43 65.99 115.43 50.19 63.39 20.14"/><line class="cls-10" x1="7.19" y1="116.86" x2="30.21" y2="103.57"/><path class="cls-11" d="M37.36,101.07a1.41,1.41,0,0,1-.83,1.15,4.39,4.39,0,0,1-4,0,1.22,1.22,0,0,1,0-2.3,4.39,4.39,0,0,1,4,0A1.41,1.41,0,0,1,37.36,101.07Z"/><ellipse class="cls-11" cx="54.33" cy="89.64" rx="18" ry="10.39"/><line class="cls-11" x1="54.33" y1="85.19" x2="54.33" y2="94.09"/><line class="cls-11" x1="62.04" y1="89.64" x2="46.63" y2="89.64"/><rect class="cls-12" width="126" height="126"/></g></g></svg>