<svg xmlns="http://www.w3.org/2000/svg" viewBox="0 0 126 126"><defs><style>.cls-1,.cls-3{fill:none;}.cls-1,.cls-2{stroke:#d5dae0;stroke-linecap:round;stroke-linejoin:round;stroke-width:2px;}.cls-2{fill:#fff;}</style></defs><title>no_reports(1x1)</title><g id="Layer_2" data-name="Layer 2"><g id="Illustrations"><path class="cls-1" d="M78.89,76.09a4.44,4.44,0,0,1-2,3.48L52.31,93.75c-1.11.64-2,.13-2-1.15l-.07-22.85"/><path class="cls-1" d="M66.89,40.26l9.86-5.69c1.11-.64,2-.12,2,1.15l.11,35"/><path class="cls-1" d="M46.21,57.67l.09,32.61a1.41,1.41,0,0,0,.58,1.29l4,2.32a1.41,1.41,0,0,1-.59-1.29L50.2,59.25"/><path class="cls-1" d="M50.19,54.08V52.23a4.42,4.42,0,0,1,2-3.48L76.75,34.57a1.43,1.43,0,0,1,1.43-.14l-4-2.32a1.43,1.43,0,0,0-1.43.14L48.19,46.43a4.44,4.44,0,0,0-2,3.48v2.42"/><path class="cls-2" d="M54.32,41l13.79-7.67a1.75,1.75,0,0,1,1.76,0,2.28,2.28,0,0,1,1,1.7l0,5.75L58.93,47.92,57,43.05a2.53,2.53,0,0,0-1-1.7c-1.67-1.27-2.91.28-2.44,2"/><polyline class="cls-2" points="42.06 49.94 61.29 61.04 83.94 74.12"/><rect class="cls-3" width="126" height="126"/></g></g></svg>