<svg xmlns="http://www.w3.org/2000/svg" viewBox="0 0 126 126"><defs><style>.cls-1{fill:#b8bfca;}.cls-2{fill:#d5dae0;}.cls-3{fill:none;}</style></defs><title>nutanix_x_2(1x1)</title><g id="Layer_2" data-name="Layer 2"><g id="Illustrations"><path class="cls-1" d="M78.72,58.68c.07-.49.74-.87,1.58-.91l41.89-2.44a2.33,2.33,0,0,1,1.52.38c.46.38.36.88-.18,1.19L109.8,64.83a2.41,2.41,0,0,1-1,.27l-29,1.53c-1.06.05-2-.46-1.87-1.07Z"/><path class="cls-1" d="M70.54,53.87c.84,0,1.51-.42,1.58-.91l3.84-24c.05-.34-.18-.68-.66-.87a2.56,2.56,0,0,0-2.07.1L59.51,36.09a.89.89,0,0,0-.47.58L56.1,53.38c-.09.61.79,1.13,1.85,1.08Z"/><path class="cls-2" d="M67.14,89a.87.87,0,0,1-.46.58L52.41,97.8a2.55,2.55,0,0,1-1.72.25c-.69-.15-1.12-.54-1-1l4.1-27.68c.09-.62-.8-1.14-1.87-1.09L3.81,70.6a2.46,2.46,0,0,1-1.52-.38c-.46-.38-.36-.88.18-1.2L16.2,61.1a2.26,2.26,0,0,1,1-.27l52.15-2.6.48,0c.8,0,1.48.34,1.45.81l0,.31Z"/><rect class="cls-3" width="126" height="126"/></g></g></svg>