<svg xmlns="http://www.w3.org/2000/svg" viewBox="0 0 126 126"><defs><style>.cls-1{fill:#d5dae0;}.cls-2{fill:#b8bfca;}.cls-3{fill:none;}</style></defs><title>nutanix_x_1(1x1)</title><g id="Layer_2" data-name="Layer 2"><g id="Illustrations"><path class="cls-1" d="M39.8,113.61a2.36,2.36,0,0,1-.83.88L22.8,123.83c-.51.29-1,.22-1.22-.28a2.72,2.72,0,0,1,.34-2.23l29.5-50.16c.66-1.12.66-2.47,0-2.84L22,52a1.31,1.31,0,0,1-.49-1.36,3,3,0,0,1,1.27-2.16l15.56-9a.84.84,0,0,1,.83-.08l32.1,17.47.29.16c.5.28.51,1.29,0,2.15l-.32.57Z"/><path class="cls-2" d="M76.2,49.2c.51.29,1.27-.15,1.79-1l25.75-43.4a3.2,3.2,0,0,0,.48-1.92c-.11-.79-.65-1-1.27-.69l-15.56,9a2.34,2.34,0,0,0-.82.88L68.5,42.09c-.66,1.11-.66,2.45,0,2.82Z"/><path class="cls-2" d="M76.11,61.73c.52-.89,1.28-1.32,1.79-1L104,74.06a1.32,1.32,0,0,1,.49,1.37,3.07,3.07,0,0,1-1.27,2.16l-15.56,9a.87.87,0,0,1-.83.08l-18-9.57c-.66-.36-.66-1.7,0-2.81Z"/><rect class="cls-3" width="126" height="126"/></g></g></svg>