<svg xmlns="http://www.w3.org/2000/svg" viewBox="0 0 126 126"><defs><style>.cls-1{fill:#fff;}.cls-2,.cls-5,.cls-6{fill:none;}.cls-2,.cls-5{stroke:#d5dae0;stroke-linecap:round;stroke-linejoin:round;}.cls-2{stroke-width:2px;}.cls-3{fill:#f2f4f6;}.cls-4{fill:#d5dae0;}.cls-5{stroke-width:3px;}</style></defs><title>page_error(1x1)</title><g id="Layer_2" data-name="Layer 2"><g id="Illustrations"><path class="cls-1" d="M78.35,16l-39,22.5a5.45,5.45,0,0,0-3.54,5.09v3.07L36,113l4.33-7.58L44.74,108l4.36-7.59,4.36,2.55,4.36-7.72,4.37,2.68,4.36-7.59,4.36,2.56,4.36-7.6,4.37,2.56-.19-64.75"/><path class="cls-2" d="M78.35,16l-39,22.5a5.45,5.45,0,0,0-3.54,5.09v3.07L36,113l4.33-7.58L44.74,108l4.36-7.59,4.36,2.55,4.36-7.72,4.37,2.68,4.36-7.59,4.36,2.56,4.36-7.6,4.37,2.56-.19-64.75"/><path class="cls-3" d="M39.58,38.38a5.39,5.39,0,0,1,4.47.46h0a5.46,5.46,0,0,1,2.52,3.22L90.16,16.9a5.45,5.45,0,0,0-2.5-3.16h0a5.45,5.45,0,0,0-5.7.14Z"/><path class="cls-2" d="M39.58,38.38a5.39,5.39,0,0,1,4.47.46h0a5.46,5.46,0,0,1,2.52,3.22L90.16,16.9a5.45,5.45,0,0,0-2.5-3.16h0a5.45,5.45,0,0,0-5.7.14Z"/><path class="cls-4" d="M54.93,52.28l-.15-.08a1.07,1.07,0,0,0-1.46.39l-.62,1.07a1.08,1.08,0,0,1-1.46.4l0,0a1.07,1.07,0,0,0-1.46.4l-.47.81a1.07,1.07,0,0,0,.39,1.47h0a1.08,1.08,0,0,1,.39,1.47l-.41.72a1.07,1.07,0,0,0,.4,1.47l.14.08a1.07,1.07,0,0,0,1.46-.39l.43-.74a1.08,1.08,0,0,1,1.46-.4h0A1.06,1.06,0,0,0,55,58.55l.47-.82a1.06,1.06,0,0,0-.4-1.46h0a1.09,1.09,0,0,1-.39-1.48l.6-1A1.07,1.07,0,0,0,54.93,52.28Z"/><path class="cls-4" d="M66.92,45.31l-.14-.08a1.06,1.06,0,0,0-1.46.39l-.62,1.07a1.08,1.08,0,0,1-1.46.4l0,0a1.08,1.08,0,0,0-1.46.4l-.47.81a1.08,1.08,0,0,0,.4,1.47h0a1.07,1.07,0,0,1,.4,1.47l-.41.72a1.07,1.07,0,0,0,.4,1.47l.14.08a1.07,1.07,0,0,0,1.46-.39l.43-.74a1.07,1.07,0,0,1,1.46-.4h0A1.07,1.07,0,0,0,67,51.58l.47-.82a1.06,1.06,0,0,0-.4-1.46h0a1.09,1.09,0,0,1-.39-1.48l.6-1A1.07,1.07,0,0,0,66.92,45.31Z"/><line class="cls-5" x1="55.96" y1="67.88" x2="64.96" y2="62.68"/><rect class="cls-6" width="126" height="126"/></g></g></svg>