<svg xmlns="http://www.w3.org/2000/svg" viewBox="0 0 126 126"><defs><style>.cls-1{fill:#d5dae0;}.cls-2{fill:#b8bfca;}.cls-3,.cls-6,.cls-7,.cls-8{fill:none;}.cls-3{stroke:#b8bfca;}.cls-3,.cls-6,.cls-7{stroke-linecap:round;stroke-linejoin:round;stroke-width:2px;}.cls-4{fill:#fff;}.cls-5{fill:#f2f4f6;}.cls-6{stroke:#fff;}.cls-7{stroke:#627386;}</style></defs><title>phone(1x1)</title><g id="Layer_2" data-name="Layer 2"><g id="Illustrations"><path class="cls-1" d="M9.43,50.83,41.37,32.39a11.18,11.18,0,0,1,10.08,0l61.23,35.36,12.32.84v8a3.56,3.56,0,0,1-2.09,2.92l-38.28,22.1a11.18,11.18,0,0,1-10.08,0L3.09,60.32A3.56,3.56,0,0,1,1,57.41v-8Z"/><path class="cls-2" d="M79.5,48.59v54.19a10.43,10.43,0,0,0,5.13-1.2l38.28-22.1A3.56,3.56,0,0,0,125,76.56v-8l-12.32-.84Z"/><path class="cls-3" d="M9.43,50.83,41.37,32.39a11.18,11.18,0,0,1,10.08,0l61.23,35.36,12.32.84v8a3.56,3.56,0,0,1-2.09,2.92l-38.28,22.1a11.18,11.18,0,0,1-10.08,0L3.09,60.32A3.56,3.56,0,0,1,1,57.41v-8Z"/><path class="cls-4" d="M122.91,65.68,51.45,24.42a11.18,11.18,0,0,0-10.08,0L3.09,46.52C.3,48.13.3,50.74,3.09,52.35L74.55,93.6a11.12,11.12,0,0,0,10.08,0l38.28-22.09C125.7,69.9,125.7,67.29,122.91,65.68Z"/><path class="cls-5" d="M122.91,65.68,63,31.09V86.94l11.55,6.67a11.18,11.18,0,0,0,10.08,0l38.28-22.1C125.7,69.9,125.7,67.29,122.91,65.68Z"/><ellipse class="cls-2" cx="96.83" cy="78.55" rx="2.25" ry="1.3"/><path class="cls-6" d="M3.09,52.35,74.55,93.6a11.12,11.12,0,0,0,10.08,0l38.28-22.09c2.79-1.61,2.79-4.22,0-5.83L51.45,24.42a11.18,11.18,0,0,0-10.08,0L3.09,46.52C.3,48.13.3,50.74,3.09,52.35Z"/><path class="cls-7" d="M123.83,66.33c-.14-.11-.28-.23-.43-.33a4.61,4.61,0,0,0-.49-.32l-57-32.89L51.45,24.43a11.12,11.12,0,0,0-10.08,0L3.09,46.52A3.56,3.56,0,0,0,1,49.44v8a3.56,3.56,0,0,0,2.09,2.91l71.46,41.26A10.58,10.58,0,0,0,80,102.76h0c.42,0,.83-.05,1.25-.1h0a9,9,0,0,0,1.17-.22l.31-.09c.28-.08.56-.16.82-.26a8,8,0,0,0,1.06-.5l38.28-22.1A3.56,3.56,0,0,0,125,76.56v-8A3,3,0,0,0,123.83,66.33Z"/><rect class="cls-8" width="126" height="126"/></g></g></svg>