<svg xmlns="http://www.w3.org/2000/svg" viewBox="0 0 1746 2126"><defs><style>.cls-1,.cls-11,.cls-4,.cls-6,.cls-9{fill:none;}.cls-2{fill:#f2f4f6;}.cls-2,.cls-5,.cls-6{stroke:#627386;}.cls-10,.cls-11,.cls-2,.cls-4,.cls-5,.cls-6,.cls-7,.cls-8,.cls-9{stroke-linecap:round;stroke-linejoin:round;stroke-width:2px;}.cls-3{fill:#d5dae0;}.cls-4{stroke:#b8bfca;}.cls-10,.cls-5{fill:#fff;}.cls-7{fill:#bde4fd;}.cls-7,.cls-8,.cls-9{stroke:#91d2fb;}.cls-8{fill:#d3edfd;}.cls-10,.cls-11{stroke:#1b6dc6;}</style></defs><title>pie_chart(1x1)</title><g id="Layer_2" data-name="Layer 2"><g id="Illustrations"><rect class="cls-1" x="1620" width="126" height="126"/><rect class="cls-1" x="540" y="1500" width="126" height="126"/><path class="cls-2" d="M33.62,2051.32h8.69c12.75-9.69,36.27-12.62,55-6.38a43.36,43.36,0,0,1,12.55,6.38h8.68v14.85h0c0,4.17-1.81,8.39-5.68,12.26-11.73,11.72-37.7,15.74-58,9v-14.85H69.7l6.38-6.38H33.62Z"/><path class="cls-3" d="M97.31,2044.94a43.36,43.36,0,0,1,12.55,6.38h8.68v14.85h0c0,4.17-1.81,8.39-5.68,12.26-7.86,7.86-22.11,12.24-36.77,12.25v-49A67.84,67.84,0,0,1,97.31,2044.94Z"/><path class="cls-4" d="M33.62,2051.32h8.69c12.75-9.69,36.27-12.62,55-6.38a43.36,43.36,0,0,1,12.55,6.38h8.68v14.85h0c0,4.17-1.81,8.39-5.68,12.26-11.73,11.72-37.7,15.74-58,9v-14.85H69.7l6.38-6.38H33.62Z"/><path class="cls-5" d="M33.62,2051.32c0-4.17,1.82-8.39,5.68-12.26,11.73-11.73,37.7-15.74,58-9s27.26,21.76,15.54,33.48-37.7,15.75-58,9l21.23-21.23Z"/><path class="cls-4" d="M33.62,2051.32c0-4.17,1.82-8.39,5.68-12.26,11.73-11.73,37.7-15.74,58-9s27.26,21.76,15.54,33.48-37.7,15.75-58,9l21.23-21.23Z"/><path class="cls-6" d="M118.53,2051.32c0-8.47-7.62-16.7-21.22-21.23-20.31-6.77-46.28-2.76-58,9-3.86,3.87-5.69,8.09-5.68,12.26v14.85h27.6l-6.37,6.38v14.85a69.9,69.9,0,0,0,29.36,2.83h.05q2.67-.3,5.25-.8h0c.82-.16,1.62-.33,2.42-.52l.23-.05c1.62-.38,3.21-.82,4.74-1.32l.27-.09c.66-.22,1.3-.45,1.94-.68l.39-.15c1.43-.55,2.8-1.14,4.12-1.79l.42-.21c.51-.26,1-.53,1.5-.8l.47-.26c.6-.35,1.18-.7,1.75-1.06l0,0c.56-.36,1.11-.75,1.64-1.14.15-.11.3-.22.44-.34.4-.29.77-.6,1.14-.91l.43-.36c.49-.42,1-.85,1.4-1.29,3.87-3.87,5.69-8.09,5.68-12.26h0v-14.85Z"/><path class="cls-7" d="M38.07,2067.84l11.84-4.72V2078L28.68,2099.2c-13.61-4.53-21.21-12.76-21.22-21.23v-14.85Z"/><path class="cls-8" d="M7.46,2078v-14.85l21.22,3.27v32.81C15.07,2094.67,7.47,2086.44,7.46,2078Z"/><path class="cls-9" d="M38.07,2067.84l11.84-4.72V2078L28.68,2099.2c-13.61-4.53-21.21-12.76-21.22-21.23v-14.85Z"/><path class="cls-10" d="M7.46,2063.12H49.91l-21.23,21.23C15.07,2079.81,7.47,2071.58,7.46,2063.12Z"/><path class="cls-9" d="M7.46,2063.12H49.91l-21.23,21.23C15.07,2079.81,7.47,2071.58,7.46,2063.12Z"/><path class="cls-11" d="M49.91,2063.12H7.46V2078c0,8.47,7.61,16.7,21.22,21.23L49.91,2078v-14.85Z"/><rect class="cls-1" y="2000" width="126" height="126"/></g></g></svg>