<svg xmlns="http://www.w3.org/2000/svg" viewBox="0 0 126 126"><defs><style>.cls-1{fill:#fff;}.cls-1,.cls-3,.cls-4{stroke:#b8bfca;}.cls-1,.cls-2,.cls-3,.cls-4,.cls-5,.cls-6,.cls-7{stroke-linecap:round;stroke-linejoin:round;stroke-width:2px;}.cls-2,.cls-5,.cls-9{fill:none;}.cls-2{stroke:#d5dae0;}.cls-3,.cls-6,.cls-8{fill:#d5dae0;}.cls-4,.cls-7{fill:#f2f4f6;}.cls-5,.cls-6,.cls-7{stroke:#627386;}</style></defs><title>podium(1x1)</title><g id="Layer_2" data-name="Layer 2"><g id="Illustrations"><polygon class="cls-1" points="87.18 65.81 64.96 78.63 87.18 91.46 109.4 78.63 87.18 65.81"/><polygon class="cls-2" points="75.05 78.63 87.18 71.63 99.31 78.63 87.18 85.64 75.05 78.63"/><polygon class="cls-3" points="109.4 86.52 87.18 99.34 87.18 91.46 109.4 78.63 109.4 86.52"/><polygon class="cls-4" points="64.96 86.52 87.18 99.34 87.18 91.46 64.96 78.63 64.96 86.52"/><polygon class="cls-5" points="87.18 65.81 64.96 78.63 64.96 86.52 87.18 99.34 109.4 86.52 109.4 78.63 87.18 65.81"/><polygon class="cls-3" points="87.18 99.34 64.96 112.17 64.96 82.55 87.18 69.72 87.18 99.34"/><polygon class="cls-4" points="42.74 99.34 64.96 112.17 64.96 82.55 42.74 69.72 42.74 99.34"/><polygon class="cls-1" points="64.96 56.89 42.74 69.72 64.96 82.55 87.18 69.72 64.96 56.89"/><polygon class="cls-2" points="52.83 69.72 64.96 62.71 77.09 69.72 64.96 76.72 52.83 69.72"/><polygon class="cls-5" points="64.96 56.89 42.74 69.72 42.74 99.34 64.96 112.17 87.18 99.34 87.18 69.72 64.96 56.89"/><polygon class="cls-1" points="42.74 84.53 20.52 97.36 42.74 110.19 64.96 97.36 42.74 84.53"/><polygon class="cls-2" points="30.61 97.36 42.74 90.36 54.87 97.36 42.74 104.36 30.61 97.36"/><polygon class="cls-3" points="64.96 112.17 42.74 125 42.74 110.19 64.96 97.36 64.96 112.17"/><polygon class="cls-4" points="20.52 112.17 42.74 125 42.74 110.19 20.52 97.36 20.52 112.17"/><polygon class="cls-5" points="42.74 84.53 20.52 97.36 20.52 112.17 42.74 125 64.96 112.17 64.96 97.36 42.74 84.53"/><path class="cls-5" d="M20.52,46.54c1.22-.21,2.45-.45,3.68-.72A105.08,105.08,0,0,0,53.82,33.9,164.35,164.35,0,0,0,83.44,11.62q1.84-1.72,3.68-3.53"/><path class="cls-6" d="M40.36,40.67l4,9.83,5.25-14.23Q45,38.69,40.36,40.67Z"/><path class="cls-7" d="M31.5,43.89l3.23,10.62,5.88-14Q36,42.42,31.5,43.89Z"/><path class="cls-6" d="M23.88,45.88l-1.11.24,2.49,11.33,6.48-13.68C29.11,44.59,26.49,45.3,23.88,45.88Z"/><path class="cls-7" d="M53.9,33.9c-1.53.89-3.07,1.75-4.6,2.57l4.65,9,4.58-14.36C57,32.06,55.44,33,53.9,33.9Z"/><path class="cls-6" d="M83.88,11.31Q80,15,76.07,18.3l6.55,6.11L85,10.22Z"/><path class="cls-6" d="M58.27,31.32l5.32,8.08L67.46,25Q62.89,28.38,58.27,31.32Z"/><path class="cls-7" d="M67.21,25.25l6,7.12L76.31,18Q71.78,21.84,67.21,25.25Z"/><line class="cls-5" x1="20.52" y1="45.44" x2="20.52" y2="97.36"/><line class="cls-5" x1="87.12" y1="6.99" x2="87.12" y2="66.28"/><circle class="cls-7" cx="20.52" cy="43.37" r="3.91"/><path class="cls-8" d="M20.21,39.47a1.72,1.72,0,0,1,.49.19c1.18.68,1.4,2.52.49,4.1s-2.61,2.3-3.79,1.62a1.86,1.86,0,0,1-.41-.33,4,4,0,0,0,1.57,1.71,3.91,3.91,0,1,0,1.65-7.29Z"/><circle class="cls-5" cx="20.52" cy="43.37" r="3.91"/><circle class="cls-7" cx="87.12" cy="4.91" r="3.91"/><path class="cls-8" d="M86.82,1a1.84,1.84,0,0,1,.49.19c1.18.68,1.4,2.51.48,4.09S85.19,7.61,84,6.93a2.27,2.27,0,0,1-.42-.33,3.86,3.86,0,0,0,1.58,1.7,3.91,3.91,0,0,0,3.91-6.78A3.81,3.81,0,0,0,86.82,1Z"/><circle class="cls-5" cx="87.12" cy="4.91" r="3.91"/><rect class="cls-9" width="126" height="126"/></g></g></svg>