<svg xmlns="http://www.w3.org/2000/svg" viewBox="0 0 440 300"><defs><style>.cls-1{fill:#bde4fd;}.cls-2{fill:#91d2fb;}.cls-3{fill:#d3edfd;}.cls-4,.cls-5,.cls-6,.cls-7,.cls-8{fill:none;}.cls-4{stroke:#fff;}.cls-4,.cls-5,.cls-6,.cls-7{stroke-linecap:round;stroke-linejoin:round;stroke-width:2px;}.cls-5{stroke:#d3edfd;}.cls-6,.cls-7{stroke:#1b6dc6;}.cls-7{stroke-dasharray:0 6;}</style></defs><title>prism_blue(2x1)</title><g id="Layer_2" data-name="Layer 2"><g id="Illustrations"><polygon class="cls-1" points="220 222.02 220 222.02 143.02 177.57 104.53 232.33 220 299 220 222.02"/><polygon class="cls-2" points="220 222.02 220 222.02 296.98 177.57 335.48 232.33 220 299 220 222.02"/><polygon class="cls-3" points="143.02 177.57 220 133.12 296.98 177.57 220 222.02 143.02 177.57"/><polygon class="cls-4" points="220 222.02 220 222.02 143.02 177.57 104.53 232.33 220 299 220 222.02"/><polygon class="cls-5" points="104.53 232.33 220 165.66 335.48 232.33 220 299 104.53 232.33"/><polygon class="cls-4" points="171.19 193.84 220 222.02 268.81 193.84 220 165.66 171.19 193.84"/><polygon class="cls-4" points="220 222.02 220 222.02 296.98 177.57 335.48 232.33 220 299 220 222.02"/><polygon class="cls-4" points="143.02 177.57 220 133.12 296.98 177.57 220 222.02 143.02 177.57"/><polygon class="cls-6" points="296.98 177.57 296.98 177.57 220 133.12 143.02 177.57 143.02 177.57 104.53 232.33 104.53 232.33 104.53 232.33 104.53 232.33 220 299 335.48 232.33 296.98 177.57"/><polygon class="cls-1" points="220 111.51 181.51 89.28 143.02 144.04 220 188.49 220 188.49 220 111.51 220 111.51"/><polygon class="cls-2" points="220 111.51 258.49 89.28 296.98 144.04 220 188.49 220 188.49 220 111.51 220 111.51"/><polygon class="cls-3" points="181.51 89.28 220 67.06 258.49 89.28 220 111.51 181.51 89.28"/><line class="cls-4" x1="220" y1="99.6" x2="220" y2="67.06"/><path class="cls-4" d="M220,111.51l10.31-6L220,99.6l-10.31,6Z"/><polygon class="cls-4" points="220 111.51 181.51 89.28 143.02 144.04 220 188.49 220 188.49 220 111.51 220 111.51"/><polygon class="cls-4" points="220 111.51 258.49 89.28 296.98 144.04 220 188.49 220 188.49 220 111.51 220 111.51"/><polygon class="cls-5" points="220 111.51 209.69 105.55 143.02 144.04 220 188.49 220 111.51 220 111.51"/><path class="cls-5" d="M230.31,105.55l-10.31,6h0v77l77-44.44Z"/><polygon class="cls-4" points="181.51 89.28 220 67.06 258.49 89.28 220 111.51 181.51 89.28"/><polygon class="cls-6" points="258.49 89.28 258.49 89.28 220 67.06 181.51 89.28 181.51 89.28 143.02 144.04 220 188.49 220 188.49 220 188.49 296.98 144.04 258.49 89.28"/><line class="cls-5" x1="220" y1="165.66" x2="220" y2="133.12"/><line class="cls-7" x1="143.02" y1="144.05" x2="143.02" y2="177.57"/><line class="cls-7" x1="296.98" y1="144.05" x2="296.98" y2="177.57"/><line class="cls-7" x1="258.49" y1="55.76" x2="258.49" y2="89.29"/><line class="cls-7" x1="181.51" y1="55.76" x2="181.51" y2="89.29"/><polygon class="cls-1" points="220 77.98 220 77.98 220 1 181.51 55.76 220 77.98"/><polygon class="cls-2" points="220 77.98 220 77.98 220 1 258.49 55.76 220 77.98"/><polygon class="cls-5" points="220 33.54 220 33.54 181.51 55.76 181.51 55.76 220 77.98 220 77.98 220 77.98 258.49 55.76 220 33.54"/><polygon class="cls-4" points="220 77.98 220 77.98 220 1 258.49 55.76 220 77.98"/><polygon class="cls-6" points="220 1 181.51 55.76 220 77.98 220 77.98 220 77.98 258.49 55.76 220 1"/><rect class="cls-8" width="440" height="300"/><polygon class="cls-1" points="220 222.02 220 222.02 143.02 177.57 104.53 232.33 220 299 220 222.02"/><polygon class="cls-2" points="220 222.02 220 222.02 296.98 177.57 335.48 232.33 220 299 220 222.02"/><polygon class="cls-3" points="143.02 177.57 220 133.12 296.98 177.57 220 222.02 143.02 177.57"/><polygon class="cls-4" points="220 222.02 220 222.02 143.02 177.57 104.53 232.33 220 299 220 222.02"/><polygon class="cls-5" points="104.53 232.33 220 165.66 335.48 232.33 220 299 104.53 232.33"/><polygon class="cls-4" points="171.19 193.84 220 222.02 268.81 193.84 220 165.66 171.19 193.84"/><polygon class="cls-4" points="220 222.02 220 222.02 296.98 177.57 335.48 232.33 220 299 220 222.02"/><polygon class="cls-4" points="143.02 177.57 220 133.12 296.98 177.57 220 222.02 143.02 177.57"/><polygon class="cls-6" points="296.98 177.57 296.98 177.57 220 133.12 143.02 177.57 143.02 177.57 104.53 232.33 104.53 232.33 104.53 232.33 104.53 232.33 220 299 335.48 232.33 296.98 177.57"/><polygon class="cls-1" points="220 111.51 181.51 89.28 143.02 144.04 220 188.49 220 188.49 220 111.51 220 111.51"/><polygon class="cls-2" points="220 111.51 258.49 89.28 296.98 144.04 220 188.49 220 188.49 220 111.51 220 111.51"/><polygon class="cls-3" points="181.51 89.28 220 67.06 258.49 89.28 220 111.51 181.51 89.28"/><line class="cls-4" x1="220" y1="99.6" x2="220" y2="67.06"/><path class="cls-4" d="M220,111.51l10.31-6L220,99.6l-10.31,6Z"/><polygon class="cls-4" points="220 111.51 181.51 89.28 143.02 144.04 220 188.49 220 188.49 220 111.51 220 111.51"/><polygon class="cls-4" points="220 111.51 258.49 89.28 296.98 144.04 220 188.49 220 188.49 220 111.51 220 111.51"/><polygon class="cls-5" points="220 111.51 209.69 105.55 143.02 144.04 220 188.49 220 111.51 220 111.51"/><path class="cls-5" d="M230.31,105.55l-10.31,6h0v77l77-44.44Z"/><polygon class="cls-4" points="181.51 89.28 220 67.06 258.49 89.28 220 111.51 181.51 89.28"/><polygon class="cls-6" points="258.49 89.28 258.49 89.28 220 67.06 181.51 89.28 181.51 89.28 143.02 144.04 220 188.49 220 188.49 220 188.49 296.98 144.04 258.49 89.28"/><line class="cls-5" x1="220" y1="165.66" x2="220" y2="133.12"/><line class="cls-7" x1="143.02" y1="144.05" x2="143.02" y2="177.57"/><line class="cls-7" x1="296.98" y1="144.05" x2="296.98" y2="177.57"/><line class="cls-7" x1="258.49" y1="55.76" x2="258.49" y2="89.29"/><line class="cls-7" x1="181.51" y1="55.76" x2="181.51" y2="89.29"/><polygon class="cls-1" points="220 77.98 220 77.98 220 1 181.51 55.76 220 77.98"/><polygon class="cls-2" points="220 77.98 220 77.98 220 1 258.49 55.76 220 77.98"/><polygon class="cls-5" points="220 33.54 220 33.54 181.51 55.76 181.51 55.76 220 77.98 220 77.98 220 77.98 258.49 55.76 220 33.54"/><polygon class="cls-4" points="220 77.98 220 77.98 220 1 258.49 55.76 220 77.98"/><polygon class="cls-6" points="220 1 181.51 55.76 220 77.98 220 77.98 220 77.98 258.49 55.76 220 1"/><rect class="cls-8" width="440" height="300"/></g></g></svg>