<svg xmlns="http://www.w3.org/2000/svg" xmlns:xlink="http://www.w3.org/1999/xlink" viewBox="0 0 126 138.41"><defs><style>.cls-1,.cls-7,.cls-8,.cls-9{fill:none;}.cls-2{fill:#abd565;}.cls-3{clip-path:url(#clip-path);}.cls-4{fill:#fff;}.cls-5{fill:#e1f5ff;}.cls-6{fill:#b0def4;}.cls-7,.cls-8{stroke:#4eb0de;}.cls-7{stroke-miterlimit:10;}.cls-7,.cls-8,.cls-9{stroke-width:2px;}.cls-8,.cls-9{stroke-linecap:round;stroke-linejoin:round;}.cls-9{stroke:#2850a0;}.cls-10{fill:#4eb0de;}</style><clipPath id="clip-path"><rect class="cls-1" x="13.28" y="13.27" width="99.45" height="99.45" rx="7"/></clipPath></defs><title>robo_1(1x1)</title><g id="Layer_2" data-name="Layer 2"><g id="Illustrations"><rect class="cls-1" width="126" height="126"/><rect class="cls-2" x="13.28" y="13.27" width="99.45" height="99.45" rx="7"/><g class="cls-3"><path class="cls-4" d="M87.46,82.24,63.85,68.61a3.23,3.23,0,0,0-3.27-.32L41.13,79.59h0a3.19,3.19,0,0,0-1.35,3V115.2a10.1,10.1,0,0,0,4.59,8L68,136.78a3.15,3.15,0,0,0,3.43.21.91.91,0,0,1-.16.11l19.45-11.3a3.23,3.23,0,0,0,1.34-3V90.19a10.09,10.09,0,0,0-4.58-8"/><path class="cls-5" d="M68,93.54a10.1,10.1,0,0,1,4.59,7.95v32.65c0,2.93-2.08,4.1-4.62,2.64l-23.6-13.63a10.13,10.13,0,0,1-4.59-8V82.54c0-2.92,2.08-4.1,4.62-2.63Z"/><path class="cls-5" d="M68,93.54a10.1,10.1,0,0,1,4.59,7.95v32.65c0,2.93-2.08,4.1-4.62,2.64l-23.6-13.63a10.13,10.13,0,0,1-4.59-8V82.54c0-2.92,2.08-4.1,4.62-2.63Z"/><path class="cls-6" d="M62.81,100.05a5.69,5.69,0,0,1,2.57,4.45v18.29c0,1.64-1.16,2.3-2.58,1.48l-13.22-7.63A5.68,5.68,0,0,1,47,112.18V93.9c0-1.64,1.16-2.3,2.58-1.48Z"/><path class="cls-6" d="M87.46,82.24,68,93.54a10.1,10.1,0,0,1,4.59,7.95v32.65a3.25,3.25,0,0,1-1.35,3l19.45-11.3a3.23,3.23,0,0,0,1.34-3V90.19a10.09,10.09,0,0,0-4.58-8"/><path class="cls-7" d="M68,93.54a10.1,10.1,0,0,1,4.59,7.95v32.65c0,2.93-2.08,4.1-4.62,2.64l-23.6-13.63a10.13,10.13,0,0,1-4.59-8V82.54c0-2.92,2.08-4.1,4.62-2.63Z"/><line class="cls-8" x1="82.87" y1="117.5" x2="82.87" y2="101.27"/><path class="cls-9" d="M87.46,82.24,63.85,68.61a3.23,3.23,0,0,0-3.27-.32L41.13,79.59h0a3.19,3.19,0,0,0-1.35,3V115.2a10.1,10.1,0,0,0,4.59,8L68,136.78a3.15,3.15,0,0,0,3.43.21.91.91,0,0,1-.16.11l19.45-11.3a3.23,3.23,0,0,0,1.34-3V90.19A10.09,10.09,0,0,0,87.46,82.24Z"/><path class="cls-4" d="M61,27.43c-1.79-1-4.28-.89-7,.69l-18.84,11c-5.44,3.14-9.84,10.76-9.82,17,0,3.11,1.11,5.3,2.88,6.33L65,83.81c-1.77-1-2.87-3.22-2.88-6.33,0-6.25,4.38-13.88,9.83-17l18.84-11c2.74-1.58,5.22-1.73,7-.69Z"/><path class="cls-6" d="M71.94,60.46c-5.45,3.14-9.84,10.76-9.83,17s4.45,8.79,9.89,5.64l18.84-11c5.44-3.14,9.84-10.76,9.83-17s-4.45-8.78-9.89-5.64Z"/><path class="cls-10" d="M59.07,37.27a9,9,0,0,0-9.09,0L41,42.53c-5.45,3.14-9.85,10.76-9.83,17,0,3,1,5.1,2.67,6.18L59,80.35c-1.74-1-2.83-3.21-2.83-6.3,0-6.25,4.38-13.87,9.82-17l10.19-6a2.26,2.26,0,0,0,0-3.9Z"/><path class="cls-9" d="M97.77,48.81h0L61,27.45c-1.79-1-4.27-.89-7,.69l-18.84,11c-5.44,3.14-9.84,10.76-9.83,17,0,3.11,1.11,5.3,2.88,6.33,0,0,36.55,21.21,36.44,21.13,1.81,1.27,4.42,1.23,7.33-.46l18.84-11c5.45-3.14,9.85-10.76,9.83-17C100.65,52,99.54,49.83,97.77,48.81Z"/><path class="cls-4" d="M37.36,57.27A4.71,4.71,0,0,1,39.49,61c0,1.36-1,1.91-2.14,1.22a4.68,4.68,0,0,1-2.14-3.69c0-1.36,1-1.91,2.15-1.23"/><path class="cls-4" d="M50.45,64.93a4.69,4.69,0,0,1,2.13,3.69c0,1.36-1,1.91-2.15,1.23a4.72,4.72,0,0,1-2.13-3.7c0-1.36,1-1.91,2.15-1.22"/><path class="cls-10" d="M90.07,58.33a5,5,0,0,0-2.26,3.93c0,1.44,1,2,2.28,1.3a5,5,0,0,0,2.26-3.92c0-1.45-1-2-2.28-1.31"/></g></g></g></svg>