<svg xmlns="http://www.w3.org/2000/svg" xmlns:xlink="http://www.w3.org/1999/xlink" viewBox="0 0 126 141.84"><defs><style>.cls-1,.cls-11,.cls-7,.cls-8,.cls-9{fill:none;}.cls-2{fill:#abd565;}.cls-3{clip-path:url(#clip-path);}.cls-4{fill:#96bfe7;}.cls-5{fill:#e1f5ff;}.cls-6{fill:#fff;}.cls-7{stroke:#627386;}.cls-11,.cls-7,.cls-8,.cls-9{stroke-linecap:round;stroke-linejoin:round;stroke-width:2px;}.cls-8{stroke:#4eb0de;}.cls-9{stroke:#2850a0;}.cls-10{fill:#4eb0de;}.cls-11{stroke:#fff;}</style><clipPath id="clip-path"><rect class="cls-1" x="13.28" y="13.27" width="99.45" height="99.45" rx="7"/></clipPath></defs><title>robo_2(1x1)</title><g id="Layer_2" data-name="Layer 2"><g id="Illustrations"><rect class="cls-1" width="126" height="126"/><rect class="cls-2" x="13.28" y="13.27" width="99.45" height="99.45" rx="7"/><g class="cls-3"><path class="cls-4" d="M50,79.22,40.15,85a4.72,4.72,0,0,0-2.34,4l-.07,29.13a4.68,4.68,0,0,0,2.34,4.07l31.21,18a4.67,4.67,0,0,0,4.7,0l9.87-5.73a4.69,4.69,0,0,0,2.33-4l.07-29.13a4.68,4.68,0,0,0-2.34-4.07l-31.21-18a4.67,4.67,0,0,0-4.7,0"/><path class="cls-5" d="M71.38,105.68l-32.94-19A4.81,4.81,0,0,0,37.81,89l-.07,29.13a4.68,4.68,0,0,0,2.34,4.07l31.21,18a4.78,4.78,0,0,0,2.37.63l.07-31.09a4.69,4.69,0,0,0-2.35-4.07"/><path class="cls-6" d="M85.92,97.23l-31.21-18a4.7,4.7,0,0,0-4.7,0L40.15,85A4.7,4.7,0,0,0,38,87.78a4.4,4.4,0,0,1,.46-1.12l32.94,19a4.65,4.65,0,0,1,1.72,1.72L87.64,99a4.68,4.68,0,0,0-1.72-1.73"/><path class="cls-7" d="M50,79.22,40.15,85a4.72,4.72,0,0,0-2.34,4l-.07,29.13a4.68,4.68,0,0,0,2.34,4.07l31.21,18a4.67,4.67,0,0,0,4.7,0l9.87-5.73a4.69,4.69,0,0,0,2.33-4l.07-29.13a4.68,4.68,0,0,0-2.34-4.07l-31.21-18A4.67,4.67,0,0,0,50,79.22Z"/><path class="cls-8" d="M73.66,140.84l.07-31.09a4.69,4.69,0,0,0-2.35-4.07L42.7,89.12"/><path class="cls-9" d="M50,79.22,40.15,85a4.72,4.72,0,0,0-2.34,4l-.07,29.13a4.68,4.68,0,0,0,2.34,4.07l31.21,18a4.67,4.67,0,0,0,4.7,0l9.87-5.73a4.69,4.69,0,0,0,2.33-4l.07-29.13a4.68,4.68,0,0,0-2.34-4.07l-31.21-18A4.67,4.67,0,0,0,50,79.22Z"/><path class="cls-4" d="M47,24,34.83,31A5.78,5.78,0,0,0,32,36l-.09,34.53a5.77,5.77,0,0,0,2.89,5L73.22,97.76a5.81,5.81,0,0,0,5.8,0l12.15-7.07a5.78,5.78,0,0,0,2.88-5l.09-34.53a5.76,5.76,0,0,0-2.89-5L52.78,23.94A5.76,5.76,0,0,0,47,24"/><path class="cls-5" d="M73.33,56.56,32.73,33.12A5.72,5.72,0,0,0,32,36l-.09,34.53a5.77,5.77,0,0,0,2.89,5L73.22,97.76a5.85,5.85,0,0,0,2.92.77l.08-36.95a5.76,5.76,0,0,0-2.89-5"/><path class="cls-6" d="M91.25,46.15,52.78,23.94A5.76,5.76,0,0,0,47,24L34.83,31a5.86,5.86,0,0,0-2.68,3.48,6.13,6.13,0,0,1,.58-1.37l40.6,23.44a5.77,5.77,0,0,1,2.12,2.13L93.37,48.28a5.77,5.77,0,0,0-2.12-2.13"/><path class="cls-7" d="M47,24,34.83,31A5.78,5.78,0,0,0,32,36l-.09,34.53a5.77,5.77,0,0,0,2.89,5L73.22,97.76a5.81,5.81,0,0,0,5.8,0l12.15-7.07a5.78,5.78,0,0,0,2.88-5l.09-34.53a5.76,5.76,0,0,0-2.89-5L52.78,23.94A5.76,5.76,0,0,0,47,24Z"/><path class="cls-10" d="M67.33,83.57,40.17,67.88a2.29,2.29,0,0,1-1.16-2V46.7a1.15,1.15,0,0,1,1.73-1L67.92,61.38a2.32,2.32,0,0,1,1.15,2V82.57a1.16,1.16,0,0,1-1.74,1"/><path class="cls-8" d="M76.14,98.53l.08-36.95a5.76,5.76,0,0,0-2.89-5l-36-20.81"/><path class="cls-9" d="M47,24,34.83,31A5.78,5.78,0,0,0,32,36l-.09,34.53a5.77,5.77,0,0,0,2.89,5L73.22,97.76a5.81,5.81,0,0,0,5.8,0l12.15-7.07a5.78,5.78,0,0,0,2.88-5l.09-34.53a5.76,5.76,0,0,0-2.89-5L52.78,23.94A5.76,5.76,0,0,0,47,24Z"/><path class="cls-6" d="M44.51,52.62a5.83,5.83,0,0,1,2.64,4.57c0,1.67-1.2,2.35-2.66,1.51a5.81,5.81,0,0,1-2.63-4.57c0-1.68,1.19-2.36,2.65-1.51"/><path class="cls-6" d="M63.3,63.47A5.83,5.83,0,0,1,65.94,68c0,1.68-1.19,2.36-2.66,1.52A5.81,5.81,0,0,1,60.65,65c0-1.68,1.19-2.36,2.65-1.51"/><line class="cls-8" x1="50.1" y1="115.46" x2="60.05" y2="121.2"/><line class="cls-11" x1="54.99" y1="68.43" x2="50.28" y2="65.67"/><line class="cls-8" x1="48.85" y1="102.47" x2="58.8" y2="108.22"/></g></g></g></svg>