<svg xmlns="http://www.w3.org/2000/svg" xmlns:xlink="http://www.w3.org/1999/xlink" viewBox="0 0 126 131.02"><defs><style>.cls-1,.cls-7,.cls-8{fill:none;}.cls-2{fill:#abd565;}.cls-3{clip-path:url(#clip-path);}.cls-4{fill:#fff;}.cls-5{fill:#e1f5ff;}.cls-6{fill:#b0def4;}.cls-7{stroke:#4eb0de;}.cls-7,.cls-8{stroke-linecap:round;stroke-linejoin:round;stroke-width:2px;}.cls-8{stroke:#2850a0;}.cls-9{fill:#4eb0de;}.cls-10{fill:#2850a0;}</style><clipPath id="clip-path"><rect class="cls-1" x="13.28" y="13.27" width="99.45" height="99.45" rx="7"/></clipPath></defs><title>robo_4(1x1)</title><g id="Layer_2" data-name="Layer 2"><g id="Illustrations"><rect class="cls-1" width="126" height="126"/><rect class="cls-2" x="13.28" y="13.27" width="99.45" height="99.45" rx="7"/><g class="cls-3"><path class="cls-4" d="M101,47.15c.1-1.2-.63-2.42-2.22-3.34L66.24,25a11.8,11.8,0,0,0-10.73,0L33,38.14c-3.54,2.06-5.31,4.76-5.3,7.45v0L27.6,71c0,2.73,1.79,5.46,5.39,7.53l17.38,10c.43.25.87.48,1.34.7l.47.2c.27.12.54.25.82.36l.15,0,.31.12,1.12.38.38.12.26.08.47.11c.37.1.75.2,1.13.28l.3.08.46.08,1,.16.39.07.43,0,.91.1.44,0,.41,0,.92,0,.47,0h1.87l.29,0,1.24-.08.49,0,.24,0,.37,0q.63-.07,1.26-.18l.31-.05.15,0,.6-.13c.33-.07.67-.13,1-.21l.72-.2.94-.26a1.17,1.17,0,0,1,.2-.06c.37-.12.74-.26,1.1-.39l.16-.07c.4-.15.79-.32,1.17-.5l.33-.15c.43-.21.84-.42,1.24-.65L98.73,75.46l.09,0,.2-.14.27-.17.21-.17.23-.19,0,0,.08-.09a3.4,3.4,0,0,0,.32-.34l.07-.08a.56.56,0,0,0,0-.08,1.51,1.51,0,0,0,.18-.26s.06-.07.08-.11,0,0,0-.06a1.28,1.28,0,0,0,.11-.24l.07-.13s0,0,0,0a1.55,1.55,0,0,0,.07-.23s0-.1,0-.15a.06.06,0,0,1,0,0,1.94,1.94,0,0,0,0-.24.78.78,0,0,0,0-.16v-.06L101,46.94a1.49,1.49,0,0,1,0,.21"/><path class="cls-5" d="M93.78,88l0,.19a.83.83,0,0,1,0,.15,1.05,1.05,0,0,1,0,.19l-.06.15a1.51,1.51,0,0,1-.09.18.64.64,0,0,1-.08.14l-.14.21a1.47,1.47,0,0,0-.1.13l-.26.27a.94.94,0,0,1-.1.1l-.19.15-.17.14-.21.14a1.94,1.94,0,0,1-.24.15L73.94,100.78c-.32.18-.65.35-1,.52l-.27.12a9.82,9.82,0,0,1-.94.4l-.12.05c-.34.14-.69.25-1.05.37l-.75.21-.58.16-.81.17-.59.12-.25,0-1,.14-.3,0-.59,0-1,.06-.63,0c-.27,0-.54,0-.81,0l-.67,0-.74,0-.68,0-.73-.08-.65-.1-.78-.13-.6-.12-.91-.23-.59-.15-.31-.1c-.3-.09-.6-.2-.89-.3l-.25-.1c-.27-.1-.52-.21-.78-.33l-.38-.16c-.37-.18-.73-.36-1.07-.56l-13.94-8c-2.89-1.67-4.33-3.86-4.33-6l-.05,26.76c0,2.19,1.44,4.38,4.32,6l13.94,8.05c.35.2.71.39,1.08.56l.38.17c.22.09.43.2.66.29l.11,0,.26.09.89.31.31.09.21.07.37.09.91.22.24.06c.12,0,.25,0,.37.06l.77.14.32.05.34,0,.73.08.35,0,.33,0,.74,0,.37,0H64c.14,0,.27,0,.41,0h.23l1-.07c.13,0,.27,0,.4,0l.19,0,.29,0c.35,0,.68-.09,1-.15l.25,0,.12,0,.47-.1.81-.17.57-.15.76-.22.16-.05c.3-.09.6-.2.89-.31l.12,0,.94-.4.27-.13c.34-.16.67-.33,1-.52L92,117l.08,0,.15-.11.22-.14.17-.14.19-.15,0,0,.07-.07a3.15,3.15,0,0,0,.25-.28l.06-.06,0-.06c.06-.07.1-.14.15-.21a.47.47,0,0,1,.06-.09s0,0,0-.05l.09-.19a.54.54,0,0,1,0-.11.08.08,0,0,1,0,0,1.21,1.21,0,0,0,0-.18l0-.12v0a1.36,1.36,0,0,0,0-.2s0-.08,0-.12v0l.05-26.77c0,.06,0,.12,0,.18"/><path class="cls-6" d="M93.75,88.16l0,.15-.06.19a.94.94,0,0,1-.06.15c0,.06,0,.12-.09.19l-.08.13-.14.21a1.47,1.47,0,0,0-.1.13l-.26.27a.47.47,0,0,1-.1.1l-.18.15-.18.14-.21.14a1.94,1.94,0,0,1-.24.15L73.94,100.78c-.32.18-.65.35-1,.52l-.27.12c-.3.15-.62.28-.94.41l-.12,0c-.34.13-.69.24-1.05.36l-.75.21-.58.16-.81.17-.59.12-.25,0-1,.14-.3,0-.59,0-1,.06-.63,0h-.68V130H64c.13,0,.26,0,.4,0h.23l1-.07c.13,0,.27,0,.4,0l.19,0,.29,0c.35,0,.68-.09,1-.15l.25,0,.12,0a3.94,3.94,0,0,0,.47-.1l.81-.17.57-.15.76-.22.16-.05c.3-.09.6-.2.89-.31l.12,0c.32-.12.63-.26.94-.4l.27-.13c.34-.16.67-.33,1-.52L92,117l.08,0,.15-.11.22-.14.17-.14.19-.15,0,0,.07-.07a3.45,3.45,0,0,0,.26-.28l0-.06,0-.06c.06-.07.1-.14.15-.21l.06-.09s0,0,0-.05l.09-.19a.54.54,0,0,1,0-.11s0,0,0,0a1.21,1.21,0,0,0,0-.18l0-.12v0a1.36,1.36,0,0,0,0-.2s0-.08,0-.12v0l.05-26.77c0,.06,0,.12,0,.18a1.25,1.25,0,0,1,0,.19"/><path class="cls-4" d="M92,85.28c2.38,1.38,2.39,3.61,0,5L73.94,100.78c-5.7,3.31-15,3.31-20.71,0l-13.94-8c-5.74-3.31-5.77-8.69-.07-12L57.3,70.22a9.45,9.45,0,0,1,8.6,0Z"/><path class="cls-7" d="M92,85.28c2.38,1.38,2.39,3.61,0,5L73.94,100.78c-5.7,3.31-15,3.31-20.71,0l-13.94-8c-5.74-3.31-5.77-8.69-.07-12L57.3,70.22a9.45,9.45,0,0,1,8.6,0Z"/><path class="cls-8" d="M93.78,88A3,3,0,0,0,92,85.28L65.9,70.22a9.45,9.45,0,0,0-8.6,0L39.22,80.73c-2.84,1.65-4.26,3.82-4.25,6v0l-.05,26.76c0,2.19,1.44,4.38,4.32,6l13.94,8.05c.35.2.71.39,1.08.56l.38.17c.22.1.43.2.66.29l.11,0,.26.09.89.31.31.09.21.07.37.09.91.22.24.06.37.07.77.13.32.05.34,0,.73.08.35,0,.33,0,.74,0,.37,0h1.74l1-.07c.13,0,.27,0,.4,0l.19,0,.29,0c.35,0,.68-.09,1-.15l.25,0h.12l.47-.11c.27,0,.54-.1.81-.17l.57-.15.76-.22.16-.05c.3-.09.6-.2.89-.31l.12,0c.32-.12.63-.26.94-.4l.27-.13c.34-.16.67-.33,1-.52L92,117l.08,0,.15-.11.22-.14.17-.14.19-.15,0,0,.07-.07a2.18,2.18,0,0,0,.25-.28l.06-.06,0-.06c.06-.07.1-.14.15-.21a.47.47,0,0,1,.06-.09s0,0,0-.05l.09-.19a.54.54,0,0,1,0-.11.08.08,0,0,1,0,0,1.21,1.21,0,0,0,0-.18l0-.12v0a1.36,1.36,0,0,0,0-.2s0-.08,0-.12v0l.05-26.77C93.79,87.85,93.78,87.9,93.78,88Z"/><path class="cls-5" d="M101,47.16a2,2,0,0,1,0,.24,1.46,1.46,0,0,1,0,.2,1.8,1.8,0,0,1-.06.22,1.08,1.08,0,0,1-.08.19,2.56,2.56,0,0,1-.11.24l-.1.16-.18.27-.12.15c-.1.12-.21.23-.32.35l-.13.12-.23.19-.21.17-.27.18L98.8,50,76.25,63.13c-.39.23-.81.45-1.23.65l-.33.16c-.39.17-.77.34-1.18.5l-.15.06c-.43.16-.86.31-1.31.45s-.62.18-.94.27l-.72.19-1,.22-.74.15-.31,0L67.08,66l-.37,0-.74.06-1.23.08-.79,0H63l-.84,0-.93,0-.84-.07L59.43,66l-.82-.11-1-.17-.75-.15-1.14-.28-.72-.2-.39-.12c-.38-.11-.75-.24-1.11-.38l-.32-.11-1-.41-.47-.21c-.46-.22-.91-.45-1.34-.7l-17.38-10c-3.59-2.08-5.39-4.81-5.38-7.53L27.6,71c0,2.72,1.79,5.45,5.39,7.52l17.38,10c.43.25.87.48,1.34.7l.47.2c.27.12.54.25.82.36l.15.06.31.11c.37.14.74.26,1.12.38l.38.12.26.08.47.11c.37.1.75.2,1.13.28l.3.08.46.08,1,.16.39.07.43,0,.91.1.44,0,.41,0,.92,0,.47,0h1.87l.29,0,1.24-.08.49,0a2,2,0,0,0,.24,0l.37,0q.63-.07,1.26-.18l.31-.05.15,0,.6-.13c.33-.07.67-.13,1-.21l.72-.2.94-.26.2-.06c.37-.12.74-.25,1.1-.39l.16-.07c.4-.15.79-.32,1.17-.5l.33-.15c.43-.21.84-.42,1.24-.65L98.73,75.46l.09,0,.2-.13.27-.18.21-.17.23-.19,0,0,.08-.09a3.4,3.4,0,0,0,.32-.34l.07-.08a.56.56,0,0,0,0-.08,1.51,1.51,0,0,0,.18-.26s.06-.07.08-.11,0,0,0-.06a1.58,1.58,0,0,0,.11-.23s0-.1.07-.14,0,0,0,0a1.55,1.55,0,0,0,.07-.23s0-.1,0-.15a.06.06,0,0,1,0,0,1.94,1.94,0,0,0,0-.24.77.77,0,0,0,0-.15v-.07L101,46.94a1.5,1.5,0,0,1,0,.22"/><path class="cls-6" d="M101,47.4a1.46,1.46,0,0,1,0,.2,1.8,1.8,0,0,1-.06.22,1.08,1.08,0,0,1-.08.19,1.63,1.63,0,0,1-.11.23l-.1.17-.18.27-.12.15c-.1.12-.21.23-.32.35l-.13.12-.23.19-.21.17-.27.18L98.8,50,76.25,63.13c-.39.23-.81.45-1.23.65l-.33.16c-.38.17-.77.34-1.17.5l-.16.06c-.43.16-.86.31-1.31.45s-.62.18-.94.27l-.72.19-1,.22-.74.15-.31,0q-.63.11-1.26.18l-.37,0-.74.06-1.23.08-.79,0h-.84V91.65h1.27l.29,0,1.24-.08.49,0,.24,0,.37,0q.63-.07,1.26-.18l.31-.05.15,0,.6-.13c.33-.07.67-.13,1-.21l.72-.2.94-.26a1.17,1.17,0,0,1,.2-.06l1.11-.39.15-.07c.4-.15.79-.32,1.17-.5l.33-.15c.43-.21.84-.42,1.24-.65L98.73,75.46l.09,0,.2-.13.27-.18.21-.17.23-.19,0,0,.08-.09a3.4,3.4,0,0,0,.32-.34l.07-.08a.56.56,0,0,0,0-.08,1.51,1.51,0,0,0,.18-.26.76.76,0,0,0,.08-.11s0,0,0-.06a1.28,1.28,0,0,0,.11-.24l.07-.13s0,0,0,0a1.55,1.55,0,0,0,.07-.23s0-.1,0-.15a.06.06,0,0,1,0,0,1.94,1.94,0,0,0,0-.24.78.78,0,0,0,0-.16v-.06L101,46.94a1.5,1.5,0,0,1,0,.22,2,2,0,0,1,0,.24"/><path class="cls-7" d="M55.51,25a11.8,11.8,0,0,1,10.73,0L98.76,43.81c3,1.72,3,4.5,0,6.22L76.25,63.13c-7.1,4.13-18.66,4.13-25.82,0l-17.38-10"/><path class="cls-9" d="M87.77,69a4,4,0,0,0-6-3.45l-5.53,3.22c-.39.22-.81.44-1.23.64l-.33.16-1.18.5-.15.06c-.43.16-.86.31-1.31.45s-.62.18-.94.27l-.72.19-1,.22-.74.15-.31,0-1.26.18-.37,0-.74.06-1.23.08-.79,0H63l-.84,0-.93,0-.84-.07-.91-.11-.82-.11-1-.17-.75-.15-1.14-.28-.72-.2c-.13,0-.26-.08-.39-.12-.38-.11-.75-.24-1.11-.38l-.32-.11-1-.41-.47-.21c-.46-.22-.91-.45-1.34-.7l-17.38-10c-3.59-2.08-5.39-4.81-5.39-7.53L27.6,63.7c0,2.72,1.79,5.45,5.39,7.53l17.38,10c.43.25.87.48,1.34.7.15.08.31.14.47.21s.54.25.82.36l.15,0,.31.12,1.12.38.38.12.26.08.47.11,1.13.28.3.07.46.08,1,.17.39.07.43,0,.91.1.44.05.41,0,.92,0,.47,0c.12,0,.25,0,.37,0,.33,0,.67,0,1,0h.5l.29,0c.41,0,.83,0,1.24-.08.16,0,.33,0,.49,0l.24,0,.37,0q.63-.08,1.26-.18l.31,0,.15,0,.6-.12,1-.22.72-.19c.31-.09.63-.17.94-.27l.2-.06c.37-.12.74-.25,1.1-.39l.16-.06c.4-.16.79-.32,1.17-.5l.33-.16c.43-.2.84-.41,1.24-.64l6.81-4A9.58,9.58,0,0,0,87.77,69"/><path class="cls-8" d="M101,47.15c.1-1.2-.63-2.42-2.22-3.34L66.24,25a11.8,11.8,0,0,0-10.73,0L33,38.14c-3.54,2.06-5.31,4.76-5.3,7.45v0L27.6,71c0,2.73,1.79,5.46,5.39,7.53l17.38,10c.43.25.87.48,1.34.7l.47.2c.27.12.54.25.82.36l.15,0,.31.12,1.12.38.38.12.26.08.47.11c.37.1.75.2,1.13.28l.3.08.46.08,1,.16.39.07.43,0,.91.1.44,0,.41,0,.92,0,.47,0h1.87l.29,0,1.24-.08.49,0,.24,0,.37,0q.63-.07,1.26-.18l.31-.05.15,0,.6-.13c.33-.07.67-.13,1-.21l.72-.2.94-.26a1.17,1.17,0,0,1,.2-.06c.37-.12.74-.26,1.1-.39l.16-.07c.4-.15.79-.32,1.17-.5l.33-.15c.43-.21.84-.42,1.24-.65L98.73,75.46l.09,0,.2-.14.27-.17.21-.17.23-.19,0,0,.08-.09a3.4,3.4,0,0,0,.32-.34l.07-.08a.56.56,0,0,0,0-.08,1.51,1.51,0,0,0,.18-.26s.06-.07.08-.11,0,0,0-.06a1.28,1.28,0,0,0,.11-.24l.07-.13s0,0,0,0a1.55,1.55,0,0,0,.07-.23s0-.1,0-.15a.06.06,0,0,1,0,0,1.94,1.94,0,0,0,0-.24.78.78,0,0,0,0-.16v-.06L101,46.94A1.49,1.49,0,0,1,101,47.15Z"/><path class="cls-4" d="M36.07,64.4a5,5,0,0,1,2.27,3.94c0,1.44-1,2-2.29,1.3a5,5,0,0,1-2.27-3.94c0-1.45,1-2,2.29-1.3"/><path class="cls-4" d="M53.23,74.05A5,5,0,0,1,55.5,78c0,1.44-1,2-2.29,1.3a5,5,0,0,1-2.27-3.94c0-1.45,1-2,2.29-1.3"/><path class="cls-10" d="M83.18,68.84a3.65,3.65,0,0,0-1.67,2.89c0,1,.75,1.48,1.68,1a3.67,3.67,0,0,0,1.66-2.88c0-1.06-.75-1.49-1.67-1"/></g></g></g></svg>