<svg xmlns="http://www.w3.org/2000/svg" xmlns:xlink="http://www.w3.org/1999/xlink" viewBox="0 0 126 139.95"><defs><style>.cls-1,.cls-5,.cls-7,.cls-8{fill:none;}.cls-2{fill:#abd565;}.cls-3{clip-path:url(#clip-path);}.cls-4{fill:#e1f5ff;}.cls-5{stroke:#81a6d0;}.cls-5,.cls-8{stroke-linecap:round;stroke-linejoin:round;}.cls-5,.cls-7,.cls-8{stroke-width:2px;}.cls-6{fill:#b0def4;}.cls-7{stroke:#4eb0de;stroke-miterlimit:10;}.cls-8{stroke:#2850a0;}.cls-9{fill:#fff;}.cls-10{fill:#4eb0de;}</style><clipPath id="clip-path"><rect class="cls-1" x="13.28" y="13.27" width="99.45" height="99.45" rx="7"/></clipPath></defs><title>robo_3(1x1)</title><g id="Layer_2" data-name="Layer 2"><g id="Illustrations"><rect class="cls-1" width="126" height="126"/><rect class="cls-2" x="13.28" y="13.27" width="99.45" height="99.45" rx="7"/><g class="cls-3"><path class="cls-4" d="M62.63,66.1a3.46,3.46,0,0,0-3.47-.34l-20.58,12a3.41,3.41,0,0,1,3.47.34L67,92.5l20.58-12Z"/><path class="cls-4" d="M67,92.5a10.72,10.72,0,0,1,4.85,8.41v34.58c0,3.09-2.2,4.34-4.89,2.79L42,123.85a10.7,10.7,0,0,1-4.86-8.42V80.85c0-3.09,2.2-4.34,4.9-2.78Z"/><path class="cls-5" d="M67,92.5a10.72,10.72,0,0,1,4.85,8.41v34.58c0,3.09-2.2,4.34-4.89,2.79L42,123.85a10.7,10.7,0,0,1-4.86-8.42V80.85c0-3.09,2.2-4.34,4.9-2.78Z"/><path class="cls-6" d="M61.53,99.39a6,6,0,0,1,2.72,4.72v19.36c0,1.73-1.23,2.43-2.74,1.56l-14-8.08a6,6,0,0,1-2.72-4.71V92.87c0-1.73,1.23-2.43,2.74-1.56Z"/><path class="cls-6" d="M87.62,80.53,67,92.5a10.69,10.69,0,0,1,4.85,8.41v34.58a3.44,3.44,0,0,1-1.42,3.13l20.58-12a3.42,3.42,0,0,0,1.43-3.13V89a10.7,10.7,0,0,0-4.86-8.42"/><path class="cls-7" d="M67,92.5a10.72,10.72,0,0,1,4.85,8.41v34.58c0,3.09-2.2,4.34-4.89,2.79L42,123.85a10.7,10.7,0,0,1-4.86-8.42V80.85c0-3.09,2.2-4.34,4.9-2.78Z"/><line class="cls-7" x1="82.77" y1="117.86" x2="82.77" y2="100.68"/><path class="cls-8" d="M87.62,80.53l-25-14.43a3.46,3.46,0,0,0-3.47-.34l-20.58,12h0a3.42,3.42,0,0,0-1.43,3.13v34.58A10.7,10.7,0,0,0,42,123.85l25,14.43c1.44.83,2.73.85,3.63.22l-.16.12,20.58-12a3.42,3.42,0,0,0,1.43-3.13V89A10.7,10.7,0,0,0,87.62,80.53Z"/><path class="cls-9" d="M62.69,25.29c-2.71-1.56-5.16-1.71-6.93-.68L26.42,41.67c1.77-1,4.22-.89,6.93.67l30,17.34,29.34-17Z"/><path class="cls-6" d="M99.59,65.69,70.24,82.75c1.75-1,2.84-3.18,2.85-6.25,0-6.18-4.33-13.71-9.71-16.82l29.34-17c5.38,3.1,9.73,10.64,9.71,16.82,0,3.07-1.09,5.23-2.84,6.24"/><path class="cls-4" d="M63.38,59.68c5.38,3.11,9.72,10.64,9.71,16.82s-4.4,8.67-9.78,5.57l-30-17.34c-5.38-3.1-9.72-10.64-9.71-16.82s4.4-8.67,9.78-5.57Z"/><path class="cls-7" d="M63.38,59.68c5.38,3.11,9.72,10.64,9.71,16.82s-4.4,8.67-9.78,5.57l-30-17.34c-5.38-3.1-9.72-10.64-9.71-16.82s4.4-8.67,9.78-5.57Z"/><path class="cls-10" d="M60.45,63.43a11.32,11.32,0,0,1,5.14,8.91c0,3.27-2.33,4.59-5.18,3L37.3,61.76a11.34,11.34,0,0,1-5.14-8.91c0-3.27,2.33-4.59,5.18-3Z"/><path class="cls-8" d="M92.72,42.63l-30-17.34c-2.71-1.56-5.16-1.71-6.93-.68L26.41,41.67h0c-1.76,1-2.85,3.17-2.86,6.25,0,6.18,4.33,13.72,9.71,16.82l30,17.34c2.88,1.66,5.46,1.71,7.25.45a2.62,2.62,0,0,1-.32.23L99.59,65.69c1.75-1,2.83-3.17,2.84-6.24C102.45,53.27,98.1,45.73,92.72,42.63Z"/><path class="cls-9" d="M39.86,54.56a5.93,5.93,0,0,1,2.7,4.69c0,1.72-1.22,2.42-2.72,1.55a6,6,0,0,1-2.7-4.69c0-1.72,1.22-2.42,2.72-1.55"/><path class="cls-9" d="M58.16,65.12a6,6,0,0,1,2.7,4.69c0,1.72-1.22,2.42-2.72,1.55a6,6,0,0,1-2.71-4.68c0-1.73,1.23-2.42,2.73-1.56"/></g></g></g></svg>