<svg xmlns="http://www.w3.org/2000/svg" viewBox="0 0 440 200"><defs><style>.cls-1{fill:#f2f4f6;}.cls-2,.cls-6{fill:#d5dae0;}.cls-3,.cls-4,.cls-8,.cls-9{fill:none;}.cls-3,.cls-6{stroke:#b8bfca;}.cls-3,.cls-4,.cls-5,.cls-6,.cls-8{stroke-linecap:round;stroke-linejoin:round;stroke-width:2px;}.cls-4,.cls-5{stroke:#627386;}.cls-5,.cls-7{fill:#fff;}.cls-8{stroke:#d5dae0;}</style></defs><title>router(2x1)</title><g id="Layer_2" data-name="Layer 2"><g id="Illustrations"><path class="cls-1" d="M151.39,53.74a4.06,4.06,0,0,1,4.06,4.06v61c0,1.3-1.82,2.35-4.06,2.35s-4.07-1-4.07-2.35v-61A4.07,4.07,0,0,1,151.39,53.74Z"/><path class="cls-2" d="M151.39,121.11h0c2.24,0,4.06-1,4.06-2.35V58.81a2,2,0,0,0-2-2h0a2,2,0,0,0-2,2Z"/><path class="cls-3" d="M155.45,86.25c0,1.3-1.82,2.35-4.06,2.35s-4.07-1-4.07-2.35"/><path class="cls-4" d="M151.39,53.74a4.06,4.06,0,0,1,4.06,4.06v61c0,1.3-1.82,2.35-4.06,2.35s-4.07-1-4.07-2.35v-61A4.07,4.07,0,0,1,151.39,53.74Z"/><path class="cls-1" d="M211.91,18.79A4.07,4.07,0,0,1,216,22.86v61c0,1.29-1.82,2.34-4.07,2.34s-4.06-1-4.06-2.34v-61A4.07,4.07,0,0,1,211.91,18.79Z"/><path class="cls-2" d="M211.91,86.16h0c2.25,0,4.07-1,4.07-2.34V23.87a2,2,0,0,0-2-2h0a2,2,0,0,0-2,2Z"/><path class="cls-3" d="M216,51.31c0,1.29-1.82,2.34-4.07,2.34s-4.06-1-4.06-2.34"/><path class="cls-4" d="M211.91,18.79A4.07,4.07,0,0,1,216,22.86v61c0,1.29-1.82,2.34-4.07,2.34s-4.06-1-4.06-2.34v-61A4.07,4.07,0,0,1,211.91,18.79Z"/><path class="cls-5" d="M235.39,67.47h0a3.46,3.46,0,0,0-3.52.31l-86.53,50.81c-3,1.74-5.34,6.36-5.31,10.32l.09,12.17c0,2.17.75,3.69,1.9,4.34h0L204.61,181,298,103Z"/><path class="cls-1" d="M141.62,122.26a13.38,13.38,0,0,0-1.62,6.07V140.5c0,2.17.72,3.7,1.86,4.35h0l62.33,36L220,167.53Z"/><path class="cls-3" d="M235.81,67.59h0a3.45,3.45,0,0,0-3.52.29l-86.91,50.17c-3,1.72-5.38,6.32-5.38,10.28V140.5c0,2.17.72,3.7,1.86,4.35h0l62.33,36,93.95-77.26Z"/><path class="cls-6" d="M294.62,130.38l-86.91,50.18c-3,1.72-5.38-.11-5.38-4.07V164.32c0-4,2.41-8.56,5.38-10.28l86.91-50.18c3-1.71,5.38.11,5.38,4.07V120.1C300,124.07,297.59,128.67,294.62,130.38Z"/><ellipse class="cls-3" cx="214.85" cy="163.18" rx="4.61" ry="2.61" transform="translate(-19.42 296.98) rotate(-66.95)"/><ellipse class="cls-7" cx="274.6" cy="128.68" rx="2.64" ry="1.49" transform="translate(48.67 330.97) rotate(-66.95)"/><ellipse class="cls-7" cx="281.98" cy="124.42" rx="2.64" ry="1.49" transform="translate(57.08 335.17) rotate(-66.95)"/><ellipse class="cls-7" cx="289.36" cy="120.16" rx="2.64" ry="1.49" transform="translate(65.5 339.37) rotate(-66.95)"/><path class="cls-4" d="M298.13,103.59h0l-62.33-36h0a3.45,3.45,0,0,0-3.52.29l-86.91,50.17c-2.21,1.28-4.1,4.15-4.93,7.17v0c-.07.23-.12.46-.17.68a.3.3,0,0,1,0,.1c0,.21-.08.42-.11.64l0,.14c0,.2-.05.41-.06.61a.88.88,0,0,0,0,.16q0,.38,0,.75h0V140.5h0c0,2.17.72,3.7,1.86,4.35h0l62.33,36h0a3.43,3.43,0,0,0,3.51-.28l86.91-50.18c3-1.71,5.38-6.31,5.38-10.28V107.93C300,105.76,299.28,104.24,298.13,103.59Z"/><polygon class="cls-8" points="204.2 112.38 217.28 119.9 235.39 109.44 222.31 101.92 204.2 112.38"/><rect class="cls-9" width="440" height="200"/></g></g></svg>