<svg xmlns="http://www.w3.org/2000/svg" viewBox="0 0 440 200"><defs><style>.cls-1,.cls-8{fill:#d5dae0;}.cls-2,.cls-6,.cls-9{fill:#f2f4f6;}.cls-10,.cls-11,.cls-3,.cls-5{fill:none;}.cls-3,.cls-6,.cls-8{stroke:#b8bfca;}.cls-10,.cls-3,.cls-4,.cls-5,.cls-6,.cls-8,.cls-9{stroke-linecap:round;stroke-linejoin:round;stroke-width:2px;}.cls-4{fill:#b8bfca;}.cls-10,.cls-4{stroke:#fff;}.cls-5,.cls-9{stroke:#627386;}.cls-7{fill:#fff;}</style></defs><title>safe(2x1)</title><g id="Layer_2" data-name="Layer 2"><g id="Illustrations"><path class="cls-1" d="M169.85,54.48,233.13,18a2.38,2.38,0,0,1,2.44-.2h0l36.37,21-68.16,143.5-36.37-21h0a3.31,3.31,0,0,1-1.29-3V61.61C166.12,58.86,167.79,55.67,169.85,54.48Z"/><path class="cls-2" d="M169.85,54.48,233.13,18a2.38,2.38,0,0,1,2.44-.2h0l36.37,21L244,94.39,167.21,57.46A7.32,7.32,0,0,1,169.85,54.48Z"/><path class="cls-3" d="M185.66,171.78a3.29,3.29,0,0,1-1.29-3V72.15c0-2.75,1.67-5.94,3.73-7.13l63.28-36.54a2.38,2.38,0,0,1,2.44-.19h0"/><path class="cls-4" d="M206.22,182.05l63.28-36.53c2.06-1.19,3.73-4.38,3.73-7.13V41.76c0-2.74-1.67-4-3.73-2.82L206.22,75.48c-2.06,1.19-3.73,4.38-3.73,7.13v96.62C202.49,182,204.16,183.24,206.22,182.05Z"/><path class="cls-5" d="M271.94,38.75h0L248.26,25.07l-12.69-7.32h0l-.26-.1a1.9,1.9,0,0,0-.86-.14,2.51,2.51,0,0,0-.87.23,3,3,0,0,0-.45.21L190.94,42.3,169.85,54.48a1.33,1.33,0,0,0-.19.14,5.12,5.12,0,0,0-.56.39c-.06.05-.11.12-.17.17a5.3,5.3,0,0,0-.53.53l-.07.09a7.23,7.23,0,0,0-.57.74.56.56,0,0,0,0,.08,8.85,8.85,0,0,0-.5.84h0a9.1,9.1,0,0,0-1.09,4.14v96.62a3.31,3.31,0,0,0,1.29,3h0l36.37,21h0a2.38,2.38,0,0,0,2.44-.19l63.28-36.53c2.06-1.19,3.73-4.38,3.73-7.13V41.76A3.3,3.3,0,0,0,271.94,38.75Z"/><path class="cls-6" d="M272.79,55.61,266.59,52h0a2,2,0,0,0-2.05.16L211.19,83A7.55,7.55,0,0,0,208,89v74.93a2.81,2.81,0,0,0,1.09,2.54h0l6.21,3.59,3-8,46.12-26.63a7.52,7.52,0,0,0,3.15-6V66.05Z"/><path class="cls-7" d="M247.77,107l19.84-26.51V66.05l5.18-10.44L266.59,52h0a2,2,0,0,0-2.05.16L211.19,83A7.55,7.55,0,0,0,208,89h0Z"/><path class="cls-8" d="M217.4,169.89l53.34-30.8a7.54,7.54,0,0,0,3.14-6V58.15c0-2.31-1.41-3.38-3.14-2.37L217.4,86.57a7.52,7.52,0,0,0-3.15,6v74.93C214.25,169.83,215.66,170.89,217.4,169.89Z"/><path class="cls-5" d="M272.79,55.63v0L266.59,52h0a2,2,0,0,0-2.05.16L211.19,83A7.55,7.55,0,0,0,208,89h0v74.93a2.81,2.81,0,0,0,1.09,2.54h0l6.21,3.59v0a2,2,0,0,0,2.05-.15l53.34-30.8a7.54,7.54,0,0,0,3.14-6V58.15A2.76,2.76,0,0,0,272.79,55.63Z"/><path class="cls-9" d="M235.72,105.61l-10.29-6v0a1.67,1.67,0,0,0-1.76.11,6.39,6.39,0,0,0-2.67,5.09,2.33,2.33,0,0,0,.93,2.14h0l9.23,5.33V140.6l-5.72-3.31v0a1.67,1.67,0,0,0-1.76.11,6.39,6.39,0,0,0-2.67,5.09,2.35,2.35,0,0,0,.9,2.12h0l9.77,5.64a5.25,5.25,0,0,0,2.65.73,4.75,4.75,0,0,0,2.42-.65,5.34,5.34,0,0,0,2.56-4.76V112.05A7.68,7.68,0,0,0,235.72,105.61Z"/><polyline class="cls-10" points="224.64 101.62 226.38 102.67 226.41 102.61 234.6 107.34"/><polyline class="cls-10" points="224.64 139.25 226.38 140.3 226.41 140.24 231.02 142.91"/><path class="cls-7" d="M265.49,90.35,252,98.12c-.62.36-1.12,0-1.12-.85V88A2.67,2.67,0,0,1,252,85.85l13.46-7.77c.62-.36,1.12,0,1.12.84v9.29A2.69,2.69,0,0,1,265.49,90.35Z"/><path class="cls-3" d="M265.49,90.35,252,98.12c-.62.36-1.12,0-1.12-.85V88A2.67,2.67,0,0,1,252,85.85l13.46-7.77c.62-.36,1.12,0,1.12.84v9.29A2.69,2.69,0,0,1,265.49,90.35Z"/><path class="cls-3" d="M264.16,125.2l-10.8,6.24c-.5.29-.9,0-.9-.68V113a2.16,2.16,0,0,1,.9-1.72l10.8-6.24c.5-.28.9,0,.9.68v17.76A2.13,2.13,0,0,1,264.16,125.2Z"/><rect class="cls-11" width="440" height="200"/></g></g></svg>