<svg xmlns="http://www.w3.org/2000/svg" viewBox="0 0 126 126"><defs><style>.cls-1,.cls-8{fill:#f2f4f6;}.cls-1,.cls-2,.cls-3,.cls-5,.cls-7{stroke:#627386;}.cls-1,.cls-2,.cls-3,.cls-5,.cls-6,.cls-7{stroke-linecap:round;stroke-linejoin:round;stroke-width:2px;}.cls-2{fill:#fff;}.cls-3{fill:#b8bfca;}.cls-4,.cls-6,.cls-7{fill:#d5dae0;}.cls-5,.cls-9{fill:none;}.cls-6{stroke:#fff;}</style></defs><title>screwdriver(1x1)</title><g id="Layer_2" data-name="Layer 2"><g id="Illustrations"><line class="cls-1" x1="26.81" y1="90.97" x2="19.98" y2="87.02"/><ellipse class="cls-2" cx="66.93" cy="63.86" rx="10.73" ry="18.96" transform="translate(-19.66 31.3) rotate(-23.05)"/><path class="cls-3" d="M118.52,44.07a16.89,16.89,0,0,0-25.38-14.6h0L62.4,47.31l14.4,30.5L110,58.74h0A16.88,16.88,0,0,0,118.52,44.07Z"/><path class="cls-4" d="M105.9,37.93a8.51,8.51,0,0,0-8.5-8.5,8.41,8.41,0,0,0-4.26,1.16h0l-34.5,20L65.87,65.9l35.75-20.59h0A8.49,8.49,0,0,0,105.9,37.93Z"/><path class="cls-5" d="M118.52,44.07a16.89,16.89,0,0,0-25.38-14.6h0L62.4,47.31l14.4,30.5L110,58.74h0A16.88,16.88,0,0,0,118.52,44.07Z"/><path class="cls-3" d="M80.76,71.85c0-10.19-6.19-22-13.83-26.44-3.47-2-6.62-2.11-9.05-.71h0l-7.62,4.4,2.87,6.08c0,.23,0,.46,0,.71,0,9.54,5.44,20.53,12.41,25.51l2.85,6L76,83h0C78.9,81.33,80.76,77.42,80.76,71.85Z"/><path class="cls-4" d="M66.93,45.41c-3.47-2-6.62-2.11-9.05-.71h0l-7.62,4.4,2.87,6.08c0,.23,0,.46,0,.71A33.79,33.79,0,0,0,56.66,70.3L77.57,58.22C75,52.69,71.21,47.89,66.93,45.41Z"/><path class="cls-5" d="M80.76,71.85c0-10.19-6.19-22-13.83-26.44-3.47-2-6.62-2.11-9.05-.71h0l-7.62,4.4,2.87,6.08c0,.23,0,.46,0,.71,0,9.54,5.44,20.53,12.41,25.51l2.85,6L76,83h0C78.9,81.33,80.76,77.42,80.76,71.85Z"/><ellipse class="cls-6" cx="59.3" cy="68.27" rx="12.02" ry="21.24" transform="translate(-21.99 28.67) rotate(-23.05)"/><path class="cls-5" d="M80.76,71.85c0-10.19-6.19-22-13.84-26.44-3.46-2-6.61-2.11-9-.71v0l-7.62,4.41h0c-2.93,1.69-4.79,5.6-4.79,11.18,0,10.19,6.2,22,13.84,26.43,3.46,2,6.62,2.12,9,.72h0L76,83h0C78.9,81.33,80.76,77.42,80.76,71.85Z"/><path class="cls-7" d="M62.18,70.55A8.18,8.18,0,0,0,58.76,64a2.2,2.2,0,0,0-2.23-.18h0L21.16,84.26h0a2.26,2.26,0,0,0-.31.23h0L8,96.19H8a1.54,1.54,0,0,0-.5,1.12A1.51,1.51,0,0,0,9,98.82a1.62,1.62,0,0,0,.44-.07h0l15.84-4.87h0a1.54,1.54,0,0,0,.35-.15h0L61,73.31h0A3,3,0,0,0,62.18,70.55Z"/><path class="cls-8" d="M58.76,64a2.2,2.2,0,0,0-2.23-.18h0L21.16,84.26h0a2.26,2.26,0,0,0-.31.23h0L8,96.19H8a1.5,1.5,0,0,0,0,2.22L61.52,67.49A7.2,7.2,0,0,0,58.76,64Z"/><path class="cls-5" d="M62.18,70.55A8.18,8.18,0,0,0,58.76,64a2.2,2.2,0,0,0-2.23-.18h0L21.16,84.26h0a2.26,2.26,0,0,0-.31.23h0L8,96.19H8a1.54,1.54,0,0,0-.5,1.12A1.51,1.51,0,0,0,9,98.82a1.62,1.62,0,0,0,.44-.07h0l15.84-4.87h0a1.54,1.54,0,0,0,.35-.15h0L61,73.31h0A3,3,0,0,0,62.18,70.55Z"/><rect class="cls-9" width="126" height="126"/></g></g></svg>