<svg xmlns="http://www.w3.org/2000/svg" viewBox="0 0 440 300"><defs><style>.cls-1{fill:#b8bfca;}.cls-2{fill:#d5dae0;}.cls-3,.cls-5,.cls-6,.cls-8{fill:none;}.cls-3{stroke:#b8bfca;}.cls-3,.cls-5,.cls-6,.cls-7{stroke-linecap:round;stroke-linejoin:round;stroke-width:2px;}.cls-4{fill:#f2f4f6;}.cls-5{stroke:#fff;}.cls-6,.cls-7{stroke:#627386;}.cls-7{fill:#fff;}</style></defs><title>screen(2x1)</title><g id="Layer_2" data-name="Layer 2"><g id="Illustrations"><path class="cls-1" d="M171.37,250.35,234,214.21a14.36,14.36,0,0,1,13,0L305.54,248l7.46-.13v6.63h0c0,1.36-.9,2.72-2.7,3.75l-67.81,39.16a14.38,14.38,0,0,1-13,0l-63.35-36.58c-1.79-1-2.69-2.39-2.69-3.75v-6.63Z"/><path class="cls-2" d="M234,214.21a11.47,11.47,0,0,1,2.64-1.06V299a13.6,13.6,0,0,1-7.11-1.53l-63.35-36.58c-1.79-1-2.69-2.39-2.69-3.75v-6.63l7.92-.14Z"/><path class="cls-3" d="M171.37,250.35,234,214.21a14.36,14.36,0,0,1,13,0L305.54,248l7.46-.13v6.63h0c0,1.36-.9,2.72-2.7,3.75l-67.81,39.16a14.38,14.38,0,0,1-13,0l-63.35-36.58c-1.79-1-2.69-2.39-2.69-3.75v-6.63Z"/><path class="cls-4" d="M166.14,254.24l63.35,36.57a14.32,14.32,0,0,0,13,0l67.81-39.15c3.59-2.07,3.59-5.43,0-7.5L247,207.58a14.36,14.36,0,0,0-13,0l-67.82,39.16C162.55,248.81,162.55,252.17,166.14,254.24Z"/><path class="cls-2" d="M186.12,235.2,234,207.58a14.36,14.36,0,0,1,13,0l63.35,36.58c3.59,2.07,3.59,5.43,0,7.5l-47.83,27.62Z"/><path class="cls-5" d="M166.14,254.24l63.35,36.57a14.32,14.32,0,0,0,13,0l67.81-39.15c3.59-2.07,3.59-5.43,0-7.5L247,207.58a14.36,14.36,0,0,0-13,0l-67.82,39.16C162.55,248.81,162.55,252.17,166.14,254.24Z"/><path class="cls-6" d="M166.14,246.74,234,207.58a10.54,10.54,0,0,1,1-.5,11.59,11.59,0,0,1,1.21-.45c.27-.08.54-.15.82-.21a15.5,15.5,0,0,1,6.91,0c.28.06.55.13.82.21a11.59,11.59,0,0,1,1.21.45,10.54,10.54,0,0,1,1,.5l63.35,36.58a6.49,6.49,0,0,1,1.64,1.28h0a4,4,0,0,1,.89,1.45,3.3,3.3,0,0,1,.17,1h0v6.63c0,1.36-.9,2.72-2.7,3.75l-67.81,39.16A13,13,0,0,1,236.6,299h0c-.31,0-.62,0-.93,0h-.06l-.86,0h-.13l-.78-.09-.17,0c-.24,0-.48-.07-.71-.12l-.22-.05-.64-.15-.24-.07-.59-.19a2.5,2.5,0,0,1-.25-.09c-.2-.07-.38-.15-.57-.23l-.22-.09c-.26-.12-.5-.25-.74-.38l-63.35-36.58c-1.79-1-2.69-2.39-2.69-3.75v-6.63C163.45,249.13,164.34,247.77,166.14,246.74Z"/><path class="cls-2" d="M117.81,8.28l12.13-7h0a2.65,2.65,0,0,1,2.71.22L318.93,109c2.29,1.32,4.14,4.87,4.14,7.93V283.68c0,1.67-.55,2.84-1.43,3.35h0l-12.13,7-16.33-27.62L137.44,176.5c-2.29-1.32-4.14-4.87-4.14-7.92V28.76Z"/><path class="cls-4" d="M129.94,1.28h0a2.65,2.65,0,0,1,2.71.22L318.93,109a8.74,8.74,0,0,1,3.29,4.11L175,198.17,137.44,176.5c-2.29-1.32-4.14-4.87-4.14-7.92V28.76L117.81,8.28Z"/><path class="cls-5" d="M117.81,8.28l12.13-7h0a2.65,2.65,0,0,1,2.71.22L318.93,109c2.29,1.32,4.14,4.87,4.14,7.93V283.68c0,1.67-.55,2.84-1.43,3.35h0l-12.13,7-16.33-27.62L137.44,176.5c-2.29-1.32-4.14-4.87-4.14-7.92V28.76Z"/><path class="cls-2" d="M120.53,186.27,306.8,293.81c2.29,1.32,4.15-.08,4.15-3.13V124c0-3.06-1.86-6.6-4.15-7.93L120.53,8.5c-2.29-1.32-4.15.08-4.15,3.13V178.34C116.38,181.4,118.24,184.94,120.53,186.27Z"/><path class="cls-1" d="M120.53,8.5,306.8,116c2.29,1.33,4.15,4.87,4.15,7.93V273.22L116.38,160.89V11.63C116.38,8.58,118.24,7.18,120.53,8.5Z"/><path class="cls-5" d="M120.53,186.27,306.8,293.81c2.29,1.32,4.15-.08,4.15-3.13V124c0-3.06-1.86-6.6-4.15-7.93L120.53,8.5c-2.29-1.32-4.15.08-4.15,3.13V178.34C116.38,181.4,118.24,184.94,120.53,186.27Z"/><ellipse class="cls-1" cx="214.06" cy="228.18" rx="2.87" ry="5.08" transform="translate(-72.25 102.03) rotate(-23.05)"/><polygon class="cls-7" points="123.24 155.72 304.09 260.14 304.09 123.62 123.24 19.21 123.24 155.72"/><polygon class="cls-4" points="154.55 37.28 304.09 123.62 304.09 260.14 272.78 242.06 154.55 37.28"/><polygon class="cls-6" points="123.24 155.72 304.09 260.14 304.09 123.62 123.24 19.21 123.24 155.72"/><path class="cls-6" d="M320.37,110.23l0,0q-.19-.21-.39-.39l-.09-.09-.36-.29-.11-.09c-.16-.11-.31-.22-.47-.31L132.65,1.5a3.82,3.82,0,0,0-1.05-.43l-.28,0a1.93,1.93,0,0,0-.48,0,2,2,0,0,0-.9.27h0l-12.13,7h0c-.88.51-1.44,1.68-1.44,3.35V178.34c0,3.06,1.86,6.6,4.15,7.93L306.8,293.81a2.65,2.65,0,0,0,2.71.22h0l12.13-7h0c.88-.51,1.43-1.68,1.43-3.35V117A10.52,10.52,0,0,0,320.37,110.23Z"/><rect class="cls-8" width="440" height="300"/></g></g></svg>