<svg xmlns="http://www.w3.org/2000/svg" viewBox="0 0 126 126"><defs><style>.cls-1,.cls-4,.cls-5,.cls-6,.cls-7{fill:none;}.cls-2{fill:#f2f4f6;}.cls-3{fill:#d5dae0;}.cls-4,.cls-7{stroke:#b8bfca;}.cls-4{stroke-miterlimit:10;}.cls-4,.cls-5,.cls-6,.cls-7{stroke-width:2px;}.cls-5{stroke:#627386;}.cls-5,.cls-6,.cls-7{stroke-linecap:round;stroke-linejoin:round;}.cls-6{stroke:#fff;}</style></defs><title>screw(1x1)</title><g id="Layer_2" data-name="Layer 2"><g id="Illustrations"><rect class="cls-1" width="126" height="126"/><path class="cls-2" d="M82.55,37.87h0a4,4,0,0,1,4.13.32c3.49,2,6.32,7.42,6.32,12.07,0,2.55-.85,4.33-2.19,5.11h0l-29.46,17L53.08,54.9l29.47-17"/><path class="cls-3" d="M63.58,71.13l-4.83-8.36L91.43,43.88A15.38,15.38,0,0,1,93,50.27c0,2.55-.85,4.33-2.19,5.11h0Z"/><path class="cls-4" d="M82.55,37.87h0a4,4,0,0,1,4.13.32c3.49,2,6.32,7.42,6.32,12.07,0,2.55-.85,4.33-2.19,5.11"/><path class="cls-4" d="M82.55,37.88h0a4,4,0,0,1,4.13.32c3.49,2,6.32,7.42,6.32,12.07,0,2.55-.85,4.33-2.19,5.1"/><path class="cls-4" d="M69.46,45.44h0a4,4,0,0,1,4.13.33c3.49,2,6.32,7.42,6.32,12.07,0,2.54-.85,4.33-2.19,5.1"/><path class="cls-5" d="M82.55,37.87h0a4,4,0,0,1,4.13.32c3.49,2,6.32,7.42,6.32,12.07,0,2.55-.85,4.33-2.19,5.11h0l-29.46,17L53.08,54.9l29.47-17"/><path class="cls-2" d="M43.3,65.88l-6-12.7,11.75-6.79v0c2.19-1.26,5-1.16,8.14.64,6.88,4,12.46,14.63,12.46,23.8,0,5-1.68,8.54-4.31,10.06h0L53.61,87.71l-6-12.66A33.3,33.3,0,0,1,43.3,65.88Z"/><path class="cls-3" d="M66.62,58.23a30.16,30.16,0,0,1,3,12.62c0,5-1.68,8.54-4.31,10.06h0L53.61,87.71l-6-12.66a31.66,31.66,0,0,1-2.51-4.41Z"/><path class="cls-5" d="M43.3,65.88l-6-12.7,11.75-6.79v0c2.19-1.26,5-1.16,8.14.64,6.88,4,12.46,14.63,12.46,23.8,0,5-1.68,8.54-4.31,10.06h0L53.61,87.71l-6-12.66A33.3,33.3,0,0,1,43.3,65.88Z"/><ellipse class="cls-3" cx="45.46" cy="70.45" rx="10.82" ry="19.12" transform="translate(-23.95 23.42) rotate(-23.05)"/><ellipse class="cls-6" cx="45.46" cy="70.45" rx="10.82" ry="19.12" transform="translate(-23.95 23.42) rotate(-23.05)"/><line class="cls-7" x1="45.46" y1="66.12" x2="45.46" y2="74.77"/><line class="cls-7" x1="42.21" y1="68.57" x2="48.7" y2="72.32"/><path class="cls-5" d="M69.67,70.85c0-9.17-5.58-19.83-12.46-23.8-3.11-1.8-6-1.9-8.14-.64v0L37.31,53.18v0c-2.63,1.52-4.31,5-4.31,10,0,9.18,5.58,19.83,12.46,23.8,3.11,1.8,6,1.91,8.14.65h0l11.75-6.79h0C68,79.39,69.67,75.87,69.67,70.85Z"/></g></g></svg>