<svg xmlns="http://www.w3.org/2000/svg" viewBox="0 0 126 126"><defs><style>.cls-1{fill:#f2f4f6;}.cls-2{fill:#d5dae0;}.cls-3{fill:#fff;}.cls-4,.cls-5,.cls-7{fill:none;}.cls-4{stroke:#627386;}.cls-4,.cls-5{stroke-linecap:round;stroke-linejoin:round;stroke-width:2px;}.cls-5{stroke:#b8bfca;}.cls-6{fill:#b8bfca;}</style></defs><title>sensor(1x1)</title><g id="Layer_2" data-name="Layer 2"><g id="Illustrations"><path class="cls-1" d="M37.53,46.11c0,.15,0,.29,0,.43s.06.24.09.36.07.27.12.41.09.22.14.33a3.36,3.36,0,0,0,.2.43c.11.2.22.39.35.58l.07.09a5.92,5.92,0,0,0,.45.57l.09.11a7.73,7.73,0,0,0,.58.56c.13.12.28.24.42.35s.25.21.39.31L41,51c.18.11.34.23.52.33L64.93,64.92c.41.24.85.45,1.3.66.12.06.26.11.39.16.35.15.71.29,1.08.41l.4.14.71.2.54.15.76.16.52.11q.77.14,1.56.21l.49,0,.93.06H75l.63,0,.7,0,.63,0,.69-.08.62-.08.73-.13c.19,0,.38-.07.56-.12s.58-.13.86-.21l.47-.12c.51-.15,1-.31,1.48-.5q.35-.14.69-.3l.36-.15c.34-.17.68-.34,1-.53,2.71-1.56,4.06-3.62,4.06-5.67L88.56,115c0,2.06-1.35,4.11-4.06,5.68-.33.18-.66.36-1,.52l-.35.16-.63.27-.07,0c-.48.19-1,.35-1.48.5l-.12,0-.35.09-.85.21-.23,0c-.11,0-.23,0-.34.06l-.73.13-.29.05-.33,0-.68.07-.33,0-.31,0-.7,0-.35,0h-1c-.13,0-.25,0-.38,0l-.22,0c-.31,0-.62,0-.93-.06-.12,0-.25,0-.37,0H72.3c-.53-.06-1-.13-1.56-.22h-.08l-.44-.1-.76-.16-.54-.14c-.24-.07-.48-.13-.71-.21l-.15,0-.25-.09c-.37-.13-.73-.26-1.08-.41l-.39-.17a13.19,13.19,0,0,1-1.3-.66L41.61,107.07l-.17-.1-.36-.24-.49-.33-.39-.3c-.14-.12-.29-.23-.42-.35a.5.5,0,0,0-.08-.07c-.18-.17-.34-.33-.5-.5l-.09-.11-.27-.31-.18-.25-.07-.09q-.17-.24-.3-.48l0-.11a3.36,3.36,0,0,1-.2-.43l-.12-.24s0-.06,0-.09-.08-.27-.12-.41-.06-.19-.08-.28a.17.17,0,0,0,0-.07c0-.15,0-.29,0-.44a2.4,2.4,0,0,1,0-.28v-.12L37.5,45.71C37.5,45.84,37.52,46,37.53,46.11Z"/><path class="cls-2" d="M88.45,59.25c0,2-1.35,4.11-4.06,5.67-.33.19-.67.36-1,.53L83,65.6q-.34.16-.69.3c-.48.19-1,.35-1.48.5l-.47.12c-.28.08-.57.15-.86.21s-.37.08-.56.12l-.73.13-.62.08-.69.08-.63,0-.7,0-.63,0H73.55V123h.17l.22,0c.13,0,.25,0,.38,0h1l.35,0,.7,0,.31,0,.33,0,.68-.07.33,0,.29-.05.73-.13c.11,0,.23,0,.34-.06l.23,0,.85-.21.35-.09.12,0c.51-.15,1-.31,1.48-.5l.07,0,.63-.27.35-.16c.35-.16.68-.34,1-.52,2.71-1.57,4.06-3.62,4.06-5.68Z"/><path class="cls-3" d="M41.56,40c-5.39,3.12-5.42,8.16-.07,11.27L64.93,64.92C70.29,68,79,68,84.39,64.92h0c5.39-3.11,5.41-8.15.06-11.27L61,40C55.66,36.92,47,36.92,41.56,40Z"/><path class="cls-4" d="M37.44,45.71l.11,55.76a.49.49,0,0,0,0,.12,2.4,2.4,0,0,0,0,.28,3.29,3.29,0,0,0,0,.44.17.17,0,0,0,0,.07,1.47,1.47,0,0,0,.08.28,3.11,3.11,0,0,0,.11.41l0,.09c0,.08.08.16.11.24s.13.29.21.43,0,.07,0,.11.2.32.31.48l.06.09c.06.08.12.17.19.25a2.61,2.61,0,0,0,.27.31l.09.11c.15.17.31.33.49.5l.09.07c.13.12.27.23.42.35l.38.3.5.33.35.24.17.1L65,120.68a13.19,13.19,0,0,0,1.3.66l.39.17c.36.15.72.28,1.09.41L68,122l.15,0c.23.08.47.14.71.21l.54.14.76.16.45.1h.07c.52.09,1,.16,1.57.22h.11l.38,0c.31,0,.61,0,.93.06l.22,0c.12,0,.25,0,.37,0h1l.35,0,.69,0,.31,0,.33,0,.69-.07.32,0,.29-.05.73-.13c.11,0,.23,0,.34-.06l.23,0,.85-.21.36-.09.12,0c.5-.15,1-.31,1.47-.5l.08,0,.62-.27.35-.16c.35-.16.69-.34,1-.52,2.71-1.57,4.07-3.62,4.06-5.68l-.11-55.76v0c0-2-1.33-4.07-4-5.62L61,40c-5.36-3.11-14.07-3.11-19.46,0-2.88,1.67-4.21,3.89-4,6.07A2.58,2.58,0,0,1,37.44,45.71Z"/><path class="cls-5" d="M41.49,51.3,64.93,64.92c4.93,2.86,12.69,3.09,18.1.69"/><path class="cls-5" d="M41.49,82.5,64.93,96.12c4.93,2.87,12.69,3.1,18.1.69"/><path class="cls-3" d="M64.5,3a3.13,3.13,0,0,1,3.12,3.13V51.88c0,1-1.4,1.8-3.12,1.8s-3.13-.81-3.13-1.8V6.12A3.13,3.13,0,0,1,64.5,3Z"/><path class="cls-2" d="M64.5,53.68h0c1.72,0,3.12-.81,3.12-1.8v-45a1.56,1.56,0,0,0-1.56-1.56h0A1.56,1.56,0,0,0,64.5,6.89Z"/><path class="cls-4" d="M64.5,3a3.13,3.13,0,0,1,3.12,3.13V51.88c0,1-1.4,1.8-3.12,1.8s-3.13-.81-3.13-1.8V6.12A3.13,3.13,0,0,1,64.5,3Z"/><path class="cls-4" d="M67.62,26.85c0,1-1.4,1.81-3.12,1.81s-3.13-.81-3.13-1.81"/><line class="cls-5" x1="81.27" y1="107.05" x2="81.27" y2="111.6"/><line class="cls-5" x1="81.27" y1="77.55" x2="81.27" y2="82.09"/><path class="cls-6" d="M66.73,76l0,8a1.65,1.65,0,0,1-2.47,1.41L45.54,74.63a3.3,3.3,0,0,1-1.65-2.87l0-8a1.65,1.65,0,0,1,2.47-1.41L65.08,73.13A3.27,3.27,0,0,1,66.73,76Z"/><ellipse class="cls-6" cx="43.89" cy="99.92" rx="1.23" ry="2.13" transform="translate(-43.93 35.14) rotate(-29.87)"/><ellipse class="cls-6" cx="66.73" cy="113.08" rx="1.23" ry="2.13" transform="translate(-47.46 48.26) rotate(-29.87)"/><rect class="cls-7" width="126" height="126"/></g></g></svg>