<svg xmlns="http://www.w3.org/2000/svg" viewBox="0 0 440 200"><defs><style>.cls-1{fill:#d5dae0;}.cls-2{fill:#f2f4f6;}.cls-10,.cls-3{fill:#fff;}.cls-11,.cls-12,.cls-4,.cls-5,.cls-8,.cls-9{fill:none;}.cls-4{stroke:#b8bfca;}.cls-10,.cls-11,.cls-4,.cls-5,.cls-8,.cls-9{stroke-linecap:round;stroke-linejoin:round;stroke-width:2px;}.cls-5{stroke:#627386;}.cls-6{fill:#bde4fd;}.cls-7{fill:#e9f6fe;}.cls-10,.cls-11,.cls-8{stroke:#91d2fb;}.cls-9{stroke:#1b6dc6;}.cls-11{stroke-dasharray:0 6;}</style></defs><title>shape_switch(1x1)</title><g id="Layer_2" data-name="Layer 2"><g id="Illustrations"><path class="cls-1" d="M284.34,127.28,223.09,91.92a6.86,6.86,0,0,0-6.18,0l-61.25,35.36a2.19,2.19,0,0,0-1.28,1.79v10.64a2.19,2.19,0,0,0,1.28,1.79l61.25,35.36a6.86,6.86,0,0,0,6.18,0l61.25-35.36a2.19,2.19,0,0,0,1.28-1.79V129.07A2.18,2.18,0,0,0,284.34,127.28Z"/><path class="cls-2" d="M220,91.18a6.33,6.33,0,0,0-3.09.74l-61.25,35.36a2.19,2.19,0,0,0-1.28,1.79v10.64a2.19,2.19,0,0,0,1.28,1.79l61.25,35.36a6.33,6.33,0,0,0,3.09.74Z"/><path class="cls-3" d="M284.34,127.28,223.09,91.92a6.86,6.86,0,0,0-6.18,0l-61.25,35.36c-1.7,1-1.7,2.59,0,3.57l61.25,35.36a6.8,6.8,0,0,0,6.18,0l61.25-35.36C286,129.87,286,128.27,284.34,127.28Z"/><path class="cls-4" d="M284.34,127.28,223.09,91.92a6.86,6.86,0,0,0-6.18,0l-61.25,35.36c-1.7,1-1.7,2.59,0,3.57l61.25,35.36a6.8,6.8,0,0,0,6.18,0l61.25-35.36C286,129.87,286,128.27,284.34,127.28Z"/><path class="cls-4" d="M284.34,127.28,223.09,91.92a6.86,6.86,0,0,0-6.18,0l-61.25,35.36c-1.7,1-1.7,2.59,0,3.57l61.25,35.36a6.8,6.8,0,0,0,6.18,0l61.25-35.36C286,129.87,286,128.27,284.34,127.28Z"/><path class="cls-5" d="M284.34,127.28,223.09,91.92a6.86,6.86,0,0,0-6.18,0l-61.25,35.36a2.19,2.19,0,0,0-1.28,1.79v10.64a2.19,2.19,0,0,0,1.28,1.79l61.25,35.36a6.86,6.86,0,0,0,6.18,0l61.25-35.36a2.19,2.19,0,0,0,1.28-1.79V129.07A2.18,2.18,0,0,0,284.34,127.28Z"/><path class="cls-6" d="M272.42,51.81,222.52,23a5.53,5.53,0,0,0-5,0l-49.9,28.8a1.79,1.79,0,0,0-1,1.46v74.95a1.78,1.78,0,0,0,1,1.45l49.9,28.81a5.59,5.59,0,0,0,5,0l49.9-28.81a1.78,1.78,0,0,0,1-1.45V53.27A1.79,1.79,0,0,0,272.42,51.81Z"/><path class="cls-7" d="M220,22.4a5.08,5.08,0,0,0-2.52.61l-49.9,28.8a1.79,1.79,0,0,0-1,1.46v74.95a1.78,1.78,0,0,0,1,1.45l49.9,28.81a5.19,5.19,0,0,0,2.52.6Z"/><path class="cls-3" d="M272.42,51.81,222.52,23a5.53,5.53,0,0,0-5,0l-49.9,28.8c-1.39.81-1.39,2.11,0,2.91l49.9,28.81a5.59,5.59,0,0,0,5,0l49.9-28.81C273.81,53.92,273.81,52.62,272.42,51.81Z"/><path class="cls-4" d="M272.42,51.81,222.52,23a5.53,5.53,0,0,0-5,0l-49.9,28.8c-1.39.81-1.39,2.11,0,2.91l49.9,28.81a5.59,5.59,0,0,0,5,0l49.9-28.81C273.81,53.92,273.81,52.62,272.42,51.81Z"/><path class="cls-8" d="M272.42,51.81,222.52,23a5.53,5.53,0,0,0-5,0l-49.9,28.8c-1.39.81-1.39,2.11,0,2.91l49.9,28.81a5.59,5.59,0,0,0,5,0l49.9-28.81C273.81,53.92,273.81,52.62,272.42,51.81Z"/><ellipse class="cls-8" cx="220.31" cy="113.6" rx="9.85" ry="5.69"/><polygon class="cls-8" points="201.77 130.9 194.74 134.96 192.17 129.41 189.6 123.87 199.2 125.36 208.79 126.84 201.77 130.9"/><path class="cls-8" d="M231.83,142.32l-11.17-6.45a.78.78,0,0,0-.7,0l-11.16,6.45L220,148.76a.78.78,0,0,0,.7,0Z"/><polygon class="cls-8" points="248.44 121.7 254.41 128.28 246.08 133.01 234.96 129.36 236.42 122.36 248.44 121.7"/><path class="cls-7" d="M220.36,44.44l-14.64,8.45c-4,2.32-4,6.08,0,8.4h0a16.08,16.08,0,0,0,14.55,0l14.63-8.45c4-2.32,4-6.08,0-8.4h0A16.06,16.06,0,0,0,220.36,44.44Z"/><path class="cls-9" d="M220.36,44.44l-14.64,8.45c-4,2.32-4,6.08,0,8.4h0a16.08,16.08,0,0,0,14.55,0l14.63-8.45c4-2.32,4-6.08,0-8.4h0A16.06,16.06,0,0,0,220.36,44.44Z"/><path class="cls-7" d="M223.18,53.05v3.58c0,1.44-1,2.89-2.86,4a15.29,15.29,0,0,1-13.85,0c-1.91-1.1-2.87-2.55-2.87-4V53.05Z"/><path class="cls-6" d="M213.39,62.28a14.12,14.12,0,0,0,6.93-1.66c1.91-1.1,2.86-2.55,2.86-4V53.05h-9.79Z"/><path class="cls-4" d="M223.18,53.05v3.58c0,1.44-1,2.89-2.86,4a15.29,15.29,0,0,1-13.85,0c-1.91-1.1-2.87-2.55-2.87-4V53.05Z"/><ellipse class="cls-10" cx="213.39" cy="53.05" rx="9.79" ry="5.65"/><path class="cls-9" d="M223.18,53.05c0-1.44-1-2.89-2.86-4a15.29,15.29,0,0,0-13.85,0c-1.91,1.1-2.87,2.55-2.87,4h0v3.58c0,1.44,1,2.89,2.87,4a15.27,15.27,0,0,0,13.85,0c1.91-1.1,2.86-2.55,2.86-4V53.05Z"/><path class="cls-8" d="M270,118.93l-47-27.17a6.44,6.44,0,0,0-5.86,0L169.8,119.28"/><path class="cls-8" d="M272.42,51.81,222.52,23a5.53,5.53,0,0,0-5,0l-49.9,28.8c-1.39.81-1.39,2.11,0,2.91l49.9,28.81a5.59,5.59,0,0,0,5,0l49.9-28.81C273.81,53.92,273.81,52.62,272.42,51.81Z"/><path class="cls-11" d="M272.42,126.86l-49.9-28.81a5.59,5.59,0,0,0-5,0l-49.9,28.81c-1.39.8-1.39,2.11,0,2.91l49.9,28.81a5.59,5.59,0,0,0,5,0l49.9-28.81C273.81,129,273.81,127.66,272.42,126.86Z"/><path class="cls-9" d="M272.42,51.81,222.52,23a5.53,5.53,0,0,0-5,0l-49.9,28.8a1.79,1.79,0,0,0-1,1.46v74.95a1.78,1.78,0,0,0,1,1.45l49.9,28.81a5.59,5.59,0,0,0,5,0l49.9-28.81a1.78,1.78,0,0,0,1-1.45V53.27A1.79,1.79,0,0,0,272.42,51.81Z"/><rect class="cls-12" width="440" height="200"/></g></g></svg>