<svg xmlns="http://www.w3.org/2000/svg" viewBox="0 0 440 200"><defs><style>.cls-1,.cls-4,.cls-8{fill:none;}.cls-2{fill:#fff;}.cls-2,.cls-4,.cls-7{stroke:#627386;}.cls-2,.cls-4,.cls-6,.cls-7,.cls-8{stroke-linecap:round;stroke-linejoin:round;stroke-width:2px;}.cls-3{fill:#f2f4f6;}.cls-5,.cls-7{fill:#d5dae0;}.cls-6,.cls-9{fill:#b8bfca;}.cls-6{stroke:#fff;}.cls-8{stroke:#b8bfca;}</style></defs><title>speaker(1x1)</title><g id="Layer_2" data-name="Layer 2"><g id="Illustrations"><rect class="cls-1" width="440" height="200"/><path class="cls-2" d="M252.9,39,222.85,21.64h0c-1.31-.75-3-.69-4.88.39l-34.8,20.09c-4.12,2.38-7.46,8.76-7.46,14.25v93.5c0,3,1,5.12,2.58,6h0l30.05,17.35,3.19-34.12,6.44-3.72c4.12-2.38,7.46-8.76,7.46-14.25V83.41Z"/><path class="cls-3" d="M177.08,49.86a17.69,17.69,0,0,0-1.37,6.52v93.5c0,3,1,5.12,2.58,6h0l30.05,17.35,3.19-34.12,6.44-3.72c4.12-2.38,7.46-8.76,7.46-14.25V83.41L228,79.26Z"/><path class="cls-4" d="M252.9,39,222.85,21.64h0c-1.31-.75-3-.69-4.88.39l-34.8,20.09c-4.12,2.38-7.46,8.76-7.46,14.25v93.5c0,3,1,5.12,2.58,6h0l30.05,17.35,3.19-34.12,6.44-3.72c4.12-2.38,7.46-8.76,7.46-14.25V83.41Z"/><path class="cls-2" d="M248,152.78l-34.8,20.09c-4.12,2.38-7.46-.14-7.46-5.64V73.73c0-5.49,3.34-11.87,7.46-14.25L248,39.39c4.12-2.38,7.46.14,7.46,5.63v93.51C255.48,144,252.14,150.4,248,152.78Z"/><ellipse class="cls-2" cx="230.62" cy="81.87" rx="26.38" ry="14.93" transform="translate(64.98 262.02) rotate(-66.95)"/><ellipse class="cls-2" cx="230.62" cy="138.45" rx="13.19" ry="7.46" transform="translate(12.92 296.45) rotate(-66.95)"/><path class="cls-3" d="M261.71,44.08,252.9,39h0c-1.31-.75-3-.69-4.88.39l-34.8,20.09c-4.12,2.38-7.46,8.76-7.46,14.25v93.5c0,3,1,5.12,2.58,6h0l8.81,5.08,3.19-34.11,6.44-3.73c4.12-2.37,7.46-8.75,7.46-14.24V88.5Z"/><path class="cls-5" d="M207.13,67.21a17.69,17.69,0,0,0-1.37,6.52v93.5c0,3,1,5.12,2.58,6h0l8.81,5.08,3.19-34.11,6.44-3.73c4.12-2.37,7.46-8.75,7.46-14.24V88.5l2.57-4.15Z"/><path class="cls-4" d="M261.71,44.08,252.9,39h0c-1.31-.75-3-.69-4.88.39l-34.8,20.09c-4.12,2.38-7.46,8.76-7.46,14.25v93.5c0,3,1,5.12,2.58,6h0l8.81,5.08,3.19-34.11,6.44-3.73c4.12-2.37,7.46-8.75,7.46-14.24V88.5Z"/><path class="cls-6" d="M256.83,157.86,222,178c-4.12,2.38-7.46-.15-7.46-5.64V78.82c0-5.5,3.34-11.88,7.46-14.25l34.8-20.1c4.12-2.38,7.46.15,7.46,5.64v93.5C264.29,149.11,261,155.49,256.83,157.86Z"/><ellipse class="cls-7" cx="239.43" cy="86.96" rx="26.38" ry="14.93" transform="translate(65.66 273.22) rotate(-66.95)"/><ellipse class="cls-8" cx="234.76" cy="84.26" rx="7.68" ry="4.34" transform="translate(65.3 267.28) rotate(-66.95)"/><ellipse class="cls-7" cx="239.43" cy="143.54" rx="13.19" ry="7.46" transform="translate(13.6 307.65) rotate(-66.95)"/><ellipse class="cls-9" cx="238.54" cy="143.03" rx="2.85" ry="1.61" transform="translate(13.53 306.52) rotate(-66.95)"/><path class="cls-4" d="M261.71,44.09h0L252.9,39h0c-1.31-.75-3-.69-4.88.39l-34.8,20.09c-4.12,2.38-7.46,8.76-7.46,14.25v93.5c0,3,1,5.12,2.58,6h0l8.81,5.08h0c1.31.76,3,.7,4.88-.38l34.8-20.1c4.12-2.37,7.46-8.75,7.46-14.25V50.11C264.29,47.11,263.29,45,261.71,44.09Z"/></g></g></svg>