<svg xmlns="http://www.w3.org/2000/svg" viewBox="0 0 440 200"><defs><style>.cls-1{fill:#d5dae0;}.cls-1,.cls-2,.cls-3{stroke:#b8bfca;}.cls-1,.cls-2,.cls-3,.cls-5{stroke-linecap:round;stroke-linejoin:round;stroke-width:2px;}.cls-2{fill:#fff;}.cls-3{fill:#f2f4f6;}.cls-4,.cls-5{fill:none;}.cls-5{stroke:#627386;}</style></defs><title>stairs(1x1)</title><g id="Layer_2" data-name="Layer 2"><g id="Illustrations"><polygon class="cls-1" points="232.61 173.84 291 140.13 291 126.99 232.61 160.7 232.61 173.84"/><polygon class="cls-2" points="232.61 160.7 215.89 151.04 274.28 117.34 291 126.99 232.61 160.7"/><polygon class="cls-1" points="215.89 151.04 274.28 117.34 274.28 104.2 215.89 137.91 215.89 151.04"/><polygon class="cls-2" points="215.89 137.91 199.17 128.25 257.55 94.54 274.28 104.2 215.89 137.91"/><polygon class="cls-1" points="199.17 128.25 257.55 94.54 257.55 81.4 199.17 115.11 199.17 128.25"/><polygon class="cls-2" points="199.17 115.11 182.45 105.46 240.83 71.75 257.55 81.4 199.17 115.11"/><polygon class="cls-1" points="182.45 105.46 240.83 71.75 240.83 58.61 182.45 92.32 182.45 105.46"/><polygon class="cls-2" points="182.45 92.32 165.72 82.66 224.11 48.95 240.83 58.61 182.45 92.32"/><polygon class="cls-1" points="165.72 82.66 224.11 48.95 224.11 35.82 165.72 69.52 165.72 82.66"/><polygon class="cls-2" points="165.72 69.52 149 59.87 207.39 26.16 224.11 35.82 165.72 69.52"/><polygon class="cls-3" points="215.89 151.04 215.89 151.04 215.89 137.91 199.17 128.25 199.17 115.11 182.45 105.46 182.45 105.46 182.45 92.32 165.72 82.66 165.72 82.66 165.72 69.52 149 59.87 149 73.01 149 99.29 149 125.56 182.45 144.88 232.61 173.84 232.61 160.7 215.89 151.04"/><rect class="cls-4" width="440" height="200"/><polygon class="cls-5" points="274.28 117.34 274.28 104.2 257.55 94.54 257.55 81.4 240.83 71.75 240.83 58.61 224.11 48.95 224.11 35.82 207.39 26.16 149 59.87 149 59.87 149 73.01 149 99.29 149 125.56 182.45 144.88 232.61 173.84 232.61 173.84 291 140.13 291 126.99 274.28 117.34"/></g></g></svg>