<svg xmlns="http://www.w3.org/2000/svg" viewBox="0 0 126 126"><defs><style>.cls-1,.cls-3{fill:#f2f4f6;}.cls-2{fill:#b8bfca;}.cls-3,.cls-8,.cls-9{stroke:#d5dae0;}.cls-3{stroke-miterlimit:10;}.cls-3,.cls-4,.cls-6,.cls-8,.cls-9{stroke-width:2px;}.cls-10,.cls-4,.cls-6,.cls-8{fill:none;}.cls-4{stroke:#627386;}.cls-4,.cls-6,.cls-8,.cls-9{stroke-linecap:round;stroke-linejoin:round;}.cls-5{fill:#d5dae0;}.cls-6{stroke:#f2f4f6;}.cls-7,.cls-9{fill:#fff;}</style></defs><title>stopwatch(1x1)</title><g id="Layer_2" data-name="Layer 2"><g id="Illustrations"><path class="cls-1" d="M93.65,32,102.37,27c1.33-.77,3.18-.67,5.21.51l-8.72,5.07C96.83,31.35,95,31.24,93.65,32Z"/><path class="cls-2" d="M112.75,44.81,104,49.88c1.32-.77,2.13-2.39,2.14-4.7a16.09,16.09,0,0,0-7.31-12.65l8.72-5.07a16.11,16.11,0,0,1,7.31,12.65C114.88,42.42,114.06,44.05,112.75,44.81Z"/><ellipse class="cls-3" cx="98.84" cy="40.95" rx="5.98" ry="10.33" transform="translate(-7.19 55.21) rotate(-30.16)"/><path class="cls-2" d="M97.94,38.68a2.25,2.25,0,0,0-2.27-.22L84.2,45.11h0a2.29,2.29,0,0,0-.94,2.06,7.06,7.06,0,0,0,3.19,5.52,2.19,2.19,0,0,0,2.38.15l-.1.07,11.47-6.65a2.23,2.23,0,0,0,.93-2A7,7,0,0,0,97.94,38.68Z"/><path class="cls-4" d="M107.58,27.46c-2-1.18-3.88-1.28-5.21-.51L93.65,32h0c-1.32.76-2.14,2.39-2.15,4.71a12.84,12.84,0,0,0,.63,3.78L84.2,45.11h0a2.29,2.29,0,0,0-.94,2.06,7.06,7.06,0,0,0,3.19,5.52,2.19,2.19,0,0,0,2.38.15l-.1.07L97,48.08a12,12,0,0,0,1.78,1.29c2.16,1.25,4.1,1.28,5.45.34l-.24.17,8.72-5.07c1.31-.76,2.13-2.39,2.14-4.7A16.11,16.11,0,0,0,107.58,27.46Z"/><path class="cls-5" d="M98.06,59.36l-.15,15.17c0,6.39-4.22,12.77-12.61,17.65-16.9,9.82-44.37,9.82-61.37,0-8.56-4.94-12.84-11.43-12.82-17.9l.15-15.17c0,6.48,4.26,13,12.82,17.9,17,9.82,44.47,9.82,61.37,0C93.84,72.13,98,65.75,98.06,59.36Z"/><path class="cls-2" d="M85.45,77c-16.9,9.82-44.37,9.82-61.37,0a1.18,1.18,0,0,1-.19-.11V92.16l0,0c17,9.82,44.47,9.82,61.37,0,8.39-4.88,12.59-11.26,12.61-17.65l.15-15.17C98,65.75,93.84,72.13,85.45,77Z"/><path class="cls-5" d="M85.25,41.46c17,9.82,17.09,25.74.2,35.55s-44.37,9.82-61.37,0S7,51.28,23.87,41.46,68.25,31.64,85.25,41.46Z"/><path class="cls-6" d="M98.06,59.24c0,6.43-4.17,12.86-12.61,17.77-16.9,9.82-44.37,9.82-61.37,0a34.14,34.14,0,0,1-6.37-4.65"/><path class="cls-4" d="M98,59.92c.27-6.66-4-13.38-12.79-18.46-17-9.82-44.49-9.82-61.38,0-8.42,4.89-12.62,11.3-12.61,17.71v-.06l-.15,15.17c0,6.47,4.26,13,12.82,17.9,17,9.82,44.47,9.82,61.37,0,8.39-4.88,12.59-11.26,12.61-17.65l.15-15.17C98.06,59.54,98.05,59.73,98,59.92Z"/><path class="cls-7" d="M77.49,45.93c12.73,7.35,12.79,19.27.14,26.62s-33.22,7.35-45.95,0-12.8-19.27-.15-26.62S64.76,38.58,77.49,45.93Z"/><line class="cls-8" x1="73.41" y1="48.3" x2="69.62" y2="50.5"/><line class="cls-8" x1="81.29" y1="59.24" x2="79.5" y2="59.24"/><line class="cls-8" x1="54.58" y1="74.71" x2="54.58" y2="72.88"/><line class="cls-8" x1="73.53" y1="70.18" x2="69.62" y2="67.92"/><line class="cls-8" x1="29.66" y1="59.24" x2="27.88" y2="59.24"/><line class="cls-8" x1="39.95" y1="67.74" x2="35.76" y2="70.18"/><line class="cls-8" x1="54.58" y1="45.6" x2="54.58" y2="43.77"/><line class="cls-8" x1="39.95" y1="50.79" x2="35.63" y2="48.3"/><path class="cls-2" d="M55.9,58.47a.81.81,0,0,1,0,1.54,2.94,2.94,0,0,1-2.65,0c-.73-.43-.74-1.12,0-1.54A2.94,2.94,0,0,1,55.9,58.47Z"/><ellipse class="cls-9" cx="54.66" cy="59.24" rx="12.82" ry="7.4"/><line class="cls-8" x1="50.54" y1="56.86" x2="58.78" y2="61.61"/><line class="cls-8" x1="58.78" y1="56.86" x2="50.54" y2="61.61"/><rect class="cls-10" width="126" height="126"/></g></g></svg>