<svg xmlns="http://www.w3.org/2000/svg" viewBox="0 0 440 200"><defs><style>.cls-1{fill:#d5dae0;}.cls-2{fill:#b8bfca;}.cls-3,.cls-6,.cls-7,.cls-8{fill:none;}.cls-3{stroke:#b8bfca;}.cls-3,.cls-6,.cls-7{stroke-linecap:round;stroke-linejoin:round;stroke-width:2px;}.cls-4{fill:#fff;}.cls-5{fill:#f2f4f6;}.cls-6{stroke:#fff;}.cls-7{stroke:#627386;}</style></defs><title>tablet(2x1)</title><g id="Layer_2" data-name="Layer 2"><g id="Illustrations"><path class="cls-1" d="M134.75,85.87l60.12-34.71a12.9,12.9,0,0,1,11.67,0l94.21,54.39,14.25,1v9.22c0,1.22-.81,2.44-2.42,3.37l-67.45,38.94a12.9,12.9,0,0,1-11.67,0l-106-61.22c-1.61-.93-2.42-2.15-2.42-3.37V84.25Z"/><path class="cls-2" d="M239.76,70.34l61,35.21,14.25,1v9.22c0,1.22-.81,2.44-2.42,3.37l-67.45,38.94a11.67,11.67,0,0,1-5.37,1.37Z"/><path class="cls-3" d="M134.75,85.87l60.12-34.71a12.9,12.9,0,0,1,11.67,0l94.21,54.39,14.25,1v9.22c0,1.22-.81,2.44-2.42,3.37l-67.45,38.94a12.9,12.9,0,0,1-11.67,0l-106-61.22c-1.61-.93-2.42-2.15-2.42-3.37V84.25Z"/><path class="cls-4" d="M312.58,103.16l-106-61.22a12.9,12.9,0,0,0-11.67,0L127.42,80.88c-3.23,1.86-3.23,4.88,0,6.74l106,61.22a12.9,12.9,0,0,0,11.67,0l67.45-38.94C315.81,108,315.81,105,312.58,103.16Z"/><path class="cls-5" d="M220,141.07l13.46,7.77a12.9,12.9,0,0,0,11.67,0l67.45-38.94c3.23-1.86,3.23-4.88,0-6.74L220,49.71Z"/><ellipse class="cls-2" cx="273.39" cy="126.28" rx="2.42" ry="1.4"/><path class="cls-6" d="M127.42,87.62l106,61.22a12.9,12.9,0,0,0,11.67,0l67.45-38.94c3.23-1.86,3.23-4.88,0-6.74l-106-61.22a12.9,12.9,0,0,0-11.67,0L127.42,80.88C124.19,82.74,124.19,85.76,127.42,87.62Z"/><path class="cls-7" d="M313.64,103.92c-.15-.13-.31-.26-.49-.39s-.36-.24-.57-.36l-65.91-38L206.54,42a12.9,12.9,0,0,0-11.67,0L127.42,80.89c-1.61.93-2.42,2.15-2.42,3.37v9.22c0,1.22.81,2.44,2.42,3.37l106,61.22a12.07,12.07,0,0,0,6.3,1.37h0a11.65,11.65,0,0,0,1.45-.12h0c.46-.07.91-.15,1.34-.26L243,159c.32-.09.64-.18,1-.3a8.66,8.66,0,0,0,1.23-.58l67.45-38.94c1.61-.93,2.42-2.15,2.42-3.37v-9.22A3.49,3.49,0,0,0,313.64,103.92Z"/><rect class="cls-8" width="440" height="200"/></g></g></svg>