<svg xmlns="http://www.w3.org/2000/svg" viewBox="0 0 1716 3075.73"><defs><style>.cls-1{fill:#627386;stroke:#b8bfca;}.cls-1,.cls-10,.cls-2,.cls-4,.cls-9{stroke-linecap:round;stroke-linejoin:round;stroke-width:2px;}.cls-2{fill:#f2f4f6;}.cls-2,.cls-4{stroke:#627386;}.cls-3{fill:#d5dae0;}.cls-10,.cls-4,.cls-5,.cls-9{fill:none;}.cls-6{fill:#ffde85;}.cls-7{fill:#ffebb6;}.cls-8{fill:#fff2ce;}.cls-9{stroke:#fff;}.cls-10{stroke:#cc7c09;}</style></defs><title>tree(1x1)</title><g id="Layer_2" data-name="Layer 2"><g id="Illustrations"><line class="cls-1" x1="339.34" y1="212.09" x2="339.34" y2="1"/><line class="cls-1" x1="388.34" y1="153.65" x2="339.34" y2="181.94"/><path class="cls-2" d="M68.06,577.74v22.07c0,1.62-2.26,2.93-5.06,2.93s-5.06-1.31-5.06-2.93V577.74Z"/><path class="cls-3" d="M68.06,566.14v22.07c0,1.62-2.26,2.93-5.06,2.93s-5.06-1.31-5.06-2.93V566.14Z"/><path class="cls-4" d="M68.06,577.74v22.07c0,1.62-2.26,2.93-5.06,2.93s-5.06-1.31-5.06-2.93V577.74Z"/><path class="cls-2" d="M44.25,572.09h0l14.22-48.26h0a4.72,4.72,0,0,1,9.06,0h0l14.22,48.26h0A6.55,6.55,0,0,1,82,574c0,6.06-8.52,11-19,11S44,580,44,574A6.55,6.55,0,0,1,44.25,572.09Z"/><path class="cls-3" d="M82,574a6.55,6.55,0,0,0-.28-1.86h0L67.53,523.83h0l0-.06c-.77-2.48-4.51-1.8-4.51.8v60.36C73.51,584.93,82,580,82,574Z"/><path class="cls-4" d="M44.25,572.09h0l14.22-48.26h0a4.72,4.72,0,0,1,9.06,0h0l14.22,48.26h0A6.55,6.55,0,0,1,82,574c0,6.06-8.52,11-19,11S44,580,44,574A6.55,6.55,0,0,1,44.25,572.09Z"/><rect class="cls-5" y="498.59" width="126" height="126"/><path class="cls-6" d="M1685.27,3059c.25,0,.45.13.47.28l1.28,7.32c0,.11,0,.21-.2.27a.78.78,0,0,1-.62,0l-4.16-2.4a.27.27,0,0,1-.14-.18l-.8-5.07c0-.19.24-.35.56-.33Z"/><path class="cls-7" d="M1706.06,3045.59l-.43-.27c-12.5-7.21-32.76-7.21-45.26,0l-.43.27H1651v10.66c0,4.73,3.12,9.46,9.37,13.07,12.5,7.21,32.76,7.21,45.26,0,6.25-3.61,9.37-8.34,9.37-13.07v-10.66Z"/><path class="cls-6" d="M1705.63,3069.32c6.25-3.61,9.37-8.34,9.37-13.07v-10.66h-8.94l-.43-.27c-6.25-3.6-14.44-5.41-22.63-5.41v34.82C1691.19,3074.73,1699.38,3072.93,1705.63,3069.32Z"/><ellipse class="cls-8" cx="1683" cy="3045.59" rx="32" ry="18.48"/><ellipse class="cls-9" cx="1683" cy="3045.59" rx="32" ry="18.48"/><ellipse class="cls-5" cx="1683" cy="3056.25" rx="32" ry="18.48"/><path class="cls-10" d="M1715,3056.25v-10.66h0c0-4.73-3.12-9.46-9.37-13.07-12.5-7.21-32.76-7.21-45.26,0-6.25,3.61-9.37,8.34-9.37,13.07h0v10.66c0,4.73,3.12,9.46,9.37,13.07s14.44,5.41,22.63,5.41c1,0,2,0,3.07-.08a54.69,54.69,0,0,0,6-.68c1-.17,2-.37,2.93-.59a39.23,39.23,0,0,0,10.59-4.06,19.94,19.94,0,0,0,8-7.81A11.42,11.42,0,0,0,1715,3056.25Z"/></g></g></svg>