<svg xmlns="http://www.w3.org/2000/svg" viewBox="0 0 126 126"><defs><style>.cls-1{fill:#f2f4f6;}.cls-1,.cls-2{stroke:#b8bfca;}.cls-1,.cls-2,.cls-3,.cls-4{stroke-linecap:round;stroke-linejoin:round;stroke-width:2px;}.cls-2{fill:#d5dae0;}.cls-3,.cls-4,.cls-5{fill:none;}.cls-3,.cls-4{stroke:#627386;}.cls-4{stroke-dasharray:0 6.57;}</style></defs><title>triangle_connect_side(1x1)</title><g id="Layer_2" data-name="Layer 2"><g id="Illustrations"><polygon class="cls-1" points="59.23 63.2 77.23 25.59 95.23 83.98 59.23 63.2"/><polygon class="cls-2" points="104.22 78.79 95.23 83.98 86.23 54.79 77.23 25.59 86.22 20.39 104.22 78.79"/><polygon class="cls-3" points="86.22 20.39 77.23 25.59 59.23 63.2 95.23 83.98 104.22 78.79 86.22 20.39"/><polygon class="cls-1" points="21.77 84.82 39.77 47.21 57.77 105.61 21.77 84.82"/><polygon class="cls-2" points="66.77 100.41 57.77 105.61 48.77 76.41 39.77 47.21 48.77 42.02 66.77 100.41"/><polygon class="cls-3" points="48.77 42.02 39.77 47.21 21.77 84.82 57.77 105.61 66.77 100.41 48.77 42.02"/><line class="cls-3" x1="77.23" y1="25.59" x2="77.23" y2="25.59"/><line class="cls-4" x1="71.54" y1="28.88" x2="51.62" y2="40.37"/><line class="cls-3" x1="48.77" y1="42.02" x2="48.77" y2="42.02"/><line class="cls-3" x1="95.23" y1="83.98" x2="95.23" y2="83.98"/><line class="cls-4" x1="89.54" y1="87.27" x2="69.62" y2="98.77"/><line class="cls-3" x1="66.77" y1="100.41" x2="66.77" y2="100.41"/><rect class="cls-5" width="126" height="126"/></g></g></svg>