<svg xmlns="http://www.w3.org/2000/svg" viewBox="0 0 126 126"><defs><style>.cls-1{fill:#fff;}.cls-1,.cls-2,.cls-3{stroke:#b8bfca;}.cls-1,.cls-2,.cls-3,.cls-4,.cls-5{stroke-linecap:round;stroke-linejoin:round;stroke-width:2px;}.cls-2{fill:#d5dae0;}.cls-3{fill:#f2f4f6;}.cls-4,.cls-5,.cls-6{fill:none;}.cls-4,.cls-5{stroke:#627386;}.cls-5{stroke-dasharray:0 6.26;}</style></defs><title>triangle_connect_top(1x1)</title><g id="Layer_2" data-name="Layer 2"><g id="Illustrations"><polygon class="cls-1" points="99 60.65 63 96.65 27 60.65 99 60.65"/><polygon class="cls-2" points="99 60.65 99 72.65 63 108.65 63 96.65 99 60.65"/><polygon class="cls-3" points="27 60.65 27 72.65 63 108.65 63 96.65 27 60.65"/><polygon class="cls-4" points="27 60.65 27 72.65 63 108.65 99 72.65 99 60.65 27 60.65"/><line class="cls-4" x1="99" y1="29.35" x2="99" y2="29.35"/><line class="cls-5" x1="99" y1="35.61" x2="99" y2="57.52"/><line class="cls-4" x1="99" y1="60.65" x2="99" y2="60.65"/><polygon class="cls-1" points="99 17.35 63 53.35 27 17.35 99 17.35"/><polygon class="cls-2" points="99 17.35 99 29.35 63 65.35 63 53.35 99 17.35"/><polygon class="cls-3" points="27 17.35 27 29.35 63 65.35 63 53.35 27 17.35"/><polygon class="cls-4" points="27 17.35 27 29.35 63 65.35 99 29.35 99 17.35 27 17.35"/><line class="cls-4" x1="27" y1="29.35" x2="27" y2="29.35"/><line class="cls-5" x1="27" y1="35.61" x2="27" y2="57.52"/><line class="cls-4" x1="27" y1="60.65" x2="27" y2="60.65"/><rect class="cls-6" width="126" height="126"/></g></g></svg>