<svg xmlns="http://www.w3.org/2000/svg" viewBox="0 0 126 126"><defs><style>.cls-1,.cls-7{fill:#b8bfca;}.cls-1,.cls-5,.cls-6{stroke:#627386;}.cls-1,.cls-2,.cls-3,.cls-4,.cls-5,.cls-6,.cls-7{stroke-linecap:round;stroke-linejoin:round;stroke-width:2px;}.cls-2,.cls-6{fill:#d5dae0;}.cls-2,.cls-3,.cls-4,.cls-7{stroke:#b8bfca;}.cls-3{fill:#f2f4f6;}.cls-4{fill:#fff;}.cls-5,.cls-8{fill:none;}</style></defs><title>truck(1x1)</title><g id="Layer_2" data-name="Layer 2"><g id="Illustrations"><path class="cls-1" d="M74.85,103.82,71.34,96.4l4.32-2.5h0a3.5,3.5,0,0,1,3.59.28c3,1.76,5.5,6.46,5.5,10.5,0,2.22-.74,3.77-1.9,4.44h0l-4.32,2.49-3.68-7.79Z"/><path class="cls-1" d="M20.59,72.42,17.09,65l4.32-2.49h0a3.5,3.5,0,0,1,3.59.28c3,1.75,5.5,6.45,5.5,10.5,0,2.21-.74,3.77-1.9,4.44h0l-4.32,2.5L20.6,72.44Z"/><path class="cls-1" d="M53.88,91.64l-3.5-7.43,4.32-2.49h0a3.5,3.5,0,0,1,3.59.28c3,1.75,5.5,6.45,5.5,10.5,0,2.21-.74,3.77-1.9,4.44h0l-4.32,2.5-3.68-7.79Z"/><polygon class="cls-2" points="92.75 80.66 66.89 95.59 66.89 59.86 92.75 44.93 92.75 80.66"/><polygon class="cls-3" points="66.89 95.59 13.32 64.67 13.32 28.93 66.89 59.86 66.89 95.59"/><line class="cls-4" x1="47.03" y1="66.07" x2="33.18" y2="58.07"/><polygon class="cls-4" points="92.75 44.93 66.89 59.86 13.32 28.93 39.18 14 92.75 44.93"/><polygon class="cls-5" points="39.18 14 13.32 28.93 13.32 64.67 66.89 95.59 92.75 80.66 92.75 44.93 39.18 14"/><ellipse class="cls-6" cx="53.97" cy="91.83" rx="4.77" ry="8.44" transform="translate(-31.65 28.47) rotate(-23.05)"/><polygon class="cls-7" points="92.75 84.9 66.89 99.83 66.89 70.21 92.75 55.28 92.75 84.9"/><polygon class="cls-2" points="112.68 96.4 86.82 111.33 86.82 99.5 112.68 84.57 112.68 96.4"/><path class="cls-4" d="M106,62.91,92.75,55.28,66.89,70.21s11.7,7.63,13.21,7.63S106,62.91,106,62.91Z"/><path class="cls-3" d="M106,62.91,80.1,77.84,85,85.4a11.15,11.15,0,0,1,1.8,6.07v8l25.86-14.93v-8a11.15,11.15,0,0,0-1.8-6.07Z"/><path class="cls-3" d="M86.82,111.33V91.47A11.15,11.15,0,0,0,85,85.4L80.1,77.84,66.89,70.21V99.83Z"/><path class="cls-5" d="M110.88,70.47,106,62.91h0L92.75,55.28,66.89,70.21V99.83l19.93,11.5L112.68,96.4V76.54A11.15,11.15,0,0,0,110.88,70.47Z"/><ellipse class="cls-6" cx="20.68" cy="72.61" rx="4.77" ry="8.44" transform="translate(-26.78 13.9) rotate(-23.05)"/><ellipse class="cls-6" cx="74.93" cy="104.01" rx="4.77" ry="8.44" transform="translate(-34.74 37.65) rotate(-23.05)"/><rect class="cls-8" width="126" height="126"/></g></g></svg>