<svg xmlns="http://www.w3.org/2000/svg" viewBox="0 0 126 126"><defs><style>.cls-1{fill:#d5dae0;}.cls-10,.cls-2,.cls-5,.cls-7,.cls-9{fill:none;}.cls-2{stroke:#b8bfca;}.cls-2,.cls-5,.cls-7,.cls-9{stroke-linecap:round;stroke-linejoin:round;stroke-width:2px;}.cls-3{fill:#fff;}.cls-4{fill:#f2f4f6;}.cls-5{stroke:#627386;}.cls-6{fill:#fccccc;}.cls-7{stroke:#faabab;}.cls-8{fill:#feeeee;}.cls-9{stroke:#c44556;}</style></defs><title>vm_error(1x1)</title><g id="Layer_2" data-name="Layer 2"><g id="Illustrations"><polygon class="cls-1" points="120.55 91.77 63 125 63 105.82 120.55 72.59 120.55 91.77"/><polygon class="cls-2" points="120.55 91.77 63 125 63 105.82 120.55 72.59 120.55 91.77"/><ellipse class="cls-3" cx="70.21" cy="111.25" rx="1.9" ry="1.07" transform="translate(-59.65 132.29) rotate(-66.95)"/><line class="cls-2" x1="98.97" y1="94.64" x2="84.58" y2="102.94"/><polygon class="cls-4" points="5.45 91.77 63 125 63 105.82 5.45 72.59 5.45 91.77"/><polygon class="cls-3" points="120.55 72.59 63 39.37 5.45 72.59 63 105.82 120.55 72.59"/><polygon class="cls-2" points="120.55 72.59 63 39.37 5.45 72.59 63 105.82 120.55 72.59"/><polygon class="cls-2" points="5.45 91.77 63 125 63 105.82 5.45 72.59 5.45 91.77"/><polygon class="cls-5" points="120.55 72.59 63 39.37 5.45 72.59 5.45 91.77 63 125 63 125 63 125 63 125 63 125 120.55 91.77 120.55 72.59"/><polygon class="cls-1" points="120.55 72.59 63 105.82 63 86.63 120.55 53.41 120.55 72.59"/><polygon class="cls-2" points="120.55 72.59 63 105.82 63 86.63 120.55 53.41 120.55 72.59"/><ellipse class="cls-3" cx="70.21" cy="92.06" rx="1.9" ry="1.07" transform="translate(-42 120.62) rotate(-66.95)"/><line class="cls-2" x1="98.97" y1="75.46" x2="84.58" y2="83.76"/><polygon class="cls-4" points="5.45 72.59 63 105.82 63 86.63 5.45 53.41 5.45 72.59"/><polygon class="cls-3" points="120.55 53.41 63 20.18 5.45 53.41 63 86.63 120.55 53.41"/><polygon class="cls-2" points="120.55 53.41 63 20.18 5.45 53.41 63 86.63 120.55 53.41"/><polygon class="cls-2" points="5.45 72.59 63 105.82 63 86.63 5.45 53.41 5.45 72.59"/><polygon class="cls-5" points="120.55 53.41 63 20.18 5.45 53.41 5.45 72.59 63 105.82 63 105.82 63 105.82 63 105.82 63 105.82 120.55 72.59 120.55 53.41"/><polygon class="cls-6" points="120.55 53.41 63 86.63 63 67.45 120.55 34.23 120.55 53.41"/><polygon class="cls-7" points="120.55 53.41 63 86.63 63 67.45 120.55 34.23 120.55 53.41"/><ellipse class="cls-3" cx="70.21" cy="72.88" rx="1.9" ry="1.07" transform="translate(-24.35 108.95) rotate(-66.95)"/><line class="cls-7" x1="98.97" y1="56.27" x2="84.58" y2="64.58"/><polygon class="cls-8" points="5.45 53.41 63 86.63 63 67.45 5.45 34.23 5.45 53.41"/><polygon class="cls-3" points="120.55 34.23 63 1 5.45 34.23 63 67.45 120.55 34.23"/><polygon class="cls-7" points="120.55 34.23 63 1 5.45 34.23 63 67.45 120.55 34.23"/><polygon class="cls-7" points="5.45 53.41 63 86.63 63 67.45 5.45 34.23 5.45 53.41"/><polygon class="cls-9" points="120.55 34.23 63 1 5.45 34.23 5.45 53.41 63 86.63 63 86.63 63 86.63 63 86.63 63 86.63 120.55 53.41 120.55 34.23"/><path class="cls-6" d="M45.24,33.28a1,1,0,0,0-.39.11l-5.62,3.25c-.18.1-.26.25-.17.39a.75.75,0,0,0,.65.24l18.91-.94c.42,0,.77.19.74.43L57.81,47.7c0,.14.07.27.26.35a1.05,1.05,0,0,0,.82,0l5.41-3.13a.33.33,0,0,0,.18-.23l1.78-11.87v-.11c0-.18-.23-.34-.55-.33h-.21Z"/><path class="cls-6" d="M69.24,32.51c0-.19.29-.35.62-.36l16.4-.88a.93.93,0,0,1,.6.16c.18.14.15.34-.07.47L81.38,35a.94.94,0,0,1-.39.11l-11.42.67c-.42,0-.77-.18-.73-.42Z"/><path class="cls-6" d="M66,30.65c.33,0,.6-.17.62-.36l1.67-9.54c0-.13-.07-.27-.26-.35a1.05,1.05,0,0,0-.82,0l-5.41,3.13a.33.33,0,0,0-.18.23l-1,6.61c0,.24.32.44.73.42Z"/><rect class="cls-10" width="126" height="126"/></g></g></svg>