<svg xmlns="http://www.w3.org/2000/svg" viewBox="0 0 440 200"><defs><style>.cls-1,.cls-9{fill:#d5dae0;}.cls-1,.cls-3,.cls-7{stroke:#b8bfca;}.cls-1,.cls-3,.cls-4,.cls-5,.cls-7,.cls-8{stroke-linecap:round;stroke-linejoin:round;}.cls-1,.cls-3,.cls-4,.cls-5,.cls-6,.cls-7,.cls-8{stroke-width:2px;}.cls-2,.cls-5{fill:#f2f4f6;}.cls-3,.cls-8{fill:#fff;}.cls-10,.cls-4,.cls-6,.cls-7{fill:none;}.cls-4,.cls-5,.cls-8{stroke:#627386;}.cls-6{stroke:#d5dae0;stroke-miterlimit:10;}</style></defs><title>water_fountain(1x1)</title><g id="Layer_2" data-name="Layer 2"><g id="Illustrations"><path class="cls-1" d="M273.38,93.08c-2.63-4.77-7.21-9.26-13.76-13-21.88-12.63-57.36-12.63-79.24,0-6.55,3.78-11.13,8.27-13.76,13H164v13.84c0,8.28,5.47,16.56,16.41,22.87,21.88,12.64,57.36,12.64,79.24,0C270.56,123.48,276,115.2,276,106.92V93.08Z"/><path class="cls-2" d="M220,70.57c-14.34,0-28.68,3.15-39.62,9.47-6.55,3.78-11.13,8.27-13.76,13H164v13.84c0,8.28,5.47,16.56,16.41,22.87s25.28,9.48,39.62,9.48Z"/><ellipse class="cls-3" cx="220" cy="93.08" rx="56.03" ry="32.35"/><path class="cls-4" d="M259.62,70.21c-21.88-12.64-57.36-12.64-79.24,0C169.44,76.52,164,84.8,164,93.08v13.84c0,8.28,5.47,16.56,16.41,22.87,21.88,12.64,57.36,12.64,79.24,0C270.56,123.48,276,115.2,276,106.92V93.09C276,84.81,270.57,76.53,259.62,70.21Z"/><path class="cls-5" d="M220,118.51c-12.79,0-24.75-2.84-33.7-8-8.33-4.82-12.92-11-12.92-17.43S178,80.47,186.3,75.66c8.95-5.16,20.91-8,33.7-8s24.75,2.85,33.7,8c8.33,4.81,12.92,11,12.92,17.42S262,105.69,253.7,110.51C244.75,115.67,232.79,118.51,220,118.51Z"/><path class="cls-6" d="M253.7,81.56c-8.95-5.16-20.91-8-33.7-8s-24.75,2.85-33.7,8c-7.05,4.07-11.4,9.13-12.58,14.47,1.18,5.35,5.53,10.4,12.58,14.48,8.95,5.16,20.91,8,33.7,8s24.75-2.84,33.7-8c7.05-4.08,11.4-9.13,12.59-14.48C265.1,90.69,260.75,85.63,253.7,81.56Z"/><path class="cls-4" d="M220,118.51c-12.79,0-24.75-2.84-33.7-8-8.33-4.82-12.92-11-12.92-17.43S178,80.47,186.3,75.66c8.95-5.16,20.91-8,33.7-8s24.75,2.85,33.7,8c8.33,4.81,12.92,11,12.92,17.42S262,105.69,253.7,110.51C244.75,115.67,232.79,118.51,220,118.51Z"/><path class="cls-1" d="M206,89.15V99c0,2.08,1.37,4.15,4.11,5.73,5.48,3.16,14.36,3.16,19.84,0,2.74-1.58,4.11-3.65,4.11-5.73V89.15Z"/><path class="cls-2" d="M206,93.08c0,2.08,1.37,4.15,4.11,5.73,5.48,3.16,14.36,3.16,19.84,0,2.74-1.58,4.11-3.65,4.11-5.73"/><path class="cls-7" d="M206,93.08c0,2.08,1.37,4.15,4.11,5.73,5.48,3.16,14.36,3.16,19.84,0,2.74-1.58,4.11-3.65,4.11-5.73"/><polyline class="cls-5" points="234.03 93.08 234.03 83.25 205.97 83.25 205.97 93.08"/><ellipse class="cls-8" cx="220" cy="83.25" rx="14.03" ry="8.1"/><ellipse class="cls-9" cx="220" cy="83.25" rx="5.09" ry="2.94"/><rect class="cls-10" width="440" height="200"/></g></g></svg>