<svg xmlns="http://www.w3.org/2000/svg" viewBox="0 0 440 200"><defs><style>.cls-1{fill:#f2f4f6;}.cls-2{fill:#d3edfd;}.cls-3{fill:#e9f6fe;}.cls-4{fill:#fff;}.cls-10,.cls-5,.cls-7,.cls-8,.cls-9{fill:none;}.cls-5{stroke:#b8bfca;}.cls-5,.cls-7,.cls-8,.cls-9{stroke-linecap:round;stroke-linejoin:round;stroke-width:2px;}.cls-6{fill:#bde4fd;}.cls-7{stroke:#91d2fb;}.cls-8{stroke:#627386;}.cls-9{stroke:#d3edfd;}</style></defs><title>widget_cliick(2x1)</title><g id="Layer_2" data-name="Layer 2"><g id="Illustrations"><path class="cls-1" d="M293,6.81,283.5,1.35h0a3.34,3.34,0,0,0-3.44.27L150.48,76.44c-2.9,1.68-5.26,6.18-5.26,10V188.93c0,2.12.71,3.61,1.82,4.25h0l9.46,5.46L165.93,184,280.06,118.1c2.91-1.68,5.26-6.18,5.26-10.06V16.56Z"/><path class="cls-2" d="M293,6.81,283.5,1.35h0a3.34,3.34,0,0,0-3.44.27L150.48,76.44c-2.9,1.68-5.26,6.18-5.26,10V97.67l9.46,5.46L287.51,13.77Z"/><path class="cls-3" d="M167.81,94.3l119.7-80.53,5.45-7L283.5,1.35h0a3.34,3.34,0,0,0-3.44.27L150.48,76.44a11.22,11.22,0,0,0-4.27,5.39Z"/><path class="cls-4" d="M289.52,123.56,159.94,198.37c-2.91,1.68-5.26-.1-5.26-4V92c0-3.87,2.35-8.37,5.26-10L289.52,7.09c2.9-1.68,5.26.1,5.26,4V113.5C294.78,117.38,292.42,121.88,289.52,123.56Z"/><path class="cls-5" d="M289.52,123.56,159.94,198.37c-2.91,1.68-5.26-.1-5.26-4V92c0-3.87,2.35-8.37,5.26-10L289.52,7.09c2.9-1.68,5.26.1,5.26,4V113.5C294.78,117.38,292.42,121.88,289.52,123.56Z"/><path class="cls-6" d="M294.78,22.24V11.06c0-3.87-2.36-5.65-5.26-4L159.94,81.9c-2.91,1.68-5.26,6.18-5.26,10v11.18Z"/><path class="cls-7" d="M294.78,11.06c0-3.87-2.36-5.65-5.26-4L159.94,81.9c-2.91,1.68-5.26,6.18-5.26,10v11.18"/><path class="cls-8" d="M293,6.81h0L283.5,1.35h0a3.34,3.34,0,0,0-3.44.27L150.48,76.44c-2.9,1.68-5.26,6.18-5.26,10V188.93c0,2.12.71,3.61,1.82,4.25h0l9.46,5.46h0a3.37,3.37,0,0,0,3.44-.27l129.58-74.81c2.9-1.68,5.26-6.18,5.26-10.06V11.06C294.78,8.94,294.07,7.46,293,6.81Z"/><ellipse class="cls-9" cx="224.73" cy="111.52" rx="10.45" ry="5.91" transform="translate(34.12 274.64) rotate(-66.95)"/><ellipse class="cls-9" cx="224.73" cy="111.52" rx="23.16" ry="13.1" transform="translate(34.12 274.64) rotate(-66.95)"/><polygon class="cls-4" points="239.61 108.25 224.73 111.52 228.71 129.06 231.9 122.98 239.18 128.49 243.71 119.84 236.42 114.33 239.61 108.25"/><polygon class="cls-7" points="239.61 108.25 224.73 111.52 228.71 129.06 231.9 122.98 239.18 128.49 243.71 119.84 236.42 114.33 239.61 108.25"/><rect class="cls-10" width="440" height="200"/></g></g></svg>