<svg xmlns="http://www.w3.org/2000/svg" width="70.71" height="56.08" viewBox="0 0 70.71 56.08"><defs><style>.cls-1,.cls-4{fill:#bde4fd;}.cls-1,.cls-3,.cls-5{stroke:#1b6dc6;stroke-linecap:round;stroke-linejoin:round;stroke-width:2px;}.cls-2{fill:#d3edfd;}.cls-3{fill:#e9f6fe;}.cls-5{fill:none;}</style></defs><title>cog_01</title><g id="Layer_2" data-name="Layer 2"><g id="Layer_2-2" data-name="Layer 2"><path class="cls-1" d="M43.49,14.9v-.18c0-.92-1.29-1.67-2.89-1.67H30.11c-1.6,0-2.89.75-2.89,1.67v.18H1V41.18H1a1.19,1.19,0,0,0,.39.83l5.24,5.25a4.25,4.25,0,0,0,4,.61l6.85-2.28a34.88,34.88,0,0,0,9.79,3.26v4.56c0,.92,1.29,1.67,2.89,1.67H40.6c1.6,0,2.89-.75,2.89-1.67V48.85a34.88,34.88,0,0,0,9.79-3.26l6.85,2.28a4.25,4.25,0,0,0,3.95-.61L69.32,42a1.19,1.19,0,0,0,.39-.83h0V14.9Z"/><path class="cls-2" d="M53.28,45.59h0l6.85,2.28a4.73,4.73,0,0,0,2,.18V24.16h-8.9Z"/><path class="cls-2" d="M1.39,42l5.24,5.25a3.76,3.76,0,0,0,2.66.83V14.9H1V41.18H1A1.19,1.19,0,0,0,1.39,42Z"/><path class="cls-2" d="M17.43,45.59a34.88,34.88,0,0,0,9.79,3.26V21.34H17.43V45.59Z"/><ellipse class="cls-2" cx="35.35" cy="21.9" rx="12.05" ry="6.96"/><line class="cls-3" x1="1" y1="26.11" x2="1" y2="38.16"/><line class="cls-3" x1="17.43" y1="30.52" x2="17.43" y2="45.59"/><line class="cls-3" x1="27.22" y1="38.34" x2="27.22" y2="53.41"/><line class="cls-3" x1="43.49" y1="38.34" x2="43.49" y2="53.41"/><line class="cls-3" x1="53.28" y1="30.52" x2="53.28" y2="45.59"/><path class="cls-4" d="M23.3,21.9c0,3.84,5.4,7,12.05,7V14.94C28.7,14.94,23.3,18.05,23.3,21.9Z"/><ellipse class="cls-5" cx="35.35" cy="21.9" rx="12.05" ry="6.96"/><path class="cls-5" d="M1,14.9V41.18H1a1.19,1.19,0,0,0,.39.83l5.24,5.25a4.25,4.25,0,0,0,4,.61l6.85-2.28a34.88,34.88,0,0,0,9.79,3.26v4.56c0,.92,1.29,1.67,2.89,1.67H40.6c1.6,0,2.89-.75,2.89-1.67V48.85a34.88,34.88,0,0,0,9.79-3.26l6.85,2.28a4.25,4.25,0,0,0,3.95-.61L69.32,42a1.19,1.19,0,0,0,.39-.83h0V14.9"/><path class="cls-3" d="M68.26,27.44l-6.84-2.28a9,9,0,0,0,0-6.53l6.84-2.28c1.39-.46,1.86-1.48,1.06-2.28L64.08,8.83a4.2,4.2,0,0,0-3.95-.61L53.28,10.5a34.57,34.57,0,0,0-9.79-3.27V2.67C43.49,1.75,42.2,1,40.6,1H30.11c-1.6,0-2.89.75-2.89,1.67V7.23a34.57,34.57,0,0,0-9.79,3.27L10.58,8.22a4.2,4.2,0,0,0-3.95.61L1.39,14.07c-.8.8-.33,1.82,1.06,2.28l6.84,2.28a9,9,0,0,0,0,6.53L2.45,27.44c-1.39.46-1.86,1.48-1.06,2.28L6.63,35a4.22,4.22,0,0,0,4,.61l6.85-2.28a34.56,34.56,0,0,0,9.79,3.26v4.56c0,.93,1.29,1.67,2.89,1.67H40.6c1.6,0,2.89-.74,2.89-1.67V36.56a34.56,34.56,0,0,0,9.79-3.26l6.85,2.28A4.22,4.22,0,0,0,64.08,35l5.24-5.25C70.12,28.92,69.65,27.9,68.26,27.44ZM35.35,28.86c-6.65,0-12-3.12-12-7s5.4-7,12.05-7,12.06,3.11,12.06,7S42,28.86,35.35,28.86Z"/></g></g></svg>