<svg xmlns="http://www.w3.org/2000/svg" width="145.76" height="128.21" viewBox="0 0 145.76 128.21"><defs><style>.cls-1{fill:#fff;}.cls-1,.cls-3,.cls-4,.cls-5{stroke:#627386;}.cls-1,.cls-3,.cls-4,.cls-5,.cls-6{stroke-linecap:round;stroke-linejoin:round;stroke-width:2px;}.cls-2,.cls-4{fill:#f2f4f6;}.cls-3{fill:none;}.cls-5,.cls-7{fill:#d5dae0;}.cls-6{fill:#e9f6fe;stroke:#1b6dc6;}</style></defs><title>hammer_01</title><g id="Layer_2" data-name="Layer 2"><g id="Layer_1-2" data-name="Layer 1"><path class="cls-1" d="M70.33,44.36,9.6,49.66C4.29,50.12.47,56,1.06,62.83s5.39,12,10.7,11.49L72.48,69Z"/><path class="cls-2" d="M1.06,62.83c.6,6.81,5.39,12,10.7,11.49L72.48,69l-.76-8.77-6.08-3.06Z"/><path class="cls-3" d="M70.33,44.36,9.6,49.66C4.29,50.12.47,56,1.06,62.83s5.39,12,10.7,11.49L72.48,69Z"/><polygon class="cls-4" points="123.81 28.23 108.75 29.87 94.43 37.97 109.49 36.34 123.81 28.23"/><ellipse class="cls-5" cx="71.41" cy="56.69" rx="9.66" ry="12.38" transform="translate(-4.67 6.44) rotate(-5)"/><path class="cls-1" d="M106.07,46.41,70.63,49.5c-3.11.28-5.34,3.72-5,7.69s3.14,7,6.25,6.71l35.44-3.09Z"/><path class="cls-2" d="M106.7,53.61,65.64,57.19h0c.35,4,3.14,7,6.25,6.71l35.44-3.09Z"/><path class="cls-3" d="M106.07,46.41,70.63,49.5c-3.11.28-5.34,3.72-5,7.69s3.14,7,6.25,6.71l35.44-3.09Z"/><ellipse class="cls-6" cx="140.06" cy="120.53" rx="4.7" ry="2.71"/><line class="cls-6" x1="140.06" y1="123.25" x2="140.06" y2="127.21"/><path class="cls-5" d="M140.22,80.13,136,69l-22.73,8.72,4.24,11.1c.57,1.47,6.11.71,12.38-1.7S140.79,81.6,140.22,80.13Z"/><ellipse class="cls-4" cx="124.63" cy="73.39" rx="12.17" ry="2.85" transform="translate(-18.02 49.54) rotate(-21)"/><path class="cls-2" d="M131.34,70.82l-4.23-11.1-13.44,5.15L117.91,76c.33.87,3.61.42,7.32-1S131.68,71.68,131.34,70.82Z"/><path class="cls-7" d="M120.39,62.3,125.23,75c3.71-1.43,6.45-3.29,6.11-4.15l-4.23-11.1Z"/><path class="cls-3" d="M131.34,70.82l-4.23-11.1-13.44,5.15L117.91,76c.33.87,3.61.42,7.32-1S131.68,71.68,131.34,70.82Z"/><ellipse class="cls-1" cx="120.39" cy="62.3" rx="7.19" ry="1.68" transform="translate(-14.33 47.28) rotate(-21)"/><polygon class="cls-5" points="109.49 36.34 94.43 37.97 106.65 69.45 121.71 67.82 109.49 36.34"/><path class="cls-5" d="M123.81,28.24C121.46,22.18,111.92,7.18,104.35,1L99.17,4c7.55,6.17,17,21.11,19.43,27.19l-3.93,2.23v-.07c-2.35-6.05-11.89-21.06-19.46-27.23L90,9.1c7.57,6.18,17.11,21.19,19.46,27.24l12.22,31.48L136,59.72Z"/></g></g></svg>