<svg xmlns="http://www.w3.org/2000/svg" width="37.73" height="88" viewBox="0 0 37.73 88"><defs><style>.cls-1{fill:#bde4fd;}.cls-1,.cls-3,.cls-4,.cls-5{stroke:#1b6dc6;stroke-linecap:round;stroke-linejoin:round;stroke-width:2px;}.cls-2,.cls-5{fill:#e9f6fe;}.cls-3{fill:none;}.cls-4{fill:#d3edfd;}</style></defs><title>key_01</title><g id="Layer_2" data-name="Layer 2"><g id="Layer_1-2" data-name="Layer 1"><path class="cls-1" d="M14.37,10.14V84.42c0,1.43,2,2.58,4.46,2.58s4.47-1.15,4.47-2.58V10.14Z"/><path class="cls-2" d="M14.37,10.14V84.42c0,1.43,1.83,2.58,4.1,2.58V10.14Z"/><path class="cls-3" d="M14.37,10.14V84.42c0,1.43,2,2.58,4.46,2.58s4.47-1.15,4.47-2.58V10.14Z"/><path class="cls-1" d="M36.73,29.59c0-10.37-6.31-22.41-14.09-26.9C19.12.65,15.9.52,13.43,2h0L5.87,6.31,9.3,13.57c.23,9.07,5.14,19.26,11.56,24.5l3.44,7.28L31.86,41h0C34.84,39.26,36.73,35.27,36.73,29.59Z"/><path class="cls-2" d="M22.64,2.69C19.12.65,15.9.52,13.43,2h0L5.87,6.31,9.3,13.57A32.27,32.27,0,0,0,11,22.94l20.09-11.6A25.9,25.9,0,0,0,22.64,2.69Z"/><path class="cls-3" d="M36.73,29.59c0-10.37-6.31-22.41-14.09-26.9C19.12.65,15.9.52,13.43,2h0L5.87,6.31,9.3,13.57c.23,9.07,5.14,19.26,11.56,24.5l3.44,7.28L31.86,41h0C34.84,39.26,36.73,35.27,36.73,29.59Z"/><ellipse class="cls-4" cx="15.08" cy="25.83" rx="12.23" ry="21.62" transform="translate(-8.91 7.97) rotate(-23.05)"/><polyline class="cls-5" points="22.67 69.33 31.11 74.21 27.16 76.49 19.57 72.11"/><polyline class="cls-1" points="19.57 82.35 27.16 86.73 27.16 76.49 19.57 72.11"/><ellipse class="cls-4" cx="15.08" cy="25.83" rx="6.08" ry="10.75" transform="translate(-8.91 7.97) rotate(-23.05)"/><polygon class="cls-1" points="31.11 84.45 27.16 86.73 27.16 76.49 31.11 74.21 31.11 84.45"/></g></g></svg>