<svg xmlns="http://www.w3.org/2000/svg" width="91.3" height="68.35" viewBox="0 0 91.3 68.35"><defs><style>.cls-1{fill:#f2f4f6;}.cls-2,.cls-5{fill:#d5dae0;}.cls-3,.cls-4{fill:none;}.cls-3{stroke:#b8bfca;stroke-miterlimit:10;}.cls-3,.cls-4,.cls-5,.cls-6{stroke-width:2px;}.cls-4,.cls-5,.cls-6{stroke:#627386;stroke-linecap:round;stroke-linejoin:round;}.cls-6{fill:#b8bfca;}</style></defs><title>screw_03</title><g id="Layer_2" data-name="Layer 2"><g id="Layer_3" data-name="Layer 3"><path class="cls-1" d="M10.4,1.38h0a3.65,3.65,0,0,0-3.72.3C3.54,3.49,1,8.35,1,12.54c0,2.28.76,3.89,2,4.58H3L64.8,52.83l7.44-15.75L10.4,1.38"/><path class="cls-2" d="M62.79,51.67l4.34-7.51L2.41,6.79A13.68,13.68,0,0,0,1,12.54c0,2.28.76,3.89,2,4.58H3Z"/><path class="cls-3" d="M22.18,8.18h0a3.64,3.64,0,0,0-3.71.3c-3.14,1.81-5.69,6.67-5.69,10.85,0,2.29.77,3.9,2,4.59"/><path class="cls-3" d="M34,15h0a3.65,3.65,0,0,0-3.72.29c-3.14,1.82-5.68,6.68-5.68,10.86,0,2.29.76,3.9,2,4.59"/><path class="cls-3" d="M45.73,21.77h0a3.63,3.63,0,0,0-3.72.3c-3.14,1.81-5.68,6.67-5.68,10.85,0,2.29.76,3.9,2,4.59"/><path class="cls-3" d="M57.5,28.56h0a3.63,3.63,0,0,0-3.71.29c-3.14,1.82-5.69,6.68-5.69,10.86,0,2.29.77,3.9,2,4.59"/><path class="cls-4" d="M10.4,1.38h0a3.65,3.65,0,0,0-3.72.3C3.54,3.49,1,8.35,1,12.54c0,2.28.76,3.89,2,4.58H3L64.8,52.83l7.44-15.75L10.4,1.38"/><path class="cls-1" d="M81,47l5.4-11.42-10.58-6.1h0c-2-1.14-4.52-1-7.32.58-6.19,3.57-11.21,13.15-11.21,21.4,0,4.52,1.51,7.68,3.88,9v0l10.57,6.1L77.14,55.2A29.77,29.77,0,0,0,81,47Z"/><path class="cls-2" d="M60.06,40.07a27.13,27.13,0,0,0-2.75,11.35c0,4.52,1.51,7.68,3.88,9v0l10.57,6.1L77.14,55.2a29.45,29.45,0,0,0,2.26-4Z"/><path class="cls-4" d="M81,47l5.4-11.42-10.58-6.1h0c-2-1.14-4.52-1-7.32.58-6.19,3.57-11.21,13.15-11.21,21.4,0,4.52,1.51,7.68,3.88,9v0l10.57,6.1L77.14,55.2A29.77,29.77,0,0,0,81,47Z"/><ellipse class="cls-5" cx="79.1" cy="51.06" rx="17.2" ry="9.73" transform="translate(1.14 103.85) rotate(-66.95)"/><line class="cls-6" x1="79.1" y1="47.06" x2="79.1" y2="55.06"/></g></g></svg>