<svg xmlns="http://www.w3.org/2000/svg" width="176.74" height="109.81" viewBox="0 0 176.74 109.81"><defs><style>.cls-1{fill:#f2f4f6;}.cls-2{fill:#d5dae0;}.cls-3{fill:none;}.cls-3,.cls-4{stroke:#627386;stroke-linecap:round;stroke-linejoin:round;stroke-width:2px;}.cls-4{fill:#b8bfca;}</style></defs><title>screwdriver_02</title><g id="Layer_2" data-name="Layer 2"><g id="Layer_3" data-name="Layer 3"><path class="cls-1" d="M93.88,51.13c0,2.66-1.62,5.75-3.62,6.9a2.32,2.32,0,0,1-2.36.19h0L15.46,16.4h0a1.85,1.85,0,0,1-.32-.25h0L1.52,3.78h0A1.59,1.59,0,0,1,2.6,1a1.5,1.5,0,0,1,.47.08h0L19.82,6.22h0a1.76,1.76,0,0,1,.37.17h0L92.63,48.2h0A3.18,3.18,0,0,1,93.88,51.13Z"/><path class="cls-2" d="M90.26,58a2.32,2.32,0,0,1-2.36.19h0L15.46,16.4h0a1.85,1.85,0,0,1-.32-.25h0L1.52,3.78h0a1.58,1.58,0,0,1,0-2.34L93.17,54.36A7.59,7.59,0,0,1,90.26,58Z"/><path class="cls-3" d="M93.88,51.13c0,2.66-1.62,5.75-3.62,6.9a2.32,2.32,0,0,1-2.36.19h0L15.46,16.4h0a1.85,1.85,0,0,1-.32-.25h0L1.52,3.78h0A1.59,1.59,0,0,1,2.6,1a1.5,1.5,0,0,1,.47.08h0L19.82,6.22h0a1.76,1.76,0,0,1,.37.17h0L92.63,48.2h0A3.18,3.18,0,0,1,93.88,51.13Z"/><path class="cls-4" d="M81.63,66.31c0-12,7.3-26,16.31-31.17,4.08-2.36,7.81-2.5,10.67-.85h0L121,41.42l-3.38,7.17c0,.28,0,.55,0,.84,0,11.26-6.41,24.22-14.63,30.09l-3.37,7.14L87.27,79.51v0C83.82,77.49,81.63,72.88,81.63,66.31Z"/><path class="cls-2" d="M97.94,35.14c4.08-2.36,7.81-2.5,10.67-.85h0L121,41.42l-3.38,7.17c0,.28,0,.55,0,.84a39.83,39.83,0,0,1-4.21,17l-28-16.2C88.38,43.71,92.89,38.05,97.94,35.14Z"/><path class="cls-3" d="M81.63,66.31c0-12,7.3-26,16.31-31.17,4.08-2.36,7.81-2.5,10.67-.85h0L121,41.42l-3.38,7.17c0,.28,0,.55,0,.84,0,11.26-6.41,24.22-14.63,30.09l-3.37,7.14L87.27,79.51v0C83.82,77.49,81.63,72.88,81.63,66.31Z"/><ellipse class="cls-4" cx="110.33" cy="64.04" rx="25.05" ry="14.17" transform="translate(8.2 140.48) rotate(-66.95)"/><path class="cls-4" d="M167.27,77.39h0L118.06,49.07h0c-1.92-1.11-4.43-1-7.18.56-6.06,3.51-11,12.9-11,21,0,4.86,1.78,8.12,4.52,9.21l46.06,26.7v0a16.81,16.81,0,1,0,16.79-29.13Z"/><path class="cls-4" d="M167.27,77.39h0L118.06,49.07h0c-1.92-1.11-4.43-1-7.18.56-6.06,3.51-11,12.9-11,21,0,4.86,1.78,8.12,4.52,9.21l46.06,26.7v0a16.81,16.81,0,1,0,16.79-29.13Z"/><path class="cls-2" d="M167.27,79.14h0L114,48.45a9.79,9.79,0,0,0-3.17,1.19c-3.68,2.13-6.93,6.43-8.92,11.28l56.87,32.89h0A8.36,8.36,0,0,0,163.07,95a8.46,8.46,0,0,0,4.2-15.81Z"/><path class="cls-3" d="M167.27,77.39h0L118.06,49.07h0c-1.92-1.11-4.43-1-7.18.56-6.06,3.51-11,12.9-11,21,0,4.86,1.78,8.12,4.52,9.21l46.06,26.7v0a16.81,16.81,0,1,0,16.79-29.13Z"/></g></g></svg>