<svg xmlns="http://www.w3.org/2000/svg" width="126.04" height="81.38" viewBox="0 0 126.04 81.38"><defs><style>.cls-1{fill:#d5dae0;}.cls-1,.cls-3,.cls-4{stroke:#627386;}.cls-1,.cls-3,.cls-4,.cls-5{stroke-linecap:round;stroke-linejoin:round;stroke-width:2px;}.cls-2,.cls-4{fill:#f2f4f6;}.cls-3,.cls-5{fill:none;}.cls-5{stroke:#b8bfca;}</style></defs><title>wrench_01</title><g id="Layer_2" data-name="Layer 2"><g id="Layer_3" data-name="Layer 3"><polyline class="cls-1" points="85.25 12.48 85.25 20.27 93.43 20.27 93.43 11.56 85.25 12.48"/><path class="cls-1" d="M105.15,20.72l-3.21-1.86V17.15H98.18V9.52a24.89,24.89,0,0,0-7.11,2.63c-5.41,3.13-7,7.61-4.92,11.55L56.35,40.91,1,67.27v7.79c0,1.36.9,2.72,2.69,3.76a14.43,14.43,0,0,0,13,0l.05,0,82.45-47.6c6.84,1.22,14.59.28,20-2.85,3.88-2.24,5.81-5.18,5.81-8.11h0V12.49Z"/><path class="cls-2" d="M11.06,63.11,1,67.27v7.79c0,1.36.9,2.72,2.69,3.76a13.77,13.77,0,0,0,7.37,1.53Z"/><path class="cls-2" d="M110.92,18.33l-5.77,2.39-3.21-1.86V17.15H99.21v14.1a34.11,34.11,0,0,0,11.71,0Z"/><path class="cls-3" d="M105.15,20.72l-3.21-1.86V17.15H98.18V9.52a24.89,24.89,0,0,0-7.11,2.63c-5.41,3.13-7,7.61-4.92,11.55L56.35,40.91,1,67.27v7.79c0,1.36.9,2.72,2.69,3.76a14.43,14.43,0,0,0,13,0l.05,0,82.45-47.6c6.84,1.22,14.59.28,20-2.85,3.88-2.24,5.81-5.18,5.81-8.11h0V12.49Z"/><path class="cls-1" d="M101.94,14.22l8.65-5V1.44H101.2V9c-1,.12-2,.29-3,.5v7.63h3.76Z"/><path class="cls-4" d="M124.28,9.34l-8.64,5h-8l-5.65-3.27V6.43l8.65-5c-6.71-1.1-14.23-.13-19.52,2.92S84,12,86.15,15.91L3.69,63.52C.1,65.59.1,69,3.69,71a14.43,14.43,0,0,0,13,0l.05,0L99.21,23.45c6.84,1.23,14.59.29,20-2.84S126.19,13.22,124.28,9.34Z"/><ellipse class="cls-1" cx="10.2" cy="67.27" rx="3.11" ry="1.8"/><line class="cls-5" x1="18.38" y1="62.55" x2="89.74" y2="21.35"/></g></g></svg>