<svg xmlns="http://www.w3.org/2000/svg" viewBox="0 0 440 300"><defs><style>.cls-1,.cls-16,.cls-18{fill:#d5dae0;}.cls-1,.cls-19,.cls-4{stroke:#627386;}.cls-1,.cls-11,.cls-12,.cls-13,.cls-14,.cls-15,.cls-17,.cls-18,.cls-19,.cls-3,.cls-4,.cls-8,.cls-9{stroke-linecap:round;stroke-linejoin:round;}.cls-1,.cls-11,.cls-12,.cls-14,.cls-15,.cls-17,.cls-18,.cls-19,.cls-3,.cls-4,.cls-8,.cls-9{stroke-width:2px;}.cls-14,.cls-19,.cls-2{fill:#f2f4f6;}.cls-11,.cls-17,.cls-20,.cls-3,.cls-4,.cls-8{fill:none;}.cls-14,.cls-15,.cls-18,.cls-3{stroke:#b8bfca;}.cls-12,.cls-15,.cls-5{fill:#fff;}.cls-6{fill:#bde4fd;}.cls-7{fill:#e9f6fe;}.cls-8{stroke:#1b6dc6;}.cls-10,.cls-9{fill:#d3edfd;}.cls-11,.cls-12,.cls-13,.cls-9{stroke:#91d2fb;}.cls-13{fill:#91d2fb;}.cls-17{stroke:#d5dae0;}</style></defs><title>beam_step1(2x1)</title><g id="Layer_2" data-name="Layer 2"><g id="Illustrations"><path class="cls-1" d="M61.87,177.82v26.84c0,1-1.41,1.81-3.14,1.81s-3.15-.81-3.15-1.81V177.82Z"/><path class="cls-2" d="M58.73,177.82H55.58v26.84c0,1,1.41,1.81,3.15,1.81Z"/><circle class="cls-2" cx="58.73" cy="173.63" r="5.66"/><path class="cls-3" d="M55.9,168.73a5.76,5.76,0,0,0-1.18.9,6.07,6.07,0,0,0-.9,1.17,5.81,5.81,0,0,0-.56,1.36,5.49,5.49,0,0,0-.19,1.47,5.36,5.36,0,0,0,.19,1.46,5.71,5.71,0,0,0,.56,1.37,6.07,6.07,0,0,0,.9,1.17,5.76,5.76,0,0,0,1.18.9,5.44,5.44,0,0,0,1.36.57,5.74,5.74,0,0,0,2.93,0,5.51,5.51,0,0,0,1.37-.57,5.69,5.69,0,0,0,2.64-3.44,5.78,5.78,0,0,0,.19-1.46,5.92,5.92,0,0,0-.19-1.47,5.84,5.84,0,0,0-.57-1.36,5.71,5.71,0,0,0-2.07-2.07"/><path class="cls-4" d="M61.87,178.35v26.31c0,1-1.41,1.81-3.14,1.81s-3.15-.81-3.15-1.81V178.35"/><path class="cls-4" d="M61.56,178.53a5.69,5.69,0,0,0,2.64-3.44,5.78,5.78,0,0,0,.19-1.46,5.92,5.92,0,0,0-.19-1.47,5.84,5.84,0,0,0-.57-1.36,5.71,5.71,0,0,0-2.07-2.07,5.51,5.51,0,0,0-1.37-.57,5.74,5.74,0,0,0-2.93,0,5.44,5.44,0,0,0-1.36.57,5.76,5.76,0,0,0-1.18.9,6.07,6.07,0,0,0-.9,1.17,5.81,5.81,0,0,0-.56,1.36,5.49,5.49,0,0,0-.19,1.47,5.36,5.36,0,0,0,.19,1.46,5.71,5.71,0,0,0,.56,1.37,6.07,6.07,0,0,0,.9,1.17,5.76,5.76,0,0,0,1.18.9"/><circle class="cls-5" cx="56.4" cy="172.04" r="1.26"/><path class="cls-4" d="M61.87,181.59c10.6,16.27,27.79,26.2,38.39,22.16"/><path class="cls-1" d="M103.46,201.83v26.84c0,1-1.41,1.81-3.15,1.81s-3.14-.81-3.14-1.81V201.83Z"/><path class="cls-2" d="M100.31,201.83H97.17v26.84c0,1,1.41,1.81,3.14,1.81Z"/><circle class="cls-2" cx="100.31" cy="197.64" r="5.66"/><path class="cls-3" d="M97.48,192.74a5.71,5.71,0,0,0-2.07,2.07,5.84,5.84,0,0,0-.57,1.36,5.92,5.92,0,0,0-.19,1.47,5.6,5.6,0,0,0,.76,2.83,5.71,5.71,0,0,0,2.07,2.07,5.51,5.51,0,0,0,1.37.57,5.74,5.74,0,0,0,2.93,0,5.44,5.44,0,0,0,1.36-.57,5.76,5.76,0,0,0,1.18-.9,6.07,6.07,0,0,0,.9-1.17,5.71,5.71,0,0,0,.56-1.37,5.36,5.36,0,0,0,.19-1.46,5.49,5.49,0,0,0-.19-1.47,5.81,5.81,0,0,0-.56-1.36,6.07,6.07,0,0,0-.9-1.17,5.76,5.76,0,0,0-1.18-.9"/><path class="cls-4" d="M103.46,202.36v26.31c0,1-1.41,1.81-3.15,1.81s-3.14-.81-3.14-1.81V202.36"/><path class="cls-4" d="M103.14,202.54a5.76,5.76,0,0,0,1.18-.9,6.07,6.07,0,0,0,.9-1.17,5.71,5.71,0,0,0,.56-1.37,5.36,5.36,0,0,0,.19-1.46,5.49,5.49,0,0,0-.19-1.47,5.81,5.81,0,0,0-.56-1.36,6.07,6.07,0,0,0-.9-1.17,5.76,5.76,0,0,0-1.18-.9,5.44,5.44,0,0,0-1.36-.57,5.74,5.74,0,0,0-2.93,0,5.51,5.51,0,0,0-1.37.57,5.71,5.71,0,0,0-2.07,2.07,5.84,5.84,0,0,0-.57,1.36,5.92,5.92,0,0,0-.19,1.47,5.6,5.6,0,0,0,.76,2.83,5.71,5.71,0,0,0,2.07,2.07"/><circle class="cls-5" cx="97.98" cy="196.05" r="1.26"/><path class="cls-4" d="M378.13,181.59c-10.6,16.27-27.79,26.2-38.39,22.16"/><path class="cls-1" d="M342.83,201.83v26.84c0,1-1.41,1.81-3.14,1.81s-3.15-.81-3.15-1.81V201.83Z"/><path class="cls-2" d="M339.69,201.83h-3.15v26.84c0,1,1.41,1.81,3.15,1.81Z"/><circle class="cls-2" cx="339.69" cy="197.64" r="5.66"/><path class="cls-3" d="M342.52,192.74a5.71,5.71,0,0,1,2.07,2.07,5.84,5.84,0,0,1,.57,1.36,5.92,5.92,0,0,1,.19,1.47,5.6,5.6,0,0,1-.76,2.83,5.71,5.71,0,0,1-2.07,2.07,5.51,5.51,0,0,1-1.37.57,5.84,5.84,0,0,1-1.46.19,5.92,5.92,0,0,1-1.47-.19,5.72,5.72,0,0,1-2.53-1.47,5.44,5.44,0,0,1-1.47-2.54,5.36,5.36,0,0,1-.19-1.46,5.49,5.49,0,0,1,.19-1.47,5.81,5.81,0,0,1,.56-1.36,5.74,5.74,0,0,1,.91-1.17,5.44,5.44,0,0,1,1.17-.9"/><path class="cls-4" d="M342.83,202.36v26.31c0,1-1.41,1.81-3.14,1.81s-3.15-.81-3.15-1.81V202.36"/><path class="cls-4" d="M336.86,202.54a5.44,5.44,0,0,1-1.17-.9,5.44,5.44,0,0,1-1.47-2.54,5.36,5.36,0,0,1-.19-1.46,5.49,5.49,0,0,1,.19-1.47,5.81,5.81,0,0,1,.56-1.36,5.74,5.74,0,0,1,.91-1.17,5.72,5.72,0,0,1,2.53-1.47,5.92,5.92,0,0,1,1.47-.19,5.84,5.84,0,0,1,1.46.19,5.51,5.51,0,0,1,1.37.57,5.71,5.71,0,0,1,2.07,2.07,5.84,5.84,0,0,1,.57,1.36,5.92,5.92,0,0,1,.19,1.47,5.6,5.6,0,0,1-.76,2.83,5.71,5.71,0,0,1-2.07,2.07"/><circle class="cls-5" cx="337.36" cy="196.05" r="1.26"/><path class="cls-1" d="M384.42,177.82v26.84c0,1-1.41,1.81-3.15,1.81s-3.14-.81-3.14-1.81V177.82Z"/><path class="cls-2" d="M381.27,177.82h-3.14v26.84c0,1,1.41,1.81,3.14,1.81Z"/><circle class="cls-2" cx="381.27" cy="173.63" r="5.66"/><path class="cls-3" d="M384.1,168.73a5.76,5.76,0,0,1,1.18.9,6.07,6.07,0,0,1,.9,1.17,5.81,5.81,0,0,1,.56,1.36,5.49,5.49,0,0,1,.19,1.47,5.36,5.36,0,0,1-.19,1.46,5.71,5.71,0,0,1-.56,1.37,6.07,6.07,0,0,1-.9,1.17,5.76,5.76,0,0,1-1.18.9,5.44,5.44,0,0,1-1.36.57,5.74,5.74,0,0,1-2.93,0,5.51,5.51,0,0,1-1.37-.57,5.69,5.69,0,0,1-2.64-3.44,5.78,5.78,0,0,1-.19-1.46,5.92,5.92,0,0,1,.19-1.47,5.84,5.84,0,0,1,.57-1.36,5.71,5.71,0,0,1,2.07-2.07"/><path class="cls-4" d="M384.42,178.35v26.31c0,1-1.41,1.81-3.15,1.81s-3.14-.81-3.14-1.81V178.35"/><path class="cls-4" d="M378.44,178.53a5.69,5.69,0,0,1-2.64-3.44,5.78,5.78,0,0,1-.19-1.46,5.92,5.92,0,0,1,.19-1.47,5.84,5.84,0,0,1,.57-1.36,5.71,5.71,0,0,1,2.07-2.07,5.51,5.51,0,0,1,1.37-.57,5.74,5.74,0,0,1,2.93,0,5.44,5.44,0,0,1,1.36.57,5.76,5.76,0,0,1,1.18.9,6.07,6.07,0,0,1,.9,1.17,5.81,5.81,0,0,1,.56,1.36,5.49,5.49,0,0,1,.19,1.47,5.36,5.36,0,0,1-.19,1.46,5.71,5.71,0,0,1-.56,1.37,6.07,6.07,0,0,1-.9,1.17,5.76,5.76,0,0,1-1.18.9"/><circle class="cls-5" cx="378.94" cy="172.04" r="1.26"/><path class="cls-6" d="M174.58,121.77V174.2c0,1.92-2.69,3.47-6,3.47s-6-1.55-6-3.47V121.77Z"/><path class="cls-7" d="M168.57,121.77h-6V174.2c0,1.92,2.68,3.47,6,3.47Z"/><path class="cls-6" d="M174.58,85.56v51.27c0,1.92-2.69,3.47-6,3.47s-6-1.55-6-3.47V85.56Z"/><path class="cls-8" d="M174.58,122.79V174.2c0,1.92-2.69,3.47-6,3.47s-6-1.55-6-3.47V122.79"/><path class="cls-6" d="M280.68,121.77V174.2c0,1.92-2.69,3.47-6,3.47s-6-1.55-6-3.47V121.77Z"/><path class="cls-7" d="M274.68,121.77h-6V174.2c0,1.92,2.69,3.47,6,3.47Z"/><path class="cls-6" d="M280.68,85.56v51.27c0,1.92-2.69,3.47-6,3.47s-6-1.55-6-3.47V85.56Z"/><path class="cls-8" d="M280.68,122.79V174.2c0,1.92-2.69,3.47-6,3.47s-6-1.55-6-3.47V122.79"/><path class="cls-9" d="M135.56,116.21v11.36a5.52,5.52,0,0,0,5.52,5.53H302.16a5.52,5.52,0,0,0,5.53-5.53V116.21Z"/><rect class="cls-10" x="139.51" y="24.09" width="164.24" height="92.12"/><rect class="cls-11" x="139.51" y="24.09" width="164.24" height="92.12"/><rect class="cls-5" x="147.57" y="30.61" width="148.1" height="79.08"/><rect class="cls-7" x="147.57" y="30.61" width="148.1" height="7.58"/><rect class="cls-8" x="147.57" y="30.61" width="148.1" height="79.08"/><rect class="cls-12" x="139.51" y="15.75" width="164.24" height="8.34"/><path class="cls-12" d="M135.56,116.21H307.69a0,0,0,0,1,0,0V122a5.53,5.53,0,0,1-5.53,5.53H141.08a5.53,5.53,0,0,1-5.53-5.53v-5.83A0,0,0,0,1,135.56,116.21Z"/><polygon class="cls-8" points="139.5 15.75 139.5 24.09 139.5 116.21 303.74 116.21 303.74 24.09 303.74 15.75 139.5 15.75"/><path class="cls-8" d="M135.56,116.21v11.36a5.52,5.52,0,0,0,5.52,5.53H302.16a5.52,5.52,0,0,0,5.53-5.53V116.21Z"/><path class="cls-13" d="M241.6,71.57A39.22,39.22,0,0,0,240,60.49a41.3,41.3,0,0,0-4.52-10.05,4.3,4.3,0,0,0-5.88-1.38l-31.09,19.1a4,4,0,0,0,0,6.87L229.74,94.3a4,4,0,0,0,2.11.61A4,4,0,0,0,235.27,93,41.48,41.48,0,0,0,240,82.84,39.11,39.11,0,0,0,241.6,71.57Zm-41.74-1.21,12.77-7.84a17,17,0,0,1,0,18.21l-12.79-7.89A1.46,1.46,0,0,1,199.86,70.36ZM239,71.57a37.28,37.28,0,0,1-5.93,20.07,1.46,1.46,0,0,1-1.24.68,1.5,1.5,0,0,1-.76-.21l-16.24-10a19.52,19.52,0,0,0,0-20.92L231,51.26a1.72,1.72,0,0,1,.89-.25,1.68,1.68,0,0,1,1.44.8A37.14,37.14,0,0,1,239,71.57Z"/><polygon class="cls-14" points="147.92 264.16 97.11 234.83 97.11 223.4 147.92 252.73 147.92 264.16"/><polygon class="cls-15" points="147.92 252.73 162.47 244.33 111.67 215 97.11 223.4 147.92 252.73"/><polygon class="cls-2" points="119.77 219.68 154.36 239.65 139.81 248.05 105.22 228.08 119.77 219.68"/><polygon class="cls-16" points="105.22 239.51 139.81 259.48 139.81 248.05 105.22 228.08 105.22 239.51"/><polygon class="cls-3" points="109.89 230.78 109.89 242.21 135.14 256.79 135.14 245.35 109.89 230.78"/><polygon class="cls-17" points="109.89 230.78 124.44 222.38 149.69 236.95 135.14 245.35 109.89 230.78"/><line class="cls-3" x1="139.81" y1="248.05" x2="105.22" y2="228.08"/><line class="cls-3" x1="154.36" y1="239.65" x2="119.77" y2="219.68"/><line class="cls-3" x1="139.81" y1="259.48" x2="105.22" y2="239.51"/><path class="cls-1" d="M225.32,199v45.4c0,1.7-2.38,3.07-5.32,3.07s-5.32-1.37-5.32-3.07V199Z"/><path class="cls-2" d="M220,199h-5.32v45.4c0,1.7,2.38,3.07,5.32,3.07Z"/><path class="cls-16" d="M225.32,176v45.4c0,1.7-2.38,3.08-5.32,3.08s-5.32-1.38-5.32-3.08V176Z"/><path class="cls-16" d="M214.68,221.4c0,1.69,2.38,3.07,5.32,3.07V198.08h-5.32Z"/><path class="cls-4" d="M225.32,199.86v44.5c0,1.7-2.38,3.07-5.32,3.07s-5.32-1.37-5.32-3.07v-44.5"/><polygon class="cls-14" points="162.47 244.33 111.67 215 111.67 203.57 162.47 232.9 162.47 244.33"/><polygon class="cls-15" points="162.47 232.9 177.02 224.5 126.22 195.17 111.67 203.57 162.47 232.9"/><polygon class="cls-2" points="134.32 199.85 168.91 219.82 154.36 228.22 119.77 208.25 134.32 199.85"/><polygon class="cls-16" points="119.77 219.68 154.36 239.65 154.36 228.22 119.77 208.25 119.77 219.68"/><polygon class="cls-3" points="124.44 210.94 124.44 222.38 149.69 236.95 149.69 225.52 124.44 210.94"/><polygon class="cls-17" points="124.44 210.94 139 202.54 164.24 217.12 149.69 225.52 124.44 210.94"/><line class="cls-3" x1="154.36" y1="228.22" x2="119.77" y2="208.25"/><line class="cls-3" x1="168.91" y1="219.82" x2="134.32" y2="199.85"/><line class="cls-3" x1="154.36" y1="239.65" x2="119.77" y2="219.68"/><line class="cls-17" x1="248.43" y1="204.66" x2="299.23" y2="175.33"/><line class="cls-17" x1="191.57" y1="204.66" x2="140.77" y2="175.33"/><rect class="cls-18" x="191.57" y="204.66" width="56.86" height="11.43"/><polygon class="cls-14" points="262.98 213.06 262.98 224.5 262.98 224.5 262.98 224.5 262.98 224.5 277.53 232.9 277.53 244.33 277.53 244.33 277.53 244.33 277.53 244.33 292.08 252.73 292.08 264.16 292.08 264.16 292.08 264.16 292.08 264.16 248.43 238.96 248.43 216.1 248.43 204.66 262.98 213.06"/><polygon class="cls-18" points="292.08 264.16 342.88 234.83 342.88 223.4 292.08 252.73 292.08 264.16"/><polygon class="cls-15" points="292.08 252.73 277.53 244.33 328.33 215 342.88 223.4 292.08 252.73"/><polygon class="cls-16" points="334.78 239.51 300.19 259.48 300.19 248.05 334.78 228.08 334.78 239.51"/><polygon class="cls-3" points="330.11 230.78 330.11 242.21 304.86 256.79 304.86 245.35 330.11 230.78"/><polygon class="cls-2" points="320.23 219.68 285.64 239.65 300.19 248.05 334.78 228.08 320.23 219.68"/><polygon class="cls-17" points="330.11 230.78 315.56 222.38 290.31 236.95 304.86 245.35 330.11 230.78"/><line class="cls-3" x1="300.19" y1="248.05" x2="334.78" y2="228.08"/><polygon class="cls-4" points="320.23 219.68 334.78 228.08 334.78 239.51 300.19 259.48 300.19 248.05 285.64 239.65 320.23 219.68"/><polygon class="cls-18" points="277.53 244.33 328.33 215 328.33 203.57 277.53 232.9 277.53 244.33"/><polygon class="cls-15" points="277.53 232.9 262.98 224.5 313.78 195.17 328.33 203.57 277.53 232.9"/><polygon class="cls-16" points="320.23 219.68 285.64 239.65 285.64 228.22 320.23 208.25 320.23 219.68"/><polygon class="cls-3" points="315.56 210.94 315.56 222.38 290.31 236.95 290.31 225.52 315.56 210.94"/><polygon class="cls-2" points="305.68 199.85 271.09 219.82 285.64 228.22 320.23 208.25 305.68 199.85"/><polygon class="cls-17" points="315.56 210.94 301 202.54 275.76 217.12 290.31 225.52 315.56 210.94"/><line class="cls-3" x1="285.64" y1="228.22" x2="320.23" y2="208.25"/><polygon class="cls-4" points="305.68 199.85 320.23 208.25 320.23 219.68 285.64 239.65 285.64 228.22 271.09 219.82 305.68 199.85"/><polygon class="cls-18" points="262.98 224.5 313.78 195.17 313.78 183.73 262.98 213.06 262.98 224.5"/><polygon class="cls-16" points="305.68 199.85 271.09 219.82 271.09 208.38 305.68 188.41 305.68 199.85"/><polygon class="cls-3" points="301 191.11 301 202.54 275.76 217.12 275.76 205.69 301 191.11"/><polygon class="cls-18" points="177.02 213.06 177.02 224.5 177.02 224.5 177.02 224.5 177.02 224.5 162.47 232.9 162.47 244.33 162.47 244.33 162.47 244.33 162.47 244.33 147.92 252.73 147.92 264.16 147.92 264.16 147.92 264.16 147.92 264.16 147.92 264.16 191.57 238.96 191.57 216.1 191.57 204.66 177.02 213.06"/><polygon class="cls-14" points="177.02 224.5 126.22 195.17 126.22 183.73 177.02 213.06 177.02 224.5"/><polygon class="cls-16" points="134.32 199.85 168.91 219.82 168.91 208.38 134.32 188.41 134.32 199.85"/><polygon class="cls-3" points="139 191.11 139 202.54 164.24 217.12 164.24 205.69 139 191.11"/><line class="cls-3" x1="271.09" y1="208.38" x2="305.68" y2="188.41"/><line class="cls-3" x1="168.91" y1="208.38" x2="134.32" y2="188.41"/><line class="cls-3" x1="168.91" y1="219.82" x2="134.32" y2="199.85"/><line class="cls-3" x1="139.81" y1="259.48" x2="105.22" y2="239.51"/><line class="cls-3" x1="271.09" y1="219.82" x2="305.68" y2="199.85"/><line class="cls-3" x1="285.64" y1="239.65" x2="320.23" y2="219.68"/><line class="cls-3" x1="300.19" y1="259.48" x2="334.78" y2="239.51"/><polygon class="cls-15" points="299.23 175.33 248.43 146 248.43 146 191.57 146 140.77 175.33 126.22 183.73 177.02 213.06 191.57 204.66 248.43 204.66 262.98 213.06 313.78 183.73 299.23 175.33"/><line class="cls-17" x1="241.06" y1="173.49" x2="241.06" y2="177.17"/><line class="cls-17" x1="248.43" y1="204.66" x2="299.23" y2="175.33"/><line class="cls-17" x1="198.94" y1="173.49" x2="198.94" y2="177.17"/><line class="cls-17" x1="191.57" y1="204.66" x2="140.77" y2="175.33"/><polygon class="cls-2" points="153.79 177.18 188.38 197.15 168.91 208.38 134.32 188.41 153.79 177.18"/><polygon class="cls-2" points="286.21 177.18 251.62 197.15 271.09 208.38 305.68 188.41 286.21 177.18"/><polygon class="cls-17" points="301 191.11 286.45 182.71 261.21 197.29 275.76 205.69 301 191.11"/><line class="cls-3" x1="305.68" y1="188.41" x2="271.09" y2="208.38"/><polyline class="cls-3" points="177.02 213.06 191.57 204.66 248.43 204.66 262.98 213.06"/><polyline class="cls-3" points="313.78 183.73 299.23 175.33 248.43 146 248.43 146 191.57 146 140.77 175.33 126.22 183.73"/><polygon class="cls-4" points="271.09 208.38 271.09 219.82 271.09 219.82 271.09 219.82 285.64 228.22 285.64 239.65 285.64 239.65 285.64 239.65 300.19 248.05 300.19 259.48 334.78 239.51 334.78 239.51 334.78 228.08 320.23 219.68 320.23 208.25 305.68 199.85 305.68 188.41 286.21 177.18 251.62 197.15 271.09 208.38"/><polygon class="cls-17" points="139 191.11 153.55 182.71 178.79 197.29 164.24 205.69 139 191.11"/><line class="cls-3" x1="168.91" y1="208.38" x2="134.32" y2="188.41"/><polygon class="cls-4" points="168.91 208.38 168.91 219.82 168.91 219.82 168.91 219.82 154.36 228.22 154.36 239.65 154.36 239.65 154.36 239.65 139.81 248.05 139.81 259.48 105.22 239.51 105.22 239.51 105.22 228.08 119.77 219.68 119.77 208.25 134.32 199.85 134.32 188.41 153.79 177.18 188.38 197.15 168.91 208.38"/><path class="cls-4" d="M342.89,223.4,328.33,215V203.57l-14.55-8.4V183.73h0l-14.55-8.4L248.43,146H191.57l-50.8,29.33-14.55,8.4h0v11.44h0l-14.55,8.4V215l-14.56,8.4v11.43l8.11,4.68h0l34,19.66,8.66,5h0L191.57,239V216.1h56.86V239l43.65,25.2,8.11-4.68h0l34.59-20h0l8.11-4.68Z"/><polygon class="cls-19" points="417.84 211.53 400.55 201.54 365.96 221.51 300.19 259.48 317.48 269.47 334.78 279.45 400.55 241.48 435.14 221.51 417.84 211.53"/><polygon class="cls-17" points="425.8 221.51 400.55 206.94 370.63 224.21 370.63 224.21 309.53 259.48 334.78 274.06 395.88 238.78 395.88 238.78 425.8 221.51"/><path class="cls-4" d="M430.2,211.34c-10.61,16.28-27.79,26.2-38.39,22.17"/><path class="cls-1" d="M436.48,207.57v26.84c0,1-1.4,1.82-3.14,1.82s-3.14-.81-3.14-1.82V207.57Z"/><path class="cls-2" d="M433.34,207.57H430.2v26.84c0,1,1.4,1.82,3.14,1.82Z"/><circle class="cls-2" cx="433.34" cy="203.39" r="5.66"/><path class="cls-3" d="M436.17,198.48a5.7,5.7,0,0,1,1.17.9,6,6,0,0,1,.9,1.17,5.67,5.67,0,0,1,.57,1.37,5.74,5.74,0,0,1,0,2.93,5.67,5.67,0,0,1-.57,1.37,6,6,0,0,1-.9,1.17,5.7,5.7,0,0,1-1.17.9,5.81,5.81,0,0,1-1.36.56,5.5,5.5,0,0,1-2.94,0,5.81,5.81,0,0,1-1.36-.56,5.7,5.7,0,0,1-1.17-.9,6,6,0,0,1-.9-1.17,5.67,5.67,0,0,1-.57-1.37,5.74,5.74,0,0,1,0-2.93,5.67,5.67,0,0,1,.57-1.37,6,6,0,0,1,.9-1.17,5.7,5.7,0,0,1,1.17-.9"/><path class="cls-4" d="M436.48,208.11v26.3c0,1-1.4,1.82-3.14,1.82s-3.14-.81-3.14-1.82v-26.3"/><path class="cls-4" d="M430.51,208.29a5.7,5.7,0,0,1-1.17-.9,6,6,0,0,1-.9-1.17,5.67,5.67,0,0,1-.57-1.37,5.74,5.74,0,0,1,0-2.93,5.67,5.67,0,0,1,.57-1.37,6,6,0,0,1,.9-1.17,5.7,5.7,0,0,1,1.17-.9,5.81,5.81,0,0,1,1.36-.56,5.78,5.78,0,0,1,2.94,0,5.81,5.81,0,0,1,1.36.56,5.7,5.7,0,0,1,1.17.9,6,6,0,0,1,.9,1.17,5.67,5.67,0,0,1,.57,1.37,5.74,5.74,0,0,1,0,2.93,5.67,5.67,0,0,1-.57,1.37,6,6,0,0,1-.9,1.17,5.7,5.7,0,0,1-1.17.9"/><circle class="cls-5" cx="431.01" cy="201.8" r="1.26"/><path class="cls-4" d="M388.61,235.35c-10.6,16.28-27.79,26.2-38.39,22.16"/><path class="cls-1" d="M353.31,255.59v26.84c0,1-1.41,1.82-3.14,1.82s-3.15-.81-3.15-1.82V255.59Z"/><path class="cls-2" d="M350.17,255.59H347v26.84c0,1,1.41,1.82,3.15,1.82Z"/><circle class="cls-2" cx="350.17" cy="251.4" r="5.66"/><path class="cls-3" d="M353,246.5a5.69,5.69,0,0,1,2.64,3.44,5.74,5.74,0,0,1,0,2.93,5.44,5.44,0,0,1-.57,1.36,5.76,5.76,0,0,1-.9,1.18,5.7,5.7,0,0,1-1.17.9,5.89,5.89,0,0,1-1.37.56,5.41,5.41,0,0,1-1.46.19,5.49,5.49,0,0,1-1.47-.19,5.81,5.81,0,0,1-1.36-.56,5.68,5.68,0,0,1-2.64-6.37,5.67,5.67,0,0,1,.57-1.37,5.37,5.37,0,0,1,.9-1.17,5.44,5.44,0,0,1,1.17-.9"/><path class="cls-4" d="M353.31,256.13v26.3c0,1-1.41,1.82-3.14,1.82s-3.15-.81-3.15-1.82v-26.3"/><path class="cls-4" d="M347.34,256.31a5.68,5.68,0,0,1-2.64-6.37,5.67,5.67,0,0,1,.57-1.37,5.37,5.37,0,0,1,.9-1.17,5.44,5.44,0,0,1,1.17-.9,5.81,5.81,0,0,1,1.36-.56,5.49,5.49,0,0,1,1.47-.2,5.42,5.42,0,0,1,1.46.2,5.89,5.89,0,0,1,1.37.56,5.69,5.69,0,0,1,2.64,3.44,5.74,5.74,0,0,1,0,2.93,5.44,5.44,0,0,1-.57,1.36,5.76,5.76,0,0,1-.9,1.18,5.7,5.7,0,0,1-1.17.9"/><circle class="cls-5" cx="347.84" cy="249.82" r="1.26"/><path class="cls-1" d="M394.9,231.58v26.84c0,1-1.41,1.82-3.15,1.82s-3.14-.81-3.14-1.82V231.58Z"/><path class="cls-2" d="M391.75,231.58h-3.14v26.84c0,1,1.41,1.82,3.14,1.82Z"/><circle class="cls-2" cx="391.75" cy="227.39" r="5.66"/><path class="cls-3" d="M394.58,222.49a5.76,5.76,0,0,1,1.18.9,6.39,6.39,0,0,1,.9,1.17,6.07,6.07,0,0,1,.56,1.37,5.74,5.74,0,0,1,0,2.93,6.07,6.07,0,0,1-.56,1.37,6.39,6.39,0,0,1-.9,1.17,5.68,5.68,0,0,1-2.54,1.46,5.74,5.74,0,0,1-2.93,0,6.07,6.07,0,0,1-1.37-.56,5.7,5.7,0,0,1-1.17-.9,6,6,0,0,1-.9-1.17,5.64,5.64,0,0,1-.56-1.37,5.47,5.47,0,0,1,0-2.93,5.64,5.64,0,0,1,.56-1.37,6,6,0,0,1,.9-1.17,5.7,5.7,0,0,1,1.17-.9"/><path class="cls-4" d="M394.9,232.12v26.3c0,1-1.41,1.82-3.15,1.82s-3.14-.81-3.14-1.82v-26.3"/><path class="cls-4" d="M388.92,232.3a5.7,5.7,0,0,1-1.17-.9,6,6,0,0,1-.9-1.17,5.64,5.64,0,0,1-.56-1.37,5.47,5.47,0,0,1,0-2.93,5.64,5.64,0,0,1,.56-1.37,6,6,0,0,1,.9-1.17,5.7,5.7,0,0,1,1.17-.9,6.07,6.07,0,0,1,1.37-.56,5.74,5.74,0,0,1,2.93,0,5.68,5.68,0,0,1,2.54,1.46,6.39,6.39,0,0,1,.9,1.17,6.07,6.07,0,0,1,.56,1.37,5.74,5.74,0,0,1,0,2.93,6.07,6.07,0,0,1-.56,1.37,6.39,6.39,0,0,1-.9,1.17,5.76,5.76,0,0,1-1.18.9"/><circle class="cls-5" cx="389.42" cy="225.81" r="1.26"/><polygon class="cls-19" points="22.16 211.53 39.45 201.54 74.04 221.51 139.81 259.48 122.52 269.47 105.22 279.45 39.45 241.48 4.86 221.51 22.16 211.53"/><polygon class="cls-17" points="14.21 221.51 39.45 206.94 69.37 224.21 69.37 224.21 130.47 259.48 105.22 274.06 44.12 238.78 44.12 238.78 14.21 221.51"/><path class="cls-4" d="M51.39,235.35c10.6,16.28,27.79,26.2,38.39,22.17"/><path class="cls-1" d="M93,255.59v26.84c0,1-1.41,1.82-3.15,1.82s-3.14-.81-3.14-1.82V255.59Z"/><path class="cls-2" d="M89.83,255.59H86.69v26.84c0,1,1.41,1.82,3.14,1.82Z"/><circle class="cls-2" cx="89.83" cy="251.4" r="5.66"/><path class="cls-3" d="M87,246.5a5.7,5.7,0,0,0-1.17.9,6,6,0,0,0-.9,1.17,5.67,5.67,0,0,0-.57,1.37,5.74,5.74,0,0,0,0,2.93,5.67,5.67,0,0,0,.57,1.37,6,6,0,0,0,.9,1.17,5.7,5.7,0,0,0,1.17.9,5.89,5.89,0,0,0,1.37.56,5.41,5.41,0,0,0,1.46.19,5.49,5.49,0,0,0,1.47-.19,5.81,5.81,0,0,0,1.36-.56,5.44,5.44,0,0,0,1.17-.9,5.68,5.68,0,0,0,1.47-2.54,5.74,5.74,0,0,0,0-2.93,5.68,5.68,0,0,0-1.47-2.54,5.44,5.44,0,0,0-1.17-.9"/><path class="cls-4" d="M93,256.13v26.3c0,1-1.41,1.82-3.15,1.82s-3.14-.81-3.14-1.82v-26.3"/><path class="cls-4" d="M92.66,256.31a5.44,5.44,0,0,0,1.17-.9,5.68,5.68,0,0,0,1.47-2.54,5.74,5.74,0,0,0,0-2.93,5.68,5.68,0,0,0-1.47-2.54,5.44,5.44,0,0,0-1.17-.9,5.81,5.81,0,0,0-1.36-.56,5.49,5.49,0,0,0-1.47-.2,5.42,5.42,0,0,0-1.46.2,5.89,5.89,0,0,0-1.37.56,5.7,5.7,0,0,0-1.17.9,6,6,0,0,0-.9,1.17,5.67,5.67,0,0,0-.57,1.37,5.74,5.74,0,0,0,0,2.93,5.67,5.67,0,0,0,.57,1.37,6,6,0,0,0,.9,1.17,5.7,5.7,0,0,0,1.17.9"/><circle class="cls-5" cx="87.5" cy="249.82" r="1.26"/><path class="cls-1" d="M9.8,207.57v26.84c0,1-1.4,1.82-3.14,1.82s-3.14-.81-3.14-1.82V207.57Z"/><path class="cls-2" d="M6.66,207.57H3.52v26.84c0,1,1.4,1.82,3.14,1.82Z"/><circle class="cls-2" cx="6.66" cy="203.39" r="5.66"/><path class="cls-3" d="M3.83,198.48a5.7,5.7,0,0,0-1.17.9,5.76,5.76,0,0,0-.9,1.18,5.44,5.44,0,0,0-.57,1.36,5.74,5.74,0,0,0,0,2.93,5.7,5.7,0,0,0,2.64,3.44,5.81,5.81,0,0,0,1.36.56,5.5,5.5,0,0,0,2.94,0,5.81,5.81,0,0,0,1.36-.56,5.69,5.69,0,0,0,2.64-3.44,5.74,5.74,0,0,0,0-2.93,5.44,5.44,0,0,0-.57-1.36,5.76,5.76,0,0,0-.9-1.18,5.7,5.7,0,0,0-1.17-.9"/><path class="cls-4" d="M9.8,208.11v26.3c0,1-1.4,1.82-3.14,1.82s-3.14-.81-3.14-1.82v-26.3"/><path class="cls-4" d="M9.49,208.29a5.69,5.69,0,0,0,2.64-3.44,5.74,5.74,0,0,0,0-2.93,5.44,5.44,0,0,0-.57-1.36,5.76,5.76,0,0,0-.9-1.18,5.7,5.7,0,0,0-1.17-.9,5.81,5.81,0,0,0-1.36-.56,5.49,5.49,0,0,0-1.47-.19,5.49,5.49,0,0,0-1.47.19,5.81,5.81,0,0,0-1.36.56,5.7,5.7,0,0,0-1.17.9,5.76,5.76,0,0,0-.9,1.18,5.44,5.44,0,0,0-.57,1.36,5.74,5.74,0,0,0,0,2.93,5.7,5.7,0,0,0,2.64,3.44"/><circle class="cls-5" cx="4.33" cy="201.8" r="1.26"/><path class="cls-4" d="M9.8,211.34c10.61,16.28,27.79,26.2,38.39,22.17"/><path class="cls-1" d="M51.39,231.58v26.84c0,1-1.41,1.82-3.14,1.82s-3.15-.81-3.15-1.82V231.58Z"/><path class="cls-2" d="M48.25,231.58H45.1v26.84c0,1,1.41,1.82,3.15,1.82Z"/><circle class="cls-2" cx="48.25" cy="227.4" r="5.66"/><path class="cls-3" d="M45.42,222.49a5.76,5.76,0,0,0-1.18.9,6.39,6.39,0,0,0-.9,1.17,6.07,6.07,0,0,0-.56,1.37,5.74,5.74,0,0,0,0,2.93,6.07,6.07,0,0,0,.56,1.37,6.39,6.39,0,0,0,.9,1.17,5.68,5.68,0,0,0,2.54,1.46,5.47,5.47,0,0,0,2.93,0,6.07,6.07,0,0,0,1.37-.56,5.7,5.7,0,0,0,1.17-.9,6,6,0,0,0,.9-1.17,5.64,5.64,0,0,0,.56-1.37,5.47,5.47,0,0,0,0-2.93,5.64,5.64,0,0,0-.56-1.37,6,6,0,0,0-.9-1.17,5.7,5.7,0,0,0-1.17-.9"/><path class="cls-4" d="M51.39,232.12v26.3c0,1-1.41,1.82-3.14,1.82s-3.15-.81-3.15-1.82v-26.3"/><path class="cls-4" d="M51.08,232.3a5.7,5.7,0,0,0,1.17-.9,6,6,0,0,0,.9-1.17,5.64,5.64,0,0,0,.56-1.37,5.47,5.47,0,0,0,0-2.93,5.64,5.64,0,0,0-.56-1.37,6,6,0,0,0-.9-1.17,5.7,5.7,0,0,0-1.17-.9,6.07,6.07,0,0,0-1.37-.56,5.74,5.74,0,0,0-2.93,0,5.68,5.68,0,0,0-2.54,1.46,6.39,6.39,0,0,0-.9,1.17,6.07,6.07,0,0,0-.56,1.37,5.74,5.74,0,0,0,0,2.93,6.07,6.07,0,0,0,.56,1.37,6.39,6.39,0,0,0,.9,1.17,5.76,5.76,0,0,0,1.18.9"/><circle class="cls-5" cx="45.92" cy="225.81" r="1.26"/><rect class="cls-20" width="440" height="300"/></g></g></svg>