<svg xmlns="http://www.w3.org/2000/svg" viewBox="0 0 440 300"><defs><style>.cls-1,.cls-13,.cls-2,.cls-6,.cls-7,.cls-8{fill:none;}.cls-1{stroke:#bde4fd;}.cls-1,.cls-10,.cls-11,.cls-13,.cls-2,.cls-6,.cls-8,.cls-9{stroke-linecap:round;stroke-linejoin:round;stroke-width:2px;}.cls-2{stroke:#ffde85;}.cls-3{fill:#ffebb6;}.cls-4{fill:#ffde85;}.cls-5{fill:#fff2ce;}.cls-6{stroke:#fff;}.cls-8{stroke:#cc7c09;}.cls-12,.cls-9{fill:#bde4fd;}.cls-10,.cls-11,.cls-9{stroke:#91d2fb;}.cls-10{fill:#e9f6fe;}.cls-11{fill:#fff;}.cls-13{stroke:#1b6dc6;}</style></defs><title>coins_step2(1x1)</title><g id="Layer_2" data-name="Layer 2"><g id="Illustrations"><path class="cls-1" d="M197.27,186.56c-27,8.18-61.12,5.73-83.81-7.37-27.92-16.12-27.92-42.26,0-58.38s73.19-16.12,101.11,0c22.41,12.93,26.84,32.32,13.29,47.8"/><ellipse class="cls-2" cx="275.98" cy="150" rx="71.5" ry="41.28"/><path class="cls-1" d="M227.86,168.61a52.19,52.19,0,0,1-13.29,10.58,82.8,82.8,0,0,1-17.3,7.37"/><path class="cls-3" d="M293.28,142l-.33-.2c-9.37-5.41-24.56-5.41-33.94,0l-.32.2H252v8c0,3.55,2.35,7.09,7,9.8,9.38,5.41,24.57,5.41,33.94,0,4.69-2.71,7-6.25,7-9.8v-8Z"/><path class="cls-4" d="M293,159.8c4.69-2.71,7-6.25,7-9.8v-8h-6.7l-.33-.2c-4.68-2.7-10.82-4.06-17-4.06v26.12C282.13,163.86,288.27,162.5,293,159.8Z"/><ellipse class="cls-5" cx="275.98" cy="142" rx="24" ry="13.86"/><ellipse class="cls-6" cx="275.98" cy="142" rx="24" ry="13.86"/><ellipse class="cls-7" cx="275.98" cy="150" rx="24" ry="13.86"/><path class="cls-8" d="M300,150v-8h0c0-3.55-2.34-7.09-7-9.8-9.37-5.41-24.56-5.41-33.94,0-4.68,2.71-7,6.25-7,9.8h0v8c0,3.55,2.35,7.09,7,9.8a34.77,34.77,0,0,0,17,4.06c.77,0,1.54,0,2.3-.07a40.14,40.14,0,0,0,4.54-.5q1.11-.19,2.19-.45a29.11,29.11,0,0,0,7.94-3,14.89,14.89,0,0,0,6-5.85A8.62,8.62,0,0,0,300,150Z"/><path class="cls-4" d="M265.76,142.54a.41.41,0,0,1-.23-.06l-3.24-1.87c-.1-.06-.15-.15-.1-.22a.45.45,0,0,1,.38-.14l10.89.54c.24,0,.45-.11.43-.25l-.9-6.3a.21.21,0,0,1,.15-.2.59.59,0,0,1,.47,0l3.12,1.8a.22.22,0,0,1,.11.13l1,6.84v.07c0,.1-.14.19-.32.19h-.12Z"/><path class="cls-4" d="M279.58,143c0,.11.16.2.35.21l9.45.5a.49.49,0,0,0,.35-.09c.1-.08.08-.2,0-.27l-3.12-1.8a.7.7,0,0,0-.23-.06l-6.57-.38c-.24,0-.44.1-.43.24Z"/><path class="cls-4" d="M277.68,144.06c.19,0,.35.1.36.21l1,5.49a.19.19,0,0,1-.15.2.59.59,0,0,1-.47,0l-3.12-1.8a.2.2,0,0,1-.1-.13l-.6-3.81c0-.14.18-.26.42-.25Z"/><path class="cls-3" d="M293.28,134l-.33-.2c-9.37-5.41-24.56-5.41-33.94,0l-.32.2H252v8c0,3.55,2.35,7.09,7,9.8,9.38,5.41,24.57,5.41,33.94,0,4.69-2.71,7-6.25,7-9.8v-8Z"/><path class="cls-4" d="M293,151.8c4.69-2.71,7-6.25,7-9.8v-8h-6.7l-.33-.2c-4.68-2.7-10.82-4.06-17-4.06v26.12C282.13,155.86,288.27,154.5,293,151.8Z"/><ellipse class="cls-5" cx="275.98" cy="134" rx="24" ry="13.86"/><ellipse class="cls-6" cx="275.98" cy="134" rx="24" ry="13.86"/><ellipse class="cls-7" cx="275.98" cy="142" rx="24" ry="13.86"/><path class="cls-8" d="M300,142v-8h0c0-3.55-2.34-7.09-7-9.8-9.37-5.41-24.56-5.41-33.94,0-4.68,2.71-7,6.25-7,9.8h0v8c0,3.55,2.35,7.09,7,9.8a34.77,34.77,0,0,0,17,4.06c.77,0,1.54,0,2.3-.07a40.14,40.14,0,0,0,4.54-.5q1.11-.19,2.19-.45a29.11,29.11,0,0,0,7.94-3,14.89,14.89,0,0,0,6-5.85A8.62,8.62,0,0,0,300,142Z"/><path class="cls-4" d="M265.76,134.54a.41.41,0,0,1-.23-.06l-3.24-1.87c-.1-.06-.15-.15-.1-.22a.45.45,0,0,1,.38-.14l10.89.54c.24,0,.45-.11.43-.25l-.9-6.3a.21.21,0,0,1,.15-.2.59.59,0,0,1,.47,0l3.12,1.8a.22.22,0,0,1,.11.13l1,6.84v.07c0,.1-.14.19-.32.19h-.12Z"/><path class="cls-4" d="M279.58,135c0,.11.16.2.35.21l9.45.5a.49.49,0,0,0,.35-.09c.1-.08.08-.2,0-.27l-3.12-1.8a.7.7,0,0,0-.23-.06l-6.57-.38c-.24,0-.44.1-.43.24Z"/><path class="cls-4" d="M277.68,136.06c.19,0,.35.1.36.21l1,5.49a.19.19,0,0,1-.15.2.59.59,0,0,1-.47,0l-3.12-1.8a.2.2,0,0,1-.1-.13l-.6-3.81c0-.14.18-.26.42-.25Z"/><polygon class="cls-9" points="192.78 150.8 164.02 167.41 164.02 157.82 192.78 141.21 192.78 150.8"/><polygon class="cls-10" points="135.25 150.8 164.02 167.41 164.02 157.82 135.25 141.21 135.25 150.8"/><polygon class="cls-11" points="192.78 141.21 164.02 124.6 135.25 141.21 164.02 157.82 192.78 141.21"/><path class="cls-12" d="M154.66,141.68a.39.39,0,0,1-.2-.05L151.65,140c-.09,0-.13-.13-.08-.2a.35.35,0,0,1,.32-.12l9.45.47c.21,0,.39-.09.37-.21l-.77-5.48c0-.06,0-.13.13-.17a.53.53,0,0,1,.41,0l2.7,1.57s.09.06.09.11l.89,5.93V142c0,.09-.12.17-.28.16h-.1Z"/><path class="cls-12" d="M166.65,142.07c0,.1.14.17.31.18l8.2.44a.46.46,0,0,0,.3-.08c.09-.07.07-.17,0-.23l-2.7-1.57a.53.53,0,0,0-.2-.05l-5.7-.33c-.21,0-.39.09-.37.21Z"/><path class="cls-12" d="M165,143c.16,0,.29.08.31.18l.83,4.77c0,.06,0,.13-.13.17a.53.53,0,0,1-.41,0l-2.7-1.56a.15.15,0,0,1-.09-.12l-.53-3.3c0-.12.16-.22.37-.21Z"/><polygon class="cls-13" points="164.02 124.6 135.25 141.21 135.25 150.8 164.02 167.41 192.78 150.8 192.78 141.21 164.02 124.6"/><polygon class="cls-9" points="192.78 141.21 164.02 157.82 164.02 148.23 192.78 131.62 192.78 141.21"/><polygon class="cls-10" points="135.25 141.21 164.02 157.82 164.02 148.23 135.25 131.62 135.25 141.21"/><polygon class="cls-11" points="192.78 131.62 164.02 115.02 135.25 131.62 164.02 148.23 192.78 131.62"/><path class="cls-12" d="M154.66,132.09a.39.39,0,0,1-.2-.05l-2.81-1.62c-.09,0-.13-.13-.08-.2a.35.35,0,0,1,.32-.12l9.45.47c.21,0,.39-.09.37-.21l-.77-5.47a.17.17,0,0,1,.13-.18.53.53,0,0,1,.41,0l2.7,1.57s.09.07.09.11l.89,5.94v.05c0,.09-.12.17-.28.16h-.1Z"/><path class="cls-12" d="M166.65,132.48c0,.1.14.17.31.18l8.2.44a.46.46,0,0,0,.3-.08c.09-.07.07-.17,0-.23l-2.7-1.56a.52.52,0,0,0-.2-.06l-5.7-.33c-.21,0-.39.09-.37.21Z"/><path class="cls-12" d="M165,133.41c.16,0,.3.09.31.18l.83,4.77c0,.07,0,.13-.13.17a.53.53,0,0,1-.41,0l-2.7-1.56s-.09-.07-.09-.11l-.53-3.31c0-.12.16-.22.37-.21Z"/><polygon class="cls-13" points="164.02 115.02 135.25 131.62 135.25 141.21 164.02 157.82 192.78 141.21 192.78 131.62 164.02 115.02"/><rect class="cls-7" width="440" height="300"/></g></g></svg>