<svg xmlns="http://www.w3.org/2000/svg" viewBox="0 0 440 300"><defs><style>.cls-1,.cls-2,.cls-3,.cls-4,.cls-8,.cls-9{fill:none;}.cls-2,.cls-4{stroke:#b8bfca;}.cls-2,.cls-3,.cls-4,.cls-8,.cls-9{stroke-linecap:round;stroke-linejoin:round;stroke-width:2px;}.cls-3{stroke:#bde4fd;}.cls-4{stroke-dasharray:0 6.04;}.cls-5{fill:#ffebb6;}.cls-6{fill:#ffde85;}.cls-7{fill:#fff2ce;}.cls-8{stroke:#fff;}.cls-9{stroke:#cc7c09;}</style></defs><title>coins_step5(1x1)</title><g id="Layer_2" data-name="Layer 2"><g id="Illustrations"><rect class="cls-1" width="440" height="300"/><path class="cls-2" d="M287.9,132.7c4.55,5.59,7.1,11.83,7.1,18.42,0,23.91-33.58,43.3-75,43.3s-75-19.39-75-43.3c0-23.12,31.39-42,70.92-43.24"/><line class="cls-2" x1="169.68" y1="151.12" x2="157" y2="151.12"/><line class="cls-2" x1="220" y1="179.74" x2="220" y2="187.06"/><line class="cls-2" x1="270.32" y1="151.12" x2="283" y2="151.12"/><line class="cls-2" x1="220" y1="114.75" x2="220" y2="122.07"/><line class="cls-2" x1="188.5" y1="119.62" x2="190.84" y2="121.96"/><line class="cls-2" x1="165.44" y1="132.93" x2="169.49" y2="134.28"/><line class="cls-2" x1="165.44" y1="169.31" x2="169.49" y2="167.96"/><line class="cls-2" x1="188.5" y1="182.62" x2="190.84" y2="180.28"/><line class="cls-2" x1="251.5" y1="182.62" x2="249.16" y2="180.28"/><line class="cls-2" x1="274.56" y1="169.31" x2="270.51" y2="167.96"/><line class="cls-2" x1="274.56" y1="132.93" x2="270.51" y2="134.28"/><line class="cls-3" x1="251.5" y1="119.62" x2="249.16" y2="121.96"/><path class="cls-3" d="M220,107.82v43.3l64.94-21.65c-13-12.94-37.18-21.65-64.94-21.65Z"/><ellipse class="cls-2" cx="219.99" cy="151.12" rx="7.34" ry="4.24"/><line class="cls-2" x1="214.74" y1="101.17" x2="214.74" y2="101.17"/><path class="cls-4" d="M208.71,101.52C168.26,104.78,138,125.4,138,151.12c0,28.06,36,50,82,50s82-22,82-50c0-8.09-3-15.66-8.36-22.36"/><line class="cls-2" x1="291.67" y1="126.46" x2="291.67" y2="126.46"/><polyline class="cls-2" points="214.74 103.5 221.74 101.17 214.74 98.83 214.74 101.17 214.74 103.5"/><path class="cls-5" d="M237.28,143.12l-.32-.2c-9.37-5.41-24.57-5.41-33.94,0l-.33.2H196v8c0,3.55,2.34,7.09,7,9.8,9.37,5.41,24.57,5.41,33.94,0,4.68-2.71,7-6.25,7-9.8v-8Z"/><path class="cls-6" d="M237,160.92c4.68-2.71,7-6.25,7-9.8v-8h-6.71l-.32-.2a34.77,34.77,0,0,0-17-4.06V165A34.77,34.77,0,0,0,237,160.92Z"/><ellipse class="cls-7" cx="219.99" cy="143.12" rx="24" ry="13.86"/><ellipse class="cls-8" cx="219.99" cy="143.12" rx="24" ry="13.86"/><ellipse class="cls-1" cx="219.99" cy="151.12" rx="24" ry="13.86"/><path class="cls-9" d="M244,151.12v-8h0c0-3.55-2.35-7.09-7-9.8-9.37-5.41-24.57-5.41-33.94,0-4.69,2.71-7,6.25-7,9.8h0v8c0,3.55,2.34,7.09,7,9.8S213.85,165,220,165c.77,0,1.53,0,2.3-.07a39.72,39.72,0,0,0,4.53-.5c.74-.13,1.48-.28,2.2-.45a29.11,29.11,0,0,0,7.94-3,15,15,0,0,0,6-5.85A8.62,8.62,0,0,0,244,151.12Z"/><path class="cls-6" d="M209.76,143.66a.46.46,0,0,1-.23-.06l-3.24-1.87c-.1-.06-.14-.15-.09-.23a.42.42,0,0,1,.37-.13l10.89.54c.25,0,.45-.11.43-.25l-.89-6.3a.19.19,0,0,1,.15-.2.59.59,0,0,1,.47,0l3.12,1.8a.2.2,0,0,1,.1.13l1,6.84V144c0,.1-.13.19-.32.19h-.12Z"/><path class="cls-6" d="M223.58,144.11c0,.11.17.2.36.21l9.45.5a.46.46,0,0,0,.34-.09c.11-.08.08-.2,0-.27l-3.12-1.8a.71.71,0,0,0-.22-.06l-6.58-.39c-.24,0-.44.11-.42.25Z"/><path class="cls-6" d="M221.69,145.18c.19,0,.34.1.36.21l1,5.49a.21.21,0,0,1-.15.2.59.59,0,0,1-.47,0l-3.12-1.8a.22.22,0,0,1-.11-.13l-.6-3.81c0-.14.18-.26.42-.25Z"/></g></g></svg>