<svg xmlns="http://www.w3.org/2000/svg" viewBox="0 0 440 300"><defs><style>.cls-1,.cls-10,.cls-11,.cls-2,.cls-3,.cls-4,.cls-5,.cls-9{fill:none;}.cls-1,.cls-2,.cls-3{stroke:#ffde85;}.cls-1,.cls-11,.cls-2,.cls-3,.cls-4,.cls-5,.cls-9{stroke-linecap:round;stroke-linejoin:round;stroke-width:2px;}.cls-2{stroke-dasharray:0 5.93;}.cls-3{stroke-dasharray:0 5.91;}.cls-4,.cls-5{stroke:#b8bfca;}.cls-4{stroke-dasharray:0 6;}.cls-6{fill:#ffebb6;}.cls-7{fill:#ffde85;}.cls-8{fill:#fff2ce;}.cls-9{stroke:#fff;}.cls-11{stroke:#cc7c09;}</style></defs><title>coins_step4(1x1)</title><g id="Layer_2" data-name="Layer 2"><g id="Illustrations"><line class="cls-1" x1="189.66" y1="167.52" x2="189.66" y2="167.52"/><line class="cls-2" x1="194.79" y1="164.56" x2="207.62" y2="157.15"/><line class="cls-1" x1="210.18" y1="155.67" x2="210.18" y2="155.67"/><line class="cls-1" x1="182.63" y1="191.17" x2="182.63" y2="191.17"/><path class="cls-3" d="M187.75,194.13l12.68,7.32L211,207.58c4.88,2.81,11.28,4.22,17.67,4.22s12.8-1.41,17.68-4.22l24.29-14"/><line class="cls-1" x1="273.24" y1="192.07" x2="273.24" y2="192.07"/><path class="cls-4" d="M148.69,171.58l-10.61-6.13-17.8-10.27c-4.89-2.82-7.33-6.52-7.33-10.21s2.44-7.39,7.33-10.21l27-15.6"/><ellipse class="cls-1" cx="303.05" cy="174.87" rx="24" ry="13.86"/><polyline class="cls-1" points="214.95 149.26 213.22 153.91 221.29 152.92 218.12 151.09 214.95 149.26"/><path class="cls-1" d="M303.05,181.33c-6.19,0-11.21-2.89-11.21-6.46s5-6.47,11.21-6.47,11.2,2.89,11.2,6.47"/><ellipse class="cls-5" cx="176.93" cy="102.05" rx="24" ry="13.86"/><path class="cls-5" d="M156.08,116.09a1.73,1.73,0,0,1-1,1.42,5.46,5.46,0,0,1-4.9,0,1.5,1.5,0,0,1,0-2.83,5.38,5.38,0,0,1,4.9,0A1.73,1.73,0,0,1,156.08,116.09Z"/><polygon class="cls-5" points="180.39 110.62 187.09 96.19 162.09 100.06 180.39 110.62"/><polyline class="cls-1" points="279.45 192.15 281.18 187.49 273.11 188.49 276.28 190.32 279.45 192.15"/><path class="cls-6" d="M183,173.38l-.32-.2c-9.38-5.41-24.57-5.41-33.94,0a3.62,3.62,0,0,0-.33.2h-6.7v8c0,3.54,2.34,7.09,7,9.79,9.37,5.41,24.56,5.41,33.94,0,4.68-2.7,7-6.25,7-9.79v-8Z"/><path class="cls-7" d="M182.63,191.17c4.68-2.7,7-6.25,7-9.79v-8H183l-.32-.2c-4.69-2.71-10.83-4.06-17-4.06v26.11C171.8,195.23,177.94,193.88,182.63,191.17Z"/><ellipse class="cls-8" cx="165.66" cy="173.38" rx="24" ry="13.86"/><ellipse class="cls-9" cx="165.66" cy="173.38" rx="24" ry="13.86"/><ellipse class="cls-10" cx="165.66" cy="181.38" rx="24" ry="13.86"/><path class="cls-11" d="M189.66,181.38v-8h0c0-3.55-2.35-7.1-7-9.8-9.38-5.41-24.57-5.41-33.94,0-4.69,2.7-7,6.25-7,9.8h0v8c0,3.54,2.34,7.09,7,9.79s10.82,4.06,17,4.06c.76,0,1.53,0,2.3-.06a40,40,0,0,0,4.53-.51c.74-.13,1.47-.27,2.2-.44a29.25,29.25,0,0,0,7.94-3.05,15,15,0,0,0,6-5.85A8.55,8.55,0,0,0,189.66,181.38Z"/><path class="cls-7" d="M155.43,173.92a.52.52,0,0,1-.23-.06L152,172c-.1-.06-.15-.15-.09-.23a.41.41,0,0,1,.37-.14l10.89.54c.24,0,.45-.1.43-.24l-.89-6.31c0-.07,0-.15.15-.2a.59.59,0,0,1,.47,0l3.11,1.8a.2.2,0,0,1,.11.13l1,6.84v.06c0,.11-.13.2-.32.19h-.12Z"/><path class="cls-7" d="M169.25,174.36c0,.12.16.2.36.21l9.45.51a.59.59,0,0,0,.34-.09c.11-.09.08-.2,0-.27l-3.12-1.8a.4.4,0,0,0-.22-.06l-6.58-.39c-.24,0-.44.1-.42.24Z"/><path class="cls-7" d="M167.36,175.44c.19,0,.34.09.35.2l1,5.5c0,.07,0,.15-.15.2a.59.59,0,0,1-.47,0l-3.11-1.8a.2.2,0,0,1-.11-.13l-.6-3.81c0-.13.18-.25.42-.24Z"/><path class="cls-6" d="M258.3,129.87l-.33-.19c-9.37-5.41-24.57-5.41-33.94,0l-.32.19H217v8c0,3.55,2.34,7.1,7,9.8,9.37,5.41,24.57,5.41,33.94,0,4.69-2.7,7-6.25,7-9.8v-8Z"/><path class="cls-7" d="M258,147.67c4.69-2.7,7-6.25,7-9.8v-8h-6.7l-.33-.19c-4.68-2.71-10.83-4.06-17-4.06v26.11C247.14,151.73,253.29,150.38,258,147.67Z"/><ellipse class="cls-8" cx="241" cy="129.87" rx="24" ry="13.86"/><ellipse class="cls-9" cx="241" cy="129.87" rx="24" ry="13.86"/><ellipse class="cls-10" cx="241" cy="137.87" rx="24" ry="13.86"/><path class="cls-11" d="M265,137.87v-8h0c0-3.54-2.34-7.09-7-9.79-9.37-5.41-24.57-5.41-33.94,0-4.69,2.7-7,6.25-7,9.79h0v8c0,3.55,2.34,7.1,7,9.8s10.83,4.06,17,4.06c.77,0,1.54,0,2.3-.06a42.12,42.12,0,0,0,4.53-.51c.75-.13,1.48-.27,2.2-.44a29.12,29.12,0,0,0,7.94-3.05,14.89,14.89,0,0,0,6-5.85A8.62,8.62,0,0,0,265,137.87Z"/><path class="cls-7" d="M230.77,130.42a.71.71,0,0,1-.22-.06l-3.24-1.87c-.1-.06-.15-.15-.1-.23a.43.43,0,0,1,.38-.14l10.89.54c.24,0,.44-.1.42-.24l-.89-6.31c0-.07,0-.15.15-.2a.59.59,0,0,1,.47,0l3.12,1.8a.2.2,0,0,1,.11.13l1,6.84v.06c0,.11-.14.2-.32.19h-.12Z"/><path class="cls-7" d="M244.59,130.86c0,.11.17.2.36.21l9.45.5a.55.55,0,0,0,.35-.08c.1-.09.08-.2,0-.27l-3.12-1.8a.41.41,0,0,0-.23-.06l-6.57-.39c-.24,0-.45.1-.43.24Z"/><path class="cls-7" d="M242.7,131.94c.19,0,.34.09.36.2l1,5.5c0,.07,0,.15-.15.2a.59.59,0,0,1-.47,0l-3.12-1.8a.18.18,0,0,1-.1-.13l-.61-3.81c0-.14.18-.25.43-.24Z"/><rect class="cls-10" width="440" height="300"/></g></g></svg>