<svg xmlns="http://www.w3.org/2000/svg" viewBox="0 0 440 300"><defs><style>.cls-1,.cls-5,.cls-6{fill:none;}.cls-2{fill:#ffebb6;}.cls-3{fill:#ffde85;}.cls-4{fill:#fff2ce;}.cls-5{stroke:#fff;}.cls-5,.cls-6{stroke-linecap:round;stroke-linejoin:round;stroke-width:2px;}.cls-6{stroke:#cc7c09;}</style></defs><title>coins_step1(1x1)</title><g id="Layer_2" data-name="Layer 2"><g id="Illustrations"><rect class="cls-1" width="440" height="300"/><path class="cls-2" d="M203.36,144.2,203,144c-9.37-5.41-24.57-5.41-33.94,0l-.33.2h-6.7v8c0,3.55,2.34,7.09,7,9.8,9.37,5.41,24.57,5.41,33.94,0,4.69-2.71,7-6.25,7-9.8v-8Z"/><path class="cls-3" d="M203,162c4.69-2.71,7-6.25,7-9.8v-8h-6.7L203,144c-4.69-2.7-10.83-4.05-17-4.05v26.11C192.2,166.06,198.34,164.71,203,162Z"/><ellipse class="cls-4" cx="186.06" cy="144.2" rx="24" ry="13.86"/><ellipse class="cls-5" cx="186.06" cy="144.2" rx="24" ry="13.86"/><ellipse class="cls-1" cx="186.06" cy="152.2" rx="24" ry="13.86"/><path class="cls-6" d="M210.06,152.2v-8h0c0-3.54-2.34-7.09-7-9.8-9.37-5.41-24.57-5.41-33.94,0-4.69,2.71-7,6.26-7,9.8h0v8c0,3.55,2.34,7.09,7,9.8s10.83,4.06,17,4.06c.77,0,1.53,0,2.3-.07a39.72,39.72,0,0,0,4.53-.5c.74-.13,1.48-.28,2.2-.45a29.11,29.11,0,0,0,7.94-3,15,15,0,0,0,6-5.85A8.62,8.62,0,0,0,210.06,152.2Z"/><path class="cls-3" d="M175.83,144.74a.4.4,0,0,1-.22-.06l-3.24-1.87c-.11-.06-.15-.15-.1-.22a.42.42,0,0,1,.37-.14l10.89.54c.25,0,.45-.11.43-.25l-.89-6.3a.19.19,0,0,1,.15-.2.59.59,0,0,1,.47,0l3.12,1.8a.2.2,0,0,1,.1.13l1,6.84v.07c0,.1-.13.19-.32.19h-.12Z"/><path class="cls-3" d="M189.65,145.19c0,.11.17.2.36.21l9.45.5a.46.46,0,0,0,.34-.09c.11-.08.09-.2,0-.27l-3.12-1.8a.64.64,0,0,0-.22-.06l-6.58-.38c-.24,0-.44.1-.42.24Z"/><path class="cls-3" d="M187.76,146.26c.19,0,.34.1.36.21l1,5.49a.19.19,0,0,1-.15.2.59.59,0,0,1-.47,0l-3.12-1.8a.22.22,0,0,1-.11-.13l-.6-3.81c0-.14.18-.26.42-.24Z"/><path class="cls-2" d="M203.36,136.2,203,136c-9.37-5.41-24.57-5.41-33.94,0l-.33.2h-6.7v8c0,3.55,2.34,7.09,7,9.8,9.37,5.41,24.57,5.41,33.94,0,4.69-2.71,7-6.25,7-9.8v-8Z"/><path class="cls-3" d="M203,154c4.69-2.71,7-6.25,7-9.8v-8h-6.7L203,136c-4.69-2.7-10.83-4.05-17-4.05v26.11C192.2,158.06,198.34,156.71,203,154Z"/><ellipse class="cls-4" cx="186.06" cy="136.2" rx="24" ry="13.86"/><ellipse class="cls-5" cx="186.06" cy="136.2" rx="24" ry="13.86"/><ellipse class="cls-1" cx="186.06" cy="144.2" rx="24" ry="13.86"/><path class="cls-6" d="M210.06,144.2v-8h0c0-3.54-2.34-7.09-7-9.8-9.37-5.41-24.57-5.41-33.94,0-4.69,2.71-7,6.26-7,9.8h0v8c0,3.55,2.34,7.09,7,9.8s10.83,4.06,17,4.06c.77,0,1.53,0,2.3-.07a39.72,39.72,0,0,0,4.53-.5c.74-.13,1.48-.28,2.2-.45a29.11,29.11,0,0,0,7.94-3,15,15,0,0,0,6-5.85A8.62,8.62,0,0,0,210.06,144.2Z"/><path class="cls-3" d="M175.83,136.74a.4.4,0,0,1-.22-.06l-3.24-1.87c-.11-.06-.15-.15-.1-.22a.42.42,0,0,1,.37-.14l10.89.54c.25,0,.45-.11.43-.25l-.89-6.3a.19.19,0,0,1,.15-.2.59.59,0,0,1,.47,0l3.12,1.8a.2.2,0,0,1,.1.13l1,6.84v.07c0,.1-.13.19-.32.19h-.12Z"/><path class="cls-3" d="M189.65,137.19c0,.11.17.2.36.21l9.45.5a.46.46,0,0,0,.34-.09c.11-.08.09-.2,0-.27l-3.12-1.8a.64.64,0,0,0-.22-.06l-6.58-.38c-.24,0-.44.1-.42.24Z"/><path class="cls-3" d="M187.76,138.26c.19,0,.34.1.36.21l1,5.49a.19.19,0,0,1-.15.2.59.59,0,0,1-.47,0l-3.12-1.8a.22.22,0,0,1-.11-.13l-.6-3.81c0-.14.18-.26.42-.24Z"/><path class="cls-2" d="M203.36,128.2,203,128c-9.37-5.41-24.57-5.41-33.94,0l-.33.2h-6.7v8c0,3.55,2.34,7.09,7,9.8,9.37,5.41,24.57,5.41,33.94,0,4.69-2.71,7-6.25,7-9.8v-8Z"/><path class="cls-3" d="M203,146c4.69-2.71,7-6.25,7-9.8v-8h-6.7L203,128c-4.69-2.7-10.83-4-17-4v26.11C192.2,150.06,198.34,148.71,203,146Z"/><ellipse class="cls-4" cx="186.06" cy="128.2" rx="24" ry="13.86"/><ellipse class="cls-5" cx="186.06" cy="128.2" rx="24" ry="13.86"/><ellipse class="cls-1" cx="186.06" cy="136.2" rx="24" ry="13.86"/><path class="cls-6" d="M210.06,136.2v-8h0c0-3.54-2.34-7.09-7-9.8-9.37-5.41-24.57-5.41-33.94,0-4.69,2.71-7,6.26-7,9.8h0v8c0,3.55,2.34,7.09,7,9.8s10.83,4.06,17,4.06c.77,0,1.53,0,2.3-.07a39.72,39.72,0,0,0,4.53-.5c.74-.13,1.48-.28,2.2-.45a29.11,29.11,0,0,0,7.94-3,15,15,0,0,0,6-5.85A8.62,8.62,0,0,0,210.06,136.2Z"/><path class="cls-3" d="M175.83,128.75a.52.52,0,0,1-.22-.07l-3.24-1.87c-.11-.06-.15-.14-.1-.22a.42.42,0,0,1,.37-.14l10.89.54c.25,0,.45-.11.43-.25l-.89-6.3a.19.19,0,0,1,.15-.2.59.59,0,0,1,.47,0l3.12,1.8a.2.2,0,0,1,.1.14l1,6.83v.07c0,.1-.13.19-.32.19h-.12Z"/><path class="cls-3" d="M189.65,129.19c0,.11.17.2.36.21l9.45.5a.51.51,0,0,0,.34-.08c.11-.09.09-.2,0-.28l-3.12-1.8a.64.64,0,0,0-.22-.06l-6.58-.38c-.24,0-.44.1-.42.24Z"/><path class="cls-3" d="M187.76,130.26c.19,0,.34.1.36.21l1,5.49a.19.19,0,0,1-.15.2.59.59,0,0,1-.47,0l-3.12-1.8a.2.2,0,0,1-.11-.13l-.6-3.81c0-.14.18-.25.42-.24Z"/><path class="cls-2" d="M271.24,144.2l-.33-.2c-9.37-5.41-24.57-5.41-33.94,0l-.33.2h-6.7v8c0,3.55,2.34,7.09,7,9.8,9.37,5.41,24.57,5.41,33.94,0,4.69-2.71,7-6.25,7-9.8v-8Z"/><path class="cls-3" d="M270.91,162c4.69-2.71,7-6.25,7-9.8v-8h-6.7l-.33-.2c-4.68-2.7-10.83-4.05-17-4.05v26.11C260.08,166.06,266.23,164.71,270.91,162Z"/><ellipse class="cls-4" cx="253.94" cy="144.2" rx="24" ry="13.86"/><ellipse class="cls-5" cx="253.94" cy="144.2" rx="24" ry="13.86"/><ellipse class="cls-1" cx="253.94" cy="152.2" rx="24" ry="13.86"/><path class="cls-6" d="M277.94,152.2v-8h0c0-3.54-2.34-7.09-7-9.8-9.37-5.41-24.57-5.41-33.94,0-4.69,2.71-7,6.26-7,9.8h0v8c0,3.55,2.34,7.09,7,9.8s10.83,4.06,17,4.06c.77,0,1.54,0,2.3-.07a39.72,39.72,0,0,0,4.53-.5c.75-.13,1.48-.28,2.2-.45a29.11,29.11,0,0,0,7.94-3,15,15,0,0,0,6-5.85A8.62,8.62,0,0,0,277.94,152.2Z"/><path class="cls-3" d="M243.71,144.75a.52.52,0,0,1-.22-.07l-3.24-1.87c-.1-.06-.15-.14-.1-.22a.42.42,0,0,1,.37-.14l10.9.54c.24,0,.44-.11.42-.25l-.89-6.3a.19.19,0,0,1,.15-.2.59.59,0,0,1,.47,0l3.12,1.8c.06,0,.1.08.1.14l1,6.83v.07c0,.1-.14.19-.32.19h-.13Z"/><path class="cls-3" d="M257.53,145.19c0,.11.17.2.36.21l9.45.5a.55.55,0,0,0,.35-.08c.1-.09.08-.2-.05-.28l-3.11-1.8a.7.7,0,0,0-.23-.06l-6.57-.38c-.24,0-.45.1-.43.24Z"/><path class="cls-3" d="M255.64,146.26c.19,0,.34.1.36.21l1,5.49a.19.19,0,0,1-.15.2.59.59,0,0,1-.47,0l-3.12-1.8a.16.16,0,0,1-.1-.13l-.61-3.81c0-.14.18-.25.43-.24Z"/><path class="cls-2" d="M271.24,136.2l-.33-.2c-9.37-5.41-24.57-5.41-33.94,0l-.33.2h-6.7v8c0,3.55,2.34,7.09,7,9.8,9.37,5.41,24.57,5.41,33.94,0,4.69-2.71,7-6.25,7-9.8v-8Z"/><path class="cls-3" d="M270.91,154c4.69-2.71,7-6.25,7-9.8v-8h-6.7l-.33-.2c-4.68-2.7-10.83-4.05-17-4.05v26.11C260.08,158.06,266.23,156.71,270.91,154Z"/><ellipse class="cls-4" cx="253.94" cy="136.2" rx="24" ry="13.86"/><ellipse class="cls-5" cx="253.94" cy="136.2" rx="24" ry="13.86"/><ellipse class="cls-1" cx="253.94" cy="144.2" rx="24" ry="13.86"/><path class="cls-6" d="M277.94,144.2v-8h0c0-3.54-2.34-7.09-7-9.8-9.37-5.41-24.57-5.41-33.94,0-4.69,2.71-7,6.26-7,9.8h0v8c0,3.55,2.34,7.09,7,9.8s10.83,4.06,17,4.06c.77,0,1.54,0,2.3-.07a39.72,39.72,0,0,0,4.53-.5c.75-.13,1.48-.28,2.2-.45a29.11,29.11,0,0,0,7.94-3,15,15,0,0,0,6-5.85A8.62,8.62,0,0,0,277.94,144.2Z"/><path class="cls-3" d="M243.71,136.74a.4.4,0,0,1-.22-.06l-3.24-1.87c-.1-.06-.15-.14-.1-.22a.42.42,0,0,1,.37-.14l10.9.54c.24,0,.44-.11.42-.25l-.89-6.3a.19.19,0,0,1,.15-.2.59.59,0,0,1,.47,0l3.12,1.8c.06,0,.1.08.1.13l1,6.84v.07c0,.1-.14.19-.32.19h-.13Z"/><path class="cls-3" d="M257.53,137.19c0,.11.17.2.36.21l9.45.5a.55.55,0,0,0,.35-.08c.1-.09.08-.2-.05-.28l-3.11-1.8a.7.7,0,0,0-.23-.06l-6.57-.38c-.24,0-.45.1-.43.24Z"/><path class="cls-3" d="M255.64,138.26c.19,0,.34.1.36.21l1,5.49a.19.19,0,0,1-.15.2.59.59,0,0,1-.47,0l-3.12-1.8a.16.16,0,0,1-.1-.13l-.61-3.81c0-.14.18-.25.43-.24Z"/><path class="cls-2" d="M237.3,163.8l-.33-.2c-9.37-5.41-24.57-5.41-33.94,0l-.33.2H196v8c0,3.54,2.34,7.09,7,9.8,9.37,5.41,24.57,5.41,33.94,0,4.69-2.71,7-6.26,7-9.8v-8Z"/><path class="cls-3" d="M237,181.6c4.69-2.71,7-6.26,7-9.8v-8h-6.7l-.33-.2c-4.69-2.71-10.83-4.06-17-4.06v26.11C226.14,185.65,232.28,184.3,237,181.6Z"/><ellipse class="cls-4" cx="220" cy="163.8" rx="24" ry="13.86"/><ellipse class="cls-5" cx="220" cy="163.8" rx="24" ry="13.86"/><ellipse class="cls-1" cx="220" cy="171.8" rx="24" ry="13.86"/><path class="cls-6" d="M244,171.8v-8h0c0-3.55-2.34-7.09-7-9.8-9.37-5.41-24.57-5.41-33.94,0-4.69,2.71-7,6.25-7,9.8h0v8c0,3.54,2.34,7.09,7,9.8s10.83,4.05,17,4.05c.77,0,1.54,0,2.3-.06a37.59,37.59,0,0,0,4.53-.51c.75-.12,1.48-.27,2.2-.44a29.44,29.44,0,0,0,7.94-3,15,15,0,0,0,6-5.86A8.55,8.55,0,0,0,244,171.8Z"/><path class="cls-3" d="M209.77,164.34a.4.4,0,0,1-.22-.06l-3.24-1.87c-.11-.06-.15-.15-.1-.23a.42.42,0,0,1,.37-.13l10.9.53c.24,0,.44-.1.42-.24L217,156a.19.19,0,0,1,.15-.2.59.59,0,0,1,.47,0l3.12,1.8a.16.16,0,0,1,.1.13l1,6.84v.06c0,.11-.13.2-.31.19h-.13Z"/><path class="cls-3" d="M223.59,164.79c0,.11.17.2.36.2l9.45.51a.57.57,0,0,0,.34-.09c.11-.09.09-.2,0-.27l-3.11-1.8a.52.52,0,0,0-.23-.06l-6.57-.39c-.25,0-.45.11-.43.25Z"/><path class="cls-3" d="M221.7,165.86c.19,0,.34.1.36.21l1,5.49a.19.19,0,0,1-.15.2.59.59,0,0,1-.47,0l-3.12-1.8c-.06,0-.1-.08-.1-.14l-.61-3.8c0-.14.18-.26.42-.25Z"/></g></g></svg>