<svg xmlns="http://www.w3.org/2000/svg" viewBox="0 0 440 300"><defs><style>.cls-1,.cls-11,.cls-14,.cls-15,.cls-16,.cls-17,.cls-18,.cls-2,.cls-3,.cls-7{fill:none;}.cls-1,.cls-2,.cls-3,.cls-4,.cls-5,.cls-6{stroke:#b8bfca;}.cls-1,.cls-10,.cls-11,.cls-12,.cls-14,.cls-15,.cls-16,.cls-17,.cls-2,.cls-3,.cls-4,.cls-5,.cls-6,.cls-7,.cls-8,.cls-9{stroke-linecap:round;stroke-linejoin:round;stroke-width:2px;}.cls-2{stroke-dasharray:0 5.94;}.cls-3{stroke-dasharray:0 5.94;}.cls-4{fill:#d5dae0;}.cls-12,.cls-5,.cls-8{fill:#fff;}.cls-6{fill:#f2f4f6;}.cls-12,.cls-7{stroke:#627386;}.cls-10,.cls-16,.cls-8,.cls-9{stroke:#91d2fb;}.cls-13,.cls-9{fill:#bde4fd;}.cls-10{fill:#e9f6fe;}.cls-11,.cls-14,.cls-15{stroke:#1b6dc6;}.cls-14{stroke-dasharray:0 6.3;}.cls-15{stroke-dasharray:0 5.4;}.cls-17{stroke:#d5dae0;}</style></defs><title>foundation_central_step1(2x1)</title><g id="Layer_2" data-name="Layer 2"><g id="Illustrations"><line class="cls-1" x1="358" y1="155.52" x2="358" y2="155.52"/><line class="cls-2" x1="352.86" y1="152.55" x2="324.57" y2="136.22"/><line class="cls-1" x1="322" y1="134.74" x2="322" y2="134.74"/><line class="cls-1" x1="322" y1="201.71" x2="322" y2="201.71"/><line class="cls-3" x1="327.14" y1="198.74" x2="355.43" y2="182.41"/><line class="cls-1" x1="358" y1="180.93" x2="358" y2="180.93"/><line class="cls-1" x1="242" y1="247.9" x2="242" y2="247.9"/><line class="cls-3" x1="247.14" y1="244.93" x2="275.43" y2="228.6"/><line class="cls-1" x1="278" y1="227.11" x2="278" y2="227.11"/><line class="cls-1" x1="162" y1="227.11" x2="162" y2="227.11"/><line class="cls-2" x1="167.14" y1="230.08" x2="195.43" y2="246.41"/><line class="cls-1" x1="198" y1="247.9" x2="198" y2="247.9"/><line class="cls-1" x1="82" y1="180.93" x2="82" y2="180.93"/><line class="cls-2" x1="87.14" y1="183.9" x2="115.43" y2="200.23"/><line class="cls-1" x1="118" y1="201.71" x2="118" y2="201.71"/><line class="cls-1" x1="118" y1="134.74" x2="118" y2="134.74"/><line class="cls-3" x1="112.86" y1="137.71" x2="84.57" y2="154.04"/><line class="cls-1" x1="82" y1="155.52" x2="82" y2="155.52"/><polygon class="cls-4" points="242.05 261.51 220 274.24 220 259.84 242.05 247.11 242.05 261.51"/><polygon class="cls-5" points="242.05 247.11 220 234.38 220 234.38 197.95 247.11 197.95 247.11 197.95 247.11 220 259.84 220 259.84 242.05 247.11"/><polygon class="cls-6" points="197.95 261.51 220 274.24 220 259.84 197.95 247.11 197.95 261.51"/><polygon class="cls-7" points="220 234.38 197.95 247.11 197.95 261.51 220 274.24 242.05 261.51 242.05 247.11 220 234.38"/><line class="cls-1" x1="220" y1="242.43" x2="220" y2="251.78"/><line class="cls-1" x1="228.1" y1="247.11" x2="211.9" y2="247.11"/><polygon class="cls-4" points="322.05 214.41 300 227.14 300 212.74 322.05 200.01 322.05 214.41"/><polygon class="cls-5" points="322.05 200.01 300 187.28 300 187.28 277.95 200.01 277.95 200.01 277.95 200.01 300 212.74 300 212.74 322.05 200.01"/><polygon class="cls-6" points="277.95 214.41 300 227.14 300 212.74 277.95 200.01 277.95 214.41"/><polygon class="cls-7" points="300 187.28 277.95 200.01 277.95 214.41 300 227.14 322.05 214.41 322.05 200.01 300 187.28"/><polygon class="cls-1" points="291 200.01 300 194.82 300 194.82 309 200.01 309 200.01 309 200.01 300 205.21 300 205.21 291 200.01"/><polygon class="cls-4" points="162.05 122.04 140 134.77 140 120.37 162.05 107.64 162.05 122.04"/><polygon class="cls-5" points="162.05 107.64 140 94.91 140 94.91 117.95 107.64 117.95 107.64 117.95 107.64 140 120.37 140 120.37 162.05 107.64"/><polygon class="cls-6" points="117.95 122.04 140 134.77 140 120.37 117.95 107.64 117.95 122.04"/><polygon class="cls-7" points="140 94.91 117.95 107.64 117.95 122.04 140 134.77 162.05 122.04 162.05 107.64 140 94.91"/><rect class="cls-1" x="134.5" y="104.46" width="11" height="6.35"/><polygon class="cls-4" points="402.05 168.22 380 180.96 380 166.56 402.05 153.82 402.05 168.22"/><polygon class="cls-5" points="402.05 153.82 380 141.09 380 141.09 357.95 153.82 357.95 153.82 357.95 153.82 380 166.56 380 166.56 402.05 153.82"/><polygon class="cls-6" points="357.95 168.22 380 180.96 380 166.56 357.95 153.82 357.95 168.22"/><polygon class="cls-7" points="380 141.09 357.95 153.82 357.95 168.22 380 180.96 402.05 168.22 402.05 153.82 380 141.09"/><polygon class="cls-1" points="372 155.06 374.14 150.44 382.14 149.21 388 152.59 385.86 157.21 377.86 158.44 372 155.06"/><polygon class="cls-4" points="322.05 122.04 300 134.77 300 120.37 322.05 107.64 322.05 122.04"/><polygon class="cls-5" points="322.05 107.64 300 94.91 300 94.91 277.95 107.64 277.95 107.64 277.95 107.64 300 120.37 300 120.37 322.05 107.64"/><polygon class="cls-6" points="277.95 122.04 300 134.77 300 120.37 277.95 107.64 277.95 122.04"/><polygon class="cls-7" points="300 94.91 277.95 107.64 277.95 122.04 300 134.77 322.05 122.04 322.05 107.64 300 94.91"/><line class="cls-5" x1="294.27" y1="110.94" x2="305.47" y2="104.48"/><line class="cls-5" x1="305.47" y1="110.94" x2="294.27" y2="104.48"/><polygon class="cls-8" points="242.05 38.49 220 25.76 220 25.76 197.95 38.49 197.95 38.49 197.95 38.49 220 51.23 220 51.23 242.05 38.49"/><polygon class="cls-9" points="242.05 52.89 220 65.63 220 51.23 242.05 38.49 242.05 52.89"/><polygon class="cls-10" points="197.95 52.89 220 65.63 220 51.23 197.95 38.49 197.95 52.89"/><polygon class="cls-11" points="220 25.76 197.95 38.49 197.95 52.89 220 65.63 242.05 52.89 242.05 38.49 220 25.76"/><polygon class="cls-12" points="233.5 175.75 220 167.96 206.5 175.75 220 183.55 233.5 175.75"/><polygon class="cls-12" points="233.5 175.75 220 167.96 206.5 175.75 220 183.55 233.5 175.75"/><polygon class="cls-12" points="233.5 175.75 220 167.96 206.5 175.75 220 183.55 233.5 175.75"/><polygon class="cls-8" points="264.1 153.82 220 128.36 220 128.36 175.9 153.82 175.9 153.82 175.9 153.82 220 179.29 220 179.29 264.1 153.82"/><polygon class="cls-9" points="264.1 168.22 220 193.69 220 179.29 264.1 153.82 264.1 168.22"/><polygon class="cls-10" points="175.9 168.22 220 193.69 220 179.29 175.9 153.82 175.9 168.22"/><polygon class="cls-11" points="220 128.36 175.9 153.82 175.9 168.22 220 193.69 264.1 168.22 264.1 153.82 220 128.36"/><path class="cls-13" d="M207.41,154.49a.64.64,0,0,1-.28-.07l-4-2.3c-.13-.08-.19-.19-.12-.28a.53.53,0,0,1,.46-.17l13.4.66c.3,0,.55-.13.53-.3l-1.1-7.76a.24.24,0,0,1,.19-.24.7.7,0,0,1,.57,0l3.84,2.22a.25.25,0,0,1,.13.16l1.26,8.42v.08c0,.13-.17.24-.39.23h-.15Z"/><path class="cls-13" d="M224.42,155c0,.14.21.25.44.26l11.63.62a.71.71,0,0,0,.43-.11c.13-.11.1-.25,0-.33L233,153.26a.58.58,0,0,0-.28-.07l-8.09-.48c-.3,0-.55.13-.52.3Z"/><path class="cls-13" d="M222.09,156.36c.24,0,.42.12.44.26l1.18,6.76c0,.09-.05.19-.18.24a.73.73,0,0,1-.58,0l-3.84-2.22a.28.28,0,0,1-.13-.16l-.74-4.69c0-.17.23-.31.52-.3Z"/><polygon class="cls-8" points="264.1 139.43 220 113.96 220 113.96 175.9 139.43 175.9 139.43 175.9 139.43 220 164.89 220 164.89 264.1 139.43"/><polygon class="cls-9" points="264.1 153.82 220 179.29 220 164.89 264.1 139.43 264.1 153.82"/><polygon class="cls-10" points="175.9 153.82 220 179.29 220 164.89 175.9 139.43 175.9 153.82"/><polygon class="cls-11" points="220 113.96 175.9 139.43 175.9 153.82 220 179.29 264.1 153.82 264.1 139.43 220 113.96"/><path class="cls-13" d="M207.41,140.09a.64.64,0,0,1-.28-.07l-4-2.3c-.13-.08-.19-.19-.12-.28a.53.53,0,0,1,.46-.17l13.4.66c.3,0,.55-.13.53-.3l-1.1-7.76a.24.24,0,0,1,.19-.24.7.7,0,0,1,.57,0l3.84,2.22a.25.25,0,0,1,.13.16l1.26,8.42v.08c0,.13-.17.24-.39.23h-.15Z"/><path class="cls-13" d="M224.42,140.64c0,.14.21.25.44.26l11.63.62a.71.71,0,0,0,.43-.11c.13-.11.1-.25,0-.33L233,138.86a.58.58,0,0,0-.28-.07l-8.09-.48c-.3,0-.55.13-.52.3Z"/><path class="cls-13" d="M222.09,142c.24,0,.42.12.44.26l1.18,6.76c0,.09-.05.19-.18.24a.73.73,0,0,1-.58,0L219.11,147a.28.28,0,0,1-.13-.16l-.74-4.69c0-.17.23-.31.52-.3Z"/><line class="cls-11" x1="264.1" y1="101.63" x2="264.1" y2="101.63"/><line class="cls-14" x1="264.1" y1="107.92" x2="264.1" y2="136.27"/><line class="cls-11" x1="264.1" y1="139.42" x2="264.1" y2="139.42"/><line class="cls-11" x1="242.05" y1="52.89" x2="242.05" y2="52.89"/><line class="cls-15" x1="242.05" y1="58.29" x2="242.05" y2="71.79"/><line class="cls-11" x1="242.05" y1="74.49" x2="242.05" y2="74.49"/><line class="cls-11" x1="197.95" y1="52.89" x2="197.95" y2="52.89"/><line class="cls-15" x1="197.95" y1="58.29" x2="197.95" y2="71.79"/><line class="cls-11" x1="197.95" y1="74.49" x2="197.95" y2="74.49"/><ellipse class="cls-16" cx="220" cy="38.49" rx="7.79" ry="4.5"/><polygon class="cls-8" points="264.1 87.22 242.05 74.49 242.05 74.49 220 87.22 220 87.22 220 87.22 242.05 99.96 242.05 99.96 264.1 87.22"/><polygon class="cls-9" points="264.1 101.63 242.05 114.36 242.05 99.96 264.1 87.22 264.1 101.63"/><polygon class="cls-10" points="220 101.63 242.05 114.36 242.05 99.96 220 87.22 220 101.63"/><polygon class="cls-11" points="242.05 74.49 220 87.22 220 101.63 242.05 114.36 264.1 101.63 264.1 87.22 242.05 74.49"/><ellipse class="cls-16" cx="242.05" cy="87.22" rx="7.79" ry="4.5"/><polygon class="cls-8" points="220 87.22 197.95 74.49 197.95 74.49 175.9 87.22 175.9 87.22 175.9 87.22 197.95 99.96 197.95 99.96 220 87.22"/><polygon class="cls-9" points="220 101.63 197.95 114.36 197.95 99.96 220 87.22 220 101.63"/><polygon class="cls-10" points="175.9 101.63 197.95 114.36 197.95 99.96 175.9 87.22 175.9 101.63"/><polygon class="cls-11" points="197.95 74.49 175.9 87.22 175.9 101.63 197.95 114.36 220 101.63 220 87.22 197.95 74.49"/><ellipse class="cls-16" cx="197.95" cy="87.23" rx="7.79" ry="4.5"/><polygon class="cls-8" points="242.05 99.96 220 87.22 220 87.22 197.95 99.96 197.95 99.96 197.95 99.96 220 112.69 220 112.69 242.05 99.96"/><polygon class="cls-9" points="242.05 114.36 220 127.09 220 112.69 242.05 99.96 242.05 114.36"/><polygon class="cls-10" points="197.95 114.36 220 127.09 220 112.69 197.95 99.96 197.95 114.36"/><polygon class="cls-11" points="220 87.22 197.95 99.96 197.95 114.36 220 127.09 242.05 114.36 242.05 99.96 220 87.22"/><ellipse class="cls-16" cx="220" cy="99.96" rx="7.79" ry="4.5"/><polygon class="cls-4" points="162.05 214.41 140 227.14 140 212.74 162.05 200.01 162.05 214.41"/><polygon class="cls-5" points="162.05 200.01 140 187.28 140 187.28 117.95 200.01 117.95 200.01 117.95 200.01 140 212.74 140 212.74 162.05 200.01"/><polygon class="cls-6" points="117.95 214.41 140 227.14 140 212.74 117.95 200.01 117.95 214.41"/><polygon class="cls-7" points="140 187.28 117.95 200.01 117.95 214.41 140 227.14 162.05 214.41 162.05 200.01 140 187.28"/><polygon class="cls-1" points="131.11 200.97 135.66 195.82 145.55 196.73 147.11 202.44 138.19 205.06 131.11 200.97"/><path class="cls-17" d="M76.88,179.7a1.5,1.5,0,0,0,.88,1.23,4.74,4.74,0,0,0,4.24,0,1.52,1.52,0,0,0,.88-1.23,1.49,1.49,0,0,0-.88-1.22,4.66,4.66,0,0,0-4.24,0A1.47,1.47,0,0,0,76.88,179.7Z"/><path class="cls-17" d="M117.12,133.51a1.51,1.51,0,0,0,.88,1.23,4.66,4.66,0,0,0,4.24,0,1.29,1.29,0,0,0,0-2.45,4.66,4.66,0,0,0-4.24,0A1.51,1.51,0,0,0,117.12,133.51Z"/><path class="cls-17" d="M156.88,225.89a1.47,1.47,0,0,0,.88,1.22,4.66,4.66,0,0,0,4.24,0,1.29,1.29,0,0,0,0-2.44,4.66,4.66,0,0,0-4.24,0A1.47,1.47,0,0,0,156.88,225.89Z"/><path class="cls-17" d="M277.12,225.89a1.49,1.49,0,0,0,.88,1.22,4.66,4.66,0,0,0,4.24,0,1.29,1.29,0,0,0,0-2.44,4.66,4.66,0,0,0-4.24,0A1.49,1.49,0,0,0,277.12,225.89Z"/><path class="cls-17" d="M357.12,179.7a1.52,1.52,0,0,0,.88,1.23,4.74,4.74,0,0,0,4.24,0,1.5,1.5,0,0,0,.88-1.23,1.47,1.47,0,0,0-.88-1.22,4.66,4.66,0,0,0-4.24,0A1.49,1.49,0,0,0,357.12,179.7Z"/><path class="cls-17" d="M316.88,133.51a1.49,1.49,0,0,0,.88,1.23,4.66,4.66,0,0,0,4.24,0,1.29,1.29,0,0,0,0-2.45,4.66,4.66,0,0,0-4.24,0A1.49,1.49,0,0,0,316.88,133.51Z"/><line class="cls-11" x1="175.9" y1="101.63" x2="175.9" y2="101.63"/><line class="cls-14" x1="175.9" y1="107.92" x2="175.9" y2="136.27"/><line class="cls-11" x1="175.9" y1="139.42" x2="175.9" y2="139.42"/><polygon class="cls-4" points="82.05 168.22 60 180.96 60 166.56 82.05 153.82 82.05 168.22"/><polygon class="cls-5" points="82.05 153.82 60 141.09 60 141.09 37.95 153.82 37.95 153.82 37.95 153.82 60 166.56 60 166.56 82.05 153.82"/><polygon class="cls-6" points="37.95 168.22 60 180.96 60 166.56 37.95 153.82 37.95 168.22"/><polygon class="cls-1" points="55.26 156.56 49.4 153.18 57.4 151.94 65.4 150.71 63.26 155.32 61.12 159.94 55.26 156.56"/><polygon class="cls-7" points="60 141.09 37.95 153.82 37.95 168.22 60 180.96 82.05 168.22 82.05 153.82 60 141.09"/><rect class="cls-18" width="440" height="300"/></g></g></svg>