<svg xmlns="http://www.w3.org/2000/svg" viewBox="0 0 440 300"><defs><style>.cls-1{fill:#f2f4f6;}.cls-1,.cls-10,.cls-18,.cls-3,.cls-5,.cls-6{stroke:#b8bfca;}.cls-1,.cls-10,.cls-11,.cls-12,.cls-15,.cls-16,.cls-18,.cls-3,.cls-4,.cls-5,.cls-6,.cls-8{stroke-linecap:round;stroke-linejoin:round;}.cls-1,.cls-10,.cls-11,.cls-12,.cls-13,.cls-15,.cls-16,.cls-18,.cls-3,.cls-4,.cls-5,.cls-6,.cls-8{stroke-width:2px;}.cls-2,.cls-6{fill:#d5dae0;}.cls-15,.cls-3,.cls-9{fill:#fff;}.cls-10,.cls-11,.cls-12,.cls-13,.cls-16,.cls-17,.cls-18,.cls-4,.cls-5,.cls-8{fill:none;}.cls-4{stroke:#627386;}.cls-7{fill:#e9f6fe;}.cls-11,.cls-12,.cls-13,.cls-15,.cls-8{stroke:#91d2fb;}.cls-10{stroke-dasharray:0 9.16;}.cls-11{stroke-dasharray:0 6.89;}.cls-12{stroke-dasharray:0 7.64;}.cls-13{stroke-miterlimit:10;}.cls-14{fill:#bde4fd;}.cls-16{stroke:#1b6dc6;}.cls-18{stroke-dasharray:0 7.12;}</style></defs><title>prism_pro_step3(1x1)</title><g id="Layer_2" data-name="Layer 2"><g id="Illustrations"><path class="cls-1" d="M324.49,142.56v-9.51H315.9L212.32,73.25c-7.42-4.29-19.47-4.29-26.89,0L81.85,133.05H73.26v9.51h0c0,2.81,1.85,5.62,5.57,7.76l106.6,61.55c7.42,4.29,19.47,4.29,26.89,0l106.6-61.55C322.64,148.18,324.49,145.37,324.49,142.56Z"/><path class="cls-2" d="M212.32,73.25A27.43,27.43,0,0,0,198.93,70V215.08a27.53,27.53,0,0,0,13.39-3.21l106.6-61.55c3.72-2.14,5.57-4.95,5.57-7.76v-9.51H315.9Z"/><path class="cls-3" d="M318.92,140.81l-106.6,61.55c-7.42,4.29-19.47,4.29-26.89,0L78.83,140.81c-7.43-4.28-7.43-11.24,0-15.53l106.6-61.54c7.42-4.29,19.47-4.29,26.89,0l106.6,61.54C326.35,129.57,326.35,136.53,318.92,140.81Z"/><path class="cls-4" d="M318.92,125.28,212.32,63.74c-7.42-4.29-19.47-4.29-26.89,0L78.83,125.28c-3.72,2.15-5.57,5-5.57,7.77h0v9.51h0c0,2.81,1.85,5.62,5.57,7.76l106.6,61.55c7.42,4.29,19.47,4.29,26.89,0l106.6-61.55c3.72-2.14,5.57-4.95,5.57-7.76v-9.51C324.49,130.24,322.64,127.43,318.92,125.28Z"/><path class="cls-5" d="M256,127.55l9.52,5.5-9.52,5.5"/><path class="cls-5" d="M185.61,94l10.68-6.17L207,94"/><path class="cls-5" d="M141.76,138.55l-9.52-5.5,9.52-5.5"/><path class="cls-5" d="M208.39,166l-9.52,5.49L189.36,166"/><polygon class="cls-6" points="251.29 133.05 198.93 163.18 198.95 145.74 251.32 115.61 251.29 133.05"/><polygon class="cls-1" points="146.65 132.9 198.93 163.18 198.95 145.74 146.67 115.46 146.65 132.9"/><polygon class="cls-3" points="251.32 115.61 199.04 85.33 146.67 115.46 198.95 145.74 251.32 115.61"/><polygon class="cls-5" points="251.32 115.61 225.18 100.47 199 115.53 225.14 130.68 251.32 115.61"/><polygon class="cls-5" points="251.32 115.61 199.04 85.33 146.67 115.46 198.95 145.74 251.32 115.61"/><ellipse class="cls-5" cx="225.11" cy="115.61" rx="7.55" ry="4.36"/><ellipse class="cls-2" cx="199.03" cy="93.06" rx="2.52" ry="1.45"/><ellipse class="cls-2" cx="160.08" cy="115.48" rx="2.52" ry="1.45"/><ellipse class="cls-2" cx="198.96" cy="138" rx="2.52" ry="1.45"/><polygon class="cls-4" points="225.18 100.47 225.18 100.47 199.04 85.33 146.67 115.46 146.65 132.9 198.93 163.18 251.29 133.05 251.32 115.61 225.18 100.47"/><path class="cls-3" d="M364,168.77a14.55,14.55,0,0,0-13.14,0l-106.6,61.55c-3.63,2.09-3.63,5.49,0,7.59a14.55,14.55,0,0,0,13.14,0L364,176.36C367.65,174.26,367.65,170.87,364,168.77Z"/><polyline class="cls-5" points="289.18 211.98 289.25 212.02 289.31 212.06"/><polyline class="cls-5" points="304.15 203.34 304.22 203.38 304.28 203.42"/><path class="cls-7" d="M310.66,207.09s-6.81-3.83-13.3-7.41l-53.08,30.64c-3.63,2.09-3.63,5.49,0,7.59a14.55,14.55,0,0,0,13.14,0l53.3-30.78Z"/><path class="cls-7" d="M310.66,207.09s-6.81-3.83-13.3-7.41l-53.08,30.64c-3.63,2.09-3.63,5.49,0,7.59a14.55,14.55,0,0,0,13.14,0l53.3-30.78Z"/><path class="cls-8" d="M310.66,207.09s-6.81-3.83-13.3-7.41l-53.08,30.64c-3.63,2.09-3.63,5.49,0,7.59a14.55,14.55,0,0,0,13.14,0l53.3-30.78Z"/><polyline class="cls-5" points="289.31 212.06 289.38 212.1 289.44 212.13"/><polyline class="cls-5" points="304.28 203.42 304.35 203.45 304.41 203.49"/><polyline class="cls-5" points="304.09 203.3 304.15 203.34 304.22 203.38"/><line class="cls-9" x1="255.99" y1="138.55" x2="208.39" y2="166.03"/><line class="cls-5" x1="255.99" y1="138.55" x2="255.99" y2="138.55"/><line class="cls-10" x1="248.06" y1="143.13" x2="212.36" y2="163.74"/><line class="cls-5" x1="208.39" y1="166.03" x2="208.39" y2="166.03"/><line class="cls-9" x1="189.36" y1="166.03" x2="141.76" y2="138.55"/><line class="cls-5" x1="189.36" y1="166.03" x2="189.36" y2="166.03"/><line class="cls-10" x1="181.42" y1="161.45" x2="145.72" y2="140.84"/><line class="cls-5" x1="141.76" y1="138.55" x2="141.76" y2="138.55"/><line class="cls-8" x1="289.31" y1="212.06" x2="289.31" y2="212.06"/><line class="cls-11" x1="283.37" y1="215.54" x2="262.55" y2="227.72"/><line class="cls-8" x1="259.58" y1="229.46" x2="259.58" y2="229.46"/><line class="cls-8" x1="297.58" y1="199.55" x2="297.58" y2="199.55"/><line class="cls-12" x1="291.08" y1="195.54" x2="281.32" y2="189.53"/><line class="cls-8" x1="278.07" y1="187.53" x2="278.07" y2="187.53"/><ellipse class="cls-13" cx="274.58" cy="186.27" rx="4.12" ry="2.38"/><path class="cls-7" d="M294.8,196.17v7.13c0,1.37.9,2.75,2.72,3.79a14.49,14.49,0,0,0,13.14,0c1.81-1,2.72-2.42,2.72-3.79v-7.13Z"/><path class="cls-14" d="M304.35,208.65a13.33,13.33,0,0,0,6.31-1.56c1.81-1,2.72-2.42,2.72-3.79v-7.13h-9Z"/><ellipse class="cls-15" cx="304.09" cy="196.17" rx="9.29" ry="5.36"/><path class="cls-16" d="M310.66,192.38a14.49,14.49,0,0,0-13.14,0c-1.82,1-2.72,2.42-2.72,3.79v7.13c0,1.37.9,2.75,2.72,3.79a14.49,14.49,0,0,0,13.14,0c1.81-1,2.72-2.42,2.72-3.79v-7.13C313.38,194.8,312.47,193.42,310.66,192.38Z"/><ellipse class="cls-17" cx="304.09" cy="203.3" rx="9.29" ry="5.36"/><polyline class="cls-5" points="319.25 194.77 319.32 194.81 319.38 194.85"/><polyline class="cls-5" points="334.22 186.13 334.28 186.17 334.35 186.21"/><polyline class="cls-5" points="349.19 177.49 349.25 177.53 349.32 177.57"/><line class="cls-9" x1="232.19" y1="152.29" x2="256.86" y2="166.53"/><line class="cls-5" x1="232.19" y1="152.28" x2="232.19" y2="152.28"/><line class="cls-18" x1="238.36" y1="155.85" x2="253.78" y2="164.75"/><line class="cls-5" x1="256.86" y1="166.53" x2="256.86" y2="166.53"/><rect class="cls-17" width="440" height="300"/></g></g></svg>