<svg xmlns="http://www.w3.org/2000/svg" viewBox="0 0 440 300"><defs><style>.cls-1{fill:#bde4fd;}.cls-14,.cls-18,.cls-2,.cls-4{fill:#fff;}.cls-3{fill:#e9f6fe;}.cls-4,.cls-5{stroke:#91d2fb;}.cls-13,.cls-14,.cls-16,.cls-18,.cls-19,.cls-4,.cls-5,.cls-7,.cls-8,.cls-9{stroke-linecap:round;stroke-linejoin:round;stroke-width:2px;}.cls-13,.cls-15,.cls-16,.cls-19,.cls-5,.cls-7,.cls-9{fill:none;}.cls-6{fill:#91d2fb;}.cls-7{stroke:#1b6dc6;}.cls-12,.cls-8{fill:#f2f4f6;}.cls-13,.cls-8{stroke:#627386;}.cls-14,.cls-9{stroke:#b8bfca;}.cls-10{fill:#b8bfca;}.cls-11{fill:#d5dae0;}.cls-16{stroke:#fff;}.cls-17{fill:#627386;}.cls-18,.cls-19{stroke:#d5dae0;}</style></defs><title>prism_pro_step3(1x1)_1</title><g id="Layer_2" data-name="Layer 2"><g id="Illustrations"><polygon class="cls-1" points="252.15 200.87 252.15 185.83 231.55 197.72 231.55 212.76 252.15 200.87"/><polygon class="cls-2" points="231.55 197.72 252.15 185.83 231.55 173.93 190.34 197.72 231.55 221.52 252.15 209.62 231.55 197.72"/><polygon class="cls-1" points="252.15 224.66 252.15 209.62 231.55 221.52 231.55 236.55 252.15 224.66"/><polygon class="cls-3" points="190.34 212.76 190.34 197.72 231.55 221.52 231.55 236.55 190.34 212.76"/><polygon class="cls-4" points="231.55 197.72 252.15 185.83 231.55 173.93 190.34 197.72 231.55 221.52 252.15 209.62 231.55 197.72"/><polygon class="cls-5" points="252.15 224.66 252.15 209.62 231.55 221.52 231.55 236.55 252.15 224.66"/><polygon class="cls-5" points="190.34 212.76 190.34 197.72 231.55 221.52 231.55 236.55 190.34 212.76"/><ellipse class="cls-6" cx="231.55" cy="180.81" rx="1.89" ry="1.09"/><ellipse class="cls-6" cx="231.55" cy="214.64" rx="1.89" ry="1.09"/><ellipse class="cls-6" cx="202.26" cy="197.73" rx="1.89" ry="1.09"/><polygon class="cls-7" points="252.15 185.83 231.55 173.93 190.34 197.72 190.34 212.76 231.55 236.55 252.15 224.66 252.15 209.62 244.57 205.24 252.15 200.87 252.15 185.83"/><polygon class="cls-8" points="326.17 243.6 284.96 267.39 243.75 243.6 284.96 219.81 326.17 243.6"/><polygon class="cls-2" points="326.17 228.56 284.96 252.35 243.75 228.56 284.96 204.77 326.17 228.56"/><polygon class="cls-9" points="326.17 228.56 305.56 240.46 284.96 228.56 305.56 216.67 326.17 228.56"/><ellipse class="cls-9" cx="305.56" cy="228.56" rx="5.67" ry="3.28"/><ellipse class="cls-10" cx="284.96" cy="211.65" rx="1.89" ry="1.09"/><ellipse class="cls-10" cx="314.25" cy="228.56" rx="1.89" ry="1.09"/><ellipse class="cls-10" cx="284.96" cy="245.47" rx="1.89" ry="1.09"/><ellipse class="cls-10" cx="255.67" cy="228.56" rx="1.89" ry="1.09"/><polygon class="cls-11" points="326.17 243.6 326.17 228.56 284.96 252.35 284.96 267.39 326.17 243.6"/><line class="cls-9" x1="305.56" y1="240.46" x2="305.56" y2="255.63"/><polygon class="cls-12" points="243.75 243.6 243.75 228.56 284.96 252.35 284.96 267.39 243.75 243.6"/><polygon class="cls-9" points="326.17 228.56 284.96 252.35 243.75 228.56 284.96 204.77 326.17 228.56"/><polygon class="cls-9" points="326.17 243.6 326.17 228.56 284.96 252.35 284.96 267.39 326.17 243.6"/><polygon class="cls-9" points="243.75 243.6 243.75 228.56 284.96 252.35 284.96 267.39 243.75 243.6"/><polygon class="cls-13" points="284.96 204.77 243.75 228.56 243.75 243.6 284.96 267.39 326.17 243.6 326.17 228.56 284.96 204.77"/><polygon class="cls-8" points="326.17 228.56 284.96 252.35 243.75 228.56 284.96 204.77 326.17 228.56"/><polygon class="cls-2" points="326.17 213.53 284.96 237.32 243.75 213.53 284.96 189.74 326.17 213.53"/><polygon class="cls-9" points="326.17 213.53 305.56 225.42 284.96 213.53 305.56 201.63 326.17 213.53"/><ellipse class="cls-9" cx="305.56" cy="213.53" rx="5.67" ry="3.28"/><ellipse class="cls-10" cx="284.96" cy="196.62" rx="1.89" ry="1.09"/><ellipse class="cls-10" cx="284.96" cy="230.44" rx="1.89" ry="1.09"/><ellipse class="cls-10" cx="255.67" cy="213.53" rx="1.89" ry="1.09"/><polygon class="cls-11" points="326.17 228.56 326.17 213.53 284.96 237.32 284.96 252.35 326.17 228.56"/><line class="cls-9" x1="305.56" y1="225.29" x2="305.56" y2="240.46"/><polygon class="cls-12" points="243.75 228.56 243.75 213.53 284.96 237.32 284.96 252.35 243.75 228.56"/><polygon class="cls-9" points="326.17 213.53 284.96 237.32 243.75 213.53 284.96 189.74 326.17 213.53"/><polygon class="cls-9" points="326.17 228.56 326.17 213.53 284.96 237.32 284.96 252.35 326.17 228.56"/><polygon class="cls-9" points="243.75 228.56 243.75 213.53 284.96 237.32 284.96 252.35 243.75 228.56"/><polygon class="cls-13" points="284.96 189.74 243.75 213.53 243.75 228.56 284.96 252.35 326.17 228.56 326.17 213.53 284.96 189.74"/><polygon class="cls-3" points="330.2 223.93 340.46 249.89 320.02 261.69 309.75 235.73 330.2 223.93"/><polygon class="cls-1" points="298.46 236.55 309.75 235.73 320.02 261.69 308.73 262.51 298.46 236.55"/><polygon class="cls-2" points="298.46 236.55 309.75 235.73 330.2 223.93 318.9 224.75 298.46 236.55"/><polygon class="cls-5" points="298.46 236.55 309.75 235.73 320.02 261.69 308.73 262.51 298.46 236.55"/><polygon class="cls-5" points="298.46 236.55 309.75 235.73 330.2 223.93 318.9 224.75 298.46 236.55"/><polygon class="cls-5" points="330.2 223.93 340.46 249.89 320.02 261.69 309.75 235.73 330.2 223.93"/><line class="cls-5" x1="326.64" y1="237.13" x2="323.57" y2="248.49"/><line class="cls-5" x1="320.48" y1="240.68" x2="329.73" y2="244.94"/><polygon class="cls-7" points="318.9 224.75 330.2 223.93 340.46 249.89 320.02 261.69 308.73 262.51 298.46 236.55 318.9 224.75"/><polyline class="cls-13" points="183.96 139.59 177.87 151.95 174.96 149.75"/><polygon class="cls-14" points="284.96 198.49 305.56 210.39 326.17 198.49 305.56 186.59 284.96 198.49"/><ellipse class="cls-9" cx="305.56" cy="198.49" rx="5.67" ry="3.28"/><polygon class="cls-12" points="284.96 213.53 284.96 198.49 305.56 210.39 305.56 225.42 284.96 213.53"/><polygon class="cls-11" points="326.17 213.53 326.17 198.49 305.56 210.39 305.56 225.42 326.17 213.53"/><polygon class="cls-9" points="284.96 213.53 284.96 198.49 305.56 210.39 305.56 225.42 284.96 213.53"/><polygon class="cls-9" points="326.17 213.53 326.17 198.49 305.56 210.39 305.56 225.42 326.17 213.53"/><polygon class="cls-13" points="305.56 186.59 326.17 198.49 326.17 213.53 305.56 225.42 284.96 213.53 284.96 198.49 305.56 186.59"/><rect class="cls-15" width="440" height="300"/><ellipse class="cls-9" cx="192.78" cy="112.21" rx="7.49" ry="13.23" transform="translate(-28.54 84.44) rotate(-23.05)"/><ellipse class="cls-11" cx="188.9" cy="114.45" rx="1.77" ry="3.14" transform="translate(-29.73 83.1) rotate(-23.05)"/><path class="cls-14" d="M242.57,133.56c0-6.35-3.86-13.72-8.62-16.47l-17-9.84L199.18,97c-2.15-1.24-4.12-1.32-5.63-.45h0l-6.4,3.7,3.46,2.43c0,.28,0,.56,0,.85,0,6.34,3.86,13.72,8.62,16.47l7.21,4.15,14.71,8.5,12.09,11.57,6.4-3.7h0C241.41,139.47,242.57,137,242.57,133.56Z"/><path class="cls-9" d="M202.42,129.27l-9.64-5.57c-4.76-2.75-8.62-10.12-8.62-16.47h0c0-6.35,3.86-9.26,8.62-6.52l22.12,12.77c4.76,2.75-6.29,1.52-6.29,7.86h0C208.61,127.69,207.19,132,202.42,129.27Z"/><path class="cls-9" d="M214.9,113.48l12.65,7.3c4.76,2.75,8.62,10.13,8.62,16.47h0c0,6.35-3.86,9.27-8.62,6.52l-25.13-14.5c-4.76-2.75,11.94,1.74,11.94-4.61h0C214.36,118.31,210.14,110.74,214.9,113.48Z"/><path class="cls-12" d="M227.55,120.79l-12.65-7.31-22.12-12.77c-4.76-2.74-8.62.17-8.62,6.52S188,121,192.78,123.7l9.64,5.57,25.13,14.5c4.76,2.75,8.62-.17,8.62-6.52h0C236.17,130.91,232.31,123.53,227.55,120.79Z"/><path class="cls-9" d="M227.55,120.79l-12.65-7.31-22.12-12.77c-4.76-2.74-8.62.17-8.62,6.52S188,121,192.78,123.7l9.64,5.57,25.13,14.5c4.76,2.75,8.62-.17,8.62-6.52h0C236.17,130.91,232.31,123.53,227.55,120.79Z"/><line class="cls-9" x1="210.12" y1="122.21" x2="212.85" y2="123.79"/><path class="cls-13" d="M242.57,133.56c0-6.35-3.86-13.72-8.62-16.47l-17-9.84L199.18,97c-2.15-1.25-4.12-1.32-5.63-.45h0l-6.4,3.7h0a4.74,4.74,0,0,0-1,.79,6.34,6.34,0,0,0-1.29,2.09,11.41,11.41,0,0,0-.68,4.08,16.73,16.73,0,0,0,.18,2.42,22.64,22.64,0,0,0,3,8.26c.21.36.44.71.66,1a18.92,18.92,0,0,0,1.47,1.91,13.55,13.55,0,0,0,3.35,2.84l9.64,5.57,17.37,10,7.76,4.48c.3.17.59.32.88.45a5.94,5.94,0,0,0,3.23.54,4.25,4.25,0,0,0,1.52-.54h0l6.4-3.7h0C241.41,139.47,242.57,137,242.57,133.56Z"/><ellipse class="cls-11" cx="232.62" cy="135.2" rx="1.77" ry="3.14" transform="translate(-34.37 101.88) rotate(-23.05)"/><path class="cls-14" d="M246.34,143.48c0-10.33-6.28-22.33-14-26.8-3.51-2-6.72-2.15-9.18-.73h0l-6.67,3.85,2,4.34a22.25,22.25,0,0,0-.22,3.15c0,10.33,6.28,22.33,14,26.8l.45.25,2.05,4.35,6.68-3.86h0C244.45,153.1,246.34,149.13,246.34,143.48Z"/><path class="cls-11" d="M246.34,143.48a32.5,32.5,0,0,0-2-10.62l-20.84,12a26.14,26.14,0,0,0,8.77,9.18l.45.25,2.05,4.35,6.68-3.86h0C244.45,153.1,246.34,149.13,246.34,143.48Z"/><path class="cls-9" d="M246.34,143.48c0-10.33-6.28-22.33-14-26.8-3.51-2-6.72-2.15-9.18-.73h0l-6.67,3.85,2,4.34a22.25,22.25,0,0,0-.22,3.15c0,10.33,6.28,22.33,14,26.8l.45.25,2.05,4.35,6.68-3.86h0C244.45,153.1,246.34,149.13,246.34,143.48Z"/><ellipse class="cls-12" cx="225.63" cy="139.24" rx="12.18" ry="21.53" transform="translate(-36.5 99.46) rotate(-23.05)"/><ellipse class="cls-11" cx="225.63" cy="139.24" rx="5.91" ry="10.44" transform="translate(-36.5 99.46) rotate(-23.05)"/><ellipse class="cls-9" cx="225.63" cy="139.24" rx="12.18" ry="21.53" transform="translate(-36.5 99.46) rotate(-23.05)"/><path class="cls-13" d="M246.34,143.48c0-10.33-6.28-22.33-14-26.8-3.51-2-6.72-2.15-9.18-.73h0l-6.67,3.85h0c-3,1.71-4.85,5.69-4.85,11.34,0,10.33,6.28,22.33,14,26.8,3.51,2,6.72,2.15,9.18.73h0l6.68-3.86h0C244.45,153.1,246.34,149.13,246.34,143.48Z"/><path class="cls-10" d="M161,182l-23.89-13.8a9.7,9.7,0,0,0-8.78,0l-6.48,3.74L117,170v6.25a3.1,3.1,0,0,0,1.82,2.53l35.58,20.55a9.7,9.7,0,0,0,8.78,0l9.51-5.5a3.06,3.06,0,0,0,1.82-2.53V185Z"/><path class="cls-11" d="M158.54,180.55l-21.41-12.36a9.7,9.7,0,0,0-8.78,0l-6.48,3.74L117,170v6.25a3.1,3.1,0,0,0,1.82,2.53l35.58,20.55a8.91,8.91,0,0,0,4.12,1Z"/><path class="cls-12" d="M137.13,161.94a9.7,9.7,0,0,0-8.78,0l-9.51,5.5c-2.43,1.4-2.43,3.66,0,5.06l35.58,20.55a9.7,9.7,0,0,0,8.78,0l9.51-5.49c2.43-1.4,2.43-3.67,0-5.07Z"/><path class="cls-16" d="M137.13,161.94a9.7,9.7,0,0,0-8.78,0l-9.51,5.5c-2.43,1.4-2.43,3.66,0,5.06l35.58,20.55a9.7,9.7,0,0,0,8.78,0l9.51-5.49c2.43-1.4,2.43-3.67,0-5.07Z"/><path class="cls-13" d="M174.53,185a3.06,3.06,0,0,0-1.82-2.53l-35.58-20.55a9.7,9.7,0,0,0-8.78,0l-9.51,5.5A3.08,3.08,0,0,0,117,170h0v6.25a3.1,3.1,0,0,0,1.82,2.53l35.58,20.55a9.7,9.7,0,0,0,8.78,0l9.51-5.5a3.06,3.06,0,0,0,1.82-2.53V185Z"/><path class="cls-10" d="M196,161.79,172.11,148a9.7,9.7,0,0,0-8.78,0l-6.48,3.74-4.85-2V156a3.08,3.08,0,0,0,1.82,2.54L189.4,179.1a9.7,9.7,0,0,0,8.78,0l9.51-5.49a3.1,3.1,0,0,0,1.82-2.54v-6.24Z"/><path class="cls-11" d="M193.52,160.36,172.11,148a9.7,9.7,0,0,0-8.78,0l-6.48,3.74-4.85-2V156a3.08,3.08,0,0,0,1.82,2.54L189.4,179.1a8.91,8.91,0,0,0,4.12,1Z"/><path class="cls-12" d="M172.11,141.75a9.7,9.7,0,0,0-8.78,0l-9.51,5.49c-2.43,1.4-2.43,3.67,0,5.07l35.58,20.54a9.7,9.7,0,0,0,8.78,0l9.51-5.49c2.43-1.4,2.43-3.67,0-5.07Z"/><path class="cls-16" d="M172.11,141.75a9.7,9.7,0,0,0-8.78,0l-9.51,5.49c-2.43,1.4-2.43,3.67,0,5.07l35.58,20.54a9.7,9.7,0,0,0,8.78,0l9.51-5.49c2.43-1.4,2.43-3.67,0-5.07Z"/><path class="cls-13" d="M209.51,164.83a3.1,3.1,0,0,0-1.82-2.54l-35.58-20.54a9.7,9.7,0,0,0-8.78,0l-9.51,5.49a3.07,3.07,0,0,0-1.82,2.53h0V156a3.08,3.08,0,0,0,1.82,2.54L189.4,179.1a9.7,9.7,0,0,0,8.78,0l9.51-5.49a3.1,3.1,0,0,0,1.82-2.54v-6.24Z"/><path class="cls-12" d="M202.69,117.68h0a4.51,4.51,0,0,0-.31-1.69h0l-6.13-15.79-15,1.9-3.32-1.92c-5.29-3.05-13.87-3.05-19.17,0l-10.61,6.13-26.63,3.39-6.14,17.36h0a4.7,4.7,0,0,0-.26,1.6h0l.13,31.28h0c0,2,1.33,4,4,5.5l20.77,12c5.3,3.05,13.88,3.05,19.17,0l39.69-22.92c2.66-1.53,4-3.55,4-5.56h0Z"/><path class="cls-11" d="M202.66,117.69a4.51,4.51,0,0,0-.31-1.69h0l-6.13-15.79-15,1.9-3.32-1.92c-5.29-3.05-13.87-3.05-19.17,0l-7.83,4.53v75a18.8,18.8,0,0,0,8.22-2.25l39.69-22.92c2.66-1.53,4-3.55,4-5.56h0l-.13-31.28Z"/><line class="cls-16" x1="171.73" y1="130.01" x2="183.2" y2="123.39"/><path class="cls-9" d="M198.72,123.25c3.41-2,4.61-4.72,3.63-7.25h0l-6.13-15.79-15,1.9-3.32-1.92c-5.29-3.05-13.87-3.05-19.17,0l-10.61,6.13-26.63,3.39-6.14,17.36h0c-.88,2.49.34,5.17,3.69,7.11l20.77,12c5.3,3.06,13.88,3.06,19.17,0"/><path class="cls-2" d="M158.79,86.62c4.55-2.63,11.92-2.63,16.47,0l17.84,10.3c4.55,2.63,4.55,6.88,0,9.51L159,126.11c-4.55,2.62-11.92,2.62-16.47,0L124.71,115.8c-4.55-2.62-4.55-6.88,0-9.5Z"/><path class="cls-9" d="M158.79,86.62c4.55-2.63,11.92-2.63,16.47,0l17.84,10.3c4.55,2.63,4.55,6.88,0,9.51L159,126.11c-4.55,2.62-11.92,2.62-16.47,0L124.71,115.8c-4.55-2.62-4.55-6.88,0-9.5Z"/><path class="cls-13" d="M202.69,117.68h0a4.73,4.73,0,0,0-.32-1.69h0l-6.13-15.79h0a6.83,6.83,0,0,0-3.12-3.28l-17.84-10.3c-4.55-2.63-11.92-2.63-16.47,0L124.71,106.3a6.66,6.66,0,0,0-3.17,3.4h0l-6.14,17.36h0a4.45,4.45,0,0,0-.27,1.6h0l.13,31.28h0c0,2,1.33,4,4,5.5l20.77,12c5.3,3.05,13.88,3.05,19.17,0l39.69-22.92c2.66-1.53,4-3.55,4-5.56h0Z"/><line class="cls-9" x1="132.47" y1="153.39" x2="126.74" y2="150.07"/><polygon class="cls-2" points="169.61 162.88 169.61 140.06 189.7 128.46 189.7 151.28 169.61 162.88"/><polygon class="cls-9" points="169.61 162.88 169.61 140.06 189.7 128.46 189.7 151.28 169.61 162.88"/><line class="cls-9" x1="164.68" y1="142.9" x2="163.27" y2="143.72"/><line class="cls-9" x1="195.09" y1="125.34" x2="193.68" y2="126.16"/><line class="cls-5" x1="179.65" y1="140.72" x2="179.65" y2="146.81"/><line class="cls-5" x1="179.65" y1="150.96" x2="179.65" y2="151.03"/><path class="cls-11" d="M138.35,86.07v22.85a3.16,3.16,0,0,0,1.87,2.6l9.75,5.63a9.89,9.89,0,0,0,9,0l18.63-10.75a3.17,3.17,0,0,0,1.86-2.6V81C178.29,81,138.35,86.07,138.35,86.07Z"/><path class="cls-12" d="M155.08,83.94l-16.73,2.13v22.85a3.16,3.16,0,0,0,1.87,2.6l9.75,5.63a9.36,9.36,0,0,0,5.11,1Z"/><path class="cls-11" d="M158.84,72.72a10,10,0,0,1,9,0l9.75,5.63c2.49,1.44,2.49,3.76,0,5.2L159,94.3a10,10,0,0,1-9,0l-9.75-5.63c-2.49-1.43-2.49-3.76,0-5.19Z"/><path class="cls-9" d="M177.59,78.35l-9.75-5.63a10,10,0,0,0-9,0L140.22,83.48a3.14,3.14,0,0,0-1.87,2.59v22.85a3.16,3.16,0,0,0,1.87,2.6l9.75,5.63a6,6,0,0,0,1.09.5l.25.08a9.73,9.73,0,0,0,1,.27l.18,0a11.72,11.72,0,0,0,1.19.15h.06a10,10,0,0,0,1.34,0h0a8.79,8.79,0,0,0,3.88-1l18.63-10.75a3.17,3.17,0,0,0,1.86-2.6V81A3.17,3.17,0,0,0,177.59,78.35Z"/><path class="cls-2" d="M202.94,52.54l0,0-33-19h0c-2.3-1.33-5.3-1.21-8.58.69L123,56.4c-7.25,4.18-13.13,15.41-13.13,25.07,0,5.29,1.76,9,4.54,10.61h0l33,19h0c2.3,1.32,5.29,1.21,8.57-.68l38.47-22.21c7.25-4.19,13.12-15.41,13.12-25.08h0C207.49,57.85,205.72,54.14,202.94,52.54Z"/><path class="cls-9" d="M170,33.5h0c-2.3-1.33-5.3-1.21-8.58.69L123,56.4c-7.25,4.18-13.13,15.41-13.13,25.07h0c0,5.29,1.76,9,4.54,10.61h0l33,19L203,52.52Z"/><path class="cls-17" d="M191.45,87.24l-32.63,18.84c-6.15,3.55-11.14-.22-11.14-8.41h0c0-8.2,5-17.73,11.14-21.28l32.63-18.84c6.15-3.55,11.14.22,11.14,8.42h0C202.59,74.16,197.6,83.69,191.45,87.24Z"/><path class="cls-12" d="M114.76,65a33,33,0,0,0-4.94,16.5c0,5.29,1.76,9,4.54,10.61h0l33,19h0c2.3,1.32,5.29,1.21,8.57-.68l18.79-10.85Z"/><path class="cls-2" d="M194.37,88.21,155.9,110.42c-7.25,4.18-13.12-.26-13.12-9.92h0c0-9.67,5.87-20.89,13.12-25.07l38.47-22.22c7.25-4.18,13.12.26,13.12,9.92h0C207.49,72.8,201.62,84,194.37,88.21Z"/><path class="cls-11" d="M194.37,88.21,155.9,110.42c-7.25,4.18-13.12-.26-13.12-9.92h0c0-9.67,5.87-20.89,13.12-25.07l38.47-22.22c7.25-4.18,13.12.26,13.12,9.92h0C207.49,72.8,201.62,84,194.37,88.21Z"/><path class="cls-17" d="M193.8,85.25,156.47,106.8c-5.88,3.4-10.65-.21-10.65-8.06h0c0-7.85,4.77-17,10.65-20.36L193.8,56.83c5.88-3.39,10.65.21,10.65,8.06h0C204.45,72.74,199.68,81.85,193.8,85.25Z"/><path class="cls-9" d="M194.37,88.21,155.9,110.42c-7.25,4.18-13.12-.26-13.12-9.92h0c0-9.67,5.87-20.89,13.12-25.07l38.47-22.22c7.25-4.18,13.12.26,13.12,9.92h0C207.49,72.8,201.62,84,194.37,88.21Z"/><line class="cls-18" x1="174.49" y1="52.41" x2="154.5" y2="63.95"/><line class="cls-18" x1="162.82" y1="45.67" x2="142.83" y2="57.21"/><path class="cls-13" d="M202.94,52.54l0,0-33-19h0c-2.3-1.33-5.3-1.21-8.58.69L123,56.4c-7.25,4.18-13.13,15.41-13.13,25.07,0,5.29,1.76,9,4.54,10.61h0l33,19h0c2.3,1.32,5.29,1.21,8.57-.68l38.47-22.21c7.25-4.19,13.12-15.41,13.12-25.08h0C207.49,57.85,205.72,54.14,202.94,52.54Z"/><line class="cls-9" x1="132.92" y1="94.81" x2="119.68" y2="87.16"/><line class="cls-19" x1="158.71" y1="54.7" x2="158.61" y2="54.92"/><ellipse class="cls-12" cx="158.82" cy="91.24" rx="12.74" ry="7.21" transform="translate(12.68 201.65) rotate(-66.95)"/><ellipse class="cls-2" cx="158.82" cy="91.24" rx="9.7" ry="5.49" transform="translate(12.68 201.65) rotate(-66.95)"/><ellipse class="cls-12" cx="191.45" cy="72.39" rx="12.74" ry="7.21" transform="translate(49.88 220.22) rotate(-66.95)"/><ellipse class="cls-2" cx="191.45" cy="72.39" rx="9.7" ry="5.49" transform="translate(49.88 220.22) rotate(-66.95)"/><line class="cls-16" x1="174.06" y1="89.13" x2="176.2" y2="87.89"/><path class="cls-14" d="M198.76,171.44c0-10.33-6.28-22.33-14-26.8-3.51-2-6.71-2.16-9.17-.74h0l-6.68,3.85,2.05,4.34a22.25,22.25,0,0,0-.22,3.15c0,10.33,6.28,22.33,14,26.8l.45.25,2.06,4.35,6.67-3.86h0C196.88,181.06,198.76,177.09,198.76,171.44Z"/><path class="cls-11" d="M198.76,171.44a32.48,32.48,0,0,0-1.95-10.62l-20.85,12a26.18,26.18,0,0,0,8.77,9.19l.45.25,2.06,4.35,6.67-3.86h0C196.88,181.06,198.76,177.09,198.76,171.44Z"/><path class="cls-9" d="M198.76,171.44c0-10.33-6.28-22.33-14-26.8-3.51-2-6.71-2.16-9.17-.74h0l-6.68,3.85,2.05,4.34a22.25,22.25,0,0,0-.22,3.15c0,10.33,6.28,22.33,14,26.8l.45.25,2.06,4.35,6.67-3.86h0C196.88,181.06,198.76,177.09,198.76,171.44Z"/><ellipse class="cls-12" cx="178.06" cy="167.19" rx="12.18" ry="21.53" transform="translate(-51.25 83.07) rotate(-23.05)"/><ellipse class="cls-9" cx="178.06" cy="167.19" rx="12.18" ry="21.53" transform="translate(-51.25 83.07) rotate(-23.05)"/><path class="cls-13" d="M198.76,171.44c0-10.33-6.28-22.33-14-26.8-3.51-2-6.71-2.16-9.17-.74h0l-6.68,3.85h0c-3,1.71-4.85,5.69-4.85,11.33,0,10.33,6.28,22.33,14,26.81,3.51,2,6.72,2.15,9.18.73h0l6.67-3.86h0C196.88,181.06,198.76,177.09,198.76,171.44Z"/><path class="cls-14" d="M186.61,172.68c0-6.65-4-14.37-9-17.25l-19.15-11.06-23.56-13.6c-2.26-1.3-4.32-1.38-5.9-.46h0l-6.7,3.87,3.61,2.55c0,.29,0,.58,0,.88,0,6.65,4,14.37,9,17.25l11.08,6.4,18.17,10.49,12.66,12.12,6.71-3.87h0C185.39,178.88,186.61,176.32,186.61,172.68Z"/><path class="cls-11" d="M186.61,172.68a20,20,0,0,0-.83-5.49l-16.47,9.52,7.47,7.15,6.71-3.87h0C185.39,178.88,186.61,176.33,186.61,172.68Z"/><path class="cls-9" d="M151.72,172.33l-23.55-13.61c-5-2.87-9-10.6-9-17.25h0c0-6.65,4-9.71,9-6.83l23.55,13.6c5,2.88-3.44,3.4-3.44,10h0C148.28,164.94,156.71,175.2,151.72,172.33Z"/><path class="cls-9" d="M151.72,148.24l19.15,11.06c5,2.88,9,10.61,9,17.25h0c0,6.65-4,9.71-9,6.83l-19.15-11c-5-2.88-9-10.61-9-17.26h0C142.69,148.42,146.74,145.36,151.72,148.24Z"/><path class="cls-12" d="M170.87,159.3l-19.15-11.06-23.55-13.6c-5-2.88-9,.18-9,6.83s4,14.38,9,17.25l23.55,13.6,19.15,11.06c5,2.88,9-.18,9-6.83h0C179.9,169.91,175.86,162.18,170.87,159.3Z"/><path class="cls-9" d="M170.87,159.3l-19.15-11.06-23.55-13.6c-5-2.88-9,.18-9,6.83s4,14.38,9,17.25l23.55,13.6,19.15,11.06c5,2.88,9-.18,9-6.83h0C179.9,169.91,175.86,162.18,170.87,159.3Z"/><ellipse class="cls-9" cx="128.17" cy="146.68" rx="7.84" ry="13.86" transform="translate(-47.2 61.9) rotate(-23.05)"/><ellipse class="cls-11" cx="128.17" cy="146.68" rx="1.86" ry="3.29" transform="translate(-47.2 61.9) rotate(-23.05)"/><ellipse class="cls-9" cx="170.87" cy="171.34" rx="7.84" ry="13.86" transform="translate(-53.45 80.59) rotate(-23.05)"/><line class="cls-9" x1="146.33" y1="157.17" x2="152.72" y2="160.86"/><ellipse class="cls-11" cx="170.87" cy="171.34" rx="1.86" ry="3.29" transform="translate(-53.45 80.59) rotate(-23.05)"/><path class="cls-13" d="M186.61,172.68c0-6.65-4-14.37-9-17.25l-19.15-11.06-23.56-13.6c-2.26-1.3-4.32-1.38-5.9-.46h0l-6.7,3.87h0c-1.92,1.11-3.13,3.66-3.13,7.3,0,6.65,4,14.38,9,17.25l23.55,13.6h0l8.61,5,10.54,6.09a8.06,8.06,0,0,0,2.69,1,5,5,0,0,0,2.36-.15,4.36,4.36,0,0,0,.85-.39h0l6.71-3.87h0C185.39,178.88,186.61,176.33,186.61,172.68Z"/><ellipse class="cls-15" cx="134.87" cy="142.81" rx="7.84" ry="13.86" transform="translate(-45.15 64.21) rotate(-23.05)"/></g></g></svg>