<svg xmlns="http://www.w3.org/2000/svg" xmlns:xlink="http://www.w3.org/1999/xlink" viewBox="0 0 440 300"><defs><style>.cls-1,.cls-11,.cls-12,.cls-13,.cls-14,.cls-15,.cls-18,.cls-19,.cls-21,.cls-22,.cls-4,.cls-5{fill:none;}.cls-2,.cls-8{fill:#fff;}.cls-23,.cls-3{fill:#f2f4f6;}.cls-4{stroke:#d5dae0;}.cls-10,.cls-11,.cls-12,.cls-13,.cls-14,.cls-15,.cls-18,.cls-19,.cls-21,.cls-22,.cls-23,.cls-4,.cls-5,.cls-8,.cls-9{stroke-linecap:round;stroke-linejoin:round;stroke-width:2px;}.cls-5{stroke:#627386;}.cls-6{clip-path:url(#clip-path);}.cls-10,.cls-7{fill:#d5dae0;}.cls-10,.cls-11,.cls-12,.cls-22,.cls-23,.cls-8{stroke:#b8bfca;}.cls-20,.cls-9{fill:#b8bfca;}.cls-21,.cls-9{stroke:#fff;}.cls-12{stroke-dasharray:0 6.03;}.cls-13,.cls-14{stroke:#91d2fb;}.cls-14{stroke-dasharray:0 5.28;}.cls-15{stroke:#bde4fd;}.cls-16{fill:#bde4fd;}.cls-17{fill:#e9f6fe;}.cls-18,.cls-19{stroke:#1b6dc6;}.cls-19{stroke-dasharray:0 5.7;}.cls-22{stroke-dasharray:0 6.55;}</style><clipPath id="clip-path"><path class="cls-1" d="M311.22,147.07l-17.11-9.88.69-8.46,12-14s17.22,3.78,19.89,7.45,8.11,4.66,4.55,8.33S311.22,147.07,311.22,147.07Z"/></clipPath></defs><title>prism_pro_step4(1x1)</title><g id="Layer_2" data-name="Layer 2"><g id="Illustrations"><path class="cls-2" d="M348.54,151.51l-58.16-33.58a16.37,16.37,0,0,0-14.81,0c-4.09,2.37-4.09,6.19,0,8.56l.06,0,58.1,33.55c8,4.63,8,12.13,0,16.76s-21,4.63-29,0L201.24,117.09c-16.2-9.35-42.46-9.35-58.65,0s-16.2,24.51,0,33.86l67.75,39.12,14.81-8.55L157.4,142.4c-8-4.63-8-12.13,0-16.76s21-4.63,29,0l103.46,59.73c16.19,9.35,42.45,9.35,58.65,0S364.74,160.86,348.54,151.51Z"/><path class="cls-3" d="M196.17,171.18c15.87,9.16,29,10.34,29,10.34L157.4,142.4c-.44-.26-.85-.52-1.24-.79l-.31-.22c-.36-.26-.7-.53-1-.8l-.24-.23c-.15-.13-.3-.26-.44-.4h0a8.42,8.42,0,0,1-2.78-5.93h0v6.4h0c0,3,2,6,6,8.36l38.77,22.39Z"/><path class="cls-4" d="M196.17,171.18c15.87,9.16,29,10.34,29,10.34L157.4,142.4c-.44-.26-.85-.52-1.24-.79l-.31-.22c-.36-.26-.7-.53-1-.8l-.24-.23c-.15-.13-.3-.26-.44-.4h0a8.42,8.42,0,0,1-2.78-5.93h0v6.4h0c0,3,2,6,6,8.36l38.77,22.39Z"/><path class="cls-3" d="M274.09,125.4a8.84,8.84,0,0,1,1.48-1.08,16.37,16.37,0,0,1,14.81,0l58.16,33.58c6.69,3.86,10.6,8.71,11.77,13.74,1.66-7.15-2.26-14.64-11.77-20.13l-58.16-33.58a16.37,16.37,0,0,0-14.81,0C272.06,120,271.57,123.07,274.09,125.4Z"/><path class="cls-4" d="M274.09,125.4a8.84,8.84,0,0,1,1.48-1.08,16.37,16.37,0,0,1,14.81,0l58.16,33.58c6.69,3.86,10.6,8.71,11.77,13.74,1.66-7.15-2.26-14.64-11.77-20.13l-58.16-33.58a16.37,16.37,0,0,0-14.81,0C272.06,120,271.57,123.07,274.09,125.4Z"/><path class="cls-3" d="M140.5,118.4c-.35.23-.69.46-1,.7s-.35.25-.52.38-.6.46-.88.69l-.48.4c-.29.24-.56.48-.83.73l-.4.37c-.3.29-.59.59-.87.88l-.24.25a20.63,20.63,0,0,0-1.9,2.38l-.18.27c-.21.31-.41.63-.59,1-.07.11-.12.21-.18.32-.18.31-.34.63-.49,1l-.14.3c-.16.35-.3.7-.43,1.05l-.07.19a14.41,14.41,0,0,0-.81,3.93.41.41,0,0,0,0,.11c0,.4,0,.8,0,1.2a1,1,0,0,0,0,.17c0,.39.05.78.09,1.17a.59.59,0,0,1,0,.14q.09.65.24,1.29c1.16-5,5.08-9.88,11.77-13.74,16.19-9.35,42.45-9.35,58.65,0L304.7,183.21c8,4.63,21,4.63,29,0,4-2.31,6-5.33,6-8.35h0v-6.4h0c0,2.9-1.86,5.78-5.51,8.05h0l-.5.31c-8,4.63-21,4.63-29,0L201.24,117.09c-16.2-9.35-42.46-9.35-58.65,0-.56.32-1.09.65-1.61,1Z"/><path class="cls-4" d="M140.5,118.4c-.35.23-.69.46-1,.7s-.35.25-.52.38-.6.46-.88.69l-.48.4c-.29.24-.56.48-.83.73l-.4.37c-.3.29-.59.59-.87.88l-.24.25a20.63,20.63,0,0,0-1.9,2.38l-.18.27c-.21.31-.41.63-.59,1-.07.11-.12.21-.18.32-.18.31-.34.63-.49,1l-.14.3c-.16.35-.3.7-.43,1.05l-.07.19a14.41,14.41,0,0,0-.81,3.93.41.41,0,0,0,0,.11c0,.4,0,.8,0,1.2a1,1,0,0,0,0,.17c0,.39.05.78.09,1.17a.59.59,0,0,1,0,.14q.09.65.24,1.29c1.16-5,5.08-9.88,11.77-13.74,16.19-9.35,42.45-9.35,58.65,0L304.7,183.21c8,4.63,21,4.63,29,0,4-2.31,6-5.33,6-8.35h0v-6.4h0c0,2.9-1.86,5.78-5.51,8.05h0l-.5.31c-8,4.63-21,4.63-29,0L201.24,117.09c-16.2-9.35-42.46-9.35-58.65,0-.56.32-1.09.65-1.61,1Z"/><path class="cls-5" d="M348.54,151.51l-58.16-33.58a16.37,16.37,0,0,0-14.81,0c-4.09,2.37-4.09,6.19,0,8.56l.06,0,58.1,33.55c8,4.63,8,12.13,0,16.76s-21,4.63-29,0L201.24,117.09c-16.2-9.35-42.46-9.35-58.65,0s-16.2,24.51,0,33.86l67.75,39.12,14.81-8.55L157.4,142.4c-8-4.63-8-12.13,0-16.76s21-4.63,29,0l103.46,59.73c16.19,9.35,42.45,9.35,58.65,0S364.74,160.86,348.54,151.51Z"/><g class="cls-6"><circle class="cls-7" cx="304.35" cy="139.69" r="8.54"/><ellipse class="cls-3" cx="302.46" cy="137.81" rx="6.96" ry="5.11" transform="translate(-8.86 254.24) rotate(-45)"/><ellipse class="cls-2" cx="301" cy="136.35" rx="4.56" ry="3.04" transform="translate(-8.25 252.77) rotate(-45)"/><circle class="cls-5" cx="304.17" cy="139.71" r="8.54"/></g><line class="cls-5" x1="292.65" y1="136.35" x2="316.04" y2="149.85"/><path class="cls-8" d="M221.18,230.37l8-4.61a3.29,3.29,0,0,1,3.36-.26h0l-9.31-5.37h0a3.29,3.29,0,0,0-3.36.27l-8,4.61c-2.83,1.64-5.13,6-5.13,9.82V253c-.37,0,9.3,5.37,9.3,5.37V240.19C216,236.41,218.34,232,221.18,230.37Z"/><path class="cls-7" d="M221.18,230.37l8-4.61a3.29,3.29,0,0,1,3.36-.26h0l-9.31-5.37h0a3.29,3.29,0,0,0-3.36.27l-8,4.61c-2.83,1.64-5.13,6-5.13,9.82V253c-.37,0,9.3,5.37,9.3,5.37V240.19C216,236.41,218.34,232,221.18,230.37Z"/><path class="cls-3" d="M232.52,225.5h0l-9.31-5.37h0a3.29,3.29,0,0,0-3.36.27l-8,4.61a11.08,11.08,0,0,0-4.25,5.46l9.31,5.37a11,11,0,0,1,4.25-5.46l8-4.61A3.29,3.29,0,0,1,232.52,225.5Z"/><path class="cls-9" d="M229.16,225.76l-8,4.61c-2.84,1.64-5.14,6-5.14,9.82v18.22l3.39-2,11.48-6.62,3.39-2V229.65C234.3,225.86,232,224.12,229.16,225.76Z"/><path class="cls-5" d="M232.52,225.5h0l-9.31-5.37h0a3.29,3.29,0,0,0-3.36.27l-8,4.61c-2.83,1.64-5.13,6-5.13,9.82V253c-.37,0,9.3,5.37,9.3,5.37l4.33-2.5,9.61-5.54,4.32-2.5V229.65C234.3,227.58,233.61,226.13,232.52,225.5Z"/><path class="cls-8" d="M226.74,233.58l8-4.61a3.29,3.29,0,0,1,3.36-.26h0l-5.56-3.21h0a3.29,3.29,0,0,0-3.36.26l-8,4.61c-2.84,1.64-5.14,6-5.14,9.82v18.22c-.36,0,5.57,3.21,5.57,3.21V243.4C221.61,239.62,223.91,235.22,226.74,233.58Z"/><path class="cls-3" d="M226.74,233.58l8-4.61a3.29,3.29,0,0,1,3.36-.26h0l-5.56-3.21h0a3.29,3.29,0,0,0-3.36.26l-8,4.61c-2.84,1.64-5.14,6-5.14,9.82v18.22c-.36,0,5.57,3.21,5.57,3.21V243.4C221.61,239.62,223.91,235.22,226.74,233.58Z"/><path class="cls-2" d="M238.09,228.71h0l-5.56-3.21h0a3.29,3.29,0,0,0-3.36.26l-8,4.61a11,11,0,0,0-4.25,5.46l5.56,3.22a11.16,11.16,0,0,1,4.25-5.47l8-4.61A3.29,3.29,0,0,1,238.09,228.71Z"/><path class="cls-10" d="M234.73,229l-8,4.61c-2.83,1.64-5.13,6-5.13,9.82v18.22l3.39-1.95L236.48,253l3.39-2V232.86C239.87,229.08,237.57,227.34,234.73,229Z"/><path class="cls-5" d="M238.09,228.71h0l-5.56-3.21h0a3.29,3.29,0,0,0-3.36.26l-8,4.61c-2.84,1.64-5.14,6-5.14,9.82v18.22c-.36,0,5.57,3.21,5.57,3.21l4.32-2.49,9.61-5.55,4.33-2.5V232.86C239.87,230.79,239.18,229.34,238.09,228.71Z"/><ellipse class="cls-11" cx="248.11" cy="239.9" rx="3.46" ry="2"/><line class="cls-11" x1="271.42" y1="226.37" x2="271.42" y2="226.37"/><line class="cls-12" x1="266.21" y1="229.4" x2="253.17" y2="236.97"/><line class="cls-11" x1="250.56" y1="238.48" x2="250.56" y2="238.48"/><line class="cls-13" x1="217.5" y1="88.2" x2="217.5" y2="88.2"/><line class="cls-14" x1="222.07" y1="90.83" x2="233.49" y2="97.43"/><line class="cls-13" x1="235.77" y1="98.75" x2="235.77" y2="98.75"/><path class="cls-15" d="M202.54,85.89l8,4.61a3.26,3.26,0,0,0,3,0l8-4.61a.91.91,0,0,0,0-1.72l-8-4.61a3.33,3.33,0,0,0-3,0l-8,4.61A.91.91,0,0,0,202.54,85.89Z"/><path class="cls-16" d="M204.84,55.48l5.69-3.28a3.33,3.33,0,0,1,3,0l5.68,3.28h2.91V67.67a1,1,0,0,1-.61.86l-8,4.61a3.26,3.26,0,0,1-3,0l-8-4.61a1,1,0,0,1-.61-.86V55.48Z"/><path class="cls-17" d="M210.53,52.2a3.12,3.12,0,0,1,1.49-.35V73.5a3,3,0,0,1-1.49-.36l-8-4.61a1,1,0,0,1-.61-.86V55.48h2.91Z"/><path class="cls-2" d="M202.54,56.34l8,4.61a3.26,3.26,0,0,0,3,0l8-4.61a.91.91,0,0,0,0-1.72l-8-4.6a3.26,3.26,0,0,0-3,0l-8,4.6A.91.91,0,0,0,202.54,56.34Z"/><path class="cls-13" d="M202.54,56.34l8,4.61a3.26,3.26,0,0,0,3,0l8-4.61a.91.91,0,0,0,0-1.72l-8-4.6a3.26,3.26,0,0,0-3,0l-8,4.6A.91.91,0,0,0,202.54,56.34Z"/><path class="cls-18" d="M202.54,54.62l8-4.6a3.26,3.26,0,0,1,3,0l8,4.6a1,1,0,0,1,.61.86h0V67.67a1,1,0,0,1-.61.86l-8,4.61a3.26,3.26,0,0,1-3,0l-8-4.61a1,1,0,0,1-.61-.86V55.48A1,1,0,0,1,202.54,54.62Z"/><line class="cls-18" x1="222.1" y1="55.49" x2="222.1" y2="55.49"/><line class="cls-19" x1="222.1" y1="49.78" x2="222.1" y2="41.23"/><line class="cls-18" x1="222.1" y1="38.38" x2="222.1" y2="38.38"/><line class="cls-18" x1="201.93" y1="55.49" x2="201.93" y2="55.49"/><line class="cls-19" x1="201.93" y1="49.78" x2="201.93" y2="41.23"/><line class="cls-18" x1="201.93" y1="38.38" x2="201.93" y2="38.38"/><path class="cls-7" d="M107.31,131.83l-4.9-2.83h0a1.28,1.28,0,0,0-1.31.1L82.71,139.72a4.82,4.82,0,0,0-2,3.86V162.3a1.77,1.77,0,0,0,.7,1.62h0l4.91,2.83,4.61-7.67,10.19-5.88a4.84,4.84,0,0,0,2-3.86V138.82Z"/><path class="cls-3" d="M102.41,129h0a1.28,1.28,0,0,0-1.31.1L82.71,139.72a4.35,4.35,0,0,0-1.7,2.22l19.79,11.43.29-.16a4.84,4.84,0,0,0,2-3.86V138.82l4.21-7Z"/><path class="cls-11" d="M107.31,131.83l-4.9-2.83h0a1.28,1.28,0,0,0-1.31.1L82.71,139.72a4.82,4.82,0,0,0-2,3.86V162.3a1.77,1.77,0,0,0,.7,1.62h0l4.91,2.83,4.61-7.67,10.19-5.88a4.84,4.84,0,0,0,2-3.86V138.82Z"/><path class="cls-20" d="M87.61,142.55,106,131.94c1.11-.64,2,0,2,1.53v18.71a4.84,4.84,0,0,1-2,3.86L87.61,166.65c-1.12.65-2,0-2-1.52V146.41A4.82,4.82,0,0,1,87.61,142.55Z"/><path class="cls-7" d="M92.43,146.09l8.74-5c.53-.31,1,0,1,.72v8.9a2.28,2.28,0,0,1-1,1.83l-8.74,5c-.53.31-1,0-1-.72v-8.9A2.31,2.31,0,0,1,92.43,146.09Z"/><path class="cls-21" d="M87.61,142.55,106,131.94c1.11-.64,2,0,2,1.53v18.71a4.84,4.84,0,0,1-2,3.86L87.61,166.65c-1.12.65-2,0-2-1.52V146.41A4.82,4.82,0,0,1,87.61,142.55Z"/><path class="cls-5" d="M107.3,131.84h0l-4.9-2.83h0a1.28,1.28,0,0,0-1.31.1L82.71,139.72a4.82,4.82,0,0,0-2,3.86V162.3a1.77,1.77,0,0,0,.7,1.62h0l4.91,2.83h0a1.3,1.3,0,0,0,1.32-.1L106,156a4.84,4.84,0,0,0,2-3.86V133.47A1.78,1.78,0,0,0,107.3,131.84Z"/><line class="cls-5" x1="95.81" y1="161.92" x2="95.81" y2="175.82"/><path class="cls-7" d="M96.25,181.38,109,174a7.39,7.39,0,0,1,6.7,0l12.78,7.38h6.55v6.33a2.34,2.34,0,0,1-1.38,1.93l-18,10.36a7.39,7.39,0,0,1-6.7,0l-18-10.36a2.34,2.34,0,0,1-1.38-1.93v-6.33Z"/><path class="cls-3" d="M109,174a6.78,6.78,0,0,1,3.35-.8v27.61A6.78,6.78,0,0,1,109,200l-18-10.36a2.34,2.34,0,0,1-1.38-1.93v-6.33h6.55Z"/><path class="cls-2" d="M91.08,183.31l18,10.36a7.39,7.39,0,0,0,6.7,0l18-10.36c1.85-1.07,1.85-2.8,0-3.87l-18-10.36a7.39,7.39,0,0,0-6.7,0l-18,10.36C89.23,180.51,89.23,182.24,91.08,183.31Z"/><path class="cls-11" d="M91.08,183.31l18,10.36a7.39,7.39,0,0,0,6.7,0l18-10.36c1.85-1.07,1.85-2.8,0-3.87l-18-10.36a7.39,7.39,0,0,0-6.7,0l-18,10.36C89.23,180.51,89.23,182.24,91.08,183.31Z"/><path class="cls-5" d="M91.08,179.44l18-10.36a7.39,7.39,0,0,1,6.7,0l18,10.36a2.37,2.37,0,0,1,1.38,1.94h0v6.33a2.34,2.34,0,0,1-1.38,1.93l-18,10.36a7.39,7.39,0,0,1-6.7,0l-18-10.36a2.34,2.34,0,0,1-1.38-1.93v-6.33A2.37,2.37,0,0,1,91.08,179.44Z"/><path class="cls-11" d="M105,183.65a7.85,7.85,0,0,0-1.38,1,8.43,8.43,0,0,0,1.38,1,16.21,16.21,0,0,0,14.7,0,8.43,8.43,0,0,0,1.38-1,7.85,7.85,0,0,0-1.38-1A16.21,16.21,0,0,0,105,183.65Z"/><ellipse class="cls-5" cx="112.38" cy="181.38" rx="10.4" ry="6"/><path class="cls-10" d="M85.26,195.1a6.65,6.65,0,0,0-3.9,0h-2v6a2,2,0,0,0,1.18,1.63,6.25,6.25,0,0,0,5.65,0,2,2,0,0,0,1.17-1.63v-6Z"/><path class="cls-11" d="M85.26,195.1a6.65,6.65,0,0,0-3.9,0h-2v6a2,2,0,0,0,1.18,1.63,6.25,6.25,0,0,0,5.65,0,2,2,0,0,0,1.17-1.63v-6Z"/><ellipse class="cls-8" cx="83.31" cy="195.1" rx="4" ry="2.31"/><ellipse class="cls-11" cx="83.31" cy="195.1" rx="4" ry="2.31"/><path class="cls-11" d="M86.14,193.47a6.25,6.25,0,0,0-5.65,0,2,2,0,0,0-1.18,1.63v6a2,2,0,0,0,1.18,1.63,6.25,6.25,0,0,0,5.65,0,2,2,0,0,0,1.17-1.63v-6A2,2,0,0,0,86.14,193.47Z"/><path class="cls-5" d="M86.65,193.83a2.55,2.55,0,0,0-.51-.36,4.61,4.61,0,0,0-.63-.3,6,6,0,0,0-1.43-.34,6.12,6.12,0,0,0-3.59.64,3,3,0,0,0-.52.36,1.72,1.72,0,0,0-.66,1.27v6a2,2,0,0,0,1.18,1.63,6.25,6.25,0,0,0,5.65,0,2,2,0,0,0,1.17-1.63v-6A1.72,1.72,0,0,0,86.65,193.83Z"/><path class="cls-10" d="M135.77,165.94a6.65,6.65,0,0,0-3.9,0h-2.05v6a2,2,0,0,0,1.17,1.63,6.27,6.27,0,0,0,5.66,0,2,2,0,0,0,1.17-1.63v-6Z"/><path class="cls-11" d="M135.77,165.94a6.65,6.65,0,0,0-3.9,0h-2.05v6a2,2,0,0,0,1.17,1.63,6.27,6.27,0,0,0,5.66,0,2,2,0,0,0,1.17-1.63v-6Z"/><ellipse class="cls-8" cx="133.82" cy="165.94" rx="4" ry="2.31"/><ellipse class="cls-11" cx="133.82" cy="165.94" rx="4" ry="2.31"/><path class="cls-11" d="M136.65,164.31a6.27,6.27,0,0,0-5.66,0,2,2,0,0,0-1.17,1.63v6a2,2,0,0,0,1.17,1.63,6.27,6.27,0,0,0,5.66,0,2,2,0,0,0,1.17-1.63v-6A2,2,0,0,0,136.65,164.31Z"/><path class="cls-5" d="M137.16,164.67a3.3,3.3,0,0,0-.51-.36,6.09,6.09,0,0,0-.63-.3,5.51,5.51,0,0,0-1.44-.33,6.06,6.06,0,0,0-3.59.63,2.88,2.88,0,0,0-.51.36,1.72,1.72,0,0,0-.66,1.27v6a2,2,0,0,0,1.17,1.63,6.27,6.27,0,0,0,5.66,0,2,2,0,0,0,1.17-1.63v-6A1.72,1.72,0,0,0,137.16,164.67Z"/><line class="cls-11" x1="129.13" y1="197.38" x2="129.13" y2="197.38"/><line class="cls-22" x1="134.8" y1="200.66" x2="154.66" y2="212.12"/><line class="cls-11" x1="157.5" y1="213.76" x2="157.5" y2="213.76"/><polygon class="cls-7" points="181.22 237.69 156.67 223.51 156.67 203.55 181.22 237.69"/><polygon class="cls-11" points="181.22 237.69 156.67 223.51 156.67 203.55 181.22 237.69"/><polygon class="cls-3" points="198.94 227.45 174.39 193.31 156.67 203.55 181.22 237.69 198.94 227.45"/><polygon class="cls-11" points="198.94 227.45 174.39 193.31 156.67 203.55 181.22 237.69 198.94 227.45"/><polygon class="cls-5" points="174.39 193.31 156.67 203.55 156.67 223.51 181.22 237.69 198.94 227.45 174.39 193.31"/><line class="cls-21" x1="170.52" y1="205.37" x2="185.09" y2="225.63"/><circle class="cls-20" cx="192.81" cy="228.41" r="9.31"/><ellipse class="cls-7" cx="190.76" cy="226.36" rx="7.58" ry="5.56" transform="translate(-104.19 201.18) rotate(-45)"/><ellipse class="cls-3" cx="189.16" cy="224.76" rx="4.97" ry="3.31" transform="translate(-103.53 199.59) rotate(-45)"/><circle class="cls-5" cx="192.62" cy="228.42" r="9.31"/><path class="cls-11" d="M165.59,136a7.58,7.58,0,0,0-1.19.85,7,7,0,0,0,1.19.85,14,14,0,0,0,12.65,0,6.88,6.88,0,0,0,1.18-.85,7.47,7.47,0,0,0-1.18-.85A14,14,0,0,0,165.59,136Z"/><ellipse class="cls-5" cx="171.91" cy="134.02" rx="8.94" ry="5.16"/><path class="cls-7" d="M323.57,164a14.73,14.73,0,0,0-8.72,0h-4.58v4.48c0,1.32.87,2.64,2.62,3.65a14,14,0,0,0,12.65,0c1.74-1,2.62-2.33,2.62-3.65V164Z"/><path class="cls-11" d="M323.57,164a14.73,14.73,0,0,0-8.72,0h-4.58v4.48c0,1.32.87,2.64,2.62,3.65a14,14,0,0,0,12.65,0c1.74-1,2.62-2.33,2.62-3.65V164Z"/><ellipse class="cls-2" cx="319.21" cy="163.96" rx="8.94" ry="5.16"/><ellipse class="cls-11" cx="319.21" cy="163.96" rx="8.94" ry="5.16"/><path class="cls-5" d="M325.54,160.31a14,14,0,0,0-12.65,0c-1.75,1-2.62,2.33-2.62,3.65v4.48c0,1.32.87,2.64,2.62,3.65a14,14,0,0,0,12.65,0c1.74-1,2.62-2.33,2.62-3.65V164C328.16,162.64,327.28,161.31,325.54,160.31Z"/><path class="cls-7" d="M204.6,119a12.79,12.79,0,0,1,3.84-3.64c4.11-2.37,7.44.15,7.44,5.63v4.52"/><line class="cls-7" x1="215.88" y1="125.5" x2="204.6" y2="118.99"/><path class="cls-5" d="M204.6,119a12.79,12.79,0,0,1,3.84-3.64c4.11-2.37,7.44.15,7.44,5.63v4.52"/><line class="cls-5" x1="215.88" y1="125.5" x2="204.6" y2="118.99"/><path class="cls-2" d="M201,129.57c0-5.48,3.33-11.85,7.44-14.22,1.86-1.07,3.56-1.14,4.86-.38h0l-14.57-8.41h0c-1.3-.76-3-.69-4.86.38-4.11,2.37-7.44,8.74-7.44,14.22v4.48L201,134.05Z"/><path class="cls-3" d="M188.71,112.69a18.56,18.56,0,0,0-2.28,8.47v4.48L201,134.05v-4.48a18.56,18.56,0,0,1,2.28-8.47Z"/><path class="cls-5" d="M201,129.57c0-5.48,3.33-11.85,7.44-14.22,1.86-1.07,3.56-1.14,4.86-.38h0l-14.57-8.41h0c-1.3-.76-3-.69-4.86.38-4.11,2.37-7.44,8.74-7.44,14.22v4.48L201,134.05Z"/><path class="cls-7" d="M337.26,145a12.87,12.87,0,0,1,3.84-3.63c4.11-2.37,7.44.15,7.44,5.63v4.52"/><line class="cls-7" x1="348.54" y1="151.51" x2="337.26" y2="144.99"/><path class="cls-5" d="M337.26,145a12.87,12.87,0,0,1,3.84-3.63c4.11-2.37,7.44.15,7.44,5.63v4.52"/><line class="cls-5" x1="348.54" y1="151.51" x2="337.26" y2="144.99"/><path class="cls-2" d="M333.66,155.58c0-5.48,3.33-11.85,7.44-14.22,1.86-1.07,3.56-1.14,4.86-.38h0l-14.57-8.41h0c-1.3-.75-3-.69-4.86.39-4.11,2.37-7.44,8.74-7.44,14.21v4.49l14.57,8.41Z"/><path class="cls-3" d="M321.37,138.7a18.55,18.55,0,0,0-2.28,8.46v4.49l14.57,8.41v-4.48a18.56,18.56,0,0,1,2.28-8.47Z"/><path class="cls-5" d="M333.66,155.58c0-5.48,3.33-11.85,7.44-14.22,1.86-1.07,3.56-1.14,4.86-.38h0l-14.57-8.41h0c-1.3-.75-3-.69-4.86.39-4.11,2.37-7.44,8.74-7.44,14.21v4.49l14.57,8.41Z"/><polygon class="cls-10" points="228.76 184.72 214.85 192.75 214.85 163.88 228.76 155.84 228.76 184.72"/><polygon class="cls-10" points="234.16 187.83 220.25 195.87 220.25 166.99 234.16 158.96 234.16 187.83"/><polygon class="cls-8" points="234.16 158.96 228.76 155.84 214.85 163.88 220.25 166.99 234.16 158.96"/><polygon class="cls-23" points="220.25 195.87 214.85 192.75 214.85 163.88 220.25 166.99 220.25 195.87"/><line class="cls-21" x1="224.7" y1="178.86" x2="229.7" y2="175.97"/><polygon class="cls-5" points="228.76 155.84 214.85 163.88 214.85 192.75 220.25 195.87 234.16 187.83 234.16 158.96 228.76 155.84"/><polygon class="cls-10" points="241.25 191.93 227.34 199.96 227.34 171.09 241.25 163.06 241.25 191.93"/><polygon class="cls-10" points="246.65 195.05 232.74 203.08 232.74 174.2 246.65 166.17 246.65 195.05"/><polygon class="cls-8" points="246.65 166.17 241.25 163.06 227.34 171.09 232.74 174.2 246.65 166.17"/><polygon class="cls-23" points="232.74 203.08 227.34 199.96 227.34 171.09 232.74 174.2 232.74 203.08"/><line class="cls-21" x1="237.19" y1="186.07" x2="242.19" y2="183.18"/><polygon class="cls-5" points="241.25 163.06 227.34 171.09 227.34 199.96 232.74 203.08 246.65 195.05 246.65 166.17 241.25 163.06"/><polygon class="cls-10" points="253.74 199.14 239.83 207.17 239.83 178.3 253.74 170.27 253.74 199.14"/><polygon class="cls-10" points="259.14 202.26 245.23 210.29 245.23 181.41 259.14 173.38 259.14 202.26"/><polygon class="cls-8" points="259.14 173.38 253.74 170.27 239.83 178.3 245.23 181.41 259.14 173.38"/><polygon class="cls-23" points="245.23 210.29 239.83 207.17 239.83 178.3 245.23 181.41 245.23 210.29"/><line class="cls-21" x1="249.68" y1="193.28" x2="254.68" y2="190.39"/><polygon class="cls-5" points="253.74 170.27 239.83 178.3 239.83 207.17 245.23 210.29 259.14 202.26 259.14 173.38 253.74 170.27"/><path class="cls-13" d="M271.42,214.61v5.66c0,2.62,3.69,4.74,8.23,4.74s8.22-2.12,8.22-4.74v-5.66Z"/><path class="cls-7" d="M287.87,214.61c0-2.62-3.68-4.75-8.22-4.75s-8.23,2.13-8.23,4.75h0v5.66c0,2.62,3.69,4.74,8.23,4.74s8.22-2.12,8.22-4.74v-5.66Z"/><path class="cls-3" d="M271.42,214.61v5.66c0,2.62,3.69,4.74,8.23,4.74V209.86C275.11,209.86,271.42,212,271.42,214.61Z"/><ellipse class="cls-2" cx="279.65" cy="214.61" rx="8.22" ry="4.75"/><ellipse class="cls-11" cx="279.65" cy="214.61" rx="8.22" ry="4.75"/><path class="cls-5" d="M287.87,214.61c0-2.62-3.68-4.75-8.22-4.75s-8.23,2.13-8.23,4.75h0v5.66c0,2.62,3.69,4.74,8.23,4.74s8.22-2.12,8.22-4.74v-5.66Z"/><polygon class="cls-10" points="266.24 206.35 252.32 214.39 252.32 185.51 266.24 177.48 266.24 206.35"/><polygon class="cls-10" points="271.63 209.47 257.72 217.5 257.72 188.63 271.63 180.59 271.63 209.47"/><polygon class="cls-8" points="271.63 180.59 266.24 177.48 252.32 185.51 257.72 188.63 271.63 180.59"/><polygon class="cls-23" points="257.72 217.5 252.32 214.39 252.32 185.51 257.72 188.63 257.72 217.5"/><line class="cls-21" x1="262.17" y1="200.49" x2="267.17" y2="197.6"/><polygon class="cls-5" points="266.24 177.48 252.32 185.51 252.32 214.39 257.72 217.5 271.63 209.47 271.63 180.59 266.24 177.48"/><polygon class="cls-20" points="249.74 60.52 285.9 81.4 281.43 108.7 245.28 87.82 249.74 60.52"/><polygon class="cls-5" points="249.74 60.52 285.9 81.4 281.43 108.7 245.28 87.82 249.74 60.52"/><polygon class="cls-3" points="281.43 108.7 259.93 121.11 256.35 116.03 255.06 97.53 277.06 83.9 283.69 85.78 283.69 98.15 281.43 108.7"/><line class="cls-4" x1="275.19" y1="102.3" x2="266.17" y2="107.51"/><polygon class="cls-5" points="281.43 108.7 259.93 121.11 256.35 116.03 255.06 97.53 277.06 83.9 283.69 85.78 283.69 98.15 281.43 108.7"/><path class="cls-8" d="M263.2,72.25l15-8.63c2.41-1.39,4.6-1.47,6.29-.5h0L265.85,52.37h0c-1.69-1-3.88-.9-6.29.49l-15,8.64C239.28,64.58,235,72.81,235,79.9V114c-.69,0,18.61,10.75,18.61,10.75V90.64C253.58,83.56,257.89,75.32,263.2,72.25Z"/><path class="cls-3" d="M263.2,72.25l15-8.63c2.41-1.39,4.6-1.47,6.29-.5h0L265.85,52.37h0c-1.69-1-3.88-.9-6.29.49l-15,8.64C239.28,64.58,235,72.81,235,79.9V114c-.69,0,18.61,10.75,18.61,10.75V90.64C253.58,83.56,257.89,75.32,263.2,72.25Z"/><path class="cls-2" d="M284.45,63.12h0L265.85,52.37h0c-1.69-1-3.88-.9-6.29.49l-15,8.64c-3.31,1.91-6.23,5.83-8,10.23l18.61,10.75c1.74-4.4,4.66-8.32,8-10.24l15-8.63C280.57,62.23,282.76,62.15,284.45,63.12Z"/><path class="cls-10" d="M278.16,63.62l-15,8.63c-5.31,3.07-9.62,11.31-9.62,18.39v34.14l6.35-3.67V102.73a5.88,5.88,0,0,1,2.93-5.08l15.64-9a2,2,0,0,1,2.93,1.7V108.7l6.35-3.67V70.89C287.78,63.81,283.47,60.55,278.16,63.62Z"/><path class="cls-23" d="M277.93,83.07l-14.5,8.38c-.54.31-1,0-1-.74V84.46a2.33,2.33,0,0,1,1-1.86l14.5-8.38c.54-.31,1,0,1,.74v6.25A2.33,2.33,0,0,1,277.93,83.07Z"/><polygon class="cls-11" points="260.58 66.77 268.66 62.11 262.17 58.36 254.09 63.02 260.58 66.77"/><path class="cls-5" d="M284.45,63.12h0L265.85,52.37h0c-1.69-1-3.88-.9-6.29.49l-15,8.64a12.73,12.73,0,0,0-1.12.74l-.34.27c-.26.2-.51.4-.76.62l-.36.34c-.25.23-.49.48-.72.73s-.21.21-.31.33c-.33.37-.65.75-1,1.15h0c-.31.41-.61.84-.91,1.28l-.23.38c-.21.32-.41.65-.61,1l-.25.45q-.28.52-.54,1c-.07.14-.14.27-.2.41A23.42,23.42,0,0,0,235,79.9V114c-.69,0,18.61,10.75,18.61,10.75l6.35-3.67V102.73a5.88,5.88,0,0,1,2.93-5.08l15.64-9a2,2,0,0,1,2.93,1.7V108.7l6.35-3.67V70.89C287.78,67,286.49,64.3,284.45,63.12Z"/><rect class="cls-1" width="440" height="300"/></g></g></svg>