<svg xmlns="http://www.w3.org/2000/svg" xmlns:xlink="http://www.w3.org/1999/xlink" viewBox="0 0 440 300"><defs><style>.cls-1,.cls-12,.cls-15,.cls-16,.cls-19,.cls-21,.cls-22,.cls-4,.cls-5,.cls-8{fill:none;}.cls-2,.cls-6{fill:#f2f4f6;}.cls-23,.cls-3{fill:#d5dae0;}.cls-14,.cls-16,.cls-4,.cls-6,.cls-9{stroke:#627386;}.cls-14,.cls-15,.cls-16,.cls-19,.cls-21,.cls-22,.cls-23,.cls-4,.cls-5,.cls-6,.cls-8,.cls-9{stroke-linecap:round;stroke-linejoin:round;}.cls-12,.cls-14,.cls-15,.cls-16,.cls-19,.cls-21,.cls-22,.cls-4,.cls-5,.cls-6,.cls-8,.cls-9{stroke-width:2px;}.cls-5{stroke:#fff;}.cls-14,.cls-7{fill:#fff;}.cls-12,.cls-8{stroke:#b8bfca;}.cls-13,.cls-9{fill:#b8bfca;}.cls-10{clip-path:url(#clip-path);}.cls-11{clip-path:url(#clip-path-2);}.cls-12,.cls-24{stroke-miterlimit:10;}.cls-15,.cls-21{stroke:#91d2fb;}.cls-16{stroke-dasharray:0 5.48;}.cls-17,.cls-24{fill:#bde4fd;}.cls-18{fill:#e9f6fe;}.cls-19{stroke:#1b6dc6;}.cls-20{fill:#d3edfd;}.cls-21{stroke-dasharray:0 5.77;}.cls-22,.cls-24{stroke:#bde4fd;}.cls-23{stroke:#d5dae0;}</style><clipPath id="clip-path"><path class="cls-1" d="M235.7,149.35l29.84-17.23c2.07-1.19,3.74.07,3.74,2.83v15.78l11.34-7.7s35.87-14.14,56.58-11.87,15.4,9.35,20.7,15.15,13.64,44.81,13.64,44.81-45.2,40.31-61.37,49.4S232,242,232,240.52v-84C232,153.75,233.63,150.54,235.7,149.35Z"/></clipPath><clipPath id="clip-path-2"><path class="cls-1" d="M229.78,141.77h0a2.41,2.41,0,0,1,2.47.2l86,49.63c2.09,1.21,3.79,4.45,3.79,7.24a3.33,3.33,0,0,1-1.32,3.06h0l-31.95,18.45L208,166.08Z"/></clipPath></defs><title>prism_pro_step4_alternate(1x1)</title><g id="Layer_2" data-name="Layer 2"><g id="Illustrations"><rect class="cls-1" width="440" height="300"/><path class="cls-2" d="M255,127.07l-27-15.62a15.65,15.65,0,0,0-14.17,0l-27,15.62H172.91v54c0,1.48,1,3,2.93,4.09l38,21.92A15.65,15.65,0,0,0,228,207l38-21.92c2-1.13,2.94-2.61,2.94-4.09v-54Z"/><path class="cls-3" d="M228,111.45a14.34,14.34,0,0,0-7.08-1.69v99A14.45,14.45,0,0,0,228,207l38-21.92c2-1.13,2.94-2.61,2.94-4.09v-54H255Z"/><path class="cls-4" d="M266,123l-38-21.92a15.65,15.65,0,0,0-14.17,0l-38,21.92c-2,1.13-2.93,2.61-2.93,4.1h0v54c0,1.48,1,3,2.93,4.09l38,21.92A15.65,15.65,0,0,0,228,207l38-21.92c2-1.13,2.94-2.61,2.94-4.09v-54C268.91,125.58,267.93,124.1,266,123Z"/><path class="cls-2" d="M269.28,181.35v39.91c0,3.6,5.06,6.51,11.29,6.51s11.3-2.91,11.3-6.51V181.35Z"/><path class="cls-3" d="M280.57,227.77c6.24,0,11.3-2.91,11.3-6.51V181.35h-11.3Z"/><path class="cls-4" d="M269.28,181.35v39.91c0,3.6,5.06,6.51,11.29,6.51s11.3-2.91,11.3-6.51V181.35Z"/><path class="cls-3" d="M220.91,105.12H275.6v58.07c0,1.68-1.12,3.37-3.35,4.66l-43.27,25a16.47,16.47,0,0,1-8.07,1.93Z"/><path class="cls-2" d="M220.91,105.12h-54.7v58.07c0,1.68,1.12,3.37,3.35,4.66l43.27,25a16.48,16.48,0,0,0,8.08,1.93Z"/><path class="cls-1" d="M166.21,105.12v58.07c0,1.68,1.12,3.37,3.35,4.66l43.27,25c4.46,2.58,11.69,2.58,16.15,0l43.27-25c2.23-1.29,3.35-3,3.35-4.66V105.12Z"/><path class="cls-2" d="M272.25,109.78l-43.27,25c-4.46,2.58-11.69,2.58-16.15,0l-43.27-25c-4.46-2.58-4.46-6.75,0-9.33l43.27-25c4.46-2.58,11.69-2.58,16.15,0l43.27,25C276.71,103,276.71,107.2,272.25,109.78Z"/><path class="cls-5" d="M272.25,109.78l-43.27,25c-4.46,2.58-11.69,2.58-16.15,0l-43.27-25c-4.46-2.58-4.46-6.75,0-9.33l43.27-25c4.46-2.58,11.69-2.58,16.15,0l43.27,25C276.71,103,276.71,107.2,272.25,109.78Z"/><path class="cls-4" d="M272.25,100.45,229,75.47c-4.46-2.58-11.69-2.58-16.15,0l-43.27,25c-2.23,1.29-3.35,3-3.35,4.67v58.07c0,1.68,1.12,3.37,3.35,4.66l43.27,25c4.46,2.58,11.69,2.58,16.15,0l43.27-25c2.23-1.29,3.35-3,3.35-4.66V105.12C275.6,103.43,274.48,101.74,272.25,100.45Z"/><path class="cls-6" d="M252.26,95.56,227.42,81.22a14.38,14.38,0,0,0-13,0L189.55,95.56H176.82v9.56c0,1.36.9,2.72,2.7,3.75L214.39,129a14.38,14.38,0,0,0,13,0l34.88-20.14c1.8-1,2.69-2.39,2.69-3.75V95.56Z"/><path class="cls-3" d="M227.42,81.22a13.31,13.31,0,0,0-6.51-1.56v50.91a13.31,13.31,0,0,0,6.51-1.56l34.88-20.14c1.8-1,2.69-2.39,2.69-3.75V95.56H252.26Z"/><path class="cls-7" d="M262.3,99.32l-34.88,20.14a14.45,14.45,0,0,1-13,0L179.52,99.32c-3.6-2.08-3.6-5.44,0-7.52l34.87-20.14a14.45,14.45,0,0,1,13,0L262.3,91.8C265.89,93.88,265.89,97.24,262.3,99.32Z"/><path class="cls-8" d="M240.18,97.31l-16.24,9.38a6.69,6.69,0,0,1-6.07,0l-16.24-9.38c-1.67-1-1.67-2.53,0-3.5l16.24-9.38a6.69,6.69,0,0,1,6.07,0l16.24,9.38C241.86,94.78,241.86,96.34,240.18,97.31Z"/><path class="cls-8" d="M262.3,99.32l-34.88,20.14a14.45,14.45,0,0,1-13,0L179.52,99.32c-3.6-2.08-3.6-5.44,0-7.52l34.87-20.14a14.45,14.45,0,0,1,13,0L262.3,91.8C265.89,93.88,265.89,97.24,262.3,99.32Z"/><path class="cls-4" d="M262.3,91.8,227.42,71.66a14.45,14.45,0,0,0-13,0L179.52,91.8c-1.8,1-2.7,2.4-2.7,3.76h0v9.56c0,1.36.9,2.72,2.7,3.75L214.39,129a14.38,14.38,0,0,0,13,0l34.88-20.14c1.8-1,2.69-2.39,2.69-3.75V95.56C265,94.2,264.1,92.84,262.3,91.8Z"/><path class="cls-9" d="M269.28,169.56V135c0-2.76-1.67-4-3.74-2.83L235.7,149.35c-2.07,1.19-3.75,4.4-3.75,7.15v34.62Z"/><path class="cls-4" d="M269.28,169.56V135c0-2.76-1.67-4-3.74-2.83L235.7,149.35c-2.07,1.19-3.75,4.4-3.75,7.15v34.62"/><g class="cls-10"><path class="cls-2" d="M229.78,141.77h0a2.41,2.41,0,0,1,2.47.2l86,49.63c2.09,1.21,3.79,4.45,3.79,7.24a3.33,3.33,0,0,1-1.32,3.06h0l-31.95,18.45L208,166.08Z"/><g class="cls-11"><line class="cls-12" x1="354.63" y1="175.43" x2="224.52" y2="250.54"/><line class="cls-12" x1="330.74" y1="175.43" x2="200.64" y2="250.54"/><line class="cls-12" x1="306.85" y1="175.43" x2="176.75" y2="250.54"/><line class="cls-12" x1="313.72" y1="157.67" x2="152.86" y2="250.54"/><line class="cls-12" x1="304.04" y1="149.47" x2="128.97" y2="250.54"/><line class="cls-12" x1="290.75" y1="143.35" x2="105.09" y2="250.54"/><line class="cls-12" x1="266.86" y1="143.35" x2="81.2" y2="250.54"/></g><path class="cls-3" d="M288.76,220.35l31.95-18.45h0a3.33,3.33,0,0,0,1.32-3.06,9.68,9.68,0,0,0-1.65-5.12L282.13,215.8Z"/><path class="cls-3" d="M220.85,182.38l65.43,37.77c2.09,1.21,3.79-.07,3.79-2.86h0c0-2.79-1.7-6-3.79-7.24l-75.81-43.77c-2.09-1.21-3.78.08-3.78,2.87h0C206.69,171.93,218.76,181.17,220.85,182.38Z"/><polygon class="cls-13" points="253.22 190.96 250.46 192.56 255.45 201.2 263.2 196.72 253.22 190.96"/><polygon class="cls-4" points="253.22 190.96 250.46 192.56 255.45 201.2 263.2 196.72 253.22 190.96"/><path class="cls-4" d="M220.85,182.38l65.43,37.77c2.09,1.21,3.79-.07,3.79-2.86h0c0-2.79-1.7-6-3.79-7.24l-75.81-43.77c-2.09-1.21-3.78.08-3.78,2.87h0C206.69,171.93,218.76,181.17,220.85,182.38Z"/><path class="cls-6" d="M286.28,220.15h0c2.09,1.21,3.79-.07,3.79-2.86h0c0-2.79-1.7-6-3.79-7.24h0c-2.09-1.21-3.79.07-3.79,2.86h0C282.49,215.7,284.19,218.94,286.28,220.15Z"/><path class="cls-6" d="M253,201h0c2.1,1.21,3.79-.07,3.79-2.86h0c0-2.79-1.69-6-3.79-7.24h0c-2.09-1.21-3.78.07-3.78,2.86h0C249.26,196.51,251,199.75,253,201Z"/><path class="cls-4" d="M322,198.84c0-2.79-1.7-6-3.79-7.24l-86-49.63a2.41,2.41,0,0,0-2.47-.2h0L208,166.08l0,0a3.3,3.3,0,0,0-1.33,3.05c0,2.78,12.07,12,14.16,13.23l65.43,37.77a2.41,2.41,0,0,0,2.46.18l0,0,31.95-18.45h0A3.33,3.33,0,0,0,322,198.84Z"/></g><path class="cls-4" d="M258.84,136,235.7,149.35c-2.07,1.19-3.75,4.4-3.75,7.15v34.62"/><path class="cls-2" d="M201.63,93.81l16.24-9.38a6.69,6.69,0,0,1,6.07,0l16.24,9.38c1.68,1,1.68,2.53,0,3.5l-16.24,9.38a6.69,6.69,0,0,1-6.07,0l-16.24-9.38C200,96.34,200,94.78,201.63,93.81Z"/><path class="cls-3" d="M220.91,83.71a6.27,6.27,0,0,0-3,.72l-16.24,9.38c-1.67,1-1.67,2.53,0,3.5l16.24,9.38a6.27,6.27,0,0,0,3,.72Z"/><path class="cls-4" d="M201.63,93.81l16.24-9.38a6.69,6.69,0,0,1,6.07,0l16.24,9.38c1.68,1,1.68,2.53,0,3.5l-16.24,9.38a6.69,6.69,0,0,1-6.07,0l-16.24-9.38C200,96.34,200,94.78,201.63,93.81Z"/><path class="cls-5" d="M282.42,250.9l37.18,21.47a15.36,15.36,0,0,0,13.88,0l37.19-21.47c3.83-2.21,3.83-5.8,0-8l-37.19-21.47a15.3,15.3,0,0,0-13.88,0l-37.18,21.47C278.58,245.1,278.58,248.69,282.42,250.9Z"/><path class="cls-3" d="M299.6,238.68,321,226.36a12.33,12.33,0,0,1,11.19,0l21.35,12.32h10.94v8.21a3.92,3.92,0,0,1-2.32,3.23l-30,17.31a12.39,12.39,0,0,1-11.19,0l-30-17.31a3.93,3.93,0,0,1-2.31-3.23v-8.21Z"/><path class="cls-2" d="M321,226.36a11.33,11.33,0,0,1,5.59-1.34v43.75a11.44,11.44,0,0,1-5.59-1.34l-30-17.31a3.93,3.93,0,0,1-2.31-3.23v-8.21H299.6Z"/><path class="cls-7" d="M291,241.91l30,17.31a12.39,12.39,0,0,0,11.19,0l30-17.31c3.09-1.78,3.09-4.67,0-6.46l-30-17.3a12.33,12.33,0,0,0-11.19,0l-30,17.3C287.88,237.24,287.88,240.13,291,241.91Z"/><path class="cls-8" d="M301.25,241l21.31,12.31a8.85,8.85,0,0,0,8,0L351.84,241c2.2-1.27,2.2-3.33,0-4.6l-21.32-12.3a8.79,8.79,0,0,0-8,0l-21.31,12.3C299.05,237.65,299.05,239.71,301.25,241Z"/><path class="cls-8" d="M291,241.91l30,17.31a12.39,12.39,0,0,0,11.19,0l30-17.31c3.09-1.78,3.09-4.67,0-6.46l-30-17.3a12.33,12.33,0,0,0-11.19,0l-30,17.3C287.88,237.24,287.88,240.13,291,241.91Z"/><path class="cls-4" d="M291,235.45l30-17.3a12.33,12.33,0,0,1,11.19,0l30,17.3a3.92,3.92,0,0,1,2.32,3.23h0v8.21a3.92,3.92,0,0,1-2.32,3.23l-30,17.31a12.39,12.39,0,0,1-11.19,0l-30-17.31a3.93,3.93,0,0,1-2.31-3.23v-8.21A3.93,3.93,0,0,1,291,235.45Z"/><path class="cls-3" d="M351.84,236.38l-21.32-12.3a8.79,8.79,0,0,0-8,0l-21.31,12.3c-2.2,1.27-2.2,3.33,0,4.6l21.31,12.31a8.85,8.85,0,0,0,8,0L351.84,241C354,239.71,354,237.65,351.84,236.38Z"/><path class="cls-2" d="M326.54,223.13a8.08,8.08,0,0,1,4,1l21.32,12.3c2.2,1.27,2.2,3.33,0,4.6l-21.32,12.31a8.19,8.19,0,0,1-4,1Z"/><path class="cls-14" d="M353.83,239.83l-25.3,14.6a4.37,4.37,0,0,1-4,0l-6-3.47h0l29.28-16.9h0l6,3.47A1.22,1.22,0,0,1,353.83,239.83Z"/><path class="cls-4" d="M353.83,237.53l-25.3-14.6a4.43,4.43,0,0,0-4,0l-25.29,14.6a1.22,1.22,0,0,0,0,2.3l25.29,14.6a4.37,4.37,0,0,0,4,0l25.3-14.6A1.22,1.22,0,0,0,353.83,237.53Z"/><path class="cls-15" d="M211.66,47.89V55.7c0,2.95,4.14,5.34,9.25,5.34s9.24-2.39,9.24-5.34V47.89Z"/><path class="cls-3" d="M230.15,47.89c0-3-4.14-5.34-9.24-5.34s-9.25,2.39-9.25,5.34h0V55.7c0,2.95,4.14,5.34,9.25,5.34s9.24-2.39,9.24-5.34V47.89Z"/><path class="cls-2" d="M211.66,47.89V55.7c0,2.95,4.14,5.34,9.25,5.34V42.55C215.8,42.55,211.66,44.94,211.66,47.89Z"/><ellipse class="cls-7" cx="220.91" cy="47.89" rx="9.25" ry="5.34"/><ellipse class="cls-8" cx="220.91" cy="47.89" rx="9.25" ry="5.34"/><path class="cls-4" d="M230.15,47.89c0-3-4.14-5.34-9.24-5.34s-9.25,2.39-9.25,5.34h0V55.7c0,2.95,4.14,5.34,9.25,5.34s9.24-2.39,9.24-5.34V47.89Z"/><line class="cls-4" x1="230.15" y1="47.89" x2="230.15" y2="47.89"/><line class="cls-16" x1="230.15" y1="42.41" x2="230.15" y2="28.71"/><line class="cls-4" x1="230.15" y1="25.97" x2="230.15" y2="25.97"/><line class="cls-4" x1="211.66" y1="47.89" x2="211.66" y2="47.89"/><line class="cls-16" x1="211.66" y1="42.41" x2="211.66" y2="28.71"/><line class="cls-4" x1="211.66" y1="25.97" x2="211.66" y2="25.97"/><polygon class="cls-7" points="279.4 176.65 269.13 182.59 269.13 189.38 279.4 195.31 289.68 189.38 289.68 182.59 279.4 176.65"/><polygon class="cls-17" points="289.68 189.38 279.4 195.31 279.4 188.52 289.68 182.59 289.68 189.38"/><polygon class="cls-18" points="269.13 189.38 279.4 195.31 279.4 188.52 269.13 182.59 269.13 189.38"/><polygon class="cls-15" points="269.13 189.38 279.4 195.31 279.4 188.52 269.13 182.59 269.13 189.38"/><polygon class="cls-15" points="289.68 182.59 279.4 176.65 269.13 182.59 279.4 188.52 289.68 182.59"/><polygon class="cls-19" points="279.4 176.65 269.13 182.59 269.13 189.38 279.4 195.31 289.68 189.38 289.68 182.59 279.4 176.65"/><polygon class="cls-7" points="240.23 166.83 258.27 169.62 253.44 159.2 240.23 166.83"/><polygon class="cls-20" points="258.27 169.62 258.27 175.9 240.23 173.11 240.23 166.83 258.27 169.62"/><polygon class="cls-15" points="240.23 166.83 258.27 169.62 253.44 159.2 240.23 166.83"/><polygon class="cls-15" points="258.27 169.62 258.27 175.9 240.23 173.11 240.23 166.83 258.27 169.62"/><polygon class="cls-19" points="253.44 159.2 258.27 169.62 258.27 175.9 240.23 173.11 240.23 166.83 253.44 159.2"/><line class="cls-15" x1="181.62" y1="203.7" x2="181.62" y2="203.7"/><line class="cls-21" x1="176.63" y1="206.58" x2="149.17" y2="222.44"/><line class="cls-15" x1="146.67" y1="223.88" x2="146.67" y2="223.88"/><polygon class="cls-22" points="177.82 201.5 183.02 200.7 188.21 199.89 186.82 202.89 185.43 205.89 181.62 203.7 177.82 201.5"/><path class="cls-1" d="M70.05,241.23,93.3,254.65l23.24,13.43a19.23,19.23,0,0,0,17.36,0l23.25-13.43,23.25-13.42c2.39-1.38,3.59-3.19,3.59-5s-1.2-3.62-3.59-5l-23.25-13.42L133.9,204.37a19.15,19.15,0,0,0-17.36,0L93.3,217.79,70.05,231.21c-2.39,1.39-3.59,3.2-3.59,5S67.66,239.85,70.05,241.23Z"/><path class="cls-3" d="M91.54,229l26.69-15.41a15.46,15.46,0,0,1,14,0L158.91,229H172.6v7.23c0,1.46-1,2.93-2.9,4L132.22,261.9a15.46,15.46,0,0,1-14,0L80.75,240.26c-1.93-1.11-2.9-2.58-2.9-4V229Z"/><path class="cls-2" d="M118.23,213.58a14.23,14.23,0,0,1,7-1.68v51.67a14.34,14.34,0,0,1-7-1.67L80.75,240.26c-1.93-1.11-2.9-2.58-2.9-4V229H91.54Z"/><path class="cls-7" d="M80.75,233l37.48,21.63a15.46,15.46,0,0,0,14,0L169.7,233c3.86-2.23,3.86-5.85,0-8.08l-37.48-21.64a15.46,15.46,0,0,0-14,0L80.75,225C76.89,227.18,76.89,230.8,80.75,233Z"/><polygon class="cls-7" points="161.09 229.84 151.29 231.35 141.5 232.87 144.12 227.21 146.75 221.56 153.92 225.7 161.09 229.84"/><polygon class="cls-7" points="102.47 235 97.04 231.86 91.6 228.72 97.04 225.59 102.47 222.45 107.91 225.59 113.34 228.72 107.91 231.86 102.47 235"/><polygon class="cls-7" points="114.8 242.85 120.27 236.66 132.17 237.74 134.05 244.61 123.32 247.77 114.8 242.85"/><path class="cls-8" d="M80.75,233l37.48,21.63a15.46,15.46,0,0,0,14,0L169.7,233c3.86-2.23,3.86-5.85,0-8.08l-37.48-21.64a15.46,15.46,0,0,0-14,0L80.75,225C76.89,227.18,76.89,230.8,80.75,233Z"/><path class="cls-4" d="M80.75,225l37.48-21.64a15.46,15.46,0,0,1,14,0L169.7,225c1.93,1.11,2.9,2.58,2.9,4h0v7.23c0,1.46-1,2.93-2.9,4L132.22,261.9a15.46,15.46,0,0,1-14,0L80.75,240.26c-1.93-1.11-2.9-2.58-2.9-4V229C77.85,227.53,78.82,226.06,80.75,225Z"/><polygon class="cls-3" points="161.09 229.84 151.29 231.35 141.5 232.87 144.12 227.21 146.75 221.56 153.92 225.7 161.09 229.84"/><polygon class="cls-3" points="102.47 235 97.04 231.86 91.6 228.72 97.04 225.59 102.47 222.45 107.91 225.59 113.34 228.72 107.91 231.86 102.47 235"/><ellipse class="cls-3" cx="124.66" cy="215.91" rx="8.78" ry="5.07"/><polygon class="cls-8" points="161.09 229.84 151.29 231.35 141.5 232.87 144.12 227.21 146.75 221.56 153.92 225.7 161.09 229.84"/><polygon class="cls-8" points="102.47 235 97.04 231.86 91.6 228.72 97.04 225.59 102.47 222.45 107.91 225.59 113.34 228.72 107.91 231.86 102.47 235"/><ellipse class="cls-8" cx="124.66" cy="215.91" rx="8.78" ry="5.07"/><polygon class="cls-8" points="114.8 242.85 120.27 236.66 132.17 237.74 134.05 244.61 123.32 247.77 114.8 242.85"/><path class="cls-7" d="M207.72,172.92l-32-18.46a4.81,4.81,0,0,1-2-3.85V132.39c0-1.49.9-2.17,2-1.53l32,18.46a4.81,4.81,0,0,1,2,3.85v18.22C209.74,172.88,208.84,173.56,207.72,172.92Z"/><path class="cls-8" d="M207.72,172.92l-32-18.46a4.81,4.81,0,0,1-2-3.85V132.39c0-1.49.9-2.17,2-1.53l32,18.46a4.81,4.81,0,0,1,2,3.85v18.22C209.74,172.88,208.84,173.56,207.72,172.92Z"/><ellipse class="cls-23" cx="202.9" cy="158.26" rx="2.39" ry="4.23" transform="translate(-45.76 92.08) rotate(-23.05)"/><polygon class="cls-24" points="183.77 150.35 179.06 147.63 179.06 141.35 183.77 144.07 183.77 150.35"/><polygon class="cls-24" points="188.53 153.16 191.65 147.76 194.77 156.76 188.53 153.16"/></g></g></svg>