<svg xmlns="http://www.w3.org/2000/svg" viewBox="0 0 440 300"><defs><style>.cls-1,.cls-12,.cls-14,.cls-19,.cls-2,.cls-3,.cls-7,.cls-8{fill:none;}.cls-2{stroke:#bde4fd;}.cls-10,.cls-11,.cls-12,.cls-14,.cls-15,.cls-16,.cls-17,.cls-19,.cls-2,.cls-20,.cls-3,.cls-7,.cls-8,.cls-9{stroke-linecap:round;stroke-linejoin:round;}.cls-10,.cls-11,.cls-12,.cls-14,.cls-15,.cls-16,.cls-17,.cls-19,.cls-2,.cls-20,.cls-22,.cls-3,.cls-7,.cls-8,.cls-9{stroke-width:2px;}.cls-20,.cls-3{stroke:#91d2fb;}.cls-4{fill:#bde4fd;}.cls-5{fill:#e9f6fe;}.cls-11,.cls-20,.cls-6{fill:#fff;}.cls-7,.cls-8{stroke:#1b6dc6;}.cls-8{stroke-dasharray:0 6.55;}.cls-17,.cls-18,.cls-9{fill:#d5dae0;}.cls-10,.cls-11,.cls-12,.cls-9{stroke:#b8bfca;}.cls-10,.cls-15,.cls-21,.cls-22{fill:#f2f4f6;}.cls-13,.cls-16{fill:#b8bfca;}.cls-14{stroke:#627386;}.cls-15,.cls-16,.cls-17,.cls-22{stroke:#fff;}.cls-19{stroke:#d5dae0;}.cls-22{stroke-miterlimit:10;}</style></defs><title>prism_pro_step2(1x1)</title><g id="Layer_2" data-name="Layer 2"><g id="Illustrations"><rect class="cls-1" width="440" height="300"/><polygon class="cls-1" points="400 150 220 253.92 40 150 220 46.08 400 150"/><line class="cls-2" x1="166.6" y1="150" x2="220" y2="119.17"/><line class="cls-3" x1="273.4" y1="150" x2="220" y2="119.17"/><polygon class="cls-4" points="234.54 98.19 220 106.58 220 180.83 273.4 150 234.54 98.19"/><polygon class="cls-5" points="205.46 98.19 220 106.58 220 180.83 166.6 150 205.46 98.19"/><polygon class="cls-6" points="205.46 98.19 220 89.79 234.54 98.19 220 106.58 205.46 98.19"/><polygon class="cls-4" points="220 46.08 220 73.85 234.54 65.46 220 46.08"/><polygon class="cls-5" points="220 46.08 220 73.85 205.46 65.46 220 46.08"/><line class="cls-3" x1="220" y1="46.08" x2="220" y2="73.85"/><line class="cls-7" x1="234.54" y1="65.46" x2="234.54" y2="65.46"/><line class="cls-8" x1="234.54" y1="72" x2="234.54" y2="94.91"/><line class="cls-7" x1="234.54" y1="98.19" x2="234.54" y2="98.19"/><line class="cls-7" x1="205.46" y1="65.46" x2="205.46" y2="65.46"/><line class="cls-8" x1="205.46" y1="72" x2="205.46" y2="94.91"/><line class="cls-7" x1="205.46" y1="98.19" x2="205.46" y2="98.19"/><polygon class="cls-3" points="205.46 98.19 220 89.79 234.54 98.19 220 106.58 205.46 98.19"/><polygon class="cls-7" points="220 46.08 205.46 65.46 220 73.85 234.54 65.46 220 46.08"/><polygon class="cls-3" points="234.54 98.19 220 106.58 220 180.83 273.4 150 234.54 98.19"/><polygon class="cls-7" points="234.54 98.19 220 89.79 205.46 98.19 166.6 150 220 180.83 273.4 150 234.54 98.19"/><polygon class="cls-7" points="205.46 98.19 220 89.79 234.54 98.19 273.4 150 220 180.83 166.6 150 205.46 98.19"/><polygon class="cls-9" points="254.63 233.99 220 253.92 220.02 242.39 254.65 222.46 254.63 233.99"/><polygon class="cls-10" points="185.42 233.89 220 253.92 220.02 242.39 185.44 222.36 185.42 233.89"/><polygon class="cls-11" points="254.65 222.46 220.07 202.43 185.44 222.36 220.02 242.39 254.65 222.46"/><polygon class="cls-12" points="254.65 222.46 237.36 212.44 220.04 222.41 237.33 232.42 254.65 222.46"/><polygon class="cls-12" points="254.65 222.46 220.07 202.43 185.44 222.36 220.02 242.39 254.65 222.46"/><line class="cls-12" x1="237.33" y1="232.42" x2="237.33" y2="243.99"/><ellipse class="cls-12" cx="237.32" cy="222.46" rx="5" ry="2.88"/><ellipse class="cls-13" cx="220.07" cy="207.55" rx="1.67" ry="0.96"/><ellipse class="cls-13" cx="194.3" cy="222.37" rx="1.67" ry="0.96"/><ellipse class="cls-13" cx="220.02" cy="237.27" rx="1.67" ry="0.96"/><polygon class="cls-14" points="237.36 212.44 237.36 212.44 220.07 202.43 185.44 222.36 185.42 233.89 220 253.92 254.63 233.99 254.65 222.46 237.36 212.44"/><polygon class="cls-9" points="237.36 212.44 220.04 222.41 220.06 210.87 237.38 200.91 237.36 212.44"/><polygon class="cls-6" points="237.27 232.46 220.02 242.39 185.44 222.36 185.45 210.82 220.09 190.89 237.38 200.91 237.38 200.91 220.06 210.87 237.35 220.89 237.27 232.46"/><line class="cls-9" x1="230.02" y1="216.64" x2="220.06" y2="210.87"/><line class="cls-9" x1="220.06" y1="210.87" x2="237.38" y2="200.91"/><polygon class="cls-9" points="237.33 232.42 220.02 242.39 220.03 230.85 237.35 220.89 237.33 232.42"/><polygon class="cls-10" points="185.44 222.36 220.02 242.39 220.03 230.85 185.46 210.82 185.44 222.36"/><line class="cls-12" x1="237.35" y1="220.89" x2="237.35" y2="232.45"/><ellipse class="cls-13" cx="220.08" cy="196.01" rx="1.67" ry="0.96"/><ellipse class="cls-13" cx="194.32" cy="210.84" rx="1.67" ry="0.96"/><ellipse class="cls-13" cx="220.04" cy="225.73" rx="1.67" ry="0.96"/><polygon class="cls-14" points="237.27 232.46 220.02 242.39 185.44 222.36 185.45 210.82 220.09 190.89 237.38 200.91 237.38 200.91 237.36 212.44 230.02 216.64 237.35 220.89 237.27 232.46"/><polygon class="cls-15" points="300.66 168.26 289.93 162.07 279.16 168.29 289.89 174.48 300.66 168.26"/><polygon class="cls-16" points="300.66 182.57 289.89 188.79 289.89 174.48 300.66 168.26 300.66 182.57"/><polygon class="cls-17" points="279.16 182.6 289.89 188.79 289.89 174.48 279.16 168.29 279.16 182.6"/><polygon class="cls-14" points="289.93 162.07 279.16 168.29 279.16 182.6 289.89 188.79 300.66 182.57 300.66 168.26 289.93 162.07"/><polygon class="cls-11" points="289.89 174.48 279.16 168.29 249.4 185.47 260.13 191.66 289.89 174.48"/><polygon class="cls-9" points="289.89 188.79 260.13 205.97 260.13 191.66 289.89 174.48 289.89 188.79"/><polygon class="cls-10" points="249.4 199.78 260.13 205.97 260.13 191.66 249.4 185.47 249.4 199.78"/><polygon class="cls-14" points="279.16 168.29 249.4 185.47 249.4 199.78 260.13 205.97 289.89 188.79 289.89 174.48 279.16 168.29"/><polygon class="cls-15" points="325.84 166.12 315.11 159.92 298.27 169.65 309 175.84 325.84 166.12"/><polygon class="cls-16" points="325.84 180.43 309 190.15 309 175.84 325.84 166.12 325.84 180.43"/><polygon class="cls-17" points="305.75 179.63 309 190.15 309 175.84 298.27 169.65 305.75 179.63"/><polygon class="cls-14" points="315.11 159.92 298.27 169.65 305.75 179.63 309 190.15 325.84 180.43 325.84 166.12 315.11 159.92"/><polygon class="cls-11" points="309 175.84 298.27 169.65 260.13 191.66 270.86 197.86 309 175.84"/><polygon class="cls-9" points="309 190.15 270.86 212.17 270.86 197.86 309 175.84 309 190.15"/><polygon class="cls-10" points="260.13 205.97 270.86 212.17 270.86 197.86 260.13 191.66 260.13 205.97"/><polygon class="cls-14" points="298.27 169.65 260.13 191.66 260.13 205.97 270.86 212.17 309 190.15 309 175.84 298.27 169.65"/><polygon class="cls-15" points="349.71 164.73 338.98 158.53 325.53 166.3 336.26 172.49 349.71 164.73"/><polygon class="cls-16" points="349.71 179.03 336.26 186.8 336.26 172.49 349.71 164.73 349.71 179.03"/><polygon class="cls-17" points="325.53 180.61 336.26 186.8 336.26 172.49 325.53 166.3 325.53 180.61"/><polygon class="cls-14" points="338.98 158.53 325.53 166.3 325.53 180.61 336.26 186.8 349.71 179.03 349.71 164.73 338.98 158.53"/><polygon class="cls-11" points="336.26 172.49 325.53 166.3 270.86 197.86 281.59 204.05 336.26 172.49"/><polygon class="cls-9" points="336.26 186.8 281.59 218.36 281.59 204.05 336.26 172.49 336.26 186.8"/><polygon class="cls-10" points="270.86 212.17 281.59 218.36 281.59 204.05 270.86 197.86 270.86 212.17"/><polygon class="cls-14" points="325.53 166.3 270.86 197.86 270.86 212.17 281.59 218.36 336.26 186.8 336.26 172.49 325.53 166.3"/><polygon class="cls-10" points="318.26 132.65 344.11 117.73 318.26 102.81 318.26 132.65"/><polygon class="cls-18" points="318.26 102.81 327.27 127.45 318.26 132.65 318.26 102.81"/><polygon class="cls-9" points="318.26 132.65 292.42 117.73 318.26 102.81 318.26 132.65"/><polygon class="cls-9" points="302.23 126 308.61 128.48 297.91 134.65 297.63 126 302.23 126"/><polygon class="cls-10" points="318.26 122.9 292.42 137.82 318.26 152.74 344.11 137.82 318.26 122.9"/><polygon class="cls-9" points="344.11 137.82 318.26 152.74 318.26 132.65 344.11 117.73 344.11 137.82"/><path class="cls-10" d="M292.42,117.73v20.09l25.84,14.92V132.65Z"/><path class="cls-9" d="M309.65,136.4c0,.92-.56,1.34-1.25.94l-6.12-3.53a3,3,0,0,1-1.25-2.38v-1c0-.92.56-1.34,1.25-.94l6.12,3.53a3,3,0,0,1,1.25,2.39Z"/><path class="cls-11" d="M335.49,121.48c0,.92-.56,1.34-1.25.94l-6.11-3.53a3,3,0,0,1-1.25-2.38v-1c0-.92.56-1.34,1.25-.94l6.11,3.53a3,3,0,0,1,1.25,2.39Z"/><line class="cls-14" x1="344.1" y1="117.73" x2="318.26" y2="132.65"/><line class="cls-14" x1="318.26" y1="132.65" x2="292.42" y2="117.73"/><line class="cls-14" x1="292.42" y1="117.73" x2="318.26" y2="102.81"/><polygon class="cls-11" points="318.26 102.81 292.42 117.73 318.26 132.65 344.11 117.73 318.26 102.81"/><line class="cls-11" x1="331.18" y1="125.19" x2="305.34" y2="110.27"/><path class="cls-9" d="M323.65,117.35l-6,3.49a2.22,2.22,0,0,1-2,0l-2.75-1.59a.61.61,0,0,1,0-1.15l6-3.48a2.18,2.18,0,0,1,2,0l2.75,1.59A.6.6,0,0,1,323.65,117.35Z"/><line class="cls-10" x1="333.51" y1="133.89" x2="328.86" y2="136.57"/><polygon class="cls-14" points="318.26 102.81 318.26 102.81 318.26 102.81 292.42 117.73 292.42 117.73 292.42 137.82 292.42 137.82 299.35 141.82 318.26 152.74 318.26 152.74 344.11 137.82 344.11 117.73 318.26 102.81"/><polygon class="cls-10" points="87.83 131.24 125.8 153.11 125.75 144.41 87.78 122.54 87.83 131.24"/><polygon class="cls-9" points="173 125.81 125.8 153.11 125.75 144.41 172.94 117.1 173 125.81"/><polygon class="cls-11" points="87.78 122.54 134.97 95.23 172.94 117.1 125.75 144.41 87.78 122.54"/><polygon class="cls-11" points="94.67 126.51 141.86 99.2 172.94 117.1 125.75 144.41 94.67 126.51"/><polygon class="cls-10" points="87.78 122.54 134.97 95.23 141.86 99.2 94.67 126.51 87.78 122.54"/><polygon class="cls-9" points="94.67 135.18 87.83 131.24 87.78 122.54 94.67 126.51 94.67 135.18"/><line class="cls-19" x1="141.86" y1="107.32" x2="158.73" y2="117.02"/><line class="cls-11" x1="108.61" y1="126.55" x2="125.48" y2="136.26"/><polygon class="cls-11" points="141.86 107.32 158.73 117.02 125.47 136.26 117.45 131.65 123.15 127.53 123.86 122.54 129.8 118.31 137.06 117.34 140.99 112.17 141.86 107.32"/><polygon class="cls-10" points="141.86 107.32 158.73 117.02 125.47 136.26 117.45 131.65 123.15 127.53 123.86 122.54 129.8 118.31 137.06 117.34 140.99 112.17 141.86 107.32"/><polygon class="cls-14" points="172.94 117.1 141.86 99.2 141.86 99.2 141.86 99.2 141.86 99.2 134.97 95.23 87.78 122.54 87.83 131.24 125.8 153.11 173 125.81 172.94 117.1"/><line class="cls-14" x1="141.86" y1="99.2" x2="94.67" y2="126.51"/><line class="cls-14" x1="94.67" y1="126.51" x2="94.67" y2="135.18"/><polygon class="cls-20" points="355.33 144.25 372.62 134.23 389.94 144.2 372.65 154.21 355.33 144.25"/><polygon class="cls-9" points="389.94 144.25 389.94 155.81 372.62 165.78 372.62 154.21 389.94 144.25"/><polygon class="cls-10" points="372.62 165.78 372.62 154.21 355.3 144.25 355.3 155.81 372.62 165.78"/><polygon class="cls-14" points="372.65 134.23 355.33 144.2 355.3 144.25 355.3 155.81 372.62 165.78 389.94 155.81 389.94 144.25 372.65 134.23"/><ellipse class="cls-12" cx="372.62" cy="144.15" rx="5" ry="2.88"/><polygon class="cls-21" points="160.46 80.45 183.02 83.94 176.97 70.92 160.46 80.45"/><polygon class="cls-18" points="183.02 83.94 183.02 95.29 160.46 91.8 160.46 80.45 183.02 83.94"/><polygon class="cls-12" points="160.46 80.45 183.02 83.94 176.97 70.92 160.46 80.45"/><polygon class="cls-12" points="183.02 83.94 183.02 95.29 160.46 91.8 160.46 80.45 183.02 83.94"/><polygon class="cls-14" points="176.97 70.92 183.02 83.94 183.02 95.29 160.46 91.8 160.46 80.45 176.97 70.92"/><path class="cls-3" d="M54.46,144.49v11c0,3.69,5.17,6.68,11.56,6.68s11.56-3,11.56-6.68v-11Z"/><path class="cls-9" d="M77.58,144.49c0-3.69-5.18-6.67-11.56-6.67s-11.56,3-11.56,6.67h0v11c0,3.69,5.17,6.68,11.56,6.68s11.56-3,11.56-6.68v-11Z"/><ellipse class="cls-5" cx="66.02" cy="144.49" rx="11.56" ry="6.67"/><ellipse class="cls-6" cx="66.02" cy="144.49" rx="11.56" ry="6.67"/><ellipse class="cls-10" cx="66.02" cy="144.49" rx="11.56" ry="6.67"/><path class="cls-14" d="M77.58,144.49c0-3.69-5.18-6.67-11.56-6.67s-11.56,3-11.56,6.67h0v11c0,3.69,5.17,6.68,11.56,6.68s11.56-3,11.56-6.68v-11Z"/><polygon class="cls-6" points="98.57 157 85.72 164.41 85.72 176.4 98.57 183.81 111.41 176.4 111.41 164.41 98.57 157"/><polygon class="cls-18" points="111.41 176.4 98.57 183.81 98.57 171.83 111.41 164.41 111.41 176.4"/><polygon class="cls-21" points="85.72 176.4 98.57 183.81 98.57 171.83 85.72 164.41 85.72 176.4"/><polygon class="cls-12" points="111.41 176.4 98.57 183.81 98.57 171.83 111.41 164.41 111.41 176.4"/><polygon class="cls-12" points="85.72 176.4 98.57 183.81 98.57 171.83 85.72 164.41 85.72 176.4"/><polygon class="cls-12" points="111.41 164.41 98.57 157 85.72 164.41 98.57 171.83 111.41 164.41"/><polygon class="cls-14" points="98.57 157 85.72 164.41 85.72 176.4 98.57 183.81 111.41 176.4 111.41 164.41 98.57 157"/><path class="cls-21" d="M181.71,183.07a23.26,23.26,0,0,0-5-3.76c-11.88-6.86-31.15-6.86-43,0a23.52,23.52,0,0,0-5,3.76h-3.95v8.66c0,4.5,3,9,8.91,12.43,11.88,6.86,31.15,6.86,43,0,5.94-3.43,8.92-7.93,8.92-12.43v-8.66Z"/><path class="cls-18" d="M176.75,179.31c-5.94-3.43-13.73-5.14-21.51-5.14V209.3c7.78,0,15.57-1.71,21.51-5.14s8.91-7.93,8.91-12.43v-8.66h-3.95A23.26,23.26,0,0,0,176.75,179.31Z"/><ellipse class="cls-6" cx="155.24" cy="183.07" rx="30.43" ry="17.57"/><ellipse class="cls-11" cx="155.24" cy="183.07" rx="30.43" ry="17.57"/><ellipse class="cls-11" cx="155.24" cy="183.07" rx="30.43" ry="17.57"/><path class="cls-10" d="M176.75,170.65c-5.94-3.43-13.73-5.14-21.51-5.14v17.56h30.42C185.66,178.58,182.69,174.08,176.75,170.65Z"/><path class="cls-14" d="M185.67,183.07c0-4.49-3-9-8.92-12.42-11.88-6.86-31.15-6.86-43,0-5.94,3.43-8.91,7.93-8.91,12.42h0v8.66c0,4.5,3,9,8.91,12.43,11.88,6.86,31.15,6.86,43,0,5.94-3.43,8.92-7.93,8.92-12.43v-8.66Z"/><path class="cls-13" d="M289.27,86.32l-9.42-5.44a5.28,5.28,0,0,0-3.3-.51l-12.87,2a3.13,3.13,0,0,0-2.42,1.4l-3.44,7.43a1.19,1.19,0,0,0-.12.51h0v8.78h0a1.71,1.71,0,0,0,1,1.4l9.42,5.44a5.36,5.36,0,0,0,3.3.51l12.87-2a3.14,3.14,0,0,0,2.42-1.4L290.16,97a1.17,1.17,0,0,0,.11-.51h0V87.72h0A1.71,1.71,0,0,0,289.27,86.32Z"/><path class="cls-18" d="M270,81.39l-6.28,1a3.13,3.13,0,0,0-2.42,1.4l-3.44,7.43a1.19,1.19,0,0,0-.12.51h0v8.78h0a1.71,1.71,0,0,0,1,1.4l9.42,5.44a4.77,4.77,0,0,0,1.84.53Z"/><path class="cls-12" d="M290.28,87.72l-11.89,1.45a6,6,0,0,0-1.84,0l-7.45,1.16L257.7,91.7v8.78h0a1.71,1.71,0,0,0,1,1.4l9.42,5.44a5.36,5.36,0,0,0,3.3.51l12.87-2a3.14,3.14,0,0,0,2.42-1.4L290.16,97a1.17,1.17,0,0,0,.11-.51h0Z"/><path class="cls-22" d="M257.82,91.19l3.44-7.43a3.13,3.13,0,0,1,2.42-1.4l12.87-2a5.28,5.28,0,0,1,3.3.51l9.42,5.44c.87.5,1.21,1.23.89,1.91l-3.45,7.43a3.11,3.11,0,0,1-2.42,1.39l-12.87,2a5.28,5.28,0,0,1-3.3-.52L258.7,93.1C257.84,92.6,257.5,91.87,257.82,91.19Z"/><path class="cls-14" d="M289.27,86.32l-9.42-5.44a5.28,5.28,0,0,0-3.3-.51l-12.87,2a3.13,3.13,0,0,0-2.42,1.4l-3.44,7.43a1.19,1.19,0,0,0-.12.51h0v8.78h0a1.71,1.71,0,0,0,1,1.4l9.42,5.44a5.36,5.36,0,0,0,3.3.51l12.87-2a3.14,3.14,0,0,0,2.42-1.4L290.16,97a1.17,1.17,0,0,0,.11-.51h0V87.72h0A1.71,1.71,0,0,0,289.27,86.32Z"/><ellipse class="cls-9" cx="273.99" cy="89.71" rx="6.48" ry="3.74"/></g></g></svg>