<svg xmlns="http://www.w3.org/2000/svg" viewBox="0 0 126 126"><defs><style>.cls-1,.cls-9{fill:#fff;}.cls-1,.cls-6{stroke:#627386;}.cls-1,.cls-10,.cls-11,.cls-13,.cls-4,.cls-6{stroke-linecap:round;stroke-linejoin:round;}.cls-1,.cls-10,.cls-11,.cls-12,.cls-4,.cls-6{stroke-width:2px;}.cls-2{fill:#d5dae0;}.cls-3{fill:#f2f4f6;}.cls-10,.cls-11,.cls-12,.cls-13,.cls-14,.cls-4,.cls-6{fill:none;}.cls-4{stroke:#b8bfca;}.cls-5{fill:#b8bfca;}.cls-7{fill:#e9f6fe;}.cls-8{fill:#bde4fd;}.cls-10{stroke:#91d2fb;}.cls-11{stroke:#1b6dc6;}.cls-12{stroke:#bde4fd;stroke-miterlimit:10;}.cls-13{stroke:#d5dae0;stroke-width:1.5px;}</style></defs><title>vmaas_step3(1x1)</title><g id="Layer_2" data-name="Layer 2"><g id="Illustrations"><path class="cls-1" d="M96.22,68.38,65.53,50.6a5,5,0,0,0-5,0L29.8,68.28a3,3,0,0,0-1.5,2.59l0,19.69a3,3,0,0,0,1.5,2.59l30.69,17.78a5,5,0,0,0,5,0L96.2,93.24a3,3,0,0,0,1.5-2.58l0-19.69A3,3,0,0,0,96.22,68.38Z"/><polygon class="cls-2" points="97.7 92.38 62.96 112.37 62.98 100.8 97.72 80.81 97.7 92.38"/><polygon class="cls-3" points="28.28 92.28 62.96 112.37 62.98 100.8 28.3 80.72 28.28 92.28"/><polygon class="cls-2" points="97.7 80.81 62.96 100.8 62.98 89.23 97.72 69.24 97.7 80.81"/><polygon class="cls-3" points="28.28 80.72 62.96 100.8 62.98 89.23 28.3 69.15 28.28 80.72"/><path class="cls-4" d="M96.22,68.38,80.38,59.2,66,67.47a2,2,0,0,0,0,3.46l14.35,8.31L96.22,70.1A1,1,0,0,0,96.22,68.38Z"/><path class="cls-4" d="M28.7,69.38,60.49,87.79a5,5,0,0,0,5,0L97.32,69.47"/><line class="cls-4" x1="80.35" y1="79.24" x2="80.35" y2="102.37"/><ellipse class="cls-5" cx="63.03" cy="54.29" rx="1.67" ry="0.96"/><ellipse class="cls-5" cx="37.19" cy="69.16" rx="1.67" ry="0.96"/><ellipse class="cls-5" cx="62.99" cy="84.1" rx="1.67" ry="0.96"/><path class="cls-4" d="M28.3,80.72,60.49,99.36a5,5,0,0,0,5,0L97.72,80.81"/><path class="cls-6" d="M96.22,68.38,65.53,50.6a5,5,0,0,0-5,0L29.8,68.28a3,3,0,0,0-1.5,2.59l0,19.69a3,3,0,0,0,1.5,2.59l30.69,17.78a5,5,0,0,0,5,0L96.2,93.24a3,3,0,0,0,1.5-2.58l0-19.69A3,3,0,0,0,96.22,68.38Z"/><path class="cls-7" d="M65.46,61.71,96.2,44a3,3,0,0,0,1.5-2.58l0-6.76a3.08,3.08,0,0,0-.4-1.5L65.47,51.5a5,5,0,0,1-5,0L28.7,33.08a3,3,0,0,0-.4,1.49v6.76a3,3,0,0,0,1.49,2.59L60.48,61.7A5,5,0,0,0,65.46,61.71Z"/><path class="cls-8" d="M96.2,44a3,3,0,0,0,1.5-2.58l0-6.76a3.08,3.08,0,0,0-.4-1.5L65.47,51.5a4.92,4.92,0,0,1-2.5.66V62.37a5,5,0,0,0,2.49-.66Z"/><path class="cls-9" d="M60.45,51.49a5,5,0,0,0,5,0L97.28,33.17a3,3,0,0,0-1.1-1.09L65.49,14.3a5,5,0,0,0-5,0L29.76,32a3,3,0,0,0-1.1,1.1Z"/><path class="cls-10" d="M60.49,51.49a5,5,0,0,0,5,0L97.32,33.17a3,3,0,0,0-1.1-1.09L65.53,14.3a5,5,0,0,0-5,0L29.8,32a3,3,0,0,0-1.1,1.1Z"/><path class="cls-11" d="M96.22,32.08,65.53,14.3a5,5,0,0,0-5,0L29.8,32a3,3,0,0,0-1.5,2.59v6.76a3,3,0,0,0,1.49,2.59L60.48,61.7a5,5,0,0,0,5,0L96.2,44a3,3,0,0,0,1.5-2.58l0-6.76A3,3,0,0,0,96.22,32.08Z"/><path class="cls-12" d="M73.13,27.26c.27.16.41.41.26.65l-2.27,3.92a.43.43,0,0,0,.16.58l4.3,3.32c.54.42,0,1-.89,1l-7.15-.05a1.42,1.42,0,0,0-.9.27l-4.1,3.37a1.66,1.66,0,0,1-1.67.09.7.7,0,0,1-.27-.27l-2.14-3.94a.71.71,0,0,0-.28-.26,1.14,1.14,0,0,0-.45-.16l-6.82-1.23a1.46,1.46,0,0,1-.46-.16c-.45-.26-.44-.72.15-1l5.81-2.39c.3-.12.47-.32.46-.53l-.12-4.13c0-.53,1-.83,1.75-.52l5.74,2.48a1.8,1.8,0,0,0,1,.09L72,27.11A1.72,1.72,0,0,1,73.13,27.26Z"/><path class="cls-13" d="M85.72,66.23c.15.08.22.21.14.34l-1.2,2.07a.23.23,0,0,0,.08.31L87,70.71c.29.22,0,.53-.47.53l-3.77,0a.78.78,0,0,0-.48.14l-2.17,1.79a.87.87,0,0,1-.88,0A.32.32,0,0,1,79.1,73L78,71a.34.34,0,0,0-.15-.14.52.52,0,0,0-.24-.08L74,70.09a.67.67,0,0,1-.24-.09c-.24-.13-.24-.38.07-.51l3.08-1.26a.33.33,0,0,0,.24-.28l-.06-2.18c0-.28.53-.44.92-.28l3,1.31a.89.89,0,0,0,.54,0l3.56-.7A1,1,0,0,1,85.72,66.23Z"/><rect class="cls-14" width="126" height="126"/></g></g></svg>