<svg xmlns="http://www.w3.org/2000/svg" viewBox="0 0 126 126"><defs><style>.cls-1,.cls-10{fill:#fff;}.cls-1,.cls-7{stroke:#627386;}.cls-1,.cls-11,.cls-12,.cls-4,.cls-7{stroke-linecap:round;stroke-linejoin:round;}.cls-1,.cls-11,.cls-12,.cls-13,.cls-4,.cls-5,.cls-7{stroke-width:2px;}.cls-2{fill:#d5dae0;}.cls-3{fill:#f2f4f6;}.cls-11,.cls-12,.cls-13,.cls-14,.cls-4,.cls-5,.cls-7{fill:none;}.cls-4{stroke:#b8bfca;}.cls-5{stroke:#d5dae0;}.cls-13,.cls-5{stroke-miterlimit:10;}.cls-6{fill:#b8bfca;}.cls-8{fill:#e9f6fe;}.cls-9{fill:#bde4fd;}.cls-11{stroke:#91d2fb;}.cls-12{stroke:#1b6dc6;}.cls-13{stroke:#bde4fd;}</style></defs><title>vmaas_step1(1x1)</title><g id="Layer_2" data-name="Layer 2"><g id="Illustrations"><path class="cls-1" d="M96.24,68.38,65.53,50.59a5,5,0,0,0-5,0L29.78,68.29a3,3,0,0,0-1.5,2.59v19.7a3,3,0,0,0,1.49,2.59L60.47,111a5,5,0,0,0,5,0l30.76-17.7a3,3,0,0,0,1.5-2.59V71A3,3,0,0,0,96.24,68.38Z"/><polygon class="cls-2" points="97.72 92.4 62.96 112.4 62.98 100.82 97.73 80.82 97.72 92.4"/><polygon class="cls-3" points="28.27 92.3 62.96 112.4 62.98 100.82 28.28 80.72 28.27 92.3"/><polygon class="cls-2" points="97.72 80.82 62.96 100.82 62.98 89.25 97.73 69.25 97.72 80.82"/><polygon class="cls-3" points="28.27 80.72 62.96 100.82 62.98 89.25 28.28 69.15 28.27 80.72"/><path class="cls-4" d="M96.24,68.38,80.39,59.2,66,67.48a2,2,0,0,0,0,3.45l14.36,8.32,15.88-9.14A1,1,0,0,0,96.24,68.38Z"/><path class="cls-4" d="M28.68,69.38,60.49,87.81a5,5,0,0,0,5,0L97.33,69.48"/><line class="cls-4" x1="80.36" y1="79.25" x2="80.36" y2="102.39"/><ellipse class="cls-5" cx="80.34" cy="69.34" rx="5.78" ry="3.34"/><ellipse class="cls-6" cx="63.03" cy="54.28" rx="1.67" ry="0.96"/><ellipse class="cls-6" cx="37.18" cy="69.16" rx="1.67" ry="0.96"/><ellipse class="cls-6" cx="62.99" cy="84.11" rx="1.67" ry="0.96"/><path class="cls-4" d="M28.28,80.73,60.49,99.38a5,5,0,0,0,5,0L97.73,80.82"/><path class="cls-7" d="M96.24,68.38,65.53,50.59a5,5,0,0,0-5,0L29.78,68.29a3,3,0,0,0-1.5,2.59v19.7a3,3,0,0,0,1.49,2.59L60.47,111a5,5,0,0,0,5,0l30.76-17.7a3,3,0,0,0,1.5-2.59V71A3,3,0,0,0,96.24,68.38Z"/><path class="cls-8" d="M65.46,61.71,96.22,44a3,3,0,0,0,1.5-2.59V34.65a3.07,3.07,0,0,0-.39-1.49L65.47,51.49a5,5,0,0,1-5,0L28.68,33.06a3,3,0,0,0-.4,1.5v6.76a3,3,0,0,0,1.49,2.59L60.47,61.7A5,5,0,0,0,65.46,61.71Z"/><path class="cls-9" d="M96.22,44a3,3,0,0,0,1.5-2.59V34.65a3.07,3.07,0,0,0-.39-1.49L65.47,51.49a4.93,4.93,0,0,1-2.5.67V62.37a5,5,0,0,0,2.49-.66Z"/><path class="cls-10" d="M60.45,51.49a5,5,0,0,0,5,0L97.29,33.16a3,3,0,0,0-1.09-1.1L65.49,14.27a5,5,0,0,0-5,0L29.74,32a3,3,0,0,0-1.1,1.09Z"/><path class="cls-11" d="M60.49,51.49a5,5,0,0,0,5,0L97.34,33.16a3.05,3.05,0,0,0-1.1-1.1L65.53,14.27a5,5,0,0,0-5,0L29.78,32a3,3,0,0,0-1.1,1.09Z"/><path class="cls-12" d="M96.24,32.06,65.53,14.27a5,5,0,0,0-5,0L29.78,32a3,3,0,0,0-1.5,2.59v6.76a3,3,0,0,0,1.49,2.59L60.47,61.7a5,5,0,0,0,5,0L96.22,44a3,3,0,0,0,1.5-2.59V34.65A3,3,0,0,0,96.24,32.06Z"/><ellipse class="cls-13" cx="63.01" cy="32.88" rx="12.16" ry="7.02"/><rect class="cls-14" width="126" height="126"/></g></g></svg>