<svg xmlns="http://www.w3.org/2000/svg" viewBox="0 0 126 126"><defs><style>.cls-1,.cls-9{fill:#fff;}.cls-1,.cls-6{stroke:#627386;}.cls-1,.cls-10,.cls-11,.cls-4,.cls-6{stroke-linecap:round;stroke-linejoin:round;}.cls-1,.cls-10,.cls-11,.cls-12,.cls-4,.cls-6{stroke-width:2px;}.cls-2{fill:#d5dae0;}.cls-3{fill:#f2f4f6;}.cls-10,.cls-11,.cls-12,.cls-13,.cls-4,.cls-6{fill:none;}.cls-4{stroke:#b8bfca;}.cls-5{fill:#b8bfca;}.cls-7{fill:#e9f6fe;}.cls-8{fill:#bde4fd;}.cls-10{stroke:#91d2fb;}.cls-11{stroke:#1b6dc6;}.cls-12{stroke:#bde4fd;stroke-miterlimit:10;}</style></defs><title>vmaas_step2(1x1)</title><g id="Layer_2" data-name="Layer 2"><g id="Illustrations"><path class="cls-1" d="M96.25,68.39,65.53,50.59a5,5,0,0,0-5,0L29.77,68.29a3,3,0,0,0-1.5,2.59v19.7a3,3,0,0,0,1.49,2.6L60.47,111a5,5,0,0,0,5,0L96.23,93.27a3,3,0,0,0,1.5-2.59V71A3,3,0,0,0,96.25,68.39Z"/><polygon class="cls-2" points="97.73 92.41 62.96 112.42 62.98 100.84 97.75 80.83 97.73 92.41"/><polygon class="cls-3" points="28.25 92.31 62.96 112.42 62.98 100.84 28.27 80.73 28.25 92.31"/><polygon class="cls-2" points="97.73 80.83 62.96 100.84 62.98 89.26 97.75 69.25 97.73 80.83"/><polygon class="cls-3" points="28.25 80.73 62.96 100.84 62.98 89.26 28.27 69.15 28.25 80.73"/><path class="cls-4" d="M96.25,68.38,80.39,59.2,66,67.48a2,2,0,0,0,0,3.45l14.36,8.32,15.89-9.14A1,1,0,0,0,96.25,68.38Z"/><path class="cls-4" d="M28.67,69.38,60.49,87.81a5,5,0,0,0,5,0L97.34,69.48"/><line class="cls-4" x1="80.36" y1="79.25" x2="80.36" y2="102.4"/><ellipse class="cls-5" cx="63.03" cy="54.28" rx="1.67" ry="0.96"/><ellipse class="cls-5" cx="37.17" cy="69.17" rx="1.67" ry="0.96"/><ellipse class="cls-5" cx="62.99" cy="84.12" rx="1.67" ry="0.96"/><path class="cls-4" d="M28.27,80.73,60.49,99.39a5,5,0,0,0,5,0L97.75,80.83"/><path class="cls-6" d="M96.25,68.39,65.53,50.59a5,5,0,0,0-5,0L29.77,68.29a3,3,0,0,0-1.5,2.59v19.7a3,3,0,0,0,1.49,2.6L60.47,111a5,5,0,0,0,5,0L96.23,93.27a3,3,0,0,0,1.5-2.59V71A3,3,0,0,0,96.25,68.39Z"/><path class="cls-7" d="M65.46,61.71,96.23,44a3,3,0,0,0,1.5-2.59V34.64a3,3,0,0,0-.39-1.49L65.48,51.49a5,5,0,0,1-5,0L28.67,33.05a3,3,0,0,0-.4,1.5v6.76a3,3,0,0,0,1.49,2.59L60.47,61.7A5,5,0,0,0,65.46,61.71Z"/><path class="cls-8" d="M96.23,44a3,3,0,0,0,1.5-2.59V34.64a3,3,0,0,0-.39-1.49L65.48,51.49a5,5,0,0,1-2.51.66V62.37a5,5,0,0,0,2.49-.66Z"/><path class="cls-9" d="M60.45,51.48a5,5,0,0,0,5,0L97.3,33.15a3,3,0,0,0-1.09-1.1L65.49,14.26a5,5,0,0,0-5,0L29.73,32a3,3,0,0,0-1.1,1.09Z"/><path class="cls-10" d="M60.49,51.48a5,5,0,0,0,5,0L97.35,33.15a3.05,3.05,0,0,0-1.1-1.1L65.53,14.26a5,5,0,0,0-5,0L29.77,32a3,3,0,0,0-1.1,1.09Z"/><path class="cls-11" d="M96.25,32.05,65.53,14.26a5,5,0,0,0-5,0L29.77,32a3,3,0,0,0-1.5,2.59v6.76a3,3,0,0,0,1.49,2.59L60.47,61.7a5,5,0,0,0,5,0L96.23,44a3,3,0,0,0,1.5-2.59V34.64A3,3,0,0,0,96.25,32.05Z"/><path class="cls-2" d="M87.42,70.37,86,69.88a1.89,1.89,0,0,0,.13-.7,1.85,1.85,0,0,0-.13-.7L87.42,68c.3-.1.4-.32.23-.49l-1.13-1.12a.91.91,0,0,0-.85-.14l-1.46.49a7.73,7.73,0,0,0-2.1-.7v-1c0-.2-.28-.36-.62-.36H79.24c-.34,0-.62.16-.62.36v1a7.73,7.73,0,0,0-2.1.7l-1.47-.49a.91.91,0,0,0-.85.14L73.08,67.5c-.17.17-.07.39.23.49l1.46.49a2.07,2.07,0,0,0-.13.7,2.11,2.11,0,0,0,.13.7l-1.46.49c-.3.1-.4.31-.23.49L74.2,72a.91.91,0,0,0,.85.13l1.47-.49a7.11,7.11,0,0,0,2.1.7v1c0,.2.28.36.62.36h2.25c.34,0,.62-.16.62-.36v-1a7.11,7.11,0,0,0,2.1-.7l1.46.49a.91.91,0,0,0,.85-.13l1.13-1.12C87.82,70.68,87.72,70.47,87.42,70.37Zm-7.06.78c-1.88,0-3.41-.88-3.41-2s1.53-2,3.41-2,3.41.88,3.41,2S82.25,71.15,80.36,71.15Z"/><path class="cls-12" d="M78.23,35.55l-3-1a4,4,0,0,0,0-2.82l3-1c.6-.2.81-.64.46-1L76.42,27.5a1.8,1.8,0,0,0-1.7-.27l-3,1a15.09,15.09,0,0,0-4.24-1.41v-2c0-.4-.56-.73-1.25-.73H61.74c-.69,0-1.25.33-1.25.73v2a15.09,15.09,0,0,0-4.24,1.41l-3-1a1.81,1.81,0,0,0-1.71.27l-2.27,2.27c-.35.34-.14.78.46,1l2.95,1a4,4,0,0,0,0,2.82l-2.95,1c-.6.2-.81.64-.46,1l2.27,2.27a1.84,1.84,0,0,0,1.71.27l3-1a15.09,15.09,0,0,0,4.24,1.41v2c0,.4.56.72,1.25.72h4.53c.69,0,1.25-.32,1.25-.72v-2a15.09,15.09,0,0,0,4.24-1.41l3,1a1.82,1.82,0,0,0,1.7-.27l2.27-2.27C79,36.19,78.83,35.75,78.23,35.55ZM64,36.1c-2.82,0-5.11-1.32-5.11-3S61.19,30.2,64,30.2s5.1,1.32,5.1,2.95S66.83,36.1,64,36.1Z"/><rect class="cls-13" width="126" height="126"/></g></g></svg>