<svg xmlns="http://www.w3.org/2000/svg" viewBox="0 0 900 600"><defs><style>.cls-1,.cls-19,.cls-21{fill:#d5dae0;}.cls-1,.cls-20,.cls-22,.cls-3{stroke:#627386;}.cls-1,.cls-10,.cls-11,.cls-12,.cls-13,.cls-15,.cls-16,.cls-17,.cls-18,.cls-19,.cls-20,.cls-22,.cls-23,.cls-24,.cls-3,.cls-5,.cls-9{stroke-linecap:round;stroke-linejoin:round;}.cls-1,.cls-10,.cls-11,.cls-12,.cls-13,.cls-15,.cls-16,.cls-17,.cls-18,.cls-19,.cls-20,.cls-22,.cls-23,.cls-3,.cls-5,.cls-9{stroke-width:2px;}.cls-17,.cls-2,.cls-22{fill:#f2f4f6;}.cls-13,.cls-15,.cls-18,.cls-23,.cls-24,.cls-25,.cls-3,.cls-5{fill:none;}.cls-11,.cls-16,.cls-20,.cls-4{fill:#fff;}.cls-16,.cls-17,.cls-19,.cls-5{stroke:#b8bfca;}.cls-6{fill:#b8bfca;}.cls-10,.cls-12,.cls-7{fill:#bde4fd;}.cls-8{fill:#91d2fb;}.cls-14,.cls-9{fill:#e9f6fe;}.cls-11,.cls-15,.cls-9{stroke:#91d2fb;}.cls-10{stroke:#bde4fd;}.cls-12,.cls-18{stroke:#fff;}.cls-13{stroke:#1b6dc6;}.cls-23{stroke:#d5dae0;}.cls-24{stroke:#f2f4f6;stroke-width:7px;}</style></defs><title>xi_iot_mobile_step1(2x2)</title><g id="Layer_2" data-name="Layer 2"><g id="Illustrations"><path class="cls-1" d="M318.17,412.46l-8.9-1.24L251,377.6a13.18,13.18,0,0,0-11.92,0l-14,8.11-10,5.8-1.77,1-4.69-1.15v6.88c0,1.24.82,2.49,2.46,3.44l65,37.54a13.18,13.18,0,0,0,11.92,0l27.3-15.76a5.1,5.1,0,0,0,2.89-4.15h0Z"/><path class="cls-2" d="M281.42,395.15,251,377.6a13.18,13.18,0,0,0-11.92,0l-14,8.11-10,5.8-1.77,1-4.69-1.15v6.88c0,1.24.82,2.49,2.46,3.44l65,37.54a11.77,11.77,0,0,0,5.36,1.41Z"/><path class="cls-3" d="M318.17,412.46l-8.9-1.24L251,377.6a13.18,13.18,0,0,0-11.92,0l-14,8.11-10,5.8-1.77,1-4.69-1.15v6.88c0,1.24.82,2.49,2.46,3.44l65,37.54a13.18,13.18,0,0,0,11.92,0l27.3-15.76a5.1,5.1,0,0,0,2.89-4.15h0Z"/><path class="cls-4" d="M318.13,411.92a3.85,3.85,0,0,0-2.07-2.65l-65-37.55a13.18,13.18,0,0,0-11.92,0l-14,8.11-10,5.8-4,2.31c-3.29,1.9-3.29,5,0,6.88l65,37.55a12.16,12.16,0,0,0,6,1.42,14.48,14.48,0,0,0,1.61-.09,12.23,12.23,0,0,0,3-.71,10.81,10.81,0,0,0,1.33-.62l27.3-15.76a5.42,5.42,0,0,0,2.86-3.67A3.17,3.17,0,0,0,318.13,411.92Z"/><path class="cls-2" d="M316.06,409.27l-52.7-30.43V425l12.7,7.33a12.16,12.16,0,0,0,6,1.42,14.48,14.48,0,0,0,1.61-.09,12.23,12.23,0,0,0,3-.71,10.81,10.81,0,0,0,1.33-.62l27.3-15.76a5.42,5.42,0,0,0,2.86-3.67,3.17,3.17,0,0,0,0-1A3.85,3.85,0,0,0,316.06,409.27Z"/><path class="cls-5" d="M318.13,411.92a3.85,3.85,0,0,0-2.07-2.65l-65-37.55a13.18,13.18,0,0,0-11.92,0l-14,8.11-10,5.8-4,2.31c-3.29,1.9-3.29,5,0,6.88l65,37.55a12.16,12.16,0,0,0,6,1.42,14.48,14.48,0,0,0,1.61-.09,12.23,12.23,0,0,0,3-.71,10.81,10.81,0,0,0,1.33-.62l27.3-15.76a5.42,5.42,0,0,0,2.86-3.67A3.17,3.17,0,0,0,318.13,411.92Z"/><ellipse class="cls-6" cx="244.99" cy="376.78" rx="2.94" ry="1.7"/><ellipse class="cls-5" cx="291.83" cy="418.03" rx="4.45" ry="2.57"/><path class="cls-3" d="M318.17,412.46a3.27,3.27,0,0,0,0-.54,3.85,3.85,0,0,0-2.07-2.65l-52.7-30.43h0L251,371.72a13.18,13.18,0,0,0-11.92,0l-14,8.11-10,5.8-4,2.31c-1.64.95-2.46,2.19-2.46,3.44h0v6.88c0,1.24.82,2.49,2.46,3.44l65,37.54a8.13,8.13,0,0,0,1.26.6c.17.07.36.11.54.17s.55.19.84.26.47.1.71.14.5.1.75.13l.8.07c.15,0,.31,0,.46,0h0a12.51,12.51,0,0,0,6.56-1.4l27.3-15.76a5.1,5.1,0,0,0,2.89-4.15h0v-6.87Z"/><path class="cls-7" d="M533.61,225.15l-160-92.35a4.79,4.79,0,0,0-3.46-.62h0l-9.24,2.1,4.38,7.38L335.65,262.53,490.4,351.87l6.73,11.33,7.16-1.63a3.45,3.45,0,0,0,2.59-2.55l30.57-124.47A9,9,0,0,0,533.61,225.15Z"/><path class="cls-8" d="M537.52,231.22l-114,25.89s-4,30.1-8.82,51.08l75.67,43.68,6.73,11.33,7.16-1.63a3.45,3.45,0,0,0,2.59-2.55l30.57-124.47A8.48,8.48,0,0,0,537.52,231.22Z"/><path class="cls-9" d="M475.5,360,326.41,274,237.6,325.23l-10.83-1.59V333a3.08,3.08,0,0,0,1.82,2.54L390.52,429a9.72,9.72,0,0,0,8.79,0l95.52-55.15a4.59,4.59,0,0,0,2.3-4V363.2Z"/><polygon class="cls-10" points="325.41 382.08 325.41 385.58 293.7 367.27 293.7 363.77 325.41 382.08"/><path class="cls-7" d="M395.53,313.86V430a8.69,8.69,0,0,0,3.78-1l95.52-55.15a4.59,4.59,0,0,0,2.3-4V363.2L475.5,360Z"/><path class="cls-11" d="M497.13,363.2l-97.82,56.47a9.66,9.66,0,0,1-8.79,0L228.59,326.18c-2.43-1.4-2.43-3.67,0-5.07l97.82-56.48Z"/><path class="cls-11" d="M411,393.21,274.42,314.39c-2.1-1.21-2.1-3.18,0-4.39l49.08-28.33a8.33,8.33,0,0,1,7.59,0l136.54,78.82c2.09,1.21,2.09,3.18,0,4.39l-49.08,28.33A8.41,8.41,0,0,1,411,393.21Z"/><path class="cls-12" d="M326.41,264.63l31.07-126.55c.86-3.47,4-4.9,6.93-3.18l160,92.35a9,9,0,0,1,3.84,9.4L497.13,363.2Z"/><path class="cls-13" d="M533.61,225.15l-160-92.35a4.79,4.79,0,0,0-3.46-.62h0l-9.24,2.1h0a4.82,4.82,0,0,0-3.47,3.8L326.41,264.63,497.13,363.2l7.16-1.63a3.45,3.45,0,0,0,2.59-2.55l30.57-124.47A9,9,0,0,0,533.61,225.15Z"/><path class="cls-13" d="M326.41,264.63l-97.82,56.48a3.07,3.07,0,0,0-1.82,2.53V333a3.08,3.08,0,0,0,1.82,2.54L390.52,429a9.72,9.72,0,0,0,8.79,0l95.52-55.15a4.59,4.59,0,0,0,2.3-4V363.2Z"/><path class="cls-2" d="M334.36,261.24l29.18-118.86,157.37,90.85a2.4,2.4,0,0,1,.59,1.77L492.62,352.61Z"/><path class="cls-4" d="M334.36,261.24l29.18-118.86,157.37,90.85a2.4,2.4,0,0,1,.59,1.77L492.62,352.61Z"/><path class="cls-14" d="M520.91,233.23,368.79,145.4,486.32,349l6.3,3.64L521.5,235A2.4,2.4,0,0,0,520.91,233.23Z"/><path class="cls-15" d="M334.36,261.24l29.18-118.86,157.37,90.85a2.4,2.4,0,0,1,.59,1.77L492.62,352.61Z"/><path class="cls-11" d="M354.43,369.79,315,347a10.13,10.13,0,0,0-9.16,0L285.25,358.9,333.85,387l20.58-11.88C357,373.62,357,371.25,354.43,369.79Z"/><path class="cls-16" d="M195.24,316.25l-52.83-30.5c-3.52-2-6.38-7.48-6.38-12.17h0c0-4.69,2.86-6.85,6.38-4.82l52.83,30.5Z"/><polygon class="cls-17" points="195.24 299.26 281.56 249.43 281.56 266.42 195.24 316.25 195.24 299.26"/><path class="cls-1" d="M142.41,268.76l52.83,30.5,86.32-49.83-52.83-30.51a4.11,4.11,0,0,0-4.17-.33h0l-86.32,49.84h0A4.09,4.09,0,0,1,142.41,268.76Z"/><path class="cls-5" d="M248.81,249.31l-5.22,3a5.23,5.23,0,0,1-4.72,0L219.29,241c-1.3-.75-1.3-2,0-2.73l5.22-3a5.23,5.23,0,0,1,4.72,0l19.58,11.3C250.11,247.34,250.11,248.56,248.81,249.31Z"/><line class="cls-18" x1="217.41" y1="248.09" x2="226.62" y2="253.41"/><line class="cls-18" x1="166.1" y1="267.08" x2="193.73" y2="283.03"/><path class="cls-3" d="M228.73,218.92a4.11,4.11,0,0,0-4.17-.33h0l-86.32,49.84h0c-1.35.78-2.21,2.58-2.21,5.15,0,4.69,2.86,10.14,6.38,12.17l52.83,30.5,86.32-49.83v-17Z"/><polygon class="cls-17" points="290.21 222.85 253.69 201.77 288.28 181.8 324.8 202.88 290.21 222.85"/><polygon class="cls-19" points="324.8 202.88 324.8 213.52 290.21 233.49 290.21 222.85 324.8 202.88"/><polygon class="cls-17" points="253.69 201.77 253.69 212.4 290.21 233.49 290.21 222.85 253.69 201.77"/><polygon class="cls-3" points="288.28 181.8 253.69 201.77 253.69 212.4 290.21 233.49 324.8 213.52 324.8 202.88 288.28 181.8"/><path class="cls-20" d="M302.37,189.93a27.74,27.74,0,0,0,18.48,3.15l-34.59,20a27.74,27.74,0,0,1-18.48-3.15L264.55,208l-10.86-6.27,34.59-20,9.73,5.61Z"/><polygon class="cls-2" points="295.56 186 288.28 181.8 253.69 201.77 260.97 205.97 295.56 186"/><path class="cls-3" d="M302.37,189.93a27.74,27.74,0,0,0,18.48,3.15l-34.59,20a27.74,27.74,0,0,1-18.48-3.15L264.55,208l-10.86-6.27,34.59-20,9.73,5.61Z"/><path class="cls-21" d="M316.39,165.57l11.25-6.5a20.45,20.45,0,0,1,10.94-2.72h0a2.07,2.07,0,0,1,1.73,3.1l-.08.14a20.48,20.48,0,0,1-7.53,7.57l-12.15,7Z"/><path class="cls-2" d="M327.64,159.07l-11.25,6.5,2.08,4.29,15.61-9a1.91,1.91,0,0,0-1.32-3.52A16.49,16.49,0,0,0,327.64,159.07Z"/><ellipse class="cls-19" cx="318.42" cy="169.89" rx="2.72" ry="4.8" transform="translate(-41.1 138.24) rotate(-23.05)"/><path class="cls-3" d="M327.64,159.07l-11.25,6.5h0a2.73,2.73,0,0,0-1.1,2.52,7.47,7.47,0,0,0,3.13,6,1.93,1.93,0,0,0,2.13.1h0l12.15-7"/><path class="cls-21" d="M332.7,167.16l-18.24,10.53c-1.11.64-2,0-2-1.52h0a4.81,4.81,0,0,1,2-3.83l18.24-10.53Z"/><path class="cls-3" d="M332.7,167.16a20.48,20.48,0,0,0,7.53-7.57l.08-.14a2.07,2.07,0,0,0-1.73-3.1,20.45,20.45,0,0,0-10.94,2.72"/><path class="cls-3" d="M332.7,167.16l-18.24,10.53c-1.11.64-2,0-2-1.52h0a4.81,4.81,0,0,1,2-3.83l8.32-4.8"/><polygon class="cls-22" points="501.68 180.51 515.84 172.33 410.26 111.38 396.1 119.55 501.68 180.51"/><line class="cls-5" x1="409.77" y1="119.43" x2="501.89" y2="172.61"/><polygon class="cls-17" points="540.68 197.53 529.49 185.75 544.66 188.92 540.68 197.53"/><path class="cls-19" d="M620.88,233l-75.44-43.55a1.84,1.84,0,0,0-2.39-.14,7.49,7.49,0,0,0-3.13,6c0,1.51.61,2.47,1.52,2.68l74.74,43.15Z"/><path class="cls-2" d="M540.7,192.09a6.35,6.35,0,0,1,2.35-2.8,1.84,1.84,0,0,1,2.39.14L620.88,233,618.54,237Z"/><path class="cls-5" d="M620.88,233l-75.44-43.55a1.84,1.84,0,0,0-2.39-.14,7.49,7.49,0,0,0-3.13,6c0,1.51.61,2.47,1.52,2.68l74.74,43.15Z"/><path class="cls-17" d="M620.88,233l-7.79-4.5a1.84,1.84,0,0,0-2.39-.13,7.47,7.47,0,0,0-3.13,6c0,1.52.61,2.48,1.52,2.69l7.09,4.09Z"/><ellipse class="cls-17" cx="618.48" cy="237.01" rx="4.8" ry="2.72" transform="translate(158.23 713.31) rotate(-66.95)"/><path class="cls-3" d="M540.53,197.36l-11-11.61,15.17,3.17,0,.07a1.78,1.78,0,0,1,.33.09,1.48,1.48,0,0,1,.48.35l39.28,22.67,27.67,16a1.64,1.64,0,0,1,.7.4l7,4a1.56,1.56,0,0,1,.78.46h0a3.12,3.12,0,0,1,.73,2.23,7.48,7.48,0,0,1-3.13,6,1.85,1.85,0,0,1-2.4-.14l-7-4a1.59,1.59,0,0,1-.79-.46L541.44,198a1.64,1.64,0,0,1-.76-.42h0C540.63,197.47,540.57,197.42,540.53,197.36Z"/><polygon class="cls-16" points="588.67 261.09 552.75 240.35 569.64 230.59 605.56 251.34 588.67 261.09"/><polygon class="cls-19" points="605.56 251.34 605.56 265.05 588.67 274.81 588.67 261.09 605.56 251.34"/><polygon class="cls-17" points="552.75 240.35 552.75 254.07 588.67 274.81 588.67 261.09 552.75 240.35"/><polygon class="cls-3" points="569.64 230.59 552.75 240.35 552.75 254.07 588.67 274.81 605.56 265.05 605.56 251.34 569.64 230.59"/><polygon class="cls-16" points="616.57 328.59 538.68 283.62 558.02 272.45 635.9 317.42 616.57 328.59"/><polygon class="cls-19" points="635.9 317.42 635.9 325.12 616.57 336.29 616.57 328.59 635.9 317.42"/><polygon class="cls-17" points="538.68 283.62 538.68 291.32 616.57 336.29 616.57 328.59 538.68 283.62"/><polygon class="cls-3" points="558.02 272.45 538.68 283.62 538.68 291.32 616.57 336.29 635.9 325.12 635.9 317.42 558.02 272.45"/><path class="cls-19" d="M673,269h-9.71c-8.8-3.88-21.06-3.88-29.85,0h-9.71V284c0,3.64,2.4,7.28,7.21,10.06,9.62,5.56,25.22,5.56,34.84,0,4.81-2.78,7.22-6.42,7.22-10.06h0Z"/><path class="cls-2" d="M633.42,269h-9.71V284c0,3.64,2.4,7.28,7.21,10.06s11.12,4.17,17.42,4.17V266A37.57,37.57,0,0,0,633.42,269Z"/><path class="cls-5" d="M673,269h-9.71c-8.8-3.88-21.06-3.88-29.85,0h-9.71V284c0,3.64,2.4,7.28,7.21,10.06,9.62,5.56,25.22,5.56,34.84,0,4.81-2.78,7.22-6.42,7.22-10.06h0Z"/><path class="cls-16" d="M623.71,269c0-3.64,2.4-7.28,7.21-10.06,9.62-5.55,25.22-5.55,34.84,0s9.62,14.56,0,20.12-25.22,5.55-34.84,0"/><path class="cls-3" d="M630.92,279c-4.81-2.78-7.21-6.42-7.21-10.06"/><path class="cls-3" d="M623.71,284c0,3.64,2.4,7.28,7.21,10.06,7.18,4.15,17.69,5.2,26.55,3.16"/><ellipse class="cls-2" cx="648.34" cy="268.95" rx="10.57" ry="6.1"/><path class="cls-21" d="M640.87,264.63c-4.13,2.39-4.13,6.25,0,8.64a15.28,15.28,0,0,0,7.47,1.78v-12.2A15.28,15.28,0,0,0,640.87,264.63Z"/><ellipse class="cls-5" cx="648.34" cy="268.95" rx="10.57" ry="6.1"/><polyline class="cls-2" points="630.92 294.07 657.48 309.4 657.48 294.34 630.92 279.01"/><polyline class="cls-3" points="630.92 294.07 657.48 309.4 657.48 294.34 630.92 279.01"/><line class="cls-3" x1="657.48" y1="309.4" x2="630.92" y2="294.07"/><line class="cls-3" x1="657.48" y1="297.23" x2="657.48" y2="309.4"/><path class="cls-3" d="M657.47,297.23a30.3,30.3,0,0,0,8.29-3.16c4.81-2.78,7.22-6.42,7.22-10.06V269h0c0-3.64-2.41-7.28-7.22-10.06-9.62-5.55-25.22-5.55-34.84,0-4.81,2.78-7.21,6.42-7.21,10.06V284"/><path class="cls-3" d="M736.76,350.36a3.07,3.07,0,0,1-2.94-.32"/><path class="cls-3" d="M751.6,341.79a3.07,3.07,0,0,1-2.94-.31"/><path class="cls-22" d="M662.25,320c-1,.58-1.59,1.9-1.59,3.77,0,3.45,2.1,7.46,4.69,9l42.51,24.54a14.87,14.87,0,0,0,13.44,0l39.88-23c3.71-2.14,3.71-5.61,0-7.75l-42.51-24.55Z"/><path class="cls-21" d="M761.18,326.49l-42.51-24.55-4.51,1.45v55.47a13.93,13.93,0,0,0,7.14-1.59l39.88-23C764.89,332.1,764.89,328.63,761.18,326.49Z"/><path class="cls-3" d="M662.25,320c-1,.58-1.59,1.9-1.59,3.77,0,3.45,2.1,7.46,4.69,9l42.51,24.54a14.87,14.87,0,0,0,13.44,0l39.88-23c3.71-2.14,3.71-5.61,0-7.75l-42.51-24.55Z"/><rect class="cls-21" x="745.05" y="316.8" width="14.97" height="13.61"/><line class="cls-3" x1="760.02" y1="317.42" x2="760.02" y2="328.41"/><path class="cls-3" d="M718.67,301.94c-2.59-1.49-4.69-5.5-4.69-9,0-1.86.61-3.18,1.59-3.77"/><path class="cls-20" d="M662.25,320a3,3,0,0,1,3.1.22l42.51,24.55a14.87,14.87,0,0,0,13.44,0l39.88-23c3.71-2.14,3.71-5.61,0-7.76l-42.51-24.54a3,3,0,0,0-3.1-.23l0,0L662.28,320Z"/><path class="cls-23" d="M714.82,294.68l38.54,22.25a1.07,1.07,0,0,1,0,1.86l-35.29,20.38a8.6,8.6,0,0,1-7,0L674.42,318"/><path class="cls-3" d="M662.25,320a3,3,0,0,1,3.1.22l42.51,24.55a14.87,14.87,0,0,0,13.44,0l39.88-23c3.71-2.14,3.71-5.61,0-7.76l-42.51-24.54a3,3,0,0,0-3.1-.23l0,0L662.28,320Z"/><path class="cls-5" d="M665.35,326.47,707.86,351a14.87,14.87,0,0,0,13.44,0l34.53-19.94"/><path class="cls-22" d="M753.35,337.93c0-3.45-2.1-7.46-4.69-9l-10-5.78a16.38,16.38,0,0,0-14.84,0c-4.1,2.37-4.1,6.21,0,8.57l.14.07,9.88,5.71c2.59,1.49,4.69,5.5,4.69,9,0,2-.68,3.33-1.75,3.86l.13-.07,14.84-8.57-.13.07C752.66,341.26,753.35,339.9,753.35,337.93Z"/><path class="cls-21" d="M736.76,350.36l.13-.07,14.84-8.57-.13.07c1.06-.53,1.75-1.89,1.75-3.86a11.36,11.36,0,0,0-1.16-4.73l-14.83,8.56a11.39,11.39,0,0,1,1.15,4.74C738.51,348.47,737.83,349.83,736.76,350.36Z"/><path class="cls-3" d="M753.35,337.93c0-3.45-2.1-7.46-4.69-9l-10-5.78a16.38,16.38,0,0,0-14.84,0c-4.1,2.37-4.1,6.21,0,8.57l.14.07,9.88,5.71c2.59,1.49,4.69,5.5,4.69,9,0,2-.68,3.33-1.75,3.86l.13-.07,14.84-8.57-.13.07C752.66,341.26,753.35,339.9,753.35,337.93Z"/><ellipse class="cls-4" cx="731.22" cy="327.48" rx="5.06" ry="2.92"/><ellipse class="cls-5" cx="731.22" cy="327.48" rx="5.06" ry="2.92"/><ellipse class="cls-24" cx="588.02" cy="362.92" rx="17.45" ry="9.87" transform="translate(23.84 761.88) rotate(-66.95)"/><path class="cls-3" d="M583.51,383.62c-5.5,0-11-4.37-11-14.14s5.91-21,13.45-25.34a13.22,13.22,0,0,1,6.61-1.93c5.5,0,11,4.37,11,14.14s-5.91,21-13.46,25.35A13.24,13.24,0,0,1,583.51,383.62Z"/><path class="cls-3" d="M583.51,375.24c-1.84,0-2.67-2.89-2.67-5.76,0-6.91,4.25-15.19,9.27-18.09a5,5,0,0,1,2.42-.8c1.84,0,2.67,2.89,2.67,5.76,0,6.91-4.25,15.19-9.28,18.09A4.94,4.94,0,0,1,583.51,375.24Z"/><path class="cls-20" d="M531.35,341.89v49.45c0,9.12,12.81,16.52,28.61,16.52s28.61-7.4,28.61-16.52V341.89Z"/><path class="cls-2" d="M560,407.86c15.8,0,28.61-7.4,28.61-16.52V341.89H560Z"/><ellipse class="cls-4" cx="559.96" cy="341.89" rx="28.61" ry="16.52"/><path class="cls-3" d="M531.35,341.89v49.45c0,9.12,12.81,16.52,28.61,16.52s28.61-7.4,28.61-16.52V341.89"/><ellipse class="cls-20" cx="559.96" cy="341.89" rx="23.45" ry="12.56"/><path class="cls-2" d="M560,329.32h0c-13,0-23.45,5.63-23.45,12.57S547,354.45,560,354.45h0Z"/><ellipse class="cls-19" cx="559.96" cy="346.09" rx="22.11" ry="8.37"/><ellipse class="cls-3" cx="559.96" cy="341.89" rx="23.45" ry="12.56"/><path class="cls-3" d="M531.35,341.89c0-3.77,2.18-7.24,5.85-10a31.2,31.2,0,0,1,10.86-5,48,48,0,0,1,23.8,0,31.06,31.06,0,0,1,10.85,5c3.68,2.77,5.86,6.24,5.86,10"/><path class="cls-5" d="M542.39,356a23.85,23.85,0,0,1-7.44-5"/><path class="cls-5" d="M577.53,356a38.33,38.33,0,0,1-8.6,2.65,48.89,48.89,0,0,1-17.94,0,38.17,38.17,0,0,1-8.6-2.65"/><path class="cls-5" d="M585,351a24,24,0,0,1-7.44,5"/><path class="cls-3" d="M546,351.49a1.74,1.74,0,0,0-2.75-.85,7.19,7.19,0,0,0-3,5.7"/><path class="cls-1" d="M545.4,387.62c0,1.24-.75,1.81-1.68,1.27l-3.09-1.78-3.09-1.79a4,4,0,0,1-1.68-3.2v-9.23a4.91,4.91,0,0,1,.74-2.82l2.47-3.46c.75-1,2.37-.1,3.11,1.8l2.47,6.31a10.2,10.2,0,0,1,.75,3.68Z"/><line class="cls-3" x1="540.23" y1="356.34" x2="540.23" y2="366.31"/><path class="cls-4" d="M640.51,355.39,655,347h0a2.58,2.58,0,0,1,2.64.21l3,1.73v10.75l-3-1.73a6.45,6.45,0,0,1-1.65-1.43l-13.37,5.31Z"/><path class="cls-5" d="M640.51,355.39,655,347h0a2.58,2.58,0,0,1,2.64.21l3,1.73v10.75l-3-1.73a6.45,6.45,0,0,1-1.65-1.43l-13.37,5.31Z"/><path class="cls-2" d="M646.14,368.08l-3-1.72c-2.23-1.29-4-4.74-4-7.71s1.8-4.33,4-3l3,1.73Z"/><path class="cls-5" d="M646.14,368.08l-3-1.72c-2.23-1.29-4-4.74-4-7.71s1.8-4.33,4-3l3,1.73Z"/><path class="cls-3" d="M640.51,355.4h0L655,347h0a2.58,2.58,0,0,1,2.64.21l3,1.73v10.75l-3-1.73a6.45,6.45,0,0,1-1.65-1.43l-9.86,3.91v7.62l-3-1.72c-2.23-1.29-4-4.74-4-7.71C639.12,357,639.66,355.89,640.51,355.4Z"/><polygon class="cls-22" points="669.46 370.8 683.97 362.42 660.65 348.96 646.14 357.33 669.46 370.8"/><polygon class="cls-21" points="667.88 364.17 672.49 361.51 662.22 355.59 657.62 358.24 667.88 364.17"/><polygon class="cls-1" points="683.97 362.42 683.97 373.18 669.46 381.55 669.46 370.8 683.97 362.42"/><polygon class="cls-19" points="646.14 357.33 646.14 368.08 669.46 381.55 669.46 370.8 646.14 357.33"/><polygon class="cls-5" points="646.14 357.33 646.14 368.08 669.46 381.55 669.46 370.8 646.14 357.33"/><polygon class="cls-3" points="660.65 348.96 683.97 362.42 669.46 370.8 669.46 381.55 646.14 368.08 646.14 357.33 660.65 348.96"/><path class="cls-5" d="M684,362.42l3,1.73c2.23,1.29,4,4.74,4,7.71,0,1.62-.54,2.76-1.39,3.25h0l-14.5,8.37-5.64-12.69Z"/><path class="cls-4" d="M684,362.42l3,1.73c2.23,1.29,4,4.74,4,7.71,0,1.62-.54,2.76-1.39,3.25h0l-14.5,8.37h0a2.59,2.59,0,0,1-2.63-.21l-3-1.73V370.8Z"/><path class="cls-2" d="M669.46,370.8l3,1.72c2.22,1.29,4,4.74,4,7.71s-1.81,4.33-4,3l-3-1.73Z"/><path class="cls-5" d="M669.46,370.8l3,1.72c2.22,1.29,4,4.74,4,7.71s-1.81,4.33-4,3l-3-1.73Z"/><path class="cls-3" d="M684,362.42l3,1.73c2.23,1.29,4,4.74,4,7.71,0,1.62-.54,2.76-1.39,3.25h0l-14.5,8.37h0a2.59,2.59,0,0,1-2.63-.21l-3-1.73V370.8Z"/><polygon class="cls-16" points="642.53 402.96 653.72 391.19 638.55 394.36 642.53 402.96"/><path class="cls-19" d="M562.33,438.41l75.44-43.55a1.84,1.84,0,0,1,2.39-.13,7.47,7.47,0,0,1,3.13,6c0,1.52-.61,2.48-1.52,2.69L567,446.54Z"/><path class="cls-2" d="M642.51,397.53a6.35,6.35,0,0,0-2.35-2.8,1.84,1.84,0,0,0-2.39.13l-75.44,43.55,2.34,4Z"/><path class="cls-5" d="M562.33,438.41l75.44-43.55a1.84,1.84,0,0,1,2.39-.13,7.47,7.47,0,0,1,3.13,6c0,1.52-.61,2.48-1.52,2.69L567,446.54Z"/><ellipse class="cls-19" cx="564.73" cy="442.45" rx="2.72" ry="4.8" transform="translate(-128.15 256.45) rotate(-23.05)"/><path class="cls-3" d="M642.68,402.8l11-11.61-15.17,3.17,0,.07a1.24,1.24,0,0,0-.33.09,1.61,1.61,0,0,0-.48.34l-39.28,22.68-27.67,16a1.57,1.57,0,0,0-.7.41l-7,4a1.55,1.55,0,0,0-.78.45h0a3.15,3.15,0,0,0-.73,2.23,7.49,7.49,0,0,0,3.13,6,1.85,1.85,0,0,0,2.4-.14l7-4a1.58,1.58,0,0,0,.79-.45l66.86-38.6a1.66,1.66,0,0,0,.76-.43h0A1.14,1.14,0,0,0,642.68,402.8Z"/><line class="cls-5" x1="577.77" y1="434.9" x2="593.2" y2="426"/><path class="cls-3" d="M453.5,437.42c-1.25.95-3,1-4.89-.13a13.56,13.56,0,0,1-4.9-5.53,17,17,0,0,1-2-7.7"/><path class="cls-3" d="M469.63,428.11c-1.25.94-3,1-4.9-.13a13.77,13.77,0,0,1-4.9-5.53,17.18,17.18,0,0,1-2-7.7"/><path class="cls-3" d="M437.38,446.73c-1.26.95-3,1-4.9-.12a13.66,13.66,0,0,1-4.9-5.54,17.15,17.15,0,0,1-2-7.7"/><polygon class="cls-17" points="424.86 437.66 424.86 448.83 493.79 488.62 493.79 477.45 424.86 437.66"/><polygon class="cls-19" points="545.04 447.87 545.04 459.04 493.79 488.62 493.79 477.45 545.04 447.87"/><polygon class="cls-16" points="493.79 477.45 504.04 471.54 514.29 465.62 524.54 459.7 534.79 453.78 545.04 447.87 531.25 439.91 517.47 431.95 503.68 423.99 489.89 416.03 476.11 408.07 465.86 413.99 455.61 419.9 445.36 425.82 435.11 431.74 424.86 437.66 438.64 445.62 452.43 453.57 466.22 461.54 480 469.5 493.79 477.45"/><polygon class="cls-17" points="431.44 441.46 441.69 435.54 451.94 429.62 462.19 423.7 472.44 417.79 482.69 411.87 476.11 408.07 465.86 413.99 455.61 419.9 445.36 425.82 435.11 431.74 424.86 437.66 431.44 441.46"/><line class="cls-5" x1="527.18" y1="445.87" x2="490.34" y2="467.15"/><line class="cls-5" x1="513.4" y1="437.91" x2="476.55" y2="459.19"/><line class="cls-5" x1="499.61" y1="429.95" x2="462.76" y2="451.23"/><line class="cls-5" x1="485.82" y1="421.99" x2="448.98" y2="443.27"/><path class="cls-3" d="M425.55,433.37c0-2.55.78-4.41,2-5.36s3-1,4.9.12a13.84,13.84,0,0,1,4.9,5.53"/><polygon class="cls-3" points="531.25 439.91 517.47 431.95 503.68 423.99 489.89 416.03 476.11 408.07 465.86 413.99 455.61 419.9 445.36 425.82 435.11 431.74 424.86 437.66 424.86 448.83 493.79 488.62 545.04 459.04 545.04 447.87 531.25 439.91"/><path class="cls-3" d="M441.68,424.06c0-2.55.77-4.42,2-5.36s3-1,4.9.12a13.68,13.68,0,0,1,4.89,5.53"/><path class="cls-3" d="M457.8,414.75c0-2.55.78-4.42,2-5.36s3-1,4.9.12a13.63,13.63,0,0,1,4.9,5.53"/><rect class="cls-25" width="900" height="600"/></g></g></svg>