<svg xmlns="http://www.w3.org/2000/svg" xmlns:xlink="http://www.w3.org/1999/xlink" viewBox="0 0 900 600"><defs><style>.cls-1,.cls-10,.cls-11,.cls-12,.cls-14,.cls-16,.cls-22,.cls-4,.cls-7,.cls-9{fill:none;}.cls-2{fill:#bac1cc;}.cls-15,.cls-3{fill:#d5dae0;}.cls-10,.cls-11,.cls-15,.cls-4,.cls-8{stroke:#627386;}.cls-10,.cls-11,.cls-12,.cls-14,.cls-15,.cls-16,.cls-22,.cls-4,.cls-7,.cls-8,.cls-9{stroke-linecap:round;stroke-linejoin:round;}.cls-12,.cls-14,.cls-15,.cls-16,.cls-22,.cls-4,.cls-7,.cls-8,.cls-9{stroke-width:2px;}.cls-5{fill:#f2f4f6;}.cls-6,.cls-8{fill:#fff;}.cls-7{stroke:#bac1cc;}.cls-9{stroke:#fff;}.cls-10{stroke-width:2.46px;}.cls-11{stroke-width:2.46px;}.cls-12{stroke:#d5dae0;}.cls-13{fill:#b8bfca;}.cls-14{stroke:#b8bfca;}.cls-16{stroke:#f2f4f6;}.cls-17{fill:#627386;}.cls-18{clip-path:url(#clip-path);}.cls-19{clip-path:url(#clip-path-2);}.cls-20{fill:#e9f6fe;}.cls-21{fill:#bde4fd;}.cls-22{stroke:#1b6dc6;}</style><clipPath id="clip-path"><path class="cls-1" d="M653.25,193.21c0-2.8-1.7-6.05-3.8-7.26L560,134.29c-2.1-1.21-3.8.07-3.8,2.87v61.47L482,192.69,346.77,293.22l-95.62,73.84,32.43,56.33,109.34,52L633.17,349.63l6.13-64.47,14,8.06Z"/></clipPath><clipPath id="clip-path-2"><rect class="cls-1" x="258.09" y="259.72" width="442.31" height="79.23" transform="translate(-85.46 279.73) rotate(-30)"/></clipPath></defs><title>xi_iot_mobile_step3(2x2)</title><g id="Layer_2" data-name="Layer 2"><g id="Illustrations"><path class="cls-2" d="M550.4,135.2V248c0,1.75,1.15,3.49,3.46,4.83l102.81,59.35c4.61,2.67,12.08,2.67,16.7,0l50.24-29c2.31-1.33,3.46-3.07,3.46-4.82V165.55Z"/><path class="cls-3" d="M665.63,155,550.4,135.2V248c0,1.75,1.15,3.49,3.46,4.83l102.81,59.35a17.3,17.3,0,0,0,9,2Z"/><path class="cls-4" d="M550.4,135.2V248c0,1.75,1.15,3.49,3.46,4.83l102.81,59.35c4.61,2.67,12.08,2.67,16.7,0l50.24-29c2.31-1.33,3.46-3.07,3.46-4.82V165.55Z"/><path class="cls-3" d="M543.36,105V226.72c0,1.89,1.24,3.77,3.73,5.21l111,64.08c5,2.88,13.06,2.88,18,0l54.25-31.32c2.49-1.44,3.73-3.32,3.73-5.2V137.71Z"/><polygon class="cls-2" points="556.17 237.17 613.89 270.49 613.89 118.72 556.17 118.72 556.17 237.17"/><path class="cls-3" d="M649.45,186l-35.56-20.53v83.91h39.36V193.21C653.25,190.41,651.55,187.16,649.45,186Z"/><polygon class="cls-5" points="653.25 226.57 613.89 203.85 556.17 237.17 653.25 293.21 653.25 226.57"/><polygon class="cls-4" points="556.17 237.17 653.25 293.21 658.47 239.16 658.47 185.58 566.2 132.3 550.08 125.89 550.08 198.5 556.17 237.17"/><path class="cls-5" d="M659.88,296.86a14.54,14.54,0,0,0,1.65.56l.22.06a20.54,20.54,0,0,0,3.88.63h0V126L543.36,105V226.72c0,1.89,1.24,3.77,3.73,5.21l9.08,5.24v-100c0-2.8,1.7-4.08,3.8-2.87L649.45,186c2.1,1.21,3.8,4.46,3.8,7.26v100l4.84,2.79a13.7,13.7,0,0,0,1.54.75Z"/><path class="cls-6" d="M730.38,142.91l-54.25,31.33c-5,2.87-13.06,2.87-18,0l-111-64.09c-5-2.87-5-7.54,0-10.41l54.25-31.32c5-2.88,13.06-2.88,18,0l111,64.08C735.35,135.38,735.35,140,730.38,142.91Z"/><path class="cls-4" d="M730.38,132.5l-111-64.08c-5-2.88-13.06-2.88-18,0L547.09,99.74c-2.49,1.44-3.73,3.32-3.73,5.21V226.72c0,1.89,1.24,3.77,3.73,5.21l9.08,5.24v-100c0-2.8,1.7-4.08,3.8-2.87L649.45,186c2.09,1.21,3.8,4.46,3.8,7.26v100l4.84,2.8c5,2.88,13.06,2.88,18,0l54.25-31.32c2.49-1.44,3.73-3.32,3.73-5.2V137.71C734.11,135.83,732.87,133.94,730.38,132.5Z"/><path class="cls-7" d="M725.72,145.6l-49.59,28.64c-5,2.87-13.06,2.87-18,0L551.64,112.78"/><line class="cls-7" x1="671.73" y1="140.38" x2="605.73" y2="102.27"/><ellipse class="cls-2" cx="610.36" cy="75.46" rx="3" ry="1.73"/><ellipse class="cls-2" cx="559.29" cy="104.94" rx="3" ry="1.73"/><ellipse class="cls-2" cx="718.18" cy="137.71" rx="3" ry="1.73"/><ellipse class="cls-2" cx="667.11" cy="167.19" rx="3" ry="1.73"/><path class="cls-7" d="M711.21,246.71l-21.75,12.55c-2,1.14-3.56-.07-3.56-2.69V199c0-2.62,1.59-5.66,3.56-6.8l21.75-12.55c2-1.14,3.56.07,3.56,2.69v57.62A8.55,8.55,0,0,1,711.21,246.71Z"/><line class="cls-4" x1="613.89" y1="203.85" x2="653.25" y2="226.57"/><line class="cls-4" x1="556.17" y1="237.17" x2="613.89" y2="203.85"/><line class="cls-4" x1="613.89" y1="203.85" x2="613.89" y2="165.42"/><path class="cls-8" d="M416.24,330.51v68c0,6.39,9,11.57,20,11.57s20-5.18,20-11.57v-68Z"/><path class="cls-5" d="M436.28,410.1c11.07,0,20-5.18,20-11.57v-68h-20Z"/><path class="cls-4" d="M416.24,330.51v68c0,6.39,9,11.57,20,11.57s20-5.18,20-11.57v-68Z"/><ellipse class="cls-8" cx="436.28" cy="330.51" rx="20.04" ry="11.57"/><path class="cls-8" d="M540.58,258.72v68c0,6.39,9,11.57,20,11.57s20-5.18,20-11.57v-68Z"/><path class="cls-5" d="M560.62,338.31c11.07,0,20-5.18,20-11.57v-68h-20Z"/><path class="cls-4" d="M540.58,258.72v68c0,6.39,9,11.57,20,11.57s20-5.18,20-11.57v-68Z"/><ellipse class="cls-8" cx="560.62" cy="258.72" rx="20.04" ry="11.57"/><path class="cls-3" d="M459.26,312.45V134.88l-40.33,5.3V317.74a1.82,1.82,0,0,0,1.08,1.51l11.88,6.86a5.74,5.74,0,0,0,5.23,0L458.18,314A1.85,1.85,0,0,0,459.26,312.45Z"/><path class="cls-2" d="M434.51,326.74a5.31,5.31,0,0,0,2.61-.63L458.18,314a1.85,1.85,0,0,0,1.08-1.51V134.88l-24.75,5.3Z"/><path class="cls-5" d="M458.18,136.39l-21.06,12.15a5.74,5.74,0,0,1-5.23,0L420,141.69c-1.44-.84-1.44-2.19,0-3l21.05-12.16a5.82,5.82,0,0,1,5.24,0l11.88,6.86C459.62,134.2,459.62,135.56,458.18,136.39Z"/><path class="cls-9" d="M458.18,136.39l-21.06,12.15a5.74,5.74,0,0,1-5.23,0L420,141.69c-1.44-.84-1.44-2.19,0-3l21.05-12.16a5.82,5.82,0,0,1,5.24,0l11.88,6.86C459.62,134.2,459.62,135.56,458.18,136.39Z"/><path class="cls-4" d="M458.18,133.37l-11.88-6.86a5.82,5.82,0,0,0-5.24,0L420,138.67a1.82,1.82,0,0,0-1.08,1.51V317.74a1.82,1.82,0,0,0,1.08,1.51l11.88,6.86a5.9,5.9,0,0,0,4.65.28,3.46,3.46,0,0,0,.58-.28L458.18,314a1.85,1.85,0,0,0,1.08-1.51V134.88A1.84,1.84,0,0,0,458.18,133.37Z"/><path class="cls-5" d="M452.46,156.63h0a4.48,4.48,0,0,0-4.58.36c-3.86,2.24-7,8.22-7,13.38,0,2.82.94,4.8,2.43,5.65h0l8.57,5L461,161.58Z"/><path class="cls-6" d="M452.46,156.64a4.48,4.48,0,0,0-4.58.36,14.34,14.34,0,0,0-5.21,6.12l13.86,8,4.5-9.54-8.57-5Z"/><ellipse class="cls-3" cx="456.45" cy="171.28" rx="10.75" ry="6.08" transform="translate(120.12 524.22) rotate(-66.95)"/><ellipse class="cls-7" cx="456.45" cy="171.28" rx="10.75" ry="6.08" transform="translate(120.12 524.22) rotate(-66.95)"/><path class="cls-10" d="M461,161.59h0l-8.57-5h0a4.48,4.48,0,0,0-4.58.36c-3.86,2.24-7,8.22-7,13.38,0,2.82.94,4.8,2.43,5.65h0l8.57,5h0a4.48,4.48,0,0,0,4.58-.36c3.87-2.24,7-8.22,7-13.38C463.45,164.42,462.51,162.44,461,161.59Z"/><path class="cls-3" d="M459.66,166.45h0a1,1,0,0,0-.52-.15,2.45,2.45,0,0,0-1.19.38c-2.17,1.25-4,4.81-4,7.76,0,1,.26,2.2.95,2.6v0L482,192.69l4.77-10.62Z"/><path class="cls-6" d="M459.65,166.46a1,1,0,0,0-.52-.15,2.45,2.45,0,0,0-1.19.38,8.46,8.46,0,0,0-3.13,3.94l29.42,17,2.49-5.54-27.06-15.62Z"/><path class="cls-11" d="M459.66,166.45h0a1,1,0,0,0-.52-.15,2.45,2.45,0,0,0-1.19.38c-2.17,1.25-4,4.81-4,7.76,0,1,.26,2.2.95,2.6v0L482,192.69l4.77-10.62Z"/><path class="cls-2" d="M482.48,192.83c-1.09,0-1.48-1.48-1.48-2.75,0-3,1.84-6.51,4-7.76a2.54,2.54,0,0,1,1.19-.39c1.09,0,1.48,1.49,1.48,2.76,0,2.95-1.83,6.51-4,7.76A2.45,2.45,0,0,1,482.48,192.83Z"/><path class="cls-10" d="M482.48,192.83c-1.09,0-1.48-1.48-1.48-2.75,0-3,1.84-6.51,4-7.76a2.54,2.54,0,0,1,1.19-.39c1.09,0,1.48,1.49,1.48,2.76,0,2.95-1.83,6.51-4,7.76A2.45,2.45,0,0,1,482.48,192.83Z"/><line class="cls-12" x1="447.38" y1="308.36" x2="447.38" y2="191.02"/><path class="cls-3" d="M524.12,151.82l-8.83-5.09h0a4.15,4.15,0,0,0-4.24.34l-47.84,27.62c-3.58,2.06-6.48,7.61-6.48,12.38v39c0,2.61.88,4.44,2.25,5.23h0l8.83,5.1L474,224.72l37.08-21.41c3.58-2.07,6.48-7.61,6.48-12.38V159.86Z"/><path class="cls-5" d="M515.29,146.73a4.15,4.15,0,0,0-4.24.34l-47.84,27.62a13.82,13.82,0,0,0-5.33,6.82l45.46,26.25,7.71-4.45c3.58-2.07,6.48-7.61,6.48-12.38V159.86l6.59-8-8.83-5.09Z"/><path class="cls-2" d="M519.88,208.41,472,236c-3.58,2.07-6.48-.12-6.48-4.89v-39c0-4.77,2.9-10.31,6.48-12.38l47.84-27.62c3.58-2.06,6.48.13,6.48,4.9v39C526.36,200.8,523.46,206.34,519.88,208.41Z"/><path class="cls-9" d="M519.88,208.41,472,236c-3.58,2.07-6.48-.12-6.48-4.89v-39c0-4.77,2.9-10.31,6.48-12.38l47.84-27.62c3.58-2.06,6.48.13,6.48,4.9v39C526.36,200.8,523.46,206.34,519.88,208.41Z"/><path class="cls-4" d="M524.11,151.83h0l-8.83-5.09h0a4.15,4.15,0,0,0-4.24.34l-47.84,27.62c-3.58,2.06-6.48,7.61-6.48,12.38v39c0,2.61.88,4.44,2.25,5.23h0l8.83,5.1h0A4.13,4.13,0,0,0,472,236l47.84-27.61c3.58-2.07,6.48-7.61,6.48-12.39v-39C526.36,154.45,525.49,152.62,524.11,151.83Z"/><path class="cls-6" d="M236,183.27c3.51-2,6.69-2.22,9-.88l6.13,3.56c-2.29-1.34-5.47-1.15-9,.88-7,4-12.62,13.81-12.6,21.83,0,4,1.42,6.8,3.69,8.11l-6.13-3.56c-2.27-1.32-3.68-4.12-3.69-8.11C223.41,197.08,229.05,187.3,236,183.27Z"/><path class="cls-5" d="M236.39,191.79c-4.07,4.76-6.85,11.25-6.83,16.87,0,4,1.42,6.8,3.69,8.11l-6.13-3.56c-2.27-1.32-3.68-4.12-3.69-8.11,0-5.63,2.76-12.11,6.83-16.87Z"/><path class="cls-3" d="M242.16,186.83c-7,4-12.62,13.81-12.6,21.83s5.7,11.27,12.69,7.23,12.61-13.8,12.59-21.82S249.15,182.8,242.16,186.83Z"/><path class="cls-13" d="M242.2,192.63a2.33,2.33,0,0,0-1.06,1.84c0,.67.48.94,1.06.6a2.3,2.3,0,0,0,1.06-1.83C243.26,192.57,242.78,192.3,242.2,192.63Z"/><path class="cls-14" d="M242.16,186.83c-7,4-12.62,13.81-12.6,21.83s5.7,11.27,12.69,7.23"/><path class="cls-4" d="M236,183.27c3.51-2,6.69-2.22,9-.88l6.13,3.56h0c2.28,1.31,3.7,4.13,3.71,8.13,0,8-5.61,17.79-12.59,21.82-3.74,2.16-7.09,2.22-9.41.6a4.21,4.21,0,0,0,.41.28l-6.13-3.56c-2.27-1.32-3.68-4.12-3.69-8.11C223.41,197.08,229.05,187.3,236,183.27Z"/><path class="cls-15" d="M270.62,189.83v24.42l-26.85-15.49a1.49,1.49,0,0,0-1.58.12,4.74,4.74,0,0,0-2.15,3.73,1.44,1.44,0,0,0,.7,1.41l29.88,17.25h0a4.06,4.06,0,0,0,6.08-3.51V189.83Z"/><line class="cls-16" x1="274.63" y1="216.26" x2="274.63" y2="195"/><line class="cls-16" x1="243.27" y1="200.73" x2="269.48" y2="215.84"/><ellipse class="cls-17" cx="270.62" cy="185.32" rx="1.05" ry="1.82" transform="translate(-56.46 160.97) rotate(-30.15)"/><path class="cls-15" d="M286.46,168.1,332.22,196l10.45-14.21L299.8,155.28a8.62,8.62,0,0,0-13.14,7Z"/><path class="cls-5" d="M261.77,175.63c0-.07,0-.15,0-.23l0-.23a977613909527.41,977613909527.41,0,0,0,.08-.48h0c0-.07,0-.15.05-.23l.06-.25a2.33,2.33,0,0,1,.07-.25,2.41,2.41,0,0,1,.08-.25l.06-.21h0v0l.09-.25.09-.24c0-.08.07-.16.1-.23l.1-.24.09-.18h0v0l.12-.23.13-.25c0-.09.1-.19.16-.28l.19-.32,0,0,0-.05c.13-.19.26-.39.4-.58s.21-.29.32-.42h0l.22-.27.2-.22a2.09,2.09,0,0,1,.2-.22l.19-.2,0,0,0,0,.15-.14.21-.2.22-.19.23-.18.11-.09,0,0,.09-.06.22-.16.21-.14.22-.13.21-.12,0,0,15.52-8.25.15-.08.21-.1.13-.05,0,0h0l.2-.08.19-.07h.07l.13,0,.2-.05.1,0h.1l.22,0h.69l.28.05h0l.06,0,.27.08h0a3,3,0,0,1,.36.19l45.71,28.75h0a3.4,3.4,0,0,1,1.32,3.17l-.56,17.47a10.68,10.68,0,0,1-5.13,8.22L311.68,225a3.41,3.41,0,0,1-3.48.21h0L262.5,196.5A2.22,2.22,0,0,1,262,196a1.09,1.09,0,0,1-.13-.17c-.06-.08-.12-.14-.17-.22a3.59,3.59,0,0,1-.17-.34v0h0a2.6,2.6,0,0,1-.1-.25,2.5,2.5,0,0,1-.07-.26,2.27,2.27,0,0,1-.06-.25s0-.07,0-.11v0a.36.36,0,0,1,0-.1l0-.24c0-.07,0-.15,0-.23a1.77,1.77,0,0,1,0-.23v-.24h0l.57-17.48A1.7,1.7,0,0,1,261.77,175.63Z"/><path class="cls-6" d="M314,206.87a3.83,3.83,0,0,0-1.49-3.57h0L262.83,172h0l.13-.25c0-.09.1-.19.16-.28l.19-.32,0,0,0-.05c.13-.19.26-.39.4-.58s.21-.29.32-.42h0l.22-.27.2-.22a2.09,2.09,0,0,1,.2-.22l.19-.2,0,0,0,0,.15-.14.21-.2.22-.19.23-.18.11-.09,0,0,.09-.06.22-.16.21-.14.22-.13.21-.12,0,0,15.52-8.25.15-.08.21-.1.13-.05,0,0h0l.2-.08.19-.07h.07l.13,0,.2-.05.1,0h.1l.22,0h.69l.28.05h0l.06,0,.27.08h0a3,3,0,0,1,.36.19l45.71,28.75h0a3.4,3.4,0,0,1,1.32,3.17l-.56,17.47a10.68,10.68,0,0,1-5.13,8.22l-13.72,7.3Z"/><path class="cls-3" d="M312.6,196.39a10.71,10.71,0,0,0-5.14,8.22l-.56,17.47c-.1,3.09,2.05,4.41,4.78,2.95l15.52-8.25a10.68,10.68,0,0,0,5.13-8.22l.56-17.47c.1-3.08-2-4.4-4.77-3Z"/><path class="cls-4" d="M261.77,175.63c0-.07,0-.15,0-.23l0-.23a977613909527.41,977613909527.41,0,0,0,.08-.48h0c0-.07,0-.15.05-.23l.06-.25a2.33,2.33,0,0,1,.07-.25,2.41,2.41,0,0,1,.08-.25l.06-.21h0v0l.09-.25.09-.24c0-.08.07-.16.1-.23l.1-.24.09-.18h0v0l.12-.23.13-.25c0-.09.1-.19.16-.28l.19-.32,0,0,0-.05c.13-.19.26-.39.4-.58s.21-.29.32-.42h0l.22-.27.2-.22a2.09,2.09,0,0,1,.2-.22l.19-.2,0,0,0,0,.15-.14.21-.2.22-.19.23-.18.11-.09,0,0,.09-.06.22-.16.21-.14.22-.13.21-.12,0,0,15.52-8.25.15-.08.21-.1.13-.05,0,0h0l.2-.08.19-.07h.07l.13,0,.2-.05.1,0h.1l.22,0h.69l.28.05h0l.06,0,.27.08h0a3,3,0,0,1,.36.19l45.71,28.75h0a3.4,3.4,0,0,1,1.32,3.17l-.56,17.47a10.68,10.68,0,0,1-5.13,8.22L311.68,225a3.41,3.41,0,0,1-3.48.21h0L262.5,196.5A2.22,2.22,0,0,1,262,196a1.09,1.09,0,0,1-.13-.17c-.06-.08-.12-.14-.17-.22a3.59,3.59,0,0,1-.17-.34v0h0a2.6,2.6,0,0,1-.1-.25,2.5,2.5,0,0,1-.07-.26,2.27,2.27,0,0,1-.06-.25s0-.07,0-.11v0a.36.36,0,0,1,0-.1l0-.24c0-.07,0-.15,0-.23a1.77,1.77,0,0,1,0-.23v-.24h0l.57-17.48A1.7,1.7,0,0,1,261.77,175.63Z"/><path class="cls-14" d="M325,189.8l-12.4,6.59a10.71,10.71,0,0,0-5.14,8.22l-.48,13.7"/><ellipse class="cls-17" cx="319.9" cy="206.59" rx="11.03" ry="6.39" transform="translate(-25.28 367.42) rotate(-57.84)"/><path class="cls-5" d="M292.79,151l49.88,30.82L312.54,198l-9.19,12.5a2.28,2.28,0,0,1-3.05.58L258.6,185a3.43,3.43,0,0,1-1.61-3l.54-15.36a5.7,5.7,0,0,1,3-4.83l20.84-11.2A11.4,11.4,0,0,1,292.79,151Z"/><path class="cls-6" d="M292.79,151l49.88,30.82L312.54,198l-54.9-34.63,23.73-12.76A11.4,11.4,0,0,1,292.79,151Z"/><path class="cls-4" d="M281.37,150.61a11.4,11.4,0,0,1,11.42.34l49.88,30.82L312.54,198l-9.19,12.5a2.28,2.28,0,0,1-3.05.58L259,185.25"/><ellipse class="cls-13" cx="265.92" cy="182.3" rx="1.05" ry="1.82" transform="translate(-54.55 147) rotate(-28.15)"/><ellipse class="cls-13" cx="296.09" cy="201.26" rx="1.05" ry="1.82" transform="translate(-59.93 163.47) rotate(-28.15)"/><line class="cls-12" x1="306.26" y1="194.04" x2="262.31" y2="166.31"/><path class="cls-4" d="M292.79,151l49.88,30.82L312.54,198l-9.19,12.5a2.28,2.28,0,0,1-3.05.58L258.6,185a3.43,3.43,0,0,1-1.61-3l.54-15.36a5.7,5.7,0,0,1,3-4.83l20.84-11.2A11.4,11.4,0,0,1,292.79,151Z"/><line class="cls-12" x1="286.74" y1="163.77" x2="311.26" y2="179.09"/><path class="cls-3" d="M457.54,319.67,424.9,300.83a13.16,13.16,0,0,0-11.94,0l-32.64,18.84H367v9.69c0,1.24.83,2.49,2.47,3.44L413,357.89a13.22,13.22,0,0,0,11.94,0l43.44-25.09c1.65-.95,2.48-2.2,2.48-3.44v-9.69Z"/><path class="cls-2" d="M424.9,300.83a11.66,11.66,0,0,0-5.13-1.38v59.82a11.94,11.94,0,0,0,5.13-1.38l43.44-25.09c1.65-.95,2.48-2.2,2.48-3.44v-9.69H457.54Z"/><path class="cls-4" d="M457.54,319.67,424.9,300.83a13.16,13.16,0,0,0-11.94,0l-32.64,18.84H367v9.69c0,1.24.83,2.49,2.47,3.44L413,357.89a13.22,13.22,0,0,0,11.94,0l43.44-25.09c1.65-.95,2.48-2.2,2.48-3.44v-9.69Z"/><path class="cls-6" d="M468.34,323.12,424.9,348.2a13.22,13.22,0,0,1-11.94,0l-43.45-25.08c-3.29-1.91-3.29-5,0-6.9L413,291.14a13.22,13.22,0,0,1,11.94,0l43.44,25.08C471.64,318.13,471.64,321.21,468.34,323.12Z"/><path class="cls-4" d="M468.34,323.12,424.9,348.2a13.22,13.22,0,0,1-11.94,0l-43.45-25.08c-3.29-1.91-3.29-5,0-6.9L413,291.14a13.22,13.22,0,0,1,11.94,0l43.44,25.08C471.64,318.13,471.64,321.21,468.34,323.12Z"/><polygon class="cls-5" points="455.48 319.67 418.93 340.77 382.38 319.67 418.93 298.57 455.48 319.67"/><polygon class="cls-7" points="455.48 319.67 418.93 340.77 382.38 319.67 418.93 298.57 455.48 319.67"/><g class="cls-18"><rect class="cls-3" x="258.09" y="259.72" width="442.31" height="79.23" transform="translate(-85.46 279.73) rotate(-30)"/><rect class="cls-2" x="302.42" y="332.16" width="404.35" height="22.17" transform="translate(-104.02 298.28) rotate(-30)"/><rect class="cls-4" x="302.42" y="332.16" width="404.35" height="22.17" transform="translate(-104.02 298.28) rotate(-30)"/><g class="cls-19"><line class="cls-7" x1="354.5" y1="330.51" x2="506.59" y2="418.32"/><line class="cls-7" x1="320.09" y1="339.51" x2="456.59" y2="418.32"/><line class="cls-7" x1="212.97" y1="306.53" x2="440.18" y2="437.71"/><line class="cls-7" x1="181.99" y1="317.51" x2="390.18" y2="437.71"/><line class="cls-7" x1="345.96" y1="296.71" x2="501.93" y2="386.76"/><line class="cls-7" x1="358.07" y1="274.84" x2="516.2" y2="366.13"/><line class="cls-7" x1="408.07" y1="274.84" x2="550.08" y2="356.83"/><line class="cls-7" x1="191.2" y1="120.76" x2="641.2" y2="380.56"/><line class="cls-7" x1="241.2" y1="120.76" x2="691.2" y2="380.56"/><line class="cls-7" x1="291.2" y1="120.76" x2="672.27" y2="340.77"/><line class="cls-7" x1="341.2" y1="120.76" x2="659.64" y2="304.61"/><line class="cls-7" x1="391.2" y1="120.76" x2="709.64" y2="304.61"/><line class="cls-7" x1="441.2" y1="120.76" x2="700.33" y2="270.37"/><line class="cls-7" x1="491.2" y1="120.76" x2="705.06" y2="244.23"/></g><rect class="cls-4" x="258.09" y="259.72" width="442.31" height="79.23" transform="translate(-85.46 279.73) rotate(-30)"/><ellipse class="cls-5" cx="506.48" cy="342.16" rx="14.75" ry="8.34" transform="translate(-6.67 674.23) rotate(-66.95)"/><ellipse class="cls-2" cx="506.48" cy="342.16" rx="5.3" ry="3" transform="translate(-6.67 674.23) rotate(-66.95)"/><ellipse class="cls-5" cx="623.85" cy="274.4" rx="14.75" ry="8.34" transform="translate(127.09 740.99) rotate(-66.95)"/><ellipse class="cls-2" cx="623.85" cy="274.4" rx="5.3" ry="3" transform="translate(127.09 740.99) rotate(-66.95)"/><ellipse class="cls-5" cx="379.86" cy="415.26" rx="14.75" ry="8.34" transform="translate(-150.98 602.2) rotate(-66.95)"/><ellipse class="cls-4" cx="506.48" cy="342.16" rx="14.75" ry="8.34" transform="translate(-6.67 674.23) rotate(-66.95)"/><ellipse class="cls-4" cx="623.85" cy="274.4" rx="14.75" ry="8.34" transform="translate(127.09 740.99) rotate(-66.95)"/><ellipse class="cls-4" cx="379.86" cy="415.26" rx="14.75" ry="8.34" transform="translate(-150.98 602.2) rotate(-66.95)"/><ellipse class="cls-2" cx="379.86" cy="415.26" rx="5.3" ry="3" transform="translate(-150.98 602.2) rotate(-66.95)"/></g><path class="cls-2" d="M170.09,354.77V467.56c0,1.75,1.16,3.49,3.46,4.82l102.81,59.36c4.61,2.66,12.09,2.66,16.7,0l50.25-29c2.31-1.33,3.46-3.08,3.46-4.82V385.12Z"/><path class="cls-3" d="M285.32,374.56,170.09,354.77V467.56c0,1.75,1.16,3.49,3.46,4.82l102.81,59.36a17.32,17.32,0,0,0,9,2Z"/><path class="cls-4" d="M170.09,354.77V467.56c0,1.75,1.16,3.49,3.46,4.82l102.81,59.36c4.61,2.66,12.09,2.66,16.7,0l50.25-29c2.31-1.33,3.46-3.08,3.46-4.82V385.12Z"/><path class="cls-3" d="M163.06,324.51V446.29c0,1.88,1.24,3.77,3.73,5.21l111,64.08c5,2.88,13,2.88,18,0l54.25-31.32c2.49-1.44,3.74-3.32,3.74-5.21V357.28Z"/><path class="cls-5" d="M330.9,466.28l-21.74,12.55c-2,1.14-3.56-.07-3.56-2.69V418.52c0-2.62,1.59-5.67,3.56-6.8l21.74-12.56c2-1.13,3.56.07,3.56,2.7v57.61C334.46,462.09,332.87,465.14,330.9,466.28Z"/><path class="cls-5" d="M285.32,345.51l-122.26-21V446.29c0,1.88,1.24,3.77,3.73,5.21l111,64.08a17.56,17.56,0,0,0,7.53,2.1Z"/><path class="cls-6" d="M350.07,362.48,295.82,393.8c-5,2.88-13.05,2.88-18,0l-111-64.08c-5-2.88-5-7.54,0-10.41L221,288c5-2.88,13.05-2.88,18,0l111,64.08C355.05,355,355.05,359.61,350.07,362.48Z"/><path class="cls-4" d="M350.07,352.07,239.07,288c-5-2.88-13-2.88-18,0l-54.25,31.32c-2.49,1.44-3.73,3.32-3.73,5.2V446.29c0,1.88,1.24,3.77,3.73,5.21l111,64.08c5,2.88,13,2.88,18,0l54.25-31.32c2.49-1.44,3.74-3.32,3.74-5.21V357.28C353.81,355.39,352.56,353.51,350.07,352.07Z"/><path class="cls-7" d="M345.41,365.17,295.82,393.8c-5,2.88-13.05,2.88-18,0L171.34,332.34"/><path class="cls-7" d="M330.9,466.28l-21.74,12.55c-2,1.14-3.56-.07-3.56-2.69V418.52c0-2.62,1.59-5.67,3.56-6.8l21.74-12.56c2-1.13,3.56.07,3.56,2.7v57.61C334.46,462.09,332.87,465.14,330.9,466.28Z"/><line class="cls-7" x1="291.43" y1="359.95" x2="225.43" y2="321.84"/><ellipse class="cls-2" cx="230.06" cy="295.03" rx="3" ry="1.73"/><ellipse class="cls-2" cx="178.99" cy="324.51" rx="3" ry="1.73"/><ellipse class="cls-2" cx="337.87" cy="357.28" rx="3" ry="1.73"/><ellipse class="cls-2" cx="286.81" cy="386.76" rx="3" ry="1.73"/><ellipse class="cls-2" cx="262.47" cy="491.16" rx="1.98" ry="3.5" transform="translate(-171.36 141.99) rotate(-23.05)"/><ellipse class="cls-2" cx="262.47" cy="405.16" rx="1.98" ry="3.5" transform="translate(-137.69 135.12) rotate(-23.05)"/><ellipse class="cls-2" cx="175.87" cy="441.16" rx="1.98" ry="3.5" transform="translate(-158.7 104.09) rotate(-23.05)"/><ellipse class="cls-2" cx="175.87" cy="355.16" rx="1.98" ry="3.5" transform="translate(-125.02 97.22) rotate(-23.05)"/><path class="cls-4" d="M556.17,137.16c0-2.8,1.7-4.08,3.8-2.87L649.45,186c2.1,1.21,3.8,4.46,3.8,7.26v100"/><path class="cls-5" d="M723.66,408.62,691,389.78a13.2,13.2,0,0,0-11.93,0l-32.64,18.84H633.17v9.69c0,1.25.82,2.49,2.47,3.44l43.45,25.09a13.2,13.2,0,0,0,11.93,0l43.45-25.09c1.65-.95,2.47-2.19,2.47-3.44v-9.69Z"/><path class="cls-3" d="M691,389.78a11.71,11.71,0,0,0-5.12-1.38v59.82a11.71,11.71,0,0,0,5.12-1.38l43.45-25.09c1.65-.95,2.47-2.19,2.47-3.44v-9.69H723.66Z"/><path class="cls-4" d="M723.66,408.62,691,389.78a13.2,13.2,0,0,0-11.93,0l-32.64,18.84H633.17v9.69c0,1.25.82,2.49,2.47,3.44l43.45,25.09a13.2,13.2,0,0,0,11.93,0l43.45-25.09c1.65-.95,2.47-2.19,2.47-3.44v-9.69Z"/><path class="cls-6" d="M734.47,412.07,691,437.15a13.14,13.14,0,0,1-11.93,0l-43.45-25.08c-3.29-1.9-3.29-5,0-6.89l43.45-25.09a13.2,13.2,0,0,1,11.93,0l43.45,25.09C737.77,407.08,737.77,410.17,734.47,412.07Z"/><path class="cls-4" d="M734.47,412.07,691,437.15a13.14,13.14,0,0,1-11.93,0l-43.45-25.08c-3.29-1.9-3.29-5,0-6.89l43.45-25.09a13.2,13.2,0,0,1,11.93,0l43.45,25.09C737.77,407.08,737.77,410.17,734.47,412.07Z"/><polygon class="cls-5" points="721.6 408.62 685.06 429.72 648.51 408.62 685.06 387.52 721.6 408.62"/><polygon class="cls-7" points="721.6 408.62 685.06 429.72 648.51 408.62 685.06 387.52 721.6 408.62"/><path class="cls-5" d="M433.35,314.34,418.89,306a5.89,5.89,0,0,0-5.3,0l-14.46,8.35h-5.89v24.79a1.87,1.87,0,0,0,1.1,1.53l19.25,11.12a5.89,5.89,0,0,0,5.3,0l19.25-11.12a1.87,1.87,0,0,0,1.1-1.53V314.34Z"/><path class="cls-3" d="M418.89,306a5.25,5.25,0,0,0-2.28-.61v47a5.39,5.39,0,0,0,2.28-.61l19.25-11.12a1.87,1.87,0,0,0,1.1-1.53V314.34h-5.89Z"/><path class="cls-4" d="M433.35,314.34,418.89,306a5.89,5.89,0,0,0-5.3,0l-14.46,8.35h-5.89v24.79a1.87,1.87,0,0,0,1.1,1.53l19.25,11.12a5.89,5.89,0,0,0,5.3,0l19.25-11.12a1.87,1.87,0,0,0,1.1-1.53V314.34Z"/><path class="cls-6" d="M438.14,315.87,418.89,327a5.89,5.89,0,0,1-5.3,0l-19.25-11.12c-1.47-.84-1.47-2.21,0-3.05l19.25-11.12a5.83,5.83,0,0,1,5.3,0l19.25,11.12C439.61,313.66,439.61,315,438.14,315.87Z"/><path class="cls-4" d="M438.14,315.87,418.89,327a5.89,5.89,0,0,1-5.3,0l-19.25-11.12c-1.47-.84-1.47-2.21,0-3.05l19.25-11.12a5.83,5.83,0,0,1,5.3,0l19.25,11.12C439.61,313.66,439.61,315,438.14,315.87Z"/><path class="cls-20" d="M607.15,214l-14.47-8.35a5.87,5.87,0,0,0-5.29,0L572.92,214H567v24.79a1.87,1.87,0,0,0,1.1,1.53l19.26,11.12a5.87,5.87,0,0,0,5.29,0l19.26-11.12a1.86,1.86,0,0,0,1.09-1.53V214Z"/><path class="cls-21" d="M592.68,205.65a5.34,5.34,0,0,0-2.27-.61v47a5.2,5.2,0,0,0,2.27-.61l19.26-11.12a1.86,1.86,0,0,0,1.09-1.53V214h-5.88Z"/><path class="cls-22" d="M607.15,214l-14.47-8.35a5.87,5.87,0,0,0-5.29,0L572.92,214H567v24.79a1.87,1.87,0,0,0,1.1,1.53l19.26,11.12a5.87,5.87,0,0,0,5.29,0l19.26-11.12a1.86,1.86,0,0,0,1.09-1.53V214Z"/><path class="cls-6" d="M611.94,215.53l-19.26,11.12a5.87,5.87,0,0,1-5.29,0l-19.26-11.12c-1.46-.84-1.46-2.21,0-3.05l19.26-11.12a5.81,5.81,0,0,1,5.29,0l19.26,11.12C613.4,213.32,613.4,214.69,611.94,215.53Z"/><path class="cls-22" d="M611.94,215.53l-19.26,11.12a5.87,5.87,0,0,1-5.29,0l-19.26-11.12c-1.46-.84-1.46-2.21,0-3.05l19.26-11.12a5.81,5.81,0,0,1,5.29,0l19.26,11.12C613.4,213.32,613.4,214.69,611.94,215.53Z"/><rect class="cls-1" width="900" height="600"/></g></g></svg>