<svg xmlns="http://www.w3.org/2000/svg" viewBox="0 0 900 600"><defs><style>.cls-1,.cls-12,.cls-14,.cls-15,.cls-17,.cls-18,.cls-19,.cls-2,.cls-21,.cls-24,.cls-25,.cls-27,.cls-3,.cls-5,.cls-6,.cls-7{fill:none;}.cls-2,.cls-3,.cls-4{stroke:#d5dae0;}.cls-13,.cls-14,.cls-15,.cls-18,.cls-19,.cls-2,.cls-21,.cls-22,.cls-24,.cls-25,.cls-26,.cls-27,.cls-3,.cls-4,.cls-5,.cls-6,.cls-7{stroke-linecap:round;stroke-linejoin:round;}.cls-12,.cls-13,.cls-14,.cls-15,.cls-17,.cls-18,.cls-19,.cls-2,.cls-21,.cls-22,.cls-24,.cls-25,.cls-26,.cls-27,.cls-3,.cls-4,.cls-5,.cls-6,.cls-7{stroke-width:2px;}.cls-19,.cls-3{stroke-dasharray:0 6;}.cls-22,.cls-4,.cls-8{fill:#fff;}.cls-17,.cls-18,.cls-19,.cls-5,.cls-6,.cls-7{stroke:#b8bfca;}.cls-6{stroke-dasharray:0 6.12;}.cls-7{stroke-dasharray:0 6.26;}.cls-9{fill:#f2f4f6;}.cls-10,.cls-13{fill:#d5dae0;}.cls-11{fill:#b8bfca;}.cls-12,.cls-13,.cls-15{stroke:#627386;}.cls-12,.cls-17{stroke-miterlimit:10;}.cls-14{stroke:#f2f4f6;}.cls-16{fill:#627386;}.cls-18{stroke-dasharray:0 6.13;}.cls-20{fill:#bde4fd;}.cls-21,.cls-22{stroke:#1b6dc6;}.cls-23{fill:#d3edfd;}.cls-24,.cls-26{stroke:#91d2fb;}.cls-25{stroke:#fff;}.cls-26{fill:#1b6dc6;}.cls-27{stroke:#bde4fd;}</style></defs><title>xi_iot_mobile_step2(2x2)</title><g id="Layer_2" data-name="Layer 2"><g id="Illustrations"><rect class="cls-1" width="900" height="600"/><line class="cls-2" x1="322" y1="404.73" x2="322" y2="404.73"/><line class="cls-3" x1="327.2" y1="401.73" x2="392.19" y2="364.18"/><line class="cls-2" x1="394.79" y1="362.68" x2="394.79" y2="362.68"/><path class="cls-4" d="M580.36,394.17A2.29,2.29,0,0,1,579,396a7.41,7.41,0,0,1-6.58,0,2,2,0,0,1,0-3.73,7.41,7.41,0,0,1,6.58,0A2.29,2.29,0,0,1,580.36,394.17Z"/><line class="cls-5" x1="528.78" y1="285.83" x2="528.78" y2="285.83"/><line class="cls-6" x1="534.06" y1="282.74" x2="568.41" y2="262.64"/><line class="cls-5" x1="571.05" y1="261.09" x2="571.05" y2="261.09"/><line class="cls-5" x1="328.78" y1="251.47" x2="328.78" y2="251.47"/><line class="cls-7" x1="334.2" y1="254.6" x2="385.72" y2="284.32"/><line class="cls-5" x1="388.43" y1="285.88" x2="388.43" y2="285.88"/><path class="cls-8" d="M230.3,170.18c5.15-3,9.81-3.25,13.17-1.29l9,5.22c-3.36-2-8-1.68-13.17,1.29-10.23,5.9-18.5,20.23-18.46,32,0,5.84,2.07,10,5.4,11.89l-9-5.22c-3.32-1.93-5.39-6-5.4-11.88C211.8,190.41,220.07,176.09,230.3,170.18Z"/><path class="cls-9" d="M230.82,182.66c-6,7-10,16.48-10,24.72,0,5.84,2.07,10,5.4,11.89l-9-5.22c-3.32-1.93-5.39-6-5.4-11.88,0-8.25,4-17.75,10-24.73Z"/><path class="cls-10" d="M239.28,175.4c-10.23,5.9-18.5,20.23-18.46,32s8.35,16.5,18.58,10.6,18.49-20.22,18.45-32S249.51,169.49,239.28,175.4Z"/><path class="cls-11" d="M239.33,183.9a3.43,3.43,0,0,0-1.55,2.69c0,1,.7,1.38,1.56.88a3.4,3.4,0,0,0,1.55-2.68C240.89,183.8,240.19,183.4,239.33,183.9Z"/><path class="cls-5" d="M239.28,175.4c-10.23,5.9-18.5,20.23-18.46,32s8.35,16.5,18.58,10.6"/><path class="cls-12" d="M230.3,170.18c5.15-3,9.81-3.25,13.17-1.29l9,5.22,0,0c3.34,1.93,5.42,6,5.43,11.91,0,11.76-8.21,26.07-18.45,32-5.47,3.16-10.38,3.24-13.78.87.2.14.39.29.6.42l-9-5.22c-3.32-1.93-5.39-6-5.4-11.88C211.8,190.41,220.07,176.09,230.3,170.18Z"/><path class="cls-13" d="M297.07,189.08v35.78l-55.43-32a2.16,2.16,0,0,0-2.31.17,7,7,0,0,0-3.16,5.47,2.15,2.15,0,0,0,1,2.07l59.88,34.55h0A5.94,5.94,0,0,0,306,230V189.08Z"/><line class="cls-14" x1="303.97" y1="230" x2="303.97" y2="198.86"/><path class="cls-13" d="M314.53,155.72,383,194.2l14.58-21.33-64.12-36.59a12.62,12.62,0,0,0-18.88,11Z"/><path class="cls-9" d="M278.76,168c0-.11,0-.23,0-.34l0-.35c0-.11,0-.23,0-.35s0-.23,0-.35v0h0l.06-.33c0-.13.05-.25.08-.37s0-.25.08-.38l.1-.37.09-.31v-.07l.12-.37c0-.12.08-.24.13-.36s.08-.23.13-.35l.13-.34.12-.28h0l0-.05c.05-.12.1-.23.16-.35l.18-.37c.07-.14.14-.29.22-.43s.17-.31.26-.47l0-.06a.25.25,0,0,1,0-.07q.25-.45.54-.87l.45-.64h0l.31-.41.27-.34.28-.32c.09-.1.18-.21.28-.31l.05-.06,0,0,.21-.22.3-.3.31-.29.32-.28.16-.13,0,0,.12-.1.31-.24.31-.22.3-.2.3-.18.07,0,22.3-12.87.22-.13.3-.15.18-.09.05,0,0,0,.29-.12.29-.11h.09l.19-.07.3-.08.13,0h.07l.09,0c.1,0,.21,0,.31-.06l.19,0h.83a2.7,2.7,0,0,1,.41.06h0l.08,0,.41.11,0,0a3.32,3.32,0,0,1,.54.25l68.39,39.76h0c1.29.74,2.08,2.32,2.09,4.57l.07,25.61a15.6,15.6,0,0,1-7.09,12.3l-22.29,12.87c-2,1.15-3.8,1.25-5.1.48l0,0-68.39-39.76a3.64,3.64,0,0,1-.78-.64c-.07-.08-.13-.17-.19-.25a2.6,2.6,0,0,1-.26-.32,3.72,3.72,0,0,1-.27-.48v-.05a3,3,0,0,1-.15-.36c-.05-.12-.09-.25-.13-.37l-.09-.37,0-.16v0l0-.15c0-.11,0-.22-.05-.34s0-.23,0-.34,0-.23,0-.34,0-.23,0-.34v0l-.07-25.62Z"/><path class="cls-8" d="M356.88,211.09c0-2.54-.9-4.33-2.35-5.16h0l-74.4-43.25v0l.18-.37c.07-.14.14-.29.22-.43s.17-.31.26-.47l0-.06a.25.25,0,0,1,0-.07q.25-.45.54-.87l.45-.64h0l.31-.41.27-.34.28-.32c.09-.1.18-.21.28-.31l.05-.06,0,0,.21-.22.3-.3.31-.29.32-.28.16-.13,0,0,.12-.1.31-.24.31-.22.3-.2.3-.18.07,0,22.3-12.87.22-.13.3-.15.18-.09.05,0,0,0,.29-.12.29-.11h.09l.19-.07.3-.08.13,0h.07l.09,0c.1,0,.21,0,.31-.06l.18,0h.84a2.7,2.7,0,0,1,.41.06h0l.08,0,.41.11,0,0a3.32,3.32,0,0,1,.54.25l68.39,39.76h0c1.29.74,2.08,2.32,2.09,4.57l.07,25.61a15.6,15.6,0,0,1-7.09,12.3L357,236.31Z"/><path class="cls-10" d="M354.26,195.81a15.68,15.68,0,0,0-7.11,12.29l.08,25.62c0,4.53,3.21,6.34,7.15,4.07l22.29-12.87a15.6,15.6,0,0,0,7.09-12.3L383.69,187c0-4.52-3.21-6.34-7.14-4.07Z"/><path class="cls-15" d="M278.76,168c0-.11,0-.23,0-.34l0-.35c0-.11,0-.23,0-.35s0-.23,0-.35v0h0l.06-.33c0-.13.05-.25.08-.37s0-.25.08-.38l.1-.37.09-.31v-.07l.12-.37c0-.12.08-.24.13-.36s.08-.23.13-.35l.13-.34.12-.28h0l0-.05c.05-.12.1-.23.16-.35l.18-.37c.07-.14.14-.29.22-.43s.17-.31.26-.47l0-.06a.25.25,0,0,1,0-.07q.25-.45.54-.87l.45-.64h0l.31-.41.27-.34.28-.32c.09-.1.18-.21.28-.31l.05-.06,0,0,.21-.22.3-.3.31-.29.32-.28.16-.13,0,0,.12-.1.31-.24.31-.22.3-.2.3-.18.07,0,22.3-12.87.22-.13.3-.15.18-.09.05,0,0,0,.29-.12.29-.11h.09l.19-.07.3-.08.13,0h.07l.09,0c.1,0,.21,0,.31-.06l.19,0h.83a2.7,2.7,0,0,1,.41.06h0l.08,0,.41.11,0,0a3.32,3.32,0,0,1,.54.25l68.39,39.76h0c1.29.74,2.08,2.32,2.09,4.57l.07,25.61a15.6,15.6,0,0,1-7.09,12.3l-22.29,12.87c-2,1.15-3.8,1.25-5.1.48l0,0-68.39-39.76a3.64,3.64,0,0,1-.78-.64c-.07-.08-.13-.17-.19-.25a2.6,2.6,0,0,1-.26-.32,3.72,3.72,0,0,1-.27-.48v-.05a3,3,0,0,1-.15-.36c-.05-.12-.09-.25-.13-.37l-.09-.37,0-.16v0l0-.15c0-.11,0-.22-.05-.34s0-.23,0-.34,0-.23,0-.34,0-.23,0-.34v0l-.07-25.62Z"/><path class="cls-5" d="M372.08,185.52l-17.82,10.29a15.68,15.68,0,0,0-7.11,12.29v20.08"/><path class="cls-9" d="M373.57,196.38h0c-2.09-1.21-5-1-8.15.8C359.09,200.85,354,209.71,354,217c0,3.62,1.3,6.16,3.36,7.36h0l8.47,4.89,16.21-28Z"/><path class="cls-8" d="M373.57,196.39c-2.09-1.21-5-1-8.15.8a23.38,23.38,0,0,0-8.07,8.5l16.57,9.57,8.11-14-8.46-4.89Z"/><ellipse class="cls-10" cx="373.92" cy="215.26" rx="16.16" ry="9.36" transform="translate(-0.07 430.4) rotate(-59.84)"/><path class="cls-5" d="M375.85,201.14a13.92,13.92,0,0,0-2,.94c-6.33,3.65-11.45,12.52-11.43,19.8"/><path class="cls-15" d="M382,201.27h0l-8.46-4.89h0c-2.09-1.21-5-1-8.15.8C359.09,200.85,354,209.71,354,217c0,3.62,1.3,6.16,3.36,7.36h0l8.47,4.89h0c2.08,1.21,5,1,8.14-.8,6.34-3.65,11.45-12.52,11.43-19.79C385.38,205,384.1,202.47,382,201.27Z"/><ellipse class="cls-16" cx="373.92" cy="215.26" rx="9.87" ry="5.72" transform="translate(-0.07 430.4) rotate(-59.84)"/><ellipse class="cls-16" cx="280.98" cy="173.18" rx="1.54" ry="2.66" transform="translate(-48.97 164.53) rotate(-30.15)"/><path class="cls-9" d="M322.92,130.29l74.61,42.58-43.27,25.3-12.83,18.77a3.34,3.34,0,0,1-4.44,1l-62.38-36a5,5,0,0,1-2.51-4.35V155.07a8.38,8.38,0,0,1,4.15-7.23l29.94-17.47A16.75,16.75,0,0,1,322.92,130.29Z"/><path class="cls-8" d="M322.92,130.29l74.61,42.58-43.27,25.3-82.16-47.9,34.09-19.9A16.75,16.75,0,0,1,322.92,130.29Z"/><path class="cls-15" d="M306.19,130.37a16.75,16.75,0,0,1,16.73-.08l74.61,42.58-43.27,25.3-12.83,18.77a3.34,3.34,0,0,1-4.44,1l-61.84-35.71"/><ellipse class="cls-11" cx="285.19" cy="177.56" rx="1.54" ry="2.66" transform="translate(-50.6 167.24) rotate(-30.15)"/><ellipse class="cls-11" cx="330.34" cy="203.78" rx="1.54" ry="2.66" transform="translate(-57.66 193.46) rotate(-30.15)"/><line class="cls-2" x1="344.85" y1="192.69" x2="279.08" y2="154.34"/><path class="cls-15" d="M322.92,130.29l74.61,42.58-43.27,25.3-12.83,18.77a3.34,3.34,0,0,1-4.44,1l-62.38-36a5,5,0,0,1-2.51-4.35V155.07a8.38,8.38,0,0,1,4.15-7.23l29.94-17.47A16.75,16.75,0,0,1,322.92,130.29Z"/><line class="cls-14" x1="241.64" y1="194.88" x2="296.12" y2="226.31"/><line class="cls-2" x1="314.73" y1="149.37" x2="351.41" y2="170.55"/><path class="cls-8" d="M673.53,131.54a3.67,3.67,0,0,1,3.68,3.67v53.73c0,1.17-1.65,2.12-3.68,2.12s-3.67-.95-3.67-2.12V135.21A3.67,3.67,0,0,1,673.53,131.54Z"/><path class="cls-10" d="M673.53,191.06h0c2,0,3.68-.95,3.68-2.12V136.12a1.84,1.84,0,0,0-1.84-1.83h0a1.84,1.84,0,0,0-1.84,1.83Z"/><path class="cls-15" d="M673.53,131.54a3.67,3.67,0,0,1,3.68,3.67v53.73c0,1.17-1.65,2.12-3.68,2.12s-3.67-.95-3.67-2.12V135.21A3.67,3.67,0,0,1,673.53,131.54Z"/><path class="cls-15" d="M677.21,159.56c0,1.17-1.65,2.12-3.68,2.12s-3.67-1-3.67-2.12"/><path class="cls-10" d="M576.86,204.54l-.07,21.53v.09a7,7,0,0,0,.06.79c0,.05,0,.1,0,.15a1.84,1.84,0,0,1,0,.25c0,.13,0,.25.07.38s.08.27.13.41a2.17,2.17,0,0,0,.07.24.93.93,0,0,1,0,.13c.1.27.21.53.34.8l0,0,.1.18c.11.2.21.4.34.59s.09.13.13.19l.25.35c.08.11.15.22.24.33s.16.17.24.26.26.3.4.44.13.16.21.24l.55.52.06.05c.23.2.47.4.72.59s.22.15.32.22l.3.22c.39.27.79.53,1.23.79l27.87,16.09c.46.26.93.5,1.42.74l.48.21,1,.44.59.22,1,.34.62.19c.14,0,.26.09.4.12l.43.1c.44.12.89.22,1.34.32l.43.1.37.06.86.14.56.1.47,0,.66.07.45,0c.26,0,.52,0,.78.05l.49,0h.2l1.41,0h1.36l.47,0,.47,0,.41,0,1.11-.1.19,0h0c.46,0,.91-.11,1.37-.18l.24,0c.17,0,.33-.06.49-.09s.45-.07.67-.12l.51-.11.59-.14.37-.09c.22,0,.43-.12.64-.18l.72-.21.25-.07.5-.19c.36-.12.72-.25,1.08-.4l.29-.11.65-.29.46-.21c.48-.23.94-.47,1.39-.73l43.87-25.48c3.38-2,5.29-4.47,5.72-7a6.92,6.92,0,0,0,.09-1.11l.07-21.53c0,2.95-1.94,5.89-5.81,8.14l-43.87,25.48c-.45.26-.91.5-1.39.73l-.46.21c-.31.14-.63.28-.95.4s-.71.27-1.08.4l-.74.26-.72.21-1,.27-.6.14-1.17.23c-.16,0-.32.07-.49.09-.55.09-1.1.18-1.66.24l-.19,0c-.51.05-1,.09-1.52.12l-.48,0c-.48,0-1,0-1.44,0h-.29c-.57,0-1.14,0-1.7,0l-.5,0c-.41,0-.82-.06-1.22-.1l-.66-.07c-.35,0-.69-.09-1-.15l-.86-.14-.8-.16c-.45-.1-.9-.2-1.34-.32l-.83-.22-.62-.19-1-.34-.59-.22-1-.44-.48-.21c-.49-.24-1-.48-1.42-.74l-27.87-16.09c-.44-.26-.84-.52-1.23-.79l-.3-.22a12.46,12.46,0,0,1-1-.81l-.06-.05c-.27-.25-.52-.5-.76-.76s-.27-.29-.4-.44-.33-.39-.48-.59l-.25-.35a7.68,7.68,0,0,1-.47-.78l-.1-.18a7.41,7.41,0,0,1-.41-1,2.17,2.17,0,0,1-.07-.24c-.08-.27-.15-.53-.2-.79,0-.09,0-.17,0-.25a7.15,7.15,0,0,1-.08-1h0Z"/><path class="cls-9" d="M576.76,226.07v.09a7,7,0,0,0,0,.79l0,.15c0,.08,0,.16,0,.25s0,.25.07.38.08.27.12.41,0,.16.08.24a.5.5,0,0,0,0,.13c.1.27.21.53.34.8l0,0,.1.18c.1.2.21.4.33.59s.1.13.14.19.16.24.25.35l.23.33c.08.09.17.17.24.26s.26.3.4.44l.22.24c.17.18.36.35.55.52l.06.05c.23.2.47.4.72.59l.31.22.3.22c.39.27.8.53,1.24.79l27.87,16.09c.45.26.93.5,1.42.74l.48.21,1,.44.59.22,1,.34.63.19.39.12.43.1c.45.12.89.22,1.35.32l.43.1.37.06.85.14.56.1.47,0,.66.07.45,0c.26,0,.52,0,.78.05l.49,0h.21l1.4,0h1.37l.46,0h0V232.22c-.47,0-.94,0-1.41,0h-.28c-.57,0-1.14,0-1.71,0l-.49,0c-.41,0-.82-.06-1.23-.1l-.66-.07c-.34,0-.69-.09-1-.15l-.85-.14-.8-.16c-.46-.1-.9-.2-1.35-.32l-.82-.22-.63-.19-1-.34-.58-.22-1-.44-.48-.21c-.49-.24-1-.48-1.43-.74l-27.86-16.09c-.44-.26-.85-.52-1.24-.79l-.3-.22c-.36-.26-.71-.53-1-.81l-.06-.05c-.28-.25-.53-.5-.77-.76s-.27-.29-.4-.44-.32-.39-.47-.59-.17-.23-.25-.35a7.68,7.68,0,0,1-.47-.78l-.1-.18a6.26,6.26,0,0,1-.41-1l-.08-.24c-.08-.27-.14-.53-.19-.79,0-.09,0-.17-.05-.25a7.15,7.15,0,0,1-.08-1h0Z"/><path class="cls-5" d="M603.94,238.65l-14.8-8.54c-1.64-1-3,0-3,2.24v4l20.73,12v-4A7.08,7.08,0,0,0,603.94,238.65Z"/><ellipse class="cls-11" cx="640.85" cy="238.3" rx="2.89" ry="1.67" transform="translate(115 675.3) rotate(-60.13)"/><ellipse class="cls-11" cx="678.57" cy="216.53" rx="2.89" ry="1.67" transform="translate(152.82 697.08) rotate(-60.13)"/><path class="cls-8" d="M582.73,212.79c-7.83-4.53-7.88-11.86-.09-16.38l43.87-25.49c7.79-4.52,20.45-4.52,28.28,0L682.66,187c7.83,4.52,7.87,11.85.08,16.38l-43.87,25.48c-7.78,4.53-20.44,4.53-28.28,0Z"/><ellipse class="cls-11" cx="622.57" cy="205.92" rx="5.61" ry="9.71" transform="translate(414.77 827.87) rotate(-89.83)"/><path class="cls-17" d="M622.61,196.21a28.13,28.13,0,0,1,5.39.54l19.91-11.36a9.33,9.33,0,0,1,9.35.05l.63.37a3.51,3.51,0,0,1,0,6.07l-19.33,11a6.1,6.1,0,0,1,.87,3.07c0,5.37-7.56,9.69-16.85,9.66s-16.81-4.4-16.79-9.76S613.32,196.18,622.61,196.21Z"/><line class="cls-5" x1="647.66" y1="191.61" x2="626.02" y2="203.96"/><path class="cls-15" d="M582.64,196.41c-3.88,2.25-5.81,5.2-5.81,8.16v0h0l-.07,21.53v.09a7,7,0,0,0,0,.79l0,.15c0,.08,0,.16,0,.25s0,.25.07.38.08.27.12.41,0,.16.08.24a.5.5,0,0,0,0,.13c.1.27.21.53.34.8l0,0,.1.18c.1.2.21.4.33.59s.1.13.14.19.16.24.25.35l.23.33c.08.09.17.17.24.26s.26.3.4.44l.22.24c.17.18.36.35.55.52l.06.05c.23.2.47.4.72.59l.31.22.3.22c.39.27.8.53,1.24.79l27.87,16.09c.45.26.93.5,1.42.74l.48.21,1,.44.59.22,1,.34.63.19.39.12.43.1c.45.12.89.22,1.35.32l.43.1.37.06.85.14.56.1.47,0,.66.07.45,0c.26,0,.52,0,.78.05l.49,0h.21l1.4,0h1.37l.46,0h0l.45,0,.41,0,1.1-.1.2,0h.05c.46,0,.91-.11,1.36-.18l.25,0,.49-.09.66-.12.51-.11.6-.14.36-.09c.22,0,.43-.12.65-.18l.72-.21.24-.07.5-.19c.37-.12.73-.25,1.08-.4l.3-.11.65-.29.45-.21c.48-.23,1-.47,1.4-.73l43.86-25.48c3.39-2,5.29-4.47,5.72-7a6.94,6.94,0,0,0,.1-1.11l.07-21.53c0,.19,0,.38,0,.57.27-3.17-1.67-6.39-5.85-8.81l-27.87-16.09c-7.83-4.52-20.49-4.52-28.28,0Z"/><path class="cls-5" d="M678.57,205.8l-39.7,23.07c-7.78,4.53-20.44,4.53-28.28,0L586,214.66"/><line class="cls-5" x1="514.07" y1="358.58" x2="514.07" y2="358.58"/><line class="cls-18" x1="519.37" y1="361.65" x2="569.76" y2="390.78"/><line class="cls-5" x1="572.42" y1="392.31" x2="572.42" y2="392.31"/><line class="cls-5" x1="514.07" y1="358.58" x2="514.07" y2="358.58"/><line class="cls-18" x1="519.37" y1="361.65" x2="569.76" y2="390.78"/><line class="cls-5" x1="572.42" y1="392.31" x2="572.42" y2="392.31"/><polygon class="cls-4" points="510.34 350.54 514.07 358.58 500.15 356.42 510.34 350.54"/><path class="cls-9" d="M556.29,420.3l80.76-46.63c8-4.59,19.38-5.95,29.4-4.09l-1-4.18h21.12v20.11h0c0,4.29-2.83,8.58-8.49,11.85l-15.29,8.83,9.65-1.28V425h0c0,7.14-4.72,14.28-14.16,19.73-17.85,10.31-46.2,10.86-65.19,1.68l-16.9,9.75c-11.33,6.54-29.69,6.54-41,0-5.67-3.27-8.5-7.56-8.5-11.84h0V424.22Z"/><path class="cls-8" d="M668.62,415.79c6.92-9.43,4.43-20.61-7.44-28.79l16.9-9.76c11.33-6.54,11.33-17.14,0-23.68h0c-11.33-6.54-29.7-6.54-41,0L535.17,412.38c-11.33,6.54-11.33,17.15,0,23.69s29.69,6.54,41,0l16.9-9.76c19,9.19,47.34,8.64,65.19-1.67a33,33,0,0,0,10.34-8.85"/><path class="cls-2" d="M662.21,422.08a43.05,43.05,0,0,1-3.93,2.56c-17.85,10.31-46.2,10.86-65.19,1.67l-16.9,9.76c-11.33,6.54-29.69,6.54-41,0"/><path class="cls-2" d="M678.08,377.24,661.18,387a31.17,31.17,0,0,1,7.16,6.63"/><path class="cls-5" d="M526.67,424.22c0-4.28,2.83-8.57,8.5-11.84l101.88-58.82c11.33-6.54,29.7-6.54,41,0h0c5.66,3.27,8.49,7.55,8.49,11.84h0v20.11c0,4.29-2.83,8.58-8.49,11.85l-6.14,3.54a16.62,16.62,0,0,1,.5,4h0V425h0c0,7.14-4.72,14.28-14.16,19.73-17.85,10.31-46.2,10.86-65.19,1.68l-16.9,9.75c-11.33,6.54-29.69,6.54-41,0-5.67-3.27-8.5-7.56-8.5-11.84V424.22Z"/><line class="cls-5" x1="322" y1="404.73" x2="322" y2="404.73"/><line class="cls-19" x1="327.2" y1="401.73" x2="392.19" y2="364.18"/><line class="cls-5" x1="394.79" y1="362.68" x2="394.79" y2="362.68"/><polygon class="cls-4" points="399.89 365.62 401.75 361.61 403.62 357.59 396.65 358.66 389.69 359.74 394.79 362.68 399.89 365.62"/><path class="cls-4" d="M323.36,406.6a2.29,2.29,0,0,1-1.36,1.86,7.41,7.41,0,0,1-6.58,0,2,2,0,0,1,0-3.73,7.41,7.41,0,0,1,6.58,0A2.29,2.29,0,0,1,323.36,406.6Z"/><path class="cls-10" d="M367.56,433.15l-12.69-1.76-83-47.9c-4.68-2.7-12.28-2.7-17,0l-20,11.55-14.31,8.27-2.53,1.46-6.68-1.65v8.38c0,1.77,1.17,3.54,3.52,4.9l92.63,53.48c4.69,2.71,12.29,2.71,17,0l38.89-22.45c2.62-1.51,4.12-3.76,4.12-5.91h0Z"/><path class="cls-9" d="M315.21,408.49l-43.3-25c-4.68-2.7-12.28-2.7-17,0l-20,11.55-14.31,8.27-2.53,1.46-6.68-1.65v8.38c0,1.77,1.17,3.54,3.52,4.9l92.63,53.48a17,17,0,0,0,7.65,2Z"/><path class="cls-15" d="M367.56,433.15l-12.69-1.76-83-47.9c-4.68-2.7-12.28-2.7-17,0l-20,11.55-14.31,8.27-2.53,1.46-6.68-1.65v8.38c0,1.77,1.17,3.54,3.52,4.9l92.63,53.48c4.69,2.71,12.29,2.71,17,0l38.89-22.45c2.62-1.51,4.12-3.76,4.12-5.91h0Z"/><path class="cls-8" d="M367.49,432.39a5.48,5.48,0,0,0-2.94-3.78l-92.64-53.49c-4.68-2.7-12.28-2.7-17,0l-20,11.55-14.31,8.27-5.69,3.28c-4.69,2.71-4.69,7.1,0,9.8l92.63,53.49a17.42,17.42,0,0,0,8.49,2,19.58,19.58,0,0,0,2.3-.13,18.09,18.09,0,0,0,4.31-1,14.12,14.12,0,0,0,1.88-.89l38.89-22.45a7.72,7.72,0,0,0,4.08-5.23A4.63,4.63,0,0,0,367.49,432.39Z"/><path class="cls-9" d="M364.55,428.61l-75.07-43.34v65.8l18.08,10.44a17.42,17.42,0,0,0,8.49,2,19.58,19.58,0,0,0,2.3-.13,18.09,18.09,0,0,0,4.31-1,14.12,14.12,0,0,0,1.88-.89l38.89-22.45a7.72,7.72,0,0,0,4.08-5.23,4.63,4.63,0,0,0,0-1.44A5.48,5.48,0,0,0,364.55,428.61Z"/><path class="cls-5" d="M216.86,409.14l90.7,52.37a17.42,17.42,0,0,0,8.49,2,19.58,19.58,0,0,0,2.3-.13,18.09,18.09,0,0,0,4.31-1,14.12,14.12,0,0,0,1.88-.89L361.87,440"/><path class="cls-2" d="M230.12,400.06a6.57,6.57,0,0,0-5.92,0h0c-1.64.94-1.64,2.48,0,3.42a6.57,6.57,0,0,0,5.92,0h0C231.76,402.54,231.76,401,230.12,400.06Z"/><path class="cls-15" d="M367.55,433.15a3.84,3.84,0,0,0-.06-.76,5.48,5.48,0,0,0-2.94-3.78l-92.64-53.49c-4.68-2.7-12.28-2.7-17,0l-20,11.55-14.31,8.27-5.69,3.28c-2.35,1.36-3.52,3.13-3.52,4.9h0v8.38c0,1.77,1.17,3.54,3.52,4.9l92.63,53.48q.42.24.87.45l.36.16.56.24.49.17.46.16.59.17.38.1.69.16.3.06.78.13.22,0c.28,0,.57.08.86.1h.13a18.09,18.09,0,0,0,10.29-1.94l38.89-22.45c2.62-1.51,4.12-3.76,4.12-5.91h0v-8.37Z"/><ellipse class="cls-5" cx="330.04" cy="441.08" rx="6.34" ry="3.66"/><line class="cls-5" x1="528.78" y1="285.83" x2="528.78" y2="285.83"/><line class="cls-6" x1="534.06" y1="282.74" x2="568.41" y2="262.64"/><line class="cls-5" x1="571.05" y1="261.09" x2="571.05" y2="261.09"/><path class="cls-4" d="M579,259.23a2.27,2.27,0,0,1-1.36,1.86,7.35,7.35,0,0,1-6.59,0,2.27,2.27,0,0,1-1.36-1.86,2.29,2.29,0,0,1,1.36-1.86,7.44,7.44,0,0,1,6.59,0A2.29,2.29,0,0,1,579,259.23Z"/><polygon class="cls-4" points="523.68 282.89 521.81 286.91 519.95 290.93 526.91 289.85 533.87 288.77 528.78 285.83 523.68 282.89"/><path class="cls-8" d="M518.07,242.53a3.85,3.85,0,0,1,3.85,3.86v57.86c0,1.23-1.72,2.23-3.85,2.23s-3.86-1-3.86-2.23V246.39A3.86,3.86,0,0,1,518.07,242.53Z"/><path class="cls-20" d="M518.07,306.48h0c2.13,0,3.85-1,3.85-2.23v-56.9a1.92,1.92,0,0,0-1.93-1.93h0a1.92,1.92,0,0,0-1.92,1.93Z"/><path class="cls-21" d="M518.07,242.53a3.85,3.85,0,0,1,3.85,3.86v57.86c0,1.23-1.72,2.23-3.85,2.23s-3.86-1-3.86-2.23V246.39A3.86,3.86,0,0,1,518.07,242.53Z"/><path class="cls-21" d="M521.92,273.39c0,1.23-1.72,2.23-3.85,2.23s-3.86-1-3.86-2.23"/><path class="cls-21" d="M474.82,217.53a3.86,3.86,0,0,1,3.86,3.86v57.86c0,1.23-1.73,2.23-3.86,2.23s-3.85-1-3.85-2.23V221.39A3.85,3.85,0,0,1,474.82,217.53Z"/><path class="cls-20" d="M474.82,281.48h0c2.13,0,3.86-1,3.86-2.23v-56.9a1.92,1.92,0,0,0-1.93-1.93h0a1.93,1.93,0,0,0-1.93,1.93Z"/><path class="cls-21" d="M474.82,217.53a3.86,3.86,0,0,1,3.86,3.86v57.86c0,1.23-1.73,2.23-3.86,2.23s-3.85-1-3.85-2.23V221.39A3.85,3.85,0,0,1,474.82,217.53Z"/><path class="cls-21" d="M478.68,248.39c0,1.23-1.73,2.23-3.86,2.23s-3.85-1-3.85-2.23"/><path class="cls-22" d="M521.42,299.07l-61.91-35.74a3,3,0,0,0-3.09-.23l0,0-73.55,42.47,68.15,63,73.55-42.47,0,0c1-.58,1.67-1.9,1.67-3.83V308.19C526.19,304.68,524.06,300.6,521.42,299.07Z"/><path class="cls-20" d="M524.52,326.08c1-.58,1.67-1.9,1.67-3.83V308.19a12.06,12.06,0,0,0-3.29-7.92L435.73,350.6l4.79,8.29L451,368.57l73.55-42.46Z"/><path class="cls-21" d="M521.42,299.07l-61.91-35.74a3,3,0,0,0-3.09-.23l0,0-73.55,42.47,68.15,63,73.55-42.47,0,0c1-.58,1.67-1.9,1.67-3.83V308.19C526.19,304.68,524.06,300.6,521.42,299.07Z"/><path class="cls-23" d="M386,332.58l61.91,35.74c2.63,1.52,4.77-.09,4.77-3.61v-14c0-3.52-2.14-7.6-4.77-9.12L386,305.8c-2.64-1.52-4.77.09-4.77,3.61v14C381.19,327,383.32,331.06,386,332.58Z"/><path class="cls-24" d="M452.64,356.67v-6c0-3.52-2.14-7.6-4.77-9.12L392,309.28"/><path class="cls-21" d="M521.42,299.07l-61.91-35.74a3,3,0,0,0-3.09-.23l0,0-73.55,42.47,0,0c-1,.58-1.67,1.91-1.67,3.83v14.06c0,3.52,2.13,7.6,4.77,9.12l61.91,35.74a3,3,0,0,0,3.09.23l0,0,73.55-42.46,0,0c1-.58,1.67-1.9,1.67-3.83V308.19C526.19,304.68,524.06,300.6,521.42,299.07Z"/><line class="cls-25" x1="463.32" y1="349.7" x2="465.01" y2="348.72"/><line class="cls-25" x1="500.19" y1="328.41" x2="514.02" y2="320.42"/><line class="cls-26" x1="414.32" y1="335.57" x2="419.5" y2="338.56"/><ellipse class="cls-27" cx="454.83" cy="303.09" rx="16.05" ry="9.27"/><line class="cls-5" x1="328.78" y1="251.47" x2="328.78" y2="251.47"/><line class="cls-7" x1="334.2" y1="254.6" x2="385.72" y2="284.32"/><line class="cls-5" x1="388.43" y1="285.88" x2="388.43" y2="285.88"/><path class="cls-4" d="M330.14,249.6a2.29,2.29,0,0,1-1.36,1.87,7.41,7.41,0,0,1-6.58,0,2,2,0,0,1,0-3.73,7.41,7.41,0,0,1,6.58,0A2.29,2.29,0,0,1,330.14,249.6Z"/><polygon class="cls-4" points="393.53 282.94 395.4 286.96 397.26 290.98 390.3 289.9 383.34 288.82 388.43 285.88 393.53 282.94"/><line class="cls-5" x1="667.02" y1="223.19" x2="652.4" y2="231.64"/><ellipse class="cls-27" cx="616.41" cy="400.46" rx="15" ry="8.66"/></g></g></svg>