<svg xmlns="http://www.w3.org/2000/svg" viewBox="0 0 126 126"><defs><style>.cls-1,.cls-10,.cls-11,.cls-5,.cls-6,.cls-9{fill:none;}.cls-2{fill:#d5dae0;}.cls-3{fill:#f2f4f6;}.cls-4{fill:#fff;}.cls-11,.cls-5{stroke:#b8bfca;}.cls-10,.cls-11,.cls-5,.cls-6,.cls-9{stroke-linecap:round;stroke-linejoin:round;stroke-width:2px;}.cls-6{stroke:#627386;}.cls-7{fill:#e9f6fe;}.cls-8{fill:#bde4fd;}.cls-9{stroke:#91d2fb;}.cls-10{stroke:#1b6dc6;}.cls-11{stroke-dasharray:0 6;}</style></defs><title>xplay_step1(1x1)</title><g id="Layer_2" data-name="Layer 2"><g id="Illustrations"><rect class="cls-1" width="126" height="126"/><path class="cls-2" d="M109.91,69.36,65.25,43.57a5,5,0,0,0-4.5,0L16.09,69.36a1.58,1.58,0,0,0-.93,1.3v7.76a1.58,1.58,0,0,0,.93,1.3L60.75,105.5a5,5,0,0,0,4.5,0l44.66-25.78a1.58,1.58,0,0,0,.93-1.3V70.66A1.57,1.57,0,0,0,109.91,69.36Z"/><path class="cls-3" d="M63,43a4.56,4.56,0,0,0-2.25.53L16.09,69.36a1.58,1.58,0,0,0-.93,1.3v7.76a1.58,1.58,0,0,0,.93,1.3L60.75,105.5A4.57,4.57,0,0,0,63,106Z"/><path class="cls-4" d="M109.91,69.36,65.25,43.57a5,5,0,0,0-4.5,0L16.09,69.36a1.37,1.37,0,0,0,0,2.6L60.75,97.74a5,5,0,0,0,4.5,0L109.91,72A1.37,1.37,0,0,0,109.91,69.36Z"/><path class="cls-4" d="M109.91,69.36,65.25,43.57a5,5,0,0,0-4.5,0L16.09,69.36a1.37,1.37,0,0,0,0,2.6L60.75,97.74a5,5,0,0,0,4.5,0L109.91,72A1.37,1.37,0,0,0,109.91,69.36Z"/><path class="cls-5" d="M109.91,69.36,65.25,43.57a5,5,0,0,0-4.5,0L16.09,69.36a1.37,1.37,0,0,0,0,2.6L60.75,97.74a5,5,0,0,0,4.5,0L109.91,72A1.37,1.37,0,0,0,109.91,69.36Z"/><path class="cls-6" d="M109.91,69.36,65.25,43.57a5,5,0,0,0-4.5,0L16.09,69.36a1.58,1.58,0,0,0-.93,1.3v7.76a1.58,1.58,0,0,0,.93,1.3L60.75,105.5a5,5,0,0,0,4.5,0l44.66-25.78a1.58,1.58,0,0,0,.93-1.3V70.66A1.57,1.57,0,0,0,109.91,69.36Z"/><path class="cls-3" d="M73,82.92,63.3,77.35a.7.7,0,0,0-.6,0l-9.65,5.57,9.65,5.57a.7.7,0,0,0,.6,0Z"/><polygon class="cls-3" points="87.69 75.43 92.01 66.12 75.89 68.62 87.69 75.43"/><polygon class="cls-3" points="38.48 64.81 34.16 74.12 50.29 71.63 38.48 64.81"/><path class="cls-5" d="M73,82.92,63.3,77.35a.7.7,0,0,0-.6,0l-9.65,5.57,9.65,5.57a.7.7,0,0,0,.6,0Z"/><polygon class="cls-5" points="87.69 75.43 92.01 66.12 75.89 68.62 87.69 75.43"/><polygon class="cls-5" points="38.48 64.81 34.16 74.12 50.29 71.63 38.48 64.81"/><ellipse class="cls-5" cx="63" cy="58.12" rx="8.5" ry="4.91"/><path class="cls-2" d="M69,59.56a6.36,6.36,0,0,1,1.35,1c1.88-1.88,1.44-4.32-1.35-5.93a13.26,13.26,0,0,0-12,0c-2.79,1.61-3.23,4.05-1.35,5.93a6.36,6.36,0,0,1,1.35-1A13.26,13.26,0,0,1,69,59.56Z"/><path class="cls-5" d="M69,59.56a6.36,6.36,0,0,1,1.35,1c1.88-1.88,1.44-4.32-1.35-5.93a13.26,13.26,0,0,0-12,0c-2.79,1.61-3.23,4.05-1.35,5.93a6.36,6.36,0,0,1,1.35-1A13.26,13.26,0,0,1,69,59.56Z"/><path class="cls-7" d="M71.81,25.06l0,5.88c0,1.29-.85,2.58-2.54,3.56a13.65,13.65,0,0,1-12.4,0c-1.73-1-2.6-2.31-2.59-3.61L54.28,25c0,1.31.86,2.62,2.58,3.62a13.69,13.69,0,0,0,12.4,0C71,27.64,71.81,26.35,71.81,25.06Z"/><path class="cls-4" d="M69.22,21.45c3.44,2,3.46,5.19,0,7.18a13.69,13.69,0,0,1-12.4,0c-3.43-2-3.45-5.2,0-7.18A13.62,13.62,0,0,1,69.22,21.45Z"/><path class="cls-8" d="M69.26,28.63A12.57,12.57,0,0,1,63,30.11V36a12.67,12.67,0,0,0,6.2-1.49c1.69-1,2.54-2.27,2.54-3.56l0-5.88C71.81,26.35,71,27.64,69.26,28.63Z"/><path class="cls-9" d="M69.22,21.45c3.44,2,3.46,5.19,0,7.18a13.69,13.69,0,0,1-12.4,0c-3.43-2-3.45-5.2,0-7.18A13.62,13.62,0,0,1,69.22,21.45Z"/><path class="cls-10" d="M71.79,25.31c.12-1.39-.73-2.8-2.57-3.86a13.62,13.62,0,0,0-12.4,0c-1.7,1-2.55,2.28-2.54,3.57h0l-.05,5.88c0,1.3.86,2.61,2.59,3.61a13.65,13.65,0,0,0,12.4,0c1.69-1,2.54-2.27,2.54-3.56l0-5.88A2,2,0,0,1,71.79,25.31Z"/><line class="cls-11" x1="54.51" y1="38.04" x2="54.51" y2="54.66"/><line class="cls-11" x1="71.51" y1="38.04" x2="71.51" y2="54.66"/></g></g></svg>