<svg xmlns="http://www.w3.org/2000/svg" viewBox="0 0 126 126"><defs><style>.cls-1,.cls-10,.cls-5,.cls-6,.cls-9{fill:none;}.cls-2{fill:#bde4fd;}.cls-3{fill:#e9f6fe;}.cls-4{fill:#fff;}.cls-5{stroke:#91d2fb;}.cls-10,.cls-5,.cls-6,.cls-9{stroke-linecap:round;stroke-linejoin:round;stroke-width:2px;}.cls-6{stroke:#1b6dc6;}.cls-7{fill:#d5dae0;}.cls-8{fill:#f2f4f6;}.cls-9{stroke:#b8bfca;}.cls-10{stroke:#627386;}</style></defs><title>xplay_step3(1x1)</title><g id="Layer_2" data-name="Layer 2"><g id="Illustrations"><rect class="cls-1" width="126" height="126"/><path class="cls-2" d="M84.64,45.85,64,34A2.23,2.23,0,0,0,62,34L41.37,45.85a.71.71,0,0,0-.43.6v6.47a.71.71,0,0,0,.43.6L62,65.41a2.23,2.23,0,0,0,2.07,0l20.6-11.89a.71.71,0,0,0,.43-.6V46.45A.71.71,0,0,0,84.64,45.85Z"/><path class="cls-3" d="M63,33.71A2.05,2.05,0,0,0,62,34L41.37,45.85a.71.71,0,0,0-.43.6v6.47a.71.71,0,0,0,.43.6L62,65.41a2.05,2.05,0,0,0,1,.25Z"/><path class="cls-4" d="M84.64,45.85,64,34A2.23,2.23,0,0,0,62,34L41.37,45.85a.63.63,0,0,0,0,1.2L62,58.94a2.29,2.29,0,0,0,2.07,0l20.6-11.89A.63.63,0,0,0,84.64,45.85Z"/><path class="cls-4" d="M84.64,45.85,64,34A2.23,2.23,0,0,0,62,34L41.37,45.85a.63.63,0,0,0,0,1.2L62,58.94a2.29,2.29,0,0,0,2.07,0l20.6-11.89A.63.63,0,0,0,84.64,45.85Z"/><path class="cls-5" d="M84.64,45.85,64,34A2.23,2.23,0,0,0,62,34L41.37,45.85a.63.63,0,0,0,0,1.2L62,58.94a2.29,2.29,0,0,0,2.07,0l20.6-11.89A.63.63,0,0,0,84.64,45.85Z"/><path class="cls-6" d="M84.64,45.85,64,34A2.23,2.23,0,0,0,62,34L41.37,45.85a.71.71,0,0,0-.43.6v6.47a.71.71,0,0,0,.43.6L62,65.41a2.23,2.23,0,0,0,2.07,0l20.6-11.89a.71.71,0,0,0,.43-.6V46.45A.71.71,0,0,0,84.64,45.85Z"/><line class="cls-5" x1="65.12" y1="43.28" x2="65.11" y2="49.61"/><line class="cls-5" x1="65.11" y1="49.61" x2="60.9" y2="49.61"/><path class="cls-7" d="M84.64,86.48,64,74.59a2.23,2.23,0,0,0-2.07,0L41.37,86.48a.71.71,0,0,0-.43.6v6.47a.71.71,0,0,0,.43.6L62,106A2.23,2.23,0,0,0,64,106l20.6-11.89a.71.71,0,0,0,.43-.6V87.08A.71.71,0,0,0,84.64,86.48Z"/><path class="cls-8" d="M63,74.34a2.05,2.05,0,0,0-1,.25L41.37,86.48a.71.71,0,0,0-.43.6v6.47a.71.71,0,0,0,.43.6L62,106a2.05,2.05,0,0,0,1,.25Z"/><path class="cls-4" d="M84.64,86.48,64,74.59a2.23,2.23,0,0,0-2.07,0L41.37,86.48a.63.63,0,0,0,0,1.2L62,99.57a2.29,2.29,0,0,0,2.07,0l20.6-11.89A.63.63,0,0,0,84.64,86.48Z"/><path class="cls-4" d="M84.64,86.48,64,74.59a2.23,2.23,0,0,0-2.07,0L41.37,86.48a.63.63,0,0,0,0,1.2L62,99.57a2.29,2.29,0,0,0,2.07,0l20.6-11.89A.63.63,0,0,0,84.64,86.48Z"/><path class="cls-9" d="M84.64,86.48,64,74.59a2.23,2.23,0,0,0-2.07,0L41.37,86.48a.63.63,0,0,0,0,1.2L62,99.57a2.29,2.29,0,0,0,2.07,0l20.6-11.89A.63.63,0,0,0,84.64,86.48Z"/><path class="cls-10" d="M84.64,86.48,64,74.59a2.23,2.23,0,0,0-2.07,0L41.37,86.48a.71.71,0,0,0-.43.6v6.47a.71.71,0,0,0,.43.6L62,106A2.23,2.23,0,0,0,64,106l20.6-11.89a.71.71,0,0,0,.43-.6V87.08A.71.71,0,0,0,84.64,86.48Z"/><line class="cls-9" x1="65.12" y1="83.91" x2="65.11" y2="90.25"/><line class="cls-9" x1="65.11" y1="90.25" x2="60.9" y2="90.25"/><path class="cls-7" d="M49.48,66.16,28.88,54.27a2.31,2.31,0,0,0-2.08,0L6.21,66.16a.71.71,0,0,0-.43.6v6.47a.71.71,0,0,0,.43.6L26.8,85.73a2.31,2.31,0,0,0,2.08,0l20.6-11.9a.71.71,0,0,0,.43-.6V66.76A.71.71,0,0,0,49.48,66.16Z"/><path class="cls-8" d="M27.84,54a2.11,2.11,0,0,0-1,.25L6.21,66.16a.71.71,0,0,0-.43.6v6.47a.71.71,0,0,0,.43.6L26.8,85.73a2.21,2.21,0,0,0,1,.24Z"/><path class="cls-4" d="M49.48,66.16,28.88,54.27a2.31,2.31,0,0,0-2.08,0L6.21,66.16a.63.63,0,0,0,0,1.2L26.8,79.25a2.31,2.31,0,0,0,2.08,0l20.6-11.89A.63.63,0,0,0,49.48,66.16Z"/><path class="cls-4" d="M49.48,66.16,28.88,54.27a2.31,2.31,0,0,0-2.08,0L6.21,66.16a.63.63,0,0,0,0,1.2L26.8,79.25a2.31,2.31,0,0,0,2.08,0l20.6-11.89A.63.63,0,0,0,49.48,66.16Z"/><path class="cls-9" d="M49.48,66.16,28.88,54.27a2.31,2.31,0,0,0-2.08,0L6.21,66.16a.63.63,0,0,0,0,1.2L26.8,79.25a2.31,2.31,0,0,0,2.08,0l20.6-11.89A.63.63,0,0,0,49.48,66.16Z"/><path class="cls-10" d="M49.48,66.16,28.88,54.27a2.31,2.31,0,0,0-2.08,0L6.21,66.16a.71.71,0,0,0-.43.6v6.47a.71.71,0,0,0,.43.6L26.8,85.73a2.31,2.31,0,0,0,2.08,0l20.6-11.9a.71.71,0,0,0,.43-.6V66.76A.71.71,0,0,0,49.48,66.16Z"/><line class="cls-9" x1="27.84" y1="63.48" x2="27.84" y2="70.04"/><line class="cls-9" x1="33.44" y1="66.81" x2="22.24" y2="66.81"/><path class="cls-7" d="M119.79,66.16,99.2,54.27a2.31,2.31,0,0,0-2.08,0L76.52,66.16a.71.71,0,0,0-.43.6v6.47a.71.71,0,0,0,.43.6l20.6,11.9a2.31,2.31,0,0,0,2.08,0l20.59-11.9a.71.71,0,0,0,.43-.6V66.76A.71.71,0,0,0,119.79,66.16Z"/><path class="cls-8" d="M98.16,54a2.08,2.08,0,0,0-1,.25L76.52,66.16a.71.71,0,0,0-.43.6v6.47a.71.71,0,0,0,.43.6l20.6,11.9a2.19,2.19,0,0,0,1,.24Z"/><path class="cls-4" d="M119.79,66.16,99.2,54.27a2.31,2.31,0,0,0-2.08,0L76.52,66.16a.63.63,0,0,0,0,1.2l20.6,11.89a2.31,2.31,0,0,0,2.08,0l20.59-11.89A.63.63,0,0,0,119.79,66.16Z"/><path class="cls-4" d="M119.79,66.16,99.2,54.27a2.31,2.31,0,0,0-2.08,0L76.52,66.16a.63.63,0,0,0,0,1.2l20.6,11.89a2.31,2.31,0,0,0,2.08,0l20.59-11.89A.63.63,0,0,0,119.79,66.16Z"/><path class="cls-9" d="M119.79,66.16,99.2,54.27a2.31,2.31,0,0,0-2.08,0L76.52,66.16a.63.63,0,0,0,0,1.2l20.6,11.89a2.31,2.31,0,0,0,2.08,0l20.59-11.89A.63.63,0,0,0,119.79,66.16Z"/><path class="cls-10" d="M119.79,66.16,99.2,54.27a2.31,2.31,0,0,0-2.08,0L76.52,66.16a.71.71,0,0,0-.43.6v6.47a.71.71,0,0,0,.43.6l20.6,11.9a2.31,2.31,0,0,0,2.08,0l20.59-11.9a.71.71,0,0,0,.43-.6V66.76A.71.71,0,0,0,119.79,66.16Z"/><line class="cls-9" x1="98.16" y1="63.48" x2="98.16" y2="70.04"/><line class="cls-9" x1="103.75" y1="66.81" x2="92.56" y2="66.81"/></g></g></svg>