<svg xmlns="http://www.w3.org/2000/svg" viewBox="0 0 126 126"><defs><style>.cls-1,.cls-12,.cls-2,.cls-3,.cls-4,.cls-5,.cls-8,.cls-9{fill:none;}.cls-13,.cls-2,.cls-3,.cls-4,.cls-5{stroke:#b8bfca;}.cls-12,.cls-13,.cls-2,.cls-3,.cls-4,.cls-5,.cls-6,.cls-8,.cls-9{stroke-linecap:round;stroke-linejoin:round;}.cls-12,.cls-13,.cls-2,.cls-3,.cls-4,.cls-5,.cls-6,.cls-9{stroke-width:2px;}.cls-3{stroke-dasharray:0 5.42;}.cls-4{stroke-dasharray:0 5.93;}.cls-5{stroke-dasharray:0 6.4;}.cls-13,.cls-6,.cls-7{fill:#fff;}.cls-6,.cls-8,.cls-9{stroke:#1b6dc6;}.cls-8{stroke-width:1.5px;}.cls-10{fill:#e9f6fe;}.cls-11{fill:#bde4fd;}.cls-12{stroke:#91d2fb;}</style></defs><title>xplay_step2(1x1)</title><g id="Layer_2" data-name="Layer 2"><g id="Illustrations"><rect class="cls-1" width="126" height="126"/><line class="cls-2" x1="90.38" y1="84.68" x2="90.38" y2="84.68"/><line class="cls-3" x1="85.69" y1="87.39" x2="69.29" y2="96.89"/><line class="cls-2" x1="66.95" y1="98.25" x2="66.95" y2="98.25"/><line class="cls-2" x1="71.31" y1="57.31" x2="71.31" y2="57.31"/><line class="cls-4" x1="76.44" y1="60.28" x2="84.13" y2="64.74"/><line class="cls-2" x1="86.69" y1="66.23" x2="86.69" y2="66.23"/><line class="cls-2" x1="16.18" y1="76.39" x2="16.18" y2="76.39"/><line class="cls-5" x1="21.72" y1="73.18" x2="46.66" y2="58.74"/><line class="cls-2" x1="49.43" y1="57.14" x2="49.43" y2="57.14"/><path class="cls-6" d="M21.7,73.25c3.06,1.77,3.08,4.64,0,6.41a12.18,12.18,0,0,1-11.06,0c-3.07-1.77-3.08-4.64,0-6.41A12.2,12.2,0,0,1,21.7,73.25Z"/><circle class="cls-7" cx="16.18" cy="54.12" r="4.01"/><line class="cls-8" x1="10.44" y1="43.95" x2="11.79" y2="46.34"/><line class="cls-8" x1="22.02" y1="44" x2="20.65" y2="46.39"/><line class="cls-8" x1="16.18" y1="42.44" x2="16.18" y2="45.19"/><circle class="cls-6" cx="16.18" cy="54.12" r="4.01"/><line class="cls-9" x1="16.18" y1="58.18" x2="16.18" y2="76.45"/><polygon class="cls-10" points="46.73 50.22 60.3 58.08 60.3 49.88 46.73 42.02 46.73 50.22"/><polygon class="cls-11" points="73.89 50.26 60.3 58.08 60.3 49.88 73.89 42.06 73.89 50.26"/><polygon class="cls-7" points="73.89 42.06 60.32 34.2 46.73 42.02 60.3 49.88 73.89 42.06"/><polyline class="cls-12" points="46.73 42.02 60.3 49.88 73.89 42.06"/><polygon class="cls-9" points="60.32 34.2 46.73 42.02 46.73 50.22 60.3 58.08 73.89 50.26 73.89 42.06 60.32 34.2"/><path class="cls-10" d="M117.64,68.92l-.07,7.67c0,1.93-1.28,3.87-3.82,5.35-5.12,3-13.45,3-18.61,0-2.59-1.49-3.89-3.46-3.88-5.42l.07-7.67c0,2,1.29,3.93,3.88,5.43,5.16,3,13.49,3,18.61,0C116.36,72.79,117.64,70.86,117.64,68.92Z"/><path class="cls-7" d="M113.75,63.49c5.16,3,5.19,7.8.07,10.78s-13.45,3-18.61,0-5.18-7.8-.06-10.78S108.6,60.51,113.75,63.49Z"/><path class="cls-11" d="M113.82,74.27a19,19,0,0,1-9.37,2.23v7.67a19,19,0,0,0,9.31-2.23c2.54-1.48,3.82-3.42,3.82-5.35l.07-7.67C117.64,70.86,116.36,72.79,113.82,74.27Z"/><path class="cls-12" d="M113.75,63.49c5.16,3,5.19,7.8.07,10.78s-13.45,3-18.61,0-5.18-7.8-.06-10.78S108.6,60.51,113.75,63.49Z"/><path class="cls-9" d="M117.61,69.29c.18-2.09-1.1-4.21-3.86-5.8-5.15-3-13.48-3-18.6,0-2.55,1.48-3.82,3.43-3.82,5.37v0l-.07,7.67c0,2,1.29,3.93,3.88,5.42,5.16,3,13.49,3,18.61,0,2.54-1.48,3.82-3.42,3.82-5.35l.07-7.67C117.64,69,117.62,69.16,117.61,69.29Z"/><polygon class="cls-13" points="57.39 98.25 53.89 105.8 66.97 103.77 57.39 98.25"/></g></g></svg>