<svg xmlns="http://www.w3.org/2000/svg" width="150" height="167.93" viewBox="0 0 150 167.93"><defs><style>.cls-1,.cls-10,.cls-2,.cls-9{fill:none;}.cls-2{stroke:#bde4fd;}.cls-10,.cls-2,.cls-3,.cls-4,.cls-5,.cls-6,.cls-7,.cls-8,.cls-9{stroke-linecap:round;stroke-linejoin:round;stroke-width:2px;}.cls-3{fill:#d5dae0;}.cls-3,.cls-4,.cls-5{stroke:#627386;}.cls-4{fill:#f2f4f6;}.cls-5,.cls-8{fill:#fff;}.cls-6{fill:#bde4fd;}.cls-10,.cls-6,.cls-7,.cls-8,.cls-9{stroke:#1b6dc6;}.cls-7{fill:#e9f6fe;}.cls-10{stroke-dasharray:0 6.01;}</style></defs><title>trigger_01</title><g id="Layer_2" data-name="Layer 2"><g id="Layer_3" data-name="Layer 3"><rect class="cls-1" width="150" height="167.93"/><polygon class="cls-2" points="53.47 149 49.48 151.31 41.47 155.93 29.76 149.17 18.04 142.41 26.05 137.78 30.04 135.48 41.76 142.24 53.47 149"/><polygon class="cls-3" points="126.86 106.64 114.86 113.57 114.86 81.57 126.86 74.64 126.86 106.64"/><polygon class="cls-4" points="90.86 99.71 114.86 113.57 114.86 81.57 90.86 67.71 90.86 99.71"/><polygon class="cls-5" points="126.86 74.64 102.86 60.78 90.86 67.71 114.86 81.57 126.86 74.64"/><polygon class="cls-3" points="102.39 120.76 90.39 127.69 90.39 95.69 102.39 88.76 102.39 120.76"/><polygon class="cls-4" points="66.39 113.83 90.39 127.69 90.39 95.69 66.39 81.83 66.39 113.83"/><polygon class="cls-5" points="102.39 88.76 78.39 74.9 66.39 81.83 90.39 95.69 102.39 88.76"/><polygon class="cls-3" points="77.93 134.88 65.93 141.81 65.93 109.81 77.93 102.88 77.93 134.88"/><polygon class="cls-4" points="41.93 127.95 65.93 141.81 65.93 109.81 41.93 95.95 41.93 127.95"/><polygon class="cls-5" points="77.93 102.88 53.93 89.03 41.93 95.95 65.93 109.81 77.93 102.88"/><polygon class="cls-6" points="53.47 113 41.47 119.93 41.47 87.93 53.47 81 53.47 113"/><polygon class="cls-7" points="17.47 106.08 41.47 119.93 41.47 87.93 17.47 74.08 17.47 106.08"/><polygon class="cls-8" points="53.47 81 29.47 67.15 17.47 74.08 41.47 87.93 53.47 81"/><line class="cls-9" x1="53.47" y1="81.01" x2="53.47" y2="81.01"/><line class="cls-10" x1="53.47" y1="75" x2="53.47" y2="59.98"/><line class="cls-9" x1="53.47" y1="56.98" x2="53.47" y2="56.98"/><line class="cls-9" x1="29.47" y1="67.15" x2="29.47" y2="67.15"/><line class="cls-10" x1="29.47" y1="61.14" x2="29.47" y2="46.13"/><line class="cls-9" x1="29.47" y1="43.12" x2="29.47" y2="43.12"/></g></g></svg>