<svg xmlns="http://www.w3.org/2000/svg" width="121.92" height="164.76" viewBox="0 0 121.92 164.76"><defs><style>.cls-1,.cls-2{fill:none;}.cls-2,.cls-3,.cls-4{stroke:#627386;stroke-linecap:round;stroke-linejoin:round;stroke-width:2px;}.cls-3,.cls-5{fill:#d5dae0;}.cls-4{fill:#f2f4f6;}</style></defs><title>ball0on_02</title><g id="Layer_2" data-name="Layer 2"><g id="Layer_1-2" data-name="Layer 1"><line class="cls-1" x1="85.77" y1="132.25" x2="49.76" y2="164.76"/><line class="cls-1" x1="95.91" y1="138.11" x2="39.61" y2="158.9"/><line class="cls-2" x1="67.76" y1="148.5" x2="63.75" y2="103.45"/><path class="cls-2" d="M91.55,84.18c-4.29,29.46-17.48,35.21-23.79,64.32"/><path class="cls-2" d="M67.76,148.5c-2-17.14-33-33.25-37.39-64.32"/><path class="cls-3" d="M62.34,68.05h0L58.52,61l-5,6.28h0a1.83,1.83,0,0,0-.43,1C53,69.74,55,71.15,57.6,71.38s4.84-.81,5-2.32A1.78,1.78,0,0,0,62.34,68.05Z"/><path class="cls-4" d="M87.44,29.33a26.06,26.06,0,0,0-51.92-4.54C33.74,45.11,47.32,58,53.94,63.17l.27.21.19.15h0a7.58,7.58,0,0,0,3.75,1.38,7.69,7.69,0,0,0,3.94-.71h0l.22-.11.3-.16C70.05,60,85.67,49.65,87.44,29.33Z"/><path class="cls-5" d="M63.75,1.1a25.93,25.93,0,0,0-16,3.8,16.14,16.14,0,0,1,3.81-.13c11.11,1,19.11,13.37,17.85,27.7a46.74,46.74,0,0,1-15,31.06h0a7.58,7.58,0,0,0,3.75,1.38,7.69,7.69,0,0,0,3.94-.71h0l.22-.11.3-.16c7.41-3.9,23-14.28,24.8-34.6A26.06,26.06,0,0,0,63.75,1.1Z"/><path class="cls-2" d="M87.44,29.33a26.06,26.06,0,0,0-51.92-4.54C33.74,45.11,47.32,58,53.94,63.17l.27.21.19.15h0a7.58,7.58,0,0,0,3.75,1.38,7.69,7.69,0,0,0,3.94-.71h0l.22-.11.3-.16C70.05,60,85.67,49.65,87.44,29.33Z"/><path class="cls-3" d="M35,86.55h0l-5-6.32-3.81,7h0a1.82,1.82,0,0,0-.25,1c.13,1.51,2.36,2.55,5,2.32s4.63-1.64,4.49-3.14A1.77,1.77,0,0,0,35,86.55Z"/><path class="cls-4" d="M53,44.06A26.06,26.06,0,1,0,1.1,48.61C2.88,68.92,18.49,79.3,25.91,83.21l.3.15.21.12h0a7.66,7.66,0,0,0,7.69-.68h0l.19-.15a2.78,2.78,0,0,0,.27-.21C41.23,77.31,54.8,64.38,53,44.06Z"/><path class="cls-5" d="M24.79,20.37A26,26,0,0,0,9.71,26.89a15.48,15.48,0,0,1,3.73-.79c11.11-1,21.14,9.85,22.39,24.18a46.75,46.75,0,0,1-9.41,33.2h0a7.66,7.66,0,0,0,7.69-.68h0l.19-.15a2.78,2.78,0,0,0,.27-.21C41.23,77.31,54.8,64.38,53,44.06A26.06,26.06,0,0,0,24.79,20.37Z"/><path class="cls-2" d="M53,44.06A26.06,26.06,0,1,0,1.1,48.61C2.88,68.92,18.49,79.3,25.91,83.21l.3.15.21.12h0a7.66,7.66,0,0,0,7.69-.68h0l.19-.15a2.78,2.78,0,0,0,.27-.21C41.23,77.31,54.8,64.38,53,44.06Z"/><path class="cls-3" d="M95.72,87.33h0l-3.83-7.1-5,6.29h0a1.77,1.77,0,0,0-.43,1c-.13,1.5,1.88,2.91,4.5,3.14s4.84-.81,5-2.32A1.73,1.73,0,0,0,95.72,87.33Z"/><path class="cls-4" d="M120.82,48.61A26.06,26.06,0,1,0,68.9,44.06C67.12,64.38,80.7,77.31,87.32,82.44l.27.21.19.15h0a7.58,7.58,0,0,0,3.75,1.38,7.69,7.69,0,0,0,3.94-.7h0l.22-.12.3-.15C103.43,79.3,119.05,68.92,120.82,48.61Z"/><path class="cls-5" d="M97.13,20.37a25.93,25.93,0,0,0-16,3.8A16.14,16.14,0,0,1,85,24c11.11,1,19.11,13.37,17.85,27.7a46.74,46.74,0,0,1-15,31.06h0a7.58,7.58,0,0,0,3.75,1.38,7.67,7.67,0,0,0,3.94-.7h0l.22-.12.3-.15c7.41-3.91,23-14.29,24.8-34.6A26.06,26.06,0,0,0,97.13,20.37Z"/><path class="cls-2" d="M120.82,48.61A26.06,26.06,0,1,0,68.9,44.06C67.12,64.38,80.7,77.31,87.32,82.44l.27.21.19.15h0a7.58,7.58,0,0,0,3.75,1.38,7.69,7.69,0,0,0,3.94-.7h0l.22-.12.3-.15C103.43,79.3,119.05,68.92,120.82,48.61Z"/><path class="cls-3" d="M68.41,105.83h0l-5-6.32-3.81,7h0a1.78,1.78,0,0,0-.25,1c.13,1.5,2.36,2.54,5,2.31s4.63-1.63,4.49-3.14A1.71,1.71,0,0,0,68.41,105.83Z"/><path class="cls-4" d="M86.4,63.33a26.06,26.06,0,1,0-51.92,4.55c1.78,20.32,17.39,30.7,24.81,34.6l.3.15.21.12h0a7.66,7.66,0,0,0,7.69-.68h0l.19-.15a2.69,2.69,0,0,0,.27-.2C74.61,96.59,88.18,83.65,86.4,63.33Z"/><path class="cls-5" d="M58.17,39.64a26,26,0,0,0-15.08,6.52,16,16,0,0,1,3.73-.79c11.11-1,21.14,9.85,22.39,24.18a46.75,46.75,0,0,1-9.41,33.2h0a7.66,7.66,0,0,0,7.69-.68h0l.19-.15a2.69,2.69,0,0,0,.27-.2c6.63-5.13,20.2-18.07,18.42-38.39A26.06,26.06,0,0,0,58.17,39.64Z"/><path class="cls-2" d="M86.4,63.33a26.06,26.06,0,1,0-51.92,4.55c1.78,20.32,17.39,30.7,24.81,34.6l.3.15.21.12h0a7.66,7.66,0,0,0,7.69-.68h0l.19-.15a2.69,2.69,0,0,0,.27-.2C74.61,96.59,88.18,83.65,86.4,63.33Z"/></g></g></svg>