<svg xmlns="http://www.w3.org/2000/svg" width="54.13" height="151.87" viewBox="0 0 54.13 151.87"><defs><style>.cls-1,.cls-5{fill:none;}.cls-1{stroke:#627386;}.cls-1,.cls-2,.cls-3,.cls-5{stroke-linecap:round;stroke-linejoin:round;stroke-width:2px;}.cls-2,.cls-4{fill:#bde4fd;}.cls-2,.cls-3,.cls-5{stroke:#1b6dc6;}.cls-3{fill:#e9f6fe;}</style></defs><title>balloon_01</title><g id="Layer_2" data-name="Layer 2"><g id="Layer_1-2" data-name="Layer 1"><path class="cls-1" d="M28.41,65s-4.24,15.16,3.44,36c.74,2,5.88,13.49,5.88,26.39,0,14.81-7.65,23.45-7.65,23.45"/><path class="cls-2" d="M32.94,67.64h0l-4.67-6.57L24.1,67.91h0a1.75,1.75,0,0,0-.3,1c.05,1.51,2.22,2.66,4.84,2.57s4.7-1.4,4.65-2.91A1.77,1.77,0,0,0,32.94,67.64Z"/><path class="cls-3" d="M53.1,26.14A26.06,26.06,0,1,0,1,28C1.74,48.37,16.8,59.54,24,63.82l.29.18.21.12h0a7.66,7.66,0,0,0,7.72-.27h0l.2-.14.28-.2C39.6,58.73,53.83,46.52,53.1,26.14Z"/><path class="cls-4" d="M27,1a25.87,25.87,0,0,0-15.4,5.73,15.38,15.38,0,0,1,3.77-.6C26.54,5.75,36,17.08,36.5,31.45A46.73,46.73,0,0,1,25.39,64.12h0a7.66,7.66,0,0,0,7.72-.27h0l.2-.14.28-.2c6.88-4.78,21.11-17,20.38-37.37A26.05,26.05,0,0,0,27,1Z"/><path class="cls-5" d="M24.1,67.91h0a1.75,1.75,0,0,0-.3,1c.05,1.51,2.22,2.66,4.84,2.57s4.7-1.4,4.65-2.91a1.77,1.77,0,0,0-.35-1h0"/><path class="cls-5" d="M53.1,26.14A26.06,26.06,0,1,0,1,28C1.74,48.37,16.8,59.54,24,63.82l.29.18.21.12h0a7.66,7.66,0,0,0,7.72-.27h0l.2-.14.28-.2C39.6,58.73,53.83,46.52,53.1,26.14Z"/></g></g></svg>