<svg xmlns="http://www.w3.org/2000/svg" width="131.75" height="109.32" viewBox="0 0 131.75 109.32"><defs><style>.cls-1{fill:#f2f4f6;}.cls-1,.cls-3,.cls-4{stroke:#627386;stroke-linecap:round;stroke-linejoin:round;stroke-width:2px;}.cls-2,.cls-3{fill:#d5dae0;}.cls-4{fill:#fff;}</style></defs><title>box_01</title><g id="Layer_2" data-name="Layer 2"><g id="Layer_1-2" data-name="Layer 1"><polygon class="cls-1" points="65.87 74 110.01 48.52 65.87 23.04 65.87 74"/><polygon class="cls-2" points="65.87 23.04 81.26 65.12 65.87 74 65.87 23.04"/><polygon class="cls-3" points="65.87 74 21.74 48.52 65.87 23.04 65.87 74"/><polygon class="cls-3" points="38.49 62.64 49.38 66.88 31.12 77.42 30.63 62.64 38.49 62.64"/><polygon class="cls-1" points="65.87 57.36 21.74 82.84 65.87 108.32 110.01 82.84 65.87 57.36"/><polygon class="cls-3" points="110.01 82.84 65.87 108.32 65.87 74 110.01 48.52 110.01 82.84"/><path class="cls-1" d="M21.74,48.52V82.84l44.13,25.48V74Z"/><polygon class="cls-4" points="110.01 48.52 130.75 50.43 86.61 75.91 65.87 74 110.01 48.52"/><polygon class="cls-4" points="65.87 23.04 45.14 1 1 26.48 21.74 48.52 65.87 23.04"/><path class="cls-3" d="M51.16,80.41C51.16,82,50.21,82.7,49,82L38.59,76a5.12,5.12,0,0,1-2.14-4.08V70.3c0-1.57,1-2.29,2.14-1.61l10.44,6a5.11,5.11,0,0,1,2.13,4.08Z"/><path class="cls-4" d="M95.3,54.92c0,1.58-1,2.3-2.14,1.62l-10.44-6a5.11,5.11,0,0,1-2.13-4.08V44.82c0-1.57,1-2.29,2.13-1.61l10.44,6a5.1,5.1,0,0,1,2.14,4.08Z"/></g></g></svg>