<svg xmlns="http://www.w3.org/2000/svg" width="112.96" height="165.47" viewBox="0 0 112.96 165.47"><defs><style>.cls-1{fill:#d5dae0;}.cls-1,.cls-2,.cls-3,.cls-4{stroke:#627386;}.cls-1,.cls-2,.cls-3,.cls-4,.cls-5,.cls-6,.cls-7,.cls-8,.cls-9{stroke-linecap:round;stroke-linejoin:round;stroke-width:2px;}.cls-2{fill:#f2f4f6;}.cls-3,.cls-8,.cls-9{fill:none;}.cls-4,.cls-5{fill:#fff;}.cls-5,.cls-6,.cls-7,.cls-8,.cls-9{stroke:#1b6dc6;}.cls-6{fill:#e9f6fe;}.cls-7{fill:#bde4fd;}.cls-9{stroke-dasharray:0 5.43;}</style></defs><title>cabinet_02</title><g id="Layer_2" data-name="Layer 2"><g id="Layer_1-2" data-name="Layer 1"><polygon class="cls-1" points="63.82 65.36 63.82 65.36 29.72 85.05 29.72 164.47 57 148.71 57 148.71 91.11 129.02 91.11 49.6 63.82 65.36"/><polygon class="cls-2" points="84.29 125.08 63.82 136.9 63.82 109.61 84.29 97.8 84.29 125.08"/><line class="cls-3" x1="70.64" y1="119.32" x2="77.48" y2="115.37"/><line class="cls-3" x1="70.64" y1="119.32" x2="77.48" y2="115.37"/><polygon class="cls-4" points="91.11 49.6 62.39 33.02 28.29 52.71 28.29 52.71 1 68.47 29.72 85.05 57 69.29 57 69.29 91.11 49.6"/><polygon class="cls-1" points="84.29 88.7 63.82 100.52 63.82 73.23 84.29 61.42 84.29 88.7"/><polygon class="cls-2" points="29.72 164.47 1 147.89 1 68.47 29.72 85.05 29.72 164.47"/><polygon class="cls-5" points="67.88 74.37 100.51 89.21 102.69 105.56 93.88 106.51 77.69 100.98 63.82 92.87 63.82 75.29 67.88 74.37"/><polygon class="cls-6" points="63.82 86.39 86.27 99.35 86.27 113.47 63.82 100.52 63.82 86.39"/><polygon class="cls-6" points="72.89 68 106.73 87.54 106.73 101.66 63.82 76.89 63.82 73.23 72.89 68"/><polygon class="cls-7" points="111.96 104.68 91.5 116.49 91.5 89.21 111.96 77.39 111.96 104.68"/><polygon class="cls-5" points="111.96 77.39 106.73 74.37 86.27 86.19 91.5 89.21 111.96 77.39"/><polygon class="cls-6" points="91.5 116.49 86.27 113.47 86.27 86.19 91.5 89.21 91.5 116.49"/><line class="cls-7" x1="98.31" y1="98.92" x2="105.15" y2="94.97"/><line class="cls-1" x1="84.29" y1="61.42" x2="63.82" y2="73.23"/><line class="cls-1" x1="63.82" y1="73.23" x2="63.82" y2="100.52"/><polygon class="cls-2" points="57 104.46 36.54 116.27 36.54 88.99 57 77.17 57 104.46"/><line class="cls-3" x1="43.35" y1="98.7" x2="50.19" y2="94.75"/><polygon class="cls-2" points="57 140.84 36.54 152.65 36.54 125.37 57 113.55 57 140.84"/><line class="cls-8" x1="67.04" y1="1" x2="67.04" y2="1"/><line class="cls-9" x1="67.04" y1="6.43" x2="67.04" y2="25.44"/><line class="cls-8" x1="67.04" y1="28.16" x2="67.04" y2="28.16"/><polygon class="cls-5" points="82.33 19.32 67.04 28.16 67.04 48.55 82.33 39.72 97.63 48.55 97.63 28.16 82.33 19.32"/><polygon class="cls-7" points="97.63 48.55 82.33 57.38 82.33 36.99 97.63 28.16 97.63 48.55"/><polygon class="cls-6" points="67.04 48.55 82.33 57.38 82.33 36.99 67.04 28.16 67.04 48.55"/><line class="cls-8" x1="97.63" y1="1" x2="97.63" y2="1"/><line class="cls-9" x1="97.63" y1="6.43" x2="97.63" y2="25.44"/><line class="cls-8" x1="97.63" y1="28.16" x2="97.63" y2="28.16"/><line class="cls-3" x1="43.35" y1="135.08" x2="50.19" y2="131.13"/></g></g></svg>