<svg xmlns="http://www.w3.org/2000/svg" width="108.68" height="192.99" viewBox="0 0 108.68 192.99"><defs><style>.cls-1,.cls-2,.cls-5{fill:none;}.cls-1,.cls-2,.cls-7,.cls-8,.cls-9{stroke:#1b6dc6;}.cls-1,.cls-2,.cls-3,.cls-4,.cls-5,.cls-6,.cls-7,.cls-8,.cls-9{stroke-linecap:round;stroke-linejoin:round;stroke-width:2px;}.cls-2{stroke-dasharray:0 6.39;}.cls-3{fill:#d5dae0;}.cls-3,.cls-4,.cls-5,.cls-6{stroke:#627386;}.cls-4{fill:#f2f4f6;}.cls-6,.cls-7{fill:#fff;}.cls-8{fill:#e9f6fe;}.cls-9{fill:#bde4fd;}</style></defs><title>cabinet_01</title><g id="Layer_2" data-name="Layer 2"><g id="Layer_1-2" data-name="Layer 1"><line class="cls-1" x1="65.76" y1="1" x2="65.76" y2="1"/><line class="cls-2" x1="65.76" y1="7.39" x2="65.76" y2="29.76"/><line class="cls-1" x1="65.76" y1="32.96" x2="65.76" y2="32.96"/><polygon class="cls-3" points="61 72.81 61 72.81 31 90.14 31 191.99 55 178.14 55 178.14 85 160.81 85 58.96 61 72.81"/><polygon class="cls-4" points="79 125.35 61 135.74 61 111.74 79 101.35 79 125.35"/><line class="cls-5" x1="66.99" y1="120.28" x2="73.01" y2="116.81"/><polygon class="cls-4" points="79 157.35 61 167.74 61 143.74 79 133.35 79 157.35"/><line class="cls-5" x1="66.99" y1="152.28" x2="73.01" y2="148.81"/><polygon class="cls-4" points="79 93.35 61 103.74 61 79.74 79 69.35 79 93.35"/><polygon class="cls-6" points="85 58.96 55 41.64 25 58.96 25 58.96 1 72.81 31 90.14 55 76.28 55 76.28 85 58.96"/><polygon class="cls-4" points="31 191.99 1 174.67 1 72.81 31 90.14 31 191.99"/><polygon class="cls-7" points="64.56 80.75 97.6 96.3 99.52 110.68 91.77 111.52 77.54 106.66 61 97.02 61 81.56 64.56 80.75"/><polygon class="cls-8" points="61 91.32 85.08 105.22 85.08 117.64 61 103.74 61 91.32"/><polygon class="cls-8" points="68.97 75.14 103.08 94.83 103.08 107.25 61 82.96 61 79.74 68.97 75.14"/><polygon class="cls-9" points="107.68 109.91 89.68 120.3 89.68 96.3 107.68 85.91 107.68 109.91"/><polygon class="cls-7" points="107.68 85.91 103.08 83.25 85.08 93.64 89.68 96.3 107.68 85.91"/><polygon class="cls-8" points="89.68 120.3 85.08 117.64 85.08 93.64 89.68 96.3 89.68 120.3"/><line class="cls-9" x1="95.67" y1="104.84" x2="101.69" y2="101.37"/><line class="cls-6" x1="61" y1="79.74" x2="61" y2="103.74"/><polygon class="cls-7" points="83.76 22.57 65.76 32.96 65.76 56.96 83.76 46.57 101.76 56.96 101.76 32.96 83.76 22.57"/><polygon class="cls-9" points="101.76 56.96 83.76 67.35 83.76 43.35 101.76 32.96 101.76 56.96"/><polygon class="cls-8" points="65.76 56.96 83.76 67.35 83.76 43.35 65.76 32.96 65.76 56.96"/><line class="cls-1" x1="101.76" y1="1" x2="101.76" y2="1"/><line class="cls-2" x1="101.76" y1="7.39" x2="101.76" y2="29.76"/><line class="cls-1" x1="101.76" y1="32.96" x2="101.76" y2="32.96"/><polygon class="cls-4" points="55 107.21 37 117.6 37 93.6 55 83.21 55 107.21"/><line class="cls-5" x1="42.99" y1="102.14" x2="49.01" y2="98.67"/><polygon class="cls-4" points="55 139.21 37 149.6 37 125.6 55 115.21 55 139.21"/><line class="cls-5" x1="42.99" y1="134.14" x2="49.01" y2="130.67"/><polygon class="cls-4" points="55 171.21 37 181.6 37 157.6 55 147.21 55 171.21"/><line class="cls-5" x1="42.99" y1="166.14" x2="49.01" y2="162.67"/><line class="cls-4" x1="79" y1="69.35" x2="61" y2="79.74"/></g></g></svg>