<svg xmlns="http://www.w3.org/2000/svg" xmlns:xlink="http://www.w3.org/1999/xlink" width="142.88" height="119.33" viewBox="0 0 142.88 119.33"><defs><style>.cls-1,.cls-2,.cls-23,.cls-3,.cls-6{fill:none;}.cls-1{clip-rule:evenodd;}.cls-3{fill-rule:evenodd;}.cls-4{clip-path:url(#clip-path);}.cls-5{fill:#b8bfca;}.cls-23,.cls-6{stroke:#627386;}.cls-23,.cls-30,.cls-6{stroke-linecap:round;stroke-linejoin:round;}.cls-30,.cls-6{stroke-width:2px;}.cls-7{clip-path:url(#clip-path-2);}.cls-8{fill:#d5dae0;}.cls-9{clip-path:url(#clip-path-3);}.cls-10{fill:#fff;}.cls-11{clip-path:url(#clip-path-4);}.cls-12{clip-path:url(#clip-path-5);}.cls-13{fill:#f2f4f6;}.cls-14{clip-path:url(#clip-path-6);}.cls-15{clip-path:url(#clip-path-7);}.cls-16{clip-path:url(#clip-path-8);}.cls-17{clip-path:url(#clip-path-9);}.cls-18{clip-path:url(#clip-path-10);}.cls-19{clip-path:url(#clip-path-11);}.cls-20{clip-path:url(#clip-path-12);}.cls-21{clip-path:url(#clip-path-13);}.cls-22{clip-path:url(#clip-path-14);}.cls-23{stroke-width:4px;}.cls-24{clip-path:url(#clip-path-15);}.cls-25{isolation:isolate;}.cls-26{clip-path:url(#clip-path-16);}.cls-27{clip-path:url(#clip-path-17);}.cls-28{clip-path:url(#clip-path-20);}.cls-29{clip-path:url(#clip-path-22);}.cls-30{fill:#e9f6fe;stroke:#1b6dc6;}.cls-31{clip-path:url(#clip-path-23);}.cls-32{clip-path:url(#clip-path-24);}</style><clipPath id="clip-path"><path class="cls-1" d="M26.19,67l-6.65,3.84,9.66,35.06L35.84,102a2.58,2.58,0,0,0,1-2.37V73.15Z"/></clipPath><clipPath id="clip-path-2"><path class="cls-1" d="M27.27,105.73,22.5,103a7.13,7.13,0,0,1-3-5.68V70.82L30.22,77v26.5C30.22,105.67,28.9,106.67,27.27,105.73Z"/></clipPath><clipPath id="clip-path-3"><polygon class="cls-1" points="41 5 5 25.79 71 63.57 107 42.79 71 22 41 5"/></clipPath><clipPath id="clip-path-4"><polygon class="cls-1" points="71 97.57 71 86.18 71 63.57 107 42.79 107 76.78 80.74 91.94 71 97.57"/></clipPath><clipPath id="clip-path-5"><polygon class="cls-1" points="71 97.57 71 96.92 71 63.57 5 25.79 5 71.78 57.69 101.24 71 97.57"/></clipPath><clipPath id="clip-path-6"><polygon class="cls-1" points="71 97.57 71 96.92 71 97.57 5 59.79 5 71.78 57.69 101.24 71 97.57"/></clipPath><clipPath id="clip-path-7"><ellipse class="cls-2" cx="89.8" cy="70.31" rx="11.19" ry="6.35" transform="translate(-10.23 125.09) rotate(-66.77)"/></clipPath><clipPath id="clip-path-8"><ellipse class="cls-2" cx="89.8" cy="70.31" rx="13.95" ry="7.92" transform="translate(-10.23 125.09) rotate(-66.77)"/></clipPath><clipPath id="clip-path-9"><ellipse class="cls-2" cx="107.72" cy="80.61" rx="20.14" ry="11.43" transform="translate(-8.85 147.8) rotate(-66.77)"/></clipPath><clipPath id="clip-path-10"><path class="cls-1" d="M94.91,57.32a6.63,6.63,0,0,0-4.72.94C85.12,61.16,81,68.84,81,75.47a9.15,9.15,0,0,0,2.07,6.41L97.94,97.22,115,61.78Z"/></clipPath><clipPath id="clip-path-11"><path class="cls-1" d="M122.4,62.21l1.15-1.82-5.27-3c-2.9-1.68-6.66-1.53-10.79.86C98.38,63.48,91,77.62,91,89.79c0,6.66,2.21,11.34,5.7,13.37l5.27,3.06.72-2.08a14.62,14.62,0,0,0,4.81-1.86C116.61,97,124,82.87,124,70.7A20.78,20.78,0,0,0,122.4,62.21Z"/></clipPath><clipPath id="clip-path-12"><ellipse class="cls-2" cx="113.04" cy="83.67" rx="25.48" ry="14.46" transform="translate(-8.43 154.54) rotate(-66.77)"/></clipPath><clipPath id="clip-path-13"><ellipse class="cls-2" cx="113.04" cy="83.67" rx="19.3" ry="10.95" transform="translate(-8.43 154.54) rotate(-66.77)"/></clipPath><clipPath id="clip-path-14"><path class="cls-1" d="M117.42,85.65c2.77-6.47,2-13-1.71-14.56s-9,2.39-11.73,8.86-2,13,1.72,14.57S114.66,92.12,117.42,85.65ZM72.77,102.24,98.4,42l50.24,21.37L123,123.62Z"/></clipPath><clipPath id="clip-path-15"><path class="cls-1" d="M117.42,85.65c2.77-6.47,2-13-1.71-14.56s-9,2.39-11.73,8.86-2,13,1.72,14.57S114.66,92.12,117.42,85.65Z"/></clipPath><clipPath id="clip-path-16"><rect class="cls-2" x="92" y="61.22" width="37" height="43"/></clipPath><clipPath id="clip-path-17"><rect class="cls-2" x="101" y="69.22" width="20" height="27"/></clipPath><clipPath id="clip-path-20"><polygon class="cls-2" points="113.26 67.1 102.11 92.87 107.68 95.57 117.47 69.74 113.26 67.1"/></clipPath><clipPath id="clip-path-22"><ellipse class="cls-2" cx="16.21" cy="50.49" rx="2.61" ry="4.62" transform="translate(-18.48 10.38) rotate(-23.05)"/></clipPath><clipPath id="clip-path-23"><ellipse class="cls-2" cx="26.21" cy="56.49" rx="2.61" ry="4.62" transform="translate(-20.03 14.77) rotate(-23.05)"/></clipPath><clipPath id="clip-path-24"><ellipse class="cls-2" cx="59.21" cy="75.49" rx="2.61" ry="4.62" transform="translate(-24.83 29.21) rotate(-23.05)"/></clipPath></defs><title>camera_01</title><g id="Layer_2" data-name="Layer 2"><g id="Layer_2-2" data-name="Layer 2"><g class="cls-4"><rect class="cls-5" x="14.54" y="61.98" width="27.32" height="48.9"/></g><path class="cls-6" d="M26.19,67l-6.65,3.84,9.66,35.06L35.84,102a2.58,2.58,0,0,0,1-2.37V73.15Z"/><g class="cls-7"><rect class="cls-8" x="14.54" y="65.82" width="20.68" height="45.26"/></g><path class="cls-6" d="M27.27,105.73,22.5,103a7.13,7.13,0,0,1-3-5.68V70.82L30.22,77v26.5C30.22,105.67,28.9,106.67,27.27,105.73Z"/><g class="cls-9"><rect class="cls-10" width="112" height="68.57"/></g><polygon class="cls-6" points="41 5 5 25.79 71 63.57 107 42.79 71 22 41 5"/><g class="cls-11"><rect class="cls-8" x="66" y="37.79" width="46" height="64.78"/></g><polygon class="cls-6" points="71 97.57 71 86.18 71 63.57 107 42.79 107 76.78 80.74 91.94 71 97.57"/><g class="cls-12"><rect class="cls-13" y="20.79" width="76" height="85.45"/></g><polygon class="cls-6" points="71 97.57 71 96.92 71 63.57 5 25.79 5 71.78 57.69 101.24 71 97.57"/><g class="cls-14"><rect class="cls-8" y="54.79" width="76" height="51.45"/></g><polygon class="cls-6" points="71 97.57 71 96.92 71 97.57 5 59.79 5 71.78 57.69 101.24 71 97.57"/><g class="cls-15"><rect class="cls-8" x="73.61" y="58.95" width="32.38" height="22.71" transform="translate(-10.05 125.41) rotate(-66.95)"/></g><ellipse class="cls-6" cx="89.8" cy="70.31" rx="11.19" ry="6.35" transform="translate(-10.23 125.09) rotate(-66.77)"/><g class="cls-16"><rect class="cls-8" x="70.85" y="57.39" width="37.9" height="25.84" transform="translate(-10.05 125.41) rotate(-66.95)"/></g><ellipse class="cls-6" cx="89.8" cy="70.31" rx="13.95" ry="7.92" transform="translate(-10.23 125.09) rotate(-66.77)"/><g class="cls-17"><rect class="cls-8" x="82.58" y="64.18" width="50.28" height="32.86" transform="translate(-8.63 148.17) rotate(-66.95)"/></g><ellipse class="cls-6" cx="107.72" cy="80.61" rx="20.14" ry="11.43" transform="translate(-8.85 147.8) rotate(-66.77)"/><g class="cls-18"><rect class="cls-13" x="76" y="52.22" width="44" height="50"/></g><path class="cls-6" d="M94.91,57.32a6.63,6.63,0,0,0-4.72.94C85.12,61.16,81,68.84,81,75.47a9.15,9.15,0,0,0,2.07,6.41L97.94,97.22,115,61.78Z"/><g class="cls-19"><rect class="cls-13" x="86" y="51.22" width="43" height="60"/></g><path class="cls-6" d="M122.4,62.21l1.15-1.82-5.27-3c-2.9-1.68-6.66-1.53-10.79.86C98.38,63.48,91,77.62,91,89.79c0,6.66,2.21,11.34,5.7,13.37l5.27,3.06.72-2.08a14.62,14.62,0,0,0,4.81-1.86C116.61,97,124,82.87,124,70.7A20.78,20.78,0,0,0,122.4,62.21Z"/><g class="cls-20"><rect class="cls-8" x="82.57" y="64.21" width="60.95" height="38.91" transform="translate(-8.21 154.93) rotate(-66.95)"/></g><ellipse class="cls-6" cx="113.04" cy="83.67" rx="25.48" ry="14.46" transform="translate(-8.43 154.54) rotate(-66.77)"/><g class="cls-21"><rect class="cls-5" x="88.74" y="67.72" width="48.6" height="31.91" transform="translate(-8.21 154.93) rotate(-66.95)"/></g><ellipse class="cls-6" cx="113.04" cy="83.67" rx="19.3" ry="10.95" transform="translate(-8.43 154.54) rotate(-66.77)"/><g class="cls-22"><ellipse class="cls-23" cx="110.7" cy="82.8" rx="12.74" ry="7.3" transform="translate(-9.06 151.86) rotate(-66.76)"/></g><g class="cls-24"><g class="cls-25"><g class="cls-26"><g class="cls-27"><rect class="cls-13" x="92.96" y="70.5" width="35.48" height="24.59" transform="translate(-8.83 152.25) rotate(-66.95)"/></g><g class="cls-22"><g class="cls-27"><ellipse class="cls-23" cx="110.7" cy="82.8" rx="12.74" ry="7.3" transform="translate(-9.06 151.86) rotate(-66.76)"/></g></g><g class="cls-28"><g class="cls-27"><rect class="cls-10" x="97.11" y="62.1" width="25.37" height="38.47"/></g></g></g></g></g><g class="cls-29"><rect class="cls-8" x="8.6" y="40.87" width="15.22" height="19.24" transform="translate(-18.48 10.38) rotate(-23.05)"/></g><ellipse class="cls-30" cx="16.21" cy="50.49" rx="2.61" ry="4.62" transform="translate(-18.48 10.38) rotate(-23.05)"/><g class="cls-31"><rect class="cls-8" x="18.6" y="46.87" width="15.22" height="19.24" transform="translate(-20.03 14.77) rotate(-23.05)"/></g><ellipse class="cls-6" cx="26.21" cy="56.49" rx="2.61" ry="4.62" transform="matrix(0.92, -0.39, 0.39, 0.92, -20.03, 14.77)"/><g class="cls-32"><rect class="cls-8" x="51.6" y="65.87" width="15.22" height="19.24" transform="translate(-24.83 29.21) rotate(-23.05)"/></g><ellipse class="cls-6" cx="59.21" cy="75.49" rx="2.61" ry="4.62" transform="translate(-24.83 29.21) rotate(-23.05)"/></g></g></svg>