<svg xmlns="http://www.w3.org/2000/svg" width="10.07" height="31.46" viewBox="0 0 10.07 31.46"><defs><style>.cls-1{fill:#d3edfd;}.cls-1,.cls-3,.cls-5{stroke:#1b6dc6;stroke-linecap:round;stroke-linejoin:round;stroke-width:2px;}.cls-2{fill:#bde4fd;}.cls-3,.cls-4{fill:none;}.cls-5{fill:#e9f6fe;}</style></defs><title>candle_01</title><g id="Layer_2" data-name="Layer 2"><g id="Layer_1-2" data-name="Layer 1"><path class="cls-1" d="M9.07,5.07H1V28.14H1a1.61,1.61,0,0,0,.52,1.16c1.12,1.11,3.58,1.49,5.52.85,1.29-.43,2-1.21,2-2h0Z"/><path class="cls-2" d="M5,30.45a6.55,6.55,0,0,0,2-.3c1.29-.43,2-1.21,2-2h0V5.07H5Z"/><path class="cls-3" d="M9.07,5.07H1V28.14H1a1.61,1.61,0,0,0,.52,1.16c1.12,1.11,3.58,1.49,5.52.85,1.29-.43,2-1.21,2-2h0Z"/><ellipse class="cls-4" cx="5.04" cy="28.13" rx="4.04" ry="2.33"/><ellipse class="cls-5" cx="5.04" cy="5.07" rx="4.04" ry="2.33"/><line class="cls-3" x1="5.04" y1="3.91" x2="5.04" y2="1"/></g></g></svg>