<svg xmlns="http://www.w3.org/2000/svg" width="95.56" height="134.76" viewBox="0 0 95.56 134.76"><defs><style>.cls-1{fill:#f2f4f6;}.cls-1,.cls-3,.cls-5,.cls-6,.cls-7{stroke:#627386;stroke-linecap:round;stroke-linejoin:round;stroke-width:2px;}.cls-2,.cls-6{fill:#d5dae0;}.cls-3{fill:none;}.cls-4,.cls-7{fill:#fff;}.cls-5{fill:#b8bfca;}</style></defs><title>monitor_01</title><g id="Layer_2" data-name="Layer 2"><g id="Layer_1-2" data-name="Layer 1"><path class="cls-1" d="M72,115.63,43.36,132.18a6.48,6.48,0,0,1-5.88,0L6.78,114.46c-1.63-.94-1.63-2.46,0-3.4L35.45,94.51a6.5,6.5,0,0,1,5.89,0L72,112.23C73.66,113.17,73.66,114.69,72,115.63Z"/><path class="cls-2" d="M63,107,41.34,94.51a6.5,6.5,0,0,0-5.89,0L6.78,111.06c-1.63.94-1.63,2.46,0,3.4L28.43,127Z"/><path class="cls-3" d="M72,115.63,43.36,132.18a6.48,6.48,0,0,1-5.88,0L6.78,114.46c-1.63-.94-1.63-2.46,0-3.4L35.45,94.51a6.5,6.5,0,0,1,5.89,0L72,112.23C73.66,113.17,73.66,114.69,72,115.63Z"/><path class="cls-1" d="M93.91,4.29,88.42,1.13h0a1.2,1.2,0,0,0-1.23.09L2.88,49.9A4.5,4.5,0,0,0,1,53.49V129a1.66,1.66,0,0,0,.65,1.52h0l5.49,3.17,7.39-12.5L85,80.44a4.5,4.5,0,0,0,1.88-3.59V13.57Z"/><path class="cls-4" d="M88.42,1.13h0a1.2,1.2,0,0,0-1.23.09L2.88,49.9a4,4,0,0,0-1.49,1.86L68,90.24l17-9.8a4.5,4.5,0,0,0,1.88-3.59V13.57l7-9.28Z"/><path class="cls-3" d="M93.91,4.29,88.42,1.13h0a1.2,1.2,0,0,0-1.23.09L2.88,49.9A4.5,4.5,0,0,0,1,53.49V129a1.66,1.66,0,0,0,.65,1.52h0l5.49,3.17,7.39-12.5L85,80.44a4.5,4.5,0,0,0,1.88-3.59V13.57Z"/><path class="cls-1" d="M92.68,84.86,8.37,133.54c-1,.6-1.88,0-1.88-1.42V56.66a4.5,4.5,0,0,1,1.88-3.59L92.68,4.39c1-.59,1.88,0,1.88,1.42V81.27A4.5,4.5,0,0,1,92.68,84.86Z"/><path class="cls-5" d="M92.68,4.39,8.37,53.07a4.5,4.5,0,0,0-1.88,3.59v67.18L94.56,73V5.81C94.56,4.43,93.72,3.8,92.68,4.39Z"/><ellipse class="cls-6" cx="50.34" cy="103.83" rx="2.3" ry="1.3" transform="translate(-64.91 109.5) rotate(-66.95)"/><polygon class="cls-7" points="91.45 71.03 9.59 118.3 9.59 56.5 91.45 9.24 91.45 71.03"/></g></g></svg>