<svg xmlns="http://www.w3.org/2000/svg" xmlns:xlink="http://www.w3.org/1999/xlink" width="152" height="113.49" viewBox="0 0 152 113.49"><defs><style>.cls-1,.cls-5,.cls-6{fill:none;}.cls-2{fill:#e9f6fe;}.cls-2,.cls-6{stroke:#1b6dc6;}.cls-2,.cls-5,.cls-6{stroke-linecap:round;stroke-linejoin:round;stroke-width:2px;}.cls-3{fill:#d3edfd;}.cls-4{clip-path:url(#clip-path);}.cls-5{stroke:#91d2fb;}</style><clipPath id="clip-path"><path class="cls-1" d="M16.46,64.47c-3.92-2.26-8.4-9.94-8.4-16.76a6.32,6.32,0,0,1,.35-2.34L60.05,15.63c1.73,9.66,7.61,19.08,15,23.35l60.67,35L84.35,103.67Z"/></clipPath></defs><title>paper_02</title><g id="Layer_2" data-name="Layer 2"><g id="Layer_2-2" data-name="Layer 2"><path class="cls-2" d="M78.59,32.86C72,29,66.59,18.77,66.59,9.93c0-4.06,1.34-6.94,3.46-8.21l.07,0L4.53,39.46l-.07,0C2.34,40.76,1,43.64,1,47.71c0,8.83,5.37,19.1,12,22.92l.08.05,72.41,41.81L151,74.67Z"/><path class="cls-3" d="M66.59,9.93c0-4.06,1.34-6.94,3.46-8.21l.07,0L4.53,39.46l-.07,0C2.34,40.76,1,43.64,1,47.71a26.13,26.13,0,0,0,.93,6.7L67.5,16.56A26.45,26.45,0,0,1,66.59,9.93Z"/><g class="cls-4"><line class="cls-5" x1="125.7" y1="64.96" x2="68.38" y2="98.06"/><line class="cls-5" x1="113.65" y1="57.09" x2="54.37" y2="91.31"/><line class="cls-5" x1="42.13" y1="83.54" x2="101.75" y2="49.12"/><line class="cls-5" x1="29.5" y1="76" x2="88.42" y2="41.99"/><line class="cls-5" x1="17.17" y1="68.29" x2="76" y2="34.33"/><line class="cls-5" x1="7.27" y1="59.17" x2="66.81" y2="24.8"/><line class="cls-5" x1="77.45" y1="3.82" x2="4.46" y2="45.96"/></g><path class="cls-5" d="M20.71,38.05A15.79,15.79,0,0,0,18,37.43a10,10,0,0,0-2.79,0,7.06,7.06,0,0,0-2.63.92,6.87,6.87,0,0,0-2.05,1.89,10.16,10.16,0,0,0-1.33,2.46,17.73,17.73,0,0,0-.77,2.69,4,4,0,0,0-.13.38,3.14,3.14,0,0,0-.08.38,2.28,2.28,0,0,0-.06.39c0,.13,0,.26-.05.4s0,.25,0,.39,0,.26,0,.4a17.54,17.54,0,0,0,.31,3.21,22.47,22.47,0,0,0,.81,3.13,25.35,25.35,0,0,0,1.23,3A24.43,24.43,0,0,0,12,59.85a20.06,20.06,0,0,0,2,2.56,11,11,0,0,0,2.48,2.06L27.77,71l11.32,6.53L50.4,84.07,61.72,90.6,73,97.14l11.32,6.53,8.56-4.94,8.57-5L110,88.84l8.56-5L127.16,79,135.73,74l-10.11-5.84L115.5,62.33l-10.11-5.84L95.28,50.65,85.17,44.82,75.06,39a23.5,23.5,0,0,1-3.85-2.79,30.64,30.64,0,0,1-3.29-3.43,35.14,35.14,0,0,1-2.77-3.87,41.05,41.05,0,0,1-2.24-4.2,39.11,39.11,0,0,1-1.71-4.44,35.44,35.44,0,0,1-1.15-4.62l-6.56,3.74-6.55,3.74-6.56,3.73-6.56,3.74-6.55,3.73Z"/><path class="cls-5" d="M59.25,15.8c-5.13-1.6-10.58-1.1-12.31,7.33a6.28,6.28,0,0,0-.34,2.33c0,6.82,4.47,14.5,8.39,16.77l67.89,39.19"/><path class="cls-5" d="M46.4,23.22c-5.13-1.61-10.57-1.1-12.3,7.32a6.32,6.32,0,0,0-.35,2.34c0,6.82,4.47,14.5,8.4,16.76L110,88.84"/><path class="cls-5" d="M33.56,30.63C28.43,29,23,29.53,21.25,38a6.56,6.56,0,0,0-.34,2.33c0,6.82,4.47,14.5,8.39,16.77L97.19,96.25"/><path class="cls-6" d="M78.59,32.86C72,29,66.59,18.77,66.59,9.93c0-4.06,1.34-6.94,3.46-8.21l.07,0L4.53,39.46l-.07,0C2.34,40.76,1,43.64,1,47.71c0,8.83,5.37,19.1,12,22.92l.08.05,72.41,41.81L151,74.67Z"/><path class="cls-2" d="M82.3,8.05a16.35,16.35,0,0,0-5.51-5.83C74.21.73,71.85.65,70.05,1.72l.07,0L4.53,39.46l-.07,0c1.8-1.08,4.16-1,6.74.5a16.4,16.4,0,0,1,5.51,5.82Z"/><polyline class="cls-5" points="135.73 74.01 122.88 81.42 110.04 88.84"/><polyline class="cls-5" points="110.04 88.84 97.19 96.25 84.35 103.67"/><polygon class="cls-6" points="45.94 66.52 71.5 51.76 97.06 66.67 71.51 81.42 45.94 66.52"/><line class="cls-6" x1="58.65" y1="44.34" x2="32.96" y2="59.17"/></g></g></svg>