<svg xmlns="http://www.w3.org/2000/svg" width="83.31" height="64.19" viewBox="0 0 83.31 64.19"><defs><style>.cls-1{fill:#d3edfd;}.cls-1,.cls-3,.cls-4{stroke:#1b6dc6;stroke-linecap:round;stroke-linejoin:round;stroke-width:2px;}.cls-2{fill:#91d2fb;}.cls-3{fill:none;}.cls-4{fill:#e9f6fe;}</style></defs><title>puzzle_01</title><g id="Layer_2" data-name="Layer 2"><g id="Layer_1-2" data-name="Layer 1"><path class="cls-1" d="M66.48,16.86l-22.59-13a5,5,0,0,0-4.47,0l-22.58,13L1,23.72H1v16L13.55,47a3.3,3.3,0,0,0,1.71.4,2.53,2.53,0,0,0,2.28-1,6.26,6.26,0,0,1,2.67-2.67c.28-.16.57-.31.86-.45l.22-.08a7.76,7.76,0,0,1,.72-.3l.21-.07c.25-.08.51-.17.78-.24l.16,0c.29-.07.58-.15.87-.21l.11,0c.32-.06.64-.12,1-.16h.05l1.05-.11h0a18,18,0,0,1,2.2,0v3.9h0V55a1.2,1.2,0,0,0,.71,1l12.54,7.24h0L54.19,56a3.45,3.45,0,0,1,1.7-.41,2.49,2.49,0,0,1,2.28,1,7,7,0,0,0,3.73,3.25,16.8,16.8,0,0,0,12.72-.06c2.62-1.21,3.91-2.95,3.91-4.69h0V41.89l3.76-2.17v-16h0Z"/><path class="cls-2" d="M55.55,55.57V24.09H41.66v39.1L54.19,56A3.2,3.2,0,0,1,55.55,55.57Z"/><path class="cls-2" d="M15.55,23.72V47.34a2.39,2.39,0,0,0,2-1,6.26,6.26,0,0,1,2.67-2.67A16.41,16.41,0,0,1,32.08,42.5l7.34-3.57V10.68l-22.58,13Z"/><path class="cls-2" d="M78.55,39H75V59.54c2.37-1.2,3.55-2.85,3.55-4.5h0Z"/><polygon class="cls-2" points="74.98 43.95 82.31 39.72 82.31 23.72 74.98 23.72 74.98 43.95"/><path class="cls-3" d="M66.48,16.86l-22.59-13a5,5,0,0,0-4.47,0l-22.58,13L1,23.72H1v16L13.55,47a3.3,3.3,0,0,0,1.71.4,2.53,2.53,0,0,0,2.28-1,6.26,6.26,0,0,1,2.67-2.67c.28-.16.57-.31.86-.45l.22-.08a7.76,7.76,0,0,1,.72-.3l.21-.07c.25-.08.51-.17.78-.24l.16,0c.29-.07.58-.15.87-.21l.11,0c.32-.06.64-.12,1-.16h.05l1.05-.11h0a18,18,0,0,1,2.2,0v3.9h0V55a1.2,1.2,0,0,0,.71,1l12.54,7.24h0L54.19,56a3.45,3.45,0,0,1,1.7-.41,2.49,2.49,0,0,1,2.28,1,7,7,0,0,0,3.73,3.25,16.8,16.8,0,0,0,12.72-.06c2.62-1.21,3.91-2.95,3.91-4.69h0V41.89l3.76-2.17v-16h0Z"/><path class="cls-4" d="M35.76,35.5a12.54,12.54,0,0,1-5.63,2.16c-1.75.26-2.29,1.55-1,2.29l12.54,7.24L54.19,40c1.28-.74,3.53-.43,4,.59a7,7,0,0,0,3.73,3.25,16.77,16.77,0,0,0,12.72-.06c4.92-2.27,5.22-6.43.89-8.92a13.34,13.34,0,0,0-4.62-1.55C69.1,33,68.45,31.72,69.76,31l12.55-7.24L43.89,1.54a4.9,4.9,0,0,0-4.47,0L1,23.72,13.55,31c1.32.76,3.51.39,4-.65a6.26,6.26,0,0,1,2.67-2.67c4.32-2.5,11.52-2.32,15.45.52C38.59,30.28,38.64,33.36,35.76,35.5Z"/></g></g></svg>