<svg xmlns="http://www.w3.org/2000/svg" width="162" height="87.66" viewBox="0 0 162 87.66"><defs><style>.cls-1{fill:#d5dae0;}.cls-1,.cls-3,.cls-4{stroke:#627386;stroke-linecap:round;stroke-linejoin:round;stroke-width:2px;}.cls-2{fill:#f2f4f6;}.cls-3{fill:none;}.cls-4{fill:#fff;}</style></defs><title>puzzle_02</title><g id="Layer_2" data-name="Layer 2"><g id="Layer_1-2" data-name="Layer 1"><path class="cls-1" d="M146.47,24.47,122.63,10.7a2.38,2.38,0,0,0-.33-.56c-.72-.65-13.89-.94-13.89-.94v16h0c0,.59.67,1.17,1.81,1.35a13.31,13.31,0,0,1,4.63,1.54,5.81,5.81,0,0,1,2.88,3.24L81,24.47v16l10.69-.68H84.77v16h0A4.67,4.67,0,0,0,87,59.5c3.92,2.85,11.12,3,15.45.52a6.32,6.32,0,0,0,2.67-2.67c.48-1,2.67-1.41,4-.65L121.66,64l38.41-22.18a1.58,1.58,0,0,0,.93-1.3v-16Z"/><path class="cls-2" d="M130.14,15l-7.51-4.34a2.38,2.38,0,0,0-.33-.56c-.72-.65-13.89-.94-13.89-.94v16h0c0,.59.67,1.17,1.81,1.35,1.7.26,3.3-6.08,4.63-5.32,1.58.92,2.54,8.91,2.88,10.1L96.61,24.47v5.46h33.53Z"/><path class="cls-3" d="M146.47,24.47,122.63,10.7a2.38,2.38,0,0,0-.33-.56c-.72-.65-13.89-.94-13.89-.94v16h0c0,.59.67,1.17,1.81,1.35a13.31,13.31,0,0,1,4.63,1.54,5.81,5.81,0,0,1,2.88,3.24L81,24.47v16l10.69-.68H84.77v16h0A4.67,4.67,0,0,0,87,59.5c3.92,2.85,11.12,3,15.45.52a6.32,6.32,0,0,0,2.67-2.67c.48-1,2.67-1.41,4-.65L121.66,64l38.41-22.18a1.58,1.58,0,0,0,.93-1.3v-16Z"/><path class="cls-1" d="M73.57,31.33l-5.11,1.91c-1.28-.74-.74-2,1-2.3a12.46,12.46,0,0,0,5.63-2.15,4.62,4.62,0,0,0,2.12-3.63h0v-16l-16.9,1L58.7,14.63a5.71,5.71,0,0,0-1.82,2.11c-.48,1-2.67,1.41-4,.65L40.35,10.14,10.66,27.28,1,24.47v16a1.58,1.58,0,0,0,.93,1.3L40.35,64,52.9,56.7a1.15,1.15,0,0,0,.68-1h0V46.61l-6.8-2A9.23,9.23,0,0,1,48,43.94a16.68,16.68,0,0,1,12.72-.06,6.93,6.93,0,0,1,3.73,3.25c.45,1,2.69,1.32,4,.58L81,40.47V31.33Z"/><path class="cls-2" d="M49.75,36.46V15.58l-9.4-5.44L10.66,27.28,1,24.47v16a1.58,1.58,0,0,0,.93,1.3L40.35,64l9.4-5.43V38.63l-3-.86A11.48,11.48,0,0,1,48,37.08,12,12,0,0,1,49.75,36.46Z"/><path class="cls-3" d="M73.57,31.33l-5.11,1.91c-1.28-.74-.74-2,1-2.3a12.46,12.46,0,0,0,5.63-2.15,4.62,4.62,0,0,0,2.12-3.63h0v-16l-16.9,1L58.7,14.63a5.71,5.71,0,0,0-1.82,2.11c-.48,1-2.67,1.41-4,.65L40.35,10.14,10.66,27.28,1,24.47v16a1.58,1.58,0,0,0,.93,1.3L40.35,64,52.9,56.7a1.15,1.15,0,0,0,.68-1h0v-16l-6.8-2A10.47,10.47,0,0,1,48,37.08,16.73,16.73,0,0,1,60.76,37c1.94.86,3.18,8.87,3.73,10.11.45,1,2.69,1.32,4,.58L81,40.47v-16Z"/><path class="cls-1" d="M84.91,48a5.17,5.17,0,0,1,2-2.65,12.61,12.61,0,0,1,5.64-2.15c1.09-.16,1.71-.73,1.71-1.31h0V32.69l-50.13-.06v9.14h0c0,1.53,1,3.06,3,4.23a13.31,13.31,0,0,0,4.63,1.54,3.16,3.16,0,0,1,1.16.41H40.35V64L78.76,86.13a5,5,0,0,0,4.48,0L121.66,64V48Z"/><path class="cls-2" d="M81,32.68l-36.89,0v9.14h0c0,1.53,1,3.06,3,4.23a13.31,13.31,0,0,0,4.63,1.54,3.16,3.16,0,0,1,1.16.41H40.35V64L78.76,86.13a4.66,4.66,0,0,0,2.24.53Z"/><path class="cls-3" d="M84.91,48a5.17,5.17,0,0,1,2-2.65,12.61,12.61,0,0,1,5.64-2.15c1.09-.16,1.71-.73,1.71-1.31h0V32.69l-50.13-.06v9.14h0c0,1.53,1,3.06,3,4.23a13.31,13.31,0,0,0,4.63,1.54,3.16,3.16,0,0,1,1.16.41H40.35V64L78.76,86.13a5,5,0,0,0,4.48,0L121.66,64V48Z"/><path class="cls-4" d="M60.76,27.88a6.93,6.93,0,0,1,3.73,3.25c.45,1,2.69,1.32,4,.58L81,24.47,68.46,17.24c-1.28-.74-.74-2,1-2.3a12.46,12.46,0,0,0,5.63-2.15C78,10.64,77.93,7.56,75,5.44c-3.92-2.84-11.12-3-15.45-.51A6.21,6.21,0,0,0,56.88,7.6c-.48,1-2.67,1.41-4,.65L40.34,1,1.93,23.18c-1.24.72-1.24,1.87,0,2.59L40.35,48,52.9,40.7c1.31-.76.66-2-1.13-2.3a13.52,13.52,0,0,1-4.63-1.54c-4.32-2.5-4-6.66.9-8.92A16.68,16.68,0,0,1,60.76,27.88Z"/><path class="cls-4" d="M86.89,36.16A12.5,12.5,0,0,1,92.53,34c1.75-.26,2.29-1.56,1-2.3L81,24.47,68.46,31.71c-1.28.74-3.52.43-4-.58a7,7,0,0,0-3.73-3.26A16.73,16.73,0,0,0,48,27.94c-4.92,2.26-5.22,6.42-.9,8.92a13.52,13.52,0,0,0,4.63,1.54c1.79.28,2.44,1.54,1.13,2.3L40.35,48,78.76,70.13a5,5,0,0,0,4.48,0L121.66,48,109.11,40.7c-1.32-.76-3.51-.38-4,.65A6.26,6.26,0,0,1,102.45,44c-4.33,2.5-11.53,2.33-15.45-.52C84.07,41.38,84,38.31,86.89,36.16Z"/><path class="cls-4" d="M101.24,21.07a7,7,0,0,1-3.73-3.25c-.45-1-2.69-1.33-4-.59L81,24.47l12.54,7.24c1.28.74.74,2-1,2.29a12.58,12.58,0,0,0-5.63,2.16C84,38.31,84.07,41.38,87,43.5c3.92,2.84,11.12,3,15.45.52a6.32,6.32,0,0,0,2.67-2.67c.48-1,2.67-1.41,4-.65L121.65,48l38.42-22.19a1.36,1.36,0,0,0,0-2.58L121.65,1,109.1,8.25c-1.31.75-.66,2,1.13,2.3a13.31,13.31,0,0,1,4.63,1.54c4.32,2.5,4,6.65-.9,8.92A16.73,16.73,0,0,1,101.24,21.07Z"/></g></g></svg>