<svg xmlns="http://www.w3.org/2000/svg" width="100" height="60.14" viewBox="0 0 100 60.14"><defs><style>.cls-1{fill:#e9f6fe;}.cls-1,.cls-3,.cls-4{stroke:#1b6dc6;stroke-linecap:round;stroke-linejoin:round;stroke-width:2px;}.cls-2,.cls-4{fill:#bde4fd;}.cls-3{fill:none;}.cls-5{fill:#91d2fb;}.cls-6{fill:#fff;}</style></defs><title>ribbon_01</title><g id="Layer_2" data-name="Layer 2"><g id="Layer_2-2" data-name="Layer 2"><polygon class="cls-1" points="99 36.7 55.41 22.17 46.36 31.22 89.95 45.75 85.85 38.65 99 36.7"/><polygon class="cls-2" points="46.36 31.22 89.95 45.75 85.85 38.65 50.66 26.92 46.36 31.22"/><polygon class="cls-1" points="62.44 51.02 75.8 53.92 63.21 41.34 50.63 28.75 42.79 31.37 34.95 33.98 47.54 46.56 60.12 59.15 62.44 51.02"/><polygon class="cls-2" points="34.95 33.98 47.54 46.56 60.12 59.15 62.44 51.02 42.79 31.37 34.95 33.98"/><polygon class="cls-3" points="99 36.7 55.41 22.17 46.36 31.22 89.95 45.75 85.85 38.65 99 36.7"/><polygon class="cls-3" points="62.44 51.02 75.8 53.92 63.21 41.34 50.63 28.75 42.79 31.37 34.95 33.98 47.54 46.56 60.12 59.15 62.44 51.02"/><path class="cls-4" d="M57.61,6.61c-3.49-2-8.71-2.41-12.88-1.19C43.27,2.85,39.09,1,34.16,1S25.05,2.85,23.6,5.42c-4.17-1.22-9.4-.83-12.89,1.19s-4.17,5-2.05,7.44C4.21,14.89,1,17.3,1,20.15s3.21,5.26,7.66,6.1c-2.12,2.4-1.43,5.42,2.05,7.43s8.72,2.41,12.89,1.19c1.45,2.57,5.63,4.42,10.56,4.42s9.11-1.85,10.57-4.42c4.17,1.22,9.39.83,12.88-1.19s4.17-5,2.06-7.43c4.44-.84,7.65-3.26,7.65-6.1s-3.21-5.26-7.65-6.1C61.78,11.64,61.1,8.62,57.61,6.61ZM39.19,27.15a18.64,18.64,0,0,0-10,0,7.13,7.13,0,0,0-2.71-2.54A13.93,13.93,0,0,0,22,23.05a4.42,4.42,0,0,0,1.2-2.9A4.44,4.44,0,0,0,22,17.24a13.93,13.93,0,0,0,4.4-1.56,7.13,7.13,0,0,0,2.71-2.54,18,18,0,0,0,5,.69,18.09,18.09,0,0,0,5-.69,7,7,0,0,0,2.7,2.54,14,14,0,0,0,4.41,1.56,4.41,4.41,0,0,0-1.21,2.91,4.38,4.38,0,0,0,1.21,2.9,14,14,0,0,0-4.41,1.56A7,7,0,0,0,39.19,27.15Z"/><path class="cls-5" d="M8,23.51c-2.83-.65-5.09-2-6.21-3.59a.43.43,0,0,0-.79.21v0c0,2.49,2.47,4.65,6.07,5.71a.44.44,0,0,0,.53-.3,4.52,4.52,0,0,1,.64-1.38A.43.43,0,0,0,8,23.51Z"/><path class="cls-5" d="M57.61,31.09c-3.49,2-8.71,2.41-12.88,1.18-1.46,2.57-5.64,4.43-10.57,4.43s-9.11-1.86-10.56-4.43c-4.17,1.23-9.4.83-12.89-1.18a6.4,6.4,0,0,1-3-3.24c-.73,2,.27,4.25,3,5.83,3.49,2,8.72,2.41,12.89,1.19,1.45,2.57,5.63,4.42,10.56,4.42s9.11-1.85,10.57-4.42c4.17,1.22,9.39.83,12.88-1.19,2.75-1.58,3.75-3.79,3-5.83A6.42,6.42,0,0,1,57.61,31.09Z"/><path class="cls-5" d="M60.08,24.18a4.55,4.55,0,0,1,.65,1.38.43.43,0,0,0,.53.3c3.6-1.06,6.06-3.22,6.06-5.71v0a.43.43,0,0,0-.79-.21,10.25,10.25,0,0,1-6.2,3.59A.43.43,0,0,0,60.08,24.18Z"/><path class="cls-3" d="M57.61,6.61c-3.49-2-8.71-2.41-12.88-1.19C43.27,2.85,39.09,1,34.16,1S25.05,2.85,23.6,5.42c-4.17-1.22-9.4-.83-12.89,1.19s-4.17,5-2.05,7.44C4.21,14.89,1,17.3,1,20.15s3.21,5.26,7.66,6.1c-2.12,2.4-1.43,5.42,2.05,7.43s8.72,2.41,12.89,1.19c1.45,2.57,5.63,4.42,10.56,4.42s9.11-1.85,10.57-4.42c4.17,1.22,9.39.83,12.88-1.19s4.17-5,2.06-7.43c4.44-.84,7.65-3.26,7.65-6.1s-3.21-5.26-7.65-6.1C61.78,11.64,61.1,8.62,57.61,6.61ZM39.19,27.15a18.64,18.64,0,0,0-10,0,7.13,7.13,0,0,0-2.71-2.54A13.93,13.93,0,0,0,22,23.05a4.42,4.42,0,0,0,1.2-2.9A4.44,4.44,0,0,0,22,17.24a13.93,13.93,0,0,0,4.4-1.56,7.13,7.13,0,0,0,2.71-2.54,18,18,0,0,0,5,.69,18.09,18.09,0,0,0,5-.69,7,7,0,0,0,2.7,2.54,14,14,0,0,0,4.41,1.56,4.41,4.41,0,0,0-1.21,2.91,4.38,4.38,0,0,0,1.21,2.9,14,14,0,0,0-4.41,1.56A7,7,0,0,0,39.19,27.15Z"/><path class="cls-5" d="M53,18.68c.12-2.87-1.71-5.76-5.5-7.95-7.36-4.25-19.3-4.25-26.66,0-3.79,2.19-5.61,5.08-5.5,8v1.5c-.11,2.87,1.71,5.75,5.5,7.94,7.36,4.25,19.3,4.25,26.66,0,3.79-2.19,5.62-5.07,5.5-7.94a4.17,4.17,0,0,0,0-.5,4.17,4.17,0,0,0,0-.5A4.17,4.17,0,0,0,53,18.68Z"/><ellipse class="cls-5" cx="34.16" cy="17.93" rx="18.85" ry="10.88"/><ellipse class="cls-1" cx="34.16" cy="17.69" rx="17.78" ry="10.27"/><ellipse class="cls-6" cx="34.16" cy="14.78" rx="12.04" ry="6.95"/></g></g></svg>