<svg xmlns="http://www.w3.org/2000/svg" width="130.49" height="132.42" viewBox="0 0 130.49 132.42"><defs><style>.cls-1{fill:#d5dae0;}.cls-1,.cls-3,.cls-4,.cls-6{stroke:#627386;stroke-linecap:round;stroke-linejoin:round;stroke-width:2px;}.cls-2,.cls-6{fill:#b8bfca;}.cls-3{fill:none;}.cls-4{fill:#fff;}.cls-5{fill:#f2f4f6;}</style></defs><title>router_01</title><g id="Layer_2" data-name="Layer 2"><g id="Layer_1-2" data-name="Layer 1"><path class="cls-1" d="M10.14,29.06a3.26,3.26,0,0,1,3.27,3.27v49c0,1-1.46,1.88-3.27,1.88s-3.26-.84-3.26-1.88V32.33A3.26,3.26,0,0,1,10.14,29.06Z"/><path class="cls-2" d="M10.14,83.16h0c1.81,0,3.27-.84,3.27-1.88V33.14a1.63,1.63,0,0,0-1.63-1.64h0a1.63,1.63,0,0,0-1.64,1.64Z"/><path class="cls-3" d="M10.14,29.06a3.26,3.26,0,0,1,3.27,3.27v49c0,1-1.46,1.88-3.27,1.88s-3.26-.84-3.26-1.88V32.33A3.26,3.26,0,0,1,10.14,29.06Z"/><path class="cls-3" d="M13.41,55.17c0,1-1.46,1.89-3.27,1.89s-3.26-.85-3.26-1.89"/><path class="cls-1" d="M58.75,1A3.26,3.26,0,0,1,62,4.26v49c0,1-1.46,1.88-3.26,1.88s-3.26-.84-3.26-1.88v-49A3.26,3.26,0,0,1,58.75,1Z"/><path class="cls-2" d="M58.75,55.1h0c1.8,0,3.26-.84,3.26-1.88V5.07a1.63,1.63,0,0,0-1.63-1.63h0a1.63,1.63,0,0,0-1.63,1.63Z"/><path class="cls-3" d="M58.75,1A3.26,3.26,0,0,1,62,4.26v49c0,1-1.46,1.88-3.26,1.88s-3.26-.84-3.26-1.88v-49A3.26,3.26,0,0,1,58.75,1Z"/><path class="cls-3" d="M62,27.11c0,1-1.46,1.88-3.26,1.88s-3.26-.84-3.26-1.88"/><path class="cls-4" d="M77.94,40.19h0a2.75,2.75,0,0,0-2.83.23L5.32,80.71C2.93,82.09,1,85.78,1,89v9.77c0,1.74.58,3,1.5,3.49h0l50.06,28.9,75.44-62Z"/><path class="cls-5" d="M2.3,84.09A10.76,10.76,0,0,0,1,89v9.77c0,1.74.58,3,1.5,3.49h0l50.06,28.9,12.71-10.69Z"/><path class="cls-3" d="M77.94,40.19h0a2.75,2.75,0,0,0-2.83.23L5.32,80.71C2.93,82.09,1,85.78,1,89v9.77c0,1.74.58,3,1.5,3.49h0l50.06,28.9,75.44-62Z"/><path class="cls-6" d="M125.17,90.61,55.38,130.9c-2.39,1.38-4.33-.08-4.33-3.26v-9.78c0-3.18,1.94-6.87,4.33-8.25l69.79-40.3c2.38-1.37,4.32.09,4.32,3.27v9.78C129.49,85.54,127.55,89.23,125.17,90.61Z"/><ellipse class="cls-1" cx="61.11" cy="116.95" rx="4.62" ry="2.61" transform="translate(-70.43 127.39) rotate(-66.95)"/><ellipse class="cls-5" cx="109.09" cy="89.25" rx="2.34" ry="1.32" transform="translate(-15.74 154.68) rotate(-66.95)"/><ellipse class="cls-5" cx="115.02" cy="85.82" rx="2.34" ry="1.32" transform="translate(-8.99 158.05) rotate(-66.95)"/></g></g></svg>