<svg xmlns="http://www.w3.org/2000/svg" width="82.72" height="56.89" viewBox="0 0 82.72 56.89"><defs><style>.cls-1,.cls-6{fill:#91d2fb;}.cls-1,.cls-2,.cls-4,.cls-5{stroke:#1b6dc6;stroke-linecap:round;stroke-linejoin:round;stroke-width:2px;}.cls-2{fill:#e9f6fe;}.cls-3,.cls-5{fill:#bde4fd;}.cls-4{fill:none;}</style></defs><title>shield_01</title><g id="Layer_2" data-name="Layer 2"><g id="Layer_1-2" data-name="Layer 1"><path class="cls-1" d="M81.72,30.17l-1.66-.1a12.9,12.9,0,0,0-4.76-4.5L43.52,7.22,10.8,26.11,1,25.55v8.29L32.78,52.19c13.64,7.87,43.81.75,43.81.75s5.12-7.23,5.12-14.48h0Z"/><path class="cls-2" d="M43.52,1,1,25.55,32.78,43.9c13.64,7.87,43.81.74,43.81.74S88.94,27.22,75.3,19.35Z"/><path class="cls-3" d="M75.3,19.35,43.52,1,22.26,13.27,76.59,44.64h0S88.94,27.22,75.3,19.35Z"/><path class="cls-4" d="M43.52,1,1,25.55,32.78,43.9c13.64,7.87,43.81.74,43.81.74S88.94,27.22,75.3,19.35Z"/><path class="cls-5" d="M9.25,30.31,51.77,5.76,43.52,1,1,25.55Z"/><path class="cls-6" d="M43.52,1,39.45,3.35,22.26,13.27,30.51,18,51.77,5.76Z"/><polygon class="cls-5" points="57.14 33.41 53.6 40 46.7 34.37 34.76 34.46 41.9 28.93 38.06 22.4 49.38 24.61 58.95 20.49 58.8 27.39 68.55 31.37 57.14 33.41"/><polygon class="cls-6" points="57.14 33.41 68.55 31.37 58.8 27.39 58.95 20.49 49.38 24.61 38.06 22.4 57.14 33.41 57.14 33.41"/><polygon class="cls-4" points="57.14 33.41 53.6 40 46.7 34.37 34.76 34.46 41.9 28.93 38.06 22.4 49.38 24.61 58.95 20.49 58.8 27.39 68.55 31.37 57.14 33.41"/><path class="cls-4" d="M9.25,30.31,51.77,5.76,43.52,1,1,25.55Z"/><line class="cls-4" x1="9.25" y1="30.31" x2="9.25" y2="38.6"/></g></g></svg>