<svg xmlns="http://www.w3.org/2000/svg" width="149.27" height="94.18" viewBox="0 0 149.27 94.18"><defs><style>.cls-1{fill:#d5dae0;}.cls-1,.cls-3,.cls-4,.cls-6{stroke:#627386;stroke-linecap:round;stroke-linejoin:round;stroke-width:2px;}.cls-2{fill:#f2f4f6;}.cls-3{fill:none;}.cls-4{fill:#b8bfca;}.cls-5{fill:#627386;}.cls-6{fill:#fff;}</style></defs><title>tablet_01</title><g id="Layer_2" data-name="Layer 2"><g id="Layer_1-2" data-name="Layer 1"><path class="cls-1" d="M140.71,36.13,94.11,9.23a10,10,0,0,0-9,0l-73,42.16L1,52.15V59.3a3.17,3.17,0,0,0,1.87,2.61L55.16,92.1a10,10,0,0,0,9,0l82.2-47.46A3.17,3.17,0,0,0,148.27,42V34.88Z"/><path class="cls-2" d="M59.32,24.1,12.05,51.39,1,52.15V59.3a3.17,3.17,0,0,0,1.87,2.61L55.16,92.1a9.18,9.18,0,0,0,4.16,1.06Z"/><path class="cls-3" d="M140.71,36.13,94.11,9.23a10,10,0,0,0-9,0l-73,42.16L1,52.15V59.3a3.17,3.17,0,0,0,1.87,2.61L55.16,92.1a10,10,0,0,0,9,0l82.2-47.46A3.17,3.17,0,0,0,148.27,42V34.88Z"/><path class="cls-4" d="M146.4,37.49,64.2,85a10,10,0,0,1-9,0L2.87,54.76C.38,53.32.38,51,2.87,49.54L85.07,2.08a10,10,0,0,1,9,0L146.4,32.27C148.9,33.71,148.9,36.05,146.4,37.49Z"/><ellipse class="cls-5" cx="116.02" cy="19.57" rx="1.87" ry="1.08"/><polygon class="cls-6" points="137.67 36.84 60.32 81.49 8.77 51.73 86.12 7.08 137.67 36.84"/><polygon class="cls-2" points="73.22 74.05 137.67 36.84 86.12 7.08 73.22 14.52 73.22 74.05"/><polygon class="cls-3" points="137.67 36.84 60.32 81.49 8.77 51.73 86.12 7.08 137.67 36.84"/></g></g></svg>