<?xml version="1.0" encoding="UTF-8"?>
<svg width="116px" height="132px" viewBox="0 0 116 132" version="1.1" xmlns="http://www.w3.org/2000/svg" xmlns:xlink="http://www.w3.org/1999/xlink">
    <!-- Generator: Sketch 53.1 (72631) - https://sketchapp.com -->
    <title>tea_01</title>
    <desc>Created with Sketch.</desc>
    <g id="Page-1" stroke="none" stroke-width="1" fill="none" fill-rule="evenodd">
        <g id="tea_01" transform="translate(1.000000, 0.000000)">
            <path d="M82,92.62 C73.35,92.62 64.63,85.74 64.63,70.37 C64.63,55 73.93,37.37 85.8,30.51 C88.9372825,28.6092076 92.522378,27.5740501 96.19,27.51 C104.84,27.51 113.56,34.38 113.56,49.75 C113.56,65.12 104.26,82.75 92.39,89.61 C89.253511,91.5138614 85.6684723,92.552453 82,92.62 L82,92.62 Z" id="Path" stroke="#627386" stroke-width="2" stroke-linecap="round" stroke-linejoin="round"></path>
            <ellipse id="Oval" stroke="#F2F4F6" stroke-width="2" stroke-linecap="round" stroke-linejoin="round" transform="translate(89.128719, 60.048093) rotate(-66.950000) translate(-89.128719, -60.048093) " cx="89.128719" cy="60.0480928" rx="27.44" ry="15.53"></ellipse>
            <path d="M98.83,66.65 C95.9,72.65 91.71,77.83 87.16,80.46 C85.6093981,81.437923 83.831303,81.9961622 82,82.08 C77,82.08 75.17,75.77 75.17,70.37" id="Path" stroke="#D5DAE0" stroke-width="2" stroke-linecap="round" stroke-linejoin="round"></path>
            <path d="M67.31,70.37 C67.31,55.73 76.03,39.22 87.16,32.8 C89.8921871,31.1181728 93.0225046,30.1932278 96.23,30.12 C100.995589,30.0989656 105.402501,32.6483239 107.76,36.79" id="Path" stroke="#FFFFFF" stroke-width="2" stroke-linecap="round" stroke-linejoin="round"></path>
            <path d="M82,79.45 C79.1,79.45 77.81,74.89 77.81,70.37 C77.81,59.52 84.48,46.49 92.39,41.92 C93.5266786,41.179048 94.8358107,40.7449674 96.19,40.66 C99.09,40.66 100.38,45.22 100.38,49.73 C100.38,60.59 93.71,73.62 85.8,78.18 C84.6661364,78.9282485 83.3559093,79.3661402 82,79.45 L82,79.45 Z" id="Path" stroke="#627386" stroke-width="2" stroke-linecap="round" stroke-linejoin="round"></path>
            <path d="M0,27 L0,104.79 C0,119.14 20.15,130.79 45,130.79 C69.85,130.79 90,119.16 90,104.79 L90,27 L0,27 Z" id="Path" stroke="#627386" stroke-width="2" fill="#FFFFFF" fill-rule="nonzero" stroke-linecap="round" stroke-linejoin="round"></path>
            <path d="M45,130.75 C69.85,130.75 90,119.12 90,104.75 L90,27 L45,27 L45,130.75 Z" id="Path" fill="#F2F4F6" fill-rule="nonzero"></path>
            <ellipse id="Oval" fill="#FFFFFF" fill-rule="nonzero" cx="45" cy="26.98" rx="45" ry="25.98"></ellipse>
            <path d="M0,27 L0,104.79 C0,119.14 20.15,130.79 45,130.79 C69.85,130.79 90,119.16 90,104.79 L90,27" id="Path" stroke="#627386" stroke-width="2" stroke-linecap="round" stroke-linejoin="round"></path>
            <ellipse id="Oval" stroke="#627386" stroke-width="2" fill="#FFFFFF" fill-rule="nonzero" stroke-linecap="round" stroke-linejoin="round" cx="45" cy="26.98" rx="36.89" ry="19.76"></ellipse>
            <path d="M45,7.22 L45,7.22 C24.62,7.22 8.11,16.06 8.11,27 C8.11,37.94 24.62,46.74 45,46.74 L45,46.74 L45,7.22 Z" id="Path" fill="#F2F4F6" fill-rule="nonzero"></path>
            <path d="M45,46.74 C64.2029408,46.74 79.77,37.8480673 79.77,30.58 C79.77,23.3119327 64.2029408,17.42 45,17.42 C25.7970592,17.42 10.23,23.3119327 10.23,30.58 C10.23,37.8480673 25.7970592,46.74 45,46.74 Z" id="Oval" stroke="#627386" stroke-width="2" fill="#D5DAE0" fill-rule="nonzero" stroke-linecap="round" stroke-linejoin="round"></path>
            <ellipse id="Oval" stroke="#627386" stroke-width="2" stroke-linecap="round" stroke-linejoin="round" cx="45" cy="26.98" rx="36.89" ry="19.76"></ellipse>
            <path d="M0,27 C0,21.08 3.43,15.62 9.21,11.25 C14.3395057,7.54425865 20.1352288,4.86199664 26.28,3.35 C32.3930491,1.76527405 38.6849289,0.97542803 45,1 C51.3150711,0.97542803 57.6069509,1.76527405 63.72,3.35 C69.8626421,4.85780472 75.6579203,7.53307084 80.79,11.23 C86.57,15.6 90,21.06 90,27" id="Path" stroke="#627386" stroke-width="2" stroke-linecap="round" stroke-linejoin="round"></path>
            <path d="M84.34,39.6 C80.9682426,42.9366194 76.9993294,45.6096994 72.64,47.48 C68.3083711,49.3960126 63.7675289,50.7988744 59.11,51.66 C54.4586269,52.5448722 49.7347891,52.9934862 45,53 C40.2664612,53.006674 35.5426342,52.5714525 30.89,51.7 C26.2321199,50.8403022 21.6911135,49.4373897 17.36,47.52 C12.9948115,45.6426063 9.02481229,42.9552222 5.66,39.6" id="Path" stroke="#D5DAE0" stroke-width="2" stroke-linecap="round" stroke-linejoin="round"></path>
            <path d="M23,42.08 C22.29,40.24 20.62,39.63 18.68,40.75 C16.09,42.25 13.99,46.26 13.99,49.75" id="Path" stroke="#627386" stroke-width="2" stroke-linecap="round" stroke-linejoin="round"></path>
            <path d="M22.09,98.92 C22.09,100.86 20.91,101.75 19.45,100.92 L14.59,98.1 L9.73,95.3 C8.1107375,94.1429244 7.13225405,92.2897361 7.09,90.3 L7.09,75.75 C7.02002671,74.1855223 7.42812823,72.6368293 8.26,71.31 L12.15,65.87 C13.32,64.24 15.87,65.71 17.04,68.7 L20.92,78.62 C21.6595905,80.4625715 22.0561082,82.4248261 22.09,84.41 L22.09,98.92 Z" id="Path" stroke="#1B6DC6" stroke-width="2" fill="#D3EDFD" fill-rule="nonzero" stroke-linecap="round" stroke-linejoin="round"></path>
            <path d="M13.97,49.71 L13.97,69.17" id="Path" stroke="#627386" stroke-width="2" stroke-linecap="round" stroke-linejoin="round"></path>
            <path d="M13.97,77.25 L13.97,84.29" id="Path" stroke="#1B6DC6" stroke-width="2" fill="#D3EDFD" fill-rule="nonzero" stroke-linecap="round" stroke-linejoin="round"></path>
            <path d="M13.97,89.76 L13.97,89.56" id="Path" stroke="#1B6DC6" stroke-width="2" fill="#D3EDFD" fill-rule="nonzero" stroke-linecap="round" stroke-linejoin="round"></path>
        </g>
    </g>
</svg>