<svg xmlns="http://www.w3.org/2000/svg" width="166" height="104.33" viewBox="0 0 166 104.33"><defs><style>.cls-1,.cls-2,.cls-3{fill:none;stroke-linecap:round;stroke-linejoin:round;stroke-width:2px;}.cls-1,.cls-3{stroke:#b8bfca;}.cls-2{stroke:#bde4fd;}.cls-3{stroke-dasharray:0 6.04;}</style></defs><title>time_02_1</title><g id="Layer_2" data-name="Layer 2"><g id="Layer_1-2" data-name="Layer 1"><path class="cls-1" d="M150.9,34.87c4.55,5.59,7.1,11.83,7.1,18.42,0,23.91-33.58,43.3-75,43.3S8,77.2,8,53.29c0-23.13,31.39-42,70.92-43.24"/><line class="cls-1" x1="32.68" y1="53.29" x2="20" y2="53.29"/><line class="cls-1" x1="83" y1="81.9" x2="83" y2="89.22"/><line class="cls-1" x1="133.32" y1="53.29" x2="146" y2="53.29"/><line class="cls-1" x1="83" y1="16.91" x2="83" y2="24.23"/><line class="cls-1" x1="51.5" y1="21.79" x2="53.84" y2="24.13"/><line class="cls-1" x1="28.44" y1="35.1" x2="32.49" y2="36.45"/><line class="cls-1" x1="28.44" y1="71.47" x2="32.49" y2="70.12"/><line class="cls-1" x1="51.5" y1="84.79" x2="53.84" y2="82.45"/><line class="cls-1" x1="114.5" y1="84.79" x2="112.16" y2="82.45"/><line class="cls-1" x1="137.56" y1="71.47" x2="133.51" y2="70.12"/><line class="cls-1" x1="137.56" y1="35.1" x2="133.51" y2="36.45"/><line class="cls-2" x1="114.5" y1="21.79" x2="112.16" y2="24.13"/><path class="cls-2" d="M83,10v43.3l64.94-21.65C135,18.7,110.76,10,83,10Z"/><line class="cls-1" x1="77.74" y1="3.33" x2="77.74" y2="3.33"/><path class="cls-3" d="M71.71,3.69C31.26,7,1,27.56,1,53.28c0,28.07,36,50.05,82,50.05s82-22,82-50c0-8.08-3-15.66-8.36-22.35"/><line class="cls-1" x1="154.67" y1="28.63" x2="154.67" y2="28.63"/><polyline class="cls-1" points="77.74 5.67 84.74 3.33 77.74 1 77.74 3.33 77.74 5.67"/></g></g></svg>