<svg xmlns="http://www.w3.org/2000/svg" xmlns:xlink="http://www.w3.org/1999/xlink" width="75.51" height="149.7" viewBox="0 0 75.51 149.7"><defs><style>.cls-1,.cls-11,.cls-12,.cls-5,.cls-6,.cls-8{fill:none;}.cls-2,.cls-9{fill:#d5dae0;}.cls-3{fill:#b8bfca;}.cls-4,.cls-7{fill:#f2f4f6;}.cls-5{stroke:#b8bfca;}.cls-11,.cls-12,.cls-13,.cls-15,.cls-5,.cls-6,.cls-7,.cls-8,.cls-9{stroke-linecap:round;stroke-linejoin:round;stroke-width:2px;}.cls-15,.cls-6,.cls-7,.cls-9{stroke:#627386;}.cls-8{stroke:#fff;}.cls-10{fill:#feeeee;}.cls-11{stroke:#fccccc;}.cls-12,.cls-13{stroke:#c44556;}.cls-13{fill:#fccccc;}.cls-14{clip-path:url(#clip-path);}.cls-15{fill:#fff;}</style><clipPath id="clip-path"><path class="cls-1" d="M76.9,80.62l-9.31-5.34-1.25-.12c-1.85-.9-4.18-.74-6.73.74-6,3.44-10.8,12.67-10.8,20.62,0,4.58,1.62,7.72,4.12,8.91l3.54,3.7,10.2-7.45,7-11.27Z"/></clipPath></defs><title>toiletpaper_01</title><g id="Layer_2" data-name="Layer 2"><g id="Layer_1-2" data-name="Layer 1"><path class="cls-2" d="M49.64,26.89c0-9.39-5.71-20.3-12.75-24.37C33.7.68,30.79.57,28.55,1.86h0l-7.28,4.2v0c-2.7,1.56-4.41,5.16-4.41,10.3,0,9.39,5.71,20.3,12.75,24.37,3.19,1.84,6.1,1.95,8.34.65v0l7.28-4.2v0C47.93,35.63,49.64,32,49.64,26.89Z"/><path class="cls-3" d="M29.61,40.74c3.19,1.84,6.1,1.95,8.34.65v0l7.28-4.2v0c2.7-1.56,4.41-5.16,4.41-10.3a30.84,30.84,0,0,0-3-12.76L20.06,29.45C22.39,34.33,25.8,38.54,29.61,40.74Z"/><ellipse class="cls-4" cx="29.61" cy="23.73" rx="11.08" ry="19.58" transform="translate(-6.93 13.49) rotate(-23.05)"/><ellipse class="cls-5" cx="29.61" cy="23.73" rx="11.08" ry="19.58" transform="translate(-6.93 13.49) rotate(-23.05)"/><path class="cls-6" d="M49.64,26.89c0-9.39-5.71-20.3-12.75-24.37C33.7.68,30.79.57,28.55,1.86h0l-7.28,4.2v0a6,6,0,0,0-.93.66l-.08.06a7.79,7.79,0,0,0-.76.76l-.12.15a7.53,7.53,0,0,0-.61.84l-.15.24c-.17.29-.32.59-.47.91L18,10c-.13.3-.25.63-.36,1,0,.14-.09.28-.13.42-.1.33-.18.69-.26,1,0,.16-.07.32-.1.48-.07.39-.12.79-.16,1.2l-.06.46c-.05.57-.07,1.17-.07,1.79,0,9.39,5.71,20.3,12.75,24.37h0a13,13,0,0,0,1.23.63l.47.18c.25.1.49.2.73.28l.59.15a5.07,5.07,0,0,0,.56.13c.22,0,.43.07.65.09l.43,0H35l.32,0a6,6,0,0,0,.74-.11l.22,0a5.28,5.28,0,0,0,.77-.24l.12,0a6.43,6.43,0,0,0,.79-.39v0l7.28-4.2v0C47.93,35.63,49.64,32,49.64,26.89Z"/><path class="cls-7" d="M15.19,46.25c-2.17-1.26-3.53-2.8-3.53-4s1.36-2.76,3.53-4l16.74-9.66,0,0a3.09,3.09,0,0,0,1.18-2.78,8.35,8.35,0,0,0-3.48-6.65A2.18,2.18,0,0,0,27.28,19l0,0L9.86,29C4.23,32.23,1,37.06,1,42.23s3.23,10,8.86,13.26l35,20.21,4.63-9.64Z"/><polyline class="cls-8" points="11.2 31.28 26.14 22.66 26.2 22.77 28.34 21.44"/><path class="cls-8" d="M11.15,46.55a13.83,13.83,0,0,0,2.71,2L46,67.13"/><ellipse class="cls-9" cx="47.2" cy="70.89" rx="5.34" ry="3.02" transform="translate(-36.51 86.56) rotate(-66.95)"/><path class="cls-10" d="M24.08,50.74h0c-1.89-1.09-4.35-1-7,.56C11.06,54.75,6.23,64,6.23,71.93c0,4.35,1.45,7.4,3.73,8.71v0l42.59,24.59L66.67,75.33Z"/><path class="cls-11" d="M46.64,64.41s-8,10.29-4.87,27.69"/><path class="cls-11" d="M26.41,52.73S13,70,27.67,97.51"/><path class="cls-12" d="M24.08,50.74h0c-1.89-1.09-4.35-1-7,.56C11.06,54.75,6.23,64,6.23,71.93c0,4.35,1.45,7.4,3.73,8.71v0l42.59,24.59L66.67,75.33Z"/><ellipse class="cls-13" cx="59.61" cy="90.29" rx="16.57" ry="9.37" transform="matrix(0.39, -0.92, 0.92, 0.39, -46.81, 109.78)"/><g class="cls-14"><path class="cls-7" d="M15.19,46.25c-2.17-1.26-3.53-2.8-3.53-4s1.36-2.76,3.53-4l16.74-9.66,0,0a3.09,3.09,0,0,0,1.18-2.78,8.35,8.35,0,0,0-3.48-6.65A2.18,2.18,0,0,0,27.28,19l0,0L9.86,29C4.23,32.23,1,37.06,1,42.23s3.23,10,8.86,13.26l58.83,34,4.64-9.63Z"/><line class="cls-8" x1="13.86" y1="48.56" x2="65.29" y2="78.25"/><ellipse class="cls-9" cx="71.02" cy="84.64" rx="5.34" ry="3.02" transform="translate(-34.67 116.85) rotate(-66.95)"/></g><path class="cls-12" d="M66.44,75.2c-1.86-1-4.24-.8-6.83.7C54.26,79,49.82,86.73,49,94"/><path class="cls-15" d="M48.83,95.37,6.25,70.78V119.6a10.68,10.68,0,0,0,1.2,4.93l1.32,2.52a1.88,1.88,0,0,0,2.8.63h0a1.87,1.87,0,0,1,2.79.63l1.49,2.84a1.88,1.88,0,0,0,2.8.62h0a1.88,1.88,0,0,1,2.8.63l1.48,2.84a1.87,1.87,0,0,0,2.8.62h0a1.87,1.87,0,0,1,2.79.63L30,139.33a1.88,1.88,0,0,0,2.8.63h0a1.88,1.88,0,0,1,2.8.63l1.49,2.84a1.87,1.87,0,0,0,2.79.63h0a1.88,1.88,0,0,1,2.8.63l1.67,3.2a1.56,1.56,0,0,0,2.3.53l.53-.4a4,4,0,0,0,1.62-3.21Z"/></g></g></svg>