<svg xmlns="http://www.w3.org/2000/svg" width="65.11" height="65.39" viewBox="0 0 65.11 65.39"><defs><style>.cls-1{fill:#f2f4f6;stroke:#627386;stroke-linecap:round;stroke-linejoin:round;stroke-width:2px;}.cls-2{fill:none;}</style></defs><title>cilinder_02</title><g id="Layer_2" data-name="Layer 2"><g id="Layer_2-2" data-name="Layer 2"><path class="cls-1" d="M64.11,33.8V16.7H43.85V40.8c0,1.5,1-4,3-2.87h0a15.78,15.78,0,0,0,14.32,0C63.12,36.79,64.11,35.3,64.11,33.8Z"/><path class="cls-1" d="M61.14,20.84h0a15.84,15.84,0,0,1-14.32,0h0c-4-2.29-4-6,0-8.27h0a15.84,15.84,0,0,1,14.32,0h0C65.1,14.85,65.1,18.55,61.14,20.84Z"/><path class="cls-1" d="M49.78,42.07V6.85H29.53V42.07c0,1.49,1,3,3,4.13h0a15.78,15.78,0,0,0,14.32,0C48.8,45.06,49.78,43.56,49.78,42.07Z"/><path class="cls-1" d="M46.82,11h0A15.84,15.84,0,0,1,32.5,11h0c-4-2.28-4-6,0-8.27h0a15.84,15.84,0,0,1,14.32,0h0C50.77,5,50.77,8.7,46.82,11Z"/><path class="cls-1" d="M35.58,50.27V33.18H15.32V50.27c0,1.5,1,3,3,4.14h0a15.84,15.84,0,0,0,14.32,0C34.59,53.26,35.58,51.77,35.58,50.27Z"/><path class="cls-1" d="M32.61,37.31h0a15.84,15.84,0,0,1-14.32,0h0c-4-2.28-4-6,0-8.27h0a15.84,15.84,0,0,1,14.32,0h0C36.57,31.32,36.57,35,32.61,37.31Z"/><path class="cls-2" d="M32.61,54.41h0a15.84,15.84,0,0,1-14.32,0h0c-4-2.29-4-6,0-8.27h0a15.78,15.78,0,0,1,14.32,0h0C36.57,48.42,36.57,52.12,32.61,54.41Z"/><path class="cls-1" d="M21.25,58.54v-10H1v10c0,1.5,1,3,3,4.13H4a15.78,15.78,0,0,0,14.32,0C20.27,61.53,21.26,60,21.25,58.54Z"/><path class="cls-1" d="M18.29,52.67h0A15.84,15.84,0,0,1,4,52.67H4c-4-2.29-4-6,0-8.27H4a15.84,15.84,0,0,1,14.32,0h0C22.24,46.68,22.24,50.38,18.29,52.67Z"/><path class="cls-2" d="M18.29,62.67h0A15.78,15.78,0,0,1,4,62.67H4c-4-2.28-4-6,0-8.26H4a15.78,15.78,0,0,1,14.32,0h0C22.24,56.69,22.24,60.39,18.29,62.67Z"/></g></g></svg>