<svg xmlns="http://www.w3.org/2000/svg" width="29.76" height="36.52" viewBox="0 0 29.76 36.52"><defs><style>.cls-1{fill:#f2f4f6;}.cls-2{fill:#627386;}.cls-3{fill:#d5dae0;}.cls-4{fill:#fff;}</style></defs><title>cilinder</title><g id="Layer_2" data-name="Layer 2"><g id="Layer_1-2" data-name="Layer 1"><path class="cls-1" d="M1,9V27.52c0,2.05,1.36,4.11,4.07,5.67,5.42,3.13,14.21,3.13,19.63,0,2.71-1.56,4.06-3.62,4.06-5.67V9"/><path class="cls-2" d="M14.88,36.52A21.1,21.1,0,0,1,4.57,34.06C1.62,32.36,0,30,0,27.52V9A1,1,0,0,1,2,9V27.52C2,29.29,3.27,31,5.57,32.33c5.13,3,13.49,3,18.63,0,2.3-1.33,3.56-3,3.56-4.81V9a1,1,0,0,1,2,0V27.52c0,2.52-1.62,4.84-4.56,6.54A21.14,21.14,0,0,1,14.88,36.52Z"/><path class="cls-3" d="M14.88,35.54a20,20,0,0,0,9.82-2.35c2.71-1.56,4.06-3.62,4.06-5.67V9H14.88Z"/><path class="cls-2" d="M14.88,36.52A21.1,21.1,0,0,1,4.57,34.06C1.62,32.36,0,30,0,27.52V9A1,1,0,0,1,2,9V27.52C2,29.29,3.27,31,5.57,32.33c5.13,3,13.49,3,18.63,0,2.3-1.33,3.56-3,3.56-4.81V9a1,1,0,0,1,2,0V27.52c0,2.52-1.62,4.84-4.56,6.54A21.14,21.14,0,0,1,14.88,36.52Z"/><ellipse class="cls-4" cx="14.88" cy="9.01" rx="13.88" ry="8.01"/><path class="cls-2" d="M14.88,18A20.94,20.94,0,0,1,4.57,15.55C1.62,13.85,0,11.53,0,9S1.62,4.18,4.57,2.48A20.94,20.94,0,0,1,14.88,0,21,21,0,0,1,25.2,2.48c2.94,1.7,4.56,4,4.56,6.53s-1.62,4.84-4.56,6.54A21,21,0,0,1,14.88,18Zm0-16A19,19,0,0,0,5.57,4.21C3.27,5.54,2,7.25,2,9s1.27,3.48,3.57,4.81A19,19,0,0,0,14.88,16a19,19,0,0,0,9.32-2.21c2.3-1.33,3.56-3,3.56-4.81S26.5,5.54,24.2,4.21A19,19,0,0,0,14.88,2Z"/></g></g></svg>