<svg xmlns="http://www.w3.org/2000/svg" width="50" height="61.71" viewBox="0 0 50 61.71"><defs><style>.cls-1,.cls-5{fill:#fff;}.cls-1,.cls-2,.cls-3{stroke:#627386;}.cls-1,.cls-2,.cls-3,.cls-4,.cls-5,.cls-6{stroke-linecap:round;stroke-linejoin:round;stroke-width:2px;}.cls-2{fill:#d5dae0;}.cls-3{fill:#f2f4f6;}.cls-4{fill:#e9f6fe;}.cls-4,.cls-5,.cls-6{stroke:#1b6dc6;}.cls-6{fill:#bde4fd;}</style></defs><title>cube_02</title><g id="Layer_2" data-name="Layer 2"><g id="Layer_1-2" data-name="Layer 1"><polygon class="cls-1" points="49 14.86 25 1 1 14.86 25 28.71 49 14.86"/><polygon class="cls-2" points="49 46.86 25 60.71 25 28.71 49 14.86 49 46.86"/><polygon class="cls-3" points="1 46.86 25 60.71 25 28.71 1 14.86 1 46.86"/><polygon class="cls-4" points="13 37.78 25 44.71 25 28.71 13 21.79 13 37.78"/><polygon class="cls-5" points="13 21.79 37 7.93 49 14.86 25 28.71 13 21.79"/><polygon class="cls-6" points="25 44.71 49 30.86 49 14.86 25 28.71 25 44.71"/></g></g></svg>