<svg xmlns="http://www.w3.org/2000/svg" width="29.76" height="36.54" viewBox="0 0 29.76 36.54"><defs><style>.cls-1{fill:#fff;}.cls-2{fill:#627386;}.cls-3{fill:#d5dae0;}.cls-4{fill:#f2f4f6;}</style></defs><title>cube</title><g id="Layer_2" data-name="Layer 2"><g id="Layer_1-2" data-name="Layer 1"><polygon class="cls-1" points="28.76 9.01 14.88 1 1 9.01 14.88 17.03 28.76 9.01"/><path class="cls-2" d="M14.88,18a1.13,1.13,0,0,1-.5-.13L.5,9.88a1,1,0,0,1,0-1.73l13.88-8a1,1,0,0,1,1,0l13.88,8a1,1,0,0,1,0,1.73l-13.88,8A1.09,1.09,0,0,1,14.88,18ZM3,9l11.88,6.86L26.76,9,14.88,2.15Z"/><polygon class="cls-3" points="28.76 27.52 14.88 35.54 14.88 17.03 28.76 9.01 28.76 27.52"/><path class="cls-2" d="M14.88,36.54a1,1,0,0,1-.5-.14,1,1,0,0,1-.5-.86V17a1,1,0,0,1,.5-.87l13.88-8a1,1,0,0,1,1.5.86V27.52a1,1,0,0,1-.5.87l-13.88,8A1,1,0,0,1,14.88,36.54Zm1-18.93v16.2L27.76,27V10.75Z"/><polygon class="cls-4" points="1 27.52 14.88 35.54 14.88 17.03 1 9.01 1 27.52"/><path class="cls-2" d="M14.88,36.54a1,1,0,0,1-.5-.14L.5,28.39a1,1,0,0,1-.5-.87V9a1,1,0,0,1,1.5-.86l13.88,8a1,1,0,0,1,.5.87V35.54a1,1,0,0,1-.5.86A1,1,0,0,1,14.88,36.54ZM2,27l11.88,6.86V17.61L2,10.75Z"/></g></g></svg>