<svg xmlns="http://www.w3.org/2000/svg" width="174.74" height="201.47" viewBox="0 0 174.74 201.47"><defs><style>.cls-1,.cls-2{fill:none;stroke-linecap:round;stroke-linejoin:round;stroke-width:2px;}.cls-1{stroke:#bde4fd;}.cls-2{stroke:#1b6dc6;}</style></defs><title>prism_03</title><g id="Layer_2" data-name="Layer 2"><g id="Layer_1-2" data-name="Layer 1"><polygon class="cls-1" points="87.37 100.73 130.56 125.67 130.56 75.8 87.37 100.73"/><polygon class="cls-1" points="130.56 125.67 87.37 100.73 87.37 150.6 130.56 125.67"/><polygon class="cls-1" points="87.37 150.6 130.56 175.53 130.56 125.67 87.37 150.6"/><polygon class="cls-1" points="130.56 175.53 87.37 150.6 87.37 200.47 130.56 175.53"/><polygon class="cls-1" points="130.56 75.8 173.74 100.73 173.74 50.87 130.56 75.8"/><polygon class="cls-1" points="173.74 100.73 130.56 75.8 130.56 125.67 173.74 100.73"/><polygon class="cls-1" points="130.56 125.67 173.74 150.6 173.74 100.73 130.56 125.67"/><polygon class="cls-1" points="173.74 150.6 130.56 125.67 130.56 175.53 173.74 150.6"/><polygon class="cls-1" points="173.74 50.87 130.56 25.93 130.56 75.8 173.74 50.87"/><polygon class="cls-1" points="130.56 25.93 87.37 1 87.37 50.87 130.56 25.93"/><polygon class="cls-1" points="87.37 50.87 130.56 75.8 130.56 25.93 87.37 50.87"/><polygon class="cls-1" points="130.56 75.8 87.37 50.87 87.37 100.73 130.56 75.8"/><polygon class="cls-1" points="87.37 50.87 44.19 25.93 44.19 75.8 87.37 50.87"/><polygon class="cls-1" points="44.19 75.8 87.37 100.73 87.37 50.87 44.19 75.8"/><polygon class="cls-1" points="44.19 25.93 87.37 50.87 87.37 1 44.19 25.93"/><polygon class="cls-1" points="1 50.87 44.19 75.8 44.19 25.93 1 50.87"/><polygon class="cls-1" points="87.37 100.73 44.19 125.67 44.19 75.8 87.37 100.73"/><polygon class="cls-1" points="44.19 125.67 87.37 100.73 87.37 150.6 44.19 125.67"/><polygon class="cls-1" points="87.37 150.6 44.19 175.53 44.19 125.67 87.37 150.6"/><polygon class="cls-1" points="44.19 175.53 87.37 150.6 87.37 200.47 44.19 175.53"/><polygon class="cls-1" points="44.19 75.8 1 100.73 1 50.87 44.19 75.8"/><polygon class="cls-1" points="1 100.73 44.19 75.8 44.19 125.67 1 100.73"/><polygon class="cls-1" points="44.19 125.67 1 150.6 1 100.73 44.19 125.67"/><polygon class="cls-1" points="1 150.6 44.19 125.67 44.19 175.53 1 150.6"/><polygon class="cls-2" points="130.56 125.67 87.37 50.87 44.19 125.67 130.56 125.67"/></g></g></svg>