<svg xmlns="http://www.w3.org/2000/svg" width="39.02" height="37.37" viewBox="0 0 39.02 37.37"><defs><style>.cls-1{fill:#d5dae0;}.cls-2{fill:#627386;}.cls-3{fill:#f2f4f6;}</style></defs><title>pyramid</title><g id="Layer_2" data-name="Layer 2"><g id="Front"><polygon class="cls-1" points="38.02 25.68 19.51 1 19.51 36.37 38.02 25.68"/><path class="cls-2" d="M19.51,37.37a1,1,0,0,1-1-1V1a1,1,0,0,1,1.8-.6L38.82,25.08a1,1,0,0,1,.18.8,1,1,0,0,1-.48.67L20,37.23A1,1,0,0,1,19.51,37.37ZM20.51,4V34.63l16-9.25Z"/><polygon class="cls-3" points="1 25.68 19.51 1 19.51 36.37 1 25.68"/><path class="cls-2" d="M19.51,37.37a1,1,0,0,1-.5-.14L.5,26.55A1,1,0,0,1,0,25.88a1,1,0,0,1,.18-.8L18.71.4a1,1,0,0,1,1.8.6V36.37a1,1,0,0,1-1,1Zm-17-12,16,9.25V4Z"/></g></g></svg>