<svg xmlns="http://www.w3.org/2000/svg" width="50" height="61.71" viewBox="0 0 50 61.71"><defs><style>.cls-1,.cls-3{fill:none;}.cls-1,.cls-2{stroke:#d5dae0;}.cls-1,.cls-2,.cls-3{stroke-linecap:round;stroke-linejoin:round;stroke-width:2px;}.cls-2{fill:#d5dae0;stroke-dasharray:0 4;}.cls-3{stroke:#627386;}</style></defs><title>wire_02</title><g id="Layer_2" data-name="Layer 2"><g id="Layer_1-2" data-name="Layer 1"><polygon class="cls-1" points="49 14.86 25 1 1 14.86 25 28.71 49 14.86"/><polygon class="cls-1" points="49 46.86 25 60.71 25 28.71 49 14.86 49 46.86"/><polygon class="cls-1" points="1 46.86 25 60.71 25 28.71 1 14.86 1 46.86"/><line class="cls-2" x1="49" y1="46.86" x2="1" y2="46.86"/><line class="cls-2" x1="49" y1="14.86" x2="1" y2="14.86"/><path class="cls-3" d="M1,14.86v32C1,50.4,3.34,54,8,56.65c9.37,5.42,24.57,5.42,33.94,0,4.69-2.7,7-6.25,7-9.79v-32"/><ellipse class="cls-3" cx="25" cy="14.86" rx="24" ry="13.86"/><line class="cls-2" x1="25" y1="59.17" x2="25" y2="1"/></g></g></svg>