<svg xmlns="http://www.w3.org/2000/svg" width="50" height="61.71" viewBox="0 0 50 61.71"><defs><style>.cls-1{fill:#d5dae0;}.cls-2,.cls-3,.cls-4,.cls-5{fill:none;stroke-linecap:round;stroke-linejoin:round;stroke-width:2px;}.cls-2,.cls-3,.cls-4{stroke:#d5dae0;}.cls-3{stroke-dasharray:0 3.98;}.cls-4{stroke-dasharray:0 4;}.cls-5{stroke:#627386;}</style></defs><title>wire_20</title><g id="Layer_2" data-name="Layer 2"><g id="Layer_1-2" data-name="Layer 1"><line class="cls-1" x1="25" y1="60.71" x2="25" y2="1"/><line class="cls-2" x1="25" y1="60.71" x2="25" y2="60.71"/><line class="cls-3" x1="25" y1="56.73" x2="25" y2="2.99"/><line class="cls-2" x1="25" y1="1" x2="25" y2="1"/><line class="cls-1" x1="1" y1="46.86" x2="49" y2="46.86"/><line class="cls-2" x1="1" y1="46.86" x2="1" y2="46.86"/><line class="cls-4" x1="5" y1="46.86" x2="47" y2="46.86"/><line class="cls-2" x1="49" y1="46.86" x2="49" y2="46.86"/><polygon class="cls-2" points="49 14.86 25 1 1 14.86 25 28.71 49 14.86"/><polygon class="cls-2" points="49 46.86 25 60.71 25 28.71 49 14.86 49 46.86"/><polygon class="cls-2" points="1 46.86 25 60.71 25 28.71 1 14.86 1 46.86"/><polyline class="cls-5" points="13 37.78 1 30.86 13 23.93"/><polygon class="cls-5" points="37 7.93 25 1 13 7.93 25 14.86 37 21.79 49 14.86 37 7.93"/><polygon class="cls-5" points="49 30.86 37 37.78 37 21.79 49 14.86 49 30.86"/><polygon class="cls-5" points="25 14.86 13 7.93 13 21.79 13 23.93 13 37.78 1 30.86 1 46.86 13 53.78 25 60.71 25 44.71 25 30.86 37 37.78 37 21.79 25 14.86"/><polygon class="cls-5" points="25 30.86 25 44.71 25 60.71 37 53.78 37 37.78 37 37.78 25 30.86"/></g></g></svg>