<svg xmlns="http://www.w3.org/2000/svg" width="50" height="61.71" viewBox="0 0 50 61.71"><defs><style>.cls-1{fill:#d5dae0;}.cls-2,.cls-3,.cls-4{fill:none;stroke-linecap:round;stroke-linejoin:round;stroke-width:2px;}.cls-2,.cls-3{stroke:#d5dae0;}.cls-3{stroke-dasharray:0 3.98;}.cls-4{stroke:#627386;}</style></defs><title>wire_13</title><g id="Layer_2" data-name="Layer 2"><g id="Layer_1-2" data-name="Layer 1"><line class="cls-1" x1="25" y1="60.71" x2="25" y2="1"/><line class="cls-2" x1="25" y1="60.71" x2="25" y2="60.71"/><line class="cls-3" x1="25" y1="56.73" x2="25" y2="2.99"/><line class="cls-2" x1="25" y1="1" x2="25" y2="1"/><polygon class="cls-2" points="49 14.86 25 1 1 14.86 25 28.71 49 14.86"/><polygon class="cls-2" points="49 46.86 25 60.71 25 28.71 49 14.86 49 46.86"/><polygon class="cls-2" points="1 46.86 25 60.71 25 28.71 1 14.86 1 46.86"/><path class="cls-4" d="M49,30.86a24,24,0,0,1-48,0"/><ellipse class="cls-4" cx="25" cy="30.86" rx="24" ry="13.86"/></g></g></svg>