<svg xmlns="http://www.w3.org/2000/svg" width="50" height="61.71" viewBox="0 0 50 61.71"><defs><style>.cls-1{fill:#d5dae0;}.cls-2,.cls-3,.cls-4{fill:none;stroke-linecap:round;stroke-linejoin:round;stroke-width:2px;}.cls-2,.cls-3{stroke:#d5dae0;}.cls-3{stroke-dasharray:0 4;}.cls-4{stroke:#627386;}</style></defs><title>wire_17</title><g id="Layer_2" data-name="Layer 2"><g id="Layer_1-2" data-name="Layer 1"><line class="cls-1" x1="1" y1="46.86" x2="49" y2="46.86"/><line class="cls-2" x1="1" y1="46.86" x2="1" y2="46.86"/><line class="cls-3" x1="5" y1="46.86" x2="47" y2="46.86"/><line class="cls-2" x1="49" y1="46.86" x2="49" y2="46.86"/><line class="cls-1" x1="1" y1="14.86" x2="49" y2="14.86"/><line class="cls-2" x1="1" y1="14.86" x2="1" y2="14.86"/><line class="cls-3" x1="5" y1="14.86" x2="47" y2="14.86"/><line class="cls-2" x1="49" y1="14.86" x2="49" y2="14.86"/><polygon class="cls-2" points="49 14.86 25 1 1 14.86 25 28.71 49 14.86"/><polygon class="cls-2" points="49 46.86 25 60.71 25 28.71 49 14.86 49 46.86"/><polygon class="cls-2" points="1 46.86 25 60.71 25 28.71 1 14.86 1 46.86"/><rect class="cls-4" x="33" y="30.86" width="16" height="16"/><path class="cls-4" d="M33,30.86H49c0-3.55-2.34-7.1-7-9.8A30,30,0,0,0,33,17.79"/><path class="cls-4" d="M17,17.8A29.94,29.94,0,0,0,8,21.06c-4.69,2.7-7,6.25-7,9.8S3.34,38,8,40.65s10.83,4.06,17,4.06V35.48a11.61,11.61,0,0,1-5.66-1.36A4,4,0,0,1,17,30.86"/><path class="cls-4" d="M1,30.86v16C1,50.4,3.34,54,8,56.65s10.83,4.06,17,4.06v-16c-6.14,0-12.28-1.35-17-4.06S1,34.4,1,30.86Z"/><path class="cls-4" d="M25,51.48c4.42,0,8-2.07,8-4.62v-32c0,2.55-3.58,4.62-8,4.62s-8-2.07-8-4.62v16"/><ellipse class="cls-4" cx="25" cy="14.86" rx="8" ry="4.62"/></g></g></svg>