<svg xmlns="http://www.w3.org/2000/svg" width="50" height="61.71" viewBox="0 0 50 61.71"><defs><style>.cls-1{fill:#d5dae0;}.cls-2,.cls-3,.cls-4{fill:none;stroke-linecap:round;stroke-linejoin:round;stroke-width:2px;}.cls-2,.cls-3{stroke:#d5dae0;}.cls-3{stroke-dasharray:0 4;}.cls-4{stroke:#627386;}</style></defs><title>wire_16</title><g id="Layer_2" data-name="Layer 2"><g id="Layer_1-2" data-name="Layer 1"><line class="cls-1" x1="1" y1="46.86" x2="49" y2="46.86"/><line class="cls-2" x1="1" y1="46.86" x2="1" y2="46.86"/><line class="cls-3" x1="5" y1="46.86" x2="47" y2="46.86"/><line class="cls-2" x1="49" y1="46.86" x2="49" y2="46.86"/><line class="cls-1" x1="1" y1="14.86" x2="49" y2="14.86"/><line class="cls-2" x1="1" y1="14.86" x2="1" y2="14.86"/><line class="cls-3" x1="5" y1="14.86" x2="47" y2="14.86"/><line class="cls-2" x1="49" y1="14.86" x2="49" y2="14.86"/><polygon class="cls-2" points="49 14.86 25 1 1 14.86 25 28.71 49 14.86"/><polygon class="cls-2" points="49 46.86 25 60.71 25 28.71 49 14.86 49 46.86"/><polygon class="cls-2" points="1 46.86 25 60.71 25 28.71 1 14.86 1 46.86"/><path class="cls-4" d="M1,30.86v16C1,50.4,3.34,54,8,56.65c9.37,5.42,24.57,5.42,33.94,0,4.69-2.7,7-6.25,7-9.79v-16"/><ellipse class="cls-4" cx="25" cy="30.86" rx="24" ry="13.86"/></g></g></svg>