<svg xmlns="http://www.w3.org/2000/svg" width="74" height="58.34" viewBox="0 0 74 58.34"><defs><style>.cls-1{fill:#bde4fd;}.cls-1,.cls-2,.cls-3{stroke:#1b6dc6;stroke-linecap:round;stroke-linejoin:round;stroke-width:2px;}.cls-2{fill:#e9f6fe;}.cls-3{fill:#fff;}.cls-4{fill:#91d2fb;}</style></defs><title>block_02_1</title><g id="Layer_2" data-name="Layer 2"><g id="Layer_1-2" data-name="Layer 1"><path class="cls-1" d="M73,36.55V21.78H53.77l-13.9-8a6.31,6.31,0,0,0-5.74,0l-13.9,8H1V36.55a2,2,0,0,0,1.19,1.66L34.13,56.65a6.31,6.31,0,0,0,5.74,0L71.81,38.21A2,2,0,0,0,73,36.55Z"/><path class="cls-1" d="M3.77,21.78H1V36.55a2,2,0,0,0,1.19,1.66l1.58.91Z"/><path class="cls-2" d="M73,36.55V21.78H53.77l-13.9-8a6.31,6.31,0,0,0-5.74,0l-13.9,8H1V36.55a2,2,0,0,0,1.19,1.66L34.13,56.65a6.31,6.31,0,0,0,5.74,0L71.81,38.21A2,2,0,0,0,73,36.55Z"/><path class="cls-1" d="M71.81,38.21A2,2,0,0,0,73,36.55V21.78H53.77l-13.9-8V56.65Z"/><path class="cls-3" d="M71.81,23.44,39.87,41.88a6.31,6.31,0,0,1-5.74,0L2.19,23.44C.6,22.53.6,21,2.19,20.13L34.13,1.69a6.31,6.31,0,0,1,5.74,0L71.81,20.13C73.4,21,73.4,22.53,71.81,23.44Z"/><path class="cls-4" d="M37.94,27.66a.24.24,0,0,1-.11.14L34.6,29.66a.56.56,0,0,1-.39.05c-.15,0-.25-.12-.23-.21l.93-6.26c0-.14-.19-.26-.43-.25l-10.87.51a.51.51,0,0,1-.34-.08c-.11-.09-.09-.2,0-.27l3.1-1.8a.7.7,0,0,1,.23-.06l11.8-.58h.1c.19,0,.34.08.33.18V21Z"/><path class="cls-4" d="M38.71,19.72c.19,0,.34-.1.35-.21l.87-5.43c0-.08,0-.15-.15-.2a.56.56,0,0,0-.46,0l-3.11,1.8a.2.2,0,0,0-.11.13l-.66,3.78c0,.14.18.25.42.24Z"/><path class="cls-4" d="M40.56,20.81c0-.11.16-.2.35-.21l9.48-.55a.46.46,0,0,1,.34.09c.11.08.09.19,0,.27l-3.1,1.79a.7.7,0,0,1-.23.06l-6.57.35c-.24,0-.44-.11-.42-.25Z"/><ellipse class="cls-4" cx="37" cy="5.07" rx="1.52" ry="0.88"/><ellipse class="cls-4" cx="37" cy="38.49" rx="1.52" ry="0.88"/><ellipse class="cls-4" cx="8.06" cy="21.78" rx="1.52" ry="0.88"/><ellipse class="cls-4" cx="65.94" cy="21.78" rx="1.52" ry="0.88"/><line class="cls-1" x1="68.59" y1="32.69" x2="67.46" y2="33.34"/><line class="cls-1" x1="62.79" y1="36.04" x2="44.29" y2="46.72"/></g></g></svg>