<svg xmlns="http://www.w3.org/2000/svg" width="100" height="74.91" viewBox="0 0 100 74.91"><defs><style>.cls-1,.cls-6{fill:#bde4fd;}.cls-1,.cls-2,.cls-4,.cls-5{stroke:#1b6dc6;}.cls-1,.cls-2,.cls-3,.cls-4,.cls-5{stroke-linecap:round;stroke-linejoin:round;stroke-width:2px;}.cls-2{fill:#e9f6fe;}.cls-3,.cls-5{fill:none;}.cls-3{stroke:#bde4fd;}.cls-4{fill:#fff;}</style></defs><title>cluster_01</title><g id="Layer_2" data-name="Layer 2"><g id="Layer_4" data-name="Layer 4"><polygon class="cls-1" points="99 45.62 50 73.91 50 57.58 99 29.29 99 45.62"/><polygon class="cls-2" points="1 45.62 50 73.91 50 57.58 1 29.29 1 45.62"/><polygon class="cls-3" points="12.89 52.49 38.11 67.05 38.11 60.93 12.89 46.37 12.89 52.49"/><polygon class="cls-4" points="99 29.29 50 1 1 29.29 50 57.58 99 29.29"/><polygon class="cls-5" points="1 45.62 50 73.91 50 57.58 1 29.29 1 45.62"/><line class="cls-3" x1="8.36" y1="43.75" x2="6.36" y2="42.6"/><path class="cls-6" d="M34.06,30.09a.71.71,0,0,1-.34-.09l-4.79-2.76c-.15-.09-.22-.22-.14-.34a.65.65,0,0,1,.55-.2l16.1.8c.36,0,.66-.16.63-.37l-1.31-9.31c0-.12.06-.23.22-.3a.83.83,0,0,1,.69,0l4.61,2.66a.32.32,0,0,1,.16.19L52,30.52v.09c0,.16-.2.29-.47.29h-.18Z"/><path class="cls-6" d="M54.48,30.75c0,.17.25.3.53.31l14,.74a.74.74,0,0,0,.51-.13c.16-.12.13-.29-.06-.4l-4.61-2.66a.76.76,0,0,0-.33-.09L54.77,28c-.36,0-.65.16-.63.36Z"/><path class="cls-6" d="M51.69,32.34c.28,0,.5.14.53.3l1.42,8.13c0,.11-.06.22-.22.29a.85.85,0,0,1-.7,0l-4.61-2.66a.27.27,0,0,1-.15-.19l-.89-5.63c0-.2.26-.38.62-.36Z"/></g></g></svg>