<svg xmlns="http://www.w3.org/2000/svg" width="90.67" height="97.53" viewBox="0 0 90.67 97.53"><defs><style>.cls-1{fill:#d5dae0;}.cls-1,.cls-3,.cls-4{stroke:#627386;}.cls-1,.cls-3,.cls-4,.cls-5,.cls-6,.cls-7{stroke-linecap:round;stroke-linejoin:round;stroke-width:2px;}.cls-2,.cls-4,.cls-7{fill:#fff;}.cls-3{fill:#f2f4f6;}.cls-5,.cls-8{fill:#fccccc;}.cls-5,.cls-6,.cls-7{stroke:#c44556;}.cls-6{fill:#fddddd;}</style></defs><title>node_03</title><g id="Layer_2" data-name="Layer 2"><g id="Layer_1-2" data-name="Layer 1"><polygon class="cls-1" points="89.67 70.93 45.33 96.53 45.33 81.75 89.67 56.15 89.67 70.93"/><ellipse class="cls-2" cx="50.89" cy="85.93" rx="1.46" ry="0.83" transform="translate(-48.11 99.11) rotate(-66.95)"/><line class="cls-1" x1="73.04" y1="73.14" x2="61.96" y2="79.54"/><polygon class="cls-3" points="1 70.93 45.33 96.53 45.33 81.75 1 56.15 1 70.93"/><polygon class="cls-4" points="89.67 56.15 45.33 30.56 1 56.15 45.33 81.75 89.67 56.15"/><polygon class="cls-1" points="89.67 56.15 45.33 81.75 45.33 66.97 89.67 41.37 89.67 56.15"/><ellipse class="cls-2" cx="50.89" cy="71.15" rx="1.46" ry="0.83" transform="translate(-34.51 90.12) rotate(-66.95)"/><line class="cls-1" x1="73.04" y1="58.36" x2="61.96" y2="64.76"/><polygon class="cls-3" points="1 56.15 45.33 81.75 45.33 66.97 1 41.37 1 56.15"/><polygon class="cls-4" points="89.67 41.37 45.33 15.78 1 41.37 45.33 66.97 89.67 41.37"/><polygon class="cls-5" points="89.67 41.37 45.33 66.97 45.33 52.19 89.67 26.6 89.67 41.37"/><polygon class="cls-6" points="1 41.37 45.33 66.97 45.33 52.19 1 26.6 1 41.37"/><polygon class="cls-7" points="89.67 26.6 45.33 1 1 26.6 45.33 52.19 89.67 26.6"/><path class="cls-8" d="M31.66,25.8a.59.59,0,0,0-.31.08L27,28.38c-.14.08-.2.2-.13.3a.56.56,0,0,0,.5.19L42,28.15c.32,0,.6.14.57.33l-1.19,8.43c0,.1,0,.2.2.26a.74.74,0,0,0,.62,0l4.17-2.41a.28.28,0,0,0,.15-.17l1.36-9.15v-.08c0-.14-.18-.26-.42-.26h-.17Z"/><path class="cls-8" d="M50.14,25.2c0-.15.22-.26.48-.28l12.64-.67a.69.69,0,0,1,.46.12c.14.11.11.26-.06.36l-4.17,2.41a.82.82,0,0,1-.3.08l-8.79.52c-.33,0-.6-.14-.57-.33Z"/><path class="cls-8" d="M47.61,23.77c.25,0,.46-.13.48-.28l1.28-7.35c0-.1,0-.2-.2-.26a.77.77,0,0,0-.63,0l-4.17,2.41a.23.23,0,0,0-.14.17l-.8,5.09c0,.19.24.35.56.33Z"/><ellipse class="cls-2" cx="50.89" cy="56.38" rx="1.46" ry="0.83" transform="translate(-20.91 81.13) rotate(-66.95)"/><line class="cls-5" x1="73.04" y1="43.58" x2="61.96" y2="49.98"/></g></g></svg>