<svg xmlns="http://www.w3.org/2000/svg" width="141.64" height="76.05" viewBox="0 0 141.64 76.05"><defs><style>.cls-1{fill:#bde4fd;}.cls-2{fill:#fff;}.cls-3{fill:#e9f6fe;}.cls-4{fill:#1b6dc6;}.cls-5,.cls-6{fill:none;stroke-linecap:round;stroke-linejoin:round;stroke-width:2px;}.cls-5{stroke:#1b6dc6;}.cls-6{stroke:#bde4fd;}</style></defs><title>vm_01</title><g id="Layer_2" data-name="Layer 2"><g id="Layer_1-2" data-name="Layer 1"><polygon class="cls-1" points="140.64 29.8 140.61 46.39 115.76 60.69 115.74 44.13 140.64 29.8"/><path class="cls-2" d="M140.64,29.8l-24.9,14.33L90.88,29.73l24.9-14.33Zm-17.75,0c0-2.29-3.21-4.15-7.18-4.15s-7.18,1.86-7.18,4.15S111.75,34,115.71,34,122.89,32.09,122.89,29.8Z"/><ellipse class="cls-2" cx="115.71" cy="29.8" rx="7.18" ry="4.15"/><polygon class="cls-3" points="115.76 60.69 115.76 60.72 115.74 60.71 115.76 60.69"/><polygon class="cls-3" points="115.74 44.13 115.76 60.69 115.74 60.71 115.71 60.69 115.74 44.13"/><polygon class="cls-3" points="115.74 44.13 115.71 60.69 90.86 46.39 90.84 29.8 115.74 44.13"/><polygon class="cls-1" points="115.74 60.71 115.71 60.72 115.71 60.69 115.74 60.71"/><polygon class="cls-1" points="75.68 15.4 75.66 31.99 65.14 38.05 50.78 29.73 75.68 15.4"/><path class="cls-2" d="M75.68,15.4,50.78,29.73l0,14.46h0c-1.32,0-2.39.62-2.39,1.38S49.43,47,50.75,47s2.4-.62,2.4-1.38a.86.86,0,0,0-.18-.52l12.17-7,10.5,6.08L50.74,58.46,1,29.66,50.82,1Zm-22.48-7C53.2,7.6,52.13,7,50.8,7s-2.39.62-2.39,1.39,1.07,1.38,2.39,1.38S53.2,9.13,53.2,8.37Zm-37,21.31c0-.76-1.07-1.38-2.39-1.38s-2.39.62-2.39,1.38,1.07,1.38,2.39,1.38S16.16,30.44,16.16,29.68Z"/><polygon class="cls-1" points="75.64 44.13 75.62 60.72 50.72 75.05 50.74 58.46 75.64 44.13"/><path class="cls-2" d="M65.14,38.05,53,45.05a2.76,2.76,0,0,0-2.21-.86l0-14.46Z"/><path class="cls-4" d="M53,45.05l-2.21,1.27V44.19A2.76,2.76,0,0,1,53,45.05Z"/><path class="cls-4" d="M50.8,7c1.33,0,2.4.62,2.4,1.39s-1.07,1.38-2.4,1.38-2.39-.62-2.39-1.38S49.48,7,50.8,7Z"/><polygon class="cls-3" points="50.74 58.46 50.72 75.05 1 46.25 1.02 29.66 50.74 58.46"/><path class="cls-4" d="M50.76,46.32,53,45.05a.86.86,0,0,1,.18.52c0,.76-1.08,1.38-2.4,1.38s-2.39-.62-2.39-1.38,1.07-1.38,2.39-1.38h0Z"/><ellipse class="cls-4" cx="13.77" cy="29.68" rx="2.39" ry="1.38"/><polyline class="cls-5" points="75.68 15.4 75.66 31.99 65.14 38.05"/><polyline class="cls-5" points="1.02 29.66 1 46.25 50.72 75.05"/><polyline class="cls-5" points="75.64 44.13 65.14 38.05 50.78 29.73 75.68 15.4 50.82 1 1.02 29.66 50.74 58.46"/><polygon class="cls-5" points="75.64 44.13 75.62 60.72 50.72 75.05 50.74 58.46 75.64 44.13"/><polyline class="cls-5" points="115.74 60.71 115.71 60.72 115.71 60.69"/><polyline class="cls-5" points="140.64 29.8 140.61 46.39 115.76 60.69"/><polygon class="cls-5" points="140.64 29.8 115.78 15.4 90.88 29.73 115.74 44.13 140.64 29.8"/><polygon class="cls-5" points="115.74 44.13 90.84 29.8 90.86 46.39 115.71 60.69 115.74 60.71 115.76 60.72 115.76 60.69 115.74 44.13"/><ellipse class="cls-6" cx="115.71" cy="29.8" rx="7.18" ry="4.15"/></g></g></svg>