<svg xmlns="http://www.w3.org/2000/svg" viewBox="0 0 49.13 42.24"><defs><style>.cls-1{fill:#ebebeb;}.cls-2{fill:#deeaff;}.cls-3{fill:none;stroke:#304d9d;stroke-linejoin:round;stroke-width:0.5px;}.cls-4{fill:#fff;}.cls-5{fill:#98b9ea;}.cls-6{fill:#b6cd5b;}</style></defs><title>2_Node</title><g id="Layer_2" data-name="Layer 2"><g id="Layer_1-2" data-name="Layer 1"><polygon class="cls-1" points="24.06 42.24 0.93 33.76 24.06 25.27 47.19 33.76 24.06 42.24"/><polygon class="cls-2" points="0.25 23.1 24.56 32.01 24.56 26.49 0.25 17.58 0.25 23.1"/><polygon class="cls-3" points="0.25 23.1 24.56 32.01 24.56 26.49 0.25 17.58 0.25 23.1"/><polygon class="cls-4" points="48.88 23.1 24.56 32.01 24.56 26.49 48.88 17.58 48.88 23.1"/><polygon class="cls-3" points="48.88 23.1 24.56 32.01 24.56 26.49 48.88 17.58 48.88 23.1"/><polygon class="cls-5" points="24.56 26.49 0.25 17.58 24.56 8.66 48.88 17.58 24.56 26.49"/><polygon class="cls-3" points="24.56 26.49 0.25 17.58 24.56 8.66 48.88 17.58 24.56 26.49"/><path class="cls-6" d="M28.89,27.78a2.11,2.11,0,0,1-1.4,1.86,1,1,0,0,1-1.41-.94,2.13,2.13,0,0,1,1.41-1.87,1,1,0,0,1,1.4,1"/><path class="cls-6" d="M32.9,26.3a2.11,2.11,0,0,1-1.4,1.86,1,1,0,0,1-1.41-.94,2.13,2.13,0,0,1,1.41-1.87,1,1,0,0,1,1.4.95"/><polygon class="cls-2" points="0.25 14.69 24.56 23.6 24.56 18.08 0.25 9.17 0.25 14.69"/><polygon class="cls-3" points="0.25 14.69 24.56 23.6 24.56 18.08 0.25 9.17 0.25 14.69"/><polygon class="cls-4" points="48.88 14.69 24.56 23.6 24.56 18.08 48.88 9.17 48.88 14.69"/><polygon class="cls-3" points="48.88 14.69 24.56 23.6 24.56 18.08 48.88 9.17 48.88 14.69"/><polygon class="cls-5" points="24.56 18.08 0.25 9.17 24.56 0.25 48.88 9.17 24.56 18.08"/><polygon class="cls-3" points="24.56 18.08 0.25 9.17 24.56 0.25 48.88 9.17 24.56 18.08"/><path class="cls-6" d="M28.89,19.37a2.11,2.11,0,0,1-1.4,1.86,1,1,0,0,1-1.41-.94,2.13,2.13,0,0,1,1.41-1.87,1,1,0,0,1,1.4.95"/><path class="cls-6" d="M32.9,17.89a2.11,2.11,0,0,1-1.4,1.86,1,1,0,0,1-1.41-.94,2.13,2.13,0,0,1,1.41-1.87,1,1,0,0,1,1.4.95"/></g></g></svg>