<svg xmlns="http://www.w3.org/2000/svg" viewBox="0 0 46.72 49.36"><defs><style>.cls-1{fill:#ebebeb;}.cls-2{fill:#c4d36c;}.cls-3,.cls-5{fill:none;stroke-linejoin:round;stroke-width:0.5px;}.cls-3{stroke:#b6cd5b;}.cls-4{fill:#deeaff;}.cls-5{stroke:#304d9d;}.cls-6{fill:#fff;}.cls-7{fill:#98b9ea;}.cls-8{fill:#dfeab0;}</style></defs><title>Acropolis_file_services</title><g id="Layer_2" data-name="Layer 2"><g id="Layer_1-2" data-name="Layer 1"><polygon class="cls-1" points="23.13 49.36 0 40.88 23.13 32.4 46.26 40.88 23.13 49.36"/><polygon class="cls-2" points="2.8 20.88 10.81 44.64 36.82 35.62 28.81 11.86 2.8 20.88"/><polygon class="cls-3" points="2.8 20.88 10.81 44.64 36.82 35.62 28.81 11.86 2.8 20.88"/><polygon class="cls-4" points="21.14 20.5 29.41 23.54 29.41 13.69 21.14 10.65 21.14 20.5"/><polygon class="cls-5" points="21.14 20.5 29.41 23.54 29.41 13.69 21.14 10.65 21.14 20.5"/><polygon class="cls-6" points="37.67 20.6 29.41 23.54 29.41 13.69 37.67 10.75 37.67 20.6"/><polygon class="cls-5" points="37.67 20.6 29.41 23.54 29.41 13.69 37.67 10.75 37.67 20.6"/><polygon class="cls-7" points="29.41 13.69 21.14 10.65 29.41 7.71 37.67 10.75 29.41 13.69"/><polygon class="cls-5" points="29.41 13.69 21.14 10.65 29.41 7.71 37.67 10.75 29.41 13.69"/><polygon class="cls-4" points="8.59 25.1 16.85 28.15 16.85 18.3 8.59 15.26 8.59 25.1"/><polygon class="cls-5" points="8.59 25.1 16.85 28.15 16.85 18.3 8.59 15.26 8.59 25.1"/><polygon class="cls-6" points="25.12 25.21 16.85 28.15 16.85 18.3 25.12 15.36 25.12 25.21"/><polygon class="cls-5" points="25.12 25.21 16.85 28.15 16.85 18.3 25.12 15.36 25.12 25.21"/><polygon class="cls-7" points="16.85 18.3 8.59 15.26 16.85 12.32 25.12 15.36 16.85 18.3"/><polygon class="cls-5" points="16.85 18.3 8.59 15.26 16.85 12.32 25.12 15.36 16.85 18.3"/><polygon class="cls-4" points="14.62 13.04 22.89 16.08 22.89 6.23 14.62 3.19 14.62 13.04"/><polygon class="cls-5" points="14.62 13.04 22.89 16.08 22.89 6.23 14.62 3.19 14.62 13.04"/><polygon class="cls-6" points="31.16 13.14 22.89 16.08 22.89 6.23 31.16 3.29 31.16 13.14"/><polygon class="cls-5" points="31.16 13.14 22.89 16.08 22.89 6.23 31.16 3.29 31.16 13.14"/><polygon class="cls-7" points="22.89 6.23 14.62 3.19 22.89 0.25 31.16 3.29 22.89 6.23"/><polygon class="cls-5" points="22.89 6.23 14.62 3.19 22.89 0.25 31.16 3.29 22.89 6.23"/><polygon class="cls-8" points="41.48 16.27 43.15 13.07 33.24 16.59 31.56 19.82 20.46 23.53 10.81 44.64 36.82 35.62 46.47 14.51 41.48 16.27"/><polygon class="cls-3" points="41.48 16.27 43.15 13.07 33.24 16.59 31.56 19.82 20.46 23.53 10.81 44.64 36.82 35.62 46.47 14.51 41.48 16.27"/></g></g></svg>