<svg xmlns="http://www.w3.org/2000/svg" viewBox="0 0 46.76 49.58"><defs><style>.cls-1{fill:#ebebeb;}.cls-2{fill:#deeaff;}.cls-3,.cls-7{fill:none;stroke-linejoin:round;stroke-width:0.5px;}.cls-3{stroke:#304d9d;}.cls-4{fill:#fff;}.cls-5{fill:#98b9ea;}.cls-6{fill:#c4d36c;}.cls-7{stroke:#b6cd5b;}.cls-8{fill:#dfeab0;}</style></defs><title>Acropolis_Block_Services</title><g id="Layer_2" data-name="Layer 2"><g id="Layer_1-2" data-name="Layer 1"><polygon class="cls-1" points="23.38 49.58 0.25 41.1 23.38 32.62 46.51 41.1 23.38 49.58"/><polygon class="cls-2" points="0.25 36.22 7.96 39.06 7.96 29.87 0.25 27.04 0.25 36.22"/><polygon class="cls-3" points="0.25 36.22 7.96 39.06 7.96 29.87 0.25 27.04 0.25 36.22"/><polygon class="cls-4" points="15.67 36.32 7.96 39.06 7.96 29.87 15.67 27.13 15.67 36.32"/><polygon class="cls-3" points="15.67 36.32 7.96 39.06 7.96 29.87 15.67 27.13 15.67 36.32"/><polygon class="cls-5" points="7.96 29.87 0.25 27.04 7.96 24.29 15.67 27.13 7.96 29.87"/><polygon class="cls-3" points="7.96 29.87 0.25 27.04 7.96 24.29 15.67 27.13 7.96 29.87"/><polygon class="cls-2" points="15.67 36.22 23.38 39.06 23.38 29.87 15.67 27.04 15.67 36.22"/><polygon class="cls-3" points="15.67 36.22 23.38 39.06 23.38 29.87 15.67 27.04 15.67 36.22"/><polygon class="cls-4" points="31.09 36.32 23.38 39.06 23.38 29.87 31.09 27.13 31.09 36.32"/><polygon class="cls-3" points="31.09 36.32 23.38 39.06 23.38 29.87 31.09 27.13 31.09 36.32"/><polygon class="cls-6" points="23.38 29.87 31.09 27.04 23.38 24.29 15.67 27.13 23.38 29.87"/><polygon class="cls-7" points="23.38 29.87 31.09 27.04 23.38 24.29 15.67 27.13 23.38 29.87"/><polygon class="cls-2" points="7.96 24.2 15.67 27.04 15.67 17.85 7.96 15.01 7.96 24.2"/><polygon class="cls-3" points="7.96 24.2 15.67 27.04 15.67 17.85 7.96 15.01 7.96 24.2"/><polygon class="cls-5" points="15.67 17.85 7.96 15.01 15.67 12.27 23.38 15.11 15.67 17.85"/><polygon class="cls-3" points="15.67 17.85 7.96 15.01 15.67 12.27 23.38 15.11 15.67 17.85"/><polygon class="cls-2" points="15.67 12.18 23.38 15.01 23.38 5.83 15.67 2.99 15.67 12.18"/><polygon class="cls-3" points="15.67 12.18 23.38 15.01 23.38 5.83 15.67 2.99 15.67 12.18"/><polygon class="cls-8" points="23.38 24.3 31.09 27.04 31.09 17.85 23.38 15.11 23.38 24.3"/><polygon class="cls-7" points="23.38 24.3 31.09 27.04 31.09 17.85 23.38 15.11 23.38 24.3"/><polygon class="cls-4" points="31.09 12.27 23.38 15.01 23.38 5.83 31.09 3.09 31.09 12.27"/><polygon class="cls-3" points="31.09 12.27 23.38 15.01 23.38 5.83 31.09 3.09 31.09 12.27"/><polygon class="cls-5" points="23.38 5.83 15.67 2.99 23.38 0.25 31.09 3.09 23.38 5.83"/><polygon class="cls-3" points="23.38 5.83 15.67 2.99 23.38 0.25 31.09 3.09 23.38 5.83"/><polygon class="cls-4" points="38.8 24.3 31.09 27.04 31.09 17.85 38.8 15.11 38.8 24.3"/><polygon class="cls-3" points="38.8 24.3 31.09 27.04 31.09 17.85 38.8 15.11 38.8 24.3"/><polygon class="cls-5" points="31.09 17.85 23.38 15.01 31.09 12.27 38.8 15.11 31.09 17.85"/><polygon class="cls-3" points="31.09 17.85 23.38 15.01 31.09 12.27 38.8 15.11 31.09 17.85"/><polygon class="cls-4" points="23.38 24.2 15.67 27.04 15.67 17.85 23.38 15.01 23.38 24.2"/><polygon class="cls-7" points="23.38 24.2 15.67 27.04 15.67 17.85 23.38 15.01 23.38 24.2"/><polygon class="cls-2" points="31.09 36.22 38.8 39.06 38.8 29.87 31.09 27.04 31.09 36.22"/><polygon class="cls-3" points="31.09 36.22 38.8 39.06 38.8 29.87 31.09 27.04 31.09 36.22"/><polygon class="cls-4" points="46.51 36.32 38.8 39.06 38.8 29.87 46.51 27.13 46.51 36.32"/><polygon class="cls-3" points="46.51 36.32 38.8 39.06 38.8 29.87 46.51 27.13 46.51 36.32"/><polygon class="cls-5" points="38.8 29.87 31.09 27.04 38.8 24.29 46.51 27.13 38.8 29.87"/><polygon class="cls-3" points="38.8 29.87 31.09 27.04 38.8 24.29 46.51 27.13 38.8 29.87"/></g></g></svg>