<svg xmlns="http://www.w3.org/2000/svg" viewBox="0 0 47.34 49.45"><defs><style>.cls-1{fill:#ebebeb;}.cls-2{fill:#deeaff;}.cls-3,.cls-6{fill:none;stroke:#304d9d;stroke-linejoin:round;stroke-width:0.5px;}.cls-4{fill:#fff;}.cls-5{fill:#98b9ea;}.cls-6{stroke-linecap:round;}</style></defs><title>Acropolis_container_services</title><g id="Layer_2" data-name="Layer 2"><g id="Layer_1-2" data-name="Layer 1"><polygon class="cls-1" points="23.67 49.45 0.54 40.97 23.67 32.48 46.8 40.97 23.67 49.45"/><polygon class="cls-2" points="23.67 33.98 6.24 40.34 6.24 31.21 23.67 24.85 23.67 33.98"/><polygon class="cls-3" points="23.67 33.98 6.24 40.34 6.24 31.21 23.67 24.85 23.67 33.98"/><polygon class="cls-4" points="0.25 38.21 6.24 40.34 6.24 31.21 0.25 29.08 0.25 38.21"/><polygon class="cls-3" points="0.25 38.21 6.24 40.34 6.24 31.21 0.25 29.08 0.25 38.21"/><polygon class="cls-5" points="6.24 31.21 23.67 24.85 17.68 22.72 0.25 29.08 6.24 31.21"/><polygon class="cls-3" points="6.24 31.21 23.67 24.85 17.68 22.72 0.25 29.08 6.24 31.21"/><polygon class="cls-2" points="35.38 33.98 17.95 40.34 17.95 31.21 35.38 24.85 35.38 33.98"/><polygon class="cls-3" points="35.38 33.98 17.95 40.34 17.95 31.21 35.38 24.85 35.38 33.98"/><polygon class="cls-4" points="11.96 38.21 17.95 40.34 17.95 31.21 11.96 29.08 11.96 38.21"/><polygon class="cls-3" points="11.96 38.21 17.95 40.34 17.95 31.21 11.96 29.08 11.96 38.21"/><polygon class="cls-5" points="17.95 31.21 35.38 24.85 29.39 22.72 11.96 29.08 17.95 31.21"/><polygon class="cls-3" points="17.95 31.21 35.38 24.85 29.39 22.72 11.96 29.08 17.95 31.21"/><polygon class="cls-2" points="47.09 33.98 29.66 40.34 29.66 31.21 47.09 24.85 47.09 33.98"/><polygon class="cls-3" points="47.09 33.98 29.66 40.34 29.66 31.21 47.09 24.85 47.09 33.98"/><polygon class="cls-4" points="23.67 38.21 29.66 40.34 29.66 31.21 23.67 29.08 23.67 38.21"/><polygon class="cls-3" points="23.67 38.21 29.66 40.34 29.66 31.21 23.67 29.08 23.67 38.21"/><polygon class="cls-5" points="29.66 31.21 47.09 24.85 41.1 22.72 23.67 29.08 29.66 31.21"/><polygon class="cls-3" points="29.66 31.21 47.09 24.85 41.1 22.72 23.67 29.08 29.66 31.21"/><polygon class="cls-2" points="29.18 22.77 16.02 27.58 16.02 18.45 29.18 13.64 29.18 22.77"/><polygon class="cls-3" points="29.18 22.77 16.02 27.58 16.02 18.45 29.18 13.64 29.18 22.77"/><polygon class="cls-4" points="10.04 25.45 16.02 27.58 16.02 18.45 10.04 16.32 10.04 25.45"/><polygon class="cls-3" points="10.04 25.45 16.02 27.58 16.02 18.45 10.04 16.32 10.04 25.45"/><polygon class="cls-5" points="16.02 18.45 29.18 13.64 23.2 11.51 10.04 16.32 16.02 18.45"/><polygon class="cls-3" points="16.02 18.45 29.18 13.64 23.2 11.51 10.04 16.32 16.02 18.45"/><polygon class="cls-2" points="34.96 11.51 24.78 15.15 24.78 6.02 34.96 2.38 34.96 11.51"/><polygon class="cls-3" points="34.96 11.51 24.78 15.15 24.78 6.02 34.96 2.38 34.96 11.51"/><polygon class="cls-4" points="18.8 13.02 24.78 15.15 24.78 6.02 18.8 3.89 18.8 13.02"/><polygon class="cls-3" points="18.8 13.02 24.78 15.15 24.78 6.02 18.8 3.89 18.8 13.02"/><polygon class="cls-5" points="24.78 6.02 34.96 2.38 28.98 0.25 18.8 3.89 24.78 6.02"/><polygon class="cls-3" points="24.78 6.02 34.96 2.38 28.98 0.25 18.8 3.89 24.78 6.02"/><polygon class="cls-2" points="40.89 22.77 27.73 27.58 27.73 18.45 40.89 13.64 40.89 22.77"/><polygon class="cls-3" points="40.89 22.77 27.73 27.58 27.73 18.45 40.89 13.64 40.89 22.77"/><polygon class="cls-4" points="21.75 25.45 27.73 27.58 27.73 18.45 21.75 16.32 21.75 25.45"/><polygon class="cls-3" points="21.75 25.45 27.73 27.58 27.73 18.45 21.75 16.32 21.75 25.45"/><polygon class="cls-5" points="27.73 18.45 40.89 13.64 34.91 11.51 21.75 16.32 27.73 18.45"/><polygon class="cls-3" points="27.73 18.45 40.89 13.64 34.91 11.51 21.75 16.32 27.73 18.45"/><line class="cls-6" x1="33.31" y1="4.77" x2="33.31" y2="10.21"/><line class="cls-6" x1="31.32" y1="5.4" x2="31.32" y2="10.83"/><line class="cls-6" x1="29.32" y1="6.02" x2="29.32" y2="11.46"/><line class="cls-6" x1="27.33" y1="6.65" x2="27.33" y2="12.08"/><line class="cls-6" x1="39.3" y1="16.11" x2="39.3" y2="21.54"/><line class="cls-6" x1="37.41" y1="16.81" x2="37.41" y2="22.24"/><line class="cls-6" x1="35.53" y1="17.51" x2="35.53" y2="22.95"/><line class="cls-6" x1="33.64" y1="18.21" x2="33.64" y2="23.65"/><line class="cls-6" x1="31.76" y1="18.91" x2="31.76" y2="24.35"/><line class="cls-6" x1="29.87" y1="19.62" x2="29.87" y2="25.05"/><line class="cls-6" x1="45.41" y1="27.39" x2="45.41" y2="32.83"/><line class="cls-6" x1="43.52" y1="28.09" x2="43.52" y2="33.53"/><line class="cls-6" x1="41.64" y1="28.79" x2="41.64" y2="34.23"/><line class="cls-6" x1="39.75" y1="29.5" x2="39.75" y2="34.93"/><line class="cls-6" x1="37.87" y1="30.2" x2="37.87" y2="35.64"/><line class="cls-6" x1="35.98" y1="30.9" x2="35.98" y2="36.34"/><line class="cls-6" x1="34.12" y1="31.66" x2="34.12" y2="37.1"/><line class="cls-6" x1="32.23" y1="32.37" x2="32.23" y2="37.8"/><line class="cls-6" x1="20.1" y1="18.91" x2="20.1" y2="24.35"/><line class="cls-6" x1="18.21" y1="19.62" x2="18.21" y2="25.05"/><line class="cls-6" x1="22.13" y1="31.66" x2="22.13" y2="37.1"/><line class="cls-6" x1="20.24" y1="32.37" x2="20.24" y2="37.8"/><line class="cls-6" x1="10.22" y1="31.66" x2="10.22" y2="37.1"/><line class="cls-6" x1="8.33" y1="32.37" x2="8.33" y2="37.8"/></g></g></svg>