<svg xmlns="http://www.w3.org/2000/svg" viewBox="0 0 46.26 49.59"><defs><style>.cls-1{fill:#ebebeb;}.cls-2{fill:#dfeab0;}.cls-3,.cls-7{fill:none;stroke-linejoin:round;stroke-width:0.5px;}.cls-3{stroke:#b6cd5b;}.cls-4{fill:#fff;}.cls-5{fill:#c4d36c;}.cls-6{fill:#deeaff;}.cls-7{stroke:#304d9d;}.cls-8{fill:#98b9ea;}</style></defs><title>any_to_any_freedom</title><g id="Layer_2" data-name="Layer 2"><g id="Layer_1-2" data-name="Layer 1"><polygon class="cls-1" points="23.13 49.59 0 41.1 23.13 32.62 46.26 41.1 23.13 49.59"/><polygon class="cls-2" points="22.49 14.94 31.99 18.43 31.99 7.12 22.49 3.63 22.49 14.94"/><polygon class="cls-3" points="22.49 14.94 31.99 18.43 31.99 7.12 22.49 3.63 22.49 14.94"/><polygon class="cls-4" points="41.48 15.06 31.99 18.43 31.99 7.12 41.48 3.75 41.48 15.06"/><polygon class="cls-3" points="41.48 15.06 31.99 18.43 31.99 7.12 41.48 3.75 41.48 15.06"/><polygon class="cls-5" points="31.99 7.12 22.49 3.63 31.99 0.25 41.48 3.74 31.99 7.12"/><polygon class="cls-3" points="31.99 7.12 22.49 3.63 31.99 0.25 41.48 3.74 31.99 7.12"/><polygon class="cls-6" points="1.6 26.21 11.1 29.7 11.1 18.39 1.6 14.9 1.6 26.21"/><polygon class="cls-7" points="1.6 26.21 11.1 29.7 11.1 18.39 1.6 14.9 1.6 26.21"/><polygon class="cls-4" points="20.59 26.33 11.1 29.7 11.1 18.39 20.59 15.01 20.59 26.33"/><polygon class="cls-7" points="20.59 26.33 11.1 29.7 11.1 18.39 20.59 15.01 20.59 26.33"/><polygon class="cls-8" points="11.1 18.39 1.6 14.9 11.1 11.52 20.59 15.01 11.1 18.39"/><polygon class="cls-7" points="11.1 18.39 1.6 14.9 11.1 11.52 20.59 15.01 11.1 18.39"/><polygon class="cls-6" points="22.49 35.08 31.99 38.58 31.99 27.26 22.49 23.77 22.49 35.08"/><polygon class="cls-7" points="22.49 35.08 31.99 38.58 31.99 27.26 22.49 23.77 22.49 35.08"/><polygon class="cls-4" points="41.48 35.2 31.99 38.58 31.99 27.26 41.48 23.89 41.48 35.2"/><polygon class="cls-7" points="41.48 35.2 31.99 38.58 31.99 27.26 41.48 23.89 41.48 35.2"/><polygon class="cls-8" points="31.99 27.26 22.49 23.77 31.99 20.39 41.48 23.89 31.99 27.26"/><polygon class="cls-7" points="31.99 27.26 22.49 23.77 31.99 20.39 41.48 23.89 31.99 27.26"/></g></g></svg>