<svg xmlns="http://www.w3.org/2000/svg" viewBox="0 0 50.5 47.06"><defs><style>.cls-1{fill:#ebebeb;}.cls-2{fill:#98b9ea;}.cls-3,.cls-6{fill:none;stroke-linejoin:round;stroke-width:0.5px;}.cls-3{stroke:#304d9d;}.cls-4{fill:#deeaff;}.cls-5{fill:#fff;}.cls-6{stroke:#b6cd5b;}.cls-7{fill:#dfeab0;}</style></defs><title>Arrows</title><g id="Layer_2" data-name="Layer 2"><g id="Layer_1-2" data-name="Layer 1"><polygon class="cls-1" points="25.25 47.06 2.12 38.58 25.25 30.1 48.38 38.58 25.25 47.06"/><polygon class="cls-2" points="45.41 20.55 34.22 12.43 34.22 20.7 17.45 27.1 17.45 35.93 34.22 29.52 34.22 36.8 45.41 20.55"/><polygon class="cls-3" points="45.41 20.55 34.22 12.43 34.22 20.7 17.45 27.1 17.45 35.93 34.22 29.52 34.22 36.8 45.41 20.55"/><polygon class="cls-4" points="22.3 37.81 17.48 35.98 17.48 27.02 22.3 28.84 22.3 37.81"/><polygon class="cls-3" points="22.3 37.81 17.48 35.98 17.48 27.02 22.3 28.84 22.3 37.81"/><polygon class="cls-5" points="17.48 27.02 34.22 20.7 39.07 22.48 22.3 28.84 17.48 27.02"/><polygon class="cls-3" points="17.48 27.02 34.22 20.7 39.07 22.48 22.3 28.84 17.48 27.02"/><polygon class="cls-4" points="34.22 20.7 39.07 22.48 39.07 14.21 34.22 12.43 34.22 20.7"/><polygon class="cls-3" points="34.22 20.7 39.07 22.48 39.07 14.21 34.22 12.43 34.22 20.7"/><polygon class="cls-4" points="39.07 31.31 34.22 29.52 34.22 36.8 39.07 38.58 39.07 31.31"/><polygon class="cls-3" points="39.07 31.31 34.22 29.52 34.22 36.8 39.07 38.58 39.07 31.31"/><polygon class="cls-2" points="50.25 22.34 39.07 14.21 39.07 22.48 22.3 28.89 22.3 37.71 39.07 31.31 39.07 38.58 50.25 22.34"/><polygon class="cls-3" points="50.25 22.34 39.07 14.21 39.07 22.48 22.3 28.89 22.3 37.71 39.07 31.31 39.07 38.58 50.25 22.34"/><polygon class="cls-2" points="5.1 8.37 16.28 0.25 16.28 8.52 33.05 14.93 33.05 23.75 16.28 17.34 16.28 24.62 5.1 8.37"/><polygon class="cls-3" points="5.1 8.37 16.28 0.25 16.28 8.52 33.05 14.93 33.05 23.75 16.28 17.34 16.28 24.62 5.1 8.37"/><polygon class="cls-5" points="28.2 25.63 33.02 23.81 33.02 14.84 28.2 16.67 28.2 25.63"/><polygon class="cls-6" points="28.2 25.63 33.02 23.81 33.02 14.84 28.2 16.67 28.2 25.63"/><polygon class="cls-5" points="33.02 14.84 16.28 8.52 11.43 10.31 28.2 16.67 33.02 14.84"/><polygon class="cls-6" points="33.02 14.84 16.28 8.52 11.43 10.31 28.2 16.67 33.02 14.84"/><polygon class="cls-5" points="16.28 8.52 11.43 10.31 11.43 2.04 16.28 0.25 16.28 8.52"/><polygon class="cls-6" points="16.28 8.52 11.43 10.31 11.43 2.04 16.28 0.25 16.28 8.52"/><polygon class="cls-5" points="11.43 19.13 16.28 17.34 16.28 24.62 11.43 26.41 11.43 19.13"/><polygon class="cls-6" points="11.43 19.13 16.28 17.34 16.28 24.62 11.43 26.41 11.43 19.13"/><polygon class="cls-7" points="0.25 10.16 11.43 2.04 11.43 10.31 28.2 16.71 28.2 25.54 11.43 19.13 11.43 26.41 0.25 10.16"/><polygon class="cls-6" points="0.25 10.16 11.43 2.04 11.43 10.31 28.2 16.71 28.2 25.54 11.43 19.13 11.43 26.41 0.25 10.16"/></g></g></svg>