<svg xmlns="http://www.w3.org/2000/svg" viewBox="0 0 47.34 47.11"><defs><style>.cls-1{fill:#ebebeb;}.cls-2,.cls-7{fill:none;stroke-linejoin:round;stroke-width:0.5px;}.cls-2{stroke:#b6cd5b;}.cls-3{fill:#c4d36c;}.cls-4{fill:#dfeab0;}.cls-5{fill:#fff;}.cls-6{fill:#deeaff;}.cls-7{stroke:#304d9d;}.cls-8{fill:#98b9ea;}</style></defs><title>Big_data</title><g id="Layer_2" data-name="Layer 2"><g id="Layer_1-2" data-name="Layer 1"><polygon class="cls-1" points="23.96 47.11 0.83 38.63 23.96 30.15 47.09 38.63 23.96 47.11"/><polygon class="cls-1" points="44.48 33.19 24.97 25.8 24.97 0 44.48 7.38 44.48 33.19"/><polyline class="cls-2" points="25.5 22.5 32.5 14 37.88 20.75 45.63 6.65"/><polygon class="cls-3" points="45.01 5.21 42.93 5.97 45.01 6.71 47.09 5.95 45.01 5.21"/><polygon class="cls-2" points="45.01 5.21 42.93 5.97 45.01 6.71 47.09 5.95 45.01 5.21"/><polygon class="cls-4" points="45.01 6.71 42.93 5.97 42.93 8.45 45.01 9.19 45.01 6.71"/><polygon class="cls-2" points="45.01 6.71 42.93 5.97 42.93 8.45 45.01 9.19 45.01 6.71"/><polygon class="cls-5" points="45.01 6.74 47.09 5.97 47.09 8.45 45.01 9.21 45.01 6.74"/><polygon class="cls-2" points="45.01 6.74 47.09 5.97 47.09 8.45 45.01 9.21 45.01 6.74"/><polygon class="cls-3" points="38.22 18.5 36.14 19.26 38.22 20 40.3 19.24 38.22 18.5"/><polygon class="cls-2" points="38.22 18.5 36.14 19.26 38.22 20 40.3 19.24 38.22 18.5"/><polygon class="cls-4" points="38.22 20 36.14 19.26 36.14 21.74 38.22 22.48 38.22 20"/><polygon class="cls-2" points="38.22 20 36.14 19.26 36.14 21.74 38.22 22.48 38.22 20"/><polygon class="cls-5" points="38.22 20.03 40.3 19.26 40.3 21.74 38.22 22.5 38.22 20.03"/><polygon class="cls-2" points="38.22 20.03 40.3 19.26 40.3 21.74 38.22 22.5 38.22 20.03"/><polygon class="cls-3" points="32.38 11.95 30.31 12.71 32.38 13.45 34.46 12.69 32.38 11.95"/><polygon class="cls-2" points="32.38 11.95 30.31 12.71 32.38 13.45 34.46 12.69 32.38 11.95"/><polygon class="cls-4" points="32.38 13.45 30.31 12.71 30.31 15.19 32.38 15.93 32.38 13.45"/><polygon class="cls-2" points="32.38 13.45 30.31 12.71 30.31 15.19 32.38 15.93 32.38 13.45"/><polygon class="cls-5" points="32.38 13.48 34.46 12.71 34.46 15.19 32.38 15.95 32.38 13.48"/><polygon class="cls-2" points="32.38 13.48 34.46 12.71 34.46 15.19 32.38 15.95 32.38 13.48"/><polygon class="cls-3" points="25.5 20.03 23.42 20.8 25.5 21.54 27.58 20.77 25.5 20.03"/><polygon class="cls-2" points="25.5 20.03 23.42 20.8 25.5 21.54 27.58 20.77 25.5 20.03"/><polygon class="cls-4" points="25.5 21.54 23.42 20.8 23.42 23.27 25.5 24.01 25.5 21.54"/><polygon class="cls-2" points="25.5 21.54 23.42 20.8 23.42 23.27 25.5 24.01 25.5 21.54"/><polygon class="cls-5" points="25.5 21.56 27.58 20.8 27.58 23.27 25.5 24.04 25.5 21.56"/><polygon class="cls-2" points="25.5 21.56 27.58 20.8 27.58 23.27 25.5 24.04 25.5 21.56"/><polygon class="cls-6" points="0.25 37.5 3.46 38.68 3.46 24.99 0.25 23.8 0.25 37.5"/><polygon class="cls-7" points="0.25 37.5 3.46 38.68 3.46 24.99 0.25 23.8 0.25 37.5"/><polygon class="cls-5" points="6.68 37.54 3.46 38.68 3.46 24.99 6.68 23.84 6.68 37.54"/><polygon class="cls-7" points="6.68 37.54 3.46 38.68 3.46 24.99 6.68 23.84 6.68 37.54"/><polygon class="cls-8" points="3.46 24.99 0.25 23.8 3.46 22.66 6.68 23.84 3.46 24.99"/><polygon class="cls-7" points="3.46 24.99 0.25 23.8 3.46 22.66 6.68 23.84 3.46 24.99"/><polygon class="cls-6" points="15.73 32.52 18.94 33.7 18.94 13.95 15.73 12.77 15.73 32.52"/><polygon class="cls-7" points="15.73 32.52 18.94 33.7 18.94 13.95 15.73 12.77 15.73 32.52"/><polygon class="cls-5" points="22.15 32.55 18.94 33.7 18.94 13.95 22.15 12.81 22.15 32.55"/><polygon class="cls-7" points="22.15 32.55 18.94 33.7 18.94 13.95 22.15 12.81 22.15 32.55"/><polygon class="cls-8" points="18.94 13.95 15.73 12.77 18.94 11.63 22.15 12.81 18.94 13.95"/><polygon class="cls-7" points="18.94 13.95 15.73 12.77 18.94 11.63 22.15 12.81 18.94 13.95"/><polygon class="cls-6" points="7.99 34.96 11.2 36.14 11.2 7.74 7.99 6.56 7.99 34.96"/><polygon class="cls-7" points="7.99 34.96 11.2 36.14 11.2 7.74 7.99 6.56 7.99 34.96"/><polygon class="cls-5" points="14.41 35 11.2 36.14 11.2 7.75 14.41 6.6 14.41 35"/><polygon class="cls-7" points="14.41 35 11.2 36.14 11.2 7.75 14.41 6.6 14.41 35"/><polygon class="cls-8" points="11.2 7.75 7.99 6.56 11.2 5.42 14.41 6.6 11.2 7.75"/><polygon class="cls-7" points="11.2 7.75 7.99 6.56 11.2 5.42 14.41 6.6 11.2 7.75"/><path class="cls-4" d="M12.66,36.76C12.66,40,17.72,42.6,24,42.6S35.24,40,35.24,36.76V35.51H12.66Z"/><path class="cls-2" d="M12.66,36.76C12.66,40,17.72,42.6,24,42.6S35.24,40,35.24,36.76V35.51H12.66Z"/><path class="cls-4" d="M35.24,35.51c0,3.23-5.05,5.84-11.29,5.84s-11.29-2.61-11.29-5.84S17.72,29.67,24,29.67s11.29,2.61,11.29,5.84"/><path class="cls-2" d="M35.24,35.51c0,3.23-5.05,5.84-11.29,5.84s-11.29-2.61-11.29-5.84S17.72,29.67,24,29.67,35.24,32.28,35.24,35.51Z"/><path class="cls-5" d="M24,35.51l5.12-5.21s6.17,1.47,6.17,5.21Z"/><path class="cls-2" d="M24,35.51l5.12-5.21s6.17,1.47,6.17,5.21Z"/><path class="cls-3" d="M24,35.51H35.24A3.17,3.17,0,0,1,34,38.21Z"/><path class="cls-2" d="M24,35.51H35.24A3.17,3.17,0,0,1,34,38.21Z"/></g></g></svg>