<svg xmlns="http://www.w3.org/2000/svg" viewBox="0 0 46.26 48.39"><defs><style>.cls-1{fill:#ebebeb;}.cls-2{fill:#dfeab0;}.cls-3{fill:none;stroke:#b6cd5b;stroke-linejoin:round;stroke-width:0.5px;}.cls-4{fill:#fff;}.cls-5{fill:#c4d36c;}.cls-6{fill:#304d9d;}</style></defs><title>Big_data_2</title><g id="Layer_2" data-name="Layer 2"><g id="Layer_1-2" data-name="Layer 1"><polygon class="cls-1" points="23.13 48.4 0 39.91 23.13 31.43 46.26 39.91 23.13 48.4"/><polygon class="cls-2" points="16.59 31.52 26.1 35.02 26.1 22.01 16.59 18.51 16.59 31.52"/><polygon class="cls-3" points="16.59 31.52 26.1 35.02 26.1 22.01 16.59 18.51 16.59 31.52"/><polygon class="cls-4" points="35.61 31.64 26.1 35.02 26.1 22.01 35.61 18.63 35.61 31.64"/><polygon class="cls-3" points="35.61 31.64 26.1 35.02 26.1 22.01 35.61 18.63 35.61 31.64"/><polygon class="cls-5" points="26.1 22.01 16.59 18.51 26.1 15.13 35.61 18.63 26.1 22.01"/><polygon class="cls-3" points="26.1 22.01 16.59 18.51 26.1 15.13 35.61 18.63 26.1 22.01"/><polygon class="cls-2" points="4.6 36.04 14.11 39.54 14.11 26.53 4.6 23.03 4.6 36.04"/><polygon class="cls-3" points="4.6 36.04 14.11 39.54 14.11 26.53 4.6 23.03 4.6 36.04"/><polygon class="cls-4" points="23.62 36.16 14.11 39.54 14.11 26.53 23.62 23.15 23.62 36.16"/><polygon class="cls-3" points="23.62 36.16 14.11 39.54 14.11 26.53 23.62 23.15 23.62 36.16"/><polygon class="cls-5" points="14.11 26.53 4.6 23.03 14.11 19.65 23.62 23.15 14.11 26.53"/><polygon class="cls-3" points="14.11 26.53 4.6 23.03 14.11 19.65 23.62 23.15 14.11 26.53"/><polygon class="cls-2" points="16.59 16.64 26.1 20.14 26.1 7.13 16.59 3.63 16.59 16.64"/><polygon class="cls-3" points="16.59 16.64 26.1 20.14 26.1 7.13 16.59 3.63 16.59 16.64"/><polygon class="cls-4" points="35.61 16.76 26.1 20.14 26.1 7.13 35.61 3.75 35.61 16.76"/><polygon class="cls-3" points="35.61 16.76 26.1 20.14 26.1 7.13 35.61 3.75 35.61 16.76"/><polygon class="cls-5" points="26.1 7.13 16.59 3.63 26.1 0.25 35.61 3.75 26.1 7.13"/><polygon class="cls-3" points="26.1 7.13 16.59 3.63 26.1 0.25 35.61 3.75 26.1 7.13"/><polygon class="cls-2" points="4.6 21.17 14.11 24.67 14.11 11.66 4.6 8.16 4.6 21.17"/><polygon class="cls-3" points="4.6 21.17 14.11 24.67 14.11 11.66 4.6 8.16 4.6 21.17"/><polygon class="cls-4" points="23.62 21.29 14.11 24.67 14.11 11.66 23.62 8.28 23.62 21.29"/><polygon class="cls-3" points="23.62 21.29 14.11 24.67 14.11 11.66 23.62 8.28 23.62 21.29"/><polygon class="cls-5" points="14.11 11.66 4.6 8.16 14.11 4.78 23.62 8.28 14.11 11.66"/><polygon class="cls-3" points="14.11 11.66 4.6 8.16 14.11 4.78 23.62 8.28 14.11 11.66"/><polygon class="cls-6" points="22.14 20.53 20.87 21.05 20.87 16.35 22.14 15.83 22.14 20.53"/><path class="cls-6" d="M26,14.1a4.21,4.21,0,0,0-2.5,3.53c0,1.39,1.12,2.05,2.5,1.49a4.2,4.2,0,0,0,2.51-3.54c0-1.38-1.12-2.05-2.51-1.48m0,3.74c-.68.28-1.23,0-1.23-.73A2.07,2.07,0,0,1,26,15.37c.69-.28,1.24.05,1.24.73A2.05,2.05,0,0,1,26,17.84"/><polygon class="cls-6" points="30.52 17.1 29.25 17.62 29.25 12.92 30.52 12.4 30.52 17.1"/><polygon class="cls-6" points="39.34 13.49 38.07 14.01 38.07 9.31 39.34 8.79 39.34 13.49"/><polygon class="cls-6" points="41.83 12.47 40.56 12.99 40.56 8.3 41.83 7.78 41.83 12.47"/><polygon class="cls-6" points="41.83 18.7 40.56 19.22 40.56 14.52 41.83 14 41.83 18.7"/><path class="cls-6" d="M34.36,10.67a4.21,4.21,0,0,0-2.5,3.53c0,1.39,1.12,2.05,2.5,1.49a4.2,4.2,0,0,0,2.51-3.54c0-1.38-1.12-2-2.51-1.48m0,3.75c-.68.28-1.23-.05-1.23-.73a2.07,2.07,0,0,1,1.23-1.75c.69-.28,1.24.05,1.24.73a2.07,2.07,0,0,1-1.24,1.75"/><path class="cls-6" d="M23.36,21.31a4.21,4.21,0,0,0-2.5,3.54c0,1.38,1.12,2,2.5,1.48a4.2,4.2,0,0,0,2.51-3.53c0-1.39-1.12-2.05-2.51-1.49m0,3.75c-.68.28-1.23,0-1.23-.73a2.07,2.07,0,0,1,1.23-1.75c.69-.27,1.24.05,1.24.74a2.06,2.06,0,0,1-1.24,1.74"/><polygon class="cls-6" points="27.9 24.32 26.63 24.84 26.63 20.14 27.9 19.62 27.9 24.32"/><polygon class="cls-6" points="36.72 20.71 35.45 21.23 35.45 16.53 36.72 16.01 36.72 20.71"/><polygon class="cls-6" points="39.21 19.69 37.94 20.21 37.94 15.51 39.21 14.99 39.21 19.69"/><path class="cls-6" d="M31.75,17.89a4.19,4.19,0,0,0-2.51,3.53c0,1.39,1.12,2,2.51,1.48a4.2,4.2,0,0,0,2.5-3.53c0-1.39-1.12-2.05-2.5-1.48m0,3.74c-.69.28-1.24-.05-1.24-.73a2.06,2.06,0,0,1,1.24-1.74c.68-.28,1.23.05,1.23.73a2.07,2.07,0,0,1-1.23,1.74"/><polygon class="cls-6" points="40.91 26.74 42.18 26.22 42.18 30.92 40.91 31.44 40.91 26.74"/><polygon class="cls-6" points="32.09 30.35 33.36 29.83 33.36 34.53 32.09 35.05 32.09 30.35"/><polygon class="cls-6" points="29.6 31.37 30.87 30.85 30.87 35.55 29.6 36.07 29.6 31.37"/><path class="cls-6" d="M37.07,33.17a4.2,4.2,0,0,0,2.5-3.53c0-1.39-1.12-2.05-2.5-1.48a4.19,4.19,0,0,0-2.51,3.53c0,1.38,1.12,2.05,2.51,1.48m0-3.74c.68-.28,1.23.05,1.23.73a2.07,2.07,0,0,1-1.23,1.74c-.69.28-1.24,0-1.24-.73a2.06,2.06,0,0,1,1.24-1.74"/><polygon class="cls-6" points="20.86 34.95 22.13 34.43 22.13 39.13 20.86 39.64 20.86 34.95"/><path class="cls-6" d="M25.83,37.77a4.2,4.2,0,0,0,2.51-3.54c0-1.38-1.12-2-2.51-1.48a4.21,4.21,0,0,0-2.5,3.54c0,1.38,1.12,2,2.5,1.48m0-3.75c.69-.28,1.24,0,1.24.73a2.07,2.07,0,0,1-1.24,1.75c-.68.28-1.23,0-1.23-.73A2.07,2.07,0,0,1,25.83,34"/><polygon class="cls-6" points="20.86 28.8 22.13 28.28 22.13 32.98 20.86 33.5 20.86 28.8"/><polygon class="cls-6" points="34.71 23.14 35.98 22.62 35.98 27.32 34.71 27.84 34.71 23.14"/><polygon class="cls-6" points="32.22 24.15 33.49 23.64 33.49 28.33 32.22 28.85 32.22 24.15"/><path class="cls-6" d="M39.68,26a4.2,4.2,0,0,0,2.51-3.53c0-1.39-1.12-2.05-2.51-1.49a4.21,4.21,0,0,0-2.5,3.54c0,1.38,1.12,2,2.5,1.48m0-3.75c.69-.28,1.24.05,1.24.73a2.07,2.07,0,0,1-1.24,1.75c-.68.28-1.23-.05-1.23-.73a2.07,2.07,0,0,1,1.23-1.75"/><polygon class="cls-6" points="23.48 27.73 24.75 27.21 24.75 31.91 23.48 32.43 23.48 27.73"/><path class="cls-6" d="M28.45,30.55A4.19,4.19,0,0,0,31,27c0-1.39-1.12-2.05-2.51-1.48a4.19,4.19,0,0,0-2.51,3.53c0,1.38,1.13,2.05,2.51,1.48m0-3.74c.68-.28,1.24.05,1.24.73a2.08,2.08,0,0,1-1.24,1.74c-.68.28-1.24-.05-1.24-.73a2.08,2.08,0,0,1,1.24-1.74"/></g></g></svg>