<svg xmlns="http://www.w3.org/2000/svg" viewBox="0 0 49.07 48.61"><defs><style>.cls-1{fill:#ebebeb;}.cls-2{fill:#deeaff;}.cls-3,.cls-4{fill:none;stroke-linejoin:round;stroke-width:0.5px;}.cls-3{stroke:#304d9d;}.cls-4{stroke:#3e91f3;stroke-linecap:round;stroke-dasharray:1 1;}.cls-5{fill:#98b9ea;}</style></defs><title>blue_print</title><g id="Layer_2" data-name="Layer 2"><g id="Layer_1-2" data-name="Layer 1"><polygon class="cls-1" points="24.57 48.61 1.44 40.13 24.57 31.64 47.69 40.13 24.57 48.61"/><polygon class="cls-2" points="0.25 34.17 12.39 30.14 12.39 0.25 0.25 4.28 0.25 34.17"/><polygon class="cls-3" points="0.25 34.17 12.39 30.14 12.39 0.25 0.25 4.28 0.25 34.17"/><polygon class="cls-2" points="24.54 34.17 12.39 30.14 12.39 0.25 24.54 4.28 24.54 34.17"/><polygon class="cls-3" points="24.54 34.17 12.39 30.14 12.39 0.25 24.54 4.28 24.54 34.17"/><polygon class="cls-2" points="24.54 34.17 36.68 30.14 36.68 0.25 24.54 4.28 24.54 34.17"/><polygon class="cls-3" points="24.54 34.17 36.68 30.14 36.68 0.25 24.54 4.28 24.54 34.17"/><polygon class="cls-2" points="48.82 34.17 36.68 30.14 36.68 0.25 48.82 4.28 48.82 34.17"/><polygon class="cls-3" points="48.82 34.17 36.68 30.14 36.68 0.25 48.82 4.28 48.82 34.17"/><polygon class="cls-4" points="21.6 24.09 21.6 30.69 24.54 31.83 32.31 28.98 32.31 22.37 24.54 25.23 21.6 24.09"/><polygon class="cls-4" points="41.75 19.76 41.75 9.8 37.33 8.08 27.82 11.57 27.82 21.53 37.33 18.04 41.75 19.76"/><polygon class="cls-4" points="16.8 26.61 16.8 9.65 12.38 7.93 5.1 10.79 5.1 27.75 12.38 24.89 16.8 26.61"/><polygon class="cls-5" points="47.29 24.64 47.29 31.12 38.8 28.01 38.8 21.53 47.29 24.64"/><polygon class="cls-3" points="47.29 24.64 47.29 31.12 38.8 28.01 38.8 21.53 47.29 24.64"/><polygon class="cls-5" points="22.06 7.11 22.06 17.68 14.87 15.05 14.87 4.47 22.06 7.11"/><polygon class="cls-3" points="22.06 7.11 22.06 17.68 14.87 15.05 14.87 4.47 22.06 7.11"/></g></g></svg>