<svg xmlns="http://www.w3.org/2000/svg" viewBox="0 0 46.26 51.25"><defs><style>.cls-1{fill:#ebebeb;}.cls-2{fill:#dfeab0;}.cls-3,.cls-6{fill:none;stroke-linejoin:round;stroke-width:0.5px;}.cls-3{stroke:#dfeab0;}.cls-4{fill:#b6cd5b;}.cls-5{fill:#304d9d;}.cls-6{stroke:#304d9d;}.cls-7{fill:#98b9ea;}.cls-8{fill:#deeaff;}</style></defs><title>centralize_dr</title><g id="Layer_2" data-name="Layer 2"><g id="Layer_1-2" data-name="Layer 1"><polygon class="cls-1" points="23.13 51.25 0 42.77 23.13 34.29 46.26 42.77 23.13 51.25"/><path class="cls-2" d="M22.26,28.79c-8.77,0-15.88,3.68-15.88,8.22s7.11,8.22,15.88,8.22S38.14,41.55,38.14,37,31,28.79,22.26,28.79m0,12.68c-4.76,0-8.61-2-8.61-4.46s3.85-4.46,8.61-4.46,8.61,2,8.61,4.46S27,41.47,22.26,41.47"/><path class="cls-3" d="M22.26,28.79c-8.77,0-15.89,3.68-15.89,8.22s7.12,8.22,15.89,8.22S38.14,41.55,38.14,37,31,28.79,22.26,28.79Zm0,12.68c-4.76,0-8.61-2-8.61-4.46s3.85-4.46,8.61-4.46,8.61,2,8.61,4.46S27,41.47,22.26,41.47Z"/><path class="cls-2" d="M6.38,37c0,4.54,7.11,8.22,15.88,8.22S38.14,41.55,38.14,37V33.09h-5.4l-6,6.07H17.82l-5.54-6.07H6.38Z"/><path class="cls-3" d="M6.38,37c0,4.54,7.11,8.22,15.88,8.22S38.14,41.55,38.14,37V33.09h-5.4l-6,6.07H17.82l-5.54-6.07H6.38Z"/><path class="cls-2" d="M22.26,24.87c-8.77,0-15.88,3.68-15.88,8.22s7.11,8.22,15.88,8.22,15.88-3.68,15.88-8.22S31,24.87,22.26,24.87m0,12.67c-4.76,0-8.61-2-8.61-4.45s3.85-4.46,8.61-4.46,8.61,2,8.61,4.46S27,37.54,22.26,37.54"/><path class="cls-3" d="M22.26,24.87c-8.77,0-15.89,3.68-15.89,8.22s7.12,8.22,15.89,8.22,15.88-3.68,15.88-8.22S31,24.87,22.26,24.87Zm0,12.67c-4.76,0-8.61-2-8.61-4.45s3.85-4.46,8.61-4.46,8.61,2,8.61,4.46S27,37.54,22.26,37.54Z"/><path class="cls-4" d="M14.49,44.18c-2.89-.92-5.6-2-7.35-4.65a4.6,4.6,0,0,1,1.14-3.67A5.66,5.66,0,0,1,12.46,34a4.83,4.83,0,0,1,1.57.25,4.27,4.27,0,0,0,2.46,2.19,6.71,6.71,0,0,0-2,7.74"/><path class="cls-5" d="M12.46,34.25a4.78,4.78,0,0,1,1.37.2,4.39,4.39,0,0,0,2.2,2,7,7,0,0,0-2,7.28c-2.65-.87-5.09-2-6.7-4.33A4.38,4.38,0,0,1,8.47,36a5.38,5.38,0,0,1,4-1.77m0-.5c-3,0-6,2.37-5.57,5.87,1.94,2.92,5,4,8.09,5a6.38,6.38,0,0,1,2-8.21c-1.41-.49-2.7-1.55-2.77-2.32a5.19,5.19,0,0,0-1.79-.31"/><path class="cls-4" d="M30,44.18a6.68,6.68,0,0,0-2-7.74,4.29,4.29,0,0,0,2.47-2.19A4.83,4.83,0,0,1,32.05,34a5.66,5.66,0,0,1,4.18,1.86,4.6,4.6,0,0,1,1.14,3.67c-1.75,2.62-4.46,3.73-7.36,4.65"/><path class="cls-5" d="M32.05,34.25h0A5.38,5.38,0,0,1,36,36a4.42,4.42,0,0,1,1.09,3.43c-1.61,2.36-4.05,3.46-6.7,4.33a7,7,0,0,0-1.95-7.28,4.43,4.43,0,0,0,2.2-2,4.73,4.73,0,0,1,1.37-.2m0-.5a5.19,5.19,0,0,0-1.79.31c-.08.77-1.37,1.83-2.77,2.32a6.37,6.37,0,0,1,2,8.21c3.12-1,6.16-2.05,8.09-5,.44-3.5-2.58-5.87-5.56-5.87"/><path class="cls-4" d="M15.93,34a4.66,4.66,0,0,0-.73-3.3A6.87,6.87,0,0,0,9.85,28H9.71a16.47,16.47,0,0,1,5.69-2.34A4.1,4.1,0,0,1,18.75,29a7.79,7.79,0,0,1,0,3.91A14,14,0,0,0,15.93,34"/><path class="cls-5" d="M15.35,25.94A3.87,3.87,0,0,1,18.52,29a7.49,7.49,0,0,1,0,3.62,14.82,14.82,0,0,0-2.27.85,4.8,4.8,0,0,0-.84-3,7.18,7.18,0,0,0-4.86-2.73,16,16,0,0,1,4.81-1.85m0-.51a16.74,16.74,0,0,0-6.58,2.93,5.49,5.49,0,0,1,1.08-.1A6.54,6.54,0,0,1,15,30.83a4.09,4.09,0,0,1,.46,3.78,10.54,10.54,0,0,1,3.46-1.54A8.19,8.19,0,0,0,19,28.89a4.37,4.37,0,0,0-3.65-3.46"/><path class="cls-4" d="M28.59,34a14,14,0,0,0-2.78-1.1,7.81,7.81,0,0,1,0-3.89,4.13,4.13,0,0,1,3.46-3.3A16.7,16.7,0,0,1,34.82,28h-.15a6.85,6.85,0,0,0-5.35,2.66A4.62,4.62,0,0,0,28.59,34"/><path class="cls-5" d="M29.17,25.94A16.12,16.12,0,0,1,34,27.79a7.15,7.15,0,0,0-4.85,2.71,4.84,4.84,0,0,0-.85,3A15.26,15.26,0,0,0,26,32.66,7.66,7.66,0,0,1,26,29a3.85,3.85,0,0,1,3.16-3.06m0-.51a4.38,4.38,0,0,0-3.65,3.46,8.07,8.07,0,0,0,.09,4.18,10.63,10.63,0,0,1,3.46,1.54,4.09,4.09,0,0,1,.45-3.78,6.54,6.54,0,0,1,5.15-2.57,5.49,5.49,0,0,1,1.08.1,16.68,16.68,0,0,0-6.58-2.93"/><path class="cls-6" d="M38.14,33.09c0-4.54-7.11-8.22-15.88-8.22S6.37,28.55,6.37,33.09V37a5,5,0,0,0,1.25,3.2,9,9,0,0,0,1.47,1.4A13.39,13.39,0,0,0,11,42.82a17.48,17.48,0,0,0,2.35,1,24.33,24.33,0,0,0,4.16,1,30.29,30.29,0,0,0,9.44,0,24.81,24.81,0,0,0,4.16-1,18.05,18.05,0,0,0,2.35-1,13.39,13.39,0,0,0,1.94-1.21,8.89,8.89,0,0,0,1.46-1.4A5,5,0,0,0,38.14,37Zm-8.16,2c-1.4,1.48-4.33,2.49-7.72,2.49s-6.32-1-7.72-2.49c1.4-1.48,4.32-2.5,7.72-2.5S28.58,33.57,30,35.05Z"/><path class="cls-6" d="M41.71,33.29c0,5.52-8.64,10-19.3,10s-19.29-4.47-19.29-10,8.64-10,19.29-10S41.71,27.78,41.71,33.29Z"/><polygon class="cls-7" points="2.55 22.35 18.14 28.08 10.35 8.64 2.55 22.35"/><polygon class="cls-6" points="2.55 22.35 18.14 28.08 10.35 8.64 2.55 22.35"/><polygon class="cls-8" points="41.71 19.69 18.14 28.08 10.35 8.64 33.91 0.25 41.71 19.69"/><polygon class="cls-6" points="41.71 19.69 18.14 28.08 10.35 8.64 33.91 0.25 41.71 19.69"/></g></g></svg>