<svg xmlns="http://www.w3.org/2000/svg" xmlns:xlink="http://www.w3.org/1999/xlink" viewBox="0 0 50.11 45.23"><defs><style>.cls-1,.cls-7{fill:none;}.cls-2{isolation:isolate;}.cls-3{mix-blend-mode:multiply;}.cls-4{clip-path:url(#clip-path);}.cls-5{fill:#ebebeb;}.cls-6{fill:#fff;}.cls-7{stroke:#b6cd5b;stroke-linejoin:round;stroke-width:0.5px;}.cls-8{fill:#dfeab0;}</style><clipPath id="clip-path" transform="translate(0)"><rect class="cls-1" y="26.85" width="50.11" height="18.38"/></clipPath></defs><title>cloud_2</title><g class="cls-2"><g id="Layer_2" data-name="Layer 2"><g id="Layer_1-2" data-name="Layer 1"><g class="cls-3"><g class="cls-4"><polygon class="cls-5" points="25.06 45.23 0 36.04 25.06 26.85 50.11 36.04 25.06 45.23"/></g></g><path class="cls-6" d="M42.85,6.6,29.55,1.1A8.35,8.35,0,0,0,22.73.86C18.53,2.42,15.12,6.76,14,11.5a6.74,6.74,0,0,0-5.54,0c-4,1.67-6.29,7.19-6.29,11.23v4.09l13.67,5.82V28.43" transform="translate(0)"/><path class="cls-7" d="M42.85,6.6,29.55,1.1A8.35,8.35,0,0,0,22.73.86C18.53,2.42,15.12,6.76,14,11.5a6.74,6.74,0,0,0-5.54,0c-4,1.67-6.29,7.19-6.29,11.23v4.09l13.67,5.82V28.43" transform="translate(0)"/><path class="cls-8" d="M48.59,20.67v-4.4C48.59,9.66,43.13,4,36.4,6.53c-4.2,1.56-7.61,5.9-8.7,10.65a6.69,6.69,0,0,0-5.54,0c-4.05,1.68-6.28,7.19-6.28,11.23v4.24Z" transform="translate(0)"/><path class="cls-7" d="M48.59,20.67v-4.4C48.59,9.66,43.13,4,36.4,6.53c-4.2,1.56-7.61,5.9-8.7,10.65a6.69,6.69,0,0,0-5.54,0c-4.05,1.68-6.28,7.19-6.28,11.23v4.24Z" transform="translate(0)"/><line class="cls-8" x1="14.04" y1="11.5" x2="27.7" y2="17.18"/><line class="cls-7" x1="14.04" y1="11.5" x2="27.7" y2="17.18"/></g></g></g></svg>