<svg xmlns="http://www.w3.org/2000/svg" viewBox="0 0 48.34 49.4"><defs><style>.cls-1{fill:#ebebeb;}.cls-2{fill:#deeaff;}.cls-3,.cls-6{fill:none;stroke-linejoin:round;}.cls-3{stroke:#304d9d;stroke-width:0.5px;}.cls-4{fill:#fff;}.cls-5{fill:#98b9ea;}.cls-6{stroke:#b6cd5b;stroke-linecap:round;stroke-width:3px;}</style></defs><title>cluster</title><g id="Layer_2" data-name="Layer 2"><g id="Layer_1-2" data-name="Layer 1"><polygon class="cls-1" points="24.3 49.4 1.17 40.91 24.3 32.43 47.43 40.91 24.3 49.4"/><polygon class="cls-2" points="14.67 14.94 24.17 18.43 24.17 7.12 14.67 3.63 14.67 14.94"/><polygon class="cls-3" points="14.67 14.94 24.17 18.43 24.17 7.12 14.67 3.63 14.67 14.94"/><polygon class="cls-4" points="33.66 15.06 24.17 18.43 24.17 7.12 33.66 3.75 33.66 15.06"/><polygon class="cls-3" points="33.66 15.06 24.17 18.43 24.17 7.12 33.66 3.75 33.66 15.06"/><polygon class="cls-5" points="24.17 7.12 14.67 3.63 24.17 0.25 33.66 3.74 24.17 7.12"/><polygon class="cls-3" points="24.17 7.12 14.67 3.63 24.17 0.25 33.66 3.74 24.17 7.12"/><line class="cls-6" x1="12.99" y1="20.46" x2="19.42" y2="11.09"/><line class="cls-6" x1="28.92" y1="11.03" x2="34.49" y2="19.58"/><polygon class="cls-2" points="0.25 25.97 9.75 29.47 9.75 18.15 0.25 14.66 0.25 25.97"/><polygon class="cls-3" points="0.25 25.97 9.75 29.47 9.75 18.15 0.25 14.66 0.25 25.97"/><polygon class="cls-4" points="19.24 26.09 9.75 29.47 9.75 18.15 19.24 14.78 19.24 26.09"/><polygon class="cls-3" points="19.24 26.09 9.75 29.47 9.75 18.15 19.24 14.78 19.24 26.09"/><polygon class="cls-5" points="9.75 18.15 0.25 14.66 9.75 11.28 19.24 14.78 9.75 18.15"/><polygon class="cls-3" points="9.75 18.15 0.25 14.66 9.75 11.28 19.24 14.78 9.75 18.15"/><polygon class="cls-2" points="29.1 26.43 38.59 29.92 38.59 18.61 29.1 15.11 29.1 26.43"/><polygon class="cls-3" points="29.1 26.43 38.59 29.92 38.59 18.61 29.1 15.11 29.1 26.43"/><polygon class="cls-4" points="48.09 26.55 38.59 29.92 38.59 18.61 48.09 15.23 48.09 26.55"/><polygon class="cls-3" points="48.09 26.55 38.59 29.92 38.59 18.61 48.09 15.23 48.09 26.55"/><polygon class="cls-5" points="38.59 18.61 29.1 15.11 38.59 11.74 48.09 15.23 38.59 18.61"/><polygon class="cls-3" points="38.59 18.61 29.1 15.11 38.59 11.74 48.09 15.23 38.59 18.61"/><line class="cls-6" x1="14.67" y1="22.58" x2="20.03" y2="30.46"/><line class="cls-6" x1="29.1" y1="30.52" x2="33.84" y2="22.77"/><polygon class="cls-2" points="14.67 37.46 24.17 40.95 24.17 29.64 14.67 26.15 14.67 37.46"/><polygon class="cls-3" points="14.67 37.46 24.17 40.95 24.17 29.64 14.67 26.15 14.67 37.46"/><polygon class="cls-4" points="33.66 37.58 24.17 40.95 24.17 29.64 33.66 26.27 33.66 37.58"/><polygon class="cls-3" points="33.66 37.58 24.17 40.95 24.17 29.64 33.66 26.27 33.66 37.58"/><polygon class="cls-5" points="24.17 29.64 14.67 26.15 24.17 22.77 33.66 26.27 24.17 29.64"/><polygon class="cls-3" points="24.17 29.64 14.67 26.15 24.17 22.77 33.66 26.27 24.17 29.64"/></g></g></svg>