<svg xmlns="http://www.w3.org/2000/svg" viewBox="0 0 48.82 49.08"><defs><style>.cls-1{fill:#dfeab0;}.cls-2{fill:none;stroke:#b6cd5b;stroke-linejoin:round;stroke-width:0.5px;}.cls-3{fill:#c4d36c;}.cls-4{fill:#fff;}.cls-5{fill:#ebebeb;}.cls-6{fill:#304d9d;}</style></defs><title>data_integrity_check</title><g id="Layer_2" data-name="Layer 2"><g id="Layer_1-2" data-name="Layer 1"><polygon class="cls-1" points="2.04 34.05 0.25 33.37 0.25 13.72 2.04 14.4 2.04 34.05"/><polygon class="cls-2" points="2.04 34.05 0.25 33.37 0.25 13.72 2.04 14.4 2.04 34.05"/><polygon class="cls-3" points="27.65 4.24 25.86 3.55 0.25 13.72 2.04 14.4 27.65 4.24"/><polygon class="cls-2" points="27.65 4.24 25.86 3.55 0.25 13.72 2.04 14.4 27.65 4.24"/><polygon class="cls-4" points="2.04 34.05 27.64 23.88 27.64 4.23 2.04 14.4 2.04 34.05"/><polygon class="cls-2" points="2.04 34.05 27.64 23.88 27.64 4.23 2.04 14.4 2.04 34.05"/><polygon class="cls-1" points="2.04 13.44 0.25 12.75 0.25 10.41 2.04 11.1 2.04 13.44"/><polygon class="cls-2" points="2.04 13.44 0.25 12.75 0.25 10.41 2.04 11.1 2.04 13.44"/><polygon class="cls-3" points="27.65 0.93 25.86 0.25 0.25 10.41 2.04 11.1 27.65 0.93"/><polygon class="cls-2" points="27.65 0.93 25.86 0.25 0.25 10.41 2.04 11.1 27.65 0.93"/><polygon class="cls-4" points="2.04 13.44 27.64 3.27 27.64 0.93 2.04 11.1 2.04 13.44"/><polygon class="cls-2" points="2.04 13.44 27.64 3.27 27.64 0.93 2.04 11.1 2.04 13.44"/><polygon class="cls-5" points="24.1 49.08 0.97 40.6 24.1 32.12 47.23 40.6 24.1 49.08"/><polygon class="cls-6" points="14.72 19.49 13.45 20.01 13.45 15.31 14.72 14.79 14.72 19.49"/><path class="cls-6" d="M18.56,13.06a4.18,4.18,0,0,0-2.5,3.53c0,1.38,1.12,2.05,2.5,1.48a4.19,4.19,0,0,0,2.51-3.53c0-1.39-1.12-2-2.51-1.48m0,3.74c-.68.28-1.23-.05-1.23-.73a2.07,2.07,0,0,1,1.23-1.74c.69-.28,1.24.05,1.24.73a2.06,2.06,0,0,1-1.24,1.74"/><polygon class="cls-6" points="23.1 16.06 21.83 16.58 21.83 11.88 23.1 11.36 23.1 16.06"/><polygon class="cls-6" points="31.92 12.45 30.65 12.97 30.65 8.27 31.92 7.75 31.92 12.45"/><polygon class="cls-6" points="34.41 11.43 33.14 11.95 33.14 7.25 34.41 6.73 34.41 11.43"/><polygon class="cls-6" points="34.41 17.65 33.14 18.17 33.14 13.47 34.41 12.96 34.41 17.65"/><path class="cls-6" d="M27,9.63a4.2,4.2,0,0,0-2.51,3.53c0,1.39,1.12,2.05,2.51,1.48a4.18,4.18,0,0,0,2.5-3.53c0-1.38-1.12-2-2.5-1.48m0,3.74c-.69.28-1.24,0-1.24-.73A2.06,2.06,0,0,1,27,10.9c.68-.28,1.23,0,1.23.73A2.07,2.07,0,0,1,27,13.37"/><path class="cls-6" d="M16,20.27a4.2,4.2,0,0,0-2.51,3.53c0,1.39,1.12,2.05,2.51,1.49a4.21,4.21,0,0,0,2.5-3.54c0-1.38-1.12-2.05-2.5-1.48M16,24c-.69.27-1.24-.05-1.24-.73A2.07,2.07,0,0,1,16,21.54c.68-.28,1.23.05,1.23.73A2.07,2.07,0,0,1,16,24"/><polygon class="cls-6" points="20.48 23.27 19.21 23.79 19.21 19.09 20.48 18.57 20.48 23.27"/><polygon class="cls-6" points="29.3 19.66 28.03 20.18 28.03 15.49 29.3 14.97 29.3 19.66"/><polygon class="cls-6" points="31.79 18.65 30.52 19.17 30.52 14.47 31.79 13.95 31.79 18.65"/><path class="cls-6" d="M24.33,16.84a4.2,4.2,0,0,0-2.51,3.54c0,1.38,1.12,2.05,2.51,1.48a4.21,4.21,0,0,0,2.5-3.53c0-1.39-1.12-2-2.5-1.49m0,3.75c-.69.28-1.24-.05-1.24-.73a2.07,2.07,0,0,1,1.24-1.75c.68-.27,1.23.05,1.23.74a2.07,2.07,0,0,1-1.23,1.74"/><polygon class="cls-6" points="33.49 25.7 34.76 25.18 34.76 29.88 33.49 30.4 33.49 25.7"/><polygon class="cls-6" points="24.67 29.31 25.94 28.79 25.94 33.49 24.67 34.01 24.67 29.31"/><polygon class="cls-6" points="22.18 30.33 23.45 29.81 23.45 34.51 22.18 35.02 22.18 30.33"/><path class="cls-6" d="M29.65,32.13a4.22,4.22,0,0,0,2.51-3.53c0-1.39-1.13-2.05-2.51-1.48a4.18,4.18,0,0,0-2.51,3.53c0,1.38,1.12,2.05,2.51,1.48m0-3.74c.68-.28,1.24,0,1.24.73a2.08,2.08,0,0,1-1.24,1.74c-.68.28-1.24-.05-1.24-.73a2.08,2.08,0,0,1,1.24-1.74"/><polygon class="cls-6" points="13.44 33.9 14.71 33.38 14.71 38.08 13.44 38.6 13.44 33.9"/><path class="cls-6" d="M18.42,36.72a4.18,4.18,0,0,0,2.5-3.53c0-1.38-1.12-2-2.5-1.48a4.2,4.2,0,0,0-2.51,3.53c0,1.39,1.12,2,2.51,1.48m0-3.74c.68-.28,1.23.05,1.23.73a2.07,2.07,0,0,1-1.23,1.74c-.69.28-1.24,0-1.24-.73A2.06,2.06,0,0,1,18.42,33"/><polygon class="cls-6" points="13.44 27.76 14.71 27.24 14.71 31.94 13.44 32.46 13.44 27.76"/><polygon class="cls-6" points="27.29 22.09 28.56 21.57 28.56 26.27 27.29 26.79 27.29 22.09"/><polygon class="cls-6" points="24.8 23.11 26.07 22.59 26.07 27.29 24.8 27.81 24.8 23.11"/><path class="cls-6" d="M32.27,24.91a4.18,4.18,0,0,0,2.5-3.53c0-1.38-1.12-2.05-2.5-1.48a4.2,4.2,0,0,0-2.51,3.53c0,1.39,1.12,2.05,2.51,1.48m0-3.74c.68-.28,1.23,0,1.23.73a2.07,2.07,0,0,1-1.23,1.75c-.69.27-1.24,0-1.24-.74a2.06,2.06,0,0,1,1.24-1.74"/><polygon class="cls-6" points="16.06 26.69 17.33 26.17 17.33 30.87 16.06 31.39 16.06 26.69"/><path class="cls-6" d="M21,29.51A4.2,4.2,0,0,0,23.54,26c0-1.39-1.12-2.05-2.51-1.49A4.21,4.21,0,0,0,18.53,28c0,1.38,1.12,2,2.5,1.48m0-3.74c.69-.28,1.24,0,1.24.72A2.07,2.07,0,0,1,21,28.24c-.68.28-1.23,0-1.23-.73A2.06,2.06,0,0,1,21,25.77"/><polygon class="cls-3" points="29.48 41.09 21.8 35.49 24.63 31.89 29.48 35.42 43.53 17.57 46.37 19.63 29.48 41.09"/><polygon class="cls-2" points="29.48 41.09 21.8 35.49 24.63 31.89 29.48 35.42 43.53 17.57 46.37 19.63 29.48 41.09"/><polygon class="cls-1" points="31.69 42.74 24 37.14 26.84 33.54 31.69 37.08 45.73 19.22 48.57 21.29 31.69 42.74"/><polygon class="cls-2" points="31.69 42.74 24 37.14 26.84 33.54 31.69 37.08 45.73 19.22 48.57 21.29 31.69 42.74"/><polygon class="cls-1" points="24.68 32.11 26.59 33.55 24 36.86 22.09 35.44 24.68 32.11"/></g></g></svg>