<svg xmlns="http://www.w3.org/2000/svg" viewBox="0 0 46.26 48.77"><defs><style>.cls-1{fill:#ebebeb;}.cls-2{fill:#deeaff;}.cls-3,.cls-8{fill:none;stroke-linejoin:round;}.cls-3{stroke:#304d9d;stroke-width:0.5px;}.cls-4{fill:#fff;}.cls-5{fill:#98b9ea;}.cls-6{fill:#b6cd5b;}.cls-7{fill:#dfeab0;}.cls-8{stroke:#b6cd5b;stroke-linecap:round;}</style></defs><title>database_support</title><g id="Layer_2" data-name="Layer 2"><g id="Layer_1-2" data-name="Layer 1"><polygon class="cls-1" points="23.13 48.77 0 40.28 23.13 31.8 46.26 40.28 23.13 48.77"/><polygon class="cls-2" points="5 15.07 23.23 21.75 23.23 13.62 5 6.93 5 15.07"/><polygon class="cls-3" points="5 15.07 23.23 21.75 23.23 13.62 5 6.93 5 15.07"/><polygon class="cls-4" points="41.45 15.07 23.23 21.75 23.23 13.62 41.45 6.93 41.45 15.07"/><polygon class="cls-3" points="41.45 15.07 23.23 21.75 23.23 13.62 41.45 6.93 41.45 15.07"/><polygon class="cls-5" points="23.23 13.62 5 6.93 23.23 0.25 41.45 6.93 23.23 13.62"/><polygon class="cls-3" points="23.23 13.62 5 6.93 23.23 0.25 41.45 6.93 23.23 13.62"/><path class="cls-6" d="M26.47,14.58a1.59,1.59,0,0,1-1,1.4.74.74,0,0,1-1.05-.71,1.59,1.59,0,0,1,1.05-1.4.74.74,0,0,1,1,.71"/><path class="cls-6" d="M29.48,13.47a1.59,1.59,0,0,1-1.06,1.4.74.74,0,0,1-1.05-.71,1.59,1.59,0,0,1,1.05-1.4.74.74,0,0,1,1.06.71"/><line class="cls-7" x1="41.45" y1="17.17" x2="41.45" y2="34.67"/><line class="cls-8" x1="41.45" y1="17.17" x2="41.45" y2="34.67"/><line class="cls-7" x1="23.23" y1="23.92" x2="23.23" y2="41.42"/><line class="cls-8" x1="23.23" y1="23.92" x2="23.23" y2="41.42"/><line class="cls-7" x1="5" y1="17.17" x2="5" y2="34.67"/><line class="cls-8" x1="5" y1="17.17" x2="5" y2="34.67"/><line class="cls-7" x1="25.05" y1="23.5" x2="39.7" y2="34.67"/><line class="cls-8" x1="25.05" y1="23.5" x2="39.7" y2="34.67"/><line class="cls-7" x1="39.7" y1="17.8" x2="25.05" y2="41.42"/><line class="cls-8" x1="39.7" y1="17.8" x2="25.05" y2="41.42"/><line class="cls-7" x1="21.44" y1="23.5" x2="6.79" y2="34.67"/><line class="cls-8" x1="21.44" y1="23.5" x2="6.79" y2="34.67"/><line class="cls-7" x1="6.79" y1="17.8" x2="21.44" y2="41.42"/><line class="cls-8" x1="6.79" y1="17.8" x2="21.44" y2="41.42"/></g></g></svg>