<svg xmlns="http://www.w3.org/2000/svg" viewBox="0 0 46.61 48.86"><defs><style>.cls-1{fill:#ebebeb;}.cls-2{fill:#deeaff;}.cls-3,.cls-5{fill:none;stroke-linejoin:round;stroke-width:0.5px;}.cls-3{stroke:#304d9d;}.cls-4{fill:#dfeab0;}.cls-5{stroke:#b6cd5b;}.cls-6{fill:#fff;}.cls-7{fill:#436db5;}</style></defs><title>data_protection</title><g id="Layer_2" data-name="Layer 2"><g id="Layer_1-2" data-name="Layer 1"><polygon class="cls-1" points="23.3 48.86 0.17 40.38 23.3 31.89 46.43 40.38 23.3 48.86"/><polygon class="cls-2" points="14.55 6 14.55 3.2 21.98 0.25 21.98 3.05 25.8 1.53 25.8 21.15 0.25 31.3 0.25 11.68 14.55 6"/><polygon class="cls-3" points="14.55 6 14.55 3.2 21.98 0.25 21.98 3.05 25.8 1.53 25.8 21.15 0.25 31.3 0.25 11.68 14.55 6"/><polygon class="cls-4" points="9.98 13.53 9.98 10.65 17.41 7.7 17.41 10.57 32.3 4.66 32.3 24.27 6.75 34.42 6.75 14.81 9.98 13.53"/><polygon class="cls-5" points="9.98 13.53 9.98 10.65 17.41 7.7 17.41 10.57 32.3 4.66 32.3 24.27 6.75 34.42 6.75 14.81 9.98 13.53"/><polygon class="cls-6" points="22.84 13.64 22.84 10.92 30.27 7.97 30.27 10.69 39.33 7.09 39.33 26.7 13.78 36.86 13.78 17.24 22.84 13.64"/><polygon class="cls-5" points="22.84 13.64 22.84 10.92 30.27 7.97 30.27 10.69 39.33 7.09 39.33 26.7 13.78 36.86 13.78 17.24 22.84 13.64"/><polygon class="cls-2" points="35.11 15.08 35.11 12.28 42.54 9.33 42.54 12.12 46.36 10.61 46.36 30.22 20.8 40.38 20.8 20.76 35.11 15.08"/><polygon class="cls-3" points="35.11 15.08 35.11 12.28 42.54 9.33 42.54 12.12 46.36 10.61 46.36 30.22 20.8 40.38 20.8 20.76 35.11 15.08"/><path class="cls-7" d="M37.65,21.25c0-1.93-1.39-2.94-3.11-2.27a5.38,5.38,0,0,0-3.11,4.7,2.17,2.17,0,0,0,2.12,2.46l-2.12,6.8,6.22-2.43-2.11-5.15a5.52,5.52,0,0,0,2.11-4.11"/></g></g></svg>