<svg xmlns="http://www.w3.org/2000/svg" viewBox="0 0 46.51 40.71"><defs><style>.cls-1{fill:#ebebeb;}.cls-2{fill:#dfeab0;}.cls-3,.cls-6{fill:none;stroke-linejoin:round;stroke-width:0.5px;}.cls-3{stroke:#dfeab0;}.cls-4{fill:#b6cd5b;}.cls-5{fill:#304d9d;}.cls-6{stroke:#304d9d;}</style></defs><title>disaster_recovery</title><g id="Layer_2" data-name="Layer 2"><g id="Layer_1-2" data-name="Layer 1"><polygon class="cls-1" points="23.13 40.71 0 32.22 23.13 23.74 46.26 32.22 23.13 40.71"/><path class="cls-2" d="M23.08,6.78c-10.46,0-18.93,4.39-18.93,9.8s8.47,9.8,18.93,9.8S42,22,42,16.58s-8.48-9.8-18.93-9.8m0,15.11c-5.67,0-10.26-2.37-10.26-5.31s4.59-5.31,10.26-5.31,10.26,2.38,10.26,5.31-4.6,5.31-10.26,5.31"/><path class="cls-3" d="M23.08,6.78c-10.46,0-18.93,4.39-18.93,9.8s8.47,9.8,18.93,9.8S42,22,42,16.58,33.53,6.78,23.08,6.78Zm0,15.11c-5.67,0-10.26-2.37-10.26-5.31s4.59-5.31,10.26-5.31,10.26,2.38,10.26,5.31S28.74,21.89,23.08,21.89Z"/><path class="cls-2" d="M4.15,16.58c0,5.41,8.47,9.8,18.93,9.8S42,22,42,16.58V11.91H35.56l-7.19,7.23H17.78l-6.59-7.23h-7Z"/><path class="cls-3" d="M4.15,16.58c0,5.41,8.47,9.8,18.93,9.8S42,22,42,16.58V11.91H35.56l-7.19,7.23H17.78l-6.59-7.23h-7Z"/><path class="cls-2" d="M23.08,2.11c-10.46,0-18.93,4.39-18.93,9.8s8.47,9.8,18.93,9.8S42,17.32,42,11.91s-8.48-9.8-18.93-9.8m0,15.11c-5.67,0-10.26-2.38-10.26-5.31S17.41,6.6,23.08,6.6,33.34,9,33.34,11.91s-4.6,5.31-10.26,5.31"/><path class="cls-3" d="M23.08,2.11c-10.46,0-18.93,4.39-18.93,9.8s8.47,9.8,18.93,9.8S42,17.32,42,11.91,33.53,2.11,23.08,2.11Zm0,15.11c-5.67,0-10.26-2.38-10.26-5.31S17.41,6.6,23.08,6.6,33.34,9,33.34,11.91,28.74,17.22,23.08,17.22Z"/><path class="cls-4" d="M13.91,25.2c-3.5-1.1-6.78-2.43-8.9-5.59a5.53,5.53,0,0,1,1.38-4.43,6.74,6.74,0,0,1,5-2.23,6,6,0,0,1,1.91.3c.23,1,1.62,2.05,3,2.64a7.9,7.9,0,0,0-2.39,9.31"/><path class="cls-5" d="M11.4,13.2a5.71,5.71,0,0,1,1.71.25A5.31,5.31,0,0,0,15.82,16a8.22,8.22,0,0,0-2.34,8.85c-3.25-1.05-6.25-2.37-8.23-5.28a5.32,5.32,0,0,1,1.32-4.18A6.55,6.55,0,0,1,11.4,13.2m0-.5c-3.55,0-7.15,2.82-6.63,7,2.3,3.48,5.92,4.78,9.64,5.92a7.59,7.59,0,0,1,2.43-9.79c-1.68-.59-3.22-1.84-3.31-2.77a6.4,6.4,0,0,0-2.13-.36"/><path class="cls-4" d="M32.23,25.2a7.9,7.9,0,0,0-2.39-9.31c1.38-.59,2.77-1.66,3-2.64a6.11,6.11,0,0,1,1.91-.3,6.76,6.76,0,0,1,5,2.23,5.57,5.57,0,0,1,1.38,4.43c-2.12,3.16-5.4,4.49-8.91,5.59"/><path class="cls-5" d="M34.74,13.2a6.51,6.51,0,0,1,4.83,2.14,5.36,5.36,0,0,1,1.33,4.18c-2,2.91-5,4.23-8.23,5.28A8.23,8.23,0,0,0,30.32,16,5.38,5.38,0,0,0,33,13.45a5.64,5.64,0,0,1,1.7-.25m0-.5a6.48,6.48,0,0,0-2.13.36c-.09.93-1.62,2.18-3.3,2.77a7.6,7.6,0,0,1,2.43,9.79c3.71-1.14,7.33-2.44,9.64-5.92.51-4.18-3.09-7-6.64-7"/><path class="cls-4" d="M15.47,13a5.43,5.43,0,0,0-.85-4A8.1,8.1,0,0,0,8.29,5.9H8A19.93,19.93,0,0,1,14.89,3,4.94,4.94,0,0,1,19,7a9.46,9.46,0,0,1-.05,4.72A15.77,15.77,0,0,0,15.47,13"/><path class="cls-5" d="M14.85,3.29a4.71,4.71,0,0,1,3.87,3.77,9,9,0,0,1,0,4.42,17.3,17.3,0,0,0-2.89,1.1,5.69,5.69,0,0,0-1-3.68,8.39,8.39,0,0,0-6-3.23,19.3,19.3,0,0,1,6-2.38m0-.51A20,20,0,0,0,7,6.27a6.7,6.7,0,0,1,1.28-.12,7.81,7.81,0,0,1,6.14,3.06A4.9,4.9,0,0,1,15,13.73c1.06-1,4.13-1.85,4.13-1.85a9.58,9.58,0,0,0,.09-5,5.21,5.21,0,0,0-4.34-4.13"/><path class="cls-4" d="M30.69,13a15.93,15.93,0,0,0-3.42-1.36A9.27,9.27,0,0,1,27.21,7a4.94,4.94,0,0,1,4.15-4,20.16,20.16,0,0,1,6.85,2.89h-.34a8.12,8.12,0,0,0-6.34,3.16,5.44,5.44,0,0,0-.84,4"/><path class="cls-5" d="M31.32,3.29a19.34,19.34,0,0,1,6,2.38,8.35,8.35,0,0,0-6,3.22,5.6,5.6,0,0,0-1,3.69,17.67,17.67,0,0,0-2.9-1.1,9.11,9.11,0,0,1,0-4.47,4.67,4.67,0,0,1,3.86-3.72m0-.51A5.21,5.21,0,0,0,27,6.91a9.46,9.46,0,0,0,.1,5s3.06.81,4.12,1.85a4.93,4.93,0,0,1,.54-4.52,7.82,7.82,0,0,1,6.14-3.06,6.7,6.7,0,0,1,1.28.12,20,20,0,0,0-7.84-3.49"/><path class="cls-6" d="M42,11.91c0-5.41-8.48-9.8-18.93-9.8S4.15,6.5,4.15,11.91v4.67a6,6,0,0,0,1.49,3.81,9.92,9.92,0,0,0,1.74,1.67,15.7,15.7,0,0,0,2.31,1.45,24,24,0,0,0,2.8,1.2,30.23,30.23,0,0,0,5,1.23,36.3,36.3,0,0,0,5.63.44,36.3,36.3,0,0,0,5.63-.44,30.36,30.36,0,0,0,4.95-1.23,22.66,22.66,0,0,0,2.8-1.2,15.19,15.19,0,0,0,2.31-1.45,10.36,10.36,0,0,0,1.75-1.67A6,6,0,0,0,42,16.58Zm-9.73,2.33c-1.67,1.76-5.16,3-9.2,3s-7.54-1.22-9.21-3c1.67-1.76,5.16-3,9.21-3S30.61,12.48,32.28,14.24Z"/><path class="cls-6" d="M46.26,12.15c0,6.58-10.3,11.9-23,11.9s-23-5.32-23-11.9S10.56.25,23.26.25,46.26,5.58,46.26,12.15Z"/></g></g></svg>