<svg xmlns="http://www.w3.org/2000/svg" viewBox="0 0 46.88 48.58"><defs><style>.cls-1{fill:#ebebeb;}.cls-2{fill:#dfeab0;}.cls-3,.cls-6{fill:none;stroke-linejoin:round;stroke-width:0.5px;}.cls-3{stroke:#b6cd5b;}.cls-4{fill:#fff;}.cls-5{fill:#deeaff;}.cls-6{stroke:#304d9d;}.cls-7{fill:#98b9ea;}</style></defs><title>distributed_everything</title><g id="Layer_2" data-name="Layer 2"><g id="Layer_1-2" data-name="Layer 1"><polygon class="cls-1" points="23.44 48.58 0.31 40.1 23.44 31.61 46.57 40.1 23.44 48.58"/><path class="cls-2" d="M42.39,40l-1.15-5L39,35.86C31.08,33.4,32.46,28.12,32.39,21l-4.78,1.95c0,9.27-.17,12.46,6.47,14.62l-3.17,1.18Z"/><path class="cls-3" d="M42.39,40l-1.15-5L39,35.86C31.08,33.4,32.46,28.12,32.39,21l-4.78,1.95c0,9.27-.17,12.46,6.47,14.62l-3.17,1.18Z"/><path class="cls-2" d="M4.48,40l1.15-5,2.28.81c7.89-2.46,6.5-7.74,6.58-14.88l4.78,1.95c0,9.27.17,12.46-6.47,14.62L16,38.73Z"/><path class="cls-3" d="M4.48,40l1.15-5,2.28.81c7.89-2.46,6.5-7.74,6.58-14.88l4.78,1.95c0,9.27.17,12.46-6.47,14.62L16,38.73Z"/><polygon class="cls-4" points="25.79 40.04 25.79 20.98 21.19 20.98 21.19 40.04 18.27 40.04 23.4 45.27 28.54 40.04 25.79 40.04"/><polygon class="cls-3" points="25.79 40.04 25.79 20.98 21.19 20.98 21.19 40.04 18.27 40.04 23.4 45.27 28.54 40.04 25.79 40.04"/><path class="cls-5" d="M40.89,6.6,27.59,1.1A8.35,8.35,0,0,0,20.77.86c-4.2,1.56-7.61,5.9-8.69,10.64a6.74,6.74,0,0,0-5.54,0C2.49,13.2.25,18.72.25,22.76v1.09l13.67,5.82V28.43"/><path class="cls-6" d="M40.89,6.6,27.59,1.1A8.35,8.35,0,0,0,20.77.86c-4.2,1.56-7.61,5.9-8.69,10.64a6.74,6.74,0,0,0-5.54,0C2.49,13.2.25,18.72.25,22.76v1.09l13.67,5.82V28.43"/><path class="cls-7" d="M46.63,17.67v-1.4c0-6.61-5.46-12.25-12.19-9.74-4.2,1.56-7.61,5.9-8.7,10.64a6.71,6.71,0,0,0-5.53,0c-4.06,1.68-6.29,7.19-6.29,11.23v1.24Z"/><path class="cls-6" d="M46.63,17.67v-1.4c0-6.61-5.46-12.25-12.19-9.74-4.2,1.56-7.61,5.9-8.7,10.64a6.71,6.71,0,0,0-5.53,0c-4.06,1.68-6.29,7.19-6.29,11.23v1.24Z"/><line class="cls-6" x1="12.08" y1="11.5" x2="25.74" y2="17.17"/></g></g></svg>