<svg xmlns="http://www.w3.org/2000/svg" xmlns:xlink="http://www.w3.org/1999/xlink" viewBox="0 0 46.26 48.1"><defs><style>.cls-1,.cls-7{fill:none;}.cls-2{isolation:isolate;}.cls-3{mix-blend-mode:multiply;}.cls-4{clip-path:url(#clip-path);}.cls-5{fill:#ebebeb;}.cls-6{fill:#deeaff;}.cls-7{stroke:#304d9d;stroke-linejoin:round;stroke-width:0.5px;}.cls-8{fill:#fff;}.cls-9{fill:#98b9ea;}.cls-10{fill:#627ebc;}.cls-11{fill:#436db5;}</style><clipPath id="clip-path"><rect class="cls-1" y="31.14" width="46.26" height="16.97"/></clipPath></defs><title>document</title><g class="cls-2"><g id="Layer_2" data-name="Layer 2"><g id="Layer_1-2" data-name="Layer 1"><g class="cls-3"><g class="cls-4"><polygon class="cls-5" points="23.13 48.1 0 39.62 23.13 31.14 46.26 39.62 23.13 48.1"/></g></g><polygon class="cls-6" points="13.54 40.6 11.14 39.7 11.14 4.88 13.54 5.78 13.54 40.6"/><polygon class="cls-7" points="13.54 40.6 11.14 39.7 11.14 4.88 13.54 5.78 13.54 40.6"/><polygon class="cls-8" points="26.06 1.15 23.66 0.25 11.14 4.88 13.54 5.78 26.06 1.15"/><polygon class="cls-7" points="26.06 1.15 23.66 0.25 11.14 4.88 13.54 5.78 26.06 1.15"/><polygon class="cls-9" points="13.54 40.6 19.13 38.46 35.12 32.36 35.12 7.26 26.03 1.14 13.54 5.78 13.54 33.45 13.54 40.6"/><polygon class="cls-7" points="13.54 40.6 19.13 38.46 35.12 32.36 35.12 7.26 26.03 1.14 13.54 5.78 13.54 33.45 13.54 40.6"/><polygon class="cls-10" points="26.06 1.15 26.06 10.51 35.12 7.26 26.06 1.15"/><polygon class="cls-8" points="26.06 1.15 30.36 10.51 35.12 7.26 26.06 1.15"/><polygon class="cls-7" points="26.06 1.15 30.36 10.51 35.12 7.26 26.06 1.15"/><polygon class="cls-11" points="32.92 19.2 15.87 25.76 15.87 27.01 32.92 20.44 32.92 19.2"/><polygon class="cls-11" points="32.92 14.85 15.87 21.42 15.87 22.66 32.92 16.09 32.92 14.85"/><polygon class="cls-11" points="32.92 23.1 15.87 29.67 15.87 30.91 32.92 24.34 32.92 23.1"/><polygon class="cls-11" points="32.92 27.01 15.87 33.57 15.87 34.81 32.92 28.25 32.92 27.01"/></g></g></g></svg>