<svg xmlns="http://www.w3.org/2000/svg" xmlns:xlink="http://www.w3.org/1999/xlink" viewBox="0 0 50.11 48.21"><defs><style>.cls-1,.cls-11,.cls-8{fill:none;}.cls-2,.cls-3{isolation:isolate;}.cls-3{mix-blend-mode:multiply;}.cls-4{clip-path:url(#clip-path);}.cls-5{clip-path:url(#clip-path-2);}.cls-6{fill:#ebebeb;}.cls-7{fill:#dfeab0;}.cls-8{stroke:#b6cd5b;}.cls-11,.cls-8{stroke-linejoin:round;stroke-width:0.5px;}.cls-9{fill:#fff;}.cls-10{fill:#deeaff;}.cls-11{stroke:#304d9d;}.cls-12{fill:#436db5;}.cls-13{fill:#98b9ea;}.cls-14{fill:#c4d36c;}</style><clipPath id="clip-path" transform="translate(-0.56)"><rect class="cls-1" y="28.87" width="51" height="20"/></clipPath><clipPath id="clip-path-2" transform="translate(-0.56)"><rect class="cls-1" x="0.56" y="29.83" width="50.11" height="18.38"/></clipPath></defs><title>end_to_end_security</title><g class="cls-2"><g id="Layer_2" data-name="Layer 2"><g id="Layer_1-2" data-name="Layer 1"><g class="cls-3"><g class="cls-4"><g class="cls-5"><polygon class="cls-6" points="25.05 48.21 0 39.02 25.05 29.84 50.11 39.02 25.05 48.21"/></g></g></g><path class="cls-7" d="M11.57,37l6.16-10.8-6,1.29C10.39,22,16.43,16,25.18,14.13s16.9,1.08,18.2,6.57S38.65,32.14,29.9,34l.85,3.58c11.9-2.53,20.11-10.64,18.33-18.1S36.23,8,24.33,10.56,4.22,21.19,6,28.65l-4.88,1Z" transform="translate(-0.56)"/><path class="cls-8" d="M11.57,37l6.16-10.8-6,1.29C10.39,22,16.43,16,25.18,14.13s16.9,1.08,18.2,6.57S38.65,32.14,29.9,34l.85,3.58c11.9-2.53,20.11-10.64,18.33-18.1S36.23,8,24.33,10.56,4.22,21.19,6,28.65l-4.88,1Z" transform="translate(-0.56)"/><path class="cls-7" d="M43.38,20.7C44.69,26.18,38.65,32.14,29.9,34l.85,3.58c11.9-2.53,20.11-10.64,18.33-18.1" transform="translate(-0.56)"/><path class="cls-8" d="M43.38,20.7C44.69,26.18,38.65,32.14,29.9,34l.85,3.58c11.9-2.53,20.11-10.64,18.33-18.1" transform="translate(-0.56)"/><path class="cls-7" d="M43.38,20.7C44.69,26.18,38.65,32.14,29.9,34l.85,3.58c11.9-2.53,20.11-10.64,18.33-18.1" transform="translate(-0.56)"/><path class="cls-8" d="M43.38,20.7C44.69,26.18,38.65,32.14,29.9,34l.85,3.58c11.9-2.53,20.11-10.64,18.33-18.1" transform="translate(-0.56)"/><path class="cls-7" d="M11.63,40.38,17.8,29.59l-5.28,1.08c-1.3-5.48,4.73-11.44,13.48-13.3s16.9,1.08,18.2,6.56-4.73,11.44-13.48,13.3l.85,3.58c11.9-2.53,20.11-10.63,18.34-18.09S37.05,11.26,25.15,13.79,5,24.43,6.82,31.89l-4.88,1Z" transform="translate(-0.56)"/><path class="cls-8" d="M11.63,40.38,17.8,29.59l-5.28,1.08c-1.3-5.48,4.73-11.44,13.48-13.3s16.9,1.08,18.2,6.56-4.73,11.44-13.48,13.3l.85,3.58c11.9-2.53,20.11-10.63,18.34-18.09S37.05,11.26,25.15,13.79,5,24.43,6.82,31.89l-4.88,1Z" transform="translate(-0.56)"/><polygon class="cls-7" points="17.17 26.15 17.24 29.59 11.07 40.38 11.01 36.95 17.17 26.15"/><polygon class="cls-8" points="17.17 26.15 17.24 29.59 11.07 40.38 11.01 36.95 17.17 26.15"/><path class="cls-9" d="M11.57,37l6.16-10.8-6,1.29C10.39,22,16.43,16,25.18,14.13s16.9,1.08,18.2,6.57S38.65,32.14,29.9,34l.85,3.58c11.9-2.53,20.11-10.64,18.33-18.1S36.23,8,24.33,10.56,4.22,21.19,6,28.65l-4.88,1Z" transform="translate(-0.56)"/><path class="cls-8" d="M11.57,37l6.16-10.8-6,1.29C10.39,22,16.43,16,25.18,14.13s16.9,1.08,18.2,6.57S38.65,32.14,29.9,34l.85,3.58c11.9-2.53,20.11-10.64,18.33-18.1S36.23,8,24.33,10.56,4.22,21.19,6,28.65l-4.88,1Z" transform="translate(-0.56)"/><polygon class="cls-10" points="17.22 17.15 17.22 34.98 33.12 28.64 33.12 10.98 17.22 17.15"/><polygon class="cls-11" points="17.22 17.15 17.22 34.98 33.12 28.64 33.12 10.98 17.22 17.15"/><path class="cls-10" d="M23.34,19.19V37c7.92-1.75,13.78-3.79,15.91-6.33V13Z" transform="translate(-0.56)"/><path class="cls-11" d="M23.34,19.19V37c7.92-1.75,13.78-3.79,15.91-6.33V13Z" transform="translate(-0.56)"/><path class="cls-12" d="M35.6,21.53c0-1.82-1.32-2.78-2.94-2.14a5.08,5.08,0,0,0-2.94,4.44,2,2,0,0,0,2,2.32l-2,6.43,5.88-2.3-2-4.86a5.21,5.21,0,0,0,2-3.89" transform="translate(-0.56)"/><path class="cls-9" d="M17.78,17.15l5.56,2c7.14-1.51,12.29-3.61,15.91-6.16l-5.57-2a48.79,48.79,0,0,0-15.9,6.17" transform="translate(-0.56)"/><path class="cls-11" d="M17.78,17.15l5.56,2c7.14-1.51,12.29-3.61,15.91-6.16l-5.57-2A48.79,48.79,0,0,0,17.78,17.15Z" transform="translate(-0.56)"/><polygon class="cls-13" points="22.79 37.02 17.22 34.98 17.22 17.15 22.79 19.19 22.79 37.02"/><polygon class="cls-11" points="22.79 37.02 17.22 34.98 17.22 17.15 22.79 19.19 22.79 37.02"/><path class="cls-10" d="M22,16.46V7.58c0-4.07,1.87-6.1,5-7,3.43-1.17,8.19.93,8.19,5.54v6.45c0,1-2.56,1.84-3.64.64V6.74A2.83,2.83,0,0,0,27.66,4.1l-.21.08a2.83,2.83,0,0,0-1.81,2.64v8.93c0,1.2-2.89,2.06-3.64.71" transform="translate(-0.56)"/><path class="cls-11" d="M22,16.46V7.58c0-4.07,1.87-6.1,5-7,3.43-1.17,8.19.93,8.19,5.54v6.45c0,1-2.56,1.84-3.64.64V6.74A2.83,2.83,0,0,0,27.66,4.1l-.21.08a2.83,2.83,0,0,0-1.81,2.64v8.93C25.6,17,22.75,17.81,22,16.46Z" transform="translate(-0.56)"/><polygon class="cls-14" points="0.55 29.69 0.57 33.1 11.07 40.38 11.01 36.95 0.55 29.69"/><polygon class="cls-8" points="0.55 29.69 0.57 33.1 11.07 40.38 11.01 36.95 0.55 29.69"/><path class="cls-7" d="M44.2,23.93c1.31,5.49-4.73,11.44-13.48,13.31L30.81,41c11.9-2.53,20.87-10.83,19.1-18.29" transform="translate(-0.56)"/><path class="cls-8" d="M44.2,23.93c1.31,5.49-4.73,11.44-13.48,13.31L30.81,41c11.9-2.53,20.87-10.83,19.1-18.29" transform="translate(-0.56)"/><polygon class="cls-14" points="29.34 34 29.36 37.88 30.25 41.01 30.19 37.58 29.34 34"/><polygon class="cls-8" points="29.34 34 29.36 37.88 30.25 41.01 30.19 37.58 29.34 34"/><path class="cls-9" d="M43.38,20.7C44.69,26.18,38.65,32.14,29.9,34l.85,3.58c11.9-2.53,20.11-10.64,18.33-18.1" transform="translate(-0.56)"/><path class="cls-8" d="M43.38,20.7C44.69,26.18,38.65,32.14,29.9,34l.85,3.58c11.9-2.53,20.11-10.64,18.33-18.1" transform="translate(-0.56)"/></g></g></g></svg>