<svg xmlns="http://www.w3.org/2000/svg" viewBox="0 0 49.13 49.38"><defs><style>.cls-1{fill:#ebebeb;}.cls-2{fill:#deeaff;}.cls-3,.cls-8{fill:none;stroke-linejoin:round;stroke-width:0.5px;}.cls-3{stroke:#304d9d;}.cls-4{fill:#fff;}.cls-5{fill:#98b9ea;}.cls-6{fill:#b6cd5b;}.cls-7{fill:#c4d36c;}.cls-8{stroke:#b6cd5b;}.cls-9{fill:#dfeab0;}</style></defs><title>entreprise_storage</title><g id="Layer_2" data-name="Layer 2"><g id="Layer_1-2" data-name="Layer 1"><polygon class="cls-1" points="24.56 49.38 1.43 40.9 24.56 32.42 47.69 40.9 24.56 49.38"/><polygon class="cls-2" points="0.25 36.61 24.56 45.53 24.56 40.01 0.25 31.09 0.25 36.61"/><polygon class="cls-3" points="0.25 36.61 24.56 45.53 24.56 40.01 0.25 31.09 0.25 36.61"/><polygon class="cls-4" points="48.88 36.61 24.57 45.53 24.57 40.01 48.88 31.09 48.88 36.61"/><polygon class="cls-3" points="48.88 36.61 24.57 45.53 24.57 40.01 48.88 31.09 48.88 36.61"/><polygon class="cls-5" points="24.56 40.01 0.25 31.09 24.56 22.18 48.88 31.09 24.56 40.01"/><polygon class="cls-3" points="24.56 40.01 0.25 31.09 24.56 22.18 48.88 31.09 24.56 40.01"/><path class="cls-6" d="M28.89,41.3a2.12,2.12,0,0,1-1.4,1.86,1,1,0,0,1-1.41-.94,2.12,2.12,0,0,1,1.41-1.87,1,1,0,0,1,1.4.95"/><path class="cls-6" d="M32.9,39.82a2.12,2.12,0,0,1-1.4,1.86,1,1,0,0,1-1.41-.94,2.12,2.12,0,0,1,1.41-1.87,1,1,0,0,1,1.4,1"/><polygon class="cls-7" points="7.17 14.75 13.55 33.68 34.27 26.5 27.89 7.57 7.17 14.75"/><polygon class="cls-8" points="7.17 14.75 13.55 33.68 34.27 26.5 27.89 7.57 7.17 14.75"/><polygon class="cls-4" points="16.44 31.15 32.69 25.33 32.69 0.25 16.44 6.07 16.44 31.15"/><polygon class="cls-3" points="16.44 31.15 32.69 25.33 32.69 0.25 16.44 6.07 16.44 31.15"/><polygon class="cls-9" points="37.98 11.08 39.31 8.53 31.41 11.33 30.08 13.91 21.24 16.86 13.55 33.68 34.27 26.5 41.95 9.68 37.98 11.08"/><polygon class="cls-8" points="37.98 11.08 39.31 8.53 31.41 11.33 30.08 13.91 21.24 16.86 13.55 33.68 34.27 26.5 41.95 9.68 37.98 11.08"/></g></g></svg>