<svg xmlns="http://www.w3.org/2000/svg" viewBox="0 0 49.13 49.8"><defs><style>.cls-1{fill:#ebebeb;}.cls-2{fill:#deeaff;}.cls-3{fill:none;stroke:#304d9d;stroke-linejoin:round;stroke-width:0.5px;}.cls-4{fill:#fff;}.cls-5{fill:#98b9ea;}.cls-6{fill:#b6cd5b;}.cls-7{fill:#dfeab0;}.cls-8{fill:#c4d36c;}</style></defs><title>entreprise_applications</title><g id="Layer_2" data-name="Layer 2"><g id="Layer_1-2" data-name="Layer 1"><polygon class="cls-1" points="24.31 49.8 1.18 41.31 24.31 32.83 47.44 41.31 24.31 49.8"/><polygon class="cls-2" points="0.25 37.03 24.56 45.94 24.56 40.42 0.25 31.51 0.25 37.03"/><polygon class="cls-3" points="0.25 37.03 24.56 45.94 24.56 40.42 0.25 31.51 0.25 37.03"/><polygon class="cls-4" points="48.88 37.03 24.56 45.94 24.56 40.42 48.88 31.51 48.88 37.03"/><polygon class="cls-3" points="48.88 37.03 24.56 45.94 24.56 40.42 48.88 31.51 48.88 37.03"/><polygon class="cls-5" points="24.56 40.42 0.25 31.51 24.56 22.59 48.88 31.51 24.56 40.42"/><polygon class="cls-3" points="24.56 40.42 0.25 31.51 24.56 22.59 48.88 31.51 24.56 40.42"/><path class="cls-6" d="M28.89,41.71a2.12,2.12,0,0,1-1.4,1.86,1,1,0,0,1-1.41-.94,2.13,2.13,0,0,1,1.41-1.87,1,1,0,0,1,1.4,1"/><path class="cls-6" d="M32.9,40.23a2.11,2.11,0,0,1-1.4,1.86,1,1,0,0,1-1.41-.94,2.13,2.13,0,0,1,1.41-1.87,1,1,0,0,1,1.4.95"/><polygon class="cls-2" points="12.66 34.05 10.87 33.37 10.87 13.72 12.66 14.4 12.66 34.05"/><polygon class="cls-3" points="12.66 34.05 10.87 33.37 10.87 13.72 12.66 14.4 12.66 34.05"/><polygon class="cls-5" points="38.26 4.24 36.47 3.55 10.87 13.72 12.66 14.4 38.26 4.24"/><polygon class="cls-3" points="38.26 4.24 36.47 3.55 10.87 13.72 12.66 14.4 38.26 4.24"/><polygon class="cls-4" points="12.66 34.05 38.25 23.88 38.25 4.23 12.66 14.4 12.66 34.05"/><polygon class="cls-3" points="12.66 34.05 38.25 23.88 38.25 4.23 12.66 14.4 12.66 34.05"/><polygon class="cls-7" points="15.48 26.5 29.28 21.02 29.28 10.41 15.48 15.9 15.48 26.5"/><polygon class="cls-8" points="26.72 25.57 35.41 22.11 35.41 13.44 26.72 16.89 26.72 25.57"/><polygon class="cls-2" points="12.66 13.44 10.87 12.75 10.87 10.41 12.66 11.1 12.66 13.44"/><polygon class="cls-3" points="12.66 13.44 10.87 12.75 10.87 10.41 12.66 11.1 12.66 13.44"/><polygon class="cls-5" points="38.26 0.93 36.47 0.25 10.87 10.41 12.66 11.1 38.26 0.93"/><polygon class="cls-3" points="38.26 0.93 36.47 0.25 10.87 10.41 12.66 11.1 38.26 0.93"/><polygon class="cls-4" points="12.66 13.44 38.25 3.27 38.25 0.93 12.66 11.1 12.66 13.44"/><polygon class="cls-3" points="12.66 13.44 38.25 3.27 38.25 0.93 12.66 11.1 12.66 13.44"/></g></g></svg>