<svg xmlns="http://www.w3.org/2000/svg" xmlns:xlink="http://www.w3.org/1999/xlink" viewBox="0 0 46.26 45.61"><defs><style>.cls-1,.cls-7{fill:none;}.cls-2{isolation:isolate;}.cls-3{mix-blend-mode:multiply;}.cls-4{clip-path:url(#clip-path);}.cls-5{fill:#ebebeb;}.cls-6{fill:#deeaff;}.cls-7{stroke:#304d9d;stroke-linejoin:round;stroke-width:0.5px;}.cls-8{fill:#fff;}.cls-9{fill:#98b9ea;}</style><clipPath id="clip-path" transform="translate(0)"><rect class="cls-1" y="28.64" width="46.26" height="16.97"/></clipPath></defs><title>envelope</title><g class="cls-2"><g id="Layer_2" data-name="Layer 2"><g id="Layer_1-2" data-name="Layer 1"><g class="cls-3"><g class="cls-4"><polygon class="cls-5" points="23.13 45.61 0 37.13 23.13 28.64 46.26 37.13 23.13 45.61"/></g></g><polygon class="cls-6" points="5.61 40.3 3.21 39.4 3.21 14.46 5.61 15.36 5.61 40.3"/><polygon class="cls-7" points="5.61 40.3 3.21 39.4 3.21 14.46 5.61 15.36 5.61 40.3"/><polygon class="cls-8" points="43.01 1.15 40.61 0.25 3.21 14.46 5.61 15.36 43.01 1.15"/><polygon class="cls-7" points="43.01 1.15 40.61 0.25 3.21 14.46 5.61 15.36 43.01 1.15"/><polygon class="cls-8" points="5.61 15.36 5.61 40.3 43.01 25.9 43.01 1.15 5.61 15.36"/><polygon class="cls-7" points="5.61 15.36 5.61 40.3 43.01 25.9 43.01 1.15 5.61 15.36"/><polygon class="cls-9" points="5.61 15.3 27.3 27.6 43.01 1.15 5.61 15.3"/><polygon class="cls-8" points="5.61 15.36 32.8 25.46 43.01 1.15 5.61 15.36"/><polygon class="cls-7" points="5.61 15.36 32.8 25.46 43.01 1.15 5.61 15.36"/></g></g></g></svg>