<svg xmlns="http://www.w3.org/2000/svg" xmlns:xlink="http://www.w3.org/1999/xlink" viewBox="0 0 50.11 49.63"><defs><style>.cls-1,.cls-12,.cls-8{fill:none;}.cls-2,.cls-3{isolation:isolate;}.cls-3{mix-blend-mode:multiply;}.cls-4{clip-path:url(#clip-path);}.cls-5{clip-path:url(#clip-path-2);}.cls-6{fill:#ebebeb;}.cls-7{fill:#deeaff;}.cls-8{stroke:#304d9d;}.cls-12,.cls-8{stroke-linejoin:round;stroke-width:0.5px;}.cls-9{fill:#fff;}.cls-10{fill:#98b9ea;}.cls-11{fill:#dfeab0;}.cls-12{stroke:#b6cd5b;}.cls-13{fill:#c4d36c;}</style><clipPath id="clip-path" transform="translate(-0.3)"><rect class="cls-1" y="30.68" width="51" height="19"/></clipPath><clipPath id="clip-path-2" transform="translate(-0.3)"><rect class="cls-1" x="0.3" y="31.25" width="50.11" height="18.38"/></clipPath></defs><title>firewall</title><g class="cls-2"><g id="Layer_2" data-name="Layer 2"><g id="Layer_1-2" data-name="Layer 1"><g class="cls-3"><g class="cls-4"><g class="cls-5"><polygon class="cls-6" points="25.05 49.63 0 40.44 25.05 31.25 50.11 40.44 25.05 49.63"/></g></g></g><polygon class="cls-7" points="9.08 45.37 3.12 43.09 3.12 14.29 9.08 16.56 9.08 45.37"/><polygon class="cls-8" points="9.08 45.37 3.12 43.09 3.12 14.29 9.08 16.56 9.08 45.37"/><polygon class="cls-9" points="45.89 2.52 39.94 0.25 3.12 14.29 9.08 16.56 45.89 2.52"/><polygon class="cls-8" points="45.89 2.52 39.94 0.25 3.12 14.29 9.08 16.56 45.89 2.52"/><polygon class="cls-10" points="9.08 45.37 45.86 31.31 45.86 2.51 9.08 16.56 9.08 45.37"/><polygon class="cls-8" points="9.08 45.37 45.86 31.31 45.86 2.51 9.08 16.56 9.08 45.37"/><line class="cls-8" x1="45.86" y1="8.88" x2="9.08" y2="22.94"/><line class="cls-8" x1="45.86" y1="16.49" x2="9.08" y2="30.54"/><line class="cls-8" x1="45.86" y1="24.09" x2="9.08" y2="38.14"/><line class="cls-8" x1="18.78" y1="12.7" x2="18.78" y2="19.24"/><line class="cls-8" x1="38.5" y1="5.34" x2="38.5" y2="11.64"/><line class="cls-8" x1="29.05" y1="15.47" x2="29.05" y2="23"/><line class="cls-8" x1="16.77" y1="27.6" x2="16.77" y2="35.2"/><line class="cls-8" x1="39.32" y1="19.24" x2="39.32" y2="26.59"/><line class="cls-8" x1="35.19" y1="28.34" x2="35.19" y2="35.54"/><line class="cls-8" x1="24.99" y1="31.94" x2="24.99" y2="39.14"/><line class="cls-8" x1="3.12" y1="20.94" x2="9.08" y2="23.21"/><line class="cls-8" x1="3.12" y1="28.19" x2="9.08" y2="30.46"/><line class="cls-8" x1="3.12" y1="35.88" x2="9.08" y2="38.15"/><polygon class="cls-7" points="21.44 22.88 21.44 35.53 32.72 31.03 32.72 18.51 21.44 22.88"/><polygon class="cls-8" points="21.44 22.88 21.44 35.53 32.72 31.03 32.72 18.51 21.44 22.88"/><path class="cls-11" d="M25.68,24.33V37c5.61-1.25,9.77-2.69,11.28-4.5V20Z" transform="translate(-0.3)"/><path class="cls-12" d="M25.68,24.33V37c5.61-1.25,9.77-2.69,11.28-4.5V20Z" transform="translate(-0.3)"/><path class="cls-9" d="M21.73,22.88l3.95,1.45C30.74,23.26,34.39,21.77,37,20l-4-1.45a34.59,34.59,0,0,0-11.28,4.37" transform="translate(-0.3)"/><path class="cls-12" d="M21.73,22.88l3.95,1.45C30.74,23.26,34.39,21.77,37,20l-4-1.45A34.59,34.59,0,0,0,21.73,22.88Z" transform="translate(-0.3)"/><polygon class="cls-13" points="25.39 36.98 21.44 35.53 21.44 22.88 25.39 24.33 25.39 36.98"/><polygon class="cls-12" points="25.39 36.98 21.44 35.53 21.44 22.88 25.39 24.33 25.39 36.98"/><path class="cls-11" d="M24.73,22.39V16.1c0-2.89,1.32-4.33,3.51-5,2.43-.82,5.81.67,5.81,3.93v4.58c0,.72-1.81,1.31-2.58.45V15.5a2,2,0,0,0-2.73-1.87l-.15,0a2,2,0,0,0-1.28,1.88v6.33c0,.85-2,1.46-2.58.5" transform="translate(-0.3)"/><path class="cls-12" d="M24.73,22.39V16.1c0-2.89,1.32-4.33,3.51-5,2.43-.82,5.81.67,5.81,3.93v4.58c0,.72-1.81,1.31-2.58.45V15.5a2,2,0,0,0-2.73-1.87l-.15,0a2,2,0,0,0-1.28,1.88v6.33C27.28,22.74,25.26,23.35,24.73,22.39Z" transform="translate(-0.3)"/></g></g></g></svg>