<svg xmlns="http://www.w3.org/2000/svg" viewBox="0 0 50.62 45.95"><defs><style>.cls-1{fill:#ebebeb;}.cls-2{fill:#fff;}.cls-3{fill:none;stroke:#b6cd5b;stroke-linejoin:round;stroke-width:0.5px;}.cls-4{fill:#c4d36c;}.cls-5{fill:#dfeab0;}</style></defs><title>key</title><g id="Layer_2" data-name="Layer 2"><g id="Layer_1-2" data-name="Layer 1"><polygon class="cls-1" points="25.28 45.95 2.15 37.47 25.28 28.99 48.41 37.47 25.28 45.95"/><path class="cls-2" d="M23.15,13.24l3.53.59L50.37,3.38,44.93.25,22.71,10Zm-.44-4.19s-4-2.89-6.33-3.4a8.78,8.78,0,0,0-5.44.79C5,9.1.25,16.6.25,23.19A8.45,8.45,0,0,0,2.7,29.68l6.2,3.9s-3.21-1.12-3.21-7.26c0-8.61,9.26-20.46,17-17.27"/><path class="cls-3" d="M23.15,13.24l3.53.59L50.37,3.38,44.93.25,22.71,10Zm-.44-4.19s-4-2.89-6.33-3.4a8.78,8.78,0,0,0-5.44.79C5,9.1.25,16.6.25,23.19A8.45,8.45,0,0,0,2.7,29.68l6.2,3.9s-3.21-1.12-3.21-7.26C5.69,17.71,15,5.86,22.71,9.05Z"/><path class="cls-4" d="M17.15,12.59c1,3.73-.64,11.82-7.44,12.52s4.9,5.76,4.9,5.76c6.06-2.22,8.67-7.64,9.61-14.6Z"/><path class="cls-3" d="M17.15,12.59c1,3.73-.64,11.82-7.44,12.52s4.9,5.76,4.9,5.76c6.06-2.22,8.67-7.64,9.61-14.6Z"/><path class="cls-5" d="M35.1,25.2l4.25-1.87v-8.4l3.21-1.42V21.8L47,19.93V11.75l3.37-1.46V3.38L26.68,13.83c-1.2-4.58-5.34-6.51-10.3-4.27C10.47,12.23,5.69,19.73,5.69,26.32s4.79,9.77,10.69,7.1C21.13,31.27,25.1,26,26.5,20.59l8.6-3.81ZM11.23,23.82a9.56,9.56,0,0,1,5.15-8.07c2.84-1.29,5.15.24,5.15,3.41a9.61,9.61,0,0,1-5.15,8.08c-2.85,1.28-5.15-.25-5.15-3.42"/><path class="cls-3" d="M35.1,25.2l4.25-1.87v-8.4l3.21-1.42V21.8L47,19.93V11.75l3.37-1.46V3.38L26.68,13.83c-1.2-4.58-5.34-6.51-10.3-4.27C10.47,12.23,5.69,19.73,5.69,26.32s4.79,9.77,10.69,7.1C21.13,31.27,25.1,26,26.5,20.59l8.6-3.81ZM11.23,23.82a9.56,9.56,0,0,1,5.15-8.07c2.84-1.29,5.15.24,5.15,3.41a9.61,9.61,0,0,1-5.15,8.08C13.53,28.52,11.23,27,11.23,23.82Z"/><polygon class="cls-4" points="42.56 21.8 39.35 19.93 39.35 14.94 42.56 13.51 42.56 21.8"/><polygon class="cls-3" points="42.56 21.8 39.35 19.93 39.35 14.94 42.56 13.51 42.56 21.8"/><polygon class="cls-4" points="35.03 25.24 31.82 23.36 31.82 18.37 35.03 16.94 35.03 25.24"/><polygon class="cls-3" points="35.03 25.24 31.82 23.36 31.82 18.37 35.03 16.94 35.03 25.24"/></g></g></svg>