<svg xmlns="http://www.w3.org/2000/svg" viewBox="0 0 49.13 49.41"><defs><style>.cls-1{fill:#ebebeb;}.cls-2{fill:#deeaff;}.cls-3,.cls-8{fill:none;stroke-linejoin:round;stroke-width:0.5px;}.cls-3{stroke:#304d9d;}.cls-4{fill:#fff;}.cls-5{fill:#98b9ea;}.cls-6{fill:#b6cd5b;}.cls-7{fill:#c4d36c;}.cls-8{stroke:#b6cd5b;}.cls-9{fill:#dfeab0;}</style></defs><title>key_management_server</title><g id="Layer_2" data-name="Layer 2"><g id="Layer_1-2" data-name="Layer 1"><polygon class="cls-1" points="24.06 49.41 0.93 40.93 24.06 32.44 47.19 40.93 24.06 49.41"/><polygon class="cls-2" points="0.25 35.26 24.56 44.18 24.56 38.66 0.25 29.75 0.25 35.26"/><polygon class="cls-3" points="0.25 35.26 24.56 44.18 24.56 38.66 0.25 29.75 0.25 35.26"/><polygon class="cls-4" points="48.88 35.26 24.56 44.18 24.56 38.66 48.88 29.75 48.88 35.26"/><polygon class="cls-3" points="48.88 35.26 24.56 44.18 24.56 38.66 48.88 29.75 48.88 35.26"/><polygon class="cls-5" points="24.56 38.66 0.25 29.75 24.56 20.83 48.88 29.75 24.56 38.66"/><polygon class="cls-3" points="24.56 38.66 0.25 29.75 24.56 20.83 48.88 29.75 24.56 38.66"/><path class="cls-6" d="M28.89,40a2.12,2.12,0,0,1-1.4,1.86,1,1,0,0,1-1.41-.94A2.13,2.13,0,0,1,27.49,39a1,1,0,0,1,1.4,1"/><path class="cls-6" d="M32.9,38.47a2.12,2.12,0,0,1-1.4,1.86,1,1,0,0,1-1.41-.94,2.13,2.13,0,0,1,1.41-1.87,1,1,0,0,1,1.4.95"/><polygon class="cls-7" points="10.86 34.93 9.18 34.15 9.18 6.4 10.86 7.18 10.86 34.93"/><polygon class="cls-8" points="10.86 34.93 9.18 34.15 9.18 6.4 10.86 7.18 10.86 34.93"/><polygon class="cls-4" points="27.16 1.03 25.48 0.25 9.18 6.4 10.86 7.18 27.16 1.03"/><polygon class="cls-8" points="27.16 1.03 25.48 0.25 9.18 6.4 10.86 7.18 27.16 1.03"/><polygon class="cls-9" points="10.86 34.93 27.13 28.77 27.13 1.02 10.86 7.18 10.86 34.93"/><polygon class="cls-8" points="10.86 34.93 27.13 28.77 27.13 1.02 10.86 7.18 10.86 34.93"/><polygon class="cls-4" points="12.4 31.72 25.59 26.72 25.59 3.33 12.4 8.32 12.4 31.72"/><path class="cls-5" d="M20.83,4.24V2.56c0-.92-.78-1.38-1.74-1a2.74,2.74,0,0,0-1.73,2.32V5.52L13.41,7l-.64,2.79L25.42,5.09l-.64-2.31Z"/><polygon class="cls-5" points="15.43 14.65 14.02 13.62 14.54 12.96 15.43 13.61 18.01 10.33 18.54 10.71 15.43 14.65"/><polygon class="cls-5" points="15.43 19.69 14.02 18.66 14.54 17.99 15.43 18.64 18.01 15.36 18.54 15.74 15.43 19.69"/><polygon class="cls-5" points="15.43 24.72 14.02 23.69 14.54 23.03 15.43 23.68 18.01 20.39 18.54 20.77 15.43 24.72"/><polygon class="cls-2" points="32.52 31.21 29.16 29.87 29.16 17.23 32.52 18.58 32.52 31.21"/><polygon class="cls-3" points="32.52 31.21 29.16 29.87 29.16 17.23 32.52 18.58 32.52 31.21"/><path class="cls-2" d="M31.07,18.33,27.72,17c-.85-.3-2.59-.78-2.59-4.2,0-4.3,3.61-9.61,7.85-9.61,1.47,0,3.69,1,5,1.65a5.27,5.27,0,0,0-2-.35c-1.94,0-7.55,3-7.55,9.36,0,3,1.34,4,2.59,4.45"/><path class="cls-3" d="M31.07,18.33,27.72,17c-.85-.3-2.59-.78-2.59-4.2,0-4.3,3.61-9.61,7.85-9.61,1.47,0,3.69,1,5,1.65a5.27,5.27,0,0,0-2-.35c-1.94,0-7.55,3-7.55,9.36C28.48,16.89,29.82,17.85,31.07,18.33Z"/><path class="cls-2" d="M30.66,13.7c2.53,0,4.6-3.68,3.76-6.59S38,7.28,38,7.28l.88,4.26L36.28,15l-4.05,1Z"/><path class="cls-3" d="M30.66,13.7c2.53,0,4.6-3.68,3.76-6.59S38,7.28,38,7.28l.88,4.26L36.28,15l-4.05,1Z"/><polygon class="cls-2" points="39.1 21.37 36.32 22.43 32.97 21.13 35.75 20.07 39.1 21.37"/><polygon class="cls-3" points="39.1 21.37 36.32 22.43 32.97 21.13 35.75 20.07 39.1 21.37"/><polygon class="cls-2" points="39.1 26.06 36.32 27.13 32.97 25.82 35.75 24.76 39.1 26.06"/><polygon class="cls-3" points="39.1 26.06 36.32 27.13 32.97 25.82 35.75 24.76 39.1 26.06"/><path class="cls-5" d="M36.32,17.09a10.49,10.49,0,0,0,4-7.85c0-3.67-2.65-5.61-5.93-4.33a10.28,10.28,0,0,0-5.94,9c0,2.93,1.69,4.72,4,4.7V31.21l6.59-2.52V26.13l-2,.72a.5.5,0,0,1-.67-.46v-.46A1,1,0,0,1,37,25l2.09-.74v-2.9l-2.79,1.06Zm-.93-2.48c-1.59.88-3.11.23-3.4-1.47a4.86,4.86,0,0,1,2.36-4.67c1.59-.88,3.11-.23,3.4,1.47a4.86,4.86,0,0,1-2.36,4.67"/><path class="cls-3" d="M36.32,17.09a10.49,10.49,0,0,0,4-7.85c0-3.67-2.65-5.61-5.93-4.33a10.28,10.28,0,0,0-5.94,9c0,2.93,1.69,4.72,4,4.7V31.21l6.59-2.52V26.13l-2,.72a.5.5,0,0,1-.68-.46v-.46A1,1,0,0,1,37,25l2.08-.74v-2.9l-2.78,1.06Zm-.93-2.48c-1.59.88-3.12.23-3.4-1.47a4.84,4.84,0,0,1,2.36-4.67c1.59-.88,3.11-.23,3.4,1.47A4.86,4.86,0,0,1,35.39,14.61Z"/></g></g></svg>