<svg xmlns="http://www.w3.org/2000/svg" viewBox="0 0 46.26 49.51"><defs><style>.cls-1{fill:#ebebeb;}.cls-2{fill:#c4d36c;}.cls-3,.cls-8{fill:none;stroke-linejoin:round;stroke-width:0.5px;}.cls-3{stroke:#b6cd5b;}.cls-4{fill:#fff;}.cls-5{fill:#dfeab0;}.cls-6{fill:#98b9ea;}.cls-7{fill:#deeaff;}.cls-8{stroke:#304d9d;}</style></defs><title>key_management</title><g id="Layer_2" data-name="Layer 2"><g id="Layer_1-2" data-name="Layer 1"><polygon class="cls-1" points="23.13 49.52 0 41.03 23.13 32.55 46.26 41.03 23.13 49.52"/><polygon class="cls-2" points="7.01 41.03 5.03 40.12 5.03 7.48 7.01 8.4 7.01 41.03"/><polygon class="cls-3" points="7.01 41.03 5.03 40.12 5.03 7.48 7.01 8.4 7.01 41.03"/><polygon class="cls-4" points="26.18 1.17 24.2 0.25 5.03 7.48 7.01 8.4 26.18 1.17"/><polygon class="cls-3" points="26.18 1.17 24.2 0.25 5.03 7.48 7.01 8.4 26.18 1.17"/><polygon class="cls-5" points="7.01 41.03 26.14 33.79 26.14 1.15 7.01 8.4 7.01 41.03"/><polygon class="cls-3" points="7.01 41.03 26.14 33.79 26.14 1.15 7.01 8.4 7.01 41.03"/><polygon class="cls-4" points="8.82 37.25 24.33 31.38 24.33 3.87 8.82 9.74 8.82 37.25"/><path class="cls-6" d="M18.73,4.94V3c0-1.09-.91-1.63-2-1.21a3.19,3.19,0,0,0-2,2.72v2L10,8.17l-.75,3.27,14.87-5.5-.75-2.72Z"/><polygon class="cls-6" points="12.38 17.19 10.72 15.98 11.34 15.2 12.38 15.96 15.42 12.1 16.03 12.55 12.38 17.19"/><polygon class="cls-6" points="12.38 23.1 10.72 21.89 11.34 21.11 12.38 21.88 15.42 18.02 16.03 18.46 12.38 23.1"/><polygon class="cls-6" points="12.38 29.02 10.72 27.81 11.34 27.03 12.38 27.8 15.42 23.94 16.03 24.38 12.38 29.02"/><polygon class="cls-7" points="30.12 41.36 26.18 39.78 26.18 24.92 30.12 26.5 30.12 41.36"/><polygon class="cls-8" points="30.12 41.36 26.18 39.78 26.18 24.92 30.12 26.5 30.12 41.36"/><path class="cls-7" d="M28.42,26.21l-3.93-1.52c-1-.35-3-.92-3-5,0-5,4.25-11.3,9.23-11.3,1.73,0,4.34,1.25,5.91,1.94A6.18,6.18,0,0,0,34.26,10c-2.29,0-8.88,3.49-8.88,11,0,3.54,1.57,4.66,3,5.23"/><path class="cls-8" d="M28.42,26.21l-3.93-1.52c-1-.35-3-.92-3-5,0-5,4.25-11.3,9.23-11.3,1.73,0,4.34,1.25,5.91,1.94A6.18,6.18,0,0,0,34.26,10c-2.29,0-8.88,3.49-8.88,11C25.38,24.52,27,25.64,28.42,26.21Z"/><path class="cls-7" d="M27.94,20.77c3,0,5.4-4.32,4.42-7.75s4.22.2,4.22.2l1,5L34.55,22.3l-4.76,1.22Z"/><path class="cls-8" d="M27.94,20.77c3,0,5.4-4.32,4.42-7.75s4.22.2,4.22.2l1,5L34.55,22.3l-4.76,1.22Z"/><polygon class="cls-7" points="37.87 29.79 34.59 31.04 30.65 29.51 33.93 28.26 37.87 29.79"/><polygon class="cls-8" points="37.87 29.79 34.59 31.04 30.65 29.51 33.93 28.26 37.87 29.79"/><polygon class="cls-7" points="37.87 35.3 34.59 36.56 30.65 35.03 33.93 33.78 37.87 35.3"/><polygon class="cls-8" points="37.87 35.3 34.59 36.56 30.65 35.03 33.93 33.78 37.87 35.3"/><path class="cls-6" d="M34.59,24.76a12.37,12.37,0,0,0,4.75-9.23c0-4.32-3.13-6.6-7-5.1s-7,6.23-7,10.55c0,3.44,2,5.55,4.74,5.52V41.36l7.75-3v-3l-2.41.85a.58.58,0,0,1-.79-.54v-.54a1.17,1.17,0,0,1,.75-1.09l2.45-.86V29.79L34.59,31ZM33.5,21.83c-1.87,1.05-3.66.27-4-1.72a5.69,5.69,0,0,1,2.78-5.49c1.87-1,3.66-.27,4,1.72a5.69,5.69,0,0,1-2.78,5.49"/><path class="cls-8" d="M34.59,24.76a12.37,12.37,0,0,0,4.75-9.23c0-4.32-3.13-6.6-7-5.1s-7,6.23-7,10.55c0,3.44,2,5.55,4.74,5.52V41.36l7.75-3v-3l-2.41.85a.58.58,0,0,1-.79-.54v-.54a1.17,1.17,0,0,1,.75-1.09l2.45-.86V29.79L34.59,31ZM33.5,21.83c-1.87,1.05-3.66.27-4-1.72a5.69,5.69,0,0,1,2.78-5.49c1.87-1,3.66-.27,4,1.72A5.69,5.69,0,0,1,33.5,21.83Z"/></g></g></svg>