<svg xmlns="http://www.w3.org/2000/svg" viewBox="0 0 47.87 44.88"><defs><style>.cls-1{fill:#ebebeb;}.cls-2{fill:#dfeab0;}.cls-3,.cls-5{fill:none;stroke:#b6cd5b;stroke-linejoin:round;stroke-width:0.5px;}.cls-4{fill:#fff;}.cls-5{stroke-linecap:round;}</style></defs><title>lower_costs</title><g id="Layer_2" data-name="Layer 2"><g id="Layer_1-2" data-name="Layer 1"><polygon class="cls-1" points="23.94 44.88 0.81 36.4 23.94 27.91 47.06 36.4 23.94 44.88"/><path class="cls-2" d="M.25,24.35c0,2.52,3.94,4.56,8.8,4.56s8.79-2,8.79-4.56V22.18H.25Z"/><path class="cls-3" d="M.25,24.35c0,2.52,3.94,4.56,8.8,4.56s8.79-2,8.79-4.56V22.18H.25Z"/><path class="cls-2" d="M17.85,22.18c0,2.52-3.94,4.56-8.8,4.56s-8.8-2-8.8-4.56,3.94-4.55,8.8-4.55,8.8,2,8.8,4.55"/><path class="cls-3" d="M17.85,22.18c0,2.52-3.94,4.56-8.8,4.56s-8.8-2-8.8-4.56,3.94-4.55,8.8-4.55S17.85,19.67,17.85,22.18Z"/><path class="cls-2" d="M.25,22.18c0,2.52,3.94,4.56,8.8,4.56s8.79-2,8.79-4.56V20H.25Z"/><path class="cls-3" d="M.25,22.18c0,2.52,3.94,4.56,8.8,4.56s8.79-2,8.79-4.56V20H.25Z"/><path class="cls-2" d="M17.85,20c0,2.51-3.94,4.55-8.8,4.55S.25,22.52.25,20s3.94-4.55,8.8-4.55,8.8,2,8.8,4.55"/><path class="cls-3" d="M17.85,20c0,2.51-3.94,4.55-8.8,4.55S.25,22.52.25,20s3.94-4.55,8.8-4.55S17.85,17.49,17.85,20Z"/><path class="cls-2" d="M.25,20c0,2.51,3.94,4.55,8.8,4.55s8.79-2,8.79-4.55V17.84H.25Z"/><path class="cls-3" d="M.25,20c0,2.51,3.94,4.55,8.8,4.55s8.79-2,8.79-4.55V17.84H.25Z"/><path class="cls-2" d="M17.85,17.84c0,2.51-3.94,4.55-8.8,4.55s-8.8-2-8.8-4.55,3.94-4.56,8.8-4.56,8.8,2,8.8,4.56"/><path class="cls-3" d="M17.85,17.84c0,2.51-3.94,4.55-8.8,4.55s-8.8-2-8.8-4.55,3.94-4.56,8.8-4.56S17.85,15.32,17.85,17.84Z"/><path class="cls-2" d="M.25,17.84c0,2.51,3.94,4.55,8.8,4.55s8.79-2,8.79-4.55V15.67H.25Z"/><path class="cls-3" d="M.25,17.84c0,2.51,3.94,4.55,8.8,4.55s8.79-2,8.79-4.55V15.67H.25Z"/><path class="cls-2" d="M17.85,15.67c0,2.51-3.94,4.55-8.8,4.55s-8.8-2-8.8-4.55,3.94-4.56,8.8-4.56,8.8,2,8.8,4.56"/><path class="cls-3" d="M17.85,15.67c0,2.51-3.94,4.55-8.8,4.55s-8.8-2-8.8-4.55,3.94-4.56,8.8-4.56S17.85,13.15,17.85,15.67Z"/><path class="cls-2" d="M.25,15.67c0,2.51,3.94,4.55,8.8,4.55s8.79-2,8.79-4.55V13.49H.25Z"/><path class="cls-3" d="M.25,15.67c0,2.51,3.94,4.55,8.8,4.55s8.79-2,8.79-4.55V13.49H.25Z"/><path class="cls-2" d="M17.85,13.49c0,2.52-3.94,4.56-8.8,4.56s-8.8-2-8.8-4.56,3.94-4.55,8.8-4.55,8.8,2,8.8,4.55"/><path class="cls-3" d="M17.85,13.49c0,2.52-3.94,4.56-8.8,4.56s-8.8-2-8.8-4.56,3.94-4.55,8.8-4.55S17.85,11,17.85,13.49Z"/><path class="cls-2" d="M.25,13.49c0,2.52,3.94,4.56,8.8,4.56s8.79-2,8.79-4.56V11.32H.25Z"/><path class="cls-3" d="M.25,13.49c0,2.52,3.94,4.56,8.8,4.56s8.79-2,8.79-4.56V11.32H.25Z"/><path class="cls-2" d="M17.85,11.32c0,2.52-3.94,4.55-8.8,4.55s-8.8-2-8.8-4.55,3.94-4.55,8.8-4.55,8.8,2,8.8,4.55"/><path class="cls-3" d="M17.85,11.32c0,2.52-3.94,4.55-8.8,4.55s-8.8-2-8.8-4.55,3.94-4.55,8.8-4.55S17.85,8.81,17.85,11.32Z"/><path class="cls-2" d="M.25,11.32c0,2.52,3.94,4.55,8.8,4.55s8.79-2,8.79-4.55V9.15H.25Z"/><path class="cls-3" d="M.25,11.32c0,2.52,3.94,4.55,8.8,4.55s8.79-2,8.79-4.55V9.15H.25Z"/><path class="cls-2" d="M17.85,9.15c0,2.51-3.94,4.55-8.8,4.55s-8.8-2-8.8-4.55,3.94-4.56,8.8-4.56,8.8,2,8.8,4.56"/><path class="cls-3" d="M17.85,9.15c0,2.51-3.94,4.55-8.8,4.55s-8.8-2-8.8-4.55,3.94-4.56,8.8-4.56S17.85,6.63,17.85,9.15Z"/><path class="cls-2" d="M.25,9.15c0,2.51,3.94,4.55,8.8,4.55s8.79-2,8.79-4.55V7H.25Z"/><path class="cls-3" d="M.25,9.15c0,2.51,3.94,4.55,8.8,4.55s8.79-2,8.79-4.55V7H.25Z"/><path class="cls-2" d="M17.85,7c0,2.51-3.94,4.55-8.8,4.55S.25,9.49.25,7s3.94-4.56,8.8-4.56,8.8,2,8.8,4.56"/><path class="cls-3" d="M17.85,7c0,2.51-3.94,4.55-8.8,4.55S.25,9.49.25,7s3.94-4.56,8.8-4.56S17.85,4.46,17.85,7Z"/><path class="cls-2" d="M.25,7c0,2.51,3.94,4.55,8.8,4.55s8.79-2,8.79-4.55V4.8H.25Z"/><path class="cls-3" d="M.25,7c0,2.51,3.94,4.55,8.8,4.55s8.79-2,8.79-4.55V4.8H.25Z"/><path class="cls-4" d="M17.85,4.8c0,2.52-3.94,4.56-8.8,4.56S.25,7.32.25,4.8,4.19.25,9.05.25s8.8,2,8.8,4.55"/><path class="cls-3" d="M17.85,4.8c0,2.52-3.94,4.56-8.8,4.56S.25,7.32.25,4.8,4.19.25,9.05.25,17.85,2.29,17.85,4.8Z"/><path class="cls-2" d="M15.14,30c0,2.51,3.94,4.55,8.8,4.55s8.79-2,8.79-4.55V27.8H15.14Z"/><path class="cls-3" d="M15.14,30c0,2.51,3.94,4.55,8.8,4.55s8.79-2,8.79-4.55V27.8H15.14Z"/><path class="cls-2" d="M32.73,27.8c0,2.52-3.93,4.56-8.79,4.56s-8.8-2-8.8-4.56,3.94-4.55,8.8-4.55,8.79,2,8.79,4.55"/><path class="cls-3" d="M32.73,27.8c0,2.52-3.93,4.56-8.79,4.56s-8.8-2-8.8-4.56,3.94-4.55,8.8-4.55S32.73,25.29,32.73,27.8Z"/><path class="cls-2" d="M15.14,27.8c0,2.52,3.94,4.56,8.8,4.56s8.79-2,8.79-4.56V25.63H15.14Z"/><path class="cls-3" d="M15.14,27.8c0,2.52,3.94,4.56,8.8,4.56s8.79-2,8.79-4.56V25.63H15.14Z"/><path class="cls-2" d="M32.73,25.63c0,2.52-3.93,4.56-8.79,4.56s-8.8-2-8.8-4.56,3.94-4.55,8.8-4.55,8.79,2,8.79,4.55"/><path class="cls-3" d="M32.73,25.63c0,2.52-3.93,4.56-8.79,4.56s-8.8-2-8.8-4.56,3.94-4.55,8.8-4.55S32.73,23.12,32.73,25.63Z"/><path class="cls-2" d="M15.14,25.63c0,2.52,3.94,4.56,8.8,4.56s8.79-2,8.79-4.56V23.46H15.14Z"/><path class="cls-3" d="M15.14,25.63c0,2.52,3.94,4.56,8.8,4.56s8.79-2,8.79-4.56V23.46H15.14Z"/><path class="cls-2" d="M32.73,23.46C32.73,26,28.8,28,23.94,28s-8.8-2-8.8-4.55,3.94-4.55,8.8-4.55,8.79,2,8.79,4.55"/><path class="cls-3" d="M32.73,23.46C32.73,26,28.8,28,23.94,28s-8.8-2-8.8-4.55,3.94-4.55,8.8-4.55S32.73,20.94,32.73,23.46Z"/><path class="cls-2" d="M15.14,23.46c0,2.51,3.94,4.55,8.8,4.55s8.79-2,8.79-4.55V21.29H15.14Z"/><path class="cls-3" d="M15.14,23.46c0,2.51,3.94,4.55,8.8,4.55s8.79-2,8.79-4.55V21.29H15.14Z"/><path class="cls-2" d="M32.73,21.29c0,2.51-3.93,4.55-8.79,4.55s-8.8-2-8.8-4.55,3.94-4.56,8.8-4.56,8.79,2,8.79,4.56"/><path class="cls-3" d="M32.73,21.29c0,2.51-3.93,4.55-8.79,4.55s-8.8-2-8.8-4.55,3.94-4.56,8.8-4.56S32.73,18.77,32.73,21.29Z"/><path class="cls-2" d="M15.14,21.29c0,2.51,3.94,4.55,8.8,4.55s8.79-2,8.79-4.55V19.11H15.14Z"/><path class="cls-3" d="M15.14,21.29c0,2.51,3.94,4.55,8.8,4.55s8.79-2,8.79-4.55V19.11H15.14Z"/><path class="cls-4" d="M32.73,19.11c0,2.52-3.93,4.56-8.79,4.56s-8.8-2-8.8-4.56,3.94-4.55,8.8-4.55,8.79,2,8.79,4.55"/><path class="cls-3" d="M32.73,19.11c0,2.52-3.93,4.56-8.79,4.56s-8.8-2-8.8-4.56,3.94-4.55,8.8-4.55S32.73,16.6,32.73,19.11Z"/><path class="cls-2" d="M30,35.6c0,2.51,3.94,4.55,8.79,4.55s8.8-2,8.8-4.55V33.42H30Z"/><path class="cls-3" d="M30,35.6c0,2.51,3.94,4.55,8.79,4.55s8.8-2,8.8-4.55V33.42H30Z"/><path class="cls-4" d="M47.62,33.43c0,2.51-3.94,4.55-8.79,4.55s-8.8-2-8.8-4.55,3.94-4.56,8.8-4.56,8.79,2,8.79,4.56"/><path class="cls-3" d="M47.62,33.43c0,2.51-3.94,4.55-8.79,4.55s-8.8-2-8.8-4.55,3.94-4.56,8.8-4.56S47.62,30.91,47.62,33.43Z"/><path class="cls-5" d="M7,2.63H6.29a.48.48,0,0,0-.47.68l1,3A1,1,0,0,0,7.71,7H9.1a.47.47,0,0,0,.46-.68l-1-3a.47.47,0,0,1,.46-.68h1.39a1,1,0,0,1,.91.68l1,3a.48.48,0,0,1-.47.68h-.71"/><line class="cls-5" x1="4.33" y1="5.38" x2="6.5" y2="5.38"/><line class="cls-5" x1="3.88" y1="4.01" x2="6.05" y2="4.01"/><line class="cls-5" x1="12.03" y1="5.38" x2="14.2" y2="5.38"/><line class="cls-5" x1="11.58" y1="4.01" x2="13.75" y2="4.01"/><path class="cls-5" d="M21.88,16.94h-.7a.48.48,0,0,0-.46.68l1,3a1,1,0,0,0,.9.68H24a.48.48,0,0,0,.46-.68l-1-3a.48.48,0,0,1,.46-.68h1.4a1,1,0,0,1,.91.68l1,3a.48.48,0,0,1-.46.68H26"/><line class="cls-5" x1="19.22" y1="19.69" x2="21.4" y2="19.69"/><line class="cls-5" x1="18.78" y1="18.32" x2="20.95" y2="18.32"/><line class="cls-5" x1="26.92" y1="19.69" x2="29.1" y2="19.69"/><line class="cls-5" x1="26.48" y1="18.32" x2="28.65" y2="18.32"/><path class="cls-5" d="M36.77,31.25h-.69a.47.47,0,0,0-.46.68l1,3a1,1,0,0,0,.91.68h1.39a.48.48,0,0,0,.47-.68l-1-3a.48.48,0,0,1,.46-.68h1.39a1,1,0,0,1,.91.68l1,3a.48.48,0,0,1-.46.68h-.72"/><line class="cls-5" x1="34.12" y1="34" x2="36.29" y2="34"/><line class="cls-5" x1="33.67" y1="32.63" x2="35.85" y2="32.63"/><line class="cls-5" x1="41.82" y1="34" x2="43.99" y2="34"/><line class="cls-5" x1="41.37" y1="32.63" x2="43.55" y2="32.63"/></g></g></svg>