<svg xmlns="http://www.w3.org/2000/svg" width="52.92" height="52.84" viewBox="0 0 52.92 52.84"><defs><style>.cls-1{fill:#c4db3a;}.cls-1,.cls-4{stroke:#7d8e1b;}.cls-1,.cls-3,.cls-4{stroke-linecap:round;stroke-linejoin:round;stroke-width:2px;}.cls-2{fill:#afd135;}.cls-3,.cls-4{fill:none;}.cls-3{stroke:#dcf476;}</style></defs><title>market_04</title><g id="Layer_2" data-name="Layer 2"><g id="Layer_1-2" data-name="Layer 1"><circle class="cls-1" cx="26.56" cy="26.47" r="25.36"/><path class="cls-2" d="M39.24,4.51a25.67,25.67,0,0,0-4.81-2.15c7.26,6.11,8.26,18.78,1.92,29.77S18.53,48.58,9.61,45.35a26.07,26.07,0,0,0,4.26,3.09A25.36,25.36,0,0,0,39.24,4.51Z"/><path class="cls-3" d="M39.73,4.85C34.82,19.72,25,37.27,13,47.89"/><path class="cls-3" d="M22.48,1.44c3.65,3,8.51,9.65,4.45,16.69-4.86,8.41-8.64,4.13-25,14.27"/><path class="cls-3" d="M50.9,19.17c-4-.69-10.18-.54-13.73,5.88C32.25,34,38.26,43.38,33.31,50.9"/><path class="cls-3" d="M49.59,37C47.47,33.56,34.08,13.58,5.53,12.18"/><circle class="cls-4" cx="26.37" cy="26.37" r="25.36"/></g></g></svg>