<svg xmlns="http://www.w3.org/2000/svg" viewBox="0 0 48.12 47.12"><defs><style>.cls-1{fill:#ebebeb;}.cls-2{fill:#98b9ea;}.cls-3,.cls-7{fill:none;stroke-linejoin:round;stroke-width:0.5px;}.cls-3{stroke:#304d9d;}.cls-4{fill:#fff;}.cls-5{fill:#deeaff;}.cls-6{fill:#dfeab0;}.cls-7{stroke:#b6cd5b;}.cls-8{fill:#c4d36c;}</style></defs><title>markeplace</title><g id="Layer_2" data-name="Layer 2"><g id="Layer_1-2" data-name="Layer 1"><polygon class="cls-1" points="24.23 47.12 1.1 38.64 24.23 30.16 47.36 38.64 24.23 47.12"/><polygon class="cls-2" points="7.09 38 0.25 35.36 0.25 10.44 7.09 13.09 7.09 38"/><polygon class="cls-3" points="7.09 38 0.25 35.36 0.25 10.44 7.09 13.09 7.09 38"/><polygon class="cls-4" points="33.82 2.89 26.98 0.25 0.25 10.45 7.09 13.09 33.82 2.89"/><polygon class="cls-3" points="33.82 2.89 26.98 0.25 0.25 10.45 7.09 13.09 33.82 2.89"/><polygon class="cls-2" points="7.09 38 33.8 27.8 33.8 2.88 7.09 13.09 7.09 38"/><polygon class="cls-3" points="7.09 38 33.8 27.8 33.8 2.88 7.09 13.09 7.09 38"/><polygon class="cls-5" points="12.41 35.96 29.17 29.55 29.17 12.43 12.41 18.83 12.41 35.96"/><polygon class="cls-5" points="12.41 23.5 8.09 21.85 8.09 14.93 9.19 15.44 12.41 23.5"/><polygon class="cls-3" points="12.41 23.5 8.09 21.85 8.09 14.93 9.19 15.44 12.41 23.5"/><polygon class="cls-4" points="35.92 5.25 34.82 4.74 8.09 14.93 9.19 15.44 35.92 5.25"/><polygon class="cls-3" points="35.92 5.25 34.82 4.74 8.09 14.93 9.19 15.44 35.92 5.25"/><polygon class="cls-5" points="12.41 23.5 39.12 13.29 35.9 5.24 9.19 15.44 12.41 23.5"/><polygon class="cls-3" points="12.41 23.5 39.12 13.29 35.9 5.24 9.19 15.44 12.41 23.5"/><polygon class="cls-2" points="12.28 23.35 16.11 21.9 13.02 14.18 9.19 15.62 12.28 23.35"/><polygon class="cls-2" points="19.95 20.39 23.78 18.95 20.69 11.22 16.86 12.66 19.95 20.39"/><polygon class="cls-2" points="27.62 17.43 31.45 15.99 28.36 8.27 24.53 9.71 27.62 17.43"/><polygon class="cls-2" points="35.29 14.48 39.12 13.04 36.03 5.31 32.2 6.75 35.29 14.48"/><polygon class="cls-3" points="12.41 23.5 39.12 13.29 35.9 5.24 9.19 15.44 12.41 23.5"/><polygon class="cls-6" points="29.63 34.5 38.92 37.94 38.92 29.8 29.63 26.37 29.63 34.5"/><polygon class="cls-7" points="29.63 34.5 38.92 37.94 38.92 29.8 29.63 26.37 29.63 34.5"/><polygon class="cls-8" points="47.87 34.76 38.92 37.94 38.92 29.8 47.87 26.62 47.87 34.76"/><polygon class="cls-7" points="47.87 34.76 38.92 37.94 38.92 29.8 47.87 26.62 47.87 34.76"/><polygon class="cls-4" points="38.92 29.8 29.63 26.37 38.57 23.19 47.87 26.62 38.92 29.8"/><polygon class="cls-7" points="38.92 29.8 29.63 26.37 38.57 23.19 47.87 26.62 38.92 29.8"/><polygon class="cls-6" points="14.66 39.73 23.96 43.17 23.96 35.03 14.66 31.6 14.66 39.73"/><polygon class="cls-7" points="14.66 39.73 23.96 43.17 23.96 35.03 14.66 31.6 14.66 39.73"/><polygon class="cls-8" points="32.9 39.99 23.96 43.17 23.96 35.03 32.9 31.86 32.9 39.99"/><polygon class="cls-7" points="32.9 39.99 23.96 43.17 23.96 35.03 32.9 31.86 32.9 39.99"/><polygon class="cls-4" points="23.96 35.03 14.66 31.6 23.61 28.42 32.9 31.86 23.96 35.03"/><polygon class="cls-7" points="23.96 35.03 14.66 31.6 23.61 28.42 32.9 31.86 23.96 35.03"/></g></g></svg>