<svg xmlns="http://www.w3.org/2000/svg" xmlns:xlink="http://www.w3.org/1999/xlink" viewBox="0 0 50.11 49.53"><defs><style>.cls-1,.cls-12,.cls-8{fill:none;}.cls-2,.cls-3{isolation:isolate;}.cls-3{mix-blend-mode:multiply;}.cls-4{clip-path:url(#clip-path);}.cls-5{clip-path:url(#clip-path-2);}.cls-6{fill:#ebebeb;}.cls-7{fill:#deeaff;}.cls-8{stroke:#304d9d;}.cls-12,.cls-8{stroke-linejoin:round;stroke-width:0.5px;}.cls-9{fill:#fff;}.cls-10{fill:#98b9ea;}.cls-11{fill:#dfeab0;}.cls-12{stroke:#b6cd5b;}.cls-13{fill:#c4d36c;}</style><clipPath id="clip-path" transform="translate(-0.37)"><rect class="cls-1" y="31.15" width="51" height="19"/></clipPath><clipPath id="clip-path-2" transform="translate(-0.37)"><rect class="cls-1" x="0.37" y="31.15" width="50.11" height="18.38"/></clipPath></defs><title>micro-segmentation_1</title><g class="cls-2"><g id="Layer_2" data-name="Layer 2"><g id="Layer_1-2" data-name="Layer 1"><g class="cls-3"><g class="cls-4"><g class="cls-5"><polygon class="cls-6" points="25.05 49.53 0 40.34 25.05 31.15 50.11 40.34 25.05 49.53"/></g></g></g><polygon class="cls-7" points="0.36 35.32 24.68 44.23 24.68 38.72 0.36 29.8 0.36 35.32"/><polygon class="cls-8" points="0.36 35.32 24.68 44.23 24.68 38.72 0.36 29.8 0.36 35.32"/><polygon class="cls-9" points="48.99 35.32 24.68 44.23 24.68 38.72 48.99 29.8 48.99 35.32"/><polygon class="cls-8" points="48.99 35.32 24.68 44.23 24.68 38.72 48.99 29.8 48.99 35.32"/><polygon class="cls-10" points="24.68 38.72 0.36 29.8 24.68 20.88 48.99 29.8 24.68 38.72"/><polygon class="cls-8" points="24.68 38.72 0.36 29.8 24.68 20.88 48.99 29.8 24.68 38.72"/><polygon class="cls-11" points="15.18 20.94 24.68 24.43 24.68 7.12 15.18 3.63 15.18 20.94"/><polygon class="cls-12" points="15.18 20.94 24.68 24.43 24.68 7.12 15.18 3.63 15.18 20.94"/><polygon class="cls-9" points="34.17 21.06 24.68 24.43 24.68 7.12 34.17 3.75 34.17 21.06"/><polygon class="cls-12" points="34.17 21.06 24.68 24.43 24.68 7.12 34.17 3.75 34.17 21.06"/><polygon class="cls-13" points="24.68 7.12 15.18 3.63 24.68 0.25 34.17 3.74 24.68 7.12"/><polygon class="cls-12" points="24.68 7.12 15.18 3.63 24.68 0.25 34.17 3.74 24.68 7.12"/><polygon class="cls-7" points="0.36 25.66 9.86 29.15 9.86 15.84 0.36 12.34 0.36 25.66"/><polygon class="cls-8" points="0.36 25.66 9.86 29.15 9.86 15.84 0.36 12.34 0.36 25.66"/><polygon class="cls-9" points="19.35 25.77 9.86 29.15 9.86 15.84 19.35 12.46 19.35 25.77"/><polygon class="cls-8" points="19.35 25.77 9.86 29.15 9.86 15.84 19.35 12.46 19.35 25.77"/><polygon class="cls-10" points="9.86 15.84 0.36 12.34 9.86 8.97 19.35 12.46 9.86 15.84"/><polygon class="cls-8" points="9.86 15.84 0.36 12.34 9.86 8.97 19.35 12.46 9.86 15.84"/><polygon class="cls-7" points="30 25.66 39.49 29.15 39.49 15.84 30 12.34 30 25.66"/><polygon class="cls-8" points="30 25.66 39.49 29.15 39.49 15.84 30 12.34 30 25.66"/><polygon class="cls-9" points="48.99 25.77 39.49 29.15 39.49 15.84 48.99 12.46 48.99 25.77"/><polygon class="cls-8" points="48.99 25.77 39.49 29.15 39.49 15.84 48.99 12.46 48.99 25.77"/><polygon class="cls-10" points="39.49 15.84 30 12.34 39.49 8.97 48.99 12.46 39.49 15.84"/><polygon class="cls-8" points="39.49 15.84 30 12.34 39.49 8.97 48.99 12.46 39.49 15.84"/><polygon class="cls-11" points="15.08 30.91 24.58 34.4 24.58 23.09 15.08 19.59 15.08 30.91"/><polygon class="cls-12" points="15.08 30.91 24.58 34.4 24.58 23.09 15.08 19.59 15.08 30.91"/><polygon class="cls-9" points="34.07 31.03 24.58 34.4 24.58 23.09 34.07 19.71 34.07 31.03"/><polygon class="cls-12" points="34.07 31.03 24.58 34.4 24.58 23.09 34.07 19.71 34.07 31.03"/><polygon class="cls-13" points="24.58 23.09 15.08 19.59 24.58 16.22 34.07 19.71 24.58 23.09"/><polygon class="cls-12" points="24.58 23.09 15.08 19.59 24.58 16.22 34.07 19.71 24.58 23.09"/></g></g></g></svg>