<svg xmlns="http://www.w3.org/2000/svg" viewBox="0 0 49.13 47.15"><defs><style>.cls-1{fill:#ebebeb;}.cls-2{fill:#deeaff;}.cls-3,.cls-7{fill:none;stroke-linejoin:round;stroke-width:0.5px;}.cls-3{stroke:#304d9d;}.cls-4{fill:#fff;}.cls-5{fill:#98b9ea;}.cls-6{fill:#b6cd5b;}.cls-7{stroke:#b6cd5b;}.cls-8{fill:#dfeab0;}</style></defs><title>nutanix_ahv</title><g id="Layer_2" data-name="Layer 2"><g id="Layer_1-2" data-name="Layer 1"><polygon class="cls-1" points="24.56 47.15 1.43 38.67 24.56 30.19 47.69 38.67 24.56 47.15"/><polygon class="cls-2" points="0.25 33.38 24.56 42.3 24.56 36.78 0.25 27.86 0.25 33.38"/><polygon class="cls-3" points="0.25 33.38 24.56 42.3 24.56 36.78 0.25 27.86 0.25 33.38"/><polygon class="cls-4" points="48.88 33.38 24.57 42.3 24.57 36.78 48.88 27.86 48.88 33.38"/><polygon class="cls-3" points="48.88 33.38 24.57 42.3 24.57 36.78 48.88 27.86 48.88 33.38"/><polygon class="cls-5" points="24.56 36.78 0.25 27.86 24.56 18.94 48.88 27.86 24.56 36.78"/><polygon class="cls-3" points="24.56 36.78 0.25 27.86 24.56 18.94 48.88 27.86 24.56 36.78"/><path class="cls-6" d="M28.89,38.06a2.13,2.13,0,0,1-1.4,1.87,1,1,0,0,1-1.41-1,2.12,2.12,0,0,1,1.41-1.86,1,1,0,0,1,1.4.94"/><path class="cls-6" d="M32.9,36.58a2.13,2.13,0,0,1-1.4,1.87,1,1,0,0,1-1.41-1,2.12,2.12,0,0,1,1.41-1.86,1,1,0,0,1,1.4.94"/><path class="cls-4" d="M30.74,7.36l-10-4.13a6.29,6.29,0,0,0-5.11-.18,11.25,11.25,0,0,0-6.53,8,5.06,5.06,0,0,0-4.15,0c-3,1.26-4.72,5.4-4.72,8.42v3.07l10.25,4.37V23.73"/><path class="cls-7" d="M30.74,7.36l-10-4.13a6.29,6.29,0,0,0-5.11-.18,11.25,11.25,0,0,0-6.53,8,5.06,5.06,0,0,0-4.15,0c-3,1.26-4.72,5.4-4.72,8.42v3.07l10.25,4.37V23.73"/><path class="cls-8" d="M35,17.91v-3.3c0-5-4.09-9.18-9.13-7.31a11.27,11.27,0,0,0-6.53,8,5,5,0,0,0-4.15,0c-3,1.25-4.72,5.39-4.72,8.42v3.18Z"/><path class="cls-7" d="M35,17.91v-3.3c0-5-4.09-9.18-9.13-7.31a11.27,11.27,0,0,0-6.53,8,5,5,0,0,0-4.15,0c-3,1.25-4.72,5.39-4.72,8.42v3.18Z"/><line class="cls-8" x1="9.13" y1="11.03" x2="19.38" y2="15.29"/><line class="cls-7" x1="9.13" y1="11.03" x2="19.38" y2="15.29"/><path class="cls-4" d="M45.57,16.37,39,13.67a4.11,4.11,0,0,0-3.35-.12,7.4,7.4,0,0,0-4.27,5.23,3.29,3.29,0,0,0-2.72,0c-2,.82-3.09,3.54-3.09,5.52v2l6.72,2.86V27.09"/><path class="cls-7" d="M45.57,16.37,39,13.67a4.11,4.11,0,0,0-3.35-.12,7.4,7.4,0,0,0-4.27,5.23,3.29,3.29,0,0,0-2.72,0c-2,.82-3.09,3.54-3.09,5.52v2l6.72,2.86V27.09"/><path class="cls-8" d="M48.38,23.28V21.12c0-3.25-2.68-6-6-4.79a7.38,7.38,0,0,0-4.27,5.23,3.32,3.32,0,0,0-2.73,0c-2,.82-3.08,3.53-3.08,5.51v2.09Z"/><path class="cls-7" d="M48.38,23.28V21.12c0-3.25-2.68-6-6-4.79a7.38,7.38,0,0,0-4.27,5.23,3.32,3.32,0,0,0-2.73,0c-2,.82-3.08,3.53-3.08,5.51v2.09Z"/><line class="cls-8" x1="31.41" y1="18.78" x2="38.13" y2="21.56"/><line class="cls-7" x1="31.41" y1="18.78" x2="38.13" y2="21.56"/><path class="cls-4" d="M38.34,2,34.79.48A2.23,2.23,0,0,0,33,.41a4,4,0,0,0-2.32,2.85,1.81,1.81,0,0,0-1.48,0,3.39,3.39,0,0,0-1.68,3v1.1l3.65,1.55V7.78"/><path class="cls-7" d="M38.34,2,34.79.48A2.23,2.23,0,0,0,33,.41a4,4,0,0,0-2.32,2.85,1.81,1.81,0,0,0-1.48,0,3.39,3.39,0,0,0-1.68,3v1.1l3.65,1.55V7.78"/><path class="cls-8" d="M39.88,5.7V4.53c0-1.77-1.46-3.27-3.26-2.6A4,4,0,0,0,34.3,4.77a1.77,1.77,0,0,0-1.48,0,3.39,3.39,0,0,0-1.68,3V8.91Z"/><path class="cls-7" d="M39.88,5.7V4.53c0-1.77-1.46-3.27-3.26-2.6A4,4,0,0,0,34.3,4.77a1.77,1.77,0,0,0-1.48,0,3.39,3.39,0,0,0-1.68,3V8.91Z"/><line class="cls-8" x1="30.65" y1="3.26" x2="34.3" y2="4.77"/><line class="cls-7" x1="30.65" y1="3.26" x2="34.3" y2="4.77"/></g></g></svg>