<svg xmlns="http://www.w3.org/2000/svg" viewBox="0 0 46.26 49.33"><defs><style>.cls-1{fill:#ebebeb;}.cls-2{fill:#c4d36c;}.cls-3,.cls-8{fill:none;stroke-linejoin:round;stroke-width:0.5px;}.cls-3{stroke:#b6cd5b;}.cls-4{fill:#fff;}.cls-5{fill:#dfeab0;}.cls-6{fill:#98b9ea;}.cls-7{fill:#deeaff;}.cls-8{stroke:#304d9d;}</style></defs><title>one-click_operations_all_insights</title><g id="Layer_2" data-name="Layer 2"><g id="Layer_1-2" data-name="Layer 1"><polygon class="cls-1" points="23.13 49.34 0 40.85 23.13 32.37 46.26 40.85 23.13 49.34"/><polygon class="cls-2" points="7 41.03 5.02 40.12 5.02 7.48 7 8.4 7 41.03"/><polygon class="cls-3" points="7 41.03 5.02 40.12 5.02 7.48 7 8.4 7 41.03"/><polygon class="cls-4" points="26.17 1.17 24.19 0.25 5.02 7.48 7 8.4 26.17 1.17"/><polygon class="cls-3" points="26.17 1.17 24.19 0.25 5.02 7.48 7 8.4 26.17 1.17"/><polygon class="cls-5" points="7 41.03 26.13 33.79 26.13 1.15 7 8.4 7 41.03"/><polygon class="cls-3" points="7 41.03 26.13 33.79 26.13 1.15 7 8.4 7 41.03"/><polygon class="cls-4" points="8.81 37.25 24.32 31.38 24.32 3.87 8.81 9.74 8.81 37.25"/><path class="cls-6" d="M18.72,4.94V3c0-1.08-.91-1.63-2-1.21a3.19,3.19,0,0,0-2,2.72v2L10,8.17l-.75,3.27,14.87-5.5-.75-2.72Z"/><polygon class="cls-6" points="12.37 17.19 10.71 15.98 11.32 15.2 12.37 15.96 15.41 12.1 16.02 12.55 12.37 17.19"/><polygon class="cls-6" points="12.37 23.11 10.71 21.89 11.32 21.12 12.37 21.88 15.41 18.02 16.02 18.46 12.37 23.11"/><polygon class="cls-6" points="12.37 29.02 10.71 27.81 11.32 27.03 12.37 27.8 15.41 23.94 16.02 24.38 12.37 29.02"/><polygon class="cls-7" points="38.38 41.52 41.29 41.43 33.54 32.05 30.63 32.14 38.38 41.52"/><polygon class="cls-8" points="38.38 41.52 41.29 41.43 33.54 32.05 30.63 32.14 38.38 41.52"/><polygon class="cls-6" points="41.58 25.41 20.96 13.55 28.71 36.04 33.54 32.05 41.29 41.43 44.49 38.78 36.74 29.4 41.58 25.41"/><polygon class="cls-8" points="41.58 25.41 20.96 13.55 28.71 36.04 33.54 32.05 41.29 41.43 44.49 38.78 36.74 29.4 41.58 25.41"/><polygon class="cls-7" points="28.71 36.04 25.8 36.14 18.05 13.65 20.96 13.55 28.71 36.04"/><polygon class="cls-8" points="28.71 36.04 25.8 36.14 18.05 13.65 20.96 13.55 28.71 36.04"/></g></g></svg>