<svg xmlns="http://www.w3.org/2000/svg" xmlns:xlink="http://www.w3.org/1999/xlink" viewBox="0 0 51.5 51.53"><defs><style>.cls-1,.cls-13,.cls-14,.cls-15,.cls-7,.cls-9{fill:none;}.cls-2,.cls-3{isolation:isolate;}.cls-3{mix-blend-mode:multiply;}.cls-4{clip-path:url(#clip-path);}.cls-5{clip-path:url(#clip-path-2);}.cls-6{fill:#ebebeb;}.cls-7{stroke:#efecea;stroke-linecap:round;stroke-width:1.5px;}.cls-13,.cls-14,.cls-15,.cls-7,.cls-9{stroke-linejoin:round;}.cls-8{fill:#98b9ea;}.cls-14,.cls-9{stroke:#304d9d;}.cls-13,.cls-9{stroke-width:0.5px;}.cls-10{fill:#deeaff;}.cls-11{fill:#fff;}.cls-12{fill:#dfeab0;}.cls-13,.cls-15{stroke:#b6cd5b;}.cls-14,.cls-15{stroke-width:0.75px;}</style><clipPath id="clip-path"><rect class="cls-1" x="0.86" y="32.98" width="51" height="19"/></clipPath><clipPath id="clip-path-2"><rect class="cls-1" x="1.18" y="33.15" width="50.11" height="18.38"/></clipPath></defs><title>one-click_planning</title><g class="cls-2"><g id="Layer_2" data-name="Layer 2"><g id="Layer_1-2" data-name="Layer 1"><g class="cls-3"><g class="cls-4"><g class="cls-5"><polygon class="cls-6" points="26.23 51.53 1.18 42.34 26.23 33.15 51.29 42.34 26.23 51.53"/></g></g></g><rect class="cls-7" x="0.75" y="0.75" width="50" height="50"/><polygon class="cls-8" points="8.53 42.28 6.58 41.37 6.58 9.12 8.53 10.03 8.53 42.28"/><polygon class="cls-9" points="8.53 42.28 6.58 41.37 6.58 9.12 8.53 10.03 8.53 42.28"/><polygon class="cls-8" points="27.47 2.88 25.52 1.98 6.58 9.12 8.53 10.03 27.47 2.88"/><polygon class="cls-9" points="27.47 2.88 25.52 1.98 6.58 9.12 8.53 10.03 27.47 2.88"/><polygon class="cls-10" points="8.53 42.28 27.43 35.12 27.43 2.87 8.53 10.03 8.53 42.28"/><polygon class="cls-9" points="8.53 42.28 27.43 35.12 27.43 2.87 8.53 10.03 8.53 42.28"/><polygon class="cls-11" points="10.32 38.54 25.64 32.74 25.64 5.56 10.32 11.36 10.32 38.54"/><path class="cls-12" d="M20.11,6.61V4.67c0-1.88-2.24-1.21-2.24-1.21a2.47,2.47,0,0,0-1.79,2.7V8.1l-5.76,2.16-.74,3.23L26.5,7.35l-.75-2.69Z"/><path class="cls-13" d="M20.11,6.61V4.67c0-1.88-2.24-1.21-2.24-1.21a2.47,2.47,0,0,0-1.79,2.7V8.1l-5.76,2.16-.74,3.23L26.5,7.35l-.75-2.69Z"/><path class="cls-12" d="M15.81,31.23a3.68,3.68,0,0,1-1.68,2.9c-.93.54-1.68.11-1.68-1a3.72,3.72,0,0,1,1.68-2.91c.93-.53,1.68-.1,1.68,1"/><path class="cls-12" d="M15.81,17.29a3.72,3.72,0,0,1-1.68,2.91c-.93.53-1.68.1-1.68-1a3.72,3.72,0,0,1,1.68-2.91c.93-.53,1.68-.1,1.68,1"/><path class="cls-14" d="M14.13,18.26c0,3.88,2.72,5.45,6.08,3.51"/><line class="cls-14" x1="23.05" y1="12.07" x2="21.46" y2="14.82"/><line class="cls-14" x1="21.26" y1="12.87" x2="23.19" y2="13.99"/><line class="cls-15" x1="23.05" y1="19.12" x2="21.46" y2="21.88"/><line class="cls-15" x1="21.26" y1="19.93" x2="23.19" y2="21.04"/><line class="cls-14" x1="23.05" y1="26.18" x2="21.46" y2="28.93"/><line class="cls-14" x1="21.26" y1="26.98" x2="23.19" y2="28.1"/><path class="cls-15" d="M20.46,28.54c-3.36-1.93-3.36-8.2,0-14"/><line class="cls-14" x1="14.13" y1="22" x2="14.13" y2="30.58"/><polygon class="cls-10" points="43.38 42.62 46.3 42.53 38.55 33.15 35.63 33.24 43.38 42.62"/><polygon class="cls-9" points="43.38 42.62 46.3 42.53 38.55 33.15 35.63 33.24 43.38 42.62"/><polygon class="cls-8" points="46.58 26.51 25.96 14.65 33.71 37.14 38.55 33.15 46.3 42.53 49.5 39.88 41.75 30.5 46.58 26.51"/><polygon class="cls-9" points="46.58 26.51 25.96 14.65 33.71 37.14 38.55 33.15 46.3 42.53 49.5 39.88 41.75 30.5 46.58 26.51"/><polygon class="cls-10" points="33.71 37.14 30.8 37.23 23.05 14.75 25.96 14.65 33.71 37.14"/><polygon class="cls-9" points="33.71 37.14 30.8 37.23 23.05 14.75 25.96 14.65 33.71 37.14"/></g></g></g></svg>