<svg xmlns="http://www.w3.org/2000/svg" viewBox="0 0 46.26 49.28"><defs><style>.cls-1{fill:#ebebeb;}.cls-2{fill:#c4d36c;}.cls-3,.cls-7{fill:none;stroke-linejoin:round;stroke-width:0.5px;}.cls-3{stroke:#b6cd5b;}.cls-4{fill:#fff;}.cls-5{fill:#dfeab0;}.cls-6{fill:#deeaff;}.cls-7{stroke:#304d9d;}.cls-8{fill:#98b9ea;}</style></defs><title>one-click_infrastructure_management</title><g id="Layer_2" data-name="Layer 2"><g id="Layer_1-2" data-name="Layer 1"><polygon class="cls-1" points="23.13 49.28 0 40.8 23.13 32.31 46.26 40.8 23.13 49.28"/><polygon class="cls-2" points="4.41 35.29 0.87 33.94 0.87 8.6 4.41 9.96 4.41 35.29"/><polygon class="cls-3" points="4.41 35.29 0.87 33.94 0.87 8.6 4.41 9.96 4.41 35.29"/><polygon class="cls-4" points="26.32 1.6 22.77 0.25 0.87 8.6 4.41 9.96 26.32 1.6"/><polygon class="cls-3" points="26.32 1.6 22.77 0.25 0.87 8.6 4.41 9.96 26.32 1.6"/><polygon class="cls-2" points="23.69 5.23 21.45 4.35 12.54 15.92 15.56 16.46 23.69 5.23"/><polygon class="cls-3" points="23.69 5.23 21.45 4.35 12.54 15.92 15.56 16.46 23.69 5.23"/><polygon class="cls-2" points="13.57 19.2 11.22 17.75 5.16 26.57 6.69 28.71 13.57 19.2"/><polygon class="cls-3" points="13.57 19.2 11.22 17.75 5.16 26.57 6.69 28.71 13.57 19.2"/><path class="cls-5" d="M4.41,10V35.29L26.3,26.93V1.59ZM23.69,5.23,15.56,16.46l-8.12-5ZM6.69,15l6.88,4.25L6.69,28.71ZM7.6,31.43l8-11,8,4.92ZM24,21.69l-6.47-4L24,8.75Z"/><path class="cls-3" d="M4.41,10V35.29L26.3,26.93V1.59ZM23.69,5.23,15.56,16.46l-8.12-5ZM6.69,15l6.89,4.25L6.69,28.71ZM7.6,31.43l8-11,8,4.92ZM24,21.69l-6.47-4L24,8.75Z"/><polygon class="cls-2" points="23.52 25.35 20.79 23.66 10.13 27.93 7.6 31.43 23.52 25.35"/><polygon class="cls-3" points="23.52 25.35 20.79 23.66 10.13 27.93 7.6 31.43 23.52 25.35"/><polygon class="cls-2" points="24.02 21.69 24.02 8.75 21.8 11.81 21.8 20.32 24.02 21.69"/><polygon class="cls-3" points="24.02 21.69 24.02 8.75 21.8 11.81 21.8 20.32 24.02 21.69"/><polygon class="cls-6" points="38.38 41.47 41.29 41.37 33.54 31.99 30.63 32.09 38.38 41.47"/><polygon class="cls-7" points="38.38 41.47 41.29 41.37 33.54 31.99 30.63 32.09 38.38 41.47"/><polygon class="cls-8" points="41.58 25.36 20.96 13.5 28.71 35.99 33.54 31.99 41.29 41.37 44.49 38.73 36.74 29.35 41.58 25.36"/><polygon class="cls-7" points="41.58 25.36 20.96 13.5 28.71 35.99 33.54 31.99 41.29 41.37 44.49 38.73 36.74 29.35 41.58 25.36"/><polygon class="cls-6" points="28.71 35.99 25.8 36.08 18.05 13.59 20.96 13.5 28.71 35.99"/><polygon class="cls-7" points="28.71 35.99 25.8 36.08 18.05 13.59 20.96 13.5 28.71 35.99"/></g></g></svg>