<svg xmlns="http://www.w3.org/2000/svg" viewBox="0 0 46.26 48.64"><defs><style>.cls-1{fill:#ebebeb;}.cls-2,.cls-4{fill:none;stroke-linejoin:round;stroke-width:0.5px;}.cls-2{stroke:#b6cd5b;}.cls-3{fill:#deeaff;}.cls-4{stroke:#304d9d;}.cls-5{fill:#98b9ea;}</style></defs><title>one_click</title><g id="Layer_2" data-name="Layer 2"><g id="Layer_1-2" data-name="Layer 1"><polygon class="cls-1" points="23.13 48.64 0 40.16 23.13 31.67 46.26 40.16 23.13 48.64"/><path class="cls-2" d="M23.54,11.27c0,6.47-4.12,12.06-9.2,12.46s-9.2-4.51-9.2-11S9.26.68,14.34.27,23.54,4.79,23.54,11.27Z"/><polygon class="cls-3" points="34.38 38.83 37.29 38.73 29.54 29.35 26.63 29.45 34.38 38.83"/><polygon class="cls-4" points="34.38 38.83 37.29 38.73 29.54 29.35 26.63 29.45 34.38 38.83"/><polygon class="cls-5" points="37.58 22.71 16.96 10.86 24.71 33.35 29.54 29.35 37.29 38.73 40.49 36.09 32.74 26.71 37.58 22.71"/><polygon class="cls-4" points="37.58 22.71 16.96 10.86 24.71 33.35 29.54 29.35 37.29 38.73 40.49 36.09 32.74 26.71 37.58 22.71"/><polygon class="cls-3" points="24.71 33.35 21.8 33.44 14.05 10.95 16.96 10.86 24.71 33.35"/><polygon class="cls-4" points="24.71 33.35 21.8 33.44 14.05 10.95 16.96 10.86 24.71 33.35"/></g></g></svg>