<svg xmlns="http://www.w3.org/2000/svg" viewBox="0 0 48.32 47.26"><defs><style>.cls-1{fill:#ebebeb;}.cls-2{fill:#deeaff;}.cls-3,.cls-5{fill:none;stroke-linejoin:round;}.cls-3{stroke:#304d9d;stroke-width:0.5px;}.cls-4{fill:#98b9ea;}.cls-5{stroke:#b6cd5b;stroke-linecap:round;}</style></defs><title>PACS_VNA_Imaging</title><g id="Layer_2" data-name="Layer 2"><g id="Layer_1-2" data-name="Layer 1"><polygon class="cls-1" points="23.13 47.26 0 38.78 23.13 30.3 46.26 38.78 23.13 47.26"/><path class="cls-2" d="M18.07,34.66c-10.94-6-17-7.21-17-13.35C1.09,13.27,9.29,7,13.3,7a12.17,12.17,0,0,1,2.43.21,54,54,0,0,1,6.49,2.26,14.65,14.65,0,0,0-3.81.95C13.23,12.69,9,18.74,9,23.93a6.87,6.87,0,0,0,3.27,5.67L26,37.28Z"/><path class="cls-3" d="M18.07,34.66c-10.94-6-17-7.21-17-13.35C1.09,13.27,9.29,7,13.3,7a12.17,12.17,0,0,1,2.43.21,54,54,0,0,1,6.49,2.26,14.65,14.65,0,0,0-3.81.95C13.23,12.69,9,18.74,9,23.93a6.87,6.87,0,0,0,3.27,5.67L26,37.28Z"/><path class="cls-4" d="M43,9c0-5.19-4.21-7.55-9.39-5.26A16.81,16.81,0,0,0,26,10.94c-1.71-1.59-4.46-1.9-7.59-.53C13.23,12.69,9,18.74,9,23.93a6.87,6.87,0,0,0,3.27,5.67L26,37.28,39.71,17.54A14.85,14.85,0,0,0,43,9"/><path class="cls-3" d="M43,9c0-5.19-4.21-7.55-9.39-5.26A16.81,16.81,0,0,0,26,10.94c-1.71-1.59-4.46-1.9-7.59-.53C13.23,12.69,9,18.74,9,23.93a6.87,6.87,0,0,0,3.27,5.67L26,37.28,39.71,17.54A14.85,14.85,0,0,0,43,9Z"/><path class="cls-2" d="M26,10.94,18.29,8S22.72.25,29.24.25a11.2,11.2,0,0,1,3.14.32l7.77,3a9.06,9.06,0,0,0-6.25.08c-2,.76-5.21,2.62-7.9,7.33"/><path class="cls-3" d="M26,10.94,18.29,8S22.72.25,29.24.25a11.2,11.2,0,0,1,3.14.32l7.77,3a9.06,9.06,0,0,0-6.25.08C31.94,4.37,28.69,6.23,26,10.94Z"/><polyline class="cls-5" points="1.09 35.24 19.91 27.96 22.28 22.16 26.51 33.43 32.02 9.25 36.63 26.38 38.69 20.68 47.82 17.15"/></g></g></svg>