<svg xmlns="http://www.w3.org/2000/svg" xmlns:xlink="http://www.w3.org/1999/xlink" viewBox="0 0 46.26 48.76"><defs><style>.cls-1,.cls-7{fill:none;}.cls-2{isolation:isolate;}.cls-3{mix-blend-mode:multiply;}.cls-4{clip-path:url(#clip-path);}.cls-5{fill:#ebebeb;}.cls-6{fill:#deeaff;}.cls-7{stroke:#304d9d;stroke-linejoin:round;stroke-width:0.5px;}.cls-8{fill:#fff;}.cls-9{fill:#98b9ea;}.cls-10{fill:#dfeab0;}</style><clipPath id="clip-path" transform="translate(0)"><rect class="cls-1" y="31.79" width="46.26" height="16.96"/></clipPath></defs><title>phone</title><g class="cls-2"><g id="Layer_2" data-name="Layer 2"><g id="Layer_1-2" data-name="Layer 1"><g class="cls-3"><g class="cls-4"><polygon class="cls-5" points="23.13 48.76 0 40.27 23.13 31.79 46.26 40.27 23.13 48.76"/></g></g><polygon class="cls-6" points="14.45 39.55 12.05 38.66 12.05 7.49 14.45 8.38 14.45 39.55"/><polygon class="cls-7" points="14.45 39.55 12.05 38.66 12.05 7.49 14.45 8.38 14.45 39.55"/><path class="cls-8" d="M29.9,1.07,31,1.29C30.19.77,28,0,27.09.33L13.36,5.58l2.39.89Z" transform="translate(0)"/><path class="cls-7" d="M29.9,1.07,31,1.29C30.19.77,28,0,27.09.33L13.36,5.58l2.39.89Z" transform="translate(0)"/><path class="cls-9" d="M12.05,38.66a2.05,2.05,0,0,0,1.49,2c.41.11,1.72.58,2.56.82l-1.65-1.9Z" transform="translate(0)"/><path class="cls-7" d="M12.05,38.66a2.05,2.05,0,0,0,1.49,2c.41.11,1.72.58,2.56.82l-1.65-1.9Z" transform="translate(0)"/><path class="cls-8" d="M14.45,8.41v31a2,2,0,0,0,2.79,1.9l13.58-5.42A2,2,0,0,0,32.11,34V3.14a2,2,0,0,0-2.78-1.9L15.75,6.5a2,2,0,0,0-1.3,1.91" transform="translate(0)"/><path class="cls-7" d="M14.45,8.41v31a2,2,0,0,0,2.79,1.9l13.58-5.42A2,2,0,0,0,32.11,34V3.14a2,2,0,0,0-2.78-1.9L15.75,6.5A2,2,0,0,0,14.45,8.41Z" transform="translate(0)"/><path class="cls-6" d="M12.05,7.46a2,2,0,0,1,1.31-1.91l2.39,1a2,2,0,0,0-1.3,1.91Z" transform="translate(0)"/><path class="cls-7" d="M12.05,7.46a2,2,0,0,1,1.31-1.91l2.39,1a2,2,0,0,0-1.3,1.91Z" transform="translate(0)"/><polygon class="cls-10" points="15.5 10.48 15.5 37.92 31.05 31.72 31.05 4.46 15.5 10.48"/></g></g></g></svg>