<svg xmlns="http://www.w3.org/2000/svg" xmlns:xlink="http://www.w3.org/1999/xlink" viewBox="0 0 50.15 46.84"><defs><style>.cls-1,.cls-12,.cls-8{fill:none;}.cls-2,.cls-3{isolation:isolate;}.cls-3{mix-blend-mode:multiply;}.cls-4{clip-path:url(#clip-path);}.cls-5{clip-path:url(#clip-path-2);}.cls-6{fill:#ebebeb;}.cls-7{fill:#deeaff;}.cls-8{stroke:#304d9d;}.cls-12,.cls-8{stroke-linejoin:round;stroke-width:0.5px;}.cls-9{fill:#98b9ea;}.cls-10{fill:#436db5;}.cls-11{fill:#fff;}.cls-12{stroke:#b6cd5b;}.cls-13{fill:#dfeab0;}</style><clipPath id="clip-path" transform="translate(-0.32)"><rect class="cls-1" y="28.18" width="51" height="19"/></clipPath><clipPath id="clip-path-2" transform="translate(-0.32)"><rect class="cls-1" x="0.36" y="28.46" width="50.11" height="18.38"/></clipPath></defs><title>private_cloud</title><g class="cls-2"><g id="Layer_2" data-name="Layer 2"><g id="Layer_1-2" data-name="Layer 1"><g class="cls-3"><g class="cls-4"><g class="cls-5"><polygon class="cls-6" points="25.1 46.84 0.04 37.65 25.1 28.46 50.15 37.65 25.1 46.84"/></g></g></g><path class="cls-7" d="M38.21,6.13,25.89,1A7.75,7.75,0,0,0,19.58.81c-3.89,1.45-7.06,5.47-8.06,9.86a6.25,6.25,0,0,0-5.13,0C2.64,12.25.57,17.36.57,21.1v3.79l12.66,5.39V26.35" transform="translate(-0.32)"/><path class="cls-8" d="M38.21,6.13,25.89,1A7.75,7.75,0,0,0,19.58.81c-3.89,1.45-7.06,5.47-8.06,9.86a6.25,6.25,0,0,0-5.13,0C2.64,12.25.57,17.36.57,21.1v3.79l12.66,5.39V26.35" transform="translate(-0.32)"/><path class="cls-9" d="M43.53,19.17V15.09c0-6.12-5.06-11.34-11.29-9-3.89,1.45-7,5.47-8.06,9.87a6.21,6.21,0,0,0-5.13,0c-3.75,1.55-5.82,6.66-5.82,10.4v3.93Z" transform="translate(-0.32)"/><path class="cls-8" d="M43.53,19.17V15.09c0-6.12-5.06-11.34-11.29-9-3.89,1.45-7,5.47-8.06,9.87a6.21,6.21,0,0,0-5.13,0c-3.75,1.55-5.82,6.66-5.82,10.4v3.93Z" transform="translate(-0.32)"/><line class="cls-8" x1="11.21" y1="10.67" x2="23.87" y2="15.93"/><path class="cls-10" d="M36.74,11.14c0-1.93-1.39-2.94-3.11-2.27a5.37,5.37,0,0,0-3.11,4.7A2.17,2.17,0,0,0,32.63,16l-2.11,6.8,6.22-2.43-2.11-5.15a5.52,5.52,0,0,0,2.11-4.11" transform="translate(-0.32)"/><path class="cls-11" d="M39,12.15l-4.51-2L32,11.57l5.18,2.32,1.63-.27Zm7.82,7.48c0,2.82-1.47,3.34-1.47,3.34l2.85-1.79a3.92,3.92,0,0,0,1.12-3,9.16,9.16,0,0,0-4.91-7.7,4,4,0,0,0-2.5-.36A11.33,11.33,0,0,0,39,11.69c3.57-1.47,7.82,4,7.82,7.94" transform="translate(-0.32)"/><path class="cls-12" d="M39,12.15l-4.51-2L32,11.57l5.18,2.32,1.63-.27Zm7.82,7.48c0,2.82-1.47,3.34-1.47,3.34l2.85-1.79a3.92,3.92,0,0,0,1.12-3,9.16,9.16,0,0,0-4.91-7.7,4,4,0,0,0-2.5-.36A11.33,11.33,0,0,0,39,11.69C42.54,10.22,46.79,15.67,46.79,19.63Z" transform="translate(-0.32)"/><path class="cls-11" d="M41.53,13.32c-.46,1.71.29,5.43,3.41,5.75s-2.25,2.65-2.25,2.65c-2.79-1-4-3.51-4.42-6.71Z" transform="translate(-0.32)"/><path class="cls-12" d="M41.53,13.32c-.46,1.71.29,5.43,3.41,5.75s-2.25,2.65-2.25,2.65c-2.79-1-4-3.51-4.42-6.71Z" transform="translate(-0.32)"/><path class="cls-13" d="M41.88,11.93c-2.28-1-4.19-.15-4.74,2L32,11.57c-.68,1-.25,3,2,4L37.23,17a9.18,9.18,0,0,0,4.65,5.89c2.71,1.23,4.91-.23,4.91-3.26a9.14,9.14,0,0,0-4.91-7.7m0,8.12a4.4,4.4,0,0,1-2.37-3.71,1.56,1.56,0,0,1,2.37-1.57,4.4,4.4,0,0,1,2.37,3.71,1.56,1.56,0,0,1-2.37,1.57" transform="translate(-0.32)"/><path class="cls-12" d="M41.88,11.93c-2.28-1-4.19-.15-4.74,2L32,11.57c-.68,1-.25,3,2,4L37.23,17a9.18,9.18,0,0,0,4.65,5.89c2.71,1.23,4.91-.23,4.91-3.26A9.14,9.14,0,0,0,41.88,11.93Zm0,8.12a4.4,4.4,0,0,1-2.37-3.71,1.56,1.56,0,0,1,2.37-1.57,4.4,4.4,0,0,1,2.37,3.71A1.56,1.56,0,0,1,41.88,20.05Z" transform="translate(-0.32)"/></g></g></g></svg>