<svg xmlns="http://www.w3.org/2000/svg" xmlns:xlink="http://www.w3.org/1999/xlink" viewBox="0 0 50.11 48.81"><defs><style>.cls-1,.cls-10,.cls-8{fill:none;}.cls-2,.cls-3{isolation:isolate;}.cls-3{mix-blend-mode:multiply;}.cls-4{clip-path:url(#clip-path);}.cls-5{clip-path:url(#clip-path-2);}.cls-6{fill:#ebebeb;}.cls-7{fill:#deeaff;}.cls-8{stroke:#304d9d;}.cls-10,.cls-8{stroke-linejoin:round;stroke-width:0.5px;}.cls-9{fill:#fff;}.cls-10{stroke:#b6cd5b;}.cls-11{fill:#98b9ea;}.cls-12{fill:#b6cd5b;}.cls-13{fill:#dfeab0;}.cls-14{fill:#c4d36c;}</style><clipPath id="clip-path" transform="translate(-0.37)"><rect class="cls-1" y="30.15" width="51" height="19"/></clipPath><clipPath id="clip-path-2" transform="translate(-0.37)"><rect class="cls-1" x="0.37" y="30.43" width="50.11" height="18.38"/></clipPath></defs><title>reference_architecture</title><g class="cls-2"><g id="Layer_2" data-name="Layer 2"><g id="Layer_1-2" data-name="Layer 1"><g class="cls-3"><g class="cls-4"><g class="cls-5"><polygon class="cls-6" points="25.05 48.81 0 39.62 25.05 30.43 50.11 39.62 25.05 48.81"/></g></g></g><polygon class="cls-7" points="25.34 38.68 5.11 31.26 25.34 23.84 45.57 31.26 25.34 38.68"/><polygon class="cls-8" points="25.34 38.68 5.11 31.26 25.34 23.84 45.57 31.26 25.34 38.68"/><polygon class="cls-9" points="25.34 33.37 19.57 31.26 25.34 29.14 31.1 31.26 25.34 33.37"/><polygon class="cls-10" points="25.34 33.37 19.57 31.26 25.34 29.14 31.1 31.26 25.34 33.37"/><polygon class="cls-7" points="5.11 20.35 25.34 27.77 25.34 23.18 5.11 15.76 5.11 20.35"/><polygon class="cls-8" points="5.11 20.35 25.34 27.77 25.34 23.18 5.11 15.76 5.11 20.35"/><polygon class="cls-9" points="45.57 20.35 25.34 27.77 25.34 23.18 45.57 15.76 45.57 20.35"/><polygon class="cls-8" points="45.57 20.35 25.34 27.77 25.34 23.18 45.57 15.76 45.57 20.35"/><polygon class="cls-11" points="25.34 23.18 5.11 15.76 25.34 8.34 45.57 15.76 25.34 23.18"/><polygon class="cls-8" points="25.34 23.18 5.11 15.76 25.34 8.34 45.57 15.76 25.34 23.18"/><path class="cls-12" d="M29.3,24.24a1.77,1.77,0,0,1-1.16,1.56A.82.82,0,0,1,27,25a1.75,1.75,0,0,1,1.17-1.55.81.81,0,0,1,1.16.78" transform="translate(-0.37)"/><path class="cls-12" d="M32.64,23a1.77,1.77,0,0,1-1.17,1.56.82.82,0,0,1-1.17-.79,1.75,1.75,0,0,1,1.17-1.55.82.82,0,0,1,1.17.78" transform="translate(-0.37)"/><polygon class="cls-13" points="15.84 14.94 25.34 18.43 25.34 7.12 15.84 3.63 15.84 14.94"/><polygon class="cls-10" points="15.84 14.94 25.34 18.43 25.34 7.12 15.84 3.63 15.84 14.94"/><polygon class="cls-9" points="34.83 15.06 25.34 18.43 25.34 7.12 34.83 3.75 34.83 15.06"/><polygon class="cls-10" points="34.83 15.06 25.34 18.43 25.34 7.12 34.83 3.75 34.83 15.06"/><polygon class="cls-14" points="25.34 7.12 15.84 3.63 25.34 0.25 34.83 3.74 25.34 7.12"/><polygon class="cls-10" points="25.34 7.12 15.84 3.63 25.34 0.25 34.83 3.74 25.34 7.12"/></g></g></g></svg>