<svg xmlns="http://www.w3.org/2000/svg" xmlns:xlink="http://www.w3.org/1999/xlink" viewBox="0 0 48.28 49.8"><defs><style>.cls-1,.cls-12,.cls-7{fill:none;}.cls-2{isolation:isolate;}.cls-3{mix-blend-mode:multiply;}.cls-4{clip-path:url(#clip-path);}.cls-5{fill:#ebebeb;}.cls-6{fill:#deeaff;}.cls-7{stroke:#304d9d;}.cls-12,.cls-7{stroke-linejoin:round;stroke-width:0.5px;}.cls-8{fill:#fff;}.cls-9{fill:#98b9ea;}.cls-10{fill:#436db5;}.cls-11{fill:#dfeab0;}.cls-12{stroke:#b6cd5b;}</style><clipPath id="clip-path"><rect class="cls-1" x="1.56" y="32.83" width="46.26" height="16.96"/></clipPath></defs><title>restaurant</title><g class="cls-2"><g id="Layer_2" data-name="Layer 2"><g id="Layer_1-2" data-name="Layer 1"><g class="cls-3"><g class="cls-4"><polygon class="cls-5" points="24.69 49.8 1.56 41.31 24.69 32.83 47.81 41.31 24.69 49.8"/></g></g><polygon class="cls-6" points="15.02 42.08 4.17 37.85 4.17 18.15 15.02 22.38 15.02 42.08"/><polygon class="cls-7" points="15.02 42.08 4.17 37.85 4.17 18.15 15.02 22.38 15.02 42.08"/><polygon class="cls-8" points="40.2 12.78 29.34 8.54 4.17 18.15 15.02 22.38 40.2 12.78"/><polygon class="cls-7" points="40.2 12.78 29.34 8.54 4.17 18.15 15.02 22.38 40.2 12.78"/><polygon class="cls-9" points="15.02 42.08 40.17 32.47 40.17 12.77 15.02 22.38 15.02 42.08"/><polygon class="cls-7" points="15.02 42.08 40.17 32.47 40.17 12.77 15.02 22.38 15.02 42.08"/><polygon class="cls-10" points="18.64 40.45 37.5 33.28 37.5 20.15 18.64 27.32 18.64 40.45"/><path class="cls-11" d="M33.92,30.37c0,1.5,2.36,2.73,5.27,2.73s5.27-1.23,5.27-2.73v-1.3H33.92Z"/><path class="cls-12" d="M33.92,30.37c0,1.5,2.36,2.73,5.27,2.73s5.27-1.23,5.27-2.73v-1.3H33.92Z"/><path class="cls-11" d="M44.46,29.07c0,1.5-2.36,2.72-5.27,2.72s-5.27-1.22-5.27-2.72,2.36-2.73,5.27-2.73,5.27,1.22,5.27,2.73"/><path class="cls-12" d="M44.46,29.07c0,1.5-2.36,2.72-5.27,2.72s-5.27-1.22-5.27-2.72,2.36-2.73,5.27-2.73S44.46,27.56,44.46,29.07Z"/><path class="cls-11" d="M37.5,39.73c0,1.51,2.35,2.73,5.26,2.73S48,41.24,48,39.73v-1.3H37.5Z"/><path class="cls-12" d="M37.5,39.73c0,1.51,2.35,2.73,5.26,2.73S48,41.24,48,39.73v-1.3H37.5Z"/><path class="cls-11" d="M48,38.43c0,1.51-2.36,2.73-5.27,2.73s-5.26-1.22-5.26-2.73,2.35-2.73,5.26-2.73S48,36.92,48,38.43"/><path class="cls-12" d="M48,38.43c0,1.51-2.36,2.73-5.27,2.73s-5.26-1.22-5.26-2.73,2.35-2.73,5.26-2.73S48,36.92,48,38.43Z"/><path class="cls-11" d="M22.33,38.11c0,1.5,2.36,2.72,5.27,2.72s5.26-1.22,5.26-2.72V36.8H22.33Z"/><path class="cls-12" d="M22.33,38.11c0,1.5,2.36,2.72,5.27,2.72s5.26-1.22,5.26-2.72V36.8H22.33Z"/><path class="cls-11" d="M32.86,36.8c0,1.51-2.35,2.73-5.26,2.73s-5.27-1.22-5.27-2.73,2.36-2.72,5.27-2.72,5.26,1.22,5.26,2.72"/><path class="cls-12" d="M32.86,36.8c0,1.51-2.35,2.73-5.26,2.73s-5.27-1.22-5.27-2.73,2.36-2.72,5.27-2.72S32.86,35.3,32.86,36.8Z"/><polygon class="cls-6" points="0.25 15.03 5.94 17.31 5.94 20.61 0.25 18.32 0.25 15.03"/><polygon class="cls-7" points="0.25 15.03 5.94 17.31 5.94 20.61 0.25 18.32 0.25 15.03"/><polygon class="cls-9" points="5.94 17.31 25.87 8.62 32.39 9.81 44.71 2.87 44.71 4.62 32.39 13.11 25.87 11.92 5.94 20.61 5.94 17.31"/><polygon class="cls-7" points="5.94 17.31 25.87 8.62 32.39 9.81 44.71 2.87 44.71 4.62 32.39 13.11 25.87 11.92 5.94 20.61 5.94 17.31"/><polygon class="cls-6" points="33.58 7.63 41.35 2.86 41.28 1.61 32 7.06 33.58 7.63"/><polygon class="cls-7" points="33.58 7.63 41.35 2.86 41.28 1.61 32 7.06 33.58 7.63"/><polygon class="cls-8" points="30.38 6.47 38.85 1.7 38.81 0.77 29.09 6 30.38 6.47"/><polygon class="cls-7" points="30.38 6.47 38.85 1.7 38.81 0.77 29.09 6 30.38 6.47"/><polygon class="cls-8" points="5.94 17.31 0.25 15.03 22.82 7.17 25.2 6.71 37.53 0.25 38.85 0.73 29.09 6 30.38 6.47 40.03 1.16 41.28 1.62 32 7.06 33.57 7.63 43.19 2.31 44.71 2.87 32.39 9.81 25.87 8.62 5.94 17.31"/><polygon class="cls-7" points="5.94 17.31 0.25 15.03 22.82 7.17 25.2 6.71 37.53 0.25 38.85 0.73 29.09 6 30.38 6.47 40.03 1.16 41.28 1.62 32 7.06 33.57 7.63 43.19 2.31 44.71 2.87 32.39 9.81 25.87 8.62 5.94 17.31"/></g></g></g></svg>