<svg xmlns="http://www.w3.org/2000/svg" xmlns:xlink="http://www.w3.org/1999/xlink" viewBox="0 0 46.26 49.8"><defs><style>.cls-1,.cls-11,.cls-7{fill:none;}.cls-2{isolation:isolate;}.cls-3{mix-blend-mode:multiply;}.cls-4{clip-path:url(#clip-path);}.cls-5{fill:#ebebeb;}.cls-6{fill:#fff;}.cls-7{stroke:#304d9d;}.cls-11,.cls-7{stroke-linejoin:round;stroke-width:0.5px;}.cls-8{fill:#98b9ea;}.cls-9{fill:#deeaff;}.cls-10{fill:#dfeab0;}.cls-11{stroke:#b6cd5b;}.cls-12{fill:#c4d36c;}</style><clipPath id="clip-path" transform="translate(0)"><rect class="cls-1" y="32.83" width="46.26" height="16.96"/></clipPath></defs><title>retail</title><g class="cls-2"><g id="Layer_2" data-name="Layer 2"><g id="Layer_1-2" data-name="Layer 1"><g class="cls-3"><g class="cls-4"><polygon class="cls-5" points="23.13 49.8 0 41.31 23.13 32.83 46.26 41.31 23.13 49.8"/></g></g><polygon class="cls-6" points="42.2 16.13 25.09 9.64 2.02 18.43 19.14 24.92 42.2 16.13"/><polygon class="cls-7" points="42.2 16.13 25.09 9.64 2.02 18.43 19.14 24.92 42.2 16.13"/><line class="cls-8" x1="25.13" y1="9.64" x2="25.13" y2="22.64"/><line class="cls-7" x1="25.13" y1="9.64" x2="25.13" y2="22.64"/><polygon class="cls-9" points="42.2 16.13 44.23 15.38 35.57 12.01 33.88 12.69 42.2 16.13"/><polygon class="cls-7" points="42.2 16.13 44.23 15.38 35.57 12.01 33.88 12.69 42.2 16.13"/><polygon class="cls-10" points="21.16 20.37 28.56 23.09 28.56 12.28 21.16 9.55 21.16 20.37"/><polygon class="cls-11" points="21.16 20.37 28.56 23.09 28.56 12.28 21.16 9.55 21.16 20.37"/><polygon class="cls-6" points="35.95 20.46 28.56 23.09 28.56 12.28 35.95 9.65 35.95 20.46"/><polygon class="cls-11" points="35.95 20.46 28.56 23.09 28.56 12.28 35.95 9.65 35.95 20.46"/><polygon class="cls-12" points="28.56 12.28 21.16 9.55 28.56 6.93 35.95 9.65 28.56 12.28"/><polygon class="cls-11" points="28.56 12.28 21.16 9.55 28.56 6.93 35.95 9.65 28.56 12.28"/><polygon class="cls-10" points="9.93 24.49 17.33 27.21 17.33 16.4 9.93 13.68 9.93 24.49"/><polygon class="cls-11" points="9.93 24.49 17.33 27.21 17.33 16.4 9.93 13.68 9.93 24.49"/><polygon class="cls-6" points="24.72 24.58 17.32 27.21 17.32 16.39 24.72 13.77 24.72 24.58"/><polygon class="cls-11" points="24.72 24.58 17.32 27.21 17.32 16.39 24.72 13.77 24.72 24.58"/><polygon class="cls-12" points="17.32 16.4 9.93 13.68 17.32 11.05 24.72 13.77 17.32 16.4"/><polygon class="cls-11" points="17.32 16.4 9.93 13.68 17.32 11.05 24.72 13.77 17.32 16.4"/><polygon class="cls-10" points="15.33 11.69 22.73 14.41 22.73 5.6 15.33 2.88 15.33 11.69"/><polygon class="cls-11" points="15.33 11.69 22.73 14.41 22.73 5.6 15.33 2.88 15.33 11.69"/><polygon class="cls-6" points="30.12 11.78 22.73 14.41 22.73 5.6 30.12 2.97 30.12 11.78"/><polygon class="cls-11" points="30.12 11.78 22.73 14.41 22.73 5.6 30.12 2.97 30.12 11.78"/><polygon class="cls-12" points="22.73 5.6 15.33 2.88 22.73 0.25 30.12 2.97 22.73 5.6"/><polygon class="cls-11" points="22.73 5.6 15.33 2.88 22.73 0.25 30.12 2.97 22.73 5.6"/><polygon class="cls-9" points="4.5 32.45 21.33 27.2 39.13 32.45 21.62 38.81 4.5 32.45"/><polygon class="cls-7" points="4.5 32.45 21.33 27.2 39.13 32.45 21.62 38.81 4.5 32.45"/><polygon class="cls-8" points="21.62 41.01 4.5 34.52 4.5 32.45 21.62 38.94 21.62 41.01"/><polygon class="cls-7" points="21.62 41.01 4.5 34.52 4.5 32.45 21.62 38.94 21.62 41.01"/><polygon class="cls-8" points="19.15 34.4 2.02 27.9 2.02 18.56 19.15 25.05 19.15 34.4"/><polygon class="cls-7" points="19.15 34.4 2.02 27.9 2.02 18.56 19.15 25.05 19.15 34.4"/><polygon class="cls-8" points="39.13 32.45 39.52 28.3 28.82 25.3 27.93 29.15 39.13 32.45"/><polygon class="cls-7" points="39.13 32.45 39.52 28.3 28.82 25.3 27.93 29.15 39.13 32.45"/><polygon class="cls-9" points="21.62 41.02 41.02 33.74 42.04 18.59 44.12 17.11 44.23 15.38 19.15 25.05 19.15 34.35 39.52 28.3 39.13 32.45 21.62 38.81 21.62 41.02"/><polygon class="cls-7" points="21.62 41.02 41.02 33.74 42.04 18.59 44.12 17.11 44.23 15.38 19.15 25.05 19.15 34.35 39.52 28.3 39.13 32.45 21.62 38.81 21.62 41.02"/><path class="cls-8" d="M24.78,44.18a1.22,1.22,0,0,1-.7-1.19,2.85,2.85,0,0,1,1.83-2.48,1.57,1.57,0,0,1,1-.06l.62.23-2,3.77Z" transform="translate(0)"/><path class="cls-7" d="M24.78,44.18a1.22,1.22,0,0,1-.7-1.19,2.85,2.85,0,0,1,1.83-2.48,1.57,1.57,0,0,1,1-.06l.62.23-2,3.77Z" transform="translate(0)"/><path class="cls-9" d="M26.47,44.39a1.25,1.25,0,0,1-1.83-1.19,2.84,2.84,0,0,1,1.83-2.47,1.25,1.25,0,0,1,1.83,1.18,2.87,2.87,0,0,1-1.83,2.48" transform="translate(0)"/><path class="cls-7" d="M26.47,44.39a1.25,1.25,0,0,1-1.83-1.19,2.84,2.84,0,0,1,1.83-2.47,1.25,1.25,0,0,1,1.83,1.18A2.87,2.87,0,0,1,26.47,44.39Z" transform="translate(0)"/><path class="cls-8" d="M37.21,39.24a1.23,1.23,0,0,1-.7-1.2,2.84,2.84,0,0,1,1.83-2.47,1.66,1.66,0,0,1,1-.07l.62.24-2,3.76Z" transform="translate(0)"/><path class="cls-7" d="M37.21,39.24a1.23,1.23,0,0,1-.7-1.2,2.84,2.84,0,0,1,1.83-2.47,1.66,1.66,0,0,1,1-.07l.62.24-2,3.76Z" transform="translate(0)"/><path class="cls-9" d="M38.9,39.45a1.26,1.26,0,0,1-1.83-1.19,2.84,2.84,0,0,1,1.83-2.47A1.25,1.25,0,0,1,40.73,37a2.87,2.87,0,0,1-1.83,2.48" transform="translate(0)"/><path class="cls-7" d="M38.9,39.45a1.26,1.26,0,0,1-1.83-1.19,2.84,2.84,0,0,1,1.83-2.47A1.25,1.25,0,0,1,40.73,37,2.87,2.87,0,0,1,38.9,39.45Z" transform="translate(0)"/></g></g></g></svg>