<svg xmlns="http://www.w3.org/2000/svg" viewBox="0 0 46.26 46.56"><defs><style>.cls-1{fill:#ebebeb;}.cls-2{fill:#deeaff;}.cls-3,.cls-7,.cls-8{fill:none;stroke-linejoin:round;stroke-width:0.5px;}.cls-3{stroke:#304d9d;}.cls-4{fill:#fff;}.cls-5{fill:#98b9ea;}.cls-6{fill:#dfeab0;}.cls-7,.cls-8{stroke:#b6cd5b;}.cls-8{stroke-linecap:round;}</style></defs><title>roi</title><g id="Layer_2" data-name="Layer 2"><g id="Layer_1-2" data-name="Layer 1"><polygon class="cls-1" points="23.13 46.56 0 38.08 23.13 29.6 46.26 38.08 23.13 46.56"/><polygon class="cls-2" points="1.9 0.25 1.9 2.9 6.54 10.57 6.54 7.92 1.9 0.25"/><polygon class="cls-3" points="1.9 0.25 1.9 2.9 6.54 10.57 6.54 7.92 1.9 0.25"/><polygon class="cls-4" points="9.76 6.71 9.76 9.35 6.54 10.57 6.54 7.92 9.76 6.71"/><polygon class="cls-3" points="9.76 6.71 9.76 9.35 6.54 10.57 6.54 7.92 9.76 6.71"/><polygon class="cls-4" points="21.54 2.33 21.54 4.97 17.92 6.32 17.92 3.67 21.54 2.33"/><polygon class="cls-3" points="21.54 2.33 21.54 4.97 17.92 6.32 17.92 3.67 21.54 2.33"/><polygon class="cls-5" points="1.9 0.25 6.54 7.92 9.76 6.71 20.89 10.79 29.05 7.75 17.92 3.67 21.54 2.33 1.9 0.25"/><polygon class="cls-3" points="1.9 0.25 6.54 7.92 9.76 6.71 20.89 10.79 29.05 7.75 17.92 3.67 21.54 2.33 1.9 0.25"/><polygon class="cls-2" points="9.76 6.71 20.89 10.79 20.89 13.43 9.76 9.35 9.76 6.71"/><polygon class="cls-3" points="9.76 6.71 20.89 10.79 20.89 13.43 9.76 9.35 9.76 6.71"/><polygon class="cls-4" points="29.05 10.4 29.05 7.75 20.89 10.79 20.89 13.43 29.05 10.4"/><polygon class="cls-3" points="29.05 10.4 29.05 7.75 20.89 10.79 20.89 13.43 29.05 10.4"/><path class="cls-6" d="M43.86,23.94c0,2.22-3.47,4-7.74,4s-7.74-1.79-7.74-4V22H43.86Z"/><path class="cls-7" d="M43.86,23.94c0,2.22-3.47,4-7.74,4s-7.74-1.79-7.74-4V22H43.86Z"/><path class="cls-6" d="M28.38,22c0,2.22,3.47,4,7.74,4s7.74-1.79,7.74-4-3.47-4-7.74-4-7.74,1.79-7.74,4"/><path class="cls-7" d="M28.38,22c0,2.22,3.47,4,7.74,4s7.74-1.79,7.74-4-3.47-4-7.74-4S28.38,19.82,28.38,22Z"/><path class="cls-6" d="M43.86,22c0,2.22-3.47,4-7.74,4s-7.74-1.79-7.74-4V20.12H43.86Z"/><path class="cls-7" d="M43.86,22c0,2.22-3.47,4-7.74,4s-7.74-1.79-7.74-4V20.12H43.86Z"/><path class="cls-6" d="M28.38,20.12c0,2.22,3.47,4,7.74,4s7.74-1.79,7.74-4-3.47-4-7.74-4-7.74,1.79-7.74,4"/><path class="cls-7" d="M28.38,20.12c0,2.22,3.47,4,7.74,4s7.74-1.79,7.74-4-3.47-4-7.74-4S28.38,17.91,28.38,20.12Z"/><path class="cls-6" d="M43.86,20.12c0,2.22-3.47,4-7.74,4s-7.74-1.79-7.74-4V18.21H43.86Z"/><path class="cls-7" d="M43.86,20.12c0,2.22-3.47,4-7.74,4s-7.74-1.79-7.74-4V18.21H43.86Z"/><path class="cls-6" d="M28.38,18.21c0,2.21,3.47,4,7.74,4s7.74-1.8,7.74-4-3.47-4-7.74-4-7.74,1.79-7.74,4"/><path class="cls-7" d="M28.38,18.21c0,2.21,3.47,4,7.74,4s7.74-1.8,7.74-4-3.47-4-7.74-4S28.38,16,28.38,18.21Z"/><path class="cls-6" d="M43.86,18.21c0,2.21-3.47,4-7.74,4s-7.74-1.8-7.74-4V16.3H43.86Z"/><path class="cls-7" d="M43.86,18.21c0,2.21-3.47,4-7.74,4s-7.74-1.8-7.74-4V16.3H43.86Z"/><path class="cls-6" d="M28.38,16.3c0,2.21,3.47,4,7.74,4s7.74-1.8,7.74-4-3.47-4-7.74-4-7.74,1.79-7.74,4"/><path class="cls-7" d="M28.38,16.3c0,2.21,3.47,4,7.74,4s7.74-1.8,7.74-4-3.47-4-7.74-4S28.38,14.09,28.38,16.3Z"/><path class="cls-6" d="M43.86,16.3c0,2.21-3.47,4-7.74,4s-7.74-1.8-7.74-4V14.39H43.86Z"/><path class="cls-7" d="M43.86,16.3c0,2.21-3.47,4-7.74,4s-7.74-1.8-7.74-4V14.39H43.86Z"/><path class="cls-6" d="M28.38,14.39c0,2.21,3.47,4,7.74,4s7.74-1.8,7.74-4-3.47-4-7.74-4-7.74,1.79-7.74,4"/><path class="cls-7" d="M28.38,14.39c0,2.21,3.47,4,7.74,4s7.74-1.8,7.74-4-3.47-4-7.74-4S28.38,12.18,28.38,14.39Z"/><path class="cls-6" d="M43.86,14.39c0,2.21-3.47,4-7.74,4s-7.74-1.8-7.74-4V12.48H43.86Z"/><path class="cls-7" d="M43.86,14.39c0,2.21-3.47,4-7.74,4s-7.74-1.8-7.74-4V12.48H43.86Z"/><path class="cls-6" d="M28.38,12.48c0,2.21,3.47,4,7.74,4s7.74-1.8,7.74-4-3.47-4-7.74-4-7.74,1.79-7.74,4"/><path class="cls-7" d="M28.38,12.48c0,2.21,3.47,4,7.74,4s7.74-1.8,7.74-4-3.47-4-7.74-4S28.38,10.27,28.38,12.48Z"/><path class="cls-6" d="M43.86,12.48c0,2.21-3.47,4-7.74,4s-7.74-1.8-7.74-4V10.57H43.86Z"/><path class="cls-7" d="M43.86,12.48c0,2.21-3.47,4-7.74,4s-7.74-1.8-7.74-4V10.57H43.86Z"/><path class="cls-6" d="M28.38,10.57c0,2.21,3.47,4,7.74,4s7.74-1.8,7.74-4-3.47-4-7.74-4-7.74,1.79-7.74,4"/><path class="cls-7" d="M28.38,10.57c0,2.21,3.47,4,7.74,4s7.74-1.8,7.74-4-3.47-4-7.74-4S28.38,8.36,28.38,10.57Z"/><path class="cls-6" d="M43.86,10.57c0,2.21-3.47,4-7.74,4s-7.74-1.8-7.74-4V8.66H43.86Z"/><path class="cls-7" d="M43.86,10.57c0,2.21-3.47,4-7.74,4s-7.74-1.8-7.74-4V8.66H43.86Z"/><path class="cls-6" d="M28.38,8.66c0,2.21,3.47,4,7.74,4s7.74-1.8,7.74-4-3.47-4-7.74-4-7.74,1.79-7.74,4"/><path class="cls-7" d="M28.38,8.66c0,2.21,3.47,4,7.74,4s7.74-1.8,7.74-4-3.47-4-7.74-4S28.38,6.45,28.38,8.66Z"/><path class="cls-6" d="M43.86,8.66c0,2.21-3.47,4-7.74,4s-7.74-1.8-7.74-4V6.75H43.86Z"/><path class="cls-7" d="M43.86,8.66c0,2.21-3.47,4-7.74,4s-7.74-1.8-7.74-4V6.75H43.86Z"/><path class="cls-4" d="M28.38,6.75c0,2.21,3.47,4,7.74,4s7.74-1.8,7.74-4-3.47-4-7.74-4-7.74,1.79-7.74,4"/><path class="cls-7" d="M28.38,6.75c0,2.21,3.47,4,7.74,4s7.74-1.8,7.74-4-3.47-4-7.74-4S28.38,4.54,28.38,6.75Z"/><path class="cls-8" d="M34.32,4.84H33.7a.42.42,0,0,0-.4.6l.86,2.62a.89.89,0,0,0,.8.6h1.22a.42.42,0,0,0,.41-.6l-.86-2.62a.42.42,0,0,1,.4-.6h1.23a.92.92,0,0,1,.8.6L39,8.06a.42.42,0,0,1-.41.6H38"/><line class="cls-8" x1="31.98" y1="7.26" x2="33.89" y2="7.26"/><line class="cls-8" x1="31.59" y1="6.05" x2="33.5" y2="6.05"/><line class="cls-8" x1="38.75" y1="7.26" x2="40.66" y2="7.26"/><line class="cls-8" x1="38.36" y1="6.05" x2="40.27" y2="6.05"/><path class="cls-6" d="M19,24.94c0,2.22-3.46,4-7.73,4s-7.74-1.79-7.74-4V23H19Z"/><path class="cls-7" d="M19,24.94c0,2.22-3.46,4-7.73,4s-7.74-1.79-7.74-4V23H19Z"/><path class="cls-4" d="M3.5,23c0,2.22,3.46,4,7.74,4S19,25.25,19,23s-3.46-4-7.73-4S3.5,20.82,3.5,23"/><path class="cls-7" d="M3.5,23c0,2.22,3.46,4,7.74,4S19,25.25,19,23s-3.46-4-7.73-4S3.5,20.82,3.5,23Z"/><path class="cls-8" d="M9.42,21.12H8.81a.42.42,0,0,0-.41.6l.86,2.63a.92.92,0,0,0,.8.6h1.22a.42.42,0,0,0,.41-.6l-.86-2.63a.42.42,0,0,1,.41-.6h1.22a.92.92,0,0,1,.8.6l.86,2.63a.42.42,0,0,1-.41.6h-.63"/><line class="cls-8" x1="7.09" y1="23.54" x2="9" y2="23.54"/><line class="cls-8" x1="6.69" y1="22.34" x2="8.6" y2="22.34"/><line class="cls-8" x1="13.86" y1="23.54" x2="15.77" y2="23.54"/><line class="cls-8" x1="13.46" y1="22.34" x2="15.37" y2="22.34"/><polygon class="cls-1" points="42.98 40.13 37.67 32.73 35.12 33.67 23.99 29.59 15.83 32.63 26.96 36.71 23.34 38.05 42.98 40.13"/><polygon class="cls-2" points="15.83 32.63 15.83 29.98 26.96 34.06 26.96 36.71 15.83 32.63"/><polygon class="cls-3" points="15.83 32.63 15.83 29.98 26.96 34.06 26.96 36.71 15.83 32.63"/><polygon class="cls-5" points="42.98 37.48 38.1 29.92 35.12 31.03 23.99 26.95 15.83 29.98 26.96 34.06 23.34 35.4 42.98 37.48"/><polygon class="cls-3" points="42.98 37.48 38.1 29.92 35.12 31.03 23.99 26.95 15.83 29.98 26.96 34.06 23.34 35.4 42.98 37.48"/><polygon class="cls-2" points="23.34 38.05 23.34 35.4 42.98 37.48 42.98 40.13 23.34 38.05"/><polygon class="cls-3" points="23.34 38.05 23.34 35.4 42.98 37.48 42.98 40.13 23.34 38.05"/></g></g></svg>