<svg xmlns="http://www.w3.org/2000/svg" viewBox="0 0 46.26 48.74"><defs><style>.cls-1{fill:#ebebeb;}.cls-2{fill:#dfeab0;}.cls-3,.cls-8{fill:none;stroke-linejoin:round;stroke-width:0.5px;}.cls-3{stroke:#b6cd5b;}.cls-4{fill:#fff;}.cls-5{fill:#c4d36c;}.cls-6{fill:#b6cd5b;}.cls-7{fill:#deeaff;}.cls-8{stroke:#304d9d;}.cls-9{fill:#98b9ea;}</style></defs><title>screen_and_computer</title><g id="Layer_2" data-name="Layer 2"><g id="Layer_1-2" data-name="Layer 1"><polygon class="cls-1" points="23.13 48.74 0 40.25 23.13 31.77 46.26 40.25 23.13 48.74"/><polygon class="cls-2" points="1.38 36.5 23.23 44.51 23.23 39.55 1.38 31.54 1.38 36.5"/><polygon class="cls-3" points="1.38 36.5 23.23 44.51 23.23 39.55 1.38 31.54 1.38 36.5"/><polygon class="cls-4" points="45.08 36.5 23.23 44.51 23.23 39.55 45.08 31.54 45.08 36.5"/><polygon class="cls-3" points="45.08 36.5 23.23 44.51 23.23 39.55 45.08 31.54 45.08 36.5"/><polygon class="cls-5" points="23.23 39.55 1.38 31.54 23.23 23.53 45.08 31.54 23.23 39.55"/><polygon class="cls-3" points="23.23 39.55 1.38 31.54 23.23 23.53 45.08 31.54 23.23 39.55"/><path class="cls-6" d="M27.12,40.71a1.9,1.9,0,0,1-1.26,1.67.88.88,0,0,1-1.26-.85,1.88,1.88,0,0,1,1.26-1.67.88.88,0,0,1,1.26.85"/><path class="cls-6" d="M30.72,39.38a1.9,1.9,0,0,1-1.26,1.67.88.88,0,0,1-1.26-.85,1.9,1.9,0,0,1,1.26-1.67.88.88,0,0,1,1.26.85"/><polygon class="cls-7" points="19.23 34.57 11.13 31.36 13.98 29.72 19.89 32.07 19.23 34.57"/><polygon class="cls-8" points="19.23 34.57 11.13 31.36 13.98 29.72 19.89 32.07 19.23 34.57"/><polygon class="cls-9" points="35.51 26.33 29.6 23.99 13.98 29.72 19.89 32.06 35.51 26.33"/><polygon class="cls-8" points="35.51 26.33 29.6 23.99 13.98 29.72 19.89 32.06 35.51 26.33"/><polygon class="cls-4" points="19.23 34.57 36.61 28.09 35.5 26.33 19.89 32.07 19.23 34.57"/><polygon class="cls-8" points="19.23 34.57 36.61 28.09 35.5 26.33 19.89 32.07 19.23 34.57"/><polygon class="cls-7" points="10.29 32.23 8.36 31.42 8.36 10.24 10.29 11.04 10.29 32.23"/><polygon class="cls-8" points="10.29 32.23 8.36 31.42 8.36 10.24 10.29 11.04 10.29 32.23"/><polygon class="cls-9" points="37.9 1.06 35.96 0.25 8.36 10.24 10.29 11.04 37.9 1.06"/><polygon class="cls-8" points="37.9 1.06 35.96 0.25 8.36 10.24 10.29 11.04 37.9 1.06"/><polygon class="cls-4" points="10.29 32.23 37.89 22.23 37.89 1.05 10.29 11.04 10.29 32.23"/><polygon class="cls-8" points="10.29 32.23 37.89 22.23 37.89 1.05 10.29 11.04 10.29 32.23"/><polygon class="cls-5" points="12.69 25.36 28.84 19.55 28.84 7.15 12.69 12.95 12.69 25.36"/><polygon class="cls-2" points="25.84 24.77 36.02 21.11 36.02 10.96 25.84 14.61 25.84 24.77"/></g></g></svg>