<svg xmlns="http://www.w3.org/2000/svg" viewBox="0 0 46.26 48.81"><defs><style>.cls-1{fill:#ebebeb;}.cls-2{fill:#dfeab0;}.cls-3,.cls-7{fill:none;stroke-linejoin:round;stroke-width:0.5px;}.cls-3{stroke:#b6cd5b;}.cls-4{fill:#fff;}.cls-5{fill:#c4d36c;}.cls-6{fill:#deeaff;}.cls-7{stroke:#304d9d;}.cls-8{fill:#98b9ea;}</style></defs><title>self_healing</title><g id="Layer_2" data-name="Layer 2"><g id="Layer_1-2" data-name="Layer 1"><polygon class="cls-1" points="23.13 48.81 0 40.33 23.13 31.85 46.26 40.33 23.13 48.81"/><path class="cls-2" d="M28.15,4.1l3.49,11.5,3.46-5c5,2.82,5,11,0,18.19s-13.16,10.79-18.18,8-5-11,0-18.18l-3.27-1.84c-6.83,9.82-6.83,20.89,0,24.73s17.9-1,24.73-10.85,6.83-20.89,0-24.73l2.8-4Z"/><path class="cls-3" d="M28.15,4.1l3.49,11.5,3.46-5c5,2.82,5,11,0,18.19s-13.16,10.79-18.18,8-5-11,0-18.18l-3.27-1.84c-6.83,9.82-6.83,20.89,0,24.73s17.9-1,24.73-10.85,6.83-20.89,0-24.73l2.8-4Z"/><path class="cls-2" d="M16.92,36.77c-5-2.82-5-11,0-18.19l-3.27-1.83c-6.83,9.82-6.83,20.89,0,24.73"/><path class="cls-3" d="M16.92,36.77c-5-2.82-5-11,0-18.19l-3.27-1.83c-6.83,9.82-6.83,20.89,0,24.73"/><path class="cls-2" d="M16.92,36.77c-5-2.82-5-11,0-18.19l-3.27-1.83c-6.83,9.82-6.83,20.89,0,24.73"/><path class="cls-3" d="M16.92,36.77c-5-2.82-5-11,0-18.19l-3.27-1.83c-6.83,9.82-6.83,20.89,0,24.73"/><path class="cls-4" d="M25.15,2.47,28.64,14,32.1,9c5,2.82,5,11,0,18.18S18.94,38,13.92,35.14s-5-11,0-18.18l-3.27-1.84C3.82,25,3.82,36,10.65,39.85s17.9-1,24.73-10.84,6.83-20.9,0-24.73l2.8-4Z"/><path class="cls-3" d="M25.15,2.47,28.64,14,32.1,9c5,2.82,5,11,0,18.18S18.94,38,13.92,35.14s-5-11,0-18.18l-3.27-1.84C3.82,25,3.82,36,10.65,39.85s17.9-1,24.73-10.84,6.83-20.9,0-24.73l2.8-4Z"/><path class="cls-2" d="M28.15,4.1l3.49,11.5,3.46-5c5,2.82,5,11,0,18.19s-13.16,10.79-18.18,8-5-11,0-18.18l-3.27-1.84c-6.83,9.82-6.83,20.89,0,24.73s17.9-1,24.73-10.85,6.83-20.89,0-24.73l2.8-4Z"/><path class="cls-3" d="M28.15,4.1l3.49,11.5,3.46-5c5,2.82,5,11,0,18.19s-13.16,10.79-18.18,8-5-11,0-18.18l-3.27-1.84c-6.83,9.82-6.83,20.89,0,24.73s17.9-1,24.73-10.85,6.83-20.89,0-24.73l2.8-4Z"/><path class="cls-2" d="M16.92,36.77c-5-2.82-5-11,0-18.19l-3.27-1.83c-6.83,9.82-6.83,20.89,0,24.73"/><path class="cls-3" d="M16.92,36.77c-5-2.82-5-11,0-18.19l-3.27-1.83c-6.83,9.82-6.83,20.89,0,24.73"/><path class="cls-2" d="M16.92,36.77c-5-2.82-5-11,0-18.19l-3.27-1.83c-6.83,9.82-6.83,20.89,0,24.73"/><path class="cls-3" d="M16.92,36.77c-5-2.82-5-11,0-18.19l-3.27-1.83c-6.83,9.82-6.83,20.89,0,24.73"/><polygon class="cls-5" points="31.64 15.6 28.64 13.97 25.15 2.47 28.15 4.1 31.64 15.6"/><polygon class="cls-3" points="31.64 15.6 28.64 13.97 25.15 2.47 28.15 4.1 31.64 15.6"/><path class="cls-6" d="M10.35,29.11C4.16,25.73.74,25,.74,21.55c0-4.55,4.64-8.11,6.91-8.11A7.2,7.2,0,0,1,9,13.56c1.08.21,24.82,9.15,24.82,9.15a8.65,8.65,0,0,0-2.15.53c-2.94,1.3-5.32,4.72-5.32,7.66a3.89,3.89,0,0,0,1.85,3.21L36,38.46Z"/><path class="cls-7" d="M10.35,29.11C4.16,25.73.74,25,.74,21.55c0-4.55,4.64-8.11,6.91-8.11A7.2,7.2,0,0,1,9,13.56c1.08.21,24.82,9.15,24.82,9.15a8.65,8.65,0,0,0-2.15.53c-2.94,1.3-5.32,4.72-5.32,7.66a3.89,3.89,0,0,0,1.85,3.21L36,38.46Z"/><path class="cls-4" d="M13.92,35.14c-5-2.82-5-11,0-18.18l-3.27-1.84C3.82,25,3.82,36,10.65,39.85"/><path class="cls-3" d="M13.92,35.14c-5-2.82-5-11,0-18.18l-3.27-1.84C3.82,25,3.82,36,10.65,39.85"/><path class="cls-2" d="M16.92,36.77c-5-2.82-5-11,0-18.19l-3.27-1.83c-6.83,9.82-6.83,20.89,0,24.73"/><path class="cls-3" d="M16.92,36.77c-5-2.82-5-11,0-18.19l-3.27-1.83c-6.83,9.82-6.83,20.89,0,24.73"/><path class="cls-8" d="M45.6,22.45c0-2.94-2.38-4.27-5.31-3A9.52,9.52,0,0,0,36,23.55c-1-.9-2.53-1.08-4.29-.31-2.94,1.3-5.32,4.72-5.32,7.66a3.89,3.89,0,0,0,1.85,3.21L36,38.46l7.76-11.18a8.34,8.34,0,0,0,1.85-4.83"/><path class="cls-7" d="M45.6,22.45c0-2.94-2.38-4.27-5.31-3A9.52,9.52,0,0,0,36,23.55c-1-.9-2.53-1.08-4.29-.31-2.94,1.3-5.32,4.72-5.32,7.66a3.89,3.89,0,0,0,1.85,3.21L36,38.46l7.76-11.18A8.34,8.34,0,0,0,45.6,22.45Z"/><path class="cls-6" d="M36,23.55,10.47,14S13,9.63,16.68,9.63a6.2,6.2,0,0,1,1.77.18L44,19.35a5.15,5.15,0,0,0-3.54,0A8.92,8.92,0,0,0,36,23.55"/><path class="cls-7" d="M36,23.55,10.47,14S13,9.63,16.68,9.63a6.2,6.2,0,0,1,1.77.18L44,19.35a5.15,5.15,0,0,0-3.54,0A8.92,8.92,0,0,0,36,23.55Z"/><polygon class="cls-4" points="25.15 2.47 28.15 4.1 41.18 1.87 38.18 0.25 25.15 2.47"/><polygon class="cls-3" points="25.15 2.47 28.15 4.1 41.18 1.87 38.18 0.25 25.15 2.47"/></g></g></svg>