<svg xmlns="http://www.w3.org/2000/svg" viewBox="0 0 46.26 49.35"><defs><style>.cls-1{fill:#ebebeb;}.cls-2{fill:#deeaff;}.cls-3,.cls-7,.cls-8{fill:none;stroke-linejoin:round;}.cls-3,.cls-8{stroke:#304d9d;}.cls-3,.cls-7{stroke-width:0.5px;}.cls-4{fill:#fff;}.cls-5{fill:#98b9ea;}.cls-6{fill:#b6cd5b;}.cls-7{stroke:#b6cd5b;}.cls-8{stroke-linecap:round;}</style></defs><title>server_virtualization</title><g id="Layer_2" data-name="Layer 2"><g id="Layer_1-2" data-name="Layer 1"><polygon class="cls-1" points="23.13 49.35 0 40.87 23.13 32.38 46.26 40.87 23.13 49.35"/><polygon class="cls-2" points="19.81 34.42 29.92 38.13 29.92 27.62 19.81 23.91 19.81 34.42"/><polygon class="cls-3" points="19.81 34.42 29.92 38.13 29.92 27.62 19.81 23.91 19.81 34.42"/><polygon class="cls-4" points="40.04 34.42 29.93 38.13 29.93 27.62 40.04 23.91 40.04 34.42"/><polygon class="cls-3" points="40.04 34.42 29.93 38.13 29.93 27.62 40.04 23.91 40.04 34.42"/><polygon class="cls-5" points="29.93 27.62 19.81 23.91 29.93 20.2 40.04 23.91 29.93 27.62"/><polygon class="cls-3" points="29.93 27.62 19.81 23.91 29.93 20.2 40.04 23.91 29.93 27.62"/><path class="cls-6" d="M32.71,28.5a1.2,1.2,0,0,1-.8,1.06.56.56,0,0,1-.8-.54,1.22,1.22,0,0,1,.8-1.06.56.56,0,0,1,.8.54"/><path class="cls-6" d="M35,27.66a1.2,1.2,0,0,1-.8,1.06.55.55,0,0,1-.79-.54,1.21,1.21,0,0,1,.79-1.06.56.56,0,0,1,.8.54"/><polygon class="cls-7" points="19.81 13.56 29.92 17.27 29.92 7.67 19.81 3.96 19.81 13.56"/><polygon class="cls-7" points="40.04 13.56 29.93 17.27 29.93 7.67 40.04 3.96 40.04 13.56"/><polygon class="cls-7" points="29.93 7.67 19.81 3.96 29.93 0.25 40.04 3.96 29.93 7.67"/><line class="cls-8" x1="40.04" y1="15.47" x2="40.04" y2="22.04"/><line class="cls-8" x1="19.81" y1="15.47" x2="19.81" y2="22.04"/><line class="cls-8" x1="29.93" y1="18.95" x2="29.93" y2="25.52"/><polygon class="cls-2" points="6.18 38.99 16.3 42.7 16.3 32.18 6.18 28.47 6.18 38.99"/><polygon class="cls-3" points="6.18 38.99 16.3 42.7 16.3 32.18 6.18 28.47 6.18 38.99"/><polygon class="cls-4" points="26.41 38.99 16.3 42.7 16.3 32.18 26.41 28.47 26.41 38.99"/><polygon class="cls-3" points="26.41 38.99 16.3 42.7 16.3 32.18 26.41 28.47 26.41 38.99"/><polygon class="cls-5" points="16.3 32.18 6.18 28.47 16.3 24.76 26.41 28.47 16.3 32.18"/><polygon class="cls-3" points="16.3 32.18 6.18 28.47 16.3 24.76 26.41 28.47 16.3 32.18"/><path class="cls-6" d="M19.08,33.07a1.22,1.22,0,0,1-.8,1.06.56.56,0,0,1-.8-.54,1.2,1.2,0,0,1,.8-1.06.56.56,0,0,1,.8.54"/><path class="cls-6" d="M21.36,32.23a1.22,1.22,0,0,1-.8,1.06.56.56,0,0,1-.8-.54,1.2,1.2,0,0,1,.8-1.06.56.56,0,0,1,.8.54"/><polygon class="cls-7" points="6.18 18.13 16.3 21.84 16.3 12.24 6.18 8.53 6.18 18.13"/><polygon class="cls-7" points="26.41 18.13 16.3 21.84 16.3 12.24 26.41 8.53 26.41 18.13"/><polygon class="cls-7" points="16.3 12.24 6.18 8.53 16.3 4.82 26.41 8.53 16.3 12.24"/><line class="cls-8" x1="26.42" y1="20.04" x2="26.42" y2="26.6"/><line class="cls-8" x1="6.18" y1="20.04" x2="6.18" y2="26.6"/><line class="cls-8" x1="16.3" y1="23.52" x2="16.3" y2="30.08"/></g></g></svg>