<svg xmlns="http://www.w3.org/2000/svg" viewBox="0 0 46.26 44.61"><defs><style>.cls-1{fill:#ebebeb;}.cls-2{fill:#deeaff;}.cls-3{fill:none;stroke:#304d9d;stroke-linejoin:round;stroke-width:0.5px;}.cls-4{fill:#fff;}.cls-5{fill:#98b9ea;}</style></defs><title>star</title><g id="Layer_2" data-name="Layer 2"><g id="Layer_1-2" data-name="Layer 1"><polygon class="cls-1" points="23.13 44.61 0 36.13 23.13 27.64 46.26 36.13 23.13 44.61"/><polygon class="cls-2" points="22.6 1.44 19.63 0.25 15.32 13.01 18.29 14.2 22.6 1.44"/><polygon class="cls-3" points="22.6 1.44 19.63 0.25 15.32 13.01 18.29 14.2 22.6 1.44"/><polygon class="cls-4" points="18.29 14.2 6.92 20.42 3.94 19.24 15.32 13.01 18.29 14.2"/><polygon class="cls-3" points="18.29 14.2 6.92 20.42 3.94 19.24 15.32 13.01 18.29 14.2"/><polygon class="cls-2" points="15.9 25.53 12.93 24.34 3.95 19.24 6.92 20.42 15.9 25.53"/><polygon class="cls-3" points="15.9 25.53 12.93 24.34 3.95 19.24 6.92 20.42 15.9 25.53"/><polygon class="cls-2" points="14.85 38.11 11.88 36.92 12.93 24.34 15.9 25.53 14.85 38.11"/><polygon class="cls-3" points="14.85 38.11 11.88 36.92 12.93 24.34 15.9 25.53 14.85 38.11"/><polygon class="cls-4" points="28.58 10.17 40.23 7.39 37.26 6.2 25.61 8.98 28.58 10.17"/><polygon class="cls-3" points="28.58 10.17 40.23 7.39 37.26 6.2 25.61 8.98 28.58 10.17"/><polygon class="cls-5" points="22.6 1.44 28.58 10.17 40.23 7.39 32.55 19.01 35.44 30.05 24.71 28.51 14.85 38.11 15.9 25.53 6.92 20.42 18.29 14.2 22.6 1.44"/><polygon class="cls-3" points="22.6 1.44 28.58 10.17 40.23 7.39 32.55 19.01 35.44 30.05 24.71 28.51 14.85 38.11 15.9 25.53 6.92 20.42 18.29 14.2 22.6 1.44"/><polygon class="cls-3" points="22.6 1.44 28.58 10.17 40.23 7.39 32.55 19.01 35.44 30.05 24.71 28.51 14.85 38.11 15.9 25.53 6.92 20.42 18.29 14.2 22.6 1.44"/></g></g></svg>