<svg xmlns="http://www.w3.org/2000/svg" viewBox="0 0 46.26 50.07"><defs><style>.cls-1{fill:#ebebeb;}.cls-2{fill:#deeaff;}.cls-3,.cls-7{fill:none;stroke-linejoin:round;stroke-width:0.5px;}.cls-3{stroke:#304d9d;}.cls-4{fill:#fff;}.cls-5{fill:#98b9ea;}.cls-6{fill:#dfeab0;}.cls-7{stroke:#b6cd5b;}</style></defs><title>state_and_goverment</title><g id="Layer_2" data-name="Layer 2"><g id="Layer_1-2" data-name="Layer 1"><polygon class="cls-1" points="23.13 50.07 0 41.59 23.13 33.11 46.26 41.59 23.13 50.07"/><polygon class="cls-2" points="3.05 38.58 23.63 46.42 23.63 37.81 3.05 29.97 3.05 38.58"/><polygon class="cls-3" points="3.05 38.58 23.63 46.42 23.63 37.81 3.05 29.97 3.05 38.58"/><polygon class="cls-4" points="44.21 38.58 23.63 46.42 23.63 37.81 44.21 29.97 44.21 38.58"/><polygon class="cls-3" points="44.21 38.58 23.63 46.42 23.63 37.81 44.21 29.97 44.21 38.58"/><polygon class="cls-5" points="23.63 37.81 3.05 29.97 23.63 22.13 44.21 29.97 23.63 37.81"/><polygon class="cls-3" points="23.63 37.81 3.05 29.97 23.63 22.13 44.21 29.97 23.63 37.81"/><path class="cls-4" d="M5.37,29.66c0,.33.52.6,1.15.6s1.16-.27,1.16-.6v-5.5H5.37Z"/><path class="cls-3" d="M5.37,29.66c0,.33.52.6,1.15.6s1.16-.27,1.16-.6v-5.5H5.37Z"/><path class="cls-4" d="M9.62,31.19c0,.33.51.59,1.15.59s1.15-.26,1.15-.59V25.68H9.62Z"/><path class="cls-3" d="M9.62,31.19c0,.33.51.59,1.15.59s1.15-.26,1.15-.59V25.68H9.62Z"/><path class="cls-4" d="M13.86,32.71c0,.33.52.6,1.15.6s1.16-.27,1.16-.6V27.2H13.86Z"/><path class="cls-3" d="M13.86,32.71c0,.33.52.6,1.15.6s1.16-.27,1.16-.6V27.2H13.86Z"/><path class="cls-4" d="M18.11,34.23c0,.33.51.6,1.15.6s1.15-.27,1.15-.6v-5.5h-2.3Z"/><path class="cls-3" d="M18.11,34.23c0,.33.51.6,1.15.6s1.15-.27,1.15-.6v-5.5h-2.3Z"/><path class="cls-4" d="M22.35,35.94c0,.33.52.6,1.15.6s1.16-.27,1.16-.6v-5.5H22.35Z"/><path class="cls-3" d="M22.35,35.94c0,.33.52.6,1.15.6s1.16-.27,1.16-.6v-5.5H22.35Z"/><path class="cls-4" d="M41.64,29.66c0,.33-.52.6-1.16.6s-1.15-.27-1.15-.6v-5.5h2.31Z"/><path class="cls-3" d="M41.64,29.66c0,.33-.52.6-1.16.6s-1.15-.27-1.15-.6v-5.5h2.31Z"/><path class="cls-4" d="M37.39,31.19c0,.33-.52.59-1.15.59s-1.15-.26-1.15-.59V25.68h2.3Z"/><path class="cls-3" d="M37.39,31.19c0,.33-.52.59-1.15.59s-1.15-.26-1.15-.59V25.68h2.3Z"/><path class="cls-4" d="M33.15,32.71c0,.33-.52.6-1.16.6s-1.15-.27-1.15-.6V27.2h2.31Z"/><path class="cls-3" d="M33.15,32.71c0,.33-.52.6-1.16.6s-1.15-.27-1.15-.6V27.2h2.31Z"/><path class="cls-4" d="M28.9,34.23c0,.33-.52.6-1.15.6s-1.15-.27-1.15-.6v-5.5h2.3Z"/><path class="cls-3" d="M28.9,34.23c0,.33-.52.6-1.15.6s-1.15-.27-1.15-.6v-5.5h2.3Z"/><polygon class="cls-2" points="3.96 23.73 23.63 30.95 23.63 27.63 3.96 20.41 3.96 23.73"/><polygon class="cls-3" points="3.96 23.73 23.63 30.95 23.63 27.63 3.96 20.41 3.96 23.73"/><polygon class="cls-4" points="43.3 23.73 23.63 30.95 23.63 27.63 43.3 20.41 43.3 23.73"/><polygon class="cls-3" points="43.3 23.73 23.63 30.95 23.63 27.63 43.3 20.41 43.3 23.73"/><polygon class="cls-5" points="23.63 27.63 3.96 20.41 23.63 13.2 43.3 20.41 23.63 27.63"/><polygon class="cls-3" points="23.63 27.63 3.96 20.41 23.63 13.2 43.3 20.41 23.63 27.63"/><path class="cls-6" d="M33.07,19.49c0,2.66-4.15,4.81-9.27,4.81s-9.28-2.15-9.28-4.81,4.15-4.8,9.28-4.8,9.27,2.15,9.27,4.8"/><path class="cls-7" d="M33.07,19.49c0,2.66-4.15,4.81-9.27,4.81s-9.28-2.15-9.28-4.81,4.15-4.8,9.28-4.8S33.07,16.84,33.07,19.49Z"/><path class="cls-6" d="M33.07,18.09c0,2.65-4.15,4.8-9.27,4.8s-9.28-2.15-9.28-4.8,4.15-4.8,9.28-4.8,9.27,2.15,9.27,4.8"/><path class="cls-7" d="M33.07,18.09c0,2.65-4.15,4.8-9.27,4.8s-9.28-2.15-9.28-4.8,4.15-4.8,9.28-4.8S33.07,15.44,33.07,18.09Z"/><path class="cls-4" d="M15.75,18.15c0,.32.52.59,1.16.59s1.15-.27,1.15-.59V10.64H15.75Z"/><path class="cls-7" d="M15.75,18.15c0,.32.52.59,1.16.59s1.15-.27,1.15-.59V10.64H15.75Z"/><path class="cls-4" d="M22.48,21c0,.33.51.6,1.15.6s1.15-.27,1.15-.6V13.5h-2.3Z"/><path class="cls-7" d="M22.48,21c0,.33.51.6,1.15.6s1.15-.27,1.15-.6V13.5h-2.3Z"/><path class="cls-4" d="M31.51,18.15c0,.32-.52.59-1.15.59s-1.16-.27-1.16-.59V10.64h2.31Z"/><path class="cls-7" d="M31.51,18.15c0,.32-.52.59-1.15.59s-1.16-.27-1.16-.59V10.64h2.31Z"/><path class="cls-4" d="M28.76,20.52c0,.32-.52.59-1.15.59s-1.16-.27-1.16-.59V13h2.31Z"/><path class="cls-7" d="M28.76,20.52c0,.32-.52.59-1.15.59s-1.16-.27-1.16-.59V13h2.31Z"/><path class="cls-4" d="M21,20.52c0,.32-.52.59-1.15.59s-1.16-.27-1.16-.59V13H21Z"/><path class="cls-7" d="M21,20.52c0,.32-.52.59-1.15.59s-1.16-.27-1.16-.59V13H21Z"/><path class="cls-6" d="M18.06,10.64c0,.33-.52.6-1.15.6s-1.16-.27-1.16-.6.52-.6,1.16-.6,1.15.27,1.15.6"/><path class="cls-7" d="M18.06,10.64c0,.33-.52.6-1.15.6s-1.16-.27-1.16-.6.52-.6,1.16-.6S18.06,10.31,18.06,10.64Z"/><path class="cls-6" d="M33.07,12c0,2.24-4.15,4.06-9.27,4.06S14.52,14.24,14.52,12s4.15-4.06,9.28-4.06S33.07,9.76,33.07,12"/><path class="cls-7" d="M33.07,12c0,2.24-4.15,4.06-9.27,4.06S14.52,14.24,14.52,12s4.15-4.06,9.28-4.06S33.07,9.76,33.07,12Z"/><path class="cls-4" d="M23.8,3.3c-4.11,0-7.51,2.67-7.51,7.05,0,2.15,3.36,3.34,7.51,3.34s7.5-1.19,7.5-3.34c0-4.38-3.4-7-7.5-7"/><path class="cls-7" d="M23.8,3.3c-4.11,0-7.51,2.67-7.51,7.05,0,2.15,3.36,3.34,7.51,3.34s7.5-1.19,7.5-3.34C31.3,6,27.9,3.3,23.8,3.3Z"/><path class="cls-6" d="M24.92,3.67c0,.32-.5.58-1.12.58S22.67,4,22.67,3.67,23.8.25,23.8.25s1.12,3.09,1.12,3.42"/><path class="cls-7" d="M24.92,3.67c0,.32-.5.58-1.12.58S22.67,4,22.67,3.67,23.8.25,23.8.25,24.92,3.34,24.92,3.67Z"/></g></g></svg>