<svg xmlns="http://www.w3.org/2000/svg" viewBox="0 0 47.04 50.13"><defs><style>.cls-1{fill:#ebebeb;}.cls-2{fill:#deeaff;}.cls-3,.cls-6{fill:none;stroke-linejoin:round;stroke-width:0.5px;}.cls-3{stroke:#304d9d;}.cls-4{fill:#98b9ea;}.cls-5{fill:#fff;}.cls-6{stroke:#b6cd5b;}.cls-7{fill:#dfeab0;}.cls-8{fill:#c4d36c;}</style></defs><title>unified_communications</title><g id="Layer_2" data-name="Layer 2"><g id="Layer_1-2" data-name="Layer 1"><polygon class="cls-1" points="23.84 50.13 0.71 41.64 23.84 33.16 46.97 41.64 23.84 50.13"/><path class="cls-2" d="M26.32,13.91c2.95,1.72-3.5,13.59-7,12.62a23.32,23.32,0,0,1-4.76-1.88,4,4,0,0,1-2-3.79c0-3.42,2.77-7.27,6.19-8.6A5.29,5.29,0,0,1,22.3,12a22.18,22.18,0,0,1,4,1.9"/><path class="cls-3" d="M26.32,13.91c2.95,1.72-3.5,13.59-7,12.62a23.32,23.32,0,0,1-4.76-1.88,4,4,0,0,1-2-3.79c0-3.42,2.77-7.27,6.19-8.6A5.29,5.29,0,0,1,22.3,12,22.18,22.18,0,0,1,26.32,13.91Z"/><path class="cls-2" d="M26.05,34.53,14.76,41.64l-3.48-1.33,1.07-6.73c.6-3.77,2.82-7.43,6.32-8.8a4.83,4.83,0,0,1,3.76-.11,40.94,40.94,0,0,1,4.18,1.78Z"/><path class="cls-3" d="M26.05,34.53,14.76,41.64l-3.48-1.33,1.07-6.73c.6-3.77,2.82-7.43,6.32-8.8a4.83,4.83,0,0,1,3.76-.11,40.94,40.94,0,0,1,4.18,1.78Z"/><path class="cls-4" d="M28,17.48c0,3.41-2.77,7.27-6.18,8.6s-6.19-.35-6.19-3.76,2.77-7.27,6.19-8.61S28,14.06,28,17.48"/><path class="cls-3" d="M28,17.48c0,3.41-2.77,7.27-6.18,8.6s-6.19-.35-6.19-3.76,2.77-7.27,6.19-8.6S28,14.06,28,17.48Z"/><path class="cls-4" d="M29.52,35.86,14.76,41.64l1.06-6.73c.6-3.77,2.83-7.43,6.32-8.8s5.64.45,6.32,3.85Z"/><path class="cls-3" d="M29.52,35.86,14.76,41.64l1.06-6.73c.6-3.77,2.83-7.43,6.32-8.8s5.64.45,6.32,3.85Z"/><path class="cls-5" d="M36.2,20.78c2.22,1.3-2.63,10.23-5.29,9.5a17.87,17.87,0,0,1-3.57-1.42A3,3,0,0,1,25.79,26a7.62,7.62,0,0,1,4.65-6.47,4,4,0,0,1,2.74-.18,16.37,16.37,0,0,1,3,1.42"/><path class="cls-6" d="M36.2,20.78c2.22,1.3-2.63,10.23-5.29,9.5a17.87,17.87,0,0,1-3.57-1.42A3,3,0,0,1,25.79,26a7.62,7.62,0,0,1,4.65-6.47,4,4,0,0,1,2.74-.18A16.37,16.37,0,0,1,36.2,20.78Z"/><path class="cls-5" d="M36,36.3l-8.49,5.34-2.62-1,.8-5.06c.45-2.84,2.13-5.59,4.75-6.62a3.75,3.75,0,0,1,2.84-.09c1.13.48,2,.75,3.14,1.34Z"/><path class="cls-6" d="M36,36.3l-8.49,5.34-2.62-1,.8-5.06c.45-2.84,2.13-5.59,4.75-6.62a3.75,3.75,0,0,1,2.84-.09c1.13.48,2,.75,3.14,1.34Z"/><path class="cls-7" d="M37.46,23.47a7.62,7.62,0,0,1-4.65,6.47c-2.57,1-4.65-.26-4.65-2.83a7.61,7.61,0,0,1,4.65-6.47c2.57-1,4.65.26,4.65,2.83"/><path class="cls-6" d="M37.46,23.47a7.62,7.62,0,0,1-4.65,6.47c-2.57,1-4.65-.26-4.65-2.83a7.61,7.61,0,0,1,4.65-6.47C35.38,19.63,37.46,20.9,37.46,23.47Z"/><path class="cls-7" d="M38.61,37.3l-11.1,4.34.8-5.06c.45-2.84,2.12-5.59,4.75-6.62s4.24.34,4.75,2.9Z"/><path class="cls-6" d="M38.61,37.3l-11.1,4.34.8-5.06c.45-2.84,2.12-5.59,4.75-6.62s4.24.34,4.75,2.9Z"/><polygon class="cls-5" points="46.79 2.08 44.97 1.39 33.72 5.68 35.54 6.37 46.79 2.08"/><polygon class="cls-3" points="46.79 2.08 44.97 1.39 33.72 5.68 35.54 6.37 46.79 2.08"/><polygon class="cls-4" points="35.4 15.29 35.4 17.43 37.22 14.59 46.78 10.94 46.78 2.02 35.4 6.37 35.4 15.29"/><polyline class="cls-3" points="35.4 15.29 35.4 17.43 37.22 14.59 46.78 10.94 46.78 2.02 35.4 6.37 35.4 15.29"/><polyline class="cls-2" points="35.4 15.29 35.4 6.37 33.66 5.67 33.66 14.59 33.66 16.62 35.4 17.43 35.4 15.26"/><polyline class="cls-3" points="35.4 15.29 35.4 6.37 33.66 5.67 33.66 14.59 33.66 16.62 35.4 17.43 35.4 15.26"/><polygon class="cls-8" points="2.27 15.55 0.25 14.78 0.25 5.01 2.27 5.78 2.27 15.55"/><polygon class="cls-6" points="2.27 15.55 0.25 14.78 0.25 5.01 2.27 5.78 2.27 15.55"/><polygon class="cls-7" points="14.75 10.79 14.75 12.98 13.18 11.39 2.27 15.55 2.27 5.78 14.75 1.02 14.75 10.79"/><polyline class="cls-6" points="14.75 10.79 14.75 12.98 13.18 11.39 2.27 15.55 2.27 5.78 14.75 1.02 14.75 10.79"/><polygon class="cls-5" points="14.76 1.02 12.74 0.25 0.25 5.01 2.27 5.78 14.76 1.02"/><polygon class="cls-6" points="14.76 1.02 12.74 0.25 0.25 5.01 2.27 5.78 14.76 1.02"/></g></g></svg>