<svg xmlns="http://www.w3.org/2000/svg" viewBox="0 0 47.26 49.66"><defs><style>.cls-1,.cls-4,.cls-6{fill:none;stroke-linejoin:round;}.cls-1,.cls-4{stroke:#304d9d;}.cls-1{stroke-linecap:round;}.cls-2{fill:#ebebeb;}.cls-3{fill:#98b9ea;}.cls-4,.cls-6{stroke-width:0.5px;}.cls-5{fill:#c4d36c;}.cls-6{stroke:#b6cd5b;}.cls-7{fill:#dfeab0;}.cls-8{fill:#fff;}</style></defs><title>vdi_assurance</title><g id="Layer_2" data-name="Layer 2"><g id="Layer_1-2" data-name="Layer 1"><polygon class="cls-1" points="23.63 30.66 0.5 22.18 23.63 13.69 46.76 22.18 23.63 30.66"/><polygon class="cls-2" points="23.63 49.66 0.5 41.17 23.63 32.69 46.76 41.17 23.63 49.66"/><polygon class="cls-3" points="32.26 32 28.59 15.3 22.75 19.39 16.9 21.17 13.23 41.55 20.05 39.48 22.75 24.47 25.45 36.77 32.26 32"/><polygon class="cls-4" points="32.26 32 28.59 15.3 22.75 19.39 16.9 21.17 13.23 41.55 20.05 39.48 22.75 24.47 25.45 36.77 32.26 32"/><path class="cls-5" d="M27.86.81a9.26,9.26,0,0,0-6.61.1,14.52,14.52,0,0,0-9,14.78,8.61,8.61,0,0,0,5.07,7.11l2.46.89,10.41-22Z"/><path class="cls-6" d="M27.86.81a9.26,9.26,0,0,0-6.61.1,14.52,14.52,0,0,0-9,14.78,8.61,8.61,0,0,0,5.07,7.11l2.46.89,10.41-22Z"/><polygon class="cls-5" points="16.09 42.56 13.23 41.55 16.9 21.17 19.76 22.17 16.09 42.56"/><polygon class="cls-6" points="16.09 42.56 13.23 41.55 16.9 21.17 19.76 22.17 16.09 42.56"/><polygon class="cls-5" points="25.45 36.77 28.31 37.77 25.61 25.47 22.68 25.13 25.45 36.77"/><polygon class="cls-6" points="25.45 36.77 28.31 37.77 25.61 25.47 22.68 25.13 25.45 36.77"/><polygon class="cls-7" points="33.96 33.73 30.29 17.03 25.61 20.39 19.76 22.17 16.09 42.56 22.9 40.48 25.61 25.47 28.31 37.77 33.96 33.73"/><polygon class="cls-6" points="33.96 33.73 30.29 17.03 25.61 20.39 19.76 22.17 16.09 42.56 22.9 40.48 25.61 25.47 28.31 37.77 33.96 33.73"/><path class="cls-7" d="M23.15,1.58a14.52,14.52,0,0,0-9,14.78c.79,6,6.1,9.21,11.86,7.08A14.52,14.52,0,0,0,35,8.66c-.79-6-6.1-9.21-11.86-7.08"/><path class="cls-6" d="M23.15,1.58a14.52,14.52,0,0,0-9,14.78c.79,6,6.1,9.21,11.86,7.08A14.52,14.52,0,0,0,35,8.66C34.22,2.62,28.91-.55,23.15,1.58Z"/><path class="cls-8" d="M23.6,5a10,10,0,0,0-6.16,10.13A5.78,5.78,0,0,0,25.56,20,9.93,9.93,0,0,0,31.72,9.87,5.78,5.78,0,0,0,23.6,5"/><path class="cls-6" d="M23.6,5a10,10,0,0,0-6.16,10.13A5.78,5.78,0,0,0,25.56,20,9.93,9.93,0,0,0,31.72,9.87,5.78,5.78,0,0,0,23.6,5Z"/><path class="cls-3" d="M26.58,7.58l.23-.29c.5-.62,1.13-.22.9.56l-.11.38c-.16.55.12,1,.54.84l.29-.1c.6-.21.81.69.3,1.28l-.25.28c-.36.42-.39,1.07-.05,1.26l.23.14c.48.27.18,1.34-.42,1.5l-.29.08a1.09,1.09,0,0,0-.62,1.21l.08.31c.17.66-.52,1.47-1,1.16L26.22,16c-.32-.22-.82.14-1,.69l-.1.38c-.2.78-1,1-1.16.36l-.06-.33c-.1-.47-.58-.52-.93-.09l-.24.3c-.5.61-1.13.21-.9-.57l.11-.38c.16-.55-.12-1-.54-.84l-.29.1c-.6.21-.81-.69-.3-1.28l.25-.28c.36-.41.39-1.07,0-1.26l-.23-.14c-.48-.27-.18-1.34.42-1.5l.29-.08a1.09,1.09,0,0,0,.63-1.21l-.09-.31c-.17-.66.52-1.47,1-1.16l.22.16c.33.22.82-.14,1-.69l.09-.38c.2-.78,1-1,1.16-.36l.07.33c.09.48.57.52.93.09"/><polygon class="cls-8" points="24.05 14.22 22.8 13.31 23.26 12.73 24.05 13.3 26.32 10.4 26.78 10.74 24.05 14.22"/><polyline class="cls-1" points="46.76 22.18 23.63 30.66 0.5 22.18"/></g></g></svg>