<svg xmlns="http://www.w3.org/2000/svg" viewBox="0 0 46.26 44.59"><defs><style>.cls-1{fill:#ebebeb;}.cls-2{fill:#deeaff;}.cls-3{fill:none;stroke:#304d9d;stroke-linejoin:round;stroke-width:0.5px;}.cls-4{fill:#fff;}.cls-5{fill:#98b9ea;}</style></defs><title>animation</title><g id="Layer_2" data-name="Layer 2"><g id="Layer_1-2" data-name="Layer 1"><polygon class="cls-1" points="23.13 44.59 0 36.11 23.13 27.63 46.26 36.11 23.13 44.59"/><polygon class="cls-2" points="10.5 36.19 7.4 35.31 7.4 11.74 10.5 12.62 10.5 36.19"/><polygon class="cls-3" points="10.5 36.19 7.4 35.31 7.4 11.74 10.5 12.62 10.5 36.19"/><polygon class="cls-4" points="40.63 1.13 37.52 0.25 7.4 11.74 10.5 12.62 40.63 1.13"/><polygon class="cls-3" points="40.63 1.13 37.52 0.25 7.4 11.74 10.5 12.62 40.63 1.13"/><polygon class="cls-5" points="10.5 36.19 40.6 24.69 40.6 1.12 10.5 12.62 10.5 36.19"/><polygon class="cls-3" points="10.5 36.19 40.6 24.69 40.6 1.12 10.5 12.62 10.5 36.19"/><polygon class="cls-2" points="23.73 24.97 33.84 15.64 23.73 14.36 23.73 24.97"/><polygon class="cls-3" points="23.73 24.97 33.84 15.64 23.73 14.36 23.73 24.97"/><polygon class="cls-5" points="33.84 15.64 31.5 14.63 21.39 13.35 23.73 14.36 33.84 15.64"/><polygon class="cls-3" points="33.84 15.64 31.5 14.63 21.39 13.35 23.73 14.36 33.84 15.64"/><polygon class="cls-4" points="23.73 24.97 21.39 23.96 21.39 13.35 23.73 14.36 23.73 24.97"/><polygon class="cls-3" points="23.73 24.97 21.39 23.96 21.39 13.35 23.73 14.36 23.73 24.97"/></g></g></svg>