<svg xmlns="http://www.w3.org/2000/svg" viewBox="0 0 49.63 48.7"><defs><style>.cls-1{fill:#ebebeb;}.cls-2{fill:#deeaff;}.cls-3,.cls-7,.cls-8{fill:none;stroke-linejoin:round;}.cls-3,.cls-7{stroke:#304d9d;}.cls-3,.cls-8{stroke-width:0.5px;}.cls-4{fill:#fff;}.cls-5{fill:#98b9ea;}.cls-6{fill:#b6cd5b;}.cls-7{stroke-linecap:round;}.cls-8{stroke:#b6cd5b;}</style></defs><title>virtualizatio_and_cloud</title><g id="Layer_2" data-name="Layer 2"><g id="Layer_1-2" data-name="Layer 1"><polygon class="cls-1" points="24.81 48.7 1.69 40.22 24.81 31.74 47.94 40.22 24.81 48.7"/><polygon class="cls-2" points="0.5 32.71 24.81 41.63 24.81 36.11 0.5 27.19 0.5 32.71"/><polygon class="cls-3" points="0.5 32.71 24.81 41.63 24.81 36.11 0.5 27.19 0.5 32.71"/><polygon class="cls-4" points="49.13 32.71 24.81 41.63 24.81 36.11 49.13 27.19 49.13 32.71"/><polygon class="cls-3" points="49.13 32.71 24.81 41.63 24.81 36.11 49.13 27.19 49.13 32.71"/><polygon class="cls-5" points="24.81 36.11 0.5 27.19 24.81 18.27 49.13 27.19 24.81 36.11"/><polygon class="cls-3" points="24.81 36.11 0.5 27.19 24.81 18.27 49.13 27.19 24.81 36.11"/><path class="cls-6" d="M29.14,37.39a2.13,2.13,0,0,1-1.4,1.87,1,1,0,0,1-1.41-.95,2.12,2.12,0,0,1,1.41-1.86,1,1,0,0,1,1.4.94"/><path class="cls-6" d="M33.15,35.91a2.13,2.13,0,0,1-1.4,1.87,1,1,0,0,1-1.41-1A2.12,2.12,0,0,1,31.75,35a1,1,0,0,1,1.4.94"/><line class="cls-7" x1="0.5" y1="19.71" x2="0.5" y2="25.31"/><line class="cls-7" x1="49.13" y1="19.71" x2="49.13" y2="25.31"/><line class="cls-7" x1="24.41" y1="28.21" x2="24.41" y2="33.81"/><path class="cls-8" d="M44.76,9.29,21.3.82A7.53,7.53,0,0,0,16.12.63,11.43,11.43,0,0,0,9.5,8.74a5.1,5.1,0,0,0-4.22,0C2.2,10,.5,14.23.5,17.3l23.74,8.61"/><path class="cls-8" d="M39.14,20.36l10-3.71c0-5-4.15-9.32-9.27-7.41a11.44,11.44,0,0,0-6.62,8.1,5.11,5.11,0,0,0-4.22,0c-3.08,1.27-4.78,5.47-4.78,8.55l5.52-2.06Z"/><line class="cls-8" x1="9.5" y1="8.74" x2="33.24" y2="17.34"/></g></g></svg>