<svg xmlns="http://www.w3.org/2000/svg" viewBox="0 0 49.63 50.09"><defs><style>.cls-1{fill:#ebebeb;}.cls-2{fill:#deeaff;}.cls-3,.cls-7,.cls-8{fill:none;stroke-linejoin:round;}.cls-3,.cls-8{stroke:#304d9d;}.cls-3,.cls-7{stroke-width:0.5px;}.cls-4{fill:#fff;}.cls-5{fill:#98b9ea;}.cls-6{fill:#b6cd5b;}.cls-7{stroke:#b6cd5b;}.cls-8{stroke-linecap:round;}</style></defs><title>virtualization</title><g id="Layer_2" data-name="Layer 2"><g id="Layer_1-2" data-name="Layer 1"><polygon class="cls-1" points="24.81 50.09 1.69 41.61 24.81 33.13 47.94 41.61 24.81 50.09"/><polygon class="cls-2" points="0.5 34.1 24.81 43.02 24.81 37.5 0.5 28.58 0.5 34.1"/><polygon class="cls-3" points="0.5 34.1 24.81 43.02 24.81 37.5 0.5 28.58 0.5 34.1"/><polygon class="cls-4" points="49.13 34.1 24.81 43.02 24.81 37.5 49.13 28.58 49.13 34.1"/><polygon class="cls-3" points="49.13 34.1 24.81 43.02 24.81 37.5 49.13 28.58 49.13 34.1"/><polygon class="cls-5" points="24.81 37.5 0.5 28.58 24.81 19.66 49.13 28.58 24.81 37.5"/><polygon class="cls-3" points="24.81 37.5 0.5 28.58 24.81 19.66 49.13 28.58 24.81 37.5"/><path class="cls-6" d="M29.14,38.78a2.13,2.13,0,0,1-1.4,1.87,1,1,0,0,1-1.41-.95,2.12,2.12,0,0,1,1.41-1.86,1,1,0,0,1,1.4.94"/><path class="cls-6" d="M33.15,37.3a2.13,2.13,0,0,1-1.4,1.87,1,1,0,0,1-1.41-1,2.12,2.12,0,0,1,1.41-1.86,1,1,0,0,1,1.4.94"/><polygon class="cls-7" points="0.5 14.69 24.81 23.6 24.81 18.08 0.5 9.17 0.5 14.69"/><polygon class="cls-7" points="49.13 14.69 24.81 23.6 24.81 18.08 49.13 9.17 49.13 14.69"/><polygon class="cls-7" points="24.81 18.08 0.5 9.17 24.81 0.25 49.13 9.17 24.81 18.08"/><line class="cls-8" x1="49.13" y1="17.08" x2="49.13" y2="26.28"/><line class="cls-8" x1="0.5" y1="17.08" x2="0.5" y2="26.28"/><line class="cls-8" x1="24.81" y1="25.45" x2="24.81" y2="34.65"/></g></g></svg>