<svg xmlns="http://www.w3.org/2000/svg" viewBox="0 0 46.26 50.27"><defs><style>.cls-1{fill:#ebebeb;}.cls-2{fill:#deeaff;}.cls-3{fill:none;stroke:#304d9d;stroke-linejoin:round;stroke-width:0.5px;}.cls-4{fill:#98b9ea;}.cls-5{fill:#fff;}.cls-6{fill:#dfeab0;}</style></defs><title>virtual_desktop_infrastructure</title><g id="Layer_2" data-name="Layer 2"><g id="Layer_1-2" data-name="Layer 1"><polygon class="cls-1" points="23.13 50.27 0 41.79 23.13 33.31 46.26 41.79 23.13 50.27"/><path class="cls-2" d="M38.87,29.3,23.34,23.62a7.35,7.35,0,0,0-5-.18,11.12,11.12,0,0,0-6.43,7.87,4.92,4.92,0,0,0-4.09,0c-3,1.23-4.64,5.31-4.64,8.29L19,45.42"/><path class="cls-3" d="M38.87,29.3,23.34,23.62a7.35,7.35,0,0,0-5-.18,11.12,11.12,0,0,0-6.43,7.87,4.92,4.92,0,0,0-4.09,0c-3,1.23-4.64,5.31-4.64,8.29L19,45.42"/><path class="cls-4" d="M33.42,40l9.69-3.6c0-4.88-4-9-9-7.19a11.09,11.09,0,0,0-6.42,7.86,5,5,0,0,0-4.09,0c-3,1.24-4.65,5.31-4.65,8.29l5.37-2Z"/><path class="cls-3" d="M33.42,40l9.69-3.6c0-4.88-4-9-9-7.19a11.09,11.09,0,0,0-6.42,7.86,5,5,0,0,0-4.09,0c-3,1.24-4.65,5.31-4.65,8.29l5.37-2Z"/><line class="cls-2" x1="11.88" y1="31.31" x2="27.69" y2="37.11"/><line class="cls-3" x1="11.88" y1="31.31" x2="27.69" y2="37.11"/><polygon class="cls-5" points="35.02 21.79 21.15 16.61 4.49 22.72 18.37 27.9 35.02 21.79"/><polygon class="cls-3" points="35.02 21.79 21.15 16.61 4.49 22.72 18.37 27.9 35.02 21.79"/><polygon class="cls-6" points="22.28 18.47 20.81 17.98 8.19 22.61 9.65 23.1 22.28 18.47"/><polygon class="cls-6" points="25.15 19.41 23.69 18.91 11.06 23.55 12.52 24.04 25.15 19.41"/><polygon class="cls-6" points="28.03 20.34 26.56 19.85 13.94 24.48 15.4 24.97 28.03 20.34"/><polygon class="cls-2" points="18.37 27.9 18.37 29.83 35.02 23.72 35.02 21.79 18.37 27.9"/><polygon class="cls-3" points="18.37 27.9 18.37 29.83 35.02 23.72 35.02 21.79 18.37 27.9"/><polygon class="cls-2" points="18.37 27.9 18.37 29.83 4.49 24.65 4.49 22.72 18.37 27.9"/><polygon class="cls-3" points="18.37 27.9 18.37 29.83 4.49 24.65 4.49 22.72 18.37 27.9"/><polygon class="cls-2" points="18.51 0.69 17.45 0.69 0.79 6.79 1.85 6.79 18.51 0.69"/><polygon class="cls-3" points="18.51 0.69 17.45 0.69 0.79 6.79 1.85 6.79 18.51 0.69"/><polygon class="cls-5" points="1.85 6.79 4.41 22.65 21.06 16.54 18.51 0.69 1.85 6.79"/><polygon class="cls-3" points="1.85 6.79 4.41 22.65 21.06 16.54 18.51 0.69 1.85 6.79"/><polygon class="cls-6" points="3.59 7.67 5.68 20.67 19.33 15.66 17.24 2.67 3.59 7.67"/><polygon class="cls-2" points="1.85 6.79 4.41 22.65 3.2 22.65 0.79 6.79 1.85 6.79"/><polygon class="cls-3" points="1.85 6.79 4.41 22.65 3.2 22.65 0.79 6.79 1.85 6.79"/><polygon class="cls-2" points="24.56 20.37 23.16 19.85 23.16 8.05 24.56 8.57 24.56 20.37"/><polygon class="cls-3" points="24.56 20.37 23.16 19.85 23.16 8.05 24.56 8.57 24.56 20.37"/><path class="cls-5" d="M42.7.73l.63.12A3.7,3.7,0,0,0,41.07.3L23.92,6.94l1.4.52Z"/><path class="cls-3" d="M42.7.73l.63.12A3.7,3.7,0,0,0,41.07.3L23.92,6.94l1.4.52Z"/><path class="cls-4" d="M23.16,19.85A1.19,1.19,0,0,0,24,21c.24.06,1,.34,1.49.47l-1-1.1Z"/><path class="cls-3" d="M23.16,19.85A1.19,1.19,0,0,0,24,21c.24.07,1,.34,1.49.47l-1-1.1Z"/><path class="cls-5" d="M24.56,8.59V20.31a1.18,1.18,0,0,0,1.62,1.1l17.06-6.74a1.19,1.19,0,0,0,.75-1.1V1.93A1.18,1.18,0,0,0,42.37.83l-17,6.65a1.19,1.19,0,0,0-.76,1.11"/><path class="cls-3" d="M24.56,8.59V20.31a1.18,1.18,0,0,0,1.62,1.1l17.06-6.74a1.19,1.19,0,0,0,.75-1.1V1.93A1.18,1.18,0,0,0,42.37.83l-17,6.65A1.19,1.19,0,0,0,24.56,8.59Z"/><path class="cls-2" d="M23.16,8a1.17,1.17,0,0,1,.76-1.1l1.39.55a1.2,1.2,0,0,0-.75,1.11Z"/><path class="cls-3" d="M23.16,8a1.17,1.17,0,0,1,.76-1.1l1.39.55a1.2,1.2,0,0,0-.75,1.11Z"/><polygon class="cls-6" points="27.22 7.72 27.21 19.99 41.69 14.28 41.7 2.1 27.22 7.72"/></g></g></svg>