<svg xmlns="http://www.w3.org/2000/svg" viewBox="0 0 46.51 48.07"><defs><style>.cls-1{fill:#ebebeb;}.cls-2{fill:#deeaff;}.cls-3,.cls-4,.cls-6{fill:none;stroke-linejoin:round;stroke-width:0.5px;}.cls-3,.cls-4{stroke:#304d9d;}.cls-4{stroke-linecap:round;}.cls-5{fill:#dfeab0;}.cls-6{stroke:#b6cd5b;}.cls-7{fill:#fff;}.cls-8{fill:#c4d36c;}</style></defs><title>visio_stencils</title><g id="Layer_2" data-name="Layer 2"><g id="Layer_1-2" data-name="Layer 1"><polygon class="cls-1" points="23.38 48.07 0.25 39.59 23.38 31.11 46.51 39.59 23.38 48.07"/><polygon class="cls-2" points="0.25 34.46 33.62 22.45 33.62 0.25 0.25 12.26 0.25 34.46"/><polygon class="cls-3" points="0.25 34.46 33.62 22.45 33.62 0.25 0.25 12.26 0.25 34.46"/><polygon class="cls-2" points="27.48 21.13 21.73 23.18 21.73 16.32 27.48 14.27 27.48 21.13"/><polygon class="cls-3" points="27.48 21.13 21.73 23.18 21.73 16.32 27.48 14.27 27.48 21.13"/><polygon class="cls-2" points="18.74 24.34 12.98 26.38 12.98 19.52 18.74 17.48 18.74 24.34"/><polygon class="cls-3" points="18.74 24.34 12.98 26.38 12.98 19.52 18.74 17.48 18.74 24.34"/><polygon class="cls-2" points="22.94 15.93 17.19 17.98 17.19 11.12 22.94 9.07 22.94 15.93"/><polygon class="cls-3" points="22.94 15.93 17.19 17.98 17.19 11.12 22.94 9.07 22.94 15.93"/><line class="cls-2" x1="8.78" y1="28.79" x2="8.78" y2="14.59"/><line class="cls-4" x1="8.78" y1="28.79" x2="8.78" y2="14.59"/><line class="cls-2" x1="10.98" y1="10.66" x2="27.79" y2="4.68"/><line class="cls-4" x1="10.98" y1="10.66" x2="27.79" y2="4.68"/><line class="cls-2" x1="4.98" y1="16.06" x2="7.24" y2="15.25"/><line class="cls-4" x1="4.98" y1="16.06" x2="7.24" y2="15.25"/><line class="cls-2" x1="4.98" y1="17.98" x2="7.24" y2="17.18"/><line class="cls-4" x1="4.98" y1="17.98" x2="7.24" y2="17.18"/><line class="cls-2" x1="4.98" y1="19.91" x2="7.24" y2="19.1"/><line class="cls-4" x1="4.98" y1="19.91" x2="7.24" y2="19.1"/><line class="cls-2" x1="4.98" y1="21.83" x2="7.24" y2="21.03"/><line class="cls-4" x1="4.98" y1="21.83" x2="7.24" y2="21.03"/><line class="cls-2" x1="4.98" y1="23.76" x2="7.24" y2="22.95"/><line class="cls-4" x1="4.98" y1="23.76" x2="7.24" y2="22.95"/><line class="cls-2" x1="4.98" y1="25.68" x2="7.24" y2="24.88"/><line class="cls-4" x1="4.98" y1="25.68" x2="7.24" y2="24.88"/><line class="cls-2" x1="4.98" y1="27.61" x2="7.24" y2="26.81"/><line class="cls-4" x1="4.98" y1="27.61" x2="7.24" y2="26.81"/><line class="cls-2" x1="4.98" y1="29.53" x2="7.24" y2="28.73"/><line class="cls-4" x1="4.98" y1="29.53" x2="7.24" y2="28.73"/><polygon class="cls-5" points="29.92 34.09 37.31 36.81 37.31 28 29.92 25.28 29.92 34.09"/><polygon class="cls-6" points="29.92 34.09 37.31 36.81 37.31 28 29.92 25.28 29.92 34.09"/><polygon class="cls-7" points="44.71 34.19 37.31 36.81 37.31 28 44.71 25.37 44.71 34.19"/><polygon class="cls-6" points="44.71 34.19 37.31 36.81 37.31 28 44.71 25.37 44.71 34.19"/><polygon class="cls-8" points="37.31 28 29.92 25.28 37.31 22.65 44.71 25.38 37.31 28"/><polygon class="cls-6" points="37.31 28 29.92 25.28 37.31 22.65 44.71 25.38 37.31 28"/><polygon class="cls-5" points="18.69 38.21 26.08 40.94 26.08 32.12 18.69 29.4 18.69 38.21"/><polygon class="cls-6" points="18.69 38.21 26.08 40.94 26.08 32.12 18.69 29.4 18.69 38.21"/><polygon class="cls-7" points="33.48 38.31 26.08 40.94 26.08 32.12 33.48 29.49 33.48 38.31"/><polygon class="cls-6" points="33.48 38.31 26.08 40.94 26.08 32.12 33.48 29.49 33.48 38.31"/><polygon class="cls-8" points="26.08 32.12 18.69 29.4 26.08 26.77 33.48 29.49 26.08 32.12"/><polygon class="cls-6" points="26.08 32.12 18.69 29.4 26.08 26.77 33.48 29.49 26.08 32.12"/><polygon class="cls-5" points="24.09 27.42 31.48 30.14 31.48 21.33 24.09 18.61 24.09 27.42"/><polygon class="cls-6" points="24.09 27.42 31.48 30.14 31.48 21.33 24.09 18.61 24.09 27.42"/><polygon class="cls-7" points="38.88 27.51 31.48 30.14 31.48 21.33 38.88 18.7 38.88 27.51"/><polygon class="cls-6" points="38.88 27.51 31.48 30.14 31.48 21.33 38.88 18.7 38.88 27.51"/><polygon class="cls-8" points="31.48 21.33 24.09 18.61 31.48 15.98 38.88 18.7 31.48 21.33"/><polygon class="cls-6" points="31.48 21.33 24.09 18.61 31.48 15.98 38.88 18.7 31.48 21.33"/></g></g></svg>