<svg xmlns="http://www.w3.org/2000/svg" viewBox="0 0 47.91 49.26"><defs><style>.cls-1{fill:#ebebeb;}.cls-2{fill:#deeaff;}.cls-3,.cls-6{fill:none;stroke-linejoin:round;stroke-width:0.5px;}.cls-3{stroke:#304d9d;}.cls-4{fill:#98b9ea;}.cls-5{fill:#fff;}.cls-6{stroke:#b6cd5b;}.cls-7{fill:#dfeab0;}.cls-8{fill:#c4d36c;}</style></defs><title>webminar</title><g id="Layer_2" data-name="Layer 2"><g id="Layer_1-2" data-name="Layer 1"><polygon class="cls-1" points="23.13 49.26 0 40.78 23.13 32.29 46.26 40.78 23.13 49.26"/><polygon class="cls-2" points="4.02 45.72 1.87 44.9 1.87 21.33 4.02 22.15 4.02 45.72"/><polygon class="cls-3" points="4.02 45.72 1.87 44.9 1.87 21.33 4.02 22.15 4.02 45.72"/><polygon class="cls-4" points="34.74 9.96 32.59 9.13 1.87 21.33 4.02 22.15 34.74 9.96"/><polygon class="cls-3" points="34.74 9.96 32.59 9.13 1.87 21.33 4.02 22.15 34.74 9.96"/><polygon class="cls-5" points="4.02 45.72 34.73 33.52 34.73 9.95 4.02 22.15 4.02 45.72"/><polygon class="cls-3" points="4.02 45.72 34.73 33.52 34.73 9.95 4.02 22.15 4.02 45.72"/><polygon class="cls-2" points="4.02 20.99 1.87 20.17 1.87 17.37 4.02 18.19 4.02 20.99"/><polygon class="cls-3" points="4.02 20.99 1.87 20.17 1.87 17.37 4.02 18.19 4.02 20.99"/><polygon class="cls-4" points="34.74 5.99 32.59 5.17 1.87 17.37 4.02 18.19 34.74 5.99"/><polygon class="cls-3" points="34.74 5.99 32.59 5.17 1.87 17.37 4.02 18.19 34.74 5.99"/><polygon class="cls-5" points="4.02 20.99 34.73 8.79 34.73 5.99 4.02 18.19 4.02 20.99"/><polygon class="cls-3" points="4.02 20.99 34.73 8.79 34.73 5.99 4.02 18.19 4.02 20.99"/><path class="cls-4" d="M25.28,22.27a7.39,7.39,0,0,1-4.52,6.28c-2.49,1-4.52-.25-4.52-2.75a7.43,7.43,0,0,1,4.52-6.29c2.5-1,4.52.26,4.52,2.76"/><path class="cls-4" d="M26.16,37,15.37,41.18l.77-4.92c.44-2.76,2.07-5.43,4.62-6.43s4.12.33,4.62,2.81Z"/><path class="cls-5" d="M46.27,1.57l-17,15.58L26.3,16a3.2,3.2,0,0,1-1.51-3.1c0-4.6,4.66-8.33,10.41-10.85C38.74.52,41.87-.2,43.75.54c1.18.47,2.52,1,2.52,1"/><path class="cls-6" d="M46.27,1.57l-17,15.58L26.3,16a3.2,3.2,0,0,1-1.51-3.1c0-4.6,4.66-8.33,10.41-10.85C38.74.52,41.87-.2,43.75.54c1.18.47,2.52,1,2.52,1"/><path class="cls-5" d="M29.4,21.52l-2-.79s2-2.12,2-4.3,2-1.15,2,.79a6.52,6.52,0,0,1-2,4.3"/><path class="cls-6" d="M29.4,21.52l-2-.79s2-2.12,2-4.3,2-1.15,2,.79A6.52,6.52,0,0,1,29.4,21.52Z"/><path class="cls-7" d="M37.24,2.87C31.49,5.39,26.83,9.12,26.83,13.72c0,2.86,1.8,3.8,4.54,3.5a8.14,8.14,0,0,1-2,4.3l.35.35A12.89,12.89,0,0,0,35.88,16c.45-.18.9-.36,1.36-.56C43,12.92,47.66,9.16,47.66,4.59S43,.35,37.24,2.87"/><path class="cls-6" d="M37.24,2.87C31.49,5.39,26.83,9.12,26.83,13.72c0,2.86,1.8,3.8,4.54,3.5a8.14,8.14,0,0,1-2,4.3l.35.35A12.89,12.89,0,0,0,35.88,16c.45-.18.9-.36,1.36-.56C43,12.92,47.66,9.16,47.66,4.59S43,.35,37.24,2.87Z"/><path class="cls-8" d="M33.63,10.64a3.29,3.29,0,0,1-1.84,2.78A1.2,1.2,0,0,1,30,12.25a3.3,3.3,0,0,1,1.83-2.78,1.2,1.2,0,0,1,1.84,1.17"/><path class="cls-8" d="M39.32,8.15a3.32,3.32,0,0,1-1.84,2.78,1.21,1.21,0,0,1-1.84-1.17A3.33,3.33,0,0,1,37.48,7a1.21,1.21,0,0,1,1.84,1.18"/><path class="cls-8" d="M45,5.65a3.32,3.32,0,0,1-1.83,2.79,1.21,1.21,0,0,1-1.84-1.18,3.29,3.29,0,0,1,1.84-2.78A1.2,1.2,0,0,1,45,5.65"/><polygon class="cls-7" points="29.75 21.87 29.4 21.52 27.36 20.73 27.71 21.08 29.75 21.87"/><polygon class="cls-6" points="29.75 21.87 29.4 21.52 27.36 20.73 27.71 21.08 29.75 21.87"/></g></g></svg>