<svg xmlns="http://www.w3.org/2000/svg" viewBox="0 0 46.81 49.82"><defs><style>.cls-1{fill:#ebebeb;}.cls-2{fill:#deeaff;}.cls-3,.cls-6{fill:none;stroke:#304d9d;stroke-linejoin:round;stroke-width:0.5px;}.cls-4{fill:#98b9ea;}.cls-5{fill:#fff;}.cls-6{stroke-linecap:round;}.cls-7{fill:#dfeab0;}.cls-8{fill:#c4d36c;}</style></defs><title>white_papers_and _ebooks</title><g id="Layer_2" data-name="Layer 2"><g id="Layer_1-2" data-name="Layer 1"><polygon class="cls-1" points="23.64 49.82 0.51 41.34 23.64 32.85 46.77 41.34 23.64 49.82"/><polygon class="cls-2" points="25.83 44.28 0.25 33.97 0.25 27.42 25.83 37.73 25.83 44.28"/><polygon class="cls-3" points="25.83 44.28 0.25 33.97 0.25 27.42 25.83 37.73 25.83 44.28"/><polygon class="cls-4" points="46.56 29.82 20.98 19.51 0.25 27.42 25.83 37.73 46.56 29.82"/><polygon class="cls-3" points="46.56 29.82 20.98 19.51 0.25 27.42 25.83 37.73 46.56 29.82"/><path class="cls-5" d="M46.56,26.94a10,10,0,0,1-7,0L21,19.51.25,27.42,19.08,35a7.81,7.81,0,0,0,6.75-.15Z"/><path class="cls-3" d="M46.56,26.94a10,10,0,0,1-7,0L21,19.51.25,27.42,19.08,35a7.81,7.81,0,0,0,6.75-.15Z"/><polygon class="cls-4" points="23.5 22.69 21.62 21.93 6.41 27.74 8.28 28.5 23.5 22.69"/><polygon class="cls-4" points="27.21 24.22 25.34 23.45 10.12 29.26 11.99 30.03 27.21 24.22"/><polygon class="cls-4" points="30.92 25.75 29.05 24.98 13.83 30.79 15.71 31.56 30.92 25.75"/><polygon class="cls-4" points="34.64 27.27 32.76 26.51 17.54 32.32 19.42 33.08 34.64 27.27"/><polygon class="cls-5" points="25.83 44.28 46.54 36.36 46.54 29.81 25.83 37.73 25.83 44.28"/><polygon class="cls-3" points="25.83 44.28 46.54 36.36 46.54 29.81 25.83 37.73 25.83 44.28"/><line class="cls-5" x1="26.06" y1="42.39" x2="38.94" y2="37.47"/><line class="cls-6" x1="26.06" y1="42.39" x2="38.94" y2="37.47"/><line class="cls-5" x1="25.83" y1="40.92" x2="35.22" y2="37.33"/><line class="cls-6" x1="25.83" y1="40.92" x2="35.22" y2="37.33"/><line class="cls-5" x1="25.83" y1="39.36" x2="31.51" y2="37.19"/><line class="cls-6" x1="25.83" y1="39.36" x2="31.51" y2="37.19"/><polygon class="cls-2" points="11.48 25.66 9.72 25 9.72 10.1 11.48 10.76 11.48 25.66"/><polygon class="cls-3" points="11.48 25.66 9.72 25 9.72 10.1 11.48 10.76 11.48 25.66"/><path class="cls-5" d="M34.39.85l.79.16a4.67,4.67,0,0,0-2.85-.7L10.68,8.7l1.76.65Z"/><path class="cls-3" d="M34.39.85l.79.16a4.67,4.67,0,0,0-2.85-.7L10.68,8.7l1.76.65Z"/><path class="cls-4" d="M9.72,25a1.5,1.5,0,0,0,1.1,1.45c.3.08,1.26.43,1.87.6l-1.21-1.39Z"/><path class="cls-3" d="M9.72,25a1.5,1.5,0,0,0,1.1,1.45c.3.08,1.26.43,1.87.6l-1.21-1.39Z"/><path class="cls-5" d="M11.48,10.78v14.8a1.5,1.5,0,0,0,2,1.39l21.54-8.51a1.5,1.5,0,0,0,1-1.4V2.38A1.5,1.5,0,0,0,34,1L12.44,9.38a1.5,1.5,0,0,0-1,1.4"/><path class="cls-3" d="M11.48,10.78v14.8a1.5,1.5,0,0,0,2,1.39l21.54-8.51a1.5,1.5,0,0,0,1-1.4V2.38A1.5,1.5,0,0,0,34,1L12.44,9.38A1.5,1.5,0,0,0,11.48,10.78Z"/><path class="cls-2" d="M9.72,10.08a1.5,1.5,0,0,1,1-1.4l1.76.7a1.5,1.5,0,0,0-1,1.4Z"/><path class="cls-3" d="M9.72,10.08a1.5,1.5,0,0,1,1-1.4l1.76.7a1.5,1.5,0,0,0-1,1.4Z"/><polygon class="cls-7" points="14.84 9.68 14.83 25.18 33.11 17.96 33.13 2.58 14.84 9.68"/><polygon class="cls-8" points="16.43 10.41 16.42 12.2 31.53 6.23 31.53 4.55 16.43 10.41"/><polygon class="cls-8" points="16.43 13.87 16.42 15.65 31.53 9.69 31.53 8.01 16.43 13.87"/><polygon class="cls-8" points="16.43 17.32 16.42 19.11 31.53 13.15 31.53 11.46 16.43 17.32"/><polygon class="cls-8" points="16.43 20.95 16.42 22.74 31.53 16.77 31.53 15.09 16.43 20.95"/></g></g></svg>