<svg xmlns="http://www.w3.org/2000/svg" viewBox="0 0 46.26 49.4"><defs><style>.cls-1{fill:#ebebeb;}.cls-2{fill:#deeaff;}.cls-3,.cls-6{fill:none;stroke-linejoin:round;stroke-width:0.5px;}.cls-3{stroke:#304d9d;}.cls-4{fill:#fff;}.cls-5{fill:#dfeab0;}.cls-6{stroke:#b6cd5b;}.cls-7{fill:#c4d36c;}.cls-8{fill:#98b9ea;}</style></defs><title>x-rays</title><g id="Layer_2" data-name="Layer 2"><g id="Layer_1-2" data-name="Layer 1"><polygon class="cls-1" points="23.13 49.4 0 40.92 23.13 32.44 46.26 40.92 23.13 49.4"/><polygon class="cls-2" points="15.56 41.15 23.13 43.92 23.13 28.2 15.56 25.43 15.56 41.15"/><polygon class="cls-3" points="15.56 41.15 23.13 43.92 23.13 28.2 15.56 25.43 15.56 41.15"/><polygon class="cls-4" points="30.7 41.15 23.13 43.92 23.13 28.2 30.7 25.43 30.7 41.15"/><polygon class="cls-3" points="30.7 41.15 23.13 43.92 23.13 28.2 30.7 25.43 30.7 41.15"/><polygon class="cls-5" points="23.13 32.61 7.14 26.75 23.13 20.88 39.12 26.75 23.13 32.61"/><polygon class="cls-6" points="23.13 32.61 7.14 26.75 23.13 20.88 39.12 26.75 23.13 32.61"/><polygon class="cls-7" points="20.23 26.92 23.13 27.99 23.13 17.11 20.23 16.05 20.23 26.92"/><polygon class="cls-6" points="20.23 26.92 23.13 27.99 23.13 17.11 20.23 16.05 20.23 26.92"/><polygon class="cls-4" points="26.04 26.92 23.13 27.99 23.13 17.11 26.04 16.05 26.04 26.92"/><polygon class="cls-6" points="26.04 26.92 23.13 27.99 23.13 17.11 26.04 16.05 26.04 26.92"/><polygon class="cls-5" points="23.14 20.98 7.14 15.13 23.12 9.25 39.12 15.1 23.14 20.98"/><polygon class="cls-6" points="23.14 20.98 7.14 15.13 23.12 9.25 39.12 15.1 23.14 20.98"/><polygon class="cls-7" points="23.13 17.11 20.23 16.05 23.13 14.98 26.04 16.05 23.13 17.11"/><polygon class="cls-6" points="23.13 17.11 20.23 16.05 23.13 14.98 26.04 16.05 23.13 17.11"/><polygon class="cls-2" points="15.56 14.75 23.13 17.52 23.13 5.8 15.56 3.03 15.56 14.75"/><polygon class="cls-3" points="15.56 14.75 23.13 17.52 23.13 5.8 15.56 3.03 15.56 14.75"/><polygon class="cls-4" points="30.7 14.75 23.13 17.52 23.13 5.8 30.7 3.03 30.7 14.75"/><polygon class="cls-3" points="30.7 14.75 23.13 17.52 23.13 5.8 30.7 3.03 30.7 14.75"/><polygon class="cls-8" points="23.13 5.8 15.56 3.03 23.13 0.25 30.7 3.03 23.13 5.8"/><polygon class="cls-3" points="23.13 5.8 15.56 3.03 23.13 0.25 30.7 3.03 23.13 5.8"/><line class="cls-6" x1="39.12" y1="15.1" x2="39.12" y2="26.74"/><line class="cls-6" x1="7.14" y1="15.1" x2="7.14" y2="26.74"/></g></g></svg>