<?xml version="1.0" encoding="UTF-8"?>
<svg width="12px" height="12px" viewBox="0 0 12 12" version="1.1" xmlns="http://www.w3.org/2000/svg" xmlns:xlink="http://www.w3.org/1999/xlink">
    <!-- Generator: Sketch 53.2 (72643) - https://sketchapp.com -->
    <title>group_by</title>
    <desc>Created with Sketch.</desc>
    <defs>
        <path d="M12,2.5 C12,3.881 10.881,5 9.5,5 C8.119,5 7,3.881 7,2.5 C7,1.119 8.119,0 9.5,0 C10.881,0 12,1.119 12,2.5 Z M5,9.5 C5,10.881 3.881,12 2.5,12 C1.119,12 0,10.881 0,9.5 C0,8.119 1.119,7 2.5,7 C3.881,7 5,8.119 5,9.5 Z M4,0 C4.552,0 5,0.447 5,1 C5,1.553 4.552,2 4,2 L2.5,2 C2.224,2 2,2.224 2,2.5 L2,4 C2,4.553 1.552,5 1,5 C0.448,5 0,4.553 0,4 L0,2 C0,0.896 0.896,0 2,0 L4,0 Z M11,7 C11.552,7 12,7.447 12,8 L12,10 C12,11.104 11.104,12 10,12 L8,12 C7.448,12 7,11.553 7,11 C7,10.447 7.448,10 8,10 L9.5,10 C9.776,10 10,9.776 10,9.5 L10,8 C10,7.447 10.448,7 11,7 Z" id="path-1"></path>
    </defs>
    <g id="Symbols" stroke="none" stroke-width="1" fill="none" fill-rule="evenodd">
        <g id="Standard-/-Group-By">
            <mask id="mask-2" fill="white">
                <use xlink:href="#path-1"></use>
            </mask>
            <use id="group_by" fill="#1B2025" xlink:href="#path-1"></use>
        </g>
    </g>
</svg>