<svg xmlns="http://www.w3.org/2000/svg" viewBox="0 0 126 126"><defs><style>.cls-1,.cls-10,.cls-11,.cls-12,.cls-14,.cls-15,.cls-4,.cls-6{fill:none;}.cls-2{fill:#bde4fd;}.cls-3{fill:#d3edfd;}.cls-4,.cls-5{stroke:#91d2fb;}.cls-10,.cls-11,.cls-12,.cls-14,.cls-15,.cls-4,.cls-6{stroke-linecap:round;stroke-linejoin:round;}.cls-10,.cls-11,.cls-12,.cls-14,.cls-15,.cls-4,.cls-5,.cls-6{stroke-width:2px;}.cls-5,.cls-9{fill:#fff;}.cls-5{stroke-miterlimit:10;}.cls-14,.cls-15,.cls-6{stroke:#1b6dc6;}.cls-7{fill:#91d2fb;}.cls-8{fill:#f2f4f6;}.cls-10{stroke:#627386;}.cls-11{stroke:#d5dae0;}.cls-12{stroke:#b8bfca;}.cls-13{fill:#b8bfca;}.cls-14{stroke-dasharray:0 5.79;}.cls-15{stroke-dasharray:0 5.64;}</style></defs><title>aws_cloud_profile(1x1)</title><g id="Layer_2" data-name="Layer 2"><g id="Illustrations"><rect class="cls-1" width="126" height="126"/><path class="cls-2" d="M78.52,23.24V16.55H67.65L56.28,10a2.71,2.71,0,0,0-2.45,0L42.47,16.55H31.59v6.69a.87.87,0,0,0,.51.71L53.83,36.5a2.71,2.71,0,0,0,2.45,0L78,24A.87.87,0,0,0,78.52,23.24Z"/><path class="cls-3" d="M55.05,9.7a2.45,2.45,0,0,0-1.22.29L42.47,16.55H31.59v6.69a.87.87,0,0,0,.51.71L53.83,36.5a2.56,2.56,0,0,0,1.22.29Z"/><path class="cls-4" d="M78.52,23.24V16.55H67.65L56.28,10a2.71,2.71,0,0,0-2.45,0L42.47,16.55H31.59v6.69a.87.87,0,0,0,.51.71L53.83,36.5a2.71,2.71,0,0,0,2.45,0L78,24A.87.87,0,0,0,78.52,23.24Z"/><path class="cls-5" d="M78,17.25,56.28,29.8a2.71,2.71,0,0,1-2.45,0L32.1,17.25a.74.74,0,0,1,0-1.41L53.83,3.29a2.71,2.71,0,0,1,2.45,0L78,15.84A.74.74,0,0,1,78,17.25Z"/><path class="cls-6" d="M78,15.84,56.28,3.29a2.71,2.71,0,0,0-2.45,0L32.1,15.84a.87.87,0,0,0-.51.71v6.69a.87.87,0,0,0,.51.71L53.83,36.5a2,2,0,0,0,.57.21,2.73,2.73,0,0,0,1.88-.21L78,24a.87.87,0,0,0,.51-.71V16.55A.87.87,0,0,0,78,15.84Z"/><path class="cls-7" d="M60.81,12.78a.73.73,0,0,0-.85.33A11,11,0,0,1,56.3,17a23.59,23.59,0,0,1-8.73,3.34c-.36.07-.49.31-.47.52a.54.54,0,0,0,.59.41h.06a20.15,20.15,0,0,0,10-3c2.06-1.38,3.41-3.28,3.52-4.95h0A.56.56,0,0,0,60.81,12.78Z"/><path class="cls-7" d="M60.72,10.4c-.55,0-2.34.89-2.47,2.07a.5.5,0,0,0,.27.48.53.53,0,0,0,.61-.09c1-.91,1.43-1,1.54-1h0c.1,0,.45.13,1.46,1.18a.58.58,0,0,0,.41.17.52.52,0,0,0,.21,0,.49.49,0,0,0,.29-.47C63,11.54,61.33,10.42,60.72,10.4Z"/><path class="cls-8" d="M122.77,52.73l-16.35,1,.33,1.78c-7.19-1.18-15.2-.19-20.89,3L73.22,65.67c-13.18-6.54-32.53-6.76-45.9-.56l-13.15,1L14,81h0c0,4.74,2.7,9.51,8.24,13.41l-1.92,1.08-17-.16-.14,15h0c0,3.19,2,6.4,6.23,8.87,8.39,5,22.06,5.08,30.53.29l76.23-43c4.24-2.4,6.38-5.57,6.41-8.76h0Z"/><path class="cls-9" d="M86,43.56,73.37,50.7c-14.07-7-35.17-6.76-48.53.78s-14.19,19.72-2.42,28L9.78,86.61C1.3,91.4,1.22,99.29,9.61,104.24s22.05,5.07,30.53.29l76.23-43.05c8.47-4.79,8.55-12.68.16-17.63h0C108.15,38.91,94.48,38.78,86,43.56Z"/><path class="cls-10" d="M116.53,43.85h0c-8.38-4.94-22-5.07-30.52-.29L73.37,50.7c-14.07-7-35.17-6.76-48.53.78-7.06,4-10.62,9.27-10.67,14.59h0L14,81h0a12.08,12.08,0,0,0,.35,3l-4.6,2.6C5.54,89,3.4,92.17,3.37,95.36l-.14,15c0,3.19,2,6.4,6.23,8.87,8.39,5,22.06,5.08,30.53.29l76.23-43c4.24-2.4,6.38-5.57,6.41-8.76l.14-15C122.8,49.54,120.73,46.33,116.53,43.85Z"/><path class="cls-11" d="M17.45,75a24,24,0,0,0,5,4.58M9.61,104.24c8.38,4.94,22.05,5.07,30.53.29l76.23-43.05"/><path class="cls-12" d="M77.6,68.82l-22,12.4a2.7,2.7,0,0,1-2.46,0L31.44,68.38a.76.76,0,0,1,0-1.43l22-12.4a2.7,2.7,0,0,1,2.46,0L77.62,67.39A.76.76,0,0,1,77.6,68.82Z"/><path class="cls-13" d="M59.93,63.86a.75.75,0,0,0-.86.33,11,11,0,0,1-3.66,3.92,23.53,23.53,0,0,1-8.72,3.34c-.36.07-.5.31-.47.52a.54.54,0,0,0,.59.42h0a20.36,20.36,0,0,0,10-3c2.06-1.39,3.41-3.29,3.53-5h0A.57.57,0,0,0,59.93,63.86Z"/><path class="cls-13" d="M59.84,61.48c-.55,0-2.34.89-2.47,2.07a.49.49,0,0,0,.27.48.55.55,0,0,0,.61-.08c1-.92,1.42-1,1.54-1h0c.11,0,.46.13,1.47,1.18a.59.59,0,0,0,.4.18.54.54,0,0,0,.21,0,.47.47,0,0,0,.29-.47C62.11,62.63,60.44,61.5,59.84,61.48Z"/><line class="cls-6" x1="30.99" y1="62.95" x2="30.99" y2="62.95"/><line class="cls-14" x1="31.06" y1="57.16" x2="31.35" y2="31.08"/><line class="cls-6" x1="31.38" y1="28.19" x2="31.38" y2="28.19"/><line class="cls-6" x1="78.15" y1="62.45" x2="78.15" y2="62.45"/><line class="cls-15" x1="78.22" y1="56.81" x2="78.51" y2="31.45"/><line class="cls-6" x1="78.54" y1="28.64" x2="78.54" y2="28.64"/></g></g></svg>