<svg xmlns="http://www.w3.org/2000/svg" xmlns:xlink="http://www.w3.org/1999/xlink" viewBox="0 0 126 126"><defs><style>.cls-1,.cls-10,.cls-5,.cls-6,.cls-8,.cls-9{fill:none;}.cls-2,.cls-7{fill:#fff;}.cls-2,.cls-6{stroke:#1b6dc6;}.cls-10,.cls-11,.cls-12,.cls-2,.cls-5,.cls-6,.cls-7,.cls-8,.cls-9{stroke-linecap:round;stroke-linejoin:round;stroke-width:2px;}.cls-3{fill:#e9f6fe;}.cls-4{clip-path:url(#clip-path);}.cls-5{stroke:#91d2fb;}.cls-10,.cls-7,.cls-9{stroke:#627386;}.cls-11,.cls-12,.cls-8{stroke:#b8bfca;}.cls-10{stroke-dasharray:0 6.34;}.cls-11,.cls-13{fill:#f2f4f6;}.cls-12{fill:#d5dae0;}</style><clipPath id="clip-path"><path class="cls-1" d="M16,81.29C12.86,79.5,9.32,73.43,9.32,68A5,5,0,0,1,9.6,66.2L50.4,42.7c1.37,7.63,6,15.07,11.86,18.45l47.93,27.67L69.6,112.26Z"/></clipPath></defs><title>blueprints(1x1)</title><g id="Layer_2" data-name="Layer 2"><g id="Illustrations"><path class="cls-2" d="M65.05,56.31c-5.24-3-9.48-11.13-9.48-18.11,0-3.22,1-5.49,2.73-6.49l.05,0L6.53,61.52l0,0c-1.68,1-2.74,3.28-2.74,6.49,0,7,4.25,15.09,9.48,18.12l.07,0,57.21,33,51.76-29.88Z"/><path class="cls-3" d="M55.57,38.2c0-3.22,1-5.49,2.73-6.49l.05,0L6.53,61.52l0,0c-1.68,1-2.74,3.28-2.74,6.49a20.4,20.4,0,0,0,.74,5.3l51.8-29.91A20.76,20.76,0,0,1,55.57,38.2Z"/><path class="cls-5" d="M19.32,60.41a13.15,13.15,0,0,0-2.16-.49,8.18,8.18,0,0,0-2.21,0,5.4,5.4,0,0,0-3.7,2.21,8.3,8.3,0,0,0-1,1.95A12.93,12.93,0,0,0,9.6,66.2a1.9,1.9,0,0,0-.1.29,2.05,2.05,0,0,0-.07.31,2.51,2.51,0,0,0,0,.31c0,.09,0,.2,0,.31a3,3,0,0,0,0,.31c0,.1,0,.2,0,.31a13.75,13.75,0,0,0,.25,2.54,17.93,17.93,0,0,0,.64,2.47,19,19,0,0,0,1,2.37,18.28,18.28,0,0,0,1.26,2.22,15.15,15.15,0,0,0,1.56,2,8.55,8.55,0,0,0,2,1.63l8.94,5.16,8.94,5.16,8.94,5.16,8.94,5.17,8.94,5.16,8.94,5.16,6.76-3.91,6.77-3.9,6.76-3.91,6.77-3.91,6.77-3.9,6.76-3.91-8-4.61-8-4.61-8-4.62-8-4.61-8-4.61-8-4.61a18.66,18.66,0,0,1-3-2.21,24,24,0,0,1-2.61-2.71,28.54,28.54,0,0,1-2.18-3.06,30.85,30.85,0,0,1-1.77-3.31,31.81,31.81,0,0,1-1.36-3.51,29,29,0,0,1-.9-3.65l-5.18,2.95-5.18,3-5.18,3-5.18,2.95-5.18,3Z"/><path class="cls-5" d="M49.76,42.83c-4-1.26-8.35-.86-9.72,5.79a5,5,0,0,0-.27,1.84c0,5.39,3.53,11.46,6.63,13.25l53.64,31"/><path class="cls-5" d="M39.61,48.69c-4-1.26-8.35-.87-9.72,5.79a5,5,0,0,0-.27,1.84c0,5.39,3.53,11.46,6.63,13.25l53.64,31"/><path class="cls-5" d="M29.47,54.55c-4.06-1.27-8.36-.87-9.72,5.79a5,5,0,0,0-.28,1.84c0,5.39,3.54,11.46,6.63,13.25l53.65,31"/><path class="cls-6" d="M65.05,56.31c-5.24-3-9.48-11.13-9.48-18.11,0-3.22,1-5.49,2.73-6.49l.05,0L6.53,61.52l0,0c-1.68,1-2.74,3.28-2.74,6.49,0,7,4.25,15.09,9.48,18.12l.07,0,57.21,33,51.76-29.88Z"/><path class="cls-2" d="M68,36.71a12.76,12.76,0,0,0-4.36-4.6c-2-1.18-3.9-1.25-5.32-.4l.05,0L6.53,61.52l0,0c1.42-.84,3.28-.78,5.32.4a12.92,12.92,0,0,1,4.36,4.6Z"/><path class="cls-7" d="M116.89,47.24c-5.07,2.83-11.69,4.22-18.29,4.19s-13.17-1.49-18.16-4.37S73,40.42,73.05,36.68s2.63-7.48,7.71-10.31L98.83,36.81Z"/><line class="cls-8" x1="92.56" y1="40.3" x2="87.12" y2="43.56"/><line class="cls-8" x1="90.04" y1="36.81" x2="82.58" y2="36.81"/><line class="cls-8" x1="98.91" y1="41.79" x2="98.91" y2="46.64"/><path class="cls-8" d="M105,40.36a12.9,12.9,0,0,1-6.23,1.43,12.72,12.72,0,0,1-6.2-1.49C90.85,39.31,90,38,90,36.74s.9-2.53,2.62-3.49l6.17,3.56Z"/><path class="cls-9" d="M116.89,47.24c-5.07,2.83-11.69,4.22-18.29,4.19s-13.17-1.49-18.16-4.37S73,40.42,73.05,36.68s2.63-7.48,7.71-10.31L98.83,36.81Z"/><line class="cls-9" x1="116.89" y1="47.24" x2="116.89" y2="47.24"/><line class="cls-10" x1="116.89" y1="40.89" x2="116.89" y2="25.04"/><line class="cls-9" x1="116.89" y1="21.86" x2="116.89" y2="21.86"/><line class="cls-9" x1="80.76" y1="26.37" x2="80.76" y2="26.37"/><line class="cls-10" x1="80.76" y1="20.03" x2="80.76" y2="4.17"/><line class="cls-9" x1="80.76" y1="1" x2="80.76" y2="1"/><polygon class="cls-11" points="97.84 98.33 107.23 88.46 94.51 91.12 97.84 98.33"/><path class="cls-12" d="M48.36,117.8,93.85,91.54a1.55,1.55,0,0,1,2-.11,6.26,6.26,0,0,1,2.62,5c0,1.27-.51,2.08-1.27,2.25L52.3,124.62Z"/><path class="cls-13" d="M97.83,93.77a5.31,5.31,0,0,0-2-2.34,1.55,1.55,0,0,0-2,.11L48.36,117.8l2,3.4Z"/><path class="cls-8" d="M48.36,117.8,93.85,91.54a1.55,1.55,0,0,1,2-.11,6.26,6.26,0,0,1,2.62,5c0,1.27-.51,2.08-1.27,2.25L52.3,124.62Z"/><path class="cls-11" d="M48.36,117.8,54.89,114a1.54,1.54,0,0,1,2-.12,6.28,6.28,0,0,1,2.62,5c0,1.27-.51,2.08-1.27,2.25l-6,3.44Z"/><ellipse class="cls-11" cx="50.37" cy="121.19" rx="2.28" ry="4.03" transform="translate(-43.43 29.4) rotate(-23.05)"/><path class="cls-9" d="M98,98.2l9.26-9.74L94.51,91.12l0,.06a1.43,1.43,0,0,0-.28.07,1.41,1.41,0,0,0-.4.29L78.69,100.3,55.48,113.69a1.41,1.41,0,0,0-.59.34L49,117.42a1.38,1.38,0,0,0-.66.38h0a2.62,2.62,0,0,0-.61,1.87,6.3,6.3,0,0,0,2.62,5,1.55,1.55,0,0,0,2-.12l5.87-3.39a1.31,1.31,0,0,0,.66-.38l38.3-22.11a1.32,1.32,0,0,0,.63-.35h0Z"/><polygon class="cls-6" points="39.25 82.9 59.44 71.24 79.64 83.02 59.45 94.68 39.25 82.9"/><line class="cls-6" x1="49.29" y1="65.38" x2="29" y2="77.1"/><rect class="cls-1" width="126" height="126"/></g></g></svg>