<svg xmlns="http://www.w3.org/2000/svg" viewBox="0 0 126 126"><defs><style>.cls-1,.cls-10,.cls-14,.cls-15,.cls-16,.cls-17,.cls-7,.cls-8{fill:none;}.cls-2{fill:#b8bfca;}.cls-12,.cls-13,.cls-2,.cls-3,.cls-6,.cls-7,.cls-9{stroke:#fff;}.cls-10,.cls-11,.cls-12,.cls-13,.cls-14,.cls-15,.cls-16,.cls-17,.cls-2,.cls-3,.cls-4,.cls-5,.cls-6,.cls-7,.cls-8,.cls-9{stroke-linecap:round;stroke-linejoin:round;}.cls-10,.cls-12,.cls-13,.cls-14,.cls-15,.cls-16,.cls-17,.cls-2,.cls-3,.cls-5,.cls-6,.cls-7,.cls-8,.cls-9{stroke-width:2px;}.cls-3{fill:#d5dae0;}.cls-4,.cls-5,.cls-6{fill:#f2f4f6;}.cls-4,.cls-5{stroke:#f2f4f6;}.cls-8{stroke:#627386;}.cls-9{fill:#fccccc;}.cls-10,.cls-11{stroke:#feeeee;}.cls-11,.cls-13{fill:#feeeee;}.cls-12{fill:#faabab;}.cls-14,.cls-16,.cls-17{stroke:#c44556;}.cls-15{stroke:#faabab;}.cls-16{stroke-dasharray:0 6.5;}.cls-17{stroke-dasharray:0 6.5;}</style></defs><title>clusters_error(1x1)</title><g id="Layer_2" data-name="Layer 2"><g id="Illustrations"><rect class="cls-1" width="126" height="126"/><rect class="cls-1" width="126" height="126"/><polygon class="cls-2" points="97.3 99.41 63 119.21 63 105.78 97.3 85.97 97.3 99.41"/><polygon class="cls-3" points="28.7 99.41 63 119.21 63 105.78 28.7 85.97 28.7 99.41"/><polygon class="cls-4" points="37.02 104.21 54.68 114.4 54.68 109.12 37.02 98.93 37.02 104.21"/><line class="cls-5" x1="33.2" y1="96.72" x2="33.1" y2="96.66"/><polygon class="cls-6" points="97.3 85.97 63 66.17 28.7 85.97 63 105.78 97.3 85.97"/><polygon class="cls-7" points="28.7 99.41 63 119.21 63 105.78 28.7 85.97 28.7 99.41"/><polygon class="cls-8" points="63 66.17 28.7 85.97 28.7 99.41 37.02 104.21 37.02 104.21 54.68 114.4 54.68 114.4 63 119.21 97.3 99.41 97.3 85.97 63 66.17"/><polygon class="cls-9" points="28.7 85.97 63 105.78 63 92.34 28.7 72.54 28.7 85.97"/><line class="cls-10" x1="33.2" y1="83.29" x2="33.1" y2="83.23"/><polygon class="cls-11" points="37.02 90.78 54.68 100.97 54.68 95.69 37.02 85.5 37.02 90.78"/><polygon class="cls-7" points="28.7 85.97 63 105.78 63 92.34 28.7 72.54 28.7 85.97"/><polygon class="cls-12" points="97.3 85.97 63 105.78 63 92.34 97.3 72.54 97.3 85.97"/><polygon class="cls-13" points="97.3 72.54 63 52.74 28.7 72.54 63 92.34 97.3 72.54"/><polygon class="cls-14" points="63 52.74 28.7 72.54 28.7 85.97 45.85 95.88 54.68 100.97 54.68 100.97 63 105.78 97.3 85.97 97.3 72.54 63 52.74"/><line class="cls-15" x1="63" y1="68.07" x2="63" y2="77.3"/><line class="cls-15" x1="55" y1="72.69" x2="71" y2="72.69"/><ellipse class="cls-15" cx="63" cy="72.54" rx="15.5" ry="8.95"/><line class="cls-14" x1="28.7" y1="40.03" x2="28.7" y2="40.03"/><line class="cls-16" x1="28.7" y1="46.53" x2="28.7" y2="69.29"/><line class="cls-14" x1="28.7" y1="72.54" x2="28.7" y2="72.54"/><line class="cls-14" x1="97.3" y1="40.03" x2="97.3" y2="40.03"/><line class="cls-17" x1="97.3" y1="46.53" x2="97.3" y2="69.29"/><line class="cls-14" x1="97.3" y1="72.54" x2="97.3" y2="72.54"/><polygon class="cls-9" points="28.7 40.03 63 59.83 63 46.4 28.7 26.59 28.7 40.03"/><line class="cls-10" x1="33.2" y1="37.34" x2="33.1" y2="37.28"/><polygon class="cls-11" points="37.02 44.83 54.68 55.02 54.68 49.74 37.02 39.55 37.02 44.83"/><polygon class="cls-7" points="28.7 40.03 63 59.83 63 46.4 28.7 26.59 28.7 40.03"/><polygon class="cls-12" points="97.3 40.03 63 59.83 63 46.4 97.3 26.59 97.3 40.03"/><polygon class="cls-13" points="97.3 26.59 63 6.79 28.7 26.59 63 46.4 97.3 26.59"/><line class="cls-15" x1="63" y1="22.12" x2="63" y2="31.36"/><line class="cls-15" x1="55" y1="26.74" x2="71" y2="26.74"/><ellipse class="cls-15" cx="63" cy="26.59" rx="15.5" ry="8.95"/><polygon class="cls-14" points="63 6.79 28.7 26.59 28.7 40.03 45.85 49.93 54.68 55.02 54.68 55.02 63 59.83 97.3 40.03 97.3 26.59 63 6.79"/><rect class="cls-1" width="126" height="126"/><rect class="cls-1" width="126" height="126"/><rect class="cls-1" width="126" height="126"/></g></g></svg>