<svg xmlns="http://www.w3.org/2000/svg" viewBox="0 0 126 126"><defs><style>.cls-1,.cls-10,.cls-14,.cls-15,.cls-2,.cls-3,.cls-6{fill:none;}.cls-11,.cls-12,.cls-13,.cls-2{stroke:#91d2fb;}.cls-10,.cls-11,.cls-12,.cls-13,.cls-14,.cls-15,.cls-2,.cls-3,.cls-4,.cls-5,.cls-6,.cls-7,.cls-8,.cls-9{stroke-linecap:round;stroke-linejoin:round;stroke-width:2px;}.cls-2{stroke-dasharray:0 6;}.cls-3{stroke:#bde4fd;}.cls-4,.cls-9{fill:#d5dae0;}.cls-4,.cls-5,.cls-6,.cls-7{stroke:#b8bfca;}.cls-11,.cls-5{fill:#fff;}.cls-7,.cls-8{fill:#f2f4f6;}.cls-10,.cls-8,.cls-9{stroke:#627386;}.cls-12{fill:#bde4fd;}.cls-13{fill:#e9f6fe;}.cls-14,.cls-15{stroke:#1b6dc6;}.cls-15{stroke-dasharray:0 5.41;}</style></defs><title>container_registry_profiles(1x1)</title><g id="Layer_2" data-name="Layer 2"><g id="Illustrations"><rect class="cls-1" width="126" height="126"/><line class="cls-2" x1="19.29" y1="104.63" x2="46.57" y2="88.87"/><polygon class="cls-3" points="25.38 108.15 19.29 104.63 13.19 101.11 7.09 104.63 1 108.15 7.09 111.67 13.19 115.19 19.29 111.67 25.38 108.15"/><polygon class="cls-4" points="125 57.87 101.1 71.67 89.15 78.57 77.2 85.47 65.25 92.37 65.25 83.25 65.25 74.14 65.25 65.03 65.25 55.92 77.2 49.02 89.15 42.12 113.05 28.32 125 21.42 125 30.53 125 39.64 125 48.75 125 57.87"/><polygon class="cls-5" points="37.91 40.14 65.25 55.92 125 21.42 97.66 5.64 37.91 40.14"/><line class="cls-6" x1="77.2" y1="54.49" x2="77.2" y2="80"/><polygon class="cls-7" points="37.91 76.58 65.25 92.37 65.25 55.92 37.91 40.14 37.91 76.58"/><polygon class="cls-8" points="42.23 74.06 42.23 47.65 60.93 58.44 60.93 84.86 42.23 74.06"/><polygon class="cls-9" points="60.93 58.44 42.23 47.65 42.23 74.06 60.93 63.27 60.93 58.44"/><line class="cls-6" x1="96.31" y1="32.46" x2="78.55" y2="22.2"/><line class="cls-6" x1="66.6" y1="29.1" x2="84.36" y2="39.36"/><line class="cls-6" x1="72.41" y1="46.26" x2="54.64" y2="36"/><polygon class="cls-7" points="33.52 42.67 19.86 34.78 19.86 71.22 33.52 79.12 33.52 42.67"/><polygon class="cls-4" points="37.91 76.58 33.52 79.12 33.52 42.67 37.91 40.14 37.91 76.58"/><polygon class="cls-5" points="24.24 32.24 19.86 34.78 33.52 42.67 37.91 40.14 24.24 32.24"/><polygon class="cls-6" points="37.91 76.58 33.52 79.12 33.52 42.67 37.91 40.14 37.91 76.58"/><polygon class="cls-10" points="24.24 32.24 19.86 34.78 19.86 71.22 33.52 79.12 37.91 76.58 37.91 40.14 24.24 32.24"/><line class="cls-6" x1="28.37" y1="46.42" x2="25.01" y2="44.48"/><line class="cls-6" x1="89.15" y1="47.59" x2="89.15" y2="73.1"/><line class="cls-10" x1="101.1" y1="40.69" x2="101.1" y2="66.2"/><line class="cls-6" x1="101.1" y1="40.69" x2="101.1" y2="66.2"/><line class="cls-6" x1="90.5" y1="15.3" x2="108.27" y2="25.56"/><line class="cls-6" x1="96.31" y1="32.46" x2="78.55" y2="22.2"/><line class="cls-6" x1="113.05" y1="33.79" x2="113.05" y2="59.3"/><polygon class="cls-10" points="125 21.42 97.66 5.64 37.91 40.14 37.91 76.58 65.25 92.37 77.2 85.47 89.15 78.57 101.1 71.67 125 57.87 125 48.76 125 39.64 125 30.53 125 21.42 125 21.42"/><polygon class="cls-7" points="74.53 66.34 60.86 58.45 60.86 94.9 74.53 102.79 74.53 66.34"/><polygon class="cls-5" points="65.25 55.92 60.86 58.45 74.53 66.34 78.91 63.81 65.25 55.92"/><polygon class="cls-4" points="78.91 100.26 74.53 102.79 74.53 66.34 78.91 63.81 78.91 100.26"/><polygon class="cls-6" points="78.91 100.26 74.53 102.79 74.53 66.34 78.91 63.81 78.91 100.26"/><line class="cls-6" x1="69.38" y1="70.1" x2="66.01" y2="68.16"/><polygon class="cls-10" points="65.25 55.92 60.86 58.45 60.86 94.9 74.53 102.79 78.91 100.26 78.91 63.81 65.25 55.92"/><polygon class="cls-11" points="13.19 61.24 1 68.28 1 84.53 13.19 77.49 25.38 84.53 25.38 68.28 13.19 61.24"/><polygon class="cls-12" points="25.38 84.53 13.19 91.57 13.19 75.31 25.38 68.28 25.38 84.53"/><polygon class="cls-13" points="1 84.53 13.19 91.57 13.19 75.31 1 68.28 1 84.53"/><line class="cls-14" x1="25.38" y1="52.04" x2="25.38" y2="52.04"/><line class="cls-15" x1="25.38" y1="57.45" x2="25.38" y2="65.57"/><line class="cls-14" x1="25.38" y1="68.27" x2="25.38" y2="68.27"/><line class="cls-14" x1="1" y1="52.04" x2="1" y2="52.04"/><line class="cls-15" x1="1" y1="57.45" x2="1" y2="65.57"/><line class="cls-14" x1="1" y1="68.27" x2="1" y2="68.27"/><polygon class="cls-14" points="1 68.28 1 84.53 13.19 91.57 25.38 84.53 25.38 68.28 13.19 61.24 1 68.28"/></g></g></svg>