<svg xmlns="http://www.w3.org/2000/svg" viewBox="0 0 126 131"><defs><style>.cls-1,.cls-11,.cls-4,.cls-7{fill:none;}.cls-2,.cls-9{fill:#d5dae0;}.cls-3{fill:#f2f4f6;}.cls-10,.cls-4{stroke:#627386;}.cls-10,.cls-11,.cls-4,.cls-5,.cls-7,.cls-8,.cls-9{stroke-linecap:round;stroke-linejoin:round;stroke-width:2px;}.cls-5{fill:#e9f6fe;}.cls-5,.cls-7,.cls-8,.cls-9{stroke:#b8bfca;}.cls-10,.cls-6,.cls-8{fill:#fff;}.cls-11{stroke:#91d2fb;}</style></defs><title>data_visualization(1x1)</title><g id="Layer_2" data-name="Layer 2"><g id="Illustrations"><rect class="cls-1" y="5" width="126" height="126"/><path class="cls-2" d="M90.18,47.44V92.31c0,1.26-1.77,2.29-4,2.29s-4-1-4-2.29V47.44Z"/><path class="cls-3" d="M86.22,47.44h-4V92.31c0,1.26,1.77,2.29,4,2.29Z"/><path class="cls-2" d="M90.18,69V84.62c0,1.26-1.77,2.28-4,2.28s-4-1-4-2.28V69Z"/><path class="cls-4" d="M90.18,48.12V92.31c0,1.26-1.77,2.29-4,2.29s-4-1-4-2.29V48.12"/><path class="cls-2" d="M36.37,78.51v44.87c0,1.26-1.77,2.28-4,2.28s-3.95-1-3.95-2.28V78.51Z"/><path class="cls-3" d="M32.41,78.51H28.46v44.87c0,1.26,1.77,2.28,3.95,2.28Z"/><path class="cls-2" d="M36.37,100.11v15.57c0,1.26-1.77,2.29-4,2.29s-3.95-1-3.95-2.29V100.11Z"/><path class="cls-4" d="M36.37,79.18v44.2c0,1.26-1.77,2.28-4,2.28s-3.95-1-3.95-2.28V79.18"/><path class="cls-3" d="M90.55,1.86h0a1.92,1.92,0,0,0-2,.15L24.65,38.93a7.24,7.24,0,0,0-3,5.77v60.35l12.77,7.38V107L27.56,103h0l8.73-11.88L91.6,59.23V11.93l4.88-6.65Z"/><line class="cls-5" x1="27.56" y1="103.04" x2="21.63" y2="99.62"/><path class="cls-6" d="M24.65,38.93,88.57,2a1.94,1.94,0,0,1,2-.15h0l5.93,3.42L92.84,9.54V51.37a7.23,7.23,0,0,1-3,5.77l-24.25,14-43.41-29A6.47,6.47,0,0,1,24.65,38.93Z"/><path class="cls-7" d="M90.55,1.86h0a1.92,1.92,0,0,0-2,.15L24.65,38.93a7.24,7.24,0,0,0-3,5.77v60.35l12.77,7.38V107L27.56,103h0l8.73-11.88L91.6,59.23V11.93l4.88-6.65Z"/><polyline class="cls-8" points="97.52 62.65 104.37 66.6 34.41 106.99 27.56 103.04"/><path class="cls-9" d="M97.52,62.65V7.73c0-2.23-1.35-3.25-3-2.29L30.58,42.35a7.23,7.23,0,0,0-3,5.77V103"/><path class="cls-10" d="M32,92.41V49.61a3.43,3.43,0,0,1,1.71-3l57.68-33.3a1.14,1.14,0,0,1,1.71,1v42.8a3.43,3.43,0,0,1-1.71,3L33.7,93.4A1.14,1.14,0,0,1,32,92.41Z"/><polygon class="cls-9" points="104.37 72.03 104.37 66.6 34.41 106.99 34.41 112.43 104.37 72.03"/><polygon class="cls-11" points="82.29 46.26 76.35 49.69 76.35 41.76 82.29 38.33 82.29 46.26"/><ellipse class="cls-11" cx="45.58" cy="56.03" rx="4.29" ry="2.43" transform="translate(-23.82 76.03) rotate(-66.95)"/><ellipse class="cls-11" cx="45.58" cy="70.95" rx="4.29" ry="2.43" transform="translate(-37.55 85.11) rotate(-66.95)"/><ellipse class="cls-11" cx="62.36" cy="53.8" rx="4.29" ry="2.43" transform="translate(-11.56 90.12) rotate(-66.95)"/><path class="cls-11" d="M62.36,50.07h0c0-2.06-1.25-3-2.79-2.11L48.38,54.41"/><path class="cls-11" d="M62.36,57.53h0a6.69,6.69,0,0,1-2.79,5.34L48.38,69.33"/><line class="cls-11" x1="65.16" y1="52.18" x2="76.35" y2="45.73"/><line class="cls-5" x1="27.56" y1="103.04" x2="97.52" y2="62.65"/><path class="cls-4" d="M97.89,62.64V7.13a2.66,2.66,0,0,0-1.07-2.45v0l-6-3.46h0A1.54,1.54,0,0,0,89.93,1a2.65,2.65,0,0,0-1.08.36L50.09,23.74,24.24,38.66h0a4,4,0,0,0-.55.4l-.11.09a4.53,4.53,0,0,0-.49.49l-.09.1c-.14.17-.28.35-.41.53l-.07.11a7,7,0,0,0-.39.65L22,41.2c-.11.22-.22.46-.32.7h0a7.23,7.23,0,0,0-.53,2.6v61L34.1,113h0l70.71-40.83V66.63Z"/></g></g></svg>