<svg xmlns="http://www.w3.org/2000/svg" viewBox="0 0 126 126"><defs><style>.cls-1,.cls-11,.cls-12,.cls-13,.cls-16,.cls-17,.cls-2,.cls-20,.cls-3,.cls-7{fill:none;}.cls-2,.cls-3,.cls-8{stroke:#1b6dc6;}.cls-11,.cls-12,.cls-13,.cls-15,.cls-16,.cls-17,.cls-18,.cls-2,.cls-20,.cls-3,.cls-7,.cls-8{stroke-linecap:round;stroke-linejoin:round;}.cls-11,.cls-12,.cls-13,.cls-15,.cls-17,.cls-18,.cls-2,.cls-20,.cls-3,.cls-7,.cls-8{stroke-width:2px;}.cls-3{stroke-dasharray:0 7.06;}.cls-4{fill:#bde4fd;}.cls-5{fill:#e9f6fe;}.cls-6,.cls-8{fill:#fff;}.cls-7{stroke:#91d2fb;}.cls-15,.cls-9{fill:#f2f4f6;}.cls-10,.cls-18{fill:#d5dae0;}.cls-11{stroke:#b8bfca;}.cls-12,.cls-20{stroke:#627386;}.cls-13,.cls-15,.cls-18{stroke:#fff;}.cls-14{fill:#b8bfca;}.cls-16{stroke:#f2f4f6;stroke-width:6px;}.cls-17{stroke:#d5dae0;}.cls-19{fill:#627386;}.cls-20{stroke-dasharray:0 5.39;}</style></defs><title>data_pipeline(1x1)</title><g id="Layer_2" data-name="Layer 2"><g id="Illustrations"><rect class="cls-1" width="126" height="126" transform="translate(126 126) rotate(-180)"/><line class="cls-2" x1="82.25" y1="113.05" x2="82.25" y2="113.05"/><line class="cls-3" x1="82.25" y1="105.99" x2="82.25" y2="102.46"/><line class="cls-2" x1="82.25" y1="98.93" x2="82.25" y2="98.93"/><line class="cls-2" x1="94.59" y1="113.05" x2="94.59" y2="113.05"/><line class="cls-3" x1="94.59" y1="105.99" x2="94.59" y2="102.46"/><line class="cls-2" x1="94.59" y1="98.93" x2="94.59" y2="98.93"/><path class="cls-4" d="M82.25,113.05v7.79c0,2,2.82,3.63,6.3,3.63s6.3-1.62,6.3-3.63v-7.79Z"/><path class="cls-5" d="M82.25,113.05v7.79c0,2,2.82,3.63,6.3,3.63s6.3-1.62,6.3-3.63v-7.79Z"/><path class="cls-4" d="M88.55,124.47h0c3.48,0,6.3-1.62,6.3-3.63v-7.79h-6.3Z"/><ellipse class="cls-6" cx="88.55" cy="113.05" rx="6.3" ry="3.64"/><ellipse class="cls-6" cx="88.55" cy="113.05" rx="6.3" ry="3.64"/><ellipse class="cls-7" cx="88.55" cy="113.05" rx="6.3" ry="3.64"/><ellipse class="cls-7" cx="88.55" cy="113.05" rx="6.3" ry="3.64"/><path class="cls-2" d="M88.55,109.41c-3.48,0-6.3,1.63-6.3,3.64v7.79c0,2,2.82,3.63,6.3,3.63s6.3-1.62,6.3-3.63v-7.79C94.85,111,92,109.41,88.55,109.41Z"/><path class="cls-8" d="M54.5,68.32l31.12-18a1.53,1.53,0,0,1,1.56-.11h0l37,21.35L89.91,103.27l-37-21.36h0A2.1,2.1,0,0,1,52.1,80V72.91A5.75,5.75,0,0,1,54.5,68.32Z"/><path class="cls-9" d="M52.94,81.9A2.1,2.1,0,0,1,52.1,80V72.91a6,6,0,0,1,1.65-4l43.83,25.3L95.17,98.4l-5.26,4.87-37-21.36Z"/><path class="cls-2" d="M54.5,68.32l31.12-18a1.53,1.53,0,0,1,1.56-.11h0l37,21.35L89.91,103.27l-37-21.36h0A2.1,2.1,0,0,1,52.1,80V72.91A5.75,5.75,0,0,1,54.5,68.32Z"/><path class="cls-10" d="M122.6,85.17l-31.12,18c-1.33.76-2.4,0-2.4-1.81V94.26a5.71,5.71,0,0,1,2.4-4.58l31.12-18c1.33-.77,2.4,0,2.4,1.81v7.07A5.74,5.74,0,0,1,122.6,85.17Z"/><path class="cls-11" d="M89.08,97.28v-3a5.71,5.71,0,0,1,2.4-4.58l28.09-16.22"/><path class="cls-12" d="M54.5,68.32l31.12-18a1.53,1.53,0,0,1,1.56-.11h0l37,21.35h0a2.1,2.1,0,0,1,.84,1.93v7.07a5.74,5.74,0,0,1-2.4,4.58l-31.12,18a1.53,1.53,0,0,1-1.56.11v0l-37-21.36h0A2.1,2.1,0,0,1,52.1,80V72.91A5.75,5.75,0,0,1,54.5,68.32Z"/><line class="cls-11" x1="83.71" y1="93.78" x2="82.86" y2="93.29"/><line class="cls-11" x1="65.17" y1="83.07" x2="58.21" y2="79.06"/><line class="cls-13" x1="108.34" y1="86.67" x2="105.74" y2="88.17"/><ellipse class="cls-10" cx="88.55" cy="70.01" rx="6.3" ry="3.64"/><ellipse class="cls-12" cx="88.55" cy="70.01" rx="6.3" ry="3.64"/><path class="cls-4" d="M82.25,47.93v7.79c0,2,2.82,3.64,6.3,3.64s6.3-1.63,6.3-3.64V47.93Z"/><path class="cls-5" d="M82.25,47.93v7.79c0,2,2.82,3.64,6.3,3.64s6.3-1.63,6.3-3.64V47.93Z"/><path class="cls-4" d="M88.55,59.36h0c3.48,0,6.3-1.63,6.3-3.64V47.93h-6.3Z"/><ellipse class="cls-6" cx="88.55" cy="47.93" rx="6.3" ry="3.64"/><ellipse class="cls-6" cx="88.55" cy="47.93" rx="6.3" ry="3.64"/><ellipse class="cls-7" cx="88.55" cy="47.93" rx="6.3" ry="3.64"/><ellipse class="cls-7" cx="88.55" cy="47.93" rx="6.3" ry="3.64"/><path class="cls-2" d="M88.55,44.29c-3.48,0-6.3,1.63-6.3,3.64v7.79c0,2,2.82,3.64,6.3,3.64s6.3-1.63,6.3-3.64V47.93C94.85,45.92,92,44.29,88.55,44.29Z"/><path class="cls-10" d="M93.92,31.8a20,20,0,0,0-2.67-.49,23.6,23.6,0,0,0-2.7-.16,23.92,23.92,0,0,0-2.71.16,19.9,19.9,0,0,0-2.66.49H75v6.27c0,2.51,2,4.74,5.22,6.17a21.78,21.78,0,0,0,16.63,0c3.18-1.43,5.23-3.66,5.23-6.17V31.8H93.92Z"/><path class="cls-14" d="M102.09,38.07V31.8H93.92a20,20,0,0,0-2.67-.49,23.6,23.6,0,0,0-2.7-.16V45.89a20.38,20.38,0,0,0,8.31-1.65C100,42.81,102.09,40.58,102.09,38.07Z"/><path class="cls-12" d="M93.92,31.8a20,20,0,0,0-2.67-.49,23.6,23.6,0,0,0-2.7-.16,23.92,23.92,0,0,0-2.71.16,19.9,19.9,0,0,0-2.66.49H75v6.27c0,2.51,2,4.74,5.22,6.17a21.78,21.78,0,0,0,16.63,0c3.18-1.43,5.23-3.66,5.23-6.17V31.8H93.92Z"/><path class="cls-15" d="M102.09,31.8c0,2.5-2,4.74-5.23,6.17a21.9,21.9,0,0,1-16.63,0C77.05,36.54,75,34.3,75,31.8s2-4.74,5.22-6.17a21.78,21.78,0,0,1,16.63,0C100,27.06,102.09,29.29,102.09,31.8Z"/><path class="cls-12" d="M102.09,31.8c0-2.51-2-4.74-5.23-6.17a21.78,21.78,0,0,0-16.63,0C77.05,27.06,75,29.29,75,31.8v6.27c0,2.51,2,4.74,5.22,6.17a20.42,20.42,0,0,0,8.32,1.65c.78,0,1.55,0,2.3-.11a19.2,19.2,0,0,0,6-1.54c3.18-1.43,5.23-3.66,5.23-6.17V31.8Z"/><path class="cls-6" d="M87.6,4a18.3,18.3,0,0,0-10.51-2.4A23.74,23.74,0,0,0,66.76,4.86L59.19,9.23,44.55,17.68l4.9,8.48,4.9,8.48,7.56-4.37,14.64-8.45c.24-.14.46-.25.66-.35a6.79,6.79,0,0,1,.69-.27,8.5,8.5,0,0,1,.68,2.41,16,16,0,0,1,.18,2.5v4.72c0,1.81,1.48,3.43,3.77,4.46a15.8,15.8,0,0,0,12,0c2.3-1,3.78-2.65,3.78-4.46V26.11a31.17,31.17,0,0,0-2.43-12.57A20.15,20.15,0,0,0,87.6,4Z"/><line class="cls-16" x1="94.88" y1="22.99" x2="94.88" y2="30.62"/><line class="cls-16" x1="55.87" y1="28.95" x2="74.46" y2="18.21"/><line class="cls-17" x1="76.55" y1="21.82" x2="80.25" y2="19.68"/><rect class="cls-6" x="45.64" y="9.97" width="26.06" height="5.75" rx="2.88" transform="translate(1.44 31.06) rotate(-30)"/><path class="cls-12" d="M87.6,4a18.3,18.3,0,0,0-10.51-2.4A23.74,23.74,0,0,0,66.76,4.86L59.19,9.23,44.55,17.68l4.9,8.48,4.9,8.48,7.56-4.37,14.64-8.45c.24-.14.46-.25.66-.35a6.79,6.79,0,0,1,.69-.27,8.5,8.5,0,0,1,.68,2.41,16,16,0,0,1,.18,2.5v4.72c0,1.81,1.48,3.43,3.77,4.46a15.8,15.8,0,0,0,12,0c2.3-1,3.78-2.65,3.78-4.46V26.11a31.17,31.17,0,0,0-2.43-12.57A20.15,20.15,0,0,0,87.6,4Z"/><path class="cls-14" d="M60.24,30.79c0-6.93-4.21-15-9.41-18-2.35-1.36-4.49-1.44-6.14-.48h0l-5.15,3,1.52,3.21a15.18,15.18,0,0,0-.11,1.7c0,6.92,4.2,14.95,9.39,17.95l1.51,3.2,5.15-3h0C59,37.23,60.24,34.57,60.24,30.79Z"/><path class="cls-9" d="M50.83,12.82c-2.35-1.36-4.49-1.44-6.14-.48h0l-5.15,3,1.52,3.21a15.18,15.18,0,0,0-.11,1.7,22.9,22.9,0,0,0,2.31,9.53l14.69-8.48C56.21,17.61,53.67,14.46,50.83,12.82Z"/><path class="cls-11" d="M60.24,30.79c0-6.93-4.21-15-9.41-18-2.35-1.36-4.49-1.44-6.14-.48h0l-5.15,3,1.52,3.21a15.18,15.18,0,0,0-.11,1.7c0,6.92,4.2,14.95,9.39,17.95l1.51,3.2,5.15-3h0C59,37.23,60.24,34.57,60.24,30.79Z"/><ellipse class="cls-18" cx="45.69" cy="28.33" rx="8.17" ry="14.43" transform="translate(-7.45 20.15) rotate(-23.05)"/><path class="cls-14" d="M48.37,37.39a4.69,4.69,0,0,1-2.31-.71c-3.51-2-6.37-7.52-6.37-12.25,0-3.13,1.3-5.16,3.32-5.16a4.66,4.66,0,0,1,2.3.71c3.52,2,6.38,7.52,6.38,12.25C51.69,35.36,50.38,37.39,48.37,37.39Z"/><path class="cls-19" d="M45.31,20a6.37,6.37,0,0,0-1.08-.49A8.72,8.72,0,0,0,43.87,22c0,4.72,2.86,10.22,6.38,12.25a5.27,5.27,0,0,0,1.07.48,8.26,8.26,0,0,0,.37-2.52C51.69,27.5,48.83,22,45.31,20Z"/><path class="cls-12" d="M60.24,30.79c0-6.93-4.21-15-9.41-18-2.35-1.36-4.49-1.44-6.14-.48h0l-5.15,3h0c-2,1.15-3.26,3.8-3.26,7.59,0,6.93,4.21,15,9.41,18,2.35,1.36,4.49,1.43,6.14.48h0l5.15-3h0C59,37.23,60.24,34.57,60.24,30.79Z"/><polygon class="cls-6" points="17.21 38.09 10.33 42.05 17.21 46.02 24.08 42.05 17.21 38.09"/><polygon class="cls-10" points="24.08 51.22 17.21 55.19 17.21 46.02 24.08 42.05 24.08 51.22"/><polygon class="cls-9" points="10.33 51.22 17.21 55.19 17.21 46.02 10.33 42.05 10.33 51.22"/><polygon class="cls-11" points="17.21 38.09 10.33 42.05 17.21 46.02 24.08 42.05 17.21 38.09"/><polygon class="cls-11" points="24.08 51.22 17.21 55.19 17.21 46.02 24.08 42.05 24.08 51.22"/><polygon class="cls-11" points="10.33 51.22 17.21 55.19 17.21 46.02 10.33 42.05 10.33 51.22"/><polygon class="cls-12" points="17.21 38.09 10.33 42.05 10.33 51.22 17.21 55.19 24.08 51.22 24.08 42.05 17.21 38.09"/><line class="cls-12" x1="10.33" y1="42.05" x2="10.33" y2="42.05"/><line class="cls-20" x1="5.67" y1="44.75" x2="3.33" y2="46.1"/><line class="cls-12" x1="1" y1="47.44" x2="1" y2="47.44"/><line class="cls-12" x1="17.21" y1="55.19" x2="17.21" y2="55.19"/><line class="cls-20" x1="12.54" y1="57.88" x2="10.21" y2="59.23"/><line class="cls-12" x1="7.87" y1="60.58" x2="7.87" y2="60.58"/><polygon class="cls-6" points="34.28 28.23 27.4 32.2 34.28 36.17 41.15 32.2 34.28 28.23"/><polygon class="cls-10" points="41.15 41.36 34.28 45.33 34.28 36.17 41.15 32.2 41.15 41.36"/><polygon class="cls-9" points="27.4 41.36 34.28 45.33 34.28 36.17 27.4 32.2 27.4 41.36"/><polygon class="cls-11" points="34.28 28.23 27.4 32.2 34.28 36.17 41.15 32.2 34.28 28.23"/><polygon class="cls-11" points="41.15 41.36 34.28 45.33 34.28 36.17 41.15 32.2 41.15 41.36"/><polygon class="cls-11" points="27.4 41.36 34.28 45.33 34.28 36.17 27.4 32.2 27.4 41.36"/><polygon class="cls-12" points="34.28 28.23 27.4 32.2 27.4 41.36 34.28 45.33 41.15 41.36 41.15 32.2 34.28 28.23"/></g></g></svg>