<svg xmlns="http://www.w3.org/2000/svg" viewBox="0 0 126 126"><defs><style>.cls-1,.cls-12,.cls-13,.cls-14,.cls-16,.cls-19,.cls-2,.cls-3,.cls-4,.cls-5,.cls-7,.cls-8,.cls-9{fill:none;}.cls-1,.cls-2,.cls-4,.cls-5{stroke:#b8bfca;}.cls-1,.cls-12,.cls-13,.cls-14,.cls-16,.cls-2,.cls-3,.cls-4,.cls-5,.cls-7,.cls-8,.cls-9{stroke-linecap:round;stroke-linejoin:round;stroke-width:2px;}.cls-2{stroke-dasharray:0 6.23;}.cls-3{stroke:#d5dae0;}.cls-4{stroke-dasharray:0 5.84;}.cls-5{stroke-dasharray:0 6.43;}.cls-6{fill:#fff;}.cls-7,.cls-8,.cls-9{stroke:#1b6dc6;}.cls-8{stroke-dasharray:0 6.76;}.cls-9{stroke-dasharray:0 7.11;}.cls-10{fill:#d5dae0;}.cls-11{fill:#f2f4f6;}.cls-12{stroke:#627386;}.cls-13{stroke:#fff;}.cls-14{stroke:#bde4fd;}.cls-15{fill:#bde4fd;}.cls-16{stroke:#91d2fb;}.cls-17{fill:#d3edfd;}.cls-18{fill:#1b6dc6;}</style></defs><title>edges(1x1)</title><g id="Layer_2" data-name="Layer 2"><g id="Illustrations"><line class="cls-1" x1="10.01" y1="60.62" x2="10.01" y2="60.62"/><line class="cls-2" x1="15.07" y1="63.54" x2="37.84" y2="76.69"/><line class="cls-1" x1="40.37" y1="78.15" x2="40.37" y2="78.15"/><polyline class="cls-3" points="7.04 62.34 5.42 57.97 12.98 58.91 10.01 60.62 7.04 62.34"/><line class="cls-1" x1="115.99" y1="60.62" x2="115.99" y2="60.62"/><line class="cls-2" x1="110.93" y1="63.54" x2="88.16" y2="76.69"/><line class="cls-1" x1="85.63" y1="78.15" x2="85.63" y2="78.15"/><polyline class="cls-3" points="118.96 62.34 120.58 57.97 113.02 58.91 115.99 60.62 118.96 62.34"/><line class="cls-1" x1="115.99" y1="122.35" x2="115.99" y2="122.35"/><line class="cls-4" x1="111.25" y1="119.61" x2="85.18" y2="104.56"/><line class="cls-1" x1="82.81" y1="103.19" x2="82.81" y2="103.19"/><line class="cls-1" x1="10.01" y1="122.35" x2="10.01" y2="122.35"/><line class="cls-5" x1="15.23" y1="119.33" x2="38.74" y2="105.76"/><line class="cls-1" x1="41.35" y1="104.25" x2="41.35" y2="104.25"/><path class="cls-6" d="M95.81,75.28v0Z"/><line class="cls-7" x1="95.81" y1="75.28" x2="95.81" y2="75.28"/><line class="cls-7" x1="95.81" y1="69.46" x2="95.81" y2="69.46"/><line class="cls-8" x1="95.81" y1="62.7" x2="95.81" y2="45.8"/><line class="cls-7" x1="95.81" y1="42.42" x2="95.81" y2="42.42"/><line class="cls-7" x1="95.81" y1="40.39" x2="95.81" y2="40.39"/><path class="cls-6" d="M30.19,77v0Z"/><line class="cls-7" x1="30.19" y1="77.03" x2="30.19" y2="77.03"/><line class="cls-7" x1="30.19" y1="71.22" x2="30.19" y2="71.22"/><line class="cls-9" x1="30.19" y1="64.11" x2="30.19" y2="53.45"/><line class="cls-7" x1="30.19" y1="49.89" x2="30.19" y2="49.89"/><line class="cls-7" x1="30.19" y1="42.14" x2="30.19" y2="42.14"/><path class="cls-6" d="M93.66,77.9l-28-16.18a1.38,1.38,0,0,0-1.41-.11h0L30.92,80.83l30.86,28.53,33.3-19.22h0a1.91,1.91,0,0,0,.76-1.74V82a5.15,5.15,0,0,0-2.17-4.12"/><path class="cls-7" d="M93.66,77.9l-28-16.18a1.38,1.38,0,0,0-1.41-.11h0L30.92,80.83l30.86,28.53,33.3-19.22h0a1.91,1.91,0,0,0,.76-1.74V82A5.15,5.15,0,0,0,93.66,77.9Z"/><path class="cls-10" d="M95.07,90.13a1.91,1.91,0,0,0,.76-1.74V82a5.49,5.49,0,0,0-1.49-3.58L54.87,101.23,57,105l4.74,4.38,33.3-19.22Z"/><path class="cls-7" d="M93.66,77.9l-28-16.18a1.38,1.38,0,0,0-1.41-.11h0L30.92,80.83l30.86,28.53,33.3-19.22h0a1.91,1.91,0,0,0,.76-1.74V82A5.15,5.15,0,0,0,93.66,77.9Z"/><path class="cls-11" d="M32.33,93.07l28,16.18c1.2.69,2.16,0,2.16-1.63v-6.37a5.16,5.16,0,0,0-2.16-4.13l-28-16.18c-1.19-.69-2.16,0-2.16,1.63v6.37a5.19,5.19,0,0,0,2.16,4.13"/><path class="cls-1" d="M62.52,104v-2.72a5.16,5.16,0,0,0-2.16-4.13L35.07,82.52"/><path class="cls-12" d="M93.67,77.9l-28-16.18a1.38,1.38,0,0,0-1.41-.11h0L30.92,80.83h0a1.88,1.88,0,0,0-.76,1.73v6.37a5.19,5.19,0,0,0,2.16,4.13l28,16.18a1.37,1.37,0,0,0,1.41.1h0l33.3-19.22h0a1.91,1.91,0,0,0,.76-1.74V82A5.17,5.17,0,0,0,93.67,77.9Z"/><line class="cls-13" x1="67.36" y1="100.82" x2="68.12" y2="100.38"/><line class="cls-13" x1="84.05" y1="91.18" x2="90.32" y2="87.56"/><line class="cls-1" x1="45.18" y1="94.42" x2="47.52" y2="95.77"/><path class="cls-14" d="M70.78,79.72c0,2.31-3.25,4.19-7.27,4.19S56.25,82,56.25,79.72s3.25-4.2,7.26-4.2S70.78,77.4,70.78,79.72Z"/><path class="cls-6" d="M93.66,65.77l-28-16.18a1.4,1.4,0,0,0-1.41-.11h0L30.92,68.7,61.78,97.23,95.08,78h0a1.9,1.9,0,0,0,.76-1.74V69.9a5.17,5.17,0,0,0-2.17-4.13"/><path class="cls-7" d="M93.66,65.77l-28-16.18a1.4,1.4,0,0,0-1.41-.11h0L30.92,68.7,61.78,97.23,95.08,78h0a1.9,1.9,0,0,0,.76-1.74V69.9A5.17,5.17,0,0,0,93.66,65.77Z"/><path class="cls-10" d="M95.07,78a1.9,1.9,0,0,0,.76-1.74V69.9a5.49,5.49,0,0,0-1.49-3.59L54.87,89.1,57,92.85l4.74,4.39L95.08,78Z"/><path class="cls-7" d="M93.66,65.77l-28-16.18a1.4,1.4,0,0,0-1.41-.11h0L30.92,68.7,61.78,97.23,95.08,78h0a1.9,1.9,0,0,0,.76-1.74V69.9A5.17,5.17,0,0,0,93.66,65.77Z"/><path class="cls-11" d="M32.33,80.94l28,16.18c1.2.69,2.16,0,2.16-1.63V89.12A5.13,5.13,0,0,0,60.36,85l-28-16.19c-1.19-.68-2.16,0-2.16,1.64v6.36a5.19,5.19,0,0,0,2.16,4.13"/><path class="cls-1" d="M62.52,91.85V89.12A5.14,5.14,0,0,0,60.36,85L35.07,70.39"/><path class="cls-12" d="M93.67,65.77l-28-16.18a1.4,1.4,0,0,0-1.41-.11h0L30.92,68.7h0a1.9,1.9,0,0,0-.76,1.74v6.36a5.19,5.19,0,0,0,2.16,4.13l28,16.18a1.4,1.4,0,0,0,1.41.11h0L95.08,78h0a1.9,1.9,0,0,0,.76-1.74V69.9A5.19,5.19,0,0,0,93.67,65.77Z"/><line class="cls-13" x1="67.36" y1="88.69" x2="68.12" y2="88.25"/><line class="cls-13" x1="84.05" y1="79.05" x2="90.32" y2="75.44"/><line class="cls-1" x1="45.18" y1="82.29" x2="47.52" y2="83.65"/><path class="cls-1" d="M70.78,67.59c0,2.32-3.25,4.2-7.27,4.2s-7.26-1.88-7.26-4.2,3.25-4.2,7.26-4.2S70.78,65.27,70.78,67.59Z"/><line class="cls-13" x1="67.36" y1="47.31" x2="68.12" y2="46.86"/><path class="cls-7" d="M75.05,1.21a2.2,2.2,0,0,1,2.92,1l7.61,16.07,7.54,15.86c.3.64-.34,1.57-1.44,2.09s-2.23.43-2.53-.2L81.62,20.21,74,4.14A2.2,2.2,0,0,1,75.05,1.21Z"/><path class="cls-6" d="M75.05,1.21a2.2,2.2,0,0,1,2.92,1l7.61,16.07,7.54,15.86c.3.64-.34,1.57-1.44,2.09s-2.23.43-2.53-.2L81.62,20.21,74,4.14a2.2,2.2,0,0,1,1-2.93"/><path class="cls-7" d="M75.05,1.21a2.2,2.2,0,0,1,2.92,1l7.61,16.07,7.54,15.86c.3.64-.34,1.57-1.44,2.09s-2.23.43-2.53-.2L81.62,20.21,74,4.14A2.2,2.2,0,0,1,75.05,1.21Z"/><path class="cls-15" d="M91.68,36.27h0c1.1-.52,1.74-1.45,1.44-2.09L85.58,18.32,78.2,2.75a1.1,1.1,0,0,0-2,.94Z"/><path class="cls-16" d="M85.86,18.8c.31.66-.35,1.63-1.49,2.17s-2.31.44-2.62-.21"/><path class="cls-7" d="M75.05,1.21a2.2,2.2,0,0,1,2.92,1l7.61,16.07,7.54,15.86c.3.64-.34,1.57-1.44,2.09s-2.23.43-2.53-.2L81.62,20.21,74,4.14A2.2,2.2,0,0,1,75.05,1.21Z"/><path class="cls-6" d="M93.66,31.93l-28-16.18a1.37,1.37,0,0,0-1.41-.1h0L30.92,34.86,61.78,63.4l33.3-19.23h0a1.88,1.88,0,0,0,.76-1.74V36.06a5.17,5.17,0,0,0-2.17-4.13"/><path class="cls-7" d="M93.66,31.93l-28-16.18a1.37,1.37,0,0,0-1.41-.1h0L30.92,34.86,61.78,63.4l33.3-19.23h0a1.88,1.88,0,0,0,.76-1.74V36.06A5.17,5.17,0,0,0,93.66,31.93Z"/><path class="cls-15" d="M95.07,44.16a1.88,1.88,0,0,0,.76-1.74V36.06a5.49,5.49,0,0,0-1.49-3.59L54.87,55.26,57,59l4.74,4.38,33.3-19.23Z"/><path class="cls-7" d="M93.66,31.93l-28-16.18a1.37,1.37,0,0,0-1.41-.1h0L30.92,34.86,61.78,63.4l33.3-19.23h0a1.88,1.88,0,0,0,.76-1.74V36.06A5.17,5.17,0,0,0,93.66,31.93Z"/><path class="cls-17" d="M32.33,47.1l28,16.18c1.2.69,2.16,0,2.16-1.63V55.29a5.16,5.16,0,0,0-2.16-4.13L32.33,35c-1.19-.69-2.16,0-2.16,1.63V43a5.17,5.17,0,0,0,2.16,4.13"/><path class="cls-16" d="M62.52,58V55.29a5.16,5.16,0,0,0-2.16-4.13L35.07,36.55"/><path class="cls-7" d="M93.67,31.93l-28-16.18a1.37,1.37,0,0,0-1.41-.1h0L30.92,34.86h0a1.91,1.91,0,0,0-.76,1.74V43a5.17,5.17,0,0,0,2.16,4.13l28,16.18a1.4,1.4,0,0,0,1.41.11h0l33.3-19.23h0a1.88,1.88,0,0,0,.76-1.74V36.06A5.19,5.19,0,0,0,93.67,31.93Z"/><line class="cls-13" x1="84.05" y1="45.22" x2="90.32" y2="41.6"/><line class="cls-18" x1="45.18" y1="48.45" x2="47.52" y2="49.81"/><line class="cls-16" x1="45.18" y1="48.45" x2="47.52" y2="49.81"/><path class="cls-14" d="M70.78,33.75c0,2.32-3.25,4.2-7.27,4.2s-7.26-1.88-7.26-4.2,3.25-4.19,7.26-4.19S70.78,31.43,70.78,33.75Z"/><polyline class="cls-3" points="118.96 120.63 120.58 125 113.02 124.06 115.99 122.35 118.96 120.63"/><polyline class="cls-3" points="7.04 120.63 5.42 125 12.98 124.06 10.01 122.35 7.04 120.63"/><rect class="cls-19" width="126" height="126"/></g></g></svg>