<svg xmlns="http://www.w3.org/2000/svg" viewBox="0 0 126 126"><defs><style>.cls-1,.cls-11,.cls-3,.cls-4,.cls-7,.cls-8,.cls-9{fill:none;}.cls-2{fill:#d5dae0;}.cls-3{stroke:#b8bfca;}.cls-11,.cls-3,.cls-4,.cls-7,.cls-8,.cls-9{stroke-linecap:round;stroke-linejoin:round;stroke-width:2px;}.cls-4{stroke:#627386;}.cls-5{fill:#fff;}.cls-6{fill:#f2f4f6;}.cls-7,.cls-8,.cls-9{stroke:#1b6dc6;}.cls-8{stroke-dasharray:0 5.73;}.cls-9{stroke-dasharray:0 5.89;}.cls-10{fill:#bde4fd;}.cls-11{stroke:#91d2fb;}.cls-12{fill:#91d2fb;}</style></defs><title>functions(1x1)</title><g id="Layer_2" data-name="Layer 2"><g id="Illustrations"><rect class="cls-1" width="126" height="126"/><path class="cls-2" d="M124.37,89.09l-34-18h0l-34-21.3a3.37,3.37,0,0,0-3.06,0L24.47,66.49a2.21,2.21,0,0,1-1.75.1l-2.21-.85a4.7,4.7,0,0,0-3.76.21L3.08,73.84c-1,.58-1.16,1.49-.37,2.17L4.2,77.29c.36.31.29.73-.17,1l-2.4,1.39a.93.93,0,0,0,0,1.76l34,21.31h0l34,18a3.37,3.37,0,0,0,3.06,0l51.68-29.84A.94.94,0,0,0,124.37,89.09Z"/><line class="cls-3" x1="35.63" y1="102.75" x2="90.37" y2="71.14"/><path class="cls-4" d="M124.37,89.09l-34-18h0l-34-21.3a3.37,3.37,0,0,0-3.06,0L24.47,66.49a2.21,2.21,0,0,1-1.75.1l-2.21-.85a4.7,4.7,0,0,0-3.76.21L3.08,73.84c-1,.58-1.16,1.49-.37,2.17L4.2,77.29c.36.31.29.73-.17,1l-2.4,1.39a.93.93,0,0,0,0,1.76l34,21.31h0l34,18a3.37,3.37,0,0,0,3.06,0l51.68-29.84A.94.94,0,0,0,124.37,89.09Z"/><polygon class="cls-5" points="39.9 92.91 72.78 109.08 118.63 82.61 85.75 66.44 39.9 92.91"/><polygon class="cls-4" points="39.9 92.91 72.78 109.08 118.63 82.61 85.75 66.44 39.9 92.91"/><polygon class="cls-2" points="72.78 115.64 72.78 109.08 118.63 82.61 118.63 89.17 72.78 115.64"/><polygon class="cls-3" points="72.78 115.64 72.78 109.08 118.63 82.61 118.63 89.17 72.78 115.64"/><polygon class="cls-6" points="72.78 115.64 72.78 109.08 39.9 92.91 39.9 99.47 72.78 115.64"/><polygon class="cls-3" points="72.78 115.64 72.78 109.08 39.9 92.91 39.9 99.47 72.78 115.64"/><polygon class="cls-6" points="114 85.28 81.13 69.11 85.75 66.44 118.63 82.61 114 85.28"/><polygon class="cls-3" points="114 85.28 81.13 69.11 85.75 66.44 118.63 82.61 114 85.28"/><line class="cls-7" x1="118.63" y1="39.3" x2="118.63" y2="39.3"/><line class="cls-8" x1="118.63" y1="33.58" x2="118.63" y2="7.8"/><line class="cls-7" x1="118.63" y1="4.94" x2="118.63" y2="4.94"/><line class="cls-7" x1="39.9" y1="46.79" x2="39.9" y2="46.79"/><line class="cls-9" x1="39.9" y1="40.9" x2="39.9" y2="14.39"/><line class="cls-7" x1="39.9" y1="11.44" x2="39.9" y2="11.44"/><polygon class="cls-5" points="39.9 46.79 72.78 65.78 118.63 39.3 85.75 20.32 39.9 46.79"/><polygon class="cls-10" points="114 41.98 81.13 22.99 85.75 20.32 118.63 39.3 114 41.98"/><polygon class="cls-11" points="114 41.98 81.13 22.99 85.75 20.32 118.63 39.3 114 41.98"/><path class="cls-12" d="M74.1,51.92a2.12,2.12,0,0,1,2.13.08l.42.24a3.38,3.38,0,0,0,3.16-.17l4.26-2.46A4.27,4.27,0,0,1,87.21,49c-.44-.63.05-1.26,1-1.82l4.27-2.47c1-.6,1.07-1.36.28-1.81l-.41-.24c-.79-.46-.7-.91-.14-1.23a2.09,2.09,0,0,1,2.1.09l.42.24c1.85,1.07,2.17,2.89-.12,4.21l-3.95,2.28c-.56.32-1,.71-.79,1.09s.28.75-.25,1.06a2.58,2.58,0,0,1-1.83.14,3,3,0,0,0-1.89.46l-4,2.29a7.8,7.8,0,0,1-7.26.06l-.41-.24c-.79-.46-.7-.91-.17-1.22"/><path class="cls-12" d="M66.49,37.06a2.5,2.5,0,0,1,1.82-.15,3,3,0,0,0,1.9-.45l4-2.28a7.84,7.84,0,0,1,7.28-.07l.42.24c.78.46.69.91.16,1.22a2.12,2.12,0,0,1-2.13-.08l-.41-.24a3.35,3.35,0,0,0-3.15.16l-4.27,2.47a4.28,4.28,0,0,1-3.15.58c.44.63,0,1.26-1,1.82l-4.26,2.45c-1,.6-1.08,1.38-.3,1.83l.42.24c.79.46.69.91.14,1.23a2.11,2.11,0,0,1-2.11-.09l-.41-.24c-1.85-1.07-2.2-2.87.09-4.19l4-2.3c.55-.32.94-.71.78-1.09s-.27-.75.26-1.06"/><path class="cls-2" d="M75,96.3a2,2,0,0,1,2,.08l.4.23a3.28,3.28,0,0,0,3-.17l4.08-2.36a4.2,4.2,0,0,1,3-.56c-.42-.6.05-1.2,1-1.74l4.1-2.37c1-.58,1-1.31.27-1.75l-.4-.23c-.75-.43-.66-.87-.13-1.17a2,2,0,0,1,2,.08l.4.23c1.77,1,2.08,2.77-.12,4L90.9,92.8c-.53.31-.91.68-.76,1s.27.72-.24,1a2.47,2.47,0,0,1-1.75.14,2.87,2.87,0,0,0-1.82.43l-3.82,2.21a7.53,7.53,0,0,1-7,0l-.4-.23c-.75-.44-.66-.87-.15-1.17"/><path class="cls-2" d="M67.67,82a2.5,2.5,0,0,1,1.76-.14,3,3,0,0,0,1.82-.43L75,79.26a7.57,7.57,0,0,1,7-.06l.4.23c.76.44.67.87.16,1.17a2,2,0,0,1-2-.08l-.4-.23a3.23,3.23,0,0,0-3,.15L73,82.81a4.14,4.14,0,0,1-3,.57c.43.6,0,1.2-1,1.74l-4.09,2.36c-1,.57-1,1.32-.28,1.75l.39.23c.76.44.67.88.14,1.18a2,2,0,0,1-2-.09l-.4-.23c-1.78-1-2.11-2.75.09-4l3.81-2.2c.54-.31.91-.68.76-1.06s-.27-.71.24-1"/><polygon class="cls-4" points="118.63 82.61 85.75 66.44 85.75 66.44 85.75 66.44 81.13 69.11 81.13 69.11 39.91 92.91 39.9 92.91 39.9 92.91 39.9 92.91 39.9 92.91 39.9 99.47 72.78 115.64 118.63 89.17 118.63 82.61 118.63 82.61"/><polygon class="cls-7" points="39.9 46.79 72.78 65.78 118.63 39.3 85.75 20.32 39.9 46.79"/></g></g></svg>