<svg xmlns="http://www.w3.org/2000/svg" xmlns:xlink="http://www.w3.org/1999/xlink" viewBox="0 0 126 126"><defs><style>.cls-1,.cls-11,.cls-12,.cls-6,.cls-7{fill:none;}.cls-2{fill:#f2f4f6;}.cls-2,.cls-7{stroke:#627386;}.cls-10,.cls-11,.cls-12,.cls-2,.cls-6,.cls-7,.cls-9{stroke-linecap:round;stroke-linejoin:round;stroke-width:2px;}.cls-3{fill:#d5dae0;}.cls-10,.cls-4{fill:#fff;}.cls-5{clip-path:url(#clip-path);}.cls-6{stroke:#b8bfca;}.cls-8{fill:#e9f6fe;}.cls-9{fill:#bde4fd;}.cls-10,.cls-9{stroke:#91d2fb;}.cls-11,.cls-12{stroke:#1b6dc6;}.cls-12{stroke-dasharray:0 6.49;}</style><clipPath id="clip-path"><path class="cls-1" d="M117.44,82.92,65.62,53a5.82,5.82,0,0,0-5.24,0L8.56,82.92c-1.45.84-1.45,2.19,0,3l51.82,29.92a5.76,5.76,0,0,0,5.24,0l51.82-29.92C118.89,85.11,118.89,83.76,117.44,82.92Zm-46.1,6.33L59.89,95.86l-4.2-9-4.19-9,15.65,2.43L82.8,82.64Z"/></clipPath></defs><title>integration(1x1)</title><g id="Layer_2" data-name="Layer 2"><g id="Illustrations"><rect class="cls-1" width="126" height="126"/><path class="cls-2" d="M118.52,84.43l-3.44,1.64L65.62,57.5a5.82,5.82,0,0,0-5.24,0L10.91,86.07,7.48,84.43v8.51h0a1.82,1.82,0,0,0,1.08,1.51l51.82,29.92a5.76,5.76,0,0,0,5.24,0l51.82-29.92a1.82,1.82,0,0,0,1.08-1.51h0Zm-51.37.29L82.8,87.14,71.34,93.75l-11.45,6.62-4.2-9-4.19-9Z"/><path class="cls-3" d="M63.64,125a5,5,0,0,0,2-.6l51.82-29.92a1.82,1.82,0,0,0,1.08-1.51V84.43l-3.44,1.64-8.34-4.82L63.64,104Z"/><polygon class="cls-3" points="51.5 85.3 67.15 87.72 82.8 90.14 76.83 93.59 87.9 93.59 87.9 76.22 46.25 76.22 46.25 93.59 55.35 93.59 51.5 85.3"/><path class="cls-4" d="M117.44,82.92,65.62,53a5.82,5.82,0,0,0-5.24,0L8.56,82.92c-1.45.84-1.45,2.19,0,3l51.82,29.92a5.76,5.76,0,0,0,5.24,0l51.82-29.92C118.89,85.11,118.89,83.76,117.44,82.92Zm-46.1,6.33L59.89,95.86l-4.2-9-4.19-9,15.65,2.43L82.8,82.64Z"/><path class="cls-6" d="M117.44,82.92,65.62,53a5.82,5.82,0,0,0-5.24,0L8.56,82.92c-1.45.84-1.45,2.19,0,3l51.82,29.92a5.76,5.76,0,0,0,5.24,0l51.82-29.92C118.89,85.11,118.89,83.76,117.44,82.92Z"/><path class="cls-7" d="M117.44,82.92,65.62,53a5.82,5.82,0,0,0-5.24,0L8.56,82.92a1.85,1.85,0,0,0-1.08,1.51v8.51a1.82,1.82,0,0,0,1.08,1.51l51.82,29.92a5.76,5.76,0,0,0,5.24,0l51.82-29.92a1.82,1.82,0,0,0,1.08-1.51V84.43A1.85,1.85,0,0,0,117.44,82.92Zm-46.1,6.33L59.89,95.86l-4.2-9-.43-1,11.89,1.84,5.39.84Z"/><polygon class="cls-7" points="71.34 89.25 59.89 95.86 55.69 86.83 51.5 77.8 67.15 80.22 82.8 82.64 71.34 89.25"/><polyline class="cls-8" points="51.5 20.47 51.5 29.01 59.89 47.08 59.89 38.54 51.5 20.47"/><polyline class="cls-9" points="82.8 25.31 82.8 33.85 59.89 47.08 59.89 38.54 82.8 25.31"/><polygon class="cls-10" points="71.34 31.92 59.89 38.54 55.69 29.5 51.5 20.47 67.15 22.89 82.8 25.31 71.34 31.92"/><polygon class="cls-11" points="67.15 22.89 51.5 20.47 51.5 20.47 51.5 29.01 59.89 47.08 82.8 33.85 82.8 25.31 67.15 22.89"/><line class="cls-11" x1="51.5" y1="20.47" x2="51.5" y2="20.47"/><line class="cls-12" x1="51.5" y1="13.98" x2="51.5" y2="4.24"/><line class="cls-11" x1="51.5" y1="1" x2="51.5" y2="1"/><line class="cls-11" x1="82.8" y1="25.31" x2="82.8" y2="25.31"/><line class="cls-12" x1="82.8" y1="18.82" x2="82.8" y2="9.09"/><line class="cls-11" x1="82.8" y1="5.84" x2="82.8" y2="5.84"/></g></g></svg>