<svg xmlns="http://www.w3.org/2000/svg" viewBox="0 0 126 126"><defs><style>.cls-1,.cls-4{fill:#fff;}.cls-1,.cls-2,.cls-3,.cls-8{stroke:#b8bfca;}.cls-1,.cls-2,.cls-3,.cls-4,.cls-5,.cls-6,.cls-7,.cls-8,.cls-9{stroke-linecap:round;stroke-linejoin:round;stroke-width:2px;}.cls-10,.cls-2,.cls-5,.cls-6,.cls-9{fill:none;}.cls-3{fill:#f2f4f6;}.cls-4,.cls-7{stroke:#faabab;}.cls-5,.cls-6{stroke:#c44556;}.cls-6{stroke-dasharray:0 5.37;}.cls-7{fill:#fccccc;}.cls-8{fill:#d5dae0;}.cls-9{stroke:#627386;}</style></defs><title>licenses_error(1x1)</title><g id="Layer_2" data-name="Layer 2"><g id="Illustrations"><polygon class="cls-1" points="116.17 96.58 72.13 122 9.83 86.03 53.87 60.61 116.17 96.58"/><line class="cls-2" x1="15.99" y1="80.14" x2="15.99" y2="89.59"/><polygon class="cls-1" points="72.13 122 72.13 112.55 9.83 76.58 9.83 86.03 72.13 122"/><polygon class="cls-3" points="72.13 122 72.13 112.55 116.17 87.13 116.17 96.58 72.13 122"/><polygon class="cls-2" points="72.13 122 72.13 112.55 116.17 87.13 116.17 96.58 72.13 122"/><polygon class="cls-2" points="72.13 122 72.13 112.55 9.83 76.58 9.83 86.03 72.13 122"/><polygon class="cls-1" points="116.17 87.13 72.13 112.55 9.83 76.58 53.87 51.16 116.17 87.13"/><polygon class="cls-3" points="60.03 54.71 15.99 80.14 9.83 76.58 53.87 51.16 60.03 54.71"/><polygon class="cls-2" points="116.17 87.13 72.13 112.55 9.83 76.58 53.87 51.16 116.17 87.13"/><path class="cls-4" d="M70,74.09a7.8,7.8,0,0,0-5.72-.53c-.65-1.14-2.5-2-4.69-2s-4,.82-4.69,2a7.77,7.77,0,0,0-5.71.53c-1.55.89-1.86,2.23-.92,3.3-2,.37-3.4,1.44-3.4,2.7s1.43,2.34,3.4,2.71c-.94,1.07-.63,2.41.92,3.3a7.82,7.82,0,0,0,5.71.53c.65,1.14,2.5,2,4.69,2s4-.82,4.69-2A7.85,7.85,0,0,0,70,86.1c1.54-.89,1.85-2.23.91-3.3,2-.37,3.4-1.44,3.4-2.71s-1.43-2.33-3.4-2.7C71.82,76.32,71.51,75,70,74.09ZM61.79,83.2a8.18,8.18,0,0,0-4.46,0,3.14,3.14,0,0,0-1.2-1.13,6.63,6.63,0,0,0-2-.69,1.94,1.94,0,0,0,.53-1.29,1.92,1.92,0,0,0-.53-1.28,6.37,6.37,0,0,0,2-.7A3,3,0,0,0,57.33,77a8.18,8.18,0,0,0,4.46,0A3,3,0,0,0,63,78.11a6.33,6.33,0,0,0,2,.7,1.93,1.93,0,0,0-.54,1.28A2,2,0,0,0,65,81.38a6.59,6.59,0,0,0-2,.69A3.14,3.14,0,0,0,61.79,83.2Z"/><polygon class="cls-4" points="83.01 87.91 88.84 87.04 69.5 80.59 66.18 83.92 63.9 84.67 60.42 85.83 66.01 91.42 71.59 97 72.62 93.39 78.55 94.68 72.96 89.1 69.97 86.1 84.83 91.06 83.01 87.91"/><path class="cls-4" d="M71.06,81.88a2.12,2.12,0,0,1,.29.61.19.19,0,0,0,.24.14c1.59-.47,2.69-1.43,2.69-2.54h0a.19.19,0,0,0-.35-.1,4.55,4.55,0,0,1-2.76,1.6A.19.19,0,0,0,71.06,81.88Z"/><path class="cls-4" d="M70,74.09a7.8,7.8,0,0,0-5.72-.53c-.65-1.14-2.5-2-4.69-2s-4,.82-4.69,2a7.77,7.77,0,0,0-5.71.53c-1.55.89-1.86,2.23-.92,3.3-2,.37-3.4,1.44-3.4,2.7s1.43,2.34,3.4,2.71c-.94,1.07-.63,2.41.92,3.3a7.82,7.82,0,0,0,5.71.53c.65,1.14,2.5,2,4.69,2s4-.82,4.69-2A7.85,7.85,0,0,0,70,86.1c1.54-.89,1.85-2.23.91-3.3,2-.37,3.4-1.44,3.4-2.71s-1.43-2.33-3.4-2.7C71.82,76.32,71.51,75,70,74.09Z"/><ellipse class="cls-4" cx="59.56" cy="79.91" rx="6.65" ry="3.84"/><line class="cls-5" x1="116.17" y1="4" x2="116.17" y2="4"/><line class="cls-6" x1="116.17" y1="9.37" x2="116.17" y2="17.44"/><line class="cls-5" x1="116.17" y1="20.12" x2="116.17" y2="20.12"/><line class="cls-5" x1="67" y1="4" x2="67" y2="4"/><line class="cls-6" x1="67" y1="9.37" x2="67" y2="17.44"/><line class="cls-5" x1="67" y1="20.12" x2="67" y2="20.12"/><polygon class="cls-7" points="116.17 26.12 98.75 26.12 98.75 16.07 84.42 16.07 84.42 26.12 67 26.12 67 38.39 84.42 38.39 84.42 48.45 98.75 48.45 98.75 38.39 116.17 38.39 116.17 26.12"/><polygon class="cls-4" points="116.17 20.12 98.75 20.12 98.75 10.06 84.42 10.06 84.42 20.12 67 20.12 67 28.39 84.42 28.39 84.42 38.45 98.75 38.45 98.75 28.39 116.17 28.39 116.17 20.12"/><polygon class="cls-5" points="98.75 20.12 98.75 16.07 98.75 10.06 84.42 10.06 84.42 16.07 84.42 20.12 67 20.12 67 26.12 67 28.39 67 38.39 84.42 38.39 84.42 38.45 84.42 48.45 98.75 48.45 98.75 38.45 98.75 38.39 116.17 38.39 116.17 28.39 116.17 26.12 116.17 20.12 98.75 20.12"/><polygon class="cls-8" points="15.99 80.14 9.83 76.58 9.83 86.03 15.99 89.59 15.99 80.14"/><polygon class="cls-9" points="53.87 51.16 9.83 76.58 9.83 86.03 72.13 122 116.17 96.58 116.17 87.13 53.87 51.16"/><rect class="cls-10" width="126" height="126"/></g></g></svg>