<svg xmlns="http://www.w3.org/2000/svg" viewBox="0 0 126 126"><defs><style>.cls-1{isolation:isolate;}.cls-2{fill:#f2f4f6;}.cls-10,.cls-11,.cls-2,.cls-3,.cls-4,.cls-7,.cls-8,.cls-9{stroke:#b8bfca;}.cls-10,.cls-11,.cls-12,.cls-13,.cls-14,.cls-15,.cls-2,.cls-3,.cls-4,.cls-5,.cls-7,.cls-8,.cls-9{stroke-linecap:round;stroke-linejoin:round;stroke-width:2px;}.cls-13,.cls-3{fill:#fff;}.cls-4{fill:#d5dae0;}.cls-10,.cls-11,.cls-15,.cls-16,.cls-5,.cls-7,.cls-8,.cls-9{fill:none;}.cls-5{stroke:#627386;}.cls-6,.cls-9{mix-blend-mode:darken;}.cls-8{stroke-dasharray:0 5.8;}.cls-10{stroke-dasharray:0 5.8;}.cls-11{stroke-dasharray:0 5.7;}.cls-12{fill:#e9f6fe;}.cls-12,.cls-13,.cls-14{stroke:#91d2fb;}.cls-14{fill:#bde4fd;}.cls-15{stroke:#1b6dc6;}</style></defs><title>network(1x1)</title><g class="cls-1"><g id="Layer_2" data-name="Layer 2"><g id="Illustrations"><polygon class="cls-2" points="113.23 92 98.17 100.69 83.11 92 83.11 74.61 98.17 65.91 113.23 74.61 113.23 92"/><polygon class="cls-3" points="113.23 74.61 98.17 83.3 83.11 74.61 83.11 74.61 98.17 65.91 113.23 74.61 113.23 74.61"/><polygon class="cls-4" points="98.17 83.3 98.17 100.69 113.23 92 113.23 74.61 98.17 83.3"/><polygon class="cls-5" points="98.17 65.91 83.11 74.61 83.11 92 98.17 100.69 113.23 92 113.23 74.61 98.17 65.91"/><polygon class="cls-2" points="113.23 51.39 98.17 60.09 83.11 51.39 83.11 34 98.17 25.3 113.23 34 113.23 51.39"/><polygon class="cls-3" points="113.23 34 98.17 42.7 83.11 34 83.11 34 98.17 25.3 113.23 34 113.23 34"/><polygon class="cls-4" points="98.17 42.7 98.17 60.09 113.23 51.39 113.23 34 98.17 42.7"/><polygon class="cls-5" points="98.17 25.3 83.11 34 83.11 51.39 98.17 60.09 113.23 51.39 113.23 34 98.17 25.3"/><polygon class="cls-2" points="78.06 31.09 63 39.78 47.94 31.09 47.94 13.7 63 5 78.06 13.7 78.06 31.09"/><polygon class="cls-3" points="78.06 13.7 63 22.39 47.94 13.7 47.94 13.7 63 5 78.06 13.7 78.06 13.7"/><polygon class="cls-4" points="63 22.39 63 39.78 78.06 31.09 78.06 13.7 63 22.39"/><polygon class="cls-5" points="63 5 47.94 13.7 47.94 31.09 63 39.78 78.06 31.09 78.06 13.7 63 5"/><polygon class="cls-2" points="42.89 51.39 27.83 60.09 12.77 51.39 12.77 34 27.83 25.3 42.89 34 42.89 51.39"/><polygon class="cls-3" points="42.89 34 27.83 42.7 12.77 34 12.77 34 27.83 25.3 42.89 34 42.89 34"/><polygon class="cls-4" points="27.83 42.7 27.83 60.09 42.89 51.39 42.89 34 27.83 42.7"/><polygon class="cls-5" points="27.83 25.3 12.77 34 12.77 51.39 27.83 60.09 42.89 51.39 42.89 34 27.83 25.3"/><polygon class="cls-2" points="42.89 92 27.83 100.7 12.77 92 12.77 74.61 27.83 65.91 42.89 74.61 42.89 92"/><polygon class="cls-3" points="42.89 74.61 27.83 83.31 12.77 74.61 12.77 74.61 27.83 65.91 42.89 74.61 42.89 74.61"/><polygon class="cls-4" points="27.83 83.31 27.83 100.7 42.89 92 42.89 74.61 27.83 83.31"/><polygon class="cls-5" points="27.83 65.91 12.77 74.61 12.77 92 27.83 100.7 42.89 92 42.89 74.61 27.83 65.91"/><polygon class="cls-2" points="78.06 112.3 63 121 47.94 112.3 47.94 94.91 63 86.22 78.06 94.91 78.06 112.3"/><polygon class="cls-3" points="78.06 94.91 63 103.61 47.94 94.91 47.94 94.91 63 86.22 78.06 94.91 78.06 94.91"/><polygon class="cls-4" points="63 103.61 63 121 78.06 112.3 78.06 94.91 63 103.61"/><polygon class="cls-5" points="63 86.22 47.94 94.91 47.94 112.3 63 121 78.06 112.3 78.06 94.91 63 86.22"/><g class="cls-6"><line class="cls-7" x1="63" y1="103.61" x2="63" y2="103.61"/><line class="cls-8" x1="63" y1="97.81" x2="63" y2="89.12"/><line class="cls-7" x1="63" y1="86.22" x2="63" y2="86.22"/></g><line class="cls-9" x1="63" y1="86.22" x2="63" y2="80.39"/><line class="cls-9" x1="63" y1="63" x2="63" y2="39.78"/><line class="cls-9" x1="83.11" y1="34" x2="78.49" y2="31.33"/><line class="cls-9" x1="78.06" y1="94.91" x2="83.11" y2="92"/><line class="cls-9" x1="98.17" y1="65.91" x2="98.17" y2="60.09"/><g class="cls-6"><line class="cls-7" x1="98.17" y1="83.3" x2="98.17" y2="83.3"/><line class="cls-10" x1="98.17" y1="77.51" x2="98.17" y2="68.81"/><line class="cls-7" x1="98.17" y1="65.91" x2="98.17" y2="65.91"/></g><line class="cls-9" x1="83.11" y1="51.39" x2="43.12" y2="74.48"/><line class="cls-9" x1="42.89" y1="34" x2="47.94" y2="31.09"/><line class="cls-9" x1="47.94" y1="94.91" x2="42.89" y2="92"/><g class="cls-6"><line class="cls-7" x1="42.64" y1="91.86" x2="42.64" y2="91.86"/><line class="cls-11" x1="37.71" y1="89.01" x2="30.3" y2="84.73"/><line class="cls-7" x1="27.83" y1="83.3" x2="27.83" y2="83.3"/></g><line class="cls-9" x1="27.83" y1="65.91" x2="27.83" y2="60.09"/><line class="cls-9" x1="42.89" y1="51.39" x2="83.11" y2="74.61"/><polygon class="cls-12" points="78.06 71.7 63 80.39 47.94 71.7 47.94 54.3 63 45.61 78.06 54.3 78.06 71.7"/><polygon class="cls-13" points="78.06 54.3 63 63 47.94 54.3 47.94 54.3 63 45.61 78.06 54.3 78.06 54.3"/><polygon class="cls-14" points="63 63 63 80.39 78.06 71.7 78.06 54.3 63 63"/><polygon class="cls-15" points="63 45.61 47.94 54.3 47.94 71.7 63 80.39 78.06 71.7 78.06 54.3 63 45.61"/><g class="cls-6"><line class="cls-7" x1="27.83" y1="83.3" x2="27.83" y2="83.3"/><line class="cls-10" x1="27.83" y1="77.51" x2="27.83" y2="68.81"/><line class="cls-7" x1="27.83" y1="65.91" x2="27.83" y2="65.91"/></g><g class="cls-6"><line class="cls-7" x1="83.11" y1="92" x2="83.11" y2="92"/><line class="cls-11" x1="88.04" y1="89.15" x2="95.45" y2="84.87"/><line class="cls-7" x1="97.92" y1="83.45" x2="97.92" y2="83.45"/></g><g class="cls-6"><line class="cls-7" x1="42.89" y1="51.39" x2="42.89" y2="51.39"/><line class="cls-11" x1="37.96" y1="48.54" x2="30.55" y2="44.26"/><line class="cls-7" x1="28.08" y1="42.84" x2="28.08" y2="42.84"/></g><g class="cls-6"><line class="cls-7" x1="83.36" y1="51.53" x2="83.36" y2="51.53"/><line class="cls-11" x1="88.29" y1="48.68" x2="95.7" y2="44.41"/><line class="cls-7" x1="98.17" y1="42.98" x2="98.17" y2="42.98"/></g><g class="cls-6"><line class="cls-7" x1="63" y1="22.39" x2="63" y2="22.39"/><line class="cls-11" x1="67.94" y1="25.24" x2="75.34" y2="29.52"/><line class="cls-7" x1="77.81" y1="30.94" x2="77.81" y2="30.94"/></g><g class="cls-6"><line class="cls-7" x1="63" y1="22.39" x2="63" y2="22.39"/><line class="cls-11" x1="58.06" y1="25.24" x2="50.66" y2="29.52"/><line class="cls-7" x1="48.19" y1="30.94" x2="48.19" y2="30.94"/></g><rect class="cls-16" width="126" height="126"/></g></g></g></svg>