<svg xmlns="http://www.w3.org/2000/svg" xmlns:xlink="http://www.w3.org/1999/xlink" viewBox="0 0 126 126"><defs><style>.cls-1,.cls-11,.cls-12,.cls-13,.cls-5,.cls-6{fill:none;}.cls-2,.cls-9{fill:#fff;}.cls-2,.cls-3,.cls-4{stroke:#91d2fb;}.cls-11,.cls-12,.cls-13,.cls-2,.cls-3,.cls-4,.cls-5,.cls-6,.cls-7{stroke-linecap:round;stroke-linejoin:round;stroke-width:2px;}.cls-3{fill:#bde4fd;}.cls-4{fill:#e9f6fe;}.cls-5,.cls-6{stroke:#1b6dc6;}.cls-6{stroke-dasharray:0 6.38;}.cls-7{fill:#f2f4f6;}.cls-13,.cls-7{stroke:#627386;}.cls-8{fill:#d5dae0;}.cls-10{clip-path:url(#clip-path);}.cls-11{stroke:#f2f4f6;}.cls-12{stroke:#b8bfca;}</style><clipPath id="clip-path"><path class="cls-1" d="M116.56,83.6l-51-29.44a5.68,5.68,0,0,0-5.14,0L9.44,83.6c-1.42.82-1.42,2.15,0,3l51,29.44a5.68,5.68,0,0,0,5.14,0l51-29.44C118,85.75,118,84.42,116.56,83.6ZM71.21,89.83l-11.27,6.5-4.13-8.88-4.12-8.89,15.39,2.38,15.4,2.38Z"/></clipPath></defs><title>no_access(1x1)</title><g id="Layer_2" data-name="Layer 2"><g id="Illustrations"><rect class="cls-1" width="126" height="126"/><polygon class="cls-2" points="62.85 11.36 47.62 20.16 47.62 40.46 62.85 31.66 78.08 40.46 78.08 20.16 62.85 11.36"/><polygon class="cls-3" points="78.08 40.46 62.85 49.25 62.85 28.95 78.08 20.16 78.08 40.46"/><polygon class="cls-4" points="47.62 40.46 62.85 49.25 62.85 28.95 47.62 20.16 47.62 40.46"/><line class="cls-5" x1="47.62" y1="20.15" x2="47.62" y2="20.15"/><line class="cls-6" x1="47.62" y1="13.77" x2="47.62" y2="4.19"/><line class="cls-5" x1="47.62" y1="1" x2="47.62" y2="1"/><line class="cls-5" x1="78.07" y1="20.15" x2="78.07" y2="20.15"/><line class="cls-6" x1="78.07" y1="13.77" x2="78.07" y2="4.19"/><line class="cls-5" x1="78.07" y1="1" x2="78.07" y2="1"/><polygon class="cls-5" points="62.85 11.36 47.62 20.16 47.62 40.46 62.85 49.25 78.08 40.46 78.08 20.16 62.85 11.36"/><path class="cls-7" d="M117.63,85.09l-3.39,1.6L65.57,58.59a5.68,5.68,0,0,0-5.14,0L11.75,86.7,8.37,85.09v8.37h0A1.82,1.82,0,0,0,9.44,95l51,29.43a5.62,5.62,0,0,0,5.14,0l51-29.43a1.82,1.82,0,0,0,1.07-1.49h0Zm-50.55.28,15.4,2.38L71.21,94.26l-11.27,6.5-4.13-8.88L51.69,83Z"/><path class="cls-8" d="M63.63,125a5,5,0,0,0,1.94-.59l51-29.43a1.82,1.82,0,0,0,1.07-1.49V85.09l-3.39,1.6L106,82l-42.4,22.43Z"/><polygon class="cls-8" points="51.69 85.94 67.08 88.33 82.48 90.71 76.61 94.1 87.5 94.1 87.5 77.01 46.52 77.01 46.52 94.1 55.47 94.1 51.69 85.94"/><path class="cls-9" d="M116.56,83.6l-51-29.44a5.68,5.68,0,0,0-5.14,0L9.44,83.6c-1.42.82-1.42,2.15,0,3l51,29.44a5.68,5.68,0,0,0,5.14,0l51-29.44C118,85.75,118,84.42,116.56,83.6ZM71.21,89.83l-11.27,6.5-4.13-8.88-4.12-8.89,15.39,2.38,15.4,2.38Z"/><g class="cls-10"><path class="cls-11" d="M8.49,84.57C23.63,80.65,35.29,72.31,43.7,64"/><path class="cls-11" d="M14.89,89.72C41.31,84,58.43,65,66.12,54.48"/><path class="cls-11" d="M23.21,94.53C49.78,89,67.82,70.23,75.88,60.11"/><path class="cls-11" d="M31.67,99.41c26.75-5.49,45.65-24.12,53.86-33.72"/><path class="cls-11" d="M40.31,104.4c27-5.62,46.71-24.27,54.82-33.17"/><path class="cls-11" d="M49.05,109.44c27.42-5.9,47.94-24.78,55.59-32.72"/><path class="cls-11" d="M57.89,114.55C86.42,108.09,108,88.24,114.31,82"/></g><path class="cls-12" d="M116.56,83.6l-51-29.44a5.68,5.68,0,0,0-5.14,0L9.44,83.6c-1.42.82-1.42,2.15,0,3l51,29.44a5.68,5.68,0,0,0,5.14,0l51-29.44C118,85.75,118,84.42,116.56,83.6Z"/><path class="cls-13" d="M116.56,83.6l-51-29.44a5.68,5.68,0,0,0-5.14,0L9.44,83.6a1.82,1.82,0,0,0-1.07,1.49v8.37A1.82,1.82,0,0,0,9.44,95l51,29.43a5.62,5.62,0,0,0,5.14,0l51-29.43a1.82,1.82,0,0,0,1.07-1.49V85.09A1.82,1.82,0,0,0,116.56,83.6ZM71.21,89.83l-11.27,6.5-4.13-8.88-.43-.94,11.7,1.82,5.31.82Z"/><polygon class="cls-13" points="71.21 89.83 59.94 96.33 55.81 87.45 51.69 78.56 67.08 80.94 82.48 83.32 71.21 89.83"/></g></g></svg>