<svg xmlns="http://www.w3.org/2000/svg" viewBox="0 0 126 126"><defs><style>.cls-1{fill:#fff;}.cls-11,.cls-2{fill:#d5dae0;}.cls-3{fill:#f2f4f6;}.cls-10,.cls-12,.cls-13,.cls-14,.cls-4,.cls-7,.cls-8,.cls-9{fill:none;}.cls-12,.cls-4{stroke:#b8bfca;}.cls-10,.cls-11,.cls-12,.cls-13,.cls-4,.cls-5,.cls-7,.cls-8,.cls-9{stroke-linecap:round;stroke-linejoin:round;stroke-width:1.99px;}.cls-5{fill:#bde4fd;}.cls-13,.cls-5,.cls-9{stroke:#1b6dc6;}.cls-6{fill:#e9f6fe;}.cls-11,.cls-7{stroke:#627386;}.cls-8{stroke:#91d2fb;}.cls-10{stroke:#fff;}.cls-10,.cls-13{stroke-dasharray:0 5.97;}.cls-12{stroke-dasharray:0 5.88;}</style></defs><title>no_database_registered(1x1)</title><g id="Layer_2" data-name="Layer 2"><g id="Illustrations"><path class="cls-1" d="M60.51,68.09,24.76,88.73a3,3,0,0,0-1.49,2.58v9.8a3,3,0,0,0,1.49,2.58l35.75,20.64a5,5,0,0,0,5,0l35.75-20.64a3,3,0,0,0,1.49-2.58v-9.8a3,3,0,0,0-1.49-2.58L65.49,68.09A5,5,0,0,0,60.51,68.09Z"/><path class="cls-2" d="M102.73,101.11h0v-9.8a3,3,0,0,0-.4-1.49L63,112.53V125a4.93,4.93,0,0,0,2.49-.67l.35-.2,35.4-20.44A3,3,0,0,0,102.73,101.11Z"/><path class="cls-3" d="M23.27,91.31v9.8a3,3,0,0,0,.09.67,2.7,2.7,0,0,0,.14.4,3,3,0,0,0,.28.57,2.94,2.94,0,0,0,1,.94l4.52,2.61,31.23,18A4.93,4.93,0,0,0,63,125V112.53L23.67,89.82A3,3,0,0,0,23.27,91.31Z"/><path class="cls-4" d="M102.33,89.82,65.49,111.09a5,5,0,0,1-5,0L29.79,93.35l-6.12-3.53"/><path class="cls-5" d="M42,31.22v9.43c0,3.11,2,6.21,6.15,8.58,8.2,4.73,21.5,4.73,29.7,0C82,46.86,84,43.76,84,40.65h0V31.22Z"/><path class="cls-6" d="M42,31.22v9.43c0,3.11,2,6.21,6.15,8.58A30.31,30.31,0,0,0,63,52.78V31.22Z"/><path class="cls-7" d="M42,31.22v9.43c0,3.11,2,6.21,6.15,8.58,8.2,4.73,21.5,4.73,29.7,0C82,46.86,84,43.76,84,40.65h0V31.22Z"/><ellipse class="cls-1" cx="63" cy="31.22" rx="21" ry="12.13"/><ellipse class="cls-6" cx="63" cy="31.22" rx="13.22" ry="7.64"/><ellipse class="cls-8" cx="63" cy="31.22" rx="21" ry="12.13"/><path class="cls-9" d="M84,31.22c0-3.11-2-6.21-6.15-8.58-8.2-4.73-21.5-4.73-29.7,0C44.05,25,42,28.11,42,31.22v9.43c0,3.11,2,6.21,6.15,8.58,8.2,4.73,21.5,4.73,29.7,0C82,46.86,84,43.76,84,40.65h0V31.22Z"/><path class="cls-10" d="M72.26,46.63a25,25,0,0,0,5.59-2.32,15.94,15.94,0,0,0,3.59-2.76"/><path class="cls-5" d="M42,13.13v9.43c0,3.11,2,6.21,6.15,8.58,8.2,4.73,21.5,4.73,29.7,0C82,28.77,84,25.67,84,22.56h0V13.13Z"/><path class="cls-6" d="M42,13.13v9.43c0,3.11,2,6.21,6.15,8.58A30.31,30.31,0,0,0,63,34.69V13.13Z"/><path class="cls-7" d="M42,13.13v9.43c0,3.11,2,6.21,6.15,8.58,8.2,4.73,21.5,4.73,29.7,0C82,28.77,84,25.67,84,22.56h0V13.13Z"/><ellipse class="cls-1" cx="63" cy="13.13" rx="21" ry="12.13"/><ellipse class="cls-6" cx="63" cy="13.13" rx="13.22" ry="7.64"/><ellipse class="cls-8" cx="63" cy="13.13" rx="21" ry="12.13"/><path class="cls-9" d="M84,13.13c0-3.11-2-6.21-6.15-8.58-8.2-4.73-21.5-4.73-29.7,0C44.05,6.92,42,10,42,13.13v9.43c0,3.11,2,6.21,6.15,8.58,8.2,4.73,21.5,4.73,29.7,0C82,28.77,84,25.67,84,22.56h0V13.13Z"/><path class="cls-10" d="M72.26,28.54a25,25,0,0,0,5.59-2.32,16.22,16.22,0,0,0,3.59-2.75"/><ellipse class="cls-1" cx="67.97" cy="116.28" rx="1.31" ry="0.74" transform="translate(-65.63 133.3) rotate(-66.95)"/><line class="cls-11" x1="87.83" y1="104.81" x2="77.9" y2="110.54"/><path class="cls-12" d="M77.78,81c8.22,4.74,8.26,12.44.1,17.18s-21.45,4.75-29.67,0S40,85.74,48.12,81,69.56,76.25,77.78,81Z"/><line class="cls-13" x1="42.02" y1="50.23" x2="42.02" y2="76.35"/><line class="cls-13" x1="83.97" y1="50.23" x2="83.97" y2="79.85"/><path class="cls-7" d="M60.51,68.09,24.76,88.73a3,3,0,0,0-1.49,2.58v9.8a3,3,0,0,0,1.49,2.58l35.75,20.64a5,5,0,0,0,5,0l35.75-20.64a3,3,0,0,0,1.49-2.58v-9.8a3,3,0,0,0-1.49-2.58L65.49,68.09A5,5,0,0,0,60.51,68.09Z"/><rect class="cls-14" width="126" height="126"/></g></g></svg>