<svg xmlns="http://www.w3.org/2000/svg" viewBox="0 0 126 126"><defs><style>.cls-1{fill:#f2f4f6;}.cls-1,.cls-3{stroke:#b8bfca;}.cls-1,.cls-3,.cls-5,.cls-6{stroke-linecap:round;stroke-linejoin:round;stroke-width:2px;}.cls-2{fill:#d5dae0;}.cls-3,.cls-5,.cls-6,.cls-7{fill:none;}.cls-4{fill:#fff;}.cls-5{stroke:#d5dae0;}.cls-6{stroke:#627386;}</style></defs><title>no_projects(1x1)</title><g id="Layer_2" data-name="Layer 2"><g id="Illustrations"><path class="cls-1" d="M113.65,64.73l-26-15L57.81,32.49a11.95,11.95,0,0,0-10.8,0L25.12,45.13,9.33,54.25,1,52.89v8A3.8,3.8,0,0,0,3.24,64L33.07,81.22,68.19,101.5a11.95,11.95,0,0,0,10.8,0l21.89-12.63,21.88-12.64A3.8,3.8,0,0,0,125,73.11v-8Z"/><path class="cls-2" d="M87.64,49.71,74,41.85v60.92a10.79,10.79,0,0,0,5-1.27l21.89-12.63,21.88-12.64A3.8,3.8,0,0,0,125,73.11v-8l-11.35-.39Z"/><path class="cls-3" d="M113.65,64.73l-26-15L57.81,32.49a11.95,11.95,0,0,0-10.8,0L25.12,45.13,9.33,54.25,1,52.89v8A3.8,3.8,0,0,0,3.24,64L33.07,81.22,68.19,101.5a11.95,11.95,0,0,0,10.8,0l21.89-12.63,21.88-12.64A3.8,3.8,0,0,0,125,73.11v-8Z"/><path class="cls-4" d="M6.67,58l26.4,15.24L68.19,93.51a11.95,11.95,0,0,0,10.8,0l21.89-12.64,21.88-12.63A3.8,3.8,0,0,0,125,65.12,3.8,3.8,0,0,0,122.76,62L87.64,41.72,57.81,24.5a11.95,11.95,0,0,0-10.8,0L25.12,37.13,3.24,49.77A3.8,3.8,0,0,0,1,52.89,3.8,3.8,0,0,0,3.24,56l3.43,2"/><polygon class="cls-5" points="71.63 88.03 113.49 63.86 54.15 29.61 12.29 53.77 71.63 88.03"/><polygon class="cls-5" points="19.03 57.66 12.29 53.77 54.15 29.61 60.89 33.5 19.03 57.66"/><polygon class="cls-5" points="89.87 62.82 83.51 66.66 61.07 53.16 67.42 49.32 89.87 62.82"/><polygon class="cls-5" points="83.54 66.68 77.18 70.53 66.65 64.2 73.01 60.35 83.54 66.68"/><polygon class="cls-5" points="77.18 70.53 70.83 74.38 41.2 56.56 47.55 52.72 77.18 70.53"/><path class="cls-3" d="M6.67,58l26.4,15.24L68.19,93.51a11.95,11.95,0,0,0,10.8,0l21.89-12.64,21.88-12.63A3.8,3.8,0,0,0,125,65.12,3.8,3.8,0,0,0,122.76,62L87.64,41.72,57.81,24.5a11.95,11.95,0,0,0-10.8,0L25.12,37.13,3.24,49.77"/><path class="cls-6" d="M125,65.12A3.8,3.8,0,0,0,122.76,62L87.64,41.72,57.81,24.5a11.95,11.95,0,0,0-10.8,0L25.12,37.13,3.24,49.77A3.8,3.8,0,0,0,1,52.89H1v8A3.8,3.8,0,0,0,3.24,64L33.07,81.22,68.19,101.5a11.06,11.06,0,0,0,5.4,1.29l.43,0h0c.46,0,.9,0,1.34-.11h0c.42-.06.84-.13,1.25-.23l.33-.1c.3-.09.6-.17.89-.28A7.85,7.85,0,0,0,79,101.5l21.89-12.63,21.88-12.64A3.8,3.8,0,0,0,125,73.11v-8Z"/><rect class="cls-7" width="126" height="126"/></g></g></svg>