<svg xmlns="http://www.w3.org/2000/svg" viewBox="0 0 126.3 126"><defs><style>.cls-1{fill:#bde4fd;}.cls-2{fill:#e9f6fe;}.cls-12,.cls-13,.cls-15,.cls-3,.cls-5,.cls-6,.cls-7,.cls-8,.cls-9{fill:none;}.cls-13,.cls-3{stroke:#627386;}.cls-12,.cls-14,.cls-3,.cls-5,.cls-6,.cls-7,.cls-8,.cls-9{stroke-linecap:round;stroke-linejoin:round;}.cls-12,.cls-13,.cls-14,.cls-3,.cls-5,.cls-6,.cls-7,.cls-8,.cls-9{stroke-width:2.3px;}.cls-4{fill:#fff;}.cls-5{stroke:#91d2fb;}.cls-6,.cls-8{stroke:#1b6dc6;}.cls-7{stroke:#fff;}.cls-7,.cls-8,.cls-9{stroke-dasharray:0 6.9;}.cls-12,.cls-14,.cls-9{stroke:#b8bfca;}.cls-10{fill:#d5dae0;}.cls-11,.cls-14{fill:#f2f4f6;}.cls-13{stroke-miterlimit:10;}</style></defs><title>no_profile_defined(1x1)</title><g id="Layer_2" data-name="Layer 2"><g id="Illustrations"><path class="cls-1" d="M40.57,16.55V26.73c0,3.35,2.21,6.7,6.63,9.25,8.85,5.11,23.2,5.11,32.05,0,4.42-2.55,6.63-5.9,6.63-9.25h0V16.55Z"/><path class="cls-2" d="M40.57,16.55V26.73c0,3.35,2.21,6.7,6.63,9.25a32.73,32.73,0,0,0,16,3.83V16.55Z"/><path class="cls-3" d="M40.57,16.55V26.73c0,3.35,2.21,6.7,6.63,9.25,8.85,5.11,23.2,5.11,32.05,0,4.42-2.55,6.63-5.9,6.63-9.25h0V16.55Z"/><ellipse class="cls-4" cx="63.23" cy="16.55" rx="22.66" ry="13.08"/><ellipse class="cls-2" cx="63.23" cy="16.55" rx="14.27" ry="8.24"/><ellipse class="cls-5" cx="63.23" cy="16.55" rx="22.66" ry="13.08"/><path class="cls-6" d="M85.88,16.55c0-3.35-2.21-6.69-6.63-9.25-8.85-5.11-23.2-5.11-32,0-4.42,2.56-6.63,5.9-6.63,9.25V26.73c0,3.35,2.21,6.7,6.63,9.25,8.85,5.11,23.2,5.11,32.05,0,4.42-2.55,6.63-5.9,6.63-9.25h0V16.55Z"/><path class="cls-7" d="M73.21,33.17a26.7,26.7,0,0,0,6-2.49,17.17,17.17,0,0,0,3.86-3"/><line class="cls-8" x1="85.81" y1="37.68" x2="85.81" y2="69.91"/><line class="cls-8" x1="40.49" y1="37.68" x2="40.49" y2="69.91"/><line class="cls-9" x1="87.41" y1="72.71" x2="116" y2="56.19"/><line class="cls-9" x1="21.7" y1="110.29" x2="40.61" y2="99.74"/><line class="cls-9" x1="104.87" y1="110.82" x2="85.81" y2="99.81"/><line class="cls-9" x1="38.89" y1="72.71" x2="22.67" y2="63.34"/><path class="cls-10" d="M40.56,81.62V91.8c0,3.34,2.22,6.69,6.64,9.25,8.85,5.11,23.2,5.11,32.05,0,4.42-2.56,6.64-5.91,6.64-9.25h0V81.62Z"/><path class="cls-11" d="M40.56,81.62V91.8c0,3.34,2.22,6.69,6.64,9.25a32.84,32.84,0,0,0,16,3.83V81.62Z"/><path class="cls-3" d="M40.56,81.62V91.8c0,3.34,2.22,6.69,6.64,9.25,8.85,5.11,23.2,5.11,32.05,0,4.42-2.56,6.64-5.91,6.64-9.25h0V81.62Z"/><ellipse class="cls-4" cx="63.23" cy="81.62" rx="22.66" ry="13.08"/><ellipse class="cls-11" cx="63.23" cy="81.62" rx="14.27" ry="8.24"/><ellipse class="cls-12" cx="63.23" cy="81.62" rx="22.66" ry="13.08"/><path class="cls-13" d="M85.89,81.62c0-3.35-2.22-6.7-6.64-9.26-8.85-5.11-23.2-5.11-32,0-4.42,2.56-6.64,5.91-6.64,9.26V91.8c0,3.34,2.22,6.69,6.64,9.25,8.85,5.11,23.2,5.11,32.05,0,4.42-2.56,6.64-5.91,6.64-9.25h0V81.62Z"/><path class="cls-7" d="M73.21,98.24a26.53,26.53,0,0,0,6-2.5,16.86,16.86,0,0,0,3.86-3"/><ellipse class="cls-14" cx="112.63" cy="58.17" rx="12.52" ry="7.23"/><ellipse class="cls-10" cx="112.63" cy="58.17" rx="4.69" ry="2.71"/><ellipse class="cls-14" cx="13.67" cy="58.17" rx="12.52" ry="7.23"/><ellipse class="cls-10" cx="13.67" cy="58.17" rx="4.69" ry="2.71"/><ellipse class="cls-14" cx="13.67" cy="115.3" rx="12.52" ry="7.23"/><ellipse class="cls-10" cx="13.67" cy="115.3" rx="4.69" ry="2.71"/><ellipse class="cls-14" cx="112.63" cy="115.3" rx="12.52" ry="7.23"/><ellipse class="cls-10" cx="112.63" cy="115.3" rx="4.69" ry="2.71"/><rect class="cls-15" x="0.15" width="126" height="126"/></g></g></svg>