<svg xmlns="http://www.w3.org/2000/svg" viewBox="0 0 126 126"><defs><style>.cls-1{fill:#d5dae0;}.cls-1,.cls-16,.cls-4,.cls-5{stroke:#b8bfca;}.cls-1,.cls-10,.cls-13,.cls-14,.cls-15,.cls-16,.cls-2,.cls-3,.cls-4,.cls-5,.cls-6,.cls-7{stroke-linecap:round;stroke-linejoin:round;stroke-width:2px;}.cls-2{fill:#f2f4f6;}.cls-15,.cls-2{stroke:#627386;}.cls-13,.cls-14,.cls-15,.cls-16,.cls-17,.cls-3,.cls-5,.cls-6{fill:none;}.cls-3{stroke:#d5dae0;}.cls-4{fill:#fff;}.cls-10,.cls-14,.cls-6,.cls-7{stroke:#1b6dc6;}.cls-6{stroke-dasharray:0 6;}.cls-11,.cls-7{fill:#91d2fb;}.cls-8{fill:#bde4fd;}.cls-9{fill:#d3edfd;}.cls-10,.cls-12{fill:#e9f6fe;}.cls-13{stroke:#91d2fb;}.cls-16{stroke-dasharray:0 6.16;}</style></defs><title>no_target(1x1)</title><g id="Layer_2" data-name="Layer 2"><g id="Illustrations"><polygon class="cls-1" points="102.15 102.39 63 125 63 111.95 102.15 89.34 102.15 102.39"/><polygon class="cls-2" points="23.85 102.39 63 125 63 111.95 23.85 89.34 23.85 102.39"/><polygon class="cls-3" points="33.35 107.88 53.5 119.51 53.5 113.48 33.35 101.85 33.35 107.88"/><line class="cls-3" x1="30.99" y1="99.33" x2="30.88" y2="99.26"/><polygon class="cls-4" points="102.15 89.34 63 66.74 23.85 89.34 63 111.95 102.15 89.34"/><polygon class="cls-5" points="23.85 102.39 63 125 63 111.95 23.85 89.34 23.85 102.39"/><line class="cls-6" x1="43.14" y1="1" x2="43.14" y2="35.32"/><line class="cls-6" x1="82.73" y1="1" x2="82.73" y2="35.32"/><polygon class="cls-7" points="59.38 9.58 62.99 11.33 66.32 7.97 66.32 1.37 62.99 5.11 59.38 3.36 59.38 9.58"/><path class="cls-8" d="M63,51.29A28.05,28.05,0,0,0,76.88,48c3.78-2.2,5.67-5.07,5.68-7.95v6c0,2.88-1.9,5.76-5.68,8a28.13,28.13,0,0,1-13.81,3.32"/><path class="cls-9" d="M63.06,57.31A28.32,28.32,0,0,1,49.21,54c-3.86-2.23-5.79-5.15-5.78-8.07v-6c0,2.91,1.92,5.84,5.78,8.06A28.15,28.15,0,0,0,63,51.29"/><ellipse class="cls-10" cx="63" cy="39.96" rx="11.33" ry="19.56" transform="matrix(0, -1, 1, 0, 22.86, 102.85)"/><ellipse class="cls-11" cx="63" cy="39.7" rx="8.42" ry="14.98" transform="translate(23.13 102.6) rotate(-89.85)"/><ellipse class="cls-12" cx="63" cy="39.7" rx="5.61" ry="9.98" transform="translate(23.13 102.6) rotate(-89.85)"/><ellipse class="cls-11" cx="63" cy="39.7" rx="2.81" ry="5" transform="translate(23.13 102.6) rotate(-89.85)"/><ellipse class="cls-12" cx="63" cy="39.96" rx="0.55" ry="0.95" transform="translate(22.86 102.85) rotate(-89.84)"/><line class="cls-10" x1="62.99" y1="39.86" x2="62.99" y2="5.11"/><path class="cls-13" d="M82.56,40c0,2.9-1.87,5.8-5.68,8-7.62,4.43-20,4.43-27.66,0-3.84-2.21-5.76-5.11-5.78-8"/><path class="cls-14" d="M43.44,40c0-2.9,1.88-5.8,5.69-8,7.61-4.42,20-4.42,27.66,0,3.83,2.21,5.76,5.11,5.77,8"/><path class="cls-14" d="M82.56,40v6c0,2.88-1.9,5.76-5.68,8-7.62,4.42-20,4.42-27.66,0-4.13-2.51-5.92-5.3-5.78-8.07v-6"/><polygon class="cls-15" points="63 66.74 23.85 89.34 23.85 102.39 63 125 102.15 102.39 102.15 89.34 63 66.74"/><path class="cls-16" d="M82.41,89.34c0,6.24-8.76,11.3-19.56,11.3s-19.56-5.06-19.56-11.3,8.76-11.29,19.56-11.29S82.41,83.11,82.41,89.34Z"/><rect class="cls-17" width="126" height="126"/></g></g></svg>