<svg xmlns="http://www.w3.org/2000/svg" viewBox="0 0 126 126"><defs><style>.cls-1{fill:#d5dae0;}.cls-2{fill:#b8bfca;}.cls-3{fill:#fff;}.cls-4{fill:#bde4fd;}.cls-5{fill:#e9f6fe;}.cls-11,.cls-12,.cls-13,.cls-14,.cls-6,.cls-7,.cls-8,.cls-9{fill:none;}.cls-11,.cls-6{stroke:#627386;}.cls-11,.cls-12,.cls-13,.cls-6,.cls-7,.cls-8,.cls-9{stroke-linecap:round;stroke-linejoin:round;stroke-width:2px;}.cls-7{stroke:#91d2fb;}.cls-8{stroke:#1b6dc6;}.cls-9{stroke:#fff;stroke-dasharray:0 6;}.cls-10{fill:#f2f4f6;}.cls-11{stroke-dasharray:0 6.37;}.cls-12{stroke:#d5dae0;}.cls-13{stroke:#b8bfca;}</style></defs><title>no_time_machine(1x1)</title><g id="Layer_2" data-name="Layer 2"><g id="Illustrations"><path class="cls-1" d="M96.66,90l-.12,9.75c0,5-3.27,9.9-9.77,13.68-13.09,7.6-34.37,7.61-47.54,0-6.63-3.83-9.94-8.85-9.93-13.87l.12-9.75c0,5,3.3,10,9.92,13.87,13.18,7.6,34.46,7.6,47.54,0C93.39,99.9,96.64,95,96.66,90Z"/><path class="cls-2" d="M86.88,103.68c-6.57,3.82-15.2,5.72-23.84,5.7v9.75c8.6,0,17.19-1.9,23.73-5.7s9.76-8.72,9.77-13.68L96.66,90C96.64,95,93.39,99.9,86.88,103.68Z"/><path class="cls-1" d="M86.78,76.14c13.17,7.6,13.23,19.93.15,27.54s-34.37,7.6-47.54,0-13.24-19.94-.16-27.54S73.61,68.54,86.78,76.14Z"/><path class="cls-3" d="M83.81,78.27c11.58,6.48,11.64,17,.13,23.47s-30.21,6.48-41.79,0S30.5,84.75,42,78.27,72.23,71.79,83.81,78.27Z"/><path class="cls-4" d="M30.43,25.62V39.21c0,4.79,3.17,9.59,9.51,13.25,12.69,7.33,33.25,7.33,45.93,0,6.34-3.66,9.51-8.46,9.51-13.25h0V25.62Z"/><path class="cls-5" d="M30.43,25.62V39.21c0,4.79,3.17,9.59,9.51,13.25S54.6,58,62.91,58V25.62Z"/><path class="cls-6" d="M30.43,25.62V39.21c0,4.79,3.17,9.59,9.51,13.25,12.69,7.33,33.25,7.33,45.93,0,6.34-3.66,9.51-8.46,9.51-13.25h0V25.62Z"/><ellipse class="cls-3" cx="62.91" cy="25.62" rx="32.48" ry="18.75"/><ellipse class="cls-5" cx="62.91" cy="25.62" rx="20.45" ry="11.8"/><ellipse class="cls-7" cx="62.91" cy="25.62" rx="32.48" ry="18.75"/><path class="cls-8" d="M95.38,25.62c0-4.8-3.17-9.6-9.51-13.26C73.19,5,52.63,5,39.94,12.36,33.6,16,30.43,20.82,30.43,25.62V39.21c0,4.79,3.17,9.59,9.51,13.25,12.69,7.33,33.25,7.33,45.93,0,6.34-3.66,9.51-8.46,9.51-13.25h0V25.62Z"/><path class="cls-9" d="M77.24,48.86a38,38,0,0,0,8.65-3.58A24.29,24.29,0,0,0,91.43,41"/><line class="cls-10" x1="95.38" y1="76.33" x2="95.38" y2="50.86"/><line class="cls-6" x1="95.38" y1="76.33" x2="95.38" y2="76.33"/><line class="cls-11" x1="95.38" y1="69.96" x2="95.38" y2="54.04"/><line class="cls-6" x1="95.38" y1="50.86" x2="95.38" y2="50.86"/><line class="cls-10" x1="29.42" y1="76.33" x2="29.42" y2="50.86"/><line class="cls-6" x1="29.42" y1="76.33" x2="29.42" y2="76.33"/><line class="cls-11" x1="29.42" y1="69.96" x2="29.42" y2="54.04"/><line class="cls-6" x1="29.42" y1="50.86" x2="29.42" y2="50.86"/><path class="cls-12" d="M49.24,82.38A22.21,22.21,0,0,1,52.53,81c7.65-2.66,18-2.18,24.69,1.43,7.75,4.16,7.79,10.9.09,15.06s-20.22,4.16-28,0"/><path class="cls-1" d="M52.54,84.53l-6.16.68a.9.9,0,0,1-1-1.16l1.15-3.57a.89.89,0,0,1,1.3-.5l5,2.89A.89.89,0,0,1,52.54,84.53Z"/><line class="cls-13" x1="70.27" y1="85.61" x2="62.86" y2="89.91"/><line class="cls-13" x1="62.86" y1="89.91" x2="62.9" y2="93.61"/><line class="cls-12" x1="86.78" y1="76.09" x2="82.2" y2="78.76"/><line class="cls-12" x1="96.69" y1="89.84" x2="90.44" y2="89.84"/><line class="cls-12" x1="63.11" y1="108.12" x2="63.11" y2="104.99"/><line class="cls-12" x1="85.29" y1="102.65" x2="81.97" y2="100.73"/><line class="cls-12" x1="35.79" y1="89.84" x2="29.54" y2="89.84"/><line class="cls-12" x1="43.94" y1="100.99" x2="40.46" y2="103.01"/><line class="cls-12" x1="63.11" y1="74.7" x2="63.11" y2="70.4"/><line class="cls-12" x1="43.52" y1="78.53" x2="39.29" y2="76.09"/><path class="cls-6" d="M96.64,90.44c.21-5.16-3.09-10.36-9.9-14.3-13.18-7.6-34.47-7.6-47.56,0-6.52,3.79-9.77,8.75-9.76,13.72v0l-.12,9.75c0,5,3.3,10,9.93,13.87,13.17,7.61,34.45,7.6,47.54,0,6.5-3.78,9.76-8.72,9.77-13.68L96.66,90C96.66,90.15,96.64,90.29,96.64,90.44Z"/><rect class="cls-14" width="126" height="126"/></g></g></svg>