<svg xmlns="http://www.w3.org/2000/svg" viewBox="0 0 126 126"><defs><style>.cls-1,.cls-10,.cls-11,.cls-14,.cls-2,.cls-6{fill:none;}.cls-2,.cls-9{stroke:#b8bfca;}.cls-10,.cls-11,.cls-12,.cls-14,.cls-15,.cls-2,.cls-3,.cls-5,.cls-6,.cls-9{stroke-linecap:round;stroke-linejoin:round;stroke-width:2px;}.cls-15,.cls-3{fill:#d3edfd;}.cls-14,.cls-3,.cls-5{stroke:#91d2fb;}.cls-12,.cls-4{fill:#bde4fd;}.cls-5,.cls-9{fill:#fff;}.cls-11,.cls-12,.cls-6{stroke:#1b6dc6;}.cls-7{fill:#f2f4f6;}.cls-8{fill:#d5dae0;}.cls-10{stroke:#627386;}.cls-11{stroke-dasharray:0 5.35;}.cls-13{fill:#e9f6fe;}.cls-15{stroke:#fff;}.cls-16{fill:#91d2fb;}</style></defs><title>permissions(1x1)</title><g id="Layer_2" data-name="Layer 2"><g id="Illustrations"><rect class="cls-1" width="126" height="126"/><path class="cls-2" d="M85.85,82,53.22,100.82c-8.95,5.17-8.95,13.55,0,18.72h0c9,5.18,23.48,5.18,32.44,0l32.62-18.83c9-5.17,9-13.56,0-18.73h0C109.33,76.81,94.81,76.81,85.85,82Z"/><path class="cls-3" d="M125,83v8.36c0,3.39-2.24,6.78-6.72,9.37-9,5.17-23.47,5.17-32.43,0-4.48-2.59-6.72-6-6.72-9.37V83Z"/><path class="cls-4" d="M102.07,104.58a33.16,33.16,0,0,0,16.21-3.87c4.48-2.59,6.72-6,6.72-9.37V83H102.07Z"/><path class="cls-2" d="M125,83v8.36c0,3.39-2.24,6.78-6.72,9.37-9,5.17-23.47,5.17-32.43,0-4.48-2.59-6.72-6-6.72-9.37V83Z"/><ellipse class="cls-5" cx="102.07" cy="82.98" rx="22.93" ry="13.24"/><path class="cls-4" d="M102.85,78.72a8.86,8.86,0,0,0-8.59.28c-1.69,1.22-1.66,3,0,4.18a8.09,8.09,0,0,0,4.82,1.21,2.86,2.86,0,0,1,1.6.4l4.48,3a3.12,3.12,0,0,0,2.94.07l2.39-1.38c.82-.48.77-1.26-.11-1.7l-5.21-2.59c-.47-.23-.73-.57-.7-.93A2.74,2.74,0,0,0,102.85,78.72Z"/><path class="cls-6" d="M125,83c0-3.39-2.24-6.78-6.72-9.37-9-5.17-23.47-5.17-32.43,0-4.48,2.59-6.72,6-6.72,9.37h0v8.36c0,3.39,2.24,6.78,6.72,9.37a33.22,33.22,0,0,0,16.22,3.87,33.16,33.16,0,0,0,16.21-3.87c4.48-2.59,6.72-6,6.72-9.37V83Z"/><path class="cls-2" d="M40.34,55.71,7.72,74.55c-9,5.17-9,13.55,0,18.72h0c9,5.17,23.47,5.17,32.43,0L72.78,74.43c9-5.17,9-13.55,0-18.72h0C63.82,50.54,49.3,50.54,40.34,55.71Z"/><path class="cls-7" d="M46.87,75.54v8.37c0,3.39-2.24,6.78-6.72,9.36-9,5.17-23.48,5.17-32.43,0C3.24,90.69,1,87.3,1,83.91V75.54Z"/><path class="cls-8" d="M23.93,97.15a33.12,33.12,0,0,0,16.22-3.88c4.48-2.58,6.72-6,6.72-9.36V75.54H23.93Z"/><path class="cls-2" d="M46.87,75.54v8.37c0,3.39-2.24,6.78-6.72,9.36-9,5.17-23.48,5.17-32.43,0C3.24,90.69,1,87.3,1,83.91V75.54Z"/><ellipse class="cls-9" cx="23.93" cy="75.54" rx="22.93" ry="13.24"/><path class="cls-8" d="M24.71,71.28a8.86,8.86,0,0,0-8.59.29c-1.68,1.21-1.66,3,.05,4.17A8.13,8.13,0,0,0,21,77a2.78,2.78,0,0,1,1.6.4l4.49,3a3.07,3.07,0,0,0,2.93.06l2.39-1.38c.83-.47.78-1.26-.11-1.69l-5.21-2.59c-.46-.24-.73-.58-.69-.93A2.76,2.76,0,0,0,24.71,71.28Z"/><path class="cls-10" d="M46.87,75.54c0-3.39-2.24-6.78-6.72-9.36-9-5.17-23.48-5.17-32.43,0C3.24,68.76,1,72.15,1,75.54H1v8.37c0,3.39,2.24,6.78,6.72,9.36a33.05,33.05,0,0,0,16.21,3.88,33.12,33.12,0,0,0,16.22-3.88c4.48-2.58,6.72-6,6.72-9.36V75.54Z"/><line class="cls-6" x1="87.19" y1="13.27" x2="87.19" y2="13.27"/><line class="cls-11" x1="87.19" y1="7.92" x2="87.19" y2="5.25"/><line class="cls-6" x1="87.19" y1="2.58" x2="87.19" y2="2.58"/><line class="cls-6" x1="113.53" y1="18.04" x2="113.53" y2="18.04"/><line class="cls-11" x1="113.53" y1="12.7" x2="113.53" y2="10.02"/><line class="cls-6" x1="113.53" y1="7.35" x2="113.53" y2="7.35"/><path class="cls-12" d="M97.05,17.76V72.53c0,1,1.47,1.9,3.29,1.9s3.29-.85,3.29-1.9V17.76Z"/><path class="cls-13" d="M97.05,17.76V72.53c0,1,1.35,1.9,3,1.9V17.76Z"/><path class="cls-14" d="M97.05,17.76V72.53c0,1,1.47,1.9,3.29,1.9s3.29-.85,3.29-1.9V17.76Z"/><path class="cls-12" d="M113.53,32.1c0-7.64-4.65-16.53-10.38-19.84-2.6-1.5-5-1.59-6.79-.54h0l-5.58,3.21,2.53,5.36c.17,6.69,3.79,14.2,8.53,18.07l2.53,5.36,5.57-3.22h0C112.14,39.23,113.53,36.29,113.53,32.1Z"/><path class="cls-13" d="M103.15,12.26c-2.6-1.5-5-1.59-6.79-.54h0l-5.58,3.21,2.53,5.36a24.09,24.09,0,0,0,1.27,6.91l14.81-8.55A19.21,19.21,0,0,0,103.15,12.26Z"/><path class="cls-14" d="M113.53,32.1c0-7.64-4.65-16.53-10.38-19.84-2.6-1.5-5-1.59-6.79-.54h0l-5.58,3.21,2.53,5.36c.17,6.69,3.79,14.2,8.53,18.07l2.53,5.36,5.57-3.22h0C112.14,39.23,113.53,36.29,113.53,32.1Z"/><ellipse class="cls-15" cx="97.57" cy="29.33" rx="9.02" ry="15.94" transform="translate(-3.69 40.55) rotate(-23.05)"/><ellipse class="cls-4" cx="97.57" cy="29.33" rx="3.17" ry="5.61" transform="translate(-3.69 40.55) rotate(-23.05)"/><polyline class="cls-13" points="103.17 61.41 109.39 65 105.94 67 100.34 63.77"/><polyline class="cls-4" points="100.34 71.32 105.94 74.55 105.94 67 100.34 63.77"/><polygon class="cls-16" points="109.39 72.55 105.94 74.55 105.94 67 109.39 65 109.39 72.55"/><path class="cls-6" d="M113.53,32.1a26.2,26.2,0,0,0-4.15-13.45h0l-.25-.39-.3-.44c-.18-.26-.36-.51-.55-.76l-.24-.33c-.26-.34-.54-.67-.82-1l-.23-.25c-.21-.23-.43-.47-.65-.69s-.21-.21-.32-.31l-.6-.56-.35-.29c-.21-.18-.43-.35-.65-.51l-.3-.23c-.32-.22-.65-.44-1-.63a7.46,7.46,0,0,0-5.33-1.11,5.28,5.28,0,0,0-1.46.57h0l-5.58,3.21v0c-2.2,1.27-3.6,4.2-3.6,8.38,0,7.41,4.37,16,9.86,19.5v29.7c0,1,1.35,1.9,3,1.9h.27a3.61,3.61,0,0,0,3.12-1.31l2.48,1.43,3.45-2V65l-5.76-3.33V44.05a4.84,4.84,0,0,0,.73-.34h0l5.57-3.22h0C112.14,39.23,113.53,36.29,113.53,32.1Z"/></g></g></svg>