<svg xmlns="http://www.w3.org/2000/svg" viewBox="0 0 126 126"><defs><style>.cls-1,.cls-10,.cls-11,.cls-14,.cls-3,.cls-7,.cls-8,.cls-9{fill:none;}.cls-13,.cls-2,.cls-5{fill:#fff;}.cls-2,.cls-3{stroke:#d5dae0;}.cls-10,.cls-11,.cls-13,.cls-14,.cls-2,.cls-3,.cls-4,.cls-5,.cls-6,.cls-7,.cls-8,.cls-9{stroke-linecap:round;stroke-linejoin:round;stroke-width:2px;}.cls-4{fill:#f2f4f6;}.cls-4,.cls-5,.cls-6,.cls-7{stroke:#b8bfca;}.cls-6{fill:#d5dae0;}.cls-8{stroke:#627386;}.cls-10,.cls-11,.cls-9{stroke:#1b6dc6;}.cls-10{stroke-dasharray:0 5.44;}.cls-11{stroke-dasharray:0 5.77;}.cls-12{fill:#bde4fd;}.cls-13,.cls-14{stroke:#91d2fb;}.cls-15{fill:#e9f6fe;}</style></defs><title>policies(1x1)</title><g id="Layer_2" data-name="Layer 2"><g id="Illustrations"><rect class="cls-1" width="126" height="126"/><polygon class="cls-2" points="1 91.55 52.35 121.19 125 79.25 73.65 53.74 1 91.55"/><line class="cls-3" x1="117.82" y1="76.51" x2="117.82" y2="83.4"/><polygon class="cls-4" points="52.35 121.19 52.35 114.31 125 72.36 125 79.25 52.35 121.19"/><polygon class="cls-5" points="52.35 121.19 52.35 114.31 1 84.66 1 91.55 52.35 121.19"/><polygon class="cls-6" points="8.18 95.7 1 91.55 1 84.66 8.18 88.81 8.18 95.7"/><polygon class="cls-7" points="52.35 121.19 52.35 114.31 1 84.66 1 91.55 52.35 121.19"/><polygon class="cls-7" points="52.35 121.19 52.35 114.31 125 72.36 125 79.25 52.35 121.19"/><polygon class="cls-2" points="1 84.66 52.35 114.31 125 72.36 73.65 42.71 1 84.66"/><polygon class="cls-4" points="80.83 46.86 8.18 88.81 1 84.66 73.65 42.71 80.83 46.86"/><polygon class="cls-7" points="1 84.66 52.35 114.31 125 72.36 73.65 42.71 1 84.66"/><polygon class="cls-7" points="48.09 80.22 28.26 91.66 22.41 88.28 42.24 76.84 48.09 80.22"/><polygon class="cls-7" points="60.29 87.26 40.46 98.71 34.61 95.33 54.44 83.88 60.29 87.26"/><polygon class="cls-7" points="83.36 59.85 63.53 71.3 57.68 67.92 77.51 56.47 83.36 59.85"/><polygon class="cls-7" points="95.57 66.89 75.74 78.34 69.88 74.97 89.72 63.52 95.57 66.89"/><line class="cls-7" x1="104.65" y1="72.36" x2="85.01" y2="83.7"/><path class="cls-7" d="M72.81,76.65c-9.91,5.73-17.73-3.85-27.65,1.88"/><path class="cls-7" d="M60.61,69.61c-9.92,5.72,6.67,10.24-3.24,16"/><polygon class="cls-7" points="72.5 94.31 52.67 105.76 46.81 102.38 66.64 90.93 72.5 94.31"/><path class="cls-7" d="M72.81,76.65c-9.91,5.73,6.68,10.24-3.24,16"/><polygon class="cls-8" points="80.83 46.86 80.83 46.86 73.65 42.72 1 84.66 1 91.55 52.35 121.19 125 79.25 125 72.36 80.83 46.86"/><line class="cls-9" x1="54.72" y1="32.26" x2="54.72" y2="32.26"/><line class="cls-10" x1="54.72" y1="26.82" x2="54.72" y2="7.79"/><line class="cls-9" x1="54.72" y1="5.07" x2="54.72" y2="5.07"/><line class="cls-9" x1="110.32" y1="27.87" x2="110.32" y2="27.87"/><line class="cls-11" x1="110.32" y1="22.1" x2="110.32" y2="7.69"/><line class="cls-9" x1="110.32" y1="4.81" x2="110.32" y2="4.81"/><path class="cls-12" d="M110.32,35.44l-1.14-.06a8.88,8.88,0,0,0-3.28-3.1L84,19.64l-22.54,13-6.75-.39V38L76.61,50.61c9.4,5.43,30.18.52,30.18.52s3.53-5,3.53-10h0Z"/><path class="cls-13" d="M84,15.35,54.72,32.26,76.61,44.9c9.4,5.43,30.18.52,30.18.52s8.51-12-.89-17.43Z"/><path class="cls-14" d="M84,15.35,54.72,32.26,76.61,44.9c9.4,5.43,30.18.52,30.18.52s8.51-12-.89-17.43Z"/><path class="cls-15" d="M60.4,35.54,89.69,18.63,84,15.35,54.72,32.26Z"/><polygon class="cls-15" points="93.39 37.68 90.95 42.22 86.2 38.34 77.97 38.4 82.89 34.59 80.25 30.09 88.04 31.62 94.64 28.78 94.53 33.53 101.25 36.27 93.39 37.68"/><polygon class="cls-14" points="93.39 37.68 90.95 42.22 86.2 38.34 77.97 38.4 82.89 34.59 80.25 30.09 88.04 31.62 94.64 28.78 94.53 33.53 101.25 36.27 93.39 37.68"/><path class="cls-14" d="M60.4,35.54,89.69,18.63,84,15.35,54.72,32.26Z"/><path class="cls-9" d="M110.32,35.44A8.8,8.8,0,0,0,110,33a8.25,8.25,0,0,0-4.1-5L95.75,22.13l-.9-.52-1.76-1-1.66-1-1.74-1h0l-3.28-1.89-.83-.48-1.5-.87-.07,0h0L81.21,17l-9.16,5.29-17.33,10h0V38L76.61,50.61c9.4,5.43,30.18.52,30.18.52s3.53-5,3.53-10h0V35.44Z"/></g></g></svg>