<svg xmlns="http://www.w3.org/2000/svg" viewBox="0 0 126 126"><defs><style>.cls-1,.cls-11{fill:#fff;}.cls-1,.cls-3,.cls-4,.cls-5{stroke:#b8bfca;}.cls-1,.cls-10,.cls-11,.cls-2,.cls-3,.cls-4,.cls-5,.cls-6,.cls-7,.cls-8,.cls-9{stroke-linecap:round;stroke-linejoin:round;stroke-width:2px;}.cls-12,.cls-2,.cls-5,.cls-6,.cls-7,.cls-8,.cls-9{fill:none;}.cls-2{stroke:#d5dae0;}.cls-3{fill:#f2f4f6;}.cls-4{fill:#d5dae0;}.cls-10,.cls-11,.cls-6{stroke:#faabab;}.cls-7{stroke:#627386;}.cls-8,.cls-9{stroke:#c44556;}.cls-9{stroke-dasharray:0 5.28;}.cls-10{fill:#fccccc;}</style></defs><title>policies_error(1x1)</title><g id="Layer_2" data-name="Layer 2"><g id="Illustrations"><polygon class="cls-1" points="1.07 95.39 52.36 125 124.93 83.11 73.64 55.66 1.07 95.39"/><line class="cls-2" x1="117.75" y1="78.4" x2="117.75" y2="87.25"/><polygon class="cls-3" points="52.36 125 52.36 116.15 124.93 74.26 124.93 83.11 52.36 125"/><polygon class="cls-1" points="52.36 125 52.36 116.15 1.07 86.54 1.07 95.39 52.36 125"/><polygon class="cls-4" points="8.25 99.53 1.07 95.39 1.07 86.54 8.25 90.69 8.25 99.53"/><polygon class="cls-5" points="52.36 125 52.36 116.15 1.07 86.54 1.07 95.39 52.36 125"/><polygon class="cls-1" points="1.07 86.54 52.36 116.15 124.93 74.26 73.64 44.65 1.07 86.54"/><polygon class="cls-3" points="80.81 48.79 8.25 90.69 1.07 86.54 73.64 44.65 80.81 48.79"/><polygon class="cls-5" points="1.07 86.54 52.36 116.15 124.93 74.26 73.64 44.65 1.07 86.54"/><polygon class="cls-6" points="48.11 82.1 28.3 93.54 22.45 90.16 42.26 78.73 48.11 82.1"/><polygon class="cls-6" points="60.3 89.14 40.49 100.58 34.64 97.2 54.45 85.77 60.3 89.14"/><polygon class="cls-6" points="83.34 61.76 63.53 73.2 57.69 69.82 77.49 58.39 83.34 61.76"/><polygon class="cls-6" points="95.53 68.8 75.72 80.23 69.88 76.86 89.68 65.42 95.53 68.8"/><line class="cls-6" x1="104.6" y1="74.26" x2="84.99" y2="85.58"/><path class="cls-6" d="M72.8,78.55c-9.9,5.71-17.71-3.85-27.62,1.87"/><path class="cls-6" d="M60.61,71.51c-9.9,5.72,6.67,10.22-3.24,15.94"/><polygon class="cls-6" points="72.48 96.18 52.68 107.61 46.83 104.24 66.64 92.8 72.48 96.18"/><path class="cls-6" d="M72.8,78.55c-9.9,5.71,6.67,10.22-3.24,15.94"/><polygon class="cls-7" points="80.81 48.79 80.81 48.79 73.64 44.65 1.07 86.54 1.07 95.39 52.36 125 124.93 83.11 124.93 74.26 80.81 48.79"/><line class="cls-8" x1="122.33" y1="1" x2="122.33" y2="1"/><line class="cls-9" x1="122.33" y1="6.28" x2="122.33" y2="14.21"/><line class="cls-8" x1="122.33" y1="16.85" x2="122.33" y2="16.85"/><line class="cls-8" x1="74" y1="1" x2="74" y2="1"/><line class="cls-9" x1="74" y1="6.28" x2="74" y2="14.21"/><line class="cls-8" x1="74" y1="16.85" x2="74" y2="16.85"/><polygon class="cls-10" points="122.33 22.75 105.2 22.75 105.2 12.86 91.12 12.86 91.12 22.75 74 22.75 74 34.81 91.12 34.81 91.12 44.69 105.2 44.69 105.2 34.81 122.33 34.81 122.33 22.75"/><polygon class="cls-11" points="122.33 16.85 105.2 16.85 105.2 6.96 91.12 6.96 91.12 16.85 74 16.85 74 24.98 91.12 24.98 91.12 34.86 105.2 34.86 105.2 24.98 122.33 24.98 122.33 16.85"/><polygon class="cls-8" points="105.2 16.85 105.2 12.86 105.2 6.96 91.12 6.96 91.12 12.86 91.12 16.85 74 16.85 74 22.75 74 24.98 74 34.81 91.12 34.81 91.12 34.86 91.12 44.69 105.2 44.69 105.2 34.86 105.2 34.81 122.33 34.81 122.33 24.98 122.33 22.75 122.33 16.85 105.2 16.85"/><rect class="cls-12" width="126" height="126"/></g></g></svg>