<svg xmlns="http://www.w3.org/2000/svg" viewBox="0 0 126 126"><defs><style>.cls-1{fill:#f2f4f6;}.cls-1,.cls-3,.cls-4{stroke:#b8bfca;}.cls-1,.cls-10,.cls-3,.cls-4,.cls-5,.cls-6,.cls-7,.cls-8,.cls-9{stroke-linecap:round;stroke-linejoin:round;stroke-width:2px;}.cls-2{fill:#d5dae0;}.cls-10,.cls-11,.cls-3,.cls-5,.cls-8,.cls-9{fill:none;}.cls-4,.cls-6{fill:#fff;}.cls-5{stroke:#627386;}.cls-6,.cls-7,.cls-8{stroke:#91d2fb;}.cls-7{fill:#bde4fd;}.cls-10,.cls-9{stroke:#1b6dc6;}.cls-10{stroke-dasharray:0 6.15;}</style></defs><title>projects(1x1)</title><g id="Layer_2" data-name="Layer 2"><g id="Illustrations"><path class="cls-1" d="M110.38,82.51,86.05,68.46,58.15,52.35a11.16,11.16,0,0,0-10.11,0L27.57,64.17,12.79,72.7,5,71.43v7.48a3.57,3.57,0,0,0,2.09,2.92L35,97.94l32.85,19a11.25,11.25,0,0,0,10.11,0l20.47-11.82,20.48-11.82A3.57,3.57,0,0,0,121,90.35V82.87Z"/><path class="cls-2" d="M86.05,68.46,73.31,61.11v57A10.13,10.13,0,0,0,78,116.91l20.47-11.82,20.48-11.82A3.57,3.57,0,0,0,121,90.35V82.87l-10.62-.36Z"/><path class="cls-3" d="M110.38,82.51,86.05,68.46,58.15,52.35a11.16,11.16,0,0,0-10.11,0L27.57,64.17,12.79,72.7,5,71.43v7.48a3.57,3.57,0,0,0,2.09,2.92L35,97.94l32.85,19a11.25,11.25,0,0,0,10.11,0l20.47-11.82,20.48-11.82A3.57,3.57,0,0,0,121,90.35V82.87Z"/><path class="cls-4" d="M118.91,80,86.05,61,58.15,44.87a11.16,11.16,0,0,0-10.11,0L27.57,56.69,7.09,68.51a3.08,3.08,0,0,0,0,5.84L35,90.46l32.85,19a11.16,11.16,0,0,0,10.11,0L98.43,97.61l20.48-11.82a3.08,3.08,0,0,0,0-5.84Z"/><polygon class="cls-4" points="71.07 104.42 110.23 81.81 54.72 49.76 15.56 72.37 71.07 104.42"/><polygon class="cls-4" points="21.87 76.01 15.56 72.37 54.72 49.76 61.03 53.4 21.87 76.01"/><polygon class="cls-4" points="41.47 75.52 36.98 78.11 32.5 75.52 36.98 72.93 41.47 75.52"/><line class="cls-4" x1="42.81" y1="72.16" x2="61.03" y2="61.64"/><polygon class="cls-4" points="49.83 80.34 45.34 82.93 40.86 80.34 45.34 77.75 49.83 80.34"/><line class="cls-4" x1="51.17" y1="76.98" x2="67.45" y2="67.58"/><polygon class="cls-4" points="58.19 85.16 53.7 87.75 49.22 85.16 53.7 82.57 58.19 85.16"/><line class="cls-4" x1="59.53" y1="81.8" x2="79.1" y2="70.5"/><ellipse class="cls-4" cx="70.88" cy="90.32" rx="8.99" ry="5.19"/><path class="cls-4" d="M79.87,90.32a2.19,2.19,0,0,0,0-.36v0a3.94,3.94,0,0,0-.1-.47h0a5.06,5.06,0,0,0-2.49-2.79,14.11,14.11,0,0,0-12.72,0l6.36,3.67h0v5.2A13.06,13.06,0,0,0,77.24,94c1.75-1,2.62-2.35,2.62-3.68Z"/><path class="cls-5" d="M121,82.87A3.56,3.56,0,0,0,118.91,80L86.05,61,58.15,44.87a11.16,11.16,0,0,0-10.11,0L27.57,56.69,7.09,68.51A3.56,3.56,0,0,0,5,71.43v7.48a3.57,3.57,0,0,0,2.09,2.92L35,97.94l32.85,19a10.42,10.42,0,0,0,5.06,1.2l.4,0h0a10.53,10.53,0,0,0,1.26-.1h0a9,9,0,0,0,1.17-.22c.11,0,.2-.06.31-.09.28-.08.56-.16.83-.26a8.61,8.61,0,0,0,1.06-.5l20.47-11.82,20.48-11.82A3.57,3.57,0,0,0,121,90.35V82.87Z"/><polygon class="cls-6" points="71.07 62.54 110.23 39.93 54.72 7.89 15.56 30.5 71.07 62.54"/><polygon class="cls-7" points="21.87 34.13 15.56 30.5 54.72 7.89 61.03 11.53 21.87 34.13"/><polygon class="cls-8" points="41.47 33.65 36.98 36.24 32.5 33.65 36.98 31.05 41.47 33.65"/><line class="cls-8" x1="42.81" y1="30.28" x2="61.03" y2="19.76"/><polygon class="cls-8" points="49.83 38.47 45.34 41.06 40.86 38.47 45.34 35.88 49.83 38.47"/><line class="cls-8" x1="51.17" y1="35.1" x2="66.83" y2="26.06"/><polygon class="cls-7" points="58.19 43.28 53.7 45.88 49.22 43.28 53.7 40.7 58.19 43.28"/><line class="cls-8" x1="59.53" y1="39.92" x2="79.1" y2="28.62"/><ellipse class="cls-6" cx="70.88" cy="48.45" rx="8.99" ry="5.19"/><path class="cls-7" d="M79.87,48.45h0c0-1.33-.88-2.66-2.63-3.67a14,14,0,0,0-12.72,0l6.36,3.67Z"/><polygon class="cls-9" points="71.07 62.54 110.23 39.93 54.72 7.89 15.56 30.5 71.07 62.54"/><line class="cls-9" x1="15.56" y1="67.37" x2="15.56" y2="67.37"/><line class="cls-10" x1="15.56" y1="61.23" x2="15.56" y2="33.57"/><line class="cls-9" x1="15.56" y1="30.5" x2="15.56" y2="30.5"/><line class="cls-9" x1="110.23" y1="76.81" x2="110.23" y2="76.81"/><line class="cls-10" x1="110.23" y1="70.66" x2="110.23" y2="43.01"/><line class="cls-9" x1="110.23" y1="39.93" x2="110.23" y2="39.93"/><rect class="cls-11" width="126" height="126"/></g></g></svg>