<svg xmlns="http://www.w3.org/2000/svg" viewBox="0 0 126 126"><defs><style>.cls-1{fill:#d5dae0;}.cls-2,.cls-7{fill:#f2f4f6;}.cls-13,.cls-3{fill:#fff;}.cls-10,.cls-11,.cls-19,.cls-4,.cls-5,.cls-6,.cls-8,.cls-9{fill:none;}.cls-5{stroke:#d5dae0;}.cls-10,.cls-11,.cls-13,.cls-14,.cls-15,.cls-16,.cls-19,.cls-5,.cls-6,.cls-7,.cls-8,.cls-9{stroke-linecap:round;stroke-linejoin:round;stroke-width:2px;}.cls-6,.cls-7{stroke:#b8bfca;}.cls-8{stroke:#627386;}.cls-10,.cls-11,.cls-9{stroke:#1b6dc6;}.cls-10{stroke-dasharray:0 5.74;}.cls-11{stroke-dasharray:0 6.17;}.cls-12{isolation:isolate;}.cls-13,.cls-14,.cls-15,.cls-16,.cls-19{stroke:#91d2fb;}.cls-14,.cls-17{fill:#d3edfd;}.cls-15{fill:#91d2fb;}.cls-16{fill:#155499;}.cls-18{fill:#bde4fd;}</style></defs><title>report_schedule(1x1)</title><g id="Layer_2" data-name="Layer 2"><g id="Illustrations"><path class="cls-1" d="M48.41,124.73a4,4,0,0,0,2-.47l73.79-42.89a1.37,1.37,0,0,0,.81-1.13l0-6.32a1.37,1.37,0,0,1-.81,1.13L50.4,117.94a3.94,3.94,0,0,1-1.93.47"/><path class="cls-2" d="M48.47,118.41a4,4,0,0,1-2-.47L1.84,92.18A1.39,1.39,0,0,1,1,91l0,6.32a1.39,1.39,0,0,0,.82,1.15l44.63,25.76a3.92,3.92,0,0,0,2,.47"/><path class="cls-1" d="M10.39,97.12,1.84,92.18A1.39,1.39,0,0,1,1,91l0,6.32a1.39,1.39,0,0,0,.82,1.15l8.57,5Z"/><path class="cls-3" d="M124.18,72.78a1.2,1.2,0,0,1,0,2.27L50.4,117.94a4.34,4.34,0,0,1-3.94,0L1.84,92.18a1.21,1.21,0,0,1,0-2.28L75.62,47a4.32,4.32,0,0,1,3.93,0Z"/><path class="cls-4" d="M124.19,75.05,50.4,117.94a4.34,4.34,0,0,1-3.94,0L1.84,92.18A1.39,1.39,0,0,1,1,91l0,6.32a1.39,1.39,0,0,0,.82,1.15l44.63,25.76a4.32,4.32,0,0,0,3.93,0l73.79-42.89a1.37,1.37,0,0,0,.81-1.13l0-6.32A1.37,1.37,0,0,1,124.19,75.05Z"/><line class="cls-5" x1="105.53" y1="62.01" x2="27.81" y2="107.17"/><line class="cls-5" x1="60.6" y1="66.93" x2="99.51" y2="89.4"/><line class="cls-5" x1="36.41" y1="80.98" x2="75.32" y2="103.45"/><path class="cls-6" d="M48.41,124.73a4,4,0,0,0,2-.47l73.79-42.89a1.37,1.37,0,0,0,.81-1.13l0-6.32a1.37,1.37,0,0,1-.81,1.13L50.4,117.94a3.94,3.94,0,0,1-1.93.47"/><path class="cls-6" d="M48.47,118.41a4,4,0,0,1-2-.47L1.84,92.18A1.39,1.39,0,0,1,1,91l0,6.32a1.39,1.39,0,0,0,.82,1.15l44.63,25.76a3.92,3.92,0,0,0,2,.47"/><path class="cls-6" d="M124.18,72.78a1.2,1.2,0,0,1,0,2.27L50.4,117.94a4.34,4.34,0,0,1-3.94,0L1.84,92.18a1.21,1.21,0,0,1,0-2.28L75.62,47a4.32,4.32,0,0,1,3.93,0Z"/><path class="cls-6" d="M124.19,75.05,50.4,117.94a4.34,4.34,0,0,1-3.94,0L1.84,92.18A1.39,1.39,0,0,1,1,91l0,6.32a1.39,1.39,0,0,0,.82,1.15l44.63,25.76a4.32,4.32,0,0,0,3.93,0l73.79-42.89a1.37,1.37,0,0,0,.81-1.13l0-6.32A1.37,1.37,0,0,1,124.19,75.05Z"/><path class="cls-7" d="M87.23,51.45,79.55,47a4.3,4.3,0,0,0-3.92,0L1.83,89.9a1.21,1.21,0,0,0,0,2.28l7.27,4.19.66.09,77.46-45Z"/><ellipse class="cls-1" cx="46.11" cy="70.43" rx="1.65" ry="2.85" transform="translate(-24.45 116.34) rotate(-89.84)"/><path class="cls-8" d="M34.92,69.59a10.63,10.63,0,0,1-1-4.36,4.61,4.61,0,0,1,2-4.21,4.63,4.63,0,0,1,4.71.35,12,12,0,0,1,5.47,9.06"/><ellipse class="cls-1" cx="15.85" cy="87.74" rx="1.65" ry="2.85" transform="translate(-71.94 103.35) rotate(-89.84)"/><path class="cls-8" d="M5.54,87.74C4.1,86.42,3.62,83.57,3.62,82.2A4.61,4.61,0,0,1,5.67,78a4.63,4.63,0,0,1,4.71.35,12,12,0,0,1,5.47,9.06"/><ellipse class="cls-1" cx="75.21" cy="53.48" rx="1.65" ry="2.85" transform="translate(21.52 128.54) rotate(-89.84)"/><path class="cls-8" d="M64,52.64a10.64,10.64,0,0,1-1-4.37A4.6,4.6,0,0,1,65,44.07a4.65,4.65,0,0,1,4.71.34,12,12,0,0,1,5.47,9.07"/><line class="cls-6" x1="9.74" y1="103.07" x2="9.74" y2="96.46"/><path class="cls-8" d="M125,74.1a1.29,1.29,0,0,0-.79-1.32L79.55,47a2.11,2.11,0,0,0-.43-.2,4.32,4.32,0,0,0-1.53-.27,4.1,4.1,0,0,0-2,.47L1.83,89.9a2.07,2.07,0,0,0-.36.25,1.62,1.62,0,0,0-.25.28A1.08,1.08,0,0,0,1,91H1l0,6.31a1.39,1.39,0,0,0,.82,1.15l44.63,25.76a3.27,3.27,0,0,0,.92.36,5.1,5.1,0,0,0,1,.11,4,4,0,0,0,2-.47l73.79-42.89a1.37,1.37,0,0,0,.81-1.13l0-6.32A1.13,1.13,0,0,1,125,74.1Z"/><line class="cls-9" x1="105.53" y1="58.01" x2="105.53" y2="58.01"/><line class="cls-10" x1="105.53" y1="52.27" x2="105.53" y2="26.42"/><line class="cls-9" x1="105.53" y1="23.55" x2="105.53" y2="23.55"/><line class="cls-9" x1="60.6" y1="61.83" x2="60.6" y2="61.83"/><line class="cls-11" x1="60.6" y1="55.66" x2="60.6" y2="21.74"/><line class="cls-9" x1="60.6" y1="18.65" x2="60.6" y2="18.65"/><g class="cls-12"><polygon class="cls-13" points="81.98 5.55 98.18 14.96 105.59 10.68 89.39 1.27 81.98 5.55"/><polygon class="cls-14" points="81.98 5.55 82.02 21.52 98.22 22.34 98.18 14.96 81.98 5.55"/><polygon class="cls-15" points="98.18 14.96 98.22 22.34 105.63 18.06 105.59 10.68 98.18 14.96"/></g><g class="cls-12"><polygon class="cls-14" points="80.46 13.36 90.69 19.3 98.1 15.03 87.87 9.09 80.46 13.36"/><polygon class="cls-16" points="80.46 13.36 80.51 29.33 90.73 26.68 90.69 19.3 80.46 13.36"/><polygon class="cls-15" points="90.69 19.3 90.73 26.68 98.14 22.4 98.1 15.03 90.69 19.3"/></g><g class="cls-12"><polygon class="cls-13" points="60.6 10.36 83.3 23.55 90.71 19.28 68.01 6.08 60.6 10.36"/><polygon class="cls-14" points="60.6 10.36 60.64 17.74 83.34 30.93 83.3 23.55 60.6 10.36"/><polygon class="cls-15" points="83.3 23.55 83.34 30.93 90.75 26.65 90.71 19.28 83.3 23.55"/></g><polyline class="cls-17" points="83.34 32.59 60.64 19.39 60.6 10.36 83.3 23.55"/><polyline class="cls-18" points="83.3 23.55 105.59 10.68 105.63 19.72 83.34 32.59"/><line class="cls-19" x1="83.3" y1="23.56" x2="83.3" y2="32.56"/><line class="cls-19" x1="98.18" y1="14.96" x2="98.18" y2="23.97"/><line class="cls-19" x1="90.69" y1="19.3" x2="90.69" y2="28.31"/><polygon class="cls-19" points="60.6 10.36 83.3 23.55 105.59 10.68 105.63 19.72 83.34 32.59 60.64 19.39 60.6 10.36"/><polygon class="cls-9" points="105.63 18.06 105.59 10.68 89.39 1.27 81.98 5.55 82 12.48 80.5 13.34 68.01 6.08 60.6 10.36 60.64 19.39 83.34 32.59 105.63 19.72 105.63 18.06 105.63 18.06"/><rect class="cls-4" width="126" height="126"/></g></g></svg>