<svg xmlns="http://www.w3.org/2000/svg" viewBox="0 0 126 126"><defs><style>.cls-1{fill:#d5dae0;}.cls-1,.cls-2,.cls-3{stroke:#627386;}.cls-1,.cls-2,.cls-3,.cls-5,.cls-6,.cls-7,.cls-8{stroke-linecap:round;stroke-linejoin:round;stroke-width:2px;}.cls-2,.cls-4,.cls-5,.cls-8{fill:none;}.cls-3{fill:#fff;}.cls-5{stroke:#d5dae0;}.cls-6{fill:#bde4fd;}.cls-6,.cls-7{stroke:#1b6dc6;}.cls-7{fill:#e9f6fe;}.cls-8{stroke:#91d2fb;}</style></defs><title>roles(1x1)</title><g id="Layer_2" data-name="Layer 2"><g id="Illustrations"><path class="cls-1" d="M100,59.16l10.55,18.27a.83.83,0,0,1-1.13,1.13L94.07,69.72a4.47,4.47,0,0,1-1.61-1.62L79.73,48.57a.83.83,0,0,1,1.13-1.13l17.5,10.1A4.47,4.47,0,0,1,100,59.16Z"/><path class="cls-2" d="M100,59.16l10.55,18.27a.83.83,0,0,1-1.13,1.13L95.7,70.66A4.39,4.39,0,0,1,94.09,69L79.73,48.57a.83.83,0,0,1,1.13-1.13l17.5,10.1A4.47,4.47,0,0,1,100,59.16Z"/><path class="cls-3" d="M77.32,48.42,66.25,80.36a2.75,2.75,0,0,0,1.23,3.29l16.9,9.76a2.21,2.21,0,0,0,3.19-1.19L98.63,60.28A2.76,2.76,0,0,0,97.41,57L80.5,47.23A2.2,2.2,0,0,0,77.32,48.42Z"/><polygon class="cls-4" points="78.19 45.9 65.51 82.51 86.7 94.75 99.38 58.13 78.19 45.9"/><polygon class="cls-5" points="71.54 80.04 80.78 53.35 93.35 60.6 84.1 87.29 71.54 80.04"/><path class="cls-1" d="M74.6,73.8,85.15,92.07A.82.82,0,0,1,84,93.2L68.71,84.36a4.47,4.47,0,0,1-1.62-1.61L54.37,63.22a.82.82,0,0,1,1.13-1.13L73,72.19A4.29,4.29,0,0,1,74.6,73.8Z"/><path class="cls-2" d="M74.6,73.8,85.15,92.07A.82.82,0,0,1,84,93.2L70.33,85.3a4.44,4.44,0,0,1-1.61-1.61L54.37,63.22a.82.82,0,0,1,1.13-1.13L73,72.19A4.29,4.29,0,0,1,74.6,73.8Z"/><path class="cls-3" d="M52,63.07,40.88,95a2.77,2.77,0,0,0,1.23,3.29L59,108.06a2.2,2.2,0,0,0,3.18-1.19L73.27,74.93A2.77,2.77,0,0,0,72,71.64L55.13,61.88A2.2,2.2,0,0,0,52,63.07Z"/><polygon class="cls-4" points="52.82 60.54 40.14 97.16 61.33 109.39 74.01 72.78 52.82 60.54"/><polygon class="cls-5" points="46.17 94.69 55.42 68 67.98 75.25 58.73 101.94 46.17 94.69"/><path class="cls-1" d="M49.24,88.45l10.55,18.27a.83.83,0,0,1-1.13,1.13L43.34,99a4.49,4.49,0,0,1-1.62-1.62L29,77.86a.83.83,0,0,1,1.13-1.13l17.49,10.1A4.49,4.49,0,0,1,49.24,88.45Z"/><path class="cls-2" d="M49.24,88.45l10.55,18.27a.83.83,0,0,1-1.13,1.13L45,100a4.49,4.49,0,0,1-1.62-1.62L29,77.86a.83.83,0,0,1,1.13-1.13l17.49,10.1A4.49,4.49,0,0,1,49.24,88.45Z"/><path class="cls-3" d="M26.58,77.71,15.52,109.65a2.75,2.75,0,0,0,1.22,3.29l16.91,9.76a2.21,2.21,0,0,0,3.19-1.18L47.9,89.58a2.75,2.75,0,0,0-1.23-3.29l-16.9-9.76A2.2,2.2,0,0,0,26.58,77.71Z"/><polygon class="cls-5" points="20.8 109.33 30.05 82.64 42.61 89.9 33.37 116.58 20.8 109.33"/><path class="cls-1" d="M87.29,37.19,97.84,55.46a.83.83,0,0,1-1.13,1.13L81.39,47.75a4.39,4.39,0,0,1-1.61-1.62L67.05,26.6a.83.83,0,0,1,1.13-1.13l17.49,10.1A4.49,4.49,0,0,1,87.29,37.19Z"/><path class="cls-2" d="M87.29,37.19,97.84,55.46a.83.83,0,0,1-1.13,1.13L83,48.69a4.49,4.49,0,0,1-1.62-1.62L67.05,26.6a.83.83,0,0,1,1.13-1.13l17.49,10.1A4.49,4.49,0,0,1,87.29,37.19Z"/><path class="cls-3" d="M64.63,26.45,53.57,58.39a2.76,2.76,0,0,0,1.22,3.29L71.7,71.44a2.21,2.21,0,0,0,3.19-1.18L86,38.32A2.75,2.75,0,0,0,84.72,35l-16.9-9.76A2.2,2.2,0,0,0,64.63,26.45Z"/><polygon class="cls-4" points="65.51 23.93 52.82 60.54 74.01 72.78 86.7 36.16 65.51 23.93"/><polygon class="cls-5" points="58.85 58.07 68.1 31.38 80.66 38.64 71.42 65.33 58.85 58.07"/><path class="cls-1" d="M61.92,51.83,72.47,70.11a.83.83,0,0,1-1.13,1.13L56,62.39a4.44,4.44,0,0,1-1.61-1.61L41.68,41.25a.83.83,0,0,1,1.13-1.13l17.5,10.1A4.44,4.44,0,0,1,61.92,51.83Z"/><path class="cls-2" d="M61.92,51.83,72.47,70.11a.83.83,0,0,1-1.13,1.13L57.65,63.33A4.29,4.29,0,0,1,56,61.72L41.68,41.25a.83.83,0,0,1,1.13-1.13l17.5,10.1A4.44,4.44,0,0,1,61.92,51.83Z"/><path class="cls-3" d="M39.26,41.1,28.2,73a2.75,2.75,0,0,0,1.23,3.29l16.9,9.76a2.21,2.21,0,0,0,3.19-1.19L60.58,53a2.75,2.75,0,0,0-1.22-3.29L42.45,39.91A2.21,2.21,0,0,0,39.26,41.1Z"/><polygon class="cls-4" points="40.14 38.58 27.45 75.19 48.65 87.42 61.33 50.81 40.14 38.58"/><polygon class="cls-5" points="33.49 72.72 42.73 46.03 55.3 53.28 46.05 79.97 33.49 72.72"/><polygon class="cls-5" points="33.49 72.72 42.73 46.03 55.3 53.28 46.05 79.97 33.49 72.72"/><path class="cls-6" d="M74.6,15.22,85.15,33.49A.83.83,0,0,1,84,34.62L68.71,25.78a4.49,4.49,0,0,1-1.62-1.62L54.37,4.63A.83.83,0,0,1,55.5,3.5L73,13.6A4.39,4.39,0,0,1,74.6,15.22Z"/><path class="cls-7" d="M52,4.48,40.88,36.42a2.77,2.77,0,0,0,1.23,3.29L59,49.47a2.19,2.19,0,0,0,3.18-1.18L73.27,16.35A2.77,2.77,0,0,0,72,13.06L55.13,3.3A2.2,2.2,0,0,0,52,4.48Z"/><polygon class="cls-8" points="46.17 36.1 55.42 9.41 67.98 16.67 58.73 43.36 46.17 36.1"/><rect class="cls-4" width="126" height="126"/></g></g></svg>