<svg xmlns="http://www.w3.org/2000/svg" viewBox="0 0 126 126"><defs><style>.cls-1,.cls-10,.cls-12,.cls-2,.cls-3,.cls-4,.cls-8{fill:none;}.cls-1,.cls-2,.cls-3{stroke:#1b6dc6;}.cls-1,.cls-10,.cls-2,.cls-3,.cls-4,.cls-6,.cls-8{stroke-linecap:round;stroke-linejoin:round;stroke-width:2px;}.cls-2{stroke-dasharray:0 5.91;}.cls-3{stroke-dasharray:0 5.91;}.cls-4{stroke:#b8bfca;}.cls-5{fill:#d5dae0;}.cls-6{fill:#fff;}.cls-10,.cls-6{stroke:#91d2fb;}.cls-7{fill:#f2f4f6;}.cls-8{stroke:#627386;}.cls-9{fill:#bde4fd;}.cls-11{fill:#e9f6fe;}</style></defs><title>security_center(1x1)</title><g id="Layer_2" data-name="Layer 2"><g id="Illustrations"><line class="cls-1" x1="84.02" y1="62.42" x2="84.02" y2="62.42"/><line class="cls-2" x1="84.02" y1="56.51" x2="84.02" y2="35.8"/><line class="cls-1" x1="84.02" y1="32.85" x2="84.02" y2="32.85"/><line class="cls-1" x1="36.96" y1="61.65" x2="36.96" y2="61.65"/><line class="cls-3" x1="36.96" y1="55.75" x2="36.96" y2="29.17"/><line class="cls-1" x1="36.96" y1="26.22" x2="36.96" y2="26.22"/><path class="cls-4" d="M61.75,53.25,37,67.56l18.53,10.7c7.95,4.59,25.55.43,25.55.43s7.19-10.16-.76-14.75Z"/><path class="cls-4" d="M61.75,53.25,37,67.56l18.53,10.7c7.95,4.59,25.55.43,25.55.43s7.19-10.16-.76-14.75Z"/><path class="cls-4" d="M41.77,70.33,66.56,56l-4.81-2.77L37,67.56Z"/><polygon class="cls-4" points="69.69 72.14 67.63 75.98 63.6 72.7 56.64 72.75 60.81 69.53 58.57 65.72 65.17 67.01 70.75 64.61 70.66 68.63 76.34 70.95 69.69 72.14"/><polygon class="cls-4" points="69.69 72.14 67.63 75.98 63.6 72.7 56.64 72.75 60.81 69.53 58.57 65.72 65.17 67.01 70.75 64.61 70.66 68.63 76.34 70.95 69.69 72.14"/><path class="cls-4" d="M41.77,70.33,66.56,56l-4.81-2.77L37,67.56Z"/><path class="cls-5" d="M125,89.07l-1,0a7.43,7.43,0,0,0-2.77-2.63L102.73,75.7l-19.08,11-5.71-.33v4.84l18.53,10.7c8,4.59,25.54.43,25.54.43s3-4.21,3-8.44h0Z"/><path class="cls-6" d="M102.73,72.07,77.94,86.38l18.53,10.7c8,4.59,25.54.44,25.54.44s7.2-10.16-.75-14.75Z"/><path class="cls-7" d="M82.75,89.16l24.79-14.32-4.81-2.77L77.94,86.38Z"/><path class="cls-4" d="M82.75,89.16l24.79-14.32-4.81-2.77L77.94,86.38Z"/><path class="cls-4" d="M102.73,72.07,77.94,86.38l18.53,10.7c8,4.59,25.54.44,25.54.44s7.2-10.16-.75-14.75Z"/><polygon class="cls-7" points="110.67 90.97 108.61 94.81 104.58 91.52 97.62 91.58 101.79 88.35 99.55 84.55 106.14 85.84 111.73 83.43 111.64 87.45 117.32 89.77 110.67 90.97"/><polygon class="cls-4" points="110.67 90.97 108.61 94.81 104.58 91.52 97.62 91.58 101.79 88.35 99.55 84.55 106.14 85.84 111.73 83.43 111.64 87.45 117.32 89.77 110.67 90.97"/><path class="cls-8" d="M125,89.07a7.56,7.56,0,0,0-.26-2.06,7,7,0,0,0-3.47-4.24l-8.6-5-.76-.44-1.48-.85L109,75.7l-1.47-.86h0l-2.78-1.6-.7-.4-1.27-.74-.06,0h0l-2.37,1.37L92.6,77.91,77.94,86.38h0v4.84l18.53,10.7c8,4.59,25.54.43,25.54.43s3-4.21,3-8.44h0V89.07Z"/><path class="cls-5" d="M89,109.84l-1-.06a7.41,7.41,0,0,0-2.77-2.62L66.77,96.46l-19.08,11L42,107.14V112l18.53,10.7c7.95,4.59,25.54.43,25.54.43s3-4.21,3-8.44h0Z"/><path class="cls-6" d="M66.77,92.83,42,107.14l18.53,10.7c7.95,4.59,25.54.44,25.54.44s7.2-10.16-.75-14.75Z"/><path class="cls-7" d="M46.79,109.92,71.58,95.61l-4.81-2.78L42,107.14Z"/><path class="cls-4" d="M46.79,109.92,71.58,95.61l-4.81-2.78L42,107.14Z"/><path class="cls-4" d="M66.77,92.83,42,107.14l18.53,10.7c7.95,4.59,25.54.44,25.54.44s7.2-10.16-.75-14.75Z"/><polygon class="cls-7" points="74.71 111.73 72.64 115.57 68.62 112.29 61.66 112.34 65.83 109.11 63.59 105.31 70.18 106.6 75.77 104.19 75.68 108.21 81.36 110.53 74.71 111.73"/><polygon class="cls-4" points="74.71 111.73 72.64 115.57 68.62 112.29 61.66 112.34 65.83 109.11 63.59 105.31 70.18 106.6 75.77 104.19 75.68 108.21 81.36 110.53 74.71 111.73"/><path class="cls-8" d="M89,109.84a7.63,7.63,0,0,0-.26-2.07,7,7,0,0,0-3.47-4.24l-8.6-5-.76-.44-1.48-.86-1.41-.81-1.47-.85h0L68.8,94l-.7-.4-1.27-.74-.06,0h0L64.4,94.2l-7.76,4.48L42,107.14h0V112l18.53,10.7c7.95,4.59,25.54.43,25.54.43s3-4.21,3-8.44h0v-4.83Z"/><path class="cls-5" d="M48.06,86.18l-1-.06a7.41,7.41,0,0,0-2.77-2.62L25.79,72.8l-19.07,11L1,83.48v4.84L19.53,99c8,4.59,25.55.43,25.55.43s3-4.21,3-8.44h0Z"/><path class="cls-6" d="M25.79,69.17,1,83.48l18.53,10.7c8,4.59,25.55.44,25.55.44s7.19-10.16-.76-14.75Z"/><path class="cls-7" d="M5.81,86.26,30.6,72l-4.81-2.78L1,83.48Z"/><path class="cls-4" d="M5.81,86.26,30.6,72l-4.81-2.78L1,83.48Z"/><path class="cls-4" d="M25.79,69.17,1,83.48l18.53,10.7c8,4.59,25.55.44,25.55.44s7.19-10.16-.76-14.75Z"/><polygon class="cls-7" points="33.73 88.07 31.67 91.91 27.64 88.63 20.68 88.68 24.85 85.46 22.61 81.65 29.21 82.94 34.79 80.53 34.7 84.56 40.38 86.88 33.73 88.07"/><polygon class="cls-4" points="33.73 88.07 31.67 91.91 27.64 88.63 20.68 88.68 24.85 85.46 22.61 81.65 29.21 82.94 34.79 80.53 34.7 84.56 40.38 86.88 33.73 88.07"/><path class="cls-8" d="M48.06,86.18a7.64,7.64,0,0,0-.27-2.07,7,7,0,0,0-3.47-4.24l-8.59-5L35,74.47l-1.48-.86-1.41-.81L30.6,72h0l-2.78-1.61-.7-.4-1.27-.74-.06,0h0l-2.37,1.37L15.67,75,1,83.48H1v4.84L19.53,99c8,4.59,25.55.43,25.55.43s3-4.21,3-8.44h0V86.18Z"/><path class="cls-9" d="M84,18.17l-1-.06a7.49,7.49,0,0,0-2.77-2.62L61.75,4.79l-19.07,11L37,15.48v4.83L55.49,31c7.95,4.59,25.55.44,25.55.44s3-4.22,3-8.45h0Z"/><path class="cls-6" d="M61.75,1.16,37,15.48,55.49,26.17c7.95,4.59,25.55.44,25.55.44s7.19-10.16-.76-14.75Z"/><path class="cls-10" d="M61.75,1.16,37,15.48,55.49,26.17c7.95,4.59,25.55.44,25.55.44s7.19-10.16-.76-14.75Z"/><path class="cls-11" d="M41.77,18.25,66.56,3.94,61.75,1.16,37,15.48Z"/><polygon class="cls-11" points="69.69 20.06 67.63 23.9 63.61 20.62 56.64 20.67 60.81 17.45 58.57 13.64 65.17 14.93 70.75 12.53 70.66 16.55 76.34 18.87 69.69 20.06"/><polygon class="cls-10" points="69.69 20.06 67.63 23.9 63.61 20.62 56.64 20.67 60.81 17.45 58.57 13.64 65.17 14.93 70.75 12.53 70.66 16.55 76.34 18.87 69.69 20.06"/><path class="cls-10" d="M41.77,18.25,66.56,3.94,61.75,1.16,37,15.48Z"/><path class="cls-1" d="M84,18.17a7.64,7.64,0,0,0-.27-2.07,7,7,0,0,0-3.47-4.24l-8.59-5-.77-.44L69.44,5.6,68,4.79l-1.47-.85h0l-2.78-1.6-.7-.41L61.81,1.2l-.06,0h0L59.38,2.53,51.63,7,37,15.48h0v4.83L55.49,31c7.95,4.59,25.55.44,25.55.44s3-4.22,3-8.45h0V18.17Z"/><rect class="cls-12" width="126" height="126"/></g></g></svg>