<svg xmlns="http://www.w3.org/2000/svg" viewBox="0 0 126 126"><defs><style>.cls-1,.cls-12,.cls-13,.cls-4,.cls-7,.cls-9{fill:none;}.cls-15,.cls-2,.cls-6{fill:#f2f4f6;}.cls-2,.cls-7{stroke:#627386;}.cls-10,.cls-11,.cls-12,.cls-13,.cls-14,.cls-15,.cls-2,.cls-4,.cls-5,.cls-7,.cls-9{stroke-linecap:round;stroke-linejoin:round;stroke-width:2px;}.cls-14,.cls-3{fill:#d5dae0;}.cls-14,.cls-15,.cls-4,.cls-5{stroke:#b8bfca;}.cls-5{fill:#fff;}.cls-8{fill:#faabab;}.cls-11,.cls-9{stroke:#faabab;}.cls-10{fill:#feeeee;stroke:#fff;}.cls-11{fill:#fccccc;}.cls-12,.cls-13{stroke:#c44556;}.cls-13{stroke-dasharray:0 5.37;}</style></defs><title>settings_error(1x1)</title><g id="Layer_2" data-name="Layer 2"><g id="Illustrations"><rect class="cls-1" width="126" height="126"/><path class="cls-2" d="M102.26,54.05,101.21,53a5.62,5.62,0,0,0-3.85-1.28H79.16A5.64,5.64,0,0,0,75.31,53l-1,1.06H65.62V65a1.81,1.81,0,0,0,.59,1.28l9.1,9.1a5.59,5.59,0,0,0,3.85,1.29h18.2a5.57,5.57,0,0,0,3.85-1.29l9.1-9.1a1.82,1.82,0,0,0,.6-1.28v-11Z"/><path class="cls-3" d="M101.21,53a5.62,5.62,0,0,0-3.85-1.28H79.16a6.48,6.48,0,0,0-3.1.73V76a6.48,6.48,0,0,0,3.1.73h18.2a5.57,5.57,0,0,0,3.85-1.29l9.1-9.1a1.82,1.82,0,0,0,.6-1.28v-11h-8.65Z"/><path class="cls-4" d="M102.26,54.05,101.21,53a5.62,5.62,0,0,0-3.85-1.28H79.16A5.64,5.64,0,0,0,75.31,53l-1,1.06H65.62V65a1.81,1.81,0,0,0,.59,1.28l9.1,9.1a5.59,5.59,0,0,0,3.85,1.29h18.2a5.57,5.57,0,0,0,3.85-1.29l9.1-9.1a1.82,1.82,0,0,0,.6-1.28v-11Z"/><path class="cls-5" d="M75.31,64.43l-9.1-9.1a1.69,1.69,0,0,1,0-2.57l9.1-9.1a5.64,5.64,0,0,1,3.85-1.28h18.2a5.62,5.62,0,0,1,3.85,1.28l9.1,9.1a1.68,1.68,0,0,1,0,2.57l-9.1,9.1a5.62,5.62,0,0,1-3.85,1.28H79.16A5.64,5.64,0,0,1,75.31,64.43Z"/><ellipse class="cls-6" cx="88.26" cy="54.05" rx="7.4" ry="4.27"/><path class="cls-3" d="M80.86,54.05c0,2.35,3.32,4.27,7.4,4.27V49.77C84.18,49.77,80.86,51.69,80.86,54.05Z"/><ellipse class="cls-4" cx="88.26" cy="54.05" rx="7.4" ry="4.27"/><path class="cls-7" d="M110.91,54.05h0a1.82,1.82,0,0,0-.6-1.29l-9.1-9.1a5.62,5.62,0,0,0-3.85-1.28H79.16a5.64,5.64,0,0,0-3.85,1.28l-9.1,9.1a1.81,1.81,0,0,0-.59,1.29V65a1.81,1.81,0,0,0,.59,1.28l9.1,9.1a3.67,3.67,0,0,0,.75.56h0c.19.1.39.19.6.28l.12,0a4.77,4.77,0,0,0,.7.21h0a5.4,5.4,0,0,0,.72.13l.19,0a6.49,6.49,0,0,0,.77,0h18.2a5.57,5.57,0,0,0,3.85-1.29L106.67,70l3.64-3.64a2,2,0,0,0,.19-.22,1.71,1.71,0,0,0,.41-1.06Z"/><path class="cls-8" d="M51.63,28.57c-.59-.18-1.2-.34-1.83-.49V24.9c0-1.14-1.6-2.07-3.58-2.07H38.88c-2,0-3.58.93-3.58,2.07v3.19q-.94.21-1.83.48H15.09V42.8c0,1.14,1.61,2.07,3.59,2.07h5.51c2,2.93,6,5.26,11.11,6.41v3.19c0,1.14,1.6,2.07,3.58,2.07h7.34c2,0,3.58-.93,3.58-2.07V51.28c5.07-1.15,9.1-3.48,11.11-6.41h5.52c2,0,3.58-.93,3.58-2.07V28.57Z"/><path class="cls-9" d="M51.63,28.57c-.59-.18-1.2-.34-1.83-.49V24.9c0-1.14-1.6-2.07-3.58-2.07H38.88c-2,0-3.58.93-3.58,2.07v3.19q-.94.21-1.83.48H15.09V42.8c0,1.14,1.61,2.07,3.59,2.07h5.51c2,2.93,6,5.26,11.11,6.41v3.19c0,1.14,1.6,2.07,3.58,2.07h7.34c2,0,3.58-.93,3.58-2.07V51.28c5.07-1.15,9.1-3.48,11.11-6.41h5.52c2,0,3.58-.93,3.58-2.07V28.57Z"/><path class="cls-10" d="M66.43,26.5H60.91c-2-2.93-6-5.26-11.11-6.42V16.9c0-1.14-1.6-2.07-3.58-2.07H38.88c-2,0-3.58.93-3.58,2.07v3.19c-5.07,1.15-9.1,3.48-11.11,6.41H18.68c-2,0-3.59.92-3.59,2.07V32.8c0,1.14,1.61,2.07,3.59,2.07h5.51c2,2.93,6,5.26,11.11,6.41v3.19c0,1.14,1.6,2.07,3.58,2.07h7.34c2,0,3.58-.93,3.58-2.07V41.28c5.07-1.15,9.1-3.48,11.11-6.41h5.52c2,0,3.58-.93,3.58-2.07V28.57C70,27.42,68.4,26.5,66.43,26.5Z"/><ellipse class="cls-11" cx="42.55" cy="30.68" rx="8.51" ry="4.91"/><line class="cls-12" x1="70.01" y1="28.57" x2="70.01" y2="28.57"/><line class="cls-13" x1="70.01" y1="23.19" x2="70.01" y2="9.76"/><line class="cls-12" x1="70.01" y1="7.08" x2="70.01" y2="7.08"/><line class="cls-12" x1="15.09" y1="28.57" x2="15.09" y2="28.57"/><line class="cls-13" x1="15.09" y1="23.19" x2="15.09" y2="9.76"/><line class="cls-12" x1="15.09" y1="7.08" x2="15.09" y2="7.08"/><path class="cls-12" d="M66.43,26.5H60.91c-2-2.93-6-5.26-11.11-6.42V16.9c0-1.14-1.6-2.07-3.58-2.07H38.88c-2,0-3.58.93-3.58,2.07v3.19c-5.07,1.15-9.1,3.48-11.11,6.41H18.68c-2,0-3.59.92-3.59,2.07V42.8c0,1.14,1.61,2.07,3.59,2.07h5.51c2,2.93,6,5.26,11.11,6.41v3.19c0,1.14,1.6,2.07,3.58,2.07h7.34a5.43,5.43,0,0,0,2.18-.44h0a3.45,3.45,0,0,0,.54-.3l.12-.09.18-.15.19-.2.1-.13a1.91,1.91,0,0,0,.15-.28,1,1,0,0,1,0-.1,1.59,1.59,0,0,0,.06-.37V51.28c5.07-1.15,9.1-3.48,11.11-6.41h5.52a4.08,4.08,0,0,0,.61,0c1.69-.17,3-1,3-2V28.57C70,27.42,68.4,26.5,66.43,26.5Z"/><path class="cls-14" d="M68.75,77.39V77.2c0-1-1.34-1.72-3-1.72H54.91c-1.65,0-3,.77-3,1.72v.19H24.82v27.16h0a1.23,1.23,0,0,0,.4.86l5.42,5.42a4.36,4.36,0,0,0,4.09.63l7.07-2.35a36,36,0,0,0,10.12,3.37v4.72c0,1,1.34,1.72,3,1.72H65.76c1.65,0,3-.77,3-1.72v-4.72a36,36,0,0,0,10.12-3.37l7.07,2.35a4.36,4.36,0,0,0,4.09-.63l5.42-5.42a1.23,1.23,0,0,0,.4-.86h0V77.39Z"/><path class="cls-6" d="M78.87,109.11h0l7.07,2.35a4.91,4.91,0,0,0,2.12.2V87H78.87Z"/><path class="cls-6" d="M25.22,105.41l5.42,5.42a3.88,3.88,0,0,0,2.75.86V77.39H24.82v27.16h0A1.23,1.23,0,0,0,25.22,105.41Z"/><path class="cls-15" d="M41.8,109.11a36,36,0,0,0,10.12,3.37V84.05H41.8v25.06Z"/><ellipse class="cls-6" cx="60.33" cy="84.62" rx="12.46" ry="7.19"/><line class="cls-7" x1="24.82" y1="88.97" x2="24.82" y2="101.43"/><line class="cls-4" x1="41.8" y1="93.53" x2="41.8" y2="109.11"/><line class="cls-4" x1="51.92" y1="101.62" x2="51.92" y2="117.2"/><line class="cls-4" x1="68.75" y1="101.62" x2="68.75" y2="117.2"/><line class="cls-4" x1="78.87" y1="93.53" x2="78.87" y2="109.11"/><path class="cls-3" d="M47.87,84.62c0,4,5.58,7.19,12.46,7.19V77.42C53.45,77.42,47.87,80.64,47.87,84.62Z"/><ellipse class="cls-4" cx="60.33" cy="84.62" rx="12.46" ry="7.19"/><path class="cls-4" d="M24.82,77.39v27.16h0a1.23,1.23,0,0,0,.4.86l5.42,5.42a4.36,4.36,0,0,0,4.09.63l7.07-2.35a36,36,0,0,0,10.12,3.37v4.72c0,1,1.34,1.72,3,1.72H65.76c1.65,0,3-.77,3-1.72v-4.72a36,36,0,0,0,10.12-3.37l7.07,2.35a4.36,4.36,0,0,0,4.09-.63l5.42-5.42a1.23,1.23,0,0,0,.4-.86h0V77.39"/><path class="cls-5" d="M94.35,90.35,87.28,88a9.36,9.36,0,0,0,0-6.75l7.07-2.35c1.43-.48,1.92-1.54,1.1-2.36L90,71.11a4.39,4.39,0,0,0-4.09-.64l-7.07,2.36a36.15,36.15,0,0,0-10.12-3.37V64.74c0-.95-1.34-1.72-3-1.72H54.91c-1.65,0-3,.77-3,1.72v4.72A36,36,0,0,0,41.8,72.83l-7.07-2.36a4.39,4.39,0,0,0-4.09.64l-5.42,5.42c-.82.82-.33,1.88,1.1,2.36l7.07,2.35a9.36,9.36,0,0,0,0,6.75l-7.07,2.36c-1.43.48-1.92,1.53-1.1,2.36l5.42,5.42a4.39,4.39,0,0,0,4.09.63L41.8,96.4a35.73,35.73,0,0,0,10.12,3.38v4.71c0,1,1.34,1.73,3,1.73H65.76c1.65,0,3-.77,3-1.73V99.78A35.84,35.84,0,0,0,78.87,96.4l7.07,2.36A4.39,4.39,0,0,0,90,98.13l5.42-5.42C96.27,91.88,95.78,90.83,94.35,90.35Zm-34,1.46c-6.88,0-12.46-3.22-12.46-7.19s5.58-7.2,12.46-7.2,12.47,3.22,12.47,7.2S67.22,91.81,60.33,91.81Z"/><path class="cls-7" d="M95.84,77.39a1.21,1.21,0,0,0-.39-.86L90,71.11a4.39,4.39,0,0,0-4.09-.64l-7.07,2.36a36,36,0,0,0-10.12-3.37V64.74c0-.95-1.34-1.72-3-1.72H54.91c-1.65,0-3,.77-3,1.72v4.72A36,36,0,0,0,41.8,72.83l-7.07-2.36a4.39,4.39,0,0,0-4.09.64l-5.42,5.42a1.21,1.21,0,0,0-.39.86h0v27.16h0a1.23,1.23,0,0,0,.4.86l5.42,5.42a2.87,2.87,0,0,0,.47.35l.15.08a4.53,4.53,0,0,0,.49.2l.11,0a7,7,0,0,0,.69.15h.12c.2,0,.41,0,.62,0h.1a4.65,4.65,0,0,0,1.34-.23l7.07-2.35a36,36,0,0,0,10.12,3.37v4.72c0,1,1.34,1.72,3,1.72H65.76c1.65,0,3-.77,3-1.72v-4.72a36,36,0,0,0,10.12-3.37l7.07,2.35a3.18,3.18,0,0,0,.53.14l.24,0,.31,0h.55l.32,0h.17a3.42,3.42,0,0,0,2-.82l5.42-5.42a1.23,1.23,0,0,0,.4-.86h0V77.39Z"/></g></g></svg>