<svg xmlns="http://www.w3.org/2000/svg" viewBox="0 0 126 126"><defs><style>.cls-1,.cls-4{fill:#bde4fd;}.cls-1,.cls-3,.cls-5{stroke:#91d2fb;}.cls-1,.cls-11,.cls-12,.cls-13,.cls-14,.cls-3,.cls-5,.cls-6,.cls-7,.cls-9{stroke-linecap:round;stroke-linejoin:round;stroke-width:2px;}.cls-2{fill:#d3edfd;}.cls-3{fill:#e9f6fe;}.cls-11,.cls-13,.cls-15,.cls-5,.cls-6,.cls-7{fill:none;}.cls-6,.cls-7{stroke:#1b6dc6;}.cls-7{stroke-dasharray:0 5.37;}.cls-14,.cls-8{fill:#f2f4f6;}.cls-10,.cls-9{fill:#d5dae0;}.cls-11,.cls-12,.cls-14,.cls-9{stroke:#b8bfca;}.cls-12{fill:#fff;}.cls-13{stroke:#627386;}</style></defs><title>settings(1x1)</title><g id="Layer_2" data-name="Layer 2"><g id="Illustrations"><path class="cls-1" d="M42.5,27.49v-.13c0-.64-.91-1.16-2-1.16H33.13c-1.12,0-2,.52-2,1.16v.13H12.75V47.88h0a.86.86,0,0,0,.27.59l3.67,3.67a2.94,2.94,0,0,0,2.77.42L24.25,51a24.3,24.3,0,0,0,6.85,2.28v3.2c0,.64.91,1.16,2,1.16h7.34c1.12,0,2-.52,2-1.16v-3.2A24.3,24.3,0,0,0,49.35,51l4.79,1.59a2.94,2.94,0,0,0,2.77-.42l3.67-3.67a.86.86,0,0,0,.27-.59h0V27.49Z"/><path class="cls-2" d="M49.35,51h0l4.79,1.59a3.3,3.3,0,0,0,1.43.13V34H49.35Z"/><path class="cls-2" d="M13,48.47l3.67,3.67a2.66,2.66,0,0,0,1.86.58V27.49h-5.8V47.88h0A.86.86,0,0,0,13,48.47Z"/><path class="cls-2" d="M24.25,51a24.3,24.3,0,0,0,6.85,2.28V32H24.25V51Z"/><ellipse class="cls-2" cx="36.8" cy="32.38" rx="8.44" ry="4.87"/><line class="cls-3" x1="12.75" y1="35.33" x2="12.75" y2="45.77"/><line class="cls-3" x1="24.25" y1="38.42" x2="24.25" y2="50.97"/><line class="cls-3" x1="31.1" y1="43.9" x2="31.1" y2="56.45"/><line class="cls-3" x1="42.5" y1="43.9" x2="42.5" y2="56.45"/><line class="cls-3" x1="49.35" y1="38.42" x2="49.35" y2="50.97"/><path class="cls-4" d="M28.36,32.38c0,2.7,3.78,4.88,8.44,4.88V27.51C32.14,27.51,28.36,29.69,28.36,32.38Z"/><ellipse class="cls-5" cx="36.8" cy="32.38" rx="8.44" ry="4.87"/><path class="cls-5" d="M12.75,27.49V47.88h0a.86.86,0,0,0,.27.59l3.67,3.67a2.94,2.94,0,0,0,2.77.42L24.25,51a24.3,24.3,0,0,0,6.85,2.28v3.2c0,.64.91,1.16,2,1.16h7.34c1.12,0,2-.52,2-1.16v-3.2A24.3,24.3,0,0,0,49.35,51l4.79,1.59a2.94,2.94,0,0,0,2.77-.42l3.67-3.67a.86.86,0,0,0,.27-.59h0V27.49"/><path class="cls-3" d="M59.83,36.27l-4.78-1.6a6.43,6.43,0,0,0,0-4.57l4.78-1.6c1-.32,1.31-1,.75-1.59l-3.67-3.67a3,3,0,0,0-2.77-.43L49.35,24.4a24.3,24.3,0,0,0-6.85-2.28V18.93c0-.65-.91-1.17-2-1.17H33.13c-1.12,0-2,.52-2,1.17v3.19a24.3,24.3,0,0,0-6.85,2.28l-4.79-1.59a3,3,0,0,0-2.77.43L13,26.91c-.56.56-.22,1.27.74,1.59l4.79,1.6a6.43,6.43,0,0,0,0,4.57l-4.79,1.6c-1,.32-1.3,1-.74,1.59l3.67,3.67a3,3,0,0,0,2.77.43l4.79-1.59a24.3,24.3,0,0,0,6.85,2.28v3.19c0,.65.91,1.17,2,1.17h7.34c1.12,0,2-.52,2-1.17V42.65a24.3,24.3,0,0,0,6.85-2.28L54.14,42a3,3,0,0,0,2.77-.43l3.67-3.67C61.14,37.3,60.8,36.59,59.83,36.27Zm-23,1c-4.66,0-8.44-2.18-8.44-4.88s3.78-4.87,8.44-4.87,8.44,2.18,8.44,4.87S41.46,37.26,36.8,37.26Z"/><line class="cls-6" x1="60.85" y1="27.49" x2="60.85" y2="27.49"/><line class="cls-7" x1="60.85" y1="22.12" x2="60.85" y2="8.69"/><line class="cls-6" x1="60.85" y1="6" x2="60.85" y2="6"/><line class="cls-6" x1="12.75" y1="27.49" x2="12.75" y2="27.49"/><line class="cls-7" x1="12.75" y1="22.12" x2="12.75" y2="8.69"/><line class="cls-6" x1="12.75" y1="6" x2="12.75" y2="6"/><path class="cls-6" d="M60.84,27.49a.81.81,0,0,0-.26-.58l-3.67-3.67a3,3,0,0,0-2.77-.43L49.35,24.4a24.26,24.26,0,0,0-6.86-2.28V18.93c0-.65-.9-1.17-2-1.17H33.13c-1.12,0-2,.52-2,1.17v3.19a24.3,24.3,0,0,0-6.85,2.28l-4.79-1.59a3,3,0,0,0-2.77.43L13,26.91a.81.81,0,0,0-.26.58h0V47.88h0a.86.86,0,0,0,.27.59l3.67,3.67a2,2,0,0,0,.32.23l.1.05a1.64,1.64,0,0,0,.33.14l.08,0,.46.1h.09a2.86,2.86,0,0,0,.42,0h.06a2.8,2.8,0,0,0,.91-.15L24.25,51a24.3,24.3,0,0,0,6.85,2.28v3.2c0,.64.91,1.16,2,1.16h7.34c1.12,0,2-.52,2-1.16v-3.2A24.26,24.26,0,0,0,49.35,51l4.79,1.59a2.65,2.65,0,0,0,.68.14h0a3.08,3.08,0,0,0,.68,0s0,0,0,0h0a2.42,2.42,0,0,0,1.34-.55l3.67-3.67a.86.86,0,0,0,.27-.59h0V27.49Z"/><path class="cls-8" d="M103.2,54.52a2.06,2.06,0,0,0-.71-.37l-7.21-2.41a3.36,3.36,0,0,0-3.14.49l-1.26,1.26L77,52.33l-.1-.1a3.36,3.36,0,0,0-3.14-.49L73,52,55.78,50.55v12h0v4.81c0,.73,1,1.33,2.3,1.33h6.27a10,10,0,0,0,1,1.52v6.76h0c0,.46.41.91,1.14,1.15l7.21,2.41A3.39,3.39,0,0,0,76.89,80L80,76.86a36.46,36.46,0,0,0,9,0L92.14,80a3.39,3.39,0,0,0,3.14.49l7.21-2.41c.73-.24,1.14-.69,1.14-1.15h0V70.17a11.09,11.09,0,0,0,1-1.52H111c1.27,0,2.3-.6,2.3-1.33v-12Z"/><path class="cls-9" d="M102.49,54.15l-3.23-1.08V71.51h4.38V70.17a11.09,11.09,0,0,0,1-1.52H111c1.27,0,2.3-.6,2.3-1.33v-12l-10-.84A2.06,2.06,0,0,0,102.49,54.15Z"/><path class="cls-10" d="M64.35,53H55.78v9.55h0v4.81c0,.73,1,1.33,2.3,1.33h6.27Z"/><path class="cls-8" d="M94.89,61V80.59A3.27,3.27,0,0,1,92.14,80L89,76.86V61Z"/><path class="cls-10" d="M94.89,80.59l.39-.1,7.21-2.41c.73-.24,1.14-.69,1.14-1.15h0V70.17h0V64.82H94.89Z"/><path class="cls-10" d="M74.15,61V80.59A3.26,3.26,0,0,0,76.89,80L80,76.86V61Z"/><path class="cls-9" d="M89,59.87H80v17a36.46,36.46,0,0,0,9,0h0Z"/><polyline class="cls-9" points="103.64 54.1 103.64 40.94 84.59 41.45 65.39 40.94 65.39 54.1"/><line class="cls-11" x1="65.39" y1="70.17" x2="65.39" y2="64.82"/><line class="cls-11" x1="103.64" y1="70.17" x2="103.64" y2="64.82"/><path class="cls-12" d="M111,49.23h-6.27a10.66,10.66,0,0,0-1.83-2.39,15.21,15.21,0,0,0-2.66-2.1l3.14-3.14c.63-.63.26-1.44-.84-1.81l-7.21-2.4a3.36,3.36,0,0,0-3.14.48L89,41a35.9,35.9,0,0,0-9,0l-3.14-3.14a3.36,3.36,0,0,0-3.14-.48l-7.21,2.4c-1.1.37-1.47,1.18-.84,1.81l3.14,3.14a12.9,12.9,0,0,0-4.49,4.49H58.08c-1.27,0-2.3.59-2.3,1.32v4.81c0,.73,1,1.33,2.3,1.33h6.27a10.84,10.84,0,0,0,1.83,2.38,15.21,15.21,0,0,0,2.66,2.1L65.7,64.31c-.63.63-.26,1.45.84,1.81l7.21,2.4A3.36,3.36,0,0,0,76.89,68L80,64.9a36.46,36.46,0,0,0,9,0L92.14,68a3.36,3.36,0,0,0,3.14.48l7.21-2.4c1.1-.36,1.47-1.18.84-1.81l-3.14-3.13a13,13,0,0,0,4.49-4.49H111c1.27,0,2.3-.6,2.3-1.33V50.55C113.25,49.82,112.22,49.23,111,49.23ZM89.3,57.74c-4.58,1.53-10.43.62-13.07-2s-1.08-6,3.5-7.55,10.43-.62,13.07,2S93.88,56.22,89.3,57.74Z"/><line class="cls-11" x1="80.03" y1="64.9" x2="80.03" y2="76.86"/><line class="cls-11" x1="89.01" y1="64.91" x2="89.01" y2="76.87"/><line class="cls-12" x1="103.64" y1="64.82" x2="103.64" y2="76.93"/><path class="cls-11" d="M55.78,50.55v12h0v4.81c0,.73,1,1.33,2.3,1.33h6.27a10,10,0,0,0,1,1.52v6.76h0c0,.46.41.91,1.14,1.15l7.21,2.41A3.39,3.39,0,0,0,76.89,80L80,76.86a36.46,36.46,0,0,0,9,0L92.14,80a3.39,3.39,0,0,0,3.14.49l7.21-2.41c.73-.24,1.14-.69,1.14-1.15h0V70.17a11.09,11.09,0,0,0,1-1.52H111c1.27,0,2.3-.6,2.3-1.33v-12"/><ellipse class="cls-10" cx="84.52" cy="52.96" rx="9.57" ry="5.53"/><path class="cls-8" d="M84.52,47.43v11a15.36,15.36,0,0,0,4.78-.74c4.58-1.52,6.15-4.9,3.5-7.55C91,48.42,87.82,47.43,84.52,47.43Z"/><ellipse class="cls-11" cx="84.52" cy="52.96" rx="9.57" ry="5.53"/><path class="cls-13" d="M111,49.23h-6.27a10.81,10.81,0,0,0-1-1.52V40.94h0c0-.46-.41-.9-1.14-1.15l-7.21-2.4a3.36,3.36,0,0,0-3.14.48L89,41a35.9,35.9,0,0,0-9,0l-3.14-3.14a3.36,3.36,0,0,0-3.14-.48l-7.21,2.4c-.73.25-1.14.69-1.14,1.15h0v6.79a10.92,10.92,0,0,0-1,1.5H58.08c-1.27,0-2.3.59-2.3,1.32v12h0v4.81c0,.73,1,1.33,2.3,1.33h6.27a10,10,0,0,0,1,1.52v6.76h0c0,.46.41.91,1.14,1.15l7.21,2.41.4.1h0a3.51,3.51,0,0,0,.72.07H75a4.9,4.9,0,0,0,.67-.07l.1,0a2.64,2.64,0,0,0,.6-.19l.07,0a1.86,1.86,0,0,0,.48-.33L80,76.86a36.46,36.46,0,0,0,9,0L92.14,80a1.75,1.75,0,0,0,.49.33l.06,0a3.52,3.52,0,0,0,.6.2l.1,0a5.05,5.05,0,0,0,.68.07h.09a3.51,3.51,0,0,0,.72-.07h0l.39-.1,7.21-2.41c.73-.24,1.14-.69,1.14-1.15h0V70.17a11.09,11.09,0,0,0,1-1.52H111c1.27,0,2.3-.6,2.3-1.33V50.55C113.25,49.82,112.22,49.23,111,49.23Z"/><path class="cls-9" d="M63,78.47v-.19c0-1-1.34-1.73-3-1.73H49.17c-1.65,0-3,.78-3,1.73v.19H19.07v27.16h0a1.19,1.19,0,0,0,.4.86l5.42,5.42a4.33,4.33,0,0,0,4.08.63l7.08-2.36a35.63,35.63,0,0,0,10.12,3.38v4.71c0,1,1.34,1.73,3,1.73H60c1.65,0,3-.77,3-1.73v-4.71a35.63,35.63,0,0,0,10.12-3.38l7.07,2.36a4.35,4.35,0,0,0,4.09-.63l5.42-5.42a1.23,1.23,0,0,0,.4-.86h0V78.47Z"/><path class="cls-8" d="M73.12,110.18h0l7.07,2.36a4.92,4.92,0,0,0,2.12.19V88H73.12Z"/><path class="cls-8" d="M19.48,106.49l5.42,5.42a3.86,3.86,0,0,0,2.74.86V78.47H19.07v27.16h0A1.19,1.19,0,0,0,19.48,106.49Z"/><path class="cls-14" d="M36.06,110.18a35.63,35.63,0,0,0,10.12,3.38V85.12H36.06v25.06Z"/><ellipse class="cls-8" cx="54.59" cy="85.7" rx="12.46" ry="7.19"/><line class="cls-13" x1="19.07" y1="90.05" x2="19.07" y2="102.51"/><line class="cls-11" x1="36.06" y1="94.61" x2="36.06" y2="110.18"/><line class="cls-11" x1="46.18" y1="102.7" x2="46.18" y2="118.27"/><line class="cls-11" x1="63" y1="102.7" x2="63" y2="118.27"/><line class="cls-11" x1="73.12" y1="94.61" x2="73.12" y2="110.18"/><path class="cls-10" d="M42.13,85.7c0,4,5.58,7.19,12.46,7.19V78.5C47.71,78.5,42.13,81.72,42.13,85.7Z"/><ellipse class="cls-11" cx="54.59" cy="85.7" rx="12.46" ry="7.19"/><path class="cls-11" d="M19.07,78.47v27.16h0a1.19,1.19,0,0,0,.4.86l5.42,5.42a4.33,4.33,0,0,0,4.08.63l7.08-2.36a35.63,35.63,0,0,0,10.12,3.38v4.71c0,1,1.34,1.73,3,1.73H60c1.65,0,3-.77,3-1.73v-4.71a35.63,35.63,0,0,0,10.12-3.38l7.07,2.36a4.35,4.35,0,0,0,4.09-.63l5.42-5.42a1.23,1.23,0,0,0,.4-.86h0V78.47"/><path class="cls-12" d="M88.61,91.43l-7.07-2.36a9.5,9.5,0,0,0,0-6.75L88.61,80c1.43-.47,1.92-1.53,1.09-2.36l-5.42-5.42a4.41,4.41,0,0,0-4.09-.63l-7.07,2.36A35.94,35.94,0,0,0,63,70.53V65.82c0-.95-1.34-1.73-3-1.73H49.17c-1.65,0-3,.78-3,1.73v4.71a35.94,35.94,0,0,0-10.12,3.38L29,71.55a4.39,4.39,0,0,0-4.08.63L19.48,77.6c-.83.83-.34,1.89,1.09,2.36l7.07,2.36a9.5,9.5,0,0,0,0,6.75l-7.07,2.36c-1.43.47-1.92,1.53-1.09,2.36l5.42,5.42a4.36,4.36,0,0,0,4.08.63l7.08-2.36a35.94,35.94,0,0,0,10.12,3.38v4.71c0,1,1.34,1.73,3,1.73H60c1.65,0,3-.78,3-1.73v-4.71a35.94,35.94,0,0,0,10.12-3.38l7.07,2.36a4.38,4.38,0,0,0,4.09-.63l5.42-5.42C90.53,93,90,91.9,88.61,91.43Zm-34,1.46c-6.88,0-12.46-3.22-12.46-7.19s5.58-7.2,12.46-7.2,12.46,3.22,12.46,7.2S61.47,92.89,54.59,92.89Z"/><path class="cls-13" d="M90.09,78.47a1.23,1.23,0,0,0-.39-.87l-5.42-5.42a4.42,4.42,0,0,0-4.09-.63l-7.07,2.36A35.94,35.94,0,0,0,63,70.53V65.82c0-.95-1.34-1.73-3-1.73H49.17c-1.65,0-3,.78-3,1.73v4.71a35.94,35.94,0,0,0-10.12,3.38L29,71.55a4.39,4.39,0,0,0-4.08.63L19.48,77.6a1.19,1.19,0,0,0-.39.87h0v27.16h0a1.19,1.19,0,0,0,.4.86l5.42,5.42a2.29,2.29,0,0,0,.46.34l.15.08a3.61,3.61,0,0,0,.49.21l.11,0a5,5,0,0,0,.69.14h.12a3.33,3.33,0,0,0,.63,0h.09a4.59,4.59,0,0,0,1.34-.22l7.08-2.36a35.63,35.63,0,0,0,10.12,3.38v4.71c0,1,1.34,1.73,3,1.73H60c1.65,0,3-.77,3-1.73v-4.71a35.63,35.63,0,0,0,10.12-3.38l7.07,2.36a5.36,5.36,0,0,0,.54.14l.23,0a1.76,1.76,0,0,0,.31,0h.55l.33,0h.16a3.42,3.42,0,0,0,2-.82l5.42-5.42a1.23,1.23,0,0,0,.4-.86h0V78.47Z"/><rect class="cls-15" width="126" height="126"/></g></g></svg>