<svg xmlns="http://www.w3.org/2000/svg" viewBox="0 0 126 126"><defs><style>.cls-1,.cls-11,.cls-12,.cls-13,.cls-5{fill:none;}.cls-2,.cls-8{fill:#fff;}.cls-2,.cls-3,.cls-4,.cls-5{stroke:#b8bfca;}.cls-10,.cls-11,.cls-12,.cls-13,.cls-2,.cls-3,.cls-4,.cls-5,.cls-7,.cls-8,.cls-9{stroke-linecap:round;stroke-linejoin:round;stroke-width:2px;}.cls-3{fill:#f2f4f6;}.cls-4{fill:#d5dae0;}.cls-6{fill:#fddddd;}.cls-7{fill:#c44556;}.cls-10,.cls-7,.cls-8,.cls-9{stroke:#faabab;}.cls-9{fill:#fccccc;}.cls-10{fill:#feeeee;}.cls-11,.cls-13{stroke:#c44556;}.cls-12{stroke:#627386;}.cls-13{stroke-dasharray:0 5.67;}</style></defs><title>storage_error(1x1)</title><g id="Layer_2" data-name="Layer 2"><g id="Illustrations"><rect class="cls-1" width="126" height="126"/><polygon class="cls-2" points="34.42 68.4 14.54 79.88 14.54 79.88 34.42 91.36 54.3 79.88 54.3 79.88 34.42 68.4"/><polygon class="cls-3" points="14.54 106.39 34.42 117.86 34.42 91.36 14.54 79.88 14.54 106.39"/><polygon class="cls-4" points="54.3 106.39 34.42 117.86 34.42 91.36 54.3 79.88 54.3 106.39"/><line class="cls-5" x1="41.73" y1="100.43" x2="46.99" y2="97.39"/><polygon class="cls-2" points="54.3 30.42 34.42 41.89 34.42 41.89 54.3 53.37 74.18 41.89 74.18 41.89 54.3 30.42"/><polygon class="cls-4" points="74.18 68.4 54.3 79.88 54.3 53.37 74.18 41.89 74.18 68.4"/><line class="cls-5" x1="61.61" y1="62.45" x2="66.87" y2="59.41"/><polygon class="cls-3" points="34.42 68.4 54.3 79.88 54.3 53.37 34.42 41.89 34.42 68.4"/><polygon class="cls-2" points="34.42 41.89 14.54 53.37 14.54 53.37 34.42 64.85 54.3 53.37 54.3 53.37 34.42 41.89"/><polygon class="cls-3" points="14.54 79.88 34.42 91.36 34.42 64.85 14.54 53.37 14.54 79.88"/><polygon class="cls-4" points="54.3 79.88 34.42 91.36 34.42 64.85 54.3 53.37 54.3 79.88"/><line class="cls-5" x1="41.73" y1="73.93" x2="46.99" y2="70.89"/><polygon class="cls-6" points="54.3 106.39 74.18 94.91 74.18 68.4 54.3 79.88 54.3 106.39"/><line class="cls-7" x1="61.24" y1="85.12" x2="67.24" y2="89.66"/><line class="cls-7" x1="61.24" y1="93.12" x2="67.24" y2="81.66"/><polygon class="cls-8" points="99.42 82.42 87.39 89.37 87.39 105.42 99.42 98.47 111.46 105.42 111.46 89.37 99.42 82.42"/><polygon class="cls-9" points="111.46 105.42 99.42 112.37 99.42 96.32 111.46 89.37 111.46 105.42"/><polygon class="cls-10" points="87.39 105.42 99.42 112.37 99.42 96.32 87.39 89.37 87.39 105.42"/><line class="cls-5" x1="74.18" y1="68.4" x2="54.3" y2="79.88"/><line class="cls-5" x1="54.3" y1="79.88" x2="54.3" y2="106.38"/><polygon class="cls-11" points="99.42 82.42 87.39 89.37 87.39 105.42 99.42 112.37 111.46 105.42 111.46 89.37 99.42 82.42"/><polygon class="cls-8" points="99.42 66.37 87.39 73.32 87.39 89.37 99.42 82.42 111.46 89.37 111.46 73.32 99.42 66.37"/><polygon class="cls-9" points="111.46 89.37 99.42 96.32 99.42 80.27 111.46 73.32 111.46 89.37"/><polygon class="cls-10" points="87.39 89.37 99.42 96.32 99.42 80.27 87.39 73.32 87.39 89.37"/><polygon class="cls-11" points="99.42 66.37 87.39 73.32 87.39 89.37 99.42 96.32 111.46 89.37 111.46 73.32 99.42 66.37"/><polyline class="cls-11" points="54.3 106.39 74.18 94.91 74.18 68.4"/><polyline class="cls-12" points="74.18 68.4 74.18 41.89 54.3 30.42 34.42 41.89 14.54 53.37 14.54 79.88 14.54 106.39 34.42 117.86 54.3 106.39"/><line class="cls-11" x1="111.46" y1="8.14" x2="111.46" y2="8.14"/><line class="cls-13" x1="111.46" y1="13.81" x2="111.46" y2="27.99"/><line class="cls-11" x1="111.46" y1="30.82" x2="111.46" y2="30.82"/><line class="cls-11" x1="87.39" y1="8.14" x2="87.39" y2="8.14"/><line class="cls-13" x1="87.39" y1="13.81" x2="87.39" y2="27.99"/><line class="cls-11" x1="87.39" y1="30.82" x2="87.39" y2="30.82"/><polygon class="cls-8" points="99.42 23.87 87.39 30.82 87.39 46.87 99.42 39.92 111.46 46.87 111.46 30.82 99.42 23.87"/><polygon class="cls-9" points="111.46 46.87 99.42 53.82 99.42 37.77 111.46 30.82 111.46 46.87"/><polygon class="cls-10" points="87.39 46.87 99.42 53.82 99.42 37.77 87.39 30.82 87.39 46.87"/><polygon class="cls-11" points="99.42 23.87 87.39 30.82 87.39 46.87 99.42 53.82 111.46 46.87 111.46 30.82 99.42 23.87"/></g></g></svg>