<svg xmlns="http://www.w3.org/2000/svg" viewBox="0 0 126 126"><defs><style>.cls-1,.cls-11,.cls-17,.cls-18,.cls-5,.cls-8{fill:none;}.cls-13,.cls-14,.cls-2{fill:#fff;}.cls-2,.cls-3,.cls-5{stroke:#627386;}.cls-11,.cls-12,.cls-13,.cls-14,.cls-15,.cls-16,.cls-17,.cls-18,.cls-2,.cls-3,.cls-5,.cls-6,.cls-8,.cls-9{stroke-linecap:round;stroke-linejoin:round;stroke-width:2px;}.cls-15,.cls-3{fill:#f2f4f6;}.cls-16,.cls-4{fill:#d5dae0;}.cls-10,.cls-6{fill:#d3edfd;}.cls-12,.cls-13,.cls-6,.cls-8,.cls-9{stroke:#91d2fb;}.cls-12,.cls-7{fill:#bde4fd;}.cls-9{fill:#e9f6fe;}.cls-11,.cls-18{stroke:#1b6dc6;}.cls-14,.cls-15,.cls-16,.cls-17{stroke:#b8bfca;}.cls-18{stroke-dasharray:0 6.27;}</style></defs><title>storage(1x1)</title><g id="Layer_2" data-name="Layer 2"><g id="Illustrations"><rect class="cls-1" width="126" height="126"/><polygon class="cls-2" points="60.96 55.53 40.37 67.42 40.37 67.42 60.96 79.3 81.55 67.42 81.55 67.42 60.96 55.53"/><polygon class="cls-3" points="40.37 94.87 60.96 106.76 60.96 79.3 40.37 67.42 40.37 94.87"/><polygon class="cls-3" points="81.55 94.87 60.96 106.76 60.96 79.3 81.55 67.42 81.55 94.87"/><polygon class="cls-3" points="60.96 79.3 60.96 82.98 81.55 94.87 81.55 67.42 60.96 79.3"/><polygon class="cls-4" points="81.55 67.42 76.4 80.13 67.94 75.27 81.55 67.42"/><polygon class="cls-5" points="60.96 79.3 60.96 82.98 81.55 94.87 81.55 67.42 60.96 79.3"/><line class="cls-5" x1="84.75" y1="98.07" x2="90.2" y2="94.92"/><polygon class="cls-6" points="60.96 94.92 81.26 106.64 81.26 118.48 60.96 106.76 60.96 94.92"/><polygon class="cls-6" points="67.94 75.27 101.85 94.75 101.85 106.59 60.96 82.98 60.96 79.3 67.94 75.27"/><polygon class="cls-7" points="60.96 82.98 71.25 88.92 67.94 75.27 60.96 79.3 60.96 82.98"/><polygon class="cls-7" points="71.25 88.92 74.96 79.3 67.94 75.27 66.11 80.42 71.25 88.92"/><polygon class="cls-8" points="60.96 94.92 81.26 106.64 81.26 118.48 60.96 106.76 60.96 94.92"/><polygon class="cls-8" points="67.94 75.27 101.85 94.75 101.85 106.59 60.96 82.98 60.96 79.3 67.94 75.27"/><polygon class="cls-8" points="81.26 106.64 81.26 94.7 60.96 82.98 60.96 94.92 81.26 106.64"/><polygon class="cls-9" points="81.26 106.64 81.26 94.7 60.96 82.98 60.96 94.92 81.26 106.64"/><polygon class="cls-10" points="71.25 88.92 60.96 82.98 60.96 94.87 71.25 88.92"/><polygon class="cls-11" points="81.26 106.64 81.26 94.7 60.96 82.98 60.96 94.92 81.26 106.64"/><polygon class="cls-12" points="106.22 109.11 85.63 121 85.63 93.55 106.22 81.66 106.22 109.11"/><line class="cls-12" x1="93.2" y1="102.95" x2="98.65" y2="99.8"/><polygon class="cls-13" points="106.22 81.66 101.85 79.14 81.26 91.02 85.63 93.55 106.22 81.66"/><polygon class="cls-9" points="85.63 121 81.26 118.48 81.26 91.02 85.63 93.55 85.63 121"/><polygon class="cls-11" points="101.85 79.14 88.3 86.96 74.96 79.3 74.96 79.3 67.94 75.27 60.96 79.3 60.96 82.98 60.96 94.92 60.96 94.92 60.96 106.76 81.26 118.48 85.63 121 106.22 109.11 106.22 81.66 101.85 79.14"/><line class="cls-5" x1="81.55" y1="67.41" x2="60.96" y2="79.3"/><line class="cls-5" x1="60.96" y1="79.3" x2="60.96" y2="106.76"/><line class="cls-11" x1="81.26" y1="106.64" x2="60.96" y2="94.92"/><polygon class="cls-14" points="40.37 67.42 19.78 79.3 19.78 79.3 40.37 91.19 60.96 79.3 60.96 79.3 40.37 67.42"/><polygon class="cls-15" points="19.78 106.76 40.37 118.64 40.37 91.19 19.78 79.3 19.78 106.76"/><polygon class="cls-16" points="60.96 106.76 40.37 118.64 40.37 91.19 60.96 79.3 60.96 106.76"/><line class="cls-17" x1="47.94" y1="100.59" x2="53.39" y2="97.44"/><polygon class="cls-5" points="40.37 67.42 19.78 79.3 19.78 106.76 40.37 118.64 60.96 106.76 60.96 79.3 40.37 67.42"/><polygon class="cls-14" points="60.96 28.07 40.37 39.96 40.37 39.96 60.96 51.85 81.55 39.96 81.55 39.96 60.96 28.07"/><polygon class="cls-15" points="40.37 67.42 60.96 79.3 60.96 51.85 40.37 39.96 40.37 67.42"/><polygon class="cls-16" points="81.55 67.42 60.96 79.3 60.96 51.85 81.55 39.96 81.55 67.42"/><line class="cls-17" x1="68.53" y1="61.25" x2="73.98" y2="58.1"/><polygon class="cls-5" points="60.96 28.07 40.37 39.96 40.37 67.42 60.96 79.3 81.55 67.42 81.55 39.96 60.96 28.07"/><polygon class="cls-14" points="40.37 39.96 19.78 51.85 19.78 51.85 40.37 63.74 60.96 51.85 60.96 51.85 40.37 39.96"/><polygon class="cls-15" points="19.78 79.3 40.37 91.19 40.37 63.74 19.78 51.85 19.78 79.3"/><polygon class="cls-16" points="60.96 79.3 40.37 91.19 40.37 63.74 60.96 51.85 60.96 79.3"/><line class="cls-17" x1="47.94" y1="73.14" x2="53.39" y2="69.99"/><polygon class="cls-5" points="40.37 39.96 19.78 51.85 19.78 79.3 40.37 91.19 60.96 79.3 60.96 51.85 40.37 39.96"/><polygon class="cls-13" points="78.14 16.61 65.67 23.81 65.67 40.43 78.14 33.23 90.6 40.43 90.6 23.81 78.14 16.61"/><polygon class="cls-12" points="90.6 40.43 78.14 47.63 78.14 31 90.6 23.81 90.6 40.43"/><polygon class="cls-9" points="65.67 40.43 78.14 47.63 78.14 31 65.67 23.81 65.67 40.43"/><polygon class="cls-11" points="78.14 16.61 65.67 23.81 65.67 40.43 78.14 47.63 90.6 40.43 90.6 23.81 78.14 16.61"/><line class="cls-11" x1="90.6" y1="5" x2="90.6" y2="5"/><line class="cls-18" x1="90.6" y1="11.27" x2="90.6" y2="20.67"/><line class="cls-11" x1="90.6" y1="23.81" x2="90.6" y2="23.81"/><line class="cls-11" x1="65.67" y1="5" x2="65.67" y2="5"/><line class="cls-18" x1="65.67" y1="11.27" x2="65.67" y2="20.67"/><line class="cls-11" x1="65.67" y1="23.81" x2="65.67" y2="23.81"/><line class="cls-11" x1="88.3" y1="86.96" x2="81.26" y2="91.02"/><line class="cls-11" x1="81.26" y1="91.02" x2="81.26" y2="118.48"/></g></g></svg>