<svg xmlns="http://www.w3.org/2000/svg" viewBox="0 0 126 126"><defs><style>.cls-1,.cls-11,.cls-12,.cls-7{fill:none;}.cls-2{fill:#f2f4f6;}.cls-2,.cls-4,.cls-6{stroke:#b8bfca;}.cls-10,.cls-11,.cls-12,.cls-2,.cls-4,.cls-5,.cls-6,.cls-7,.cls-8,.cls-9{stroke-linecap:round;stroke-linejoin:round;stroke-width:2px;}.cls-3,.cls-4{fill:#d5dae0;}.cls-5,.cls-6,.cls-8{fill:#fff;}.cls-5,.cls-7{stroke:#627386;}.cls-10,.cls-8,.cls-9{stroke:#91d2fb;}.cls-9{fill:#bde4fd;}.cls-10{fill:#e9f6fe;}.cls-11,.cls-12{stroke:#1b6dc6;}.cls-12{stroke-dasharray:0 5.32;}</style></defs><title>subscriptions(1x1)</title><g id="Layer_2" data-name="Layer 2"><g id="Illustrations"><rect class="cls-1" width="126" height="126"/><polygon class="cls-2" points="63 101.37 93.39 83.82 63 66.27 63 101.37"/><polygon class="cls-3" points="63 66.27 73.59 95.25 63 101.37 63 66.27"/><polygon class="cls-4" points="63 101.37 32.61 83.82 63 66.27 63 101.37"/><polygon class="cls-4" points="44.15 93.54 51.64 96.46 39.06 103.72 38.73 93.54 44.15 93.54"/><polygon class="cls-2" points="63 89.9 32.61 107.45 63 125 93.39 107.45 63 89.9"/><polygon class="cls-4" points="93.39 107.45 63 125 63 101.37 93.39 83.82 93.39 107.45"/><path class="cls-2" d="M32.61,83.82v23.63L63,125V101.37Z"/><polygon class="cls-5" points="93.39 83.82 107.67 85.13 77.28 102.68 63 101.37 93.39 83.82"/><polygon class="cls-6" points="63 66.27 48.72 51.09 18.32 68.64 32.61 83.82 63 66.27"/><path class="cls-4" d="M52.87,105.78c0,1.08-.66,1.58-1.47,1.11l-7.19-4.15a3.53,3.53,0,0,1-1.47-2.81V98.82c0-1.08.66-1.58,1.47-1.11l7.19,4.15a3.53,3.53,0,0,1,1.47,2.81Z"/><path class="cls-6" d="M83.26,88.23c0,1.08-.66,1.58-1.47,1.11L74.6,85.19a3.53,3.53,0,0,1-1.47-2.81V81.27c0-1.08.66-1.58,1.47-1.11l7.19,4.15a3.53,3.53,0,0,1,1.47,2.81Z"/><polygon class="cls-7" points="107.67 85.13 93.39 83.82 63 66.27 48.72 51.09 18.32 68.64 32.61 83.82 32.61 83.82 32.61 107.45 32.61 107.45 32.61 107.45 32.61 107.45 45.45 114.87 63 125 63 125 63 125 63 125 93.39 107.45 93.39 93.38 107.67 85.13"/><line class="cls-7" x1="93.39" y1="83.82" x2="63" y2="101.37"/><line class="cls-7" x1="63" y1="101.37" x2="32.61" y2="83.82"/><line class="cls-7" x1="32.61" y1="83.82" x2="63" y2="66.27"/><line class="cls-7" x1="63" y1="101.37" x2="63" y2="125"/><polygon class="cls-8" points="63 14.13 48.9 22.27 48.9 41.06 63 32.92 77.1 41.06 77.1 22.27 63 14.13"/><polygon class="cls-9" points="77.1 41.06 63 49.2 63 30.41 77.1 22.27 77.1 41.06"/><polygon class="cls-10" points="48.9 41.06 63 49.2 63 30.41 48.9 22.27 48.9 41.06"/><polygon class="cls-11" points="63 14.13 48.9 22.27 48.9 41.06 63 49.2 77.1 41.06 77.1 22.27 63 14.13"/><line class="cls-11" x1="77.1" y1="1" x2="77.1" y2="1"/><line class="cls-12" x1="77.1" y1="6.32" x2="77.1" y2="19.61"/><line class="cls-11" x1="77.1" y1="22.27" x2="77.1" y2="22.27"/><line class="cls-11" x1="48.9" y1="1" x2="48.9" y2="1"/><line class="cls-12" x1="48.9" y1="6.32" x2="48.9" y2="19.61"/><line class="cls-11" x1="48.9" y1="22.27" x2="48.9" y2="22.27"/></g></g></svg>