<svg xmlns="http://www.w3.org/2000/svg" viewBox="0 0 126 126"><defs><style>.cls-1,.cls-6{fill:#fff;}.cls-1,.cls-2,.cls-3{stroke:#b8bfca;}.cls-1,.cls-2,.cls-3,.cls-4,.cls-5,.cls-6,.cls-7,.cls-8,.cls-9{stroke-linecap:round;stroke-linejoin:round;stroke-width:2px;}.cls-2,.cls-5{fill:#f2f4f6;}.cls-3{fill:#d5dae0;}.cls-10,.cls-4,.cls-9{fill:none;}.cls-4,.cls-5{stroke:#627386;}.cls-6,.cls-7,.cls-8{stroke:#faabab;}.cls-7{fill:#fccccc;}.cls-8{fill:#feeeee;}.cls-9{stroke:#c44556;}</style></defs><title>subscriptions_error(1x1)</title><g id="Layer_2" data-name="Layer 2"><g id="Illustrations"><polygon class="cls-1" points="25.16 80.42 44.17 91.39 74.73 73.75 55.72 62.78 25.16 80.42"/><polygon class="cls-2" points="55.72 62.78 74.73 73.75 74.73 33.01 55.72 22.03 55.72 62.78"/><polygon class="cls-3" points="55.72 62.78 25.16 80.42 25.16 39.67 55.72 22.03 55.72 62.78"/><polygon class="cls-1" points="25.16 39.67 44.17 50.65 74.73 33.01 55.72 22.03 25.16 39.67"/><polygon class="cls-2" points="25.16 80.42 44.17 91.39 44.17 50.65 25.16 39.67 25.16 80.42"/><polygon class="cls-4" points="55.72 22.03 25.16 39.67 25.16 80.42 44.17 91.39 74.73 73.75 74.73 33.01 55.72 22.03"/><path class="cls-1" d="M46.33,81.45h0a1.39,1.39,0,0,1,0-2.64L52.86,75a5.06,5.06,0,0,1,4.58,0h0a1.39,1.39,0,0,1,0,2.64L50.9,81.45A5,5,0,0,1,46.33,81.45Z"/><path class="cls-3" d="M46.33,40.67h0a1.39,1.39,0,0,1,0-2.64l6.53-3.78a5.13,5.13,0,0,1,4.58,0h0c1.26.73,1.26,1.92,0,2.64L50.9,40.67A5,5,0,0,1,46.33,40.67Z"/><polygon class="cls-5" points="74.73 73.75 96.06 68.01 96.06 27.26 74.73 33.01 74.73 73.75"/><polygon class="cls-5" points="44.17 91.39 34.22 103.71 34.22 62.96 44.17 50.65 44.17 91.39"/><line class="cls-4" x1="74.73" y1="33.01" x2="44.17" y2="50.65"/><polygon class="cls-6" points="85.39 65.53 69.94 74.45 69.94 95.05 85.39 86.13 100.84 95.05 100.84 74.45 85.39 65.53"/><polygon class="cls-7" points="100.84 95.05 85.39 103.97 85.39 83.37 100.84 74.45 100.84 95.05"/><polygon class="cls-8" points="69.94 95.05 85.39 103.97 85.39 83.37 69.94 74.45 69.94 95.05"/><polygon class="cls-9" points="85.39 65.53 69.94 74.45 69.94 95.05 85.39 103.97 100.84 95.05 100.84 74.45 85.39 65.53"/><rect class="cls-10" width="126" height="126"/></g></g></svg>