<svg xmlns="http://www.w3.org/2000/svg" viewBox="0 0 126 126"><defs><style>.cls-1,.cls-12,.cls-5,.cls-6,.cls-7,.cls-8,.cls-9{fill:none;}.cls-2{fill:#f2f4f6;}.cls-3{fill:#d5dae0;}.cls-4{fill:#b8bfca;}.cls-5{stroke:#b8bfca;}.cls-11,.cls-12,.cls-5,.cls-6,.cls-7,.cls-8,.cls-9{stroke-linecap:round;stroke-linejoin:round;stroke-width:2px;}.cls-6{stroke:#627386;}.cls-11,.cls-7,.cls-8,.cls-9{stroke:#1b6dc6;}.cls-8{stroke-dasharray:0 6.39;}.cls-9{stroke-dasharray:0 6.39;}.cls-10,.cls-11{fill:#fff;}.cls-12{stroke:#91d2fb;}</style></defs><title>system_logs(1x1)</title><g id="Layer_2" data-name="Layer 2"><g id="Illustrations"><rect class="cls-1" width="126" height="126"/><polygon class="cls-2" points="73.74 44.66 78.26 42.05 125 69.03 120.48 71.64 73.74 44.66"/><polygon class="cls-3" points="1 92.13 47.74 119.11 47.74 113.64 1 86.65 1 92.13"/><polygon class="cls-4" points="47.74 113.64 125 69.03 125 74.5 47.74 119.11 47.74 113.64"/><polygon class="cls-5" points="73.74 44.66 78.26 42.05 125 69.03 120.48 71.64 73.74 44.66"/><polygon class="cls-2" points="1 86.65 5.52 84.04 52.26 111.03 47.74 113.64 1 86.65"/><polygon class="cls-6" points="78.26 42.05 73.74 44.66 120.48 71.64 120.48 71.64 52.26 111.03 5.52 84.04 1 86.65 1 92.13 47.74 119.11 125 74.5 125 69.03 78.26 42.05"/><line class="cls-7" x1="120.48" y1="33.87" x2="120.48" y2="33.87"/><line class="cls-8" x1="120.48" y1="40.26" x2="120.48" y2="62.61"/><line class="cls-7" x1="120.48" y1="65.81" x2="120.48" y2="65.81"/><line class="cls-7" x1="39.63" y1="56.46" x2="39.63" y2="56.46"/><line class="cls-9" x1="39.63" y1="50.08" x2="39.63" y2="27.72"/><line class="cls-7" x1="39.63" y1="24.53" x2="39.63" y2="24.53"/><line class="cls-5" x1="86.37" y1="83.45" x2="39.63" y2="56.46"/><path class="cls-3" d="M86.37,91.33V83.45c-18.45,3.4-34.11,21.74-34.11,21.74V111Z"/><path class="cls-3" d="M86.37,83.45c18.45-17.9,34.11-17.64,34.11-17.64v5.83L86.37,91.33Z"/><polygon class="cls-2" points="52.26 111.03 5.52 84.04 5.52 78.21 52.26 105.19 52.26 111.03"/><path class="cls-10" d="M52.26,105.19s1.75-2,4.78-4.91c1.44-1.37,3.17-2.92,5.15-4.51,1.67-1.36,3.51-2.75,5.5-4.09a63.56,63.56,0,0,1,5.85-3.55,52.49,52.49,0,0,1,6.24-2.84,39.52,39.52,0,0,1,6.59-1.84L78.58,79l-7.79-4.5L63,70l-7.79-4.49L47.42,61l-7.79-4.5A39.55,39.55,0,0,0,33,58.31a51.58,51.58,0,0,0-6.23,2.83A67,67,0,0,0,21,64.69c-2,1.34-3.83,2.74-5.5,4.09-2,1.6-3.71,3.15-5.15,4.52-3,2.86-4.78,4.91-4.78,4.91l7.79,4.5L21.1,87.2l7.79,4.5,7.79,4.5,7.79,4.5Z"/><path class="cls-10" d="M86.37,83.45c1.64-1.6,3.26-3,4.85-4.37,1.78-1.47,3.52-2.78,5.2-4,1.92-1.32,3.78-2.46,5.55-3.44a58.25,58.25,0,0,1,5.88-2.83A46,46,0,0,1,114,66.8a27.08,27.08,0,0,1,6.44-1l-7.79-4.5-7.79-4.5-7.79-4.5-7.79-4.49-7.79-4.5-7.79-4.5a27.14,27.14,0,0,0-6.44,1,46.16,46.16,0,0,0-6.19,2.07,54.23,54.23,0,0,0-5.88,2.83,64.06,64.06,0,0,0-5.55,3.44c-1.68,1.16-3.42,2.47-5.19,4-1.59,1.32-3.22,2.77-4.86,4.36L47.42,61l7.79,4.5L63,70l7.79,4.5L78.58,79Z"/><path class="cls-5" d="M86.37,91.33V83.45c-18.45,3.4-34.11,21.74-34.11,21.74V111Z"/><path class="cls-5" d="M86.37,83.45c18.45-17.9,34.11-17.64,34.11-17.64v5.83L86.37,91.33Z"/><polygon class="cls-5" points="52.26 111.03 5.52 84.04 5.52 78.21 52.26 105.19 52.26 111.03"/><path class="cls-5" d="M52.26,105.19s1.75-2,4.78-4.91c1.44-1.37,3.17-2.92,5.15-4.51,1.67-1.36,3.51-2.75,5.5-4.09a63.56,63.56,0,0,1,5.85-3.55,52.49,52.49,0,0,1,6.24-2.84,39.52,39.52,0,0,1,6.59-1.84L78.58,79l-7.79-4.5L63,70l-7.79-4.49L47.42,61l-7.79-4.5A39.55,39.55,0,0,0,33,58.31a51.58,51.58,0,0,0-6.23,2.83A67,67,0,0,0,21,64.69c-2,1.34-3.83,2.74-5.5,4.09-2,1.6-3.71,3.15-5.15,4.52-3,2.86-4.78,4.91-4.78,4.91l7.79,4.5L21.1,87.2l7.79,4.5,7.79,4.5,7.79,4.5Z"/><path class="cls-5" d="M86.37,83.45c1.64-1.6,3.26-3,4.85-4.37,1.78-1.47,3.52-2.78,5.2-4,1.92-1.32,3.78-2.46,5.55-3.44a58.25,58.25,0,0,1,5.88-2.83A46,46,0,0,1,114,66.8a27.08,27.08,0,0,1,6.44-1l-7.79-4.5-7.79-4.5-7.79-4.5-7.79-4.49-7.79-4.5-7.79-4.5a27.14,27.14,0,0,0-6.44,1,46.16,46.16,0,0,0-6.19,2.07,54.23,54.23,0,0,0-5.88,2.83,64.06,64.06,0,0,0-5.55,3.44c-1.68,1.16-3.42,2.47-5.19,4-1.59,1.32-3.22,2.77-4.86,4.36L47.42,61l7.79,4.5L63,70l7.79,4.5L78.58,79Z"/><path class="cls-5" d="M50.25,94.85c1.77-1.63,3.9-3.45,6.3-5.27A71.71,71.71,0,0,1,63.37,85a55.33,55.33,0,0,1,7.34-3.69"/><path class="cls-5" d="M42.46,90.35c1.77-1.62,3.9-3.45,6.31-5.27a70.28,70.28,0,0,1,6.81-4.6,54.69,54.69,0,0,1,7.34-3.68"/><path class="cls-5" d="M34.67,85.85c1.77-1.62,3.9-3.44,6.31-5.27A72.14,72.14,0,0,1,47.79,76a55.9,55.9,0,0,1,7.34-3.68"/><path class="cls-5" d="M26.88,81.36c1.77-1.63,3.9-3.45,6.31-5.28A72.14,72.14,0,0,1,40,71.48a57.16,57.16,0,0,1,7.34-3.68"/><path class="cls-5" d="M19.09,76.86c1.77-1.63,3.9-3.45,6.31-5.27A71.53,71.53,0,0,1,32.21,67a54.69,54.69,0,0,1,7.34-3.68"/><path class="cls-5" d="M84.45,73.76a71.43,71.43,0,0,1,6.36-4.57,60.45,60.45,0,0,1,6.86-3.78A50.34,50.34,0,0,1,105,62.64l-15.58-9a48.11,48.11,0,0,0-7.32,2.77,62.22,62.22,0,0,0-6.86,3.78,73.3,73.3,0,0,0-6.36,4.56Z"/><path class="cls-5" d="M61.08,60.27a71.43,71.43,0,0,1,6.36-4.57,62.22,62.22,0,0,1,6.86-3.78,50.34,50.34,0,0,1,7.32-2.77"/><path class="cls-5" d="M53.29,55.77a71.43,71.43,0,0,1,6.36-4.57,62.22,62.22,0,0,1,6.86-3.78,50.34,50.34,0,0,1,7.32-2.77"/><path class="cls-5" d="M112.69,61.31l-7.79-4.5-7.79-4.5-7.79-4.49-7.79-4.5-7.79-4.5a27.14,27.14,0,0,0-6.44,1,46.16,46.16,0,0,0-6.19,2.07,54.23,54.23,0,0,0-5.88,2.83,64.06,64.06,0,0,0-5.55,3.44c-1.68,1.16-3.42,2.47-5.19,4-1.59,1.32-3.22,2.77-4.86,4.36A39.55,39.55,0,0,0,33,58.31a51.58,51.58,0,0,0-6.23,2.83A67,67,0,0,0,21,64.69c-2,1.34-3.83,2.74-5.5,4.09-2,1.6-3.71,3.15-5.15,4.52-3,2.86-4.78,4.91-4.78,4.91l7.79,4.5L21.1,87.2l7.79,4.5,7.79,4.5,7.79,4.5,7.79,4.49s1.75-2,4.78-4.91c1.44-1.37,3.17-2.92,5.15-4.51,1.67-1.36,3.51-2.75,5.5-4.09a63.56,63.56,0,0,1,5.85-3.55,52.49,52.49,0,0,1,6.24-2.84,39.52,39.52,0,0,1,6.59-1.84c1.64-1.6,3.26-3,4.85-4.37,1.78-1.47,3.52-2.78,5.2-4,1.92-1.32,3.78-2.46,5.55-3.44a58.25,58.25,0,0,1,5.88-2.83A46,46,0,0,1,114,66.8a27.08,27.08,0,0,1,6.44-1Z"/><path class="cls-6" d="M112.69,61.31l-7.79-4.5-7.79-4.5-3.89-2.24-3.9-2.25-7.79-4.5-3.89-2.25-3.9-2.25a27.14,27.14,0,0,0-6.44,1,46.07,46.07,0,0,0-4.49,1.4c-.55.21-1.12.43-1.7.67s-.92.38-1.39.59c-1.42.63-2.92,1.37-4.49,2.24-.89.48-1.79,1-2.72,1.59-.46.28-.93.58-1.4.89l-1.43,1c-1.68,1.16-3.42,2.47-5.19,4-.8.66-1.6,1.35-2.41,2.08-.41.36-.81.73-1.22,1.11l-1.23,1.17A39.55,39.55,0,0,0,33,58.31c-.54.2-1.07.41-1.6.63-1.06.44-2.1.92-3.12,1.42l-1.51.78c-1,.55-2,1.13-3,1.72S21.87,64.07,21,64.69c-.5.34-1,.68-1.46,1l-1.41,1c-.69.52-1.35,1-2,1.54l-.64.51L14,70c-1.38,1.17-2.63,2.3-3.71,3.33-.37.34-.71.67-1,1-1,1-1.77,1.78-2.38,2.43-.79.84-1.24,1.35-1.33,1.45l0,0h0V84h0l46.74,27,34.11-19.7,34.11-19.69V65.81Z"/><path class="cls-11" d="M86.37,51.51q2.46-2.38,4.85-4.36c1.78-1.47,3.52-2.78,5.2-3.95A65,65,0,0,1,102,39.76a54.23,54.23,0,0,1,5.88-2.83A46.16,46.16,0,0,1,114,34.86a27.08,27.08,0,0,1,6.44-1l-7.79-4.49-7.79-4.5-7.79-4.5-7.79-4.5-7.79-4.49-7.79-4.5a27.14,27.14,0,0,0-6.44,1,47.43,47.43,0,0,0-6.19,2.06,58.25,58.25,0,0,0-5.88,2.83c-1.77,1-3.62,2.12-5.55,3.45-1.68,1.16-3.42,2.47-5.19,4-1.59,1.31-3.22,2.76-4.86,4.36L47.42,29l7.79,4.49L63,38l7.79,4.5L78.58,47Z"/><path class="cls-12" d="M84.45,41.83a71.43,71.43,0,0,1,6.36-4.57,60.45,60.45,0,0,1,6.86-3.78A49.2,49.2,0,0,1,105,30.71"/><path class="cls-12" d="M76.66,37.33A71.43,71.43,0,0,1,83,32.76,62.22,62.22,0,0,1,89.88,29a50.34,50.34,0,0,1,7.32-2.77"/><path class="cls-12" d="M68.87,32.83a69.26,69.26,0,0,1,6.36-4.56,59.07,59.07,0,0,1,6.86-3.78,49.37,49.37,0,0,1,7.32-2.78"/><path class="cls-12" d="M53.29,23.84a71.43,71.43,0,0,1,6.36-4.57,62.22,62.22,0,0,1,6.86-3.78,49.2,49.2,0,0,1,7.32-2.77l7.79,4.5A48.11,48.11,0,0,0,74.3,20a62.22,62.22,0,0,0-6.86,3.78,73.3,73.3,0,0,0-6.36,4.56Z"/></g></g></svg>