<svg xmlns="http://www.w3.org/2000/svg" viewBox="0 0 126 126"><defs><style>.cls-1,.cls-11,.cls-13,.cls-14,.cls-2,.cls-3,.cls-6{fill:none;}.cls-1{stroke:#d5dae0;stroke-dasharray:0 5.94;}.cls-1,.cls-11,.cls-12,.cls-13,.cls-2,.cls-3,.cls-4,.cls-6,.cls-7,.cls-8{stroke-linecap:round;stroke-linejoin:round;stroke-width:2px;}.cls-2,.cls-3{stroke:#1b6dc6;}.cls-3{stroke-dasharray:0 5.29;}.cls-4{fill:#d3edfd;}.cls-4,.cls-6,.cls-7{stroke:#91d2fb;}.cls-5{fill:#bde4fd;}.cls-7{fill:#e9f6fe;}.cls-8,.cls-9{fill:#d5dae0;}.cls-11,.cls-12,.cls-8{stroke:#b8bfca;}.cls-10{fill:#b8bfca;}.cls-12{fill:#f2f4f6;}.cls-13{stroke:#627386;}</style></defs><title>tasks(1x1)</title><g id="Layer_2" data-name="Layer 2"><g id="Illustrations"><ellipse class="cls-1" cx="29.27" cy="95.57" rx="28.27" ry="16.32"/><line class="cls-2" x1="91.27" y1="14.11" x2="91.27" y2="14.11"/><line class="cls-3" x1="91.27" y1="19.39" x2="91.27" y2="27.32"/><line class="cls-2" x1="91.27" y1="29.97" x2="91.27" y2="29.97"/><line class="cls-2" x1="34.73" y1="14.11" x2="34.73" y2="14.11"/><line class="cls-3" x1="34.73" y1="19.39" x2="34.73" y2="27.32"/><line class="cls-2" x1="34.73" y1="29.97" x2="34.73" y2="29.97"/><path class="cls-4" d="M44.54,27.2V44l8.12,5.51C54.2,47,58.24,45.29,63,45.29S71.8,47,73.34,49.47h3.8V27.2Z"/><path class="cls-5" d="M44.54,27.2V44l8.12,5.51C54.2,47,58.24,45.29,63,45.29V27.2Z"/><path class="cls-6" d="M44.54,27.2V44l8.12,5.51C54.2,47,58.24,45.29,63,45.29S71.8,47,73.34,49.47h3.8V27.2Z"/><path class="cls-4" d="M81.87,31.68c-1.69,3.69-3.23,7.14-4.27,9.53a7,7,0,0,1,2.36,5c0,5.41-7.59,5.86-17,5.86s-17-.45-17-5.86a6.93,6.93,0,0,1,2.29-4.91c-1.11-2.34-2.63-5.77-4.28-9.55a35.55,35.55,0,0,0-6.76,6.36H34.73V51.65C34.73,60.67,47.39,68,63,68s28.27-7.3,28.27-16.32V38.1H88.71A35.15,35.15,0,0,0,81.87,31.68Z"/><path class="cls-5" d="M80,46.14c0,5.41-7.59,1.91-17,1.91V68c15.61,0,28.27-7.3,28.27-16.32V36.73H89.71L79.19,40.58C79.69,41.51,80,45.12,80,46.14Z"/><path class="cls-6" d="M81.87,31.68c-1.69,3.69-3.23,7.14-4.27,9.53a7,7,0,0,1,2.36,5c0,5.41-7.59,5.86-17,5.86s-17-.45-17-5.86a6.93,6.93,0,0,1,2.29-4.91c-1.11-2.34-2.63-5.77-4.28-9.55a35.55,35.55,0,0,0-6.76,6.36H34.73V51.65C34.73,60.67,47.39,68,63,68s28.27-7.3,28.27-16.32V38.1H88.71A35.15,35.15,0,0,0,81.87,31.68Z"/><path class="cls-7" d="M63,21.78c-15.61,0-28.27,7.31-28.27,16.32S47.39,54.43,63,54.43,91.27,47.12,91.27,38.1,78.61,21.78,63,21.78Zm0,22.69c-6.09,0-11-2.85-11-6.37s4.93-6.36,11-6.36,11,2.85,11,6.36S69.09,44.47,63,44.47Z"/><path class="cls-2" d="M91.16,36.73C90,28.36,77.81,21.78,63,21.78c-15.61,0-28.27,7.31-28.27,16.32h0V51.65C34.73,60.67,47.39,68,63,68c1,0,1.94,0,2.89-.08A45.86,45.86,0,0,0,74,66.69c.42-.1.84-.21,1.25-.33a35,35,0,0,0,4.66-1.63c.72-.31,1.42-.65,2.09-1s1.31-.72,1.92-1.1a20.5,20.5,0,0,0,3.93-3.2,11.33,11.33,0,0,0,3.41-7.78V36.73Z"/><rect class="cls-8" x="29.27" y="75.66" width="13.62" height="13.62"/><path class="cls-9" d="M48.14,75.61c-1.68,3.68-3.23,7.14-4.27,9.53a7,7,0,0,1,2.37,5c0,5.4-7.6,5.85-17,5.85s-17-.45-17-5.85a7,7,0,0,1,2.29-4.92c-1.11-2.34-2.63,3-4.27-.74-2.84,2.06-5.16,2.41-6.77,4.44L1,82V95.57c0,9,12.66,16.32,28.27,16.32s28.27-7.3,28.27-16.32V82H55A34.85,34.85,0,0,0,48.14,75.61Z"/><path class="cls-10" d="M46.24,90.06c0,5.41-7.6,1.91-17,1.91v19.92c15.62,0,28.27-7.3,28.27-16.32V80.65H56L45.46,84.51C46,85.43,46.24,89,46.24,90.06Z"/><path class="cls-11" d="M48.14,75.61c-1.68,3.68-3.23,7.14-4.27,9.53a7,7,0,0,1,2.37,5c0,5.4-7.6,5.85-17,5.85s-17-.45-17-5.85a7,7,0,0,1,2.29-4.92c-1.11-2.34-2.63,3-4.27-.74-2.84,2.06-5.16,2.41-6.77,4.44L1,82V95.57c0,9,12.66,16.32,28.27,16.32s28.27-7.3,28.27-16.32V82H55A34.85,34.85,0,0,0,48.14,75.61Z"/><path class="cls-11" d="M48.14,75.61c-1.68,3.68-3.23,7.14-4.27,9.53a7,7,0,0,1,2.37,5c0,5.4-7.6,5.85-17,5.85s-17-.45-17-5.85a7,7,0,0,1,2.29-4.92c-1.11-2.34-2.63,3-4.27-.74-2.84,2.06-5.16,2.41-6.77,4.44L1,82V95.57c0,9,12.66,16.32,28.27,16.32s28.27-7.3,28.27-16.32V82H55A34.85,34.85,0,0,0,48.14,75.61Z"/><path class="cls-12" d="M29.27,65.7v10c6.09,0,11,2.85,11,6.37s-4.93,6.36-11,6.36-11-2.85-11-6.36H1c0,9,12.66,16.32,28.27,16.32S57.54,91,57.54,82,44.89,65.7,29.27,65.7Z"/><path class="cls-13" d="M57.44,80.65c-1.22-8.37-13.36-15-28.17-15V88.39c-6.08,0-11-2.85-11-6.36H1V95.57c0,9,12.66,16.32,28.27,16.32a41.85,41.85,0,0,0,18.67-4.06c.45-.23.9-.47,1.32-.72s1-.6,1.47-.92c4.25-2.85,6.81-6.56,6.81-10.62V80.65Z"/><ellipse class="cls-1" cx="96.73" cy="95.57" rx="28.27" ry="16.32"/><path class="cls-8" d="M96.73,75.66V89.21c6.08,0,11,2.85,11,6.36l9-13.86s-5-10.33-6.1-10.33-9.2-.86-9.2-.86Z"/><path class="cls-8" d="M122.44,82a35.14,35.14,0,0,0-6.84-6.42c-1,2.23-2,4.37-2.83,6.25l1.74.17,2.21,11.54v13.54h0c5.12-3,8.28-7,8.28-11.54V82Z"/><path class="cls-12" d="M107.75,82c0,1.75-1.24,3.34-3.23,4.49l12.2,7c5.12-3,8.28-7,8.28-11.54,0-9-12.66-16.33-28.27-16.33v10C102.81,75.66,107.75,78.51,107.75,82Z"/><polygon class="cls-12" points="116.72 93.57 116.72 107.11 104.52 100.07 104.52 86.53 116.72 93.57"/><path class="cls-11" d="M125,82c0-9-12.66-16.33-28.27-16.33V89.21a15.9,15.9,0,0,1,7.79,1.86v9l12.2,7h0c5.12-3,8.28-7,8.28-11.54V82Z"/><path class="cls-13" d="M125,82c0-9-12.66-16.33-28.27-16.33V89.21a15.9,15.9,0,0,1,7.79,1.86v9l12.2,7h0c5.12-3,8.28-7,8.28-11.54V82Z"/><rect class="cls-14" width="126" height="126"/></g></g></svg>