<svg xmlns="http://www.w3.org/2000/svg" viewBox="0 0 126 126"><defs><style>.cls-1,.cls-10,.cls-11,.cls-2,.cls-3,.cls-4{fill:none;}.cls-2{stroke:#d5dae0;stroke-dasharray:0 5.94;}.cls-10,.cls-11,.cls-13,.cls-2,.cls-3,.cls-4,.cls-5,.cls-6,.cls-7,.cls-8{stroke-linecap:round;stroke-linejoin:round;stroke-width:2px;}.cls-3,.cls-4{stroke:#c44556;}.cls-4{stroke-dasharray:0 5.29;}.cls-5{fill:#feeeee;}.cls-13,.cls-5,.cls-6{stroke:#faabab;}.cls-6{fill:#fccccc;}.cls-7,.cls-9{fill:#d5dae0;}.cls-11,.cls-7,.cls-8{stroke:#b8bfca;}.cls-8{fill:#f2f4f6;}.cls-10{stroke:#627386;}.cls-12,.cls-13{fill:#fff;}</style></defs><title>tasks_error(1x1)</title><g id="Layer_2" data-name="Layer 2"><g id="Illustrations"><rect class="cls-1" width="126" height="126"/><path class="cls-2" d="M29.27,79.46C13.66,79.46,1,86.77,1,95.78S13.66,112.1,29.27,112.1s28.27-7.3,28.27-16.32S44.89,79.46,29.27,79.46Z"/><line class="cls-3" x1="87.5" y1="13.9" x2="87.5" y2="13.9"/><line class="cls-4" x1="87.5" y1="19.18" x2="87.5" y2="27.11"/><line class="cls-3" x1="87.5" y1="29.76" x2="87.5" y2="29.76"/><line class="cls-3" x1="39.13" y1="13.9" x2="39.13" y2="13.9"/><line class="cls-4" x1="39.13" y1="19.18" x2="39.13" y2="27.11"/><line class="cls-3" x1="39.13" y1="29.76" x2="39.13" y2="29.76"/><polygon class="cls-5" points="87.5 43.13 78.14 37.72 63.32 46.28 48.5 37.72 39.13 43.13 53.95 51.68 39.13 60.24 48.5 65.65 63.32 57.09 78.14 65.65 87.5 60.24 72.68 51.68 87.5 43.13"/><polygon class="cls-6" points="87.5 29.76 87.5 43.13 72.68 51.68 72.68 38.31 87.5 29.76"/><polygon class="cls-5" points="39.13 29.76 39.13 43.13 53.95 51.68 53.95 38.31 39.13 29.76"/><rect class="cls-7" x="29.27" y="75.87" width="13.62" height="13.62"/><path class="cls-8" d="M48.14,75.82c-1.68,3.68-3.23,7.14-4.27,9.53a7,7,0,0,1,2.37,5c0,5.4-7.6,5.85-17,5.85s-17-.45-17-5.85a7,7,0,0,1,2.29-4.92c-1.11-2.34-2.63,3-4.27-.74-2.84,2.06-5.16,2.41-6.77,4.44L1,82.24V95.78c0,9,12.66,16.32,28.27,16.32s28.27-7.3,28.27-16.32V82.24H55A34.85,34.85,0,0,0,48.14,75.82Z"/><path class="cls-9" d="M46.24,90.27c0,5.41-7.6,1.91-17,1.91V112.1c15.62,0,28.27-7.3,28.27-16.32V80.86H56L45.46,84.72C46,85.64,46.24,89.25,46.24,90.27Z"/><path class="cls-10" d="M48.14,75.82c-1.68,3.68-3.23,7.14-4.27,9.53a7,7,0,0,1,2.37,5c0,5.4-7.6,5.85-17,5.85s-17-.45-17-5.85a7,7,0,0,1,2.29-4.92c-1.11-2.34-2.63,3-4.27-.74-2.84,2.06-5.16,2.41-6.77,4.44L1,82.24V95.78c0,9,12.66,16.32,28.27,16.32s28.27-7.3,28.27-16.32V82.24H55A34.85,34.85,0,0,0,48.14,75.82Z"/><path class="cls-11" d="M48.14,75.82c-1.68,3.68-3.23,7.14-4.27,9.53a7,7,0,0,1,2.37,5c0,5.4-7.6,5.85-17,5.85s-17-.45-17-5.85a7,7,0,0,1,2.29-4.92c-1.11-2.34-2.63,3-4.27-.74-2.84,2.06-5.16,2.41-6.77,4.44L1,82.24V95.78c0,9,12.66,16.32,28.27,16.32s28.27-7.3,28.27-16.32V82.24H55A34.85,34.85,0,0,0,48.14,75.82Z"/><path class="cls-12" d="M29.27,65.91v10c6.09,0,11,2.85,11,6.37s-4.93,6.36-11,6.36-11-2.85-11-6.36H1c0,9,12.66,16.32,28.27,16.32s28.27-7.31,28.27-16.32S44.89,65.91,29.27,65.91Z"/><path class="cls-11" d="M29.27,65.91v10c6.09,0,11,2.85,11,6.37s-4.93,6.36-11,6.36-11-2.85-11-6.36H1c0,9,12.66,16.32,28.27,16.32s28.27-7.31,28.27-16.32S44.89,65.91,29.27,65.91Z"/><path class="cls-2" d="M96.73,79.46c-15.62,0-28.27,7.31-28.27,16.32S81.11,112.1,96.73,112.1,125,104.8,125,95.78,112.34,79.46,96.73,79.46Z"/><path class="cls-7" d="M96.73,75.87V89.42c6.08,0,11,2.85,11,6.36l9-13.86s-5-10.33-6.1-10.33-9.2-.86-9.2-.86Z"/><path class="cls-7" d="M122.44,82.24a35.14,35.14,0,0,0-6.84-6.42c-1,2.23-2,4.37-2.83,6.25l1.74.17,2.21,11.54v13.54h0c5.12-2.95,8.28-7,8.28-11.54V82.24Z"/><path class="cls-8" d="M107.75,82.24c0,1.75-1.24,3.34-3.23,4.49l12.2,7c5.12-3,8.28-7,8.28-11.54,0-9-12.66-16.33-28.27-16.33v10C102.81,75.87,107.75,78.72,107.75,82.24Z"/><polygon class="cls-8" points="116.72 93.78 116.72 107.32 104.52 100.28 104.52 86.73 116.72 93.78"/><path class="cls-10" d="M125,82.24c0-9-12.66-16.33-28.27-16.33V89.42a15.87,15.87,0,0,1,7.79,1.86v9l12.2,7h0c5.12-2.95,8.28-7,8.28-11.54V82.24Z"/><polygon class="cls-6" points="87.5 46.87 87.5 60.24 78.14 65.65 78.14 52.28 87.5 46.87"/><polygon class="cls-5" points="63.32 43.72 63.32 57.09 78.14 65.65 78.14 52.28 63.32 43.72"/><polygon class="cls-6" points="63.32 43.72 63.32 57.09 48.5 65.65 48.5 52.28 63.32 43.72"/><polygon class="cls-5" points="39.13 46.87 39.13 60.24 48.5 65.65 48.5 52.28 39.13 46.87"/><polygon class="cls-13" points="87.5 29.76 78.14 24.35 63.32 32.91 48.5 24.35 39.13 29.76 53.95 38.31 39.13 46.87 48.5 52.28 63.32 43.72 78.14 52.28 87.5 46.87 72.68 38.31 87.5 29.76"/><polygon class="cls-3" points="87.5 29.76 87.5 29.76 78.14 24.35 63.32 32.91 48.5 24.35 39.13 29.76 39.13 29.76 39.13 43.13 42.38 45 39.13 46.87 39.13 60.24 48.5 65.65 63.32 57.09 78.14 65.65 87.5 60.24 87.5 46.87 84.26 45 87.5 43.13 87.5 29.76"/><path class="cls-10" d="M57.44,80.86c-1.22-8.37-13.36-15-28.17-15V88.6c-6.08,0-11-2.85-11-6.36H1V95.78c0,9,12.66,16.32,28.27,16.32,7.81,0,14.88-1.82,20-4.78.32-.18.64-.37.94-.56,4.56-2.9,7.34-6.75,7.34-11V80.86Z"/></g></g></svg>