<svg xmlns="http://www.w3.org/2000/svg" viewBox="0 0 126 126"><defs><style>.cls-1,.cls-10,.cls-11,.cls-14,.cls-6{fill:none;}.cls-2{fill:#f2f4f6;}.cls-2,.cls-3,.cls-5{stroke:#b8bfca;}.cls-10,.cls-11,.cls-14,.cls-2,.cls-3,.cls-5,.cls-6,.cls-7,.cls-8,.cls-9{stroke-linecap:round;stroke-linejoin:round;stroke-width:2px;}.cls-3,.cls-4{fill:#d5dae0;}.cls-5,.cls-8{fill:#fff;}.cls-6{stroke:#627386;}.cls-7{fill:#feeeee;}.cls-7,.cls-8,.cls-9{stroke:#faabab;}.cls-9{fill:#fccccc;}.cls-10{stroke:#fccccc;}.cls-11,.cls-14{stroke:#c44556;}.cls-12{fill:#b8bfca;}.cls-13{fill:#faabab;}.cls-14{stroke-dasharray:0 5.64;}</style></defs><title>vms_error(1x1)</title><g id="Layer_2" data-name="Layer 2"><g id="Illustrations"><rect class="cls-1" width="126" height="126"/><polygon class="cls-2" points="19.46 102.66 36.89 112.69 36.88 101.08 19.45 91.05 19.46 102.66"/><polygon class="cls-2" points="36.86 92.63 71.66 112.79 71.68 101.18 36.88 81.02 36.86 92.63"/><polygon class="cls-3" points="89.09 102.76 71.66 112.79 71.68 101.18 89.11 91.15 89.09 102.76"/><ellipse class="cls-4" cx="54.3" cy="76.14" rx="1.68" ry="0.97"/><ellipse class="cls-4" cx="28.37" cy="91.06" rx="1.68" ry="0.97"/><polygon class="cls-5" points="54.28 91.1 71.68 101.18 89.11 91.15 54.31 70.99 19.45 91.05 36.85 101.13 54.28 91.1"/><polygon class="cls-3" points="54.26 102.71 36.83 112.74 36.85 101.13 54.28 91.1 54.26 102.71"/><polygon class="cls-6" points="54.31 70.99 19.45 91.05 19.46 102.66 36.83 112.66 36.83 112.74 54.26 102.71 71.66 112.79 89.09 102.76 89.11 91.15 89.11 91.15 54.31 70.99"/><polygon class="cls-7" points="71.73 112.84 89.16 122.87 89.14 111.26 71.71 101.23 71.73 112.84"/><polygon class="cls-8" points="71.71 101.23 89.11 91.15 106.54 101.18 89.14 111.26 71.71 101.23"/><polygon class="cls-9" points="106.55 112.84 89.12 122.87 89.14 111.26 106.57 101.23 106.55 112.84"/><line class="cls-10" x1="89.16" y1="98.41" x2="89.16" y2="104.18"/><line class="cls-10" x1="84.16" y1="101.3" x2="94.16" y2="101.3"/><polygon class="cls-11" points="106.57 101.23 106.54 101.18 89.11 91.15 71.71 101.23 71.73 112.84 89.12 122.85 89.12 122.87 89.14 122.86 89.16 122.87 89.16 122.85 106.55 112.84 106.57 101.23"/><polygon class="cls-3" points="71.69 81.07 54.26 91.1 54.28 79.49 71.71 69.46 71.69 81.07"/><polygon class="cls-3" points="71.66 101.18 54.23 111.21 54.25 99.6 71.68 89.57 71.66 101.18"/><polygon class="cls-2" points="19.43 91.05 54.23 111.21 54.25 99.6 19.45 79.44 19.43 91.05"/><polygon class="cls-5" points="54.28 79.49 71.71 69.46 54.31 59.38 19.45 79.44 54.25 99.6 71.68 89.57 54.28 79.49"/><polygon class="cls-6" points="71.71 69.46 54.31 59.38 19.45 79.44 19.45 79.44 19.43 91.05 54.23 111.21 71.66 101.18 71.68 89.57 64.33 85.31 71.69 81.07 71.71 69.46"/><ellipse class="cls-12" cx="54.3" cy="64.53" rx="1.68" ry="0.97"/><ellipse class="cls-12" cx="28.37" cy="79.45" rx="1.68" ry="0.97"/><ellipse class="cls-12" cx="54.26" cy="94.45" rx="1.68" ry="0.97"/><polygon class="cls-7" points="36.85 41.73 54.28 51.76 54.26 40.15 36.83 30.12 36.85 41.73"/><polygon class="cls-9" points="89.11 51.71 54.31 71.87 54.29 60.26 89.09 40.1 89.11 51.71"/><polygon class="cls-8" points="36.83 30.12 54.23 20.04 89.09 40.1 54.29 60.26 36.86 50.23 54.26 40.15 36.83 30.12"/><ellipse class="cls-13" cx="54.28" cy="55.11" rx="1.68" ry="0.97"/><polygon class="cls-7" points="36.88 61.84 54.31 71.87 54.29 60.26 36.86 50.23 36.88 61.84"/><ellipse class="cls-13" cx="54.25" cy="25.2" rx="1.68" ry="0.97"/><ellipse class="cls-13" cx="80.17" cy="40.12" rx="1.68" ry="0.97"/><line class="cls-11" x1="54.23" y1="20.04" x2="54.23" y2="20.04"/><line class="cls-14" x1="54.23" y1="14.4" x2="54.23" y2="5.95"/><line class="cls-11" x1="54.23" y1="3.13" x2="54.23" y2="3.13"/><polygon class="cls-11" points="89.09 40.1 89.09 40.1 54.23 20.04 36.83 30.12 36.83 30.12 36.85 41.73 44.22 45.97 36.86 50.23 36.86 50.23 36.88 61.84 54.31 71.87 89.11 51.71 89.09 40.1"/><line class="cls-11" x1="89.09" y1="40.1" x2="89.09" y2="40.1"/><line class="cls-14" x1="89.09" y1="34.47" x2="89.09" y2="26.01"/><line class="cls-11" x1="89.09" y1="23.19" x2="89.09" y2="23.19"/></g></g></svg>