<svg xmlns="http://www.w3.org/2000/svg" width="300" height="300" viewBox="0 0 300 300"><defs><style>.cls-1,.cls-10,.cls-11,.cls-5,.cls-6{fill:none;}.cls-2{fill:#f2f4f6;}.cls-3{fill:#fff;}.cls-4{fill:#d5dae0;}.cls-5{stroke:#b8bfca;}.cls-10,.cls-11,.cls-5,.cls-6{stroke-linecap:round;stroke-linejoin:round;stroke-width:2px;}.cls-6{stroke:#627386;}.cls-7{fill:#fccccc;}.cls-8{fill:#fddddd;}.cls-9{fill:#feeeee;}.cls-10{stroke:#faabab;}.cls-11{stroke:#c44556;}</style></defs><title>error_01</title><g id="Layer_2" data-name="Layer 2"><g id="Layer_1-2" data-name="Layer 1"><rect class="cls-1" width="300" height="300"/><path class="cls-2" d="M88.11,160.66l-9.5-5.48V105.7l9.5,5.49Z"/><polygon class="cls-3" points="98.84 105 88.11 111.19 78.61 105.7 89.33 99.51 98.84 105"/><polygon class="cls-4" points="98.84 105 88.11 111.19 88.11 160.66 98.84 154.47 98.84 105"/><path class="cls-1" d="M98.84,154.47,89.33,149V99.51L98.84,105Z"/><line class="cls-5" x1="88.11" y1="111.19" x2="78.61" y2="105.7"/><line class="cls-5" x1="88.11" y1="111.19" x2="88.11" y2="160.66"/><line class="cls-5" x1="88.11" y1="111.19" x2="98.84" y2="105"/><polygon class="cls-6" points="89.33 99.51 78.61 105.7 78.61 155.18 88.11 160.66 98.84 154.47 98.84 105 89.33 99.51"/><path class="cls-2" d="M114.68,176l-9.5-5.48V121l9.5,5.49Z"/><polygon class="cls-3" points="125.41 120.33 114.68 126.53 105.18 121.04 115.9 114.85 125.41 120.33"/><polygon class="cls-4" points="125.41 120.33 114.68 126.53 114.68 176 125.41 169.81 125.41 120.33"/><path class="cls-1" d="M125.41,169.81l-9.51-5.48V114.85l9.51,5.49Z"/><line class="cls-5" x1="114.68" y1="126.53" x2="105.18" y2="121.04"/><line class="cls-5" x1="114.68" y1="126.53" x2="114.68" y2="176"/><line class="cls-5" x1="114.68" y1="126.53" x2="125.41" y2="120.34"/><polygon class="cls-6" points="115.9 114.85 105.18 121.04 105.18 170.52 114.68 176 125.41 169.81 125.41 120.33 115.9 114.85"/><path class="cls-2" d="M141.25,191.34l-9.5-5.48V136.38l9.5,5.49Z"/><polygon class="cls-3" points="151.97 135.67 141.25 141.87 131.75 136.38 142.47 130.19 151.97 135.67"/><polygon class="cls-4" points="151.97 135.67 141.25 141.87 141.25 191.34 151.97 185.15 151.97 135.67"/><path class="cls-1" d="M152,185.15l-9.5-5.49V130.19l9.5,5.48Z"/><line class="cls-5" x1="141.25" y1="141.87" x2="131.75" y2="136.38"/><line class="cls-5" x1="141.25" y1="141.87" x2="141.25" y2="191.34"/><line class="cls-5" x1="141.25" y1="141.87" x2="151.97" y2="135.67"/><polygon class="cls-6" points="142.47 130.19 131.75 136.38 131.75 185.86 141.25 191.34 151.97 185.15 151.97 135.67 142.47 130.19"/><path class="cls-7" d="M221.39,164.78v11l-42.85,24.74v-11Z"/><polygon class="cls-8" points="167.82 183.32 178.54 189.52 178.54 200.49 167.82 194.3 167.82 183.32"/><polygon class="cls-9" points="167.82 183.32 178.54 189.52 221.39 164.78 210.67 158.59 167.82 183.32"/><path class="cls-1" d="M210.67,158.59v11L167.82,194.3v-11Z"/><line class="cls-10" x1="178.54" y1="189.52" x2="178.54" y2="200.49"/><line class="cls-10" x1="178.54" y1="189.52" x2="221.39" y2="164.78"/><line class="cls-10" x1="178.54" y1="189.52" x2="167.82" y2="183.33"/><polygon class="cls-11" points="167.82 194.3 178.54 200.49 221.39 175.75 221.39 164.78 210.67 158.59 167.82 183.32 167.82 194.3"/></g></g></svg>