<svg xmlns="http://www.w3.org/2000/svg" width="300" height="300" viewBox="0 0 300 300"><defs><style>.cls-1,.cls-10,.cls-11,.cls-12,.cls-13,.cls-5,.cls-6{fill:none;}.cls-2{fill:#fff;}.cls-3{fill:#d5dae0;}.cls-4{fill:#f2f4f6;}.cls-12,.cls-5{stroke:#b8bfca;}.cls-10,.cls-11,.cls-12,.cls-13,.cls-5,.cls-6{stroke-linecap:round;stroke-linejoin:round;stroke-width:2px;}.cls-6{stroke:#627386;}.cls-7{fill:#faabab;}.cls-8{fill:#feeeee;}.cls-9{fill:#fccccc;}.cls-10{stroke:#faabab;}.cls-11{stroke:#c44556;}.cls-12{stroke-dasharray:0 6;}.cls-13{stroke:#d5dae0;}</style></defs><title>error_03</title><g id="Layer_2" data-name="Layer 2"><g id="Layer_1-2" data-name="Layer 1"><rect class="cls-1" width="300" height="300"/><rect class="cls-1" x="87" y="87" width="126" height="126"/><polygon class="cls-2" points="182.99 179.5 196.37 171.78 213 181.39 199.62 189.11 182.99 179.5"/><polygon class="cls-3" points="213 181.39 213 189.69 199.62 197.41 199.62 189.11 213 181.39"/><polygon class="cls-4" points="182.99 179.5 182.99 187.81 199.62 197.41 199.62 189.11 182.99 179.5"/><polygon class="cls-5" points="182.99 179.5 196.37 171.78 213 181.39 199.62 189.11 182.99 179.5"/><polygon class="cls-5" points="213 181.39 213 189.69 199.62 197.41 199.62 189.11 213 181.39"/><polygon class="cls-5" points="182.99 179.5 182.99 187.81 199.62 197.41 199.62 189.11 182.99 179.5"/><polygon class="cls-6" points="196.37 171.78 182.99 179.5 182.99 187.81 199.62 197.41 213 189.69 213 181.38 196.37 171.78"/><polygon class="cls-3" points="199.62 156.41 203.89 153.94 203.89 181.39 199.62 183.85 199.62 156.41"/><polygon class="cls-4" points="199.62 156.41 192.09 152.06 192.09 179.51 199.62 183.85 199.62 156.41"/><polygon class="cls-5" points="199.62 156.41 203.89 153.94 203.89 181.39 199.62 183.85 199.62 156.41"/><polygon class="cls-5" points="199.62 156.41 192.09 152.06 192.09 179.51 199.62 183.85 199.62 156.41"/><polygon class="cls-6" points="199.62 156.41 192.09 152.06 192.09 179.51 199.62 183.85 203.89 181.39 203.89 153.94 199.62 156.41"/><polygon class="cls-2" points="130.68 149.31 144.06 141.58 160.7 151.19 147.32 158.91 130.68 149.31"/><polygon class="cls-3" points="160.7 151.19 160.7 159.49 147.32 167.21 147.32 158.91 160.7 151.19"/><polygon class="cls-4" points="130.68 149.31 130.68 157.61 147.32 167.21 147.32 158.91 130.68 149.31"/><polygon class="cls-5" points="130.68 149.31 144.06 141.58 160.7 151.19 147.32 158.91 130.68 149.31"/><polygon class="cls-5" points="160.7 151.19 160.7 159.49 147.32 167.21 147.32 158.91 160.7 151.19"/><polygon class="cls-5" points="130.68 149.31 130.68 157.61 147.32 167.21 147.32 158.91 130.68 149.31"/><polygon class="cls-6" points="144.06 141.58 130.68 149.31 130.68 157.61 147.32 167.21 160.69 159.49 160.69 151.19 144.06 141.58"/><polygon class="cls-3" points="147.32 126.21 151.59 123.74 151.59 151.19 147.32 153.65 147.32 126.21"/><polygon class="cls-4" points="147.32 126.21 139.79 121.86 139.79 149.31 147.32 153.65 147.32 126.21"/><polygon class="cls-5" points="147.32 126.21 151.59 123.74 151.59 151.19 147.32 153.65 147.32 126.21"/><polygon class="cls-5" points="147.32 126.21 139.79 121.86 139.79 149.31 147.32 153.65 147.32 126.21"/><polygon class="cls-6" points="147.32 126.21 139.79 121.86 139.79 149.31 147.32 153.65 151.59 151.19 151.59 123.74 147.32 126.21"/><polygon class="cls-2" points="203.98 144.91 212.44 140.03 141.34 98.99 132.89 103.87 203.98 144.91"/><polygon class="cls-7" points="132.89 103.87 132.89 119.66 144.74 110.71 132.89 103.87"/><polygon class="cls-7" points="168.44 124.39 156.59 117.55 144.74 126.5 156.59 133.35 168.44 124.39"/><polygon class="cls-7" points="192.13 138.07 180.29 131.23 168.44 140.19 180.29 147.03 192.13 138.07"/><polygon class="cls-7" points="203.98 160.71 203.98 144.91 192.13 153.87 203.98 160.71"/><polygon class="cls-8" points="156.59 117.55 144.74 110.71 132.89 119.66 144.74 126.5 156.59 117.55"/><polygon class="cls-8" points="180.29 131.23 168.44 124.39 156.59 133.35 168.44 140.19 180.29 131.23"/><polygon class="cls-8" points="203.98 144.91 192.13 138.07 180.29 147.03 192.13 153.87 203.98 144.91"/><polygon class="cls-9" points="203.98 144.91 212.44 140.03 212.44 155.83 203.98 160.71 203.98 144.91"/><polygon class="cls-10" points="203.98 144.91 212.44 140.03 141.34 98.99 132.89 103.87 203.98 144.91"/><polygon class="cls-10" points="141.34 98.99 132.89 103.87 132.89 103.87 132.89 119.66 144.74 126.5 156.59 133.35 168.44 140.19 180.29 147.03 192.14 153.87 203.98 160.71 212.44 155.83 212.44 140.03 141.34 98.99"/><polygon class="cls-11" points="132.89 103.87 132.89 119.66 144.74 110.71 132.89 103.87"/><polygon class="cls-11" points="168.44 124.39 156.59 117.55 144.74 126.5 156.59 133.35 168.44 124.39"/><polygon class="cls-11" points="192.13 138.07 180.29 131.23 168.44 140.19 180.29 147.03 192.13 138.07"/><polygon class="cls-11" points="203.98 160.71 203.98 144.91 192.13 153.87 203.98 160.71"/><polygon class="cls-11" points="160.39 109.98 141.34 98.99 132.89 103.87 132.89 119.66 144.74 126.5 144.74 126.5 144.74 126.5 144.74 126.5 149.48 129.24 156.59 133.35 168.44 140.19 174.36 143.61 180.29 147.03 192.14 153.87 196.73 156.52 203.98 160.71 203.98 160.71 203.98 160.71 212.44 155.83 212.44 140.03 160.39 109.98"/><line class="cls-11" x1="203.98" y1="144.91" x2="203.98" y2="160.71"/><line class="cls-11" x1="203.98" y1="144.91" x2="132.89" y2="103.87"/><line class="cls-12" x1="104.2" y1="212.7" x2="127.22" y2="199.41"/><path class="cls-13" d="M134.36,196.91a1.4,1.4,0,0,1-.82,1.15,4.39,4.39,0,0,1-4,0,1.21,1.21,0,0,1,0-2.3,4.39,4.39,0,0,1,4,0A1.41,1.41,0,0,1,134.36,196.91Z"/><ellipse class="cls-13" cx="151.34" cy="185.48" rx="18" ry="10.39"/><line class="cls-13" x1="151.34" y1="181.04" x2="151.34" y2="189.93"/><line class="cls-13" x1="159.04" y1="185.48" x2="143.63" y2="185.48"/></g></g></svg>