<?xml version="1.0" encoding="UTF-8"?>
<svg width="21px" height="20px" viewBox="0 0 21 20" version="1.1" xmlns="http://www.w3.org/2000/svg" xmlns:xlink="http://www.w3.org/1999/xlink">
    <!-- Generator: Sketch 54.1 (76490) - https://sketchapp.com -->
    <title>Acropolis</title>
    <desc>Created with Sketch.</desc>
    <g id="Page-1" stroke="none" stroke-width="1" fill="none" fill-rule="evenodd">
        <g id="Acropolis" fill-rule="nonzero">
            <polygon id="Fill-1" fill="#4D5969" points="13 13 15 13 15 7 13 7"></polygon>
            <g id="Group-8">
                <path d="M2,13 L2,7 L5,7 L5,5 L2,5 C1,5 0,6 0,7 L0,13 C0,14 1,15 2,15 L5,15 L5,13 L2,13 Z" id="Fill-2" fill="#9AA5B5"></path>
                <path d="M15,5 L15,2 C15,1 14,0 13,0 L7,0 C6,0 5,1 5,2 L5,18 C5,19 6,20 7,20 L13,20 C14,20 15,19 15,18 L15,15 L13,15 L13,18 L7,18 L7,5 L7,2 L13,2 L13,5 L15,5 Z" id="Fill-4" fill="#4D5969"></path>
                <path d="M18,15 C19,15 20.004,14 20.004,13 L20.004,7 C20.004,6.116 19,5 18,5 L7,5 L7,7 L18,7 L18,13 L7,13 L7,15 L18,15 Z" id="Fill-6" fill="#9AA5B5"></path>
            </g>
        </g>
    </g>
</svg>