<?xml version="1.0" encoding="UTF-8"?>
<svg width="23px" height="20px" viewBox="0 0 23 20" version="1.1" xmlns="http://www.w3.org/2000/svg" xmlns:xlink="http://www.w3.org/1999/xlink">
    <!-- Generator: Sketch 54.1 (76490) - https://sketchapp.com -->
    <title>AHV</title>
    <desc>Created with Sketch.</desc>
    <defs>
        <polygon id="path-1" points="0.1654 1 1.1654 1 1.1654 1.5005 0.1654 1.5005"></polygon>
        <polygon id="path-3" points="0.717 1 1.717 1 1.717 1.5524 0.717 1.5524"></polygon>
        <polygon id="path-5" points="0.5628 1 1.5628 1 1.5628 1.5 0.5628 1.5"></polygon>
        <polygon id="path-7" points="0.7338 0.4489 1.7338 0.4489 1.7338 1 0.7338 1"></polygon>
        <polygon id="path-9" points="0.1281 0 18 0 18 19.9996 0.1281 19.9996"></polygon>
    </defs>
    <g id="Page-1" stroke="none" stroke-width="1" fill="none" fill-rule="evenodd">
        <g id="AHV" transform="translate(0.000000, -1.000000)">
            <path d="M6.5232,21 L6.6822,21 L6.5232,21 Z" id="Fill-1" fill="#000000" fill-rule="nonzero"></path>
            <path d="M6.4791,1.0056 L6.6981,1.0046 L6.4791,1.0056 Z" id="Fill-2" fill="#000000" fill-rule="nonzero"></path>
            <g id="Group-5" transform="translate(15.000000, 0.000000)">
                <g id="Fill-3-Clipped">
                    <mask id="mask-2" fill="white">
                        <use xlink:href="#path-1"></use>
                    </mask>
                    <g id="path-1"></g>
                    <polygon id="Fill-3" fill="#000000" fill-rule="nonzero" mask="url(#mask-2)" points="0.2769 1.0005 0.2769 1.0005 1.0539 1.0005"></polygon>
                </g>
            </g>
            <polygon id="Fill-6" fill="#4D5969" fill-rule="nonzero" points="15.2766 1.0002 6.6976 1.0052 7.7186 2.7562 16.3296 2.7512 16.3036 2.7512"></polygon>
            <g id="Group-23">
                <g id="Group-9" transform="translate(5.000000, 0.000000)">
                    <g id="Fill-7-Clipped">
                        <mask id="mask-4" fill="white">
                            <use xlink:href="#path-3"></use>
                        </mask>
                        <g id="path-3"></g>
                        <path d="M1.479,1.0054 L0.955,1.0994 C1.116,1.0384 1.289,1.0054 1.466,1.0054 L1.479,1.0054 Z" id="Fill-7" fill="#030100" fill-rule="nonzero" mask="url(#mask-4)"></path>
                    </g>
                </g>
                <g id="Group-12" transform="translate(15.000000, 0.000000)">
                    <g id="Fill-10-Clipped">
                        <mask id="mask-6" fill="white">
                            <use xlink:href="#path-5"></use>
                        </mask>
                        <g id="path-5"></g>
                        <path d="M1.0718,1 L1.0538,1 L1.0718,1 Z" id="Fill-10" fill="#030100" fill-rule="nonzero" mask="url(#mask-6)"></path>
                    </g>
                </g>
                <polygon id="Fill-13" fill="#4D5969" fill-rule="nonzero" points="16.3315 19.2427 7.7035 19.2477 6.6825 20.9997 16.1115 20.9947 15.3115 20.9947"></polygon>
                <g id="Group-17" transform="translate(5.000000, 20.000000)">
                    <g id="Fill-15-Clipped">
                        <mask id="mask-8" fill="white">
                            <use xlink:href="#path-7"></use>
                        </mask>
                        <g id="path-7"></g>
                        <path d="M0.9438,0.8979 L1.5238,0.9999 L1.4758,0.9999 C1.2908,0.9999 1.1108,0.9639 0.9438,0.8979" id="Fill-15" fill="#030100" fill-rule="nonzero" mask="url(#mask-8)"></path>
                    </g>
                </g>
                <path d="M6.1523,18.3657 L1.8313,11.0047 L2.5123,9.8437 L9.7923,9.8437 L8.7693,8.0917 L3.5383,8.0917 L6.1563,3.6197 L5.1313,1.8657 L5.2353,1.6947 C5.3283,1.5407 5.4503,1.4077 5.5913,1.3007 L5.2253,1.7017 L0.1913,10.2997 C-0.0637,10.7357 -0.0637,11.2767 0.1923,11.7127 L5.2293,20.2947 L5.2323,20.2927 L5.1283,20.1147 L6.1523,18.3657 Z" id="Fill-18" fill="#4D5969" fill-rule="nonzero"></path>
                <g id="Group-22" transform="translate(5.000000, 1.000000)">
                    <g id="Fill-20-Clipped">
                        <mask id="mask-10" fill="white">
                            <use xlink:href="#path-9"></use>
                        </mask>
                        <g id="path-9"></g>
                        <path d="M17.8081,9.2876 L12.7701,0.7056 C12.5151,0.2706 12.0391,-0.0004 11.5281,-0.0004 L11.0721,-0.0004 L11.0541,-0.0004 L10.2771,0.0006 L11.3031,1.7516 L11.3291,1.7516 L15.6601,9.1286 L7.0131,9.1286 L2.7181,1.7566 L1.6981,0.0046 L1.4791,0.0056 L1.4661,0.0056 C1.2891,0.0056 1.1161,0.0386 0.9551,0.0996 C0.8251,0.1486 0.7031,0.2166 0.5921,0.3006 C0.4511,0.4076 0.3291,0.5406 0.2351,0.6946 L0.1321,0.8656 L1.1561,2.6196 L3.7691,7.0916 L4.7921,8.8436 L5.4621,9.9906 L5.2511,10.3526 L5.2611,10.3526 L1.1521,17.3656 L0.1281,19.1146 L0.2321,19.2926 L0.2331,19.2946 C0.3961,19.5716 0.6491,19.7826 0.9441,19.8976 C1.1111,19.9636 1.2911,19.9996 1.4761,19.9996 L1.5231,19.9996 L1.6821,19.9996 L2.7031,18.2476 L6.9951,10.8806 L15.6491,10.8806 L11.3381,18.2426 L11.3311,18.2426 L10.3111,19.9956 L11.1121,19.9956 L11.5381,19.9946 C12.0491,19.9946 12.5251,19.7236 12.7801,19.2876 L17.8081,10.7006 C18.0641,10.2646 18.0641,9.7236 17.8081,9.2876" id="Fill-20" fill="#9AA5B5" fill-rule="nonzero" mask="url(#mask-10)"></path>
                    </g>
                </g>
            </g>
        </g>
    </g>
</svg>