<?xml version="1.0" encoding="UTF-8"?>
<svg width="20px" height="20px" viewBox="0 0 20 20" version="1.1" xmlns="http://www.w3.org/2000/svg" xmlns:xlink="http://www.w3.org/1999/xlink">
    <!-- Generator: Sketch 54.1 (76490) - https://sketchapp.com -->
    <title>Beam</title>
    <desc>Created with Sketch.</desc>
    <defs>
        <polygon id="path-1" points="0.9959 0 13.9999 0 13.9999 19.9998 0.9959 19.9998"></polygon>
        <polygon id="path-3" points="0 0.3504 9.809 0.3504 9.809 11.6804 0 11.6804"></polygon>
    </defs>
    <g id="Page-1" stroke="none" stroke-width="1" fill="none" fill-rule="evenodd">
        <g id="Beam">
            <g id="Group-3" transform="translate(6.000000, 0.000000)">
                <g id="Fill-1-Clipped">
                    <mask id="mask-2" fill="white">
                        <use xlink:href="#path-1"></use>
                    </mask>
                    <g id="path-1"></g>
                    <path d="M13.2749,5.2578 C12.8099,3.7548 12.1219,2.3008 11.2309,0.9388 C10.8459,0.3508 10.1879,-0.0002 9.4709,-0.0002 C9.0859,-0.0002 8.7079,0.1038 8.3799,0.2998 L1.0089,4.7098 L1.2629,5.0088 C1.4539,5.2338 1.7569,5.6668 1.8569,5.8098 C1.9019,5.8738 1.9089,5.8838 1.9329,5.9068 L2.1289,6.0968 L9.3279,1.7908 C9.3719,1.7638 9.4199,1.7508 9.4709,1.7508 C9.5659,1.7508 9.6539,1.7978 9.7059,1.8768 C11.3339,4.3658 12.1939,7.1888 12.1939,10.0398 C12.1939,12.8408 11.3619,15.6208 9.7869,18.0768 C9.7179,18.1848 9.5979,18.2488 9.4659,18.2488 C9.3959,18.2488 9.3279,18.2308 9.2679,18.1948 L2.6539,14.2548 L2.6559,14.2518 L2.3499,14.0738 L2.1689,14.3628 L1.8749,14.1848 C1.6859,14.4768 1.4759,14.7588 1.2519,15.0218 L0.9959,15.3218 L8.3229,19.6868 C8.6669,19.8918 9.0619,19.9998 9.4659,19.9998 C10.2259,19.9998 10.9199,19.6268 11.3209,19.0018 C12.1839,17.6558 12.8489,16.2228 13.2989,14.7428 C13.7639,13.2148 13.9999,11.6318 13.9999,10.0398 C13.9999,8.4198 13.7559,6.8108 13.2749,5.2578" id="Fill-1" fill="#4D5969" fill-rule="nonzero" mask="url(#mask-2)"></path>
                </g>
            </g>
            <g id="Group-6" transform="translate(0.000000, 4.000000)">
                <g id="Fill-4-Clipped">
                    <mask id="mask-4" fill="white">
                        <use xlink:href="#path-3"></use>
                    </mask>
                    <g id="path-3"></g>
                    <path d="M1.936,6.2524 C1.818,6.1824 1.806,6.0714 1.806,6.0274 C1.806,5.9824 1.818,5.8714 1.936,5.8014 L7.119,2.7014 C7.71,3.7304 8.021,4.8664 8.021,6.0074 C8.021,7.1564 7.707,8.2994 7.108,9.3334 L1.936,6.2524 Z M9.01,2.4494 L9.002,2.4334 C8.987,2.4004 8.971,2.3684 8.956,2.3364 C8.937,2.2994 8.918,2.2624 8.899,2.2254 L8.885,2.1984 C8.765,1.9644 8.634,1.7364 8.496,1.5184 C8.284,1.1874 8.051,0.8714 7.803,0.5784 L7.609,0.3504 L0.987,4.3114 C0.369,4.6814 -0.001,5.3234 8.47032947e-22,6.0284 C8.47032947e-22,6.7334 0.371,7.3754 0.991,7.7444 L7.597,11.6804 L7.791,11.4534 C8.034,11.1674 8.262,10.8614 8.467,10.5444 L8.651,10.2584 L8.644,10.2544 C8.735,10.1014 8.822,9.9434 8.904,9.7834 L8.914,9.7634 C8.92,9.7514 8.926,9.7394 8.932,9.7284 C8.959,9.6734 8.985,9.6194 9.011,9.5654 L9.016,9.5554 C9.048,9.4864 9.081,9.4174 9.112,9.3454 L9.135,9.2934 C9.582,8.2514 9.809,7.1464 9.809,6.0084 C9.809,4.7694 9.54,3.5724 9.01,2.4494 L9.01,2.4494 Z" id="Fill-4" fill="#9AA5B5" fill-rule="nonzero" mask="url(#mask-4)"></path>
                </g>
            </g>
        </g>
    </g>
</svg>