<?xml version="1.0" encoding="UTF-8"?>
<svg width="19px" height="20px" viewBox="0 0 19 20" version="1.1" xmlns="http://www.w3.org/2000/svg" xmlns:xlink="http://www.w3.org/1999/xlink">
    <!-- Generator: Sketch 54.1 (76490) - https://sketchapp.com -->
    <title>Buckets</title>
    <desc>Created with Sketch.</desc>
    <defs>
        <polygon id="path-1" points="0.000233306313 0.0004 19 0.0004 19 20 0.000233306313 20"></polygon>
    </defs>
    <g id="Page-1" stroke="none" stroke-width="1" fill="none" fill-rule="evenodd">
        <g id="Buckets">
            <path d="M14.1743,1.0762 L11.6113,11.9412 C11.5913,12.0252 11.5183,12.0842 11.4333,12.0842 L7.7493,12.0842 C7.6653,12.0842 7.5923,12.0262 7.5713,11.9432 L4.8403,1.0762 L3.0713,1.0762 L5.9123,12.3792 C6.1283,13.2402 6.8823,13.8402 7.7493,13.8402 L11.4333,13.8402 C12.3143,13.8402 13.0723,13.2272 13.2763,12.3512 L15.9363,1.0762 L14.1743,1.0762 Z" id="Fill-1" fill="#4D5969" fill-rule="nonzero"></path>
            <g id="Group-5">
                <g id="Fill-3-Clipped">
                    <mask id="mask-2" fill="white">
                        <use xlink:href="#path-1"></use>
                    </mask>
                    <g id="path-1"></g>
                    <path d="M17.2759,2.2144 L13.4599,17.9634 C13.4199,18.1284 13.2759,18.2444 13.1089,18.2444 L6.0729,18.2444 C5.9079,18.2444 5.7639,18.1304 5.7229,17.9664 L1.7259,2.2184 C1.6969,2.1074 1.7209,1.9904 1.7899,1.8994 C1.8589,1.8084 1.9629,1.7554 2.0749,1.7554 L16.9249,1.7554 C17.0369,1.7554 17.1409,1.8074 17.2099,1.8974 C17.2779,1.9874 17.3029,2.1034 17.2759,2.2144 M18.5579,0.8154 C18.1619,0.2974 17.5669,0.0004 16.9249,0.0004 L2.0749,0.0004 C1.4289,0.0004 0.8309,0.3004 0.4349,0.8244 C0.0399,1.3484 -0.0951,2.0164 0.0679,2.6584 L4.0649,18.4074 C4.3009,19.3454 5.1269,20.0004 6.0729,20.0004 L13.1089,20.0004 C14.0659,20.0004 14.8939,19.3354 15.1229,18.3834 L18.9389,2.6364 C19.0929,1.9974 18.9539,1.3334 18.5579,0.8154" id="Fill-3" fill="#9AA5B5" fill-rule="nonzero" mask="url(#mask-2)"></path>
                </g>
            </g>
        </g>
    </g>
</svg>