<?xml version="1.0" encoding="UTF-8"?>
<svg width="20px" height="20px" viewBox="0 0 20 20" version="1.1" xmlns="http://www.w3.org/2000/svg" xmlns:xlink="http://www.w3.org/1999/xlink">
    <!-- Generator: Sketch 54.1 (76490) - https://sketchapp.com -->
    <title>Calm</title>
    <desc>Created with Sketch.</desc>
    <defs>
        <polygon id="path-1" points="0 0.0003 18.0218 0.0003 18.0218 10.0013 0 10.0013"></polygon>
        <polygon id="path-3" points="0.0002 0 10 0 10 18.0207 0.0002 18.0207"></polygon>
        <polygon id="path-5" points="4.97172695e-05 0.9773 10.001 0.9773 10.001 19 4.97172695e-05 19"></polygon>
    </defs>
    <g id="Page-1" stroke="none" stroke-width="1" fill="none" fill-rule="evenodd">
        <g id="Calm" transform="translate(-0.000000, 0.000000)">
            <g id="Group-3">
                <g id="Fill-1-Clipped">
                    <mask id="mask-2" fill="white">
                        <use xlink:href="#path-1"></use>
                    </mask>
                    <g id="path-1"></g>
                    <path d="M2.9048,2.9043 C3.6528,2.1563 4.7308,1.7603 6.0218,1.7603 C6.5798,1.7603 7.1708,1.8343 7.7838,1.9773 C7.8758,1.9993 7.9678,2.0223 8.0608,2.0473 C8.6978,2.2173 9.3498,2.4613 10.0008,2.7723 C10.0438,2.7923 10.0868,2.8123 10.1298,2.8333 C11.5608,3.5363 12.9698,4.5603 14.2048,5.7953 C15.4808,7.0713 16.5228,8.5223 17.2278,10.0013 C17.5698,9.2863 17.8288,8.5733 17.9998,7.8743 C18.0078,7.8443 18.0138,7.8133 18.0218,7.7833 C17.3178,6.6403 16.4548,5.5553 15.4498,4.5503 C14.4468,3.5473 13.3618,2.6843 12.2178,1.9783 C12.0888,1.8983 11.9588,1.8203 11.8278,1.7443 C11.2238,1.3943 10.6128,1.0943 10.0008,0.8453 C9.7238,0.7333 9.4478,0.6303 9.1728,0.5393 C8.2078,0.2213 7.2638,0.0433 6.3628,0.0073 L6.3628,0.0003 L5.6818,0.0003 L5.6818,0.0073 C4.0598,0.0763 2.6748,0.6443 1.6598,1.6593 C0.8498,2.4683 0.3288,3.4993 0.1118,4.7213 C-0.0832,5.8173 -0.0232,7.0183 0.2898,8.2943 C0.4278,8.8563 0.6148,9.4283 0.8468,9.9993 C1.1488,9.2553 1.5278,8.5133 1.9788,7.7823 C1.4988,5.7373 1.8218,3.9873 2.9048,2.9043" id="Fill-1" fill="#4D5969" fill-rule="nonzero" mask="url(#mask-2)"></path>
                </g>
            </g>
            <path d="M19.71,11.7056 C19.572,11.1446 19.385,10.5716 19.153,9.9996 C19.135,10.0436 19.117,10.0876 19.099,10.1316 C19.002,10.3626 18.898,10.5956 18.787,10.8246 C18.676,11.0536 18.557,11.2846 18.432,11.5126 C18.329,11.7006 18.223,11.8846 18.119,12.0586 C18.087,12.1116 18.054,12.1646 18.021,12.2176 C18.502,14.2626 18.178,16.0136 17.095,17.0956 C16.347,17.8436 15.27,18.2396 13.978,18.2396 C13.415,18.2396 12.824,18.1636 12.219,18.0206 C11.495,17.8506 10.75,17.5806 10.005,17.2246 C8.542,16.5256 7.082,15.4916 5.795,14.2056 C4.52,12.9296 3.477,11.4776 2.772,9.9986 C2.447,10.6786 2.196,11.3576 2.024,12.0296 C2.008,12.0916 1.993,12.1546 1.978,12.2166 C2.683,13.3596 3.545,14.4446 4.55,15.4506 C5.56,16.4596 6.655,17.3246 7.784,18.0216 C8.513,18.4726 9.257,18.8516 10.001,19.1546 C11.353,19.7046 12.706,19.9996 13.978,19.9996 C15.747,19.9996 17.255,19.4266 18.34,18.3406 C19.15,17.5316 19.671,16.5006 19.888,15.2786 C20.083,14.1836 20.023,12.9816 19.71,11.7056" id="Fill-4" fill="#4D5969" fill-rule="nonzero"></path>
            <g id="Group-8" transform="translate(10.000000, 0.000000)">
                <g id="Fill-6-Clipped">
                    <mask id="mask-4" fill="white">
                        <use xlink:href="#path-3"></use>
                    </mask>
                    <g id="path-3"></g>
                    <path d="M9.8882,4.7217 C9.6712,3.4987 9.1502,2.4687 8.3402,1.6587 C7.3252,0.6437 5.9402,0.0767 4.3192,0.0077 L4.3192,-0.0003 L3.6382,-0.0003 L3.6382,0.0067 C2.4752,0.0537 1.2552,0.3347 0.0002,0.8457 C0.6122,1.0947 1.2242,1.3937 1.8282,1.7437 C1.9592,1.8197 2.0892,1.8987 2.2182,1.9777 C2.8302,1.8337 3.4202,1.7607 3.9782,1.7607 L3.9782,1.7607 C5.2692,1.7607 6.3472,2.1567 7.0952,2.9047 C8.1792,3.9887 8.5062,5.7187 8.0212,7.7837 C8.0142,7.8137 8.0082,7.8447 8.0002,7.8747 C7.8282,8.5737 7.5702,9.2857 7.2282,10.0017 C7.1112,10.2457 6.9852,10.4907 6.8492,10.7357 C6.1642,11.9677 5.2742,13.1357 4.2042,14.2047 C2.9312,15.4777 1.4832,16.5187 0.0052,17.2247 C0.7492,17.5807 1.4942,17.8497 2.2192,18.0207 C3.3622,17.3157 4.4462,16.4537 5.4502,15.4507 C6.4502,14.4487 7.3152,13.3617 8.0212,12.2177 C8.0542,12.1647 8.0872,12.1117 8.1182,12.0577 C8.2232,11.8847 8.3282,11.7007 8.4322,11.5127 C8.5562,11.2847 8.6762,11.0537 8.7862,10.8247 C8.8972,10.5957 9.0022,10.3627 9.0982,10.1317 C9.1172,10.0877 9.1352,10.0437 9.1532,9.9997 C9.3852,9.4287 9.5732,8.8547 9.7102,8.2947 C10.0232,7.0187 10.0832,5.8167 9.8882,4.7217" id="Fill-6" fill="#9AA5B5" fill-rule="nonzero" mask="url(#mask-4)"></path>
                </g>
            </g>
            <g id="Group-11" transform="translate(0.000000, 1.000000)">
                <g id="Fill-9-Clipped">
                    <mask id="mask-6" fill="white">
                        <use xlink:href="#path-5"></use>
                    </mask>
                    <g id="path-5"></g>
                    <path d="M6.022,17.2393 C4.73,17.2393 3.653,16.8433 2.905,16.0953 C1.818,15.0093 1.492,13.2813 1.978,11.2163 C1.993,11.1543 2.008,11.0923 2.024,11.0293 C2.196,10.3583 2.447,9.6783 2.772,8.9983 C2.974,8.5753 3.205,8.1523 3.464,7.7303 C4.102,6.6923 4.886,5.7043 5.795,4.7953 C7.07,3.5203 8.522,2.4783 10.001,1.7723 C9.35,1.4613 8.698,1.2173 8.061,1.0473 C7.968,1.0223 7.876,0.9993 7.784,0.9773 C6.64,1.6833 5.555,2.5453 4.55,3.5503 C3.578,4.5223 2.732,5.5783 2.036,6.6893 C2.017,6.7203 1.998,6.7513 1.979,6.7823 C1.527,7.5133 1.149,8.2553 0.847,8.9993 C0.685,9.3993 0.544,9.7993 0.426,10.1993 C0.377,10.3683 0.331,10.5383 0.29,10.7053 C-0.023,11.9813 -0.083,13.1833 0.112,14.2783 C0.329,15.5003 0.85,16.5313 1.66,17.3413 C2.745,18.4263 4.253,19.0003 6.022,19.0003 C7.285,19.0003 8.623,18.7153 10.001,18.1543 C9.257,17.8513 8.513,17.4723 7.784,17.0213 C7.171,17.1663 6.581,17.2393 6.022,17.2393" id="Fill-9" fill="#9AA5B5" fill-rule="nonzero" mask="url(#mask-6)"></path>
                </g>
            </g>
        </g>
    </g>
</svg>