<?xml version="1.0" encoding="UTF-8"?>
<svg width="38px" height="20px" viewBox="0 0 38 20" version="1.1" xmlns="http://www.w3.org/2000/svg" xmlns:xlink="http://www.w3.org/1999/xlink">
    <!-- Generator: Sketch 55.1 (78136) - https://sketchapp.com -->
    <title>Xi Cluster</title>
    <desc>Created with Sketch.</desc>
    <g id="Page-1" stroke="none" stroke-width="1" fill="none" fill-rule="evenodd">
        <g id="Product-Logos" transform="translate(-1040.000000, -165.000000)">
            <g id="Xi-Cluster" transform="translate(1040.000000, 165.000000)">
                <path d="M2,10 C2,14.4111515 5.58884848,18 10,18 C14.4111515,18 18,14.4111515 18,10 C18,5.58884848 14.4111515,2 10,2 C5.58884848,2 2,5.58884848 2,10 Z M0,10 C0,4.48598425 4.48598425,0 10,0 C15.5140157,0 20,4.48598425 20,10 C20,15.5140157 15.5140157,20 10,20 C4.48598425,20 0,15.5140157 0,10 Z" id="Fill-1" fill="#4D5969"></path>
                <path d="M19,2 C14.5888485,2 11,5.58884848 11,10 C11,14.4111515 14.5888485,18 19,18 C23.4111515,18 27,14.4111515 27,10 C27,5.58884848 23.4111515,2 19,2 M19,20 C13.4859843,20 9,15.5140157 9,10 C9,4.48598425 13.4859843,0 19,0 C24.5140157,0 29,4.48598425 29,10 C29,15.5140157 24.5140157,20 19,20" id="Fill-3" fill="#9AA5B5"></path>
                <path d="M28,2 C23.5888485,2 20,5.58884848 20,10 C20,14.4111515 23.5888485,18 28,18 C32.4111515,18 36,14.4111515 36,10 C36,5.58884848 32.4111515,2 28,2 M28,20 C22.4859843,20 18,15.5140157 18,10 C18,4.48598425 22.4859843,0 28,0 C33.5140157,0 38,4.48598425 38,10 C38,15.5140157 33.5140157,20 28,20" id="Fill-5" fill="#4D5969"></path>
            </g>
        </g>
    </g>
</svg>