<?xml version="1.0" encoding="UTF-8"?>
<svg width="250px" height="250px" viewBox="0 0 250 250" version="1.1" xmlns="http://www.w3.org/2000/svg" xmlns:xlink="http://www.w3.org/1999/xlink">
    <!-- Generator: Sketch 54.1 (76490) - https://sketchapp.com -->
    <title>Color 2</title>
    <desc>Created with Sketch.</desc>
    <g id="Color-2" stroke="none" stroke-width="1" fill="none" fill-rule="evenodd">
        <path d="M175.5958,182.6087 L128.1238,177.1057 L132.2828,193.5727 L132.2878,193.5727 C132.5308,194.3907 133.1918,195.1757 134.2858,195.8067 L150.6758,205.2687 C153.4828,206.8897 158.0328,206.8897 160.8398,205.2687 L169.4528,200.2967 C170.5248,199.6777 171.1838,198.9107 171.4378,198.1107 L171.4398,198.1107 L175.5958,182.6087 Z" id="Fill-1" fill="#B8BFCA"></path>
        <path d="M175.5958,182.6087 L128.1238,177.1057 L132.2828,193.5727 L132.2878,193.5727 C132.5308,194.3907 133.1918,195.1757 134.2858,195.8067 L150.6758,205.2687 C153.4828,206.8897 158.0328,206.8897 160.8398,205.2687 L169.4528,200.2967 C170.5248,199.6777 171.1838,198.9107 171.4378,198.1107 L171.4398,198.1107 L175.5958,182.6087 Z" id="Stroke-3" stroke="#627386" stroke-width="2" stroke-linecap="round" stroke-linejoin="round"></path>
        <path d="M132.2825,193.5722 L132.2885,193.5722 C132.5295,194.3912 133.1925,195.1752 134.2855,195.8072 L150.6755,205.2682 C151.9665,206.0152 153.6305,206.4012 155.3225,206.4602 L153.8175,180.0842 L128.1245,177.1062 L132.2825,193.5722 Z" id="Fill-5" fill="#D5DAE0"></path>
        <path d="M175.5958,182.6087 L128.1238,177.1057 L132.2828,193.5727 L132.2878,193.5727 C132.5308,194.3907 133.1918,195.1757 134.2858,195.8067 L150.6758,205.2687 C153.4828,206.8897 158.0328,206.8897 160.8398,205.2687 L169.4528,200.2967 C170.5248,199.6777 171.1838,198.9107 171.4378,198.1107 L171.4398,198.1107 L175.5958,182.6087 Z" id="Stroke-7" stroke="#627386" stroke-width="2" stroke-linecap="round" stroke-linejoin="round"></path>
        <path d="M173.1865,185.2581 L162.7445,191.2861 C159.3415,193.2511 153.8255,193.2511 150.4215,191.2861 L130.5525,179.8151 C127.1495,177.8501 127.1495,174.6641 130.5525,172.7011 L140.9945,166.6721 C144.3965,164.7071 149.9145,164.7071 153.3165,166.6721 L173.1865,178.1441 C176.5885,180.1081 176.5885,183.2931 173.1865,185.2581" id="Fill-9" fill="#F2F4F6"></path>
        <path d="M173.1865,185.2581 L162.7445,191.2861 C159.3415,193.2511 153.8255,193.2511 150.4215,191.2861 L130.5525,179.8151 C127.1495,177.8501 127.1495,174.6641 130.5525,172.7011 L140.9945,166.6721 C144.3965,164.7071 149.9145,164.7071 153.3165,166.6721 L173.1865,178.1441 C176.5885,180.1081 176.5885,183.2931 173.1865,185.2581 Z" id="Stroke-11" stroke="#627386" stroke-width="2" stroke-linecap="round" stroke-linejoin="round"></path>
        <path d="M164.8672,69.4239 L161.7632,69.4239 L155.1362,60.8529 C153.8702,59.2159 150.1542,58.8189 147.9572,60.0869 L112.5252,80.5429 L140.2222,98.1709 L163.2072,79.2379 C164.3042,78.3339 164.8512,77.2739 164.8522,76.2059 L164.8672,76.2019 L164.8672,69.4239 Z" id="Fill-13" fill="#B8BFCA"></path>
        <path d="M164.8672,69.4239 L161.7632,69.4239 L155.1362,60.8529 C153.8702,59.2159 150.1542,58.8189 147.9572,60.0869 L112.5252,80.5429 L140.2222,98.1709 L163.2072,79.2379 C164.3042,78.3339 164.8512,77.2739 164.8522,76.2059 L164.8672,76.2019 L164.8672,69.4239 Z" id="Stroke-15" stroke="#FFFFFF" stroke-width="2" stroke-linecap="round" stroke-linejoin="round"></path>
        <path d="M140.2216,91.3929 L163.2076,72.4599 C165.0556,70.9379 165.3836,68.9669 164.0706,67.2699 L155.1356,55.7119 C153.8706,54.0749 150.1546,53.6779 147.9576,54.9459 L112.5246,75.4019 L140.2216,91.3929 Z" id="Fill-17" fill="#D5DAE0"></path>
        <path d="M140.2216,91.3929 L163.2076,72.4599 C165.0556,70.9379 165.3836,68.9669 164.0706,67.2699 L155.1356,55.7119 C153.8706,54.0749 150.1546,53.6779 147.9576,54.9459 L112.5246,75.4019 L140.2216,91.3929 Z" id="Stroke-19" stroke="#FFFFFF" stroke-width="2" stroke-linecap="round" stroke-linejoin="round"></path>
        <path d="M164.8526,69.4239 C164.8526,68.6919 164.6046,67.9589 164.0716,67.2689 L155.1366,55.7119 C153.8706,54.0739 150.1546,53.6779 147.9576,54.9459 L112.5246,75.4019 L116.9766,77.9729 L112.5246,80.5429 L140.2216,98.1709 L163.2076,79.2379 C164.3036,78.3339 164.8516,77.2739 164.8526,76.2059 L164.8676,76.2019 L164.8676,69.4239 L164.8526,69.4239 Z" id="Stroke-21" stroke="#627386" stroke-width="2" stroke-linecap="round" stroke-linejoin="round"></path>
        <path d="M49.6839,87.7707 C68.0769,144.5357 145.7709,222.0727 209.7229,187.4637 C219.5669,182.1357 225.5599,171.7567 225.2519,160.5677 C223.2479,87.8797 117.2509,59.3627 58.8949,71.8167 C51.6899,73.3547 47.4129,80.7607 49.6839,87.7707" id="Fill-23" fill="#FFFFFF"></path>
        <path d="M49.6839,87.7707 C68.0769,144.5357 145.7709,222.0727 209.7229,187.4637 C219.5669,182.1357 225.5599,171.7567 225.2519,160.5677 C223.2479,87.8797 117.2509,59.3627 58.8949,71.8167 C51.6899,73.3547 47.4129,80.7607 49.6839,87.7707 Z" id="Stroke-25" stroke="#627386" stroke-width="2" stroke-linecap="round" stroke-linejoin="round"></path>
        <path d="M221.6525,166.8018 C164.6185,192.4168 88.7395,125.2078 63.9345,74.0988 C63.0655,72.3098 61.0925,71.3538 59.1465,71.7628 C59.0865,71.7768 59.0255,71.7888 58.9675,71.8008 C51.7705,73.3308 47.4165,80.7718 49.6845,87.7698 C68.0755,144.5338 145.7695,222.0728 209.7225,187.4628 C217.0435,183.5018 222.2295,176.7448 224.2815,168.9398 C224.6825,167.4118 223.1275,166.1358 221.6875,166.7858 C221.6755,166.7908 221.6645,166.7968 221.6525,166.8018" id="Fill-27" fill="#F2F4F6"></path>
        <path d="M49.6839,87.7707 C68.0769,144.5357 145.7709,222.0727 209.7229,187.4637 C219.5669,182.1357 225.5599,171.7567 225.2519,160.5677 C223.2479,87.8797 117.2509,59.3627 58.8949,71.8167 C51.6899,73.3547 47.4129,80.7607 49.6839,87.7707 Z" id="Stroke-29" stroke="#627386" stroke-width="2" stroke-linecap="round" stroke-linejoin="round"></path>
        <g id="Group-34" transform="translate(24.000000, 110.000000)">
            <path d="M57.0583,14.1515 L51.4043,14.4515 C46.0233,9.4905 41.3743,4.2355 38.2543,0.4745 L37.4693,0.0215 L8.5353,16.7265 L0.7373,17.1405 L0.7373,23.9175 L0.7443,23.9175 C0.7443,24.8775 1.6653,25.8215 3.3633,26.2595 L23.3823,31.4175 C26.3223,32.1755 29.7353,31.9865 32.3713,30.9195 L57.0583,20.9285" id="Fill-31" fill="#B8BFCA"></path>
            <path d="M57.0583,14.1515 L51.4043,14.4515 C46.0233,9.4905 41.3743,4.2355 38.2543,0.4745 L37.4693,0.0215 L8.5353,16.7265 L0.7373,17.1405 L0.7373,23.9175 L0.7443,23.9175 C0.7443,24.8775 1.6653,25.8215 3.3633,26.2595 L23.3823,31.4175 C26.3223,32.1755 29.7353,31.9865 32.3713,30.9195 L57.0583,20.9285" id="Stroke-33" stroke="#FFFFFF" stroke-width="2" stroke-linecap="round" stroke-linejoin="round"></path>
        </g>
        <g id="Group-38" transform="translate(73.000000, 43.000000)">
            <path d="M40.3586,36.9832 L34.1316,22.0082 C31.5016,15.6852 26.8636,10.4032 20.9326,6.9782 L10.9026,1.1872 C9.2306,0.2232 7.3866,0.3612 5.9466,1.1922 L5.9406,1.1832 L0.6106,4.2612 L5.7406,8.1612 L7.9566,26.3562 C14.7466,27.1492 22.5816,29.2492 29.0476,31.2792 L35.0286,40.0612" id="Fill-35" fill="#D5DAE0"></path>
            <path d="M40.3586,36.9832 L34.1316,22.0082 C31.5016,15.6852 26.8636,10.4032 20.9326,6.9782 L10.9026,1.1872 C9.2306,0.2232 7.3866,0.3612 5.9466,1.1922 L5.9406,1.1832 L0.6106,4.2612 L5.7406,8.1612 L7.9566,26.3562 C14.7466,27.1492 22.5816,29.2492 29.0476,31.2792 L35.0286,40.0612" id="Stroke-37" stroke="#FFFFFF" stroke-width="2" stroke-linecap="round" stroke-linejoin="round"></path>
        </g>
        <g id="Group-42" transform="translate(71.000000, 46.000000)">
            <path d="M2.7555,27.5137 L0.1565,6.1667 C-0.3375,2.1007 4.0225,-0.7833 7.5715,1.2647 L17.6015,7.0557 C23.5315,10.4797 28.1715,15.7617 30.8005,22.0857 L37.0285,37.0607" id="Fill-39" fill="#B8BFCA"></path>
            <path d="M2.7555,27.5137 L0.1565,6.1667 C-0.3375,2.1007 4.0225,-0.7833 7.5715,1.2647 L17.6015,7.0557 C23.5315,10.4797 28.1715,15.7617 30.8005,22.0857 L37.0285,37.0607" id="Stroke-41" stroke="#FFFFFF" stroke-width="2" stroke-linecap="round" stroke-linejoin="round"></path>
        </g>
        <g id="Group-46" transform="translate(24.000000, 104.000000)">
            <path d="M37.4688,0.8797 L2.0358,21.3377 C-0.1602,22.6057 0.5268,24.7507 3.3628,25.4807 L23.3818,30.6397 C26.3218,31.3977 29.7348,31.2087 32.3728,30.1417 L57.0578,20.1507" id="Fill-43" fill="#D5DAE0"></path>
            <path d="M37.4688,0.8797 L2.0358,21.3377 C-0.1602,22.6057 0.5268,24.7507 3.3628,25.4807 L23.3818,30.6397 C26.3218,31.3977 29.7348,31.2087 32.3728,30.1417 L57.0578,20.1507" id="Stroke-45" stroke="#FFFFFF" stroke-width="2" stroke-linecap="round" stroke-linejoin="round"></path>
        </g>
        <path d="M61.4688,104.8797 L26.0358,125.3377 C25.1548,125.8457 24.7448,126.4967 24.7448,127.1397 L24.7368,127.1397 L24.7368,133.9177 L24.7448,133.9167 C24.7448,134.8767 25.6658,135.8217 27.3628,136.2597 L47.3818,141.4187 C50.3218,142.1757 53.7348,141.9867 56.3728,140.9197 L81.0578,130.9297" id="Stroke-47" stroke="#627386" stroke-width="2" stroke-linecap="round" stroke-linejoin="round"></path>
        <path d="M113.3586,79.9832 L107.1316,65.0082 C104.5016,58.6852 99.8636,53.4032 93.9326,49.9782 L83.9026,44.1872 C82.2306,43.2222 80.3866,43.3612 78.9466,44.1922 L78.9406,44.1832 L73.6106,47.2612 L73.6196,47.2682 C71.9996,48.2012 70.8936,50.0142 71.1576,52.1662 L73.7556,73.5142" id="Stroke-49" stroke="#627386" stroke-width="2" stroke-linecap="round" stroke-linejoin="round"></path>
    </g>
</svg>