<?xml version="1.0" encoding="UTF-8"?>
<svg width="250px" height="250px" viewBox="0 0 250 250" version="1.1" xmlns="http://www.w3.org/2000/svg" xmlns:xlink="http://www.w3.org/1999/xlink">
    <!-- Generator: Sketch 54.1 (76490) - https://sketchapp.com -->
    <title>Color 0</title>
    <desc>Created with Sketch.</desc>
    <g id="Color-0" stroke="none" stroke-width="1" fill="none" fill-rule="evenodd">
        <polygon id="Fill-1" fill="#91D2FB" points="195.856 82.273 224.341 82.273 224.341 53.788 195.856 53.788"></polygon>
        <polygon id="Stroke-2" stroke="#1B6DC6" stroke-width="2" stroke-linecap="round" stroke-linejoin="round" points="195.856 82.273 224.341 82.273 224.341 53.788 195.856 53.788"></polygon>
        <polygon id="Fill-3" fill="#BDE4FD" points="195.856 110.758 224.341 110.758 224.341 82.273 195.856 82.273"></polygon>
        <polygon id="Stroke-4" stroke="#1B6DC6" stroke-width="2" stroke-linecap="round" stroke-linejoin="round" points="195.856 110.758 224.341 110.758 224.341 82.273 195.856 82.273"></polygon>
        <polygon id="Fill-5" fill="#D3EDFD" points="195.856 139.242 224.341 139.242 224.341 110.757 195.856 110.757"></polygon>
        <polygon id="Stroke-6" stroke="#1B6DC6" stroke-width="2" stroke-linecap="round" stroke-linejoin="round" points="195.856 139.242 224.341 139.242 224.341 110.757 195.856 110.757"></polygon>
        <polygon id="Fill-7" fill="#FFDE85" points="110.757 82.273 139.242 82.273 139.242 53.788 110.757 53.788"></polygon>
        <polygon id="Stroke-8" stroke="#CC7C09" stroke-width="2" stroke-linecap="round" stroke-linejoin="round" points="110.757 82.273 139.242 82.273 139.242 53.788 110.757 53.788"></polygon>
        <polygon id="Fill-9" fill="#FFEBB6" points="110.757 110.758 139.242 110.758 139.242 82.273 110.757 82.273"></polygon>
        <polygon id="Stroke-10" stroke="#CC7C09" stroke-width="2" stroke-linecap="round" stroke-linejoin="round" points="110.757 110.758 139.242 110.758 139.242 82.273 110.757 82.273"></polygon>
        <polygon id="Fill-11" fill="#FFF2CE" points="110.757 139.242 139.242 139.242 139.242 110.757 110.757 110.757"></polygon>
        <polygon id="Stroke-12" stroke="#CC7C09" stroke-width="2" stroke-linecap="round" stroke-linejoin="round" points="110.757 139.242 139.242 139.242 139.242 110.757 110.757 110.757"></polygon>
        <polygon id="Fill-13" fill="#B8BFCA" points="25.659 82.273 54.144 82.273 54.144 53.788 25.659 53.788"></polygon>
        <polygon id="Stroke-14" stroke="#627386" stroke-width="2" stroke-linecap="round" stroke-linejoin="round" points="25.659 82.273 54.144 82.273 54.144 53.788 25.659 53.788"></polygon>
        <polygon id="Fill-15" fill="#D5DAE0" points="25.659 110.758 54.144 110.758 54.144 82.273 25.659 82.273"></polygon>
        <polygon id="Stroke-16" stroke="#627386" stroke-width="2" stroke-linecap="round" stroke-linejoin="round" points="25.659 110.758 54.144 110.758 54.144 82.273 25.659 82.273"></polygon>
        <polygon id="Fill-17" fill="#F2F4F6" points="25.659 139.242 54.144 139.242 54.144 110.757 25.659 110.757"></polygon>
        <polygon id="Stroke-18" stroke="#627386" stroke-width="2" stroke-linecap="round" stroke-linejoin="round" points="25.659 139.242 54.144 139.242 54.144 110.757 25.659 110.757"></polygon>
        <polygon id="Fill-19" fill="#FFF8E7" points="110.757 167.727 139.242 167.727 139.242 139.242 110.757 139.242"></polygon>
        <polygon id="Stroke-20" stroke="#CC7C09" stroke-width="2" stroke-linecap="round" stroke-linejoin="round" points="110.757 167.727 139.242 167.727 139.242 139.242 110.757 139.242"></polygon>
        <polygon id="Fill-21" fill="#E9F6FE" points="195.856 167.727 224.341 167.727 224.341 139.242 195.856 139.242"></polygon>
        <polygon id="Stroke-22" stroke="#1B6DC6" stroke-width="2" stroke-linecap="round" stroke-linejoin="round" points="195.856 167.727 224.341 167.727 224.341 139.242 195.856 139.242"></polygon>
        <polygon id="Fill-23" fill="#9BE8B4" points="153.307 82.273 181.792 82.273 181.792 53.788 153.307 53.788"></polygon>
        <polygon id="Stroke-24" stroke="#2BA664" stroke-width="2" stroke-linecap="round" stroke-linejoin="round" points="153.307 82.273 181.792 82.273 181.792 53.788 153.307 53.788"></polygon>
        <polygon id="Fill-25" fill="#C3F1D2" points="153.307 110.758 181.792 110.758 181.792 82.273 153.307 82.273"></polygon>
        <polygon id="Stroke-26" stroke="#2BA664" stroke-width="2" stroke-linecap="round" stroke-linejoin="round" points="153.307 110.758 181.792 110.758 181.792 82.273 153.307 82.273"></polygon>
        <polygon id="Fill-27" fill="#D7F6E1" points="153.307 139.242 181.792 139.242 181.792 110.757 153.307 110.757"></polygon>
        <polygon id="Stroke-28" stroke="#2BA664" stroke-width="2" stroke-linecap="round" stroke-linejoin="round" points="153.307 139.242 181.792 139.242 181.792 110.757 153.307 110.757"></polygon>
        <polygon id="Fill-29" fill="#EBFAF0" points="153.307 167.727 181.792 167.727 181.792 139.242 153.307 139.242"></polygon>
        <polygon id="Stroke-30" stroke="#2BA664" stroke-width="2" stroke-linecap="round" stroke-linejoin="round" points="153.307 167.727 181.792 167.727 181.792 139.242 153.307 139.242"></polygon>
        <polygon id="Fill-31" fill="#FFFFFF" points="153.307 196.212 181.792 196.212 181.792 167.727 153.307 167.727"></polygon>
        <polygon id="Stroke-32" stroke="#2BA664" stroke-width="2" stroke-linecap="round" stroke-linejoin="round" points="153.307 196.212 181.792 196.212 181.792 167.727 153.307 167.727"></polygon>
        <polygon id="Fill-33" fill="#FFFFFF" points="195.856 196.212 224.341 196.212 224.341 167.727 195.856 167.727"></polygon>
        <polygon id="Stroke-34" stroke="#1B6DC6" stroke-width="2" stroke-linecap="round" stroke-linejoin="round" points="195.856 196.212 224.341 196.212 224.341 167.727 195.856 167.727"></polygon>
        <polygon id="Fill-35" fill="#FFFFFF" points="110.757 196.212 139.242 196.212 139.242 167.727 110.757 167.727"></polygon>
        <polygon id="Stroke-36" stroke="#CC7C09" stroke-width="2" stroke-linecap="round" stroke-linejoin="round" points="110.757 196.212 139.242 196.212 139.242 167.727 110.757 167.727"></polygon>
        <polygon id="Fill-37" fill="#FFFFFF" points="25.659 167.727 54.144 167.727 54.144 139.242 25.659 139.242"></polygon>
        <polygon id="Stroke-38" stroke="#627386" stroke-width="2" stroke-linecap="round" stroke-linejoin="round" points="25.659 167.727 54.144 167.727 54.144 139.242 25.659 139.242"></polygon>
        <polygon id="Fill-39" fill="#FAABAB" points="68.208 82.273 96.693 82.273 96.693 53.788 68.208 53.788"></polygon>
        <polygon id="Stroke-40" stroke="#C44556" stroke-width="2" stroke-linecap="round" stroke-linejoin="round" points="68.208 82.273 96.693 82.273 96.693 53.788 68.208 53.788"></polygon>
        <polygon id="Fill-41" fill="#FCCCCC" points="68.208 110.758 96.693 110.758 96.693 82.273 68.208 82.273"></polygon>
        <polygon id="Stroke-42" stroke="#C44556" stroke-width="2" stroke-linecap="round" stroke-linejoin="round" points="68.208 110.758 96.693 110.758 96.693 82.273 68.208 82.273"></polygon>
        <polygon id="Fill-43" fill="#FDDDDD" points="68.208 139.242 96.693 139.242 96.693 110.757 68.208 110.757"></polygon>
        <polygon id="Stroke-44" stroke="#C44556" stroke-width="2" stroke-linecap="round" stroke-linejoin="round" points="68.208 139.242 96.693 139.242 96.693 110.757 68.208 110.757"></polygon>
        <polygon id="Fill-45" fill="#FEEEEE" points="68.208 167.727 96.693 167.727 96.693 139.242 68.208 139.242"></polygon>
        <polygon id="Stroke-46" stroke="#C44556" stroke-width="2" stroke-linecap="round" stroke-linejoin="round" points="68.208 167.727 96.693 167.727 96.693 139.242 68.208 139.242"></polygon>
        <polygon id="Fill-47" fill="#FFFFFF" points="68.208 196.212 96.693 196.212 96.693 167.727 68.208 167.727"></polygon>
        <polygon id="Stroke-48" stroke="#C44556" stroke-width="2" stroke-linecap="round" stroke-linejoin="round" points="68.208 196.212 96.693 196.212 96.693 167.727 68.208 167.727"></polygon>
    </g>
</svg>