<?xml version="1.0" encoding="UTF-8"?>
<svg width="250px" height="250px" viewBox="0 0 250 250" version="1.1" xmlns="http://www.w3.org/2000/svg" xmlns:xlink="http://www.w3.org/1999/xlink">
    <!-- Generator: Sketch 54.1 (76490) - https://sketchapp.com -->
    <title>Color 1 (2)</title>
    <desc>Created with Sketch.</desc>
    <defs>
        <polygon id="path-1" points="0 250 250 250 250 0 0 0"></polygon>
    </defs>
    <g id="Color-1-(2)" stroke="none" stroke-width="1" fill="none" fill-rule="evenodd">
        <path d="M181.5465,136.7755 L172.9045,131.7865 C172.7585,131.4645 172.6285,131.2355 172.5225,131.1395 C171.7005,130.3935 156.5425,130.0525 156.5425,130.0525 L156.5425,148.4655 L156.5515,148.4655 C156.5515,149.1485 157.3245,149.8155 158.6415,150.0185 C160.5905,150.3195 162.4325,143.0195 163.9625,143.9025 C165.7865,144.9555 166.8885,154.1565 167.2825,155.5215 L142.9665,147.6305 L142.9665,153.9075 L181.5465,153.9075 L181.5465,136.7755 Z" id="Fill-1" fill="#F2F4F6"></path>
        <path d="M153.5612,62.7482 L127.5742,47.7452 C126.1522,46.9232 123.8462,46.9232 122.4232,47.7452 L96.4372,62.7482 L78.2122,70.6392 L78.2122,89.0532 L92.6572,97.3922 C93.2232,97.7192 93.9322,97.8632 94.6262,97.8522 C95.7832,97.8342 96.8982,97.3862 97.2432,96.6412 C97.7642,95.5162 98.7882,94.4522 100.3182,93.5692 C100.6372,93.3852 100.9692,93.2142 101.3132,93.0562 C101.3932,93.0192 101.4782,92.9892 101.5592,92.9542 C101.8292,92.8362 102.1022,92.7192 102.3852,92.6162 C102.4642,92.5872 102.5492,92.5642 102.6292,92.5362 C102.9232,92.4352 103.2192,92.3362 103.5242,92.2502 C103.5882,92.2322 103.6542,92.2192 103.7192,92.2012 C104.0472,92.1142 104.3792,92.0312 104.7192,91.9612 C104.7612,91.9522 104.8052,91.9462 104.8472,91.9382 C105.2132,91.8652 105.5832,91.8002 105.9582,91.7492 C105.9752,91.7472 105.9932,91.7452 106.0112,91.7432 C106.4112,91.6892 106.8152,91.6462 107.2222,91.6162 L107.2242,91.6162 C108.0662,91.5542 108.9162,91.5452 109.7602,91.5862 L109.7602,96.0822 L109.7602,106.6032 C109.7592,107.0062 110.0172,107.4152 110.5692,107.7342 L124.9992,116.0652 L124.9992,116.0652 L124.9992,116.0652 L139.4272,107.7342 C139.9792,107.4162 140.6872,107.2672 141.3842,107.2672 C142.5452,107.2672 143.6742,107.6802 143.9982,108.4082 C144.6292,109.8292 146.0582,111.1552 148.2922,112.1512 C150.4322,113.1052 153.0352,113.5742 155.6312,113.5612 C158.2282,113.5482 160.8172,113.0542 162.9302,112.0802 C165.9462,110.6912 167.4382,108.6862 167.4382,106.6822 L167.4542,106.6822 L167.4542,98.7902 L167.4542,96.1602 L167.4542,91.5532 L171.7852,89.0522 L171.7852,81.1612 L171.7852,70.6392 L153.5612,62.7482 Z" id="Fill-3" fill="#E9F6FE"></path>
        <path d="M153.5612,62.7482 L127.5742,47.7452 C126.1522,46.9232 123.8462,46.9232 122.4232,47.7452 L96.4372,62.7482 L78.2122,70.6392 L78.2122,89.0532 L92.6572,97.3922 C93.2232,97.7192 93.9322,97.8632 94.6262,97.8522 C95.7832,97.8342 96.8982,97.3862 97.2432,96.6412 C97.7642,95.5162 98.7882,94.4522 100.3182,93.5692 C100.6372,93.3852 100.9692,93.2142 101.3132,93.0562 C101.3932,93.0192 101.4782,92.9892 101.5592,92.9542 C101.8292,92.8362 102.1022,92.7192 102.3852,92.6162 C102.4642,92.5872 102.5492,92.5642 102.6292,92.5362 C102.9232,92.4352 103.2192,92.3362 103.5242,92.2502 C103.5882,92.2322 103.6542,92.2192 103.7192,92.2012 C104.0472,92.1142 104.3792,92.0312 104.7192,91.9612 C104.7612,91.9522 104.8052,91.9462 104.8472,91.9382 C105.2132,91.8652 105.5832,91.8002 105.9582,91.7492 C105.9752,91.7472 105.9932,91.7452 106.0112,91.7432 C106.4112,91.6892 106.8152,91.6462 107.2222,91.6162 L107.2242,91.6162 C108.0662,91.5542 108.9162,91.5452 109.7602,91.5862 L109.7602,96.0822 L109.7602,106.6032 C109.7592,107.0062 110.0172,107.4152 110.5692,107.7342 L124.9992,116.0652 L124.9992,116.0652 L124.9992,116.0652 L139.4272,107.7342 C139.9792,107.4162 140.6872,107.2672 141.3842,107.2672 C142.5452,107.2672 143.6742,107.6802 143.9982,108.4082 C144.6292,109.8292 146.0582,111.1552 148.2922,112.1512 C150.4322,113.1052 153.0352,113.5742 155.6312,113.5612 C158.2282,113.5482 160.8172,113.0542 162.9302,112.0802 C165.9462,110.6912 167.4382,108.6862 167.4382,106.6822 L167.4542,106.6822 L167.4542,98.7902 L167.4542,96.1602 L167.4542,91.5532 L171.7852,89.0522 L171.7852,81.1612 L171.7852,70.6392 L153.5612,62.7482 Z" id="Stroke-5" stroke="#91D2FB" stroke-width="2" stroke-linecap="round" stroke-linejoin="round"></path>
        <path d="M140.9936,107.2953 L140.9936,71.0753 L124.9986,71.0753 L124.9986,116.0653 L139.4266,107.7343 C139.8756,107.4753 140.4286,107.3413 140.9936,107.2953" id="Fill-7" fill="#BDE4FD"></path>
        <path d="M94.9607,70.6396 L94.9607,97.8226 C95.9907,97.7316 96.9327,97.3136 97.2427,96.6406 C97.7637,95.5156 98.7877,94.4526 100.3177,93.5696 C104.0147,91.4346 109.5357,90.9986 113.9837,92.2556 L122.4227,88.1466 L122.4227,55.6356 L96.4367,70.6396 L94.9607,70.6396 Z" id="Fill-9" fill="#BDE4FD"></path>
        <polygon id="Fill-11" fill="#BDE4FD" points="163.3524 93.9213 171.7854 89.0523 171.7854 70.6393 163.3524 70.6393"></polygon>
        <mask id="mask-2" fill="white">
            <use xlink:href="#path-1"></use>
        </mask>
        <g id="Clip-14"></g>
        <polygon id="Fill-13" fill="#BDE4FD" mask="url(#mask-2)" points="153.053 83.902 165.52 83.902 165.52 71.075 153.053 71.075"></polygon>
        <path d="M153.5612,62.7482 L127.5742,47.7452 C126.1522,46.9232 123.8462,46.9232 122.4232,47.7452 L96.4372,62.7482 L78.2122,70.6392 L78.2122,89.0532 L92.6572,97.3922 C93.2232,97.7192 93.9322,97.8632 94.6262,97.8522 C95.7832,97.8342 96.8982,97.3862 97.2432,96.6412 C97.7642,95.5162 98.7882,94.4522 100.3182,93.5692 C100.6372,93.3852 100.9692,93.2142 101.3132,93.0562 C101.3932,93.0192 101.4782,92.9892 101.5592,92.9542 C101.8292,92.8362 102.1022,92.7192 102.3852,92.6162 C102.4642,92.5872 102.5492,92.5642 102.6292,92.5362 C102.9232,92.4352 103.2192,92.3362 103.5242,92.2502 C103.5882,92.2322 103.6542,92.2192 103.7192,92.2012 C104.0472,92.1142 104.3792,92.0312 104.7192,91.9612 C104.7612,91.9522 104.8052,91.9462 104.8472,91.9382 C105.2132,91.8652 105.5832,91.8002 105.9582,91.7492 C105.9752,91.7472 105.9932,91.7452 106.0112,91.7432 C106.4112,91.6892 106.8152,91.6462 107.2222,91.6162 L107.2242,91.6162 C108.0662,91.5542 108.9162,91.5452 109.7602,91.5862 L109.7602,96.0822 L109.7602,106.6032 C109.7592,107.0062 110.0172,107.4152 110.5692,107.7342 L124.9992,116.0652 L124.9992,116.0652 L124.9992,116.0652 L139.4272,107.7342 C139.9792,107.4162 140.6872,107.2672 141.3842,107.2672 C142.5452,107.2672 143.6742,107.6802 143.9982,108.4082 C144.6292,109.8292 146.0582,111.1552 148.2922,112.1512 C150.4322,113.1052 153.0352,113.5742 155.6312,113.5612 C158.2282,113.5482 160.8172,113.0542 162.9302,112.0802 C165.9462,110.6912 167.4382,108.6862 167.4382,106.6822 L167.4542,106.6822 L167.4542,98.7902 L167.4542,96.1602 L167.4542,91.5532 L171.7852,89.0522 L171.7852,81.1612 L171.7852,70.6392 L153.5612,62.7482 Z" id="Stroke-15" stroke="#91D2FB" stroke-width="2" stroke-linecap="round" stroke-linejoin="round" mask="url(#mask-2)"></path>
        <path d="M118.2183,84.2044 C116.4933,85.4934 114.1963,86.3184 111.7363,86.6824 C109.7193,86.9814 109.0973,88.4714 110.5693,89.3214 L124.9983,97.6514 L139.4273,89.3214 C140.8993,88.4714 143.4813,88.8304 143.9983,89.9954 C144.6293,91.4164 146.0583,92.7424 148.2923,93.7384 C152.5713,95.6454 158.7043,95.6134 162.9303,93.6674 C168.5953,91.0574 168.9393,86.2754 163.9623,83.4024 C162.4323,82.5194 160.5903,81.9274 158.6413,81.6274 C156.5763,81.3084 155.8293,79.8514 157.3413,78.9794 L171.7853,70.6394 L127.5743,45.1144 C126.1523,44.2934 123.8463,44.2934 122.4233,45.1144 L78.2123,70.6394 L92.6563,78.9794 C94.1683,79.8514 96.6903,79.4204 97.2433,78.2284 C97.7643,77.1024 98.7883,76.0394 100.3183,75.1564 C105.2953,72.2824 113.5803,72.4814 118.1003,75.7534 C121.4703,78.1934 121.5223,81.7344 118.2183,84.2044" id="Fill-16" fill="#FFFFFF" mask="url(#mask-2)"></path>
        <path d="M118.2183,84.2044 C116.4933,85.4934 114.1963,86.3184 111.7363,86.6824 C109.7193,86.9814 109.0973,88.4714 110.5693,89.3214 L124.9983,97.6514 L139.4273,89.3214 C140.8993,88.4714 143.4813,88.8304 143.9983,89.9954 C144.6293,91.4164 146.0583,92.7424 148.2923,93.7384 C152.5713,95.6454 158.7043,95.6134 162.9303,93.6674 C168.5953,91.0574 168.9393,86.2754 163.9623,83.4024 C162.4323,82.5194 160.5903,81.9274 158.6413,81.6274 C156.5763,81.3084 155.8293,79.8514 157.3413,78.9794 L171.7853,70.6394 L127.5743,45.1144 C126.1523,44.2934 123.8463,44.2934 122.4233,45.1144 L78.2123,70.6394 L92.6563,78.9794 C94.1683,79.8514 96.6903,79.4204 97.2433,78.2284 C97.7643,77.1024 98.7883,76.0394 100.3183,75.1564 C105.2953,72.2824 113.5803,72.4814 118.1003,75.7534 C121.4703,78.1934 121.5223,81.7344 118.2183,84.2044 Z" id="Stroke-17" stroke="#91D2FB" stroke-width="2" stroke-linecap="round" stroke-linejoin="round" mask="url(#mask-2)"></path>
        <path d="M200.3475,147.6303 L172.9045,131.7863 C172.7585,131.4643 172.6285,131.2353 172.5235,131.1403 C171.7015,130.3943 156.5425,130.0523 156.5425,130.0523 L156.5425,148.4653 L156.5515,148.4653 C156.5515,148.5923 156.6045,148.7163 156.6565,148.8393 L171.7855,148.8393 L171.7855,193.0553 L215.9955,167.5303 C216.7075,167.1193 217.0635,166.5813 217.0635,166.0433 L217.0635,147.6303 L200.3475,147.6303 Z" id="Fill-18" fill="#D5DAE0" mask="url(#mask-2)"></path>
        <path d="M200.3475,147.6303 L172.9045,131.7863 C172.7585,131.4643 172.6285,131.2353 172.5235,131.1403 C171.7015,130.3943 156.5425,130.0523 156.5425,130.0523 L156.5425,148.4653 L156.5515,148.4653 C156.5515,148.5923 156.6045,148.7163 156.6565,148.8393 L171.7855,148.8393 L171.7855,193.0553 L215.9955,167.5303 C216.7075,167.1193 217.0635,166.5813 217.0635,166.0433 L217.0635,147.6303 L200.3475,147.6303 Z" id="Stroke-19" stroke="#B8BFCA" stroke-width="2" stroke-linecap="round" stroke-linejoin="round" mask="url(#mask-2)"></path>
        <path d="M116.4451,155.5233 L110.5731,157.7153 C109.1001,156.8643 109.7221,155.3743 111.7401,155.0753 C114.2011,154.7113 116.4981,153.8863 118.2231,152.5963 C119.8521,151.3773 120.6611,149.8983 120.6611,148.4193 L120.6651,148.4193 L120.6651,130.0063 L101.2111,131.1413 L99.3361,136.3073 C98.3451,137.0443 97.6451,137.8673 97.2451,138.7303 C96.6931,139.9223 94.1701,140.3533 92.6591,139.4813 L78.2151,131.1413 L44.0581,150.8623 L32.9371,147.6323 L32.9371,166.0453 C32.9371,166.5833 33.2921,167.1213 34.0031,167.5323 L78.2151,193.0573 L92.6591,184.7183 C93.2071,184.4013 93.4501,184.0083 93.4491,183.6203 L93.4571,183.6223 L93.4571,173.1013 L85.6261,170.8263 C86.0661,170.5453 86.5381,170.2743 87.0731,170.0283 C91.2991,168.0823 97.4311,168.0523 101.7101,169.9593 C103.9431,170.9553 105.3711,172.2813 106.0021,173.7023 C106.5191,174.8673 109.1001,175.2263 110.5711,174.3763 L125.0011,166.0453 L125.0011,155.5233 L116.4451,155.5233 Z" id="Fill-20" fill="#D5DAE0" mask="url(#mask-2)"></path>
        <path d="M116.4451,155.5233 L110.5731,157.7153 C109.1001,156.8643 109.7221,155.3743 111.7401,155.0753 C114.2011,154.7113 116.4981,153.8863 118.2231,152.5963 C119.8521,151.3773 120.6611,149.8983 120.6611,148.4193 L120.6651,148.4193 L120.6651,130.0063 L101.2111,131.1413 L99.3361,136.3073 C98.3451,137.0443 97.6451,137.8673 97.2451,138.7303 C96.6931,139.9223 94.1701,140.3533 92.6591,139.4813 L78.2151,131.1413 L44.0581,150.8623 L32.9371,147.6323 L32.9371,166.0453 C32.9371,166.5833 33.2921,167.1213 34.0031,167.5323 L78.2151,193.0573 L92.6591,184.7183 C93.2071,184.4013 93.4501,184.0083 93.4491,183.6203 L93.4571,183.6223 L93.4571,173.1013 L85.6261,170.8263 C86.0661,170.5453 86.5381,170.2743 87.0731,170.0283 C91.2991,168.0823 97.4311,168.0523 101.7101,169.9593 C103.9431,170.9553 105.3711,172.2813 106.0021,173.7023 C106.5191,174.8673 109.1001,175.2263 110.5711,174.3763 L125.0011,166.0453 L125.0011,155.5233 L116.4451,155.5233 Z" id="Stroke-21" stroke="#B8BFCA" stroke-width="2" stroke-linecap="round" stroke-linejoin="round" mask="url(#mask-2)"></path>
        <path d="M89.0422,161.4197 L89.0422,137.3927 L78.2152,131.1417 L44.0572,150.8617 L32.9362,147.6317 L32.9362,166.0447 C32.9362,166.5827 33.2922,167.1217 34.0032,167.5317 L78.2152,193.0567 L89.0422,186.8057 L89.0422,163.9277 L85.6252,162.9347 C86.0662,162.6537 86.5372,162.3827 87.0722,162.1367 C87.6902,161.8527 88.3552,161.6217 89.0422,161.4197" id="Fill-22" fill="#F2F4F6" mask="url(#mask-2)"></path>
        <path d="M116.4451,155.5233 L110.5731,157.7153 C109.1001,156.8643 109.7221,155.3743 111.7401,155.0753 C114.2011,154.7113 116.4981,153.8863 118.2231,152.5963 C119.8521,151.3773 120.6611,149.8983 120.6611,148.4193 L120.6651,148.4193 L120.6651,130.0063 L101.2111,131.1413 L99.3361,136.3073 C98.3451,137.0443 97.6451,137.8673 97.2451,138.7303 C96.6931,139.9223 94.1701,140.3533 92.6591,139.4813 L78.2151,131.1413 L44.0581,150.8623 L32.9371,147.6323 L32.9371,166.0453 C32.9371,166.5833 33.2921,167.1213 34.0031,167.5323 L78.2151,193.0573 L92.6591,184.7183 C93.2071,184.4013 93.4501,184.0083 93.4491,183.6203 L93.4571,183.6223 L93.4571,165.2093 L85.6261,162.9353 C86.0661,162.6533 86.5381,162.3833 87.0731,162.1373 C91.2991,160.1913 97.4311,160.1603 101.7101,162.0683 C103.9431,163.0643 105.3711,172.2813 106.0021,173.7023 C106.5191,174.8673 109.1001,175.2263 110.5711,174.3763 L125.0011,166.0453 L125.0011,147.6323 L116.4451,155.5233 Z" id="Stroke-23" stroke="#B8BFCA" stroke-width="2" stroke-linecap="round" stroke-linejoin="round" mask="url(#mask-2)"></path>
        <path d="M129.5033,174.644 C129.8143,173.557 130.5703,172.507 131.7823,171.601 C133.5063,170.312 135.8033,169.487 138.2643,169.123 C139.5253,168.936 140.2403,168.284 140.2403,167.614 L140.2403,157.092 L82.5463,157.015 L82.5463,167.537 L82.5613,167.537 C82.5613,169.298 83.7103,171.059 86.0383,172.403 C87.5673,173.286 89.4093,173.878 91.3583,174.179 C91.9063,174.263 92.3543,174.431 92.6993,174.644 L78.2143,174.644 L78.2143,193.057 L122.4253,218.582 C123.8483,219.404 126.1543,219.404 127.5763,218.582 L171.7873,193.057 L171.7873,174.644 L129.5033,174.644 Z" id="Fill-24" fill="#D5DAE0" mask="url(#mask-2)"></path>
        <path d="M129.5033,174.644 C129.8143,173.557 130.5703,172.507 131.7823,171.601 C133.5063,170.312 135.8033,169.487 138.2643,169.123 C139.5253,168.936 140.2403,168.284 140.2403,167.614 L140.2403,157.092 L82.5463,157.015 L82.5463,167.537 L82.5613,167.537 C82.5613,169.298 83.7103,171.059 86.0383,172.403 C87.5673,173.286 89.4093,173.878 91.3583,174.179 C91.9063,174.263 92.3543,174.431 92.6993,174.644 L78.2143,174.644 L78.2143,193.057 L122.4253,218.582 C123.8483,219.404 126.1543,219.404 127.5763,218.582 L171.7873,193.057 L171.7873,174.644 L129.5033,174.644 Z" id="Stroke-25" stroke="#B8BFCA" stroke-width="2" stroke-linecap="round" stroke-linejoin="round" mask="url(#mask-2)"></path>
        <path d="M124.999,157.0719 L82.546,157.0149 L82.546,167.5369 L82.562,167.5369 C82.562,169.2979 83.71,171.0589 86.038,172.4029 C87.568,173.2869 89.41,173.8779 91.358,174.1789 C91.906,174.2629 92.354,174.4309 92.699,174.6439 L78.215,174.6439 L78.215,193.0569 L122.426,218.5829 C123.137,218.9929 124.068,219.1979 124.999,219.1979 L124.999,157.0719 Z" id="Fill-26" fill="#F2F4F6" mask="url(#mask-2)"></path>
        <path d="M129.5033,174.644 C129.8143,173.557 130.5703,172.507 131.7823,171.601 C133.5063,170.312 135.8033,169.487 138.2643,169.123 C139.5253,168.936 140.2403,168.284 140.2403,167.614 L140.2403,157.092 L82.5463,157.015 L82.5463,167.537 L82.5613,167.537 C82.5613,169.298 83.7103,171.059 86.0383,172.403 C87.5673,173.286 89.4093,173.878 91.3583,174.179 C91.9063,174.263 92.3543,174.431 92.6993,174.644 L78.2143,174.644 L78.2143,193.057 L122.4253,218.582 C123.8483,219.404 126.1543,219.404 127.5763,218.582 L171.7873,193.057 L171.7873,174.644 L129.5033,174.644 Z" id="Stroke-27" stroke="#B8BFCA" stroke-width="2" stroke-linecap="round" stroke-linejoin="round" mask="url(#mask-2)"></path>
        <path d="M101.7095,151.5466 C103.9425,152.5426 105.3715,153.8686 106.0015,155.2896 C106.5185,156.4536 109.0995,156.8126 110.5715,155.9626 L125.0015,147.6316 L110.5725,139.3016 C109.1005,138.4516 109.7225,136.9616 111.7395,136.6626 C114.2005,136.2986 116.4985,135.4736 118.2225,134.1836 C121.5255,131.7126 121.4715,128.1716 118.0995,125.7326 C113.5795,122.4616 105.2975,122.2626 100.3205,125.1366 C98.7905,126.0196 97.7665,127.0826 97.2455,128.2086 C96.6925,129.4006 94.1705,129.8316 92.6585,128.9596 L78.2145,120.6196 L34.0035,146.1446 C32.5815,146.9666 32.5815,148.2976 34.0035,149.1186 L78.2145,174.6436 L92.6595,166.3046 C94.1705,165.4316 93.4235,163.9756 91.3585,163.6566 C89.4095,163.3556 87.5675,162.7646 86.0375,161.8816 C81.0595,159.0076 81.4045,154.2246 87.0725,151.6146 C91.2985,149.6696 97.4315,149.6386 101.7095,151.5466" id="Fill-28" fill="#FFFFFF" mask="url(#mask-2)"></path>
        <path d="M101.7095,151.5466 C103.9425,152.5426 105.3715,153.8686 106.0015,155.2896 C106.5185,156.4536 109.0995,156.8126 110.5715,155.9626 L125.0015,147.6316 L110.5725,139.3016 C109.1005,138.4516 109.7225,136.9616 111.7395,136.6626 C114.2005,136.2986 116.4985,135.4736 118.2225,134.1836 C121.5255,131.7126 121.4715,128.1716 118.0995,125.7326 C113.5795,122.4616 105.2975,122.2626 100.3205,125.1366 C98.7905,126.0196 97.7665,127.0826 97.2455,128.2086 C96.6925,129.4006 94.1705,129.8316 92.6585,128.9596 L78.2145,120.6196 L34.0035,146.1446 C32.5815,146.9666 32.5815,148.2976 34.0035,149.1186 L78.2145,174.6436 L92.6595,166.3046 C94.1705,165.4316 93.4235,163.9756 91.3585,163.6566 C89.4095,163.3556 87.5675,162.7646 86.0375,161.8816 C81.0595,159.0076 81.4045,154.2246 87.0725,151.6146 C91.2985,149.6696 97.4315,149.6386 101.7095,151.5466 Z" id="Stroke-29" stroke="#B8BFCA" stroke-width="2" stroke-linecap="round" stroke-linejoin="round" mask="url(#mask-2)"></path>
        <path d="M131.7816,161.0793 C133.5066,159.7903 135.8036,158.9653 138.2636,158.6013 C140.2806,158.3023 140.9026,156.8123 139.4306,155.9623 L125.0016,147.6323 L110.5726,155.9623 C109.1006,156.8123 106.5186,156.4533 106.0016,155.2883 C105.3706,153.8673 103.9416,152.5413 101.7076,151.5453 C97.4286,149.6383 91.2956,149.6703 87.0696,151.6163 C81.4046,154.2263 81.0606,159.0083 86.0376,161.8813 C87.5676,162.7643 89.4096,163.3563 91.3586,163.6563 C93.4236,163.9753 94.1706,165.4323 92.6586,166.3043 L78.2146,174.6443 L122.4256,200.1693 C123.8476,200.9903 126.1536,200.9903 127.5766,200.1693 L171.7876,174.6443 L157.3436,166.3043 C155.8316,165.4323 153.3096,165.8633 152.7566,167.0553 C152.2356,168.1813 151.2116,169.2443 149.6816,170.1273 C144.7046,173.0013 136.4196,172.8023 131.8996,169.5303 C128.5296,167.0903 128.4776,163.5493 131.7816,161.0793" id="Fill-30" fill="#FFFFFF" mask="url(#mask-2)"></path>
        <path d="M131.7816,161.0793 C133.5066,159.7903 135.8036,158.9653 138.2636,158.6013 C140.2806,158.3023 140.9026,156.8123 139.4306,155.9623 L125.0016,147.6323 L110.5726,155.9623 C109.1006,156.8123 106.5186,156.4533 106.0016,155.2883 C105.3706,153.8673 103.9416,152.5413 101.7076,151.5453 C97.4286,149.6383 91.2956,149.6703 87.0696,151.6163 C81.4046,154.2263 81.0606,159.0083 86.0376,161.8813 C87.5676,162.7643 89.4096,163.3563 91.3586,163.6563 C93.4236,163.9753 94.1706,165.4323 92.6586,166.3043 L78.2146,174.6443 L122.4256,200.1693 C123.8476,200.9903 126.1536,200.9903 127.5766,200.1693 L171.7876,174.6443 L157.3436,166.3043 C155.8316,165.4323 153.3096,165.8633 152.7566,167.0553 C152.2356,168.1813 151.2116,169.2443 149.6816,170.1273 C144.7046,173.0013 136.4196,172.8023 131.8996,169.5303 C128.5296,167.0903 128.4776,163.5493 131.7816,161.0793 Z" id="Stroke-31" stroke="#B8BFCA" stroke-width="2" stroke-linecap="round" stroke-linejoin="round" mask="url(#mask-2)"></path>
        <path d="M148.2904,143.7156 C146.0574,142.7196 144.6284,141.3936 143.9984,139.9726 C143.4814,138.8086 140.9004,138.4496 139.4284,139.2996 L124.9984,147.6306 L139.4274,155.9606 C140.8994,156.8106 140.2774,158.3006 138.2604,158.5996 C135.7994,158.9636 133.5014,159.7896 131.7774,161.0786 C128.4744,163.5496 128.5284,167.0906 131.9004,169.5296 C136.4204,172.8006 144.7024,172.9996 149.6794,170.1256 C151.2094,169.2426 152.2334,168.1796 152.7544,167.0536 C153.3074,165.8616 155.8294,165.4306 157.3414,166.3026 L171.7854,174.6426 L215.9964,149.1176 C217.4184,148.2956 217.4184,146.9646 215.9964,146.1436 L171.7854,120.6186 L157.3404,128.9576 C155.8294,129.8306 156.5764,131.2866 158.6414,131.6056 C160.5904,131.9066 162.4324,132.4976 163.9624,133.3806 C168.9404,136.2546 168.5954,141.0376 162.9274,143.6476 C158.7014,145.5926 152.5684,145.6236 148.2904,143.7156" id="Fill-32" fill="#FFFFFF" mask="url(#mask-2)"></path>
        <path d="M148.2904,143.7156 C146.0574,142.7196 144.6284,141.3936 143.9984,139.9726 C143.4814,138.8086 140.9004,138.4496 139.4284,139.2996 L124.9984,147.6306 L139.4274,155.9606 C140.8994,156.8106 140.2774,158.3006 138.2604,158.5996 C135.7994,158.9636 133.5014,159.7896 131.7774,161.0786 C128.4744,163.5496 128.5284,167.0906 131.9004,169.5296 C136.4204,172.8006 144.7024,172.9996 149.6794,170.1256 C151.2094,169.2426 152.2334,168.1796 152.7544,167.0536 C153.3074,165.8616 155.8294,165.4306 157.3414,166.3026 L171.7854,174.6426 L215.9964,149.1176 C217.4184,148.2956 217.4184,146.9646 215.9964,146.1436 L171.7854,120.6186 L157.3404,128.9576 C155.8294,129.8306 156.5764,131.2866 158.6414,131.6056 C160.5904,131.9066 162.4324,132.4976 163.9624,133.3806 C168.9404,136.2546 168.5954,141.0376 162.9274,143.6476 C158.7014,145.5926 152.5684,145.6236 148.2904,143.7156 Z" id="Stroke-33" stroke="#B8BFCA" stroke-width="2" stroke-linecap="round" stroke-linejoin="round" mask="url(#mask-2)"></path>
        <path d="M217.0635,147.6303 C217.0635,147.0923 216.7075,146.5543 215.9965,146.1433 L171.7845,120.6183 L157.3415,128.9573 C156.7935,129.2733 156.5515,129.6653 156.5515,130.0523 L156.5425,130.0523 L156.5425,145.0793 C153.6495,145.2203 150.6815,144.7823 148.2905,143.7153 C146.0575,142.7193 144.6285,141.3933 143.9985,139.9733 C143.4815,138.8083 140.9005,138.4493 139.4285,139.2993 L124.9985,147.6303 L139.4275,155.9603 C140.8995,156.8103 140.2775,158.3013 138.2605,158.5993 C135.7995,158.9643 133.5015,159.7893 131.7775,161.0793 C128.4745,163.5493 128.5285,167.0903 131.9005,169.5303 C136.4205,172.8003 144.7035,172.9993 149.6805,170.1253 C151.2095,169.2423 152.2335,168.1793 152.7545,167.0543 C153.3065,165.8613 155.8295,165.4303 157.3415,166.3033 L171.7855,174.6423 L171.7855,193.0553 L215.9955,167.5303 C216.7075,167.1193 217.0635,166.5813 217.0635,166.0433 L217.0635,147.6303 Z" id="Stroke-34" stroke="#627386" stroke-width="2" stroke-linecap="round" stroke-linejoin="round" mask="url(#mask-2)"></path>
        <path d="M171.787,174.6441 L157.343,166.3041 C155.831,165.4321 153.309,165.8631 152.757,167.0561 C152.236,168.1811 151.211,169.2441 149.681,170.1271 C144.704,173.0011 136.419,172.8021 131.899,169.5301 C128.53,167.0901 128.477,163.5491 131.781,161.0791 C133.506,159.7901 135.803,158.9651 138.263,158.6011 C140.281,158.3031 140.903,156.8131 139.431,155.9631 L125.001,147.6321 L110.572,155.9621 C109.1,156.8121 106.519,156.4531 106.002,155.2891 C105.37,153.8681 103.941,152.5411 101.707,151.5451 C97.428,149.6381 91.295,149.6701 87.069,151.6161 C81.405,154.2261 81.061,159.0081 86.038,161.8811 C87.568,162.7651 89.409,163.3561 91.358,163.6571 C93.423,163.9761 94.17,165.4321 92.659,166.3051 L78.214,174.6441 L78.214,174.6441 L78.214,193.0571 L122.426,218.5821 C123.848,219.4041 126.153,219.4041 127.577,218.5821 L171.787,193.0571 L171.787,174.6441 Z" id="Stroke-35" stroke="#627386" stroke-width="2" stroke-linecap="round" stroke-linejoin="round" mask="url(#mask-2)"></path>
        <path d="M120.6652,145.1289 L120.6652,130.0059 L120.6562,130.0059 C120.6572,128.4869 119.8082,126.9679 118.0992,125.7319 C113.5792,122.4619 105.2972,122.2629 100.3202,125.1369 C98.7902,126.0199 97.7662,127.0829 97.2452,128.2079 C96.6922,129.4009 94.1702,129.8319 92.6592,128.9589 L78.2142,120.6199 L34.0032,146.1449 C33.2922,146.5559 32.9362,147.0939 32.9362,147.6319 L32.9362,147.6319 L32.9362,166.0449 C32.9362,166.5829 33.2922,167.1209 34.0032,167.5319 L78.2142,193.0569 L78.2142,174.6439 L78.2142,174.6439 L92.6592,166.3049 C94.1702,165.4319 93.4232,163.9759 91.3572,163.6569 C89.4092,163.3559 87.5672,162.7649 86.0372,161.8819 C81.0602,159.0079 81.4042,154.2249 87.0722,151.6149 C91.2992,149.6699 97.4312,149.6389 101.7092,151.5469 C103.9432,152.5429 105.3712,153.8689 106.0022,155.2899 C106.5192,156.4539 109.0992,156.8129 110.5712,155.9629 L125.0012,147.6319 L120.6652,145.1289 Z" id="Stroke-36" stroke="#627386" stroke-width="2" stroke-linecap="round" stroke-linejoin="round" mask="url(#mask-2)"></path>
        <path d="M171.7845,70.6392 L127.5745,45.1142 C126.1515,44.2932 123.8455,44.2932 122.4235,45.1142 L78.2115,70.6392 L78.2115,70.6402 L78.2115,89.0532 L92.6575,97.3922 C93.2235,97.7192 93.9315,97.8632 94.6265,97.8522 C94.7405,97.8502 94.8475,97.8262 94.9605,97.8162 L94.9605,97.8222 C94.9945,97.8192 95.0255,97.8092 95.0595,97.8052 C95.2665,97.7822 95.4645,97.7522 95.6575,97.7022 C95.7225,97.6862 95.7805,97.6632 95.8435,97.6442 C96.0115,97.5922 96.1755,97.5392 96.3235,97.4672 C96.4255,97.4182 96.5075,97.3562 96.5975,97.2982 C96.6915,97.2372 96.7945,97.1842 96.8735,97.1142 C97.0275,96.9782 97.1505,96.8252 97.2325,96.6552 C97.2355,96.6492 97.2405,96.6462 97.2435,96.6412 C97.7645,95.5162 98.7875,94.4522 100.3185,93.5692 C100.3195,93.5682 100.3205,93.5682 100.3225,93.5672 C100.7315,93.3312 101.1705,93.1232 101.6205,92.9292 C101.7495,92.8722 101.8825,92.8212 102.0145,92.7672 C102.3805,92.6222 102.7585,92.4902 103.1445,92.3712 C103.2565,92.3362 103.3655,92.2972 103.4785,92.2652 C103.9465,92.1322 104.4285,92.0212 104.9165,91.9262 C105.0935,91.8912 105.2735,91.8652 105.4525,91.8352 C105.7945,91.7782 106.1395,91.7312 106.4875,91.6932 C106.6865,91.6712 106.8845,91.6472 107.0845,91.6302 C107.2075,91.6212 107.3305,91.6212 107.4535,91.6132 C108.1295,91.5712 108.8095,91.5652 109.4875,91.5892 C109.5775,91.5922 109.6685,91.5962 109.7605,91.6002 L109.7605,96.0822 L109.7605,106.6032 C109.7595,107.0062 110.0165,107.4152 110.5695,107.7342 L124.9985,116.0652 L139.4265,107.7342 C139.6715,107.5932 139.9545,107.4982 140.2465,107.4212 C140.4055,107.3822 140.5705,107.3612 140.7365,107.3392 C140.9515,107.3082 141.1665,107.2672 141.3845,107.2672 C142.5455,107.2672 143.6745,107.6802 143.9985,108.4082 C144.6285,109.8292 146.0575,111.1562 148.2925,112.1512 C150.4315,113.1052 153.0355,113.5742 155.6315,113.5612 C158.2285,113.5482 160.8165,113.0542 162.9305,112.0802 C164.5095,111.3532 165.6595,110.4542 166.4085,109.4772 C166.4225,109.4602 166.4315,109.4422 166.4455,109.4242 C166.5975,109.2222 166.7365,109.0182 166.8525,108.8102 C166.8795,108.7622 166.8975,108.7132 166.9225,108.6652 C167.0165,108.4842 167.1075,108.3022 167.1735,108.1182 C167.2095,108.0222 167.2285,107.9252 167.2565,107.8282 C167.2965,107.6882 167.3455,107.5482 167.3705,107.4072 C167.4085,107.2032 167.4225,106.9972 167.4285,106.7912 C167.4285,106.7542 167.4385,106.7182 167.4385,106.6822 L167.4525,106.6822 L167.4535,106.6822 L167.4535,98.7902 L167.4535,96.1602 L167.4535,91.5532 L171.7855,89.0522 L171.7855,81.1612 L171.7855,70.6392 L171.7845,70.6392 Z" id="Stroke-37" stroke="#1B6DC6" stroke-width="2" stroke-linecap="round" stroke-linejoin="round" mask="url(#mask-2)"></path>
        <path d="M171.7853,70.6396 L171.7853,70.6396" id="Stroke-38" stroke="#1B6DC6" stroke-width="2" stroke-linecap="round" stroke-linejoin="round" mask="url(#mask-2)"></path>
        <path d="M171.7853,64.9485 L171.7853,33.6475" id="Stroke-39" stroke="#1B6DC6" stroke-width="2" stroke-linecap="round" stroke-linejoin="round" stroke-dasharray="0,5.691" mask="url(#mask-2)"></path>
        <path d="M171.7853,30.8016 L171.7853,30.8016" id="Stroke-40" stroke="#1B6DC6" stroke-width="2" stroke-linecap="round" stroke-linejoin="round" mask="url(#mask-2)"></path>
        <path d="M78.2124,70.6397 L78.2124,70.6397" id="Stroke-41" stroke="#1B6DC6" stroke-width="2" stroke-linecap="round" stroke-linejoin="round" mask="url(#mask-2)"></path>
        <path d="M78.2124,64.9485 L78.2124,33.6475" id="Stroke-42" stroke="#1B6DC6" stroke-width="2" stroke-linecap="round" stroke-linejoin="round" stroke-dasharray="0,5.691" mask="url(#mask-2)"></path>
        <path d="M78.2124,30.8017 L78.2124,30.8017" id="Stroke-43" stroke="#1B6DC6" stroke-width="2" stroke-linecap="round" stroke-linejoin="round" mask="url(#mask-2)"></path>
    </g>
</svg>