<?xml version="1.0" encoding="UTF-8"?>
<svg width="500px" height="98px" viewBox="0 0 500 98" version="1.1" xmlns="http://www.w3.org/2000/svg" xmlns:xlink="http://www.w3.org/1999/xlink">
    <!-- Generator: Sketch 54.1 (76490) - https://sketchapp.com -->
    <title>Artboard</title>
    <desc>Created with Sketch.</desc>
    <g id="Artboard" stroke="none" stroke-width="1" fill="none" fill-rule="evenodd">
        <text id="a" font-family="NutanixSoft-Regular, Nutanix Soft" font-size="13" font-weight="normal" fill="#9AA5B5">
            <tspan x="-221" y="0">a</tspan>
        </text>
        <rect id="Rectangle" stroke="#DBDFE1" fill="#FFFFFF" x="0.5" y="9.5" width="79" height="79" rx="9"></rect>
        <rect id="Rectangle-Copy" fill="#F2F4F6" x="100" y="9" width="80" height="80" rx="9"></rect>
        <rect id="Rectangle-Copy-2" fill="#22272E" x="200" y="9" width="80" height="80" rx="9"></rect>
        <path d="M52.08,48.4 C52.08,49.2 51.36,50.16 50.28,50.16 C49.6,50.16 48.96,49.76 48.68,49.08 L46.68,44 L33.4,44 L31.4,49.08 C31.12,49.76 30.48,50.16 29.8,50.16 C28.76,50.16 28,49.32 28,48.4 C28,48.2 28.04,47.96 28.12,47.76 L37.32,24.8 C37.76,23.72 38.8,23 40.04,23 C41.2,23 42.24,23.72 42.68,24.8 L51.96,47.76 C52.04,47.96 52.08,48.2 52.08,48.4 Z M34.36,41.04 L45.68,41.04 L40.04,26.68 L34.36,41.04 Z" id="A" fill="#4D5969" fill-rule="nonzero"></path>
        <path d="M152.08,48.4 C152.08,49.2 151.36,50.16 150.28,50.16 C149.6,50.16 148.96,49.76 148.68,49.08 L146.68,44 L133.4,44 L131.4,49.08 C131.12,49.76 130.48,50.16 129.8,50.16 C128.76,50.16 128,49.32 128,48.4 C128,48.2 128.04,47.96 128.12,47.76 L137.32,24.8 C137.76,23.72 138.8,23 140.04,23 C141.2,23 142.24,23.72 142.68,24.8 L151.96,47.76 C152.04,47.96 152.08,48.2 152.08,48.4 Z M134.36,41.04 L145.68,41.04 L140.04,26.68 L134.36,41.04 Z" id="A" fill="#1B2025" fill-rule="nonzero"></path>
        <path d="M252.08,48.4 C252.08,49.2 251.36,50.16 250.28,50.16 C249.6,50.16 248.96,49.76 248.68,49.08 L246.68,44 L233.4,44 L231.4,49.08 C231.12,49.76 230.48,50.16 229.8,50.16 C228.76,50.16 228,49.32 228,48.4 C228,48.2 228.04,47.96 228.12,47.76 L237.32,24.8 C237.76,23.72 238.8,23 240.04,23 C241.2,23 242.24,23.72 242.68,24.8 L251.96,47.76 C252.04,47.96 252.08,48.2 252.08,48.4 Z M234.36,41.04 L245.68,41.04 L240.04,26.68 L234.36,41.04 Z" id="A" fill="#9AA5B5" fill-rule="nonzero"></path>
        <g id="Rectangle-Copy-3" transform="translate(221.000000, 59.000000)">
            <rect fill="#22A5F7" x="0" y="0" width="40" height="16" rx="8"></rect>
            <path d="M15.06,9.556 C15.06,10.996 13.956,12.268 12.192,12.268 C9.9,12.268 9,10.336 9,8.14 C9,5.896 10.104,4 12.384,4 C13.236,4 13.968,4.24 14.436,4.768 C14.508,4.852 14.544,4.96 14.544,5.068 C14.544,5.368 14.292,5.596 14.016,5.596 C13.908,5.596 13.788,5.56 13.704,5.5 C13.368,5.224 12.972,5.056 12.384,5.056 C10.944,5.056 10.2,6.472 10.2,7.96 C10.2,8.056 10.2,8.02 10.212,8.116 C10.56,7.564 11.304,7.048 12.42,7.048 C13.86,7.048 15.06,7.852 15.06,9.556 Z M13.86,9.664 C13.86,8.812 13.284,8.068 12.144,8.068 C11.112,8.068 10.524,8.896 10.524,9.652 C10.524,10.444 11.124,11.212 12.252,11.212 C13.284,11.212 13.86,10.372 13.86,9.664 Z M17.76,11.5 C17.76,11.908 17.424,12.244 17.016,12.244 C16.62,12.244 16.284,11.908 16.284,11.5 C16.284,11.104 16.62,10.756 17.016,10.756 C17.424,10.756 17.76,11.104 17.76,11.5 Z M25.26,8.128 C25.26,10.108 24.336,12.268 22.128,12.268 C19.908,12.268 18.996,10.108 18.996,8.128 C18.996,6.148 19.908,4 22.128,4 C24.336,4 25.26,6.148 25.26,8.128 Z M24.048,8.128 C24.048,6.568 23.544,5.056 22.128,5.056 C20.7,5.056 20.208,6.568 20.208,8.128 C20.208,9.688 20.7,11.212 22.128,11.212 C23.544,11.212 24.048,9.688 24.048,8.128 Z M32.148,11.584 C32.148,11.896 31.92,12.124 31.632,12.124 L26.892,12.124 C26.604,12.124 26.34,11.884 26.34,11.548 C26.34,11.368 26.424,11.2 26.568,11.08 C29.424,8.908 30.828,7.636 30.828,6.412 C30.828,5.476 30.036,5.056 29.256,5.056 C28.5,5.056 27.876,5.308 27.396,5.728 C27.3,5.824 27.18,5.86 27.06,5.86 C26.784,5.86 26.52,5.632 26.52,5.332 C26.52,5.224 26.556,5.104 26.64,5.008 C27.228,4.36 28.26,4 29.244,4 C30.672,4 32.028,4.816 32.028,6.412 C32.028,7.972 30.516,9.376 28.332,11.068 L31.632,11.068 C31.92,11.068 32.148,11.308 32.148,11.584 Z" id="6.02" fill="#FFFFFF" fill-rule="nonzero"></path>
        </g>
        <g id="Rectangle-Copy-4" transform="translate(121.000000, 59.000000)">
            <rect id="Rectangle-Copy-3" fill="#22A5F7" x="0" y="0" width="40" height="16" rx="8"></rect>
            <path d="M10.048,4.72 L10.048,11.608 C10.048,11.932 9.784,12.196 9.448,12.196 C9.124,12.196 8.86,11.932 8.86,11.608 L8.86,5.68 L7.84,6.736 C7.744,6.832 7.636,6.88 7.504,6.88 C7.252,6.88 7,6.664 7,6.376 C7,6.244 7.048,6.124 7.144,6.016 L8.884,4.252 C9.004,4.12 9.172,4.06 9.364,4.06 C9.724,4.06 10.048,4.348 10.048,4.72 Z M17.464,9.676 C17.464,9.964 17.236,10.192 16.96,10.192 L16.3,10.192 L16.3,11.608 C16.3,11.932 16.036,12.196 15.688,12.196 C15.364,12.196 15.112,11.932 15.112,11.608 L15.112,10.192 L11.824,10.192 C11.512,10.192 11.224,9.928 11.224,9.544 C11.224,9.424 11.272,9.28 11.344,9.16 L14.404,4.516 C14.596,4.228 14.932,4.048 15.28,4.048 C15.808,4.012 16.3,4.396 16.3,4.924 L16.3,9.148 L16.96,9.148 C17.236,9.148 17.464,9.388 17.464,9.676 Z M15.112,5.2 L12.472,9.148 L15.112,9.148 L15.112,5.2 Z M19.912,11.5 C19.912,11.908 19.576,12.244 19.168,12.244 C18.772,12.244 18.436,11.908 18.436,11.5 C18.436,11.104 18.772,10.756 19.168,10.756 C19.576,10.756 19.912,11.104 19.912,11.5 Z M27.088,9.964 C27.088,11.356 25.732,12.268 24.124,12.268 C22.516,12.268 21.16,11.368 21.16,9.964 C21.16,8.92 21.796,8.188 22.54,7.996 C21.748,7.72 21.292,7.12 21.292,6.208 C21.292,4.744 22.516,4 24.124,4 C25.732,4 26.968,4.744 26.968,6.208 C26.968,7.12 26.5,7.72 25.708,7.996 C26.452,8.188 27.088,8.92 27.088,9.964 Z M25.756,6.256 C25.756,5.488 25.036,5.044 24.124,5.044 C23.2,5.044 22.492,5.488 22.492,6.256 C22.492,7.12 23.284,7.516 24.124,7.516 C24.976,7.516 25.756,7.12 25.756,6.256 Z M25.888,9.952 C25.888,9.004 24.976,8.524 24.124,8.524 C23.272,8.524 22.36,9.004 22.36,9.952 C22.36,10.732 23.176,11.224 24.124,11.224 C25.06,11.224 25.888,10.732 25.888,9.952 Z M34.144,9.964 C34.144,11.356 32.788,12.268 31.18,12.268 C29.572,12.268 28.216,11.368 28.216,9.964 C28.216,8.92 28.852,8.188 29.596,7.996 C28.804,7.72 28.348,7.12 28.348,6.208 C28.348,4.744 29.572,4 31.18,4 C32.788,4 34.024,4.744 34.024,6.208 C34.024,7.12 33.556,7.72 32.764,7.996 C33.508,8.188 34.144,8.92 34.144,9.964 Z M32.812,6.256 C32.812,5.488 32.092,5.044 31.18,5.044 C30.256,5.044 29.548,5.488 29.548,6.256 C29.548,7.12 30.34,7.516 31.18,7.516 C32.032,7.516 32.812,7.12 32.812,6.256 Z M32.944,9.952 C32.944,9.004 32.032,8.524 31.18,8.524 C30.328,8.524 29.416,9.004 29.416,9.952 C29.416,10.732 30.232,11.224 31.18,11.224 C32.116,11.224 32.944,10.732 32.944,9.952 Z" id="14.88" fill="#FFFFFF" fill-rule="nonzero"></path>
        </g>
        <g id="Rectangle-Copy-5" transform="translate(20.000000, 59.000000)">
            <rect id="Rectangle-Copy-3" fill="#22A5F7" x="0" y="0" width="40" height="16" rx="8"></rect>
            <path d="M15.06,9.556 C15.06,10.996 13.956,12.268 12.192,12.268 C9.9,12.268 9,10.336 9,8.14 C9,5.896 10.104,4 12.384,4 C13.236,4 13.968,4.24 14.436,4.768 C14.508,4.852 14.544,4.96 14.544,5.068 C14.544,5.368 14.292,5.596 14.016,5.596 C13.908,5.596 13.788,5.56 13.704,5.5 C13.368,5.224 12.972,5.056 12.384,5.056 C10.944,5.056 10.2,6.472 10.2,7.96 C10.2,8.056 10.2,8.02 10.212,8.116 C10.56,7.564 11.304,7.048 12.42,7.048 C13.86,7.048 15.06,7.852 15.06,9.556 Z M13.86,9.664 C13.86,8.812 13.284,8.068 12.144,8.068 C11.112,8.068 10.524,8.896 10.524,9.652 C10.524,10.444 11.124,11.212 12.252,11.212 C13.284,11.212 13.86,10.372 13.86,9.664 Z M17.76,11.5 C17.76,11.908 17.424,12.244 17.016,12.244 C16.62,12.244 16.284,11.908 16.284,11.5 C16.284,11.104 16.62,10.756 17.016,10.756 C17.424,10.756 17.76,11.104 17.76,11.5 Z M24.972,9.676 C24.972,9.964 24.744,10.192 24.468,10.192 L23.808,10.192 L23.808,11.608 C23.808,11.932 23.544,12.196 23.196,12.196 C22.872,12.196 22.62,11.932 22.62,11.608 L22.62,10.192 L19.332,10.192 C19.02,10.192 18.732,9.928 18.732,9.544 C18.732,9.424 18.78,9.28 18.852,9.16 L21.912,4.516 C22.104,4.228 22.44,4.048 22.788,4.048 C23.316,4.012 23.808,4.396 23.808,4.924 L23.808,9.148 L24.468,9.148 C24.744,9.148 24.972,9.388 24.972,9.676 Z M22.62,5.2 L19.98,9.148 L22.62,9.148 L22.62,5.2 Z M31.824,9.592 C31.824,11.248 30.588,12.268 28.884,12.268 C27.756,12.268 26.796,11.908 26.244,11.272 C26.172,11.176 26.136,11.068 26.136,10.948 C26.136,10.684 26.364,10.396 26.664,10.396 C26.784,10.396 26.916,10.444 27.012,10.528 C27.516,10.972 28.128,11.212 28.884,11.212 C29.94,11.212 30.636,10.528 30.636,9.64 C30.636,8.68 29.94,8.056 28.908,8.056 C28.332,8.056 27.792,8.224 27.336,8.584 C27.192,8.68 27.024,8.752 26.856,8.752 C26.52,8.752 26.244,8.5 26.244,8.164 L26.244,4.9 C26.244,4.468 26.604,4.12 27.036,4.12 L30.864,4.12 C31.152,4.12 31.38,4.348 31.38,4.66 C31.38,4.936 31.152,5.176 30.864,5.176 L27.432,5.176 L27.432,7.732 C27.816,7.348 28.488,7.024 29.28,7.024 C30.612,7.024 31.824,7.96 31.824,9.592 Z" id="6.45" fill="#FFFFFF" fill-rule="nonzero"></path>
        </g>
    </g>
</svg>