<?xml version="1.0" encoding="UTF-8"?>
<svg width="75px" height="66px" viewBox="0 0 75 66" version="1.1" xmlns="http://www.w3.org/2000/svg" xmlns:xlink="http://www.w3.org/1999/xlink">
    <!-- Generator: Sketch 54.1 (76490) - https://sketchapp.com -->
    <title>Group</title>
    <desc>Created with Sketch.</desc>
    <g id="Page-1" stroke="none" stroke-width="1" fill="none" fill-rule="evenodd">
        <g id="Artboard" transform="translate(-20.000000, -20.000000)">
            <g id="Group" transform="translate(20.000000, 20.000000)">
                <rect id="Rectangle" fill="#F2F4F6" x="0" y="0" width="75" height="66" rx="4"></rect>
                <rect id="Rectangle" fill="#D5DAE0" opacity="0.400000006" x="0" y="23" width="75" height="20"></rect>
                <path d="M37.342,43.174 C36.936,43.174 36.617,43 36.472,42.652 L34.732,38.36 L24.379,38.36 L22.639,42.652 C22.465,43 22.204,43.174 21.798,43.174 C21.392,43.174 21.189,43 21.073,42.855 C20.928,42.623 20.899,42.333 20.986,42.014 L28.323,24.324 C28.526,23.831 29.019,23.483 29.541,23.483 C30.092,23.483 30.585,23.802 30.788,24.324 L38.125,42.014 C38.241,42.333 38.183,42.623 38.038,42.855 C37.893,43.058 37.632,43.174 37.342,43.174 Z M25.017,36.707 L34.094,36.707 L29.541,25.716 L25.017,36.707 Z M46.767,28.645 C49.377,28.645 51.987,30.211 51.987,32.792 L51.987,42.362 C51.987,42.71 51.668,43.174 51.117,43.174 C50.566,43.174 50.247,42.739 50.247,42.333 L50.247,41.057 C49.638,42.304 47.637,43.348 45.781,43.348 C43.316,43.348 40.735,41.84 40.735,38.795 C40.735,35.895 42.997,34.59 45.839,34.561 L50.247,34.561 L50.247,32.879 C50.247,31.284 48.739,30.269 46.593,30.269 C45.114,30.269 44.041,30.675 42.881,31.603 C42.591,31.835 42.04,31.893 41.692,31.545 C41.315,31.168 41.547,30.588 41.837,30.356 C43.229,29.196 44.795,28.645 46.767,28.645 Z M45.781,41.724 C47.898,41.724 50.247,40.245 50.247,37.2 L50.247,36.069 L46.419,36.069 C43.809,36.069 42.533,37.026 42.533,38.737 C42.533,40.651 44.041,41.724 45.781,41.724 Z" id="Aa" fill="#22272E" fill-rule="nonzero"></path>
            </g>
        </g>
    </g>
</svg>