<?xml version="1.0" encoding="UTF-8"?>
<svg width="17px" height="20px" viewBox="0 0 17 20" version="1.1" xmlns="http://www.w3.org/2000/svg" xmlns:xlink="http://www.w3.org/1999/xlink">
    <!-- Generator: Sketch 54.1 (76490) - https://sketchapp.com -->
    <title>Epoch</title>
    <desc>Created with Sketch.</desc>
    <defs>
        <polygon id="path-1" points="0 0 17 0 17 19.9998 0 19.9998"></polygon>
    </defs>
    <g id="Page-1" stroke="none" stroke-width="1" fill="none" fill-rule="evenodd">
        <g id="Epoch">
            <path d="M15.249,11.1299 C14.998,7.5479 12.034,4.7419 8.5,4.7419 C4.966,4.7419 2.002,7.5479 1.751,11.1299 L1.745,11.2219 L1.785,11.3039 C2.203,12.1539 2.804,13.0909 3.571,14.0869 L4.121,13.7139 C3.671,12.9039 3.444,12.1999 3.444,11.6219 C3.444,8.7879 5.712,6.4819 8.5,6.4819 C11.288,6.4819 13.557,8.7879 13.557,11.6219 C13.557,12.1999 13.329,12.9039 12.879,13.7139 L13.429,14.0869 C14.196,13.0909 14.797,12.1539 15.215,11.3039 L15.255,11.2219 L15.249,11.1299 Z" id="Fill-1" fill="#4D5969" fill-rule="nonzero"></path>
            <g id="Group-5">
                <g id="Fill-3-Clipped">
                    <mask id="mask-2" fill="white">
                        <use xlink:href="#path-1"></use>
                    </mask>
                    <g id="path-1"></g>
                    <path d="M8.5,18.2598 C8.42,18.2598 8.343,18.2298 8.283,18.1748 C7.449,17.4088 5.835,15.8558 4.396,14.0578 C2.64,11.8648 1.712,9.9908 1.712,8.6408 C1.712,4.8358 4.757,1.7398 8.5,1.7398 C12.243,1.7398 15.288,4.8358 15.288,8.6408 C15.288,9.9908 14.36,11.8648 12.604,14.0578 C11.165,15.8558 9.551,17.4088 8.717,18.1748 C8.657,18.2298 8.58,18.2598 8.5,18.2598 M8.5,-0.0002 C3.813,-0.0002 0,3.8758 0,8.6408 C0,10.4208 1.032,12.6138 3.068,15.1558 C4.58,17.0438 6.265,18.6668 7.136,19.4658 C7.511,19.8098 7.996,19.9998 8.5,19.9998 C9.005,19.9998 9.489,19.8098 9.864,19.4658 C10.734,18.6668 12.42,17.0448 13.932,15.1558 C15.968,12.6138 17,10.4208 17,8.6408 C17,3.8758 13.187,-0.0002 8.5,-0.0002" id="Fill-3" fill="#9AA5B5" fill-rule="nonzero" mask="url(#mask-2)"></path>
                </g>
            </g>
        </g>
    </g>
</svg>