<?xml version="1.0" encoding="UTF-8"?>
<svg width="20px" height="20px" viewBox="0 0 20 20" version="1.1" xmlns="http://www.w3.org/2000/svg" xmlns:xlink="http://www.w3.org/1999/xlink">
    <!-- Generator: Sketch 54.1 (76490) - https://sketchapp.com -->
    <title>Era</title>
    <desc>Created with Sketch.</desc>
    <defs>
        <polygon id="path-1" points="0.0003 0.132 20 0.132 20 13 0.0003 13"></polygon>
    </defs>
    <g id="Page-1" stroke="none" stroke-width="1" fill="none" fill-rule="evenodd">
        <g id="Era">
            <g id="Group-3" transform="translate(0.000000, 7.000000)">
                <g id="Fill-1-Clipped">
                    <mask id="mask-2" fill="white">
                        <use xlink:href="#path-1"></use>
                    </mask>
                    <g id="path-1"></g>
                    <path d="M18.3813,3.001 C17.9973,3.378 17.5493,3.731 17.0403,4.052 C17.0173,4.066 16.9943,4.08 16.9723,4.094 C17.8113,4.839 18.2543,5.69 18.2543,6.566 C18.2543,7.771 17.4213,8.919 15.9083,9.799 C14.3353,10.713 12.2373,11.217 10.0003,11.217 C7.7623,11.217 5.6643,10.713 4.0913,9.799 C2.5793,8.919 1.7463,7.771 1.7463,6.566 C1.7463,5.684 2.1933,4.832 3.0263,4.093 C3.3313,3.824 3.6873,3.569 4.0913,3.334 C4.2953,3.215 4.5073,3.104 4.7283,3 C6.2103,2.297 8.0523,1.915 10.0003,1.915 C11.9443,1.915 13.7893,2.298 15.2723,3.001 C15.4923,2.896 15.7043,2.785 15.9083,2.667 C16.3133,2.431 16.6693,2.176 16.9733,1.907 C15.1223,0.761 12.6583,0.132 10.0003,0.132 C7.3503,0.132 4.8783,0.762 3.0273,1.906 C3.0053,1.92 2.9823,1.934 2.9603,1.948 C2.4503,2.269 2.0023,2.622 1.6183,2.999 C0.5653,4.036 0.0003,5.265 0.0003,6.566 C0.0003,8.342 1.0513,9.982 2.9603,11.185 C4.8173,12.355 7.3183,13 10.0003,13 C12.6823,13 15.1823,12.355 17.0403,11.185 C18.9483,9.982 20.0003,8.342 20.0003,6.566 C20.0003,5.272 19.4423,4.045 18.3813,3.001" id="Fill-1" fill="#4D5969" fill-rule="nonzero" mask="url(#mask-2)"></path>
                </g>
            </g>
            <path d="M17.04,1.8154 C15.183,0.6444 12.682,0.0004 10,0.0004 C7.318,0.0004 4.817,0.6444 2.96,1.8154 C1.051,3.0184 0,4.6584 0,6.4344 C0,7.7284 0.558,8.9544 1.619,9.9994 C2.002,9.6214 2.45,9.2684 2.96,8.9474 C2.982,8.9334 3.005,8.9194 3.028,8.9054 C2.188,8.1604 1.746,7.3104 1.746,6.4344 C1.746,5.2294 2.579,4.0804 4.092,3.2014 C5.665,2.2864 7.763,1.7834 10,1.7834 C12.237,1.7834 14.335,2.2864 15.908,3.2014 C17.421,4.0804 18.254,5.2294 18.254,6.4344 C18.254,7.3164 17.807,8.1684 16.974,8.9064 C16.669,9.1764 16.313,9.4314 15.908,9.6664 C15.705,9.7854 15.492,9.8964 15.272,10.0004 C13.79,10.7024 11.948,11.0854 10,11.0854 C8.055,11.0854 6.211,10.7024 4.728,9.9994 C4.508,10.1044 4.295,10.2144 4.092,10.3334 C3.687,10.5684 3.331,10.8234 3.026,11.0934 C4.878,12.2394 7.342,12.8684 10,12.8684 C12.65,12.8684 15.122,12.2384 16.972,11.0944 C16.995,11.0804 17.018,11.0664 17.04,11.0524 C17.55,10.7314 17.998,10.3784 18.381,10.0014 C19.435,8.9634 20,7.7354 20,6.4344 C20,4.6584 18.949,3.0184 17.04,1.8154" id="Fill-4" fill="#9AA5B5" fill-rule="nonzero"></path>
        </g>
    </g>
</svg>