<?xml version="1.0" encoding="UTF-8"?>
<svg width="23px" height="20px" viewBox="0 0 23 20" version="1.1" xmlns="http://www.w3.org/2000/svg" xmlns:xlink="http://www.w3.org/1999/xlink">
    <!-- Generator: Sketch 54.1 (76490) - https://sketchapp.com -->
    <title>Files</title>
    <desc>Created with Sketch.</desc>
    <defs>
        <polygon id="path-1" points="0.2301 0.5371 13 0.5371 13 17 0.2301 17"></polygon>
        <polygon id="path-3" points="0.0005 0.0002 17.0345 0.0002 17.0345 20 0.0005 20"></polygon>
    </defs>
    <g id="Page-1" stroke="none" stroke-width="1" fill="none" fill-rule="evenodd">
        <g id="Files">
            <g id="Group-3" transform="translate(10.000000, 3.000000)">
                <g id="Fill-1-Clipped">
                    <mask id="mask-2" fill="white">
                        <use xlink:href="#path-1"></use>
                    </mask>
                    <g id="path-1"></g>
                    <path d="M10.5181,0.5371 L0.2301,0.5371 L0.9781,2.5871 L10.5181,2.5871 C10.7771,2.5871 10.9881,2.8021 10.9881,3.0661 L10.9881,14.4711 C10.9881,14.7351 10.7771,14.9501 10.5181,14.9501 L5.4831,14.9501 L6.2061,17.0001 L10.5181,17.0001 C11.8871,17.0001 13.0001,15.8661 13.0001,14.4711 L13.0001,3.0661 C13.0001,1.6711 11.8871,0.5371 10.5181,0.5371" id="Fill-1" fill="#4D5969" fill-rule="nonzero" mask="url(#mask-2)"></path>
                </g>
            </g>
            <g id="Group-6">
                <g id="Fill-4-Clipped">
                    <mask id="mask-4" fill="white">
                        <use xlink:href="#path-3"></use>
                    </mask>
                    <g id="path-3"></g>
                    <path d="M14.1885,17.9502 L2.4815,17.9502 C2.2225,17.9502 2.0115,17.7352 2.0115,17.4712 L2.0115,2.5322 C2.0115,2.2692 2.2215,2.0542 2.4795,2.0532 C2.9825,2.0512 3.5815,2.0502 4.2575,2.0502 C5.5185,2.0502 6.8415,2.0542 7.7295,2.0562 C8.0575,2.0582 8.3665,2.2332 8.5425,2.5152 L14.1885,17.9502 Z M15.5445,15.7902 L10.3695,1.6542 L10.3605,1.6282 L10.3475,1.6042 C9.8295,0.6232 8.8285,0.0112 7.7365,0.0072 C6.8455,0.0042 5.5185,0.0002 4.2575,0.0002 C3.6295,0.0002 3.0165,0.0012 2.4705,0.0032 C1.1085,0.0092 0.0005,1.1432 0.0005,2.5322 L0.0005,17.4712 C0.0005,18.8662 1.1135,20.0002 2.4815,20.0002 L17.0345,20.0002 L15.5445,15.7902 Z" id="Fill-4" fill="#9AA5B5" fill-rule="nonzero" mask="url(#mask-4)"></path>
                </g>
            </g>
        </g>
    </g>
</svg>