<?xml version="1.0" encoding="UTF-8"?>
<svg width="24px" height="20px" viewBox="0 0 24 20" version="1.1" xmlns="http://www.w3.org/2000/svg" xmlns:xlink="http://www.w3.org/1999/xlink">
    <!-- Generator: Sketch 54.1 (76490) - https://sketchapp.com -->
    <title>Flow</title>
    <desc>Created with Sketch.</desc>
    <defs>
        <polygon id="path-1" points="0.6445 0.00916927686 13 0.00916927686 13 20 0.6445 20"></polygon>
        <polygon id="path-3" points="2.49452715e-05 8.94373145e-05 17.4114 8.94373145e-05 17.4114 20 2.49452715e-05 20"></polygon>
    </defs>
    <g id="Page-1" stroke="none" stroke-width="1" fill="none" fill-rule="evenodd">
        <g id="Flow" transform="translate(-0.000000, 0.000000)">
            <path d="M11.999,13.4302 C12.092,13.4302 12.181,13.3942 12.247,13.3302 C12.313,13.2672 12.35,13.1802 12.35,13.0902 L12.35,12.0152 C12.35,11.8502 12.228,11.7132 12.066,11.6822 L8.464,8.2012 L12.103,4.6832 C12.162,4.6262 12.232,4.5632 12.233,4.5622 C12.303,4.4992 12.344,4.4112 12.345,4.3182 C12.347,4.2252 12.309,4.1372 12.241,4.0722 L11.494,3.3602 C11.481,3.3432 11.467,3.3262 11.452,3.3112 C11.314,3.1792 11.093,3.1792 10.956,3.3112 L7.077,7.0602 C6.724,7.4012 6.548,7.8742 6.596,8.3582 C6.632,8.7272 6.811,9.0842 7.1,9.3632 L10.82,12.9582 C11.134,13.2622 11.553,13.4302 11.999,13.4302 Z" id="Fill-1" fill="#9AA5B5" fill-rule="nonzero"></path>
            <g id="Group-5" transform="translate(11.000000, 0.000000)">
                <g id="Fill-3-Clipped">
                    <mask id="mask-2" fill="white">
                        <use xlink:href="#path-1"></use>
                    </mask>
                    <g id="path-1"></g>
                    <path d="M12.3545,6.8984 L5.8535,0.6294 C5.4025,0.1944 4.8025,-0.0246 4.1645,0.0134 C3.6305,0.0444 3.1165,0.2744 2.7165,0.6604 L0.7525,2.5594 C0.6865,2.6224 0.6495,2.7094 0.6495,2.7994 C0.6495,2.8894 0.6865,2.9764 0.7525,3.0404 L1.5415,3.7974 C1.6785,3.9294 1.8995,3.9294 2.0365,3.7984 L4.0305,1.8724 C4.1025,1.8014 4.1985,1.7634 4.3015,1.7634 C4.4035,1.7634 4.4995,1.8014 4.5715,1.8714 L11.0725,8.1404 C11.1455,8.2104 11.1855,8.3034 11.1855,8.4014 C11.1855,8.5014 11.1455,8.5934 11.0725,8.6644 L1.2705,18.1374 C1.1995,18.2064 1.1055,18.2444 1.0055,18.2454 L0.9955,18.2454 C0.8015,18.2454 0.6445,18.3974 0.6445,18.5854 L0.6445,19.6604 C0.6445,19.8414 0.7915,19.9904 0.9775,19.9994 C0.9845,19.9994 0.9935,20.0004 1.0005,20.0004 C1.5865,20.0004 2.1395,19.7784 2.5545,19.3774 L12.3555,9.9044 C12.7715,9.5024 13.0005,8.9684 13.0005,8.4004 C12.9995,7.8334 12.7705,7.2994 12.3545,6.8984" id="Fill-3" fill="#9AA5B5" fill-rule="nonzero" mask="url(#mask-2)"></path>
                </g>
            </g>
            <g id="Group-8">
                <g id="Fill-6-Clipped">
                    <mask id="mask-4" fill="white">
                        <use xlink:href="#path-3"></use>
                    </mask>
                    <g id="path-3"></g>
                    <path d="M16.9224,7.0601 L16.9224,7.0601 L10.2694,0.6501 C9.8684,0.2641 9.3544,0.0341 8.8194,0.0041 C8.1814,-0.0329 7.5814,0.1871 7.1304,0.6231 L0.6424,6.9001 C-0.2146,7.7281 -0.2136,9.0761 0.6424,9.9041 L10.4454,19.3781 C10.8594,19.7781 11.4094,19.9981 11.9944,20.0001 L11.9954,20.0001 C12.0884,20.0001 12.1774,19.9641 12.2434,19.9011 C12.3094,19.8371 12.3464,19.7501 12.3464,19.6601 L12.3464,18.5851 C12.3464,18.3981 12.1914,18.2471 11.9974,18.2461 C11.8964,18.2451 11.8004,18.2061 11.7294,18.1371 L1.9264,8.6631 C1.7764,8.5191 1.7764,8.2841 1.9254,8.1401 L8.4154,1.8631 C8.4874,1.7931 8.5834,1.7541 8.6864,1.7541 C8.7884,1.7541 8.8844,1.7931 8.9564,1.8631 L10.9074,3.7461 C10.9204,3.7641 10.9354,3.7811 10.9514,3.7971 L15.5354,8.2011 L11.9334,11.6821 C11.8644,11.6951 11.8004,11.7271 11.7514,11.7751 C11.6844,11.8391 11.6474,11.9251 11.6474,12.0161 L11.6474,13.0901 C11.6474,13.2741 11.7974,13.4231 11.9854,13.4301 C11.9904,13.4301 11.9954,13.4301 11.9994,13.4301 C12.4454,13.4301 12.8644,13.2621 13.1794,12.9581 L16.9224,9.3411 C17.2374,9.0361 17.4114,8.6311 17.4114,8.2001 C17.4114,7.7691 17.2374,7.3651 16.9224,7.0601" id="Fill-6" fill="#4D5969" fill-rule="nonzero" mask="url(#mask-4)"></path>
                </g>
            </g>
        </g>
    </g>
</svg>