<?xml version="1.0" encoding="UTF-8"?>
<svg width="18px" height="20px" viewBox="0 0 18 20" version="1.1" xmlns="http://www.w3.org/2000/svg" xmlns:xlink="http://www.w3.org/1999/xlink">
    <!-- Generator: Sketch 54.1 (76490) - https://sketchapp.com -->
    <title>Frame</title>
    <desc>Created with Sketch.</desc>
    <defs>
        <polygon id="path-1" points="0.00029692542 0 18 0 18 19.9997 0.00029692542 19.9997"></polygon>
    </defs>
    <g id="Page-1" stroke="none" stroke-width="1" fill="none" fill-rule="evenodd">
        <g id="Frame" transform="translate(-0.000000, 0.000000)">
            <polygon id="Fill-1" fill="#4D5969" fill-rule="nonzero" points="16.4181 13.3179 10.6281 9.9959 9.7721 10.4859 9.7721 11.3179 15.5951 14.6599 16.4191 14.1919"></polygon>
            <polygon id="Fill-2" fill="#4D5969" fill-rule="nonzero" points="9.7716 8.6733 9.7716 2.0403 8.9886 1.5973 8.1906 2.0503 8.1906 8.6633 8.9886 9.1213"></polygon>
            <polygon id="Fill-3" fill="#4D5969" fill-rule="nonzero" points="7.3341 9.9854 1.5911 13.2694 1.5921 14.2114 2.3581 14.6434 8.1911 11.3074 8.1911 10.4774"></polygon>
            <g id="Group-6">
                <g id="Fill-4-Clipped">
                    <mask id="mask-2" fill="white">
                        <use xlink:href="#path-1"></use>
                    </mask>
                    <g id="path-1"></g>
                    <path d="M15.5953,14.6597 L9.7713,17.9707 L9.7713,11.3177 L9.7713,10.4857 L10.6283,9.9957 L16.4083,6.6897 L16.4183,13.3177 L16.4193,14.1917 L15.5953,14.6597 Z M8.1913,17.9387 L2.3583,14.6437 L1.5923,14.2107 L1.5913,13.2697 L1.5813,6.6847 L7.3343,9.9857 L8.1913,10.4767 L8.1913,11.3077 L8.1913,17.9387 Z M8.1913,2.0507 L8.9883,1.5977 L9.7713,2.0397 L15.6063,5.3367 L9.7713,8.6737 L8.9893,9.1207 L8.1913,8.6627 L2.4023,5.3417 L8.1913,2.0507 Z M17.9883,5.6137 C17.9873,5.1677 17.7423,4.7537 17.3493,4.5317 L9.6233,0.1667 C9.4303,0.0577 9.2103,-0.0003 8.9883,-0.0003 C8.7633,-0.0003 8.5433,0.0577 8.3493,0.1687 L0.6353,4.5537 C0.2423,4.7767 -0.0007,5.1917 0.0003,5.6377 L0.0123,14.3867 C0.0123,14.8317 0.2573,15.2467 0.6503,15.4687 L8.3763,19.8337 C8.5693,19.9427 8.7893,19.9997 9.0123,19.9997 C9.2363,19.9997 9.4563,19.9417 9.6503,19.8317 L17.3643,15.4467 C17.7573,15.2237 18.0003,14.8077 18.0003,14.3627 L17.9883,5.6137 Z" id="Fill-4" fill="#9AA5B5" fill-rule="nonzero" mask="url(#mask-2)"></path>
                </g>
            </g>
        </g>
    </g>
</svg>