<?xml version="1.0" encoding="UTF-8"?>
<svg width="250px" height="250px" viewBox="0 0 250 250" version="1.1" xmlns="http://www.w3.org/2000/svg" xmlns:xlink="http://www.w3.org/1999/xlink">
    <!-- Generator: Sketch 54.1 (76490) - https://sketchapp.com -->
    <title>Stroke 6 (1)</title>
    <desc>Created with Sketch.</desc>
    <g id="Stroke-6-(1)" stroke="none" stroke-width="1" fill="none" fill-rule="evenodd">
        <polygon id="Fill-1" fill="#FFFFFF" points="0 250 250 250 250 0 0 0"></polygon>
        <path d="M202.5,116.0869 L202.5,116.0869" id="Stroke-2" stroke="#1B6DC6" stroke-width="2" stroke-linecap="round" stroke-linejoin="round"></path>
        <path d="M202.5,110.3154 L202.5,49.7164" id="Stroke-3" stroke="#1B6DC6" stroke-width="2" stroke-linecap="round" stroke-linejoin="round" stroke-dasharray="0,5.771"></path>
        <path d="M202.5,46.8311 L202.5,46.8311" id="Stroke-4" stroke="#1B6DC6" stroke-width="2" stroke-linecap="round" stroke-linejoin="round"></path>
        <path d="M47.5,116.0869 L47.5,116.0869" id="Stroke-5" stroke="#1B6DC6" stroke-width="2" stroke-linecap="round" stroke-linejoin="round"></path>
        <path d="M47.5,110.3154 L47.5,49.7164" id="Stroke-6" stroke="#1B6DC6" stroke-width="2" stroke-linecap="round" stroke-linejoin="round" stroke-dasharray="0,5.771"></path>
        <path d="M47.5,46.8311 L47.5,46.8311" id="Stroke-7" stroke="#1B6DC6" stroke-width="2" stroke-linecap="round" stroke-linejoin="round"></path>
        <g id="Group-42" transform="translate(47.000000, 84.000000)">
            <path d="M96.3564,32.0869 L96.3564,31.6839 C96.3564,29.6029 93.4344,27.9149 89.8294,27.9149 L66.1704,27.9149 C62.5664,27.9149 59.6444,29.6029 59.6444,31.6839 L59.6444,32.0869 L0.5004,32.0869 L0.5004,97.8039 L0.5064,97.8039 C0.5054,98.4419 0.7824,99.0909 1.3764,99.6839 L13.2054,111.5129 C15.0064,113.3159 18.9994,113.9329 22.1204,112.8929 L37.5564,107.7469 C43.8474,111.0469 51.3564,113.5849 59.6444,115.1159 L59.6444,125.3999 C59.6444,127.4819 62.5664,129.1689 66.1704,129.1689 L89.8294,129.1689 C93.4344,129.1689 96.3564,127.4819 96.3564,125.3999 L96.3564,115.1159 C104.6444,113.5849 112.1524,111.0469 118.4444,107.7469 L133.8794,112.8929 C137.0024,113.9329 140.9934,113.3159 142.7954,111.5129 L154.6254,99.6839 C155.2184,99.0909 155.4944,98.4419 155.4944,97.8039 L155.5004,97.8039 L155.5004,64.1639 L155.5004,59.8089 L155.5004,32.0869 L96.3564,32.0869 Z" id="Fill-8" fill="#D5DAE0"></path>
            <path d="M96.3564,32.0869 L96.3564,31.6839 C96.3564,29.6029 93.4344,27.9149 89.8294,27.9149 L66.1704,27.9149 C62.5664,27.9149 59.6444,29.6029 59.6444,31.6839 L59.6444,32.0869 L0.5004,32.0869 L0.5004,97.8039 L0.5064,97.8039 C0.5054,98.4419 0.7824,99.0909 1.3764,99.6839 L13.2054,111.5129 C15.0064,113.3159 18.9994,113.9329 22.1204,112.8929 L37.5564,107.7469 C43.8474,111.0469 51.3564,113.5849 59.6444,115.1159 L59.6444,125.3999 C59.6444,127.4819 62.5664,129.1689 66.1704,129.1689 L89.8294,129.1689 C93.4344,129.1689 96.3564,127.4819 96.3564,125.3999 L96.3564,115.1159 C104.6444,113.5849 112.1524,111.0469 118.4444,107.7469 L133.8794,112.8929 C137.0024,113.9329 140.9934,113.3159 142.7954,111.5129 L154.6254,99.6839 C155.2184,99.0909 155.4944,98.4419 155.4944,97.8039 L155.5004,97.8039 L155.5004,64.1639 L155.5004,59.8089 L155.5004,32.0869 L96.3564,32.0869 Z" id="Stroke-10" stroke="#627386" stroke-width="2" stroke-linecap="round" stroke-linejoin="round"></path>
            <path d="M118.4443,107.7471 L118.4443,107.7471 L133.8803,112.8931 C135.3363,113.3781 136.9803,113.4981 138.5043,113.3091 L138.5043,52.9741 L118.4443,52.9741 L118.4443,107.7471 Z" id="Fill-12" fill="#F2F4F6"></path>
            <path d="M1.376,99.6836 L13.205,111.5126 C14.473,112.7816 16.824,113.4586 19.194,113.3896 L19.194,32.0866 L0.5,32.0866 L0.5,97.8036 L0.507,97.8036 C0.506,98.4426 0.782,99.0906 1.376,99.6836" id="Fill-14" fill="#F2F4F6"></path>
            <path d="M37.5566,107.7471 C43.8476,111.0471 51.3566,113.5851 59.6446,115.1161 L59.6446,46.6151 L37.5566,46.6151 L37.5566,107.7471 Z" id="Fill-16" fill="#F2F4F6"></path>
            <path d="M78,63.5615 C62.981,63.5615 50.807,56.5325 50.807,47.8615 C50.807,39.1905 62.981,32.1615 78,32.1615 C93.019,32.1615 105.193,39.1905 105.193,47.8615 C105.193,56.5325 93.019,63.5615 78,63.5615" id="Fill-18" fill="#F2F4F6"></path>
            <g id="Group-23" transform="translate(0.000000, 57.000000)">
                <path d="M0.5,0.3662 L0.5,34.0052" id="Fill-20" fill="#E9F6FE"></path>
                <path d="M0.5,0.3662 L0.5,34.0052" id="Stroke-22" stroke="#1B6DC6" stroke-width="2" stroke-linecap="round" stroke-linejoin="round"></path>
            </g>
            <path d="M37.5566,67.3096 L37.5566,107.7476" id="Stroke-24" stroke="#627386" stroke-width="2" stroke-linecap="round" stroke-linejoin="round"></path>
            <path d="M59.6445,84.9629 L59.6445,125.4009" id="Stroke-26" stroke="#627386" stroke-width="2" stroke-linecap="round" stroke-linejoin="round"></path>
            <path d="M96.3554,84.9629 L96.3554,125.4009" id="Stroke-28" stroke="#627386" stroke-width="2" stroke-linecap="round" stroke-linejoin="round"></path>
            <path d="M118.4433,67.3096 L118.4433,107.7476" id="Stroke-30" stroke="#627386" stroke-width="2" stroke-linecap="round" stroke-linejoin="round"></path>
            <path d="M50.8066,47.8613 C50.8066,56.5323 62.9816,63.5613 77.9996,63.5613 L77.9996,32.1613 C62.9816,32.1613 50.8066,39.1903 50.8066,47.8613" id="Fill-32" fill="#D5DAE0"></path>
            <path d="M78,63.5615 C62.981,63.5615 50.807,56.5325 50.807,47.8615 C50.807,39.1905 62.981,32.1615 78,32.1615 C93.019,32.1615 105.193,39.1905 105.193,47.8615 C105.193,56.5325 93.019,63.5615 78,63.5615 Z" id="Stroke-34" stroke="#1B6DC6" stroke-width="2" stroke-linecap="round" stroke-linejoin="round"></path>
            <path d="M0.5,32.0869 L0.5,97.8039 L0.507,97.8039 C0.506,98.4419 0.782,99.0909 1.376,99.6839 L13.205,111.5129 C15.007,113.3159 18.999,113.9329 22.12,112.8929 L37.557,107.7469 C43.848,111.0469 51.356,113.5849 59.645,115.1159 L59.645,125.3999 C59.645,127.4819 62.566,129.1689 66.171,129.1689 L89.829,129.1689 C93.435,129.1689 96.356,127.4819 96.356,125.3999 L96.356,115.1159 C104.645,113.5849 112.152,111.0469 118.444,107.7469 L133.88,112.8929 C137.002,113.9329 140.993,113.3159 142.796,111.5129 L154.625,99.6839 C155.219,99.0909 155.494,98.4419 155.494,97.8039 L155.5,97.8039 L155.5,64.1639 L155.5,59.8089 L155.5,32.0869" id="Stroke-36" stroke="#627386" stroke-width="2" stroke-linecap="round" stroke-linejoin="round"></path>
            <path d="M78,63.5615 C62.981,63.5615 50.807,56.5325 50.807,47.8615 C50.807,39.1905 62.981,32.1615 78,32.1615 C93.019,32.1615 105.193,39.1905 105.193,47.8615 C105.193,56.5325 93.019,63.5615 78,63.5615 M152.236,60.3705 L136.807,55.2265 C137.694,52.8525 138.166,50.3885 138.166,47.8615 C138.166,45.3335 137.694,42.8715 136.807,40.4975 L152.236,35.3535 C155.357,34.3135 156.427,32.0085 154.625,30.2065 L142.796,18.3765 C140.993,16.5755 137.002,15.9575 133.88,16.9985 L118.443,22.1435 C112.152,18.8435 104.645,16.3045 96.355,14.7735 L96.355,4.4895 C96.355,2.4085 93.434,0.7215 89.829,0.7215 L66.171,0.7215 C62.566,0.7215 59.645,2.4085 59.645,4.4895 L59.645,14.7735 C51.355,16.3045 43.848,18.8435 37.557,22.1435 L22.12,16.9985 C18.998,15.9575 15.007,16.5755 13.205,18.3765 L1.376,30.2065 C-0.427,32.0085 0.643,34.3135 3.765,35.3535 L19.194,40.4975 C18.307,42.8715 17.834,45.3335 17.834,47.8615 C17.834,50.3885 18.307,52.8525 19.194,55.2265 L3.765,60.3705 C0.643,61.4105 -0.427,63.7145 1.376,65.5165 L13.205,77.3465 C15.007,79.1485 18.998,79.7655 22.12,78.7255 L37.557,73.5805 C43.848,76.8795 51.355,79.4175 59.645,80.9505 L59.645,91.2335 C59.645,93.3145 62.566,95.0015 66.171,95.0015 L89.829,95.0015 C93.434,95.0015 96.355,93.3145 96.355,91.2335 L96.355,80.9505 C104.645,79.4175 112.152,76.8795 118.443,73.5805 L133.88,78.7255 C137.002,79.7655 140.993,79.1485 142.796,77.3465 L154.625,65.5165 C156.427,63.7145 155.357,61.4105 152.236,60.3705" id="Fill-38" fill="#FFFFFF"></path>
            <path d="M78,63.5615 C62.981,63.5615 50.807,56.5325 50.807,47.8615 C50.807,39.1905 62.981,32.1615 78,32.1615 C93.019,32.1615 105.193,39.1905 105.193,47.8615 C105.193,56.5325 93.019,63.5615 78,63.5615 Z M152.236,60.3705 L136.807,55.2265 C137.694,52.8525 138.166,50.3885 138.166,47.8615 C138.166,45.3335 137.694,42.8715 136.807,40.4975 L152.236,35.3535 C155.357,34.3135 156.427,32.0085 154.625,30.2065 L142.796,18.3765 C140.993,16.5755 137.002,15.9575 133.88,16.9985 L118.443,22.1435 C112.152,18.8435 104.645,16.3045 96.355,14.7735 L96.355,4.4895 C96.355,2.4085 93.434,0.7215 89.829,0.7215 L66.171,0.7215 C62.566,0.7215 59.645,2.4085 59.645,4.4895 L59.645,14.7735 C51.355,16.3045 43.848,18.8435 37.557,22.1435 L22.12,16.9985 C18.998,15.9575 15.007,16.5755 13.205,18.3765 L1.376,30.2065 C-0.427,32.0085 0.643,34.3135 3.765,35.3535 L19.194,40.4975 C18.307,42.8715 17.834,45.3335 17.834,47.8615 C17.834,50.3885 18.307,52.8525 19.194,55.2265 L3.765,60.3705 C0.643,61.4105 -0.427,63.7145 1.376,65.5165 L13.205,77.3465 C15.007,79.1485 18.998,79.7655 22.12,78.7255 L37.557,73.5805 C43.848,76.8795 51.355,79.4175 59.645,80.9505 L59.645,91.2335 C59.645,93.3145 62.566,95.0015 66.171,95.0015 L89.829,95.0015 C93.434,95.0015 96.355,93.3145 96.355,91.2335 L96.355,80.9505 C104.645,79.4175 112.152,76.8795 118.443,73.5805 L133.88,78.7255 C137.002,79.7655 140.993,79.1485 142.796,77.3465 L154.625,65.5165 C156.427,63.7145 155.357,61.4105 152.236,60.3705 Z" id="Stroke-40" stroke="#627386" stroke-width="2" stroke-linecap="round" stroke-linejoin="round"></path>
        </g>
    </g>
</svg>