<?xml version="1.0" encoding="UTF-8"?>
<svg width="250px" height="250px" viewBox="0 0 250 250" version="1.1" xmlns="http://www.w3.org/2000/svg" xmlns:xlink="http://www.w3.org/1999/xlink">
    <!-- Generator: Sketch 54.1 (76490) - https://sketchapp.com -->
    <title>Stroke 8</title>
    <desc>Created with Sketch.</desc>
    <g id="Stroke-8" stroke="none" stroke-width="1" fill="none" fill-rule="evenodd">
        <polygon id="Fill-2" fill="#F2F4F6" points="146.8126 196.4043 125.0006 208.9973 103.1876 196.4043 103.1876 171.2173 125.0006 158.6233 146.8126 171.2173"></polygon>
        <polygon id="Stroke-3" stroke="#627386" stroke-width="2" stroke-linecap="round" stroke-linejoin="round" points="146.8126 196.4043 125.0006 208.9973 103.1876 196.4043 103.1876 171.2173 125.0006 158.6233 146.8126 171.2173"></polygon>
        <polygon id="Fill-4" fill="#FFFFFF" points="146.8126 171.2168 125.0006 183.8108 103.1876 171.2168 125.0006 158.6228"></polygon>
        <polygon id="Stroke-5" stroke="#627386" stroke-width="2" stroke-linecap="round" stroke-linejoin="round" points="146.8126 171.2168 125.0006 183.8108 103.1876 171.2168 125.0006 158.6228"></polygon>
        <polygon id="Fill-6" fill="#D5DAE0" points="125.0001 183.8105 125.0001 208.9975 146.8121 196.4045 146.8121 171.2165"></polygon>
        <polygon id="Stroke-7" stroke="#627386" stroke-width="2" stroke-linecap="round" stroke-linejoin="round" points="125.0001 183.8105 125.0001 208.9975 146.8121 196.4045 146.8121 171.2165"></polygon>
        <polygon id="Fill-8" fill="#F2F4F6" points="146.8126 78.7778 125.0006 91.3718 103.1876 78.7778 103.1876 53.5908 125.0006 40.9978 146.8126 53.5908"></polygon>
        <polygon id="Stroke-9" stroke="#627386" stroke-width="2" stroke-linecap="round" stroke-linejoin="round" points="146.8126 78.7778 125.0006 91.3718 103.1876 78.7778 103.1876 53.5908 125.0006 40.9978 146.8126 53.5908"></polygon>
        <polygon id="Fill-10" fill="#FFFFFF" points="146.8126 53.5908 125.0006 66.1848 103.1876 53.5908 125.0006 40.9978"></polygon>
        <polygon id="Stroke-11" stroke="#627386" stroke-width="2" stroke-linecap="round" stroke-linejoin="round" points="146.8126 53.5908 125.0006 66.1848 103.1876 53.5908 125.0006 40.9978"></polygon>
        <polygon id="Fill-12" fill="#D5DAE0" points="125.0001 66.1846 125.0001 91.3716 146.8121 78.7776 146.8121 53.5906"></polygon>
        <polygon id="Stroke-13" stroke="#627386" stroke-width="2" stroke-linecap="round" stroke-linejoin="round" points="125.0001 66.1846 125.0001 91.3716 146.8121 78.7776 146.8121 53.5906"></polygon>
        <polygon id="Fill-14" fill="#F2F4F6" points="197.7462 108.1846 175.9342 120.7776 154.1212 108.1846 154.1212 82.9976 175.9342 70.4036 197.7462 82.9976"></polygon>
        <polygon id="Stroke-15" stroke="#627386" stroke-width="2" stroke-linecap="round" stroke-linejoin="round" points="197.7462 108.1846 175.9342 120.7776 154.1212 108.1846 154.1212 82.9976 175.9342 70.4036 197.7462 82.9976"></polygon>
        <polygon id="Fill-16" fill="#FFFFFF" points="197.7462 82.9976 175.9342 95.5906 154.1212 82.9976 175.9342 70.4036"></polygon>
        <polygon id="Stroke-17" stroke="#627386" stroke-width="2" stroke-linecap="round" stroke-linejoin="round" points="197.7462 82.9976 175.9342 95.5906 154.1212 82.9976 175.9342 70.4036"></polygon>
        <polygon id="Fill-18" fill="#D5DAE0" points="175.9337 95.5908 175.9337 120.7778 197.7457 108.1848 197.7457 82.9978"></polygon>
        <polygon id="Stroke-19" stroke="#627386" stroke-width="2" stroke-linecap="round" stroke-linejoin="round" points="175.9337 95.5908 175.9337 120.7778 197.7457 108.1848 197.7457 82.9978"></polygon>
        <polygon id="Fill-20" fill="#F2F4F6" points="197.7462 166.9971 175.9342 179.5911 154.1212 166.9971 154.1212 141.8101 175.9342 129.2171 197.7462 141.8101"></polygon>
        <polygon id="Stroke-21" stroke="#627386" stroke-width="2" stroke-linecap="round" stroke-linejoin="round" points="197.7462 166.9971 175.9342 179.5911 154.1212 166.9971 154.1212 141.8101 175.9342 129.2171 197.7462 141.8101"></polygon>
        <polygon id="Fill-22" fill="#FFFFFF" points="197.7462 141.8105 175.9342 154.4035 154.1212 141.8105 175.9342 129.2165"></polygon>
        <polygon id="Stroke-23" stroke="#627386" stroke-width="2" stroke-linecap="round" stroke-linejoin="round" points="197.7462 141.8105 175.9342 154.4035 154.1212 141.8105 175.9342 129.2165"></polygon>
        <polygon id="Fill-24" fill="#D5DAE0" points="175.9337 154.4033 175.9337 179.5903 197.7457 166.9973 197.7457 141.8103"></polygon>
        <polygon id="Stroke-25" stroke="#627386" stroke-width="2" stroke-linecap="round" stroke-linejoin="round" points="175.9337 154.4033 175.9337 179.5903 197.7457 166.9973 197.7457 141.8103"></polygon>
        <polygon id="Fill-26" fill="#D5DAE0" points="52.254 108.1846 74.066 120.7776 95.879 108.1846 95.879 82.9976 74.066 70.4036 52.254 82.9976"></polygon>
        <polygon id="Stroke-27" stroke="#627386" stroke-width="2" stroke-linecap="round" stroke-linejoin="round" points="52.254 108.1846 74.066 120.7776 95.879 108.1846 95.879 82.9976 74.066 70.4036 52.254 82.9976"></polygon>
        <polygon id="Fill-28" fill="#FFFFFF" points="52.254 82.9976 74.066 95.5906 95.879 82.9976 74.066 70.4036"></polygon>
        <polygon id="Stroke-29" stroke="#627386" stroke-width="2" stroke-linecap="round" stroke-linejoin="round" points="52.254 82.9976 74.066 95.5906 95.879 82.9976 74.066 70.4036"></polygon>
        <polygon id="Fill-30" fill="#F2F4F6" points="74.0665 95.5908 74.0665 120.7778 52.2545 108.1848 52.2545 82.9978"></polygon>
        <polygon id="Stroke-31" stroke="#627386" stroke-width="2" stroke-linecap="round" stroke-linejoin="round" points="74.0665 95.5908 74.0665 120.7778 52.2545 108.1848 52.2545 82.9978"></polygon>
        <polygon id="Fill-32" fill="#D5DAE0" points="52.254 166.9971 74.066 179.5911 95.879 166.9971 95.879 141.8101 74.066 129.2171 52.254 141.8101"></polygon>
        <polygon id="Stroke-33" stroke="#627386" stroke-width="2" stroke-linecap="round" stroke-linejoin="round" points="52.254 166.9971 74.066 179.5911 95.879 166.9971 95.879 141.8101 74.066 129.2171 52.254 141.8101"></polygon>
        <polygon id="Fill-34" fill="#FFFFFF" points="52.254 141.8105 74.066 154.4035 95.879 141.8105 74.066 129.2165"></polygon>
        <polygon id="Stroke-35" stroke="#627386" stroke-width="2" stroke-linecap="round" stroke-linejoin="round" points="52.254 141.8105 74.066 154.4035 95.879 141.8105 74.066 129.2165"></polygon>
        <polygon id="Fill-36" fill="#F2F4F6" points="74.0665 154.4033 74.0665 179.5903 52.2545 166.9973 52.2545 141.8103"></polygon>
        <polygon id="Stroke-37" stroke="#627386" stroke-width="2" stroke-linecap="round" stroke-linejoin="round" points="74.0665 154.4033 74.0665 179.5903 52.2545 166.9973 52.2545 141.8103"></polygon>
        <g id="Group-79" transform="translate(73.000000, 78.000000)" stroke-linecap="round" stroke-linejoin="round" stroke-width="2">
            <g id="Group-44" transform="translate(51.000000, 80.000000)" stroke="#B8BFCA">
                <path d="M1.0001,25.8105 L1.0001,25.8105" id="Stroke-38"></path>
                <path d="M1.0001,19.5137 L1.0001,3.7717" id="Stroke-40" stroke-dasharray="0,6.297"></path>
                <path d="M1.0001,0.623 L1.0001,0.623" id="Stroke-42"></path>
            </g>
            <path d="M52.0001,80.623 L52.0001,72.185" id="Stroke-45" stroke="#BDE4FD"></path>
            <path d="M52.0001,46.9976 L52.0001,13.3716" id="Stroke-47" stroke="#BDE4FD"></path>
            <path d="M81.1212,4.9976 L74.4332,1.1366" id="Stroke-49" stroke="#BDE4FD"></path>
            <path d="M73.8126,93.2168 L81.1216,88.9968" id="Stroke-51" stroke="#BDE4FD"></path>
            <path d="M102.9337,51.2168 L102.9337,42.7778" id="Stroke-53" stroke="#BDE4FD"></path>
            <g id="Group-61" transform="translate(102.000000, 50.000000)" stroke="#B8BFCA">
                <path d="M0.9337,26.4033 L0.9337,26.4033" id="Stroke-55"></path>
                <path d="M0.9337,20.1074 L0.9337,4.3654" id="Stroke-57" stroke-dasharray="0,6.297"></path>
                <path d="M0.9337,1.2168 L0.9337,1.2168" id="Stroke-59"></path>
            </g>
            <path d="M81.1212,30.1846 L23.2082,63.6206" id="Stroke-62" stroke="#BDE4FD"></path>
            <path d="M22.879,4.9976 L30.188,0.7776" id="Stroke-64" stroke="#BDE4FD"></path>
            <path d="M30.1876,93.2168 L22.8786,88.9968" id="Stroke-66" stroke="#BDE4FD"></path>
            <g id="Group-74" transform="translate(0.000000, 75.000000)" stroke="#B8BFCA">
                <path d="M22.5196,13.79 L22.5196,13.79" id="Stroke-68"></path>
                <path d="M17.1564,10.6934 L3.7484,2.9524" id="Stroke-70" stroke-dasharray="0,6.193"></path>
                <path d="M1.0665,1.4033 L1.0665,1.4033" id="Stroke-72"></path>
            </g>
            <path d="M1.0665,51.2158 L1.0665,42.7768" id="Stroke-75" stroke="#BDE4FD"></path>
            <path d="M22.879,30.1846 L81.121,63.8106" id="Stroke-77" stroke="#BDE4FD"></path>
        </g>
        <polygon id="Fill-80" fill="#F2F4F6" points="146.8126 137.5908 125.0006 150.1848 103.1876 137.5908 103.1876 112.4038 125.0006 99.8098 146.8126 112.4038"></polygon>
        <polygon id="Stroke-81" stroke="#627386" stroke-width="2" stroke-linecap="round" stroke-linejoin="round" points="146.8126 137.5908 125.0006 150.1848 103.1876 137.5908 103.1876 112.4038 125.0006 99.8098 146.8126 112.4038"></polygon>
        <polygon id="Fill-82" fill="#FFFFFF" points="146.8126 112.4038 125.0006 124.9978 103.1876 112.4038 125.0006 99.8098"></polygon>
        <polygon id="Stroke-83" stroke="#627386" stroke-width="2" stroke-linecap="round" stroke-linejoin="round" points="146.8126 112.4038 125.0006 124.9978 103.1876 112.4038 125.0006 99.8098"></polygon>
        <polygon id="Fill-84" fill="#D5DAE0" points="125.0001 124.9976 125.0001 150.1846 146.8121 137.5906 146.8121 112.4036"></polygon>
        <polygon id="Stroke-85" stroke="#627386" stroke-width="2" stroke-linecap="round" stroke-linejoin="round" points="125.0001 124.9976 125.0001 150.1846 146.8121 137.5906 146.8121 112.4036"></polygon>
        <g id="Group-128" transform="translate(73.000000, 65.000000)" stroke="#B8BFCA" stroke-linecap="round" stroke-linejoin="round" stroke-width="2">
            <g id="Group-92" transform="translate(0.000000, 63.000000)">
                <path d="M1.0665,26.4033 L1.0665,26.4033" id="Stroke-86"></path>
                <path d="M1.0665,20.1074 L1.0665,4.3654" id="Stroke-88" stroke-dasharray="0,6.297"></path>
                <path d="M1.0665,1.2168 L1.0665,1.2168" id="Stroke-90"></path>
            </g>
            <g id="Group-99" transform="translate(80.000000, 89.000000)">
                <path d="M1.1212,12.9971 L1.1212,12.9971" id="Stroke-93"></path>
                <path d="M6.4845,9.9014 L19.8915,2.1604" id="Stroke-95" stroke-dasharray="0,6.193"></path>
                <path d="M22.5733,0.6113 L22.5733,0.6113" id="Stroke-97"></path>
            </g>
            <g id="Group-106" transform="translate(0.000000, 30.000000)">
                <path d="M22.879,13.1846 L22.879,13.1846" id="Stroke-100"></path>
                <path d="M17.5157,10.0879 L4.1077,2.3469" id="Stroke-102" stroke-dasharray="0,6.193"></path>
                <path d="M1.4259,0.7988 L1.4259,0.7988" id="Stroke-104"></path>
            </g>
            <g id="Group-113" transform="translate(80.000000, 30.000000)">
                <path d="M1.4806,13.3921 L1.4806,13.3921" id="Stroke-107"></path>
                <path d="M6.8439,10.2959 L20.2519,2.5549" id="Stroke-109" stroke-dasharray="0,6.193"></path>
                <path d="M22.9337,1.0063 L22.9337,1.0063" id="Stroke-111"></path>
            </g>
            <g id="Group-120" transform="translate(51.000000, 0.000000)">
                <path d="M1.0001,1.1846 L1.0001,1.1846" id="Stroke-114"></path>
                <path d="M6.3634,4.2808 L19.7714,12.0218" id="Stroke-116" stroke-dasharray="0,6.193"></path>
                <path d="M22.4532,13.5703 L22.4532,13.5703" id="Stroke-118"></path>
            </g>
            <g id="Group-127" transform="translate(30.000000, 0.000000)">
                <path d="M22.0001,1.1846 L22.0001,1.1846" id="Stroke-121"></path>
                <path d="M16.6368,4.2808 L3.2288,12.0218" id="Stroke-123" stroke-dasharray="0,6.193"></path>
                <path d="M0.547,13.5703 L0.547,13.5703" id="Stroke-125"></path>
            </g>
        </g>
    </g>
</svg>