<?xml version="1.0" encoding="UTF-8"?>
<svg width="250px" height="250px" viewBox="0 0 250 250" version="1.1" xmlns="http://www.w3.org/2000/svg" xmlns:xlink="http://www.w3.org/1999/xlink">
    <!-- Generator: Sketch 54.1 (76490) - https://sketchapp.com -->
    <title>Stroke 5</title>
    <desc>Created with Sketch.</desc>
    <g id="Stroke-5" stroke="none" stroke-width="1" fill="none" fill-rule="evenodd">
        <path d="M92.4101,147.3789 C92.1691,147.2339 91.9381,147.0849 91.6911,146.9419 C71.0211,135.0089 37.5091,135.0089 16.8381,146.9419 C16.5911,147.0849 16.3611,147.2339 16.1201,147.3789 L1.3361,147.3789 L1.3361,165.0219 C1.3361,172.8429 6.5031,180.6629 16.8381,186.6299 C37.5091,198.5649 71.0211,198.5649 91.6911,186.6299 C102.0261,180.6629 107.1941,172.8429 107.1941,165.0219 L107.1941,147.3789 L92.4101,147.3789 Z" id="Fill-1" fill="#F2F4F6"></path>
        <path d="M92.4101,147.3789 C92.1691,147.2339 91.9381,147.0849 91.6911,146.9419 C71.0211,135.0089 37.5091,135.0089 16.8381,146.9419 C16.5911,147.0849 16.3611,147.2339 16.1201,147.3789 L1.3361,147.3789 L1.3361,165.0219 C1.3361,172.8429 6.5031,180.6629 16.8381,186.6299 C37.5091,198.5649 71.0211,198.5649 91.6911,186.6299 C102.0261,180.6629 107.1941,172.8429 107.1941,165.0219 L107.1941,147.3789 L92.4101,147.3789 Z" id="Stroke-3" stroke="#627386" stroke-width="2" stroke-linecap="round" stroke-linejoin="round"></path>
        <path d="M91.6914,186.6299 C102.0264,180.6629 107.1944,172.8429 107.1944,165.0219 L107.1944,147.3789 L92.4104,147.3789 C92.1694,147.2339 91.9384,147.0849 91.6914,146.9419 C81.3564,140.9759 67.8104,137.9919 54.2644,137.9919 L54.2644,195.5799 C67.8104,195.5799 81.3564,192.5969 91.6914,186.6299" id="Fill-5" fill="#D5DAE0"></path>
        <path d="M92.4101,147.3789 C92.1691,147.2339 91.9381,147.0849 91.6911,146.9419 C71.0211,135.0089 37.5091,135.0089 16.8381,146.9419 C16.5911,147.0849 16.3611,147.2339 16.1201,147.3789 L1.3361,147.3789 L1.3361,165.0219 C1.3361,172.8429 6.5031,180.6629 16.8381,186.6299 C37.5091,198.5649 71.0211,198.5649 91.6911,186.6299 C102.0261,180.6629 107.1941,172.8429 107.1941,165.0219 L107.1941,147.3789 L92.4101,147.3789 Z" id="Stroke-7" stroke="#627386" stroke-width="2" stroke-linecap="round" stroke-linejoin="round"></path>
        <path d="M91.6914,125.7705 C112.3614,137.7045 112.3614,157.0525 91.6914,168.9875 C71.0214,180.9205 37.5084,180.9205 16.8374,168.9875 C-3.8316,157.0525 -3.8316,137.7045 16.8374,125.7705 C37.5084,113.8365 71.0214,113.8365 91.6914,125.7705" id="Fill-9" fill="#FFFFFF"></path>
        <path d="M91.6914,125.7705 C112.3614,137.7045 112.3614,157.0525 91.6914,168.9875 C71.0214,180.9205 37.5084,180.9205 16.8374,168.9875 C-3.8316,157.0525 -3.8316,137.7045 16.8374,125.7705 C37.5084,113.8365 71.0214,113.8365 91.6914,125.7705 Z" id="Stroke-11" stroke="#627386" stroke-width="2" stroke-linecap="round" stroke-linejoin="round"></path>
        <path d="M31.7109,148.5762 C31.5239,148.5682 31.3459,148.5192 31.2119,148.4422 L24.0659,144.3162 C23.8399,144.1862 23.7389,143.9902 23.8529,143.8172 C23.9819,143.6182 24.3209,143.4942 24.6769,143.5142 L48.6979,144.7012 C49.2339,144.7272 49.6829,144.4702 49.6389,144.1612 L47.6729,130.2592 C47.6489,130.0912 47.7639,129.9192 48.0039,129.8212 C48.3329,129.6872 48.7669,129.7162 49.0389,129.8732 L55.9149,133.8432 C56.0469,133.9192 56.1289,134.0202 56.1479,134.1312 L58.4009,149.2162 L58.4199,149.3532 C58.4519,149.5872 58.1219,149.7832 57.7169,149.7732 L57.4479,149.7662 L31.7109,148.5762 Z" id="Fill-13" fill="#D5DAE0"></path>
        <path d="M62.1865,149.5605 C62.2195,149.8035 62.5545,149.9975 62.9765,150.0175 L83.8175,151.1265 C84.1095,151.1405 84.4075,151.0755 84.5765,150.9365 C84.8085,150.7465 84.7585,150.4965 84.4865,150.3385 L77.6105,146.3685 C77.4785,146.2915 77.3035,146.2455 77.1115,146.2345 L62.6135,145.3825 C62.0815,145.3555 61.6355,145.6115 61.6785,145.9185 L62.1865,149.5605 Z" id="Fill-15" fill="#D5DAE0"></path>
        <path d="M58.0127,151.9258 C58.4347,151.9458 58.7697,152.1388 58.8037,152.3818 L60.9207,164.4978 C60.9447,164.6668 60.8297,164.8388 60.5897,164.9368 C60.2607,165.0708 59.8267,165.0418 59.5547,164.8848 L52.6787,160.9148 C52.5467,160.8388 52.4647,160.7378 52.4457,160.6268 L51.1167,152.2288 C51.0717,151.9218 51.5147,151.6638 52.0467,151.6898 L58.0127,151.9258 Z" id="Fill-17" fill="#D5DAE0"></path>
        <path d="M107.1943,134.4629 L107.1943,134.4629" id="Stroke-19" stroke="#91D2FB" stroke-width="2" stroke-linecap="round" stroke-linejoin="round"></path>
        <path d="M112.5058,131.3965 L125.7828,123.7315" id="Stroke-21" stroke="#91D2FB" stroke-width="2" stroke-linecap="round" stroke-linejoin="round" stroke-dasharray="0,6.133"></path>
        <path d="M128.4384,122.1982 L128.4384,122.1982" id="Stroke-23" stroke="#91D2FB" stroke-width="2" stroke-linecap="round" stroke-linejoin="round"></path>
        <polyline id="Stroke-25" stroke="#BDE4FD" stroke-width="2" stroke-linecap="round" stroke-linejoin="round" points="145.623 120.3486 149.436 110.0756 131.642 112.2766 138.632 116.3126 145.623 120.3486"></polyline>
        <path d="M233.833,61.3486 C254.503,73.2826 254.503,92.6306 233.833,104.5646 C213.163,116.4986 179.65,116.4986 158.979,104.5646 C138.31,92.6306 138.31,73.2826 158.979,61.3486 C179.65,49.4136 213.163,49.4136 233.833,61.3486 Z" id="Stroke-27" stroke="#BDE4FD" stroke-width="2" stroke-linecap="round" stroke-linejoin="round"></path>
        <polyline id="Stroke-29" stroke="#BDE4FD" stroke-width="2" stroke-linecap="round" stroke-linejoin="round" points="194.164 101.3281 205.08 95.0251 211.796 91.1481"></polyline>
        <polyline id="Stroke-31" stroke="#BDE4FD" stroke-width="2" stroke-linecap="round" stroke-linejoin="round" points="179.375 92.7891 190.291 86.4871 197.007 82.6101"></polyline>
        <polyline id="Stroke-33" stroke="#BDE4FD" stroke-width="2" stroke-linecap="round" stroke-linejoin="round" points="164.5869 84.251 175.5019 77.949 182.2179 74.072"></polyline>
        <polyline id="Stroke-35" stroke="#BDE4FD" stroke-width="2" stroke-linecap="round" stroke-linejoin="round" points="225.8545 94.416 220.5385 69.024 176.5585 65.955"></polyline>
        <path d="M92.4101,129.7354 C92.1691,129.5904 91.9381,129.4424 91.6911,129.2984 C71.0211,117.3654 37.5091,117.3654 16.8381,129.2984 C16.5911,129.4424 16.3611,129.5904 16.1201,129.7354 L1.3361,129.7354 L1.3361,147.3794 C1.3361,155.1994 6.5031,163.0204 16.8381,168.9874 C37.5091,180.9214 71.0211,180.9214 91.6911,168.9874 C102.0261,163.0204 107.1941,155.1994 107.1941,147.3794 L107.1941,129.7354 L92.4101,129.7354 Z" id="Fill-37" fill="#F2F4F6"></path>
        <path d="M92.4101,129.7354 C92.1691,129.5904 91.9381,129.4424 91.6911,129.2984 C71.0211,117.3654 37.5091,117.3654 16.8381,129.2984 C16.5911,129.4424 16.3611,129.5904 16.1201,129.7354 L1.3361,129.7354 L1.3361,147.3794 C1.3361,155.1994 6.5031,163.0204 16.8381,168.9874 C37.5091,180.9214 71.0211,180.9214 91.6911,168.9874 C102.0261,163.0204 107.1941,155.1994 107.1941,147.3794 L107.1941,129.7354 L92.4101,129.7354 Z" id="Stroke-39" stroke="#627386" stroke-width="2" stroke-linecap="round" stroke-linejoin="round"></path>
        <path d="M91.6914,168.9873 C102.0264,163.0203 107.1944,155.1993 107.1944,147.3793 L107.1944,129.7353 L92.4104,129.7353 C92.1694,129.5913 91.9384,129.4413 91.6914,129.2993 C81.3564,123.3323 67.8104,120.3483 54.2644,120.3483 L54.2644,177.9373 C67.8104,177.9373 81.3564,174.9543 91.6914,168.9873" id="Fill-41" fill="#D5DAE0"></path>
        <path d="M92.4101,129.7354 C92.1691,129.5904 91.9381,129.4424 91.6911,129.2984 C71.0211,117.3654 37.5091,117.3654 16.8381,129.2984 C16.5911,129.4424 16.3611,129.5904 16.1201,129.7354 L1.3361,129.7354 L1.3361,147.3794 C1.3361,155.1994 6.5031,163.0204 16.8381,168.9874 C37.5091,180.9214 71.0211,180.9214 91.6911,168.9874 C102.0261,163.0204 107.1941,155.1994 107.1941,147.3794 L107.1941,129.7354 L92.4101,129.7354 Z" id="Stroke-43" stroke="#627386" stroke-width="2" stroke-linecap="round" stroke-linejoin="round"></path>
        <path d="M91.6914,108.1279 C112.3614,120.0619 112.3614,139.4099 91.6914,151.3439 C71.0214,163.2779 37.5084,163.2779 16.8374,151.3439 C-3.8316,139.4099 -3.8316,120.0619 16.8374,108.1279 C37.5084,96.1929 71.0214,96.1929 91.6914,108.1279" id="Fill-45" fill="#FFFFFF"></path>
        <path d="M91.6914,108.1279 C112.3614,120.0619 112.3614,139.4099 91.6914,151.3439 C71.0214,163.2779 37.5084,163.2779 16.8374,151.3439 C-3.8316,139.4099 -3.8316,120.0619 16.8374,108.1279 C37.5084,96.1929 71.0214,96.1929 91.6914,108.1279 Z" id="Stroke-47" stroke="#627386" stroke-width="2" stroke-linecap="round" stroke-linejoin="round"></path>
        <path d="M31.7109,130.9336 C31.5239,130.9256 31.3459,130.8766 31.2119,130.7986 L24.0659,126.6736 C23.8399,126.5426 23.7389,126.3466 23.8529,126.1736 C23.9819,125.9746 24.3209,125.8506 24.6769,125.8706 L48.6979,127.0586 C49.2339,127.0846 49.6829,126.8276 49.6389,126.5176 L47.6729,112.6166 C47.6489,112.4476 47.7639,112.2756 48.0039,112.1776 C48.3329,112.0436 48.7669,112.0736 49.0389,112.2296 L55.9149,116.2006 C56.0469,116.2766 56.1289,116.3766 56.1479,116.4886 L58.4009,131.5726 L58.4199,131.7096 C58.4519,131.9436 58.1219,132.1406 57.7169,132.1296 L57.4479,132.1226 L31.7109,130.9336 Z" id="Fill-49" fill="#D5DAE0"></path>
        <path d="M62.1865,131.917 C62.2195,132.161 62.5545,132.354 62.9765,132.374 L83.8175,133.484 C84.1095,133.498 84.4075,133.432 84.5765,133.293 C84.8085,133.104 84.7585,132.853 84.4865,132.695 L77.6105,128.726 C77.4785,128.649 77.3035,128.603 77.1115,128.591 L62.6135,127.739 C62.0815,127.713 61.6355,127.969 61.6785,128.276 L62.1865,131.917 Z" id="Fill-51" fill="#D5DAE0"></path>
        <path d="M58.0127,134.2832 C58.4347,134.3032 58.7697,134.4962 58.8037,134.7392 L60.9207,146.8552 C60.9447,147.0242 60.8297,147.1962 60.5897,147.2942 C60.2607,147.4282 59.8267,147.3982 59.5547,147.2422 L52.6787,143.2712 C52.5467,143.1952 52.4647,143.0952 52.4457,142.9832 L51.1167,134.5862 C51.0717,134.2782 51.5147,134.0212 52.0467,134.0462 L58.0127,134.2832 Z" id="Fill-53" fill="#D5DAE0"></path>
    </g>
</svg>