<?xml version="1.0" encoding="UTF-8"?>
<svg width="222px" height="146px" viewBox="0 0 222 146" version="1.1" xmlns="http://www.w3.org/2000/svg" xmlns:xlink="http://www.w3.org/1999/xlink">
    <!-- Generator: Sketch 54.1 (76490) - https://sketchapp.com -->
    <title>Stroke 3</title>
    <desc>Created with Sketch.</desc>
    <g id="Stroke-3" stroke="none" stroke-width="1" fill="none" fill-rule="evenodd">
        <path d="M205.9735,52.5005 L139.0915,13.8855 C137.8155,13.1485 135.7445,13.1485 134.4695,13.8855 L24.1905,77.5555 L0.9995,79.3935 L0.9995,96.6585 C0.9995,97.1415 1.3195,97.6245 1.9575,97.9935 L82.9095,144.7305 C84.1845,145.4675 86.2545,145.4675 87.5315,144.7305 L220.0425,68.2245 C220.6805,67.8565 220.9995,67.3735 220.9995,66.8905 L220.9995,49.6245 L205.9735,52.5005 Z" id="Fill-1" fill="#F2F4F6"></path>
        <path d="M205.9735,52.5005 L139.0915,13.8855 C137.8155,13.1485 135.7445,13.1485 134.4695,13.8855 L24.1905,77.5555 L0.9995,79.3935 L0.9995,96.6585 C0.9995,97.1415 1.3195,97.6245 1.9575,97.9935 L82.9095,144.7305 C84.1845,145.4675 86.2545,145.4675 87.5315,144.7305 L220.0425,68.2245 C220.6805,67.8565 220.9995,67.3735 220.9995,66.8905 L220.9995,49.6245 L205.9735,52.5005 Z" stroke="#627386" stroke-width="2" stroke-linecap="round" stroke-linejoin="round"></path>
        <path d="M139.0917,13.8857 C137.8157,13.1487 135.7447,13.1487 134.4697,13.8857 L85.2197,42.3197 L85.2197,145.2827 C86.0567,145.2827 86.8927,145.0987 87.5307,144.7307 L220.0427,68.2247 C220.6807,67.8567 220.9997,67.3737 220.9997,66.8907 L220.9997,49.6247 L205.9737,52.5007 L139.0917,13.8857 Z" id="Fill-5" fill="#D5DAE0"></path>
        <path d="M205.9735,52.5005 L139.0915,13.8855 C137.8155,13.1485 135.7445,13.1485 134.4695,13.8855 L24.1905,77.5555 L0.9995,79.3935 L0.9995,96.6585 C0.9995,97.1415 1.3195,97.6245 1.9575,97.9935 L82.9095,144.7305 C84.1845,145.4675 86.2545,145.4675 87.5315,144.7305 L220.0425,68.2245 C220.6805,67.8565 220.9995,67.3735 220.9995,66.8905 L220.9995,49.6245 L205.9735,52.5005 Z" id="Stroke-7" stroke="#627386" stroke-width="2" stroke-linecap="round" stroke-linejoin="round"></path>
        <path d="M154.7499,88.6562 L154.7499,105.6122" id="Stroke-9" stroke="#627386" stroke-width="2" stroke-linecap="round" stroke-linejoin="round"></path>
        <path d="M15.6913,88.6567 L15.6913,105.9217" id="Stroke-11" stroke="#627386" stroke-width="2" stroke-linecap="round" stroke-linejoin="round"></path>
        <path d="M220.0428,50.959 L87.5308,127.465 C86.2548,128.202 84.1858,128.202 82.9088,127.465 L1.9578,80.728 C0.6808,79.991 0.6808,78.795 1.9578,78.059 L134.4688,1.553 C135.7448,0.816 137.8148,0.816 139.0918,1.553 L220.0428,48.291 C221.3188,49.027 221.3188,50.222 220.0428,50.959" id="Fill-13" fill="#FFFFFF"></path>
        <path d="M220.0428,50.959 L87.5308,127.465 C86.2548,128.202 84.1858,128.202 82.9088,127.465 L1.9578,80.728 C0.6808,79.991 0.6808,78.795 1.9578,78.059 L134.4688,1.553 C135.7448,0.816 137.8148,0.816 139.0918,1.553 L220.0428,48.291 C221.3188,49.027 221.3188,50.222 220.0428,50.959 Z" id="Stroke-15" stroke="#627386" stroke-width="2" stroke-linecap="round" stroke-linejoin="round"></path>
        <path d="M134.4686,1.5532 L1.9566,78.0582 C0.6806,78.7962 0.6806,79.9912 1.9566,80.7272 L15.6916,88.6572 L152.8246,9.4822 L139.0916,1.5532 C137.8156,0.8162 135.7446,0.8162 134.4686,1.5532 Z" id="Stroke-17" stroke="#BDE4FD" stroke-width="2" stroke-linecap="round" stroke-linejoin="round"></path>
        <path d="M145.1102,80.4219 C143.8342,81.1589 143.8342,82.3539 145.1102,83.0909 L154.7502,88.6559 L220.0432,50.9589 C221.3192,50.2219 221.3192,49.0269 220.0432,48.2909 L210.4032,42.7249 L145.1102,80.4219 Z" id="Stroke-19" stroke="#BDE4FD" stroke-width="2" stroke-linecap="round" stroke-linejoin="round"></path>
        <polygon id="Stroke-21" stroke="#BDE4FD" stroke-width="2" stroke-linecap="round" stroke-linejoin="round" points="188.5077 43.8276 134.1547 75.2086 98.5177 54.6336 152.8697 23.2526"></polygon>
        <path d="M128.5389,89.9897 L87.5309,113.6657 C86.2549,114.4027 84.1849,114.4027 82.9089,113.6657 L41.9009,89.9897 C40.6249,89.2527 40.6249,88.0577 41.9009,87.3207 L82.9089,63.6447 C84.1849,62.9077 86.2549,62.9077 87.5309,63.6447 L128.5389,87.3207 C129.8149,88.0577 129.8149,89.2527 128.5389,89.9897 Z" id="Stroke-23" stroke="#BDE4FD" stroke-width="2" stroke-linecap="round" stroke-linejoin="round"></path>
        <path d="M84.7098,112.5176 C84.7098,113.0826 84.7558,113.6416 84.8208,114.1966 C85.7858,114.2646 86.7908,114.0926 87.5308,113.6646 L128.5388,89.9896 C129.2778,89.5626 129.5758,88.9816 129.4578,88.4256 C128.4958,88.3876 127.5288,88.3606 126.5518,88.3606 C103.4428,88.3606 84.7098,99.1766 84.7098,112.5176 Z" id="Stroke-25" stroke="#BDE4FD" stroke-width="2" stroke-linecap="round" stroke-linejoin="round"></path>
        <path d="M92.5438,78.8726 C99.2448,82.7416 99.2448,89.0146 92.5438,92.8836 C85.8418,96.7526 74.9768,96.7526 68.2748,92.8836 C61.5738,89.0146 61.5738,82.7416 68.2748,78.8726 C74.9768,75.0036 85.8418,75.0036 92.5438,78.8726 Z" id="Stroke-27" stroke="#BDE4FD" stroke-width="2" stroke-linecap="round" stroke-linejoin="round"></path>
        <path d="M220.0428,50.959 L87.5308,127.465 C86.2548,128.202 84.1858,128.202 82.9088,127.465 L1.9578,80.728 C0.6808,79.991 0.6808,78.795 1.9578,78.059 L134.4688,1.553 C135.7448,0.816 137.8148,0.816 139.0918,1.553 L220.0428,48.291 C221.3188,49.027 221.3188,50.222 220.0428,50.959 Z" id="Stroke-29" stroke="#627386" stroke-width="2" stroke-linecap="round" stroke-linejoin="round"></path>
    </g>
</svg>