<?xml version="1.0" encoding="UTF-8"?>
<svg width="142px" height="204px" viewBox="0 0 142 204" version="1.1" xmlns="http://www.w3.org/2000/svg" xmlns:xlink="http://www.w3.org/1999/xlink">
    <!-- Generator: Sketch 54.1 (76490) - https://sketchapp.com -->
    <title>Stroke 4</title>
    <desc>Created with Sketch.</desc>
    <g id="Stroke-4" stroke="none" stroke-width="1" fill="none" fill-rule="evenodd">
        <polygon id="Fill-1" fill="#D5DAE0" points="71 89.3897 71 151.4247 71 161.8027 71 200.7707 71 153.9687 71 164.3467 71 203.3137 80.742 197.6897 90.483 192.0647 100.226 186.4407 109.968 180.8157 119.709 175.1917 129.451 169.5667 129.451 156.6457 129.451 146.2677 129.451 55.6427 119.709 61.2667 109.968 66.8917 100.226 72.5157 90.483 78.1407 80.742 83.7647"></polygon>
        <polygon id="Stroke-2" stroke="#627386" stroke-width="2" stroke-linecap="round" stroke-linejoin="round" points="71 89.3897 71 151.4247 71 161.8027 71 200.7707 71 153.9687 71 164.3467 71 203.3137 80.742 197.6897 90.483 192.0647 100.226 186.4407 109.968 180.8157 119.709 175.1917 129.451 169.5667 129.451 156.6457 129.451 146.2677 129.451 55.6427 119.709 61.2667 109.968 66.8917 100.226 72.5157 90.483 78.1407 80.742 83.7647"></polygon>
        <polygon id="Fill-4" fill="#F2F4F6" points="71 89.3897 71 151.4247 71 161.8027 71 200.7707 71 153.9687 71 164.3467 71 203.3137 61.258 197.6897 51.517 192.0647 41.774 186.4407 32.032 180.8157 22.291 175.1917 12.549 169.5667 12.549 159.1897 12.549 167.0237 12.549 156.6457 12.549 146.2677 12.549 55.6427 22.291 61.2667 32.032 66.8917 41.774 72.5157 51.517 78.1407 61.258 83.7647"></polygon>
        <polygon id="Stroke-5" stroke="#627386" stroke-width="2" stroke-linecap="round" stroke-linejoin="round" points="71 89.3897 71 151.4247 71 161.8027 71 200.7707 71 153.9687 71 164.3467 71 203.3137 61.258 197.6897 51.517 192.0647 41.774 186.4407 32.032 180.8157 22.291 175.1917 12.549 169.5667 12.549 159.1897 12.549 167.0237 12.549 156.6457 12.549 146.2677 12.549 55.6427 22.291 61.2667 32.032 66.8917 41.774 72.5157 51.517 78.1407 61.258 83.7647"></polygon>
        <path d="M71,89.3897 L129.451,55.6427" id="Stroke-7" stroke="#B8BFCA" stroke-width="2" stroke-linecap="round" stroke-linejoin="round"></path>
        <polygon id="Fill-8" fill="#F2F4F6" points="0.9999 41.414 70.9999 81.828 140.9999 41.414 70.9999 0.999"></polygon>
        <polygon id="Stroke-9" stroke="#627386" stroke-width="2" stroke-linecap="round" stroke-linejoin="round" points="1 41.4141 71 81.8291 141 41.4141 71 0.9991"></polygon>
        <polygon id="Fill-11" fill="#D5DAE0" points="0.9999 54.2579 70.9999 94.6719 70.9999 81.8289 0.9999 41.4139"></polygon>
        <polygon id="Stroke-12" stroke="#627386" stroke-width="2" stroke-linecap="round" stroke-linejoin="round" points="1 41.4141 1 54.2581 71 94.6721 71 81.8291"></polygon>
        <polygon id="Fill-14" fill="#B8BFCA" points="141 41.4141 141 54.2581 71 94.6721 71 81.8291"></polygon>
        <polygon id="Stroke-15" stroke="#627386" stroke-width="2" stroke-linecap="round" stroke-linejoin="round" points="141 41.4141 141 54.2581 71 94.6721 71 81.8291"></polygon>
        <path d="M121.2685,144.7158 L114.3395,148.7158" id="Stroke-17" stroke="#91D2FB" stroke-width="2" stroke-linecap="round" stroke-linejoin="round"></path>
        <path d="M106.8681,153.0298 L89.8471,162.8568" id="Stroke-18" stroke="#91D2FB" stroke-width="2" stroke-linecap="round" stroke-linejoin="round" stroke-dasharray="15.339,8.628"></path>
        <path d="M86.1113,165.0137 L79.1833,169.0137" id="Stroke-19" stroke="#91D2FB" stroke-width="2" stroke-linecap="round" stroke-linejoin="round"></path>
        <path d="M20.7314,144.7158 L27.6604,148.7158" id="Stroke-20" stroke="#BDE4FD" stroke-width="2" stroke-linecap="round" stroke-linejoin="round"></path>
        <path d="M35.1318,153.0298 L52.1528,162.8568" id="Stroke-21" stroke="#BDE4FD" stroke-width="2" stroke-linecap="round" stroke-linejoin="round" stroke-dasharray="15.339,8.628"></path>
        <path d="M55.8887,165.0137 L62.8167,169.0137" id="Stroke-22" stroke="#BDE4FD" stroke-width="2" stroke-linecap="round" stroke-linejoin="round"></path>
        <path d="M121.2685,116.124 L114.3395,120.124" id="Stroke-23" stroke="#91D2FB" stroke-width="2" stroke-linecap="round" stroke-linejoin="round"></path>
        <path d="M106.8681,124.438 L89.8471,134.265" id="Stroke-24" stroke="#91D2FB" stroke-width="2" stroke-linecap="round" stroke-linejoin="round" stroke-dasharray="15.339,8.628"></path>
        <path d="M86.1113,136.4219 L79.1833,140.4219" id="Stroke-25" stroke="#91D2FB" stroke-width="2" stroke-linecap="round" stroke-linejoin="round"></path>
        <path d="M20.7314,116.124 L27.6604,120.124" id="Stroke-26" stroke="#BDE4FD" stroke-width="2" stroke-linecap="round" stroke-linejoin="round"></path>
        <path d="M35.1318,124.438 L52.1528,134.265" id="Stroke-27" stroke="#BDE4FD" stroke-width="2" stroke-linecap="round" stroke-linejoin="round" stroke-dasharray="15.339,8.628"></path>
        <path d="M55.8887,136.4219 L62.8167,140.4219" id="Stroke-28" stroke="#BDE4FD" stroke-width="2" stroke-linecap="round" stroke-linejoin="round"></path>
        <path d="M121.2685,87.5318 L114.3395,91.5318" id="Stroke-29" stroke="#91D2FB" stroke-width="2" stroke-linecap="round" stroke-linejoin="round"></path>
        <path d="M106.8681,95.8462 L89.8471,105.6722" id="Stroke-30" stroke="#91D2FB" stroke-width="2" stroke-linecap="round" stroke-linejoin="round" stroke-dasharray="15.339,8.628"></path>
        <path d="M86.1113,107.8296 L79.1833,111.8296" id="Stroke-31" stroke="#91D2FB" stroke-width="2" stroke-linecap="round" stroke-linejoin="round"></path>
        <path d="M20.7314,87.5318 L27.6604,91.5318" id="Stroke-32" stroke="#BDE4FD" stroke-width="2" stroke-linecap="round" stroke-linejoin="round"></path>
        <path d="M35.1318,95.8462 L52.1528,105.6722" id="Stroke-33" stroke="#BDE4FD" stroke-width="2" stroke-linecap="round" stroke-linejoin="round" stroke-dasharray="15.339,8.628"></path>
        <path d="M55.8887,107.8296 L62.8167,111.8296" id="Stroke-34" stroke="#BDE4FD" stroke-width="2" stroke-linecap="round" stroke-linejoin="round"></path>
        <g id="Group-41" transform="translate(38.000000, 22.314000)" fill="#B8BFCA">
            <path d="M9.1299,20.3672 C8.9319,20.3592 8.7429,20.3072 8.6019,20.2252 L1.0389,15.8592 C0.7999,15.7212 0.6929,15.5132 0.8129,15.3302 C0.9499,15.1192 1.3099,14.9892 1.6849,15.0092 L27.1089,16.2662 C27.6759,16.2942 28.1509,16.0212 28.1049,15.6942 L26.0239,0.9812 C25.9979,0.8032 26.1199,0.6202 26.3729,0.5172 C26.7229,0.3762 27.1809,0.4062 27.4689,0.5722 L34.7469,4.7742 C34.8869,4.8552 34.9729,4.9622 34.9929,5.0792 L37.3779,21.0442 L37.3979,21.1892 C37.4319,21.4362 37.0829,21.6452 36.6539,21.6342 L36.3699,21.6262 L9.1299,20.3672 Z" id="Fill-35"></path>
            <path d="M41.3838,21.4087 C41.4198,21.6667 41.7738,21.8707 42.2198,21.8917 L64.2778,23.0677 C64.5868,23.0817 64.9018,23.0117 65.0798,22.8657 C65.3258,22.6637 65.2738,22.3987 64.9858,22.2327 L57.7078,18.0307 C57.5688,17.9507 57.3828,17.9007 57.1798,17.8887 L41.8358,16.9867 C41.2728,16.9587 40.8008,17.2297 40.8468,17.5547 L41.3838,21.4087 Z" id="Fill-37"></path>
            <path d="M36.9658,23.9126 C37.4128,23.9336 37.7678,24.1376 37.8038,24.3956 L40.0438,37.2186 C40.0698,37.3976 39.9478,37.5796 39.6948,37.6826 C39.3458,37.8246 38.8868,37.7936 38.5988,37.6276 L31.3208,33.4256 C31.1818,33.3456 31.0948,33.2386 31.0738,33.1206 L29.6688,24.2326 C29.6198,23.9086 30.0898,23.6356 30.6528,23.6616 L36.9658,23.9126 Z" id="Fill-39"></path>
        </g>
    </g>
</svg>