<?xml version="1.0" encoding="UTF-8"?>
<svg width="250px" height="250px" viewBox="0 0 250 250" version="1.1" xmlns="http://www.w3.org/2000/svg" xmlns:xlink="http://www.w3.org/1999/xlink">
    <!-- Generator: Sketch 54.1 (76490) - https://sketchapp.com -->
    <title>Stroke 7</title>
    <desc>Created with Sketch.</desc>
    <g id="Stroke-7" stroke="none" stroke-width="1" fill="none" fill-rule="evenodd">
        <g id="Group-12" transform="translate(30.000000, 42.000000)">
            <path d="M182.2355,36.9492 L182.2415,36.9412 L148.6085,17.5232 L148.5905,17.5462 C144.6545,15.2772 139.5355,15.4662 133.9225,18.7072 L131.4785,20.1172 L102.6515,3.4742 L102.6445,3.4852 C96.0875,-0.2998 87.5405,0.0452 78.1835,5.4472 C58.6455,16.7272 42.6155,45.9572 40.9285,72.3962 L22.4455,83.0682 C10.0485,90.2252 0.0005,109.4262 0.0005,125.9542 C0.0005,134.9962 3.0205,141.3392 7.7745,144.0822 L7.7585,144.1052 L41.3915,163.5232 L41.3975,163.5152 C45.3335,165.7872 50.4635,165.5822 56.0785,162.3402 L167.5545,97.9782 C179.9515,90.8222 190.0005,71.6212 190.0005,55.0932 C190.0005,46.0522 186.9895,39.6922 182.2355,36.9492" id="Fill-2" fill="#FFFFFF"></path>
            <path d="M182.2355,36.9492 L182.2415,36.9412 L148.6085,17.5232 L148.5905,17.5462 C144.6545,15.2772 139.5355,15.4662 133.9225,18.7072 L131.4785,20.1172 L102.6515,3.4742 L102.6445,3.4852 C96.0875,-0.2998 87.5405,0.0452 78.1835,5.4472 C58.6455,16.7272 42.6155,45.9572 40.9285,72.3962 L22.4455,83.0682 C10.0485,90.2252 0.0005,109.4262 0.0005,125.9542 C0.0005,134.9962 3.0205,141.3392 7.7745,144.0822 L7.7585,144.1052 L41.3915,163.5232 L41.3975,163.5152 C45.3335,165.7872 50.4635,165.5822 56.0785,162.3402 L167.5545,97.9782 C179.9515,90.8222 190.0005,71.6212 190.0005,55.0932 C190.0005,46.0522 186.9895,39.6922 182.2355,36.9492 Z" id="Stroke-4" stroke="#627386" stroke-width="2" stroke-linecap="round" stroke-linejoin="round"></path>
            <path d="M167.5548,38.1255 L149.0708,48.7975 C147.3848,24.3035 131.3548,13.5855 111.8168,24.8655 C92.2788,36.1465 76.2478,65.3755 74.5628,91.8145 L56.0778,102.4865 C43.6828,109.6435 33.6328,128.8435 33.6328,145.3725 C33.6328,161.9005 43.6828,169.4975 56.0778,162.3395 L167.5548,97.9785 C179.9508,90.8225 189.9998,71.6215 189.9998,55.0935 C189.9998,38.5655 179.9508,30.9685 167.5548,38.1255" id="Fill-6" fill="#F2F4F6"></path>
            <path d="M182.2355,36.9492 L182.2415,36.9412 L148.6085,17.5232 L148.5905,17.5462 C144.6545,15.2772 139.5355,15.4662 133.9225,18.7072 L131.4785,20.1172 L102.6515,3.4742 L102.6445,3.4852 C96.0875,-0.2998 87.5405,0.0452 78.1835,5.4472 C58.6455,16.7272 42.6155,45.9572 40.9285,72.3962 L22.4455,83.0682 C10.0485,90.2252 0.0005,109.4262 0.0005,125.9542 C0.0005,134.9962 3.0205,141.3392 7.7745,144.0822 L7.7585,144.1052 L41.3915,163.5232 L41.3975,163.5152 C45.3335,165.7872 50.4635,165.5822 56.0785,162.3402 L167.5545,97.9782 C179.9515,90.8222 190.0005,71.6212 190.0005,55.0932 C190.0005,46.0522 186.9895,39.6922 182.2355,36.9492 Z" id="Stroke-8" stroke="#627386" stroke-width="2" stroke-linecap="round" stroke-linejoin="round"></path>
            <path d="M167.5548,38.1255 L149.0708,48.7975 C147.3848,24.3035 131.3548,13.5855 111.8168,24.8655 C92.2788,36.1465 76.2478,65.3755 74.5628,91.8145 L56.0778,102.4865 C43.6828,109.6435 33.6328,128.8435 33.6328,145.3725" id="Stroke-10" stroke="#BDE4FD" stroke-width="2" stroke-linecap="round" stroke-linejoin="round"></path>
        </g>
    </g>
</svg>