<?xml version="1.0" encoding="UTF-8"?>
<svg width="202px" height="165px" viewBox="0 0 202 165" version="1.1" xmlns="http://www.w3.org/2000/svg" xmlns:xlink="http://www.w3.org/1999/xlink">
    <!-- Generator: Sketch 54.1 (76490) - https://sketchapp.com -->
    <title>Stroke 2</title>
    <desc>Created with Sketch.</desc>
    <g id="Stroke-2" stroke="none" stroke-width="1" fill="none" fill-rule="evenodd">
        <path d="M151.4638,139.7297 L104.1158,134.2417 L108.2638,150.6647 L108.2698,150.6657 C108.5108,151.4807 109.1708,152.2627 110.2618,152.8927 L126.6088,162.3307 C129.4078,163.9477 133.9468,163.9477 136.7458,162.3307 L145.3368,157.3717 C146.4058,156.7537 147.0638,155.9897 147.3168,155.1907 L147.3188,155.1917 L151.4638,139.7297 Z" id="Fill-1" fill="#91D2FB"></path>
        <path d="M151.4638,139.7297 L104.1158,134.2417 L108.2638,150.6647 L108.2698,150.6657 C108.5108,151.4807 109.1708,152.2627 110.2618,152.8927 L126.6088,162.3307 C129.4078,163.9477 133.9468,163.9477 136.7458,162.3307 L145.3368,157.3717 C146.4058,156.7537 147.0638,155.9897 147.3168,155.1907 L147.3188,155.1917 L151.4638,139.7297 Z" id="Stroke-3" stroke="#1B6DC6" stroke-width="2" stroke-linecap="round" stroke-linejoin="round"></path>
        <path d="M149.06,142.3723 L138.646,148.3853 C135.252,150.3443 129.749,150.3443 126.355,148.3853 L106.538,136.9433 C103.144,134.9833 103.144,131.8073 106.538,129.8473 L116.952,123.8343 C120.346,121.8753 125.849,121.8753 129.243,123.8343 L149.06,135.2763 C152.454,137.2353 152.454,140.4123 149.06,142.3723" id="Fill-5" fill="#91D2FB"></path>
        <path d="M149.06,142.3723 L138.646,148.3853 C135.252,150.3443 129.749,150.3443 126.355,148.3853 L106.538,136.9433 C103.144,134.9833 103.144,131.8073 106.538,129.8473 L116.952,123.8343 C120.346,121.8753 125.849,121.8753 129.243,123.8343 L149.06,135.2763 C152.454,137.2353 152.454,140.4123 149.06,142.3723 Z" id="Stroke-7" stroke="#1B6DC6" stroke-width="2" stroke-linecap="round" stroke-linejoin="round"></path>
        <path d="M140.7627,26.841 L137.6667,26.841 L131.0577,18.292 C129.7947,16.659 126.0887,16.263 123.8977,17.528 L88.5577,37.932 L116.1817,53.88 L139.1077,34.996 C140.2007,34.096 140.7467,33.038 140.7487,31.973 L140.7627,31.969 L140.7627,26.841 Z" id="Fill-9" fill="#91D2FB"></path>
        <path d="M140.7627,26.841 L137.6667,26.841 L131.0577,18.292 C129.7947,16.659 126.0887,16.263 123.8977,17.528 L88.5577,37.932 L116.1817,53.88 L139.1077,34.996 C140.2007,34.096 140.7467,33.038 140.7487,31.973 L140.7627,31.969 L140.7627,26.841 Z" id="Stroke-11" stroke="#1B6DC6" stroke-width="2" stroke-linecap="round" stroke-linejoin="round"></path>
        <path d="M116.1816,48.7527 L139.1076,29.8687 C140.9516,28.3507 141.2786,26.3857 139.9696,24.6917 L131.0576,13.1647 C129.7956,11.5317 126.0886,11.1357 123.8976,12.4007 L88.5576,32.8047 L116.1816,48.7527 Z" id="Fill-13" fill="#D3EDFD"></path>
        <path d="M116.1816,48.7527 L139.1076,29.8687 C140.9516,28.3507 141.2786,26.3857 139.9696,24.6917 L131.0576,13.1647 C129.7956,11.5317 126.0886,11.1357 123.8976,12.4007 L88.5576,32.8047 L116.1816,48.7527 Z" id="Stroke-15" stroke="#1B6DC6" stroke-width="2" stroke-linecap="round" stroke-linejoin="round"></path>
        <path d="M25.8813,45.1399 C44.2253,101.7559 121.7163,179.0899 185.5013,144.5719 C195.3193,139.2579 201.2963,128.9059 200.9883,117.7469 C198.9903,45.2479 93.2713,16.8059 35.0683,29.2279 C27.8813,30.7619 23.6163,38.1489 25.8813,45.1399" id="Fill-17" fill="#FFFFFF"></path>
        <path d="M25.8813,45.1399 C44.2253,101.7559 121.7163,179.0899 185.5013,144.5719 C195.3193,139.2579 201.2963,128.9059 200.9883,117.7469 C198.9903,45.2479 93.2713,16.8059 35.0683,29.2279 C27.8813,30.7619 23.6163,38.1489 25.8813,45.1399 Z" id="Stroke-19" stroke="#1B6DC6" stroke-width="2" stroke-linecap="round" stroke-linejoin="round"></path>
        <path d="M197.3989,123.9641 C140.5149,149.5121 64.8339,82.4791 40.0939,31.5041 C39.2269,29.7191 37.2599,28.7671 35.3179,29.1741 L35.1399,29.2131 C27.9619,30.7371 23.6199,38.1591 25.8809,45.1391 C44.2249,101.7551 121.7159,179.0901 185.5019,144.5711 C192.8029,140.6201 197.9749,133.8801 200.0219,126.0961 C200.4219,124.5721 198.8709,123.3001 197.4349,123.9481 C197.4229,123.9531 197.4109,123.9591 197.3989,123.9641" id="Fill-21" fill="#E9F6FE"></path>
        <path d="M25.8813,45.1399 C44.2253,101.7559 121.7163,179.0899 185.5013,144.5719 C195.3193,139.2579 201.2963,128.9059 200.9883,117.7469 C198.9903,45.2479 93.2713,16.8059 35.0683,29.2279 C27.8813,30.7619 23.6163,38.1489 25.8813,45.1399 Z" id="Stroke-23" stroke="#1B6DC6" stroke-width="2" stroke-linecap="round" stroke-linejoin="round"></path>
        <g id="Group-28" transform="translate(1.000000, 66.543000)">
            <path d="M56.1728,14.8825 L50.5348,15.1815 C45.1678,10.2345 40.5298,4.9915 37.4188,1.2405 L36.6348,0.7885 L7.7768,17.4505 L-0.0002,17.8635 L-0.0002,22.9905 L0.0068,22.9905 C0.0068,23.9475 0.9248,24.8895 2.6188,25.3265 L22.5848,30.4705 C25.5178,31.2265 28.9218,31.0385 31.5508,29.9735 L56.1728,20.0095" id="Fill-25" fill="#91D2FB"></path>
            <path d="M56.1728,14.8825 L50.5348,15.1815 C45.1678,10.2345 40.5298,4.9915 37.4188,1.2405 L36.6348,0.7885 L7.7768,17.4505 L-0.0002,17.8635 L-0.0002,22.9905 L0.0068,22.9905 C0.0068,23.9475 0.9248,24.8895 2.6188,25.3265 L22.5848,30.4705 C25.5178,31.2265 28.9218,31.0385 31.5508,29.9735 L56.1728,20.0095" id="Stroke-27" stroke="#1B6DC6" stroke-width="2" stroke-linecap="round" stroke-linejoin="round"></path>
        </g>
        <g id="Group-32" transform="translate(49.000000, 0.543000)">
            <path d="M40.3891,36.8298 L34.1781,21.8938 C31.5561,15.5868 26.9291,10.3188 21.0141,6.9038 L11.0091,1.1278 C9.3431,0.1658 7.5031,0.3038 6.0671,1.1318 L6.0611,1.1228 L0.7451,4.1928 L5.8611,8.0828 L8.0711,26.2308 C14.8451,27.0208 22.6591,29.1168 29.1061,31.1408 L35.0731,39.8998" id="Fill-29" fill="#D3EDFD"></path>
            <path d="M40.3891,36.8298 L34.1781,21.8938 C31.5561,15.5868 26.9291,10.3188 21.0141,6.9038 L11.0091,1.1278 C9.3431,0.1658 7.5031,0.3038 6.0671,1.1318 L6.0611,1.1228 L0.7451,4.1928 L5.8611,8.0828 L8.0711,26.2308 C14.8451,27.0208 22.6591,29.1168 29.1061,31.1408 L35.0731,39.8998" id="Stroke-31" stroke="#1B6DC6" stroke-width="2" stroke-linecap="round" stroke-linejoin="round"></path>
        </g>
        <g id="Group-36" transform="translate(47.000000, 3.543000)">
            <path d="M2.8901,27.3772 L0.2981,6.0862 C-0.1959,2.0312 4.1541,-0.8458 7.6921,1.1972 L17.6971,6.9732 C23.6131,10.3882 28.2391,15.6562 30.8621,21.9632 L37.0731,36.8992" id="Fill-33" fill="#91D2FB"></path>
            <path d="M2.8901,27.3772 L0.2981,6.0862 C-0.1959,2.0312 4.1541,-0.8458 7.6921,1.1972 L17.6971,6.9732 C23.6131,10.3882 28.2391,15.6562 30.8621,21.9632 L37.0731,36.8992" id="Stroke-35" stroke="#1B6DC6" stroke-width="2" stroke-linecap="round" stroke-linejoin="round"></path>
        </g>
        <g id="Group-40" transform="translate(1.000000, 61.543000)">
            <path d="M37.4189,1.1135 L36.6349,0.6615 L1.2949,21.0645 C-0.8951,22.3295 -0.2101,24.4695 2.6189,25.1985 L22.5849,30.3435 C25.5179,31.0995 28.9219,30.9105 31.5509,29.8455 L56.1729,19.8825" id="Fill-37" fill="#D3EDFD"></path>
            <path d="M37.4189,1.1135 L36.6349,0.6615 L1.2949,21.0645 C-0.8951,22.3295 -0.2101,24.4695 2.6189,25.1985 L22.5849,30.3435 C25.5179,31.0995 28.9219,30.9105 31.5509,29.8455 L56.1729,19.8825" id="Stroke-39" stroke="#1B6DC6" stroke-width="2" stroke-linecap="round" stroke-linejoin="round"></path>
        </g>
    </g>
</svg>