<?xml version="1.0" encoding="UTF-8"?>
<svg width="20px" height="20px" viewBox="0 0 20 20" version="1.1" xmlns="http://www.w3.org/2000/svg" xmlns:xlink="http://www.w3.org/1999/xlink">
    <!-- Generator: Sketch 54.1 (76490) - https://sketchapp.com -->
    <title>Karbon</title>
    <desc>Created with Sketch.</desc>
    <defs>
        <polygon id="path-1" points="0.2236 0.6475 1.7796 0.6475 1.7796 2 0.2236 2"></polygon>
        <polygon id="path-3" points="0.6472 0.2207 2 0.2207 2 1.7767 0.6472 1.7767"></polygon>
        <polygon id="path-5" points="0.2233 0 1.7793 0 1.7793 1.353 0.2233 1.353"></polygon>
    </defs>
    <g id="Page-1" stroke="none" stroke-width="1" fill="none" fill-rule="evenodd">
        <g id="Karbon" transform="translate(-0.000000, 0.000000)">
            <path d="M17.0698,2.9282 C16.7668,2.6242 16.2738,2.6242 15.9698,2.9282 L15.5628,3.3352 L14.4578,4.4402 L11.8428,7.0552 L12.0368,7.1362 C12.4138,7.2912 12.7068,7.5852 12.8628,7.9612 L12.9438,8.1552 L15.5578,5.5402 L16.6628,4.4342 L17.0698,4.0282 C17.3738,3.7242 17.3738,3.2312 17.0698,2.9282" id="Fill-1" fill="#4D5969" fill-rule="nonzero"></path>
            <g id="Group-5" transform="translate(9.000000, 18.000000)">
                <g id="Fill-3-Clipped">
                    <mask id="mask-2" fill="white">
                        <use xlink:href="#path-1"></use>
                    </mask>
                    <g id="path-1"></g>
                    <path d="M0.2236,0.6475 L0.2236,1.2225 C0.2236,1.6505 0.5726,2.0005 1.0016,2.0005 C1.4306,2.0005 1.7796,1.6505 1.7796,1.2225 L1.7796,0.6475 C1.5206,0.6695 1.2616,0.6825 0.9996,0.6825 C0.7396,0.6825 0.4806,0.6705 0.2236,0.6475" id="Fill-3" fill="#4D5969" fill-rule="nonzero" mask="url(#mask-2)"></path>
                </g>
            </g>
            <path d="M13.4658,9.415 C13.6218,9.792 13.6218,10.207 13.4658,10.583 L13.3858,10.776 L17.0838,10.776 C17.1118,10.519 17.1268,10.261 17.1268,10 C17.1268,9.738 17.1118,9.478 17.0838,9.221 L13.3848,9.221 L13.4658,9.415 Z" id="Fill-6" fill="#4D5969" fill-rule="nonzero"></path>
            <g id="Group-10" transform="translate(18.000000, 9.000000)">
                <g id="Fill-8-Clipped">
                    <mask id="mask-4" fill="white">
                        <use xlink:href="#path-3"></use>
                    </mask>
                    <g id="path-3"></g>
                    <path d="M1.2222,0.2207 L0.6472,0.2207 C0.6702,0.4787 0.6822,0.7387 0.6822,0.9997 C0.6822,1.2607 0.6702,1.5197 0.6472,1.7767 L1.2222,1.7767 C1.6512,1.7767 2.0002,1.4277 2.0002,0.9987 C2.0002,0.5697 1.6512,0.2207 1.2222,0.2207" id="Fill-8" fill="#4D5969" fill-rule="nonzero" mask="url(#mask-4)"></path>
                </g>
            </g>
            <path d="M18.647,9.2207 C18.489,7.4607 17.8,5.7927 16.663,4.4347 L15.558,5.5397 C16.409,6.5987 16.936,7.8767 17.084,9.2207 C17.112,9.4787 17.126,9.7387 17.126,9.9997 C17.126,10.2607 17.112,10.5197 17.084,10.7767 C16.937,12.1207 16.41,13.3987 15.56,14.4577 L16.665,15.5627 C17.801,14.2047 18.49,12.5367 18.647,10.7767 C18.67,10.5197 18.682,10.2607 18.682,9.9997 C18.682,9.7387 18.67,9.4787 18.647,9.2207" id="Fill-11" fill="#9AA5B5" fill-rule="nonzero"></path>
            <g id="Group-15" transform="translate(9.000000, 0.000000)">
                <g id="Fill-13-Clipped">
                    <mask id="mask-6" fill="white">
                        <use xlink:href="#path-5"></use>
                    </mask>
                    <g id="path-5"></g>
                    <path d="M1.7793,1.353 L1.7793,0.778 C1.7793,0.349 1.4303,-3.55271368e-15 1.0013,-3.55271368e-15 C0.5723,-3.55271368e-15 0.2233,0.349 0.2233,0.778 L0.2233,1.353 C0.4803,1.33 0.7393,1.318 1.0003,1.318 C1.2613,1.318 1.5213,1.33 1.7793,1.353" id="Fill-13" fill="#4D5969" fill-rule="nonzero" mask="url(#mask-6)"></path>
                </g>
            </g>
            <path d="M1.353,9.2207 L0.778,9.2207 C0.349,9.2207 0,9.5697 0,9.9987 C0,10.4277 0.349,10.7767 0.778,10.7767 L1.353,10.7767 C1.33,10.5197 1.318,10.2607 1.318,9.9997 C1.318,9.7387 1.33,9.4787 1.353,9.2207" id="Fill-16" fill="#4D5969" fill-rule="nonzero"></path>
            <path d="M10.585,13.4658 C10.399,13.5428 10.202,13.5818 10.001,13.5818 C9.799,13.5818 9.603,13.5428 9.417,13.4658 L9.224,13.3858 L9.224,17.0838 C9.48,17.1118 9.739,17.1258 10,17.1258 C10.262,17.1258 10.522,17.1118 10.779,17.0838 L10.779,13.3848 L10.585,13.4658 Z" id="Fill-18" fill="#4D5969" fill-rule="nonzero"></path>
            <path d="M14.4595,15.5581 C13.4005,16.4091 12.1235,16.9351 10.7795,17.0831 C10.5215,17.1111 10.2615,17.1261 10.0005,17.1261 C9.7395,17.1261 9.4805,17.1121 9.2235,17.0831 C7.8775,16.9361 6.6005,16.4091 5.5405,15.5581 L4.4355,16.6631 C5.7935,17.8011 7.4625,18.4901 9.2235,18.6471 C9.4805,18.6701 9.7395,18.6821 10.0005,18.6821 C10.2615,18.6821 10.5215,18.6701 10.7795,18.6471 C12.5395,18.4891 14.2075,17.8001 15.5645,16.6631 L14.4595,15.5581 Z" id="Fill-20" fill="#9AA5B5" fill-rule="nonzero"></path>
            <path d="M7.9624,12.8643 C7.5864,12.7083 7.2934,12.4153 7.1364,12.0383 L7.0554,11.8423 L4.4404,14.4573 L3.3354,15.5633 L2.9284,15.9703 C2.6244,16.2733 2.6244,16.7663 2.9284,17.0703 C3.0754,17.2173 3.2704,17.2983 3.4784,17.2983 C3.6854,17.2983 3.8804,17.2173 4.0284,17.0703 L4.4354,16.6633 L5.5404,15.5573 L8.1544,12.9433 L7.9624,12.8643 Z" id="Fill-22" fill="#4D5969" fill-rule="nonzero"></path>
            <path d="M6.5342,10.585 C6.3782,10.209 6.3782,9.793 6.5342,9.417 L6.6152,9.221 L2.9162,9.221 C2.8882,9.479 2.8742,9.738 2.8742,10 C2.8742,10.261 2.8882,10.52 2.9162,10.776 L6.6142,10.776 L6.5342,10.585 Z" id="Fill-24" fill="#4D5969" fill-rule="nonzero"></path>
            <path d="M2.874,10 C2.874,9.738 2.888,9.479 2.916,9.221 C3.064,7.876 3.591,6.599 4.442,5.54 L3.337,4.435 C2.2,5.793 1.511,7.461 1.353,9.221 C1.33,9.479 1.318,9.739 1.318,10 C1.318,10.26 1.33,10.52 1.353,10.776 C1.51,12.537 2.199,14.205 3.335,15.563 L4.44,14.458 C3.59,13.398 3.063,12.121 2.916,10.776 C2.888,10.52 2.874,10.261 2.874,10" id="Fill-26" fill="#9AA5B5" fill-rule="nonzero"></path>
            <path d="M9.4155,6.5342 C9.7875,6.3802 10.2105,6.3802 10.5825,6.5342 L10.7795,6.6152 L10.7795,2.9162 C10.5215,2.8882 10.2615,2.8732 9.9995,2.8732 C9.7395,2.8732 9.4795,2.8882 9.2235,2.9162 L9.2235,6.6142 L9.4155,6.5342 Z" id="Fill-28" fill="#4D5969" fill-rule="nonzero"></path>
            <path d="M10.7793,1.353 C10.5213,1.33 10.2613,1.318 10.0003,1.318 C9.7393,1.318 9.4803,1.33 9.2233,1.353 C7.4633,1.51 5.7953,2.199 4.4373,3.335 L5.5423,4.44 C6.6013,3.59 7.8793,3.063 9.2233,2.916 C9.4803,2.888 9.7393,2.874 10.0003,2.874 C10.2613,2.874 10.5213,2.888 10.7793,2.916 C12.1233,3.064 13.3993,3.591 14.4573,4.44 L15.5633,3.335 C14.2053,2.199 12.5383,1.51 10.7793,1.353" id="Fill-30" fill="#9AA5B5" fill-rule="nonzero"></path>
            <path d="M17.0718,15.9702 L16.6648,15.5632 L15.5598,14.4572 L12.9448,11.8432 L12.8638,12.0372 C12.7088,12.4132 12.4148,12.7072 12.0388,12.8632 L11.8448,12.9432 L14.4598,15.5582 L15.5648,16.6632 L15.9718,17.0702 C16.1188,17.2172 16.3148,17.2982 16.5218,17.2982 C16.7298,17.2982 16.9248,17.2172 17.0718,17.0702 C17.3758,16.7662 17.3758,16.2732 17.0718,15.9702" id="Fill-32" fill="#4D5969" fill-rule="nonzero"></path>
            <path d="M8.5693,11.4316 L7.9763,10.0006 L8.5693,8.5696 L9.9993,7.9756 L11.4303,8.5686 L12.0243,9.9996 L11.4313,11.4306 L10.0003,12.0236 L8.5693,11.4316 Z M13.4653,9.4146 L13.3853,9.2206 L12.9433,8.1546 L12.8633,7.9616 C12.7073,7.5846 12.4133,7.2916 12.0373,7.1356 L11.8423,7.0556 L10.7793,6.6156 L10.5833,6.5336 C10.2113,6.3796 9.7873,6.3796 9.4153,6.5346 L9.2233,6.6136 L8.1573,7.0556 L7.9613,7.1366 C7.5853,7.2926 7.2913,7.5856 7.1353,7.9626 L7.0563,8.1546 L6.6153,9.2206 L6.5333,9.4166 C6.3783,9.7936 6.3783,10.2086 6.5343,10.5846 L6.6133,10.7766 L7.0553,11.8426 L7.1363,12.0386 C7.2933,12.4146 7.5863,12.7076 7.9623,12.8646 L8.1543,12.9436 L9.2233,13.3866 L9.4173,13.4666 C9.6023,13.5426 9.7983,13.5816 10.0003,13.5816 C10.2023,13.5816 10.3993,13.5426 10.5853,13.4656 L10.7793,13.3856 L11.8453,12.9436 L12.0383,12.8636 C12.4153,12.7066 12.7083,12.4136 12.8643,12.0366 L12.9443,11.8426 L13.3863,10.7766 L13.4663,10.5826 C13.6223,10.2066 13.6223,9.7916 13.4653,9.4146 L13.4653,9.4146 Z" id="Fill-34" fill="#9AA5B5" fill-rule="nonzero"></path>
            <path d="M5.5425,4.4404 L4.4375,3.3354 L4.0295,2.9284 C3.7265,2.6244 3.2335,2.6244 2.9305,2.9284 C2.6265,3.2314 2.6265,3.7244 2.9305,4.0274 L3.3365,4.4354 L4.4415,5.5404 L7.0565,8.1544 L7.1355,7.9624 C7.2915,7.5864 7.5845,7.2934 7.9615,7.1364 L8.1575,7.0554 L5.5425,4.4404 Z" id="Fill-36" fill="#4D5969" fill-rule="nonzero"></path>
        </g>
    </g>
</svg>