<?xml version="1.0" encoding="UTF-8"?>
<svg width="21px" height="20px" viewBox="0 0 21 20" version="1.1" xmlns="http://www.w3.org/2000/svg" xmlns:xlink="http://www.w3.org/1999/xlink">
    <!-- Generator: Sketch 54.1 (76490) - https://sketchapp.com -->
    <title>Group</title>
    <desc>Created with Sketch.</desc>
    <g id="Page-1" stroke="none" stroke-width="1" fill="none" fill-rule="evenodd">
        <g id="Product-Logos" transform="translate(-287.000000, -166.000000)" stroke-width="1.75">
            <g id="Group" transform="translate(287.000000, 166.000000)">
                <path d="M9,1 L6,7 L10.0318354,17.7515611 C10.1287955,18.0101213 10.4170016,18.141124 10.6755617,18.044164 C10.8107734,17.9934596 10.9174602,17.8867728 10.9681646,17.7515611 L15,7 L12,1" id="Path-3" stroke="#4D5969"></path>
                <path d="M10.5983809,19.065577 L19.9260596,7.16508415 C19.9555282,7.12748727 19.9609926,7.07638272 19.9401393,7.03340518 L16.9861741,0.945432597 C16.9652714,0.902353173 16.9215962,0.875 16.8737134,0.875 L4.12628657,0.875 C4.0784038,0.875 4.03472863,0.902353173 4.01382592,0.945432597 L1.05986072,7.03340518 C1.03900745,7.07638272 1.04447179,7.12748727 1.07394045,7.16508415 L10.4016191,19.065577 C10.4442066,19.1199112 10.5227773,19.1294339 10.5771116,19.0868463 C10.5850316,19.0806385 10.5921731,19.073497 10.5983809,19.065577 Z" id="Path-2" stroke="#9AA5B5"></path>
            </g>
        </g>
    </g>
</svg>