<?xml version="1.0" encoding="UTF-8"?>
<svg width="75px" height="66px" viewBox="0 0 75 66" version="1.1" xmlns="http://www.w3.org/2000/svg" xmlns:xlink="http://www.w3.org/1999/xlink">
    <!-- Generator: Sketch 54.1 (76490) - https://sketchapp.com -->
    <title>Group 3</title>
    <desc>Created with Sketch.</desc>
    <g id="Page-1" stroke="none" stroke-width="1" fill="none" fill-rule="evenodd">
        <g id="Artboard" transform="translate(-20.000000, -20.000000)">
            <g id="Group" transform="translate(20.000000, 20.000000)">
                <g id="Group-3">
                    <rect id="Rectangle" fill="#F2F4F6" x="0" y="0" width="75" height="66" rx="4"></rect>
                    <rect id="Rectangle" fill="#D5DAE0" opacity="0.400000006" x="0" y="38" width="75" height="6"></rect>
                    <rect id="Rectangle-Copy-2" fill="#D5DAE0" opacity="0.400000006" x="0" y="22" width="75" height="6"></rect>
                    <path d="M37.82,37.468 C37.82,37.748 37.568,38.084 37.19,38.084 C36.952,38.084 36.728,37.944 36.63,37.706 L35.93,35.928 L31.282,35.928 L30.582,37.706 C30.484,37.944 30.26,38.084 30.022,38.084 C29.658,38.084 29.392,37.79 29.392,37.468 C29.392,37.398 29.406,37.314 29.434,37.244 L32.654,29.208 C32.808,28.83 33.172,28.578 33.606,28.578 C34.012,28.578 34.376,28.83 34.53,29.208 L37.778,37.244 C37.806,37.314 37.82,37.398 37.82,37.468 Z M31.618,34.892 L35.58,34.892 L33.606,29.866 L31.618,34.892 Z M44.54,33.352 L44.54,37.566 C44.54,37.846 44.302,38.084 44.008,38.084 C43.714,38.084 43.49,37.832 43.49,37.538 L43.49,37.23 C42.93,37.846 42.16,38.168 41.25,38.168 C40.102,38.168 38.884,37.398 38.884,35.928 C38.884,34.416 40.102,33.912 41.25,33.912 L43.49,33.912 L43.49,33.408 C43.49,32.498 42.762,31.98 41.782,31.98 C41.11,31.98 40.536,32.19 40.018,32.624 C39.486,33.044 39.01,32.344 39.402,32.008 C40.116,31.364 40.956,31.07 41.922,31.07 C43.35,31.07 44.54,31.714 44.54,33.352 Z M43.49,34.668 L41.628,34.668 C40.648,34.668 39.962,35.074 39.962,35.942 C39.962,36.796 40.508,37.412 41.488,37.412 C42.51,37.412 43.49,36.572 43.49,35.732 L43.49,34.668 Z" id="Aa" fill="#22272E" fill-rule="nonzero"></path>
                </g>
            </g>
        </g>
    </g>
</svg>