<?xml version="1.0" encoding="UTF-8"?>
<svg width="200px" height="200px" viewBox="0 0 200 200" version="1.1" xmlns="http://www.w3.org/2000/svg" xmlns:xlink="http://www.w3.org/1999/xlink">
    <!-- Generator: Sketch 54.1 (76490) - https://sketchapp.com -->
    <title>Stroke 1</title>
    <desc>Created with Sketch.</desc>
    <g id="Stroke-1" stroke="none" stroke-width="1" fill="none" fill-rule="evenodd">
        <path d="M172.7495,122.1201 L146.2525,106.8221 C146.1115,106.5131 145.9855,106.2911 145.8845,106.1981 C145.0905,105.4781 130.4545,105.1491 130.4545,105.1491 L130.4545,122.9271 L130.4635,122.9271 C130.4635,123.5861 131.2095,124.2291 132.4815,124.4271 C134.3635,124.7171 136.1425,125.2881 137.6185,126.1411 C139.3795,127.1571 140.4435,128.4221 140.8245,129.7391 L99.9995,122.1201 L99.9995,139.8981 L111.8795,139.1391 L104.1855,139.1391 L104.1855,156.9171 L104.1895,156.9181 C104.1895,158.3851 105.0135,159.8501 106.6625,161.0431 C111.0265,164.2011 119.0235,164.3921 123.8295,161.6181 C125.3055,160.7661 126.2945,159.7391 126.7975,158.6521 C127.3315,157.5021 129.7665,157.0851 131.2265,157.9281 L145.1725,165.9791 L187.8585,141.3341 C188.5455,140.9371 188.8885,140.4181 188.8885,139.8981 L188.8885,122.1201 L172.7495,122.1201 Z" id="Fill-1" fill="#D5DAE0"></path>
        <path d="M172.7495,122.1201 L146.2525,106.8221 C146.1115,106.5131 145.9855,106.2911 145.8845,106.1981 C145.0905,105.4781 130.4545,105.1491 130.4545,105.1491 L130.4545,122.9271 L130.4635,122.9271 C130.4635,123.5861 131.2095,124.2291 132.4815,124.4271 C134.3635,124.7171 136.1425,125.2881 137.6185,126.1411 C139.3795,127.1571 140.4435,128.4221 140.8245,129.7391 L99.9995,122.1201 L99.9995,139.8981 L111.8795,139.1391 L104.1855,139.1391 L104.1855,156.9171 L104.1895,156.9181 C104.1895,158.3851 105.0135,159.8501 106.6625,161.0431 C111.0265,164.2011 119.0235,164.3921 123.8295,161.6181 C125.3055,160.7661 126.2945,159.7391 126.7975,158.6521 C127.3315,157.5021 129.7665,157.0851 131.2265,157.9281 L145.1725,165.9791 L187.8585,141.3341 C188.5455,140.9371 188.8885,140.4181 188.8885,139.8981 L188.8885,122.1201 L172.7495,122.1201 Z" id="Stroke-3" stroke="#627386" stroke-width="2" stroke-linecap="round" stroke-linejoin="round"></path>
        <path d="M154.5967,111.6396 L146.2527,106.8226 C146.1117,106.5126 145.9857,106.2906 145.8847,106.1986 C145.0907,105.4786 130.4547,105.1496 130.4547,105.1496 L130.4547,122.9266 L130.4637,122.9266 C130.4637,123.5856 131.2097,124.2296 132.4817,124.4266 C134.3637,124.7166 136.1417,117.6686 137.6187,118.5216 C139.3797,119.5376 140.4437,128.4216 140.8247,129.7396 L117.3467,122.1196 L117.3467,128.1816 L154.5967,128.1816 L154.5967,111.6396 Z" id="Fill-5" fill="#F2F4F6"></path>
        <path d="M172.7495,122.1201 L146.2525,106.8221 C146.1115,106.5131 145.9855,106.2911 145.8845,106.1981 C145.0905,105.4781 130.4545,105.1491 130.4545,105.1491 L130.4545,122.9271 L130.4635,122.9271 C130.4635,123.5861 131.2095,124.2291 132.4815,124.4271 C134.3635,124.7171 136.1425,125.2881 137.6185,126.1411 C139.3795,127.1571 140.4435,128.4221 140.8245,129.7391 L99.9995,122.1201 L99.9995,139.8981 L111.8795,139.1391 L104.1855,139.1391 L104.1855,156.9171 L104.1895,156.9181 C104.1895,158.3851 105.0135,159.8501 106.6625,161.0431 C111.0265,164.2011 119.0235,164.3921 123.8295,161.6181 C125.3055,160.7661 126.2945,159.7391 126.7975,158.6521 C127.3315,157.5021 129.7665,157.0851 131.2265,157.9281 L145.1725,165.9791 L187.8585,141.3341 C188.5455,140.9371 188.8885,140.4181 188.8885,139.8981 L188.8885,122.1201 L172.7495,122.1201 Z" id="Stroke-7" stroke="#627386" stroke-width="2" stroke-linecap="round" stroke-linejoin="round"></path>
        <path d="M127.5762,40.1655 L102.4862,25.6795 C101.1122,24.8865 98.8862,24.8865 97.5122,25.6795 L72.4222,40.1655 L54.8262,47.7845 L54.8262,65.5625 L68.7722,73.6145 C69.3192,73.9305 70.0032,74.0695 70.6742,74.0595 C71.7902,74.0415 72.8672,73.6085 73.2012,72.8895 C73.7032,71.8035 74.6922,70.7765 76.1692,69.9235 C76.4772,69.7465 76.7982,69.5815 77.1302,69.4285 C77.2062,69.3925 77.2892,69.3635 77.3672,69.3295 C77.6282,69.2155 77.8922,69.1025 78.1642,69.0035 C78.2422,68.9755 78.3232,68.9535 78.4002,68.9265 C78.6842,68.8285 78.9702,68.7325 79.2642,68.6505 C79.3262,68.6325 79.3902,68.6205 79.4532,68.6025 C79.7702,68.5185 80.0912,68.4385 80.4182,68.3715 C80.4592,68.3625 80.5012,68.3565 80.5422,68.3485 C80.8952,68.2785 81.2522,68.2155 81.6152,68.1655 C81.6312,68.1645 81.6482,68.1625 81.6652,68.1605 C82.0522,68.1085 82.4422,68.0665 82.8352,68.0385 L82.8372,68.0375 C83.6502,67.9785 84.4712,67.9685 85.2852,68.0085 L85.2852,72.3505 L85.2852,82.5085 C85.2842,82.8965 85.5332,83.2915 86.0672,83.6005 L99.9982,91.6435 L113.9302,83.6005 C114.4632,83.2925 115.1462,83.1485 115.8192,83.1485 C116.9402,83.1485 118.0302,83.5475 118.3432,84.2505 C118.9522,85.6225 120.3322,86.9035 122.4892,87.8645 C124.5552,88.7855 127.0682,89.2385 129.5752,89.2265 C132.0822,89.2135 134.5822,88.7365 136.6222,87.7965 C139.5342,86.4555 140.9752,84.5195 140.9752,82.5835 L140.9902,82.5835 L140.9902,74.9645 L140.9902,72.4255 L140.9902,67.9775 L145.1722,65.5625 L145.1722,57.9435 L145.1722,47.7845 L127.5762,40.1655 Z" id="Fill-9" fill="#D3EDFD"></path>
        <path d="M127.5762,40.1655 L102.4862,25.6795 C101.1122,24.8865 98.8862,24.8865 97.5122,25.6795 L72.4222,40.1655 L54.8262,47.7845 L54.8262,65.5625 L68.7722,73.6145 C69.3192,73.9305 70.0032,74.0695 70.6742,74.0595 C71.7902,74.0415 72.8672,73.6085 73.2012,72.8895 C73.7032,71.8035 74.6922,70.7765 76.1692,69.9235 C76.4772,69.7465 76.7982,69.5815 77.1302,69.4285 C77.2062,69.3925 77.2892,69.3635 77.3672,69.3295 C77.6282,69.2155 77.8922,69.1025 78.1642,69.0035 C78.2422,68.9755 78.3232,68.9535 78.4002,68.9265 C78.6842,68.8285 78.9702,68.7325 79.2642,68.6505 C79.3262,68.6325 79.3902,68.6205 79.4532,68.6025 C79.7702,68.5185 80.0912,68.4385 80.4182,68.3715 C80.4592,68.3625 80.5012,68.3565 80.5422,68.3485 C80.8952,68.2785 81.2522,68.2155 81.6152,68.1655 C81.6312,68.1645 81.6482,68.1625 81.6652,68.1605 C82.0522,68.1085 82.4422,68.0665 82.8352,68.0385 L82.8372,68.0375 C83.6502,67.9785 84.4712,67.9685 85.2852,68.0085 L85.2852,72.3505 L85.2852,82.5085 C85.2842,82.8965 85.5332,83.2915 86.0672,83.6005 L99.9982,91.6435 L113.9302,83.6005 C114.4632,83.2925 115.1462,83.1485 115.8192,83.1485 C116.9402,83.1485 118.0302,83.5475 118.3432,84.2505 C118.9522,85.6225 120.3322,86.9035 122.4892,87.8645 C124.5552,88.7855 127.0682,89.2385 129.5752,89.2265 C132.0822,89.2135 134.5822,88.7365 136.6222,87.7965 C139.5342,86.4555 140.9752,84.5195 140.9752,82.5835 L140.9902,82.5835 L140.9902,74.9645 L140.9902,72.4255 L140.9902,67.9775 L145.1722,65.5625 L145.1722,57.9435 L145.1722,47.7845 L127.5762,40.1655 Z" id="Stroke-11" stroke="#1B6DC6" stroke-width="2" stroke-linecap="round" stroke-linejoin="round"></path>
        <path d="M115.4419,83.1763 L115.4419,48.2053 L99.9989,48.2053 L99.9989,91.6433 L113.9289,83.6003 C114.3619,83.3503 114.8969,83.2203 115.4419,83.1763" id="Fill-13" fill="#91D2FB"></path>
        <path d="M70.9966,47.7847 L70.9966,74.0307 C71.9916,73.9417 72.8996,73.5387 73.2006,72.8897 C73.7036,71.8037 74.6916,70.7767 76.1686,69.9237 C79.7386,67.8627 85.0686,67.4417 89.3636,68.6557 L97.5116,64.6877 L97.5116,33.2987 L72.4216,47.7847 L70.9966,47.7847 Z" id="Fill-15" fill="#91D2FB"></path>
        <path d="M140.9893,64.8057 L137.0303,64.8007 L137.0303,87.5857 C139.6573,86.2557 140.9743,84.4237 140.9743,82.5837 L140.9893,82.5837 L140.9893,64.8057 Z" id="Fill-17" fill="#91D2FB"></path>
        <polygon id="Fill-19" fill="#91D2FB" points="137.0298 70.2637 145.1718 65.5627 145.1718 47.7847 137.0298 47.7847"></polygon>
        <path d="M127.5762,40.1655 L102.4862,25.6795 C101.1122,24.8865 98.8862,24.8865 97.5122,25.6795 L72.4222,40.1655 L54.8262,47.7845 L54.8262,65.5625 L68.7722,73.6145 C69.3192,73.9305 70.0032,74.0695 70.6742,74.0595 C71.7902,74.0415 72.8672,73.6085 73.2012,72.8895 C73.7032,71.8035 74.6922,70.7765 76.1692,69.9235 C76.4772,69.7465 76.7982,69.5815 77.1302,69.4285 C77.2062,69.3925 77.2892,69.3635 77.3672,69.3295 C77.6282,69.2155 77.8922,69.1025 78.1642,69.0035 C78.2422,68.9755 78.3232,68.9535 78.4002,68.9265 C78.6842,68.8285 78.9702,68.7325 79.2642,68.6505 C79.3262,68.6325 79.3902,68.6205 79.4532,68.6025 C79.7702,68.5185 80.0912,68.4385 80.4182,68.3715 C80.4592,68.3625 80.5012,68.3565 80.5422,68.3485 C80.8952,68.2785 81.2522,68.2155 81.6152,68.1655 C81.6312,68.1645 81.6482,68.1625 81.6652,68.1605 C82.0522,68.1085 82.4422,68.0665 82.8352,68.0385 L82.8372,68.0375 C83.6502,67.9785 84.4712,67.9685 85.2852,68.0085 L85.2852,72.3505 L85.2852,82.5085 C85.2842,82.8965 85.5332,83.2915 86.0672,83.6005 L99.9982,91.6435 L113.9302,83.6005 C114.4632,83.2925 115.1462,83.1485 115.8192,83.1485 C116.9402,83.1485 118.0302,83.5475 118.3432,84.2505 C118.9522,85.6225 120.3322,86.9035 122.4892,87.8645 C124.5552,88.7855 127.0682,89.2385 129.5752,89.2265 C132.0822,89.2135 134.5822,88.7365 136.6222,87.7965 C139.5342,86.4555 140.9752,84.5195 140.9752,82.5835 L140.9902,82.5835 L140.9902,74.9645 L140.9902,72.4255 L140.9902,67.9775 L145.1722,65.5625 L145.1722,57.9435 L145.1722,47.7845 L127.5762,40.1655 Z" id="Stroke-21" stroke="#1B6DC6" stroke-width="2" stroke-linecap="round" stroke-linejoin="round"></path>
        <path d="M93.4522,60.8818 C91.7862,62.1268 89.5692,62.9228 87.1932,63.2748 C85.2452,63.5628 84.6452,65.0008 86.0672,65.8218 L99.9982,73.8648 L113.9302,65.8218 C115.3512,65.0018 117.8442,65.3478 118.3432,66.4728 C118.9522,67.8448 120.3322,69.1258 122.4892,70.0868 C126.6212,71.9278 132.5422,71.8978 136.6222,70.0178 C142.0922,67.4988 142.4242,62.8818 137.6192,60.1078 C136.1412,59.2548 134.3632,58.6838 132.4812,58.3928 C130.4882,58.0858 129.7662,56.6788 131.2252,55.8368 L145.1722,47.7848 L102.4852,23.1398 C101.1122,22.3468 98.8862,22.3468 97.5122,23.1398 L54.8262,47.7848 L68.7712,55.8368 C70.2312,56.6788 72.6672,56.2628 73.2002,55.1108 C73.7032,54.0248 74.6922,52.9988 76.1692,52.1458 C80.9752,49.3708 88.9742,49.5628 93.3372,52.7218 C96.5922,55.0788 96.6422,58.4968 93.4522,60.8818" id="Fill-23" fill="#E9F6FE"></path>
        <path d="M93.4522,60.8818 C91.7862,62.1268 89.5692,62.9228 87.1932,63.2748 C85.2452,63.5628 84.6452,65.0008 86.0672,65.8218 L99.9982,73.8648 L113.9302,65.8218 C115.3512,65.0018 117.8442,65.3478 118.3432,66.4728 C118.9522,67.8448 120.3322,69.1258 122.4892,70.0868 C126.6212,71.9278 132.5422,71.8978 136.6222,70.0178 C142.0922,67.4988 142.4242,62.8818 137.6192,60.1078 C136.1412,59.2548 134.3632,58.6838 132.4812,58.3928 C130.4882,58.0858 129.7662,56.6788 131.2252,55.8368 L145.1722,47.7848 L102.4852,23.1398 C101.1122,22.3468 98.8862,22.3468 97.5122,23.1398 L54.8262,47.7848 L68.7712,55.8368 C70.2312,56.6788 72.6672,56.2628 73.2002,55.1108 C73.7032,54.0248 74.6922,52.9988 76.1692,52.1458 C80.9752,49.3708 88.9742,49.5628 93.3372,52.7218 C96.5922,55.0788 96.6422,58.4968 93.4522,60.8818 Z" id="Stroke-25" stroke="#1B6DC6" stroke-width="2" stroke-linecap="round" stroke-linejoin="round"></path>
        <path d="M91.7398,129.7412 L86.0708,131.8572 C84.6488,131.0362 85.2488,129.5972 87.1968,129.3092 C89.5728,128.9572 91.7918,128.1612 93.4558,126.9152 C95.0298,125.7382 95.8108,124.3102 95.8108,122.8822 L95.8148,122.8822 L95.8148,105.1032 L77.0318,106.2002 L75.2208,111.1882 C74.2638,111.8992 73.5878,112.6942 73.2018,113.5272 C72.6688,114.6782 70.2338,115.0952 68.7738,114.2522 L54.8278,106.2002 L21.8488,125.2402 L11.1118,122.1222 L11.1118,139.9002 C11.1118,140.4202 11.4548,140.9392 12.1408,141.3362 L54.8278,165.9812 L68.7748,157.9282 C69.3028,157.6242 69.5378,157.2442 69.5368,156.8692 L69.5448,156.8722 L69.5448,146.7132 L61.9838,144.5162 C62.4088,144.2452 62.8638,143.9832 63.3808,143.7462 C67.4608,141.8672 73.3818,141.8382 77.5128,143.6792 C79.6688,144.6412 81.0478,145.9222 81.6568,147.2942 C82.1558,148.4182 84.6478,148.7642 86.0688,147.9442 L100.0008,139.9002 L100.0008,129.7412 L91.7398,129.7412 Z" id="Fill-27" fill="#D5DAE0"></path>
        <path d="M91.7398,129.7412 L86.0708,131.8572 C84.6488,131.0362 85.2488,129.5972 87.1968,129.3092 C89.5728,128.9572 91.7918,128.1612 93.4558,126.9152 C95.0298,125.7382 95.8108,124.3102 95.8108,122.8822 L95.8148,122.8822 L95.8148,105.1032 L77.0318,106.2002 L75.2208,111.1882 C74.2638,111.8992 73.5878,112.6942 73.2018,113.5272 C72.6688,114.6782 70.2338,115.0952 68.7738,114.2522 L54.8278,106.2002 L21.8488,125.2402 L11.1118,122.1222 L11.1118,139.9002 C11.1118,140.4202 11.4548,140.9392 12.1408,141.3362 L54.8278,165.9812 L68.7748,157.9282 C69.3028,157.6242 69.5378,157.2442 69.5368,156.8692 L69.5448,156.8722 L69.5448,146.7132 L61.9838,144.5162 C62.4088,144.2452 62.8638,143.9832 63.3808,143.7462 C67.4608,141.8672 73.3818,141.8382 77.5128,143.6792 C79.6688,144.6412 81.0478,145.9222 81.6568,147.2942 C82.1558,148.4182 84.6478,148.7642 86.0688,147.9442 L100.0008,139.9002 L100.0008,129.7412 L91.7398,129.7412 Z" id="Stroke-29" stroke="#627386" stroke-width="2" stroke-linecap="round" stroke-linejoin="round"></path>
        <path d="M65.2823,135.4346 L65.2823,112.2366 L54.8283,106.2006 L21.8483,125.2406 L11.1113,122.1216 L11.1113,139.9006 C11.1113,140.4196 11.4543,140.9396 12.1413,141.3356 L54.8283,165.9806 L65.2823,159.9456 L65.2823,137.8556 L61.9833,136.8976 C62.4083,136.6256 62.8643,136.3646 63.3803,136.1266 C63.9763,135.8526 64.6193,135.6296 65.2823,135.4346" id="Fill-31" fill="#F2F4F6"></path>
        <path d="M91.7398,129.7412 L86.0708,131.8572 C84.6488,131.0362 85.2488,129.5972 87.1968,129.3092 C89.5728,128.9572 91.7918,128.1612 93.4558,126.9152 C95.0298,125.7382 95.8108,124.3102 95.8108,122.8822 L95.8148,122.8822 L95.8148,105.1032 L77.0318,106.2002 L75.2208,111.1882 C74.2638,111.8992 73.5878,112.6942 73.2018,113.5272 C72.6688,114.6782 70.2338,115.0952 68.7738,114.2522 L54.8278,106.2002 L21.8488,125.2402 L11.1118,122.1222 L11.1118,139.9002 C11.1118,140.4202 11.4548,140.9392 12.1408,141.3362 L54.8278,165.9812 L68.7748,157.9282 C69.3028,157.6242 69.5378,157.2442 69.5368,156.8692 L69.5448,156.8722 L69.5448,139.0942 L61.9838,136.8972 C62.4088,136.6262 62.8638,136.3642 63.3808,136.1272 C67.4608,134.2482 73.3818,134.2192 77.5128,136.0602 C79.6688,137.0222 81.0478,145.9222 81.6568,147.2942 C82.1558,148.4182 84.6478,148.7642 86.0688,147.9442 L100.0008,139.9002 L100.0008,122.1222 L91.7398,129.7412 Z" id="Stroke-33" stroke="#627386" stroke-width="2" stroke-linecap="round" stroke-linejoin="round"></path>
        <path d="M104.3482,148.2031 C104.6482,147.1531 105.3782,146.1401 106.5482,145.2651 C108.2132,144.0191 110.4312,143.2241 112.8062,142.8721 C114.0242,142.6921 114.7152,142.0621 114.7152,141.4151 L114.7152,131.2561 L59.0102,131.1821 L59.0102,141.3411 L59.0252,141.3411 C59.0252,143.0411 60.1342,144.7411 62.3812,146.0391 C63.8582,146.8911 65.6372,147.4631 67.5182,147.7531 C68.0472,147.8351 68.4792,147.9971 68.8122,148.2031 L54.8282,148.2031 L54.8282,165.9811 L97.5142,190.6261 C98.8882,191.4191 101.1142,191.4191 102.4882,190.6261 L145.1742,165.9801 L145.1742,148.2031 L104.3482,148.2031 Z" id="Fill-35" fill="#D5DAE0"></path>
        <path d="M104.3482,148.2031 C104.6482,147.1531 105.3782,146.1401 106.5482,145.2651 C108.2132,144.0191 110.4312,143.2241 112.8062,142.8721 C114.0242,142.6921 114.7152,142.0621 114.7152,141.4151 L114.7152,131.2561 L59.0102,131.1821 L59.0102,141.3411 L59.0252,141.3411 C59.0252,143.0411 60.1342,144.7411 62.3812,146.0391 C63.8582,146.8911 65.6372,147.4631 67.5182,147.7531 C68.0472,147.8351 68.4792,147.9971 68.8122,148.2031 L54.8282,148.2031 L54.8282,165.9811 L97.5142,190.6261 C98.8882,191.4191 101.1142,191.4191 102.4882,190.6261 L145.1742,165.9801 L145.1742,148.2031 L104.3482,148.2031 Z" id="Stroke-37" stroke="#627386" stroke-width="2" stroke-linecap="round" stroke-linejoin="round"></path>
        <path d="M99.9991,131.2363 L59.0101,131.1813 L59.0101,141.3403 L59.0251,141.3403 C59.0251,143.0413 60.1341,144.7413 62.3811,146.0393 C63.8581,146.8913 65.6371,147.4633 67.5181,147.7533 C68.0471,147.8353 68.4791,147.9973 68.8121,148.2033 L54.8281,148.2033 L54.8281,165.9813 L97.5141,190.6263 C98.2011,191.0223 99.1001,191.2203 99.9991,191.2203 L99.9991,131.2363 Z" id="Fill-39" fill="#F2F4F6"></path>
        <path d="M104.3482,148.2031 C104.6482,147.1531 105.3782,146.1401 106.5482,145.2651 C108.2132,144.0191 110.4312,143.2241 112.8062,142.8721 C114.0242,142.6921 114.7152,142.0621 114.7152,141.4151 L114.7152,131.2561 L59.0102,131.1821 L59.0102,141.3411 L59.0252,141.3411 C59.0252,143.0411 60.1342,144.7411 62.3812,146.0391 C63.8582,146.8911 65.6372,147.4631 67.5182,147.7531 C68.0472,147.8351 68.4792,147.9971 68.8122,148.2031 L54.8282,148.2031 L54.8282,165.9811 L97.5142,190.6261 C98.8882,191.4191 101.1142,191.4191 102.4882,190.6261 L145.1742,165.9801 L145.1742,148.2031 L104.3482,148.2031 Z" id="Stroke-41" stroke="#627386" stroke-width="2" stroke-linecap="round" stroke-linejoin="round"></path>
        <path d="M77.5127,125.9014 C79.6687,126.8634 81.0477,128.1434 81.6567,129.5154 C82.1557,130.6394 84.6477,130.9864 86.0697,130.1664 L100.0007,122.1224 L86.0707,114.0794 C84.6487,113.2574 85.2487,111.8194 87.1967,111.5314 C89.5727,111.1794 91.7907,110.3824 93.4557,109.1364 C96.6457,106.7524 96.5927,103.3334 93.3377,100.9774 C88.9727,97.8194 80.9767,97.6284 76.1717,100.4024 C74.6937,101.2554 73.7057,102.2824 73.2017,103.3684 C72.6687,104.5194 70.2337,104.9354 68.7737,104.0924 L54.8277,96.0414 L12.1407,120.6864 C10.7677,121.4794 10.7677,122.7644 12.1407,123.5574 L54.8277,148.2034 L68.7737,140.1514 C70.2337,139.3084 69.5127,137.9024 67.5177,137.5944 C65.6367,137.3034 63.8587,136.7334 62.3807,135.8804 C57.5757,133.1054 57.9087,128.4874 63.3807,125.9674 C67.4607,124.0894 73.3817,124.0594 77.5127,125.9014" id="Fill-43" fill="#FFFFFF"></path>
        <path d="M77.5127,125.9014 C79.6687,126.8634 81.0477,128.1434 81.6567,129.5154 C82.1557,130.6394 84.6477,130.9864 86.0697,130.1664 L100.0007,122.1224 L86.0707,114.0794 C84.6487,113.2574 85.2487,111.8194 87.1967,111.5314 C89.5727,111.1794 91.7907,110.3824 93.4557,109.1364 C96.6457,106.7524 96.5927,103.3334 93.3377,100.9774 C88.9727,97.8194 80.9767,97.6284 76.1717,100.4024 C74.6937,101.2554 73.7057,102.2824 73.2017,103.3684 C72.6687,104.5194 70.2337,104.9354 68.7737,104.0924 L54.8277,96.0414 L12.1407,120.6864 C10.7677,121.4794 10.7677,122.7644 12.1407,123.5574 L54.8277,148.2034 L68.7737,140.1514 C70.2337,139.3084 69.5127,137.9024 67.5177,137.5944 C65.6367,137.3034 63.8587,136.7334 62.3807,135.8804 C57.5757,133.1054 57.9087,128.4874 63.3807,125.9674 C67.4607,124.0894 73.3817,124.0594 77.5127,125.9014 Z" id="Stroke-45" stroke="#627386" stroke-width="2" stroke-linecap="round" stroke-linejoin="round"></path>
        <path d="M106.5479,135.1055 C108.2129,133.8615 110.4309,133.0645 112.8069,132.7125 C114.7539,132.4245 115.3549,130.9865 113.9329,130.1665 L100.0009,122.1225 L86.0699,130.1655 C84.6489,130.9865 82.1559,130.6395 81.6569,129.5145 C81.0479,128.1425 79.6679,126.8625 77.5109,125.9005 C73.3789,124.0595 67.4579,124.0895 63.3779,125.9685 C57.9079,128.4895 57.5759,133.1055 62.3809,135.8795 C63.8589,136.7335 65.6369,137.3035 67.5179,137.5945 C69.5119,137.9025 70.2339,139.3085 68.7749,140.1515 L54.8279,148.2035 L97.5139,172.8475 C98.8879,173.6405 101.1139,173.6405 102.4879,172.8475 L145.1739,148.2035 L131.2279,140.1505 C129.7689,139.3085 127.3329,139.7245 126.7999,140.8765 C126.2969,141.9625 125.3079,142.9895 123.8309,143.8415 C119.0249,146.6165 111.0259,146.4245 106.6619,143.2645 C103.4079,140.9095 103.3579,137.4905 106.5479,135.1055" id="Fill-47" fill="#FFFFFF"></path>
        <path d="M106.5479,135.1055 C108.2129,133.8615 110.4309,133.0645 112.8069,132.7125 C114.7539,132.4245 115.3549,130.9865 113.9329,130.1665 L100.0009,122.1225 L86.0699,130.1655 C84.6489,130.9865 82.1559,130.6395 81.6569,129.5145 C81.0479,128.1425 79.6679,126.8625 77.5109,125.9005 C73.3789,124.0595 67.4579,124.0895 63.3779,125.9685 C57.9079,128.4895 57.5759,133.1055 62.3809,135.8795 C63.8589,136.7335 65.6369,137.3035 67.5179,137.5945 C69.5119,137.9025 70.2339,139.3085 68.7749,140.1515 L54.8279,148.2035 L97.5139,172.8475 C98.8879,173.6405 101.1139,173.6405 102.4879,172.8475 L145.1739,148.2035 L131.2279,140.1505 C129.7689,139.3085 127.3329,139.7245 126.7999,140.8765 C126.2969,141.9625 125.3079,142.9895 123.8309,143.8415 C119.0249,146.6165 111.0259,146.4245 106.6619,143.2645 C103.4079,140.9095 103.3579,137.4905 106.5479,135.1055 Z" id="Stroke-49" stroke="#627386" stroke-width="2" stroke-linecap="round" stroke-linejoin="round"></path>
        <path d="M122.4873,118.3408 C120.3313,117.3788 118.9513,116.0988 118.3423,114.7278 C117.8433,113.6028 115.3523,113.2558 113.9303,114.0768 L99.9983,122.1198 L113.9293,130.1628 C115.3513,130.9848 114.7513,132.4228 112.8033,132.7118 C110.4273,133.0638 108.2083,133.8608 106.5433,135.1058 C103.3543,137.4908 103.4063,140.9088 106.6623,143.2648 C111.0263,146.4228 119.0233,146.6138 123.8283,143.8398 C125.3053,142.9868 126.2943,141.9608 126.7973,140.8738 C127.3303,139.7238 129.7663,139.3068 131.2253,140.1498 L145.1723,148.2008 L187.8583,123.5568 C189.2323,122.7638 189.2323,121.4778 187.8583,120.6848 L145.1723,96.0398 L131.2253,104.0918 C129.7663,104.9348 130.4873,106.3408 132.4823,106.6488 C134.3633,106.9388 136.1413,107.5098 137.6183,108.3618 C142.4243,111.1368 142.0913,115.7558 136.6193,118.2748 C132.5393,120.1528 126.6173,120.1828 122.4873,118.3408" id="Fill-51" fill="#FFFFFF"></path>
        <path d="M122.4873,118.3408 C120.3313,117.3788 118.9513,116.0988 118.3423,114.7278 C117.8433,113.6028 115.3523,113.2558 113.9303,114.0768 L99.9983,122.1198 L113.9293,130.1628 C115.3513,130.9848 114.7513,132.4228 112.8033,132.7118 C110.4273,133.0638 108.2083,133.8608 106.5433,135.1058 C103.3543,137.4908 103.4063,140.9088 106.6623,143.2648 C111.0263,146.4228 119.0233,146.6138 123.8283,143.8398 C125.3053,142.9868 126.2943,141.9608 126.7973,140.8738 C127.3303,139.7238 129.7663,139.3068 131.2253,140.1498 L145.1723,148.2008 L187.8583,123.5568 C189.2323,122.7638 189.2323,121.4778 187.8583,120.6848 L145.1723,96.0398 L131.2253,104.0918 C129.7663,104.9348 130.4873,106.3408 132.4823,106.6488 C134.3633,106.9388 136.1413,107.5098 137.6183,108.3618 C142.4243,111.1368 142.0913,115.7558 136.6193,118.2748 C132.5393,120.1528 126.6173,120.1828 122.4873,118.3408 Z" id="Stroke-53" stroke="#627386" stroke-width="2" stroke-linecap="round" stroke-linejoin="round"></path>
        <path d="M145.1719,47.7847 L145.1719,47.7847" id="Stroke-55" stroke="#1B6DC6" stroke-width="2" stroke-linecap="round" stroke-linejoin="round"></path>
        <path d="M145.1719,41.374 L145.1719,12.526" id="Stroke-57" stroke="#1B6DC6" stroke-width="2" stroke-linecap="round" stroke-linejoin="round" stroke-dasharray="0,6.411"></path>
        <path d="M145.1719,9.3203 L145.1719,9.3203" id="Stroke-59" stroke="#1B6DC6" stroke-width="2" stroke-linecap="round" stroke-linejoin="round"></path>
        <path d="M54.8257,47.7847 L54.8257,47.7847" id="Stroke-61" stroke="#1B6DC6" stroke-width="2" stroke-linecap="round" stroke-linejoin="round"></path>
        <path d="M54.8257,41.374 L54.8257,12.526" id="Stroke-63" stroke="#1B6DC6" stroke-width="2" stroke-linecap="round" stroke-linejoin="round" stroke-dasharray="0,6.411"></path>
        <path d="M54.8257,9.3203 L54.8257,9.3203" id="Stroke-65" stroke="#1B6DC6" stroke-width="2" stroke-linecap="round" stroke-linejoin="round"></path>
    </g>
</svg>