<?xml version="1.0" encoding="UTF-8"?>
<svg width="250px" height="250px" viewBox="0 0 250 250" version="1.1" xmlns="http://www.w3.org/2000/svg" xmlns:xlink="http://www.w3.org/1999/xlink">
    <!-- Generator: Sketch 54.1 (76490) - https://sketchapp.com -->
    <title>Stroke 3 (2)</title>
    <desc>Created with Sketch.</desc>
    <g id="Stroke-3-(2)" stroke="none" stroke-width="1" fill="none" fill-rule="evenodd">
        <path d="M141.124,107.9372 L141.124,107.5832 C141.124,105.7552 138.557,104.2732 135.391,104.2732 L114.609,104.2732 C111.443,104.2732 108.876,105.7552 108.876,107.5832 L108.876,107.9372 L56.924,107.9372 L56.924,160.0012 L56.929,160.0012 C56.929,160.5632 57.171,161.1322 57.693,161.6532 L68.084,172.0442 C69.667,173.6272 73.173,174.1692 75.915,173.2552 L89.474,168.7362 C95.001,171.6342 101.596,173.8642 108.876,175.2092 L108.876,184.2432 C108.876,186.0712 111.443,187.5532 114.609,187.5532 L135.391,187.5532 C138.557,187.5532 141.124,186.0712 141.124,184.2432 L141.124,175.2092 C148.405,173.8642 155,171.6342 160.526,168.7362 L174.086,173.2552 C176.828,174.1692 180.334,173.6272 181.917,172.0442 L192.308,161.6532 C192.829,161.1322 193.072,160.5632 193.071,160.0012 L193.077,160.0012 L193.077,136.1142 L193.077,132.2882 L193.077,107.9372 L141.124,107.9372 Z" id="Fill-1" fill="#D5DAE0"></path>
        <path d="M141.124,107.9372 L141.124,107.5832 C141.124,105.7552 138.557,104.2732 135.391,104.2732 L114.609,104.2732 C111.443,104.2732 108.876,105.7552 108.876,107.5832 L108.876,107.9372 L56.924,107.9372 L56.924,160.0012 L56.929,160.0012 C56.929,160.5632 57.171,161.1322 57.693,161.6532 L68.084,172.0442 C69.667,173.6272 73.173,174.1692 75.915,173.2552 L89.474,168.7362 C95.001,171.6342 101.596,173.8642 108.876,175.2092 L108.876,184.2432 C108.876,186.0712 111.443,187.5532 114.609,187.5532 L135.391,187.5532 C138.557,187.5532 141.124,186.0712 141.124,184.2432 L141.124,175.2092 C148.405,173.8642 155,171.6342 160.526,168.7362 L174.086,173.2552 C176.828,174.1692 180.334,173.6272 181.917,172.0442 L192.308,161.6532 C192.829,161.1322 193.072,160.5632 193.071,160.0012 L193.077,160.0012 L193.077,136.1142 L193.077,132.2882 L193.077,107.9372 L141.124,107.9372 Z" id="Stroke-3" stroke="#B8BFCA" stroke-width="2" stroke-linecap="round" stroke-linejoin="round"></path>
        <path d="M160.5261,168.7358 L160.5261,168.7358 L174.0861,173.2558 C175.3641,173.6818 176.8081,173.7878 178.1471,173.6228 L178.1471,126.2848 L160.5261,126.2848 L160.5261,168.7358 Z" id="Fill-5" fill="#F2F4F6"></path>
        <path d="M57.6928,161.6533 L68.0838,172.0443 C69.1968,173.1583 71.2628,173.7533 73.3448,173.6923 L73.3448,107.9373 L56.9238,107.9373 L56.9238,160.0013 L56.9288,160.0013 C56.9288,160.5633 57.1718,161.1323 57.6928,161.6533" id="Fill-7" fill="#F2F4F6"></path>
        <path d="M89.4744,168.7358 C95.0004,171.6338 101.5954,173.8638 108.8764,175.2098 L108.8764,120.6988 L89.4744,120.6988 L89.4744,168.7358 Z" id="Fill-9" fill="#F2F4F6"></path>
        <path d="M89.4744,168.7358 C95.0004,171.6338 101.5954,173.8638 108.8764,175.2098 L108.8764,120.6988 L89.4744,120.6988 L89.4744,168.7358 Z" id="Stroke-11" stroke="#B8BFCA" stroke-width="2" stroke-linecap="round" stroke-linejoin="round"></path>
        <path d="M125.0001,135.5851 C111.8081,135.5851 101.1131,129.4101 101.1131,121.7941 C101.1131,114.1771 111.8081,108.0031 125.0001,108.0031 C138.1921,108.0031 148.8871,114.1771 148.8871,121.7941 C148.8871,129.4101 138.1921,135.5851 125.0001,135.5851" id="Fill-13" fill="#F2F4F6"></path>
        <path d="M56.9236,130.1426 L56.9236,154.0296" id="Stroke-15" stroke="#627386" stroke-width="2" stroke-linecap="round" stroke-linejoin="round"></path>
        <path d="M89.4742,138.877 L89.4742,168.736" id="Stroke-17" stroke="#B8BFCA" stroke-width="2" stroke-linecap="round" stroke-linejoin="round"></path>
        <path d="M108.8763,154.3841 L108.8763,184.2431" id="Stroke-19" stroke="#B8BFCA" stroke-width="2" stroke-linecap="round" stroke-linejoin="round"></path>
        <path d="M141.1239,154.3841 L141.1239,184.2431" id="Stroke-21" stroke="#B8BFCA" stroke-width="2" stroke-linecap="round" stroke-linejoin="round"></path>
        <path d="M160.526,138.877 L160.526,168.736" id="Stroke-23" stroke="#B8BFCA" stroke-width="2" stroke-linecap="round" stroke-linejoin="round"></path>
        <path d="M101.1132,121.7938 C101.1132,129.4108 111.8082,135.5848 125.0002,135.5848 L125.0002,108.0028 C111.8082,108.0028 101.1132,114.1768 101.1132,121.7938" id="Fill-25" fill="#D5DAE0"></path>
        <path d="M125.0001,135.5851 C111.8081,135.5851 101.1131,129.4101 101.1131,121.7941 C101.1131,114.1771 111.8081,108.0031 125.0001,108.0031 C138.1921,108.0031 148.8871,114.1771 148.8871,121.7941 C148.8871,129.4101 138.1921,135.5851 125.0001,135.5851 Z" id="Stroke-27" stroke="#B8BFCA" stroke-width="2" stroke-linecap="round" stroke-linejoin="round"></path>
        <path d="M56.9236,107.9372 L56.9236,160.0012 L56.9296,160.0012 C56.9286,160.5632 57.1716,161.1322 57.6926,161.6532 L68.0836,172.0442 C69.6666,173.6272 73.1726,174.1692 75.9146,173.2552 L89.4746,168.7362 C95.0006,171.6342 101.5956,173.8642 108.8766,175.2092 L108.8766,184.2432 C108.8766,186.0712 111.4426,187.5532 114.6096,187.5532 L135.3906,187.5532 C138.5576,187.5532 141.1236,186.0712 141.1236,184.2432 L141.1236,175.2092 C148.4046,173.8642 154.9996,171.6342 160.5266,168.7362 L174.0856,173.2552 C176.8276,174.1692 180.3336,173.6272 181.9166,172.0442 L192.3076,161.6532 C192.8286,161.1322 193.0716,160.5632 193.0716,160.0012 L193.0766,160.0012 L193.0766,136.1142 L193.0766,132.2882 L193.0766,107.9372" id="Stroke-29" stroke="#B8BFCA" stroke-width="2" stroke-linecap="round" stroke-linejoin="round"></path>
        <path d="M125.0001,135.5851 C111.8081,135.5851 101.1131,129.4101 101.1131,121.7941 C101.1131,114.1771 111.8081,108.0031 125.0001,108.0031 C138.1921,108.0031 148.8871,114.1771 148.8871,121.7941 C148.8871,129.4101 138.1921,135.5851 125.0001,135.5851 M190.2091,132.7811 L176.6561,128.2631 C177.4351,126.1781 177.8501,124.0141 177.8501,121.7941 C177.8501,119.5741 177.4351,117.4101 176.6561,115.3241 L190.2091,110.8071 C192.9511,109.8931 193.8901,107.8681 192.3071,106.2851 L181.9171,95.8941 C180.3341,94.3111 176.8271,93.7691 174.0851,94.6831 L160.5261,99.2031 C155.0001,96.3041 148.4041,94.0741 141.1241,92.7291 L141.1241,83.6961 C141.1241,81.8681 138.5571,80.3861 135.3911,80.3861 L114.6091,80.3861 C111.4431,80.3861 108.8761,81.8681 108.8761,83.6961 L108.8761,92.7291 C101.5961,94.0741 95.0001,96.3041 89.4741,99.2031 L75.9151,94.6831 C73.1731,93.7691 69.6661,94.3111 68.0831,95.8941 L57.6931,106.2851 C56.1101,107.8681 57.0491,109.8931 59.7911,110.8071 L73.3441,115.3241 C72.5651,117.4101 72.1501,119.5741 72.1501,121.7941 C72.1501,124.0141 72.5651,126.1781 73.3441,128.2631 L59.7911,132.7811 C57.0491,133.6951 56.1101,135.7191 57.6931,137.3021 L68.0831,147.6931 C69.6661,149.2761 73.1731,149.8191 75.9151,148.9051 L89.4741,144.3851 C95.0001,147.2831 101.5961,149.5131 108.8761,150.8591 L108.8761,159.8921 C108.8761,161.7201 111.4431,163.2021 114.6091,163.2021 L135.3911,163.2021 C138.5571,163.2021 141.1241,161.7201 141.1241,159.8921 L141.1241,150.8591 C148.4041,149.5131 155.0001,147.2831 160.5261,144.3851 L174.0851,148.9051 C176.8271,149.8191 180.3341,149.2761 181.9171,147.6931 L192.3071,137.3021 C193.8901,135.7191 192.9511,133.6951 190.2091,132.7811" id="Fill-31" fill="#FFFFFF"></path>
        <path d="M125.0001,135.5851 C111.8081,135.5851 101.1131,129.4101 101.1131,121.7941 C101.1131,114.1771 111.8081,108.0031 125.0001,108.0031 C138.1921,108.0031 148.8871,114.1771 148.8871,121.7941 C148.8871,129.4101 138.1921,135.5851 125.0001,135.5851 Z M190.2091,132.7811 L176.6561,128.2631 C177.4351,126.1781 177.8501,124.0141 177.8501,121.7941 C177.8501,119.5741 177.4351,117.4101 176.6561,115.3241 L190.2091,110.8071 C192.9511,109.8931 193.8901,107.8681 192.3071,106.2851 L181.9171,95.8941 C180.3341,94.3111 176.8271,93.7691 174.0851,94.6831 L160.5261,99.2031 C155.0001,96.3041 148.4041,94.0741 141.1241,92.7291 L141.1241,83.6961 C141.1241,81.8681 138.5571,80.3861 135.3911,80.3861 L114.6091,80.3861 C111.4431,80.3861 108.8761,81.8681 108.8761,83.6961 L108.8761,92.7291 C101.5961,94.0741 95.0001,96.3041 89.4741,99.2031 L75.9151,94.6831 C73.1731,93.7691 69.6661,94.3111 68.0831,95.8941 L57.6931,106.2851 C56.1101,107.8681 57.0491,109.8931 59.7911,110.8071 L73.3441,115.3241 C72.5651,117.4101 72.1501,119.5741 72.1501,121.7941 C72.1501,124.0141 72.5651,126.1781 73.3441,128.2631 L59.7911,132.7811 C57.0491,133.6951 56.1101,135.7191 57.6931,137.3021 L68.0831,147.6931 C69.6661,149.2761 73.1731,149.8191 75.9151,148.9051 L89.4741,144.3851 C95.0001,147.2831 101.5961,149.5131 108.8761,150.8591 L108.8761,159.8921 C108.8761,161.7201 111.4431,163.2021 114.6091,163.2021 L135.3911,163.2021 C138.5571,163.2021 141.1241,161.7201 141.1241,159.8921 L141.1241,150.8591 C148.4041,149.5131 155.0001,147.2831 160.5261,144.3851 L174.0851,148.9051 C176.8271,149.8191 180.3341,149.2761 181.9171,147.6931 L192.3071,137.3021 C193.8901,135.7191 192.9511,133.6951 190.2091,132.7811 Z" id="Stroke-33" stroke="#B8BFCA" stroke-width="2" stroke-linecap="round" stroke-linejoin="round"></path>
        <path d="M193.0517,107.9373 C193.0517,107.3753 192.8287,106.8063 192.3077,106.2853 L181.9167,95.8943 C180.3337,94.3113 176.8277,93.7693 174.0857,94.6833 L160.5257,99.2033 C154.9997,96.3043 148.4037,94.0743 141.1237,92.7293 L141.1237,83.6953 C141.1237,81.8683 138.5577,80.3863 135.3907,80.3863 L114.6097,80.3863 C111.4427,80.3863 108.8767,81.8683 108.8767,83.6953 L108.8767,92.7293 C101.5957,94.0743 95.0007,96.3043 89.4747,99.2033 L75.9147,94.6833 C73.1727,93.7693 69.6657,94.3113 68.0837,95.8943 L57.6927,106.2853 C57.1717,106.8063 56.9487,107.3753 56.9487,107.9373 L56.9237,107.9373 L56.9237,160.0013 L56.9287,160.0013 C56.9287,160.5633 57.1717,161.1323 57.6927,161.6533 L68.0837,172.0443 C68.3327,172.2943 68.6437,172.5083 68.9787,172.7043 C69.0707,172.7573 69.1647,172.8053 69.2617,172.8543 C69.5537,173.0043 69.8657,173.1353 70.1997,173.2453 C70.2747,173.2703 70.3417,173.3003 70.4187,173.3233 C70.8357,173.4483 71.2757,173.5403 71.7307,173.6023 C71.8097,173.6133 71.8897,173.6163 71.9697,173.6253 C72.3617,173.6693 72.7597,173.6883 73.1617,173.6833 C73.2227,173.6833 73.2827,173.6943 73.3447,173.6923 L73.3447,173.6813 C74.2227,173.6553 75.1017,173.5263 75.9147,173.2553 L89.4747,168.7363 C95.0007,171.6343 101.5957,173.8643 108.8767,175.2093 L108.8767,184.2433 C108.8767,186.0713 111.4427,187.5533 114.6097,187.5533 L135.3907,187.5533 C138.5577,187.5533 141.1237,186.0713 141.1237,184.2433 L141.1237,175.2093 C148.4047,173.8643 154.9997,171.6343 160.5257,168.7363 L174.0857,173.2553 C174.4157,173.3663 174.7577,173.4533 175.1057,173.5213 C175.2557,173.5503 175.4087,173.5633 175.5587,173.5853 C175.7577,173.6133 175.9537,173.6473 176.1537,173.6633 C176.3477,173.6783 176.5407,173.6783 176.7347,173.6823 C176.8927,173.6853 177.0507,173.6933 177.2087,173.6893 C177.4167,173.6843 177.6197,173.6643 177.8247,173.6453 C177.9317,173.6353 178.0417,173.6353 178.1467,173.6223 L178.1467,173.6143 C179.6777,173.4253 181.0727,172.8883 181.9167,172.0443 L192.3077,161.6533 C192.8287,161.1323 193.0717,160.5633 193.0717,160.0013 L193.0757,160.0013 L193.0757,136.1143 L193.0757,132.2883 L193.0757,107.9373 L193.0517,107.9373 Z" id="Stroke-35" stroke="#627386" stroke-width="2" stroke-linecap="round" stroke-linejoin="round"></path>
        <path d="M193.0766,107.9372 L193.0766,107.9372" id="Stroke-37" stroke="#627386" stroke-width="2" stroke-linecap="round" stroke-linejoin="round"></path>
        <path d="M193.0766,102.2509 L193.0766,65.2899" id="Stroke-39" stroke="#627386" stroke-width="2" stroke-linecap="round" stroke-linejoin="round" stroke-dasharray="0,5.686"></path>
        <path d="M193.0766,62.4472 L193.0766,62.4472" id="Stroke-41" stroke="#627386" stroke-width="2" stroke-linecap="round" stroke-linejoin="round"></path>
        <path d="M56.9236,107.9372 L56.9236,107.9372" id="Stroke-43" stroke="#627386" stroke-width="2" stroke-linecap="round" stroke-linejoin="round"></path>
        <path d="M56.9236,102.2509 L56.9236,65.2899" id="Stroke-45" stroke="#627386" stroke-width="2" stroke-linecap="round" stroke-linejoin="round" stroke-dasharray="0,5.686"></path>
        <path d="M56.9236,62.4472 L56.9236,62.4472" id="Stroke-47" stroke="#627386" stroke-width="2" stroke-linecap="round" stroke-linejoin="round"></path>
    </g>
</svg>