<?xml version="1.0" encoding="UTF-8"?>
<svg width="250px" height="250px" viewBox="0 0 250 250" version="1.1" xmlns="http://www.w3.org/2000/svg" xmlns:xlink="http://www.w3.org/1999/xlink">
    <!-- Generator: Sketch 54.1 (76490) - https://sketchapp.com -->
    <title>Stroke 2 (1)</title>
    <desc>Created with Sketch.</desc>
    <g id="Stroke-2-(1)" stroke="none" stroke-width="1" fill="none" fill-rule="evenodd">
        <path d="M101.4931,138.5717 L101.4931,138.5717" id="Stroke-1" stroke="#FFDE85" stroke-width="2" stroke-linecap="round" stroke-linejoin="round"></path>
        <path d="M106.5346,135.6609 L134.2626,119.6519" id="Stroke-2" stroke="#FFDE85" stroke-width="2" stroke-linecap="round" stroke-linejoin="round" stroke-dasharray="0,5.821"></path>
        <path d="M136.7834,118.1968 L136.7834,118.1968" id="Stroke-3" stroke="#FFDE85" stroke-width="2" stroke-linecap="round" stroke-linejoin="round"></path>
        <polyline id="Stroke-4" stroke="#FFDE85" stroke-width="2" stroke-linecap="round" stroke-linejoin="round" points="150.18 116.7551 153.153 108.7461 139.28 110.4621 144.73 113.6091 150.18 116.7551"></polyline>
        <g id="Group-47" transform="translate(18.000000, 63.000000)">
            <path d="M200.9456,7.7605 C217.0596,17.0635 217.0596,32.1475 200.9456,41.4505 C184.8316,50.7535 158.7066,50.7535 142.5926,41.4505 C126.4786,32.1475 126.4786,17.0635 142.5926,7.7605 C158.7066,-1.5425 184.8316,-1.5425 200.9456,7.7605 Z" id="Stroke-5" stroke="#FFDE85" stroke-width="2" stroke-linecap="round" stroke-linejoin="round"></path>
            <polyline id="Stroke-7" stroke="#FFDE85" stroke-width="2" stroke-linecap="round" stroke-linejoin="round" points="170.0211 38.9271 178.5301 34.0141 183.7661 30.9921"></polyline>
            <polyline id="Stroke-9" stroke="#FFDE85" stroke-width="2" stroke-linecap="round" stroke-linejoin="round" points="158.4922 32.2709 167.0012 27.3579 172.2372 24.3359"></polyline>
            <polyline id="Stroke-11" stroke="#FFDE85" stroke-width="2" stroke-linecap="round" stroke-linejoin="round" points="146.9633 25.6147 155.4723 20.7017 160.7083 17.6797"></polyline>
            <polyline id="Stroke-13" stroke="#FFDE85" stroke-width="2" stroke-linecap="round" stroke-linejoin="round" points="194.7257 33.5389 190.5817 13.7439 156.2957 11.3519"></polyline>
            <path d="M71.9676,85.6405 C71.7796,85.5275 71.6006,85.4115 71.4076,85.3005 C55.2936,75.9965 29.1686,75.9965 13.0546,85.3005 C12.8616,85.4115 12.6826,85.5275 12.4946,85.6405 L0.9696,85.6405 L0.9696,99.3945 C0.9696,105.4915 4.9976,111.5875 13.0546,116.2395 C29.1686,125.5425 55.2936,125.5425 71.4076,116.2395 C79.4646,111.5875 83.4926,105.4915 83.4926,99.3945 L83.4926,85.6405 L71.9676,85.6405 Z" id="Fill-15" fill="#FFEBB6"></path>
            <path d="M71.4076,116.2395 C79.4646,111.5875 83.4926,105.4915 83.4926,99.3945 L83.4926,85.6405 L71.9676,85.6405 C71.7796,85.5275 71.5996,85.4115 71.4076,85.3005 C63.3506,80.6485 52.7906,78.3225 42.2306,78.3225 L42.2306,123.2165 C52.7906,123.2165 63.3506,120.8915 71.4076,116.2395" id="Fill-17" fill="#FFDE85"></path>
            <path d="M71.4074,68.7955 C87.5214,78.0985 87.5214,93.1825 71.4074,102.4855 C55.2934,111.7885 29.1684,111.7885 13.0544,102.4855 C-3.0596,93.1825 -3.0596,78.0985 13.0544,68.7955 C29.1684,59.4925 55.2934,59.4925 71.4074,68.7955" id="Fill-19" fill="#FFF2CE"></path>
            <path d="M71.4074,68.7955 C87.5214,78.0985 87.5214,93.1825 71.4074,102.4855 C55.2934,111.7885 29.1684,111.7885 13.0544,102.4855 C-3.0596,93.1825 -3.0596,78.0985 13.0544,68.7955 C29.1684,59.4925 55.2934,59.4925 71.4074,68.7955 Z" id="Stroke-21" stroke="#FFFFFF" stroke-width="2" stroke-linecap="round" stroke-linejoin="round"></path>
            <path d="M83.4929,99.3935 L83.4929,85.6405 C83.4929,79.5435 79.4639,73.4475 71.4079,68.7955 C55.2939,59.4925 29.1679,59.4925 13.0549,68.7955 C4.9979,73.4475 0.9689,79.5435 0.9689,85.6405 L0.9689,99.3945 C0.9689,105.4915 4.9979,111.5875 13.0549,116.2395 C21.1119,120.8905 31.6709,123.2165 42.2309,123.2165 C43.5509,123.2165 44.8709,123.1805 46.1859,123.1075 C48.8159,122.9625 51.4269,122.6725 53.9789,122.2355 C55.2549,122.0175 56.5169,121.7635 57.7579,121.4725 C62.7249,120.3095 67.3789,118.5655 71.4079,116.2395 C76.4439,113.3325 79.9059,109.8605 81.7929,106.1775 C82.9269,103.9665 83.4929,101.6805 83.4929,99.3935 Z" id="Stroke-23" stroke="#CC7C09" stroke-width="2" stroke-linecap="round" stroke-linejoin="round"></path>
            <path d="M24.6487,86.5741 C24.5027,86.5681 24.3637,86.5301 24.2597,86.4701 L18.6887,83.2531 C18.5127,83.1521 18.4337,82.9991 18.5227,82.8641 C18.6237,82.7091 18.8877,82.6121 19.1647,82.6271 L37.8917,83.5531 C38.3087,83.5741 38.6587,83.3731 38.6247,83.1321 L37.0917,72.2951 C37.0737,72.1631 37.1627,72.0291 37.3497,71.9531 C37.6067,71.8491 37.9447,71.8711 38.1567,71.9931 L43.5177,75.0881 C43.6207,75.1481 43.6837,75.2271 43.6987,75.3131 L45.4557,87.0721 L45.4707,87.1801 C45.4947,87.3621 45.2387,87.5151 44.9227,87.5071 L44.7127,87.5021 L24.6487,86.5741 Z" id="Fill-25" fill="#FFDE85"></path>
            <path d="M48.4061,87.3412 C48.4321,87.5312 48.6931,87.6822 49.0221,87.6972 L65.2691,88.5632 C65.4971,88.5732 65.7291,88.5222 65.8611,88.4142 C66.0421,88.2652 66.0031,88.0702 65.7911,87.9482 L60.4301,84.8532 C60.3271,84.7932 60.1911,84.7572 60.0411,84.7482 L48.7391,84.0842 C48.3241,84.0632 47.9771,84.2632 48.0101,84.5022 L48.4061,87.3412 Z" id="Fill-27" fill="#FFDE85"></path>
            <path d="M45.1523,89.1854 C45.4813,89.2004 45.7423,89.3514 45.7693,89.5414 L47.4193,98.9864 C47.4383,99.1184 47.3483,99.2524 47.1613,99.3284 C46.9053,99.4324 46.5673,99.4104 46.3553,99.2874 L40.9943,96.1924 C40.8913,96.1334 40.8273,96.0544 40.8123,95.9684 L39.7773,89.4214 C39.7413,89.1824 40.0873,88.9814 40.5023,89.0004 L45.1523,89.1854 Z" id="Fill-29" fill="#FFDE85"></path>
            <path d="M71.9678,71.8864 C71.7798,71.7734 71.6008,71.6574 71.4078,71.5464 C55.2938,62.2424 29.1688,62.2424 13.0548,71.5464 C12.8618,71.6574 12.6828,71.7734 12.4948,71.8864 L0.9698,71.8864 L0.9698,85.6404 C0.9698,91.7374 4.9978,97.8334 13.0548,102.4854 C29.1688,111.7884 55.2938,111.7884 71.4078,102.4854 C79.4648,97.8334 83.4928,91.7374 83.4928,85.6404 L83.4928,71.8864 L71.9678,71.8864 Z" id="Fill-31" fill="#FFEBB6"></path>
            <path d="M71.4078,102.4855 C79.4648,97.8335 83.4928,91.7375 83.4928,85.6405 L83.4928,71.8865 L71.9678,71.8865 C71.7798,71.7735 71.5998,71.6575 71.4078,71.5465 C63.3508,66.8945 52.7908,64.5685 42.2308,64.5685 L42.2308,109.4625 C52.7908,109.4625 63.3508,107.1375 71.4078,102.4855" id="Fill-33" fill="#FFDE85"></path>
            <path d="M71.4076,55.0415 C87.5216,64.3445 87.5216,79.4285 71.4076,88.7315 C55.2936,98.0345 29.1686,98.0345 13.0546,88.7315 C-3.0594,79.4285 -3.0594,64.3445 13.0546,55.0415 C29.1686,45.7385 55.2936,45.7385 71.4076,55.0415" id="Fill-35" fill="#FFF2CE"></path>
            <path d="M71.4076,55.0415 C87.5216,64.3445 87.5216,79.4285 71.4076,88.7315 C55.2936,98.0345 29.1686,98.0345 13.0546,88.7315 C-3.0594,79.4285 -3.0594,64.3445 13.0546,55.0415 C29.1686,45.7385 55.2936,45.7385 71.4076,55.0415 Z" id="Stroke-37" stroke="#FFFFFF" stroke-width="2" stroke-linecap="round" stroke-linejoin="round"></path>
            <path d="M83.4931,85.6394 L83.4931,71.8864 C83.4931,65.7894 79.4641,59.6934 71.4081,55.0414 C55.2941,45.7384 29.1681,45.7384 13.0551,55.0414 C4.9981,59.6934 0.9691,65.7894 0.9691,71.8864 L0.9691,85.6404 C0.9691,91.7374 4.9981,97.8334 13.0551,102.4854 C21.1121,107.1364 31.6711,109.4624 42.2311,109.4624 C43.5511,109.4624 44.8711,109.4264 46.1861,109.3534 C48.8161,109.2084 51.4271,108.9184 53.9791,108.4814 C55.2551,108.2634 56.5171,108.0094 57.7581,107.7184 C62.7251,106.5554 67.3791,104.8114 71.4081,102.4854 C76.4441,99.5784 79.9061,96.1064 81.7931,92.4234 C82.9271,90.2124 83.4931,87.9264 83.4931,85.6394 Z" id="Stroke-39" stroke="#CC7C09" stroke-width="2" stroke-linecap="round" stroke-linejoin="round"></path>
            <path d="M24.6489,72.82 C24.5029,72.814 24.3639,72.776 24.2599,72.716 L18.6889,69.499 C18.5129,69.398 18.4339,69.245 18.5229,69.11 C18.6239,68.955 18.8879,68.858 19.1649,68.873 L37.8919,69.799 C38.3089,69.82 38.6589,69.619 38.6249,69.378 L37.0919,58.541 C37.0739,58.409 37.1629,58.275 37.3499,58.199 C37.6069,58.095 37.9449,58.117 38.1569,58.239 L43.5179,61.334 C43.6209,61.394 43.6839,61.473 43.6989,61.559 L45.4559,73.318 L45.4709,73.426 C45.4949,73.608 45.2389,73.761 44.9229,73.753 L44.7129,73.748 L24.6489,72.82 Z" id="Fill-41" fill="#FFDE85"></path>
            <path d="M48.4063,73.5872 C48.4323,73.7772 48.6933,73.9282 49.0223,73.9432 L65.2693,74.8092 C65.4973,74.8192 65.7293,74.7682 65.8613,74.6602 C66.0423,74.5112 66.0033,74.3162 65.7913,74.1942 L60.4303,71.0992 C60.3273,71.0392 60.1913,71.0032 60.0413,70.9942 L48.7393,70.3302 C48.3243,70.3092 47.9773,70.5092 48.0103,70.7482 L48.4063,73.5872 Z" id="Fill-43" fill="#FFDE85"></path>
            <path d="M45.1525,75.4313 C45.4815,75.4463 45.7425,75.5973 45.7695,75.7873 L47.4195,85.2323 C47.4385,85.3643 47.3485,85.4983 47.1615,85.5743 C46.9055,85.6783 46.5675,85.6563 46.3555,85.5333 L40.9945,82.4383 C40.8915,82.3793 40.8275,82.3003 40.8125,82.2143 L39.7775,75.6673 C39.7415,75.4283 40.0875,75.2273 40.5025,75.2463 L45.1525,75.4313 Z" id="Fill-45" fill="#FFDE85"></path>
        </g>
    </g>
</svg>