<?xml version="1.0" encoding="UTF-8"?>
<svg width="250px" height="250px" viewBox="0 0 250 250" version="1.1" xmlns="http://www.w3.org/2000/svg" xmlns:xlink="http://www.w3.org/1999/xlink">
    <!-- Generator: Sketch 54.1 (76490) - https://sketchapp.com -->
    <title>Stroke 1 (1)</title>
    <desc>Created with Sketch.</desc>
    <g id="Stroke-1-(1)" stroke="none" stroke-width="1" fill="none" fill-rule="evenodd">
        <path d="M211.6744,106.1623 L150.6364,70.9223 C149.4714,70.2493 147.5824,70.2493 146.4184,70.9223 L45.7754,129.0273 L24.6124,130.7053 L24.6124,146.4623 C24.6124,146.9023 24.9034,147.3433 25.4864,147.6793 L99.3634,190.3333 C100.5284,191.0053 102.4174,191.0053 103.5824,190.3333 L224.5144,120.5123 C225.0964,120.1763 225.3874,119.7353 225.3874,119.2953 L225.3874,103.5383 L211.6744,106.1623 Z" id="Fill-1" fill="#F2F4F6"></path>
        <path d="M211.6744,106.1623 L150.6364,70.9223 C149.4714,70.2493 147.5824,70.2493 146.4184,70.9223 L45.7754,129.0273 L24.6124,130.7053 L24.6124,146.4623 C24.6124,146.9023 24.9034,147.3433 25.4864,147.6793 L99.3634,190.3333 C100.5284,191.0053 102.4174,191.0053 103.5824,190.3333 L224.5144,120.5123 C225.0964,120.1763 225.3874,119.7353 225.3874,119.2953 L225.3874,103.5383 L211.6744,106.1623 Z" id="Stroke-3" stroke="#627386" stroke-width="2" stroke-linecap="round" stroke-linejoin="round"></path>
        <path d="M150.6367,70.9221 C149.4717,70.2491 147.5827,70.2491 146.4187,70.9221 L101.4727,96.8711 L101.4727,190.8371 C102.2357,190.8371 102.9997,190.6691 103.5817,190.3331 L224.5147,120.5131 C225.0967,120.1761 225.3877,119.7361 225.3877,119.2951 L225.3877,103.5381 L211.6747,106.1621 L150.6367,70.9221 Z" id="Fill-5" fill="#D5DAE0"></path>
        <path d="M164.9266,139.1586 L164.9266,154.6326" id="Stroke-7" stroke="#B8BFCA" stroke-width="2" stroke-linecap="round" stroke-linejoin="round"></path>
        <path d="M38.0193,139.159 L38.0193,154.916" id="Stroke-9" stroke="#B8BFCA" stroke-width="2" stroke-linecap="round" stroke-linejoin="round"></path>
        <path d="M211.6744,106.1623 L150.6364,70.9223 C149.4714,70.2493 147.5824,70.2493 146.4184,70.9223 L45.7754,129.0273 L24.6124,130.7053 L24.6124,146.4623 C24.6124,146.9023 24.9034,147.3433 25.4864,147.6793 L99.3634,190.3333 C100.5284,191.0053 102.4174,191.0053 103.5824,190.3333 L224.5144,120.5123 C225.0964,120.1763 225.3874,119.7353 225.3874,119.2953 L225.3874,103.5383 L211.6744,106.1623 Z" id="Stroke-11" stroke="#627386" stroke-width="2" stroke-linecap="round" stroke-linejoin="round"></path>
        <path d="M224.514,104.7558 L103.582,174.5758 C102.417,175.2488 100.528,175.2488 99.363,174.5758 L25.486,131.9228 C24.321,131.2498 24.321,130.1598 25.486,129.4868 L146.418,59.6668 C147.583,58.9948 149.472,58.9948 150.637,59.6668 L224.514,102.3198 C225.679,102.9928 225.679,104.0828 224.514,104.7558" id="Fill-13" fill="#FFFFFF"></path>
        <path d="M224.514,104.7558 L103.582,174.5758 C102.417,175.2488 100.528,175.2488 99.363,174.5758 L25.486,131.9228 C24.321,131.2498 24.321,130.1598 25.486,129.4868 L146.418,59.6668 C147.583,58.9948 149.472,58.9948 150.637,59.6668 L224.514,102.3198 C225.679,102.9928 225.679,104.0828 224.514,104.7558 Z" id="Stroke-15" stroke="#B8BFCA" stroke-width="2" stroke-linecap="round" stroke-linejoin="round"></path>
        <path d="M146.4181,59.6672 L25.4861,129.4872 C24.3211,130.1602 24.3211,131.2502 25.4861,131.9232 L38.0191,139.1592 L163.1701,66.9032 L150.6371,59.6672 C149.4721,58.9942 147.5831,58.9942 146.4181,59.6672 Z" id="Stroke-17" stroke="#B8BFCA" stroke-width="2" stroke-linecap="round" stroke-linejoin="round"></path>
        <path d="M156.1295,131.6441 C154.9645,132.3171 154.9645,133.4071 156.1295,134.0801 L164.9265,139.1591 L224.5135,104.7561 C225.6785,104.0831 225.6785,102.9931 224.5135,102.3201 L215.7165,97.2411 L156.1295,131.6441 Z" id="Stroke-19" stroke="#B8BFCA" stroke-width="2" stroke-linecap="round" stroke-linejoin="round"></path>
        <polygon id="Stroke-21" stroke="#B8BFCA" stroke-width="2" stroke-linecap="round" stroke-linejoin="round" points="195.7346 98.2477 146.1316 126.8857 113.6086 108.1087 163.2116 79.4707"></polygon>
        <path d="M141.006,140.3757 L103.582,161.9827 C102.417,162.6547 100.528,162.6547 99.363,161.9827 L61.939,140.3757 C60.774,139.7027 60.774,138.6127 61.939,137.9397 L99.363,116.3337 C100.528,115.6607 102.417,115.6607 103.582,116.3337 L141.006,137.9397 C142.171,138.6127 142.171,139.7027 141.006,140.3757 Z" id="Stroke-23" stroke="#B8BFCA" stroke-width="2" stroke-linecap="round" stroke-linejoin="round"></path>
        <path d="M101.0074,160.9352 C101.0074,161.4502 101.0494,161.9602 101.1094,162.4672 C101.9894,162.5292 102.9064,162.3722 103.5814,161.9822 L141.0054,140.3752 C141.6814,139.9862 141.9524,139.4562 141.8444,138.9482 C140.9674,138.9132 140.0844,138.8892 139.1924,138.8892 C118.1034,138.8892 101.0074,148.7592 101.0074,160.9352 Z" id="Stroke-25" stroke="#B8BFCA" stroke-width="2" stroke-linecap="round" stroke-linejoin="round"></path>
        <path d="M106.8716,130.9716 C112.2776,134.0926 112.2776,139.1536 106.8716,142.2746 C101.4656,145.3966 92.6996,145.3966 87.2936,142.2746 C81.8876,139.1536 81.8876,134.0926 87.2936,130.9716 C92.6996,127.8506 101.4656,127.8506 106.8716,130.9716 Z" id="Stroke-27" stroke="#B8BFCA" stroke-width="2" stroke-linecap="round" stroke-linejoin="round"></path>
        <path d="M224.514,102.3202 L150.637,59.6672 C149.471,58.9942 147.583,58.9942 146.418,59.6672 L25.486,129.4872 C24.903,129.8232 24.612,130.2642 24.612,130.7052 L24.612,146.4622 C24.612,146.9032 24.903,147.3432 25.486,147.6802 L99.364,190.3332 C99.946,190.6692 100.709,190.8372 101.473,190.8372 C102.236,190.8372 103,190.6692 103.582,190.3332 L224.514,120.5132 C225.096,120.1762 225.388,119.7362 225.388,119.2952 L225.388,103.5402 C225.389,103.0982 225.098,102.6572 224.514,102.3202 Z" id="Stroke-29" stroke="#627386" stroke-width="2" stroke-linecap="round" stroke-linejoin="round"></path>
    </g>
</svg>