<?xml version="1.0" encoding="UTF-8"?>
<svg width="250px" height="250px" viewBox="0 0 250 250" version="1.1" xmlns="http://www.w3.org/2000/svg" xmlns:xlink="http://www.w3.org/1999/xlink">
    <!-- Generator: Sketch 54.1 (76490) - https://sketchapp.com -->
    <title>Stroke 4-2</title>
    <desc>Created with Sketch.</desc>
    <g id="Stroke-4-2" stroke="none" stroke-width="1" fill="none" fill-rule="evenodd">
        <path d="M204.5241,83.0193 L204.5301,83.0133 L173.8701,65.3113 L173.8531,65.3313 C170.2661,63.2633 165.5981,63.4353 160.4801,66.3903 L158.2531,67.6753 L131.9751,52.5043 L131.9671,52.5143 C125.9901,49.0633 118.2001,49.3783 109.6691,54.3023 C91.8591,64.5853 77.2451,91.2323 75.7081,115.3333 L58.8581,125.0623 C47.5581,131.5873 38.3971,149.0903 38.3971,164.1563 C38.3971,172.4003 41.1491,178.1823 45.4841,180.6813 L45.4701,180.7043 L76.1291,198.4063 L76.1341,198.3983 C79.7231,200.4703 84.3981,200.2823 89.5181,197.3273 L191.1421,138.6543 C202.4421,132.1303 211.6021,114.6263 211.6021,99.5593 C211.6021,91.3183 208.8571,85.5203 204.5241,83.0193" id="Fill-1" fill="#FFFFFF"></path>
        <path d="M204.5241,83.0193 L204.5301,83.0133 L173.8701,65.3113 L173.8531,65.3313 C170.2661,63.2633 165.5981,63.4353 160.4801,66.3903 L158.2531,67.6753 L131.9751,52.5043 L131.9671,52.5143 C125.9901,49.0633 118.2001,49.3783 109.6691,54.3023 C91.8591,64.5853 77.2451,91.2323 75.7081,115.3333 L58.8581,125.0623 C47.5581,131.5873 38.3971,149.0903 38.3971,164.1563 C38.3971,172.4003 41.1491,178.1823 45.4841,180.6813 L45.4701,180.7043 L76.1291,198.4063 L76.1341,198.3983 C79.7231,200.4703 84.3981,200.2823 89.5181,197.3273 L191.1421,138.6543 C202.4421,132.1303 211.6021,114.6263 211.6021,99.5593 C211.6021,91.3183 208.8571,85.5203 204.5241,83.0193 Z" id="Stroke-3" stroke="#627386" stroke-width="2" stroke-linecap="round" stroke-linejoin="round"></path>
        <path d="M191.1416,84.0919 L174.2906,93.8199 C172.7556,71.4919 158.1416,61.7209 140.3296,72.0039 C122.5186,82.2869 107.9056,108.9319 106.3676,133.0349 L89.5176,142.7649 C78.2186,149.2879 69.0566,166.7909 69.0566,181.8579 C69.0566,196.9269 78.2186,203.8509 89.5176,197.3269 L191.1416,138.6539 C202.4416,132.1299 211.6036,114.6279 211.6036,99.5589 C211.6036,84.4929 202.4416,77.5679 191.1416,84.0919" id="Fill-5" fill="#F2F4F6"></path>
        <path d="M204.5241,83.0193 L204.5301,83.0133 L173.8701,65.3113 L173.8531,65.3313 C170.2661,63.2633 165.5981,63.4353 160.4801,66.3903 L158.2531,67.6753 L131.9751,52.5043 L131.9671,52.5143 C125.9901,49.0633 118.2001,49.3783 109.6691,54.3023 C91.8591,64.5853 77.2451,91.2323 75.7081,115.3333 L58.8581,125.0623 C47.5581,131.5873 38.3971,149.0903 38.3971,164.1563 C38.3971,172.4003 41.1491,178.1823 45.4841,180.6813 L45.4701,180.7043 L76.1291,198.4063 L76.1341,198.3983 C79.7231,200.4703 84.3981,200.2823 89.5181,197.3273 L191.1421,138.6543 C202.4421,132.1303 211.6021,114.6263 211.6021,99.5593 C211.6021,91.3183 208.8571,85.5203 204.5241,83.0193 Z" id="Stroke-7" stroke="#627386" stroke-width="2" stroke-linecap="round" stroke-linejoin="round"></path>
        <path d="M191.1416,84.0919 L174.2906,93.8199 C172.7556,71.4919 158.1416,61.7209 140.3296,72.0039 C122.5186,82.2869 107.9056,108.9319 106.3676,133.0349 L89.5176,142.7649 C78.2186,149.2879 69.0566,166.7909 69.0566,181.8579" id="Stroke-9" stroke="#D5DAE0" stroke-width="2" stroke-linecap="round" stroke-linejoin="round"></path>
    </g>
</svg>