<?xml version="1.0" encoding="UTF-8"?>
<svg width="250px" height="250px" viewBox="0 0 250 250" version="1.1" xmlns="http://www.w3.org/2000/svg" xmlns:xlink="http://www.w3.org/1999/xlink">
    <!-- Generator: Sketch 54.1 (76490) - https://sketchapp.com -->
    <title>Stroke 5-2</title>
    <desc>Created with Sketch.</desc>
    <g id="Stroke-5-2" stroke="none" stroke-width="1" fill="none" fill-rule="evenodd">
        <polygon id="Fill-1" fill="#F2F4F6" points="197.9624 167.125 176.0844 179.756 154.2074 167.125 154.2074 141.863 176.0844 129.232 197.9624 141.863"></polygon>
        <polygon id="Stroke-2" stroke="#B8BFCA" stroke-width="2" stroke-linecap="round" stroke-linejoin="round" points="197.9624 167.125 176.0844 179.756 154.2074 167.125 154.2074 141.863 176.0844 129.232 197.9624 141.863"></polygon>
        <polygon id="Fill-3" fill="#FFFFFF" points="197.9624 141.8629 176.0844 154.4939 154.2074 141.8629 176.0844 129.2319"></polygon>
        <polygon id="Stroke-4" stroke="#B8BFCA" stroke-width="2" stroke-linecap="round" stroke-linejoin="round" points="197.9624 141.8629 176.0844 154.4939 154.2074 141.8629 176.0844 129.2319"></polygon>
        <polygon id="Fill-5" fill="#D5DAE0" points="176.0848 154.494 176.0848 179.756 197.9628 167.125 197.9628 141.863"></polygon>
        <polygon id="Stroke-6" stroke="#B8BFCA" stroke-width="2" stroke-linecap="round" stroke-linejoin="round" points="176.0848 154.494 176.0848 179.756 197.9628 167.125 197.9628 141.863"></polygon>
        <polygon id="Stroke-7" stroke="#627386" stroke-width="2" stroke-linecap="round" stroke-linejoin="round" points="176.0848 129.2319 154.2068 141.8629 154.2068 167.1249 176.0848 179.7559 197.9628 167.1249 197.9628 141.8629"></polygon>
        <polygon id="Fill-8" fill="#F2F4F6" points="197.9628 108.137 176.0848 120.768 154.2078 108.137 154.2078 82.875 176.0848 70.244 197.9628 82.875"></polygon>
        <polygon id="Stroke-9" stroke="#B8BFCA" stroke-width="2" stroke-linecap="round" stroke-linejoin="round" points="197.9628 108.137 176.0848 120.768 154.2078 108.137 154.2078 82.875 176.0848 70.244 197.9628 82.875"></polygon>
        <polygon id="Fill-10" fill="#FFFFFF" points="197.9628 82.875 176.0848 95.506 154.2078 82.875 176.0848 70.244"></polygon>
        <polygon id="Stroke-11" stroke="#B8BFCA" stroke-width="2" stroke-linecap="round" stroke-linejoin="round" points="197.9628 82.875 176.0848 95.506 154.2078 82.875 176.0848 70.244"></polygon>
        <polygon id="Fill-12" fill="#D5DAE0" points="176.0852 95.506 176.0852 120.768 197.9632 108.137 197.9632 82.875"></polygon>
        <polygon id="Stroke-13" stroke="#B8BFCA" stroke-width="2" stroke-linecap="round" stroke-linejoin="round" points="176.0852 95.506 176.0852 120.768 197.9632 108.137 197.9632 82.875"></polygon>
        <polygon id="Stroke-14" stroke="#627386" stroke-width="2" stroke-linecap="round" stroke-linejoin="round" points="176.0852 70.2439 154.2072 82.8749 154.2072 108.1369 176.0852 120.7679 197.9632 108.1369 197.9632 82.8749"></polygon>
        <polygon id="Fill-15" fill="#F2F4F6" points="146.8776 78.6429 124.9996 91.2739 103.1226 78.6429 103.1226 53.3809 124.9996 40.7499 146.8776 53.3809"></polygon>
        <polygon id="Stroke-16" stroke="#B8BFCA" stroke-width="2" stroke-linecap="round" stroke-linejoin="round" points="146.8776 78.6429 124.9996 91.2739 103.1226 78.6429 103.1226 53.3809 124.9996 40.7499 146.8776 53.3809"></polygon>
        <polygon id="Fill-17" fill="#FFFFFF" points="146.8776 53.3809 124.9996 66.0119 103.1226 53.3809 124.9996 40.7499"></polygon>
        <polygon id="Stroke-18" stroke="#B8BFCA" stroke-width="2" stroke-linecap="round" stroke-linejoin="round" points="146.8776 53.3809 124.9996 66.0119 103.1226 53.3809 124.9996 40.7499"></polygon>
        <polygon id="Fill-19" fill="#D5DAE0" points="125 66.0119 125 91.2739 146.878 78.6429 146.878 53.3809"></polygon>
        <polygon id="Stroke-20" stroke="#B8BFCA" stroke-width="2" stroke-linecap="round" stroke-linejoin="round" points="125 66.0119 125 91.2739 146.878 78.6429 146.878 53.3809"></polygon>
        <polygon id="Stroke-21" stroke="#627386" stroke-width="2" stroke-linecap="round" stroke-linejoin="round" points="125 40.7498 103.122 53.3808 103.122 78.6428 125 91.2738 146.878 78.6428 146.878 53.3808"></polygon>
        <polygon id="Fill-22" fill="#F2F4F6" points="95.7924 108.1369 73.9144 120.7679 52.0374 108.1369 52.0374 82.8749 73.9144 70.2439 95.7924 82.8749"></polygon>
        <polygon id="Stroke-23" stroke="#B8BFCA" stroke-width="2" stroke-linecap="round" stroke-linejoin="round" points="95.7924 108.1369 73.9144 120.7679 52.0374 108.1369 52.0374 82.8749 73.9144 70.2439 95.7924 82.8749"></polygon>
        <polygon id="Fill-24" fill="#FFFFFF" points="95.7924 82.8749 73.9144 95.5059 52.0374 82.8749 73.9144 70.2439"></polygon>
        <polygon id="Stroke-25" stroke="#B8BFCA" stroke-width="2" stroke-linecap="round" stroke-linejoin="round" points="95.7924 82.8749 73.9144 95.5059 52.0374 82.8749 73.9144 70.2439"></polygon>
        <polygon id="Fill-26" fill="#D5DAE0" points="73.9148 95.5059 73.9148 120.7679 95.7928 108.1369 95.7928 82.8749"></polygon>
        <polygon id="Stroke-27" stroke="#B8BFCA" stroke-width="2" stroke-linecap="round" stroke-linejoin="round" points="73.9148 95.5059 73.9148 120.7679 95.7928 108.1369 95.7928 82.8749"></polygon>
        <polygon id="Stroke-28" stroke="#627386" stroke-width="2" stroke-linecap="round" stroke-linejoin="round" points="73.9148 70.2438 52.0368 82.8748 52.0368 108.1368 73.9148 120.7678 95.7928 108.1368 95.7928 82.8748"></polygon>
        <polygon id="Fill-29" fill="#F2F4F6" points="95.792 167.1251 73.914 179.7561 52.037 167.1251 52.037 141.8631 73.914 129.2321 95.792 141.8631"></polygon>
        <polygon id="Stroke-30" stroke="#B8BFCA" stroke-width="2" stroke-linecap="round" stroke-linejoin="round" points="95.792 167.1251 73.914 179.7561 52.037 167.1251 52.037 141.8631 73.914 129.2321 95.792 141.8631"></polygon>
        <polygon id="Fill-31" fill="#FFFFFF" points="95.792 141.8631 73.914 154.4941 52.037 141.8631 73.914 129.2321"></polygon>
        <polygon id="Stroke-32" stroke="#B8BFCA" stroke-width="2" stroke-linecap="round" stroke-linejoin="round" points="95.792 141.8631 73.914 154.4941 52.037 141.8631 73.914 129.2321"></polygon>
        <polygon id="Fill-33" fill="#D5DAE0" points="73.9144 154.4941 73.9144 179.7561 95.7924 167.1251 95.7924 141.8631"></polygon>
        <polygon id="Stroke-34" stroke="#B8BFCA" stroke-width="2" stroke-linecap="round" stroke-linejoin="round" points="73.9144 154.4941 73.9144 179.7561 95.7924 167.1251 95.7924 141.8631"></polygon>
        <polygon id="Stroke-35" stroke="#627386" stroke-width="2" stroke-linecap="round" stroke-linejoin="round" points="73.9144 129.232 52.0364 141.863 52.0364 167.125 73.9144 179.756 95.7924 167.125 95.7924 141.863"></polygon>
        <polygon id="Fill-36" fill="#F2F4F6" points="146.8776 196.6191 124.9996 209.2501 103.1226 196.6191 103.1226 171.3571 124.9996 158.7261 146.8776 171.3571"></polygon>
        <polygon id="Stroke-37" stroke="#B8BFCA" stroke-width="2" stroke-linecap="round" stroke-linejoin="round" points="146.8776 196.6191 124.9996 209.2501 103.1226 196.6191 103.1226 171.3571 124.9996 158.7261 146.8776 171.3571"></polygon>
        <polygon id="Fill-38" fill="#FFFFFF" points="146.8776 171.3571 124.9996 183.9881 103.1226 171.3571 124.9996 158.7261"></polygon>
        <polygon id="Stroke-39" stroke="#B8BFCA" stroke-width="2" stroke-linecap="round" stroke-linejoin="round" points="146.8776 171.3571 124.9996 183.9881 103.1226 171.3571 124.9996 158.7261"></polygon>
        <polygon id="Fill-40" fill="#D5DAE0" points="125 183.9881 125 209.2501 146.878 196.6191 146.878 171.3571"></polygon>
        <polygon id="Stroke-41" stroke="#B8BFCA" stroke-width="2" stroke-linecap="round" stroke-linejoin="round" points="125 183.9881 125 209.2501 146.878 196.6191 146.878 171.3571"></polygon>
        <polygon id="Stroke-42" stroke="#627386" stroke-width="2" stroke-linecap="round" stroke-linejoin="round" points="125 158.726 103.122 171.357 103.122 196.619 125 209.25 146.878 196.619 146.878 171.357"></polygon>
        <g id="Group-84" transform="translate(73.000000, 78.000000)" stroke="#B8BFCA" stroke-linecap="round" stroke-linejoin="round" stroke-width="2">
            <g id="Group-49" transform="translate(51.000000, 80.000000)">
                <path d="M1,25.9881 L1,25.9881" id="Stroke-43"></path>
                <path d="M1,19.6726 L1,3.8836" id="Stroke-45" stroke-dasharray="0,6.316"></path>
                <path d="M1,0.7261 L1,0.7261" id="Stroke-47"></path>
            </g>
            <path d="M52,80.7261 L52,72.2621" id="Stroke-50"></path>
            <path d="M52,47 L52,13.274" id="Stroke-52"></path>
            <path d="M81.2076,4.8749 L74.4996,1.0019" id="Stroke-54"></path>
            <path d="M73.8776,93.3571 L81.2076,89.1251" id="Stroke-56"></path>
            <path d="M103.0852,51.232 L103.0852,42.768" id="Stroke-58"></path>
            <g id="Group-66" transform="translate(102.000000, 50.000000)">
                <path d="M1.0852,26.494 L1.0852,26.494" id="Stroke-60"></path>
                <path d="M1.0852,20.1785 L1.0852,4.3895" id="Stroke-62" stroke-dasharray="0,6.316"></path>
                <path d="M1.0852,1.232 L1.0852,1.232" id="Stroke-64"></path>
            </g>
            <path d="M81.2076,30.137 L23.1216,63.673" id="Stroke-67"></path>
            <path d="M22.7924,4.8749 L30.1224,0.6429" id="Stroke-69"></path>
            <path d="M30.1224,93.3571 L22.7924,89.1251" id="Stroke-71"></path>
            <g id="Group-79" transform="translate(0.000000, 75.000000)">
                <path d="M22.4314,13.9167 L22.4314,13.9167" id="Stroke-73"></path>
                <path d="M17.0523,10.811 L3.6043,3.047" id="Stroke-75" stroke-dasharray="0,6.211"></path>
                <path d="M0.9148,1.494 L0.9148,1.494" id="Stroke-77"></path>
            </g>
            <path d="M0.9144,51.2308 L0.9144,42.7668" id="Stroke-80"></path>
            <path d="M22.7924,30.137 L81.2074,63.863" id="Stroke-82"></path>
        </g>
        <polygon id="Fill-85" fill="#E9F6FE" points="146.8776 137.631 124.9996 150.262 103.1226 137.631 103.1226 112.369 124.9996 99.738 146.8776 112.369"></polygon>
        <polygon id="Stroke-86" stroke="#91D2FB" stroke-width="2" stroke-linecap="round" stroke-linejoin="round" points="146.8776 137.631 124.9996 150.262 103.1226 137.631 103.1226 112.369 124.9996 99.738 146.8776 112.369"></polygon>
        <polygon id="Fill-87" fill="#FFFFFF" points="146.8776 112.369 124.9996 125 103.1226 112.369 124.9996 99.738"></polygon>
        <polygon id="Stroke-88" stroke="#91D2FB" stroke-width="2" stroke-linecap="round" stroke-linejoin="round" points="146.8776 112.369 124.9996 125 103.1226 112.369 124.9996 99.738"></polygon>
        <polygon id="Fill-89" fill="#BDE4FD" points="125 125 125 150.262 146.878 137.631 146.878 112.369"></polygon>
        <polygon id="Stroke-90" stroke="#91D2FB" stroke-width="2" stroke-linecap="round" stroke-linejoin="round" points="125 125 125 150.262 146.878 137.631 146.878 112.369"></polygon>
        <polygon id="Stroke-91" stroke="#1B6DC6" stroke-width="2" stroke-linecap="round" stroke-linejoin="round" points="125 99.738 103.122 112.369 103.122 137.631 125 150.262 146.878 137.631 146.878 112.369"></polygon>
        <g id="Group-134" transform="translate(73.000000, 65.000000)" stroke="#B8BFCA" stroke-linecap="round" stroke-linejoin="round" stroke-width="2">
            <g id="Group-98" transform="translate(0.000000, 63.000000)">
                <path d="M0.9148,26.494 L0.9148,26.494" id="Stroke-92"></path>
                <path d="M0.9148,20.1785 L0.9148,4.3895" id="Stroke-94" stroke-dasharray="0,6.316"></path>
                <path d="M0.9148,1.232 L0.9148,1.232" id="Stroke-96"></path>
            </g>
            <g id="Group-105" transform="translate(80.000000, 89.000000)">
                <path d="M1.2076,13.1251 L1.2076,13.1251" id="Stroke-99"></path>
                <path d="M6.5868,10.0194 L20.0348,2.2554" id="Stroke-101" stroke-dasharray="0,6.211"></path>
                <path d="M22.7243,0.7024 L22.7243,0.7024" id="Stroke-103"></path>
            </g>
            <g id="Group-112" transform="translate(0.000000, 30.000000)">
                <path d="M22.7924,13.137 L22.7924,13.137" id="Stroke-106"></path>
                <path d="M17.4132,10.0313 L3.9652,2.2673" id="Stroke-108" stroke-dasharray="0,6.211"></path>
                <path d="M1.2757,0.7143 L1.2757,0.7143" id="Stroke-110"></path>
            </g>
            <g id="Group-119" transform="translate(81.000000, 30.000000)">
                <path d="M0.5686,13.3454 L0.5686,13.3454" id="Stroke-113"></path>
                <path d="M5.9477,10.2397 L19.3957,2.4757" id="Stroke-115" stroke-dasharray="0,6.211"></path>
                <path d="M22.0852,0.9227 L22.0852,0.9227" id="Stroke-117"></path>
            </g>
            <g id="Group-126" transform="translate(51.000000, 0.000000)">
                <path d="M1,1.0119 L1,1.0119" id="Stroke-120"></path>
                <path d="M6.3792,4.1176 L19.8272,11.8816" id="Stroke-122" stroke-dasharray="0,6.211"></path>
                <path d="M22.5166,13.4345 L22.5166,13.4345" id="Stroke-124"></path>
            </g>
            <g id="Group-133" transform="translate(29.000000, 0.000000)">
                <path d="M23,1.0119 L23,1.0119" id="Stroke-127"></path>
                <path d="M17.6208,4.1176 L4.1728,11.8816" id="Stroke-129" stroke-dasharray="0,6.211"></path>
                <path d="M1.4834,13.4345 L1.4834,13.4345" id="Stroke-131"></path>
            </g>
        </g>
    </g>
</svg>