<?xml version="1.0" encoding="UTF-8"?>
<svg width="38px" height="20px" viewBox="0 0 38 20" version="1.1" xmlns="http://www.w3.org/2000/svg" xmlns:xlink="http://www.w3.org/1999/xlink">
    <!-- Generator: Sketch 54.1 (76490) - https://sketchapp.com -->
    <title>Volumes</title>
    <desc>Created with Sketch.</desc>
    <defs>
        <polygon id="path-1" points="0 0 14.4466 0 14.4466 19.9958 0 19.9958"></polygon>
        <polygon id="path-3" points="0.4434 0 24 0 24 19.9958 0.4434 19.9958"></polygon>
        <polygon id="path-5" points="0.1105 0.0035 14.5575 0.0035 14.5575 20 0.1105 20"></polygon>
    </defs>
    <g id="Page-1" stroke="none" stroke-width="1" fill="none" fill-rule="evenodd">
        <g id="Volumes">
            <path d="M28.8896,10.002 C28.8896,9.562 28.7206,9.148 28.4126,8.837 L24.9876,5.375 L23.5536,6.824 L26.6966,10.002 L23.5566,13.176 L24.9916,14.626 L28.4126,11.167 C28.7206,10.856 28.8896,10.442 28.8896,10.002" id="Fill-1" fill="#4D5969" fill-rule="nonzero"></path>
            <g id="Group-5">
                <g id="Fill-3-Clipped">
                    <mask id="mask-2" fill="white">
                        <use xlink:href="#path-1"></use>
                    </mask>
                    <g id="path-1"></g>
                    <path d="M9.8896,17.7788 L2.1936,9.9978 L9.8896,2.2168 L13.0126,5.3748 L14.4466,3.9248 L11.0416,0.4828 C10.7336,0.1718 10.3246,-0.0002 9.8896,-0.0002 C9.4546,-0.0002 9.0456,0.1718 8.7376,0.4828 L0.4766,8.8338 C0.1696,9.1448 -0.0004,9.5578 -0.0004,9.9978 C-0.0004,10.4378 0.1696,10.8518 0.4766,11.1628 L8.7376,19.5138 C9.0456,19.8248 9.4546,19.9958 9.8896,19.9958 C10.3246,19.9958 10.7336,19.8248 11.0416,19.5138 L14.4426,16.0748 L13.0086,14.6248 L9.8896,17.7788 Z" id="Fill-3" fill="#9AA5B5" fill-rule="nonzero" mask="url(#mask-2)"></path>
                </g>
            </g>
            <g id="Group-8" transform="translate(14.000000, 0.000000)">
                <g id="Fill-6-Clipped">
                    <mask id="mask-4" fill="white">
                        <use xlink:href="#path-3"></use>
                    </mask>
                    <g id="path-3"></g>
                    <path d="M14.1104,17.7788 L10.9914,14.6258 L9.5574,13.1758 L6.4144,9.9978 L9.5534,6.8238 L10.9874,5.3748 L14.1104,2.2168 L21.8064,9.9978 L14.1104,17.7788 Z M23.5234,8.8338 L15.2624,0.4828 C14.9544,0.1718 14.5454,-0.0002 14.1104,-0.0002 C13.6754,-0.0002 13.2664,0.1718 12.9584,0.4828 L9.5534,3.9248 L8.1194,5.3748 L5.0004,8.5288 L1.8814,5.3748 L0.4464,6.8248 L3.5854,9.9978 L0.4434,13.1748 L1.8774,14.6248 L5.0004,11.4678 L8.1234,14.6258 L9.5574,16.0748 L12.9594,19.5138 C13.2664,19.8248 13.6754,19.9958 14.1104,19.9958 C14.5454,19.9958 14.9544,19.8248 15.2624,19.5138 L23.5234,11.1628 C23.8304,10.8518 24.0004,10.4378 24.0004,9.9978 C24.0004,9.5578 23.8304,9.1448 23.5234,8.8338 L23.5234,8.8338 Z" id="Fill-6" fill="#9AA5B5" fill-rule="nonzero" mask="url(#mask-4)"></path>
                </g>
            </g>
            <g id="Group-11" transform="translate(9.000000, 0.000000)">
                <g id="Fill-9-Clipped">
                    <mask id="mask-6" fill="white">
                        <use xlink:href="#path-5"></use>
                    </mask>
                    <g id="path-5"></g>
                    <path d="M13.1235,14.6255 L10.0005,17.7825 L6.8765,14.6255 L5.4425,13.1755 L2.3045,10.0015 L5.4465,6.8245 L6.8805,5.3755 L10.0005,2.2215 L13.1195,5.3745 L14.5535,3.9245 L11.1525,0.4865 C10.8445,0.1755 10.4355,0.0035 10.0005,0.0035 C9.5655,0.0035 9.1565,0.1755 8.8485,0.4865 L5.4465,3.9255 L4.0125,5.3755 L0.5875,8.8375 C0.2805,9.1485 0.1105,9.5625 0.1105,10.0015 C0.1105,10.4415 0.2805,10.8555 0.5875,11.1665 L4.0085,14.6255 L5.4425,16.0745 L8.8485,19.5175 C9.1565,19.8285 9.5655,20.0005 10.0005,20.0005 C10.4355,20.0005 10.8445,19.8285 11.1525,19.5175 L14.5575,16.0755 L13.1235,14.6255 Z" id="Fill-9" fill="#4D5969" fill-rule="nonzero" mask="url(#mask-6)"></path>
                </g>
            </g>
        </g>
    </g>
</svg>