<?xml version="1.0" encoding="UTF-8"?>
<svg width="20px" height="20px" viewBox="0 0 20 20" version="1.1" xmlns="http://www.w3.org/2000/svg" xmlns:xlink="http://www.w3.org/1999/xlink">
    <!-- Generator: Sketch 54.1 (76490) - https://sketchapp.com -->
    <title>X-Ray</title>
    <desc>Created with Sketch.</desc>
    <defs>
        <polygon id="path-1" points="0.000296680809 0 20 0 20 19.9999 0.000296680809 19.9999"></polygon>
        <polygon id="path-3" points="0 0.603 16.397 0.603 16.397 17 0 17"></polygon>
    </defs>
    <g id="Page-1" stroke="none" stroke-width="1" fill="none" fill-rule="evenodd">
        <g id="X-Ray">
            <path d="M19.9897,2.1094 C19.9867,0.9474 19.0397,0.0024 17.8777,0.0014 L13.2457,0.0004 C12.6807,0.0004 12.1507,0.2194 11.7517,0.6184 L9.5227,2.8474 L10.7557,4.0804 L12.9837,1.8514 C13.0537,1.7814 13.1467,1.7424 13.2457,1.7424 L17.8777,1.7444 C18.0807,1.7444 18.2467,1.9094 18.2467,2.1134 L18.2567,6.7554 C18.2577,6.8544 18.2187,6.9474 18.1487,7.0174 L15.9207,9.2454 L17.1527,10.4784 L19.3807,8.2494 C19.7757,7.8554 20.0007,7.3094 19.9997,6.7514 L19.9897,2.1094 Z" id="Fill-1" fill="#4D5969" fill-rule="nonzero"></path>
            <polygon id="Fill-3" fill="#9AA5B5" fill-rule="nonzero" points="3.6025 11.2334 8.7675 16.3994 9.9995 15.1664 4.8345 10.0014"></polygon>
            <g id="Group-7">
                <g id="Fill-5-Clipped">
                    <mask id="mask-2" fill="white">
                        <use xlink:href="#path-1"></use>
                    </mask>
                    <g id="path-1"></g>
                    <path d="M19.3813,11.7529 L8.2483,0.6189 C7.8493,0.2199 7.3183,-0.0001 6.7543,-0.0001 L2.1223,0.0019 C0.9603,0.0019 0.0133,0.9469 0.0103,2.1089 L0.0003,6.7509 C-0.0007,7.3089 0.2243,7.8549 0.6193,8.2499 L2.3703,10.0009 L3.6023,8.7689 L1.8513,7.0169 C1.7823,6.9479 1.7423,6.8529 1.7433,6.7549 L1.7533,2.1129 C1.7533,1.9099 1.9193,1.7439 2.1223,1.7439 L6.7543,1.7429 C6.8533,1.7429 6.9463,1.7809 7.0163,1.8509 L8.7673,3.6029 L10.0003,4.8359 L15.1653,10.0009 L16.3973,11.2329 L18.1493,12.9849 C18.2173,13.0539 18.2573,13.1489 18.2573,13.2469 L18.2523,17.8559 C18.2513,18.0579 18.0873,18.2229 17.8843,18.2249 L13.2463,18.2569 L13.2413,18.2569 C13.1433,18.2569 13.0513,18.2179 12.9823,18.1489 L11.2323,16.3989 L10.0003,17.6309 L11.7503,19.3809 C12.1493,19.7799 12.6793,19.9999 13.2453,19.9999 L17.8973,19.9669 C19.0523,19.9589 19.9933,19.0129 19.9943,17.8569 L20.0003,13.2489 C20.0003,12.6839 19.7803,12.1519 19.3813,11.7529" id="Fill-5" fill="#9AA5B5" fill-rule="nonzero" mask="url(#mask-2)"></path>
                </g>
            </g>
            <g id="Group-10" transform="translate(0.000000, 3.000000)">
                <g id="Fill-8-Clipped">
                    <mask id="mask-4" fill="white">
                        <use xlink:href="#path-3"></use>
                    </mask>
                    <g id="path-3"></g>
                    <path d="M15.165,7.001 L10,12.167 L8.768,13.399 L7.018,15.149 C6.95,15.217 6.855,15.256 6.759,15.257 L2.115,15.225 C1.913,15.223 1.748,15.058 1.748,14.855 L1.743,10.247 C1.743,10.148 1.781,10.055 1.851,9.985 L3.602,8.233 L4.835,7.001 L10,1.835 L8.768,0.603 L3.602,5.769 L2.37,7.001 L0.619,8.753 C0.219,9.152 -0.001,9.684 4.23516474e-22,10.249 L0.005,14.857 C0.007,16.013 0.948,16.959 2.103,16.967 L6.743,17 L6.756,17 C7.321,17 7.851,16.78 8.25,16.381 L10,14.631 L11.232,13.399 L16.397,8.233 L15.165,7.001 Z" id="Fill-8" fill="#4D5969" fill-rule="nonzero" mask="url(#mask-4)"></path>
                </g>
            </g>
        </g>
    </g>
</svg>