<?xml version="1.0" encoding="UTF-8"?>
<svg width="35px" height="20px" viewBox="0 0 35 20" version="1.1" xmlns="http://www.w3.org/2000/svg" xmlns:xlink="http://www.w3.org/1999/xlink">
    <!-- Generator: Sketch 54.1 (76490) - https://sketchapp.com -->
    <title>Xi</title>
    <desc>Created with Sketch.</desc>
    <defs>
        <polygon id="path-1" points="0.1722 0 28 0 28 17.8689 0.1722 17.8689"></polygon>
    </defs>
    <g id="Page-1" stroke="none" stroke-width="1" fill="none" fill-rule="evenodd">
        <g id="Xi" transform="translate(-0.000000, 0.000000)">
            <path d="M10.625,18.4648 L10.627,18.4648 L10.616,18.4368 C10.602,18.3898 10.594,18.3418 10.573,18.2968 C10.514,18.1648 10.455,18.0248 10.393,17.8688 C10.39,17.8628 10.388,17.8568 10.386,17.8508 L10.272,17.5668 L8.391,17.5668 L7.718,17.5688 L2.458,17.5828 C2.444,17.3798 2.436,17.1748 2.436,16.9718 C2.436,15.1688 3.015,13.4538 4.11,12.0128 C5.087,10.7268 6.445,9.7358 7.967,9.1908 C8.321,8.1988 8.788,7.2588 9.351,6.3858 C6.819,6.7218 4.488,7.9428 2.766,9.8388 C0.982,11.8018 0,14.3358 0,16.9718 C0,17.6598 0.067,18.3488 0.198,19.0198 C0.31,19.5848 0.812,19.9948 1.395,19.9948 L9.461,19.9918 C9.875,19.9908 10.256,19.7858 10.482,19.4428 C10.674,19.1488 10.718,18.7958 10.625,18.4648" id="Fill-1" fill="#9AA5B5" fill-rule="nonzero"></path>
            <path d="M34.4536,17.5669 C34.4516,17.5749 34.4496,17.5829 34.4466,17.5909 L34.4546,17.5669 L34.4536,17.5669 Z" id="Fill-3" fill="#000000" fill-rule="nonzero"></path>
            <path d="M32.8672,17.5669 L32.8812,17.5299 L31.9032,17.5299 L31.8962,17.5299 L31.8862,17.5539 L21.5792,17.5849 L21.5812,17.5629 L21.5522,17.5629 C21.5632,17.3659 21.5692,17.1689 21.5692,16.9729 C21.5692,13.8849 20.2202,10.9469 17.8672,8.9129 C17.7862,8.8429 17.7042,8.7739 17.6212,8.7069 C17.5972,8.6869 17.5732,8.6679 17.5482,8.6479 L17.5202,8.6269 C17.3942,8.5259 17.2902,8.4469 17.1962,8.3779 L17.1722,8.3599 C15.7392,7.3179 14.0802,6.6479 12.3362,6.3989 C12.1702,6.5919 12.0102,6.7909 11.8572,6.9939 L11.8402,7.0159 C11.4092,7.5229 11.0572,8.0839 10.7852,8.6849 L10.8452,8.6849 C12.9152,8.6849 14.8992,9.4439 16.4292,10.8229 C17.9482,12.1929 18.8962,14.0569 19.0992,16.0769 C19.1322,16.3789 19.1492,16.6799 19.1492,16.9719 C19.1492,17.5079 19.0972,18.0439 18.9942,18.5639 C18.9252,18.9199 19.0182,19.2829 19.2512,19.5629 C19.4842,19.8399 19.8252,19.9999 20.1942,19.9999 L32.7102,19.9629 C33.1902,19.9619 33.6262,19.6799 33.8212,19.2449 C33.9322,18.9939 34.0392,18.7329 34.1392,18.4649 C34.1762,18.3649 34.2132,18.2639 34.2482,18.1619 L34.4472,17.5909 C34.4492,17.5829 34.4512,17.5749 34.4532,17.5669 L32.8672,17.5669 Z" id="Fill-5" fill="#9AA5B5" fill-rule="nonzero"></path>
            <g id="Group-9" transform="translate(7.000000, 0.000000)">
                <g id="Fill-7-Clipped">
                    <mask id="mask-2" fill="white">
                        <use xlink:href="#path-1"></use>
                    </mask>
                    <g id="path-1"></g>
                    <path d="M25.8672,17.5669 L27.4532,17.5669 C27.8162,16.3279 28.0002,15.0429 28.0002,13.7369 C28.0002,11.3409 27.3662,8.9799 26.1652,6.9069 C24.9642,4.8449 23.2342,3.1159 21.1632,1.9059 C19.0302,0.6589 16.5862,-0.0001 14.0952,-0.0001 C9.1652,-0.0001 4.8252,2.5489 2.3512,6.3859 C1.7872,7.2589 1.3222,8.1989 0.9672,9.1909 C0.4522,10.6279 0.1722,12.1719 0.1722,13.7799 C0.1722,13.8439 0.1732,13.9079 0.1742,13.9709 L0.1762,14.0669 C0.1762,14.1069 0.1772,14.1479 0.1782,14.1879 C0.1802,14.2569 0.1832,14.3259 0.1862,14.3969 C0.2382,15.4779 0.4172,16.5419 0.7172,17.5689 L1.3912,17.5669 L3.2722,17.5669 L3.3862,17.8509 C3.3882,17.8569 3.3902,17.8629 3.3922,17.8689 L3.3872,17.8529 C2.8712,16.5439 2.6092,15.1589 2.6092,13.7369 C2.6092,12.1149 2.9492,10.5479 3.6192,9.0799 L3.6302,9.0549 C3.6782,8.9299 3.7302,8.8069 3.7852,8.6849 C4.0572,8.0839 4.4092,7.5229 4.8402,7.0159 L4.8572,6.9939 C5.0102,6.7909 5.1702,6.5919 5.3362,6.3989 C6.3102,5.2649 7.5082,4.3179 8.8402,3.6379 C10.4732,2.8029 12.2382,2.3799 14.0842,2.3799 C20.4122,2.3799 25.5592,7.4749 25.5592,13.7369 C25.5592,15.0429 25.3212,16.3409 24.8862,17.5539" id="Fill-7" fill="#4D5969" fill-rule="nonzero" mask="url(#mask-2)"></path>
                </g>
            </g>
        </g>
    </g>
</svg>