<?xml version="1.0" encoding="UTF-8"?>
<svg width="17px" height="20px" viewBox="0 0 17 20" version="1.1" xmlns="http://www.w3.org/2000/svg" xmlns:xlink="http://www.w3.org/1999/xlink">
    <!-- Generator: Sketch 54.1 (76490) - https://sketchapp.com -->
    <title>Leap</title>
    <desc>Created with Sketch.</desc>
    <defs>
        <polygon id="path-1" points="0 20 17 20 17 0 0 0"></polygon>
        <polygon id="path-3" points="0 20 17 20 17 0 0 0"></polygon>
    </defs>
    <g id="Page-1" stroke="none" stroke-width="1" fill="none" fill-rule="evenodd">
        <g id="Leap">
            <path d="M14.9502,8.7881 C13.5342,10.7671 11.4772,13.1511 9.9742,14.8921 L9.1722,15.8231 L9.8042,15.8961 C10.0382,15.9231 10.2192,16.1121 10.2362,16.3451 L10.2932,17.1661 L10.8322,16.5401 C10.9772,16.3721 11.1302,16.1941 11.2912,16.0081 C12.8402,14.2141 15.1792,11.5041 16.6402,9.3891 C16.6962,9.3091 16.7462,9.2221 16.7912,9.1311 L14.9502,8.7881 Z" id="Fill-1" fill="#4D5969" fill-rule="nonzero"></path>
            <path d="M6.9326,14.7681 C5.4606,13.0521 3.4436,10.7031 2.0546,8.7861 L0.2106,9.1311 C0.2576,9.2261 0.3106,9.3161 0.3696,9.3991 C1.8026,11.4411 4.0046,14.0071 5.6126,15.8801 L5.6526,15.9271 C5.8386,16.1441 6.0156,16.3501 6.1796,16.5421 L6.7226,17.1771 L6.7776,16.3471 C6.7926,16.1131 6.9746,15.9241 7.2076,15.8961 L7.8356,15.8221 L7.4266,15.3441 C7.2706,15.1631 7.1056,14.9701 6.9326,14.7681" id="Fill-3" fill="#4D5969" fill-rule="nonzero"></path>
            <g id="Fill-5-Clipped">
                <mask id="mask-2" fill="white">
                    <use xlink:href="#path-1"></use>
                </mask>
                <g id="path-1"></g>
                <path d="M7.829,18.282 L9.185,18.282 L9.185,16.937 L7.829,16.937 L7.829,18.282 Z M9.747,15.219 L7.266,15.219 C6.621,15.219 6.097,15.739 6.097,16.379 L6.097,18.84 C6.097,19.479 6.621,20 7.266,20 L9.747,20 C10.392,20 10.917,19.479 10.917,18.84 L10.917,16.379 C10.917,15.739 10.392,15.219 9.747,15.219 L9.747,15.219 Z" id="Fill-5" fill="#9AA5B5" fill-rule="nonzero" mask="url(#mask-2)"></path>
            </g>
            <g id="Fill-7-Clipped">
                <mask id="mask-4" fill="white">
                    <use xlink:href="#path-3"></use>
                </mask>
                <g id="path-1"></g>
                <path d="M5.8711,7.5928 C5.9551,6.0308 6.2751,4.5828 6.7811,3.4818 C7.2701,2.4198 7.8881,1.7858 8.4351,1.7858 C8.9831,1.7858 9.6011,2.4198 10.0901,3.4818 C10.5961,4.5828 10.9161,6.0308 11.0001,7.5928 L5.8711,7.5928 Z M13.7991,4.2568 C14.5771,5.2248 15.0631,6.3718 15.2161,7.5928 L12.7341,7.5928 C12.6461,5.7838 12.2701,4.0818 11.6661,2.7688 C11.6091,2.6448 11.5501,2.5248 11.4891,2.4078 C12.3821,2.8428 13.1691,3.4708 13.7991,4.2568 L13.7991,4.2568 Z M1.7831,7.5928 C2.0581,5.4058 3.3951,3.5098 5.3371,2.4948 C5.2921,2.5838 5.2481,2.6758 5.2051,2.7688 C4.6011,4.0818 4.2251,5.7838 4.1371,7.5928 L1.7831,7.5928 Z M14.4291,2.3888 C12.8331,0.8488 10.7271,-0.0002 8.5001,-0.0002 C6.2731,-0.0002 4.1671,0.8478 2.5721,2.3878 C0.9791,3.9248 0.0661,5.9828 0.0011,8.1818 C-0.0089,8.5138 0.0611,8.8338 0.2101,9.1318 L0.3041,9.3198 L16.6981,9.3198 L16.7911,9.1318 C16.9381,8.8338 17.0091,8.5148 16.9991,8.1848 C16.9341,5.9848 16.0221,3.9258 14.4291,2.3888 L14.4291,2.3888 Z" id="Fill-7" fill="#9AA5B5" fill-rule="nonzero" mask="url(#mask-4)"></path>
            </g>
        </g>
    </g>
</svg>