<?xml version="1.0" encoding="UTF-8"?>
<svg width="21px" height="20px" viewBox="0 0 21 20" version="1.1" xmlns="http://www.w3.org/2000/svg" xmlns:xlink="http://www.w3.org/1999/xlink">
    <!-- Generator: Sketch 54.1 (76490) - https://sketchapp.com -->
    <title>Xtract</title>
    <desc>Created with Sketch.</desc>
    <defs>
        <polygon id="path-1" points="0.5861 4.10119946e-05 15.995 4.10119946e-05 15.995 20 0.5861 20"></polygon>
    </defs>
    <g id="Page-1" stroke="none" stroke-width="1" fill="none" fill-rule="evenodd">
        <g id="Xtract">
            <g id="Group-3" transform="translate(5.000000, 0.000000)">
                <g id="Fill-1-Clipped">
                    <mask id="mask-2" fill="white">
                        <use xlink:href="#path-1"></use>
                    </mask>
                    <g id="path-1"></g>
                    <path d="M15.0021,8.1191 L4.0721,0.3901 C4.0621,0.3841 4.0521,0.3771 4.0461,0.3731 C3.3591,-0.0849 2.4831,-0.1239 1.7591,0.2711 C1.0361,0.6661 0.5861,1.4291 0.5861,2.2621 L0.5861,3.1431 L0.5861,5.4501 L0.5861,14.5501 L2.4421,13.2151 L2.4421,6.7861 L2.4421,4.4791 L2.4421,2.2621 C2.4421,2.1181 2.5151,1.9951 2.6401,1.9271 C2.7621,1.8601 2.9011,1.8651 3.0181,1.9391 L13.9461,9.6651 C13.9541,9.6711 13.9621,9.6771 13.9691,9.6811 C14.0791,9.7541 14.1391,9.8681 14.1391,10.0001 C14.1391,10.1321 14.0791,10.2451 13.9711,10.3171 C13.9631,10.3221 13.9561,10.3271 13.9481,10.3331 L3.0181,18.0611 C2.9001,18.1361 2.7631,18.1401 2.6401,18.0731 C2.5151,18.0051 2.4421,17.8821 2.4421,17.7381 L2.4421,15.5211 L0.5861,16.8561 L0.5861,17.7381 C0.5861,18.5711 1.0361,19.3341 1.7591,19.7291 C2.0851,19.9061 2.4511,20.0001 2.8191,20.0001 C3.2561,20.0001 3.6801,19.8711 4.0431,19.6291 C4.0511,19.6231 4.0611,19.6181 4.0671,19.6131 L15.0021,11.8811 C15.6241,11.4611 15.9951,10.7581 15.9951,10.0001 C15.9951,9.2421 15.6241,8.5391 15.0021,8.1191" id="Fill-1" fill="#4D5969" fill-rule="nonzero" mask="url(#mask-2)"></path>
                </g>
            </g>
            <path d="M12.5104,8.1235 L7.4424,4.4785 L7.4424,6.7855 L11.4484,9.6655 C11.4564,9.6725 11.4654,9.6785 11.4714,9.6825 C11.5804,9.7545 11.6404,9.8685 11.6404,9.9995 C11.6404,10.1325 11.5804,10.2455 11.4714,10.3175 C11.4634,10.3235 11.4554,10.3285 11.4464,10.3355 L7.4424,13.2145 L5.5864,14.5495 L2.4314,16.8185 C2.3144,16.8935 2.1774,16.8975 2.0544,16.8305 C1.9284,16.7625 1.8564,16.6395 1.8564,16.4955 L1.8564,3.5045 C1.8564,3.3605 1.9284,3.2375 2.0544,3.1695 C2.1764,3.1035 2.3154,3.1075 2.4314,3.1815 L5.5864,5.4505 L5.5864,3.1435 L3.4874,1.6345 L3.4654,1.6195 C2.7784,1.1585 1.9014,1.1185 1.1764,1.5125 C0.4504,1.9075 0.0004,2.6705 0.0004,3.5045 L0.0004,16.4955 C0.0004,17.3295 0.4504,18.0925 1.1764,18.4875 C1.5004,18.6645 1.8654,18.7575 2.2334,18.7575 C2.6724,18.7575 3.0974,18.6265 3.4604,18.3845 C3.4684,18.3785 3.4774,18.3735 3.4904,18.3635 L5.5864,16.8565 L7.4424,15.5215 L12.5104,11.8765 C13.1284,11.4555 13.4964,10.7545 13.4964,9.9995 C13.4964,9.2455 13.1284,8.5445 12.5104,8.1235" id="Fill-4" fill="#9AA5B5" fill-rule="nonzero"></path>
        </g>
    </g>
</svg>