<svg xmlns="http://www.w3.org/2000/svg" width="71.42" height="107.66" viewBox="0 0 71.42 107.66"><defs><style>.cls-1{fill:#b8bfca;}.cls-1,.cls-3,.cls-4{stroke:#627386;stroke-linecap:round;stroke-linejoin:round;stroke-width:2px;}.cls-2{fill:#d5dae0;}.cls-3{fill:none;}.cls-4,.cls-5{fill:#f2f4f6;}.cls-6{fill:#fff;}</style></defs><title>cone_01</title><g id="Layer_2" data-name="Layer 2"><g id="Layer_1-2" data-name="Layer 1"><path class="cls-1" d="M67.85,79.05c-5.18-7.32-17.61-12.47-32.14-12.47s-27,5.15-32.14,12.47H1v7.57c0,11.07,15.54,20,34.71,20s34.71-9,34.71-20V79.05Z"/><path class="cls-2" d="M3.57,79.05H1v7.57c0,11.07,15.54,20,34.71,20V66.58C21.18,66.58,8.75,71.73,3.57,79.05Z"/><path class="cls-3" d="M67.85,79.05c-5.18-7.32-17.61-12.47-32.14-12.47s-27,5.15-32.14,12.47H1v7.57c0,11.07,15.54,20,34.71,20s34.71-9,34.71-20V79.05Z"/><ellipse class="cls-4" cx="35.71" cy="79.05" rx="34.71" ry="20.04"/><path class="cls-1" d="M62.15,74.13h0L41.86,4H29.56L9.26,74.13h0a9.29,9.29,0,0,0-.38,2.57c0,8.55,12,15.48,26.82,15.48S62.53,85.25,62.53,76.7A9.29,9.29,0,0,0,62.15,74.13Z"/><path class="cls-5" d="M29.56,4,9.26,74.13h0a9.29,9.29,0,0,0-.38,2.57c0,8.55,12,15.48,26.82,15.48V4Z"/><path class="cls-3" d="M62.15,74.13h0L41.86,4H29.56L9.26,74.13h0a9.29,9.29,0,0,0-.38,2.57c0,8.55,12,15.48,26.82,15.48S62.53,85.25,62.53,76.7A9.29,9.29,0,0,0,62.15,74.13Z"/><path class="cls-4" d="M50.87,35.14C50,39.51,43.52,42.9,35.71,42.9s-14.25-3.39-15.16-7.76L13.81,58.43c.85,6.55,10.33,11.72,21.9,11.72s21-5.17,21.9-11.72Z"/><path class="cls-6" d="M20.55,35.14,13.81,58.43c.85,6.55,10.33,11.72,21.9,11.72V42.9C27.9,42.9,21.46,39.51,20.55,35.14Z"/><ellipse class="cls-4" cx="35.71" cy="4.6" rx="6.24" ry="3.6"/><path class="cls-3" d="M50.87,35.14C50,39.51,43.52,42.9,35.71,42.9s-14.25-3.39-15.16-7.76L13.81,58.43c.85,6.55,10.33,11.72,21.9,11.72s21-5.17,21.9-11.72Z"/></g></g></svg>