<svg xmlns="http://www.w3.org/2000/svg" width="106.33" height="156.74" viewBox="0 0 106.33 156.74"><defs><style>.cls-1,.cls-5{fill:#d5dae0;}.cls-1,.cls-2,.cls-3,.cls-4,.cls-7{stroke:#627386;stroke-linecap:round;stroke-linejoin:round;stroke-width:2px;}.cls-2{fill:#fff;}.cls-3{fill:#f2f4f6;}.cls-4,.cls-6{fill:#b8bfca;}.cls-7{fill:none;}</style></defs><title>roadblock_01</title><g id="Layer_2" data-name="Layer 2"><g id="Layer_1-2" data-name="Layer 1"><polygon class="cls-1" points="9.94 111.56 5.86 109.21 5.86 153.39 9.94 155.74 9.94 111.56"/><polygon class="cls-2" points="9.94 111.56 5.86 109.21 14.24 104.38 18.31 106.73 9.94 111.56"/><polygon class="cls-3" points="9.94 155.74 18.31 150.91 18.31 106.73 9.94 111.56 9.94 155.74"/><polygon class="cls-1" points="92.09 64.13 88.02 61.78 88.02 105.95 92.09 108.31 92.09 64.13"/><polygon class="cls-2" points="92.09 64.13 88.02 61.78 96.39 56.94 100.47 59.3 92.09 64.13"/><polygon class="cls-3" points="92.09 108.31 100.47 103.47 100.47 59.3 92.09 64.13 92.09 108.31"/><polygon class="cls-3" points="44.49 91.62 31.37 81.7 42.89 75.06 56 84.97 44.49 91.62"/><polygon class="cls-1" points="56 84.97 42.89 75.06 54.41 68.41 67.52 78.32 56 84.97"/><polygon class="cls-3" points="67.52 78.32 54.41 68.41 65.92 61.76 79.03 71.67 67.52 78.32"/><polygon class="cls-1" points="79.03 71.67 65.92 61.76 77.44 55.11 90.55 65.02 79.03 71.67"/><polygon class="cls-3" points="88.95 48.46 100.47 57.17 100.47 59.3 90.55 65.02 77.44 55.11 88.95 48.46"/><polygon class="cls-1" points="88.95 48.46 100.47 41.81 100.47 57.17 88.95 48.46"/><polygon class="cls-1" points="32.97 98.27 19.86 88.35 31.37 81.7 44.49 91.62 32.97 98.27"/><polygon class="cls-3" points="21.45 104.92 9.94 96.21 9.94 94.08 19.86 88.35 32.97 98.27 21.45 104.92"/><polygon class="cls-1" points="21.45 104.92 9.94 111.56 9.94 96.21 21.45 104.92"/><polygon class="cls-4" points="9.94 94.08 5.86 91.73 5.86 109.21 9.94 111.56 9.94 94.08"/><polygon class="cls-1" points="9.94 94.08 5.86 91.73 96.39 39.46 100.47 41.81 9.94 94.08"/><polygon class="cls-1" points="92.09 31.04 88.02 28.68 88.02 44.29 92.09 46.65 92.09 31.04"/><polygon class="cls-2" points="92.09 31.04 88.02 28.68 96.39 23.85 100.47 26.2 92.09 31.04"/><polygon class="cls-3" points="92.09 46.65 100.47 41.81 100.47 26.2 92.09 31.04 92.09 46.65"/><polygon class="cls-5" points="92.09 37.13 100.47 32.29 100.47 24.84 92.09 29.68 92.09 37.13"/><polygon class="cls-6" points="92.09 37.13 88.02 34.77 88.02 27.32 92.09 29.68 92.09 37.13"/><polygon class="cls-7" points="92.09 31.04 88.02 28.68 88.02 44.29 92.09 46.65 92.09 31.04"/><polygon class="cls-7" points="92.09 46.65 100.47 41.81 100.47 26.2 92.09 31.04 92.09 46.65"/><polygon class="cls-3" points="90.42 13.8 83.16 9.61 98.07 1 105.33 5.19 90.42 13.8"/><polygon class="cls-1" points="90.42 33.84 90.42 13.8 105.33 5.19 105.33 25.23 90.42 33.84"/><polygon class="cls-4" points="90.42 33.84 90.42 13.8 83.16 9.61 83.16 29.65 90.42 33.84"/><ellipse class="cls-2" cx="97.87" cy="19.52" rx="6.26" ry="3.54" transform="translate(41.59 101.93) rotate(-66.95)"/><polygon class="cls-1" points="9.94 78.47 5.86 76.11 5.86 91.73 9.94 94.08 9.94 78.47"/><polygon class="cls-2" points="9.94 78.47 5.86 76.11 14.24 71.28 18.31 73.63 9.94 78.47"/><polygon class="cls-3" points="9.94 94.08 18.31 89.25 18.31 73.63 9.94 78.47 9.94 94.08"/><polygon class="cls-5" points="9.94 84.56 18.31 79.72 18.31 72.27 9.94 77.11 9.94 84.56"/><polygon class="cls-6" points="9.94 84.56 5.86 82.2 5.86 74.75 9.94 77.11 9.94 84.56"/><polygon class="cls-7" points="9.94 78.47 5.86 76.11 5.86 91.73 9.94 94.08 9.94 78.47"/><polygon class="cls-7" points="9.94 94.08 18.31 89.25 18.31 73.63 9.94 78.47 9.94 94.08"/><polygon class="cls-3" points="8.26 61.24 1 57.05 15.91 48.43 23.18 52.63 8.26 61.24"/><polygon class="cls-1" points="8.26 81.28 8.26 61.24 23.18 52.63 23.18 72.66 8.26 81.28"/><polygon class="cls-4" points="8.26 81.28 8.26 61.24 1 57.05 1 77.08 8.26 81.28"/><ellipse class="cls-2" cx="15.72" cy="66.95" rx="6.26" ry="3.54" transform="translate(-52.04 55.2) rotate(-66.95)"/></g></g></svg>