<svg xmlns="http://www.w3.org/2000/svg" width="40.57" height="47.22" viewBox="0 0 40.57 47.22"><defs><style>.cls-1{fill:#f2f4f6;}.cls-1,.cls-2{stroke:#627386;stroke-linecap:round;stroke-linejoin:round;stroke-width:2px;}.cls-2{fill:#d5dae0;}</style></defs><title>roadblock_03</title><g id="Layer_2" data-name="Layer 2"><g id="Layer_1-2" data-name="Layer 1"><polygon class="cls-1" points="29.93 17.7 20.29 12.13 29.93 6.57 39.57 12.13 29.93 17.7"/><polygon class="cls-2" points="39.57 1 39.57 1 39.57 12.13 39.57 12.13 29.93 6.57 39.57 1"/><polygon class="cls-2" points="20.29 23.27 10.64 17.7 20.29 12.13 29.93 17.7 20.29 23.27"/><polygon class="cls-1" points="10.64 28.84 1 23.27 10.64 17.7 20.29 23.27 10.64 28.84"/><polygon class="cls-2" points="1 34.41 1 34.41 1 23.27 1 23.27 10.64 28.84 1 34.41"/><path class="cls-1" d="M6.25,31.38V44.71c0,.83-1.18,1.51-2.63,1.51S1,45.54,1,44.71V34.41Z"/><path class="cls-1" d="M39.57,12.14V25.47C39.57,26.3,38.4,27,37,27s-2.62-.68-2.62-1.51V15.16Z"/></g></g></svg>