<svg xmlns="http://www.w3.org/2000/svg" width="110.21" height="162.5" viewBox="0 0 110.21 162.5"><defs><style>.cls-1,.cls-5{fill:#d5dae0;}.cls-1,.cls-2,.cls-3,.cls-4,.cls-7{stroke:#627386;stroke-linecap:round;stroke-linejoin:round;stroke-width:2px;}.cls-2{fill:#fff;}.cls-3{fill:#f2f4f6;}.cls-4,.cls-6{fill:#b8bfca;}.cls-7{fill:none;}</style></defs><title>roadblock_02</title><g id="Layer_2" data-name="Layer 2"><g id="Layer_1-2" data-name="Layer 1"><polygon class="cls-1" points="99.94 115.68 104.17 113.24 104.17 159.06 99.94 161.5 99.94 115.68"/><polygon class="cls-2" points="99.94 115.68 104.17 113.24 95.48 108.22 91.26 110.66 99.94 115.68"/><polygon class="cls-3" points="99.94 161.5 91.26 156.48 91.26 110.66 99.94 115.68 99.94 161.5"/><polygon class="cls-1" points="14.73 66.48 18.96 64.04 18.96 109.86 14.73 112.3 14.73 66.48"/><polygon class="cls-2" points="14.73 66.48 18.96 64.04 10.27 59.02 6.04 61.47 14.73 66.48"/><polygon class="cls-3" points="14.73 112.3 6.04 107.29 6.04 61.47 14.73 66.48 14.73 112.3"/><polygon class="cls-3" points="64.11 94.99 77.71 84.71 65.76 77.81 52.16 88.09 64.11 94.99"/><polygon class="cls-1" points="52.16 88.09 65.77 77.81 53.82 70.92 40.22 81.2 52.16 88.09"/><polygon class="cls-3" points="40.22 81.2 53.82 70.92 41.88 64.02 28.27 74.3 40.22 81.2"/><polygon class="cls-1" points="28.27 74.3 41.88 64.02 29.93 57.12 16.33 67.41 28.27 74.3"/><polygon class="cls-3" points="17.99 50.23 6.04 59.26 6.04 61.47 16.33 67.41 29.93 57.12 17.99 50.23"/><polygon class="cls-1" points="17.99 50.23 6.04 43.33 6.04 59.26 17.99 50.23"/><polygon class="cls-1" points="76.05 101.89 89.65 91.6 77.71 84.71 64.11 94.99 76.05 101.89"/><polygon class="cls-3" points="88 108.78 99.94 99.75 99.94 97.54 89.65 91.6 76.05 101.89 88 108.78"/><polygon class="cls-1" points="88 108.78 99.94 115.68 99.94 99.75 88 108.78"/><polygon class="cls-4" points="99.94 97.54 104.17 95.1 104.17 113.24 99.94 115.68 99.94 97.54"/><polygon class="cls-1" points="99.94 97.54 104.17 95.1 10.27 40.89 6.04 43.33 99.94 97.54"/><polygon class="cls-1" points="14.73 32.15 18.96 29.71 18.96 45.9 14.73 48.34 14.73 32.15"/><polygon class="cls-2" points="14.73 32.15 18.96 29.71 10.27 24.7 6.04 27.14 14.73 32.15"/><polygon class="cls-3" points="14.73 48.34 6.04 43.33 6.04 27.14 14.73 32.15 14.73 48.34"/><polygon class="cls-5" points="14.73 38.47 6.04 33.45 6.04 25.73 14.73 30.74 14.73 38.47"/><polygon class="cls-6" points="14.73 38.47 18.96 36.03 18.96 28.3 14.73 30.74 14.73 38.47"/><polygon class="cls-7" points="14.73 32.15 18.96 29.71 18.96 45.9 14.73 48.34 14.73 32.15"/><polygon class="cls-7" points="14.73 48.34 6.04 43.33 6.04 27.14 14.73 32.15 14.73 48.34"/><polygon class="cls-3" points="16.47 14.28 24 9.93 8.53 1 1 5.35 16.47 14.28"/><polygon class="cls-1" points="16.47 35.06 16.47 14.28 1 5.35 1 26.13 16.47 35.06"/><polygon class="cls-4" points="16.47 35.06 16.47 14.28 24 9.93 24 30.72 16.47 35.06"/><ellipse class="cls-2" cx="8.74" cy="20.21" rx="3.68" ry="6.5" transform="translate(-7.21 5.03) rotate(-23.05)"/><polygon class="cls-1" points="99.94 81.35 104.17 78.91 104.17 95.1 99.94 97.54 99.94 81.35"/><polygon class="cls-2" points="99.94 81.35 104.17 78.91 95.48 73.89 91.26 76.34 99.94 81.35"/><polygon class="cls-3" points="99.94 97.54 91.26 92.53 91.26 76.34 99.94 81.35 99.94 97.54"/><polygon class="cls-5" points="99.94 87.67 91.26 82.65 91.26 74.92 99.94 79.94 99.94 87.67"/><polygon class="cls-6" points="99.94 87.67 104.17 85.23 104.17 77.5 99.94 79.94 99.94 87.67"/><polygon class="cls-7" points="99.94 81.35 104.17 78.91 104.17 95.1 99.94 97.54 99.94 81.35"/><polygon class="cls-7" points="99.94 97.54 91.26 92.53 91.26 76.34 99.94 81.35 99.94 97.54"/><polygon class="cls-3" points="101.68 63.48 109.21 59.13 93.74 50.2 86.21 54.55 101.68 63.48"/><polygon class="cls-1" points="101.68 84.26 101.68 63.48 86.21 54.55 86.21 75.33 101.68 84.26"/><polygon class="cls-4" points="101.68 84.26 101.68 63.48 109.21 59.13 109.21 79.92 101.68 84.26"/><ellipse class="cls-2" cx="93.95" cy="69.4" rx="3.68" ry="6.5" transform="translate(-19.67 42.33) rotate(-23.05)"/></g></g></svg>