<svg xmlns="http://www.w3.org/2000/svg" width="154.34" height="160.87" viewBox="0 0 154.34 160.87"><defs><style>.cls-1,.cls-6{fill:#d5dae0;}.cls-1,.cls-3,.cls-4,.cls-5{stroke:#627386;}.cls-1,.cls-10,.cls-11,.cls-12,.cls-3,.cls-4,.cls-5,.cls-7,.cls-8,.cls-9{stroke-linecap:round;stroke-linejoin:round;stroke-width:2px;}.cls-2{fill:#fff;}.cls-12,.cls-3,.cls-7,.cls-8{fill:none;}.cls-4{fill:#f2f4f6;}.cls-5{fill:#b8bfca;}.cls-10,.cls-11,.cls-7,.cls-8,.cls-9{stroke:#1b6dc6;}.cls-8{stroke-dasharray:0 6.03;}.cls-9{fill:#e9f6fe;}.cls-10{fill:#d3edfd;}.cls-11{fill:#91d2fb;}.cls-12{stroke:#f2f4f6;}</style></defs><title>roadblock_04</title><g id="Layer_2" data-name="Layer 2"><g id="Layer_1-2" data-name="Layer 1"><path class="cls-1" d="M46.05,54.19,32.63,46.44c-1.9-1.09-3.65-1.2-5-.49h0L3.86,58.38l26.3,99.14,23.76-12.43V69.23C53.92,63.44,50.4,56.7,46.05,54.19Z"/><path class="cls-2" d="M46.05,54.19,32.63,46.44c-1.9-1.09-3.65-1.2-5-.49L3.86,58.38l7.37,27.77L52.47,62.34C51.05,58.83,48.7,55.73,46.05,54.19Z"/><path class="cls-3" d="M46.05,54.19,32.63,46.44c-1.9-1.09-3.65-1.2-5-.49h0L3.86,58.38l26.3,99.14,23.76-12.43V69.23C53.92,63.44,50.4,56.7,46.05,54.19Z"/><path class="cls-4" d="M30.16,157.52,1,140.68V64.83c0-5.8,3.52-8.47,7.87-6l13.42,7.75c4.35,2.51,7.87,9.25,7.87,15Z"/><polygon class="cls-5" points="23.6 99.04 7.56 89.78 7.56 68.39 23.6 77.65 23.6 99.04"/><path class="cls-5" d="M37,59,23.53,51.26c-1.9-1.1-3.64-1.2-5-.49l-4.81,2.77h0a5.11,5.11,0,0,1,5,.49l13.42,7.75C36.5,64.29,40,71,40,76.82V105.5l4.8-2.38V74.05C44.82,68.25,41.3,61.52,37,59Z"/><path class="cls-6" d="M37,59,23.53,51.26c-1.9-1.1-3.64-1.2-5-.49l-4.81,2.77h0a5.11,5.11,0,0,1,5,.49l13.42,7.75c2.75,1.58,5.16,4.85,6.57,8.5l4.8-2.77C42.11,63.86,39.7,60.59,37,59Z"/><path class="cls-3" d="M37,59l-6.71-3.87-6.71-3.88a6.72,6.72,0,0,0-2.45-.89,4.1,4.1,0,0,0-2.55.4l-2.41,1.38-2.4,1.39h0a4.15,4.15,0,0,1,2.56-.4,6.72,6.72,0,0,1,2.45.89l6.71,3.88,6.71,3.87a15.77,15.77,0,0,1,5.71,6.57A19.32,19.32,0,0,1,40,76.82V105.5l2.4-1.19,2.4-1.19V74.05a19.32,19.32,0,0,0-2.16-8.47A15.7,15.7,0,0,0,37,59Z"/><line class="cls-7" x1="125.91" y1="33.43" x2="125.91" y2="33.43"/><path class="cls-8" d="M128.61,38.83c15.1,31.16,24.22,65.85,24.71,101.82"/><line class="cls-7" x1="153.34" y1="143.66" x2="153.34" y2="143.66"/><polygon class="cls-9" points="148.24 159.87 40.17 97.48 40.17 83.66 148.24 146.05 148.24 159.87"/><polygon class="cls-10" points="56.12 106.69 69.28 114.29 79.65 106.45 66.49 98.85 56.12 106.69"/><polygon class="cls-10" points="105.97 121.64 92.81 114.05 82.44 121.89 95.6 129.48 105.97 121.64"/><polygon class="cls-10" points="42.96 99.09 53.33 91.25 40.17 83.66 40.17 97.48 42.96 99.09"/><polygon class="cls-10" points="132.29 136.84 119.13 129.24 108.76 137.08 121.92 144.68 132.29 136.84"/><polygon class="cls-10" points="148.24 146.05 145.45 144.44 135.08 152.28 148.24 159.87 148.24 146.05"/><polygon class="cls-11" points="148.24 146.05 153.04 143.66 153.04 157.49 148.24 159.87 148.24 146.05"/><polygon class="cls-9" points="148.24 146.05 153.04 143.66 40.17 78.5 40.17 83.66 148.24 146.05"/><path class="cls-3" d="M37.86,68.35A19.32,19.32,0,0,1,40,76.82V105.5"/><ellipse class="cls-9" cx="117.3" cy="17.97" rx="10.14" ry="17.92" transform="translate(2.33 47.36) rotate(-23.05)"/><polyline class="cls-9" points="121.75 15.42 115.02 20.51 112.85 16.38"/><polyline class="cls-12" points="12.25 83.26 15.58 80.74 18.92 87.11"/></g></g></svg>