<svg xmlns="http://www.w3.org/2000/svg" width="91.73" height="121.37" viewBox="0 0 91.73 121.37"><defs><style>.cls-1{fill:#f2f4f6;}.cls-1,.cls-3,.cls-4{stroke:#627386;stroke-linecap:round;stroke-linejoin:round;stroke-width:2px;}.cls-2{fill:#d5dae0;}.cls-3{fill:none;}.cls-4{fill:#fff;}.cls-5{fill:#b8bfca;}</style></defs><title>sign_01</title><g id="Layer_2" data-name="Layer 2"><g id="Layer_1-2" data-name="Layer 1"><path class="cls-1" d="M23.06,77.81v40.56c0,1.11,1.56,2,3.47,2s3.47-.89,3.47-2V77.81Z"/><path class="cls-2" d="M23.06,92.19v15.12c0,1.1,1.56,2,3.47,2s3.47-.9,3.47-2V92.19Z"/><path class="cls-3" d="M23.06,77.81v40.56c0,1.11,1.56,2,3.47,2s3.47-.89,3.47-2V77.81Z"/><path class="cls-1" d="M61.74,55.48V96c0,1.11,1.55,2,3.46,2s3.47-.9,3.47-2V55.48Z"/><path class="cls-2" d="M61.74,69.87V85c0,1.11,1.55,2,3.46,2s3.47-.89,3.47-2V69.87Z"/><path class="cls-3" d="M61.74,55.48V96c0,1.11,1.55,2,3.46,2s3.47-.9,3.47-2V55.48Z"/><polygon class="cls-1" points="8.02 105.94 83.72 62.23 83.72 5.05 8.02 48.76 8.02 105.94"/><polygon class="cls-4" points="1 101.88 8.02 105.94 8.02 48.76 1 44.7 1 101.88"/><polygon class="cls-4" points="76.7 1 83.72 5.05 8.02 48.76 1 44.7 76.7 1"/><polygon class="cls-4" points="83.72 62.23 90.73 66.28 15.04 109.99 8.02 105.94 83.72 62.23"/><polyline class="cls-3" points="76.7 9.1 45.87 26.93 15.04 44.75"/><path class="cls-5" d="M55.14,66.16a.28.28,0,0,0,.29,0l5.8-3.35a1,1,0,0,0,.44-.61c.09-.31,0-.58-.12-.66L51,55.74c-.23-.12-.23-.61,0-1L61.53,36.66a1.16,1.16,0,0,0,.18-.69c0-.28-.24-.38-.46-.25l-5.58,3.22a.85.85,0,0,0-.3.32L43.85,58.83l-.1.18c-.18.3-.19.67,0,.78l.11.07Z"/><path class="cls-5" d="M42.07,58.13c-.18.32-.45.48-.64.37l-9.24-4.9a.46.46,0,0,1-.17-.49,1.1,1.1,0,0,1,.45-.78l5.59-3.22a.31.31,0,0,1,.29,0l6.49,3.31c.23.13.23.61,0,1Z"/><path class="cls-5" d="M42.1,62.59c-.18-.1-.45.06-.64.37L32.08,78.59a1.13,1.13,0,0,0-.17.69c0,.28.24.37.46.25L38,76.3a.89.89,0,0,0,.3-.31l6.44-10.88c.23-.39.23-.88,0-1Z"/></g></g></svg>