<svg xmlns="http://www.w3.org/2000/svg" width="59.34" height="161.11" viewBox="0 0 59.34 161.11"><defs><style>.cls-1{fill:#b8bfca;}.cls-1,.cls-3,.cls-4{stroke:#627386;}.cls-1,.cls-3,.cls-4,.cls-5,.cls-6{stroke-linecap:round;stroke-linejoin:round;stroke-width:2px;}.cls-2,.cls-4{fill:#f2f4f6;}.cls-3,.cls-6{fill:none;}.cls-5{fill:#bde4fd;stroke:#1b6dc6;}.cls-6{stroke:#e9f6fe;}</style></defs><title>stop_02</title><g id="Layer_2" data-name="Layer 2"><g id="Layer_1-2" data-name="Layer 1"><path class="cls-1" d="M40.6,3.75V157.36c0,1.52-2.13,2.75-4.77,2.75s-4.76-1.23-4.76-2.75V3.75Z"/><path class="cls-2" d="M40.6,3.75V157.36c0,1.52-2.13,2.75-4.77,2.75V3.75Z"/><path class="cls-3" d="M40.6,3.75V157.36c0,1.52-2.13,2.75-4.77,2.75s-4.76-1.23-4.76-2.75V3.75Z"/><ellipse class="cls-4" cx="35.83" cy="3.75" rx="4.76" ry="2.75"/><polygon class="cls-5" points="41.55 96.23 58.34 83.53 58.34 51.86 41.55 19.77 17.8 6.06 1 18.75 1 50.42 17.8 82.51 41.55 96.23"/><polyline class="cls-6" points="52.34 80.55 52.34 53.34 37.04 24.09 18.24 13.24"/></g></g></svg>