<svg xmlns="http://www.w3.org/2000/svg" width="115.12" height="178.33" viewBox="0 0 115.12 178.33"><defs><style>.cls-1,.cls-6{fill:#d5dae0;}.cls-2{fill:#fff;}.cls-2,.cls-3,.cls-4{stroke:#1b6dc6;}.cls-2,.cls-3,.cls-4,.cls-6,.cls-8,.cls-9{stroke-linecap:round;stroke-linejoin:round;stroke-width:2px;}.cls-3{fill:#bde4fd;}.cls-4{fill:#e9f6fe;}.cls-5,.cls-8,.cls-9{fill:none;}.cls-6,.cls-8{stroke:#627386;}.cls-7{fill:#f2f4f6;}.cls-9{stroke:#fff;}</style></defs><title>balloon_03</title><g id="Layer_2" data-name="Layer 2"><g id="Layer_1-2" data-name="Layer 1"><path class="cls-1" d="M44.51,12.72h-.2"/><polygon class="cls-2" points="57.56 108.29 19.59 130.21 19.59 155.41 57.56 158.92 95.53 155.41 95.53 130.21 57.56 108.29"/><polygon class="cls-3" points="95.53 155.41 57.56 177.33 57.56 152.13 95.53 130.21 95.53 155.41"/><polygon class="cls-4" points="19.59 155.41 57.56 177.33 57.56 152.13 19.59 130.21 19.59 155.41"/><polygon class="cls-5" points="31.29 130.21 57.56 145.38 83.83 130.21 57.56 115.05 31.29 130.21"/><path class="cls-6" d="M57.56,111.8a3.24,3.24,0,0,0-3.25,3.25c0,1,1.45,1.87,3.25,1.87s3.25-.84,3.25-1.87A3.25,3.25,0,0,0,57.56,111.8Z"/><path class="cls-7" d="M54.31,115.05c0,1,1.46,1.87,3.25,1.87V111.8A3.25,3.25,0,0,0,54.31,115.05Z"/><path class="cls-8" d="M57.56,111.8a3.24,3.24,0,0,0-3.25,3.25c0,1,1.45,1.87,3.25,1.87s3.25-.84,3.25-1.87A3.25,3.25,0,0,0,57.56,111.8Z"/><ellipse class="cls-5" cx="57.56" cy="115.05" rx="3.25" ry="1.88"/><line class="cls-8" x1="57.56" y1="115.05" x2="57.56" y2="61.77"/><path class="cls-6" d="M61.49,60.24h0l-3.93-6L53.65,60.2h0a1.62,1.62,0,0,0-.3.91c0,1.34,1.88,2.43,4.21,2.43s4.21-1.09,4.21-2.43A1.55,1.55,0,0,0,61.49,60.24Z"/><path class="cls-7" d="M57.56,1a23.1,23.1,0,0,0-23.1,23.1c0,18.09,13,28.46,19.23,32.48l.25.16.19.12h0a6.82,6.82,0,0,0,6.84,0h0l.19-.12.25-.16c6.24-4,19.23-14.39,19.23-32.48A23.1,23.1,0,0,0,57.56,1"/><path class="cls-9" d="M42.08,15.36a17.46,17.46,0,0,1,2.41-3.3"/><path class="cls-1" d="M57.36,1a4.74,4.74,0,0,0-1.83,9A20.72,20.72,0,0,1,68.15,28.75c0,13.62-8.94,22.42-15.55,27.1l1.09.73.25.16.19.12h0a6.82,6.82,0,0,0,6.84,0h0l.19-.12.25-.16c6.24-4,19.23-14.39,19.23-32.48A23.1,23.1,0,0,0,57.56,1"/><path class="cls-8" d="M57.56,1a23.1,23.1,0,0,1,23.1,23.1c0,18.09-13,28.46-19.23,32.48l-.25.16-.19.12h0a6.43,6.43,0,0,1-1.42.62,2,2,0,0,1-.33.09"/><path class="cls-8" d="M55.92,57.58a6.92,6.92,0,0,1-1.78-.72h0l-.19-.12-.25-.16c-6.25-4-19.23-14.39-19.23-32.48A23.1,23.1,0,0,1,57.56,1"/><path class="cls-6" d="M31.29,127A3.26,3.26,0,0,0,28,130.21c0,1,1.46,1.88,3.25,1.88s3.25-.84,3.25-1.88A3.25,3.25,0,0,0,31.29,127Z"/><ellipse class="cls-5" cx="31.29" cy="130.21" rx="3.25" ry="1.88"/><path class="cls-7" d="M28,130.21c0,1,1.46,1.88,3.25,1.88V127A3.26,3.26,0,0,0,28,130.21Z"/><path class="cls-8" d="M31.29,127A3.26,3.26,0,0,0,28,130.21c0,1,1.46,1.88,3.25,1.88s3.25-.84,3.25-1.88A3.25,3.25,0,0,0,31.29,127Z"/><line class="cls-8" x1="31.29" y1="128.34" x2="27.39" y2="77.1"/><path class="cls-6" d="M31.17,75.24h0l-4.44-5.6-3.37,6.25h0a1.63,1.63,0,0,0-.23.93c.12,1.33,2.09,2.25,4.41,2.05s4.1-1.45,4-2.79A1.61,1.61,0,0,0,31.17,75.24Z"/><path class="cls-7" d="M47.12,37.57a23.1,23.1,0,1,0-46,4c1.58,18,15.42,27.21,22,30.67l.27.14.19.1h0a6.81,6.81,0,0,0,6.82-.6h0l.17-.13.24-.18C36.66,67.05,48.7,55.58,47.12,37.57Z"/><path class="cls-9" d="M7.92,32.22A18,18,0,0,1,10,28.72"/><path class="cls-1" d="M22.09,16.57l-.2,0a4.74,4.74,0,0,0-1,9.16,20.71,20.71,0,0,1,14.2,17.54c1.18,13.57-7,23.11-13.13,28.35.4.23.79.44,1.15.63l.27.14.19.1h0a6.81,6.81,0,0,0,6.82-.6h0l.17-.13.24-.18c5.87-4.55,17.91-16,16.33-34A23.1,23.1,0,0,0,22.09,16.57Z"/><path class="cls-8" d="M25.39,73.08a7.16,7.16,0,0,1-1.84-.57h0l-.19-.1-.27-.14c-6.57-3.46-20.41-12.66-22-30.67a23.1,23.1,0,1,1,46-4c1.58,18-10.46,29.48-16.33,34l-.24.18-.17.13h0a6.72,6.72,0,0,1-1.37.75l-.31.12"/><path class="cls-6" d="M83.83,127a3.25,3.25,0,0,0-3.25,3.25c0,1,1.45,1.88,3.25,1.88s3.24-.84,3.24-1.88A3.25,3.25,0,0,0,83.83,127Z"/><path class="cls-7" d="M80.58,130.21c0,1,1.45,1.88,3.25,1.88V127A3.25,3.25,0,0,0,80.58,130.21Z"/><path class="cls-8" d="M83.83,127a3.25,3.25,0,0,0-3.25,3.25c0,1,1.45,1.88,3.25,1.88s3.24-.84,3.24-1.88A3.25,3.25,0,0,0,83.83,127Z"/><ellipse class="cls-5" cx="83.83" cy="130.21" rx="3.25" ry="1.88"/><line class="cls-8" x1="83.83" y1="128.34" x2="87.73" y2="77.1"/><path class="cls-6" d="M91.78,75.92h0l-3.4-6.28L84,75.2h0a1.63,1.63,0,0,0-.39.88c-.11,1.34,1.67,2.59,4,2.79s4.29-.72,4.4-2.05A1.61,1.61,0,0,0,91.78,75.92Z"/><path class="cls-7" d="M114,41.6a23.1,23.1,0,0,0-46-4c-1.58,18,10.46,29.48,16.33,34l.24.18.17.13h0a6.81,6.81,0,0,0,6.82.6h0l.19-.1.27-.14C98.61,68.81,112.45,59.61,114,41.6Z"/><path class="cls-9" d="M76.35,29.52A18.4,18.4,0,0,1,79,26.44"/><path class="cls-1" d="M93,16.57l-.2,0a4.74,4.74,0,0,0-2.61,8.84,20.75,20.75,0,0,1,10.94,19.75C100,58.7,90.3,66.69,83.3,70.78l1,.82.24.18.17.13h0a6.81,6.81,0,0,0,6.82.6h0l.19-.1.27-.14c6.57-3.46,20.41-12.66,22-30.67A23.1,23.1,0,0,0,93,16.57Z"/><path class="cls-8" d="M86.46,72.79a6.59,6.59,0,0,1-1.71-.88h0l-.17-.13-.24-.18c-5.87-4.55-17.91-16-16.33-34a23.1,23.1,0,0,1,46,4c-1.58,18-15.42,27.21-22,30.67l-.27.14-.19.1h0a6.79,6.79,0,0,1-1.48.5l-.33.06"/><path class="cls-6" d="M57.56,142.13a3.24,3.24,0,0,0-3.25,3.25c0,1,1.45,1.87,3.25,1.87s3.25-.84,3.25-1.87A3.25,3.25,0,0,0,57.56,142.13Z"/><path class="cls-7" d="M54.31,145.38c0,1,1.46,1.87,3.25,1.87v-5.12A3.25,3.25,0,0,0,54.31,145.38Z"/><path class="cls-8" d="M57.56,142.13a3.24,3.24,0,0,0-3.25,3.25c0,1,1.45,1.87,3.25,1.87s3.25-.84,3.25-1.87A3.25,3.25,0,0,0,57.56,142.13Z"/><ellipse class="cls-5" cx="57.56" cy="145.38" rx="3.25" ry="1.88"/><line class="cls-8" x1="57.56" y1="143.75" x2="57.56" y2="92.1"/><path class="cls-6" d="M61.49,90.57h0l-3.93-6-3.91,5.93h0a1.62,1.62,0,0,0-.3.91c0,1.34,1.88,2.43,4.21,2.43s4.21-1.09,4.21-2.43A1.55,1.55,0,0,0,61.49,90.57Z"/><path class="cls-7" d="M80.66,54.43a23.1,23.1,0,1,0-46.2,0c0,18.09,13,28.46,19.23,32.48l.25.16.19.12h0a6.82,6.82,0,0,0,6.84,0h0l.19-.12.25-.16C67.67,82.89,80.66,72.52,80.66,54.43Z"/><path class="cls-9" d="M42.08,45.69a17.46,17.46,0,0,1,2.41-3.3"/><path class="cls-1" d="M57.56,31.33h-.2a4.74,4.74,0,0,0-1.83,9A20.72,20.72,0,0,1,68.15,59.08c0,13.62-8.94,22.42-15.55,27.1l1.09.73.25.16.19.12h0a6.82,6.82,0,0,0,6.84,0h0l.19-.12.25-.16c6.24-4,19.23-14.39,19.23-32.48A23.1,23.1,0,0,0,57.56,31.33Z"/><path class="cls-8" d="M55.92,87.91a6.92,6.92,0,0,1-1.78-.72h0l-.19-.12-.25-.16c-6.25-4-19.23-14.39-19.23-32.48a23.1,23.1,0,1,1,46.2,0c0,18.09-13,28.46-19.23,32.48l-.25.16-.19.12h0a6.43,6.43,0,0,1-1.42.62l-.33.1"/></g></g></svg>