<svg xmlns="http://www.w3.org/2000/svg" width="172.62" height="100.51" viewBox="0 0 172.62 100.51"><defs><style>.cls-1{fill:#d5dae0;}.cls-1,.cls-2,.cls-3,.cls-4{stroke:#627386;stroke-linecap:round;stroke-linejoin:round;stroke-width:2px;}.cls-2{fill:#f2f4f6;}.cls-3{fill:#fff;}.cls-4{fill:none;}</style></defs><title>bird_02</title><g id="Layer_2" data-name="Layer 2"><g id="Layer_1-2" data-name="Layer 1"><path class="cls-1" d="M150.83,84.88l-6.57-6.57c-5.52,0-10,2.58-10,5.76l11.38,3.8"/><path class="cls-2" d="M145,87,126.62,97.6a17.6,17.6,0,0,0,15.93,0l10.44-6,4.26-2.45,11.07-6.4c4.4-2.54,4.4-6.65,0-9.19l-19,11"/><path class="cls-3" d="M151.35,90.48a4,4,0,1,0,4-4"/><line class="cls-4" x1="158.19" y1="92.11" x2="161.56" y2="94.06"/><path class="cls-1" d="M89.21,81.49l-6.57-6.57c-5.52,0-10,2.58-10,5.77L84,84.48"/><path class="cls-2" d="M83.41,83.59,65,94.22c4.39,2.54,11.52,2.54,15.92,0l10.45-6,4.25-2.46,11.07-6.39c4.4-2.54,4.4-6.65,0-9.19l-19,11"/><path class="cls-3" d="M89.73,87.09a4,4,0,1,0,4-4"/><line class="cls-4" x1="96.57" y1="88.73" x2="99.95" y2="90.68"/><path class="cls-1" d="M147.45,47.87l-6.57-6.57c-5.52,0-10,2.58-10,5.76l11.38,3.8"/><path class="cls-2" d="M141.66,50,123.25,60.6c4.39,2.53,11.52,2.53,15.92,0l10.45-6,4.25-2.45L165,45.71c4.39-2.53,4.39-6.65,0-9.19l-19,11"/><path class="cls-3" d="M148,53.47a4,4,0,1,0,4-4"/><line class="cls-4" x1="154.81" y1="55.11" x2="158.19" y2="57.06"/><path class="cls-1" d="M141.69,12.35l-6.57-6.57c-5.52,0-10,2.58-10,5.76l11.38,3.8"/><path class="cls-2" d="M135.89,14.45,117.48,25.08a17.67,17.67,0,0,0,15.93,0l10.44-6,4.26-2.45,11.07-6.4c4.4-2.53,4.4-6.65,0-9.19l-19,11"/><path class="cls-3" d="M142.21,18a4,4,0,1,0,4-4"/><line class="cls-4" x1="149.05" y1="19.59" x2="152.42" y2="21.53"/><path class="cls-1" d="M83.45,46,76.88,39.4c-5.52,0-10,2.58-10,5.77L78.27,49"/><path class="cls-2" d="M77.65,48.07,59.24,58.7a17.6,17.6,0,0,0,15.93,0l10.44-6,4.26-2.46,11.07-6.39c4.4-2.54,4.4-6.66,0-9.19l-19,11"/><path class="cls-3" d="M84,51.57a4,4,0,1,0,4-4"/><line class="cls-4" x1="90.81" y1="53.21" x2="94.18" y2="55.16"/><path class="cls-1" d="M25.2,79.6,18.63,73c-5.51,0-10,2.58-10,5.76L20,82.59"/><path class="cls-2" d="M19.41,81.7,1,92.33a17.6,17.6,0,0,0,15.93,0l10.44-6,4.26-2.46L42.7,77.45c4.4-2.54,4.4-6.66,0-9.2l-19,11"/><path class="cls-3" d="M25.73,85.2a4,4,0,1,0,4-4"/><line class="cls-4" x1="32.56" y1="86.84" x2="35.94" y2="88.79"/></g></g></svg>