<svg xmlns="http://www.w3.org/2000/svg" width="154.39" height="101.06" viewBox="0 0 154.39 101.06"><defs><style>.cls-1,.cls-8{fill:#d5dae0;}.cls-1,.cls-3,.cls-4{stroke:#627386;}.cls-1,.cls-3,.cls-4,.cls-5{stroke-linecap:round;stroke-linejoin:round;stroke-width:2px;}.cls-2{fill:#f2f4f6;}.cls-3,.cls-5,.cls-6{fill:none;}.cls-4{fill:#fff;}.cls-5{stroke:#b8bfca;}.cls-7{fill:#91d2fb;}</style></defs><title>board_01</title><g id="Layer_2" data-name="Layer 2"><g id="Layer_1-2" data-name="Layer 1"><path class="cls-1" d="M138.1,45,83.87,13.68a14.74,14.74,0,0,0-13.35,0L16.29,45H1V56.07c0,1.4.92,2.79,2.76,3.86L70.52,98.47a14.81,14.81,0,0,0,13.35,0l66.75-38.54c1.84-1.07,2.77-2.46,2.77-3.86V45Z"/><path class="cls-2" d="M70.52,13.68,16.29,45H1V56.07c0,1.4.92,2.79,2.76,3.86L70.52,98.47a13.68,13.68,0,0,0,6.67,1.59v-88A13.57,13.57,0,0,0,70.52,13.68Z"/><path class="cls-3" d="M138.1,45,83.87,13.68a14.74,14.74,0,0,0-13.35,0L16.29,45H1V56.07c0,1.4.92,2.79,2.76,3.86L70.52,98.47a14.81,14.81,0,0,0,13.35,0l66.75-38.54c1.84-1.07,2.77-2.46,2.77-3.86V45Z"/><path class="cls-4" d="M150.62,48.84,83.87,87.38a14.74,14.74,0,0,1-13.35,0L3.76,48.84c-3.68-2.12-3.68-5.58,0-7.7L70.52,2.6a14.74,14.74,0,0,1,13.35,0l66.75,38.54C154.31,43.26,154.31,46.72,150.62,48.84Z"/><line class="cls-5" x1="34.41" y1="32.64" x2="98.58" y2="69.69"/><line class="cls-5" x1="55.8" y1="20.29" x2="119.97" y2="57.34"/><line class="cls-5" x1="55.8" y1="69.69" x2="119.97" y2="32.64"/><line class="cls-5" x1="34.41" y1="57.34" x2="98.58" y2="20.29"/><ellipse class="cls-6" cx="34.41" cy="44.99" rx="7.56" ry="4.37"/><path class="cls-7" d="M37.09,39.08a27.42,27.42,0,0,0-4.66-1,2.74,2.74,0,0,0-1.66.27,1.06,1.06,0,0,0-.47.5L26.54,48c-.14.36,0,.72.48,1a2.72,2.72,0,0,0,1.68.28l15.73-2.17a2.58,2.58,0,0,0,.9-.29c.47-.27.66-.66.51-1a8.5,8.5,0,0,0-1.73-2.63,12.86,12.86,0,0,0-3-2.3A20.5,20.5,0,0,0,37.09,39.08Zm-9.43,9.07,1.53-3.75a10,10,0,0,1,3.68,1.17,4.46,4.46,0,0,1,2,2.13l-6.46.89C28,48.66,27.55,48.42,27.66,48.15ZM44.73,45.9c.06.15,0,.31-.21.41a1,1,0,0,1-.35.11L36,47.55a5.23,5.23,0,0,0-2.33-2.45,11.71,11.71,0,0,0-4.22-1.34L31.41,39a.42.42,0,0,1,.17-.18,1,1,0,0,1,.6-.1,22.12,22.12,0,0,1,8.15,2.56A9.79,9.79,0,0,1,44.73,45.9Z"/><line class="cls-5" x1="55.8" y1="28.27" x2="55.8" y2="37.01"/><line class="cls-5" x1="63.37" y1="32.64" x2="48.24" y2="32.64"/><line class="cls-5" x1="77.19" y1="15.92" x2="77.19" y2="24.66"/><line class="cls-5" x1="84.76" y1="20.29" x2="69.63" y2="20.29"/><line class="cls-5" x1="98.58" y1="52.97" x2="98.58" y2="61.71"/><line class="cls-5" x1="106.15" y1="57.34" x2="91.02" y2="57.34"/><line class="cls-5" x1="55.8" y1="52.97" x2="55.8" y2="61.71"/><line class="cls-5" x1="63.37" y1="57.34" x2="48.24" y2="57.34"/><ellipse class="cls-6" cx="77.19" cy="44.99" rx="7.56" ry="4.37"/><path class="cls-7" d="M79.87,39.08a27.42,27.42,0,0,0-4.66-1,2.74,2.74,0,0,0-1.66.27,1.06,1.06,0,0,0-.47.5L69.33,48c-.15.36,0,.72.47,1a2.72,2.72,0,0,0,1.68.28l15.73-2.17a2.51,2.51,0,0,0,.9-.29c.47-.27.66-.66.51-1a8.5,8.5,0,0,0-1.73-2.63,12.65,12.65,0,0,0-3-2.3A20.5,20.5,0,0,0,79.87,39.08Zm-9.43,9.07L72,44.4a10,10,0,0,1,3.67,1.17,4.54,4.54,0,0,1,2,2.13l-6.47.89C70.75,48.66,70.33,48.42,70.44,48.15ZM87.51,45.9a.34.34,0,0,1-.2.41,1.17,1.17,0,0,1-.36.11l-8.16,1.13a5.23,5.23,0,0,0-2.33-2.45,11.71,11.71,0,0,0-4.22-1.34l2-4.75a.42.42,0,0,1,.17-.18,1,1,0,0,1,.6-.1,22.06,22.06,0,0,1,8.15,2.56A9.79,9.79,0,0,1,87.51,45.9Z"/><ellipse class="cls-6" cx="119.97" cy="44.99" rx="7.56" ry="4.37"/><path class="cls-7" d="M122.65,39.08a27.42,27.42,0,0,0-4.66-1,2.74,2.74,0,0,0-1.66.27,1.06,1.06,0,0,0-.47.5L112.11,48c-.15.36,0,.72.47,1a2.74,2.74,0,0,0,1.68.28L130,47.07a2.51,2.51,0,0,0,.9-.29c.47-.27.66-.66.51-1a8.5,8.5,0,0,0-1.73-2.63,12.65,12.65,0,0,0-3-2.3A20.5,20.5,0,0,0,122.65,39.08Zm-9.43,9.07,1.54-3.75a10,10,0,0,1,3.67,1.17,4.54,4.54,0,0,1,2,2.13l-6.46.89C113.53,48.66,113.11,48.42,113.22,48.15Zm17.07-2.25a.34.34,0,0,1-.2.41,1.17,1.17,0,0,1-.36.11l-8.16,1.13a5.23,5.23,0,0,0-2.33-2.45A11.71,11.71,0,0,0,115,43.76L117,39a.42.42,0,0,1,.17-.18,1,1,0,0,1,.6-.1,22.06,22.06,0,0,1,8.15,2.56A9.79,9.79,0,0,1,130.29,45.9Z"/><path class="cls-8" d="M101.26,26.73a27.42,27.42,0,0,0-4.66-1,2.74,2.74,0,0,0-1.66.27,1.06,1.06,0,0,0-.47.5l-3.75,9.13c-.15.36,0,.72.47,1a2.74,2.74,0,0,0,1.68.28l15.73-2.17a2.51,2.51,0,0,0,.9-.29c.47-.27.66-.66.51-1a8.62,8.62,0,0,0-1.73-2.63,12.65,12.65,0,0,0-3-2.3A20.5,20.5,0,0,0,101.26,26.73ZM91.83,35.8l1.54-3.75A10,10,0,0,1,97,33.22a4.54,4.54,0,0,1,2,2.13l-6.46.89C92.14,36.31,91.72,36.07,91.83,35.8Zm17.07-2.25a.34.34,0,0,1-.2.41,1,1,0,0,1-.36.11l-8.16,1.13a5.23,5.23,0,0,0-2.33-2.45,11.71,11.71,0,0,0-4.22-1.34l2-4.75a.42.42,0,0,1,.17-.18,1,1,0,0,1,.6-.1,22.06,22.06,0,0,1,8.15,2.56A9.79,9.79,0,0,1,108.9,33.55Z"/></g></g></svg>