<svg xmlns="http://www.w3.org/2000/svg" width="153.63" height="146.63" viewBox="0 0 153.63 146.63"><defs><style>.cls-1{fill:#d5dae0;}.cls-1,.cls-5{stroke:#627386;}.cls-1,.cls-10,.cls-3,.cls-4,.cls-5,.cls-6,.cls-8,.cls-9{stroke-linecap:round;stroke-linejoin:round;stroke-width:2px;}.cls-2{fill:#b8bfca;}.cls-12,.cls-3,.cls-4,.cls-5,.cls-8{fill:none;}.cls-3{stroke:#f2f4f6;}.cls-4{stroke:#d5dae0;}.cls-6{fill:#d3edfd;}.cls-10,.cls-6,.cls-8,.cls-9{stroke:#1b6dc6;}.cls-10,.cls-7{fill:#bde4fd;}.cls-9{fill:#e9f6fe;}.cls-11{fill:#91d2fb;}</style></defs><title>cake_01</title><g id="Layer_2" data-name="Layer 2"><g id="Layer_1-2" data-name="Layer 1"><path class="cls-1" d="M137.46,68.35a60.7,60.7,0,0,0-8.54-5.93C115.59,54.72,97.16,50,76.81,50S38,54.72,24.71,62.42a60.7,60.7,0,0,0-8.54,5.93h-13v34.73c0,11.75,8.25,22.39,21.59,30.09s31.75,12.46,52.1,12.46,38.78-4.76,52.11-12.46,21.59-18.34,21.59-30.09V68.35Z"/><path class="cls-2" d="M128.92,133.17c13.34-7.7,21.59-18.34,21.59-30.09V68.35h-13a60.7,60.7,0,0,0-8.54-5.93C115.59,54.72,97.16,50,76.81,50v95.67C97.16,145.63,115.59,140.87,128.92,133.17Z"/><path class="cls-3" d="M3.12,87.93c0,11.75,8.25,22.38,21.59,30.08s31.75,12.46,52.1,12.46"/><path class="cls-4" d="M76.81,130.47c20.35,0,38.78-4.76,52.11-12.46s21.59-18.33,21.59-30.08"/><path class="cls-5" d="M137.46,68.35a60.7,60.7,0,0,0-8.54-5.93C115.59,54.72,97.16,50,76.81,50S38,54.72,24.71,62.42a60.7,60.7,0,0,0-8.54,5.93h-13v34.73c0,11.75,8.25,22.39,21.59,30.09s31.75,12.46,52.1,12.46,38.78-4.76,52.11-12.46,21.59-18.34,21.59-30.09V68.35Z"/><path class="cls-1" d="M150.51,68.35c0,11.75-8.25,22.38-21.59,30.08s-31.76,12.46-52.11,12.46S38,106.13,24.71,98.43,3.12,80.1,3.12,68.35,11.37,46,24.71,38.26,56.46,25.8,76.81,25.8s38.78,4.76,52.11,12.46S150.51,56.6,150.51,68.35Z"/><path class="cls-6" d="M139.21,56.64a62.78,62.78,0,0,0-8.79-6.09C116.7,42.63,97.75,37.73,76.81,37.73s-39.88,4.9-53.6,12.82a62.2,62.2,0,0,0-8.79,6.09H1V71.56c0,12.09,8.49,23,22.21,31s32.67,12.82,53.6,12.82,39.89-4.9,53.61-12.82,22.21-18.86,22.21-30.95V56.64Z"/><path class="cls-7" d="M130.42,102.51c13.72-7.92,22.21-18.86,22.21-30.95V56.64H139.21a62.78,62.78,0,0,0-8.79-6.09C116.7,42.63,97.75,37.73,76.81,37.73v77.6C97.75,115.33,116.7,110.43,130.42,102.51Z"/><path class="cls-8" d="M139.21,56.64a62.78,62.78,0,0,0-8.79-6.09C116.7,42.63,97.75,37.73,76.81,37.73s-39.88,4.9-53.6,12.82a62.2,62.2,0,0,0-8.79,6.09H1V71.56c0,12.09,8.49,23,22.21,31s32.67,12.82,53.6,12.82,39.89-4.9,53.61-12.82,22.21-18.86,22.21-30.95V56.64Z"/><path class="cls-9" d="M152.63,56.64c0,12.09-8.49,23-22.21,31s-32.67,12.82-53.61,12.82-39.88-4.9-53.6-12.82S1,68.73,1,56.64s8.49-23,22.21-30.95,32.67-12.82,53.6-12.82,39.89,4.9,53.61,12.82S152.63,44.56,152.63,56.64Z"/><path class="cls-10" d="M22.11,40.35a5.83,5.83,0,0,1,11.65-.23h0c0,.07,0,.15,0,.22h0A2.36,2.36,0,0,1,33,42c-1.61,1.61-5.18,2.16-8,1.23-1.87-.62-2.89-1.75-2.89-2.92Z"/><path class="cls-11" d="M27.94,37.07a2,2,0,0,1,2.89-1.78l0,0a5.83,5.83,0,0,1,2.9,4.81h0c0,.07,0,.15,0,.22h0A2.36,2.36,0,0,1,33,42a7.41,7.41,0,0,1-5.05,1.66Z"/><path class="cls-8" d="M22.11,40.35a5.83,5.83,0,0,1,11.65-.23h0c0,.07,0,.15,0,.22h0A2.36,2.36,0,0,1,33,42c-1.61,1.61-5.18,2.16-8,1.23-1.87-.62-2.89-1.75-2.89-2.92Z"/><ellipse class="cls-12" cx="27.94" cy="40.35" rx="5.83" ry="3.37"/><path class="cls-10" d="M119.86,40.35a5.82,5.82,0,0,1,11.64-.23h0c0,.07,0,.15,0,.22h0a2.32,2.32,0,0,1-.76,1.69c-1.6,1.61-5.17,2.16-8,1.23-1.87-.62-2.89-1.75-2.89-2.92Z"/><path class="cls-11" d="M125.69,37.07a2,2,0,0,1,2.88-1.78l0,0a5.79,5.79,0,0,1,2.9,4.81h0c0,.07,0,.15,0,.22h0a2.32,2.32,0,0,1-.76,1.69,7.37,7.37,0,0,1-5,1.66Z"/><path class="cls-8" d="M119.86,40.35a5.82,5.82,0,0,1,11.64-.23h0c0,.07,0,.15,0,.22h0a2.32,2.32,0,0,1-.76,1.69c-1.6,1.61-5.17,2.16-8,1.23-1.87-.62-2.89-1.75-2.89-2.92Z"/><ellipse class="cls-12" cx="125.69" cy="40.35" rx="5.83" ry="3.37"/><path class="cls-6" d="M52.68,5.11H44.52V28.43h0a1.67,1.67,0,0,0,.53,1.18c1.13,1.12,3.63,1.51,5.58.86,1.31-.44,2-1.23,2-2h0Z"/><path class="cls-7" d="M48.6,30.77a6.68,6.68,0,0,0,2-.3c1.31-.44,2-1.23,2-2h0V5.11H48.6Z"/><path class="cls-8" d="M52.68,5.11H44.52V28.43h0a1.67,1.67,0,0,0,.53,1.18c1.13,1.12,3.63,1.51,5.58.86,1.31-.44,2-1.23,2-2h0Z"/><ellipse class="cls-12" cx="48.6" cy="28.43" rx="4.08" ry="2.36"/><ellipse class="cls-9" cx="48.6" cy="5.11" rx="4.08" ry="2.36"/><line class="cls-8" x1="48.6" y1="3.95" x2="48.6" y2="1"/><path class="cls-6" d="M109.11,5.11H101V28.43h0a1.67,1.67,0,0,0,.53,1.18c1.12,1.12,3.62,1.51,5.57.86,1.31-.44,2-1.23,2-2h0Z"/><path class="cls-7" d="M105,30.77a6.63,6.63,0,0,0,2-.3c1.31-.44,2-1.23,2-2h0V5.11H105Z"/><path class="cls-8" d="M109.11,5.11H101V28.43h0a1.67,1.67,0,0,0,.53,1.18c1.12,1.12,3.62,1.51,5.57.86,1.31-.44,2-1.23,2-2h0Z"/><ellipse class="cls-12" cx="105.03" cy="28.43" rx="4.08" ry="2.36"/><ellipse class="cls-9" cx="105.03" cy="5.11" rx="4.08" ry="2.36"/><line class="cls-8" x1="105.03" y1="3.95" x2="105.03" y2="1"/><path class="cls-6" d="M24.46,33.33H16.3V56.65h0a1.63,1.63,0,0,0,.53,1.17c1.12,1.13,3.62,1.52,5.57.86,1.31-.43,2-1.22,2-2h0Z"/><path class="cls-7" d="M20.38,59a6.35,6.35,0,0,0,2-.31c1.31-.43,2-1.22,2-2h0V33.33H20.38Z"/><path class="cls-8" d="M24.46,33.33H16.3V56.65h0a1.63,1.63,0,0,0,.53,1.17c1.12,1.13,3.62,1.52,5.57.86,1.31-.43,2-1.22,2-2h0Z"/><ellipse class="cls-12" cx="20.38" cy="56.64" rx="4.08" ry="2.36"/><ellipse class="cls-9" cx="20.38" cy="33.33" rx="4.08" ry="2.36"/><line class="cls-8" x1="20.38" y1="32.16" x2="20.38" y2="29.22"/><path class="cls-6" d="M52.68,61.54H44.52V84.86h0A1.65,1.65,0,0,0,45.06,86c1.13,1.13,3.63,1.51,5.58.86,1.31-.44,2-1.23,2-2h0Z"/><path class="cls-7" d="M48.6,87.21a6.39,6.39,0,0,0,2-.31c1.31-.44,2-1.23,2-2h0V61.54H48.6Z"/><path class="cls-8" d="M52.68,61.54H44.52V84.86h0A1.65,1.65,0,0,0,45.06,86c1.13,1.13,3.63,1.51,5.58.86,1.31-.44,2-1.23,2-2h0Z"/><ellipse class="cls-12" cx="48.6" cy="84.86" rx="4.08" ry="2.36"/><ellipse class="cls-9" cx="48.6" cy="61.55" rx="4.08" ry="2.36"/><line class="cls-8" x1="48.6" y1="60.38" x2="48.6" y2="57.43"/><path class="cls-6" d="M109.11,61.54H101V84.86h0A1.65,1.65,0,0,0,101.5,86c1.12,1.13,3.62,1.51,5.57.86,1.31-.44,2-1.23,2-2h0Z"/><path class="cls-7" d="M105,87.21a6.35,6.35,0,0,0,2-.31c1.31-.44,2-1.23,2-2h0V61.54H105Z"/><path class="cls-8" d="M109.11,61.54H101V84.86h0A1.65,1.65,0,0,0,101.5,86c1.12,1.13,3.62,1.51,5.57.86,1.31-.44,2-1.23,2-2h0Z"/><ellipse class="cls-12" cx="105.03" cy="84.86" rx="4.08" ry="2.36"/><ellipse class="cls-9" cx="105.03" cy="61.55" rx="4.08" ry="2.36"/><line class="cls-8" x1="105.03" y1="60.38" x2="105.03" y2="57.43"/><path class="cls-6" d="M137.33,33.33h-8.16V56.65h0a1.63,1.63,0,0,0,.53,1.17c1.13,1.13,3.63,1.52,5.58.86,1.31-.43,2-1.22,2-2h0Z"/><path class="cls-7" d="M133.25,59a6.39,6.39,0,0,0,2-.31c1.31-.43,2-1.22,2-2h0V33.33h-4.08Z"/><path class="cls-8" d="M137.33,33.33h-8.16V56.65h0a1.63,1.63,0,0,0,.53,1.17c1.13,1.13,3.63,1.52,5.58.86,1.31-.43,2-1.22,2-2h0Z"/><ellipse class="cls-12" cx="133.25" cy="56.64" rx="4.08" ry="2.36"/><ellipse class="cls-9" cx="133.25" cy="33.33" rx="4.08" ry="2.36"/><line class="cls-8" x1="133.25" y1="32.16" x2="133.25" y2="29.22"/><path class="cls-10" d="M22.11,72.94a5.83,5.83,0,0,1,11.65-.24h0c0,.07,0,.15,0,.23h0A2.35,2.35,0,0,1,33,74.62c-1.61,1.61-5.18,2.16-8,1.23-1.87-.62-2.89-1.75-2.89-2.91Z"/><path class="cls-11" d="M27.94,69.65a2,2,0,0,1,2.89-1.78l0,0a5.83,5.83,0,0,1,2.9,4.81h0c0,.07,0,.15,0,.23h0A2.35,2.35,0,0,1,33,74.62a7.37,7.37,0,0,1-5.05,1.67Z"/><path class="cls-8" d="M22.11,72.94a5.83,5.83,0,0,1,11.65-.24h0c0,.07,0,.15,0,.23h0A2.35,2.35,0,0,1,33,74.62c-1.61,1.61-5.18,2.16-8,1.23-1.87-.62-2.89-1.75-2.89-2.91Z"/><ellipse class="cls-12" cx="27.94" cy="72.94" rx="5.83" ry="3.37"/><path class="cls-10" d="M71,89.23A5.83,5.83,0,0,1,82.63,89h0c0,.08,0,.15,0,.23h0a2.35,2.35,0,0,1-.76,1.68c-1.61,1.61-5.17,2.16-8,1.23C72,91.52,71,90.39,71,89.23Z"/><path class="cls-11" d="M76.81,85.94a2,2,0,0,1,2.89-1.78l0,0A5.81,5.81,0,0,1,82.63,89h0c0,.08,0,.15,0,.23h0a2.35,2.35,0,0,1-.76,1.68,7.35,7.35,0,0,1-5,1.67Z"/><path class="cls-8" d="M71,89.23A5.83,5.83,0,0,1,82.63,89h0c0,.08,0,.15,0,.23h0a2.35,2.35,0,0,1-.76,1.68c-1.61,1.61-5.17,2.16-8,1.23C72,91.52,71,90.39,71,89.23Z"/><ellipse class="cls-12" cx="76.81" cy="89.23" rx="5.83" ry="3.37"/><path class="cls-10" d="M119.86,72.94a5.82,5.82,0,0,1,11.64-.24h0c0,.07,0,.15,0,.23h0a2.31,2.31,0,0,1-.76,1.68c-1.6,1.61-5.17,2.16-8,1.23-1.87-.62-2.89-1.75-2.89-2.91Z"/><path class="cls-11" d="M125.69,69.65a2,2,0,0,1,2.88-1.78l0,0a5.79,5.79,0,0,1,2.9,4.81h0c0,.07,0,.15,0,.23h0a2.31,2.31,0,0,1-.76,1.68,7.32,7.32,0,0,1-5,1.67Z"/><path class="cls-8" d="M119.86,72.94a5.82,5.82,0,0,1,11.64-.24h0c0,.07,0,.15,0,.23h0a2.31,2.31,0,0,1-.76,1.68c-1.6,1.61-5.17,2.16-8,1.23-1.87-.62-2.89-1.75-2.89-2.91Z"/><ellipse class="cls-12" cx="125.69" cy="72.94" rx="5.83" ry="3.37"/><path class="cls-10" d="M71,24.06a5.83,5.83,0,0,1,11.65-.24v0c0,.07,0,.15,0,.22h0a2.37,2.37,0,0,1-.76,1.69c-1.61,1.6-5.17,2.16-8,1.23C72,26.35,71,25.22,71,24.06Z"/><path class="cls-11" d="M76.81,20.78A2,2,0,0,1,79.7,19h0a5.84,5.84,0,0,1,2.9,4.81v0c0,.07,0,.15,0,.22h0a2.37,2.37,0,0,1-.76,1.69,7.39,7.39,0,0,1-5,1.66Z"/><path class="cls-8" d="M71,24.06a5.83,5.83,0,0,1,11.65-.24v0c0,.07,0,.15,0,.22h0a2.37,2.37,0,0,1-.76,1.69c-1.61,1.6-5.17,2.16-8,1.23C72,26.35,71,25.22,71,24.06Z"/><ellipse class="cls-12" cx="76.81" cy="24.06" rx="5.83" ry="3.37"/></g></g></svg>