<svg xmlns="http://www.w3.org/2000/svg" width="105.11" height="61.53" viewBox="0 0 105.11 61.53"><defs><style>.cls-1{fill:#f2f4f6;}.cls-1,.cls-2{stroke:#627386;stroke-linecap:round;stroke-linejoin:round;stroke-width:2px;}.cls-2{fill:#b8bfca;}</style></defs><title>card_01</title><g id="Layer_2" data-name="Layer 2"><g id="Layer_1-2" data-name="Layer 1"><path class="cls-1" d="M103.14,25.68,43.75,60a5.21,5.21,0,0,1-4.68,0L2,38.55c-1.29-.75-1.29-2,0-2.7L61.36,1.56a5.13,5.13,0,0,1,4.67,0L103.14,23C104.43,23.73,104.43,24.94,103.14,25.68Z"/><path class="cls-2" d="M103.14,23,66,1.56a5.13,5.13,0,0,0-4.67,0L54.22,5.68,96,29.8l7.14-4.12C104.43,24.94,104.43,23.73,103.14,23Z"/><polygon class="cls-2" points="53.81 44.12 62.74 24.88 29.42 30.04 53.81 44.12"/></g></g></svg>