<svg xmlns="http://www.w3.org/2000/svg" width="180" height="180" viewBox="0 0 180 180"><defs><style>.cls-1{fill:#d5dae0;}.cls-1,.cls-2,.cls-3{stroke:#627386;}.cls-1,.cls-2,.cls-3,.cls-5,.cls-6,.cls-7,.cls-8{stroke-linecap:round;stroke-linejoin:round;stroke-width:2px;}.cls-2,.cls-4,.cls-5,.cls-8{fill:none;}.cls-3{fill:#fff;}.cls-5{stroke:#d5dae0;}.cls-6{fill:#bde4fd;}.cls-6,.cls-7{stroke:#1b6dc6;}.cls-7{fill:#e9f6fe;}.cls-8{stroke:#91d2fb;}</style></defs><title>card_02</title><g id="Layer_2" data-name="Layer 2"><g id="Layer_4" data-name="Layer 4"><path class="cls-1" d="M142.37,84.55l14.95,25.89a1.17,1.17,0,0,1-1.6,1.6L134,99.51a6.26,6.26,0,0,1-2.29-2.28l-18-27.67a1.18,1.18,0,0,1,1.61-1.6l24.78,14.31A6.16,6.16,0,0,1,142.37,84.55Z"/><path class="cls-2" d="M142.37,84.55l14.95,25.89a1.17,1.17,0,0,1-1.6,1.6l-19.39-11.19A6.29,6.29,0,0,1,134,98.56l-20.34-29a1.18,1.18,0,0,1,1.61-1.6l24.78,14.31A6.16,6.16,0,0,1,142.37,84.55Z"/><path class="cls-3" d="M110.28,69.35,94.61,114.6a3.9,3.9,0,0,0,1.73,4.66l24,13.82a3.13,3.13,0,0,0,4.52-1.68l15.67-45.25a3.9,3.9,0,0,0-1.74-4.66l-24-13.83A3.12,3.12,0,0,0,110.28,69.35Z"/><polygon class="cls-4" points="111.52 65.77 93.55 117.64 123.57 134.97 141.54 83.11 111.52 65.77"/><polygon class="cls-5" points="100.36 114.79 114.41 74.23 134.73 85.96 120.68 126.52 100.36 114.79"/><path class="cls-1" d="M106.44,105.3l14.94,25.89a1.17,1.17,0,0,1-1.6,1.6l-21.7-12.53A6.26,6.26,0,0,1,95.8,118l-18-27.66a1.17,1.17,0,0,1,1.6-1.6L104.15,103A6.18,6.18,0,0,1,106.44,105.3Z"/><path class="cls-2" d="M106.44,105.3l14.94,25.89a1.17,1.17,0,0,1-1.6,1.6l-19.39-11.2a6.26,6.26,0,0,1-2.29-2.28l-20.33-29a1.17,1.17,0,0,1,1.6-1.6L104.15,103A6.18,6.18,0,0,1,106.44,105.3Z"/><path class="cls-3" d="M74.34,90.1,58.67,135.34A3.91,3.91,0,0,0,60.41,140l24,13.83a3.12,3.12,0,0,0,4.51-1.68l15.67-45.25a3.9,3.9,0,0,0-1.73-4.66l-24-13.83A3.13,3.13,0,0,0,74.34,90.1Z"/><polygon class="cls-4" points="75.58 86.52 57.61 138.39 87.63 155.72 105.6 103.85 75.58 86.52"/><polygon class="cls-5" points="64.42 135.54 78.47 94.98 98.79 106.71 84.74 147.27 64.42 135.54"/><path class="cls-1" d="M70.5,126.05l15,25.89a1.17,1.17,0,0,1-1.6,1.6L62.15,141a6.29,6.29,0,0,1-2.29-2.29l-18-27.66a1.17,1.17,0,0,1,1.6-1.6l24.78,14.3A6.29,6.29,0,0,1,70.5,126.05Z"/><path class="cls-2" d="M70.5,126.05l15,25.89a1.17,1.17,0,0,1-1.6,1.6l-19.4-11.2a6.26,6.26,0,0,1-2.28-2.29l-20.34-29a1.17,1.17,0,0,1,1.6-1.6l24.78,14.3A6.29,6.29,0,0,1,70.5,126.05Z"/><path class="cls-3" d="M38.41,110.84,22.73,156.09a3.91,3.91,0,0,0,1.74,4.66l24,13.83a3.12,3.12,0,0,0,4.51-1.68l15.68-45.25A3.91,3.91,0,0,0,66.87,123l-24-13.83A3.12,3.12,0,0,0,38.41,110.84Z"/><polygon class="cls-5" points="28.49 156.28 42.54 115.73 62.85 127.46 48.8 168.01 28.49 156.28"/><path class="cls-1" d="M124.41,53.43l14.94,25.89a1.17,1.17,0,0,1-1.6,1.6l-21.7-12.53a6.18,6.18,0,0,1-2.28-2.29l-18-27.66a1.17,1.17,0,0,1,1.6-1.6l24.78,14.31A6.18,6.18,0,0,1,124.41,53.43Z"/><path class="cls-2" d="M124.41,53.43l14.94,25.89a1.17,1.17,0,0,1-1.6,1.6l-19.39-11.2a6.26,6.26,0,0,1-2.29-2.28l-20.33-29a1.17,1.17,0,0,1,1.6-1.6l24.78,14.31A6.18,6.18,0,0,1,124.41,53.43Z"/><path class="cls-3" d="M92.31,38.23,76.64,83.47a3.88,3.88,0,0,0,1.74,4.66L102.32,102a3.13,3.13,0,0,0,4.52-1.68L122.51,55a3.9,3.9,0,0,0-1.73-4.66l-24-13.83A3.13,3.13,0,0,0,92.31,38.23Z"/><polygon class="cls-4" points="93.55 34.65 75.58 86.52 105.6 103.85 123.57 51.98 93.55 34.65"/><polygon class="cls-5" points="82.39 83.67 96.44 43.11 116.76 54.84 102.71 95.4 82.39 83.67"/><path class="cls-1" d="M88.47,74.18l14.94,25.89a1.17,1.17,0,0,1-1.6,1.6L80.12,89.14a6.29,6.29,0,0,1-2.29-2.29l-18-27.66a1.17,1.17,0,0,1,1.6-1.6l24.78,14.3A6.29,6.29,0,0,1,88.47,74.18Z"/><path class="cls-2" d="M88.47,74.18l14.94,25.89a1.17,1.17,0,0,1-1.6,1.6L82.42,90.47a6.18,6.18,0,0,1-2.28-2.29l-20.34-29a1.17,1.17,0,0,1,1.6-1.6l24.78,14.3A6.29,6.29,0,0,1,88.47,74.18Z"/><path class="cls-3" d="M56.37,59,40.7,104.22a3.91,3.91,0,0,0,1.74,4.66l24,13.83A3.12,3.12,0,0,0,70.9,121L86.58,75.78a3.91,3.91,0,0,0-1.74-4.66l-24-13.83A3.13,3.13,0,0,0,56.37,59Z"/><polygon class="cls-4" points="57.61 55.4 39.65 107.27 69.66 124.6 87.63 72.73 57.61 55.4"/><polygon class="cls-5" points="46.45 104.41 60.51 63.86 80.82 75.59 66.77 116.14 46.45 104.41"/><polygon class="cls-5" points="46.45 104.41 60.51 63.86 80.82 75.59 66.77 116.14 46.45 104.41"/><path class="cls-6" d="M106.44,22.31,121.38,48.2a1.17,1.17,0,0,1-1.6,1.6L98.08,37.27A6.26,6.26,0,0,1,95.8,35l-18-27.66a1.18,1.18,0,0,1,1.6-1.61L104.15,20A6.29,6.29,0,0,1,106.44,22.31Z"/><path class="cls-7" d="M74.34,7.1,58.67,52.35A3.91,3.91,0,0,0,60.41,57l24,13.83a3.12,3.12,0,0,0,4.51-1.68l15.67-45.25a3.89,3.89,0,0,0-1.73-4.66l-24-13.83A3.13,3.13,0,0,0,74.34,7.1Z"/><polygon class="cls-8" points="64.42 52.54 78.47 11.99 98.79 23.71 84.74 64.27 64.42 52.54"/><rect class="cls-4" width="180" height="180"/></g></g></svg>