<svg xmlns="http://www.w3.org/2000/svg" width="111.49" height="96.54" viewBox="0 0 111.49 96.54"><defs><style>.cls-1{fill:#fff;}.cls-1,.cls-2{stroke:#627386;stroke-linecap:round;stroke-linejoin:round;stroke-width:2px;}.cls-2{fill:#f2f4f6;}</style></defs><title>cloud_01</title><g id="Layer_2" data-name="Layer 2"><g id="Layer_1-2" data-name="Layer 1"><path class="cls-1" d="M20.38,84.21c0-9.52,5.79-20.59,12.93-24.71L44,53.35c1-15.24,10.21-32.08,21.46-38.58s20.5-.32,21.47,13.79l10.65-6.15c3.24-1.87,6.19-2,8.46-.67h0L86.63,10.54h0c-2.26-1.3-5.21-1.19-8.45.67L76.76,12,60.15,2.45h0c-3.78-2.18-8.71-2-14.1,1.13-11.26,6.5-20.49,23.35-21.46,38.58L13.93,48.31C6.79,52.43,1,63.5,1,73H1c0,5.21,1.74,8.87,4.48,10.45h0L24.85,94.67h0C22.12,93.08,20.38,89.42,20.38,84.21Z"/><path class="cls-2" d="M97.55,22.41,86.9,28.56c-1-14.11-10.21-20.29-21.47-13.79S44.94,38.11,44,53.35L33.31,59.5c-7.14,4.12-12.93,15.19-12.93,24.71S26.17,98.11,33.31,94L97.55,56.9c7.15-4.12,12.94-15.19,12.94-24.71h0C110.49,22.67,104.7,18.29,97.55,22.41Z"/><line class="cls-1" x1="43.97" y1="53.35" x2="24.59" y2="42.16"/></g></g></svg>