<svg xmlns="http://www.w3.org/2000/svg" width="115.81" height="82.03" viewBox="0 0 115.81 82.03"><defs><style>.cls-1{fill:#f2f4f6;}.cls-2{fill:#fff;}.cls-3,.cls-4{fill:none;stroke-linecap:round;stroke-linejoin:round;stroke-width:2px;}.cls-3{stroke:#627386;}.cls-4{stroke:#d5dae0;}</style></defs><title>cloud_02</title><g id="Layer_2" data-name="Layer 2"><g id="Layer_1-2" data-name="Layer 1"><path class="cls-1" d="M22.08,52,79.56,18.81c5.67-3.27,13.8-4.24,20.93-2.91l-.71-3h15V27.24h0c0,3.05-2,6.1-6,8.43L97.88,42l6.87-.91V55.36h0c0,5.08-3.35,10.16-10.07,14C82,76.74,61.79,77.13,48.27,70.59l-12,6.94c-8.06,4.66-21.14,4.66-29.2,0-4-2.32-6-5.37-6-8.43H1V54.79Z"/><path class="cls-2" d="M102,48.79c4.92-6.72,3.15-14.67-5.3-20.5l12-6.94c8.06-4.65,8.06-12.2,0-16.86h0c-8.07-4.65-21.14-4.65-29.21,0L7.05,46.36C-1,51-1,58.56,7.05,63.22s21.14,4.65,29.2,0l12-6.94c13.52,6.54,33.7,6.14,46.41-1.2A23.56,23.56,0,0,0,102,48.79"/><path class="cls-3" d="M1,54.79c0-3,2-6.1,6.05-8.43L79.56,4.49c8.07-4.65,21.14-4.65,29.21,0h0c4,2.33,6,5.38,6,8.43h0V27.24c0,3.05-2,6.1-6,8.43l-4.37,2.52a12,12,0,0,1,.35,2.85h0V55.36h0c0,5.08-3.35,10.16-10.07,14C82,76.74,61.79,77.13,48.27,70.59l-12,6.94c-8.06,4.66-21.14,4.66-29.2,0-4-2.32-6-5.37-6-8.43V54.79Z"/><path class="cls-4" d="M102,48.88a23.67,23.67,0,0,1-7.29,6.2C82,62.42,61.79,62.82,48.27,56.28l-12,6.94c-8.06,4.65-21.14,4.65-29.2,0"/><path class="cls-4" d="M108.77,21.35l-12,6.94a20.87,20.87,0,0,1,6,6.05"/></g></g></svg>