<svg xmlns="http://www.w3.org/2000/svg" width="83.94" height="100.9" viewBox="0 0 83.94 100.9"><defs><style>.cls-1{fill:#fff2ce;}.cls-1,.cls-3,.cls-4{stroke:#cc7c09;stroke-linecap:round;stroke-linejoin:round;stroke-width:2px;}.cls-2{fill:#ffde85;}.cls-3,.cls-5{fill:none;}.cls-4{fill:#fff8e7;}</style></defs><title>coin_02</title><g id="Layer_2" data-name="Layer 2"><g id="Layer_1-2" data-name="Layer 1"><path class="cls-1" d="M42.3,78.05l-.33-.2C32.6,72.44,17.4,72.44,8,77.85l-.33.2H1v8c0,3.54,2.34,7.09,7,9.8,9.37,5.41,24.57,5.41,33.94,0,4.69-2.71,7-6.26,7-9.8v-8Z"/><path class="cls-2" d="M42,95.85c4.69-2.71,7-6.26,7-9.8v-8H42.3l-.33-.2c-4.69-2.71-10.83-4.06-17-4.06V99.9C31.14,99.9,37.28,98.55,42,95.85Z"/><path class="cls-3" d="M42.3,78.05l-.33-.2C32.6,72.44,17.4,72.44,8,77.85l-.33.2H1v8c0,3.54,2.34,7.09,7,9.8,9.37,5.41,24.57,5.41,33.94,0,4.69-2.71,7-6.26,7-9.8v-8Z"/><ellipse class="cls-4" cx="25" cy="78.05" rx="24" ry="13.86"/><ellipse class="cls-5" cx="25" cy="86.05" rx="24" ry="13.86"/><path class="cls-2" d="M14.77,78.59a.4.4,0,0,1-.22-.06l-3.24-1.87c-.11-.06-.15-.15-.1-.23a.42.42,0,0,1,.37-.13l10.9.53c.24,0,.44-.1.42-.24L22,70.29a.19.19,0,0,1,.15-.2.59.59,0,0,1,.47,0l3.12,1.8c.06,0,.1.08.1.13l1,6.84v.06c0,.11-.13.2-.31.19h-.13Z"/><path class="cls-2" d="M28.59,79c0,.11.17.2.36.2l9.45.51a.57.57,0,0,0,.34-.09c.11-.08.09-.2,0-.27l-3.11-1.8a.52.52,0,0,0-.23-.06l-6.57-.39c-.25,0-.45.11-.43.25Z"/><path class="cls-2" d="M26.7,80.11c.19,0,.34.1.36.21l1,5.49a.19.19,0,0,1-.15.2.59.59,0,0,1-.47,0l-3.12-1.8c-.06,0-.1-.08-.1-.13l-.61-3.81c0-.14.18-.26.42-.25Z"/><path class="cls-1" d="M42.3,38.86l-.33-.2C32.6,33.25,17.4,33.25,8,38.66l-.33.2H1v8C1,50.4,3.34,54,8,56.65c9.37,5.42,24.57,5.42,33.94,0,4.69-2.7,7-6.25,7-9.79v-8Z"/><path class="cls-2" d="M42,56.65c4.69-2.7,7-6.25,7-9.79v-8H42.3l-.33-.2C37.28,36,31.14,34.6,25,34.6V60.71C31.14,60.71,37.28,59.36,42,56.65Z"/><path class="cls-3" d="M42.3,38.86l-.33-.2C32.6,33.25,17.4,33.25,8,38.66l-.33.2H1v8C1,50.4,3.34,54,8,56.65c9.37,5.42,24.57,5.42,33.94,0,4.69-2.7,7-6.25,7-9.79v-8Z"/><ellipse class="cls-4" cx="25" cy="38.86" rx="24" ry="13.86"/><ellipse class="cls-5" cx="25" cy="46.86" rx="24" ry="13.86"/><path class="cls-2" d="M14.77,39.4a.51.51,0,0,1-.22-.06l-3.24-1.87c-.11-.06-.15-.15-.1-.23a.42.42,0,0,1,.37-.14l10.9.54c.24,0,.44-.1.42-.24L22,31.09c0-.07,0-.15.15-.19a.55.55,0,0,1,.47,0l3.12,1.8a.16.16,0,0,1,.1.13l1,6.84v.06c0,.11-.13.2-.31.19h-.13Z"/><path class="cls-2" d="M28.59,39.85c0,.11.17.19.36.2l9.45.51a.57.57,0,0,0,.34-.09c.11-.09.09-.2,0-.27l-3.11-1.8a.41.41,0,0,0-.23-.06L28.79,38c-.25,0-.45.11-.43.24Z"/><path class="cls-2" d="M26.7,40.92c.19,0,.34.09.36.21l1,5.49c0,.08,0,.15-.15.2a.55.55,0,0,1-.47,0L24.28,45a.16.16,0,0,1-.1-.13l-.61-3.8c0-.14.18-.26.42-.25Z"/><path class="cls-1" d="M42.3,30.86l-.33-.2C32.6,25.25,17.4,25.25,8,30.66l-.33.2H1v8C1,42.4,3.34,46,8,48.65c9.37,5.42,24.57,5.42,33.94,0,4.69-2.7,7-6.25,7-9.79v-8Z"/><path class="cls-2" d="M42,48.65c4.69-2.7,7-6.25,7-9.79v-8H42.3l-.33-.2C37.28,28,31.14,26.6,25,26.6V52.71C31.14,52.71,37.28,51.36,42,48.65Z"/><path class="cls-3" d="M42.3,30.86l-.33-.2C32.6,25.25,17.4,25.25,8,30.66l-.33.2H1v8C1,42.4,3.34,46,8,48.65c9.37,5.42,24.57,5.42,33.94,0,4.69-2.7,7-6.25,7-9.79v-8Z"/><ellipse class="cls-4" cx="25" cy="30.86" rx="24" ry="13.86"/><ellipse class="cls-5" cx="25" cy="38.86" rx="24" ry="13.86"/><path class="cls-2" d="M14.77,31.4a.51.51,0,0,1-.22-.06l-3.24-1.87c-.11-.06-.15-.15-.1-.23a.42.42,0,0,1,.37-.14l10.9.54c.24,0,.44-.1.42-.24L22,23.09c0-.07,0-.15.15-.19a.55.55,0,0,1,.47,0l3.12,1.8a.16.16,0,0,1,.1.13l1,6.84v.06c0,.11-.13.2-.31.19h-.13Z"/><path class="cls-2" d="M28.59,31.85c0,.11.17.19.36.2l9.45.51a.57.57,0,0,0,.34-.09c.11-.09.09-.2,0-.27l-3.11-1.8a.41.41,0,0,0-.23-.06L28.79,30c-.25,0-.45.11-.43.24Z"/><path class="cls-2" d="M26.7,32.92c.19,0,.34.09.36.21l1,5.49c0,.08,0,.15-.15.2a.55.55,0,0,1-.47,0L24.28,37a.16.16,0,0,1-.1-.13l-.61-3.8c0-.14.18-.26.42-.25Z"/><path class="cls-1" d="M42.3,22.86l-.33-.2C32.6,17.25,17.4,17.25,8,22.66l-.33.2H1v8C1,34.4,3.34,38,8,40.65c9.37,5.42,24.57,5.42,33.94,0,4.69-2.7,7-6.25,7-9.79v-8Z"/><path class="cls-2" d="M42,40.65c4.69-2.7,7-6.25,7-9.79v-8H42.3l-.33-.2C37.28,20,31.14,18.6,25,18.6V44.71C31.14,44.71,37.28,43.36,42,40.65Z"/><path class="cls-3" d="M42.3,22.86l-.33-.2C32.6,17.25,17.4,17.25,8,22.66l-.33.2H1v8C1,34.4,3.34,38,8,40.65c9.37,5.42,24.57,5.42,33.94,0,4.69-2.7,7-6.25,7-9.79v-8Z"/><ellipse class="cls-4" cx="25" cy="22.86" rx="24" ry="13.86"/><ellipse class="cls-5" cx="25" cy="30.86" rx="24" ry="13.86"/><path class="cls-2" d="M14.77,23.4a.51.51,0,0,1-.22-.06l-3.24-1.87c-.11-.06-.15-.15-.1-.23a.42.42,0,0,1,.37-.14l10.9.54c.24,0,.44-.1.42-.24L22,15.09c0-.07,0-.15.15-.19a.55.55,0,0,1,.47,0l3.12,1.8a.16.16,0,0,1,.1.13l1,6.84v.06c0,.11-.13.2-.31.19h-.13Z"/><path class="cls-2" d="M28.59,23.85c0,.11.17.19.36.2l9.45.51a.57.57,0,0,0,.34-.09c.11-.09.09-.2,0-.27l-3.11-1.8a.41.41,0,0,0-.23-.06L28.79,22c-.25,0-.45.11-.43.24Z"/><path class="cls-2" d="M26.7,24.92c.19,0,.34.09.36.21l1,5.49c0,.08,0,.15-.15.2a.55.55,0,0,1-.47,0L24.28,29a.16.16,0,0,1-.1-.13l-.61-3.8c0-.14.18-.26.42-.25Z"/><path class="cls-1" d="M42.3,14.86l-.33-.2C32.6,9.25,17.4,9.25,8,14.66l-.33.2H1v8C1,26.4,3.34,30,8,32.65c9.37,5.42,24.57,5.42,33.94,0,4.69-2.7,7-6.25,7-9.79v-8Z"/><path class="cls-2" d="M42,32.65c4.69-2.7,7-6.25,7-9.79v-8H42.3l-.33-.2C37.28,12,31.14,10.6,25,10.6V36.71C31.14,36.71,37.28,35.36,42,32.65Z"/><path class="cls-3" d="M42.3,14.86l-.33-.2C32.6,9.25,17.4,9.25,8,14.66l-.33.2H1v8C1,26.4,3.34,30,8,32.65c9.37,5.42,24.57,5.42,33.94,0,4.69-2.7,7-6.25,7-9.79v-8Z"/><ellipse class="cls-4" cx="25" cy="14.86" rx="24" ry="13.86"/><ellipse class="cls-5" cx="25" cy="22.86" rx="24" ry="13.86"/><path class="cls-2" d="M14.77,15.4a.51.51,0,0,1-.22-.06l-3.24-1.87c-.11-.06-.15-.15-.1-.23a.42.42,0,0,1,.37-.14l10.9.54c.24,0,.44-.1.42-.24L22,7.09c0-.07,0-.15.15-.19a.55.55,0,0,1,.47,0l3.12,1.8a.16.16,0,0,1,.1.13l1,6.84v.06c0,.11-.13.2-.31.19h-.13Z"/><path class="cls-2" d="M28.59,15.85c0,.11.17.19.36.2l9.45.51a.57.57,0,0,0,.34-.09c.11-.09.09-.2,0-.27l-3.11-1.8a.41.41,0,0,0-.23-.06L28.79,14c-.25,0-.45.11-.43.24Z"/><path class="cls-2" d="M26.7,16.92c.19,0,.34.09.36.21l1,5.49c0,.08,0,.15-.15.2a.55.55,0,0,1-.47,0L24.28,21a.16.16,0,0,1-.1-.13l-.61-3.8c0-.14.18-.26.42-.25Z"/><path class="cls-1" d="M76.24,58.45l-.33-.2c-9.37-5.41-24.57-5.41-33.94,0l-.33.2h-6.7v8c0,3.55,2.34,7.09,7,9.8,9.37,5.41,24.57,5.41,33.94,0,4.69-2.71,7-6.25,7-9.8v-8Z"/><path class="cls-2" d="M75.91,76.25c4.69-2.71,7-6.25,7-9.8v-8h-6.7l-.33-.2c-4.68-2.7-10.83-4-17-4V80.31C65.08,80.31,71.23,79,75.91,76.25Z"/><path class="cls-3" d="M76.24,58.45l-.33-.2c-9.37-5.41-24.57-5.41-33.94,0l-.33.2h-6.7v8c0,3.55,2.34,7.09,7,9.8,9.37,5.41,24.57,5.41,33.94,0,4.69-2.71,7-6.25,7-9.8v-8Z"/><ellipse class="cls-4" cx="58.94" cy="58.45" rx="24" ry="13.86"/><ellipse class="cls-5" cx="58.94" cy="66.45" rx="24" ry="13.86"/><path class="cls-2" d="M48.71,59a.52.52,0,0,1-.22-.07l-3.24-1.87c-.1-.06-.15-.14-.1-.22a.42.42,0,0,1,.37-.14l10.9.54c.24,0,.44-.11.42-.25L56,50.69c0-.08,0-.15.15-.2a.59.59,0,0,1,.47,0l3.12,1.8a.19.19,0,0,1,.1.14l1,6.84v.06c0,.1-.14.19-.32.19h-.13Z"/><path class="cls-2" d="M62.53,59.44c0,.11.17.2.36.21l9.45.5a.55.55,0,0,0,.35-.08c.1-.09.08-.2,0-.28L69.53,58a.7.7,0,0,0-.23-.06l-6.57-.38c-.24,0-.45.1-.43.24Z"/><path class="cls-2" d="M60.64,60.51c.19,0,.34.1.36.21l1,5.49a.19.19,0,0,1-.15.2.59.59,0,0,1-.47,0l-3.12-1.8a.16.16,0,0,1-.1-.13l-.61-3.81c0-.14.18-.25.43-.24Z"/><path class="cls-1" d="M76.24,50.45l-.33-.2c-9.37-5.41-24.57-5.41-33.94,0l-.33.2h-6.7v8c0,3.55,2.34,7.09,7,9.8,9.37,5.41,24.57,5.41,33.94,0,4.69-2.71,7-6.25,7-9.8v-8Z"/><path class="cls-2" d="M75.91,68.25c4.69-2.71,7-6.25,7-9.8v-8h-6.7l-.33-.2c-4.68-2.7-10.83-4-17-4V72.31C65.08,72.31,71.23,71,75.91,68.25Z"/><path class="cls-3" d="M76.24,50.45l-.33-.2c-9.37-5.41-24.57-5.41-33.94,0l-.33.2h-6.7v8c0,3.55,2.34,7.09,7,9.8,9.37,5.41,24.57,5.41,33.94,0,4.69-2.71,7-6.25,7-9.8v-8Z"/><ellipse class="cls-4" cx="58.94" cy="50.45" rx="24" ry="13.86"/><ellipse class="cls-5" cx="58.94" cy="58.45" rx="24" ry="13.86"/><path class="cls-2" d="M48.71,51a.52.52,0,0,1-.22-.07l-3.24-1.87c-.1-.06-.15-.14-.1-.22a.42.42,0,0,1,.37-.14l10.9.54c.24,0,.44-.11.42-.25L56,42.69c0-.08,0-.15.15-.2a.59.59,0,0,1,.47,0l3.12,1.8a.19.19,0,0,1,.1.14l1,6.84v.06c0,.1-.14.19-.32.19h-.13Z"/><path class="cls-2" d="M62.53,51.44c0,.11.17.2.36.21l9.45.5a.55.55,0,0,0,.35-.08c.1-.09.08-.2,0-.28L69.53,50a.7.7,0,0,0-.23-.06l-6.57-.38c-.24,0-.45.1-.43.24Z"/><path class="cls-2" d="M60.64,52.51c.19,0,.34.1.36.21l1,5.49a.19.19,0,0,1-.15.2.59.59,0,0,1-.47,0l-3.12-1.8a.16.16,0,0,1-.1-.13l-.61-3.81c0-.14.18-.25.43-.24Z"/><path class="cls-1" d="M76.24,42.45l-.33-.2c-9.37-5.41-24.57-5.41-33.94,0l-.33.2h-6.7v8c0,3.55,2.34,7.09,7,9.8,9.37,5.41,24.57,5.41,33.94,0,4.69-2.71,7-6.25,7-9.8v-8Z"/><path class="cls-2" d="M75.91,60.25c4.69-2.71,7-6.25,7-9.8v-8h-6.7l-.33-.2c-4.68-2.7-10.83-4-17-4V64.31C65.08,64.31,71.23,63,75.91,60.25Z"/><path class="cls-3" d="M76.24,42.45l-.33-.2c-9.37-5.41-24.57-5.41-33.94,0l-.33.2h-6.7v8c0,3.55,2.34,7.09,7,9.8,9.37,5.41,24.57,5.41,33.94,0,4.69-2.71,7-6.25,7-9.8v-8Z"/><ellipse class="cls-4" cx="58.94" cy="42.45" rx="24" ry="13.86"/><ellipse class="cls-5" cx="58.94" cy="50.45" rx="24" ry="13.86"/><path class="cls-2" d="M48.71,43a.52.52,0,0,1-.22-.07l-3.24-1.87c-.1-.06-.15-.14-.1-.22a.42.42,0,0,1,.37-.14l10.9.54c.24,0,.44-.11.42-.25L56,34.69c0-.08,0-.15.15-.2a.59.59,0,0,1,.47,0l3.12,1.8a.19.19,0,0,1,.1.14l1,6.84v.06c0,.1-.14.19-.32.19h-.13Z"/><path class="cls-2" d="M62.53,43.44c0,.11.17.2.36.21l9.45.5a.55.55,0,0,0,.35-.08c.1-.09.08-.2,0-.28L69.53,42a.7.7,0,0,0-.23-.06l-6.57-.38c-.24,0-.45.1-.43.24Z"/><path class="cls-2" d="M60.64,44.51c.19,0,.34.1.36.21l1,5.49a.19.19,0,0,1-.15.2.59.59,0,0,1-.47,0l-3.12-1.8a.16.16,0,0,1-.1-.13l-.61-3.81c0-.14.18-.25.43-.24Z"/><path class="cls-1" d="M42.3,70.05l-.33-.2C32.6,64.44,17.4,64.44,8,69.85l-.33.2H1v8c0,3.54,2.34,7.09,7,9.8,9.37,5.41,24.57,5.41,33.94,0,4.69-2.71,7-6.26,7-9.8v-8Z"/><path class="cls-2" d="M42,87.85c4.69-2.71,7-6.26,7-9.8v-8H42.3l-.33-.2c-4.69-2.71-10.83-4.06-17-4.06V91.9C31.14,91.9,37.28,90.55,42,87.85Z"/><path class="cls-3" d="M42.3,70.05l-.33-.2C32.6,64.44,17.4,64.44,8,69.85l-.33.2H1v8c0,3.54,2.34,7.09,7,9.8,9.37,5.41,24.57,5.41,33.94,0,4.69-2.71,7-6.26,7-9.8v-8Z"/><ellipse class="cls-4" cx="25" cy="70.05" rx="24" ry="13.86"/><ellipse class="cls-5" cx="25" cy="78.05" rx="24" ry="13.86"/><path class="cls-2" d="M14.77,70.59a.4.4,0,0,1-.22-.06l-3.24-1.87c-.11-.06-.15-.15-.1-.23a.42.42,0,0,1,.37-.13l10.9.53c.24,0,.44-.1.42-.24L22,62.29a.19.19,0,0,1,.15-.2.59.59,0,0,1,.47,0l3.12,1.8c.06,0,.1.08.1.13l1,6.84v.06c0,.11-.13.2-.31.19h-.13Z"/><path class="cls-2" d="M28.59,71c0,.11.17.2.36.2l9.45.51a.57.57,0,0,0,.34-.09c.11-.08.09-.2,0-.27l-3.11-1.8a.52.52,0,0,0-.23-.06l-6.57-.39c-.25,0-.45.11-.43.25Z"/><path class="cls-2" d="M26.7,72.11c.19,0,.34.1.36.21l1,5.49a.19.19,0,0,1-.15.2.59.59,0,0,1-.47,0l-3.12-1.8c-.06,0-.1-.08-.1-.13l-.61-3.81c0-.14.18-.26.42-.25Z"/></g></g></svg>