<svg xmlns="http://www.w3.org/2000/svg" width="50" height="37.71" viewBox="0 0 50 37.71"><defs><style>.cls-1{fill:#fff2ce;}.cls-1,.cls-3,.cls-4{stroke:#cc7c09;stroke-linecap:round;stroke-linejoin:round;stroke-width:2px;}.cls-2{fill:#ffde85;}.cls-3,.cls-5{fill:none;}.cls-4{fill:#fff8e7;}</style></defs><title>coin_01</title><g id="Layer_2" data-name="Layer 2"><g id="Layer_1-2" data-name="Layer 1"><path class="cls-1" d="M42.3,14.86l-.33-.2C32.6,9.25,17.4,9.25,8,14.66l-.33.2H1v8C1,26.4,3.34,30,8,32.65c9.37,5.42,24.57,5.42,33.94,0,4.69-2.7,7-6.25,7-9.79v-8Z"/><path class="cls-2" d="M42,32.65c4.69-2.7,7-6.25,7-9.79v-8H42.3l-.33-.2C37.28,12,31.14,10.6,25,10.6V36.71C31.14,36.71,37.28,35.36,42,32.65Z"/><path class="cls-3" d="M42.3,14.86l-.33-.2C32.6,9.25,17.4,9.25,8,14.66l-.33.2H1v8C1,26.4,3.34,30,8,32.65c9.37,5.42,24.57,5.42,33.94,0,4.69-2.7,7-6.25,7-9.79v-8Z"/><ellipse class="cls-4" cx="25" cy="14.86" rx="24" ry="13.86"/><ellipse class="cls-5" cx="25" cy="22.86" rx="24" ry="13.86"/><path class="cls-2" d="M14.77,15.4a.51.51,0,0,1-.22-.06l-3.24-1.87c-.11-.06-.15-.15-.1-.23a.42.42,0,0,1,.37-.14l10.9.54c.24,0,.44-.1.42-.24L22,7.09c0-.07,0-.15.15-.19a.55.55,0,0,1,.47,0l3.12,1.8a.16.16,0,0,1,.1.13l1,6.84v.06c0,.11-.13.2-.31.19h-.13Z"/><path class="cls-2" d="M28.59,15.85c0,.11.17.19.36.2l9.45.51a.57.57,0,0,0,.34-.09c.11-.09.09-.2,0-.27l-3.11-1.8a.41.41,0,0,0-.23-.06L28.79,14c-.25,0-.45.11-.43.24Z"/><path class="cls-2" d="M26.7,16.92c.19,0,.34.09.36.21l1,5.49c0,.08,0,.15-.15.2a.55.55,0,0,1-.47,0L24.28,21a.16.16,0,0,1-.1-.13l-.61-3.8c0-.14.18-.26.42-.25Z"/></g></g></svg>