<svg xmlns="http://www.w3.org/2000/svg" width="68.95" height="80.46" viewBox="0 0 68.95 80.46"><defs><style>.cls-1{fill:#fff;}.cls-2{fill:#feeeee;}.cls-3{fill:#f2f4f6;}.cls-4{fill:#d5dae0;}.cls-5,.cls-6,.cls-8,.cls-9{fill:none;stroke-linecap:round;stroke-linejoin:round;stroke-width:2px;}.cls-5{stroke:#627386;}.cls-6{stroke:#b8bfca;}.cls-7{fill:#fccccc;}.cls-8{stroke:#faabab;}.cls-9{stroke:#fccccc;}</style></defs><title>dice_01</title><g id="Layer_2" data-name="Layer 2"><g id="Layer_1-2" data-name="Layer 1"><path class="cls-1" d="M62.2,15.24,40.29,2.55a11.53,11.53,0,0,0-11.53,0l-22,12.7A11.53,11.53,0,0,0,1,25.23L1,55.34a11.53,11.53,0,0,0,5.79,10l22,12.61a11.55,11.55,0,0,0,11.49,0l21.9-12.61a11.51,11.51,0,0,0,5.77-10l0-30.12A11.53,11.53,0,0,0,62.2,15.24Z"/><path class="cls-2" d="M14.2,69.57l14.56,8.36a11.55,11.55,0,0,0,11.49,0L43.59,76V64.72H14.2Z"/><path class="cls-3" d="M6.35,65.16,26.92,77a5,5,0,0,0,7.5-4.34l0-28.54A10.88,10.88,0,0,0,29,34.72L8.39,22.89a5,5,0,0,0-7.5,4.33l0,28.54A10.87,10.87,0,0,0,6.35,65.16Z"/><path class="cls-4" d="M62.48,65.16,41.91,77a5,5,0,0,1-7.49-4.34l0-28.54a10.84,10.84,0,0,1,5.44-9.4L60.45,22.89a5,5,0,0,1,7.49,4.33l0,28.54A10.85,10.85,0,0,1,62.48,65.16Z"/><path class="cls-5" d="M62.2,15.24,40.29,2.55a11.53,11.53,0,0,0-11.53,0l-22,12.7A11.53,11.53,0,0,0,1,25.23L1,55.34a11.53,11.53,0,0,0,5.79,10l22,12.61a11.55,11.55,0,0,0,11.49,0l21.9-12.61a11.51,11.51,0,0,0,5.77-10l0-30.12A11.53,11.53,0,0,0,62.2,15.24Z"/><line class="cls-6" x1="34.49" y1="66.74" x2="34.44" y2="44.61"/><line class="cls-6" x1="41.72" y1="33.66" x2="58.74" y2="23.88"/><line class="cls-6" x1="27.22" y1="33.66" x2="10.21" y2="23.88"/><ellipse class="cls-7" cx="34.41" cy="18.57" rx="4.5" ry="2.6"/><ellipse class="cls-8" cx="34.41" cy="18.57" rx="4.5" ry="2.6"/><ellipse class="cls-8" cx="42.58" cy="66.04" rx="4.61" ry="2.61" transform="translate(-34.86 79.36) rotate(-66.95)"/><ellipse class="cls-8" cx="59.78" cy="33.85" rx="4.61" ry="2.61" transform="translate(5.23 75.6) rotate(-66.95)"/><ellipse class="cls-8" cx="51.18" cy="49.94" rx="4.61" ry="2.61" transform="translate(-14.82 77.48) rotate(-66.95)"/><ellipse class="cls-9" cx="25.53" cy="44.29" rx="2.61" ry="4.61" transform="translate(-15.3 13.53) rotate(-23.05)"/><ellipse class="cls-9" cx="9.89" cy="55.59" rx="2.61" ry="4.61" transform="translate(-20.98 8.31) rotate(-23.05)"/><ellipse class="cls-6" cx="42.58" cy="66.04" rx="4.61" ry="2.61" transform="translate(-34.86 79.36) rotate(-66.95)"/><ellipse class="cls-6" cx="59.78" cy="33.85" rx="4.61" ry="2.61" transform="translate(5.23 75.6) rotate(-66.95)"/><ellipse class="cls-6" cx="51.18" cy="49.94" rx="4.61" ry="2.61" transform="translate(-14.82 77.48) rotate(-66.95)"/><ellipse class="cls-6" cx="25.53" cy="44.29" rx="2.61" ry="4.61" transform="translate(-15.3 13.53) rotate(-23.05)"/><ellipse class="cls-6" cx="9.89" cy="55.59" rx="2.61" ry="4.61" transform="translate(-20.98 8.31) rotate(-23.05)"/></g></g></svg>