<svg xmlns="http://www.w3.org/2000/svg" width="41.26" height="82.05" viewBox="0 0 41.26 82.05"><defs><style>.cls-1{fill:#fff;}.cls-1,.cls-2,.cls-3{stroke:#1b6dc6;stroke-linecap:round;stroke-linejoin:round;stroke-width:2px;}.cls-2{fill:#bde4fd;}.cls-3{fill:#e9f6fe;}</style></defs><title>domino_02</title><g id="Layer_2" data-name="Layer 2"><g id="Layer_1-2" data-name="Layer 1"><polygon class="cls-1" points="40.26 17.91 35.28 20.79 30.29 23.67 15.64 15.21 1 6.76 5.99 3.88 10.97 1 25.62 9.46 40.26 17.91"/><polygon class="cls-2" points="40.26 17.91 40.26 46.6 40.26 75.3 35.28 78.17 30.29 81.05 30.29 52.36 30.29 23.67 35.28 20.79 40.26 17.91"/><polygon class="cls-3" points="1 6.76 1 35.45 1 64.14 15.64 72.6 30.29 81.05 30.29 52.36 30.29 23.67 15.64 15.21 1 6.76"/><line class="cls-3" x1="21.88" y1="47.5" x2="9.41" y2="40.31"/></g></g></svg>