<svg xmlns="http://www.w3.org/2000/svg" width="136.06" height="89.56" viewBox="0 0 136.06 89.56"><defs><style>.cls-1,.cls-5{fill:#d5dae0;}.cls-1,.cls-3,.cls-4,.cls-6,.cls-9{stroke:#627386;stroke-linecap:round;stroke-linejoin:round;stroke-width:2px;}.cls-2,.cls-9{fill:#b8bfca;}.cls-3{fill:none;}.cls-4,.cls-7{fill:#fff;}.cls-6,.cls-8{fill:#f2f4f6;}</style></defs><title>magnifyinglass_01</title><g id="Layer_2" data-name="Layer 2"><g id="Layer_1-2" data-name="Layer 1"><path class="cls-1" d="M72.86,23.56c-7-6.2-19-10.3-32.79-10.3s-25.83,4.1-32.79,10.3H1V35.81C1,48.27,18.49,58.37,40.07,58.37s39.07-10.1,39.07-22.56V23.56Z"/><path class="cls-2" d="M79.14,35.81V23.56H72.86c-7-6.2-19-10.3-32.79-10.3V58.37C61.65,58.37,79.14,48.27,79.14,35.81Z"/><path class="cls-3" d="M72.86,23.56c-7-6.2-19-10.3-32.79-10.3s-25.83,4.1-32.79,10.3H1V35.81C1,48.27,18.49,58.37,40.07,58.37s39.07-10.1,39.07-22.56V23.56Z"/><ellipse class="cls-4" cx="40.07" cy="23.56" rx="39.07" ry="22.56"/><ellipse class="cls-2" cx="40.07" cy="23.56" rx="32.94" ry="18.13"/><path class="cls-5" d="M73,23.56c0-10-14.75-18.14-32.94-18.14V41.69C58.26,41.69,73,33.57,73,23.56Z"/><ellipse class="cls-3" cx="40.07" cy="23.56" rx="32.94" ry="18.13"/><ellipse class="cls-4" cx="40.07" cy="25.85" rx="32.67" ry="15.84"/><path class="cls-6" d="M68.87,42h0a1.56,1.56,0,0,0-1.61.12,5.92,5.92,0,0,0-2.46,4.71,2.13,2.13,0,0,0,.86,2v0l13.73,7.93,3.23-6.84Z"/><path class="cls-7" d="M68.86,42a1.56,1.56,0,0,0-1.61.12A5,5,0,0,0,65.4,44.3L81,53.3l1.61-3.42L68.87,42Z"/><path class="cls-3" d="M68.87,42h0a1.56,1.56,0,0,0-1.61.12,5.92,5.92,0,0,0-2.46,4.71,2.13,2.13,0,0,0,.86,2v0l13.73,7.93,3.23-6.84Z"/><path class="cls-1" d="M83.49,46.65h0a3,3,0,0,0-3,.24c-2.54,1.47-4.6,5.4-4.6,8.78,0,1.86.62,3.15,1.59,3.72h0l50,28.86,6-12.75Z"/><path class="cls-8" d="M130.47,81.88l3-6.38-50-28.85h0a3,3,0,0,0-3,.24A9.34,9.34,0,0,0,77,51Z"/><path class="cls-3" d="M83.49,46.65h0a3,3,0,0,0-3,.24c-2.54,1.47-4.6,5.4-4.6,8.78,0,1.86.62,3.15,1.59,3.72h0l50,28.86,6-12.75Z"/><ellipse class="cls-9" cx="130.47" cy="81.88" rx="7.06" ry="3.99" transform="translate(4.04 169.87) rotate(-66.95)"/></g></g></svg>