<svg xmlns="http://www.w3.org/2000/svg" width="132" height="81.33" viewBox="0 0 132 81.33"><defs><style>.cls-1{fill:none;}.cls-1,.cls-2,.cls-3{stroke:#627386;stroke-linecap:round;stroke-linejoin:round;stroke-width:2px;}.cls-2{fill:#d5dae0;}.cls-3{fill:#fff;}</style></defs><title>mouse_01</title><g id="Layer_2" data-name="Layer 2"><g id="Layer_1-2" data-name="Layer 1"><path class="cls-1" d="M1,1,14.88,9c2.69,1.56,2.69,4.07,0,5.62L8.27,18.45c-2.69,1.55-2.69,4.07,0,5.62h0a10.76,10.76,0,0,0,9.73,0L41,10.81a10.76,10.76,0,0,1,9.73,0l.18.11c2.69,1.55,2.69,4.07,0,5.62l-23,13.25c-2.68,1.56-2.68,4.07,0,5.62l0,0a10.78,10.78,0,0,0,9.74,0l6.61-3.82a10.76,10.76,0,0,1,9.73,0l13.88,8"/><path class="cls-2" d="M47.83,43.72c0,3.77.54,5.78,7.68,9.89L61,56.77,95.08,76.46c10.17,6.3,17,4.38,28-2S47.83,43.72,47.83,43.72Z"/><path class="cls-3" d="M73.34,58.45C96.76,72,101.72,86.3,123.1,74.49c17.55-9.69,3.05-24.36-16.15-35.44C82.32,24.83,73.48,26.88,55.67,37.17,40.25,46.07,48.34,44,73.34,58.45Z"/><path class="cls-3" d="M71.46,37c-.72-.21-1.42-.39-2.12-.56"/><path class="cls-3" d="M73.56,37.7c-.71-.24-1.41-.46-2.1-.67"/></g></g></svg>