<svg xmlns="http://www.w3.org/2000/svg" width="69.28" height="43.33" viewBox="0 0 69.28 43.33"><defs><style>.cls-1,.cls-3{fill:#f2f4f6;}.cls-1,.cls-2,.cls-4{stroke:#627386;stroke-linecap:round;stroke-linejoin:round;stroke-width:2px;}.cls-2{fill:#d5dae0;}.cls-4{fill:none;}</style></defs><title>pencil_01</title><g id="Layer_2" data-name="Layer 2"><g id="Layer_2-2" data-name="Layer 2"><polygon class="cls-1" points="57.66 12.17 68.28 1 53.89 4.01 57.66 12.17"/><path class="cls-2" d="M1.69,34.19,53.14,4.49a1.76,1.76,0,0,1,2.28-.13,7.11,7.11,0,0,1,3,5.67c0,1.43-.58,2.35-1.44,2.54L6.14,41.9Z"/><path class="cls-3" d="M57.64,7a6,6,0,0,0-2.22-2.65,1.76,1.76,0,0,0-2.28.13L1.69,34.19,3.91,38Z"/><path class="cls-4" d="M1.69,34.19,53.14,4.49a1.76,1.76,0,0,1,2.28-.13,7.11,7.11,0,0,1,3,5.67c0,1.43-.58,2.35-1.44,2.54L6.14,41.9Z"/><path class="cls-1" d="M1.69,34.19l7.39-4.26a1.75,1.75,0,0,1,2.27-.13,7.1,7.1,0,0,1,3,5.67c0,1.44-.58,2.35-1.44,2.54L6.14,41.9Z"/><ellipse class="cls-1" cx="3.97" cy="38.02" rx="2.58" ry="4.56" transform="translate(-14.57 4.59) rotate(-23.05)"/></g></g></svg>