<svg xmlns="http://www.w3.org/2000/svg" width="115.6" height="131.75" viewBox="0 0 115.6 131.75"><defs><style>.cls-1,.cls-2,.cls-3,.cls-4{fill:none;}.cls-1,.cls-5,.cls-8{stroke:#627386;}.cls-1,.cls-2,.cls-3,.cls-4,.cls-5,.cls-8,.cls-9{stroke-linecap:round;stroke-linejoin:round;stroke-width:2px;}.cls-2{stroke:#f2f4f6;}.cls-3{stroke:#d5dae0;}.cls-4{stroke:#fff;}.cls-5,.cls-7{fill:#fff;}.cls-6{fill:#f2f4f6;}.cls-8{fill:#d5dae0;}.cls-9{fill:#d3edfd;stroke:#1b6dc6;}</style></defs><title>tea_01</title><g id="Layer_2" data-name="Layer 2"><g id="Layer_3" data-name="Layer 3"><path class="cls-1" d="M83,92.62c-8.65,0-17.37-6.88-17.37-22.25s9.3-33,21.17-39.86a20.75,20.75,0,0,1,10.39-3c8.65,0,17.37,6.87,17.37,22.24s-9.3,33-21.17,39.86A20.76,20.76,0,0,1,83,92.62Z"/><ellipse class="cls-2" cx="90.14" cy="60.05" rx="27.44" ry="15.53" transform="translate(-0.42 119.48) rotate(-66.95)"/><path class="cls-3" d="M99.83,66.65c-2.93,6-7.12,11.18-11.67,13.81A10.58,10.58,0,0,1,83,82.08c-5,0-6.83-6.31-6.83-11.71"/><path class="cls-4" d="M68.31,70.37c0-14.64,8.72-31.15,19.85-37.57a18.09,18.09,0,0,1,9.07-2.68,13.2,13.2,0,0,1,11.53,6.67"/><path class="cls-1" d="M83,79.45c-2.9,0-4.19-4.56-4.19-9.08,0-10.85,6.67-23.88,14.58-28.45a7.86,7.86,0,0,1,3.8-1.26c2.9,0,4.19,4.56,4.19,9.07,0,10.86-6.67,23.89-14.58,28.45A7.77,7.77,0,0,1,83,79.45Z"/><path class="cls-5" d="M1,27v77.79c0,14.35,20.15,26,45,26s45-11.63,45-26V27Z"/><path class="cls-6" d="M46,130.75c24.85,0,45-11.63,45-26V27H46Z"/><ellipse class="cls-7" cx="46" cy="26.98" rx="45" ry="25.98"/><path class="cls-1" d="M1,27v77.79c0,14.35,20.15,26,45,26s45-11.63,45-26V27"/><ellipse class="cls-5" cx="46" cy="26.98" rx="36.89" ry="19.76"/><path class="cls-6" d="M46,7.22h0C25.62,7.22,9.11,16.06,9.11,27S25.62,46.74,46,46.74h0Z"/><ellipse class="cls-8" cx="46" cy="33.58" rx="34.77" ry="13.16"/><ellipse class="cls-1" cx="46" cy="26.98" rx="36.89" ry="19.76"/><path class="cls-1" d="M1,27c0-5.92,3.43-11.38,9.21-15.75A49.24,49.24,0,0,1,27.28,3.35,73.46,73.46,0,0,1,46,1,73.46,73.46,0,0,1,64.72,3.35a49.32,49.32,0,0,1,17.07,7.88C87.57,15.6,91,21.06,91,27"/><path class="cls-3" d="M85.34,39.6a37.85,37.85,0,0,1-11.7,7.88,60.75,60.75,0,0,1-13.53,4.18A76.06,76.06,0,0,1,46,53a76.06,76.06,0,0,1-14.11-1.3,60.59,60.59,0,0,1-13.53-4.18A37.62,37.62,0,0,1,6.66,39.6"/><path class="cls-1" d="M24,42.08c-.71-1.84-2.38-2.45-4.32-1.33-2.59,1.5-4.69,5.51-4.69,9"/><path class="cls-9" d="M23.09,98.92c0,1.94-1.18,2.83-2.64,2L15.59,98.1l-4.86-2.8a6.31,6.31,0,0,1-2.64-5V75.75a7.71,7.71,0,0,1,1.17-4.44l3.89-5.44c1.17-1.63,3.72-.16,4.89,2.83l3.88,9.92a16.29,16.29,0,0,1,1.17,5.79Z"/><line class="cls-1" x1="14.97" y1="49.71" x2="14.97" y2="69.17"/><line class="cls-9" x1="14.97" y1="77.25" x2="14.97" y2="84.29"/><line class="cls-9" x1="14.97" y1="89.76" x2="14.97" y2="89.56"/></g></g></svg>