<svg xmlns="http://www.w3.org/2000/svg" width="152" height="88.6" viewBox="0 0 152 88.6"><defs><style>.cls-1{fill:#f2f4f6;stroke:#627386;}.cls-1,.cls-2,.cls-3{stroke-linecap:round;stroke-linejoin:round;stroke-width:2px;}.cls-2{fill:#d3edfd;}.cls-2,.cls-3{stroke:#1b6dc6;}.cls-3{fill:#bde4fd;}</style></defs><title>time_02</title><g id="Layer_2" data-name="Layer 2"><g id="Layer_1-2" data-name="Layer 1"><ellipse class="cls-1" cx="76" cy="44.3" rx="75" ry="43.3"/><line class="cls-1" x1="95.41" y1="2.48" x2="93.16" y2="7.32"/><line class="cls-1" x1="56.59" y1="2.48" x2="58.83" y2="7.32"/><line class="cls-1" x1="22.97" y1="13.68" x2="29.1" y2="17.23"/><path class="cls-2" d="M129,13.68,76,44.3,3.56,33.1C-3.11,47.54,3.34,63.59,23,74.92c22,12.71,54.3,15.86,81.43,9.46l.17,0c1.13-.27,2.26-.55,3.38-.86h0A88.64,88.64,0,0,0,129,74.92C158.32,58,158.32,30.59,129,13.68Z"/><line class="cls-3" x1="3.56" y1="55.51" x2="11.94" y2="54.21"/><line class="cls-3" x1="22.97" y1="74.92" x2="29.1" y2="71.38"/><line class="cls-3" x1="56.59" y1="86.13" x2="58.83" y2="81.29"/><line class="cls-3" x1="95.41" y1="86.13" x2="93.16" y2="81.29"/><line class="cls-3" x1="129.03" y1="74.92" x2="122.9" y2="71.38"/><line class="cls-3" x1="148.44" y1="55.51" x2="140.06" y2="54.21"/><line class="cls-3" x1="148.44" y1="33.09" x2="140.06" y2="34.39"/></g></g></svg>