<svg xmlns="http://www.w3.org/2000/svg" width="26.1" height="54.13" viewBox="0 0 26.1 54.13"><defs><style>.cls-1{fill:#f2f4f6;}.cls-2{fill:#627386;}.cls-3{fill:#d5dae0;}</style></defs><title>tree</title><g id="Layer_2" data-name="Layer 2"><g id="Front"><path class="cls-1" d="M16.26,37.3v14c0,1-1.44,1.85-3.21,1.85s-3.2-.83-3.2-1.85v-14Z"/><path class="cls-2" d="M13.05,54.13c-2.4,0-4.2-1.22-4.2-2.85v-14a1,1,0,0,1,1-1h6.41a1,1,0,0,1,1,1v14C17.26,52.91,15.45,54.13,13.05,54.13ZM10.85,38.3v13c0,.22.75.85,2.2.85s2.21-.63,2.21-.85v-13Z"/><path class="cls-3" d="M16.26,30v14c0,1-1.44,1.86-3.21,1.86s-3.2-.83-3.2-1.86V30Z"/><path class="cls-2" d="M13.05,54.13c-2.4,0-4.2-1.22-4.2-2.85v-14a1,1,0,0,1,1-1h6.41a1,1,0,0,1,1,1v14C17.26,52.91,15.45,54.13,13.05,54.13ZM10.85,38.3v13c0,.22.75.85,2.2.85s2.21-.63,2.21-.85v-13Z"/><path class="cls-1" d="M1.17,33.72h0l9-30.57h0a3,3,0,0,1,5.74,0h0l9,30.57h0a4.26,4.26,0,0,1,.17,1.18c0,3.84-5.39,7-12,7s-12-3.11-12-7A4.26,4.26,0,0,1,1.17,33.72Z"/><path class="cls-2" d="M13.05,42.85c-7.32,0-13-3.49-13-8a4.92,4.92,0,0,1,.19-1.37s0-.06,0-.09l9-30.58a4,4,0,0,1,7.66,0l9,30.58a.29.29,0,0,1,0,.09,4.92,4.92,0,0,1,.19,1.37C26.1,39.36,20.37,42.85,13.05,42.85ZM2.15,33.92a.29.29,0,0,1,0,.09A3,3,0,0,0,2,34.9c0,3.23,5.06,6,11.05,6s11.05-2.72,11.05-6A3,3,0,0,0,24,34a.29.29,0,0,1,0-.09L15,3.43a2,2,0,0,0-3.82,0Z"/><path class="cls-3" d="M25.1,34.9a4.26,4.26,0,0,0-.17-1.18h0l-9-30.57h0v0a1.47,1.47,0,0,0-2.86.51V41.85C19.71,41.85,25.1,38.74,25.1,34.9Z"/><path class="cls-2" d="M13.05,42.85c-7.32,0-13-3.49-13-8a4.92,4.92,0,0,1,.19-1.37s0-.06,0-.09l9-30.58a4,4,0,0,1,7.66,0l9,30.58a.29.29,0,0,1,0,.09,4.92,4.92,0,0,1,.19,1.37C26.1,39.36,20.37,42.85,13.05,42.85ZM2.15,33.92a.29.29,0,0,1,0,.09A3,3,0,0,0,2,34.9c0,3.23,5.06,6,11.05,6s11.05-2.72,11.05-6A3,3,0,0,0,24,34a.29.29,0,0,1,0-.09L15,3.43a2,2,0,0,0-3.82,0Z"/></g></g></svg>