<svg xmlns="http://www.w3.org/2000/svg" width="113.96" height="169.22" viewBox="0 0 113.96 169.22"><defs><style>.cls-1{fill:#f2f4f6;}.cls-2{fill:#627386;}.cls-3{fill:#fff;}.cls-4{fill:#d5dae0;}</style></defs><title>building_d1</title><g id="Layer_2" data-name="Layer 2"><g id="Layer_1-2" data-name="Layer 1"><polygon class="cls-1" points="56.53 33.32 56.53 85.41 56.53 135.64 42.42 127.5 28.31 119.35 28.31 69.12 28.31 17.03 42.42 25.18 56.53 33.32"/><path class="cls-2" d="M56.53,136.64a1,1,0,0,1-.5-.13L27.81,120.22a1,1,0,0,1-.5-.87V17a1,1,0,0,1,.5-.87,1,1,0,0,1,1,0L57,32.45a1,1,0,0,1,.5.87V135.64a1,1,0,0,1-1,1ZM29.31,118.77l26.22,15.14V33.9L29.31,18.76Z"/><path class="cls-2" d="M42.42,128.5a1,1,0,0,1-1-1V25.18a1,1,0,1,1,2,0V127.5A1,1,0,0,1,42.42,128.5Z"/><polygon class="cls-3" points="112.96 33.32 84.97 17.16 84.97 17.16 56.98 1 28.99 17.16 28.99 17.16 1 33.32 28.99 49.48 28.99 49.48 56.98 65.64 84.97 49.48 84.97 49.48 112.96 33.32"/><path class="cls-2" d="M57,66.64a1,1,0,0,1-.5-.13L.5,34.19a1,1,0,0,1,0-1.74L56.48.13a1,1,0,0,1,1,0l56,32.32a1,1,0,0,1,0,1.74l-56,32.32A1,1,0,0,1,57,66.64ZM3,33.32,57,64.49l54-31.17L57,2.16Z"/><polygon class="cls-3" points="56.98 33.32 42.98 25.24 42.98 25.24 28.99 17.16 14.99 25.24 14.99 25.24 1 33.32 14.99 41.4 14.99 41.4 28.99 49.48 42.98 41.4 42.98 41.4 56.98 33.32"/><path class="cls-2" d="M29,50.48a1,1,0,0,1-.5-.13L.5,34.19a1,1,0,0,1,0-1.74l28-16.16a1,1,0,0,1,1,0l28,16.16a1,1,0,0,1,0,1.74l-28,16.16A1,1,0,0,1,29,50.48ZM3,33.32l26,15,26-15-26-15Z"/><polygon class="cls-4" points="56.53 65.9 56.53 91.94 56.53 106.88 56.53 142.18 56.53 168.22 70.64 160.08 84.75 151.93 98.85 143.79 112.96 135.64 112.96 109.6 112.96 85.41 112.96 59.36 112.96 33.32 98.85 41.47 84.75 49.61 70.64 57.76 56.53 65.9"/><path class="cls-2" d="M56.53,169.22a1,1,0,0,1-.5-.13,1,1,0,0,1-.5-.87V65.9A1,1,0,0,1,56,65l56.43-32.58a1,1,0,0,1,1,0,1,1,0,0,1,.5.87V135.64a1,1,0,0,1-.5.87L57,169.09A1,1,0,0,1,56.53,169.22Zm1-102.74v100L112,135.06v-100Z"/><polygon class="cls-1" points="56.53 65.9 56.53 106.88 56.53 168.22 42.42 160.08 28.31 151.93 28.31 90.59 28.31 49.61 42.42 57.76 56.53 65.9"/><path class="cls-2" d="M56.53,169.22a1,1,0,0,1-.5-.13L27.81,152.8a1,1,0,0,1-.5-.87V49.61a1,1,0,0,1,.5-.87,1,1,0,0,1,1,0L57,65a1,1,0,0,1,.5.87V168.22a1,1,0,0,1-1,1ZM29.31,151.35l26.22,15.14v-100L29.31,51.34Z"/><path class="cls-2" d="M56.53,169.22a1,1,0,0,1-.5-.13L27.81,152.8a1,1,0,0,1-.5-.87V49.61a1,1,0,0,1,.5-.87,1,1,0,0,1,1,0L57,65a1,1,0,0,1,.5.87V168.22a1,1,0,0,1-1,1ZM29.31,151.35l26.22,15.14v-100L29.31,51.34Z"/><path class="cls-2" d="M42.42,161.08a1,1,0,0,1-1-1V57.76a1,1,0,0,1,2,0V160.08A1,1,0,0,1,42.42,161.08Z"/><path class="cls-2" d="M70.64,161.08a1,1,0,0,1-1-1V57.76a1,1,0,0,1,2,0V160.08A1,1,0,0,1,70.64,161.08Z"/><path class="cls-2" d="M84.74,152.93a1,1,0,0,1-1-1V49.61a1,1,0,0,1,2,0V151.93A1,1,0,0,1,84.74,152.93Z"/><path class="cls-2" d="M98.85,144.79a1,1,0,0,1-1-1V41.47a1,1,0,0,1,2,0V143.79A1,1,0,0,1,98.85,144.79Z"/><polygon class="cls-1" points="1 33.32 1 136.16 28.31 151.93 28.31 49.09 1 33.32"/><path class="cls-2" d="M28.31,152.93a1,1,0,0,1-.5-.13L.5,137a1,1,0,0,1-.5-.87V33.32a1,1,0,0,1,.5-.87,1,1,0,0,1,1,0L28.81,48.22a1,1,0,0,1,.5.87V151.93a1,1,0,0,1-.5.87A1,1,0,0,1,28.31,152.93ZM2,135.58,27.31,150.2V49.67L2,35.05Z"/><path class="cls-2" d="M14.66,145.05a1,1,0,0,1-1-1V41.2a1,1,0,0,1,2,0V144.05A1,1,0,0,1,14.66,145.05Z"/><polygon class="cls-3" points="56.98 18.51 42.98 10.43 42.98 10.43 28.99 2.35 14.99 10.43 14.99 10.43 1 18.51 14.99 26.59 14.99 26.59 28.99 34.67 42.98 26.59 42.98 26.59 56.98 18.51"/><path class="cls-2" d="M29,35.67a1,1,0,0,1-.5-.13L.5,19.38a1,1,0,0,1-.5-.87,1,1,0,0,1,.5-.86l28-16.16a1,1,0,0,1,1,0l28,16.16a1,1,0,0,1,0,1.73l-28,16.16A1,1,0,0,1,29,35.67ZM3,18.51l26,15,26-15-26-15Z"/><polygon class="cls-4" points="56.98 33.32 28.99 49.48 28.99 34.67 56.98 18.51 56.98 33.32"/><path class="cls-2" d="M29,50.48a1,1,0,0,1-.5-.13,1,1,0,0,1-.5-.87V34.67a1,1,0,0,1,.5-.86l28-16.16a1,1,0,0,1,1.5.86V33.32a1,1,0,0,1-.5.87l-28,16.16A1,1,0,0,1,29,50.48Zm1-15.23v12.5l26-15V20.24Z"/><polygon class="cls-1" points="1 33.32 28.99 49.48 28.99 34.67 1 18.51 1 33.32"/><path class="cls-2" d="M29,50.48a1,1,0,0,1-.5-.13L.5,34.19a1,1,0,0,1-.5-.87V18.51a1,1,0,0,1,1.5-.86l28,16.16a1,1,0,0,1,.5.86V49.48a1,1,0,0,1-1,1ZM2,32.74l26,15V35.25l-26-15Z"/><ellipse class="cls-1" cx="28.99" cy="18.51" rx="7.87" ry="4.54"/><path class="cls-2" d="M29,24.05c-5,0-8.87-2.43-8.87-5.54S24,13,29,13s8.87,2.44,8.87,5.54S34,24.05,29,24.05ZM29,15c-4,0-6.87,1.87-6.87,3.54s2.82,3.54,6.87,3.54,6.87-1.86,6.87-3.54S33,15,29,15Z"/><path class="cls-2" d="M85,50.48a1,1,0,0,1-.5-.13l-28-16.16a1,1,0,0,1,1-1.74l28,16.16a1,1,0,0,1-.5,1.87Z"/><path class="cls-2" d="M57,34.32a1,1,0,0,1-.5-1.87l28-16.16a1,1,0,0,1,1,1.74l-28,16.16A1,1,0,0,1,57,34.32Z"/></g></g></svg>