<svg xmlns="http://www.w3.org/2000/svg" width="111.74" height="211.7" viewBox="0 0 111.74 211.7"><defs><style>.cls-1{fill:#d5dae0;}.cls-2{fill:#627386;}.cls-3{fill:#fff;}.cls-4{fill:#f2f4f6;}</style></defs><title>building_d4</title><g id="Layer_2" data-name="Layer 2"><g id="Layer_1-2" data-name="Layer 1"><polygon class="cls-1" points="55.87 81.25 55.87 210.7 110.74 179.02 110.74 49.57 55.87 81.25"/><path class="cls-2" d="M55.87,211.7a1,1,0,0,1-.5-.13,1,1,0,0,1-.5-.87V81.25a1,1,0,0,1,.5-.87L110.24,48.7a1,1,0,0,1,1,0,1,1,0,0,1,.5.87V179a1,1,0,0,1-.5.87L56.37,211.57A1,1,0,0,1,55.87,211.7Zm1-129.88V209l52.87-30.52V51.3Z"/><polygon class="cls-3" points="1 32.68 14.72 44.82 28.43 56.96 42.15 69.1 55.87 81.25 69.59 73.33 83.31 65.41 97.02 57.49 110.74 49.57 97.02 37.42 83.31 25.28 69.59 13.14 55.87 1 42.15 8.92 28.43 16.84 14.72 24.76 1 32.68"/><path class="cls-2" d="M55.87,82.25a1,1,0,0,1-.66-.26L.34,33.43A1,1,0,0,1,.5,31.81L55.37.13a1,1,0,0,1,1.16.12L111.4,48.82a1,1,0,0,1-.16,1.61L56.37,82.11A1,1,0,0,1,55.87,82.25ZM2.7,32.85,56,80,109,49.39,55.75,2.23Z"/><polygon class="cls-4" points="55.87 81.25 55.87 210.7 1 179.02 1 32.68 55.87 81.25"/><path class="cls-2" d="M55.87,211.7a1,1,0,0,1-.5-.13L.5,179.89A1,1,0,0,1,0,179V32.68a1,1,0,0,1,1.66-.75L56.53,80.5a1,1,0,0,1,.34.75V210.7a1,1,0,0,1-.5.87A1,1,0,0,1,55.87,211.7ZM2,178.45,54.87,209V81.7L2,34.9Z"/><path class="cls-2" d="M55.87,211.7a1,1,0,0,1-.5-.13,1,1,0,0,1-.5-.87V81.25a1,1,0,0,1,.5-.87L110.24,48.7a1,1,0,0,1,1,0,1,1,0,0,1,.5.87V179a1,1,0,0,1-.5.87L56.37,211.57A1,1,0,0,1,55.87,211.7Zm1-129.88V209l52.87-30.52V51.3Z"/><polygon class="cls-3" points="41.87 89.03 41.87 122.74 15 107.23 15 74.14 41.87 89.03 41.87 89.03"/><path class="cls-2" d="M41.87,123.74a1,1,0,0,1-.5-.13L14.5,108.09a1,1,0,0,1-.5-.86V74.14a1,1,0,0,1,.49-.86,1,1,0,0,1,1,0L42.36,88.15a1,1,0,0,1,.51.88v33.71a1,1,0,0,1-.5.87A1,1,0,0,1,41.87,123.74ZM16,106.65,40.87,121V89.62L16,75.84Z"/><path class="cls-1" d="M41.87,89v2.68L15,107.23V74.14Z"/><path class="cls-2" d="M15,108.23a1,1,0,0,1-.5-.14,1,1,0,0,1-.5-.86V74.14a1,1,0,0,1,.49-.86,1,1,0,0,1,1,0L42.36,88.15a1,1,0,0,1,.51.88v2.68a1,1,0,0,1-.5.87L15.5,108.09A1,1,0,0,1,15,108.23Zm1-32.39v29.65L40.87,91.13V89.62Z"/><path class="cls-4" d="M28.32,99.54v-18L41.87,89v18.33Z"/><path class="cls-2" d="M41.87,108.36a1,1,0,0,1-.5-.13L27.82,100.4a1,1,0,0,1-.5-.86v-18a1,1,0,0,1,1.48-.88l13.56,7.51a1,1,0,0,1,.51.88v18.33a1,1,0,0,1-.5.87A1,1,0,0,1,41.87,108.36ZM29.32,99l11.55,6.67v-16l-11.55-6.4Z"/><path class="cls-2" d="M69.59,74.33a1,1,0,0,1-.66-.26L14.06,25.51A1,1,0,0,1,15.38,24L70.25,72.58A1,1,0,0,1,70.34,74,1,1,0,0,1,69.59,74.33Z"/><path class="cls-2" d="M83.31,66.41a1,1,0,0,1-.67-.26L27.77,17.59a1,1,0,0,1,1.33-1.5L84,64.66a1,1,0,0,1,.09,1.41A1,1,0,0,1,83.31,66.41Z"/><path class="cls-2" d="M97,58.49a1,1,0,0,1-.66-.25L41.49,9.67a1,1,0,1,1,1.33-1.5L97.69,56.74a1,1,0,0,1,.08,1.41A1,1,0,0,1,97,58.49Z"/><path class="cls-2" d="M55.87,182.09a1,1,0,0,1-.5-1.87l54.87-31.68a1,1,0,0,1,1,1.74L56.37,182A1,1,0,0,1,55.87,182.09Z"/><line class="cls-1" x1="1" y1="149.41" x2="55.87" y2="181.09"/><path class="cls-2" d="M55.87,182.09a1,1,0,0,1-.5-.13L.5,150.28a1,1,0,1,1,1-1.74l54.87,31.68a1,1,0,0,1-.5,1.87Z"/><path class="cls-2" d="M55.87,152.47a1,1,0,0,1-.5-1.86l54.87-31.68a1,1,0,1,1,1,1.73L56.37,152.34A1,1,0,0,1,55.87,152.47Z"/><line class="cls-1" x1="1" y1="119.8" x2="55.87" y2="151.47"/><path class="cls-2" d="M55.87,152.47a1,1,0,0,1-.5-.13L.5,120.66a1,1,0,1,1,1-1.73l54.87,31.68a1,1,0,0,1,.37,1.36A1,1,0,0,1,55.87,152.47Z"/></g></g></svg>