<svg xmlns="http://www.w3.org/2000/svg" width="111.74" height="160.39" viewBox="0 0 111.74 160.39"><defs><style>.cls-1{fill:#f2f4f6;}.cls-2{fill:#627386;}.cls-3{fill:#fff;}.cls-4{fill:#d5dae0;}</style></defs><title>building_b2</title><g id="Layer_2" data-name="Layer 2"><g id="Front"><polygon class="cls-1" points="37.58 43.24 37.58 110.77 37.58 117.15 19.29 106.59 1 96.03 1 89.65 1 22.12 19.29 32.68 37.58 43.24"/><path class="cls-2" d="M37.58,118.15a1,1,0,0,1-.5-.13L.5,96.9A1,1,0,0,1,0,96V22.12a1,1,0,0,1,.5-.87,1,1,0,0,1,1,0L38.08,42.37a1,1,0,0,1,.5.87v73.91a1,1,0,0,1-.5.87A1,1,0,0,1,37.58,118.15ZM2,95.45l34.58,20V43.82L2,23.85Z"/><path class="cls-2" d="M19.29,107.59a1,1,0,0,1-1-1V32.68a1,1,0,0,1,2,0v73.91A1,1,0,0,1,19.29,107.59Z"/><polygon class="cls-3" points="37.58 1 1 22.12 37.58 43.24 1 64.36 37.58 85.48 110.74 43.24 37.58 1"/><path class="cls-2" d="M37.58,86.48a1,1,0,0,1-.5-.14L.5,65.22a1,1,0,0,1-.5-.86,1,1,0,0,1,.5-.87L35.58,43.24.5,23a1,1,0,0,1,0-1.74L37.08.13a1,1,0,0,1,1,0l73.16,42.24a1,1,0,0,1,0,1.74L38.08,86.34A1,1,0,0,1,37.58,86.48ZM3,64.36l34.58,20,71.16-41.08L37.58,2.16,3,22.12,38.08,42.37a1,1,0,0,1,0,1.74Z"/><polygon class="cls-4" points="37.58 85.48 37.58 119.24 37.58 91.86 37.58 125.63 37.58 159.39 55.87 148.83 74.16 138.27 92.45 127.71 110.74 117.15 110.74 83.39 110.74 110.77 110.74 77 110.74 43.24 92.45 53.8 74.16 64.36 55.87 74.92 37.58 85.48"/><path class="cls-2" d="M37.58,160.39a1,1,0,0,1-.5-.13,1,1,0,0,1-.5-.87V85.48a1,1,0,0,1,.5-.87l73.16-42.24a1,1,0,0,1,1,0,1,1,0,0,1,.5.87v73.91a1,1,0,0,1-.5.87L38.08,160.26A1,1,0,0,1,37.58,160.39Zm1-41.15v38.42l71.16-41.09V45L38.58,86.06Z"/><polygon class="cls-1" points="37.58 85.48 37.58 91.86 37.58 159.39 19.29 148.83 1 138.27 1 70.74 1 64.36 19.29 74.92 37.58 85.48"/><path class="cls-2" d="M37.58,160.39a1,1,0,0,1-.5-.13L.5,139.14a1,1,0,0,1-.5-.87V64.36a1,1,0,0,1,.5-.87,1,1,0,0,1,1,0L38.08,84.61a1,1,0,0,1,.5.87v73.91a1,1,0,0,1-.5.87A1,1,0,0,1,37.58,160.39ZM2,137.69l34.58,20V86.06L2,66.09Z"/><path class="cls-2" d="M37.58,160.39a1,1,0,0,1-.5-.13L.5,139.14a1,1,0,0,1-.5-.87V64.36a1,1,0,0,1,.5-.87,1,1,0,0,1,1,0L38.08,84.61a1,1,0,0,1,.5.87v73.91a1,1,0,0,1-.5.87A1,1,0,0,1,37.58,160.39ZM2,137.69l34.58,20V86.06L2,66.09Z"/><path class="cls-2" d="M19.29,149.83a1,1,0,0,1-1-1V74.92a1,1,0,0,1,2,0v73.91A1,1,0,0,1,19.29,149.83Z"/><path class="cls-2" d="M55.87,149.83a1,1,0,0,1-1-1V74.92a1,1,0,0,1,2,0v73.91A1,1,0,0,1,55.87,149.83Z"/><path class="cls-2" d="M74.16,139.27a1,1,0,0,1-1-1V64.36a1,1,0,1,1,2,0v73.91A1,1,0,0,1,74.16,139.27Z"/><path class="cls-2" d="M92.45,128.71a1,1,0,0,1-1-1V53.8a1,1,0,0,1,2,0v73.91A1,1,0,0,1,92.45,128.71Z"/><path class="cls-4" d="M37.58,28.29c-5.58,0-10-2.71-10-6.17S32,16,37.58,16s10,2.71,10,6.17S43.16,28.29,37.58,28.29Zm0-10.34c-4.31,0-8,1.91-8,4.17s3.65,4.17,8,4.17,8-1.91,8-4.17S41.89,18,37.58,18Z"/><path class="cls-4" d="M74.16,49.41c-5.58,0-10-2.71-10-6.17s4.38-6.17,10-6.17,10,2.71,10,6.17S79.74,49.41,74.16,49.41Zm0-10.34c-4.31,0-8,1.91-8,4.17s3.65,4.17,8,4.17,8-1.91,8-4.17S78.47,39.07,74.16,39.07Z"/><path class="cls-4" d="M37.58,70.53c-5.58,0-10-2.71-10-6.17s4.38-6.17,10-6.17,10,2.71,10,6.17S43.16,70.53,37.58,70.53Zm0-10.34c-4.31,0-8,1.91-8,4.17s3.65,4.17,8,4.17,8-1.91,8-4.17S41.89,60.19,37.58,60.19Z"/></g></g></svg>