<svg xmlns="http://www.w3.org/2000/svg" width="106.51" height="151.18" viewBox="0 0 106.51 151.18"><defs><style>.cls-1{fill:#f2f4f6;}.cls-2{fill:#627386;}.cls-3{fill:#d5dae0;}.cls-4{fill:#fff;}</style></defs><title>buildin_d2</title><g id="Layer_2" data-name="Layer 2"><g id="Layer_1-2" data-name="Layer 1"><path class="cls-1" d="M1,33.58v88.84l42.17,24.35c7.88,4.55,20.64,4.55,28.52,0L99.6,130.65c3.94-2.27,5.91-5.25,5.91-8.23h0V33.58Z"/><path class="cls-2" d="M57.43,151.18a30.06,30.06,0,0,1-14.76-3.54L.5,123.29a1,1,0,0,1-.5-.87V33.58a1,1,0,0,1,1-1H105.51a1,1,0,0,1,1,1v88.84c0,3.49-2.28,6.72-6.41,9.1L72.19,147.64A30.06,30.06,0,0,1,57.43,151.18ZM2,121.85l41.67,24.06a28,28,0,0,0,13.76,3.27,28,28,0,0,0,13.76-3.27L99.1,129.79c3.49-2,5.41-4.63,5.41-7.37V34.58H2Z"/><path class="cls-3" d="M57.43,150.18a29.09,29.09,0,0,0,14.26-3.41L99.6,130.65c3.94-2.27,5.91-5.25,5.91-8.23V33.58H57.43Z"/><path class="cls-2" d="M57.43,151.18a30.06,30.06,0,0,1-14.76-3.54L.5,123.29a1,1,0,0,1-.5-.87V33.58a1,1,0,0,1,1-1H105.51a1,1,0,0,1,1,1v88.84c0,3.49-2.28,6.72-6.41,9.1L72.19,147.64A30.06,30.06,0,0,1,57.43,151.18ZM2,121.85l41.67,24.06a28,28,0,0,0,13.76,3.27,28,28,0,0,0,13.76-3.27L99.1,129.79c3.49-2,5.41-4.63,5.41-7.37V34.58H2Z"/><path class="cls-2" d="M57.43,151.16a30.19,30.19,0,0,1-14.76-3.52L.5,123.29a1,1,0,0,1-.37-1.37,1,1,0,0,1,1.37-.36l42.17,24.35c7.59,4.38,19.93,4.38,27.52,0L99.1,129.79c3.49-2,5.41-4.63,5.41-7.37a1,1,0,0,1,2,0c0,3.49-2.28,6.72-6.41,9.1L72.19,147.64A30.19,30.19,0,0,1,57.43,151.16Z"/><path class="cls-4" d="M43.17,57.93c7.88,4.55,20.64,4.55,28.52,0L99.6,41.81c7.88-4.54,7.88-11.91,0-16.46L57.43,1,1,33.58Z"/><path class="cls-2" d="M57.43,62.34A30.06,30.06,0,0,1,42.67,58.8L.5,34.45a1,1,0,0,1,0-1.74L56.93.13a1,1,0,0,1,1,0L100.1,24.48c4.13,2.39,6.41,5.62,6.41,9.1s-2.28,6.71-6.41,9.1L72.19,58.8A30.06,30.06,0,0,1,57.43,62.34ZM3,33.58,43.67,57.06a27.92,27.92,0,0,0,13.76,3.28,27.92,27.92,0,0,0,13.76-3.28L99.1,41c3.49-2,5.41-4.63,5.41-7.37s-1.92-5.35-5.41-7.36L57.43,2.16Z"/><path class="cls-3" d="M52.54,52.52c-2.69-1.56-2.69-4.08,0-5.64h0a10.8,10.8,0,0,1,9.78,0C65,48.44,65,51,62.32,52.52h0A10.8,10.8,0,0,1,52.54,52.52Z"/><path class="cls-2" d="M57.43,54.69A11,11,0,0,1,52,53.39a4.39,4.39,0,0,1-2.52-3.69A4.39,4.39,0,0,1,52,46a11.82,11.82,0,0,1,10.78,0,4.39,4.39,0,0,1,2.52,3.69,4.39,4.39,0,0,1-2.52,3.69A11,11,0,0,1,57.43,54.69Zm0-8a9.16,9.16,0,0,0-4.39,1,2.57,2.57,0,0,0-1.52,2A2.56,2.56,0,0,0,53,51.65a9.79,9.79,0,0,0,8.78,0,2.56,2.56,0,0,0,1.52-1.95,2.57,2.57,0,0,0-1.52-2A9.16,9.16,0,0,0,57.43,46.71Z"/><path class="cls-3" d="M80.46,36.4c-2.7-1.56-2.7-4.08,0-5.64h0a10.78,10.78,0,0,1,9.77,0c2.7,1.56,2.7,4.08,0,5.64h0A10.78,10.78,0,0,1,80.46,36.4Z"/><path class="cls-2" d="M85.35,38.57A11,11,0,0,1,80,37.27a4.37,4.37,0,0,1-2.52-3.69A4.37,4.37,0,0,1,80,29.89a11.8,11.8,0,0,1,10.77,0,4.38,4.38,0,0,1,2.53,3.69,4.38,4.38,0,0,1-2.53,3.69A10.9,10.9,0,0,1,85.35,38.57Zm0-8a9,9,0,0,0-4.39,1,2.52,2.52,0,0,0-1.52,1.95,2.52,2.52,0,0,0,1.52,2,9.76,9.76,0,0,0,8.77,0,2.54,2.54,0,0,0,1.53-2,2.54,2.54,0,0,0-1.53-1.95A9,9,0,0,0,85.35,30.59Z"/><path class="cls-2" d="M57.43,121.55A30.2,30.2,0,0,1,42.67,118L.5,93.68a1,1,0,0,1,1-1.74l42.17,24.35c7.59,4.38,19.93,4.38,27.52,0L99.1,100.17c3.49-2,5.41-4.62,5.41-7.36a1,1,0,0,1,2,0c0,3.48-2.28,6.71-6.41,9.1L72.19,118A30.2,30.2,0,0,1,57.43,121.55Z"/><path class="cls-2" d="M1,108.61a1,1,0,0,1-.71-.29.94.94,0,0,1-.29-.71,1,1,0,0,1,.29-.7,1,1,0,0,1,1.41,0,1,1,0,0,1,.3.7,1,1,0,0,1-.3.71A1,1,0,0,1,1,108.61Z"/><path class="cls-2" d="M54.41,136.24a1,1,0,0,1-.91-1.07h0a1,1,0,0,1,1.08-.91h0a1,1,0,0,1,.91,1.08h0a1,1,0,0,1-1,.92h0A.13.13,0,0,1,54.41,136.24Zm18.52-5a1,1,0,0,1,.37-1.36h0a1,1,0,0,1,1.36.36h0a1,1,0,0,1-.36,1.37h0a1,1,0,0,1-.5.13h0A1,1,0,0,1,72.93,131.24Zm-37.46-2.56a1,1,0,0,1-.36-1.38h0a1,1,0,0,1,1.36-.35h0a1,1,0,0,1,.37,1.37h0a1,1,0,0,1-.87.5h0A1.14,1.14,0,0,1,35.47,128.68Zm55-7.53a1,1,0,0,1,.37-1.37h0a1,1,0,0,1,1.36.37h0a1,1,0,0,1-.36,1.36h0a.93.93,0,0,1-.5.14h0A1,1,0,0,1,90.42,121.15ZM18,118.59a1,1,0,0,1-.36-1.37h0a1,1,0,0,1,1.36-.38h0a1,1,0,0,1,.37,1.38h0a1,1,0,0,1-.87.5h0A1,1,0,0,1,18,118.59Z"/><path class="cls-2" d="M105.5,108.61a1,1,0,0,1-.7-.29,1,1,0,0,1-.3-.71,1,1,0,0,1,.3-.7,1,1,0,0,1,1.41,0,1,1,0,0,1,.3.7,1,1,0,0,1-.3.71A1,1,0,0,1,105.5,108.61Z"/><path class="cls-2" d="M1,79a1,1,0,0,1-.71-.31A.94.94,0,0,1,0,78a1,1,0,0,1,.29-.71,1,1,0,0,1,1.41,0A1,1,0,0,1,2,78a1,1,0,0,1-.3.69A1,1,0,0,1,1,79Z"/><path class="cls-2" d="M54.41,106.64a1,1,0,0,1-.91-1.09h0a1,1,0,0,1,1.08-.9h0a1,1,0,0,1,.91,1.07h0a1,1,0,0,1-1,.92h-.09Zm18.52-5a1,1,0,0,1,.37-1.37h0a1,1,0,0,1,1.36.37h0A1,1,0,0,1,74.3,102h0a.93.93,0,0,1-.5.14h0A1,1,0,0,1,72.93,101.63ZM35.47,99.07a1,1,0,0,1-.36-1.37h0a1,1,0,0,1,1.36-.38h0a1,1,0,0,1,.37,1.38h0a1,1,0,0,1-.87.5h0A1,1,0,0,1,35.47,99.07Zm55-7.54a1,1,0,0,1,.37-1.36h0a1,1,0,0,1,1.36.36h0a1,1,0,0,1-.36,1.37h0a1,1,0,0,1-.5.13h0A1,1,0,0,1,90.42,91.53ZM18,89a1,1,0,0,1-.37-1.38h0A1,1,0,0,1,19,87.24h0a1,1,0,0,1,.36,1.35h0a1,1,0,0,1-.87.5h0A1,1,0,0,1,18,89Z"/><path class="cls-2" d="M105.51,79a1,1,0,0,1-.71-.31.94.94,0,0,1-.29-.69,1,1,0,0,1,.29-.71,1,1,0,0,1,1.41,0,1,1,0,0,1,.3.71,1,1,0,0,1-1,1Z"/><path class="cls-2" d="M1,49.39a1,1,0,0,1-.71-.3,1,1,0,0,1-.29-.7,1,1,0,0,1,.29-.71,1,1,0,0,1,1.41,0,1,1,0,0,1,.3.71,1,1,0,0,1-.3.7A1,1,0,0,1,1,49.39Z"/><path class="cls-2" d="M54.41,77a1,1,0,0,1-.91-1.08h0a1,1,0,0,1,1.08-.9h0a1,1,0,0,1,.91,1.08h0a1,1,0,0,1-1,.92h0A.13.13,0,0,1,54.41,77Zm18.52-5a1,1,0,0,1,.37-1.36h0a1,1,0,0,1,1.36.36h0a1,1,0,0,1-.36,1.38h0a1.11,1.11,0,0,1-.5.12h0A1,1,0,0,1,72.93,72ZM35.47,69.45a1,1,0,0,1-.36-1.36h0a1,1,0,0,1,1.36-.37h0a1,1,0,0,1,.37,1.37h0a1,1,0,0,1-.87.5h0A1.14,1.14,0,0,1,35.47,69.45Zm55-7.53a1,1,0,0,1,.37-1.37h0a1,1,0,0,1,1.36.37h0a1,1,0,0,1-.36,1.36h0a.93.93,0,0,1-.5.14h0A1,1,0,0,1,90.42,61.92ZM18,59.34A1,1,0,0,1,17.62,58h0A1,1,0,0,1,19,57.61h0A1,1,0,0,1,19.35,59h0a1,1,0,0,1-.87.5h0A.86.86,0,0,1,18,59.34Z"/><path class="cls-2" d="M105.51,49.39a1,1,0,0,1-.71-.3.93.93,0,0,1-.29-.7,1,1,0,0,1,.29-.71,1,1,0,0,1,1.41,0,1,1,0,0,1,.3.71,1,1,0,0,1-.3.7A1,1,0,0,1,105.51,49.39Z"/><path class="cls-2" d="M57.43,91.93a30.19,30.19,0,0,1-14.76-3.52L.5,64.06a1,1,0,1,1,1-1.73L43.67,86.68c7.59,4.38,19.93,4.38,27.52,0L99.1,70.56c3.49-2,5.41-4.63,5.41-7.36a1,1,0,0,1,2,0c0,3.48-2.28,6.71-6.41,9.09L72.19,88.41A30.19,30.19,0,0,1,57.43,91.93Z"/></g></g></svg>