<svg xmlns="http://www.w3.org/2000/svg" width="209.26" height="174.24" viewBox="0 0 209.26 174.24"><defs><style>.cls-1,.cls-4{fill:#f2f4f6;}.cls-1,.cls-3,.cls-6{stroke:#627386;}.cls-1,.cls-2,.cls-3,.cls-5,.cls-6{stroke-linecap:round;stroke-linejoin:round;stroke-width:2px;}.cls-2,.cls-5,.cls-6{fill:none;}.cls-2{stroke:#d5dae0;}.cls-3{fill:#d5dae0;}.cls-5{stroke:#b8bfca;}.cls-7{fill:#fff;}</style></defs><title>carpet_01</title><g id="Layer_2" data-name="Layer 2"><g id="Layer_1-2" data-name="Layer 1"><polygon class="cls-1" points="22.21 60.41 43.42 48.16 85.84 72.66 208.26 143.34 187.05 155.58 165.84 167.83 43.42 97.15 1 72.66 22.21 60.41"/><polygon class="cls-2" points="12.46 72.66 43.42 54.78 80.11 75.96 80.11 75.96 196.8 143.34 165.84 161.21 49.15 93.84 49.15 93.84 12.46 72.66"/><path class="cls-3" d="M18,56.56v48.13c0,1.38-1.93,2.5-4.32,2.5s-4.33-1.12-4.33-2.5V56.56Z"/><circle class="cls-4" cx="13.65" cy="50.8" r="7.79"/><path class="cls-5" d="M9.75,44.06a7.72,7.72,0,0,0-1.61,1.23A8.19,8.19,0,0,0,6.9,46.91a7.67,7.67,0,0,0-.77,1.87,7.52,7.52,0,0,0-.27,2,7.39,7.39,0,0,0,.27,2,7.59,7.59,0,0,0,.77,1.88A8.12,8.12,0,0,0,8.14,56.3a7.77,7.77,0,0,0,1.61,1.24,7.7,7.7,0,0,0,3.9,1,7.86,7.86,0,0,0,2-.26,7.61,7.61,0,0,0,1.88-.78,7.89,7.89,0,0,0,2.85-2.85,7.61,7.61,0,0,0,.78-1.88,7.8,7.8,0,0,0,.26-2,7.93,7.93,0,0,0-.26-2,7.7,7.7,0,0,0-.78-1.87,7.83,7.83,0,0,0-1.24-1.62,7.72,7.72,0,0,0-1.61-1.23"/><path class="cls-6" d="M18,57.29v47.4c0,1.38-1.93,2.5-4.32,2.5s-4.33-1.12-4.33-2.5V57.29"/><path class="cls-6" d="M17.54,57.54a7.89,7.89,0,0,0,2.85-2.85,7.61,7.61,0,0,0,.78-1.88,7.8,7.8,0,0,0,.26-2,7.93,7.93,0,0,0-.26-2,7.7,7.7,0,0,0-.78-1.87,7.83,7.83,0,0,0-1.24-1.62,7.72,7.72,0,0,0-1.61-1.23,7.61,7.61,0,0,0-1.88-.78,7.65,7.65,0,0,0-4,0,7.94,7.94,0,0,0-1.88.78,7.72,7.72,0,0,0-1.61,1.23A8.19,8.19,0,0,0,6.9,46.91a7.67,7.67,0,0,0-.77,1.87,7.52,7.52,0,0,0-.27,2,7.39,7.39,0,0,0,.27,2,7.59,7.59,0,0,0,.77,1.88A8.12,8.12,0,0,0,8.14,56.3a7.77,7.77,0,0,0,1.61,1.24"/><circle class="cls-7" cx="16.85" cy="48.61" r="1.73"/><path class="cls-6" d="M75.17,94.77c14.59,22.39,38.23,36,52.81,30.48"/><path class="cls-3" d="M132.38,122.61v48.14c0,1.37-1.94,2.49-4.33,2.49s-4.32-1.12-4.32-2.49V122.61Z"/><circle class="cls-4" cx="128.05" cy="116.85" r="7.79"/><path class="cls-5" d="M124.16,110.11a7.77,7.77,0,0,0-1.61,1.24,7.51,7.51,0,0,0-1.24,1.61,7.7,7.7,0,0,0-.78,1.87,8,8,0,0,0,0,4,7.7,7.7,0,0,0,.78,1.87,7.83,7.83,0,0,0,1.24,1.62,8.08,8.08,0,0,0,1.61,1.23,7.61,7.61,0,0,0,1.88.78,7.8,7.8,0,0,0,2,.27,7.94,7.94,0,0,0,2-.27,7.7,7.7,0,0,0,1.87-.78,8.14,8.14,0,0,0,1.62-1.23,7.78,7.78,0,0,0,1.23-1.62,7.7,7.7,0,0,0,.78-1.87,7.69,7.69,0,0,0,0-4,7.7,7.7,0,0,0-.78-1.87,7.47,7.47,0,0,0-1.23-1.61,7.83,7.83,0,0,0-1.62-1.24"/><path class="cls-6" d="M132.38,123.34v47.41c0,1.37-1.94,2.49-4.33,2.49s-4.32-1.12-4.32-2.49V123.34"/><path class="cls-6" d="M131.94,123.59a8.14,8.14,0,0,0,1.62-1.23,7.78,7.78,0,0,0,1.23-1.62,7.7,7.7,0,0,0,.78-1.87,7.69,7.69,0,0,0,0-4,7.7,7.7,0,0,0-.78-1.87,7.47,7.47,0,0,0-1.23-1.61,7.83,7.83,0,0,0-1.62-1.24,7.7,7.7,0,0,0-1.87-.78,7.93,7.93,0,0,0-2-.26,7.8,7.8,0,0,0-2,.26,7.61,7.61,0,0,0-1.88.78,7.77,7.77,0,0,0-1.61,1.24,7.51,7.51,0,0,0-1.24,1.61,7.7,7.7,0,0,0-.78,1.87,8,8,0,0,0,0,4,7.7,7.7,0,0,0,.78,1.87,7.83,7.83,0,0,0,1.24,1.62,8.08,8.08,0,0,0,1.61,1.23"/><circle class="cls-7" cx="131.26" cy="114.66" r="1.73"/><path class="cls-6" d="M18,61.74c14.58,22.39,38.22,36,52.81,30.49"/><path class="cls-3" d="M75.17,89.59v48.13c0,1.38-1.93,2.5-4.32,2.5s-4.33-1.12-4.33-2.5V89.59Z"/><circle class="cls-4" cx="70.85" cy="83.82" r="7.79"/><path class="cls-5" d="M67,77.08a7.83,7.83,0,0,0-1.62,1.24,7.72,7.72,0,0,0-1.23,1.61,7.25,7.25,0,0,0-.78,1.88,7.65,7.65,0,0,0,0,4,7.25,7.25,0,0,0,.78,1.88,7.72,7.72,0,0,0,1.23,1.61A7.83,7.83,0,0,0,67,90.57a7.7,7.7,0,0,0,1.87.78,7.93,7.93,0,0,0,2,.26,7.8,7.8,0,0,0,2-.26,7.61,7.61,0,0,0,1.88-.78,7.89,7.89,0,0,0,2.85-2.85,7.61,7.61,0,0,0,.78-1.88,7.94,7.94,0,0,0,0-4,7.61,7.61,0,0,0-.78-1.88,7.89,7.89,0,0,0-2.85-2.85"/><path class="cls-6" d="M75.17,90.32v47.4c0,1.38-1.93,2.5-4.32,2.5s-4.33-1.12-4.33-2.5V90.32"/><path class="cls-6" d="M74.74,90.57a7.89,7.89,0,0,0,2.85-2.85,7.61,7.61,0,0,0,.78-1.88,7.94,7.94,0,0,0,0-4,7.61,7.61,0,0,0-.78-1.88,7.89,7.89,0,0,0-2.85-2.85,7.61,7.61,0,0,0-1.88-.78,7.8,7.8,0,0,0-2-.26,7.93,7.93,0,0,0-2,.26,7.7,7.7,0,0,0-1.87.78,7.83,7.83,0,0,0-1.62,1.24,7.72,7.72,0,0,0-1.23,1.61,7.25,7.25,0,0,0-.78,1.88,7.65,7.65,0,0,0,0,4,7.25,7.25,0,0,0,.78,1.88,7.72,7.72,0,0,0,1.23,1.61A7.83,7.83,0,0,0,67,90.57"/><circle class="cls-7" cx="74.05" cy="81.64" r="1.73"/><path class="cls-3" d="M89,14.55V62.68c0,1.38-1.94,2.5-4.33,2.5s-4.32-1.12-4.32-2.5V14.55Z"/><circle class="cls-4" cx="84.63" cy="8.79" r="7.79"/><path class="cls-5" d="M80.74,2a7.89,7.89,0,0,0-2.85,2.85,7.61,7.61,0,0,0-.78,1.88,7.94,7.94,0,0,0,0,4,7.61,7.61,0,0,0,.78,1.88,7.89,7.89,0,0,0,2.85,2.85,7.61,7.61,0,0,0,1.88.78,7.94,7.94,0,0,0,4,0,7.94,7.94,0,0,0,1.88-.78,7.89,7.89,0,0,0,2.85-2.85,8,8,0,0,0,.78-1.88,7.94,7.94,0,0,0,0-4,8,8,0,0,0-.78-1.88A7.89,7.89,0,0,0,88.53,2"/><path class="cls-6" d="M89,15.28v47.4c0,1.38-1.94,2.5-4.33,2.5s-4.32-1.12-4.32-2.5V15.28"/><path class="cls-6" d="M88.53,15.53a7.89,7.89,0,0,0,2.85-2.85,8,8,0,0,0,.78-1.88,7.94,7.94,0,0,0,0-4,8,8,0,0,0-.78-1.88A7.89,7.89,0,0,0,88.53,2a7.7,7.7,0,0,0-3.9-1,7.86,7.86,0,0,0-2,.26A7.61,7.61,0,0,0,80.74,2a7.89,7.89,0,0,0-2.85,2.85,7.61,7.61,0,0,0-.78,1.88,7.94,7.94,0,0,0,0,4,7.61,7.61,0,0,0,.78,1.88,7.89,7.89,0,0,0,2.85,2.85"/><circle class="cls-7" cx="87.84" cy="6.6" r="1.73"/><path class="cls-6" d="M146.16,52.75c14.58,22.39,38.22,36,52.81,30.49"/><path class="cls-3" d="M203.36,80.6v48.13c0,1.38-1.93,2.5-4.32,2.5s-4.33-1.12-4.33-2.5V80.6Z"/><circle class="cls-4" cx="199.04" cy="74.84" r="7.79"/><path class="cls-5" d="M195.15,68.09a7.57,7.57,0,0,0-1.62,1.24,8.12,8.12,0,0,0-1.24,1.61,7.91,7.91,0,0,0-.77,1.88,7.65,7.65,0,0,0,0,4,7.59,7.59,0,0,0,.77,1.88,8.12,8.12,0,0,0,1.24,1.61,7.57,7.57,0,0,0,1.62,1.24,7.7,7.7,0,0,0,1.87.78,7.93,7.93,0,0,0,2,.26,7.8,7.8,0,0,0,2-.26,7.61,7.61,0,0,0,1.88-.78,7.89,7.89,0,0,0,2.85-2.85,7.61,7.61,0,0,0,.78-1.88,7.94,7.94,0,0,0,0-4,7.94,7.94,0,0,0-.78-1.88,7.89,7.89,0,0,0-2.85-2.85"/><path class="cls-6" d="M203.36,81.33v47.4c0,1.38-1.93,2.5-4.32,2.5s-4.33-1.12-4.33-2.5V81.33"/><path class="cls-6" d="M202.93,81.58a7.89,7.89,0,0,0,2.85-2.85,7.61,7.61,0,0,0,.78-1.88,7.94,7.94,0,0,0,0-4,7.94,7.94,0,0,0-.78-1.88,7.89,7.89,0,0,0-2.85-2.85,8,8,0,0,0-1.88-.78,7.8,7.8,0,0,0-2-.26,7.93,7.93,0,0,0-2,.26,8.12,8.12,0,0,0-1.87.78,7.57,7.57,0,0,0-1.62,1.24,8.12,8.12,0,0,0-1.24,1.61,7.91,7.91,0,0,0-.77,1.88,7.65,7.65,0,0,0,0,4,7.59,7.59,0,0,0,.77,1.88,8.12,8.12,0,0,0,1.24,1.61,7.57,7.57,0,0,0,1.62,1.24"/><circle class="cls-7" cx="202.24" cy="72.65" r="1.73"/><path class="cls-6" d="M89,19.73c14.58,22.39,38.22,36,52.8,30.49"/><path class="cls-3" d="M146.16,47.57V95.71c0,1.38-1.94,2.49-4.32,2.49s-4.33-1.11-4.33-2.49V47.57Z"/><circle class="cls-4" cx="141.84" cy="41.81" r="7.79"/><path class="cls-5" d="M137.94,35.07a7.89,7.89,0,0,0-2.85,2.85,8,8,0,0,0-.78,1.88,7.8,7.8,0,0,0-.26,2,7.93,7.93,0,0,0,.26,2,8.12,8.12,0,0,0,.78,1.87,7.83,7.83,0,0,0,1.24,1.62,7.72,7.72,0,0,0,1.61,1.23,7.84,7.84,0,0,0,3.9,1.05,7.86,7.86,0,0,0,2-.27,7.61,7.61,0,0,0,1.88-.78,7.72,7.72,0,0,0,1.61-1.23,7.83,7.83,0,0,0,1.24-1.62,7.7,7.7,0,0,0,.78-1.87,7.93,7.93,0,0,0,.26-2,7.8,7.8,0,0,0-.26-2,7.61,7.61,0,0,0-.78-1.88,7.89,7.89,0,0,0-2.85-2.85"/><path class="cls-6" d="M146.16,48.3V95.71c0,1.38-1.94,2.49-4.32,2.49s-4.33-1.11-4.33-2.49V48.3"/><path class="cls-6" d="M145.73,48.55a7.72,7.72,0,0,0,1.61-1.23,7.83,7.83,0,0,0,1.24-1.62,7.7,7.7,0,0,0,.78-1.87,7.93,7.93,0,0,0,.26-2,7.8,7.8,0,0,0-.26-2,7.61,7.61,0,0,0-.78-1.88,7.89,7.89,0,0,0-2.85-2.85,7.61,7.61,0,0,0-1.88-.78,7.94,7.94,0,0,0-4,0,7.94,7.94,0,0,0-1.88.78,7.89,7.89,0,0,0-2.85,2.85,8,8,0,0,0-.78,1.88,7.8,7.8,0,0,0-.26,2,7.93,7.93,0,0,0,.26,2,8.12,8.12,0,0,0,.78,1.87,7.83,7.83,0,0,0,1.24,1.62,7.72,7.72,0,0,0,1.61,1.23"/><circle class="cls-7" cx="145.04" cy="39.62" r="1.73"/></g></g></svg>