<svg xmlns="http://www.w3.org/2000/svg" width="96.44" height="64.82" viewBox="0 0 96.44 64.82"><defs><style>.cls-1{fill:#d5dae0;}.cls-1,.cls-2,.cls-3,.cls-5{stroke:#627386;stroke-linecap:round;stroke-linejoin:round;}.cls-1,.cls-2,.cls-3,.cls-4,.cls-5{stroke-width:2px;}.cls-2{fill:#fff;}.cls-3{fill:#f2f4f6;}.cls-4,.cls-5{fill:none;}.cls-4{stroke:#d5dae0;stroke-miterlimit:10;}</style></defs><title>fountain_01</title><g id="Layer_2" data-name="Layer 2"><g id="Layer_1-2" data-name="Layer 1"><path class="cls-1" d="M93.21,28.26c-2.22-4-6.07-7.8-11.6-11-18.44-10.64-48.34-10.64-66.78,0-5.52,3.19-9.38,7-11.59,11H1v8.29c0,7,4.61,14,13.83,19.28,18.44,10.65,48.34,10.65,66.78,0,9.22-5.32,13.83-12.3,13.83-19.28V28.26Z"/><ellipse class="cls-2" cx="48.22" cy="28.26" rx="47.22" ry="27.26"/><path class="cls-3" d="M48.22,49.69c-10.77,0-20.86-2.39-28.4-6.74-7-4.06-10.89-9.27-10.89-14.69S12.8,17.64,19.82,13.58c7.54-4.35,17.63-6.75,28.4-6.75s20.86,2.4,28.4,6.75c7,4.06,10.89,9.27,10.89,14.68S83.64,38.89,76.62,43C69.08,47.3,59,49.69,48.22,49.69Z"/><path class="cls-4" d="M76.62,18.55C69.08,14.2,59,11.81,48.22,11.81s-20.86,2.39-28.4,6.74c-5.94,3.43-9.61,7.69-10.6,12.2,1,4.51,4.66,8.77,10.6,12.2,7.54,4.35,17.63,6.74,28.4,6.74S69.08,47.3,76.62,43c5.94-3.43,9.61-7.69,10.61-12.2C86.23,26.24,82.56,22,76.62,18.55Z"/><path class="cls-5" d="M48.22,49.69c-10.77,0-20.86-2.39-28.4-6.74-7-4.06-10.89-9.27-10.89-14.69S12.8,17.64,19.82,13.58c7.54-4.35,17.63-6.75,28.4-6.75s20.86,2.4,28.4,6.75c7,4.06,10.89,9.27,10.89,14.68S83.64,38.89,76.62,43C69.08,47.3,59,49.69,48.22,49.69Z"/><path class="cls-4" d="M36.4,25v8.29c0,1.74,1.16,3.49,3.46,4.82,4.62,2.67,12.1,2.67,16.72,0C58.89,36.73,60,35,60,33.24V25Z"/><path class="cls-1" d="M36.4,28.26c0,1.75,1.16,3.5,3.46,4.83,4.62,2.66,12.1,2.66,16.72,0C58.89,31.76,60,30,60,28.26"/><path class="cls-4" d="M36.4,28.26c0,1.75,1.16,3.5,3.46,4.83,4.62,2.66,12.1,2.66,16.72,0C58.89,31.76,60,30,60,28.26"/><polyline class="cls-1" points="60.04 28.26 60.04 19.98 36.4 19.98 36.4 28.26"/><ellipse class="cls-2" cx="48.22" cy="19.98" rx="11.82" ry="6.82"/><line class="cls-2" x1="48.22" y1="19.98" x2="48.22" y2="17.78"/></g></g></svg>