<svg xmlns="http://www.w3.org/2000/svg" width="122" height="102.07" viewBox="0 0 122 102.07"><defs><style>.cls-1{fill:#f2f4f6;}.cls-1,.cls-2,.cls-3{stroke:#627386;stroke-linecap:round;stroke-linejoin:round;stroke-width:2px;}.cls-2{fill:#fff;}.cls-3{fill:#d5dae0;}</style></defs><title>wall_01</title><g id="Layer_2" data-name="Layer 2"><g id="Layer_1-2" data-name="Layer 1"><polygon class="cls-1" points="107.67 16.4 107.67 31.79 121 39.49 121 24.09 107.67 16.4"/><polygon class="cls-2" points="94.33 39.49 107.67 31.79 121 24.09 114.33 20.25 107.67 16.4 94.33 24.09 81 31.79 87.67 35.64 94.33 39.49"/><polygon class="cls-3" points="121 24.09 121 39.49 94.33 54.89 94.33 39.49 121 24.09"/><polygon class="cls-1" points="81 31.79 81 47.19 94.33 54.89 94.33 39.49 81 31.79"/><polygon class="cls-2" points="67.67 54.89 81 47.19 94.33 39.49 87.67 35.64 81 31.79 67.67 39.49 54.33 47.19 61 51.04 67.67 54.89"/><polygon class="cls-3" points="94.33 39.49 94.33 54.89 67.67 70.28 67.67 54.89 94.33 39.49"/><polygon class="cls-1" points="54.33 47.19 54.33 62.58 67.67 70.28 67.67 54.89 54.33 47.19"/><polygon class="cls-2" points="41 70.28 54.33 62.58 67.67 54.89 61 51.04 54.33 47.19 41 54.89 27.67 62.58 34.33 66.43 41 70.28"/><polygon class="cls-3" points="67.67 54.89 67.67 70.28 41 85.68 41 70.28 67.67 54.89"/><polygon class="cls-1" points="27.67 62.58 27.67 77.98 41 85.68 41 70.28 27.67 62.58"/><polygon class="cls-2" points="14.33 85.68 27.67 77.98 41 70.28 34.33 66.43 27.67 62.58 14.33 70.28 1 77.98 7.67 81.83 14.33 85.68"/><polygon class="cls-3" points="41 70.28 41 85.68 14.33 101.07 14.33 85.68 41 70.28"/><polygon class="cls-1" points="1 77.98 1 93.38 14.33 101.07 14.33 85.68 1 77.98"/><polygon class="cls-1" points="94.33 8.7 94.33 24.09 107.67 31.79 107.67 16.4 94.33 8.7"/><polygon class="cls-2" points="81 31.79 94.33 24.09 107.67 16.4 101 12.55 94.33 8.7 81 16.4 67.67 24.09 74.33 27.94 81 31.79"/><polygon class="cls-3" points="107.67 16.4 107.67 31.79 81 47.19 81 31.79 107.67 16.4"/><polygon class="cls-1" points="67.67 24.09 67.67 39.49 81 47.19 81 31.79 67.67 24.09"/><polygon class="cls-2" points="54.33 47.19 67.67 39.49 81 31.79 74.33 27.94 67.67 24.09 54.33 31.79 41 39.49 47.67 43.34 54.33 47.19"/><polygon class="cls-3" points="81 31.79 81 47.19 54.33 62.58 54.33 47.19 81 31.79"/><polygon class="cls-1" points="41 39.49 41 54.89 54.33 62.58 54.33 47.19 41 39.49"/><polygon class="cls-2" points="27.67 62.58 41 54.89 54.33 47.19 47.67 43.34 41 39.49 27.67 47.19 14.33 54.89 21 58.73 27.67 62.58"/><polygon class="cls-3" points="54.33 47.19 54.33 62.58 27.67 77.98 27.67 62.58 54.33 47.19"/><polygon class="cls-1" points="14.33 54.89 14.33 70.28 27.67 77.98 27.67 62.58 14.33 54.89"/><polygon class="cls-1" points="81 1 81 16.4 94.33 24.09 94.33 8.7 81 1"/><polygon class="cls-2" points="67.67 24.09 81 16.4 94.33 8.7 87.67 4.85 81 1 67.67 8.7 54.33 16.4 61 20.25 67.67 24.09"/><polygon class="cls-3" points="94.33 8.7 94.33 24.09 67.67 39.49 67.67 24.09 94.33 8.7"/><polygon class="cls-1" points="54.33 16.4 54.33 31.79 67.67 39.49 67.67 24.09 54.33 16.4"/><polygon class="cls-2" points="41 39.49 54.33 31.79 67.67 24.09 61 20.25 54.33 16.4 41 24.09 27.67 31.79 34.33 35.64 41 39.49"/><polygon class="cls-3" points="67.67 24.09 67.67 39.49 41 54.89 41 39.49 67.67 24.09"/><polygon class="cls-1" points="27.67 31.79 27.67 47.19 41 54.89 41 39.49 27.67 31.79"/></g></g></svg>