<svg xmlns="http://www.w3.org/2000/svg" width="87.24" height="76.24" viewBox="0 0 87.24 76.24"><defs><style>.cls-1{fill:#b8bfca;}.cls-1,.cls-2,.cls-3,.cls-4,.cls-5{stroke:#627386;stroke-linecap:round;stroke-linejoin:round;stroke-width:2px;}.cls-2{fill:#fff;}.cls-3{fill:#d5dae0;}.cls-4{fill:none;}.cls-5{fill:#f2f4f6;}</style></defs><title>Bus_01</title><g id="Layer_2" data-name="Layer 2"><g id="Layer_1-2" data-name="Layer 1"><path class="cls-1" d="M56.33,70.54l-2-4.28,2.49-1.44h0a2,2,0,0,1,2.07.16A7.59,7.59,0,0,1,62,71a2.79,2.79,0,0,1-1.1,2.55h0L58.46,75l-2.12-4.48Z"/><path class="cls-1" d="M15.87,47.18l-2-4.28,2.49-1.44h0a2,2,0,0,1,2.07.16,7.58,7.58,0,0,1,3.16,6,2.79,2.79,0,0,1-1.09,2.55h0L18,51.67l-2.12-4.49Z"/><path class="cls-1" d="M7,42,5,37.76l2.49-1.43h0a2,2,0,0,1,2.07.16,7.59,7.59,0,0,1,3.17,6,2.79,2.79,0,0,1-1.1,2.55h0L9.1,46.53,7,42.05Z"/><path class="cls-2" d="M79.89,35.88,19.48,1,1,11.67,67.76,75.2,86.24,64.53V48C86.24,43.34,83.4,37.9,79.89,35.88Z"/><polygon class="cls-3" points="67.76 75.2 86.24 64.53 86.24 52.44 59.85 67.67 67.76 75.2"/><path class="cls-4" d="M79.89,35.88,19.48,1,1,11.67,67.76,75.2,86.24,64.53V48C86.24,43.34,83.4,37.9,79.89,35.88Z"/><path class="cls-5" d="M67.76,75.2,1,36.66v-25L61.41,46.55c3.51,2,6.35,7.46,6.35,12.14Z"/><polygon class="cls-1" points="67.76 67.17 67.76 67.17 67.76 67.17 67.76 67.17"/><path class="cls-1" d="M79.89,35.88,61.41,46.55h0c3.51,2,6.35,7.46,6.35,12.14v8.48L86.24,56.5V48C86.24,43.34,83.4,37.9,79.89,35.88Z"/><ellipse class="cls-3" cx="56.39" cy="70.65" rx="2.75" ry="4.86" transform="translate(-23.16 27.72) rotate(-23.05)"/><ellipse class="cls-3" cx="15.92" cy="47.29" rx="2.75" ry="4.86" transform="translate(-17.24 10.01) rotate(-23.05)"/><ellipse class="cls-3" cx="7.02" cy="42.15" rx="2.75" ry="4.86" transform="translate(-15.94 6.12) rotate(-23.05)"/><path class="cls-1" d="M61.41,46.55,31.2,29.11,1,11.67v8.48A15.54,15.54,0,0,0,2.75,27a12.62,12.62,0,0,0,4.61,5.3l30.2,17.44,30.2,17.44V58.69A15.63,15.63,0,0,0,66,51.85,12.69,12.69,0,0,0,61.41,46.55Z"/><line class="cls-4" x1="59.55" y1="45.47" x2="59.55" y2="62.43"/><line class="cls-4" x1="8.82" y1="16.18" x2="8.82" y2="33.14"/><line class="cls-4" x1="34.38" y1="47.64" x2="34.38" y2="30.94"/></g></g></svg>