<svg xmlns="http://www.w3.org/2000/svg" width="52.93" height="40.02" viewBox="0 0 52.93 40.02"><defs><style>.cls-1{fill:#d5dae0;}.cls-1,.cls-2,.cls-3{stroke:#627386;stroke-linecap:round;stroke-linejoin:round;stroke-width:2px;}.cls-2{fill:#f2f4f6;}.cls-3{fill:none;}</style></defs><title>Car_01</title><g id="Layer_2" data-name="Layer 2"><g id="Layer_1-2" data-name="Layer 1"><path class="cls-1" d="M8.44,23.74l-2-4.14,2.41-1.39h0a2,2,0,0,1,2,.16A7.34,7.34,0,0,1,14,24.23,2.7,2.7,0,0,1,12.9,26.7h0L10.49,28.1,8.44,23.75Z"/><path class="cls-1" d="M26.69,34.28l-2-4.15,2.41-1.39h0a2,2,0,0,1,2,.15,7.37,7.37,0,0,1,3.07,5.86,2.72,2.72,0,0,1-1.07,2.48h0l-2.41,1.4-2.06-4.35Z"/><polygon class="cls-1" points="1 10.65 14.8 2.68 20.41 5.92 6.61 13.88 1 10.65"/><polygon class="cls-1" points="27.05 18.61 29.4 26.17 38.13 32.76 38.13 39.02 1 17.59 1 10.65 6.61 13.88 10.35 8.97 27.05 18.61"/><polygon class="cls-2" points="29.4 26.17 43.2 18.2 51.93 24.79 38.13 32.76 29.4 26.17"/><polygon class="cls-2" points="38.13 39.02 38.13 32.76 51.93 24.79 51.93 31.05 38.13 39.02"/><polygon class="cls-2" points="29.4 26.17 27.05 18.61 40.86 10.65 43.2 18.2 29.4 26.17"/><polygon class="cls-2" points="10.35 8.97 24.15 1 40.86 10.65 27.05 18.61 10.35 8.97"/><line class="cls-3" x1="18.39" y1="13.66" x2="18.39" y2="21.47"/><ellipse class="cls-2" cx="26.74" cy="34.38" rx="2.66" ry="4.71" transform="translate(-11.33 13.21) rotate(-23.05)"/><ellipse class="cls-2" cx="8.49" cy="23.85" rx="2.66" ry="4.71" transform="translate(-8.66 5.23) rotate(-23.05)"/><line class="cls-3" x1="26.75" y1="8.84" x2="23.59" y2="10.66"/></g></g></svg>