<svg xmlns="http://www.w3.org/2000/svg" width="60.9" height="45.1" viewBox="0 0 60.9 45.1"><defs><style>.cls-1{fill:#b8bfca;}.cls-1,.cls-2,.cls-3,.cls-4{stroke:#627386;stroke-linecap:round;stroke-linejoin:round;stroke-width:2px;}.cls-2{fill:#f2f4f6;}.cls-3{fill:#d5dae0;}.cls-4{fill:none;}</style></defs><title>Car_02</title><g id="Layer_2" data-name="Layer 2"><g id="Layer_1-2" data-name="Layer 1"><path class="cls-1" d="M51.53,26.64l2.26-4.8L51,20.23h0a2.25,2.25,0,0,0-2.31.18c-2,1.13-3.55,4.17-3.55,6.78a3.13,3.13,0,0,0,1.23,2.86h0l2.78,1.61,2.38-5Z"/><path class="cls-1" d="M30.42,38.83,32.69,34,29.9,32.42h0a2.27,2.27,0,0,0-2.32.18c-2,1.13-3.55,4.16-3.55,6.78a3.14,3.14,0,0,0,1.23,2.86h0L28,43.86l2.38-5Z"/><polygon class="cls-1" points="31.13 1 33.85 6.6 43.94 2.57 43.94 9.81 1 34.6 1 26.58 7.49 22.83 11.81 12.16 31.13 1"/><polygon class="cls-1" points="43.94 2.57 59.9 11.79 49.81 15.81 33.85 6.6 43.94 2.57"/><polygon class="cls-1" points="47.1 10.22 49.81 15.81 59.9 11.79 59.9 19.03 16.96 43.82 16.96 35.8 23.45 32.05 27.77 21.37 47.1 10.22"/><polygon class="cls-1" points="1 34.6 16.96 43.82 16.96 35.8 1 26.58 1 34.6"/><polygon class="cls-1" points="1 26.58 7.49 22.83 23.45 32.05 16.96 35.8 1 26.58"/><polygon class="cls-2" points="7.49 22.83 11.81 12.16 27.77 21.37 23.45 32.05 7.49 22.83"/><polygon class="cls-1" points="11.81 12.16 31.13 1 47.1 10.22 27.77 21.37 11.81 12.16"/><polygon class="cls-3" points="47.1 10.22 31.13 1 11.81 12.16 27.77 21.37 47.1 10.22"/><line class="cls-4" x1="37.8" y1="15.65" x2="37.8" y2="24.67"/><line class="cls-4" x1="28.13" y1="10.06" x2="31.78" y2="12.17"/><ellipse class="cls-3" cx="30.36" cy="38.95" rx="5.44" ry="3.08" transform="translate(-17.36 51.64) rotate(-66.95)"/><ellipse class="cls-3" cx="51.47" cy="26.76" rx="5.44" ry="3.08" transform="translate(6.7 63.65) rotate(-66.95)"/></g></g></svg>