<svg xmlns="http://www.w3.org/2000/svg" width="74" height="65.33" viewBox="0 0 74 65.33"><defs><style>.cls-1{fill:#b8bfca;}.cls-1,.cls-2,.cls-3,.cls-4{stroke:#627386;}.cls-1,.cls-2,.cls-3,.cls-4,.cls-5{stroke-linecap:round;stroke-linejoin:round;stroke-width:2px;}.cls-2{fill:#f2f4f6;}.cls-3{fill:#d5dae0;}.cls-4,.cls-5{fill:none;}.cls-5{stroke:#fff;}</style></defs><title>Truck_02</title><g id="Layer_2" data-name="Layer 2"><g id="Layer_1-2" data-name="Layer 1"><path class="cls-1" d="M29,58.41,31.56,53l-3.13-1.8h0a2.54,2.54,0,0,0-2.6.21c-2.2,1.27-4,4.67-4,7.6,0,1.61.53,2.73,1.38,3.22h0l3.13,1.81L29,58.42Z"/><path class="cls-1" d="M51.36,45.5l2.54-5.38-3.13-1.81h0a2.55,2.55,0,0,0-2.6.2c-2.2,1.27-4,4.68-4,7.61a3.53,3.53,0,0,0,1.38,3.22h0l3.13,1.81,2.67-5.65Z"/><path class="cls-1" d="M66.64,36.68l2.54-5.38-3.13-1.81h0a2.53,2.53,0,0,0-2.6.2c-2.2,1.27-4,4.68-4,7.61a3.55,3.55,0,0,0,1.38,3.22h0L64,42.34l2.67-5.65Z"/><polygon class="cls-2" points="71.69 13.18 52.96 2.36 49.39 1 39.82 6.53 39.82 27.99 54.26 19.65 54.26 14.87 58.56 17.35 71.69 13.18"/><path class="cls-1" d="M73,30.47V16.08c0-1.57-.45-2.57-1.3-2.9l-3.57-1.36-9.57,5.53V38.81Z"/><polygon class="cls-1" points="39.82 6.53 58.56 17.35 58.56 38.81 39.82 27.99 39.82 6.53"/><polygon class="cls-1" points="19.74 61.22 58.56 38.81 58.56 12.91 19.74 35.33 19.74 61.22"/><polygon class="cls-3" points="1 50.4 19.74 61.22 19.74 35.33 1 24.5 1 50.4"/><polygon class="cls-2" points="1 24.5 19.74 35.33 58.56 12.91 39.82 2.09 1 24.5"/><ellipse class="cls-1" cx="66.58" cy="36.82" rx="6.11" ry="3.46" transform="translate(6.63 83.66) rotate(-66.95)"/><ellipse class="cls-1" cx="51.3" cy="45.64" rx="6.11" ry="3.46" transform="translate(-10.79 74.97) rotate(-66.95)"/><ellipse class="cls-1" cx="28.95" cy="58.54" rx="6.11" ry="3.46" transform="translate(-36.25 62.26) rotate(-66.95)"/><line class="cls-4" x1="1" y1="39.85" x2="19.65" y2="50.62"/><line class="cls-5" x1="34.13" y1="39.83" x2="44.17" y2="34.03"/></g></g></svg>