<svg xmlns="http://www.w3.org/2000/svg" width="167.66" height="123.26" viewBox="0 0 167.66 123.26"><defs><style>.cls-1{fill:#b8bfca;}.cls-1,.cls-2,.cls-3,.cls-4,.cls-6{stroke:#627386;stroke-linecap:round;stroke-linejoin:round;stroke-width:2px;}.cls-2{fill:#d5dae0;}.cls-3,.cls-5{fill:#f2f4f6;}.cls-4{fill:#fff;}.cls-6{fill:none;}</style></defs><title>zeplin_01</title><g id="Layer_2" data-name="Layer 2"><g id="Layer_1-2" data-name="Layer 1"><path class="cls-1" d="M95,24H92.75L88,17.8c-.92-1.19-3.61-1.48-5.2-.56L57.13,32l20,11.57,16.62-13.7A2.85,2.85,0,0,0,95,27.72h0Z"/><path class="cls-2" d="M77.17,39.89l16.62-13.7c1.34-1.1,1.58-2.52.63-3.75L88,14.08c-.92-1.19-3.61-1.47-5.2-.56L57.13,28.32Z"/><path class="cls-1" d="M109.88,101.61l-34.34-4,3,11.92h0A2.93,2.93,0,0,0,80,111.16L91.85,118a8.13,8.13,0,0,0,7.35,0l6.23-3.6a2.94,2.94,0,0,0,1.44-1.58h0Z"/><path class="cls-3" d="M108.13,103.53l-7.55,4.36a9.85,9.85,0,0,1-8.91,0l-14.38-8.3c-2.46-1.42-2.46-3.72,0-5.14l7.56-4.36a9.85,9.85,0,0,1,8.91,0l14.37,8.29C110.6,99.81,110.6,102.11,108.13,103.53Z"/><path class="cls-4" d="M17.58,33.73C36.37,74.92,97,131.23,145.93,121.05a26.11,26.11,0,0,0,19.42-33.64C149.72,40,70.62,15.6,25.55,19.92A9.79,9.79,0,0,0,17.58,33.73Z"/><path class="cls-5" d="M153.25,108.38C108.62,111.14,45.6,58.94,23.42,23.61a8.94,8.94,0,0,1-1.18-2.78,9.82,9.82,0,0,0-4.66,12.9C36.37,74.92,97,131.23,145.93,121.05a26,26,0,0,0,19.46-17.57A18.85,18.85,0,0,1,153.25,108.38Z"/><path class="cls-6" d="M17.58,33.73C36.37,74.92,97,131.23,145.93,121.05a26.11,26.11,0,0,0,19.42-33.64C149.72,40,70.62,15.6,25.55,19.92A9.79,9.79,0,0,0,17.58,33.73Z"/><path class="cls-1" d="M37.65,59.55a106.45,106.45,0,0,1-9.51-10.11l-.57-.33L6.64,61.19,1,61.49v3.72H1c0,.69.66,1.38,1.89,1.69l14.48,3.73a10.78,10.78,0,0,0,6.5-.36l17.86-7.22V59.33Z"/><path class="cls-2" d="M65.11,27.38,60.6,16.55A22.49,22.49,0,0,0,51.05,5.68L43.8,1.49a3.54,3.54,0,0,0-3.59,0h0L36.35,3.71l3.71,2.82,1.61,13.16a89.85,89.85,0,0,1,15.25,3.56l4.33,6.36Z"/><path class="cls-1" d="M36.46,22.7,34.58,7.26a3.59,3.59,0,0,1,5.36-3.55L47.2,7.9a22.56,22.56,0,0,1,9.54,10.87l4.51,10.84S47.08,23.94,36.46,22.7Z"/><path class="cls-2" d="M28.14,45.72l-.57-.33L1.94,60.19c-1.59.91-1.09,2.47,1,3l14.48,3.74a10.94,10.94,0,0,0,6.5-.36l17.86-7.23A96.3,96.3,0,0,1,28.14,45.72Z"/></g></g></svg>