<svg xmlns="http://www.w3.org/2000/svg" width="52.74" height="52.74" viewBox="0 0 52.74 52.74"><defs><style>.cls-1{fill:#d3edfd;}.cls-1,.cls-4{stroke:#1b6dc6;}.cls-1,.cls-3,.cls-4{stroke-linecap:round;stroke-linejoin:round;stroke-width:2px;}.cls-2{fill:#bde4fd;}.cls-3,.cls-4{fill:none;}.cls-3{stroke:#91d2fb;}</style></defs><title>ball_01</title><g id="Layer_2" data-name="Layer 2"><g id="Layer_1-2" data-name="Layer 1"><circle class="cls-1" cx="26.37" cy="26.37" r="25.36"/><path class="cls-2" d="M39.05,4.4a25.39,25.39,0,0,0-4.81-2.15C41.5,8.36,42.5,21,36.16,32S18.34,48.48,9.42,45.24a24.63,24.63,0,0,0,4.27,3.09A25.36,25.36,0,0,0,39.05,4.4Z"/><path class="cls-3" d="M39.55,4.75c-4.91,14.87-14.71,32.41-26.73,43"/><path class="cls-3" d="M22.3,1.34C26,4.34,30.8,11,26.74,18c-4.86,8.42-8.64,4.13-25,14.27"/><path class="cls-3" d="M50.71,19.07c-4-.7-10.18-.54-13.72,5.87-4.93,8.92,1.08,18.34-3.86,25.86"/><path class="cls-3" d="M49.4,36.94C47.29,33.46,33.89,13.48,5.34,12.07"/><circle class="cls-4" cx="26.37" cy="26.37" r="25.36"/></g></g></svg>