<svg xmlns="http://www.w3.org/2000/svg" width="90.71" height="171.16" viewBox="0 0 90.71 171.16"><defs><style>.cls-1{fill:#d5dae0;}.cls-1,.cls-2{stroke:#627386;stroke-linecap:round;stroke-linejoin:round;stroke-width:2px;}.cls-2{fill:#fff;}</style></defs><title>goal_01</title><g id="Layer_2" data-name="Layer 2"><g id="Layer_1-2" data-name="Layer 1"><path class="cls-1" d="M82.41,3.11V121.05c0,1.17,1.64,2.11,3.65,2.11s3.65-.94,3.65-2.11V3.11Z"/><ellipse class="cls-2" cx="86.06" cy="3.11" rx="3.65" ry="2.11"/><path class="cls-1" d="M20.87,54.41q-8.15,3.68-16.22,6.65V77.75q8.08-3,16.22-6.65Z"/><path class="cls-2" d="M20.87,54.41Q29,50.74,37.18,46.35V63Q29,67.42,20.87,71.1Z"/><path class="cls-1" d="M37.18,46.35Q45.36,42,53.53,36.92V53.6Q45.36,58.67,37.18,63Z"/><path class="cls-2" d="M53.53,36.92q8.16-5.07,16.31-10.78V42.82Q61.69,48.55,53.53,53.6Z"/><path class="cls-1" d="M69.84,26.14Q78,20.42,86.06,14.05V30.74Q78,37.12,69.84,42.82Z"/><path class="cls-1" d="M20.87,87.79q-8.15,3.67-16.22,6.65v16.68q8.08-3,16.22-6.64Z"/><path class="cls-2" d="M20.87,87.79Q29,84.1,37.18,79.73V96.42Q29,100.8,20.87,104.48Z"/><path class="cls-1" d="M37.18,79.73q8.18-4.38,16.35-9.44V87Q45.36,92,37.18,96.42Z"/><path class="cls-2" d="M53.53,70.29q8.16-5.06,16.31-10.78V76.2Q61.69,81.92,53.53,87Z"/><path class="cls-1" d="M69.84,59.51Q78,53.8,86.06,47.43V64.12Q78,70.48,69.84,76.2Z"/><path class="cls-2" d="M20.87,71.1q-8.15,3.68-16.22,6.65V94.44q8.08-3,16.22-6.65Z"/><path class="cls-1" d="M20.87,71.1Q29,67.43,37.18,63V79.73Q29,84.11,20.87,87.79Z"/><path class="cls-2" d="M37.18,63q8.18-4.38,16.35-9.44V70.29q-8.18,5.05-16.35,9.44Z"/><path class="cls-1" d="M53.53,53.6q8.16-5.06,16.31-10.78V59.51q-8.15,5.73-16.31,10.78Z"/><path class="cls-2" d="M69.84,42.82Q78,37.1,86.06,30.74V47.43Q78,53.79,69.84,59.51Z"/><path class="cls-1" d="M1,50.11v118c0,1.16,1.63,2.1,3.65,2.1s3.65-.94,3.65-2.1V50.11Z"/><ellipse class="cls-2" cx="4.65" cy="50.11" rx="3.65" ry="2.11"/></g></g></svg>