<svg xmlns="http://www.w3.org/2000/svg" width="111.09" height="167.27" viewBox="0 0 111.09 167.27"><defs><style>.cls-1{fill:#f2f4f6;}.cls-1,.cls-3,.cls-4{stroke:#627386;stroke-linecap:round;stroke-linejoin:round;stroke-width:2px;}.cls-2,.cls-4{fill:#d5dae0;}.cls-3{fill:none;}.cls-5{fill:#b8bfca;}</style></defs><title>pin_02</title><g id="Layer_2" data-name="Layer 2"><g id="Layer_1-2" data-name="Layer 1"><path class="cls-1" d="M81.49,122.13a3.75,3.75,0,0,0,.24-.44c6.32-11.79,11.18-36.94,8.18-52.81h0a19.42,19.42,0,0,0-2.51-7.21h0a19.53,19.53,0,0,0-1.31-2c-15.16-23.44-3.28-42.27-6-51.38h0a9.68,9.68,0,0,0-18.78,0h0c-2.74,9.11,9.14,27.94-6,51.38a21.41,21.41,0,0,0-1.31,2h0a19.23,19.23,0,0,0-2.5,7.21h0c-3,15.87,1.85,41,8.17,52.81a3.75,3.75,0,0,0,.24.44v0h0c1.59,2.55,5.83,4.38,10.8,4.38s9.21-1.83,10.8-4.38h0Z"/><path class="cls-2" d="M81.48,122.16h0v0a3.75,3.75,0,0,0,.24-.44c6.32-11.79,11.18-36.94,8.18-52.81a19.42,19.42,0,0,0-2.51-7.21h0a19.53,19.53,0,0,0-1.31-2c-15.16-23.44-3.28-42.27-6-51.38h0l0-.12c-1.41-5.39-9.36-4.35-9.36,1.22v117.1C75.65,126.54,79.89,124.71,81.48,122.16Z"/><path class="cls-3" d="M81.49,122.13a3.75,3.75,0,0,0,.24-.44c6.32-11.79,11.18-36.94,8.18-52.81h0a19.42,19.42,0,0,0-2.51-7.21h0a19.53,19.53,0,0,0-1.31-2c-15.16-23.44-3.28-42.27-6-51.38h0a9.68,9.68,0,0,0-18.78,0h0c-2.74,9.11,9.14,27.94-6,51.38a21.41,21.41,0,0,0-1.31,2h0a19.23,19.23,0,0,0-2.5,7.21h0c-3,15.87,1.85,41,8.17,52.81a3.75,3.75,0,0,0,.24.44v0h0c1.59,2.55,5.83,4.38,10.8,4.38s9.21-1.83,10.8-4.38h0Z"/><path class="cls-4" d="M78.21,32.86C76.8,34.43,74,35.5,70.68,35.5s-6.12-1.07-7.53-2.64c0,1.46,0,3-.14,4.51,1.36,1.66,4.29,2.81,7.67,2.81S77,39,78.35,37.37C78.23,35.83,78.19,34.32,78.21,32.86Z"/><path class="cls-5" d="M78.35,37.37c0-.37,0-.74-.07-1.11v-.07c0-.37,0-.74,0-1.1h0c0-.36,0-.72,0-1.08V32.86h0C76.8,34.43,74,35.5,70.68,35.5v4.68C74.07,40.18,77,39,78.35,37.37Z"/><path class="cls-3" d="M78.21,32.86C76.8,34.43,74,35.5,70.68,35.5s-6.12-1.07-7.53-2.64c0,1.46,0,3-.14,4.51,1.36,1.66,4.29,2.81,7.67,2.81S77,39,78.35,37.37C78.23,35.83,78.19,34.32,78.21,32.86Z"/><path class="cls-4" d="M79,42.43c-.75,2.26-4.19,4-8.33,4s-7.58-1.71-8.33-4a45.17,45.17,0,0,1-1.06,4.4c1,2.44,4.85,4.24,9.39,4.24s8.35-1.8,9.39-4.24A45.17,45.17,0,0,1,79,42.43Z"/><path class="cls-5" d="M80.07,46.83A45.17,45.17,0,0,1,79,42.43c-.75,2.26-4.19,4-8.33,4v4.67C75.22,51.07,79,49.27,80.07,46.83Z"/><path class="cls-3" d="M79,42.43c-.75,2.26-4.19,4-8.33,4s-7.58-1.71-8.33-4a45.17,45.17,0,0,1-1.06,4.4c1,2.44,4.85,4.24,9.39,4.24s8.35-1.8,9.39-4.24A45.17,45.17,0,0,1,79,42.43Z"/><path class="cls-1" d="M56.72,136.44A4.92,4.92,0,0,0,57,136c6.32-11.79,11.18-36.94,8.18-52.81h0A19.42,19.42,0,0,0,62.63,76h0a22.89,22.89,0,0,0-1.31-2C46.16,50.58,58,31.75,55.3,22.64h0a9.68,9.68,0,0,0-18.78,0h0c-2.74,9.11,9.14,27.94-6,51.39A19.39,19.39,0,0,0,29.19,76h0a19.42,19.42,0,0,0-2.51,7.21h0c-3,15.87,1.86,41,8.18,52.81a3.75,3.75,0,0,0,.24.44v0h0c1.59,2.55,5.83,4.38,10.8,4.38s9.21-1.83,10.8-4.38h0Z"/><path class="cls-2" d="M56.71,136.46h0v0A4.92,4.92,0,0,0,57,136c6.32-11.79,11.18-36.94,8.18-52.81A19.42,19.42,0,0,0,62.63,76h0a22.89,22.89,0,0,0-1.31-2C46.16,50.58,58,31.75,55.3,22.64h0s0-.08,0-.12c-1.41-5.39-9.35-4.35-9.35,1.22v117.1C50.88,140.84,55.12,139,56.71,136.46Z"/><path class="cls-3" d="M56.72,136.44A4.92,4.92,0,0,0,57,136c6.32-11.79,11.18-36.94,8.18-52.81h0A19.42,19.42,0,0,0,62.63,76h0a22.89,22.89,0,0,0-1.31-2C46.16,50.58,58,31.75,55.3,22.64h0a9.68,9.68,0,0,0-18.78,0h0c-2.74,9.11,9.14,27.94-6,51.39A19.39,19.39,0,0,0,29.19,76h0a19.42,19.42,0,0,0-2.51,7.21h0c-3,15.87,1.86,41,8.18,52.81a3.75,3.75,0,0,0,.24.44v0h0c1.59,2.55,5.83,4.38,10.8,4.38s9.21-1.83,10.8-4.38h0Z"/><path class="cls-4" d="M53.44,47.16c-1.41,1.57-4.25,2.65-7.53,2.65s-6.12-1.08-7.53-2.65c0,1.46,0,3-.14,4.52,1.36,1.65,4.28,2.8,7.67,2.8s6.31-1.15,7.67-2.8C53.46,50.13,53.42,48.63,53.44,47.16Z"/><path class="cls-5" d="M53.58,51.68c0-.38,0-.75-.07-1.12v-.07c0-.37,0-.74,0-1.1h0c0-.37,0-.73,0-1.09V47.16h0c-1.41,1.57-4.25,2.65-7.53,2.65v4.67C49.29,54.48,52.22,53.33,53.58,51.68Z"/><path class="cls-3" d="M53.44,47.16c-1.41,1.57-4.25,2.65-7.53,2.65s-6.12-1.08-7.53-2.65c0,1.46,0,3-.14,4.52,1.36,1.65,4.28,2.8,7.67,2.8s6.31-1.15,7.67-2.8C53.46,50.13,53.42,48.63,53.44,47.16Z"/><path class="cls-4" d="M54.24,56.73c-.75,2.27-4.19,4-8.33,4s-7.58-1.71-8.33-4a44.48,44.48,0,0,1-1.06,4.4c1,2.44,4.85,4.25,9.39,4.25s8.35-1.81,9.39-4.25A44.48,44.48,0,0,1,54.24,56.73Z"/><path class="cls-5" d="M55.3,61.13a44.48,44.48,0,0,1-1.06-4.4c-.75,2.27-4.19,4-8.33,4v4.67C50.45,65.38,54.26,63.57,55.3,61.13Z"/><path class="cls-3" d="M54.24,56.73c-.75,2.27-4.19,4-8.33,4s-7.58-1.71-8.33-4a44.48,44.48,0,0,1-1.06,4.4c1,2.44,4.85,4.25,9.39,4.25s8.35-1.81,9.39-4.25A44.48,44.48,0,0,1,54.24,56.73Z"/><path class="cls-1" d="M32,150.74a4.92,4.92,0,0,0,.24-.45c6.32-11.79,11.18-36.94,8.17-52.81h0a19.12,19.12,0,0,0-2.5-7.2h0a20.11,20.11,0,0,0-1.31-2c-15.17-23.44-3.28-42.28-6-51.38h0a9.67,9.67,0,0,0-18.77,0h0c-2.74,9.1,9.14,27.94-6,51.38a18.52,18.52,0,0,0-1.32,2h0a19.47,19.47,0,0,0-2.5,7.2h0c-3,15.87,1.86,41,8.18,52.81a3.75,3.75,0,0,0,.24.44v0h0c1.59,2.56,5.82,4.38,10.8,4.38s9.2-1.82,10.79-4.38h0Z"/><path class="cls-2" d="M31.93,150.76h0v0a4.92,4.92,0,0,0,.24-.45c6.32-11.79,11.18-36.94,8.17-52.81a19.12,19.12,0,0,0-2.5-7.2h0a20.11,20.11,0,0,0-1.31-2c-15.17-23.44-3.28-42.28-6-51.38h0l0-.13c-1.41-5.39-9.35-4.35-9.35,1.22v117.1C26.11,155.14,30.34,153.32,31.93,150.76Z"/><path class="cls-3" d="M32,150.74a4.92,4.92,0,0,0,.24-.45c6.32-11.79,11.18-36.94,8.17-52.81h0a19.12,19.12,0,0,0-2.5-7.2h0a20.11,20.11,0,0,0-1.31-2c-15.17-23.44-3.28-42.28-6-51.38h0a9.67,9.67,0,0,0-18.77,0h0c-2.74,9.1,9.14,27.94-6,51.38a18.52,18.52,0,0,0-1.32,2h0a19.47,19.47,0,0,0-2.5,7.2h0c-3,15.87,1.86,41,8.18,52.81a3.75,3.75,0,0,0,.24.44v0h0c1.59,2.56,5.82,4.38,10.8,4.38s9.2-1.82,10.79-4.38h0Z"/><path class="cls-4" d="M28.67,61.46c-1.41,1.57-4.25,2.65-7.53,2.65S15,63,13.61,61.46c0,1.47,0,3-.14,4.52,1.36,1.65,4.28,2.8,7.67,2.8s6.3-1.15,7.66-2.8C28.69,64.43,28.65,62.93,28.67,61.46Z"/><path class="cls-5" d="M28.8,66c0-.38-.05-.75-.07-1.12v-.07c0-.37,0-.73,0-1.1h0c0-.37,0-.73,0-1.09v-.06c0-.36,0-.72,0-1.08h0c-1.41,1.57-4.25,2.65-7.53,2.65v4.67C24.52,68.78,27.44,67.63,28.8,66Z"/><path class="cls-3" d="M28.67,61.46c-1.41,1.57-4.25,2.65-7.53,2.65S15,63,13.61,61.46c0,1.47,0,3-.14,4.52,1.36,1.65,4.28,2.8,7.67,2.8s6.3-1.15,7.66-2.8C28.69,64.43,28.65,62.93,28.67,61.46Z"/><path class="cls-4" d="M29.47,71c-.75,2.27-4.2,4-8.33,4s-7.58-1.71-8.33-4a44.48,44.48,0,0,1-1.06,4.4c1,2.44,4.84,4.25,9.39,4.25s8.35-1.81,9.39-4.25A44.48,44.48,0,0,1,29.47,71Z"/><path class="cls-5" d="M30.53,75.43A44.48,44.48,0,0,1,29.47,71c-.75,2.27-4.2,4-8.33,4v4.67C25.68,79.68,29.49,77.87,30.53,75.43Z"/><path class="cls-3" d="M29.47,71c-.75,2.27-4.2,4-8.33,4s-7.58-1.71-8.33-4a44.48,44.48,0,0,1-1.06,4.4c1,2.44,4.84,4.25,9.39,4.25s8.35-1.81,9.39-4.25A44.48,44.48,0,0,1,29.47,71Z"/><path class="cls-1" d="M92.5,141.2a3.75,3.75,0,0,0,.24-.44C99.06,129,103.92,103.82,100.92,88h0a19.42,19.42,0,0,0-2.51-7.21h0a20.11,20.11,0,0,0-1.31-1.95c-15.16-23.44-3.28-42.27-6-51.38h0a9.68,9.68,0,0,0-18.78,0h0c-2.74,9.11,9.14,27.94-6,51.38A20.11,20.11,0,0,0,65,80.74h0A19.42,19.42,0,0,0,62.46,88h0c-3,15.87,1.86,41,8.18,52.81a3.75,3.75,0,0,0,.24.44v0h0c1.59,2.55,5.83,4.38,10.8,4.38s9.21-1.83,10.8-4.38h0Z"/><path class="cls-2" d="M92.49,141.23h0v0a3.75,3.75,0,0,0,.24-.44C99.06,129,103.92,103.82,100.92,88a19.42,19.42,0,0,0-2.51-7.21h0a20.11,20.11,0,0,0-1.31-1.95c-15.16-23.44-3.28-42.27-6-51.38h0a.56.56,0,0,0,0-.12c-1.4-5.39-9.35-4.35-9.35,1.22v117.1C86.66,145.61,90.9,143.78,92.49,141.23Z"/><path class="cls-3" d="M92.5,141.2a3.75,3.75,0,0,0,.24-.44C99.06,129,103.92,103.82,100.92,88h0a19.42,19.42,0,0,0-2.51-7.21h0a20.11,20.11,0,0,0-1.31-1.95c-15.16-23.44-3.28-42.27-6-51.38h0a9.68,9.68,0,0,0-18.78,0h0c-2.74,9.11,9.14,27.94-6,51.38A20.11,20.11,0,0,0,65,80.74h0A19.42,19.42,0,0,0,62.46,88h0c-3,15.87,1.86,41,8.18,52.81a3.75,3.75,0,0,0,.24.44v0h0c1.59,2.55,5.83,4.38,10.8,4.38s9.21-1.83,10.8-4.38h0Z"/><path class="cls-4" d="M89.22,51.93c-1.41,1.57-4.25,2.64-7.53,2.64s-6.12-1.07-7.53-2.64c0,1.46,0,3-.14,4.51,1.36,1.66,4.29,2.81,7.67,2.81S88,58.1,89.36,56.44C89.24,54.9,89.2,53.39,89.22,51.93Z"/><path class="cls-5" d="M89.36,56.44c0-.37,0-.74-.07-1.11v-.07c0-.37,0-.74,0-1.1h0c0-.36,0-.72,0-1.08V51.93h0c-1.41,1.57-4.25,2.64-7.53,2.64v4.68C85.08,59.25,88,58.1,89.36,56.44Z"/><path class="cls-3" d="M89.22,51.93c-1.41,1.57-4.25,2.64-7.53,2.64s-6.12-1.07-7.53-2.64c0,1.46,0,3-.14,4.51,1.36,1.66,4.29,2.81,7.67,2.81S88,58.1,89.36,56.44C89.24,54.9,89.2,53.39,89.22,51.93Z"/><path class="cls-4" d="M90,61.5c-.75,2.26-4.19,4-8.33,4s-7.58-1.71-8.33-4a45.17,45.17,0,0,1-1.06,4.4c1,2.43,4.85,4.24,9.39,4.24S90,68.33,91.08,65.9A45.17,45.17,0,0,1,90,61.5Z"/><path class="cls-5" d="M91.08,65.9A45.17,45.17,0,0,1,90,61.5c-.75,2.26-4.19,4-8.33,4v4.67C86.23,70.14,90,68.33,91.08,65.9Z"/><path class="cls-3" d="M90,61.5c-.75,2.26-4.19,4-8.33,4s-7.58-1.71-8.33-4a45.17,45.17,0,0,1-1.06,4.4c1,2.43,4.85,4.24,9.39,4.24S90,68.33,91.08,65.9A45.17,45.17,0,0,1,90,61.5Z"/><path class="cls-1" d="M65,157.09a3.75,3.75,0,0,0,.24-.44c6.32-11.79,11.18-36.94,8.17-52.81h0a19.23,19.23,0,0,0-2.5-7.21h0a19.62,19.62,0,0,0-1.32-1.95c-15.16-23.44-3.27-42.27-6-51.38h0a9.67,9.67,0,0,0-18.77,0h0c-2.75,9.11,9.14,27.94-6,51.38a20.86,20.86,0,0,0-1.32,1.95h0a19.23,19.23,0,0,0-2.5,7.21h0c-3,15.87,1.86,41,8.18,52.81a3.75,3.75,0,0,0,.24.44v0h0c1.59,2.55,5.82,4.38,10.8,4.38s9.2-1.83,10.79-4.38h0Z"/><path class="cls-2" d="M65,157.12h0l0,0a3.75,3.75,0,0,0,.24-.44c6.32-11.79,11.18-36.94,8.17-52.81a19.23,19.23,0,0,0-2.5-7.21h0a19.62,19.62,0,0,0-1.32-1.95c-15.16-23.44-3.27-42.27-6-51.38h0l0-.12c-1.41-5.39-9.35-4.35-9.35,1.22V161.5C59.14,161.5,63.37,159.67,65,157.12Z"/><path class="cls-3" d="M65,157.09a3.75,3.75,0,0,0,.24-.44c6.32-11.79,11.18-36.94,8.17-52.81h0a19.23,19.23,0,0,0-2.5-7.21h0a19.62,19.62,0,0,0-1.32-1.95c-15.16-23.44-3.27-42.27-6-51.38h0a9.67,9.67,0,0,0-18.77,0h0c-2.75,9.11,9.14,27.94-6,51.38a20.86,20.86,0,0,0-1.32,1.95h0a19.23,19.23,0,0,0-2.5,7.21h0c-3,15.87,1.86,41,8.18,52.81a3.75,3.75,0,0,0,.24.44v0h0c1.59,2.55,5.82,4.38,10.8,4.38s9.2-1.83,10.79-4.38h0Z"/><path class="cls-4" d="M61.7,67.82c-1.41,1.57-4.25,2.65-7.53,2.65s-6.12-1.08-7.54-2.65c0,1.46,0,3-.13,4.51,1.36,1.66,4.28,2.81,7.67,2.81s6.3-1.15,7.66-2.8C61.72,70.79,61.68,69.28,61.7,67.82Z"/><path class="cls-5" d="M61.83,72.34c0-.38,0-.75-.07-1.12v-.07c0-.37,0-.74,0-1.1h0c0-.36,0-.72,0-1.08V68.9q0-.54,0-1.08h0c-1.41,1.57-4.25,2.65-7.53,2.65v4.67C57.55,75.14,60.47,74,61.83,72.34Z"/><path class="cls-3" d="M61.7,67.82c-1.41,1.57-4.25,2.65-7.53,2.65s-6.12-1.08-7.54-2.65c0,1.46,0,3-.13,4.51,1.36,1.66,4.28,2.81,7.67,2.81s6.3-1.15,7.66-2.8C61.72,70.79,61.68,69.28,61.7,67.82Z"/><path class="cls-4" d="M62.5,77.39c-.75,2.26-4.2,4-8.33,4s-7.58-1.71-8.33-4a45.17,45.17,0,0,1-1.06,4.4c1,2.44,4.84,4.25,9.39,4.25s8.35-1.81,9.39-4.25A45.17,45.17,0,0,1,62.5,77.39Z"/><path class="cls-5" d="M63.56,81.79a45.17,45.17,0,0,1-1.06-4.4c-.75,2.26-4.2,4-8.33,4V86C58.71,86,62.52,84.23,63.56,81.79Z"/><path class="cls-3" d="M62.5,77.39c-.75,2.26-4.2,4-8.33,4s-7.58-1.71-8.33-4a45.17,45.17,0,0,1-1.06,4.4c1,2.44,4.84,4.25,9.39,4.25s8.35-1.81,9.39-4.25A45.17,45.17,0,0,1,62.5,77.39Z"/><path class="cls-1" d="M100.76,161.86a3.88,3.88,0,0,0,.24-.45c6.32-11.79,11.18-36.93,8.17-52.8h0a19.23,19.23,0,0,0-2.5-7.21h0a20.11,20.11,0,0,0-1.31-2c-15.17-23.44-3.28-42.27-6-51.38h0a9.67,9.67,0,0,0-18.77,0h0c-2.74,9.11,9.14,27.94-6,51.38a18.52,18.52,0,0,0-1.32,2h0a19.58,19.58,0,0,0-2.5,7.21h0c-3,15.87,1.86,41,8.18,52.81a4.77,4.77,0,0,0,.24.44v0h0c1.59,2.56,5.82,4.39,10.8,4.39s9.2-1.83,10.79-4.39h0Z"/><path class="cls-2" d="M100.74,161.88h0v0a3.88,3.88,0,0,0,.24-.45c6.32-11.79,11.18-36.93,8.17-52.8a19.23,19.23,0,0,0-2.5-7.21h0a20.11,20.11,0,0,0-1.31-2c-15.17-23.44-3.28-42.27-6-51.38h0l0-.13C97.89,42.56,90,43.6,90,49.16V166.27C94.92,166.27,99.15,164.44,100.74,161.88Z"/><path class="cls-3" d="M100.76,161.86a3.88,3.88,0,0,0,.24-.45c6.32-11.79,11.18-36.93,8.17-52.8h0a19.23,19.23,0,0,0-2.5-7.21h0a20.11,20.11,0,0,0-1.31-2c-15.17-23.44-3.28-42.27-6-51.38h0a9.67,9.67,0,0,0-18.77,0h0c-2.74,9.11,9.14,27.94-6,51.38a18.52,18.52,0,0,0-1.32,2h0a19.58,19.58,0,0,0-2.5,7.21h0c-3,15.87,1.86,41,8.18,52.81a4.77,4.77,0,0,0,.24.44v0h0c1.59,2.56,5.82,4.39,10.8,4.39s9.2-1.83,10.79-4.39h0Z"/><path class="cls-4" d="M97.48,72.59c-1.41,1.57-4.25,2.64-7.53,2.64s-6.12-1.07-7.53-2.64c0,1.46,0,3-.14,4.51,1.36,1.66,4.28,2.8,7.67,2.8s6.3-1.14,7.66-2.8C97.5,75.56,97.46,74.05,97.48,72.59Z"/><path class="cls-5" d="M97.61,77.1c0-.37,0-.74-.07-1.11v-.08c0-.36,0-.73,0-1.1h0c0-.36,0-.73,0-1.09v-.06c0-.36,0-.72,0-1.07h0c-1.41,1.57-4.25,2.64-7.53,2.64V79.9C93.33,79.9,96.25,78.76,97.61,77.1Z"/><path class="cls-3" d="M97.48,72.59c-1.41,1.57-4.25,2.64-7.53,2.64s-6.12-1.07-7.53-2.64c0,1.46,0,3-.14,4.51,1.36,1.66,4.28,2.8,7.67,2.8s6.3-1.14,7.66-2.8C97.5,75.56,97.46,74.05,97.48,72.59Z"/><path class="cls-4" d="M98.28,82.16c-.75,2.26-4.2,4-8.33,4s-7.58-1.71-8.33-4a44.31,44.31,0,0,1-1.06,4.39C81.59,89,85.4,90.8,90,90.8S98.3,89,99.34,86.55A44.31,44.31,0,0,1,98.28,82.16Z"/><path class="cls-5" d="M99.34,86.55a44.31,44.31,0,0,1-1.06-4.39c-.75,2.26-4.2,4-8.33,4V90.8C94.49,90.8,98.3,89,99.34,86.55Z"/><path class="cls-3" d="M98.28,82.16c-.75,2.26-4.2,4-8.33,4s-7.58-1.71-8.33-4a44.31,44.31,0,0,1-1.06,4.39C81.59,89,85.4,90.8,90,90.8S98.3,89,99.34,86.55A44.31,44.31,0,0,1,98.28,82.16Z"/></g></g></svg>