<svg xmlns="http://www.w3.org/2000/svg" width="173.31" height="133.28" viewBox="0 0 173.31 133.28"><defs><style>.cls-1,.cls-5{fill:#fff;}.cls-1,.cls-3,.cls-4{stroke:#627386;}.cls-1,.cls-2,.cls-3,.cls-4,.cls-5,.cls-6,.cls-7,.cls-8{stroke-linecap:round;stroke-linejoin:round;stroke-width:2px;}.cls-2,.cls-8{fill:none;}.cls-2{stroke:#d5dae0;}.cls-3{fill:#d5dae0;}.cls-4{fill:#f2f4f6;}.cls-5,.cls-6,.cls-7{stroke:#1b6dc6;}.cls-6{fill:#bde4fd;}.cls-7{fill:#e9f6fe;}.cls-8{stroke:#bde4fd;}</style></defs><title>podium_02</title><g id="Layer_2" data-name="Layer 2"><g id="Layer_1-2" data-name="Layer 1"><polygon class="cls-1" points="129.48 19.1 86.66 43.83 129.48 68.56 172.31 43.83 129.48 19.1"/><polygon class="cls-2" points="103.58 43.83 129.48 28.87 155.39 43.83 129.48 58.79 103.58 43.83"/><polygon class="cls-3" points="172.31 58.1 129.48 82.83 129.48 68.56 172.31 43.83 172.31 58.1"/><polygon class="cls-4" points="86.66 58.1 129.48 82.83 129.48 68.56 86.66 43.83 86.66 58.1"/><polygon class="cls-5" points="86.66 1 43.83 25.73 43.83 82.83 86.66 58.1 129.48 82.83 129.48 25.73 86.66 1"/><polygon class="cls-6" points="129.48 82.83 86.66 107.56 86.66 50.45 129.48 25.73 129.48 82.83"/><polygon class="cls-7" points="43.83 82.83 86.66 107.56 86.66 50.45 43.83 25.73 43.83 82.83"/><polygon class="cls-1" points="43.83 54.28 1 79.01 43.83 103.73 86.66 79.01 43.83 54.28"/><polygon class="cls-2" points="17.92 79.01 43.83 64.05 69.74 79.01 43.83 93.97 17.92 79.01"/><polygon class="cls-3" points="86.66 107.56 43.83 132.28 43.83 103.73 86.66 79.01 86.66 107.56"/><polygon class="cls-4" points="1 107.56 43.83 132.28 43.83 103.73 1 79.01 1 107.56"/><polygon class="cls-8" points="60.75 25.73 86.66 10.77 112.56 25.73 86.66 40.69 60.75 25.73"/></g></g></svg>