<svg xmlns="http://www.w3.org/2000/svg" width="142.65" height="129.57" viewBox="0 0 142.65 129.57"><defs><style>.cls-1{fill:#f2f4f6;}.cls-1,.cls-3,.cls-4{stroke:#627386;}.cls-1,.cls-10,.cls-11,.cls-3,.cls-4,.cls-6,.cls-8,.cls-9{stroke-linecap:round;stroke-linejoin:round;stroke-width:2px;}.cls-2{fill:#fff;}.cls-11,.cls-3,.cls-8{fill:none;}.cls-4{fill:#d5dae0;}.cls-5{fill:#627386;}.cls-6{fill:#d3edfd;}.cls-10,.cls-11,.cls-6,.cls-8,.cls-9{stroke:#1b6dc6;}.cls-7{fill:#e9f6fe;}.cls-9{fill:#bde4fd;}.cls-10{fill:#91d2fb;}.cls-11{stroke-dasharray:0 5.47;}</style></defs><title>target_01</title><g id="Layer_2" data-name="Layer 2"><g id="Layer_1-2" data-name="Layer 1"><path class="cls-1" d="M76.8,13.22l2.69-4.33L70.73,3.83h0C63.34-.43,53.7,0,43.15,6.06,19.87,19.5,1,55.56,1,86.59c0,17,5.65,28.94,14.57,34.09h0l8.76,5.06L26,120.8A36.76,36.76,0,0,0,39,116C62.23,102.59,81.1,66.54,81.1,35.5,81.1,26.61,79.55,19.1,76.8,13.22Z"/><path class="cls-2" d="M76.8,13.22l2.69-4.33L70.73,3.83h0C63.34-.43,53.7,0,43.15,6.06,30.42,13.41,19,27.52,11.3,43.87l58,33.5,6.21-10.75A96.72,96.72,0,0,0,81.1,35.5C81.1,26.61,79.55,19.1,76.8,13.22Z"/><path class="cls-3" d="M76.8,13.22l2.69-4.33L70.73,3.83h0C63.34-.43,53.7,0,43.15,6.06,19.87,19.5,1,55.56,1,86.59c0,17,5.65,28.94,14.57,34.09h0l8.76,5.06L26,120.8A36.76,36.76,0,0,0,39,116C62.23,102.59,81.1,66.54,81.1,35.5,81.1,26.61,79.55,19.1,76.8,13.22Z"/><ellipse class="cls-4" cx="51.91" cy="67.32" rx="64.71" ry="36.61" transform="translate(-30.36 88.72) rotate(-66.95)"/><ellipse class="cls-1" cx="51.91" cy="67.32" rx="48.36" ry="27.36" transform="translate(-30.36 88.72) rotate(-66.95)"/><ellipse class="cls-4" cx="51.91" cy="67.32" rx="32.24" ry="18.24" transform="translate(-30.36 88.72) rotate(-66.95)"/><ellipse class="cls-1" cx="51.91" cy="67.32" rx="16.12" ry="9.12" transform="translate(-30.36 88.72) rotate(-66.95)"/><ellipse class="cls-5" cx="51.91" cy="67.32" rx="3.07" ry="1.74" transform="translate(-30.36 88.72) rotate(-66.95)"/><polygon class="cls-4" points="70.47 72.91 56.95 70.22 66.67 80.96 70.47 72.91"/><polygon class="cls-6" points="70.47 72.91 56.95 70.22 66.67 80.96 70.47 72.91"/><polygon class="cls-7" points="68.57 76.94 70.47 72.91 56.95 70.22 68.57 76.94"/><polygon class="cls-8" points="70.47 72.91 56.95 70.22 66.67 80.96 70.47 72.91"/><ellipse class="cls-9" cx="68.99" cy="77.18" rx="4.54" ry="2.57" transform="translate(-29.04 110.44) rotate(-66.95)"/><line class="cls-8" x1="69.82" y1="77.66" x2="108.37" y2="99.91"/><polygon class="cls-10" points="116.54 104.63 114.89 108.19 106.72 103.48 108.37 99.91 116.54 104.63"/><polygon class="cls-10" points="116.54 104.63 122.72 103.68 114.54 98.96 108.37 99.91 116.54 104.63"/><line class="cls-8" x1="122.72" y1="103.68" x2="122.72" y2="103.68"/><line class="cls-11" x1="127.45" y1="106.41" x2="139.28" y2="113.24"/><line class="cls-8" x1="141.65" y1="114.61" x2="141.65" y2="114.61"/><line class="cls-8" x1="114.89" y1="108.2" x2="114.89" y2="108.2"/><line class="cls-11" x1="119.62" y1="110.93" x2="131.45" y2="117.76"/><line class="cls-8" x1="133.82" y1="119.13" x2="133.82" y2="119.13"/></g></g></svg>