<svg xmlns="http://www.w3.org/2000/svg" width="78.12" height="68.3" viewBox="0 0 78.12 68.3"><defs><style>.cls-1{fill:#b8bfca;}.cls-1,.cls-2,.cls-3,.cls-4,.cls-5{stroke:#627386;stroke-linecap:round;stroke-linejoin:round;stroke-width:2px;}.cls-2{fill:#fff;}.cls-3{fill:#d5dae0;}.cls-4{fill:none;}.cls-5{fill:#f2f4f6;}</style></defs><title>Bus_02</title><g id="Layer_2" data-name="Layer 2"><g id="Layer_1-2" data-name="Layer 1"><path class="cls-1" d="M27.71,63.1l1.8-3.82L27.29,58h0a1.8,1.8,0,0,0-1.85.15,6.75,6.75,0,0,0-2.82,5.39,2.51,2.51,0,0,0,1,2.29h0l2.23,1.28,1.89-4Z"/><path class="cls-1" d="M63.84,42.24l1.81-3.82-2.22-1.29h0a1.8,1.8,0,0,0-1.84.14,6.77,6.77,0,0,0-2.83,5.4,2.48,2.48,0,0,0,1,2.28h0L62,46.25l1.89-4Z"/><path class="cls-1" d="M71.79,37.65l1.8-3.82-2.22-1.28h0a1.8,1.8,0,0,0-1.85.15,6.75,6.75,0,0,0-2.82,5.39,2.51,2.51,0,0,0,1,2.29h0l2.23,1.28,1.89-4Z"/><path class="cls-2" d="M6.68,32.14,60.62,1l16.5,9.53L17.5,67.26,1,57.74V43C1,38.81,3.54,34,6.68,32.14Z"/><polygon class="cls-3" points="17.5 67.26 1 57.73 1 46.94 24.57 60.54 17.5 67.26"/><path class="cls-4" d="M6.68,32.14,60.62,1l16.5,9.53L17.5,67.26,1,57.74V43C1,38.81,3.54,34,6.68,32.14Z"/><path class="cls-5" d="M17.5,67.26,77.12,32.84V10.53L23.18,41.67c-3.13,1.81-5.68,6.67-5.68,10.85Z"/><polygon class="cls-1" points="17.5 60.09 17.5 60.09 17.5 60.09 17.5 60.09"/><path class="cls-1" d="M6.68,32.14l16.5,9.53h0c-3.13,1.81-5.68,6.67-5.68,10.85v7.57L1,50.56V43C1,38.81,3.54,34,6.68,32.14Z"/><ellipse class="cls-3" cx="27.66" cy="63.2" rx="4.34" ry="2.45" transform="translate(-41.32 63.91) rotate(-66.95)"/><ellipse class="cls-3" cx="63.8" cy="42.33" rx="4.34" ry="2.45" transform="translate(-0.14 84.46) rotate(-66.95)"/><ellipse class="cls-3" cx="71.74" cy="37.75" rx="4.34" ry="2.45" transform="translate(8.92 88.98) rotate(-66.95)"/><path class="cls-1" d="M23.18,41.67l27-15.57,27-15.57V18.1a14,14,0,0,1-1.55,6.11A11.46,11.46,0,0,1,71.45,29l-27,15.57-27,15.57V52.52a14,14,0,0,1,1.56-6.11A11.46,11.46,0,0,1,23.18,41.67Z"/><line class="cls-4" x1="24.84" y1="40.72" x2="24.84" y2="55.85"/><line class="cls-4" x1="70.15" y1="14.56" x2="70.15" y2="29.7"/><line class="cls-4" x1="47.31" y1="42.65" x2="47.31" y2="27.74"/></g></g></svg>