<svg xmlns="http://www.w3.org/2000/svg" width="61.61" height="45.62" viewBox="0 0 61.61 45.62"><defs><style>.cls-1{fill:#b8bfca;}.cls-1,.cls-2,.cls-3,.cls-4{stroke:#627386;stroke-linecap:round;stroke-linejoin:round;stroke-width:2px;}.cls-2{fill:#f2f4f6;}.cls-3{fill:none;}.cls-4{fill:#d5dae0;}</style></defs><title>Car_03</title><g id="Layer_2" data-name="Layer 2"><g id="Layer_1-2" data-name="Layer 1"><path class="cls-1" d="M9.47,27,7.18,22.09,10,20.47h0a2.31,2.31,0,0,1,2.34.18c2,1.15,3.59,4.22,3.59,6.86a3.17,3.17,0,0,1-1.24,2.9h0L11.88,32,9.48,27Z"/><path class="cls-1" d="M30.84,39.28l-2.29-4.85,2.82-1.63h0a2.3,2.3,0,0,1,2.35.19c2,1.14,3.58,4.21,3.58,6.86a3.18,3.18,0,0,1-1.24,2.9h0l-2.82,1.63-2.4-5.09Z"/><polygon class="cls-1" points="30.12 1 27.37 6.67 17.15 2.59 17.15 9.92 60.61 35.01 60.61 26.89 54.05 23.1 49.67 12.29 30.12 1"/><polygon class="cls-1" points="17.15 2.59 1 11.92 11.21 15.99 27.37 6.67 17.15 2.59"/><polygon class="cls-1" points="13.96 10.33 11.21 15.99 1 11.92 1 19.25 44.46 44.34 44.46 36.21 37.89 32.42 33.52 21.62 13.96 10.33"/><polygon class="cls-1" points="60.61 35.01 44.46 44.34 44.46 36.21 60.61 26.89 60.61 35.01"/><polygon class="cls-1" points="60.61 26.89 54.05 23.1 37.89 32.42 44.46 36.21 60.61 26.89"/><polygon class="cls-2" points="54.05 23.1 49.67 12.29 33.52 21.62 37.89 32.42 54.05 23.1"/><polygon class="cls-1" points="49.67 12.29 30.12 1 13.96 10.33 33.52 21.62 49.67 12.29"/><line class="cls-3" x1="52.53" y1="32.42" x2="52.53" y2="39.67"/><polygon class="cls-4" points="13.96 10.33 30.12 1 49.67 12.29 33.52 21.62 13.96 10.33"/><line class="cls-3" x1="23.37" y1="15.82" x2="23.37" y2="24.96"/><line class="cls-3" x1="33.16" y1="10.17" x2="29.47" y2="12.3"/><ellipse class="cls-4" cx="30.89" cy="39.4" rx="3.12" ry="5.51" transform="translate(-12.96 15.24) rotate(-23.05)"/><ellipse class="cls-4" cx="9.53" cy="27.07" rx="3.12" ry="5.51" transform="translate(-9.84 5.89) rotate(-23.05)"/></g></g></svg>