<svg xmlns="http://www.w3.org/2000/svg" width="144.8" height="134.22" viewBox="0 0 144.8 134.22"><defs><style>.cls-1,.cls-4{fill:#f2f4f6;}.cls-1,.cls-2,.cls-3,.cls-5{stroke:#627386;stroke-linecap:round;stroke-linejoin:round;stroke-width:2px;}.cls-2{fill:#fff;}.cls-3{fill:#d5dae0;}.cls-5{fill:none;}.cls-6{fill:#627386;}</style></defs><title>forklift_01</title><g id="Layer_2" data-name="Layer 2"><g id="Layer_1-2" data-name="Layer 1"><path class="cls-1" d="M100.86,110.62l4.64-9.82-5.71-3.3h0c-1.27-.73-2.93-.67-4.75.38-4,2.31-7.26,8.53-7.26,13.88,0,2.92,1,5,2.51,5.86h0l5.71,3.3,4.86-10.3Z"/><path class="cls-1" d="M134.56,91.45l5.05-10.71-6.23-3.6h0c-1.39-.8-3.2-.73-5.18.41-4.38,2.53-7.93,9.31-7.93,15.14,0,3.19,1.07,5.43,2.75,6.4h0l6.23,3.6,5.31-11.24Z"/><path class="cls-2" d="M88.12,102.52,52.19,81.78l54.22-31.3a7.82,7.82,0,0,1,7.08,0l28.85,16.65c1.94,1.12,1.94,3,0,4.09Z"/><path class="cls-1" d="M142.34,71.22l-41.6,22.94,16.35-57.82L81.16,19.65v-4l-4.45,2.57-9.63,5.56c-8.22,4.75-14.89,17.48-14.89,28.45V93.55L88.12,114.3,142.34,83a2.51,2.51,0,0,0,1.46-2V69.18A2.48,2.48,0,0,1,142.34,71.22Z"/><path class="cls-2" d="M88.12,78.81l16.19-28L63,26.89A37.62,37.62,0,0,0,52.19,52.18v5.88Z"/><path class="cls-3" d="M142.34,71.22,117.09,85.8V36.34L103,44.47c-8.23,4.75-14.89,23.37-14.89,34.34v23.71l-.22,11.65.22.13L142.34,83a2.51,2.51,0,0,0,1.46-2V69.18A2.48,2.48,0,0,1,142.34,71.22Z"/><path class="cls-1" d="M117.09,62.08V36.34L103,44.47c-8.23,4.75-14.89,23.37-14.89,34.34Z"/><ellipse class="cls-3" cx="100.74" cy="110.87" rx="11.15" ry="6.31" transform="translate(-40.72 160.16) rotate(-66.95)"/><ellipse class="cls-2" cx="100.74" cy="110.87" rx="3.78" ry="2.14" transform="translate(-40.72 160.16) rotate(-66.95)"/><ellipse class="cls-3" cx="134.43" cy="91.72" rx="12.17" ry="6.88" transform="translate(-2.61 179.5) rotate(-66.95)"/><ellipse class="cls-2" cx="134.17" cy="91.57" rx="3.78" ry="2.14" transform="translate(-2.63 179.17) rotate(-66.95)"/><polygon class="cls-2" points="67.08 23.73 103.01 44.48 117.09 36.34 81.16 15.6 67.08 23.73"/><path class="cls-3" d="M106.59,30.28,81.16,15.6l-19,11-7.63-.1v5.89h0a2.84,2.84,0,0,0,1.68,2.34L84,50.78a9,9,0,0,0,8.13,0l25-14.44V30.46Z"/><path class="cls-4" d="M88.28,21.15,81.16,15.6l-19,11-7.63-.1v5.89a2.84,2.84,0,0,0,1.68,2.34L84,50.78a8.51,8.51,0,0,0,4.33.95Z"/><path class="cls-5" d="M106.59,30.28,81.16,15.6l-19,11-7.63-.1v5.89h0a2.84,2.84,0,0,0,1.68,2.34L84,50.78a9,9,0,0,0,8.13,0l25-14.44V30.46Z"/><path class="cls-2" d="M84,44.89l-27.79-16c-2.24-1.3-2.24-3.41,0-4.7l25-14.44,35.93,20.75-25,14.43A9,9,0,0,1,84,44.89Z"/><polygon class="cls-1" points="67.53 19.27 75.77 24.03 75.77 124.11 67.53 119.35 67.53 19.27"/><polygon class="cls-3" points="75.77 24.03 79.6 21.82 79.6 121.9 75.77 124.11 75.77 24.03"/><polygon class="cls-2" points="79.6 21.82 71.35 17.06 67.53 19.27 75.77 24.03 79.6 21.82"/><polygon class="cls-1" points="39.71 3.21 47.96 7.97 47.96 108.06 39.71 103.29 39.71 3.21"/><polygon class="cls-3" points="47.96 7.97 51.79 5.76 51.79 105.85 47.96 108.06 47.96 7.97"/><polygon class="cls-2" points="51.79 5.76 43.54 1 39.71 3.21 47.96 7.97 51.79 5.76"/><polygon class="cls-1" points="35.89 40.47 71.95 61.28 71.95 90.72 35.89 69.9 35.89 40.47"/><polygon class="cls-3" points="71.95 61.28 75.77 59.08 75.77 88.51 71.95 90.72 71.95 61.28"/><polygon class="cls-2" points="75.77 59.08 39.71 38.26 35.89 40.47 71.95 61.28 75.77 59.08"/><polygon class="cls-2" points="47.96 90.39 9.25 112.75 1 107.98 39.71 85.63 47.96 90.39"/><polygon class="cls-3" points="47.96 90.39 47.96 94.81 9.25 117.16 9.25 112.75 47.96 90.39"/><polygon class="cls-2" points="75.77 106.45 37.06 128.8 28.81 124.04 67.53 101.69 75.77 106.45"/><polygon class="cls-3" points="75.77 106.45 75.77 110.86 37.06 133.22 37.06 128.8 48.68 122.09 75.77 106.45"/><polygon class="cls-1" points="37.06 133.22 37.06 128.8 28.81 124.04 28.81 128.28 37.06 133.22"/><path class="cls-6" d="M98.76,96.4a.47.47,0,0,1-.15.16l-2.92,1.68a.14.14,0,0,1-.22,0,.5.5,0,0,1,.06-.4l5.33-9.06c.12-.2.12-.45,0-.51l-5.32-3a.25.25,0,0,1-.09-.25.53.53,0,0,1,.23-.39L98.49,83a.14.14,0,0,1,.15,0l5.8,3.16,0,0c.09,0,.09.23,0,.38l-.06.11Z"/><path class="cls-6" d="M105.34,84.76c.09,0,.23,0,.32-.18l4.65-7.84a.68.68,0,0,0,.09-.35c0-.14-.12-.19-.23-.13l-2.81,1.63a.34.34,0,0,0-.15.16l-3.27,5.43c-.11.2-.11.44,0,.51Z"/><path class="cls-6" d="M105.32,87c.09-.16.23-.24.32-.19l4.72,2.41a.23.23,0,0,1,.09.25.55.55,0,0,1-.23.39l-2.81,1.62a.17.17,0,0,1-.15,0L104,89.8c-.12-.07-.12-.31,0-.51Z"/><polygon class="cls-1" points="9.25 117.16 9.25 112.75 1 107.98 1 112.22 9.25 117.16"/></g></g></svg>