<svg xmlns="http://www.w3.org/2000/svg" width="56.45" height="56.8" viewBox="0 0 56.45 56.8"><defs><style>.cls-1{fill:#b8bfca;}.cls-1,.cls-2,.cls-4,.cls-5{stroke:#627386;}.cls-1,.cls-2,.cls-3,.cls-4,.cls-5{stroke-linecap:round;stroke-linejoin:round;stroke-width:2px;}.cls-2{fill:#d5dae0;}.cls-3{fill:none;stroke:#fff;}.cls-4{fill:#f2f4f6;}.cls-5{fill:#fff;}</style></defs><title>Truck_03</title><g id="Layer_2" data-name="Layer 2"><g id="Layer_1-2" data-name="Layer 1"><path class="cls-1" d="M21.73,51.32l1.92-4.07-2.36-1.37h0a1.91,1.91,0,0,0-2,.15,7.2,7.2,0,0,0-3,5.75,2.67,2.67,0,0,0,1.05,2.44h0l2.37,1.37,2-4.27Z"/><path class="cls-1" d="M51.46,34.11,53.38,30,51,28.67h0a1.91,1.91,0,0,0-2,.15,7.21,7.21,0,0,0-3,5.76,2.66,2.66,0,0,0,1,2.43h0l2.37,1.37,2-4.27Z"/><path class="cls-1" d="M33.22,44.64l1.92-4.07-2.37-1.36h0a1.9,1.9,0,0,0-2,.16,7.21,7.21,0,0,0-3,5.75,2.68,2.68,0,0,0,1,2.43h0l2.37,1.37,2-4.27Z"/><polygon class="cls-1" points="11.92 39.85 26.09 48.03 26.09 26.13 11.92 17.95 11.92 39.85"/><polygon class="cls-2" points="26.09 45.71 55.45 28.77 55.45 9.18 26.09 26.13 26.09 45.71"/><line class="cls-3" x1="36.97" y1="29.54" x2="44.56" y2="25.15"/><polygon class="cls-4" points="11.92 17.95 26.09 26.13 55.45 9.18 41.27 1 11.92 17.95"/><ellipse class="cls-2" cx="33.17" cy="44.75" rx="4.62" ry="2.62" transform="translate(-20.99 57.75) rotate(-66.95)"/><polygon class="cls-1" points="11.92 39.85 26.09 48.03 26.09 31.8 11.92 23.62 11.92 39.85"/><polygon class="cls-2" points="1 46.16 15.17 54.34 15.17 47.85 1 39.67 1 46.16"/><path class="cls-5" d="M4.68,27.8l7.24-4.18L26.09,31.8S19.68,36,18.85,36,4.68,27.8,4.68,27.8Z"/><path class="cls-4" d="M4.68,27.8,18.85,36l-2.69,4.14a6.07,6.07,0,0,0-1,3.33v4.41L1,39.67v-4.4a6.07,6.07,0,0,1,1-3.33Z"/><path class="cls-4" d="M15.17,54.34V43.45a6.07,6.07,0,0,1,1-3.33L18.85,36l7.24-4.18V48Z"/><ellipse class="cls-2" cx="51.41" cy="34.21" rx="4.62" ry="2.62" transform="translate(-0.2 68.12) rotate(-66.95)"/><ellipse class="cls-2" cx="21.68" cy="51.42" rx="4.62" ry="2.62" transform="translate(-34.12 51.24) rotate(-66.95)"/></g></g></svg>