<svg xmlns="http://www.w3.org/2000/svg" width="62.97" height="63.36" viewBox="0 0 62.97 63.36"><defs><style>.cls-1{fill:#b8bfca;}.cls-1,.cls-2,.cls-4,.cls-5{stroke:#627386;}.cls-1,.cls-2,.cls-3,.cls-4,.cls-5{stroke-linecap:round;stroke-linejoin:round;stroke-width:2px;}.cls-2{fill:#d5dae0;}.cls-3{fill:none;stroke:#fff;}.cls-4{fill:#f2f4f6;}.cls-5{fill:#fff;}</style></defs><title>Truck_01</title><g id="Layer_2" data-name="Layer 2"><g id="Layer_1-2" data-name="Layer 1"><path class="cls-1" d="M38.75,57.35,36.6,52.79l2.65-1.53h0a2.16,2.16,0,0,1,2.21.18,8.07,8.07,0,0,1,3.37,6.44,3,3,0,0,1-1.17,2.72h0L41,62.14l-2.25-4.78Z"/><path class="cls-1" d="M5.46,38.08,3.31,33.52,6,32H6a2.16,2.16,0,0,1,2.21.18,8.07,8.07,0,0,1,3.37,6.44,3,3,0,0,1-1.17,2.72h0L7.72,42.87,5.47,38.09Z"/><path class="cls-1" d="M25.89,49.87l-2.15-4.56,2.65-1.53h0A2.16,2.16,0,0,1,28.6,44,8.09,8.09,0,0,1,32,50.4a3,3,0,0,1-1.17,2.73h0l-2.65,1.53-2.26-4.78Z"/><polygon class="cls-1" points="49.74 44.51 33.87 53.67 33.87 29.14 49.74 19.98 49.74 44.51"/><polygon class="cls-2" points="33.87 51.07 1 32.09 1 10.16 33.87 29.14 33.87 51.07"/><line class="cls-3" x1="21.69" y1="32.95" x2="13.18" y2="28.05"/><polygon class="cls-4" points="49.74 19.98 33.87 29.14 1 10.16 16.87 1 49.74 19.98"/><ellipse class="cls-2" cx="25.94" cy="49.99" rx="2.93" ry="5.18" transform="translate(-17.5 14.15) rotate(-23.05)"/><polygon class="cls-1" points="49.74 44.51 33.87 53.67 33.87 35.49 49.74 26.33 49.74 44.51"/><polygon class="cls-2" points="61.97 51.57 46.1 60.73 46.1 53.47 61.97 44.31 61.97 51.57"/><path class="cls-5" d="M57.85,31l-8.11-4.68L33.87,35.49s7.18,4.69,8.11,4.69S57.85,31,57.85,31Z"/><path class="cls-4" d="M57.85,31,42,40.18l3,4.63a6.76,6.76,0,0,1,1.11,3.73v4.93L62,44.31V39.38a6.85,6.85,0,0,0-1.11-3.73Z"/><path class="cls-4" d="M46.1,60.73V48.54A6.76,6.76,0,0,0,45,44.81l-3-4.63-8.11-4.69V53.67Z"/><ellipse class="cls-2" cx="5.52" cy="38.19" rx="2.93" ry="5.18" transform="translate(-14.51 5.21) rotate(-23.05)"/><ellipse class="cls-2" cx="38.81" cy="57.46" rx="2.93" ry="5.18" transform="translate(-19.4 19.78) rotate(-23.05)"/></g></g></svg>