<svg xmlns="http://www.w3.org/2000/svg" viewBox="0 0 126 126"><defs><style>.cls-1,.cls-2,.cls-3{fill:none;}.cls-1{stroke:#e4e7ea;}.cls-1,.cls-2{stroke-linecap:round;stroke-linejoin:round;stroke-width:2px;}.cls-2{stroke:#d5dae0;}</style></defs><title>data_cannot_be_fetched(1x1)</title><g id="Layer_2" data-name="Layer 2"><g id="Illustrations"><polyline class="cls-1" points="32 73.44 67.61 94 67.61 88.12 32 67.56"/><polygon class="cls-1" points="94 78.76 80.8 86.38 67.61 94 67.61 91.06 67.61 88.12 80.8 80.5 94 72.88 94 75.82 94 78.76"/><path class="cls-1" d="M32,56.58c0-1.88,1.14-2.75,2.55-1.93a6.09,6.09,0,0,1,2.56,4.88c0,1.88-1.14,2.75-2.56,1.93A6.11,6.11,0,0,1,32,56.58ZM47.52,69c1.41.81,2.55,0,2.55-1.94a6.12,6.12,0,0,0-2.55-4.88c-1.41-.81-2.56,0-2.56,1.93A6.14,6.14,0,0,0,47.52,69Z"/><ellipse class="cls-1" cx="57.35" cy="71.85" rx="2.22" ry="3.92" transform="translate(-23.55 28.19) rotate(-23.05)"/><polygon class="cls-2" points="64.67 50.87 54.04 57.01 54.04 50.87 64.67 44.72 64.67 50.87"/><line class="cls-1" x1="45.87" y1="54.91" x2="40.17" y2="51.62"/><polygon class="cls-2" points="64.67 44.72 54.04 50.87 32 38.14 42.64 32 64.67 44.72"/><line class="cls-1" x1="68.86" y1="59.12" x2="64.77" y2="61.48"/><line class="cls-1" x1="65.8" y1="67.79" x2="65.69" y2="67.85"/><line class="cls-1" x1="69.47" y1="65.67" x2="69.37" y2="65.73"/><path class="cls-2" d="M32,38.14V56.58c0-1.88,1.14-2.75,2.55-1.93a6.09,6.09,0,0,1,2.56,4.88L45,64.06c0-1.88,1.15-2.74,2.56-1.93A6.12,6.12,0,0,1,50.07,67h0l4,2.29V50.87Z"/><path class="cls-2" d="M61.56,63.63,59.94,61a3.17,3.17,0,0,0-1.06-1.09L54,57.12V69.3l.8.47c.22-1.45,1.26-2,2.51-1.33a6.07,6.07,0,0,1,2.5,4.22L62.23,74v-8.2A4.31,4.31,0,0,0,61.56,63.63Z"/><polygon class="cls-2" points="54.04 57.12 54.04 57.12 54.04 57.12 54.04 57.12"/><path class="cls-2" d="M72.2,57.49l-1.62-2.62a3.3,3.3,0,0,0-1.06-1.1L64.68,51,54,57.12l4.84,2.8A3.17,3.17,0,0,1,59.94,61l1.62,2.62a4.31,4.31,0,0,1,.67,2.21V74h0l10.64-6.15V59.7A4.28,4.28,0,0,0,72.2,57.49Z"/><line class="cls-2" x1="69.33" y1="83.19" x2="69.33" y2="73.94"/><line class="cls-2" x1="85.82" y1="73.67" x2="85.82" y2="64.42"/><polyline class="cls-2" points="32 73.44 67.61 94 94 78.76 94 72.88 85.82 68.16 85.82 70.02 69.33 79.53 69.33 73.94 82.59 66.29 72.85 60.67"/><polygon class="cls-1" points="69.33 79.54 85.82 70.02 85.82 64.42 69.33 73.94 69.33 79.54"/><rect class="cls-3" width="126" height="126"/></g></g></svg>