<svg xmlns="http://www.w3.org/2000/svg" viewBox="0 0 126 126"><defs><style>.cls-1,.cls-2,.cls-3,.cls-4{fill:none;}.cls-1,.cls-2{stroke:#e4e7ea;}.cls-1,.cls-2,.cls-3{stroke-linecap:round;stroke-linejoin:round;stroke-width:2px;}.cls-2{stroke-dasharray:0 5.1;}.cls-3{stroke:#d5dae0;}</style></defs><title>data_to_be_fetched(1x1)</title><g id="Layer_2" data-name="Layer 2"><g id="Illustrations"><polyline class="cls-1" points="94 70.99 58.39 91.55 58.39 85.67 94 65.11"/><polygon class="cls-1" points="32 76.31 45.2 83.93 58.39 91.55 58.39 88.61 58.39 85.67 45.2 78.05 32 70.43 32 73.37 32 76.31"/><line class="cls-1" x1="58.46" y1="70.39" x2="58.46" y2="70.39"/><line class="cls-2" x1="54.04" y1="72.95" x2="47.41" y2="76.77"/><line class="cls-1" x1="45.2" y1="78.05" x2="45.2" y2="78.05"/><polygon class="cls-1" points="44 70.43 38 73.89 38 67.43 44 63.96 44 70.43"/><path class="cls-1" d="M32,64v6.47l6,3.47V67.43Z"/><polygon class="cls-1" points="44 63.96 38 60.5 32 63.96 38 67.43 44 63.96"/><polygon class="cls-3" points="44 63.96 38 60.5 32 63.96 32 70.43 38 73.89 38 73.89 38 73.89 38 73.89 38 73.89 44 70.43 44 63.96"/><path class="cls-1" d="M62.82,72.92a6.31,6.31,0,0,1,2.64-5c1.45-.84,2.63.05,2.63,2a6.33,6.33,0,0,1-2.63,5C64,75.75,62.82,74.86,62.82,72.92Zm16-5.73a6.29,6.29,0,0,0,2.64-5c0-1.94-1.18-2.83-2.64-2a6.31,6.31,0,0,0-2.63,5C76.19,67.14,77.37,68,78.82,67.19Z"/><ellipse class="cls-1" cx="89.77" cy="57.36" rx="4.04" ry="2.29" transform="translate(1.85 117.5) rotate(-66.95)"/><polygon class="cls-1" points="51.85 52.58 62.82 58.92 62.82 53.9 51.85 47.57 51.85 52.58"/><line class="cls-1" x1="51.85" y1="66.58" x2="62.82" y2="60.25"/><path class="cls-3" d="M51.85,66.58c0,1.94,1.18,2.83,2.64,2a2.7,2.7,0,0,0,.36-.26Z"/><path class="cls-3" d="M62.82,53.9v19a6.31,6.31,0,0,1,2.64-5c1.45-.84,2.63.05,2.63,2l8.1-4.67a6.3,6.3,0,0,1,2.63-5c1.46-.84,2.64,0,2.64,2l4.09-2.36v-19Z"/><polygon class="cls-3" points="51.85 47.57 62.82 53.9 85.55 40.78 74.58 34.45 51.85 47.57"/><polygon class="cls-3" points="85.42 40.86 85.42 40.86 74.58 47.12 74.58 47.12 85.42 40.86"/><path class="cls-3" d="M85.55,40.93v6.68L91,44.47l2,.78s.08,0,.12.08v0Z"/><path class="cls-3" d="M93,45.25l-2-.78-5.43,3.14V59.8l1.59-.92a6.33,6.33,0,0,1,2.63-5c1.46-.84,2.64.06,2.64,2l1.33-.77V46.89C93.74,46,93.49,45.43,93,45.25Z"/><polygon class="cls-3" points="51.85 66.58 62.82 72.92 62.82 53.9 51.85 47.57 51.85 66.58"/><line class="cls-3" x1="43.6" y1="63.73" x2="51.85" y2="58.97"/><line class="cls-3" x1="94" y1="70.99" x2="58.39" y2="91.55"/><line class="cls-3" x1="58.39" y1="91.55" x2="32" y2="76.31"/><line class="cls-3" x1="32" y1="76.31" x2="32" y2="63.96"/><line class="cls-3" x1="32" y1="63.96" x2="38" y2="60.5"/><line class="cls-3" x1="38" y1="60.5" x2="43.6" y2="63.73"/><rect class="cls-4" width="126" height="126"/><line class="cls-1" x1="70.99" y1="58.22" x2="76.69" y2="54.93"/></g></g></svg>