<svg xmlns="http://www.w3.org/2000/svg" viewBox="0 0 126 126"><defs><style>.cls-1,.cls-2,.cls-3{fill:none;}.cls-2{stroke:#e4e7ea;}.cls-2,.cls-3{stroke-linecap:round;stroke-linejoin:round;stroke-width:2px;}.cls-3{stroke:#d5dae0;}</style></defs><title>no_anomalies(1x1)</title><g id="Layer_2" data-name="Layer 2"><g id="Illustrations"><polygon class="cls-1" points="50.69 75.79 50.69 80.31 32 83.2 32 78.68 50.69 75.79"/><ellipse class="cls-1" cx="85.33" cy="75.06" rx="8.67" ry="5.01"/><polygon class="cls-2" points="50.69 75.79 32 78.68 37.01 67.89 50.69 75.79"/><ellipse class="cls-2" cx="85.33" cy="70.46" rx="8.67" ry="5.01"/><polygon class="cls-3" points="37.01 67.89 32 78.68 32 83.2 50.69 80.31 50.69 75.79 37.01 67.89"/><path class="cls-3" d="M91.46,66.92a13.52,13.52,0,0,0-12.26,0c-1.69,1-2.54,2.26-2.54,3.54v4.6c0,1.28.85,2.56,2.54,3.54a13.58,13.58,0,0,0,12.26,0c1.69-1,2.54-2.26,2.54-3.54h0v-4.6C94,69.18,93.15,67.9,91.46,66.92Z"/><ellipse class="cls-1" cx="65.71" cy="63.73" rx="8.67" ry="5.01"/><ellipse class="cls-2" cx="65.71" cy="59.13" rx="8.67" ry="5.01"/><path class="cls-3" d="M71.84,55.59a13.58,13.58,0,0,0-12.26,0c-1.69,1-2.54,2.26-2.54,3.54v4.6c0,1.29.85,2.57,2.54,3.54a13.52,13.52,0,0,0,12.26,0c1.7-1,2.54-2.25,2.54-3.54h0v-4.6C74.38,57.85,73.54,56.57,71.84,55.59Z"/><ellipse class="cls-1" cx="46.1" cy="52.41" rx="8.67" ry="5.01"/><ellipse class="cls-2" cx="46.1" cy="47.81" rx="8.67" ry="5.01"/><path class="cls-3" d="M52.23,44.27a13.52,13.52,0,0,0-12.26,0c-1.7,1-2.54,2.26-2.54,3.54v4.6c0,1.28.84,2.56,2.54,3.54a13.58,13.58,0,0,0,12.26,0c1.69-1,2.54-2.26,2.54-3.54h0v-4.6C54.77,46.53,53.92,45.24,52.23,44.27Z"/><rect class="cls-1" width="126" height="126"/></g></g></svg>