<svg xmlns="http://www.w3.org/2000/svg" viewBox="0 0 126 126"><defs><style>.cls-1,.cls-2,.cls-3{fill:none;}.cls-1{stroke:#d5dae0;}.cls-1,.cls-2{stroke-linecap:round;stroke-linejoin:round;stroke-width:2px;}.cls-2{stroke:#e4e7ea;}</style></defs><title>no_alerts(1x1)</title><g id="Layer_2" data-name="Layer 2"><g id="Illustrations"><path class="cls-1" d="M57.36,32c-11.87,0-21.5,5.56-21.5,12.42V81.59c0,6.85,9.63,12.41,21.5,12.41s21.5-5.56,21.5-12.41V44.42C78.86,37.56,69.24,32,57.36,32Z"/><ellipse class="cls-2" cx="57.36" cy="48.57" rx="16.62" ry="6.29"/><ellipse class="cls-1" cx="57.36" cy="45.41" rx="17.63" ry="9.44"/><path class="cls-1" d="M44.27,58.05a6.29,6.29,0,0,1,2.64-5c.94-.55,2.07-.65,2.36.79"/><path class="cls-1" d="M48.84,82.71c0,1.1-.67,1.6-1.48,1.12l-2.74-1.57-2.73-1.58a3.54,3.54,0,0,1-1.48-2.83V69.69a4.3,4.3,0,0,1,.66-2.49l2.18-3.06c.65-.92,2.09-.09,2.75,1.58l2.18,5.58a9.11,9.11,0,0,1,.66,3.26Z"/><line class="cls-1" x1="44.27" y1="58.05" x2="44.27" y2="65.99"/><line class="cls-2" x1="44.27" y1="69.53" x2="44.27" y2="73.49"/><line class="cls-2" x1="44.27" y1="77.57" x2="44.27" y2="77.45"/><path class="cls-1" d="M81.84,44.66a8.8,8.8,0,0,0-3,.55v7.17A8,8,0,0,1,80,51.56,3.73,3.73,0,0,1,81.84,51c1.39,0,2,2.18,2,4.34a18.46,18.46,0,0,1-5,12v7.6A10.69,10.69,0,0,0,80,74.33c5.67-3.27,10.11-11.64,10.11-19S86,44.66,81.84,44.66Z"/><rect class="cls-3" width="126" height="126"/></g></g></svg>