<svg xmlns="http://www.w3.org/2000/svg" viewBox="0 0 126 126"><defs><style>.cls-1,.cls-2,.cls-3{fill:none;}.cls-1{stroke:#e4e7ea;}.cls-1,.cls-2{stroke-linecap:round;stroke-linejoin:round;stroke-width:2px;}.cls-2{stroke:#d5dae0;}</style></defs><title>no_apps(1x1)</title><g id="Layer_2" data-name="Layer 2"><g id="Illustrations"><line class="cls-1" x1="73.62" y1="49.59" x2="73.62" y2="54.65"/><line class="cls-1" x1="61.53" y1="49.59" x2="61.53" y2="54.65"/><path class="cls-1" d="M55.16,56.82a2.66,2.66,0,0,1,1.44,1.26c.18.39,1,.51,1.54.22L63,55.5l-4.86-2.81c-.49-.28-.28-.78.39-.88A5,5,0,0,0,60.72,51a1.63,1.63,0,0,0,0-2.85,6.19,6.19,0,0,0-6-.2,2.46,2.46,0,0,0-1,1c-.18.4-1,.55-1.54.25L47.25,46.4,32.36,55c-.48.27-.48.72,0,1l14.89,8.59,4.86-2.8c.51-.3.26-.79-.44-.89a5.64,5.64,0,0,1-1.79-.6c-1.68-1-1.56-2.58.35-3.46A6.48,6.48,0,0,1,55.16,56.82Z"/><path class="cls-1" d="M65.28,60a4.9,4.9,0,0,1,2.19-.84c.68-.1.88-.6.39-.89L63,55.5l-4.86,2.8c-.49.29-1.36.17-1.54-.22a2.66,2.66,0,0,0-1.44-1.26,6.48,6.48,0,0,0-4.93,0c-1.91.88-2,2.49-.35,3.46a5.64,5.64,0,0,0,1.79.6c.7.1.95.59.44.89l-4.86,2.8,14.88,8.6a1.91,1.91,0,0,0,1.74,0l14.88-8.6-4.86-2.8c-.51-.3-1.36-.15-1.54.25a2.39,2.39,0,0,1-1,1,6.16,6.16,0,0,1-6-.2A1.62,1.62,0,0,1,65.28,60Z"/><path class="cls-1" d="M70.84,54.18a2.66,2.66,0,0,1-1.44-1.26c-.18-.39-1.05-.51-1.54-.23L63,55.5l4.86,2.8c.49.29.28.79-.39.89a4.79,4.79,0,0,0-2.19.84,1.62,1.62,0,0,0,0,2.84,6.16,6.16,0,0,0,6,.2,2.39,2.39,0,0,0,1-1c.18-.4,1-.55,1.54-.25l4.86,2.8L93.64,56c.48-.28.48-.73,0-1L78.75,46.4l-4.86,2.81c-.51.29-.26.79.44.89a5.18,5.18,0,0,1,1.79.6c1.68,1,1.56,2.58-.35,3.46A6.52,6.52,0,0,1,70.84,54.18Z"/><path class="cls-2" d="M32,55.5v6.2a.61.61,0,0,0,.36.5l14.89,8.59h0l14.88,8.6a1.91,1.91,0,0,0,1.74,0l14.88-8.6h0L93.64,62.2a.61.61,0,0,0,.36-.5V55.5"/><path class="cls-2" d="M94,55.5a.61.61,0,0,0-.36-.5L78.75,46.4l-4.86,2.81c-.51.29-.26.78.44.89a5.18,5.18,0,0,1,1.79.6c1.68,1,1.56,2.58-.35,3.46a6.52,6.52,0,0,1-4.93,0,2.66,2.66,0,0,1-1.44-1.26c-.18-.39-1.05-.51-1.54-.23L63,55.5l-4.86-2.81c-.49-.28-.28-.78.39-.88A5,5,0,0,0,60.72,51a1.63,1.63,0,0,0,0-2.85,6.19,6.19,0,0,0-6-.2,2.46,2.46,0,0,0-1,1c-.18.4-1,.55-1.54.25L47.25,46.4,32.36,55a.61.61,0,0,0-.36.5"/><rect class="cls-3" width="126" height="126"/><line class="cls-1" x1="70.99" y1="58.22" x2="76.69" y2="54.93"/></g></g></svg>