<svg xmlns="http://www.w3.org/2000/svg" viewBox="0 0 126 126"><defs><style>.cls-1,.cls-2,.cls-3{fill:none;}.cls-2{stroke:#e4e7ea;}.cls-2,.cls-3{stroke-linecap:round;stroke-linejoin:round;stroke-width:2px;}.cls-3{stroke:#d5dae0;}</style></defs><title>no_data(1x1)</title><g id="Layer_2" data-name="Layer 2"><g id="Illustrations"><rect class="cls-1" width="126" height="126"/><line class="cls-2" x1="76.55" y1="63.71" x2="70.55" y2="60.24"/><path class="cls-3" d="M41.91,60.07v16.4L63,88.64V72.24Z"/><line class="cls-2" x1="55.45" y1="75.89" x2="49.45" y2="72.42"/><polygon class="cls-3" points="84.09 60.06 94 60.98 72.91 73.15 63 72.24 84.09 60.06"/><polygon class="cls-3" points="63 47.89 53.09 37.36 32 49.53 41.91 60.06 63 47.89"/><polygon class="cls-3" points="63 64.29 63 64.29 63 47.89 41.91 60.06 56.11 68.27 63 64.29"/><polygon class="cls-3" points="84.09 60.06 63 47.89 63 64.29 69.89 68.27 84.09 60.06"/><polygon class="cls-3" points="72.91 73.15 63 72.24 63 88.64 84.09 76.47 84.09 66.7 72.91 73.15"/></g></g></svg>