<svg xmlns="http://www.w3.org/2000/svg" viewBox="0 0 126 126"><defs><style>.cls-1,.cls-2,.cls-3{fill:none;}.cls-1{stroke:#d5dae0;}.cls-1,.cls-3{stroke-linecap:round;stroke-linejoin:round;stroke-width:2px;}.cls-3{stroke:#e4e7ea;}</style></defs><title>no_impacted_clusters_1(1x1)</title><g id="Layer_2" data-name="Layer 2"><g id="Illustrations"><path class="cls-1" d="M51.37,42.53S47.06,52.83,56,56.43c3.95,1.59,7.62-1.76,7.62-1.76"/><path class="cls-1" d="M63.58,54.44s6.69,7.38,15.6,5.94C90,58.63,90.67,48.29,90.67,48.29"/><path class="cls-1" d="M92.23,42.53c1.38,3.54,3.19,9.46-1.7,6.11"/><path class="cls-1" d="M86.22,35.47c8,4.62,8.06,12.12.09,16.74s-20.9,4.63-28.91,0-8-12.12-.09-16.74S78.21,30.84,86.22,35.47Z"/><path class="cls-2" d="M77.55,81,60.34,71.07C52,66.51,45.91,58.26,45.91,50.66L32.27,58.53C32.27,69.76,42.4,76.46,46.72,79l17.2,9.92Z"/><line class="cls-1" x1="71.81" y1="60.38" x2="71.81" y2="77.69"/><polyline class="cls-1" points="55.42 67.75 56.94 64.22 64.73 68.71 65.91 74.26"/><line class="cls-1" x1="63.92" y1="88.87" x2="63.92" y2="94"/><line class="cls-1" x1="77.55" y1="81.02" x2="77.55" y2="86.15"/><path class="cls-3" d="M63.58,54.67C70.31,34,77,32.39,77,32.39"/><path class="cls-1" d="M51.37,42.53S47.06,52.83,56,56.43c3.95,1.59,7.62-1.76,7.62-1.76"/><path class="cls-1" d="M63.58,54.44s6.69,7.38,15.6,5.94C90,58.63,90.67,48.29,90.67,48.29"/><path class="cls-1" d="M92.23,42.53c1.38,3.54,3.19,9.46-1.7,6.11"/><path class="cls-3" d="M37.06,56c0,11.23,10.13,17.93,14.46,20.42L68.4,86.15"/><path class="cls-3" d="M41.65,53.24c0,11.23,10.13,17.93,14.45,20.42L73,83.38"/><polyline class="cls-1" points="38.64 79.37 42.5 71.44 49.33 76.56 51.51 86.81"/><path class="cls-1" d="M77.55,81,60.34,71.07C52,66.51,45.91,58.26,45.91,50.66L32.27,58.53C32.27,69.76,42.4,76.46,46.72,79l17.2,9.92Z"/><path class="cls-3" d="M52.89,39.33s20.2-9.67,37.64,9.31"/><path class="cls-1" d="M86.22,35.47c8,4.62,8.06,12.12.09,16.74s-20.9,4.63-28.91,0-8-12.12-.09-16.74S78.21,30.84,86.22,35.47Z"/><rect class="cls-2" width="126" height="126"/></g></g></svg>