<svg xmlns="http://www.w3.org/2000/svg" viewBox="0 0 126 126"><defs><style>.cls-1,.cls-2,.cls-3{fill:none;}.cls-1{stroke:#d5dae0;}.cls-1,.cls-2{stroke-linecap:round;stroke-linejoin:round;stroke-width:2px;}.cls-2{stroke:#e4e7ea;}</style></defs><title>no_impacted_clusters_2(1x1)</title><g id="Layer_2" data-name="Layer 2"><g id="Illustrations"><polygon class="cls-1" points="82.24 50.41 82.24 50.4 82.24 50.4 82.24 50.41"/><polygon class="cls-1" points="50.67 50.4 50.67 50.4 50.67 50.4 50.67 50.4"/><path class="cls-1" d="M77.65,56.87c-6.14,3.57-16.13,3.56-22.32,0-2.68-1.54-4.2-3.51-4.57-5.52L54.26,87c0,1.81,1.18,3.62,3.57,5,4.75,2.74,12.41,2.75,17.12,0,2.35-1.36,3.52-3.14,3.52-4.93l3.66-35.58C81.75,53.42,80.27,55.35,77.65,56.87Z"/><path class="cls-1" d="M60.36,42c5.71-1.38,12.55-.72,17.22,2,6.18,3.57,6.21,9.36.07,12.93s-16.13,3.57-22.32,0c-3.36-1.94-4.91-4.53-4.62-7.07"/><path class="cls-1" d="M57.29,37.64l-3.06-1.79c-1.84-1.07-4.38-.92-7.18.7C41.47,39.77,37,47.59,37,54c0,3.19,1.14,5.43,3,6.48l2.21,1.29.06-.1c.17.15.33.3.51.43,1.86,1.34,4.57,1.29,7.58-.45l.38-11.86L58.06,53a19.8,19.8,0,0,0,2.3-8.75C60.35,40.94,59.17,38.67,57.29,37.64Z"/><polygon class="cls-1" points="82.24 50.41 82.24 50.4 82.24 50.4 82.24 50.41"/><polygon class="cls-1" points="50.67 50.4 50.67 50.4 50.67 50.4 50.67 50.4"/><path class="cls-1" d="M77.65,56.87c-6.14,3.57-16.13,3.56-22.32,0-2.68-1.54-4.2-3.51-4.57-5.52L54.26,87c0,1.81,1.18,3.62,3.57,5,4.75,2.74,12.41,2.75,17.12,0,2.35-1.36,3.52-3.14,3.52-4.93l3.66-35.58C81.75,53.42,80.27,55.35,77.65,56.87Z"/><path class="cls-2" d="M55.07,59.55l2.58,24.89c0,1.3.86,2.6,2.58,3.6a13.63,13.63,0,0,0,12.36,0c1.69-1,2.53-2.27,2.54-3.55l2.71-24.94"/><path class="cls-2" d="M74.53,63.11c-4.43,2.58-11.64,2.58-16.1,0"/><path class="cls-2" d="M55.07,59.55c0-1.69,1.09-3.38,3.31-4.67,4.43-2.57,11.64-2.58,16.1,0,2.23,1.29,3.35,3,3.36,4.66"/><path class="cls-1" d="M70.71,59.12l4.88-23.85a4.08,4.08,0,0,1,5-3.14L89,34.31"/><line class="cls-2" x1="50.53" y1="43.16" x2="50.67" y2="49.78"/><line class="cls-2" x1="44.85" y1="54.54" x2="56.65" y2="44.87"/><line class="cls-2" x1="46.13" y1="48.69" x2="50.67" y2="49.78"/><path class="cls-2" d="M50.26,58c-2.94,1.3-5.42-.17-5.43-3.89,0-4.1,2.68-9.1,6-11.16s6-.4,6,3.7a15.94,15.94,0,0,1-1.09,4.89"/><path class="cls-1" d="M60.36,42c5.71-1.38,12.55-.72,17.22,2,6.18,3.57,6.21,9.36.07,12.93s-16.13,3.57-22.32,0c-3.36-1.94-4.91-4.53-4.62-7.07"/><path class="cls-2" d="M42.71,62.09c-1.58-1.14-2.54-3.28-2.55-6.23,0-6.41,4.49-14.22,10.07-17.45,2.74-1.58,5.23-1.76,7.06-.77s3.06,3.3,3.07,6.56A19.8,19.8,0,0,1,58.06,53l-7.39-3.17-.38,11.86c-3,1.74-5.72,1.79-7.58.45"/><path class="cls-1" d="M57.29,37.64l-3.06-1.79c-1.84-1.07-4.38-.92-7.18.7C41.47,39.77,37,47.59,37,54c0,3.19,1.14,5.43,3,6.48l2.21,1.29.06-.1c.17.15.33.3.51.43,1.86,1.34,4.57,1.29,7.58-.45l.38-11.86L58.06,53a19.8,19.8,0,0,0,2.3-8.75C60.35,40.94,59.17,38.67,57.29,37.64Z"/><rect class="cls-3" width="126" height="126"/></g></g></svg>