<svg xmlns="http://www.w3.org/2000/svg" viewBox="0 0 126 126"><defs><style>.cls-1,.cls-2,.cls-3{fill:none;}.cls-1{stroke:#d5dae0;}.cls-1,.cls-2{stroke-linecap:round;stroke-linejoin:round;stroke-width:2px;}.cls-2{stroke:#e4e7ea;}</style></defs><title>no_reports(1x1)</title><g id="Layer_2" data-name="Layer 2"><g id="Illustrations"><polygon class="cls-1" points="67.55 73.14 73.62 69.64 79.69 66.13 85.75 62.63 76.65 57.38 67.55 52.12 58.45 46.87 52.38 50.37 46.31 53.87 40.25 57.37 49.35 62.63 58.45 67.88 67.55 73.14"/><line class="cls-2" x1="70.03" y1="65.13" x2="76.22" y2="61.56"/><line class="cls-2" x1="66.03" y1="67.44" x2="66.2" y2="67.34"/><line class="cls-2" x1="64.59" y1="61.99" x2="70.78" y2="58.42"/><line class="cls-2" x1="60.59" y1="64.3" x2="60.76" y2="64.2"/><line class="cls-2" x1="70.03" y1="65.13" x2="76.22" y2="61.56"/><line class="cls-2" x1="66.03" y1="67.44" x2="66.2" y2="67.34"/><line class="cls-2" x1="64.59" y1="61.99" x2="70.78" y2="58.42"/><line class="cls-2" x1="60.59" y1="64.3" x2="60.76" y2="64.2"/><line class="cls-2" x1="59.15" y1="58.85" x2="65.34" y2="55.28"/><line class="cls-2" x1="55.15" y1="61.16" x2="55.32" y2="61.06"/><path class="cls-2" d="M92.88,64.62,81.94,70.94,71,77.25a6,6,0,0,1-5.41,0L48,67.11,33.12,58.5A1.88,1.88,0,0,1,32,56.94v6a1.88,1.88,0,0,0,1.12,1.56L48,73.11,65.59,83.25a6,6,0,0,0,5.41,0l10.94-6.32,10.94-6.31A1.91,1.91,0,0,0,94,69.06v-6A1.9,1.9,0,0,1,92.88,64.62Z"/><path class="cls-2" d="M92.88,61.5,75.32,51.36,60.41,42.75a6,6,0,0,0-5.41,0L44.06,49.07,33.12,55.38A1.91,1.91,0,0,0,32,56.94a1.88,1.88,0,0,0,1.12,1.56L48,67.11,65.59,77.25a6,6,0,0,0,5.41,0l10.94-6.31,10.94-6.32a1.65,1.65,0,0,0,0-3.12Z"/><path class="cls-1" d="M32,62.94a1.88,1.88,0,0,0,1.12,1.56L48,73.11,65.59,83.25a6,6,0,0,0,5.41,0l10.94-6.32,10.94-6.31A1.91,1.91,0,0,0,94,69.06v-6h0a1.88,1.88,0,0,0-1.12-1.56L75.32,51.36,60.41,42.75a6,6,0,0,0-5.41,0L44.06,49.07,33.12,55.38A1.91,1.91,0,0,0,32,56.94Z"/><line class="cls-2" x1="53.71" y1="55.71" x2="59.9" y2="52.14"/><line class="cls-2" x1="49.71" y1="58.02" x2="49.88" y2="57.92"/><rect class="cls-3" width="126" height="126"/></g></g></svg>