<svg xmlns="http://www.w3.org/2000/svg" viewBox="0 0 126 126"><defs><style>.cls-1,.cls-2,.cls-4{fill:none;}.cls-1{stroke:#e4e7ea;}.cls-1,.cls-2{stroke-linecap:round;stroke-linejoin:round;stroke-width:2px;}.cls-2{stroke:#d5dae0;}.cls-3{fill:#e4e7ea;}</style></defs><title>no_tasks(1x1)</title><g id="Layer_2" data-name="Layer 2"><g id="Illustrations"><path class="cls-1" d="M40.33,51.72l-7.21,4.17A1.88,1.88,0,0,0,32,57.45,1.91,1.91,0,0,0,33.12,59L48,67.62,65.59,77.75a6,6,0,0,0,5.41,0l10.94-6.31,10.94-6.32a1.65,1.65,0,0,0,0-3.12L75.32,51.86,60.41,43.25a6,6,0,0,0-5.41,0l-2.22,1.29"/><path class="cls-2" d="M36.73,50.73a2.35,2.35,0,0,0-.55,3.39"/><path class="cls-2" d="M40.35,51.71l-7.23,4.18A1.88,1.88,0,0,0,32,57.45v5A1.9,1.9,0,0,0,33.12,64L48,72.61,65.59,82.75a6,6,0,0,0,5.41,0l10.94-6.32,10.94-6.32A1.88,1.88,0,0,0,94,68.55v-5h0A1.9,1.9,0,0,0,92.88,62L75.32,51.86,60.41,43.25a6,6,0,0,0-5.41,0l-2.22,1.28"/><path class="cls-2" d="M36.73,50.73c3.64-.88,6.2,4.17,6.2,4.17l10.61-6.13s.73-5.09-3.2-5.89Z"/><polygon class="cls-3" points="69.27 55.61 64.12 65.94 56.7 64.7 58.04 61.99 61.9 62.59 65.75 55.06 69.27 55.61"/><rect class="cls-4" width="126" height="126"/></g></g></svg>