<svg xmlns="http://www.w3.org/2000/svg" width="626.85" height="696.54" viewBox="0 0 626.85 696.54"><defs><style>.cls-1,.cls-16{fill:#f2f4f6;}.cls-1,.cls-17,.cls-5,.cls-6,.cls-8{stroke:#627386;}.cls-1,.cls-10,.cls-12,.cls-13,.cls-14,.cls-17,.cls-3,.cls-4,.cls-5,.cls-6,.cls-8,.cls-9{stroke-linecap:round;stroke-linejoin:round;stroke-width:2px;}.cls-2,.cls-6{fill:#d5dae0;}.cls-12,.cls-3,.cls-4,.cls-5,.cls-9{fill:none;}.cls-3{stroke:#d5dae0;}.cls-4{stroke:#b8bfca;}.cls-17,.cls-7{fill:#b8bfca;}.cls-15,.cls-8{fill:#fff;}.cls-9{stroke:#f2f4f6;}.cls-10{fill:#d3edfd;}.cls-10,.cls-12,.cls-13,.cls-14{stroke:#1b6dc6;}.cls-11,.cls-13{fill:#bde4fd;}.cls-14{fill:#e9f6fe;}</style></defs><title>404</title><g id="Layer_2" data-name="Layer 2"><g id="Illustration"><path class="cls-1" d="M351,70.05,302.42,42a15.8,15.8,0,0,0-14.33,0L239.48,70.05H220.74V446.3h0c0,1.5,1,3,3,4.14l64.38,37.17a15.87,15.87,0,0,0,14.33,0l64.38-37.17c2-1.14,3-2.64,3-4.14V70.05Z"/><path class="cls-2" d="M302.42,487.61l64.38-37.17c2-1.14,3-2.64,3-4.14V70.05H351L302.42,42a14.68,14.68,0,0,0-7.17-1.72V489.32A14.68,14.68,0,0,0,302.42,487.61Z"/><path class="cls-3" d="M220.74,347.3h0c0,1.5,1,3,3,4.14l64.38,37.17a14.64,14.64,0,0,0,7.16,1.71"/><path class="cls-4" d="M295.25,390.32a14.68,14.68,0,0,0,7.17-1.71l64.38-37.17c2-1.14,3-2.64,3-4.14"/><path class="cls-3" d="M220.74,307.3h0c0,1.5,1,3,3,4.14l64.38,37.17a14.64,14.64,0,0,0,7.16,1.71"/><path class="cls-4" d="M295.25,350.32a14.68,14.68,0,0,0,7.17-1.71l64.38-37.17c2-1.14,3-2.64,3-4.14"/><path class="cls-3" d="M220.74,267.3h0c0,1.5,1,3,3,4.14l64.38,37.17a14.64,14.64,0,0,0,7.16,1.71"/><path class="cls-4" d="M295.25,310.32a14.68,14.68,0,0,0,7.17-1.71l64.38-37.17c2-1.14,3-2.64,3-4.14"/><path class="cls-3" d="M220.74,227.3h0c0,1.5,1,3,3,4.14l64.38,37.17a14.64,14.64,0,0,0,7.16,1.71"/><path class="cls-4" d="M295.25,270.32a14.68,14.68,0,0,0,7.17-1.71l64.38-37.17c2-1.14,3-2.64,3-4.14"/><path class="cls-3" d="M220.74,187.3h0c0,1.5,1,3,3,4.14l64.38,37.17a14.64,14.64,0,0,0,7.16,1.71"/><path class="cls-4" d="M295.25,230.32a14.68,14.68,0,0,0,7.17-1.71l64.38-37.17c2-1.14,3-2.64,3-4.14"/><path class="cls-3" d="M220.74,147.3h0c0,1.5,1,3,3,4.14l64.38,37.17a14.64,14.64,0,0,0,7.16,1.71"/><path class="cls-4" d="M295.25,190.32a14.68,14.68,0,0,0,7.17-1.71l64.38-37.17c2-1.14,3-2.64,3-4.14"/><path class="cls-3" d="M220.74,107.3h0c0,1.5,1,3,3,4.14l64.38,37.17a14.64,14.64,0,0,0,7.16,1.71"/><path class="cls-4" d="M295.25,150.32a14.68,14.68,0,0,0,7.17-1.71l64.38-37.17c2-1.14,3-2.64,3-4.14"/><path class="cls-5" d="M351,70.05,302.42,42a15.8,15.8,0,0,0-14.33,0L239.48,70.05H220.74V446.3h0c0,1.5,1,3,3,4.14l64.38,37.17a15.87,15.87,0,0,0,14.33,0l64.38-37.17c2-1.14,3-2.64,3-4.14V70.05Z"/><path class="cls-1" d="M366.8,74.19l-64.38,37.17a15.87,15.87,0,0,1-14.33,0L223.71,74.19c-4-2.29-4-6,0-8.28l64.38-37.17a15.8,15.8,0,0,1,14.33,0L366.8,65.91C370.76,68.2,370.76,71.9,366.8,74.19Z"/><path class="cls-6" d="M359.67,50.07l-55.44-32c-4.52-2.61-11.84-2.61-16.36,0l-55.44,32H211.05V65.19h0c0,1.7,1.13,3.41,3.39,4.72l73.43,42.39c4.52,2.61,11.84,2.61,16.36,0l73.43-42.39c2.26-1.31,3.39-3,3.39-4.72V50.07Z"/><path class="cls-7" d="M304.23,112.3l73.43-42.39c2.26-1.31,3.39-3,3.39-4.72V50.07H359.67l-55.44-32a16.66,16.66,0,0,0-8.18-2v98.15A16.66,16.66,0,0,0,304.23,112.3Z"/><path class="cls-5" d="M359.67,50.07l-55.44-32c-4.52-2.61-11.84-2.61-16.36,0l-55.44,32H211.05V65.19h0c0,1.7,1.13,3.41,3.39,4.72l73.43,42.39c4.52,2.61,11.84,2.61,16.36,0l73.43-42.39c2.26-1.31,3.39-3,3.39-4.72V50.07Z"/><path class="cls-1" d="M377.66,54.8,304.23,97.19c-4.52,2.61-11.84,2.61-16.36,0L214.44,54.8c-4.52-2.61-4.52-6.84,0-9.45L287.87,3C292.39.35,299.71.35,304.23,3l73.43,42.39C382.18,48,382.18,52.19,377.66,54.8Z"/><path class="cls-7" d="M266,51.67a1.42,1.42,0,0,1-.67-.18L255.79,46c-.31-.17-.44-.43-.29-.66a1.28,1.28,0,0,1,1.1-.41l32,1.59c.71,0,1.31-.31,1.25-.73l-2.62-18.53c0-.23.12-.45.44-.58a1.69,1.69,0,0,1,1.38.06l9.17,5.3a.57.57,0,0,1,.31.38l3,20.11,0,.19c0,.31-.4.57-.94.56h-.36Z"/><path class="cls-7" d="M306.61,53c.05.33.49.59,1.05.61l27.79,1.48a1.57,1.57,0,0,0,1-.25c.31-.26.25-.59-.12-.8l-9.16-5.29a1.51,1.51,0,0,0-.67-.18l-19.33-1.14c-.71,0-1.3.31-1.25.72Z"/><path class="cls-7" d="M301.05,56.14c.56,0,1,.28,1.05.61l2.82,16.15c0,.23-.12.45-.44.58a1.73,1.73,0,0,1-1.38-.06l-9.17-5.3a.6.6,0,0,1-.31-.38l-1.77-11.2c-.06-.41.53-.75,1.24-.72Z"/><line class="cls-4" x1="346.61" y1="183.09" x2="322.61" y2="196.95"/><line class="cls-4" x1="346.61" y1="223.09" x2="322.61" y2="236.95"/><line class="cls-4" x1="346.61" y1="263.09" x2="322.61" y2="276.95"/><line class="cls-4" x1="346.61" y1="303.09" x2="322.61" y2="316.95"/><line class="cls-4" x1="346.61" y1="343.09" x2="322.61" y2="356.95"/><line class="cls-4" x1="346.61" y1="143.09" x2="322.61" y2="156.95"/><line class="cls-3" x1="245.99" y1="183.09" x2="269.99" y2="196.95"/><line class="cls-3" x1="245.99" y1="223.09" x2="269.99" y2="236.95"/><line class="cls-3" x1="245.99" y1="263.09" x2="269.99" y2="276.95"/><line class="cls-3" x1="245.99" y1="303.09" x2="269.99" y2="316.95"/><line class="cls-3" x1="245.99" y1="343.09" x2="269.99" y2="356.95"/><line class="cls-3" x1="245.99" y1="143.09" x2="269.99" y2="156.95"/><line class="cls-4" x1="346.61" y1="103.09" x2="322.61" y2="116.95"/><line class="cls-3" x1="245.99" y1="103.09" x2="269.99" y2="116.95"/><polygon class="cls-6" points="197.14 310.81 197.14 350.69 159.6 372.36 159.6 471.87 159.6 565.8 197.14 544.13 234.67 522.46 234.67 383.07 234.67 339.79 234.67 289.14 197.14 310.81"/><line class="cls-4" x1="197.14" y1="363.94" x2="197.14" y2="530.88"/><line class="cls-5" x1="122.07" y1="350.69" x2="122.07" y2="544.13"/><polygon class="cls-1" points="159.6 372.36 159.6 471.87 159.6 565.8 122.07 544.13 84.53 522.46 84.53 419.91 84.53 329.02 122.07 350.69 159.6 372.36"/><polygon class="cls-3" points="102.92 533.18 102.92 383.54 140.61 405.3 140.61 554.94 102.92 533.18"/><line class="cls-3" x1="140.61" y1="361.57" x2="140.61" y2="382.6"/><line class="cls-3" x1="121.76" y1="350.68" x2="121.76" y2="371.72"/><line class="cls-3" x1="102.92" y1="339.81" x2="102.92" y2="360.84"/><polygon class="cls-5" points="159.6 372.36 159.6 471.87 159.6 565.8 122.07 544.13 84.53 522.46 84.53 419.91 84.53 329.02 122.07 350.69 159.6 372.36"/><polygon class="cls-8" points="234.67 289.14 159.6 245.8 122.07 267.47 197.14 310.81 234.67 289.14"/><polygon class="cls-8" points="197.14 350.69 122.07 307.35 84.53 329.02 159.6 372.36 197.14 350.69"/><polygon class="cls-1" points="197.14 350.69 122.07 307.35 122.07 267.47 197.14 310.81 197.14 350.69"/><line class="cls-3" x1="178.29" y1="299.93" x2="178.29" y2="339.81"/><line class="cls-3" x1="159.45" y1="289.04" x2="159.45" y2="328.92"/><line class="cls-3" x1="140.61" y1="278.17" x2="140.61" y2="318.05"/><polygon class="cls-5" points="197.14 350.69 122.07 307.35 122.07 267.47 197.14 310.81 197.14 350.69"/><line class="cls-9" x1="178.29" y1="339.81" x2="140.61" y2="361.57"/><line class="cls-9" x1="159.45" y1="328.92" x2="121.76" y2="350.68"/><line class="cls-9" x1="140.61" y1="318.05" x2="102.92" y2="339.81"/><polygon class="cls-5" points="197.14 350.69 122.07 307.35 84.53 329.02 159.6 372.36 197.14 350.69"/><polygon class="cls-5" points="197.14 310.81 197.14 350.69 159.6 372.36 159.6 471.87 159.6 565.8 197.14 544.13 234.67 522.46 234.67 383.07 234.67 339.79 234.67 289.14 197.14 310.81"/><line class="cls-4" x1="184.45" y1="512.41" x2="172.45" y2="519.34"/><line class="cls-4" x1="184.45" y1="512.41" x2="172.45" y2="519.34"/><line class="cls-4" x1="184.45" y1="473.81" x2="172.45" y2="480.74"/><line class="cls-4" x1="184.45" y1="435.21" x2="172.45" y2="442.14"/><line class="cls-4" x1="184.45" y1="396.61" x2="172.45" y2="403.54"/><line class="cls-4" x1="209.82" y1="381.96" x2="221.82" y2="375.04"/><line class="cls-4" x1="209.82" y1="420.56" x2="221.82" y2="413.64"/><line class="cls-4" x1="209.82" y1="343.36" x2="221.82" y2="336.44"/><line class="cls-4" x1="209.82" y1="459.16" x2="221.82" y2="452.24"/><line class="cls-4" x1="209.82" y1="497.76" x2="221.82" y2="490.84"/><path class="cls-10" d="M205.57,247.05v47.29c0,1.32-1.85,2.39-4.13,2.39s-4.14-1.07-4.14-2.39V247.05Z"/><path class="cls-10" d="M205.57,247.05v47.29c0,1.32-1.85,2.39-4.13,2.39s-4.14-1.07-4.14-2.39V247.05Z"/><path class="cls-11" d="M205.57,264.21v18c0,1.31-1.85,2.38-4.13,2.38s-4.14-1.07-4.14-2.38v-18Z"/><path class="cls-12" d="M205.57,247.05v47.29c0,1.32-1.85,2.39-4.13,2.39s-4.14-1.07-4.14-2.39V247.05Z"/><path class="cls-10" d="M159.44,220.41v47.3c0,1.32-1.85,2.39-4.14,2.39s-4.13-1.07-4.13-2.39v-47.3Z"/><path class="cls-10" d="M159.44,220.41v47.3c0,1.32-1.85,2.39-4.14,2.39s-4.13-1.07-4.13-2.39v-47.3Z"/><path class="cls-11" d="M159.44,237.57v18c0,1.32-1.85,2.39-4.14,2.39s-4.13-1.07-4.13-2.39v-18Z"/><path class="cls-12" d="M159.44,220.41v47.3c0,1.32-1.85,2.39-4.14,2.39s-4.13-1.07-4.13-2.39v-47.3Z"/><polygon class="cls-10" points="223.52 280.6 133.22 228.46 133.22 149.48 223.52 201.62 223.52 280.6"/><polygon class="cls-13" points="231.89 275.76 223.52 280.6 223.52 201.62 231.89 196.78 231.89 275.76"/><polygon class="cls-14" points="141.59 144.65 133.22 149.48 223.52 201.62 231.89 196.78 141.59 144.65"/><polygon class="cls-14" points="133.22 228.46 124.85 233.29 215.15 285.43 223.52 280.6 133.22 228.46"/><path class="cls-1" d="M357,387.58V522.46l57.7,33.31c10.77,6.22,28.24,6.22,39,0l38.2-22c5.38-3.11,8.08-7.19,8.08-11.26h0V387.58Z"/><path class="cls-2" d="M434.16,560.43c7.06,0,14.12-1.55,19.5-4.66l38.2-22c5.38-3.11,8.08-7.19,8.08-11.26V387.58H434.16Z"/><path class="cls-5" d="M357,387.58V522.46l57.7,33.31c10.77,6.22,28.24,6.22,39,0l38.2-22c5.38-3.11,8.08-7.19,8.08-11.26h0V387.58Z"/><path class="cls-5" d="M357,522.46l57.7,33.31c10.77,6.22,28.24,6.22,39,0l38.2-22c5.38-3.11,8.08-7.19,8.08-11.26"/><path class="cls-3" d="M357,414.54l57.7,33.32c5.39,3.11,12.45,4.66,19.51,4.66"/><path class="cls-4" d="M434.16,452.52c7.06,0,14.12-1.55,19.5-4.66l38.2-22.05c5.38-3.11,8.08-7.19,8.08-11.27"/><path class="cls-3" d="M357,441.51l57.7,33.31c5.39,3.11,12.45,4.67,19.51,4.67"/><path class="cls-4" d="M434.16,479.49c7.06,0,14.12-1.56,19.5-4.67l38.2-22.05c5.38-3.11,8.08-7.19,8.08-11.26"/><path class="cls-3" d="M357,468.47l57.7,33.31c5.39,3.11,12.45,4.67,19.51,4.67"/><path class="cls-4" d="M434.16,506.45c7.06,0,14.12-1.56,19.5-4.67l38.2-22c5.38-3.11,8.08-7.18,8.08-11.26"/><path class="cls-3" d="M357,495.43l57.7,33.32c5.39,3.11,12.45,4.66,19.51,4.66"/><path class="cls-4" d="M434.16,533.41c7.06,0,14.12-1.55,19.5-4.66l38.2-22.06c5.38-3.11,8.08-7.18,8.08-11.26"/><path class="cls-5" d="M357,387.58V522.46l57.7,33.31c10.77,6.22,28.24,6.22,39,0l38.2-22c5.38-3.11,8.08-7.19,8.08-11.26h0V387.58Z"/><path class="cls-8" d="M414.65,420.9c10.77,6.21,28.24,6.21,39,0l38.2-22.06c10.77-6.22,10.77-16.3,0-22.52L434.16,343,357,387.58Z"/><polygon class="cls-8" points="433.54 373.78 414.39 362.73 414.39 362.73 395.25 351.67 376.1 362.73 376.1 362.73 356.95 373.78 376.1 384.84 376.1 384.84 395.25 395.89 414.39 384.84 414.39 384.84 433.54 373.78"/><polygon class="cls-6" points="433.54 387.58 395.25 409.69 395.25 395.89 433.54 373.78 433.54 387.58"/><polygon class="cls-1" points="356.95 387.58 395.25 409.69 395.25 395.89 356.95 373.78 356.95 387.58"/><ellipse class="cls-3" cx="395.25" cy="373.78" rx="10.76" ry="6.21"/><path class="cls-1" d="M297.61,335l-35.25,20.35L241,367.69c-10.37,6-18.78,22.06-18.78,35.89l.07,26.08V600.2l75.31,43.47,75.31-265.18Z"/><path class="cls-15" d="M339.78,447.57l33.14-69.08L297.61,335l-35.25,20.35L241,367.69c-5.23,3-9.95,8.59-13.35,15.15Z"/><path class="cls-5" d="M297.61,335l-35.25,20.35L241,367.69c-10.37,6-18.78,22.06-18.78,35.89l.07,26.08V600.2l75.31,43.47,75.31-265.18Z"/><path class="cls-6" d="M316.32,411.17c-10.38,6-18.79,22.05-18.79,35.89l.08,26.08V643.67l75.31-43.47V378.49l-35.25,20.35Z"/><line class="cls-4" x1="314.5" y1="482.55" x2="355.15" y2="459.08"/><ellipse class="cls-4" cx="320.7" cy="440.91" rx="20.09" ry="11.36" transform="translate(-210.57 563.36) rotate(-66.95)"/><line class="cls-3" x1="280.2" y1="456.85" x2="239.56" y2="433.39"/><line class="cls-4" x1="314.5" y1="482.55" x2="314.5" y2="633.92"/><line class="cls-4" x1="355.15" y1="459.08" x2="355.15" y2="610.46"/><path class="cls-4" d="M263.43,404a46.23,46.23,0,0,0-5.23,20.36"/><path class="cls-3" d="M333.58,355.78l-35.25,20.35L277,388.46c-5.32,3.07-10.13,8.8-13.55,15.53"/><path class="cls-5" d="M316.32,411.17c-10.38,6-18.79,22.05-18.79,35.89l.08,26.08V643.67l75.31-43.47V378.49l-35.25,20.35Z"/><line class="cls-3" x1="280.2" y1="493.68" x2="239.56" y2="470.21"/><line class="cls-3" x1="280.2" y1="530.51" x2="239.56" y2="507.04"/><line class="cls-3" x1="280.2" y1="567.33" x2="239.56" y2="543.87"/><line class="cls-3" x1="280.2" y1="604.16" x2="239.56" y2="580.69"/><path class="cls-10" d="M322.46,345.34v47.3c0,1.32-1.85,2.39-4.14,2.39s-4.13-1.07-4.13-2.39v-47.3Z"/><path class="cls-10" d="M322.46,345.34v47.3c0,1.32-1.85,2.39-4.14,2.39s-4.13-1.07-4.13-2.39v-47.3Z"/><path class="cls-11" d="M322.46,362.5v18c0,1.32-1.85,2.39-4.14,2.39s-4.13-1.07-4.13-2.39v-18Z"/><path class="cls-12" d="M322.46,345.34v47.3c0,1.32-1.85,2.39-4.14,2.39s-4.13-1.07-4.13-2.39v-47.3Z"/><path class="cls-10" d="M276.32,318.71V366c0,1.32-1.85,2.39-4.13,2.39s-4.14-1.07-4.14-2.39V318.71Z"/><path class="cls-10" d="M276.32,318.71V366c0,1.32-1.85,2.39-4.13,2.39s-4.14-1.07-4.14-2.39V318.71Z"/><path class="cls-11" d="M276.32,335.86v18c0,1.31-1.85,2.38-4.13,2.38s-4.14-1.07-4.14-2.38v-18Z"/><path class="cls-12" d="M276.32,318.71V366c0,1.32-1.85,2.39-4.13,2.39s-4.14-1.07-4.14-2.39V318.71Z"/><polygon class="cls-10" points="340.4 378.89 250.1 326.76 250.1 247.78 340.4 299.91 340.4 378.89"/><polygon class="cls-13" points="348.78 374.06 340.4 378.89 340.4 299.91 348.78 295.08 348.78 374.06"/><polygon class="cls-14" points="258.48 242.94 250.1 247.78 340.4 299.91 348.78 295.08 258.48 242.94"/><polygon class="cls-14" points="250.1 326.76 241.73 331.59 332.03 383.73 340.4 378.89 250.1 326.76"/><path class="cls-10" d="M428.93,367.51v47.3c0,1.32,1.85,2.39,4.14,2.39s4.13-1.07,4.13-2.39v-47.3Z"/><path class="cls-10" d="M428.93,367.51v47.3c0,1.32,1.85,2.39,4.14,2.39s4.13-1.07,4.13-2.39v-47.3Z"/><path class="cls-11" d="M428.93,384.67v18c0,1.32,1.85,2.39,4.14,2.39s4.13-1.07,4.13-2.39v-18Z"/><path class="cls-12" d="M428.93,367.51v47.3c0,1.32,1.85,2.39,4.14,2.39s4.13-1.07,4.13-2.39v-47.3Z"/><path class="cls-10" d="M475.07,340.88v47.3c0,1.32,1.85,2.39,4.13,2.39s4.14-1.07,4.14-2.39v-47.3Z"/><path class="cls-10" d="M475.07,340.88v47.3c0,1.32,1.85,2.39,4.13,2.39s4.14-1.07,4.14-2.39v-47.3Z"/><path class="cls-11" d="M475.07,358v18c0,1.32,1.85,2.39,4.13,2.39s4.14-1.07,4.14-2.39V358Z"/><path class="cls-12" d="M475.07,340.88v47.3c0,1.32,1.85,2.39,4.13,2.39s4.14-1.07,4.14-2.39v-47.3Z"/><polygon class="cls-13" points="410.98 401.06 501.28 348.93 501.28 269.95 410.98 322.09 410.98 401.06"/><polygon class="cls-10" points="402.61 396.23 410.98 401.06 410.98 322.09 402.61 317.25 402.61 396.23"/><polygon class="cls-14" points="492.91 265.12 501.28 269.95 410.98 322.09 402.61 317.25 492.91 265.12"/><polygon class="cls-14" points="501.28 348.93 509.66 353.76 419.35 405.9 410.98 401.06 501.28 348.93"/><polygon class="cls-8" points="422.5 575.28 406.5 566.05 390.5 575.28 406.5 584.52 422.5 575.28"/><polygon class="cls-6" points="422.5 596.62 406.5 605.86 406.5 584.52 422.5 575.28 422.5 596.62"/><polygon class="cls-1" points="390.5 596.62 406.5 605.86 406.5 584.52 390.5 575.28 390.5 596.62"/><path class="cls-1" d="M49.32,529v19.13c0,1.4-2,2.53-4.39,2.53s-4.38-1.13-4.38-2.53V529Z"/><path class="cls-2" d="M49.32,519V538.1c0,1.4-2,2.53-4.39,2.53s-4.38-1.13-4.38-2.53V519Z"/><path class="cls-5" d="M49.32,529v19.13c0,1.4-2,2.53-4.39,2.53s-4.38-1.13-4.38-2.53V529Z"/><path class="cls-1" d="M28.68,524.12h0L41,482.29h0a4.09,4.09,0,0,1,7.85,0h0l12.33,41.83h0a5.51,5.51,0,0,1,.24,1.61c0,5.26-7.38,9.52-16.49,9.52S28.44,531,28.44,525.73A5.87,5.87,0,0,1,28.68,524.12Z"/><path class="cls-2" d="M61.42,525.73a5.51,5.51,0,0,0-.24-1.61h0L48.86,482.29h0l0-.05c-.66-2.15-3.91-1.56-3.91.7v52.31C54,535.25,61.42,531,61.42,525.73Z"/><path class="cls-5" d="M28.68,524.12h0L41,482.29h0a4.09,4.09,0,0,1,7.85,0h0l12.33,41.83h0a5.51,5.51,0,0,1,.24,1.61c0,5.26-7.38,9.52-16.49,9.52S28.44,531,28.44,525.73A5.87,5.87,0,0,1,28.68,524.12Z"/><path class="cls-1" d="M86.69,550.6v19.13c0,1.39-2,2.53-4.39,2.53s-4.38-1.14-4.38-2.53V550.6Z"/><path class="cls-2" d="M86.69,540.54v19.13c0,1.4-2,2.54-4.39,2.54s-4.38-1.14-4.38-2.54V540.54Z"/><path class="cls-5" d="M86.69,550.6v19.13c0,1.39-2,2.53-4.39,2.53s-4.38-1.14-4.38-2.53V550.6Z"/><path class="cls-1" d="M66.05,545.7h0l12.33-41.83h0a4.09,4.09,0,0,1,7.85,0h0L98.56,545.7h0a5.46,5.46,0,0,1,.24,1.61c0,5.26-7.38,9.52-16.49,9.52s-16.49-4.26-16.49-9.52A5.81,5.81,0,0,1,66.05,545.7Z"/><path class="cls-2" d="M98.79,547.31a5.46,5.46,0,0,0-.24-1.61h0L86.23,503.87h0l0-.05c-.66-2.15-3.91-1.56-3.91.69v52.32C91.41,556.83,98.79,552.57,98.79,547.31Z"/><path class="cls-5" d="M66.05,545.7h0l12.33-41.83h0a4.09,4.09,0,0,1,7.85,0h0L98.56,545.7h0a5.46,5.46,0,0,1,.24,1.61c0,5.26-7.38,9.52-16.49,9.52s-16.49-4.26-16.49-9.52A5.81,5.81,0,0,1,66.05,545.7Z"/><path class="cls-1" d="M173.5,578.73v18.66c0,2.07,1.37,4.14,4.1,5.72,5.47,3.16,14.34,3.16,19.8,0,2.74-1.58,4.1-3.65,4.1-5.72V578.73"/><path class="cls-2" d="M187.5,605.48a20.19,20.19,0,0,0,9.9-2.37c2.74-1.58,4.1-3.65,4.1-5.72V578.73h-14Z"/><path class="cls-5" d="M173.5,578.73v18.66c0,2.07,1.37,4.14,4.1,5.72,5.47,3.16,14.34,3.16,19.8,0,2.74-1.58,4.1-3.65,4.1-5.72V578.73"/><ellipse class="cls-8" cx="187.5" cy="578.73" rx="14" ry="8.08"/><path class="cls-8" d="M141.93,48.2h0l-26-15v0c-3-1.76-7-1.61-11.34.9l-1.89,1.09L80.38,22.32h0c-5.07-2.92-11.68-2.66-18.92,1.52C46.35,32.56,34,55.17,32.65,75.62L18.36,83.87C8.77,89.4,1,104.25,1,117H1c0,7,2.34,11.9,6,14v0l26,15h0c3.05,1.76,7,1.6,11.36-.91L130.58,95.4c9.58-5.54,17.35-20.38,17.35-33.17h0C147.93,55.24,145.6,50.32,141.93,48.2Z"/><path class="cls-16" d="M130.58,49.11l-14.3,8.26c-1.3-18.95-13.7-27.24-28.81-18.51S60,70.19,58.66,90.63L44.37,98.89C34.78,104.42,27,119.27,27,132.05s7.77,18.66,17.36,13.12L130.58,95.4c9.58-5.54,17.35-20.38,17.35-33.17h0C147.93,49.45,140.16,43.58,130.58,49.11Z"/><path class="cls-5" d="M141.93,48.2h0l-26-15v0c-3-1.76-7-1.61-11.34.9l-1.89,1.09L80.38,22.32h0c-5.07-2.92-11.68-2.66-18.92,1.52C46.35,32.56,34,55.17,32.65,75.62L18.36,83.87C8.77,89.4,1,104.25,1,117H1c0,7,2.34,11.9,6,14v0l26,15h0c3.05,1.76,7,1.6,11.36-.91L130.58,95.4c9.58-5.54,17.35-20.38,17.35-33.17h0C147.93,55.24,145.6,50.32,141.93,48.2Z"/><path class="cls-3" d="M130.58,49.11l-14.3,8.26c-1.3-18.95-13.7-27.24-28.81-18.51S60,70.19,58.66,90.63L44.37,98.89C34.78,104.42,27,119.27,27,132.05"/><path class="cls-17" d="M574.18,225.49l-49.39-5.72,4.32,17.13h0a4.22,4.22,0,0,0,2.08,2.33l17,9.84a11.67,11.67,0,0,0,10.58,0l9-5.17a4.25,4.25,0,0,0,2.06-2.28h0Z"/><path class="cls-1" d="M571.67,228.25l-10.86,6.27a14.13,14.13,0,0,1-12.82,0l-20.68-11.93c-3.54-2.05-3.54-5.36,0-7.4l10.87-6.28a14.19,14.19,0,0,1,12.82,0l20.67,11.94C575.21,222.89,575.21,226.21,571.67,228.25Z"/><path class="cls-17" d="M563,107.73h-3.23l-6.9-8.91c-1.31-1.71-5.18-2.12-7.47-.8L508.56,119.3l28.81,18.34L561.29,118a4.15,4.15,0,0,0,1.71-3.16h0Z"/><path class="cls-6" d="M537.37,130.59l23.92-19.7c1.92-1.58,2.26-3.63.9-5.4l-9.3-12c-1.31-1.71-5.18-2.12-7.47-.8L508.56,114Z"/><path class="cls-8" d="M443.18,126.82c19.13,59.06,100,139.73,166.51,103.72a30.81,30.81,0,0,0,16.15-28c-2.08-75.62-112.36-105.29-173.08-92.34A12.88,12.88,0,0,0,443.18,126.82Z"/><path class="cls-16" d="M622.1,209.05C562.76,235.7,483.81,165.77,458,112.6a4.49,4.49,0,0,0-5-2.43l-.18,0a13,13,0,0,0-9.66,16.61c19.13,59.06,100,139.73,166.51,103.72a30.79,30.79,0,0,0,15.14-19.27,1.94,1.94,0,0,0-2.7-2.24Z"/><path class="cls-5" d="M443.18,126.82c19.13,59.06,100,139.73,166.51,103.72a30.81,30.81,0,0,0,16.15-28c-2.08-75.62-112.36-105.29-173.08-92.34A12.88,12.88,0,0,0,443.18,126.82Z"/><path class="cls-17" d="M475.82,164.67l-5.88.32a151.61,151.61,0,0,1-13.68-14.55l-.82-.47-30.11,17.38-8.11.43v7.06h0c0,1,1,2,2.72,2.44l20.83,5.37a15.66,15.66,0,0,0,9.36-.52l25.68-10.39"/><path class="cls-6" d="M509.43,118.72,503,103.14A32.51,32.51,0,0,0,489.21,87.5l-10.43-6a5.09,5.09,0,0,0-5.16,0h0l-5.55,3.21,5.34,4,2.3,18.93a127.26,127.26,0,0,1,22,5.13l6.22,9.13"/><path class="cls-17" d="M468.22,112l-2.7-22.21a5.16,5.16,0,0,1,7.71-5.1l10.44,6a32.38,32.38,0,0,1,13.73,15.63l6.48,15.58"/><path class="cls-6" d="M456.26,145.1l-.82-.48-36.87,21.29c-2.28,1.32-1.57,3.55,1.38,4.31l20.83,5.37a15.66,15.66,0,0,0,9.36-.52l25.68-10.4"/><path class="cls-1" d="M512.36,554.16v19.13c0,1.4-2,2.53-4.39,2.53s-4.38-1.13-4.38-2.53V554.16Z"/><path class="cls-2" d="M512.36,544.11v19.13c0,1.39-2,2.53-4.39,2.53s-4.38-1.14-4.38-2.53V544.11Z"/><path class="cls-5" d="M512.36,554.16v19.13c0,1.4-2,2.53-4.39,2.53s-4.38-1.13-4.38-2.53V554.16Z"/><path class="cls-1" d="M491.72,549.26h0L504,507.43h0a4.09,4.09,0,0,1,7.85,0h0l12.33,41.83h0a5.51,5.51,0,0,1,.24,1.61c0,5.26-7.38,9.52-16.49,9.52s-16.49-4.26-16.49-9.52A5.87,5.87,0,0,1,491.72,549.26Z"/><path class="cls-2" d="M524.46,550.87a5.51,5.51,0,0,0-.24-1.61h0L511.9,507.43h0l0-.05c-.66-2.15-3.91-1.56-3.91.69v52.32C517.08,560.39,524.46,556.13,524.46,550.87Z"/><path class="cls-5" d="M491.72,549.26h0L504,507.43h0a4.09,4.09,0,0,1,7.85,0h0l12.33,41.83h0a5.51,5.51,0,0,1,.24,1.61c0,5.26-7.38,9.52-16.49,9.52s-16.49-4.26-16.49-9.52A5.87,5.87,0,0,1,491.72,549.26Z"/><path class="cls-1" d="M549.73,532.58v19.13c0,1.4-2,2.54-4.39,2.54s-4.38-1.14-4.38-2.54V532.58Z"/><path class="cls-2" d="M549.73,522.53v19.13c0,1.4-2,2.53-4.39,2.53s-4.38-1.13-4.38-2.53V522.53Z"/><path class="cls-5" d="M549.73,532.58v19.13c0,1.4-2,2.54-4.39,2.54s-4.38-1.14-4.38-2.54V532.58Z"/><path class="cls-1" d="M529.09,527.69h0l12.32-41.84h0a4.09,4.09,0,0,1,7.85,0h0l12.33,41.84h0a5.46,5.46,0,0,1,.24,1.61c0,5.25-7.38,9.52-16.49,9.52s-16.49-4.27-16.49-9.52A5.81,5.81,0,0,1,529.09,527.69Z"/><path class="cls-2" d="M561.83,529.3a5.46,5.46,0,0,0-.24-1.61h0l-12.33-41.84h0l0-.05c-.66-2.15-3.91-1.55-3.91.7v52.32C554.45,538.82,561.83,534.55,561.83,529.3Z"/><path class="cls-5" d="M529.09,527.69h0l12.32-41.84h0a4.09,4.09,0,0,1,7.85,0h0l12.33,41.84h0a5.46,5.46,0,0,1,.24,1.61c0,5.25-7.38,9.52-16.49,9.52s-16.49-4.27-16.49-9.52A5.81,5.81,0,0,1,529.09,527.69Z"/><path class="cls-1" d="M264.11,652.3v19.13c0,1.4-2,2.53-4.39,2.53s-4.38-1.13-4.38-2.53V652.3Z"/><path class="cls-2" d="M264.11,642.25v19.13c0,1.39-2,2.53-4.39,2.53s-4.38-1.14-4.38-2.53V642.25Z"/><path class="cls-5" d="M264.11,652.3v19.13c0,1.4-2,2.53-4.39,2.53s-4.38-1.13-4.38-2.53V652.3Z"/><path class="cls-1" d="M243.47,647.4h0l12.33-41.83h0a4.09,4.09,0,0,1,7.85,0h0L276,647.4h0a5.51,5.51,0,0,1,.24,1.61c0,5.26-7.38,9.52-16.49,9.52s-16.49-4.26-16.49-9.52A5.87,5.87,0,0,1,243.47,647.4Z"/><path class="cls-2" d="M276.21,649a5.51,5.51,0,0,0-.24-1.61h0l-12.33-41.83h0l0-.05c-.66-2.15-3.91-1.56-3.91.69v52.32C268.83,658.53,276.21,654.27,276.21,649Z"/><path class="cls-5" d="M243.47,647.4h0l12.33-41.83h0a4.09,4.09,0,0,1,7.85,0h0L276,647.4h0a5.51,5.51,0,0,1,.24,1.61c0,5.26-7.38,9.52-16.49,9.52s-16.49-4.26-16.49-9.52A5.87,5.87,0,0,1,243.47,647.4Z"/><path class="cls-1" d="M301.48,673.88V693c0,1.39-2,2.53-4.39,2.53s-4.38-1.14-4.38-2.53V673.88Z"/><path class="cls-2" d="M301.48,663.82V683c0,1.4-2,2.53-4.39,2.53s-4.38-1.13-4.38-2.53V663.82Z"/><path class="cls-5" d="M301.48,673.88V693c0,1.39-2,2.53-4.39,2.53s-4.38-1.14-4.38-2.53V673.88Z"/><path class="cls-1" d="M280.84,669h0l12.33-41.83h0a4.09,4.09,0,0,1,7.85,0h0L313.35,669h0a5.46,5.46,0,0,1,.24,1.61c0,5.26-7.38,9.52-16.49,9.52s-16.49-4.26-16.49-9.52A5.81,5.81,0,0,1,280.84,669Z"/><path class="cls-2" d="M313.58,670.59a5.46,5.46,0,0,0-.24-1.61h0L301,627.15h0l0,0c-.66-2.16-3.91-1.56-3.91.69v52.32C306.2,680.11,313.58,675.85,313.58,670.59Z"/><path class="cls-5" d="M280.84,669h0l12.33-41.83h0a4.09,4.09,0,0,1,7.85,0h0L313.35,669h0a5.46,5.46,0,0,1,.24,1.61c0,5.26-7.38,9.52-16.49,9.52s-16.49-4.26-16.49-9.52A5.81,5.81,0,0,1,280.84,669Z"/><path class="cls-1" d="M338.85,652.3v19.13c0,1.4-2,2.53-4.39,2.53s-4.38-1.13-4.38-2.53V652.3Z"/><path class="cls-2" d="M338.85,642.25v19.13c0,1.39-2,2.53-4.39,2.53s-4.38-1.14-4.38-2.53V642.25Z"/><path class="cls-5" d="M338.85,652.3v19.13c0,1.4-2,2.53-4.39,2.53s-4.38-1.13-4.38-2.53V652.3Z"/><path class="cls-1" d="M318.21,647.4h0l12.33-41.83h0a4.09,4.09,0,0,1,7.85,0h0l12.33,41.83h0A5.51,5.51,0,0,1,351,649c0,5.26-7.38,9.52-16.49,9.52S318,654.27,318,649A5.85,5.85,0,0,1,318.21,647.4Z"/><path class="cls-2" d="M351,649a5.51,5.51,0,0,0-.24-1.61h0l-12.33-41.83h0l0-.05c-.66-2.15-3.91-1.56-3.91.69v52.32C343.57,658.53,351,654.27,351,649Z"/><path class="cls-5" d="M318.21,647.4h0l12.33-41.83h0a4.09,4.09,0,0,1,7.85,0h0l12.33,41.83h0A5.51,5.51,0,0,1,351,649c0,5.26-7.38,9.52-16.49,9.52S318,654.27,318,649A5.85,5.85,0,0,1,318.21,647.4Z"/><polyline class="cls-12" points="181.99 238.25 181.99 199.83 167.98 218.82 188.77 230.82"/><path class="cls-12" d="M286.25,315.18c0,6.63,4,14.32,9,17.19s9-.17,9-6.8V315.49c0-6.63-4-14.32-9-17.19s-9,.17-9,6.8Z"/><polyline class="cls-12" points="459.75 356.72 459.75 318.3 445.74 353.47 466.53 341.47"/></g></g></svg>