<svg xmlns="http://www.w3.org/2000/svg" width="67.83" height="159.54" viewBox="0 0 67.83 159.54"><defs><style>.cls-1,.cls-2{fill:none;}.cls-1,.cls-2,.cls-3,.cls-4,.cls-5{stroke:#1b6dc6;stroke-linecap:round;stroke-linejoin:round;stroke-width:2px;}.cls-2{stroke-dasharray:0 5.54;}.cls-3{fill:#fff;}.cls-4{fill:#bde4fd;}.cls-5{fill:#e9f6fe;}</style></defs><title>cube_05</title><g id="Layer_2" data-name="Layer 2"><g id="Layer_1-2" data-name="Layer 1"><line class="cls-1" x1="33.91" y1="34.23" x2="33.91" y2="34.23"/><line class="cls-2" x1="33.91" y1="28.69" x2="33.91" y2="3.77"/><line class="cls-1" x1="33.91" y1="1" x2="33.91" y2="1"/><line class="cls-1" x1="1" y1="53.24" x2="1" y2="53.24"/><line class="cls-2" x1="1" y1="47.7" x2="1" y2="22.77"/><line class="cls-1" x1="1" y1="20" x2="1" y2="20"/><polygon class="cls-3" points="50.37 108.09 33.91 98.59 1 117.59 17.46 127.1 50.37 108.09"/><polygon class="cls-3" points="66.83 95.65 50.37 86.15 17.46 105.15 33.91 114.66 66.83 95.65"/><polygon class="cls-4" points="66.83 139.54 33.91 158.54 33.91 114.66 66.83 95.65 66.83 139.54"/><polygon class="cls-5" points="17.46 105.15 17.46 127.1 1 117.59 1 139.54 33.91 158.54 33.91 114.66 17.46 105.15"/><polygon class="cls-5" points="1 75.18 17.46 84.68 17.46 62.74 1 53.24 1 75.18"/><polygon class="cls-3" points="50.37 43.73 33.91 34.23 1 53.24 17.46 62.74 50.37 43.73"/><polygon class="cls-4" points="50.37 43.73 50.37 65.68 17.46 84.68 17.46 62.74 50.37 43.73"/></g></g></svg>