<svg xmlns="http://www.w3.org/2000/svg" width="206.52" height="238.16" viewBox="0 0 206.52 238.16"><defs><style>.cls-1,.cls-2,.cls-3,.cls-8{fill:none;}.cls-1,.cls-2,.cls-3{stroke:#b8bfca;}.cls-1,.cls-2,.cls-3,.cls-4,.cls-5,.cls-6,.cls-7,.cls-8{stroke-linecap:round;stroke-linejoin:round;stroke-width:2px;}.cls-2{stroke-dasharray:0 5.9;}.cls-3{stroke-dasharray:0 5.9;}.cls-4{fill:#d3edfd;}.cls-4,.cls-5,.cls-6,.cls-7,.cls-8{stroke:#1b6dc6;}.cls-5{fill:#e9f6fe;}.cls-6{fill:#fff;}.cls-7{fill:#bde4fd;}</style></defs><title>prism_05</title><g id="Layer_2" data-name="Layer 2"><g id="Layer_1-2" data-name="Layer 1"><line class="cls-1" x1="205.52" y1="178.12" x2="205.52" y2="178.12"/><line class="cls-2" x1="200.41" y1="181.07" x2="105.82" y2="235.68"/><line class="cls-1" x1="103.26" y1="237.16" x2="103.26" y2="237.16"/><line class="cls-3" x1="103.26" y1="231.25" x2="103.26" y2="122.03"/><line class="cls-1" x1="103.26" y1="119.08" x2="103.26" y2="119.08"/><line class="cls-2" x1="108.37" y1="116.13" x2="202.96" y2="61.52"/><line class="cls-1" x1="205.52" y1="60.04" x2="205.52" y2="60.04"/><line class="cls-3" x1="205.52" y1="65.94" x2="205.52" y2="175.17"/><line class="cls-1" x1="1" y1="178.12" x2="1" y2="178.12"/><line class="cls-2" x1="6.11" y1="181.07" x2="100.7" y2="235.68"/><line class="cls-1" x1="103.26" y1="237.16" x2="103.26" y2="237.16"/><line class="cls-3" x1="103.26" y1="231.25" x2="103.26" y2="122.03"/><line class="cls-1" x1="103.26" y1="119.08" x2="103.26" y2="119.08"/><line class="cls-2" x1="98.15" y1="116.13" x2="3.56" y2="61.52"/><line class="cls-1" x1="1" y1="60.04" x2="1" y2="60.04"/><line class="cls-3" x1="1" y1="65.94" x2="1" y2="175.17"/><line class="cls-1" x1="205.52" y1="60.04" x2="205.52" y2="60.04"/><line class="cls-2" x1="200.41" y1="57.09" x2="105.82" y2="2.48"/><line class="cls-1" x1="103.26" y1="1" x2="103.26" y2="1"/><line class="cls-3" x1="98.15" y1="3.95" x2="3.56" y2="58.56"/><line class="cls-1" x1="1" y1="60.04" x2="1" y2="60.04"/><line class="cls-2" x1="6.11" y1="62.99" x2="100.7" y2="117.6"/><line class="cls-1" x1="103.26" y1="119.08" x2="103.26" y2="119.08"/><line class="cls-3" x1="108.37" y1="116.13" x2="202.96" y2="61.52"/><line class="cls-1" x1="205.52" y1="178.12" x2="205.52" y2="178.12"/><line class="cls-2" x1="200.41" y1="175.17" x2="105.82" y2="120.55"/><line class="cls-1" x1="103.26" y1="119.08" x2="103.26" y2="119.08"/><line class="cls-3" x1="98.15" y1="122.03" x2="3.56" y2="176.64"/><line class="cls-1" x1="1" y1="178.12" x2="1" y2="178.12"/><line class="cls-2" x1="6.11" y1="181.07" x2="100.7" y2="235.68"/><line class="cls-1" x1="103.26" y1="237.16" x2="103.26" y2="237.16"/><line class="cls-3" x1="108.37" y1="234.21" x2="202.96" y2="179.59"/><line class="cls-1" x1="103.26" y1="119.08" x2="103.26" y2="119.08"/><line class="cls-2" x1="98.15" y1="122.03" x2="3.56" y2="176.64"/><line class="cls-1" x1="1" y1="178.12" x2="1" y2="178.12"/><line class="cls-3" x1="1" y1="172.21" x2="1" y2="62.99"/><line class="cls-1" x1="1" y1="60.04" x2="1" y2="60.04"/><line class="cls-2" x1="6.11" y1="57.09" x2="100.7" y2="2.48"/><line class="cls-1" x1="103.26" y1="1" x2="103.26" y2="1"/><line class="cls-3" x1="103.26" y1="6.9" x2="103.26" y2="116.13"/><polygon class="cls-4" points="103.26 119.08 59.77 144.19 59.77 93.97 103.26 68.86 103.26 119.08"/><polygon class="cls-4" points="146.75 144.19 103.26 119.08 59.77 144.19 103.26 169.3 146.75 144.19"/><polygon class="cls-4" points="146.75 144.19 103.26 169.3 103.26 119.08 146.75 93.97 146.75 144.19"/><polygon class="cls-5" points="59.77 144.19 103.26 169.3 103.26 119.08 59.77 93.97 59.77 144.19"/><polygon class="cls-6" points="146.75 93.97 103.26 68.86 59.77 93.97 103.26 119.08 146.75 93.97"/><polygon class="cls-7" points="146.75 144.19 103.26 68.86 59.77 144.19 146.75 144.19"/><path class="cls-5" d="M103.26,119.08,125,106.52,103.26,68.86,81.51,106.52Z"/><polygon class="cls-4" points="103.26 119.08 81.51 106.53 59.77 144.19 103.26 144.19 103.26 119.08"/><path class="cls-7" d="M103.26,119.08v25.11h43.49L125,106.52Z"/><polygon class="cls-8" points="146.75 144.19 103.26 169.3 103.26 119.08 146.75 93.97 146.75 144.19"/><polygon class="cls-8" points="59.77 144.19 103.26 169.3 103.26 119.08 59.77 93.97 59.77 144.19"/><polygon class="cls-8" points="146.75 93.97 103.26 68.86 59.77 93.97 103.26 119.08 146.75 93.97"/><polygon class="cls-8" points="146.75 144.19 103.26 119.08 59.77 144.19 103.26 169.3 146.75 144.19"/><polygon class="cls-8" points="103.26 119.08 59.77 144.19 59.77 93.97 103.26 68.86 103.26 119.08"/></g></g></svg>