<svg xmlns="http://www.w3.org/2000/svg" width="130.15" height="167.36" viewBox="0 0 130.15 167.36"><defs><style>.cls-1{fill:#d3edfd;}.cls-1,.cls-3,.cls-4,.cls-6,.cls-8{stroke:#1b6dc6;}.cls-1,.cls-2,.cls-3,.cls-4,.cls-5,.cls-6,.cls-7,.cls-8{stroke-linecap:round;stroke-linejoin:round;stroke-width:2px;}.cls-2,.cls-3,.cls-5,.cls-7,.cls-8{fill:none;}.cls-2{stroke:#bde4fd;}.cls-4{fill:#bde4fd;}.cls-5{stroke:#91d2fb;}.cls-6{fill:#fff;}.cls-7{stroke:#d3edfd;}.cls-8{stroke-dasharray:0 6;}</style></defs><title>prism_04</title><g id="Layer_2" data-name="Layer 2"><g id="Layer_1-2" data-name="Layer 1"><polygon class="cls-1" points="65.08 123.64 65.08 123.64 22.36 98.98 1 129.37 65.08 166.36 65.08 123.64"/><polygon class="cls-2" points="65.08 123.64 37.99 108.01 1 129.37 1 129.37 65.08 166.36 65.08 123.64 65.08 123.64"/><polygon class="cls-3" points="65.08 123.64 65.08 123.64 22.36 98.98 1 129.37 65.08 166.36 65.08 123.64"/><polygon class="cls-4" points="65.08 123.64 65.08 123.64 107.8 98.98 129.16 129.37 65.08 166.36 65.08 123.64"/><polygon class="cls-5" points="65.08 123.64 65.08 123.64 65.08 166.36 129.16 129.37 92.16 108.01 65.08 123.64"/><polygon class="cls-3" points="65.08 123.64 65.08 123.64 107.8 98.98 129.16 129.37 65.08 166.36 65.08 123.64"/><polygon class="cls-6" points="22.36 98.98 65.08 74.32 107.8 98.98 65.08 123.64 22.36 98.98"/><line class="cls-7" x1="65.08" y1="92.37" x2="65.08" y2="74.32"/><polygon class="cls-7" points="37.99 108.01 65.08 123.64 92.16 108.01 65.08 92.37 37.99 108.01"/><polygon class="cls-3" points="22.36 98.98 65.08 74.32 107.8 98.98 65.08 123.64 22.36 98.98"/><polygon class="cls-1" points="65.08 62.32 43.72 49.99 22.36 80.38 65.08 105.04 65.08 105.04 65.08 62.32 65.08 62.32"/><polygon class="cls-2" points="65.08 62.32 59.35 59.02 22.36 80.38 65.08 105.04 65.08 62.32 65.08 62.32"/><polygon class="cls-3" points="65.08 62.32 43.72 49.99 22.36 80.38 65.08 105.04 65.08 105.04 65.08 62.32 65.08 62.32"/><polygon class="cls-4" points="65.08 62.32 86.44 49.99 107.8 80.38 65.08 105.04 65.08 105.04 65.08 62.32 65.08 62.32"/><polygon class="cls-6" points="43.72 49.99 65.08 37.66 86.44 49.99 65.08 62.32 43.72 49.99"/><path class="cls-7" d="M65.08,62.32,70.8,59l-5.72-3.31L59.35,59Z"/><line class="cls-7" x1="65.08" y1="37.66" x2="65.08" y2="62.32"/><polygon class="cls-3" points="43.72 49.99 65.08 37.66 86.44 49.99 65.08 62.32 43.72 49.99"/><path class="cls-5" d="M70.8,59l-5.72,3.3h0V105L107.8,80.38Z"/><polygon class="cls-3" points="65.08 62.32 86.44 49.99 107.8 80.38 65.08 105.04 65.08 105.04 65.08 62.32 65.08 62.32"/><polygon class="cls-1" points="65.08 43.72 65.08 43.72 65.08 1 43.72 31.39 65.08 43.72"/><polygon class="cls-2" points="65.08 43.72 65.08 19.05 65.08 19.05 43.72 31.39 43.72 31.39 65.08 43.72 65.08 43.72"/><polygon class="cls-3" points="65.08 43.72 65.08 43.72 65.08 1 43.72 31.39 65.08 43.72"/><polygon class="cls-4" points="65.08 43.72 65.08 43.72 65.08 1 86.44 31.39 65.08 43.72"/><polygon class="cls-5" points="65.08 19.05 65.08 43.72 65.08 43.72 86.44 31.39 65.08 19.05"/><polygon class="cls-3" points="65.08 43.72 65.08 43.72 65.08 1 86.44 31.39 65.08 43.72"/><line class="cls-8" x1="22.36" y1="80.38" x2="22.36" y2="98.98"/><line class="cls-8" x1="107.8" y1="80.38" x2="107.8" y2="98.98"/><line class="cls-8" x1="86.44" y1="31.39" x2="86.44" y2="49.99"/><line class="cls-8" x1="43.72" y1="31.39" x2="43.72" y2="49.99"/></g></g></svg>