<svg xmlns="http://www.w3.org/2000/svg" width="91.09" height="67.83" viewBox="0 0 91.09 67.83"><defs><style>.cls-1{fill:#f2f4f6;stroke:#627386;stroke-linecap:round;stroke-linejoin:round;stroke-width:2px;}</style></defs><title>pyramid_02</title><g id="Layer_2" data-name="Layer 2"><g id="Layer_2-2" data-name="Layer 2"><polygon class="cls-1" points="77.06 7.67 72.82 10.13 68.57 7.67 72.82 5.22 77.06 7.67"/><polygon class="cls-1" points="77.06 7.67 90.09 28.03 72.82 38.01 72.82 10.13 77.06 7.67"/><polygon class="cls-1" points="68.57 7.67 55.55 28.03 72.82 38.01 72.82 10.13 68.57 7.67"/><polygon class="cls-1" points="72.82 38.01 44.8 54.19 16.77 38.01 44.8 21.83 72.82 38.01"/><polygon class="cls-1" points="51.68 4.98 44.8 8.95 37.91 4.98 44.8 1 51.68 4.98"/><polygon class="cls-1" points="51.68 4.98 72.82 38.01 44.8 54.19 44.8 8.95 51.68 4.98"/><polygon class="cls-1" points="37.91 4.98 16.77 38.01 44.8 54.19 44.8 8.95 37.91 4.98"/><polygon class="cls-1" points="44.8 54.19 22.9 66.83 1 54.19 22.9 41.54 44.8 54.19"/><polygon class="cls-1" points="28.28 28.37 22.9 31.48 17.52 28.37 22.9 25.27 28.28 28.37"/><polygon class="cls-1" points="28.28 28.37 44.8 54.19 22.9 66.83 22.9 31.48 28.28 28.37"/><polygon class="cls-1" points="17.52 28.37 1 54.19 22.9 66.83 22.9 31.48 17.52 28.37"/></g></g></svg>