<svg xmlns="http://www.w3.org/2000/svg" width="50" height="61.71" viewBox="0 0 50 61.71"><defs><style>.cls-1,.cls-2{fill:none;stroke-linecap:round;stroke-linejoin:round;stroke-width:2px;}.cls-1{stroke:#d5dae0;}.cls-2{stroke:#627386;}</style></defs><title>wire_18</title><g id="Layer_2" data-name="Layer 2"><g id="Layer_1-2" data-name="Layer 1"><polygon class="cls-1" points="49 14.86 25 1 1 14.86 25 28.71 49 14.86"/><polygon class="cls-1" points="49 46.86 25 60.71 25 28.71 49 14.86 49 46.86"/><polygon class="cls-1" points="1 46.86 25 60.71 25 28.71 1 14.86 1 46.86"/><polygon class="cls-2" points="37 7.93 25 1 13 7.93 25 14.86 37 7.93"/><polygon class="cls-2" points="37 23.93 25 30.86 25 14.86 37 7.93 37 23.93"/><polygon class="cls-2" points="13 23.93 25 30.86 25 14.86 13 7.93 13 23.93"/><polygon class="cls-2" points="49 30.86 37 23.93 25 30.86 37 37.78 49 30.86"/><polygon class="cls-2" points="49 46.86 37 53.78 37 37.78 49 30.86 49 46.86"/><polygon class="cls-2" points="25 46.86 37 53.78 37 37.78 25 30.86 25 46.86"/><polygon class="cls-2" points="1 30.86 13 23.93 25 30.86 13 37.78 1 30.86"/><polygon class="cls-2" points="1 46.86 13 53.78 13 37.78 1 30.86 1 46.86"/><polygon class="cls-2" points="25 46.86 13 53.78 13 37.78 25 30.86 25 46.86"/></g></g></svg>