<svg xmlns="http://www.w3.org/2000/svg" width="50" height="55.86" viewBox="0 0 50 55.86"><defs><style>.cls-1,.cls-3,.cls-5{fill:none;}.cls-1,.cls-3,.cls-4{stroke:#d5dae0;}.cls-1,.cls-3,.cls-4,.cls-5{stroke-linecap:round;stroke-linejoin:round;stroke-width:2px;}.cls-2,.cls-4{fill:#d5dae0;}.cls-3,.cls-4{stroke-dasharray:0 4;}.cls-5{stroke:#627386;}</style></defs><title>wire_09</title><g id="Layer_2" data-name="Layer 2"><g id="Layer_1-2" data-name="Layer 1"><circle class="cls-1" cx="25" cy="25" r="24"/><ellipse class="cls-1" cx="25" cy="41" rx="24" ry="13.86"/><line class="cls-2" x1="1" y1="41" x2="49" y2="41"/><line class="cls-1" x1="1" y1="41" x2="1" y2="41"/><line class="cls-3" x1="5" y1="41" x2="47" y2="41"/><line class="cls-1" x1="49" y1="41" x2="49" y2="41"/><line class="cls-4" x1="25" y1="53.31" x2="25" y2="1"/><path class="cls-5" d="M25,1A24,24,0,0,0,1,25V41c0,3.55,2.34,7.09,7,9.8,9.37,5.41,24.57,5.41,33.94,0,4.69-2.71,7-6.25,7-9.8V25A24,24,0,0,0,25,1Z"/></g></g></svg>