<svg xmlns="http://www.w3.org/2000/svg" width="50" height="61.71" viewBox="0 0 50 61.71"><defs><style>.cls-1{fill:#d5dae0;}.cls-2,.cls-3,.cls-4,.cls-5{fill:none;stroke-linecap:round;stroke-linejoin:round;stroke-width:2px;}.cls-2,.cls-3,.cls-4{stroke:#d5dae0;}.cls-3{stroke-dasharray:0 3.98;}.cls-4{stroke-dasharray:0 4;}.cls-5{stroke:#627386;}</style></defs><title>wire_19</title><g id="Layer_2" data-name="Layer 2"><g id="Layer_1-2" data-name="Layer 1"><line class="cls-1" x1="25" y1="60.71" x2="25" y2="1"/><line class="cls-2" x1="25" y1="60.71" x2="25" y2="60.71"/><line class="cls-3" x1="25" y1="56.73" x2="25" y2="2.99"/><line class="cls-2" x1="25" y1="1" x2="25" y2="1"/><line class="cls-1" x1="1" y1="46.86" x2="49" y2="46.86"/><line class="cls-2" x1="1" y1="46.86" x2="1" y2="46.86"/><line class="cls-4" x1="5" y1="46.86" x2="47" y2="46.86"/><line class="cls-2" x1="49" y1="46.86" x2="49" y2="46.86"/><polygon class="cls-2" points="49 14.86 25 1 1 14.86 25 28.71 49 14.86"/><polygon class="cls-2" points="49 46.86 25 60.71 25 28.71 49 14.86 49 46.86"/><polygon class="cls-2" points="1 46.86 25 60.71 25 28.71 1 14.86 1 46.86"/><polygon class="cls-5" points="41 10.24 33 5.62 25 10.24 17 5.62 9 10.24 17 14.86 9 19.48 17 24.09 25 19.48 33 24.09 41 19.48 33 14.86 41 10.24"/><polygon class="cls-5" points="41 19.48 41 51.48 33 56.09 33 24.09 41 19.48"/><polygon class="cls-5" points="25 19.48 25 51.48 33 56.09 33 24.09 25 19.48"/><polygon class="cls-5" points="25 19.48 25 51.48 17 56.09 17 24.09 25 19.48"/><polygon class="cls-5" points="9 19.48 9 51.48 17 56.09 17 24.09 9 19.48"/><polygon class="cls-5" points="41 10.24 41 19.48 33 14.86 33 14.86 41 10.24"/><polygon class="cls-5" points="9 10.24 9 19.48 17 14.86 17 14.86 9 10.24"/></g></g></svg>