<svg xmlns="http://www.w3.org/2000/svg" width="64.46" height="61.71" viewBox="0 0 64.46 61.71"><defs><style>.cls-1,.cls-4{fill:#d5dae0;}.cls-2,.cls-3,.cls-5{fill:none;}.cls-2,.cls-3,.cls-4{stroke:#d5dae0;}.cls-2,.cls-3,.cls-4,.cls-5{stroke-linecap:round;stroke-linejoin:round;stroke-width:2px;}.cls-3,.cls-4{stroke-dasharray:0 4;}.cls-5{stroke:#627386;}</style></defs><title>wire_07</title><g id="Layer_2" data-name="Layer 2"><g id="Layer_1-2" data-name="Layer 1"><line class="cls-1" x1="8.23" y1="46.86" x2="56.23" y2="46.86"/><line class="cls-2" x1="8.23" y1="46.86" x2="8.23" y2="46.86"/><line class="cls-3" x1="12.23" y1="46.86" x2="54.23" y2="46.86"/><line class="cls-2" x1="56.23" y1="46.86" x2="56.23" y2="46.86"/><line class="cls-1" x1="8.23" y1="14.86" x2="56.23" y2="14.86"/><line class="cls-2" x1="8.23" y1="14.86" x2="8.23" y2="14.86"/><line class="cls-3" x1="12.23" y1="14.86" x2="54.23" y2="14.86"/><line class="cls-2" x1="56.23" y1="14.86" x2="56.23" y2="14.86"/><line class="cls-4" x1="32.23" y1="59.17" x2="32.23" y2="1"/><polygon class="cls-2" points="56.23 14.86 32.23 1 8.23 14.86 32.23 28.71 56.23 14.86"/><polygon class="cls-2" points="56.23 46.86 32.23 60.71 32.23 28.71 56.23 14.86 56.23 46.86"/><polygon class="cls-2" points="8.23 46.86 32.23 60.71 32.23 28.71 8.23 14.86 8.23 46.86"/><path class="cls-5" d="M60.37,34.85h0L32.23,1,4.05,34.85h0c-5.59,6.72-3.6,15,6,20.58,12.21,7,32,7,44.2,0C64,49.86,66,41.57,60.37,34.85Z"/></g></g></svg>