<svg xmlns="http://www.w3.org/2000/svg" width="50" height="61.71" viewBox="0 0 50 61.71"><defs><style>.cls-1,.cls-3{fill:none;}.cls-1,.cls-2{stroke:#d5dae0;}.cls-1,.cls-2,.cls-3{stroke-linecap:round;stroke-linejoin:round;stroke-width:2px;}.cls-2{fill:#d5dae0;stroke-dasharray:0 4;}.cls-3{stroke:#627386;}</style></defs><title>wire_06</title><g id="Layer_2" data-name="Layer 2"><g id="Layer_1-2" data-name="Layer 1"><path class="cls-1" d="M1,14.86v32C1,50.4,3.34,54,8,56.65c9.37,5.42,24.57,5.42,33.94,0,4.69-2.7,7-6.25,7-9.79v-32"/><ellipse class="cls-1" cx="25" cy="14.86" rx="24" ry="13.86"/><line class="cls-2" x1="49" y1="46.86" x2="1" y2="46.86"/><line class="cls-2" x1="49" y1="14.86" x2="1" y2="14.86"/><path class="cls-3" d="M1,14.86v32C1,50.4,3.34,54,8,56.65L42,37.06"/><path class="cls-3" d="M8,24.65C-1.34,19.24-1.34,10.47,8,5.06S32.6-.35,42,5.06Z"/><polygon class="cls-3" points="41.97 5.06 41.97 37.06 8.03 56.65 8.03 24.65 41.97 5.06"/></g></g></svg>