<svg xmlns="http://www.w3.org/2000/svg" width="64.5" height="61.71" viewBox="0 0 64.5 61.71"><defs><style>.cls-1{fill:#d5dae0;}.cls-2,.cls-3,.cls-4{fill:none;stroke-linecap:round;stroke-linejoin:round;stroke-width:2px;}.cls-2,.cls-3{stroke:#d5dae0;}.cls-3{stroke-dasharray:0 4;}.cls-4{stroke:#627386;}</style></defs><title>wire_03</title><g id="Layer_2" data-name="Layer 2"><g id="Layer_1-2" data-name="Layer 1"><line class="cls-1" x1="8.25" y1="46.86" x2="56.25" y2="46.86"/><line class="cls-2" x1="8.25" y1="46.86" x2="8.25" y2="46.86"/><line class="cls-3" x1="12.25" y1="46.86" x2="54.25" y2="46.86"/><line class="cls-2" x1="56.25" y1="46.86" x2="56.25" y2="46.86"/><line class="cls-1" x1="8.25" y1="14.86" x2="56.25" y2="14.86"/><line class="cls-2" x1="8.25" y1="14.86" x2="8.25" y2="14.86"/><line class="cls-3" x1="12.25" y1="14.86" x2="54.25" y2="14.86"/><line class="cls-2" x1="56.25" y1="14.86" x2="56.25" y2="14.86"/><polygon class="cls-2" points="56.25 14.86 32.25 1 8.25 14.86 32.25 28.71 56.25 14.86"/><polygon class="cls-2" points="56.25 46.86 32.25 60.71 32.25 28.71 56.25 14.86 56.25 46.86"/><polygon class="cls-2" points="8.25 46.86 32.25 60.71 32.25 28.71 8.25 14.86 8.25 46.86"/><polygon class="cls-4" points="63.5 42.67 32.25 1 32.25 60.71 63.5 42.67"/><polygon class="cls-4" points="1 42.67 32.25 1 32.25 60.71 1 42.67"/></g></g></svg>